<svg baseProfile="full" height="400" version="1.1" width="600" xmlns="http://www.w3.org/2000/svg" xmlns:ev="http://www.w3.org/2001/xml-events" xmlns:xlink="http://www.w3.org/1999/xlink"><defs/><g id="lines" stroke="black"><line x1="93.75" x2="93.75" y1="378.6737645150643" y2="20.0"/><line x1="93.75" x2="228.125" y1="20.0" y2="20.0"/><line x1="50.0" x2="50.0" y1="380.0" y2="378.6737645150643"/><line x1="50.0" x2="93.75" y1="378.6737645150643" y2="378.6737645150643"/><line x1="137.5" x2="137.5" y1="378.8245217196817" y2="378.6737645150643"/><line x1="137.5" x2="93.75" y1="378.6737645150643" y2="378.6737645150643"/><line x1="100.0" x2="100.0" y1="380.0" y2="378.8245217196817"/><line x1="100.0" x2="137.5" y1="378.8245217196817" y2="378.8245217196817"/><line x1="175.0" x2="175.0" y1="378.9255106017718" y2="378.8245217196817"/><line x1="175.0" x2="137.5" y1="378.8245217196817" y2="378.8245217196817"/><line x1="150.0" x2="150.0" y1="380.0" y2="378.9255106017718"/><line x1="150.0" x2="175.0" y1="378.9255106017718" y2="378.9255106017718"/><line x1="200.0" x2="200.0" y1="380.0" y2="378.9255106017718"/><line x1="200.0" x2="175.0" y1="378.9255106017718" y2="378.9255106017718"/><line x1="362.5" x2="362.5" y1="262.9360351259475" y2="20.0"/><line x1="362.5" x2="228.125" y1="20.0" y2="20.0"/><line x1="287.5" x2="287.5" y1="378.7841345404042" y2="262.9360351259475"/><line x1="287.5" x2="362.5" y1="262.9360351259475" y2="262.9360351259475"/><line x1="250.0" x2="250.0" y1="380.0" y2="378.7841345404042"/><line x1="250.0" x2="287.5" y1="378.7841345404042" y2="378.7841345404042"/><line x1="325.0" x2="325.0" y1="378.9886204347587" y2="378.7841345404042"/><line x1="325.0" x2="287.5" y1="378.7841345404042" y2="378.7841345404042"/><line x1="300.0" x2="300.0" y1="380.0" y2="378.9886204347587"/><line x1="300.0" x2="325.0" y1="378.9886204347587" y2="378.9886204347587"/><line x1="350.0" x2="350.0" y1="380.0" y2="378.9886204347587"/><line x1="350.0" x2="325.0" y1="378.9886204347587" y2="378.9886204347587"/><line x1="437.5" x2="437.5" y1="378.76294068916224" y2="262.9360351259475"/><line x1="437.5" x2="362.5" y1="262.9360351259475" y2="262.9360351259475"/><line x1="400.0" x2="400.0" y1="380.0" y2="378.76294068916224"/><line x1="400.0" x2="437.5" y1="378.76294068916224" y2="378.76294068916224"/><line x1="475.0" x2="475.0" y1="378.82574725650153" y2="378.76294068916224"/><line x1="475.0" x2="437.5" y1="378.76294068916224" y2="378.76294068916224"/><line x1="450.0" x2="450.0" y1="380.0" y2="378.82574725650153"/><line x1="450.0" x2="475.0" y1="378.82574725650153" y2="378.82574725650153"/><line x1="500.0" x2="500.0" y1="380.0" y2="378.82574725650153"/><line x1="500.0" x2="475.0" y1="378.82574725650153" y2="378.82574725650153"/></g><g font-size="14" text-anchor="start"><text x="142.5" y="373.8245217196817">0.0117</text><text x="180.0" y="373.9255106017718">0.0107</text><text x="367.5" y="257.9360351259475">1.1630</text><text x="330.0" y="373.9886204347587">0.0100</text><text x="442.5" y="373.76294068916224">0.0123</text><text x="480.0" y="373.82574725650153">0.0117</text></g><g font-size="14" text-anchor="end"><text x="88.75" y="373.6737645150643">0.0132</text><text x="282.5" y="373.7841345404042">0.0121</text></g><g font-size="14" text-anchor="middle"><text x="228.125" y="15.0">3.5766</text><text x="50.0" y="400.0">0.0000</text><text x="100.0" y="400.0">0.0000</text><text x="150.0" y="400.0">0.0000</text><text x="200.0" y="400.0">0.0000</text><text x="250.0" y="400.0">0.0000</text><text x="300.0" y="400.0">0.0000</text><text x="350.0" y="400.0">0.0000</text><text x="400.0" y="400.0">0.0000</text><text x="450.0" y="400.0">0.0000</text><text x="500.0" y="400.0">0.0000</text></g><circle cx="228.125" cy="20.0" fill="black" r="3"/><circle cx="93.75" cy="378.6737645150643" fill="black" r="3"/><circle cx="50.0" cy="380.0" fill="black" r="3"/><circle cx="137.5" cy="378.8245217196817" fill="black" r="3"/><circle cx="100.0" cy="380.0" fill="black" r="3"/><circle cx="175.0" cy="378.9255106017718" fill="black" r="3"/><circle cx="150.0" cy="380.0" fill="black" r="3"/><circle cx="200.0" cy="380.0" fill="black" r="3"/><circle cx="362.5" cy="262.9360351259475" fill="black" r="3"/><circle cx="287.5" cy="378.7841345404042" fill="black" r="3"/><circle cx="250.0" cy="380.0" fill="black" r="3"/><circle cx="325.0" cy="378.9886204347587" fill="black" r="3"/><circle cx="300.0" cy="380.0" fill="black" r="3"/><circle cx="350.0" cy="380.0" fill="black" r="3"/><circle cx="437.5" cy="378.76294068916224" fill="black" r="3"/><circle cx="400.0" cy="380.0" fill="black" r="3"/><circle cx="475.0" cy="378.82574725650153" fill="black" r="3"/><circle cx="450.0" cy="380.0" fill="black" r="3"/><circle cx="500.0" cy="380.0" fill="black" r="3"/><g alignment-baseline="middle" font-size="14" font-style="italic" text-anchor="start"/><g alignment-baseline="middle" font-size="14" font-style="italic" text-anchor="end"/></svg>