<?xml version="1.0" encoding="utf-8" standalone="no"?>
<!DOCTYPE svg PUBLIC "-//W3C//DTD SVG 1.1//EN"
  "http://www.w3.org/Graphics/SVG/1.1/DTD/svg11.dtd">
<!-- Created with matplotlib (http://matplotlib.org/) -->
<svg height="204pt" version="1.1" viewBox="0 0 420 204" width="420pt" xmlns="http://www.w3.org/2000/svg" xmlns:xlink="http://www.w3.org/1999/xlink">
 <defs>
  <style type="text/css">
*{stroke-linecap:butt;stroke-linejoin:round;}
  </style>
 </defs>
 <g id="figure_1">
  <g id="patch_1">
   <path d="M 0 204.692813 
L 420.440937 204.692813 
L 420.440937 0 
L 0 0 
z
" style="fill:#ffffff;"/>
  </g>
  <g id="axes_1">
   <g id="patch_2">
    <path d="M 33.660938 167.287656 
L 216.970938 167.287656 
L 216.970938 21.207656 
L 33.660938 21.207656 
z
" style="fill:#eaeaf2;"/>
   </g>
   <g id="matplotlib.axis_1">
    <g id="xtick_1">
     <g id="line2d_1">
      <path clip-path="url(#pdf71f9abe4)" d="M 59.84808 167.287656 
L 59.84808 21.207656 
" style="fill:none;stroke:#ffffff;stroke-linecap:round;"/>
     </g>
     <g id="line2d_2"/>
     <g id="text_1">
      <!-- 10 -->
      <defs>
       <path d="M 37.25 0 
L 28.46875 0 
L 28.46875 56 
Q 25.296875 52.984375 20.140625 49.953125 
Q 14.984375 46.921875 10.890625 45.40625 
L 10.890625 53.90625 
Q 18.265625 57.375 23.78125 62.296875 
Q 29.296875 67.234375 31.59375 71.875 
L 37.25 71.875 
z
" id="ArialMT-31"/>
       <path d="M 4.15625 35.296875 
Q 4.15625 48 6.765625 55.734375 
Q 9.375 63.484375 14.515625 67.671875 
Q 19.671875 71.875 27.484375 71.875 
Q 33.25 71.875 37.59375 69.546875 
Q 41.9375 67.234375 44.765625 62.859375 
Q 47.609375 58.5 49.21875 52.21875 
Q 50.828125 45.953125 50.828125 35.296875 
Q 50.828125 22.703125 48.234375 14.96875 
Q 45.65625 7.234375 40.5 3 
Q 35.359375 -1.21875 27.484375 -1.21875 
Q 17.140625 -1.21875 11.234375 6.203125 
Q 4.15625 15.140625 4.15625 35.296875 
z
M 13.1875 35.296875 
Q 13.1875 17.671875 17.3125 11.828125 
Q 21.4375 6 27.484375 6 
Q 33.546875 6 37.671875 11.859375 
Q 41.796875 17.71875 41.796875 35.296875 
Q 41.796875 52.984375 37.671875 58.78125 
Q 33.546875 64.59375 27.390625 64.59375 
Q 21.34375 64.59375 17.71875 59.46875 
Q 13.1875 52.9375 13.1875 35.296875 
z
" id="ArialMT-30"/>
      </defs>
      <g style="fill:#262626;" transform="translate(54.287143 181.445469)scale(0.1 -0.1)">
       <use xlink:href="#ArialMT-31"/>
       <use x="55.615234" xlink:href="#ArialMT-30"/>
      </g>
     </g>
    </g>
    <g id="xtick_2">
     <g id="line2d_3">
      <path clip-path="url(#pdf71f9abe4)" d="M 119.364314 167.287656 
L 119.364314 21.207656 
" style="fill:none;stroke:#ffffff;stroke-linecap:round;"/>
     </g>
     <g id="line2d_4"/>
     <g id="text_2">
      <!-- 20 -->
      <defs>
       <path d="M 50.34375 8.453125 
L 50.34375 0 
L 3.03125 0 
Q 2.9375 3.171875 4.046875 6.109375 
Q 5.859375 10.9375 9.828125 15.625 
Q 13.8125 20.3125 21.34375 26.46875 
Q 33.015625 36.03125 37.109375 41.625 
Q 41.21875 47.21875 41.21875 52.203125 
Q 41.21875 57.421875 37.46875 61 
Q 33.734375 64.59375 27.734375 64.59375 
Q 21.390625 64.59375 17.578125 60.78125 
Q 13.765625 56.984375 13.71875 50.25 
L 4.6875 51.171875 
Q 5.609375 61.28125 11.65625 66.578125 
Q 17.71875 71.875 27.9375 71.875 
Q 38.234375 71.875 44.234375 66.15625 
Q 50.25 60.453125 50.25 52 
Q 50.25 47.703125 48.484375 43.546875 
Q 46.734375 39.40625 42.65625 34.8125 
Q 38.578125 30.21875 29.109375 22.21875 
Q 21.1875 15.578125 18.9375 13.203125 
Q 16.703125 10.84375 15.234375 8.453125 
z
" id="ArialMT-32"/>
      </defs>
      <g style="fill:#262626;" transform="translate(113.803377 181.445469)scale(0.1 -0.1)">
       <use xlink:href="#ArialMT-32"/>
       <use x="55.615234" xlink:href="#ArialMT-30"/>
      </g>
     </g>
    </g>
    <g id="xtick_3">
     <g id="line2d_5">
      <path clip-path="url(#pdf71f9abe4)" d="M 178.880548 167.287656 
L 178.880548 21.207656 
" style="fill:none;stroke:#ffffff;stroke-linecap:round;"/>
     </g>
     <g id="line2d_6"/>
     <g id="text_3">
      <!-- 30 -->
      <defs>
       <path d="M 4.203125 18.890625 
L 12.984375 20.0625 
Q 14.5 12.59375 18.140625 9.296875 
Q 21.78125 6 27 6 
Q 33.203125 6 37.46875 10.296875 
Q 41.75 14.59375 41.75 20.953125 
Q 41.75 27 37.796875 30.921875 
Q 33.84375 34.859375 27.734375 34.859375 
Q 25.25 34.859375 21.53125 33.890625 
L 22.515625 41.609375 
Q 23.390625 41.5 23.921875 41.5 
Q 29.546875 41.5 34.03125 44.421875 
Q 38.53125 47.359375 38.53125 53.46875 
Q 38.53125 58.296875 35.25 61.46875 
Q 31.984375 64.65625 26.8125 64.65625 
Q 21.6875 64.65625 18.265625 61.421875 
Q 14.84375 58.203125 13.875 51.765625 
L 5.078125 53.328125 
Q 6.6875 62.15625 12.390625 67.015625 
Q 18.109375 71.875 26.609375 71.875 
Q 32.46875 71.875 37.390625 69.359375 
Q 42.328125 66.84375 44.9375 62.5 
Q 47.5625 58.15625 47.5625 53.265625 
Q 47.5625 48.640625 45.0625 44.828125 
Q 42.578125 41.015625 37.703125 38.765625 
Q 44.046875 37.3125 47.5625 32.6875 
Q 51.078125 28.078125 51.078125 21.140625 
Q 51.078125 11.765625 44.234375 5.25 
Q 37.40625 -1.265625 26.953125 -1.265625 
Q 17.53125 -1.265625 11.296875 4.34375 
Q 5.078125 9.96875 4.203125 18.890625 
z
" id="ArialMT-33"/>
      </defs>
      <g style="fill:#262626;" transform="translate(173.31961 181.445469)scale(0.1 -0.1)">
       <use xlink:href="#ArialMT-33"/>
       <use x="55.615234" xlink:href="#ArialMT-30"/>
      </g>
     </g>
    </g>
    <g id="text_4">
     <!-- rmin -->
     <defs>
      <path d="M 6.5 0 
L 6.5 51.859375 
L 14.40625 51.859375 
L 14.40625 44 
Q 17.4375 49.515625 20 51.265625 
Q 22.5625 53.03125 25.640625 53.03125 
Q 30.078125 53.03125 34.671875 50.203125 
L 31.640625 42.046875 
Q 28.421875 43.953125 25.203125 43.953125 
Q 22.3125 43.953125 20.015625 42.21875 
Q 17.71875 40.484375 16.75 37.40625 
Q 15.28125 32.71875 15.28125 27.15625 
L 15.28125 0 
z
" id="ArialMT-72"/>
      <path d="M 6.59375 0 
L 6.59375 51.859375 
L 14.453125 51.859375 
L 14.453125 44.578125 
Q 16.890625 48.390625 20.9375 50.703125 
Q 25 53.03125 30.171875 53.03125 
Q 35.9375 53.03125 39.625 50.640625 
Q 43.3125 48.25 44.828125 43.953125 
Q 50.984375 53.03125 60.84375 53.03125 
Q 68.5625 53.03125 72.703125 48.75 
Q 76.859375 44.484375 76.859375 35.59375 
L 76.859375 0 
L 68.109375 0 
L 68.109375 32.671875 
Q 68.109375 37.9375 67.25 40.25 
Q 66.40625 42.578125 64.15625 43.984375 
Q 61.921875 45.40625 58.890625 45.40625 
Q 53.421875 45.40625 49.796875 41.765625 
Q 46.1875 38.140625 46.1875 30.125 
L 46.1875 0 
L 37.40625 0 
L 37.40625 33.6875 
Q 37.40625 39.546875 35.25 42.46875 
Q 33.109375 45.40625 28.21875 45.40625 
Q 24.515625 45.40625 21.359375 43.453125 
Q 18.21875 41.5 16.796875 37.734375 
Q 15.375 33.984375 15.375 26.90625 
L 15.375 0 
z
" id="ArialMT-6d"/>
      <path d="M 6.640625 61.46875 
L 6.640625 71.578125 
L 15.4375 71.578125 
L 15.4375 61.46875 
z
M 6.640625 0 
L 6.640625 51.859375 
L 15.4375 51.859375 
L 15.4375 0 
z
" id="ArialMT-69"/>
      <path d="M 6.59375 0 
L 6.59375 51.859375 
L 14.5 51.859375 
L 14.5 44.484375 
Q 20.21875 53.03125 31 53.03125 
Q 35.6875 53.03125 39.625 51.34375 
Q 43.5625 49.65625 45.515625 46.921875 
Q 47.46875 44.1875 48.25 40.4375 
Q 48.734375 37.984375 48.734375 31.890625 
L 48.734375 0 
L 39.9375 0 
L 39.9375 31.546875 
Q 39.9375 36.921875 38.90625 39.578125 
Q 37.890625 42.234375 35.28125 43.8125 
Q 32.671875 45.40625 29.15625 45.40625 
Q 23.53125 45.40625 19.453125 41.84375 
Q 15.375 38.28125 15.375 28.328125 
L 15.375 0 
z
" id="ArialMT-6e"/>
     </defs>
     <g style="fill:#262626;" transform="translate(114.622734 195.306563)scale(0.11 -0.11)">
      <use xlink:href="#ArialMT-72"/>
      <use x="33.300781" xlink:href="#ArialMT-6d"/>
      <use x="116.601562" xlink:href="#ArialMT-69"/>
      <use x="138.818359" xlink:href="#ArialMT-6e"/>
     </g>
    </g>
   </g>
   <g id="matplotlib.axis_2">
    <g id="ytick_1">
     <g id="line2d_7">
      <path clip-path="url(#pdf71f9abe4)" d="M 33.660938 167.287656 
L 216.970938 167.287656 
" style="fill:none;stroke:#ffffff;stroke-linecap:round;"/>
     </g>
     <g id="line2d_8"/>
     <g id="text_5">
      <!-- 0.00 -->
      <defs>
       <path d="M 9.078125 0 
L 9.078125 10.015625 
L 19.09375 10.015625 
L 19.09375 0 
z
" id="ArialMT-2e"/>
      </defs>
      <g style="fill:#262626;" transform="translate(7.2 170.866562)scale(0.1 -0.1)">
       <use xlink:href="#ArialMT-30"/>
       <use x="55.615234" xlink:href="#ArialMT-2e"/>
       <use x="83.398438" xlink:href="#ArialMT-30"/>
       <use x="139.013672" xlink:href="#ArialMT-30"/>
      </g>
     </g>
    </g>
    <g id="ytick_2">
     <g id="line2d_9">
      <path clip-path="url(#pdf71f9abe4)" d="M 33.660938 144.507149 
L 216.970938 144.507149 
" style="fill:none;stroke:#ffffff;stroke-linecap:round;"/>
     </g>
     <g id="line2d_10"/>
     <g id="text_6">
      <!-- 0.02 -->
      <g style="fill:#262626;" transform="translate(7.2 148.086056)scale(0.1 -0.1)">
       <use xlink:href="#ArialMT-30"/>
       <use x="55.615234" xlink:href="#ArialMT-2e"/>
       <use x="83.398438" xlink:href="#ArialMT-30"/>
       <use x="139.013672" xlink:href="#ArialMT-32"/>
      </g>
     </g>
    </g>
    <g id="ytick_3">
     <g id="line2d_11">
      <path clip-path="url(#pdf71f9abe4)" d="M 33.660938 121.726643 
L 216.970938 121.726643 
" style="fill:none;stroke:#ffffff;stroke-linecap:round;"/>
     </g>
     <g id="line2d_12"/>
     <g id="text_7">
      <!-- 0.04 -->
      <defs>
       <path d="M 32.328125 0 
L 32.328125 17.140625 
L 1.265625 17.140625 
L 1.265625 25.203125 
L 33.9375 71.578125 
L 41.109375 71.578125 
L 41.109375 25.203125 
L 50.78125 25.203125 
L 50.78125 17.140625 
L 41.109375 17.140625 
L 41.109375 0 
z
M 32.328125 25.203125 
L 32.328125 57.46875 
L 9.90625 25.203125 
z
" id="ArialMT-34"/>
      </defs>
      <g style="fill:#262626;" transform="translate(7.2 125.305549)scale(0.1 -0.1)">
       <use xlink:href="#ArialMT-30"/>
       <use x="55.615234" xlink:href="#ArialMT-2e"/>
       <use x="83.398438" xlink:href="#ArialMT-30"/>
       <use x="139.013672" xlink:href="#ArialMT-34"/>
      </g>
     </g>
    </g>
    <g id="ytick_4">
     <g id="line2d_13">
      <path clip-path="url(#pdf71f9abe4)" d="M 33.660938 98.946136 
L 216.970938 98.946136 
" style="fill:none;stroke:#ffffff;stroke-linecap:round;"/>
     </g>
     <g id="line2d_14"/>
     <g id="text_8">
      <!-- 0.06 -->
      <defs>
       <path d="M 49.75 54.046875 
L 41.015625 53.375 
Q 39.84375 58.546875 37.703125 60.890625 
Q 34.125 64.65625 28.90625 64.65625 
Q 24.703125 64.65625 21.53125 62.3125 
Q 17.390625 59.28125 14.984375 53.46875 
Q 12.59375 47.65625 12.5 36.921875 
Q 15.671875 41.75 20.265625 44.09375 
Q 24.859375 46.4375 29.890625 46.4375 
Q 38.671875 46.4375 44.84375 39.96875 
Q 51.03125 33.5 51.03125 23.25 
Q 51.03125 16.5 48.125 10.71875 
Q 45.21875 4.9375 40.140625 1.859375 
Q 35.0625 -1.21875 28.609375 -1.21875 
Q 17.625 -1.21875 10.6875 6.859375 
Q 3.765625 14.9375 3.765625 33.5 
Q 3.765625 54.25 11.421875 63.671875 
Q 18.109375 71.875 29.4375 71.875 
Q 37.890625 71.875 43.28125 67.140625 
Q 48.6875 62.40625 49.75 54.046875 
z
M 13.875 23.1875 
Q 13.875 18.65625 15.796875 14.5 
Q 17.71875 10.359375 21.1875 8.171875 
Q 24.65625 6 28.46875 6 
Q 34.03125 6 38.03125 10.484375 
Q 42.046875 14.984375 42.046875 22.703125 
Q 42.046875 30.125 38.078125 34.390625 
Q 34.125 38.671875 28.125 38.671875 
Q 22.171875 38.671875 18.015625 34.390625 
Q 13.875 30.125 13.875 23.1875 
z
" id="ArialMT-36"/>
      </defs>
      <g style="fill:#262626;" transform="translate(7.2 102.525042)scale(0.1 -0.1)">
       <use xlink:href="#ArialMT-30"/>
       <use x="55.615234" xlink:href="#ArialMT-2e"/>
       <use x="83.398438" xlink:href="#ArialMT-30"/>
       <use x="139.013672" xlink:href="#ArialMT-36"/>
      </g>
     </g>
    </g>
    <g id="ytick_5">
     <g id="line2d_15">
      <path clip-path="url(#pdf71f9abe4)" d="M 33.660938 76.165629 
L 216.970938 76.165629 
" style="fill:none;stroke:#ffffff;stroke-linecap:round;"/>
     </g>
     <g id="line2d_16"/>
     <g id="text_9">
      <!-- 0.08 -->
      <defs>
       <path d="M 17.671875 38.8125 
Q 12.203125 40.828125 9.5625 44.53125 
Q 6.9375 48.25 6.9375 53.421875 
Q 6.9375 61.234375 12.546875 66.546875 
Q 18.171875 71.875 27.484375 71.875 
Q 36.859375 71.875 42.578125 66.421875 
Q 48.296875 60.984375 48.296875 53.171875 
Q 48.296875 48.1875 45.671875 44.5 
Q 43.0625 40.828125 37.75 38.8125 
Q 44.34375 36.671875 47.78125 31.875 
Q 51.21875 27.09375 51.21875 20.453125 
Q 51.21875 11.28125 44.71875 5.03125 
Q 38.234375 -1.21875 27.640625 -1.21875 
Q 17.046875 -1.21875 10.546875 5.046875 
Q 4.046875 11.328125 4.046875 20.703125 
Q 4.046875 27.6875 7.59375 32.390625 
Q 11.140625 37.109375 17.671875 38.8125 
z
M 15.921875 53.71875 
Q 15.921875 48.640625 19.1875 45.40625 
Q 22.46875 42.1875 27.6875 42.1875 
Q 32.765625 42.1875 36.015625 45.375 
Q 39.265625 48.578125 39.265625 53.21875 
Q 39.265625 58.0625 35.90625 61.359375 
Q 32.5625 64.65625 27.59375 64.65625 
Q 22.5625 64.65625 19.234375 61.421875 
Q 15.921875 58.203125 15.921875 53.71875 
z
M 13.09375 20.65625 
Q 13.09375 16.890625 14.875 13.375 
Q 16.65625 9.859375 20.171875 7.921875 
Q 23.6875 6 27.734375 6 
Q 34.03125 6 38.125 10.046875 
Q 42.234375 14.109375 42.234375 20.359375 
Q 42.234375 26.703125 38.015625 30.859375 
Q 33.796875 35.015625 27.4375 35.015625 
Q 21.234375 35.015625 17.15625 30.90625 
Q 13.09375 26.8125 13.09375 20.65625 
z
" id="ArialMT-38"/>
      </defs>
      <g style="fill:#262626;" transform="translate(7.2 79.744535)scale(0.1 -0.1)">
       <use xlink:href="#ArialMT-30"/>
       <use x="55.615234" xlink:href="#ArialMT-2e"/>
       <use x="83.398438" xlink:href="#ArialMT-30"/>
       <use x="139.013672" xlink:href="#ArialMT-38"/>
      </g>
     </g>
    </g>
    <g id="ytick_6">
     <g id="line2d_17">
      <path clip-path="url(#pdf71f9abe4)" d="M 33.660938 53.385122 
L 216.970938 53.385122 
" style="fill:none;stroke:#ffffff;stroke-linecap:round;"/>
     </g>
     <g id="line2d_18"/>
     <g id="text_10">
      <!-- 0.10 -->
      <g style="fill:#262626;" transform="translate(7.2 56.964028)scale(0.1 -0.1)">
       <use xlink:href="#ArialMT-30"/>
       <use x="55.615234" xlink:href="#ArialMT-2e"/>
       <use x="83.398438" xlink:href="#ArialMT-31"/>
       <use x="139.013672" xlink:href="#ArialMT-30"/>
      </g>
     </g>
    </g>
    <g id="ytick_7">
     <g id="line2d_19">
      <path clip-path="url(#pdf71f9abe4)" d="M 33.660938 30.604615 
L 216.970938 30.604615 
" style="fill:none;stroke:#ffffff;stroke-linecap:round;"/>
     </g>
     <g id="line2d_20"/>
     <g id="text_11">
      <!-- 0.12 -->
      <g style="fill:#262626;" transform="translate(7.2 34.183522)scale(0.1 -0.1)">
       <use xlink:href="#ArialMT-30"/>
       <use x="55.615234" xlink:href="#ArialMT-2e"/>
       <use x="83.398438" xlink:href="#ArialMT-31"/>
       <use x="139.013672" xlink:href="#ArialMT-32"/>
      </g>
     </g>
    </g>
   </g>
   <g id="patch_3">
    <path clip-path="url(#pdf71f9abe4)" d="M 41.99321 167.287656 
L 50.764024 167.287656 
L 50.764024 164.968926 
L 41.99321 164.968926 
z
" style="fill:#4682b4;"/>
   </g>
   <g id="patch_4">
    <path clip-path="url(#pdf71f9abe4)" d="M 50.764024 167.287656 
L 59.534837 167.287656 
L 59.534837 165.741836 
L 50.764024 165.741836 
z
" style="fill:#4682b4;"/>
   </g>
   <g id="patch_5">
    <path clip-path="url(#pdf71f9abe4)" d="M 59.534837 167.287656 
L 68.30565 167.287656 
L 68.30565 161.877286 
L 59.534837 161.877286 
z
" style="fill:#4682b4;"/>
   </g>
   <g id="patch_6">
    <path clip-path="url(#pdf71f9abe4)" d="M 68.30565 167.287656 
L 77.076464 167.287656 
L 77.076464 161.104376 
L 68.30565 161.104376 
z
" style="fill:#4682b4;"/>
   </g>
   <g id="patch_7">
    <path clip-path="url(#pdf71f9abe4)" d="M 77.076464 167.287656 
L 85.847277 167.287656 
L 85.847277 138.689984 
L 77.076464 138.689984 
z
" style="fill:#4682b4;"/>
   </g>
   <g id="patch_8">
    <path clip-path="url(#pdf71f9abe4)" d="M 85.847277 167.287656 
L 94.618091 167.287656 
L 94.618091 137.144164 
L 85.847277 137.144164 
z
" style="fill:#4682b4;"/>
   </g>
   <g id="patch_9">
    <path clip-path="url(#pdf71f9abe4)" d="M 94.618091 167.287656 
L 103.388904 167.287656 
L 103.388904 89.996651 
L 94.618091 89.996651 
z
" style="fill:#4682b4;"/>
   </g>
   <g id="patch_10">
    <path clip-path="url(#pdf71f9abe4)" d="M 103.388904 167.287656 
L 112.159717 167.287656 
L 112.159717 103.909032 
L 103.388904 103.909032 
z
" style="fill:#4682b4;"/>
   </g>
   <g id="patch_11">
    <path clip-path="url(#pdf71f9abe4)" d="M 112.159717 167.287656 
L 120.930531 167.287656 
L 120.930531 52.896968 
L 112.159717 52.896968 
z
" style="fill:#4682b4;"/>
   </g>
   <g id="patch_12">
    <path clip-path="url(#pdf71f9abe4)" d="M 120.930531 167.287656 
L 129.701344 167.287656 
L 129.701344 107.773582 
L 120.930531 107.773582 
z
" style="fill:#4682b4;"/>
   </g>
   <g id="patch_13">
    <path clip-path="url(#pdf71f9abe4)" d="M 129.701344 167.287656 
L 138.472158 167.287656 
L 138.472158 45.167868 
L 129.701344 45.167868 
z
" style="fill:#4682b4;"/>
   </g>
   <g id="patch_14">
    <path clip-path="url(#pdf71f9abe4)" d="M 138.472158 167.287656 
L 147.242971 167.287656 
L 147.242971 110.092312 
L 138.472158 110.092312 
z
" style="fill:#4682b4;"/>
   </g>
   <g id="patch_15">
    <path clip-path="url(#pdf71f9abe4)" d="M 147.242971 167.287656 
L 156.013784 167.287656 
L 156.013784 72.21972 
L 147.242971 72.21972 
z
" style="fill:#4682b4;"/>
   </g>
   <g id="patch_16">
    <path clip-path="url(#pdf71f9abe4)" d="M 156.013784 167.287656 
L 164.784598 167.287656 
L 164.784598 131.733794 
L 156.013784 131.733794 
z
" style="fill:#4682b4;"/>
   </g>
   <g id="patch_17">
    <path clip-path="url(#pdf71f9abe4)" d="M 164.784598 167.287656 
L 173.555411 167.287656 
L 173.555411 128.642154 
L 164.784598 128.642154 
z
" style="fill:#4682b4;"/>
   </g>
   <g id="patch_18">
    <path clip-path="url(#pdf71f9abe4)" d="M 173.555411 167.287656 
L 182.326225 167.287656 
L 182.326225 158.012736 
L 173.555411 158.012736 
z
" style="fill:#4682b4;"/>
   </g>
   <g id="patch_19">
    <path clip-path="url(#pdf71f9abe4)" d="M 182.326225 167.287656 
L 191.097038 167.287656 
L 191.097038 151.056545 
L 182.326225 151.056545 
z
" style="fill:#4682b4;"/>
   </g>
   <g id="patch_20">
    <path clip-path="url(#pdf71f9abe4)" d="M 191.097038 167.287656 
L 199.867851 167.287656 
L 199.867851 162.650196 
L 191.097038 162.650196 
z
" style="fill:#4682b4;"/>
   </g>
   <g id="patch_21">
    <path clip-path="url(#pdf71f9abe4)" d="M 199.867851 167.287656 
L 208.638665 167.287656 
L 208.638665 161.877286 
L 199.867851 161.877286 
z
" style="fill:#4682b4;"/>
   </g>
   <g id="patch_22">
    <path d="M 33.660938 167.287656 
L 33.660938 21.207656 
" style="fill:none;"/>
   </g>
   <g id="patch_23">
    <path d="M 33.660938 167.287656 
L 216.970938 167.287656 
" style="fill:none;"/>
   </g>
   <g id="text_12">
    <!-- engine = msprime -->
    <defs>
     <path d="M 42.09375 16.703125 
L 51.171875 15.578125 
Q 49.03125 7.625 43.21875 3.21875 
Q 37.40625 -1.171875 28.375 -1.171875 
Q 17 -1.171875 10.328125 5.828125 
Q 3.65625 12.84375 3.65625 25.484375 
Q 3.65625 38.578125 10.390625 45.796875 
Q 17.140625 53.03125 27.875 53.03125 
Q 38.28125 53.03125 44.875 45.953125 
Q 51.46875 38.875 51.46875 26.03125 
Q 51.46875 25.25 51.421875 23.6875 
L 12.75 23.6875 
Q 13.234375 15.140625 17.578125 10.59375 
Q 21.921875 6.0625 28.421875 6.0625 
Q 33.25 6.0625 36.671875 8.59375 
Q 40.09375 11.140625 42.09375 16.703125 
z
M 13.234375 30.90625 
L 42.1875 30.90625 
Q 41.609375 37.453125 38.875 40.71875 
Q 34.671875 45.796875 27.984375 45.796875 
Q 21.921875 45.796875 17.796875 41.75 
Q 13.671875 37.703125 13.234375 30.90625 
z
" id="ArialMT-65"/>
     <path d="M 4.984375 -4.296875 
L 13.53125 -5.5625 
Q 14.0625 -9.515625 16.5 -11.328125 
Q 19.78125 -13.765625 25.4375 -13.765625 
Q 31.546875 -13.765625 34.859375 -11.328125 
Q 38.1875 -8.890625 39.359375 -4.5 
Q 40.046875 -1.8125 39.984375 6.78125 
Q 34.234375 0 25.640625 0 
Q 14.9375 0 9.078125 7.71875 
Q 3.21875 15.4375 3.21875 26.21875 
Q 3.21875 33.640625 5.90625 39.90625 
Q 8.59375 46.1875 13.6875 49.609375 
Q 18.796875 53.03125 25.6875 53.03125 
Q 34.859375 53.03125 40.828125 45.609375 
L 40.828125 51.859375 
L 48.921875 51.859375 
L 48.921875 7.03125 
Q 48.921875 -5.078125 46.453125 -10.125 
Q 44 -15.1875 38.640625 -18.109375 
Q 33.296875 -21.046875 25.484375 -21.046875 
Q 16.21875 -21.046875 10.5 -16.875 
Q 4.78125 -12.703125 4.984375 -4.296875 
z
M 12.25 26.859375 
Q 12.25 16.65625 16.296875 11.96875 
Q 20.359375 7.28125 26.46875 7.28125 
Q 32.515625 7.28125 36.609375 11.9375 
Q 40.71875 16.609375 40.71875 26.5625 
Q 40.71875 36.078125 36.5 40.90625 
Q 32.28125 45.75 26.3125 45.75 
Q 20.453125 45.75 16.34375 40.984375 
Q 12.25 36.234375 12.25 26.859375 
z
" id="ArialMT-67"/>
     <path id="ArialMT-20"/>
     <path d="M 52.828125 42.09375 
L 5.5625 42.09375 
L 5.5625 50.296875 
L 52.828125 50.296875 
z
M 52.828125 20.359375 
L 5.5625 20.359375 
L 5.5625 28.5625 
L 52.828125 28.5625 
z
" id="ArialMT-3d"/>
     <path d="M 3.078125 15.484375 
L 11.765625 16.84375 
Q 12.5 11.625 15.84375 8.84375 
Q 19.1875 6.0625 25.203125 6.0625 
Q 31.25 6.0625 34.171875 8.515625 
Q 37.109375 10.984375 37.109375 14.3125 
Q 37.109375 17.28125 34.515625 19 
Q 32.71875 20.171875 25.53125 21.96875 
Q 15.875 24.421875 12.140625 26.203125 
Q 8.40625 27.984375 6.46875 31.125 
Q 4.546875 34.28125 4.546875 38.09375 
Q 4.546875 41.546875 6.125 44.5 
Q 7.71875 47.46875 10.453125 49.421875 
Q 12.5 50.921875 16.03125 51.96875 
Q 19.578125 53.03125 23.640625 53.03125 
Q 29.734375 53.03125 34.34375 51.265625 
Q 38.96875 49.515625 41.15625 46.5 
Q 43.359375 43.5 44.1875 38.484375 
L 35.59375 37.3125 
Q 35.015625 41.3125 32.203125 43.546875 
Q 29.390625 45.796875 24.265625 45.796875 
Q 18.21875 45.796875 15.625 43.796875 
Q 13.03125 41.796875 13.03125 39.109375 
Q 13.03125 37.40625 14.109375 36.03125 
Q 15.1875 34.625 17.484375 33.6875 
Q 18.796875 33.203125 25.25 31.453125 
Q 34.578125 28.953125 38.25 27.359375 
Q 41.9375 25.78125 44.03125 22.75 
Q 46.140625 19.734375 46.140625 15.234375 
Q 46.140625 10.84375 43.578125 6.953125 
Q 41.015625 3.078125 36.171875 0.953125 
Q 31.34375 -1.171875 25.25 -1.171875 
Q 15.140625 -1.171875 9.84375 3.03125 
Q 4.546875 7.234375 3.078125 15.484375 
z
" id="ArialMT-73"/>
     <path d="M 6.59375 -19.875 
L 6.59375 51.859375 
L 14.59375 51.859375 
L 14.59375 45.125 
Q 17.4375 49.078125 21 51.046875 
Q 24.5625 53.03125 29.640625 53.03125 
Q 36.28125 53.03125 41.359375 49.609375 
Q 46.4375 46.1875 49.015625 39.953125 
Q 51.609375 33.734375 51.609375 26.3125 
Q 51.609375 18.359375 48.75 11.984375 
Q 45.90625 5.609375 40.453125 2.21875 
Q 35.015625 -1.171875 29 -1.171875 
Q 24.609375 -1.171875 21.109375 0.6875 
Q 17.625 2.546875 15.375 5.375 
L 15.375 -19.875 
z
M 14.546875 25.640625 
Q 14.546875 15.625 18.59375 10.84375 
Q 22.65625 6.0625 28.421875 6.0625 
Q 34.28125 6.0625 38.453125 11.015625 
Q 42.625 15.96875 42.625 26.375 
Q 42.625 36.28125 38.546875 41.203125 
Q 34.46875 46.140625 28.8125 46.140625 
Q 23.1875 46.140625 18.859375 40.890625 
Q 14.546875 35.640625 14.546875 25.640625 
z
" id="ArialMT-70"/>
    </defs>
    <g style="fill:#262626;" transform="translate(81.45 15.207656)scale(0.11 -0.11)">
     <use xlink:href="#ArialMT-65"/>
     <use x="55.615234" xlink:href="#ArialMT-6e"/>
     <use x="111.230469" xlink:href="#ArialMT-67"/>
     <use x="166.845703" xlink:href="#ArialMT-69"/>
     <use x="189.0625" xlink:href="#ArialMT-6e"/>
     <use x="244.677734" xlink:href="#ArialMT-65"/>
     <use x="300.292969" xlink:href="#ArialMT-20"/>
     <use x="328.076172" xlink:href="#ArialMT-3d"/>
     <use x="386.474609" xlink:href="#ArialMT-20"/>
     <use x="414.257812" xlink:href="#ArialMT-6d"/>
     <use x="497.558594" xlink:href="#ArialMT-73"/>
     <use x="547.558594" xlink:href="#ArialMT-70"/>
     <use x="603.173828" xlink:href="#ArialMT-72"/>
     <use x="636.474609" xlink:href="#ArialMT-69"/>
     <use x="658.691406" xlink:href="#ArialMT-6d"/>
     <use x="741.992188" xlink:href="#ArialMT-65"/>
    </g>
   </g>
  </g>
  <g id="axes_2">
   <g id="patch_24">
    <path d="M 229.930937 167.287656 
L 413.240937 167.287656 
L 413.240937 21.207656 
L 229.930937 21.207656 
z
" style="fill:#eaeaf2;"/>
   </g>
   <g id="matplotlib.axis_3">
    <g id="xtick_4">
     <g id="line2d_21">
      <path clip-path="url(#p9a809c9789)" d="M 256.11808 167.287656 
L 256.11808 21.207656 
" style="fill:none;stroke:#ffffff;stroke-linecap:round;"/>
     </g>
     <g id="line2d_22"/>
     <g id="text_13">
      <!-- 10 -->
      <g style="fill:#262626;" transform="translate(250.557143 181.445469)scale(0.1 -0.1)">
       <use xlink:href="#ArialMT-31"/>
       <use x="55.615234" xlink:href="#ArialMT-30"/>
      </g>
     </g>
    </g>
    <g id="xtick_5">
     <g id="line2d_23">
      <path clip-path="url(#p9a809c9789)" d="M 315.634314 167.287656 
L 315.634314 21.207656 
" style="fill:none;stroke:#ffffff;stroke-linecap:round;"/>
     </g>
     <g id="line2d_24"/>
     <g id="text_14">
      <!-- 20 -->
      <g style="fill:#262626;" transform="translate(310.073377 181.445469)scale(0.1 -0.1)">
       <use xlink:href="#ArialMT-32"/>
       <use x="55.615234" xlink:href="#ArialMT-30"/>
      </g>
     </g>
    </g>
    <g id="xtick_6">
     <g id="line2d_25">
      <path clip-path="url(#p9a809c9789)" d="M 375.150548 167.287656 
L 375.150548 21.207656 
" style="fill:none;stroke:#ffffff;stroke-linecap:round;"/>
     </g>
     <g id="line2d_26"/>
     <g id="text_15">
      <!-- 30 -->
      <g style="fill:#262626;" transform="translate(369.58961 181.445469)scale(0.1 -0.1)">
       <use xlink:href="#ArialMT-33"/>
       <use x="55.615234" xlink:href="#ArialMT-30"/>
      </g>
     </g>
    </g>
    <g id="text_16">
     <!-- rmin -->
     <g style="fill:#262626;" transform="translate(310.892734 195.306563)scale(0.11 -0.11)">
      <use xlink:href="#ArialMT-72"/>
      <use x="33.300781" xlink:href="#ArialMT-6d"/>
      <use x="116.601562" xlink:href="#ArialMT-69"/>
      <use x="138.818359" xlink:href="#ArialMT-6e"/>
     </g>
    </g>
   </g>
   <g id="matplotlib.axis_4">
    <g id="ytick_8">
     <g id="line2d_27">
      <path clip-path="url(#p9a809c9789)" d="M 229.930937 167.287656 
L 413.240937 167.287656 
" style="fill:none;stroke:#ffffff;stroke-linecap:round;"/>
     </g>
     <g id="line2d_28"/>
    </g>
    <g id="ytick_9">
     <g id="line2d_29">
      <path clip-path="url(#p9a809c9789)" d="M 229.930937 144.507149 
L 413.240937 144.507149 
" style="fill:none;stroke:#ffffff;stroke-linecap:round;"/>
     </g>
     <g id="line2d_30"/>
    </g>
    <g id="ytick_10">
     <g id="line2d_31">
      <path clip-path="url(#p9a809c9789)" d="M 229.930937 121.726643 
L 413.240937 121.726643 
" style="fill:none;stroke:#ffffff;stroke-linecap:round;"/>
     </g>
     <g id="line2d_32"/>
    </g>
    <g id="ytick_11">
     <g id="line2d_33">
      <path clip-path="url(#p9a809c9789)" d="M 229.930937 98.946136 
L 413.240937 98.946136 
" style="fill:none;stroke:#ffffff;stroke-linecap:round;"/>
     </g>
     <g id="line2d_34"/>
    </g>
    <g id="ytick_12">
     <g id="line2d_35">
      <path clip-path="url(#p9a809c9789)" d="M 229.930937 76.165629 
L 413.240937 76.165629 
" style="fill:none;stroke:#ffffff;stroke-linecap:round;"/>
     </g>
     <g id="line2d_36"/>
    </g>
    <g id="ytick_13">
     <g id="line2d_37">
      <path clip-path="url(#p9a809c9789)" d="M 229.930937 53.385122 
L 413.240937 53.385122 
" style="fill:none;stroke:#ffffff;stroke-linecap:round;"/>
     </g>
     <g id="line2d_38"/>
    </g>
    <g id="ytick_14">
     <g id="line2d_39">
      <path clip-path="url(#p9a809c9789)" d="M 229.930937 30.604615 
L 413.240937 30.604615 
" style="fill:none;stroke:#ffffff;stroke-linecap:round;"/>
     </g>
     <g id="line2d_40"/>
    </g>
   </g>
   <g id="patch_25">
    <path clip-path="url(#p9a809c9789)" d="M 238.26321 167.287656 
L 247.034024 167.287656 
L 247.034024 167.287656 
L 238.26321 167.287656 
z
" style="fill:#4682b4;"/>
   </g>
   <g id="patch_26">
    <path clip-path="url(#p9a809c9789)" d="M 247.034024 167.287656 
L 255.804837 167.287656 
L 255.804837 163.423106 
L 247.034024 163.423106 
z
" style="fill:#4682b4;"/>
   </g>
   <g id="patch_27">
    <path clip-path="url(#p9a809c9789)" d="M 255.804837 167.287656 
L 264.57565 167.287656 
L 264.57565 167.287656 
L 255.804837 167.287656 
z
" style="fill:#4682b4;"/>
   </g>
   <g id="patch_28">
    <path clip-path="url(#p9a809c9789)" d="M 264.57565 167.287656 
L 273.346464 167.287656 
L 273.346464 163.423106 
L 264.57565 163.423106 
z
" style="fill:#4682b4;"/>
   </g>
   <g id="patch_29">
    <path clip-path="url(#p9a809c9789)" d="M 273.346464 167.287656 
L 282.117277 167.287656 
L 282.117277 151.829455 
L 273.346464 151.829455 
z
" style="fill:#4682b4;"/>
   </g>
   <g id="patch_30">
    <path clip-path="url(#p9a809c9789)" d="M 282.117277 167.287656 
L 290.888091 167.287656 
L 290.888091 128.642154 
L 282.117277 128.642154 
z
" style="fill:#4682b4;"/>
   </g>
   <g id="patch_31">
    <path clip-path="url(#p9a809c9789)" d="M 290.888091 167.287656 
L 299.658904 167.287656 
L 299.658904 89.996651 
L 290.888091 89.996651 
z
" style="fill:#4682b4;"/>
   </g>
   <g id="patch_32">
    <path clip-path="url(#p9a809c9789)" d="M 299.658904 167.287656 
L 308.429717 167.287656 
L 308.429717 117.048503 
L 299.658904 117.048503 
z
" style="fill:#4682b4;"/>
   </g>
   <g id="patch_33">
    <path clip-path="url(#p9a809c9789)" d="M 308.429717 167.287656 
L 317.200531 167.287656 
L 317.200531 28.163847 
L 308.429717 28.163847 
z
" style="fill:#4682b4;"/>
   </g>
   <g id="patch_34">
    <path clip-path="url(#p9a809c9789)" d="M 317.200531 167.287656 
L 325.971344 167.287656 
L 325.971344 105.454852 
L 317.200531 105.454852 
z
" style="fill:#4682b4;"/>
   </g>
   <g id="patch_35">
    <path clip-path="url(#p9a809c9789)" d="M 325.971344 167.287656 
L 334.742158 167.287656 
L 334.742158 35.892947 
L 325.971344 35.892947 
z
" style="fill:#4682b4;"/>
   </g>
   <g id="patch_36">
    <path clip-path="url(#p9a809c9789)" d="M 334.742158 167.287656 
L 343.512971 167.287656 
L 343.512971 117.048503 
L 334.742158 117.048503 
z
" style="fill:#4682b4;"/>
   </g>
   <g id="patch_37">
    <path clip-path="url(#p9a809c9789)" d="M 343.512971 167.287656 
L 352.283784 167.287656 
L 352.283784 62.944799 
L 343.512971 62.944799 
z
" style="fill:#4682b4;"/>
   </g>
   <g id="patch_38">
    <path clip-path="url(#p9a809c9789)" d="M 352.283784 167.287656 
L 361.054598 167.287656 
L 361.054598 147.964905 
L 352.283784 147.964905 
z
" style="fill:#4682b4;"/>
   </g>
   <g id="patch_39">
    <path clip-path="url(#p9a809c9789)" d="M 361.054598 167.287656 
L 369.825411 167.287656 
L 369.825411 132.506704 
L 361.054598 132.506704 
z
" style="fill:#4682b4;"/>
   </g>
   <g id="patch_40">
    <path clip-path="url(#p9a809c9789)" d="M 369.825411 167.287656 
L 378.596225 167.287656 
L 378.596225 155.694005 
L 369.825411 155.694005 
z
" style="fill:#4682b4;"/>
   </g>
   <g id="patch_41">
    <path clip-path="url(#p9a809c9789)" d="M 378.596225 167.287656 
L 387.367038 167.287656 
L 387.367038 151.829455 
L 378.596225 151.829455 
z
" style="fill:#4682b4;"/>
   </g>
   <g id="patch_42">
    <path clip-path="url(#p9a809c9789)" d="M 387.367038 167.287656 
L 396.137851 167.287656 
L 396.137851 163.423106 
L 387.367038 163.423106 
z
" style="fill:#4682b4;"/>
   </g>
   <g id="patch_43">
    <path clip-path="url(#p9a809c9789)" d="M 396.137851 167.287656 
L 404.908665 167.287656 
L 404.908665 155.694005 
L 396.137851 155.694005 
z
" style="fill:#4682b4;"/>
   </g>
   <g id="patch_44">
    <path d="M 229.930937 167.287656 
L 229.930937 21.207656 
" style="fill:none;"/>
   </g>
   <g id="patch_45">
    <path d="M 229.930937 167.287656 
L 413.240937 167.287656 
" style="fill:none;"/>
   </g>
   <g id="text_17">
    <!-- engine = forward -->
    <defs>
     <path d="M 8.6875 0 
L 8.6875 45.015625 
L 0.921875 45.015625 
L 0.921875 51.859375 
L 8.6875 51.859375 
L 8.6875 57.375 
Q 8.6875 62.59375 9.625 65.140625 
Q 10.890625 68.5625 14.078125 70.671875 
Q 17.28125 72.796875 23.046875 72.796875 
Q 26.765625 72.796875 31.25 71.921875 
L 29.9375 64.265625 
Q 27.203125 64.75 24.75 64.75 
Q 20.75 64.75 19.09375 63.03125 
Q 17.4375 61.328125 17.4375 56.640625 
L 17.4375 51.859375 
L 27.546875 51.859375 
L 27.546875 45.015625 
L 17.4375 45.015625 
L 17.4375 0 
z
" id="ArialMT-66"/>
     <path d="M 3.328125 25.921875 
Q 3.328125 40.328125 11.328125 47.265625 
Q 18.015625 53.03125 27.640625 53.03125 
Q 38.328125 53.03125 45.109375 46.015625 
Q 51.90625 39.015625 51.90625 26.65625 
Q 51.90625 16.65625 48.90625 10.90625 
Q 45.90625 5.171875 40.15625 2 
Q 34.421875 -1.171875 27.640625 -1.171875 
Q 16.75 -1.171875 10.03125 5.8125 
Q 3.328125 12.796875 3.328125 25.921875 
z
M 12.359375 25.921875 
Q 12.359375 15.96875 16.703125 11.015625 
Q 21.046875 6.0625 27.640625 6.0625 
Q 34.1875 6.0625 38.53125 11.03125 
Q 42.875 16.015625 42.875 26.21875 
Q 42.875 35.84375 38.5 40.796875 
Q 34.125 45.75 27.640625 45.75 
Q 21.046875 45.75 16.703125 40.8125 
Q 12.359375 35.890625 12.359375 25.921875 
z
" id="ArialMT-6f"/>
     <path d="M 16.15625 0 
L 0.296875 51.859375 
L 9.375 51.859375 
L 17.625 21.921875 
L 20.703125 10.796875 
Q 20.90625 11.625 23.390625 21.484375 
L 31.640625 51.859375 
L 40.671875 51.859375 
L 48.4375 21.78125 
L 51.03125 11.859375 
L 54 21.875 
L 62.890625 51.859375 
L 71.4375 51.859375 
L 55.21875 0 
L 46.09375 0 
L 37.84375 31.0625 
L 35.84375 39.890625 
L 25.34375 0 
z
" id="ArialMT-77"/>
     <path d="M 40.4375 6.390625 
Q 35.546875 2.25 31.03125 0.53125 
Q 26.515625 -1.171875 21.34375 -1.171875 
Q 12.796875 -1.171875 8.203125 3 
Q 3.609375 7.171875 3.609375 13.671875 
Q 3.609375 17.484375 5.34375 20.625 
Q 7.078125 23.78125 9.890625 25.6875 
Q 12.703125 27.59375 16.21875 28.5625 
Q 18.796875 29.25 24.03125 29.890625 
Q 34.671875 31.15625 39.703125 32.90625 
Q 39.75 34.71875 39.75 35.203125 
Q 39.75 40.578125 37.25 42.78125 
Q 33.890625 45.75 27.25 45.75 
Q 21.046875 45.75 18.09375 43.578125 
Q 15.140625 41.40625 13.71875 35.890625 
L 5.125 37.0625 
Q 6.296875 42.578125 8.984375 45.96875 
Q 11.671875 49.359375 16.75 51.1875 
Q 21.828125 53.03125 28.515625 53.03125 
Q 35.15625 53.03125 39.296875 51.46875 
Q 43.453125 49.90625 45.40625 47.53125 
Q 47.359375 45.171875 48.140625 41.546875 
Q 48.578125 39.3125 48.578125 33.453125 
L 48.578125 21.734375 
Q 48.578125 9.46875 49.140625 6.21875 
Q 49.703125 2.984375 51.375 0 
L 42.1875 0 
Q 40.828125 2.734375 40.4375 6.390625 
z
M 39.703125 26.03125 
Q 34.90625 24.078125 25.34375 22.703125 
Q 19.921875 21.921875 17.671875 20.9375 
Q 15.4375 19.96875 14.203125 18.09375 
Q 12.984375 16.21875 12.984375 13.921875 
Q 12.984375 10.40625 15.640625 8.0625 
Q 18.3125 5.71875 23.4375 5.71875 
Q 28.515625 5.71875 32.46875 7.9375 
Q 36.421875 10.15625 38.28125 14.015625 
Q 39.703125 17 39.703125 22.796875 
z
" id="ArialMT-61"/>
     <path d="M 40.234375 0 
L 40.234375 6.546875 
Q 35.296875 -1.171875 25.734375 -1.171875 
Q 19.53125 -1.171875 14.328125 2.25 
Q 9.125 5.671875 6.265625 11.796875 
Q 3.421875 17.921875 3.421875 25.875 
Q 3.421875 33.640625 6 39.96875 
Q 8.59375 46.296875 13.765625 49.65625 
Q 18.953125 53.03125 25.34375 53.03125 
Q 30.03125 53.03125 33.6875 51.046875 
Q 37.359375 49.078125 39.65625 45.90625 
L 39.65625 71.578125 
L 48.390625 71.578125 
L 48.390625 0 
z
M 12.453125 25.875 
Q 12.453125 15.921875 16.640625 10.984375 
Q 20.84375 6.0625 26.5625 6.0625 
Q 32.328125 6.0625 36.34375 10.765625 
Q 40.375 15.484375 40.375 25.140625 
Q 40.375 35.796875 36.265625 40.765625 
Q 32.171875 45.75 26.171875 45.75 
Q 20.3125 45.75 16.375 40.96875 
Q 12.453125 36.1875 12.453125 25.875 
z
" id="ArialMT-64"/>
    </defs>
    <g style="fill:#262626;" transform="translate(280.464844 15.207656)scale(0.11 -0.11)">
     <use xlink:href="#ArialMT-65"/>
     <use x="55.615234" xlink:href="#ArialMT-6e"/>
     <use x="111.230469" xlink:href="#ArialMT-67"/>
     <use x="166.845703" xlink:href="#ArialMT-69"/>
     <use x="189.0625" xlink:href="#ArialMT-6e"/>
     <use x="244.677734" xlink:href="#ArialMT-65"/>
     <use x="300.292969" xlink:href="#ArialMT-20"/>
     <use x="328.076172" xlink:href="#ArialMT-3d"/>
     <use x="386.474609" xlink:href="#ArialMT-20"/>
     <use x="414.257812" xlink:href="#ArialMT-66"/>
     <use x="442.041016" xlink:href="#ArialMT-6f"/>
     <use x="497.65625" xlink:href="#ArialMT-72"/>
     <use x="530.957031" xlink:href="#ArialMT-77"/>
     <use x="603.173828" xlink:href="#ArialMT-61"/>
     <use x="658.789062" xlink:href="#ArialMT-72"/>
     <use x="692.089844" xlink:href="#ArialMT-64"/>
    </g>
   </g>
  </g>
 </g>
 <defs>
  <clipPath id="pdf71f9abe4">
   <rect height="146.08" width="183.31" x="33.660938" y="21.207656"/>
  </clipPath>
  <clipPath id="p9a809c9789">
   <rect height="146.08" width="183.31" x="229.930937" y="21.207656"/>
  </clipPath>
 </defs>
</svg>
