<svg baseProfile="full" height="200" version="1.1" width="400" xmlns="http://www.w3.org/2000/svg" xmlns:ev="http://www.w3.org/2001/xml-events" xmlns:xlink="http://www.w3.org/1999/xlink"><defs/><g id="lines" stroke="black"><line x1="75.0" x2="75.0" y1="126.66666666666666" y2="20.0"/><line x1="75.0" x2="175.0" y1="20.0" y2="20.0"/><line x1="50.0" x2="50.0" y1="180.0" y2="126.66666666666666"/><line x1="50.0" x2="75.0" y1="126.66666666666666" y2="126.66666666666666"/><line x1="100.0" x2="100.0" y1="180.0" y2="126.66666666666666"/><line x1="100.0" x2="75.0" y1="126.66666666666666" y2="126.66666666666666"/><line x1="175.0" x2="175.0" y1="73.33333333333333" y2="20.0"/><line x1="175.0" x2="175.0" y1="20.0" y2="20.0"/><line x1="150.0" x2="150.0" y1="180.0" y2="73.33333333333333"/><line x1="150.0" x2="175.0" y1="73.33333333333333" y2="73.33333333333333"/><line x1="200.0" x2="200.0" y1="180.0" y2="73.33333333333333"/><line x1="200.0" x2="175.0" y1="73.33333333333333" y2="73.33333333333333"/><line x1="275.0" x2="275.0" y1="73.33333333333333" y2="20.0"/><line x1="275.0" x2="175.0" y1="20.0" y2="20.0"/><line x1="250.0" x2="250.0" y1="180.0" y2="73.33333333333333"/><line x1="250.0" x2="275.0" y1="73.33333333333333" y2="73.33333333333333"/><line x1="300.0" x2="300.0" y1="180.0" y2="73.33333333333333"/><line x1="300.0" x2="275.0" y1="73.33333333333333" y2="73.33333333333333"/></g><g font-size="14" text-anchor="start"><text x="180.0" y="68.33333333333333">14-&gt;7</text><text x="280.0" y="68.33333333333333">16-&gt;8</text></g><g font-size="14" text-anchor="end"><text x="70.0" y="121.66666666666666">19-&gt;6</text></g><g font-size="14" text-anchor="middle"><text x="175.0" y="15.0">9-&gt;9</text><text x="50.0" y="200.0">25-&gt;1</text><text x="100.0" y="200.0">28-&gt;4</text><text x="150.0" y="200.0">26-&gt;2</text><text x="200.0" y="200.0">27-&gt;3</text><text x="250.0" y="200.0">24-&gt;0</text><text x="300.0" y="200.0">29-&gt;5</text></g><circle cx="175.0" cy="20.0" fill="black" r="3"/><circle cx="75.0" cy="126.66666666666666" fill="black" r="3"/><circle cx="50.0" cy="180.0" fill="black" r="3"/><circle cx="100.0" cy="180.0" fill="black" r="3"/><circle cx="175.0" cy="73.33333333333333" fill="black" r="3"/><circle cx="150.0" cy="180.0" fill="black" r="3"/><circle cx="200.0" cy="180.0" fill="black" r="3"/><circle cx="275.0" cy="73.33333333333333" fill="black" r="3"/><circle cx="250.0" cy="180.0" fill="black" r="3"/><circle cx="300.0" cy="180.0" fill="black" r="3"/><g alignment-baseline="middle" font-size="14" font-style="italic" text-anchor="start"/><g alignment-baseline="middle" font-size="14" font-style="italic" text-anchor="end"/></svg>