<svg baseProfile="full" height="200" version="1.1" width="200" xmlns="http://www.w3.org/2000/svg" xmlns:ev="http://www.w3.org/2001/xml-events" xmlns:xlink="http://www.w3.org/1999/xlink"><defs/><g id="lines" stroke="black"><line x1="18.039772727272727" x2="18.039772727272727" y1="175.56673591977426" y2="20.0"/><line x1="18.039772727272727" x2="60.51136363636365" y1="20.0" y2="20.0"/><line x1="9.090909090909092" x2="9.090909090909092" y1="180.0" y2="175.56673591977426"/><line x1="9.090909090909092" x2="18.039772727272727" y1="175.56673591977426" y2="175.56673591977426"/><line x1="26.988636363636367" x2="26.988636363636367" y1="177.7706272786917" y2="175.56673591977426"/><line x1="26.988636363636367" x2="18.039772727272727" y1="175.56673591977426" y2="175.56673591977426"/><line x1="18.181818181818183" x2="18.181818181818183" y1="180.0" y2="177.7706272786917"/><line x1="18.181818181818183" x2="26.988636363636367" y1="177.7706272786917" y2="177.7706272786917"/><line x1="35.79545454545455" x2="35.79545454545455" y1="178.16857822976002" y2="177.7706272786917"/><line x1="35.79545454545455" x2="26.988636363636367" y1="177.7706272786917" y2="177.7706272786917"/><line x1="27.272727272727273" x2="27.272727272727273" y1="180.0" y2="178.16857822976002"/><line x1="27.272727272727273" x2="35.79545454545455" y1="178.16857822976002" y2="178.16857822976002"/><line x1="44.31818181818183" x2="44.31818181818183" y1="179.59844251696614" y2="178.16857822976002"/><line x1="44.31818181818183" x2="35.79545454545455" y1="178.16857822976002" y2="178.16857822976002"/><line x1="36.36363636363637" x2="36.36363636363637" y1="180.0" y2="179.59844251696614"/><line x1="36.36363636363637" x2="44.31818181818183" y1="179.59844251696614" y2="179.59844251696614"/><line x1="52.27272727272728" x2="52.27272727272728" y1="179.6963769511102" y2="179.59844251696614"/><line x1="52.27272727272728" x2="44.31818181818183" y1="179.59844251696614" y2="179.59844251696614"/><line x1="45.45454545454546" x2="45.45454545454546" y1="180.0" y2="179.6963769511102"/><line x1="45.45454545454546" x2="52.27272727272728" y1="179.6963769511102" y2="179.6963769511102"/><line x1="59.09090909090909" x2="59.09090909090909" y1="179.8165026391071" y2="179.6963769511102"/><line x1="59.09090909090909" x2="52.27272727272728" y1="179.6963769511102" y2="179.6963769511102"/><line x1="54.54545454545455" x2="54.54545454545455" y1="180.0" y2="179.8165026391071"/><line x1="54.54545454545455" x2="59.09090909090909" y1="179.8165026391071" y2="179.8165026391071"/><line x1="63.63636363636364" x2="63.63636363636364" y1="180.0" y2="179.8165026391071"/><line x1="63.63636363636364" x2="59.09090909090909" y1="179.8165026391071" y2="179.8165026391071"/><line x1="102.98295454545456" x2="102.98295454545456" y1="171.39742759524506" y2="20.0"/><line x1="102.98295454545456" x2="60.51136363636365" y1="20.0" y2="20.0"/><line x1="79.54545454545456" x2="79.54545454545456" y1="179.28743767775296" y2="171.39742759524506"/><line x1="79.54545454545456" x2="102.98295454545456" y1="171.39742759524506" y2="171.39742759524506"/><line x1="72.72727272727273" x2="72.72727272727273" y1="180.0" y2="179.28743767775296"/><line x1="72.72727272727273" x2="79.54545454545456" y1="179.28743767775296" y2="179.28743767775296"/><line x1="86.36363636363637" x2="86.36363636363637" y1="179.34586782180696" y2="179.28743767775296"/><line x1="86.36363636363637" x2="79.54545454545456" y1="179.28743767775296" y2="179.28743767775296"/><line x1="81.81818181818183" x2="81.81818181818183" y1="180.0" y2="179.34586782180696"/><line x1="81.81818181818183" x2="86.36363636363637" y1="179.34586782180696" y2="179.34586782180696"/><line x1="90.90909090909092" x2="90.90909090909092" y1="180.0" y2="179.34586782180696"/><line x1="90.90909090909092" x2="86.36363636363637" y1="179.34586782180696" y2="179.34586782180696"/><line x1="126.42045454545456" x2="126.42045454545456" y1="173.61306015210764" y2="171.39742759524506"/><line x1="126.42045454545456" x2="102.98295454545456" y1="171.39742759524506" y2="171.39742759524506"/><line x1="106.81818181818183" x2="106.81818181818183" y1="178.40853980079802" y2="173.61306015210764"/><line x1="106.81818181818183" x2="126.42045454545456" y1="173.61306015210764" y2="173.61306015210764"/><line x1="100.00000000000001" x2="100.00000000000001" y1="180.0" y2="178.40853980079802"/><line x1="100.00000000000001" x2="106.81818181818183" y1="178.40853980079802" y2="178.40853980079802"/><line x1="113.63636363636364" x2="113.63636363636364" y1="179.14930862432487" y2="178.40853980079802"/><line x1="113.63636363636364" x2="106.81818181818183" y1="178.40853980079802" y2="178.40853980079802"/><line x1="109.0909090909091" x2="109.0909090909091" y1="180.0" y2="179.14930862432487"/><line x1="109.0909090909091" x2="113.63636363636364" y1="179.14930862432487" y2="179.14930862432487"/><line x1="118.18181818181819" x2="118.18181818181819" y1="180.0" y2="179.14930862432487"/><line x1="118.18181818181819" x2="113.63636363636364" y1="179.14930862432487" y2="179.14930862432487"/><line x1="146.02272727272728" x2="146.02272727272728" y1="174.04122661124543" y2="173.61306015210764"/><line x1="146.02272727272728" x2="126.42045454545456" y1="173.61306015210764" y2="173.61306015210764"/><line x1="131.8181818181818" x2="131.8181818181818" y1="179.87610756970497" y2="174.04122661124543"/><line x1="131.8181818181818" x2="146.02272727272728" y1="174.04122661124543" y2="174.04122661124543"/><line x1="127.27272727272728" x2="127.27272727272728" y1="180.0" y2="179.87610756970497"/><line x1="127.27272727272728" x2="131.8181818181818" y1="179.87610756970497" y2="179.87610756970497"/><line x1="136.36363636363637" x2="136.36363636363637" y1="180.0" y2="179.87610756970497"/><line x1="136.36363636363637" x2="131.8181818181818" y1="179.87610756970497" y2="179.87610756970497"/><line x1="160.22727272727275" x2="160.22727272727275" y1="175.25134208277828" y2="174.04122661124543"/><line x1="160.22727272727275" x2="146.02272727272728" y1="174.04122661124543" y2="174.04122661124543"/><line x1="150.0" x2="150.0" y1="179.85917906260792" y2="175.25134208277828"/><line x1="150.0" x2="160.22727272727275" y1="175.25134208277828" y2="175.25134208277828"/><line x1="145.45454545454547" x2="145.45454545454547" y1="180.0" y2="179.85917906260792"/><line x1="145.45454545454547" x2="150.0" y1="179.85917906260792" y2="179.85917906260792"/><line x1="154.54545454545456" x2="154.54545454545456" y1="180.0" y2="179.85917906260792"/><line x1="154.54545454545456" x2="150.0" y1="179.85917906260792" y2="179.85917906260792"/><line x1="170.4545454545455" x2="170.4545454545455" y1="179.1417219355854" y2="175.25134208277828"/><line x1="170.4545454545455" x2="160.22727272727275" y1="175.25134208277828" y2="175.25134208277828"/><line x1="163.63636363636365" x2="163.63636363636365" y1="180.0" y2="179.1417219355854"/><line x1="163.63636363636365" x2="170.4545454545455" y1="179.1417219355854" y2="179.1417219355854"/><line x1="177.2727272727273" x2="177.2727272727273" y1="179.85076714712716" y2="179.1417219355854"/><line x1="177.2727272727273" x2="170.4545454545455" y1="179.1417219355854" y2="179.1417219355854"/><line x1="172.72727272727275" x2="172.72727272727275" y1="180.0" y2="179.85076714712716"/><line x1="172.72727272727275" x2="177.2727272727273" y1="179.85076714712716" y2="179.85076714712716"/><line x1="181.81818181818184" x2="181.81818181818184" y1="180.0" y2="179.85076714712716"/><line x1="181.81818181818184" x2="177.2727272727273" y1="179.85076714712716" y2="179.85076714712716"/></g><g font-size="14" text-anchor="start"><text x="31.988636363636367" y="172.7706272786917"/><text x="40.79545454545455" y="173.16857822976002"/><text x="49.31818181818183" y="174.59844251696614"/><text x="57.27272727272728" y="174.6963769511102"/><text x="64.0909090909091" y="174.8165026391071"/><text x="107.98295454545456" y="166.39742759524506"/><text x="91.36363636363637" y="174.34586782180696"/><text x="131.42045454545456" y="168.61306015210764"/><text x="118.63636363636364" y="174.14930862432487"/><text x="151.02272727272728" y="169.04122661124543"/><text x="165.22727272727275" y="170.25134208277828"/><text x="175.4545454545455" y="174.1417219355854"/><text x="182.2727272727273" y="174.85076714712716"/></g><g font-size="14" text-anchor="end"><text x="13.039772727272727" y="170.56673591977426"/><text x="74.54545454545456" y="174.28743767775296"/><text x="101.81818181818183" y="173.40853980079802"/><text x="126.81818181818181" y="174.87610756970497"/><text x="145.0" y="174.85917906260792"/></g><g font-size="14" text-anchor="middle"><text x="60.51136363636365" y="15.0"/><text x="9.090909090909092" y="200.0"/><text x="18.181818181818183" y="200.0"/><text x="27.272727272727273" y="200.0"/><text x="36.36363636363637" y="200.0"/><text x="45.45454545454546" y="200.0"/><text x="54.54545454545455" y="200.0"/><text x="63.63636363636364" y="200.0"/><text x="72.72727272727273" y="200.0"/><text x="81.81818181818183" y="200.0"/><text x="90.90909090909092" y="200.0"/><text x="100.00000000000001" y="200.0"/><text x="109.0909090909091" y="200.0"/><text x="118.18181818181819" y="200.0"/><text x="127.27272727272728" y="200.0"/><text x="136.36363636363637" y="200.0"/><text x="145.45454545454547" y="200.0"/><text x="154.54545454545456" y="200.0"/><text x="163.63636363636365" y="200.0"/><text x="172.72727272727275" y="200.0"/><text x="181.81818181818184" y="200.0"/></g><circle cx="60.51136363636365" cy="20.0" fill="red" r="3"/><circle cx="18.039772727272727" cy="175.56673591977426" fill="black" r="3"/><circle cx="9.090909090909092" cy="180.0" fill="black" r="3"/><circle cx="26.988636363636367" cy="177.7706272786917" fill="black" r="3"/><circle cx="18.181818181818183" cy="180.0" fill="black" r="3"/><circle cx="35.79545454545455" cy="178.16857822976002" fill="black" r="3"/><circle cx="27.272727272727273" cy="180.0" fill="black" r="3"/><circle cx="44.31818181818183" cy="179.59844251696614" fill="black" r="3"/><circle cx="36.36363636363637" cy="180.0" fill="black" r="3"/><circle cx="52.27272727272728" cy="179.6963769511102" fill="black" r="3"/><circle cx="45.45454545454546" cy="180.0" fill="black" r="3"/><circle cx="59.09090909090909" cy="179.8165026391071" fill="black" r="3"/><circle cx="54.54545454545455" cy="180.0" fill="black" r="3"/><circle cx="63.63636363636364" cy="180.0" fill="black" r="3"/><circle cx="102.98295454545456" cy="171.39742759524506" fill="red" r="3"/><circle cx="79.54545454545456" cy="179.28743767775296" fill="red" r="3"/><circle cx="72.72727272727273" cy="180.0" fill="red" r="3"/><circle cx="86.36363636363637" cy="179.34586782180696" fill="red" r="3"/><circle cx="81.81818181818183" cy="180.0" fill="red" r="3"/><circle cx="90.90909090909092" cy="180.0" fill="red" r="3"/><circle cx="126.42045454545456" cy="173.61306015210764" fill="red" r="3"/><circle cx="106.81818181818183" cy="178.40853980079802" fill="red" r="3"/><circle cx="100.00000000000001" cy="180.0" fill="red" r="3"/><circle cx="113.63636363636364" cy="179.14930862432487" fill="red" r="3"/><circle cx="109.0909090909091" cy="180.0" fill="red" r="3"/><circle cx="118.18181818181819" cy="180.0" fill="red" r="3"/><circle cx="146.02272727272728" cy="174.04122661124543" fill="red" r="3"/><circle cx="131.8181818181818" cy="179.87610756970497" fill="red" r="3"/><circle cx="127.27272727272728" cy="180.0" fill="red" r="3"/><circle cx="136.36363636363637" cy="180.0" fill="red" r="3"/><circle cx="160.22727272727275" cy="175.25134208277828" fill="red" r="3"/><circle cx="150.0" cy="179.85917906260792" fill="black" r="3"/><circle cx="145.45454545454547" cy="180.0" fill="black" r="3"/><circle cx="154.54545454545456" cy="180.0" fill="black" r="3"/><circle cx="170.4545454545455" cy="179.1417219355854" fill="red" r="3"/><circle cx="163.63636363636365" cy="180.0" fill="red" r="3"/><circle cx="177.2727272727273" cy="179.85076714712716" fill="red" r="3"/><circle cx="172.72727272727275" cy="180.0" fill="black" r="3"/><circle cx="181.81818181818184" cy="180.0" fill="red" r="3"/><g alignment-baseline="middle" font-size="14" font-style="italic" text-anchor="start"/><g alignment-baseline="middle" font-size="14" font-style="italic" text-anchor="end"/></svg>