<svg baseProfile="full" height="200" version="1.1" width="200" xmlns="http://www.w3.org/2000/svg" xmlns:ev="http://www.w3.org/2001/xml-events" xmlns:xlink="http://www.w3.org/1999/xlink"><defs/><g id="lines" stroke="black"><line x1="33.333333333333336" x2="33.333333333333336" y1="180.0" y2="20.0"/><line x1="33.333333333333336" x2="62.5" y1="20.0" y2="20.0"/><line x1="91.66666666666667" x2="91.66666666666667" y1="151.66773074579072" y2="20.0"/><line x1="91.66666666666667" x2="62.5" y1="20.0" y2="20.0"/><line x1="66.66666666666667" x2="66.66666666666667" y1="180.0" y2="151.66773074579072"/><line x1="66.66666666666667" x2="91.66666666666667" y1="151.66773074579072" y2="151.66773074579072"/><line x1="116.66666666666667" x2="116.66666666666667" y1="159.67413077947288" y2="151.66773074579072"/><line x1="116.66666666666667" x2="91.66666666666667" y1="151.66773074579072" y2="151.66773074579072"/><line x1="100.0" x2="100.0" y1="180.0" y2="159.67413077947288"/><line x1="100.0" x2="116.66666666666667" y1="159.67413077947288" y2="159.67413077947288"/><line x1="133.33333333333334" x2="133.33333333333334" y1="180.0" y2="159.67413077947288"/><line x1="133.33333333333334" x2="116.66666666666667" y1="159.67413077947288" y2="159.67413077947288"/></g><g font-size="14" text-anchor="start"><text x="96.66666666666667" y="146.66773074579072">5</text><text x="121.66666666666667" y="154.67413077947288">4</text></g><g font-size="14" text-anchor="end"/><g font-size="14" text-anchor="middle"><text x="62.5" y="15.0">6</text><text x="33.333333333333336" y="200.0">2</text><text x="66.66666666666667" y="200.0">1</text><text x="100.0" y="200.0">0</text><text x="133.33333333333334" y="200.0">3</text></g><circle cx="62.5" cy="20.0" fill="black" r="3"/><circle cx="33.333333333333336" cy="180.0" fill="black" r="3"/><circle cx="91.66666666666667" cy="151.66773074579072" fill="black" r="3"/><circle cx="66.66666666666667" cy="180.0" fill="black" r="3"/><circle cx="116.66666666666667" cy="159.67413077947288" fill="black" r="3"/><circle cx="100.0" cy="180.0" fill="black" r="3"/><circle cx="133.33333333333334" cy="180.0" fill="black" r="3"/><g alignment-baseline="middle" font-size="14" font-style="italic" text-anchor="start"/><g alignment-baseline="middle" font-size="14" font-style="italic" text-anchor="end"/></svg>