<svg baseProfile="full" height="200" version="1.1" width="400" xmlns="http://www.w3.org/2000/svg" xmlns:ev="http://www.w3.org/2001/xml-events" xmlns:xlink="http://www.w3.org/1999/xlink"><defs/><g id="lines" stroke="black"><line x1="33.333333333333336" x2="33.333333333333336" y1="180.0" y2="20.00000000000003"/><line x1="33.333333333333336" x2="103.64583333333331" y1="20.00000000000003" y2="20.00000000000003"/><line x1="173.95833333333331" x2="173.95833333333331" y1="128.72519084943158" y2="20.00000000000003"/><line x1="173.95833333333331" x2="103.64583333333331" y1="20.00000000000003" y2="20.00000000000003"/><line x1="91.66666666666667" x2="91.66666666666667" y1="165.8346429275484" y2="128.72519084943158"/><line x1="91.66666666666667" x2="173.95833333333331" y1="128.72519084943158" y2="128.72519084943158"/><line x1="66.66666666666667" x2="66.66666666666667" y1="180.0" y2="165.8346429275484"/><line x1="66.66666666666667" x2="91.66666666666667" y1="165.8346429275484" y2="165.8346429275484"/><line x1="116.66666666666667" x2="116.66666666666667" y1="177.50519622121212" y2="165.8346429275484"/><line x1="116.66666666666667" x2="91.66666666666667" y1="165.8346429275484" y2="165.8346429275484"/><line x1="100.0" x2="100.0" y1="180.0" y2="177.50519622121212"/><line x1="100.0" x2="116.66666666666667" y1="177.50519622121212" y2="177.50519622121212"/><line x1="133.33333333333334" x2="133.33333333333334" y1="180.0" y2="177.50519622121212"/><line x1="133.33333333333334" x2="116.66666666666667" y1="177.50519622121212" y2="177.50519622121212"/><line x1="256.25" x2="256.25" y1="150.60214140942685" y2="128.72519084943158"/><line x1="256.25" x2="173.95833333333331" y1="128.72519084943158" y2="128.72519084943158"/><line x1="195.83333333333334" x2="195.83333333333334" y1="172.264765628071" y2="150.60214140942685"/><line x1="195.83333333333334" x2="256.25" y1="150.60214140942685" y2="150.60214140942685"/><line x1="166.66666666666669" x2="166.66666666666669" y1="180.0" y2="172.264765628071"/><line x1="166.66666666666669" x2="195.83333333333334" y1="172.264765628071" y2="172.264765628071"/><line x1="225.0" x2="225.0" y1="175.65612558966413" y2="172.264765628071"/><line x1="225.0" x2="195.83333333333334" y1="172.264765628071" y2="172.264765628071"/><line x1="200.0" x2="200.0" y1="180.0" y2="175.65612558966413"/><line x1="200.0" x2="225.0" y1="175.65612558966413" y2="175.65612558966413"/><line x1="250.0" x2="250.0" y1="179.71516901692573" y2="175.65612558966413"/><line x1="250.0" x2="225.0" y1="175.65612558966413" y2="175.65612558966413"/><line x1="233.33333333333334" x2="233.33333333333334" y1="180.0" y2="179.71516901692573"/><line x1="233.33333333333334" x2="250.0" y1="179.71516901692573" y2="179.71516901692573"/><line x1="266.6666666666667" x2="266.6666666666667" y1="180.0" y2="179.71516901692573"/><line x1="266.6666666666667" x2="250.0" y1="179.71516901692573" y2="179.71516901692573"/><line x1="316.6666666666667" x2="316.6666666666667" y1="166.52882340519992" y2="150.60214140942685"/><line x1="316.6666666666667" x2="256.25" y1="150.60214140942685" y2="150.60214140942685"/><line x1="300.0" x2="300.0" y1="180.0" y2="166.52882340519992"/><line x1="300.0" x2="316.6666666666667" y1="166.52882340519992" y2="166.52882340519992"/><line x1="333.33333333333337" x2="333.33333333333337" y1="180.0" y2="166.52882340519992"/><line x1="333.33333333333337" x2="316.6666666666667" y1="166.52882340519992" y2="166.52882340519992"/></g><g font-size="14" text-anchor="start"><text x="178.95833333333331" y="123.72519084943158">7175</text><text x="121.66666666666667" y="172.50519622121212">210</text><text x="261.25" y="145.60214140942685">4954</text><text x="230.0" y="170.65612558966413">552</text><text x="255.0" y="174.71516901692573">12</text><text x="321.6666666666667" y="161.52882340519992">2461</text></g><g font-size="14" text-anchor="end"><text x="86.66666666666667" y="160.8346429275484">2600</text><text x="190.83333333333334" y="167.264765628071">1272</text></g><g font-size="14" text-anchor="middle"><text x="103.64583333333331" y="15.000000000000028">12320</text><text x="33.333333333333336" y="200.0">7</text><text x="66.66666666666667" y="200.0">0</text><text x="100.0" y="200.0">2</text><text x="133.33333333333334" y="200.0">4</text><text x="166.66666666666669" y="200.0">9</text><text x="200.0" y="200.0">3</text><text x="233.33333333333334" y="200.0">6</text><text x="266.6666666666667" y="200.0">8</text><text x="300.0" y="200.0">1</text><text x="333.33333333333337" y="200.0">5</text></g><circle cx="103.64583333333331" cy="20.00000000000003" fill="black" r="3"/><circle cx="33.333333333333336" cy="180.0" fill="black" r="3"/><circle cx="173.95833333333331" cy="128.72519084943158" fill="black" r="3"/><circle cx="91.66666666666667" cy="165.8346429275484" fill="black" r="3"/><circle cx="66.66666666666667" cy="180.0" fill="black" r="3"/><circle cx="116.66666666666667" cy="177.50519622121212" fill="black" r="3"/><circle cx="100.0" cy="180.0" fill="black" r="3"/><circle cx="133.33333333333334" cy="180.0" fill="black" r="3"/><circle cx="256.25" cy="150.60214140942685" fill="red" r="3"/><circle cx="195.83333333333334" cy="172.264765628071" fill="black" r="3"/><circle cx="166.66666666666669" cy="180.0" fill="black" r="3"/><circle cx="225.0" cy="175.65612558966413" fill="black" r="3"/><circle cx="200.0" cy="180.0" fill="black" r="3"/><circle cx="250.0" cy="179.71516901692573" fill="black" r="3"/><circle cx="233.33333333333334" cy="180.0" fill="black" r="3"/><circle cx="266.6666666666667" cy="180.0" fill="black" r="3"/><circle cx="316.6666666666667" cy="166.52882340519992" fill="black" r="3"/><circle cx="300.0" cy="180.0" fill="black" r="3"/><circle cx="333.33333333333337" cy="180.0" fill="black" r="3"/><g alignment-baseline="middle" font-size="14" font-style="italic" text-anchor="start"/><g alignment-baseline="middle" font-size="14" font-style="italic" text-anchor="end"/></svg>