<svg baseProfile="full" height="400" version="1.1" width="1000" xmlns="http://www.w3.org/2000/svg" xmlns:ev="http://www.w3.org/2001/xml-events" xmlns:xlink="http://www.w3.org/1999/xlink"><rect width="125" height="75" x="100" y="30" fill="transparent" stroke="grey" /><text x="120" y="45" font-weight="bold">Populations</text><g transform="translate(105, 60)" class="leaf p0"><rect width="6" height="6" class="sym" /><text x="10" y="7">Han (East Asia)</text></g><g transform="translate(105, 75)" class="leaf p1"><rect width="6" height="6" class="sym" /><text x="10" y="7">San (Africa)</text></g><g transform="translate(105, 90)" class="leaf p2"><rect width="6" height="6" class="sym" /><text x="10" y="7">Denisovan</text></g><defs><style type="text/css"><![CDATA[.background path {fill: #808080; fill-opacity: 0}.background path:nth-child(odd) {fill-opacity: .1}.x-regions rect {fill: yellow; stroke: black; opacity: 0.5}.axes {font-size: 14px}.x-axis .tick .lab {font-weight: bold; dominant-baseline: hanging}.axes, .tree {font-size: 14px; text-anchor: middle}.axes line, .edge {stroke: black; fill: none}.axes .ax-skip {stroke-dasharray: 4}.y-axis .grid {stroke: #FAFAFA}.node > .sym {fill: black; stroke: none}.site > .sym {stroke: black}.mut text {fill: red; font-style: italic}.mut.extra text {fill: hotpink}.mut line {fill: none; stroke: none}.mut .sym {fill: none; stroke: red}.mut.extra .sym {stroke: hotpink}.node .mut .sym {stroke-width: 1.5px}.tree text, .tree-sequence text {dominant-baseline: central}.plotbox .lab.lft {text-anchor: end}.plotbox .lab.rgt {text-anchor: start}.polytomy line {stroke: black; stroke-dasharray: 1px, 1px}.polytomy text {paint-order:stroke;stroke-width:0.3em;stroke:white}.leaf.p0 > .sym {fill: green; stroke: grey}.leaf.p1 > .sym {fill: yellow; stroke: grey}.leaf.p2 > .sym {fill: magenta; stroke: grey}]]></style></defs><g class="tree t210"><g class="axes"><g class="y-axis"><g class="title" transform="translate(0 197.5)"><text class="lab" text-anchor="middle" transform="translate(11) rotate(-90)">Time ago</text></g><line class="ax-line" x1="56.8" x2="56.8" y1="368.2" y2="26.8"/><g class="ticks"><g class="tick" transform="translate(56.8 368.2)"><line x1="0" x2="-5" y1="0" y2="0"/><g transform="translate(-6 0)"><text class="lab" text-anchor="end">0</text></g></g><g class="tick" transform="translate(56.8 296.712)"><line x1="0" x2="-5" y1="0" y2="0"/><g transform="translate(-6 0)"><text class="lab" text-anchor="end">10000</text></g></g><g class="tick" transform="translate(56.8 225.224)"><line x1="0" x2="-5" y1="0" y2="0"/><g transform="translate(-6 0)"><text class="lab" text-anchor="end">20000</text></g></g><g class="tick" transform="translate(56.8 153.736)"><line x1="0" x2="-5" y1="0" y2="0"/><g transform="translate(-6 0)"><text class="lab" text-anchor="end">30000</text></g></g><g class="tick" transform="translate(56.8 82.2479)"><line x1="0" x2="-5" y1="0" y2="0"/><g transform="translate(-6 0)"><text class="lab" text-anchor="end">40000</text></g></g></g></g></g><g class="plotbox"><g class="c2 m4735 m4755 node n1441 root s9382 s9415" transform="translate(888.849 64.7333)"><g class="a1441 c2 m4756 node n1421 s9415" transform="translate(49.6789 46.4672)"><g class="a1421 c2 m4736 m4744 m4757 node n422 s9383 s9403 s9415" transform="translate(29.9319 247.992)"><g class="a422 i34 leaf node n73 p1 sample" transform="translate(-5.77 9.00749)"><path class="edge e1255" d="M 0 0 V -9.00749 H 5.77"/><rect class="sym" height="6" width="6" x="-3" y="-3"/><text class="lab" transform="translate(0 11)"/></g><g class="a422 i35 leaf node n75 p1 sample" transform="translate(5.77 9.00749)"><path class="edge e1256" d="M 0 0 V -9.00749 H -5.77"/><rect class="sym" height="6" width="6" x="-3" y="-3"/><text class="lab" transform="translate(0 11)"/></g><path class="edge e6101" d="M 0 0 V -247.992 H -29.9319"/><g class="mut m4736 s9383 unknown_time" transform="translate(0 -185.994)"><line x1="0" x2="0" y1="0" y2="185.994"/><path class="sym" d="M -3,-3 l 6,6 M -3,3 l 6,-6"/><text class="lab rgt" transform="translate(5 0)"/></g><g class="mut m4744 s9403 unknown_time" transform="translate(0 -123.996)"><line x1="0" x2="0" y1="0" y2="123.996"/><path class="sym" d="M -3,-3 l 6,6 M -3,3 l 6,-6"/><text class="lab rgt" transform="translate(5 0)"/></g><g class="mut m4757 s9415 unknown_time" transform="translate(0 -61.998)"><line x1="0" x2="0" y1="0" y2="61.998"/><path class="sym" d="M -3,-3 l 6,6 M -3,3 l 6,-6"/><text class="lab rgt" transform="translate(5 0)"/></g><circle class="sym" cx="0" cy="0" r="3"/><text class="lab rgt" transform="translate(3 -7)"/></g><g class="a1421 c2 m4737 m4741 node n1377 s9385 s9391" transform="translate(-29.9319 45.6094)"><g class="a1377 i0 leaf m4739 node n66 p1 s9390 sample" transform="translate(-26.6862 211.39)"><path class="edge e5829" d="M 0 0 V -211.39 H 26.6862"/><g class="mut m4739 s9390 unknown_time" transform="translate(0 -105.695)"><line x1="0" x2="0" y1="0" y2="105.695"/><path class="sym" d="M -3,-3 l 6,6 M -3,3 l 6,-6"/><text class="lab lft" transform="translate(-5 0)"/></g><rect class="sym" height="6" width="6" x="-3" y="-3"/><text class="lab" transform="translate(0 11)"/></g><g class="a1377 c2 node n1334" transform="translate(26.6862 42.5354)"><g class="a1334 c2 m4740 m4752 m4753 node n519 s9390 s9413" transform="translate(-15.8675 157.059)"><g class="a519 c3 node n113" transform="translate(-14.425 9.86535)"><g class="a113 i0 leaf node n67 p1 sample" transform="translate(-11.54 1.93018)"><path class="edge e72" d="M 0 0 V -1.93018 H 11.54"/><rect class="sym" height="6" width="6" x="-3" y="-3"/><text class="lab" transform="translate(0 11)"/></g><g class="a113 i1 leaf node n69 p1 sample" transform="translate(0.0 1.93018)"><path class="edge e73" d="M 0 0 V -1.93018 H 0.0"/><rect class="sym" height="6" width="6" x="-3" y="-3"/><text class="lab" transform="translate(0 11)"/></g><g class="a113 i37 leaf node n76 p1 sample" transform="translate(11.54 1.93018)"><path class="edge e74" d="M 0 0 V -1.93018 H -11.54"/><rect class="sym" height="6" width="6" x="-3" y="-3"/><text class="lab" transform="translate(0 11)"/></g><path class="edge e1793" d="M 0 0 V -9.86535 H 14.425"/><circle class="sym" cx="0" cy="0" r="3"/><text class="lab lft" transform="translate(-3 -7)"/></g><g class="a519 c2 m4749 m4754 node n176 s9411 s9413" transform="translate(14.425 7.72071)"><g class="a176 i33 leaf m4750 node n70 p1 s9411 sample" transform="translate(-5.77 4.07482)"><path class="edge e234" d="M 0 0 V -4.07482 H 5.77"/><g class="mut m4750 s9411 unknown_time" transform="translate(0 -2.03741)"><line x1="0" x2="0" y1="0" y2="2.03741"/><path class="sym" d="M -3,-3 l 6,6 M -3,3 l 6,-6"/><text class="lab lft" transform="translate(-5 0)"/></g><rect class="sym" height="6" width="6" x="-3" y="-3"/><text class="lab" transform="translate(0 11)"/></g><g class="a176 i33 leaf node n71 p1 sample" transform="translate(5.77 4.07482)"><path class="edge e235" d="M 0 0 V -4.07482 H -5.77"/><rect class="sym" height="6" width="6" x="-3" y="-3"/><text class="lab" transform="translate(0 11)"/></g><path class="edge e1794" d="M 0 0 V -7.72071 H -14.425"/><g class="mut m4749 s9411 unknown_time" transform="translate(0 -5.14714)"><line x1="0" x2="0" y1="0" y2="5.14714"/><path class="sym" d="M -3,-3 l 6,6 M -3,3 l 6,-6"/><text class="lab rgt" transform="translate(5 0)"/></g><g class="mut m4754 s9413 unknown_time" transform="translate(0 -2.57357)"><line x1="0" x2="0" y1="0" y2="2.57357"/><path class="sym" d="M -3,-3 l 6,6 M -3,3 l 6,-6"/><text class="lab rgt" transform="translate(5 0)"/></g><circle class="sym" cx="0" cy="0" r="3"/><text class="lab rgt" transform="translate(3 -7)"/></g><path class="edge e5602" d="M 0 0 V -157.059 H 15.8675"/><g class="mut m4740 s9390 unknown_time" transform="translate(0 -117.794)"><line x1="0" x2="0" y1="0" y2="117.794"/><path class="sym" d="M -3,-3 l 6,6 M -3,3 l 6,-6"/><text class="lab lft" transform="translate(-5 0)"/></g><g class="mut m4752 s9413 unknown_time" transform="translate(0 -78.5296)"><line x1="0" x2="0" y1="0" y2="78.5296"/><path class="sym" d="M -3,-3 l 6,6 M -3,3 l 6,-6"/><text class="lab lft" transform="translate(-5 0)"/></g><g class="mut m4753 s9413 unknown_time" transform="translate(0 -39.2648)"><line x1="0" x2="0" y1="0" y2="39.2648"/><path class="sym" d="M -3,-3 l 6,6 M -3,3 l 6,-6"/><text class="lab lft" transform="translate(-5 0)"/></g><circle class="sym" cx="0" cy="0" r="3"/><text class="lab lft" transform="translate(-3 -7)"/></g><g class="a1334 i1 leaf m4742 m4745 m4747 m4748 m4751 node n68 p1 s9395 s9404 s9406 s9409 s9413 sample" transform="translate(15.8675 168.855)"><path class="edge e5601" d="M 0 0 V -168.855 H -15.8675"/><g class="mut m4742 s9395 unknown_time" transform="translate(0 -140.712)"><line x1="0" x2="0" y1="0" y2="140.712"/><path class="sym" d="M -3,-3 l 6,6 M -3,3 l 6,-6"/><text class="lab rgt" transform="translate(5 0)"/></g><g class="mut m4745 s9404 unknown_time" transform="translate(0 -112.57)"><line x1="0" x2="0" y1="0" y2="112.57"/><path class="sym" d="M -3,-3 l 6,6 M -3,3 l 6,-6"/><text class="lab rgt" transform="translate(5 0)"/></g><g class="mut m4747 s9406 unknown_time" transform="translate(0 -84.4274)"><line x1="0" x2="0" y1="0" y2="84.4274"/><path class="sym" d="M -3,-3 l 6,6 M -3,3 l 6,-6"/><text class="lab rgt" transform="translate(5 0)"/></g><g class="mut m4748 s9409 unknown_time" transform="translate(0 -56.2849)"><line x1="0" x2="0" y1="0" y2="56.2849"/><path class="sym" d="M -3,-3 l 6,6 M -3,3 l 6,-6"/><text class="lab rgt" transform="translate(5 0)"/></g><g class="mut m4751 s9413 unknown_time" transform="translate(0 -28.1425)"><line x1="0" x2="0" y1="0" y2="28.1425"/><path class="sym" d="M -3,-3 l 6,6 M -3,3 l 6,-6"/><text class="lab rgt" transform="translate(5 0)"/></g><rect class="sym" height="6" width="6" x="-3" y="-3"/><text class="lab" transform="translate(0 11)"/></g><path class="edge e5830" d="M 0 0 V -42.5354 H -26.6862"/><circle class="sym" cx="0" cy="0" r="3"/><text class="lab rgt" transform="translate(3 -7)"/></g><path class="edge e6111" d="M 0 0 V -45.6094 H 29.9319"/><g class="mut m4737 s9385 unknown_time" transform="translate(0 -30.4062)"><line x1="0" x2="0" y1="0" y2="30.4062"/><path class="sym" d="M -3,-3 l 6,6 M -3,3 l 6,-6"/><text class="lab lft" transform="translate(-5 0)"/></g><g class="mut m4741 s9391 unknown_time" transform="translate(0 -15.2031)"><line x1="0" x2="0" y1="0" y2="15.2031"/><path class="sym" d="M -3,-3 l 6,6 M -3,3 l 6,-6"/><text class="lab lft" transform="translate(-5 0)"/></g><circle class="sym" cx="0" cy="0" r="3"/><text class="lab lft" transform="translate(-3 -7)"/></g><path class="edge e6305" d="M 0 0 V -46.4672 H -49.6789"/><g class="mut m4756 s9415 unknown_time" transform="translate(0 -23.2336)"><line x1="0" x2="0" y1="0" y2="23.2336"/><path class="sym" d="M -3,-3 l 6,6 M -3,3 l 6,-6"/><text class="lab rgt" transform="translate(5 0)"/></g><circle class="sym" cx="0" cy="0" r="3"/><text class="lab rgt" transform="translate(3 -7)"/></g><g class="a1441 c2 m4731 m4738 node n1420 s9379 s9387" transform="translate(-49.6789 49.7557)"><g class="a1420 c2 node n666" transform="translate(25.4297 234.266)"><g class="a666 i39 leaf node n78 p2 sample" transform="translate(-5.77 1.1724)"><path class="edge e2617" d="M 0 0 V -1.1724 H 5.77"/><rect class="sym" height="6" width="6" x="-3" y="-3"/><text class="lab" transform="translate(0 11)"/></g><g class="a666 i39 leaf node n79 p2 sample" transform="translate(5.77 1.1724)"><path class="edge e2620" d="M 0 0 V -1.1724 H -5.77"/><rect class="sym" height="6" width="6" x="-3" y="-3"/><text class="lab" transform="translate(0 11)"/></g><path class="edge e6095" d="M 0 0 V -234.266 H -25.4297"/><circle class="sym" cx="0" cy="0" r="3"/><text class="lab rgt" transform="translate(3 -7)"/></g><g class="a1420 c2 node n1407" transform="translate(-25.4297 16.2993)"><g class="a1407 i7 leaf m4732 m4746 m4758 node n11 p0 s9379 s9405 s9415 sample" transform="translate(33.5494 237.412)"><path class="edge e6000" d="M 0 0 V -237.412 H -33.5494"/><g class="mut m4732 s9379 unknown_time" transform="translate(0 -178.059)"><line x1="0" x2="0" y1="0" y2="178.059"/><path class="sym" d="M -3,-3 l 6,6 M -3,3 l 6,-6"/><text class="lab rgt" transform="translate(5 0)"/></g><g class="mut m4746 s9405 unknown_time" transform="translate(0 -118.706)"><line x1="0" x2="0" y1="0" y2="118.706"/><path class="sym" d="M -3,-3 l 6,6 M -3,3 l 6,-6"/><text class="lab rgt" transform="translate(5 0)"/></g><g class="mut m4758 s9415 unknown_time" transform="translate(0 -59.3529)"><line x1="0" x2="0" y1="0" y2="59.3529"/><path class="sym" d="M -3,-3 l 6,6 M -3,3 l 6,-6"/><text class="lab rgt" transform="translate(5 0)"/></g><rect class="sym" height="6" width="6" x="-3" y="-3"/><text class="lab" transform="translate(0 11)"/></g><g class="a1407 c2 node n1364" transform="translate(-33.5494 32.0981)"><g class="a1364 c2 node n1336" transform="translate(-41.1338 33.0275)"><g class="a1336 c2 node n552" transform="translate(47.6476 159.061)"><g class="a552 i34 leaf node n72 p1 sample" transform="translate(-8.655 13.2253)"><path class="edge e2023" d="M 0 0 V -13.2253 H 8.655"/><rect class="sym" height="6" width="6" x="-3" y="-3"/><text class="lab" transform="translate(0 11)"/></g><g class="a552 c2 node n83" transform="translate(8.655 13.2181)"><g class="a83 i35 leaf node n74 p1 sample" transform="translate(-5.77 0.0071488)"><path class="edge e6" d="M 0 0 V -0.0071488 H 5.77"/><rect class="sym" height="6" width="6" x="-3" y="-3"/><text class="lab" transform="translate(0 11)"/></g><g class="a83 i37 leaf node n77 p1 sample" transform="translate(5.77 0.0071488)"><path class="edge e7" d="M 0 0 V -0.0071488 H -5.77"/><rect class="sym" height="6" width="6" x="-3" y="-3"/><text class="lab" transform="translate(0 11)"/></g><path class="edge e2024" d="M 0 0 V -13.2181 H -8.655"/><circle class="sym" cx="0" cy="0" r="3"/><text class="lab rgt" transform="translate(3 -7)"/></g><path class="edge e5608" d="M 0 0 V -159.061 H -47.6476"/><circle class="sym" cx="0" cy="0" r="3"/><text class="lab rgt" transform="translate(3 -7)"/></g><g class="a1336 c2 m4730 m4733 m4743 node n698 s9378 s9381 s9402" transform="translate(-47.6476 151.197)"><g class="a698 i12 leaf node n20 p0 sample" transform="translate(75.1002 21.089)"><path class="edge e2757" d="M 0 0 V -21.089 H -75.1002"/><rect class="sym" height="6" width="6" x="-3" y="-3"/><text class="lab" transform="translate(0 11)"/></g><g class="a698 c2 node n647" transform="translate(-75.1002 2.57357)"><g class="a647 c2 node n629" transform="translate(121.35 0.857856)"><g class="a629 c2 node n522" transform="translate(11.54 5.71904)"><g class="a522 i14 leaf node n25 p0 sample" transform="translate(-5.77 11.9385)"><path class="edge e1820" d="M 0 0 V -11.9385 H 5.77"/><rect class="sym" height="6" width="6" x="-3" y="-3"/><text class="lab" transform="translate(0 11)"/></g><g class="a522 i28 leaf node n53 p0 sample" transform="translate(5.77 11.9385)"><path class="edge e1826" d="M 0 0 V -11.9385 H -5.77"/><rect class="sym" height="6" width="6" x="-3" y="-3"/><text class="lab" transform="translate(0 11)"/></g><path class="edge e2471" d="M 0 0 V -5.71904 H -11.54"/><circle class="sym" cx="0" cy="0" r="3"/><text class="lab rgt" transform="translate(3 -7)"/></g><g class="a629 c2 node n163" transform="translate(-11.54 14.0117)"><g class="a163 i5 leaf node n6 p0 sample" transform="translate(-5.77 3.64589)"><path class="edge e197" d="M 0 0 V -3.64589 H 5.77"/><rect class="sym" height="6" width="6" x="-3" y="-3"/><text class="lab" transform="translate(0 11)"/></g><g class="a163 i20 leaf node n36 p0 sample" transform="translate(5.77 3.64589)"><path class="edge e198" d="M 0 0 V -3.64589 H -5.77"/><rect class="sym" height="6" width="6" x="-3" y="-3"/><text class="lab" transform="translate(0 11)"/></g><path class="edge e2468" d="M 0 0 V -14.0117 H 11.54"/><circle class="sym" cx="0" cy="0" r="3"/><text class="lab lft" transform="translate(-3 -7)"/></g><path class="edge e2533" d="M 0 0 V -0.857856 H -121.35"/><circle class="sym" cx="0" cy="0" r="3"/><text class="lab rgt" transform="translate(3 -7)"/></g><g class="a647 c4 node n628" transform="translate(-121.35 0.857856)"><g class="a628 c3 node n589" transform="translate(-213.851 2.93101)"><g class="a589 c2 node n528" transform="translate(-194.016 2.57357)"><g class="a528 i26 leaf node n49 p0 sample" transform="translate(10.0975 12.153)"><path class="edge e1884" d="M 0 0 V -12.153 H -10.0975"/><rect class="sym" height="6" width="6" x="-3" y="-3"/><text class="lab" transform="translate(0 11)"/></g><g class="a528 c2 node n486" transform="translate(-10.0975 1.35827)"><g class="a486 i36 leaf node n63 p0 sample" transform="translate(8.655 10.7947)"><path class="edge e1635" d="M 0 0 V -10.7947 H -8.655"/><rect class="sym" height="6" width="6" x="-3" y="-3"/><text class="lab" transform="translate(0 11)"/></g><g class="a486 c2 node n124" transform="translate(-8.655 8.43559)"><g class="a124 i2 leaf node n0 p0 sample" transform="translate(-5.77 2.3591)"><path class="edge e96" d="M 0 0 V -2.3591 H 5.77"/><rect class="sym" height="6" width="6" x="-3" y="-3"/><text class="lab" transform="translate(0 11)"/></g><g class="a124 i29 leaf node n54 p0 sample" transform="translate(5.77 2.3591)"><path class="edge e97" d="M 0 0 V -2.3591 H -5.77"/><rect class="sym" height="6" width="6" x="-3" y="-3"/><text class="lab" transform="translate(0 11)"/></g><path class="edge e1636" d="M 0 0 V -8.43559 H 8.655"/><circle class="sym" cx="0" cy="0" r="3"/><text class="lab lft" transform="translate(-3 -7)"/></g><path class="edge e1890" d="M 0 0 V -1.35827 H 10.0975"/><circle class="sym" cx="0" cy="0" r="3"/><text class="lab lft" transform="translate(-3 -7)"/></g><path class="edge e2246" d="M 0 0 V -2.57357 H 194.016"/><circle class="sym" cx="0" cy="0" r="3"/><text class="lab lft" transform="translate(-3 -7)"/></g><g class="a589 c3 node n566" transform="translate(194.016 0.857856)"><g class="a566 i36 leaf node n62 p0 sample" transform="translate(72.125 13.8687)"><path class="edge e2124" d="M 0 0 V -13.8687 H -72.125"/><rect class="sym" height="6" width="6" x="-3" y="-3"/><text class="lab" transform="translate(0 11)"/></g><g class="a566 c6 node n554" transform="translate(7.93375 0.571904)"><g class="a554 i11 leaf node n18 p0 sample" transform="translate(6.49125 13.2968)"><path class="edge e2030" d="M 0 0 V -13.2968 H -6.49125"/><rect class="sym" height="6" width="6" x="-3" y="-3"/><text class="lab" transform="translate(0 11)"/></g><g class="a554 i16 leaf node n28 p0 sample" transform="translate(18.0312 13.2968)"><path class="edge e2032" d="M 0 0 V -13.2968 H -18.0312"/><rect class="sym" height="6" width="6" x="-3" y="-3"/><text class="lab" transform="translate(0 11)"/></g><g class="a554 i32 leaf node n60 p0 sample" transform="translate(52.6512 13.2968)"><path class="edge e2038" d="M 0 0 V -13.2968 H -52.6512"/><rect class="sym" height="6" width="6" x="-3" y="-3"/><text class="lab" transform="translate(0 11)"/></g><g class="a554 c2 node n130" transform="translate(35.3413 10.7232)"><g class="a130 i22 leaf node n40 p0 sample" transform="translate(-5.77 2.57357)"><path class="edge e111" d="M 0 0 V -2.57357 H 5.77"/><rect class="sym" height="6" width="6" x="-3" y="-3"/><text class="lab" transform="translate(0 11)"/></g><g class="a130 i23 leaf node n43 p0 sample" transform="translate(5.77 2.57357)"><path class="edge e112" d="M 0 0 V -2.57357 H -5.77"/><rect class="sym" height="6" width="6" x="-3" y="-3"/><text class="lab" transform="translate(0 11)"/></g><path class="edge e2039" d="M 0 0 V -10.7232 H -35.3413"/><circle class="sym" cx="0" cy="0" r="3"/><text class="lab rgt" transform="translate(3 -7)"/></g><g class="a554 c2 node n436" transform="translate(-52.6512 3.78887)"><g class="a436 i3 leaf node n3 p0 sample" transform="translate(-10.0975 9.50791)"><path class="edge e1317" d="M 0 0 V -9.50791 H 10.0975"/><rect class="sym" height="6" width="6" x="-3" y="-3"/><text class="lab" transform="translate(0 11)"/></g><g class="a436 c2 node n417" transform="translate(10.0975 0.643392)"><g class="a417 i8 leaf node n12 p0 sample" transform="translate(-8.655 8.86452)"><path class="edge e1228" d="M 0 0 V -8.86452 H 8.655"/><rect class="sym" height="6" width="6" x="-3" y="-3"/><text class="lab" transform="translate(0 11)"/></g><g class="a417 c2 node n155" transform="translate(8.655 5.43309)"><g class="a155 i9 leaf node n14 p0 sample" transform="translate(-5.77 3.43143)"><path class="edge e180" d="M 0 0 V -3.43143 H 5.77"/><rect class="sym" height="6" width="6" x="-3" y="-3"/><text class="lab" transform="translate(0 11)"/></g><g class="a155 i23 leaf node n42 p0 sample" transform="translate(5.77 3.43143)"><path class="edge e181" d="M 0 0 V -3.43143 H -5.77"/><rect class="sym" height="6" width="6" x="-3" y="-3"/><text class="lab" transform="translate(0 11)"/></g><path class="edge e1240" d="M 0 0 V -5.43309 H -8.655"/><circle class="sym" cx="0" cy="0" r="3"/><text class="lab rgt" transform="translate(3 -7)"/></g><path class="edge e1321" d="M 0 0 V -0.643392 H -10.0975"/><circle class="sym" cx="0" cy="0" r="3"/><text class="lab rgt" transform="translate(3 -7)"/></g><path class="edge e2048" d="M 0 0 V -3.78887 H 52.6512"/><circle class="sym" cx="0" cy="0" r="3"/><text class="lab lft" transform="translate(-3 -7)"/></g><g class="a554 c2 node n234" transform="translate(-10.8188 8.00666)"><g class="a234 i10 leaf node n17 p0 sample" transform="translate(-5.77 5.29011)"><path class="edge e404" d="M 0 0 V -5.29011 H 5.77"/><rect class="sym" height="6" width="6" x="-3" y="-3"/><text class="lab" transform="translate(0 11)"/></g><g class="a234 i11 leaf node n19 p0 sample" transform="translate(5.77 5.29011)"><path class="edge e405" d="M 0 0 V -5.29011 H -5.77"/><rect class="sym" height="6" width="6" x="-3" y="-3"/><text class="lab" transform="translate(0 11)"/></g><path class="edge e2042" d="M 0 0 V -8.00666 H 10.8188"/><circle class="sym" cx="0" cy="0" r="3"/><text class="lab rgt" transform="translate(3 -7)"/></g><path class="edge e2131" d="M 0 0 V -0.571904 H -7.93375"/><circle class="sym" cx="0" cy="0" r="3"/><text class="lab rgt" transform="translate(3 -7)"/></g><g class="a566 c2 node n254" transform="translate(-72.125 8.14963)"><g class="a254 i3 leaf node n2 p0 sample" transform="translate(-5.77 5.71904)"><path class="edge e489" d="M 0 0 V -5.71904 H 5.77"/><rect class="sym" height="6" width="6" x="-3" y="-3"/><text class="lab" transform="translate(0 11)"/></g><g class="a254 i30 leaf node n56 p0 sample" transform="translate(5.77 5.71904)"><path class="edge e491" d="M 0 0 V -5.71904 H -5.77"/><rect class="sym" height="6" width="6" x="-3" y="-3"/><text class="lab" transform="translate(0 11)"/></g><path class="edge e2125" d="M 0 0 V -8.14963 H 72.125"/><circle class="sym" cx="0" cy="0" r="3"/><text class="lab lft" transform="translate(-3 -7)"/></g><path class="edge e2249" d="M 0 0 V -0.857856 H -194.016"/><circle class="sym" cx="0" cy="0" r="3"/><text class="lab rgt" transform="translate(3 -7)"/></g><g class="a589 c8 node n578" transform="translate(-29.5712 0.35744)"><g class="a578 i4 leaf node n4 p0 sample" transform="translate(-108.188 14.3691)"><path class="edge e2170" d="M 0 0 V -14.3691 H 108.188"/><rect class="sym" height="6" width="6" x="-3" y="-3"/><text class="lab" transform="translate(0 11)"/></g><g class="a578 c2 node n379" transform="translate(-134.153 6.36243)"><g class="a379 i2 leaf node n1 p0 sample" transform="translate(-8.655 8.00666)"><path class="edge e997" d="M 0 0 V -8.00666 H 8.655"/><rect class="sym" height="6" width="6" x="-3" y="-3"/><text class="lab" transform="translate(0 11)"/></g><g class="a379 c2 node n212" transform="translate(8.655 3.14547)"><g class="a212 i4 leaf node n5 p0 sample" transform="translate(-5.77 4.86119)"><path class="edge e345" d="M 0 0 V -4.86119 H 5.77"/><rect class="sym" height="6" width="6" x="-3" y="-3"/><text class="lab" transform="translate(0 11)"/></g><g class="a212 i38 leaf node n64 p0 sample" transform="translate(5.77 4.86119)"><path class="edge e346" d="M 0 0 V -4.86119 H -5.77"/><rect class="sym" height="6" width="6" x="-3" y="-3"/><text class="lab" transform="translate(0 11)"/></g><path class="edge e1005" d="M 0 0 V -3.14547 H -8.655"/><circle class="sym" cx="0" cy="0" r="3"/><text class="lab rgt" transform="translate(3 -7)"/></g><path class="edge e2183" d="M 0 0 V -6.36243 H 134.153"/><circle class="sym" cx="0" cy="0" r="3"/><text class="lab lft" transform="translate(-3 -7)"/></g><g class="a578 c4 node n482" transform="translate(-62.0275 3.5744)"><g class="a482 i15 leaf node n27 p0 sample" transform="translate(-11.54 10.7947)"><path class="edge e1594" d="M 0 0 V -10.7947 H 11.54"/><rect class="sym" height="6" width="6" x="-3" y="-3"/><text class="lab" transform="translate(0 11)"/></g><g class="a482 c3 node n462" transform="translate(28.85 0.571904)"><g class="a462 i21 leaf node n39 p0 sample" transform="translate(-17.31 10.2228)"><path class="edge e1475" d="M 0 0 V -10.2228 H 17.31"/><rect class="sym" height="6" width="6" x="-3" y="-3"/><text class="lab" transform="translate(0 11)"/></g><g class="a462 i29 leaf node n55 p0 sample" transform="translate(17.31 10.2228)"><path class="edge e1479" d="M 0 0 V -10.2228 H -17.31"/><rect class="sym" height="6" width="6" x="-3" y="-3"/><text class="lab" transform="translate(0 11)"/></g><g class="a462 c2 node n251" transform="translate(0.0 4.57523)"><g class="a251 i28 leaf node n52 p0 sample" transform="translate(-5.77 5.64755)"><path class="edge e476" d="M 0 0 V -5.64755 H 5.77"/><rect class="sym" height="6" width="6" x="-3" y="-3"/><text class="lab" transform="translate(0 11)"/></g><g class="a251 i38 leaf node n65 p0 sample" transform="translate(5.77 5.64755)"><path class="edge e478" d="M 0 0 V -5.64755 H -5.77"/><rect class="sym" height="6" width="6" x="-3" y="-3"/><text class="lab" transform="translate(0 11)"/></g><path class="edge e1482" d="M 0 0 V -4.57523 H 0.0"/><circle class="sym" cx="0" cy="0" r="3"/><text class="lab rgt" transform="translate(3 -7)"/></g><path class="edge e1621" d="M 0 0 V -0.571904 H -28.85"/><circle class="sym" cx="0" cy="0" r="3"/><text class="lab rgt" transform="translate(3 -7)"/></g><g class="a482 c2 node n248" transform="translate(-28.85 5.14714)"><g class="a248 i5 leaf node n7 p0 sample" transform="translate(-5.77 5.64755)"><path class="edge e468" d="M 0 0 V -5.64755 H 5.77"/><rect class="sym" height="6" width="6" x="-3" y="-3"/><text class="lab" transform="translate(0 11)"/></g><g class="a248 i27 leaf node n50 p0 sample" transform="translate(5.77 5.64755)"><path class="edge e469" d="M 0 0 V -5.64755 H -5.77"/><rect class="sym" height="6" width="6" x="-3" y="-3"/><text class="lab" transform="translate(0 11)"/></g><path class="edge e1611" d="M 0 0 V -5.14714 H 28.85"/><circle class="sym" cx="0" cy="0" r="3"/><text class="lab lft" transform="translate(-3 -7)"/></g><g class="a482 i20 leaf node n37 p0 sample" transform="translate(0.0 10.7947)"><path class="edge e1595" d="M 0 0 V -10.7947 H 0.0"/><rect class="sym" height="6" width="6" x="-3" y="-3"/><text class="lab" transform="translate(0 11)"/></g><path class="edge e2188" d="M 0 0 V -3.5744 H 62.0275"/><circle class="sym" cx="0" cy="0" r="3"/><text class="lab rgt" transform="translate(3 -7)"/></g><g class="a578 i27 leaf node n51 p0 sample" transform="translate(122.612 14.3691)"><path class="edge e2175" d="M 0 0 V -14.3691 H -122.612"/><rect class="sym" height="6" width="6" x="-3" y="-3"/><text class="lab" transform="translate(0 11)"/></g><g class="a578 c3 node n453" transform="translate(67.7975 4.28928)"><g class="a453 i21 leaf node n38 p0 sample" transform="translate(20.195 10.0798)"><path class="edge e1416" d="M 0 0 V -10.0798 H -20.195"/><rect class="sym" height="6" width="6" x="-3" y="-3"/><text class="lab" transform="translate(0 11)"/></g><g class="a453 c4 node n423" transform="translate(-20.195 1.00083)"><g class="a423 i12 leaf node n21 p0 sample" transform="translate(-5.77 9.07898)"><path class="edge e1260" d="M 0 0 V -9.07898 H 5.77"/><rect class="sym" height="6" width="6" x="-3" y="-3"/><text class="lab" transform="translate(0 11)"/></g><g class="a423 i14 leaf node n24 p0 sample" transform="translate(5.77 9.07898)"><path class="edge e1261" d="M 0 0 V -9.07898 H -5.77"/><rect class="sym" height="6" width="6" x="-3" y="-3"/><text class="lab" transform="translate(0 11)"/></g><g class="a423 i9 leaf node n15 p0 sample" transform="translate(-17.31 9.07898)"><path class="edge e1258" d="M 0 0 V -9.07898 H 17.31"/><rect class="sym" height="6" width="6" x="-3" y="-3"/><text class="lab" transform="translate(0 11)"/></g><g class="a423 i25 leaf node n47 p0 sample" transform="translate(17.31 9.07898)"><path class="edge e1263" d="M 0 0 V -9.07898 H -17.31"/><rect class="sym" height="6" width="6" x="-3" y="-3"/><text class="lab" transform="translate(0 11)"/></g><path class="edge e1423" d="M 0 0 V -1.00083 H 20.195"/><circle class="sym" cx="0" cy="0" r="3"/><text class="lab lft" transform="translate(-3 -7)"/></g><g class="a453 i13 leaf m4734 node n23 p0 s9381 sample" transform="translate(8.655 10.0798)"><path class="edge e1409" d="M 0 0 V -10.0798 H -8.655"/><g class="mut m4734 s9381 unknown_time" transform="translate(0 -5.03991)"><line x1="0" x2="0" y1="0" y2="5.03991"/><path class="sym" d="M -3,-3 l 6,6 M -3,3 l 6,-6"/><text class="lab rgt" transform="translate(5 0)"/></g><rect class="sym" height="6" width="6" x="-3" y="-3"/><text class="lab" transform="translate(0 11)"/></g><path class="edge e2187" d="M 0 0 V -4.28928 H -67.7975"/><circle class="sym" cx="0" cy="0" r="3"/><text class="lab rgt" transform="translate(3 -7)"/></g><g class="a578 i31 leaf node n59 p0 sample" transform="translate(134.152 14.3691)"><path class="edge e2176" d="M 0 0 V -14.3691 H -134.152"/><rect class="sym" height="6" width="6" x="-3" y="-3"/><text class="lab" transform="translate(0 11)"/></g><g class="a578 c2 node n202" transform="translate(105.302 9.72237)"><g class="a202 i17 leaf node n31 p0 sample" transform="translate(-5.77 4.64672)"><path class="edge e306" d="M 0 0 V -4.64672 H 5.77"/><rect class="sym" height="6" width="6" x="-3" y="-3"/><text class="lab" transform="translate(0 11)"/></g><g class="a202 i22 leaf node n41 p0 sample" transform="translate(5.77 4.64672)"><path class="edge e307" d="M 0 0 V -4.64672 H -5.77"/><rect class="sym" height="6" width="6" x="-3" y="-3"/><text class="lab" transform="translate(0 11)"/></g><path class="edge e2179" d="M 0 0 V -9.72237 H -105.302"/><circle class="sym" cx="0" cy="0" r="3"/><text class="lab rgt" transform="translate(3 -7)"/></g><g class="a578 c3 node n324" transform="translate(7.2125 7.07731)"><g class="a324 i13 leaf node n22 p0 sample" transform="translate(0.0 7.29178)"><path class="edge e754" d="M 0 0 V -7.29178 H 0.0"/><rect class="sym" height="6" width="6" x="-3" y="-3"/><text class="lab" transform="translate(0 11)"/></g><g class="a324 i6 leaf node n8 p0 sample" transform="translate(-11.54 7.29178)"><path class="edge e749" d="M 0 0 V -7.29178 H 11.54"/><rect class="sym" height="6" width="6" x="-3" y="-3"/><text class="lab" transform="translate(0 11)"/></g><g class="a324 i17 leaf node n30 p0 sample" transform="translate(11.54 7.29178)"><path class="edge e757" d="M 0 0 V -7.29178 H -11.54"/><rect class="sym" height="6" width="6" x="-3" y="-3"/><text class="lab" transform="translate(0 11)"/></g><path class="edge e2181" d="M 0 0 V -7.07731 H -7.2125"/><circle class="sym" cx="0" cy="0" r="3"/><text class="lab rgt" transform="translate(3 -7)"/></g><path class="edge e2250" d="M 0 0 V -0.35744 H 29.5712"/><circle class="sym" cx="0" cy="0" r="3"/><text class="lab rgt" transform="translate(3 -7)"/></g><path class="edge e2464" d="M 0 0 V -2.93101 H 213.851"/><circle class="sym" cx="0" cy="0" r="3"/><text class="lab lft" transform="translate(-3 -7)"/></g><g class="a628 i31 leaf node n58 p0 sample" transform="translate(213.851 17.6575)"><path class="edge e2454" d="M 0 0 V -17.6575 H -213.851"/><rect class="sym" height="6" width="6" x="-3" y="-3"/><text class="lab" transform="translate(0 11)"/></g><g class="a628 c3 node n527" transform="translate(151.823 5.50458)"><g class="a527 c2 node n499" transform="translate(-36.0625 1.00083)"><g class="a499 i19 leaf node n34 p0 sample" transform="translate(5.77 11.1521)"><path class="edge e1706" d="M 0 0 V -11.1521 H -5.77"/><rect class="sym" height="6" width="6" x="-3" y="-3"/><text class="lab" transform="translate(0 11)"/></g><g class="a499 i7 leaf node n10 p0 sample" transform="translate(-5.77 11.1521)"><path class="edge e1705" d="M 0 0 V -11.1521 H 5.77"/><rect class="sym" height="6" width="6" x="-3" y="-3"/><text class="lab" transform="translate(0 11)"/></g><path class="edge e1878" d="M 0 0 V -1.00083 H 36.0625"/><circle class="sym" cx="0" cy="0" r="3"/><text class="lab lft" transform="translate(-3 -7)"/></g><g class="a527 c2 node n512" transform="translate(36.0625 0.500416)"><g class="a512 i18 leaf node n33 p0 sample" transform="translate(14.425 11.6525)"><path class="edge e1765" d="M 0 0 V -11.6525 H -14.425"/><rect class="sym" height="6" width="6" x="-3" y="-3"/><text class="lab" transform="translate(0 11)"/></g><g class="a512 c2 node n454" transform="translate(-14.425 1.57274)"><g class="a454 c2 node n444" transform="translate(11.54 0.214464)"><g class="a444 i16 leaf node n29 p0 sample" transform="translate(-5.77 9.86535)"><path class="edge e1355" d="M 0 0 V -9.86535 H 5.77"/><rect class="sym" height="6" width="6" x="-3" y="-3"/><text class="lab" transform="translate(0 11)"/></g><g class="a444 i26 leaf node n48 p0 sample" transform="translate(5.77 9.86535)"><path class="edge e1357" d="M 0 0 V -9.86535 H -5.77"/><rect class="sym" height="6" width="6" x="-3" y="-3"/><text class="lab" transform="translate(0 11)"/></g><path class="edge e1437" d="M 0 0 V -0.214464 H -11.54"/><circle class="sym" cx="0" cy="0" r="3"/><text class="lab rgt" transform="translate(3 -7)"/></g><g class="a454 c2 node n390" transform="translate(-11.54 1.64422)"><g class="a390 i10 leaf node n16 p0 sample" transform="translate(-5.77 8.43559)"><path class="edge e1053" d="M 0 0 V -8.43559 H 5.77"/><rect class="sym" height="6" width="6" x="-3" y="-3"/><text class="lab" transform="translate(0 11)"/></g><g class="a390 i30 leaf node n57 p0 sample" transform="translate(5.77 8.43559)"><path class="edge e1059" d="M 0 0 V -8.43559 H -5.77"/><rect class="sym" height="6" width="6" x="-3" y="-3"/><text class="lab" transform="translate(0 11)"/></g><path class="edge e1436" d="M 0 0 V -1.64422 H 11.54"/><circle class="sym" cx="0" cy="0" r="3"/><text class="lab lft" transform="translate(-3 -7)"/></g><path class="edge e1771" d="M 0 0 V -1.57274 H 14.425"/><circle class="sym" cx="0" cy="0" r="3"/><text class="lab lft" transform="translate(-3 -7)"/></g><path class="edge e1880" d="M 0 0 V -0.500416 H -36.0625"/><circle class="sym" cx="0" cy="0" r="3"/><text class="lab rgt" transform="translate(3 -7)"/></g><g class="a527 c2 node n241" transform="translate(-12.9825 6.64839)"><g class="a241 i8 leaf node n13 p0 sample" transform="translate(-5.77 5.50458)"><path class="edge e436" d="M 0 0 V -5.50458 H 5.77"/><rect class="sym" height="6" width="6" x="-3" y="-3"/><text class="lab" transform="translate(0 11)"/></g><g class="a241 i24 leaf node n44 p0 sample" transform="translate(5.77 5.50458)"><path class="edge e437" d="M 0 0 V -5.50458 H -5.77"/><rect class="sym" height="6" width="6" x="-3" y="-3"/><text class="lab" transform="translate(0 11)"/></g><path class="edge e1866" d="M 0 0 V -6.64839 H 12.9825"/><circle class="sym" cx="0" cy="0" r="3"/><text class="lab rgt" transform="translate(3 -7)"/></g><path class="edge e2458" d="M 0 0 V -5.50458 H -151.823"/><circle class="sym" cx="0" cy="0" r="3"/><text class="lab rgt" transform="translate(3 -7)"/></g><g class="a628 c2 node n596" transform="translate(86.9106 2.28762)"><g class="a596 i24 leaf node n45 p0 sample" transform="translate(11.54 15.3699)"><path class="edge e2292" d="M 0 0 V -15.3699 H -11.54"/><rect class="sym" height="6" width="6" x="-3" y="-3"/><text class="lab" transform="translate(0 11)"/></g><g class="a596 c3 node n366" transform="translate(-11.54 7.50624)"><g class="a366 i6 leaf node n9 p0 sample" transform="translate(-11.54 7.86368)"><path class="edge e929" d="M 0 0 V -7.86368 H 11.54"/><rect class="sym" height="6" width="6" x="-3" y="-3"/><text class="lab" transform="translate(0 11)"/></g><g class="a366 i15 leaf node n26 p0 sample" transform="translate(0.0 7.86368)"><path class="edge e933" d="M 0 0 V -7.86368 H 0.0"/><rect class="sym" height="6" width="6" x="-3" y="-3"/><text class="lab" transform="translate(0 11)"/></g><g class="a366 i32 leaf node n61 p0 sample" transform="translate(11.54 7.86368)"><path class="edge e939" d="M 0 0 V -7.86368 H -11.54"/><rect class="sym" height="6" width="6" x="-3" y="-3"/><text class="lab" transform="translate(0 11)"/></g><path class="edge e2297" d="M 0 0 V -7.50624 H 11.54"/><circle class="sym" cx="0" cy="0" r="3"/><text class="lab lft" transform="translate(-3 -7)"/></g><path class="edge e2466" d="M 0 0 V -2.28762 H -86.9106"/><circle class="sym" cx="0" cy="0" r="3"/><text class="lab rgt" transform="translate(3 -7)"/></g><path class="edge e2532" d="M 0 0 V -0.857856 H 121.35"/><circle class="sym" cx="0" cy="0" r="3"/><text class="lab lft" transform="translate(-3 -7)"/></g><path class="edge e2762" d="M 0 0 V -2.57357 H 75.1002"/><circle class="sym" cx="0" cy="0" r="3"/><text class="lab lft" transform="translate(-3 -7)"/></g><path class="edge e5611" d="M 0 0 V -151.197 H 47.6476"/><g class="mut m4730 s9378 unknown_time" transform="translate(0 -113.398)"><line x1="0" x2="0" y1="0" y2="113.398"/><path class="sym" d="M -3,-3 l 6,6 M -3,3 l 6,-6"/><text class="lab lft" transform="translate(-5 0)">rs3827760</text></g><g class="mut m4733 s9381 unknown_time" transform="translate(0 -75.5986)"><line x1="0" x2="0" y1="0" y2="75.5986"/><path class="sym" d="M -3,-3 l 6,6 M -3,3 l 6,-6"/><text class="lab lft" transform="translate(-5 0)"/></g><g class="mut m4743 s9402 unknown_time" transform="translate(0 -37.7993)"><line x1="0" x2="0" y1="0" y2="37.7993"/><path class="sym" d="M -3,-3 l 6,6 M -3,3 l 6,-6"/><text class="lab lft" transform="translate(-5 0)"/></g><circle class="sym" cx="0" cy="0" r="3"/><text class="lab lft" transform="translate(-3 -7)"/></g><path class="edge e5772" d="M 0 0 V -33.0275 H 41.1338"/><circle class="sym" cx="0" cy="0" r="3"/><text class="lab lft" transform="translate(-3 -7)"/></g><g class="a1364 c2 m4729 node n345 s9376" transform="translate(41.1338 197.807)"><g class="a345 i18 leaf node n32 p0 sample" transform="translate(-8.655 7.50624)"><path class="edge e841" d="M 0 0 V -7.50624 H 8.655"/><rect class="sym" height="6" width="6" x="-3" y="-3"/><text class="lab" transform="translate(0 11)"/></g><g class="a345 c2 node n199" transform="translate(8.655 2.85952)"><g class="a199 i19 leaf node n35 p0 sample" transform="translate(-5.77 4.64672)"><path class="edge e299" d="M 0 0 V -4.64672 H 5.77"/><rect class="sym" height="6" width="6" x="-3" y="-3"/><text class="lab" transform="translate(0 11)"/></g><g class="a199 i25 leaf node n46 p0 sample" transform="translate(5.77 4.64672)"><path class="edge e300" d="M 0 0 V -4.64672 H -5.77"/><rect class="sym" height="6" width="6" x="-3" y="-3"/><text class="lab" transform="translate(0 11)"/></g><path class="edge e842" d="M 0 0 V -2.85952 H -8.655"/><circle class="sym" cx="0" cy="0" r="3"/><text class="lab rgt" transform="translate(3 -7)"/></g><path class="edge e5767" d="M 0 0 V -197.807 H -41.1338"/><g class="mut m4729 s9376 unknown_time" transform="translate(0 -98.9037)"><line x1="0" x2="0" y1="0" y2="98.9037"/><path class="sym" d="M -3,-3 l 6,6 M -3,3 l 6,-6"/><text class="lab rgt" transform="translate(5 0)"/></g><circle class="sym" cx="0" cy="0" r="3"/><text class="lab rgt" transform="translate(3 -7)"/></g><path class="edge e6011" d="M 0 0 V -32.0981 H 33.5494"/><circle class="sym" cx="0" cy="0" r="3"/><text class="lab lft" transform="translate(-3 -7)"/></g><path class="edge e6098" d="M 0 0 V -16.2993 H 25.4297"/><circle class="sym" cx="0" cy="0" r="3"/><text class="lab lft" transform="translate(-3 -7)"/></g><path class="edge e6304" d="M 0 0 V -49.7557 H 49.6789"/><g class="mut m4731 s9379 unknown_time" transform="translate(0 -33.1704)"><line x1="0" x2="0" y1="0" y2="33.1704"/><path class="sym" d="M -3,-3 l 6,6 M -3,3 l 6,-6"/><text class="lab lft" transform="translate(-5 0)"/></g><g class="mut m4738 s9387 unknown_time" transform="translate(0 -16.5852)"><line x1="0" x2="0" y1="0" y2="16.5852"/><path class="sym" d="M -3,-3 l 6,6 M -3,3 l 6,-6"/><text class="lab lft" transform="translate(-5 0)"/></g><circle class="sym" cx="0" cy="0" r="3"/><text class="lab lft" transform="translate(-3 -7)"/></g><path class="edge root" d="M 0 0 V -37.9333 H 0"/><g class="mut m4735 s9382 unknown_time" transform="translate(0 -25.2889)"><line x1="0" x2="0" y1="0" y2="25.2889"/><path class="sym" d="M -3,-3 l 6,6 M -3,3 l 6,-6"/><text class="lab rgt" transform="translate(5 0)"/></g><g class="mut m4755 s9415 unknown_time" transform="translate(0 -12.6444)"><line x1="0" x2="0" y1="0" y2="12.6444"/><path class="sym" d="M -3,-3 l 6,6 M -3,3 l 6,-6"/><text class="lab rgt" transform="translate(5 0)"/></g><circle class="sym" cx="0" cy="0" r="3"/><text class="lab rgt" transform="translate(3 -7)"/></g></g></g><g class="title" transform="translate(500 0)"><text dominant-baseline="hanging" text-anchor="middle">Tree of human chromosome 2 at position 108897145</text></g></svg>