<svg baseProfile="full" height="300" version="1.1" width="1000" xmlns="http://www.w3.org/2000/svg" xmlns:ev="http://www.w3.org/2001/xml-events" xmlns:xlink="http://www.w3.org/1999/xlink"><defs><style type="text/css"><![CDATA[.background path {fill: #808080; fill-opacity: 0}.background path:nth-child(odd) {fill-opacity: .1}.axes {font-size: 14px}.x-axis .tick .lab {font-weight: bold; dominant-baseline: hanging}.axes, .tree {font-size: 14px; text-anchor: middle}.axes line, .edge {stroke: black; fill: none}.axes .ax-skip {stroke-dasharray: 4}.y-axis .grid {stroke: #FAFAFA}.node > .sym {fill: black; stroke: none}.site > .sym {stroke: black}.mut text {fill: red; font-style: italic}.mut.extra text {fill: hotpink}.mut line {fill: none; stroke: none}.mut .sym {fill: none; stroke: red}.mut.extra .sym {stroke: hotpink}.node .mut .sym {stroke-width: 1.5px}.tree text, .tree-sequence text {dominant-baseline: central}.plotbox .lab.lft {text-anchor: end}.plotbox .lab.rgt {text-anchor: start}]]></style></defs><g class="tree-sequence"><g class="background"><path d="M56.8,0 l461.6,0 l0,238.2 l-136.065,25 l0,5 l-325.535,0 l0,-5 l0,-25 l0,-238.2z" /><path d="M518.4,0 l461.6,0 l0,238.2 l0,25 l0,5 l-597.665,0 l0,-5 l136.065,-25 l0,-238.2z" /></g><g class="axes"><g class="x-axis"><g class="title" transform="translate(518.4 300)"><text class="lab" text-anchor="middle" transform="translate(0 -11)">Genome position</text></g><line class="ax-line" x1="56.8" x2="980" y1="263.2" y2="263.2" /><g class="ticks"><g class="tick" transform="translate(56.8 263.2)"><line x1="0" x2="0" y1="0" y2="5" /><g transform="translate(0 6)"><text class="lab">0.00</text></g></g><g class="tick" transform="translate(382.335 263.2)"><line x1="0" x2="0" y1="0" y2="5" /><g transform="translate(0 6)"><text class="lab">17630.80</text></g></g><g class="tick" transform="translate(980 263.2)"><line x1="0" x2="0" y1="0" y2="5" /><g transform="translate(0 6)"><text class="lab">50000.00</text></g></g></g></g><g class="y-axis"><g class="title" transform="translate(0 115.7)"><text class="lab" text-anchor="middle" transform="translate(11) rotate(-90)">Time (generations ago)</text></g><line class="ax-line" x1="56.8" x2="56.8" y1="221.4" y2="10" /><g class="ticks"><g class="tick" transform="translate(56.8 221.4)"><line x1="0" x2="-5" y1="0" y2="0" /><g transform="translate(-6 0)"><text class="lab" text-anchor="end">0</text></g></g><g class="tick" transform="translate(56.8 156.533)"><line x1="0" x2="-5" y1="0" y2="0" /><g transform="translate(-6 0)"><text class="lab" text-anchor="end">10</text></g></g><g class="tick" transform="translate(56.8 91.6667)"><line x1="0" x2="-5" y1="0" y2="0" /><g transform="translate(-6 0)"><text class="lab" text-anchor="end">20</text></g></g><g class="tick" transform="translate(56.8 26.8)"><line x1="0" x2="-5" y1="0" y2="0" /><g transform="translate(-6 0)"><text class="lab" text-anchor="end">30</text></g></g><g class="tick" transform="translate(56.8 -38.0667)"><line x1="0" x2="-5" y1="0" y2="0" /><g transform="translate(-6 0)"><text class="lab" text-anchor="end">40</text></g></g><g class="tick" transform="translate(56.8 -102.933)"><line x1="0" x2="-5" y1="0" y2="0" /><g transform="translate(-6 0)"><text class="lab" text-anchor="end">50</text></g></g></g></g></g><g class="plotbox trees"><g class="tree t0" transform="translate(56.8 0)"><g class="plotbox"><g class="c2 i0 node n21 root" transform="translate(257.15 26.8)"><g class="a21 c2 i4 node n16" transform="translate(-127.358 175.14)"><g class="a16 c3 i8 node n13" transform="translate(-57.0917 12.9733)"><g class="a13 i9 leaf node n0 sample" transform="translate(-35.1333 6.48667)"><path class="edge" d="M 0 0 V -6.48667 H 35.1333" /><rect class="sym" height="6" width="6" x="-3" y="-3" /><text class="lab" transform="translate(0 11)">0</text></g><g class="a13 i11 leaf node n5 sample" transform="translate(0.0 6.48667)"><path class="edge" d="M 0 0 V -6.48667 H 0.0" /><rect class="sym" height="6" width="6" x="-3" y="-3" /><text class="lab" transform="translate(0 11)">5</text></g><g class="a13 i14 leaf node n10 sample" transform="translate(35.1333 6.48667)"><path class="edge" d="M 0 0 V -6.48667 H -35.1333" /><rect class="sym" height="6" width="6" x="-3" y="-3" /><text class="lab" transform="translate(0 11)">10</text></g><path class="edge" d="M 0 0 V -12.9733 H 57.0917" /><circle class="sym" cx="0" cy="0" r="3" /><text class="lab lft" transform="translate(-3 -7.0)">13</text></g><g class="a16 c2 i6 node n15" transform="translate(57.0917 6.48667)"><g class="a15 i12 leaf node n7 sample" transform="translate(26.35 12.9733)"><path class="edge" d="M 0 0 V -12.9733 H -26.35" /><rect class="sym" height="6" width="6" x="-3" y="-3" /><text class="lab" transform="translate(0 11)">7</text></g><g class="a15 c2 i7 node n12" transform="translate(-26.35 6.48667)"><g class="a12 i10 leaf node n2 sample" transform="translate(-17.5667 6.48667)"><path class="edge" d="M 0 0 V -6.48667 H 17.5667" /><rect class="sym" height="6" width="6" x="-3" y="-3" /><text class="lab" transform="translate(0 11)">2</text></g><g class="a12 i12 leaf node n6 sample" transform="translate(17.5667 6.48667)"><path class="edge" d="M 0 0 V -6.48667 H -17.5667" /><rect class="sym" height="6" width="6" x="-3" y="-3" /><text class="lab" transform="translate(0 11)">6</text></g><path class="edge" d="M 0 0 V -6.48667 H 26.35" /><circle class="sym" cx="0" cy="0" r="3" /><text class="lab lft" transform="translate(-3 -7.0)">12</text></g><path class="edge" d="M 0 0 V -6.48667 H -57.0917" /><circle class="sym" cx="0" cy="0" r="3" /><text class="lab rgt" transform="translate(3 -7.0)">15</text></g><path class="edge" d="M 0 0 V -175.14 H 127.358" /><circle class="sym" cx="0" cy="0" r="3" /><text class="lab lft" transform="translate(-3 -7.0)">16</text></g><g class="a21 c2 i1 node n20" transform="translate(127.358 110.273)"><g class="a20 i13 leaf node n8 sample" transform="translate(39.525 84.3267)"><path class="edge" d="M 0 0 V -84.3267 H -39.525" /><rect class="sym" height="6" width="6" x="-3" y="-3" /><text class="lab" transform="translate(0 11)">8</text></g><g class="a20 c2 i2 node n19" transform="translate(-39.525 38.92)"><g class="a19 i11 leaf node n4 sample" transform="translate(43.9167 45.4067)"><path class="edge" d="M 0 0 V -45.4067 H -43.9167" /><rect class="sym" height="6" width="6" x="-3" y="-3" /><text class="lab" transform="translate(0 11)">4</text></g><g class="a19 c2 i3 node n18" transform="translate(-43.9167 6.48667)"><g class="a18 c2 i8 node n14" transform="translate(35.1333 32.4333)"><g class="a14 i10 leaf node n3 sample" transform="translate(-17.5667 6.48667)"><path class="edge" d="M 0 0 V -6.48667 H 17.5667" /><rect class="sym" height="6" width="6" x="-3" y="-3" /><text class="lab" transform="translate(0 11)">3</text></g><g class="a14 i13 leaf node n9 sample" transform="translate(17.5667 6.48667)"><path class="edge" d="M 0 0 V -6.48667 H -17.5667" /><rect class="sym" height="6" width="6" x="-3" y="-3" /><text class="lab" transform="translate(0 11)">9</text></g><path class="edge" d="M 0 0 V -32.4333 H -35.1333" /><circle class="sym" cx="0" cy="0" r="3" /><text class="lab rgt" transform="translate(3 -7.0)">14</text></g><g class="a18 c2 i5 node n17" transform="translate(-35.1333 19.46)"><g class="a17 i9 leaf node n1 sample" transform="translate(-17.5667 19.46)"><path class="edge" d="M 0 0 V -19.46 H 17.5667" /><rect class="sym" height="6" width="6" x="-3" y="-3" /><text class="lab" transform="translate(0 11)">1</text></g><g class="a17 i14 leaf node n11 sample" transform="translate(17.5667 19.46)"><path class="edge" d="M 0 0 V -19.46 H -17.5667" /><rect class="sym" height="6" width="6" x="-3" y="-3" /><text class="lab" transform="translate(0 11)">11</text></g><path class="edge" d="M 0 0 V -19.46 H 35.1333" /><circle class="sym" cx="0" cy="0" r="3" /><text class="lab lft" transform="translate(-3 -7.0)">17</text></g><path class="edge" d="M 0 0 V -6.48667 H 43.9167" /><circle class="sym" cx="0" cy="0" r="3" /><text class="lab lft" transform="translate(-3 -7.0)">18</text></g><path class="edge" d="M 0 0 V -38.92 H 39.525" /><circle class="sym" cx="0" cy="0" r="3" /><text class="lab lft" transform="translate(-3 -7.0)">19</text></g><path class="edge" d="M 0 0 V -110.273 H -127.358" /><circle class="sym" cx="0" cy="0" r="3" /><text class="lab rgt" transform="translate(3 -7.0)">20</text></g><circle class="sym" cx="0" cy="0" r="3" /><text class="lab" transform="translate(0 -11)">21</text></g></g></g><g class="tree t1" transform="translate(518.4 0)"><g class="plotbox"><g class="c2 i0 node n21 root" transform="translate(273.619 26.8)"><g class="a21 c3 i4 node n16" transform="translate(-113.085 175.14)"><g class="a16 c3 i8 node n13" transform="translate(-87.8333 12.9733)"><g class="a13 i9 leaf node n0 sample" transform="translate(-35.1333 6.48667)"><path class="edge" d="M 0 0 V -6.48667 H 35.1333" /><rect class="sym" height="6" width="6" x="-3" y="-3" /><text class="lab" transform="translate(0 11)">0</text></g><g class="a13 i11 leaf node n5 sample" transform="translate(0.0 6.48667)"><path class="edge" d="M 0 0 V -6.48667 H 0.0" /><rect class="sym" height="6" width="6" x="-3" y="-3" /><text class="lab" transform="translate(0 11)">5</text></g><g class="a13 i14 leaf node n10 sample" transform="translate(35.1333 6.48667)"><path class="edge" d="M 0 0 V -6.48667 H -35.1333" /><rect class="sym" height="6" width="6" x="-3" y="-3" /><text class="lab" transform="translate(0 11)">10</text></g><path class="edge" d="M 0 0 V -12.9733 H 87.8333" /><circle class="sym" cx="0" cy="0" r="3" /><text class="lab lft" transform="translate(-3 -7.0)">13</text></g><g class="a16 c2 i6 node n15" transform="translate(26.35 6.48667)"><g class="a15 i12 leaf node n7 sample" transform="translate(26.35 12.9733)"><path class="edge" d="M 0 0 V -12.9733 H -26.35" /><rect class="sym" height="6" width="6" x="-3" y="-3" /><text class="lab" transform="translate(0 11)">7</text></g><g class="a15 c2 i7 node n12" transform="translate(-26.35 6.48667)"><g class="a12 i10 leaf node n2 sample" transform="translate(-17.5667 6.48667)"><path class="edge" d="M 0 0 V -6.48667 H 17.5667" /><rect class="sym" height="6" width="6" x="-3" y="-3" /><text class="lab" transform="translate(0 11)">2</text></g><g class="a12 i12 leaf node n6 sample" transform="translate(17.5667 6.48667)"><path class="edge" d="M 0 0 V -6.48667 H -17.5667" /><rect class="sym" height="6" width="6" x="-3" y="-3" /><text class="lab" transform="translate(0 11)">6</text></g><path class="edge" d="M 0 0 V -6.48667 H 26.35" /><circle class="sym" cx="0" cy="0" r="3" /><text class="lab lft" transform="translate(-3 -7.0)">12</text></g><path class="edge" d="M 0 0 V -6.48667 H -26.35" /><circle class="sym" cx="0" cy="0" r="3" /><text class="lab rgt" transform="translate(3 -7.0)">15</text></g><g class="a16 i14 leaf node n11 sample" transform="translate(87.8333 19.46)"><path class="edge" d="M 0 0 V -19.46 H -87.8333" /><rect class="sym" height="6" width="6" x="-3" y="-3" /><text class="lab" transform="translate(0 11)">11</text></g><path class="edge" d="M 0 0 V -175.14 H 113.085" /><circle class="sym" cx="0" cy="0" r="3" /><text class="lab lft" transform="translate(-3 -7.0)">16</text></g><g class="a21 c2 i1 node n20" transform="translate(113.085 110.273)"><g class="a20 i13 leaf node n8 sample" transform="translate(37.3292 84.3267)"><path class="edge" d="M 0 0 V -84.3267 H -37.3292" /><rect class="sym" height="6" width="6" x="-3" y="-3" /><text class="lab" transform="translate(0 11)">8</text></g><g class="a20 c2 i2 node n19" transform="translate(-37.3292 38.92)"><g class="a19 i11 leaf node n4 sample" transform="translate(39.525 45.4067)"><path class="edge" d="M 0 0 V -45.4067 H -39.525" /><rect class="sym" height="6" width="6" x="-3" y="-3" /><text class="lab" transform="translate(0 11)">4</text></g><g class="a19 c2 i3 node n18" transform="translate(-39.525 6.48667)"><g class="a18 c2 i8 node n14" transform="translate(26.35 32.4333)"><g class="a14 i10 leaf node n3 sample" transform="translate(-17.5667 6.48667)"><path class="edge" d="M 0 0 V -6.48667 H 17.5667" /><rect class="sym" height="6" width="6" x="-3" y="-3" /><text class="lab" transform="translate(0 11)">3</text></g><g class="a14 i13 leaf node n9 sample" transform="translate(17.5667 6.48667)"><path class="edge" d="M 0 0 V -6.48667 H -17.5667" /><rect class="sym" height="6" width="6" x="-3" y="-3" /><text class="lab" transform="translate(0 11)">9</text></g><path class="edge" d="M 0 0 V -32.4333 H -26.35" /><circle class="sym" cx="0" cy="0" r="3" /><text class="lab rgt" transform="translate(3 -7.0)">14</text></g><g class="a18 i9 leaf node n1 sample" transform="translate(-26.35 38.92)"><path class="edge" d="M 0 0 V -38.92 H 26.35" /><rect class="sym" height="6" width="6" x="-3" y="-3" /><text class="lab" transform="translate(0 11)">1</text></g><path class="edge" d="M 0 0 V -6.48667 H 39.525" /><circle class="sym" cx="0" cy="0" r="3" /><text class="lab lft" transform="translate(-3 -7.0)">18</text></g><path class="edge" d="M 0 0 V -38.92 H 37.3292" /><circle class="sym" cx="0" cy="0" r="3" /><text class="lab lft" transform="translate(-3 -7.0)">19</text></g><path class="edge" d="M 0 0 V -110.273 H -113.085" /><circle class="sym" cx="0" cy="0" r="3" /><text class="lab rgt" transform="translate(3 -7.0)">20</text></g><circle class="sym" cx="0" cy="0" r="3" /><text class="lab" transform="translate(0 -11)">21</text></g></g></g></g></g></svg>