<svg baseProfile="full" height="250" id="svg2" version="1.1" width="800" xmlns="http://www.w3.org/2000/svg" xmlns:ev="http://www.w3.org/2001/xml-events" xmlns:xlink="http://www.w3.org/1999/xlink"><defs><style type="text/css"><![CDATA[.background path {fill: #808080; fill-opacity: 0}.background path:nth-child(odd) {fill-opacity: .1}.x-regions rect {fill: yellow; stroke: black; opacity: 0.5}.axes {font-size: 14px}.x-axis .tick .lab {font-weight: bold; dominant-baseline: hanging}.axes, .tree {font-size: 14px; text-anchor: middle}.axes line, .edge {stroke: black; fill: none}.axes .ax-skip {stroke-dasharray: 4}.y-axis .grid {stroke: #FAFAFA}.node > .sym {fill: black; stroke: none}.site > .sym {stroke: black}.mut text {fill: red; font-style: italic}.mut.extra text {fill: hotpink}.mut line {fill: none; stroke: none}.mut .sym {fill: none; stroke: red}.mut.extra .sym {stroke: hotpink}.node .mut .sym {stroke-width: 1.5px}.tree text, .tree-sequence text {dominant-baseline: central}.plotbox .lab.lft {text-anchor: end}.plotbox .lab.rgt {text-anchor: start}.polytomy line {stroke: black; stroke-dasharray: 1px, 1px}.polytomy text {paint-order:stroke;stroke-width:0.3em;stroke:white}.y-axis .tick .lab {font-size: 85%}#svg2 .node > .sym {visibility: visible;}.p1 > .sym {fill: #ff7f0e}.p1 > .sym {fill: #ff7f0e}.p1 > .sym {fill: #ff7f0e}.p1 > .sym {fill: #ff7f0e}.p2 > .sym {fill: #2ca02c}.p2 > .sym {fill: #2ca02c}.p2 > .sym {fill: #2ca02c}.p2 > .sym {fill: #2ca02c}.p2 > .sym {fill: #2ca02c}.p2 > .sym {fill: #2ca02c}.p1 > .sym {fill: #ff7f0e}.p2 > .sym {fill: #2ca02c}.p0 > .sym {fill: #1f77b4}.p0 > .sym {fill: #1f77b4}.p0 > .sym {fill: #1f77b4}.p0 > .sym {fill: #1f77b4}.p0 > .sym {fill: #1f77b4}.p0 > .sym {fill: #1f77b4}.p0 > .sym {fill: #1f77b4}.p0 > .sym {fill: #1f77b4}.p0 > .sym {fill: #1f77b4}.p0 > .sym {fill: #1f77b4}.p0 > .sym {fill: #1f77b4}.p0 > .sym {fill: #1f77b4}.p0 > .sym {fill: #1f77b4}]]></style></defs><g class="tree-sequence"><g class="background"><path d="M56.8,0 l241.067,0 l0,188.2 l53.8382,25 l0,5 l-294.905,0 l0,-5 l0,-25 l0,-188.2z"/><path d="M297.867,0 l241.067,0 l0,188.2 l-1.13687e-13,25 l0,5 l-187.228,0 l0,-5 l-53.838,-25 l0,-188.2z"/><path d="M538.933,0 l241.067,0 l0,188.2 l0,25 l0,5 l-241.067,0 l0,-5 l0,-25 l0,-188.2z"/></g><g class="axes"><g class="x-axis"><g class="title" transform="translate(418.4 250)"><text class="lab" text-anchor="middle" transform="translate(0 -11)">Genome position</text></g><line class="ax-line" x1="56.8" x2="780" y1="213.2" y2="213.2"/><g class="ticks"><g class="tick" transform="translate(56.8 213.2)"><line x1="0" x2="0" y1="0" y2="5"/><g transform="translate(0 6)"><text class="lab">0</text></g></g><g class="tick" transform="translate(351.705 213.2)"><line x1="0" x2="0" y1="0" y2="5"/><g transform="translate(0 6)"><text class="lab">367</text></g></g><g class="tick" transform="translate(538.933 213.2)"><line x1="0" x2="0" y1="0" y2="5"/><g transform="translate(0 6)"><text class="lab">600</text></g></g><g class="tick" transform="translate(780 213.2)"><line x1="0" x2="0" y1="0" y2="5"/><g transform="translate(0 6)"><text class="lab">900</text></g></g></g><g class="site s0" transform="translate(65.6391 213.2)"><line class="sym" x1="0" x2="0" y1="0" y2="-10"/><g class="mut m0"><polyline class="sym" points="2.5,-6.5 0,-1.5 -2.5,-6.5"/></g></g><g class="site s1" transform="translate(189.387 213.2)"><line class="sym" x1="0" x2="0" y1="0" y2="-10"/><g class="mut m1"><polyline class="sym" points="2.5,-6.5 0,-1.5 -2.5,-6.5"/></g></g><g class="site s2" transform="translate(195.815 213.2)"><line class="sym" x1="0" x2="0" y1="0" y2="-10"/><g class="mut m2"><polyline class="sym" points="2.5,-6.5 0,-1.5 -2.5,-6.5"/></g></g><g class="site s3" transform="translate(276.171 213.2)"><line class="sym" x1="0" x2="0" y1="0" y2="-10"/><g class="mut m3"><polyline class="sym" points="2.5,-6.5 0,-1.5 -2.5,-6.5"/></g></g><g class="site s4" transform="translate(328.402 213.2)"><line class="sym" x1="0" x2="0" y1="0" y2="-10"/><g class="mut m4"><polyline class="sym" points="2.5,-6.5 0,-1.5 -2.5,-6.5"/></g></g><g class="site s5" transform="translate(488.309 213.2)"><line class="sym" x1="0" x2="0" y1="0" y2="-10"/><g class="mut m5"><polyline class="sym" points="2.5,-6.5 0,-1.5 -2.5,-6.5"/></g></g><g class="site s6" transform="translate(546.165 213.2)"><line class="sym" x1="0" x2="0" y1="0" y2="-10"/><g class="mut m6"><polyline class="sym" points="2.5,-6.5 0,-1.5 -2.5,-6.5"/></g></g><g class="site s7" transform="translate(558.219 213.2)"><line class="sym" x1="0" x2="0" y1="0" y2="-10"/><g class="mut m7"><polyline class="sym" points="2.5,-6.5 0,-1.5 -2.5,-6.5"/></g></g><g class="site s8" transform="translate(640.985 213.2)"><line class="sym" x1="0" x2="0" y1="0" y2="-10"/><g class="mut m8"><polyline class="sym" points="2.5,-6.5 0,-1.5 -2.5,-6.5"/></g></g><g class="site s9" transform="translate(662.681 213.2)"><line class="sym" x1="0" x2="0" y1="0" y2="-10"/><g class="mut m9"><polyline class="sym" points="2.5,-6.5 0,-1.5 -2.5,-6.5"/></g></g><g class="site s10" transform="translate(736.608 213.2)"><line class="sym" x1="0" x2="0" y1="0" y2="-10"/><g class="mut m10"><polyline class="sym" points="2.5,-6.5 0,-1.5 -2.5,-6.5"/></g></g><g class="site s11" transform="translate(740.626 213.2)"><line class="sym" x1="0" x2="0" y1="0" y2="-10"/><g class="mut m11"><polyline class="sym" points="2.5,-6.5 0,-1.5 -2.5,-6.5"/></g></g></g><g class="y-axis"><g class="title" transform="translate(0 90.7)"><text class="lab" text-anchor="middle" transform="translate(11) rotate(-90)">Time ago (generations)</text></g><line class="ax-line" x1="56.8" x2="56.8" y1="171.4" y2="10"/><g class="ticks"><g class="tick" transform="translate(56.8 171.4)"><line x1="0" x2="-5" y1="0" y2="0"/><g transform="translate(-6 0)"><text class="lab" text-anchor="end">0</text></g></g><g class="tick" transform="translate(56.8 123.725)"><line x1="0" x2="-5" y1="0" y2="0"/><g transform="translate(-6 0)"><text class="lab" text-anchor="end">5000</text></g></g><g class="tick" transform="translate(56.8 76.0499)"><line x1="0" x2="-5" y1="0" y2="0"/><g transform="translate(-6 0)"><text class="lab" text-anchor="end">10000</text></g></g><g class="tick" transform="translate(56.8 28.3748)"><line x1="0" x2="-5" y1="0" y2="0"/><g transform="translate(-6 0)"><text class="lab" text-anchor="end">15000</text></g></g></g></g></g><g class="plotbox trees"><g class="tree t0" transform="translate(56.8 0)"><g class="plotbox"><g class="c2 node n20 p0 root" transform="translate(159.804 26.8)"><g class="a20 c2 m3 node n13 p0 s3" transform="translate(41.1558 132.478)"><g class="a13 i3 leaf node n7 p2 sample" transform="translate(-10.0533 12.1216)"><path class="edge e6" d="M 0 0 V -12.1216 H 10.0533"/><rect class="sym" height="6" width="6" x="-3" y="-3"/><text class="lab" transform="translate(0 11)">i</text></g><g class="a13 i4 leaf node n9 p2 sample" transform="translate(10.0533 12.1216)"><path class="edge e7" d="M 0 0 V -12.1216 H -10.0533"/><rect class="sym" height="6" width="6" x="-3" y="-3"/><text class="lab" transform="translate(0 11)">j</text></g><path class="edge e22" d="M 0 0 V -132.478 H -41.1558"/><g class="mut m3 s3 unknown_time" transform="translate(0 -66.2392)"><line x1="0" x2="0" y1="0" y2="66.2392"/><path class="sym" d="M -3,-3 l 6,6 M -3,3 l 6,-6"/><text class="lab rgt" transform="translate(5 0)"/></g><circle class="sym" cx="0" cy="0" r="3"/><text class="lab rgt" transform="translate(3 -7)">n</text></g><g class="a20 c2 node n19 p0" transform="translate(-41.1558 44.2523)"><g class="a19 c2 node n12 p0" transform="translate(27.0183 88.6804)"><g class="a12 i2 leaf node n5 p2 sample" transform="translate(-15.08 11.6673)"><path class="edge e4" d="M 0 0 V -11.6673 H 15.08"/><rect class="sym" height="6" width="6" x="-3" y="-3"/><text class="lab" transform="translate(0 11)">f</text></g><g class="a12 c2 node n11 p2" transform="translate(15.08 7.0161)"><g class="a11 i3 leaf node n6 p2 sample" transform="translate(-10.0533 4.65121)"><path class="edge e2" d="M 0 0 V -4.65121 H 10.0533"/><rect class="sym" height="6" width="6" x="-3" y="-3"/><text class="lab" transform="translate(0 11)">g</text></g><g class="a11 i4 leaf node n8 p2 sample" transform="translate(10.0533 4.65121)"><path class="edge e3" d="M 0 0 V -4.65121 H -10.0533"/><rect class="sym" height="6" width="6" x="-3" y="-3"/><text class="lab" transform="translate(0 11)">h</text></g><path class="edge e5" d="M 0 0 V -7.0161 H -15.08"/><circle class="sym" cx="0" cy="0" r="3"/><text class="lab rgt" transform="translate(3 -7)">l</text></g><path class="edge e18" d="M 0 0 V -88.6804 H -27.0183"/><circle class="sym" cx="0" cy="0" r="3"/><text class="lab rgt" transform="translate(3 -7)">m</text></g><g class="a19 c2 m1 m4 node n17 p0 s1 s4" transform="translate(-27.0183 40.5412)"><g class="a17 i1 leaf m0 node n2 p1 s0 sample" transform="translate(18.85 59.8065)"><path class="edge e14" d="M 0 0 V -59.8065 H -18.85"/><g class="mut m0 s0 unknown_time" transform="translate(0 -29.9032)"><line x1="0" x2="0" y1="0" y2="29.9032"/><path class="sym" d="M -3,-3 l 6,6 M -3,3 l 6,-6"/><text class="lab rgt" transform="translate(5 0)"/></g><rect class="sym" height="6" width="6" x="-3" y="-3"/><text class="lab" transform="translate(0 11)">e</text></g><g class="a17 c2 node n16 p0" transform="translate(-18.85 20.3741)"><g class="a16 i0 leaf node n1 p1 sample" transform="translate(17.5933 39.4324)"><path class="edge e12" d="M 0 0 V -39.4324 H -17.5933"/><rect class="sym" height="6" width="6" x="-3" y="-3"/><text class="lab" transform="translate(0 11)">d</text></g><g class="a16 c2 node n15 p0" transform="translate(-17.5933 20.727)"><g class="a15 i2 leaf node n4 p2 sample" transform="translate(15.08 18.7054)"><path class="edge e10" d="M 0 0 V -18.7054 H -15.08"/><rect class="sym" height="6" width="6" x="-3" y="-3"/><text class="lab" transform="translate(0 11)">c</text></g><g class="a15 c2 m2 node n10 p1 s2" transform="translate(-15.08 15.7375)"><g class="a10 i0 leaf node n0 p1 sample" transform="translate(-10.0533 2.96787)"><path class="edge e0" d="M 0 0 V -2.96787 H 10.0533"/><rect class="sym" height="6" width="6" x="-3" y="-3"/><text class="lab" transform="translate(0 11)">a</text></g><g class="a10 i1 leaf node n3 p1 sample" transform="translate(10.0533 2.96787)"><path class="edge e1" d="M 0 0 V -2.96787 H -10.0533"/><rect class="sym" height="6" width="6" x="-3" y="-3"/><text class="lab" transform="translate(0 11)">b</text></g><path class="edge e11" d="M 0 0 V -15.7375 H 15.08"/><g class="mut m2 s2 unknown_time" transform="translate(0 -7.86877)"><line x1="0" x2="0" y1="0" y2="7.86877"/><path class="sym" d="M -3,-3 l 6,6 M -3,3 l 6,-6"/><text class="lab lft" transform="translate(-5 0)"/></g><circle class="sym" cx="0" cy="0" r="3"/><text class="lab lft" transform="translate(-3 -7)">k</text></g><path class="edge e13" d="M 0 0 V -20.727 H 17.5933"/><circle class="sym" cx="0" cy="0" r="3"/><text class="lab lft" transform="translate(-3 -7)">p</text></g><path class="edge e15" d="M 0 0 V -20.3741 H 18.85"/><circle class="sym" cx="0" cy="0" r="3"/><text class="lab lft" transform="translate(-3 -7)">q</text></g><path class="edge e21" d="M 0 0 V -40.5412 H 27.0183"/><g class="mut m1 s1 unknown_time" transform="translate(0 -27.0275)"><line x1="0" x2="0" y1="0" y2="27.0275"/><path class="sym" d="M -3,-3 l 6,6 M -3,3 l 6,-6"/><text class="lab lft" transform="translate(-5 0)"/></g><g class="mut m4 s4 unknown_time" transform="translate(0 -13.5137)"><line x1="0" x2="0" y1="0" y2="13.5137"/><path class="sym" d="M -3,-3 l 6,6 M -3,3 l 6,-6"/><text class="lab lft" transform="translate(-5 0)"/></g><circle class="sym" cx="0" cy="0" r="3"/><text class="lab lft" transform="translate(-3 -7)">r</text></g><path class="edge e25" d="M 0 0 V -44.2523 H 41.1558"/><circle class="sym" cx="0" cy="0" r="3"/><text class="lab lft" transform="translate(-3 -7)">t</text></g><circle class="sym" cx="0" cy="0" r="3"/><text class="lab" transform="translate(0 -11)">u</text></g></g></g><g class="tree t1" transform="translate(297.867 0)"><g class="plotbox"><g class="c2 node n20 p0 root" transform="translate(150.693 26.8)"><g class="a20 c2 node n13 p0" transform="translate(50.2667 132.478)"><g class="a13 i3 leaf node n7 p2 sample" transform="translate(-10.0533 12.1216)"><path class="edge e6" d="M 0 0 V -12.1216 H 10.0533"/><rect class="sym" height="6" width="6" x="-3" y="-3"/><text class="lab" transform="translate(0 11)">i</text></g><g class="a13 i4 leaf node n9 p2 sample" transform="translate(10.0533 12.1216)"><path class="edge e7" d="M 0 0 V -12.1216 H -10.0533"/><rect class="sym" height="6" width="6" x="-3" y="-3"/><text class="lab" transform="translate(0 11)">j</text></g><path class="edge e22" d="M 0 0 V -132.478 H -50.2667"/><circle class="sym" cx="0" cy="0" r="3"/><text class="lab rgt" transform="translate(3 -7)">n</text></g><g class="a20 c2 node n19 p0" transform="translate(-50.2667 44.2523)"><g class="a19 c2 m5 node n14 p0 s5" transform="translate(27.6467 84.5222)"><g class="a14 i1 leaf node n2 p1 sample" transform="translate(-17.5933 15.8255)"><path class="edge e8" d="M 0 0 V -15.8255 H 17.5933"/><rect class="sym" height="6" width="6" x="-3" y="-3"/><text class="lab" transform="translate(0 11)">e</text></g><g class="a14 c2 node n12 p0" transform="translate(17.5933 4.1582)"><g class="a12 i2 leaf node n5 p2 sample" transform="translate(-15.08 11.6673)"><path class="edge e4" d="M 0 0 V -11.6673 H 15.08"/><rect class="sym" height="6" width="6" x="-3" y="-3"/><text class="lab" transform="translate(0 11)">f</text></g><g class="a12 c2 node n11 p2" transform="translate(15.08 7.0161)"><g class="a11 i3 leaf node n6 p2 sample" transform="translate(-10.0533 4.65121)"><path class="edge e2" d="M 0 0 V -4.65121 H 10.0533"/><rect class="sym" height="6" width="6" x="-3" y="-3"/><text class="lab" transform="translate(0 11)">g</text></g><g class="a11 i4 leaf node n8 p2 sample" transform="translate(10.0533 4.65121)"><path class="edge e3" d="M 0 0 V -4.65121 H -10.0533"/><rect class="sym" height="6" width="6" x="-3" y="-3"/><text class="lab" transform="translate(0 11)">h</text></g><path class="edge e5" d="M 0 0 V -7.0161 H -15.08"/><circle class="sym" cx="0" cy="0" r="3"/><text class="lab rgt" transform="translate(3 -7)">l</text></g><path class="edge e9" d="M 0 0 V -4.1582 H -17.5933"/><circle class="sym" cx="0" cy="0" r="3"/><text class="lab rgt" transform="translate(3 -7)">m</text></g><path class="edge e19" d="M 0 0 V -84.5222 H -27.6467"/><g class="mut m5 s5 unknown_time" transform="translate(0 -42.2611)"><line x1="0" x2="0" y1="0" y2="42.2611"/><path class="sym" d="M -3,-3 l 6,6 M -3,3 l 6,-6"/><text class="lab rgt" transform="translate(5 0)"/></g><circle class="sym" cx="0" cy="0" r="3"/><text class="lab rgt" transform="translate(3 -7)">o</text></g><g class="a19 c2 node n16 p0" transform="translate(-27.6467 60.9152)"><g class="a16 i0 leaf node n1 p1 sample" transform="translate(17.5933 39.4324)"><path class="edge e12" d="M 0 0 V -39.4324 H -17.5933"/><rect class="sym" height="6" width="6" x="-3" y="-3"/><text class="lab" transform="translate(0 11)">d</text></g><g class="a16 c2 node n15 p0" transform="translate(-17.5933 20.727)"><g class="a15 i2 leaf node n4 p2 sample" transform="translate(15.08 18.7054)"><path class="edge e10" d="M 0 0 V -18.7054 H -15.08"/><rect class="sym" height="6" width="6" x="-3" y="-3"/><text class="lab" transform="translate(0 11)">c</text></g><g class="a15 c2 node n10 p1" transform="translate(-15.08 15.7375)"><g class="a10 i0 leaf node n0 p1 sample" transform="translate(-10.0533 2.96787)"><path class="edge e0" d="M 0 0 V -2.96787 H 10.0533"/><rect class="sym" height="6" width="6" x="-3" y="-3"/><text class="lab" transform="translate(0 11)">a</text></g><g class="a10 i1 leaf node n3 p1 sample" transform="translate(10.0533 2.96787)"><path class="edge e1" d="M 0 0 V -2.96787 H -10.0533"/><rect class="sym" height="6" width="6" x="-3" y="-3"/><text class="lab" transform="translate(0 11)">b</text></g><path class="edge e11" d="M 0 0 V -15.7375 H 15.08"/><circle class="sym" cx="0" cy="0" r="3"/><text class="lab lft" transform="translate(-3 -7)">k</text></g><path class="edge e13" d="M 0 0 V -20.727 H 17.5933"/><circle class="sym" cx="0" cy="0" r="3"/><text class="lab lft" transform="translate(-3 -7)">p</text></g><path class="edge e20" d="M 0 0 V -60.9152 H 27.6467"/><circle class="sym" cx="0" cy="0" r="3"/><text class="lab lft" transform="translate(-3 -7)">q</text></g><path class="edge e25" d="M 0 0 V -44.2523 H 50.2667"/><circle class="sym" cx="0" cy="0" r="3"/><text class="lab lft" transform="translate(-3 -7)">t</text></g><circle class="sym" cx="0" cy="0" r="3"/><text class="lab" transform="translate(0 -11)">u</text></g></g></g><g class="tree t2" transform="translate(538.933 0)"><g class="plotbox"><g class="c2 node n20 p0 root" transform="translate(118.648 26.8)"><g class="a20 c2 node n16 p0" transform="translate(-45.8683 105.168)"><g class="a16 i0 leaf node n1 p1 sample" transform="translate(17.5933 39.4324)"><path class="edge e12" d="M 0 0 V -39.4324 H -17.5933"/><rect class="sym" height="6" width="6" x="-3" y="-3"/><text class="lab" transform="translate(0 11)">d</text></g><g class="a16 c2 node n15 p0" transform="translate(-17.5933 20.727)"><g class="a15 i2 leaf m7 node n4 p2 s7 sample" transform="translate(15.08 18.7054)"><path class="edge e10" d="M 0 0 V -18.7054 H -15.08"/><g class="mut m7 s7 unknown_time" transform="translate(0 -9.35271)"><line x1="0" x2="0" y1="0" y2="9.35271"/><path class="sym" d="M -3,-3 l 6,6 M -3,3 l 6,-6"/><text class="lab rgt" transform="translate(5 0)"/></g><rect class="sym" height="6" width="6" x="-3" y="-3"/><text class="lab" transform="translate(0 11)">c</text></g><g class="a15 c2 m9 node n10 p1 s9" transform="translate(-15.08 15.7375)"><g class="a10 i0 leaf node n0 p1 sample" transform="translate(-10.0533 2.96787)"><path class="edge e0" d="M 0 0 V -2.96787 H 10.0533"/><rect class="sym" height="6" width="6" x="-3" y="-3"/><text class="lab" transform="translate(0 11)">a</text></g><g class="a10 i1 leaf node n3 p1 sample" transform="translate(10.0533 2.96787)"><path class="edge e1" d="M 0 0 V -2.96787 H -10.0533"/><rect class="sym" height="6" width="6" x="-3" y="-3"/><text class="lab" transform="translate(0 11)">b</text></g><path class="edge e11" d="M 0 0 V -15.7375 H 15.08"/><g class="mut m9 s9 unknown_time" transform="translate(0 -7.86877)"><line x1="0" x2="0" y1="0" y2="7.86877"/><path class="sym" d="M -3,-3 l 6,6 M -3,3 l 6,-6"/><text class="lab lft" transform="translate(-5 0)"/></g><circle class="sym" cx="0" cy="0" r="3"/><text class="lab lft" transform="translate(-3 -7)">k</text></g><path class="edge e13" d="M 0 0 V -20.727 H 17.5933"/><circle class="sym" cx="0" cy="0" r="3"/><text class="lab lft" transform="translate(-3 -7)">p</text></g><path class="edge e23" d="M 0 0 V -105.168 H 45.8683"/><circle class="sym" cx="0" cy="0" r="3"/><text class="lab lft" transform="translate(-3 -7)">q</text></g><g class="a20 c2 m10 m6 node n18 p0 s10 s6" transform="translate(45.8683 62.6671)"><g class="a18 c2 m11 m8 node n13 p0 s11 s8" transform="translate(36.4433 69.8113)"><g class="a13 i3 leaf node n7 p2 sample" transform="translate(-10.0533 12.1216)"><path class="edge e6" d="M 0 0 V -12.1216 H 10.0533"/><rect class="sym" height="6" width="6" x="-3" y="-3"/><text class="lab" transform="translate(0 11)">i</text></g><g class="a13 i4 leaf node n9 p2 sample" transform="translate(10.0533 12.1216)"><path class="edge e7" d="M 0 0 V -12.1216 H -10.0533"/><rect class="sym" height="6" width="6" x="-3" y="-3"/><text class="lab" transform="translate(0 11)">j</text></g><path class="edge e16" d="M 0 0 V -69.8113 H -36.4433"/><g class="mut m8 s8 unknown_time" transform="translate(0 -46.5409)"><line x1="0" x2="0" y1="0" y2="46.5409"/><path class="sym" d="M -3,-3 l 6,6 M -3,3 l 6,-6"/><text class="lab rgt" transform="translate(5 0)"/></g><g class="mut m11 s11 unknown_time" transform="translate(0 -23.2704)"><line x1="0" x2="0" y1="0" y2="23.2704"/><path class="sym" d="M -3,-3 l 6,6 M -3,3 l 6,-6"/><text class="lab rgt" transform="translate(5 0)"/></g><circle class="sym" cx="0" cy="0" r="3"/><text class="lab rgt" transform="translate(3 -7)">n</text></g><g class="a18 c2 node n14 p0" transform="translate(-36.4433 66.1074)"><g class="a14 i1 leaf node n2 p1 sample" transform="translate(-17.5933 15.8255)"><path class="edge e8" d="M 0 0 V -15.8255 H 17.5933"/><rect class="sym" height="6" width="6" x="-3" y="-3"/><text class="lab" transform="translate(0 11)">e</text></g><g class="a14 c2 node n12 p0" transform="translate(17.5933 4.1582)"><g class="a12 i2 leaf node n5 p2 sample" transform="translate(-15.08 11.6673)"><path class="edge e4" d="M 0 0 V -11.6673 H 15.08"/><rect class="sym" height="6" width="6" x="-3" y="-3"/><text class="lab" transform="translate(0 11)">f</text></g><g class="a12 c2 node n11 p2" transform="translate(15.08 7.0161)"><g class="a11 i3 leaf node n6 p2 sample" transform="translate(-10.0533 4.65121)"><path class="edge e2" d="M 0 0 V -4.65121 H 10.0533"/><rect class="sym" height="6" width="6" x="-3" y="-3"/><text class="lab" transform="translate(0 11)">g</text></g><g class="a11 i4 leaf node n8 p2 sample" transform="translate(10.0533 4.65121)"><path class="edge e3" d="M 0 0 V -4.65121 H -10.0533"/><rect class="sym" height="6" width="6" x="-3" y="-3"/><text class="lab" transform="translate(0 11)">h</text></g><path class="edge e5" d="M 0 0 V -7.0161 H -15.08"/><circle class="sym" cx="0" cy="0" r="3"/><text class="lab rgt" transform="translate(3 -7)">l</text></g><path class="edge e9" d="M 0 0 V -4.1582 H -17.5933"/><circle class="sym" cx="0" cy="0" r="3"/><text class="lab rgt" transform="translate(3 -7)">m</text></g><path class="edge e17" d="M 0 0 V -66.1074 H 36.4433"/><circle class="sym" cx="0" cy="0" r="3"/><text class="lab lft" transform="translate(-3 -7)">o</text></g><path class="edge e24" d="M 0 0 V -62.6671 H -45.8683"/><g class="mut m6 s6 unknown_time" transform="translate(0 -41.778)"><line x1="0" x2="0" y1="0" y2="41.778"/><path class="sym" d="M -3,-3 l 6,6 M -3,3 l 6,-6"/><text class="lab rgt" transform="translate(5 0)"/></g><g class="mut m10 s10 unknown_time" transform="translate(0 -20.889)"><line x1="0" x2="0" y1="0" y2="20.889"/><path class="sym" d="M -3,-3 l 6,6 M -3,3 l 6,-6"/><text class="lab rgt" transform="translate(5 0)"/></g><circle class="sym" cx="0" cy="0" r="3"/><text class="lab rgt" transform="translate(3 -7)">s</text></g><circle class="sym" cx="0" cy="0" r="3"/><text class="lab" transform="translate(0 -11)">u</text></g></g></g></g></g></svg>