<svg baseProfile="full" height="200" version="1.1" width="200" xmlns="http://www.w3.org/2000/svg" xmlns:ev="http://www.w3.org/2001/xml-events" xmlns:xlink="http://www.w3.org/1999/xlink"><defs><style type="text/css"><![CDATA[.background path {fill: #808080; fill-opacity: 0}.background path:nth-child(odd) {fill-opacity: .1}.axes {font-size: 14px}.x-axis .tick .lab {font-weight: bold; dominant-baseline: hanging}.axes, .tree {font-size: 14px; text-anchor: middle}.axes line, .edge {stroke: black; fill: none}.axes .ax-skip {stroke-dasharray: 4}.y-axis .grid {stroke: #FAFAFA}.node > .sym {fill: black; stroke: none}.site > .sym {stroke: black}.mut text {fill: red; font-style: italic}.mut.extra text {fill: hotpink}.mut line {fill: none; stroke: none}.mut .sym {fill: none; stroke: red}.mut.extra .sym {stroke: hotpink}.node .mut .sym {stroke-width: 1.5px}.tree text, .tree-sequence text {dominant-baseline: central}.plotbox .lab.lft {text-anchor: end}.plotbox .lab.rgt {text-anchor: start}]]></style></defs><g class="tree t0"><g class="plotbox"><g class="c2 node n10 p0 root" transform="translate(95 26.8)"><g class="a10 c2 m2 m3 m4 m7 m8 m9 node n6 p0 s2 s3 s4 s7 s8 s9" transform="translate(-48.3333 140.969)"><g class="a6 leaf node n0 p0 sample" transform="translate(-13.3333 0.431103)"><path class="edge" d="M 0 0 V -0.431103 H 13.3333" /><rect class="sym" height="6" width="6" x="-3" y="-3" /><text class="lab" transform="translate(0 11)">0</text></g><g class="a6 leaf node n1 p0 sample" transform="translate(13.3333 0.431103)"><path class="edge" d="M 0 0 V -0.431103 H -13.3333" /><rect class="sym" height="6" width="6" x="-3" y="-3" /><text class="lab" transform="translate(0 11)">1</text></g><path class="edge" d="M 0 0 V -140.969 H 48.3333" /><g class="mut m2 s2 unknown_time" transform="translate(0 -120.83)"><line x1="0" x2="0" y1="0" y2="120.83" /><path class="sym" d="M -3,-3 l 6,6 M -3,3 l 6,-6" /><text class="lab lft" transform="translate(-5 0)">2</text></g><g class="mut m3 s3 unknown_time" transform="translate(0 -100.692)"><line x1="0" x2="0" y1="0" y2="100.692" /><path class="sym" d="M -3,-3 l 6,6 M -3,3 l 6,-6" /><text class="lab lft" transform="translate(-5 0)">3</text></g><g class="mut m4 s4 unknown_time" transform="translate(0 -80.5537)"><line x1="0" x2="0" y1="0" y2="80.5537" /><path class="sym" d="M -3,-3 l 6,6 M -3,3 l 6,-6" /><text class="lab lft" transform="translate(-5 0)">4</text></g><g class="mut m7 s7 unknown_time" transform="translate(0 -60.4152)"><line x1="0" x2="0" y1="0" y2="60.4152" /><path class="sym" d="M -3,-3 l 6,6 M -3,3 l 6,-6" /><text class="lab lft" transform="translate(-5 0)">7</text></g><g class="mut m8 s8 unknown_time" transform="translate(0 -40.2768)"><line x1="0" x2="0" y1="0" y2="40.2768" /><path class="sym" d="M -3,-3 l 6,6 M -3,3 l 6,-6" /><text class="lab lft" transform="translate(-5 0)">8</text></g><g class="mut m9 s9 unknown_time" transform="translate(0 -20.1384)"><line x1="0" x2="0" y1="0" y2="20.1384" /><path class="sym" d="M -3,-3 l 6,6 M -3,3 l 6,-6" /><text class="lab lft" transform="translate(-5 0)">9</text></g><circle class="sym" cx="0" cy="0" r="3" /><text class="lab lft" transform="translate(-3 -7.0)">6</text></g><g class="a10 c2 m6 node n9 p0 s6" transform="translate(48.3333 55.6797)"><g class="a9 leaf m0 node n4 p0 s0 sample" transform="translate(23.3333 85.7203)"><path class="edge" d="M 0 0 V -85.7203 H -23.3333" /><g class="mut m0 s0 unknown_time" transform="translate(0 -42.8602)"><line x1="0" x2="0" y1="0" y2="42.8602" /><path class="sym" d="M -3,-3 l 6,6 M -3,3 l 6,-6" /><text class="lab rgt" transform="translate(5 0)">0</text></g><rect class="sym" height="6" width="6" x="-3" y="-3" /><text class="lab" transform="translate(0 11)">4</text></g><g class="a9 c2 m1 node n8 p0 s1" transform="translate(-23.3333 68.5082)"><g class="a8 leaf m5 node n5 p0 s5 sample" transform="translate(20 17.2121)"><path class="edge" d="M 0 0 V -17.2121 H -20" /><g class="mut m5 s5 unknown_time" transform="translate(0 -8.60607)"><line x1="0" x2="0" y1="0" y2="8.60607" /><path class="sym" d="M -3,-3 l 6,6 M -3,3 l 6,-6" /><text class="lab rgt" transform="translate(5 0)">5</text></g><rect class="sym" height="6" width="6" x="-3" y="-3" /><text class="lab" transform="translate(0 11)">5</text></g><g class="a8 c2 node n7 p0" transform="translate(-20 3.87441)"><g class="a7 leaf node n2 p0 sample" transform="translate(-13.3333 13.3377)"><path class="edge" d="M 0 0 V -13.3377 H 13.3333" /><rect class="sym" height="6" width="6" x="-3" y="-3" /><text class="lab" transform="translate(0 11)">2</text></g><g class="a7 leaf node n3 p0 sample" transform="translate(13.3333 13.3377)"><path class="edge" d="M 0 0 V -13.3377 H -13.3333" /><rect class="sym" height="6" width="6" x="-3" y="-3" /><text class="lab" transform="translate(0 11)">3</text></g><path class="edge" d="M 0 0 V -3.87441 H 20" /><circle class="sym" cx="0" cy="0" r="3" /><text class="lab lft" transform="translate(-3 -7.0)">7</text></g><path class="edge" d="M 0 0 V -68.5082 H 23.3333" /><g class="mut m1 s1 unknown_time" transform="translate(0 -34.2541)"><line x1="0" x2="0" y1="0" y2="34.2541" /><path class="sym" d="M -3,-3 l 6,6 M -3,3 l 6,-6" /><text class="lab lft" transform="translate(-5 0)">1</text></g><circle class="sym" cx="0" cy="0" r="3" /><text class="lab lft" transform="translate(-3 -7.0)">8</text></g><path class="edge" d="M 0 0 V -55.6797 H -48.3333" /><g class="mut m6 s6 unknown_time" transform="translate(0 -27.8398)"><line x1="0" x2="0" y1="0" y2="27.8398" /><path class="sym" d="M -3,-3 l 6,6 M -3,3 l 6,-6" /><text class="lab rgt" transform="translate(5 0)">6</text></g><circle class="sym" cx="0" cy="0" r="3" /><text class="lab rgt" transform="translate(3 -7.0)">9</text></g><circle class="sym" cx="0" cy="0" r="3" /><text class="lab" transform="translate(0 -11)">10</text></g></g></g></svg>