<svg baseProfile="full" height="520" version="1.1" width="800" xmlns="http://www.w3.org/2000/svg" xmlns:ev="http://www.w3.org/2001/xml-events" xmlns:xlink="http://www.w3.org/1999/xlink"><defs><style type="text/css"><![CDATA[.background path {fill: #808080; fill-opacity: 0}.background path:nth-child(odd) {fill-opacity: .1}.x-regions rect {fill: yellow; stroke: black; opacity: 0.5}.axes {font-size: 14px}.x-axis .tick .lab {font-weight: bold; dominant-baseline: hanging}.axes, .tree {font-size: 14px; text-anchor: middle}.axes line, .edge {stroke: black; fill: none}.axes .ax-skip {stroke-dasharray: 4}.y-axis .grid {stroke: #FAFAFA}.node > .sym {fill: black; stroke: none}.site > .sym {stroke: black}.mut text {fill: red; font-style: italic}.mut.extra text {fill: hotpink}.mut line {fill: none; stroke: none}.mut .sym {fill: none; stroke: red}.mut.extra .sym {stroke: hotpink}.node .mut .sym {stroke-width: 1.5px}.tree text, .tree-sequence text {dominant-baseline: central}.plotbox .lab.lft {text-anchor: end}.plotbox .lab.rgt {text-anchor: start}.polytomy line {stroke: black; stroke-dasharray: 1px, 1px}.polytomy text {paint-order:stroke;stroke-width:0.3em;stroke:white}.leaf.p0 > .sym {fill: yellow}.leaf.p1 > .sym {fill: cyan}.leaf.p2 > .sym {fill: green}.leaf.p3 > .sym {fill: red}.leaf > .lab {text-anchor: start; transform: rotate(90deg) translate(6px)}.leaf > .sym {stroke: black}]]></style></defs><g class="tree t12"><g class="axes"><g class="y-axis"><g class="title" transform="translate(0 239.1)"><text class="lab" text-anchor="middle" transform="translate(11) rotate(-90)">Time ago (generations)</text></g><line class="ax-line" x1="56.8" x2="56.8" y1="468.2" y2="10"/><g class="ticks"><g class="tick" transform="translate(56.8 468.2)"><line x1="0" x2="-5" y1="0" y2="0"/><g transform="translate(-6 0)"><text class="lab" text-anchor="end">0</text></g></g><g class="tick" transform="translate(56.8 320.564)"><line x1="0" x2="-5" y1="0" y2="0"/><g transform="translate(-6 0)"><text class="lab" text-anchor="end">10000</text></g></g><g class="tick" transform="translate(56.8 172.929)"><line x1="0" x2="-5" y1="0" y2="0"/><g transform="translate(-6 0)"><text class="lab" text-anchor="end">20000</text></g></g></g></g></g><g class="plotbox"><g class="c2 node n870 p0 root" transform="translate(450.843 26.8)"><g class="a870 c2 m21 m22 m23 node n639 p0 s21 s22 s23" transform="translate(215.627 275.965)"><g class="a639 c2 node n190 p1" transform="translate(54.2047 145.942)"><g class="a190 c2 node n35 p2" transform="translate(-31.075 17.0018)"><g class="a35 i10 leaf m24 node n20 p2 s24 sample" transform="translate(-11.3 2.491)"><path class="edge e6" d="M 0 0 V -2.491 H 11.3"/><g class="mut m24 s24" transform="translate(0 -1.63043)"><line x1="0" x2="0" y1="0" y2="1.63043"/><path class="sym" d="M -3,-3 l 6,6 M -3,3 l 6,-6"/><text class="lab lft" transform="translate(-5 0)">24</text></g><rect class="sym" height="6" width="6" x="-3" y="-3"/><text class="lab" transform="translate(0 11)">Asia</text></g><g class="a35 i11 leaf node n22 p2 sample" transform="translate(11.3 2.491)"><path class="edge e7" d="M 0 0 V -2.491 H -11.3"/><rect class="sym" height="6" width="6" x="-3" y="-3"/><text class="lab" transform="translate(0 11)">Asia</text></g><path class="edge e600" d="M 0 0 V -17.0018 H 31.075"/><circle class="sym" cx="0" cy="0" r="3"/><text class="lab lft" transform="translate(-3 -7)"/></g><g class="a190 c2 node n189 p1" transform="translate(31.075 0.0095385)"><g class="a189 i14 leaf node n28 p3 sample" transform="translate(16.95 19.4833)"><path class="edge e597" d="M 0 0 V -19.4833 H -16.95"/><rect class="sym" height="6" width="6" x="-3" y="-3"/><text class="lab" transform="translate(0 11)">Admix</text></g><g class="a189 c2 node n179 p1" transform="translate(-16.95 1.33288)"><g class="a179 i10 leaf node n21 p2 sample" transform="translate(-11.3 18.1504)"><path class="edge e561" d="M 0 0 V -18.1504 H 11.3"/><rect class="sym" height="6" width="6" x="-3" y="-3"/><text class="lab" transform="translate(0 11)">Asia</text></g><g class="a179 i15 leaf node n31 p3 sample" transform="translate(11.3 18.1504)"><path class="edge e562" d="M 0 0 V -18.1504 H -11.3"/><rect class="sym" height="6" width="6" x="-3" y="-3"/><text class="lab" transform="translate(0 11)">Admix</text></g><path class="edge e599" d="M 0 0 V -1.33288 H 16.95"/><circle class="sym" cx="0" cy="0" r="3"/><text class="lab lft" transform="translate(-3 -7)"/></g><path class="edge e601" d="M 0 0 V -0.0095385 H -31.075"/><circle class="sym" cx="0" cy="0" r="3"/><text class="lab rgt" transform="translate(3 -7)"/></g><path class="edge e2966" d="M 0 0 V -145.942 H -54.2047"/><circle class="sym" cx="0" cy="0" r="3"/><text class="lab rgt" transform="translate(3 -7)"/></g><g class="a639 c2 m28 node n446 p0 s28" transform="translate(-54.2047 77.709)"><g class="a446 i2 leaf node n4 p0 sample" transform="translate(43.4344 87.7257)"><path class="edge e1662" d="M 0 0 V -87.7257 H -43.4344"/><rect class="sym" height="6" width="6" x="-3" y="-3"/><text class="lab" transform="translate(0 11)">Afr</text></g><g class="a446 c2 node n441 p0" transform="translate(-43.4344 2.2455)"><g class="a441 c2 m30 node n200 p1 s30" transform="translate(-36.0188 64.5747)"><g class="a200 c2 node n172 p1" transform="translate(-32.4875 3.49121)"><g class="a172 i0 leaf node n1 p0 sample" transform="translate(-25.425 17.4143)"><path class="edge e507" d="M 0 0 V -17.4143 H 25.425"/><rect class="sym" height="6" width="6" x="-3" y="-3"/><text class="lab" transform="translate(0 11)">Afr</text></g><g class="a172 c2 node n145 p1" transform="translate(25.425 2.65267)"><g class="a145 i13 leaf node n27 p3 sample" transform="translate(16.95 14.7617)"><path class="edge e390" d="M 0 0 V -14.7617 H -16.95"/><rect class="sym" height="6" width="6" x="-3" y="-3"/><text class="lab" transform="translate(0 11)">Admix</text></g><g class="a145 c2 node n120 p2" transform="translate(-16.95 2.78517)"><g class="a120 i8 leaf node n16 p2 sample" transform="translate(-11.3 11.9765)"><path class="edge e249" d="M 0 0 V -11.9765 H 11.3"/><rect class="sym" height="6" width="6" x="-3" y="-3"/><text class="lab" transform="translate(0 11)">Asia</text></g><g class="a120 i11 leaf node n23 p2 sample" transform="translate(11.3 11.9765)"><path class="edge e250" d="M 0 0 V -11.9765 H -11.3"/><rect class="sym" height="6" width="6" x="-3" y="-3"/><text class="lab" transform="translate(0 11)">Asia</text></g><path class="edge e391" d="M 0 0 V -2.78517 H 16.95"/><circle class="sym" cx="0" cy="0" r="3"/><text class="lab lft" transform="translate(-3 -7)"/></g><path class="edge e516" d="M 0 0 V -2.65267 H -25.425"/><circle class="sym" cx="0" cy="0" r="3"/><text class="lab rgt" transform="translate(3 -7)"/></g><path class="edge e645" d="M 0 0 V -3.49121 H 32.4875"/><circle class="sym" cx="0" cy="0" r="3"/><text class="lab lft" transform="translate(-3 -7)"/></g><g class="a200 i7 leaf node n14 p1 sample" transform="translate(32.4875 20.9056)"><path class="edge e643" d="M 0 0 V -20.9056 H -32.4875"/><rect class="sym" height="6" width="6" x="-3" y="-3"/><text class="lab" transform="translate(0 11)">Eur</text></g><path class="edge e1634" d="M 0 0 V -64.5747 H 36.0188"/><g class="mut m30 s30" transform="translate(0 -24.3275)"><line x1="0" x2="0" y1="0" y2="24.3275"/><path class="sym" d="M -3,-3 l 6,6 M -3,3 l 6,-6"/><text class="lab lft" transform="translate(-5 0)">30</text></g><circle class="sym" cx="0" cy="0" r="3"/><text class="lab lft" transform="translate(-3 -7)"/></g><g class="a441 c2 m27 node n312 p0 s27" transform="translate(36.0187 40.575)"><g class="a312 i1 leaf node n2 p0 sample" transform="translate(-16.95 44.9052)"><path class="edge e1121" d="M 0 0 V -44.9052 H 16.95"/><rect class="sym" height="6" width="6" x="-3" y="-3"/><text class="lab" transform="translate(0 11)">Afr</text></g><g class="a312 c2 node n182 p0" transform="translate(16.95 26.0734)"><g class="a182 i1 leaf node n3 p0 sample" transform="translate(-11.3 18.8318)"><path class="edge e573" d="M 0 0 V -18.8318 H 11.3"/><rect class="sym" height="6" width="6" x="-3" y="-3"/><text class="lab" transform="translate(0 11)">Afr</text></g><g class="a182 i3 leaf node n7 p0 sample" transform="translate(11.3 18.8318)"><path class="edge e574" d="M 0 0 V -18.8318 H -11.3"/><rect class="sym" height="6" width="6" x="-3" y="-3"/><text class="lab" transform="translate(0 11)">Afr</text></g><path class="edge e1122" d="M 0 0 V -26.0734 H -16.95"/><circle class="sym" cx="0" cy="0" r="3"/><text class="lab rgt" transform="translate(3 -7)"/></g><path class="edge e1641" d="M 0 0 V -40.575 H -36.0187"/><g class="mut m27 s27" transform="translate(0 -3.95106)"><line x1="0" x2="0" y1="0" y2="3.95106"/><path class="sym" d="M -3,-3 l 6,6 M -3,3 l 6,-6"/><text class="lab rgt" transform="translate(5 0)">27</text></g><circle class="sym" cx="0" cy="0" r="3"/><text class="lab rgt" transform="translate(3 -7)"/></g><path class="edge e1671" d="M 0 0 V -2.2455 H 43.4344"/><circle class="sym" cx="0" cy="0" r="3"/><text class="lab lft" transform="translate(-3 -7)"/></g><path class="edge e2969" d="M 0 0 V -77.709 H 54.2047"/><g class="mut m28 s28" transform="translate(0 -51.7318)"><line x1="0" x2="0" y1="0" y2="51.7318"/><path class="sym" d="M -3,-3 l 6,6 M -3,3 l 6,-6"/><text class="lab lft" transform="translate(-5 0)">28</text></g><circle class="sym" cx="0" cy="0" r="3"/><text class="lab lft" transform="translate(-3 -7)"/></g><path class="edge e4393" d="M 0 0 V -275.965 H -215.627"/><g class="mut m22 s22" transform="translate(0 -127.524)"><line x1="0" x2="0" y1="0" y2="127.524"/><path class="sym" d="M -3,-3 l 6,6 M -3,3 l 6,-6"/><text class="lab rgt" transform="translate(5 0)">22</text></g><g class="mut m21 s21" transform="translate(0 -100.541)"><line x1="0" x2="0" y1="0" y2="100.541"/><path class="sym" d="M -3,-3 l 6,6 M -3,3 l 6,-6"/><text class="lab rgt" transform="translate(5 0)">21</text></g><g class="mut m23 s23" transform="translate(0 -61.2617)"><line x1="0" x2="0" y1="0" y2="61.2617"/><path class="sym" d="M -3,-3 l 6,6 M -3,3 l 6,-6"/><text class="lab rgt" transform="translate(5 0)">23</text></g><circle class="sym" cx="0" cy="0" r="3"/><text class="lab rgt" transform="translate(3 -7)"/></g><g class="a870 c2 m31 node n676 p0 s31" transform="translate(-215.627 251.699)"><g class="a676 c2 node n520 p0" transform="translate(-138.866 84.5615)"><g class="a520 i12 leaf m32 node n25 p3 s32 sample" transform="translate(16.95 105.14)"><path class="edge e2107" d="M 0 0 V -105.14 H -16.95"/><g class="mut m32 s32" transform="translate(0 -59.0911)"><line x1="0" x2="0" y1="0" y2="59.0911"/><path class="sym" d="M -3,-3 l 6,6 M -3,3 l 6,-6"/><text class="lab rgt" transform="translate(5 0)">32</text></g><rect class="sym" height="6" width="6" x="-3" y="-3"/><text class="lab" transform="translate(0 11)">Admix</text></g><g class="a520 c2 m25 node n105 p0 s25" transform="translate(-16.95 94.1299)"><g class="a105 i0 leaf node n0 p0 sample" transform="translate(-11.3 11.0096)"><path class="edge e210" d="M 0 0 V -11.0096 H 11.3"/><rect class="sym" height="6" width="6" x="-3" y="-3"/><text class="lab" transform="translate(0 11)">Afr</text></g><g class="a105 i3 leaf node n6 p0 sample" transform="translate(11.3 11.0096)"><path class="edge e211" d="M 0 0 V -11.0096 H -11.3"/><rect class="sym" height="6" width="6" x="-3" y="-3"/><text class="lab" transform="translate(0 11)">Afr</text></g><path class="edge e2108" d="M 0 0 V -94.1299 H 16.95"/><g class="mut m25 s25" transform="translate(0 -92.7108)"><line x1="0" x2="0" y1="0" y2="92.7108"/><path class="sym" d="M -3,-3 l 6,6 M -3,3 l 6,-6"/><text class="lab lft" transform="translate(-5 0)">25</text></g><circle class="sym" cx="0" cy="0" r="3"/><text class="lab lft" transform="translate(-3 -7)"/></g><path class="edge e3193" d="M 0 0 V -84.5615 H 138.866"/><circle class="sym" cx="0" cy="0" r="3"/><text class="lab lft" transform="translate(-3 -7)"/></g><g class="a676 c2 node n675 p0" transform="translate(138.866 0.304839)"><g class="a675 i13 leaf node n26 p3 sample" transform="translate(78.2172 189.396)"><path class="edge e3185" d="M 0 0 V -189.396 H -78.2172"/><rect class="sym" height="6" width="6" x="-3" y="-3"/><text class="lab" transform="translate(0 11)">Admix</text></g><g class="a675 c2 node n386 p0" transform="translate(-78.2172 120.039)"><g class="a386 c2 node n255 p1" transform="translate(99.9344 39.7098)"><g class="a255 c2 node n80 p1" transform="translate(-22.6 20.4329)"><g class="a80 i5 leaf node n11 p1 sample" transform="translate(-11.3 9.21462)"><path class="edge e124" d="M 0 0 V -9.21462 H 11.3"/><rect class="sym" height="6" width="6" x="-3" y="-3"/><text class="lab" transform="translate(0 11)">Eur</text></g><g class="a80 i6 leaf node n13 p1 sample" transform="translate(11.3 9.21462)"><path class="edge e126" d="M 0 0 V -9.21462 H -11.3"/><rect class="sym" height="6" width="6" x="-3" y="-3"/><text class="lab" transform="translate(0 11)">Eur</text></g><path class="edge e939" d="M 0 0 V -20.4329 H 22.6"/><circle class="sym" cx="0" cy="0" r="3"/><text class="lab lft" transform="translate(-3 -7)"/></g><g class="a255 c2 node n144 p1" transform="translate(22.6 15.2355)"><g class="a144 i9 leaf node n19 p2 sample" transform="translate(-11.3 14.412)"><path class="edge e369" d="M 0 0 V -14.412 H 11.3"/><rect class="sym" height="6" width="6" x="-3" y="-3"/><text class="lab" transform="translate(0 11)">Asia</text></g><g class="a144 i12 leaf node n24 p3 sample" transform="translate(11.3 14.412)"><path class="edge e373" d="M 0 0 V -14.412 H -11.3"/><rect class="sym" height="6" width="6" x="-3" y="-3"/><text class="lab" transform="translate(0 11)">Admix</text></g><path class="edge e941" d="M 0 0 V -15.2355 H -22.6"/><circle class="sym" cx="0" cy="0" r="3"/><text class="lab rgt" transform="translate(3 -7)"/></g><path class="edge e1394" d="M 0 0 V -39.7098 H -99.9344"/><circle class="sym" cx="0" cy="0" r="3"/><text class="lab rgt" transform="translate(3 -7)"/></g><g class="a386 c2 node n264 p0" transform="translate(-99.9344 36.176)"><g class="a264 i2 leaf m29 node n5 p0 s29 sample" transform="translate(-60.0312 33.1814)"><path class="edge e977" d="M 0 0 V -33.1814 H 60.0312"/><g class="mut m29 s29" transform="translate(0 -27.0378)"><line x1="0" x2="0" y1="0" y2="27.0378"/><path class="sym" d="M -3,-3 l 6,6 M -3,3 l 6,-6"/><text class="lab lft" transform="translate(-5 0)">29</text></g><rect class="sym" height="6" width="6" x="-3" y="-3"/><text class="lab" transform="translate(0 11)">Afr</text></g><g class="a264 c2 node n263 p0" transform="translate(60.0312 1.84775)"><g class="a263 c2 node n206 p1" transform="translate(49.4375 9.2082)"><g class="a206 c2 node n115 p1" transform="translate(22.6 10.3139)"><g class="a115 i5 leaf m26 node n10 p1 s26 sample" transform="translate(-11.3 11.8116)"><path class="edge e239" d="M 0 0 V -11.8116 H 11.3"/><g class="mut m26 s26" transform="translate(0 -7.88857)"><line x1="0" x2="0" y1="0" y2="7.88857"/><path class="sym" d="M -3,-3 l 6,6 M -3,3 l 6,-6"/><text class="lab lft" transform="translate(-5 0)">26</text></g><rect class="sym" height="6" width="6" x="-3" y="-3"/><text class="lab" transform="translate(0 11)">Eur</text></g><g class="a115 i15 leaf node n30 p3 sample" transform="translate(11.3 11.8116)"><path class="edge e240" d="M 0 0 V -11.8116 H -11.3"/><rect class="sym" height="6" width="6" x="-3" y="-3"/><text class="lab" transform="translate(0 11)">Admix</text></g><path class="edge e678" d="M 0 0 V -10.3139 H -22.6"/><circle class="sym" cx="0" cy="0" r="3"/><text class="lab rgt" transform="translate(3 -7)"/></g><g class="a206 c2 node n160 p1" transform="translate(-22.6 6.34149)"><g class="a160 i4 leaf node n9 p1 sample" transform="translate(-11.3 15.784)"><path class="edge e449" d="M 0 0 V -15.784 H 11.3"/><rect class="sym" height="6" width="6" x="-3" y="-3"/><text class="lab" transform="translate(0 11)">Eur</text></g><g class="a160 i7 leaf node n15 p1 sample" transform="translate(11.3 15.784)"><path class="edge e450" d="M 0 0 V -15.784 H -11.3"/><rect class="sym" height="6" width="6" x="-3" y="-3"/><text class="lab" transform="translate(0 11)">Eur</text></g><path class="edge e680" d="M 0 0 V -6.34149 H 22.6"/><circle class="sym" cx="0" cy="0" r="3"/><text class="lab lft" transform="translate(-3 -7)"/></g><path class="edge e975" d="M 0 0 V -9.2082 H -49.4375"/><circle class="sym" cx="0" cy="0" r="3"/><text class="lab rgt" transform="translate(3 -7)"/></g><g class="a263 c2 node n228 p1" transform="translate(-49.4375 6.84764)"><g class="a228 c2 node n32 p2" transform="translate(31.075 23.3661)"><g class="a32 i8 leaf node n17 p2 sample" transform="translate(-11.3 1.11996)"><path class="edge e0" d="M 0 0 V -1.11996 H 11.3"/><rect class="sym" height="6" width="6" x="-3" y="-3"/><text class="lab" transform="translate(0 11)">Asia</text></g><g class="a32 i9 leaf node n18 p2 sample" transform="translate(11.3 1.11996)"><path class="edge e1" d="M 0 0 V -1.11996 H -11.3"/><rect class="sym" height="6" width="6" x="-3" y="-3"/><text class="lab" transform="translate(0 11)">Asia</text></g><path class="edge e761" d="M 0 0 V -23.3661 H -31.075"/><circle class="sym" cx="0" cy="0" r="3"/><text class="lab rgt" transform="translate(3 -7)"/></g><g class="a228 c2 node n99 p1" transform="translate(-31.075 13.8671)"><g class="a99 i4 leaf node n8 p1 sample" transform="translate(-16.95 10.619)"><path class="edge e190" d="M 0 0 V -10.619 H 16.95"/><rect class="sym" height="6" width="6" x="-3" y="-3"/><text class="lab" transform="translate(0 11)">Eur</text></g><g class="a99 c2 node n40 p1" transform="translate(16.95 6.58093)"><g class="a40 i6 leaf node n12 p1 sample" transform="translate(-11.3 4.03802)"><path class="edge e16" d="M 0 0 V -4.03802 H 11.3"/><rect class="sym" height="6" width="6" x="-3" y="-3"/><text class="lab" transform="translate(0 11)">Eur</text></g><g class="a40 i14 leaf node n29 p3 sample" transform="translate(11.3 4.03802)"><path class="edge e17" d="M 0 0 V -4.03802 H -11.3"/><rect class="sym" height="6" width="6" x="-3" y="-3"/><text class="lab" transform="translate(0 11)">Admix</text></g><path class="edge e192" d="M 0 0 V -6.58093 H -16.95"/><circle class="sym" cx="0" cy="0" r="3"/><text class="lab rgt" transform="translate(3 -7)"/></g><path class="edge e763" d="M 0 0 V -13.8671 H 31.075"/><circle class="sym" cx="0" cy="0" r="3"/><text class="lab lft" transform="translate(-3 -7)"/></g><path class="edge e976" d="M 0 0 V -6.84764 H 49.4375"/><circle class="sym" cx="0" cy="0" r="3"/><text class="lab lft" transform="translate(-3 -7)"/></g><path class="edge e978" d="M 0 0 V -1.84775 H -60.0312"/><circle class="sym" cx="0" cy="0" r="3"/><text class="lab rgt" transform="translate(3 -7)"/></g><path class="edge e1399" d="M 0 0 V -36.176 H 99.9344"/><circle class="sym" cx="0" cy="0" r="3"/><text class="lab lft" transform="translate(-3 -7)"/></g><path class="edge e3186" d="M 0 0 V -120.039 H 78.2172"/><circle class="sym" cx="0" cy="0" r="3"/><text class="lab lft" transform="translate(-3 -7)"/></g><path class="edge e3196" d="M 0 0 V -0.304839 H -138.866"/><circle class="sym" cx="0" cy="0" r="3"/><text class="lab rgt" transform="translate(3 -7)"/></g><path class="edge e4396" d="M 0 0 V -251.699 H 215.627"/><g class="mut m31 s31" transform="translate(0 -177.986)"><line x1="0" x2="0" y1="0" y2="177.986"/><path class="sym" d="M -3,-3 l 6,6 M -3,3 l 6,-6"/><text class="lab lft" transform="translate(-5 0)">31</text></g><circle class="sym" cx="0" cy="0" r="3"/><text class="lab lft" transform="translate(-3 -7)"/></g><circle class="sym" cx="0" cy="0" r="3"/><text class="lab" transform="translate(0 -11)"/></g></g></g></svg>