<svg baseProfile="full" height="300" version="1.1" width="400" xmlns="http://www.w3.org/2000/svg" xmlns:ev="http://www.w3.org/2001/xml-events" xmlns:xlink="http://www.w3.org/1999/xlink"><defs><style type="text/css"><![CDATA[.background path {fill: #808080; fill-opacity: 0}.background path:nth-child(odd) {fill-opacity: .1}.axes {font-size: 14px}.x-axis .tick .lab {font-weight: bold; dominant-baseline: hanging}.axes, .tree {font-size: 14px; text-anchor: middle}.axes line, .edge {stroke: black; fill: none}.axes .ax-skip {stroke-dasharray: 4}.y-axis .grid {stroke: #FAFAFA}.node > .sym {fill: black; stroke: none}.site > .sym {stroke: black}.mut text {fill: red; font-style: italic}.mut.extra text {fill: hotpink}.mut line {fill: none; stroke: none}.mut .sym {fill: none; stroke: red}.mut.extra .sym {stroke: hotpink}.node .mut .sym {stroke-width: 1.5px}.tree text, .tree-sequence text {dominant-baseline: central}.plotbox .lab.lft {text-anchor: end}.plotbox .lab.rgt {text-anchor: start}]]></style></defs><g class="tree-sequence"><g class="background"><path d="M56.8,0 l323.2,0 l0,238.2 l0,25 l0,5 l-323.2,0 l0,-5 l0,-25 l0,-238.2z" /></g><g class="axes"><g class="x-axis"><g class="title" transform="translate(218.4 300)"><text class="lab" text-anchor="middle" transform="translate(0 -11)">Genome position</text></g><line class="ax-line" x1="56.8" x2="380" y1="263.2" y2="263.2" /><g class="ticks"><g class="tick" transform="translate(56.8 263.2)"><line x1="0" x2="0" y1="0" y2="5" /><g transform="translate(0 6)"><text class="lab">0</text></g></g><g class="tick" transform="translate(380 263.2)"><line x1="0" x2="0" y1="0" y2="5" /><g transform="translate(0 6)"><text class="lab">50000</text></g></g></g></g><g class="y-axis"><g class="title" transform="translate(0 115.7)"><text class="lab" text-anchor="middle" transform="translate(11) rotate(-90)">Time (generations)</text></g><line class="ax-line" x1="56.8" x2="56.8" y1="221.4" y2="10" /><g class="ticks"><g class="tick" transform="translate(56.8 221.4)"><line x1="0" x2="-5" y1="0" y2="0" /><g transform="translate(-6 0)"><text class="lab" text-anchor="end">0</text></g></g><g class="tick" transform="translate(56.8 210.589)"><line x1="0" x2="-5" y1="0" y2="0" /><g transform="translate(-6 0)"><text class="lab" text-anchor="end">1</text></g></g><g class="tick" transform="translate(56.8 199.778)"><line x1="0" x2="-5" y1="0" y2="0" /><g transform="translate(-6 0)"><text class="lab" text-anchor="end">2</text></g></g><g class="tick" transform="translate(56.8 188.967)"><line x1="0" x2="-5" y1="0" y2="0" /><g transform="translate(-6 0)"><text class="lab" text-anchor="end">3</text></g></g><g class="tick" transform="translate(56.8 124.1)"><line x1="0" x2="-5" y1="0" y2="0" /><g transform="translate(-6 0)"><text class="lab" text-anchor="end">9</text></g></g><g class="tick" transform="translate(56.8 102.478)"><line x1="0" x2="-5" y1="0" y2="0" /><g transform="translate(-6 0)"><text class="lab" text-anchor="end">11</text></g></g><g class="tick" transform="translate(56.8 26.8)"><line x1="0" x2="-5" y1="0" y2="0" /><g transform="translate(-6 0)"><text class="lab" text-anchor="end">18</text></g></g></g></g></g><g class="plotbox trees"><g class="tree t0" transform="translate(56.8 0)"><g class="plotbox"><g class="c2 i0 node n20 root" transform="translate(202.531 26.8)"><g class="a20 c2 i4 node n15" transform="translate(59.3688 172.978)"><g class="a15 i11 leaf node n5 sample" transform="translate(29.5 21.6222)"><path class="edge" d="M 0 0 V -21.6222 H -29.5" /><rect class="sym" height="6" width="6" x="-3" y="-3" /><text class="lab" transform="translate(0 11)">5</text></g><g class="a15 c4 i6 node n12" transform="translate(-29.5 10.8111)"><g class="a12 i9 leaf node n1 sample" transform="translate(-35.4 10.8111)"><path class="edge" d="M 0 0 V -10.8111 H 35.4" /><rect class="sym" height="6" width="6" x="-3" y="-3" /><text class="lab" transform="translate(0 11)">1</text></g><g class="a12 i10 leaf node n2 sample" transform="translate(-11.8 10.8111)"><path class="edge" d="M 0 0 V -10.8111 H 11.8" /><rect class="sym" height="6" width="6" x="-3" y="-3" /><text class="lab" transform="translate(0 11)">2</text></g><g class="a12 i10 leaf node n3 sample" transform="translate(11.8 10.8111)"><path class="edge" d="M 0 0 V -10.8111 H -11.8" /><rect class="sym" height="6" width="6" x="-3" y="-3" /><text class="lab" transform="translate(0 11)">3</text></g><g class="a12 i13 leaf node n8 sample" transform="translate(35.4 10.8111)"><path class="edge" d="M 0 0 V -10.8111 H -35.4" /><rect class="sym" height="6" width="6" x="-3" y="-3" /><text class="lab" transform="translate(0 11)">8</text></g><path class="edge" d="M 0 0 V -10.8111 H 29.5" /><circle class="sym" cx="0" cy="0" r="3" /><text class="lab lft" transform="translate(-3 -7.0)">12</text></g><path class="edge" d="M 0 0 V -172.978 H -59.3688" /><circle class="sym" cx="0" cy="0" r="3" /><text class="lab rgt" transform="translate(3 -7.0)">15</text></g><g class="a20 c2 i1 node n19" transform="translate(-59.3688 75.6778)"><g class="a19 i14 leaf node n11 sample" transform="translate(30.2375 118.922)"><path class="edge" d="M 0 0 V -118.922 H -30.2375" /><rect class="sym" height="6" width="6" x="-3" y="-3" /><text class="lab" transform="translate(0 11)">11</text></g><g class="a19 c2 i2 node n18" transform="translate(-30.2375 21.6222)"><g class="a18 i11 leaf node n4 sample" transform="translate(36.875 97.3)"><path class="edge" d="M 0 0 V -97.3 H -36.875" /><rect class="sym" height="6" width="6" x="-3" y="-3" /><text class="lab" transform="translate(0 11)">4</text></g><g class="a18 c2 i3 node n17" transform="translate(-36.875 64.8667)"><g class="a17 c2 i7 node n13" transform="translate(-32.45 21.6222)"><g class="a13 i9 leaf node n0 sample" transform="translate(-11.8 10.8111)"><path class="edge" d="M 0 0 V -10.8111 H 11.8" /><rect class="sym" height="6" width="6" x="-3" y="-3" /><text class="lab" transform="translate(0 11)">0</text></g><g class="a13 i13 leaf node n9 sample" transform="translate(11.8 10.8111)"><path class="edge" d="M 0 0 V -10.8111 H -11.8" /><rect class="sym" height="6" width="6" x="-3" y="-3" /><text class="lab" transform="translate(0 11)">9</text></g><path class="edge" d="M 0 0 V -21.6222 H 32.45" /><circle class="sym" cx="0" cy="0" r="3" /><text class="lab lft" transform="translate(-3 -7.0)">13</text></g><g class="a17 c2 i5 node n16" transform="translate(32.45 10.8111)"><g class="a16 i12 leaf node n7 sample" transform="translate(17.7 21.6222)"><path class="edge" d="M 0 0 V -21.6222 H -17.7" /><rect class="sym" height="6" width="6" x="-3" y="-3" /><text class="lab" transform="translate(0 11)">7</text></g><g class="a16 c2 i8 node n14" transform="translate(-17.7 10.8111)"><g class="a14 i12 leaf node n6 sample" transform="translate(-11.8 10.8111)"><path class="edge" d="M 0 0 V -10.8111 H 11.8" /><rect class="sym" height="6" width="6" x="-3" y="-3" /><text class="lab" transform="translate(0 11)">6</text></g><g class="a14 i14 leaf node n10 sample" transform="translate(11.8 10.8111)"><path class="edge" d="M 0 0 V -10.8111 H -11.8" /><rect class="sym" height="6" width="6" x="-3" y="-3" /><text class="lab" transform="translate(0 11)">10</text></g><path class="edge" d="M 0 0 V -10.8111 H 17.7" /><circle class="sym" cx="0" cy="0" r="3" /><text class="lab lft" transform="translate(-3 -7.0)">14</text></g><path class="edge" d="M 0 0 V -10.8111 H -32.45" /><circle class="sym" cx="0" cy="0" r="3" /><text class="lab rgt" transform="translate(3 -7.0)">16</text></g><path class="edge" d="M 0 0 V -64.8667 H 36.875" /><circle class="sym" cx="0" cy="0" r="3" /><text class="lab lft" transform="translate(-3 -7.0)">17</text></g><path class="edge" d="M 0 0 V -21.6222 H 30.2375" /><circle class="sym" cx="0" cy="0" r="3" /><text class="lab lft" transform="translate(-3 -7.0)">18</text></g><path class="edge" d="M 0 0 V -75.6778 H 59.3688" /><circle class="sym" cx="0" cy="0" r="3" /><text class="lab lft" transform="translate(-3 -7.0)">19</text></g><circle class="sym" cx="0" cy="0" r="3" /><text class="lab" transform="translate(0 -11)">20</text></g></g></g></g></g></svg>