<svg baseProfile="full" height="300" version="1.1" width="600" xmlns="http://www.w3.org/2000/svg" xmlns:ev="http://www.w3.org/2001/xml-events" xmlns:xlink="http://www.w3.org/1999/xlink"><defs><style type="text/css"><![CDATA[.background path {fill: #808080; fill-opacity: 0}.background path:nth-child(odd) {fill-opacity: .1}.axes {font-size: 14px}.x-axis .tick .lab {font-weight: bold; dominant-baseline: hanging}.axes, .tree {font-size: 14px; text-anchor: middle}.axes line, .edge {stroke: black; fill: none}.axes .ax-skip {stroke-dasharray: 4}.y-axis .grid {stroke: #FAFAFA}.node > .sym {fill: black; stroke: none}.site > .sym {stroke: black}.mut text {fill: red; font-style: italic}.mut.extra text {fill: hotpink}.mut line {fill: none; stroke: none}.mut .sym {fill: none; stroke: red}.mut.extra .sym {stroke: hotpink}.node .mut .sym {stroke-width: 1.5px}.tree text, .tree-sequence text {dominant-baseline: central}.plotbox .lab.lft {text-anchor: end}.plotbox .lab.rgt {text-anchor: start}.y-axis .grid {stroke: #ff000033} .mut .sym {stroke: goldenrod}.n8 > .sym {fill: red}.n13 > .sym {fill: red}.n14 > .sym {fill: red}.n7 > .sym {fill: red}.n6 > .sym {fill: blue}.n9 > .sym {fill: blue}.n10 > .sym {fill: blue}.n11 > .sym {fill: blue}.n12 > .sym {fill: blue}.n15 > .sym {fill: blue}.n16 > .sym {fill: blue}]]></style></defs><g class="tree-sequence"><g class="background"><path d="M56.8,0 l174.4,0 l0,238.2 l-38.3149,25 l0,5 l-136.085,0 l0,-5 l0,-25 l0,-238.2z" /><path d="M231.2,0 l174.4,0 l0,238.2 l-7.83369,25 l0,5 l-204.881,0 l0,-5 l38.315,-25 l0,-238.2z" /><path d="M405.6,0 l174.4,0 l0,238.2 l0,25 l0,5 l-182.234,0 l0,-5 l7.834,-25 l0,-238.2z" /></g><g class="axes"><g class="x-axis"><g class="title" transform="translate(318.4 300)"><text class="lab" text-anchor="middle" transform="translate(0 -11)">Genome position</text></g><line class="ax-line" x1="56.8" x2="580" y1="263.2" y2="263.2" /><g class="ticks"><g class="tick" transform="translate(56.8 263.2)"><line x1="0" x2="0" y1="0" y2="5" /><g transform="translate(0 6)"><text class="lab">0.00</text></g></g><g class="tick" transform="translate(192.885 263.2)"><line x1="0" x2="0" y1="0" y2="5" /><g transform="translate(0 6)"><text class="lab">2601.01</text></g></g><g class="tick" transform="translate(397.766 263.2)"><line x1="0" x2="0" y1="0" y2="5" /><g transform="translate(0 6)"><text class="lab">6516.94</text></g></g><g class="tick" transform="translate(580 263.2)"><line x1="0" x2="0" y1="0" y2="5" /><g transform="translate(0 6)"><text class="lab">10000.00</text></g></g></g><g class="site s0" transform="translate(186.711 263.2)"><line class="sym" x1="0" x2="0" y1="0" y2="-10" /><g class="mut m0"><polyline class="sym" points="2.5,-6.5 0,-1.5 -2.5,-6.5" /></g></g><g class="site s1" transform="translate(280.991 263.2)"><line class="sym" x1="0" x2="0" y1="0" y2="-10" /><g class="mut m1"><polyline class="sym" points="2.5,-6.5 0,-1.5 -2.5,-6.5" /></g></g><g class="site s2" transform="translate(400.856 263.2)"><line class="sym" x1="0" x2="0" y1="0" y2="-10" /><g class="mut m2"><polyline class="sym" points="2.5,-6.5 0,-1.5 -2.5,-6.5" /></g></g></g><g class="y-axis"><g class="title" transform="translate(0 115.7)"><text class="lab" text-anchor="middle" transform="translate(11) rotate(-90)">Time (generations)</text></g><line class="ax-line" x1="56.8" x2="56.8" y1="221.4" y2="10" /><g class="ticks"><g class="tick" transform="translate(56.8 213.095)"><line class="grid" x1="0" x2="523.2" y1="0" y2="0" /><line x1="0" x2="-5" y1="0" y2="0" /><g transform="translate(-6 0)"><text class="lab" text-anchor="end">59</text></g></g><g class="tick" transform="translate(56.8 138.631)"><line class="grid" x1="0" x2="523.2" y1="0" y2="0" /><line x1="0" x2="-5" y1="0" y2="0" /><g transform="translate(-6 0)"><text class="lab" text-anchor="end">588</text></g></g></g></g></g><g class="plotbox trees"><g class="tree t0" transform="translate(56.8 0)"><g class="plotbox"><g class="c2 node n16 p0 root" transform="translate(76 26.8)"><g class="a16 c1 node n13 p0" transform="translate(33.6 111.819)"><g class="a13 c2 node n12 p0" transform="translate(0.0 44.4866)"><g class="a12 c1 node n9 p0" transform="translate(-22.4 21.2927)"><g class="a9 c2 node n6 p0" transform="translate(0.0 9.11294)"><g class="a6 i0 leaf node n1 p0 sample" transform="translate(-11.2 7.88913)"><path class="edge" d="M 0 0 V -7.88913 H 11.2" /><rect class="sym" height="6" width="6" x="-3" y="-3" /><text class="lab" transform="translate(0 11)">1</text></g><g class="a6 i1 leaf node n3 p0 sample" transform="translate(11.2 7.88913)"><path class="edge" d="M 0 0 V -7.88913 H -11.2" /><rect class="sym" height="6" width="6" x="-3" y="-3" /><text class="lab" transform="translate(0 11)">3</text></g><path class="edge" d="M 0 0 V -9.11294 H 0.0" /><circle class="sym" cx="0" cy="0" r="3" /><text class="lab lft" transform="translate(-3 -7.0)" /></g><path class="edge" d="M 0 0 V -21.2927 H 22.4" /><circle class="sym" cx="0" cy="0" r="3" /><text class="lab lft" transform="translate(-3 -7.0)" /></g><g class="a12 c2 node n10 p0" transform="translate(22.4 18.1844)"><g class="a10 i2 leaf node n4 p0 sample" transform="translate(-11.2 20.1103)"><path class="edge" d="M 0 0 V -20.1103 H 11.2" /><rect class="sym" height="6" width="6" x="-3" y="-3" /><text class="lab" transform="translate(0 11)">4</text></g><g class="a10 c1 node n7 p0" transform="translate(11.2 11.7419)"><g class="a7 i2 leaf node n5 p0 sample" transform="translate(0.0 8.36844)"><path class="edge" d="M 0 0 V -8.36844 H 0.0" /><rect class="sym" height="6" width="6" x="-3" y="-3" /><text class="lab" transform="translate(0 11)">5</text></g><path class="edge" d="M 0 0 V -11.7419 H -11.2" /><circle class="sym" cx="0" cy="0" r="3" /><text class="lab rgt" transform="translate(3 -7.0)">7</text></g><path class="edge" d="M 0 0 V -18.1844 H -22.4" /><circle class="sym" cx="0" cy="0" r="3" /><text class="lab rgt" transform="translate(3 -7.0)" /></g><path class="edge" d="M 0 0 V -44.4866 H 0.0" /><circle class="sym" cx="0" cy="0" r="3" /><text class="lab lft" transform="translate(-3 -7.0)" /></g><path class="edge" d="M 0 0 V -111.819 H -33.6" /><circle class="sym" cx="0" cy="0" r="3" /><text class="lab rgt" transform="translate(3 -7.0)">13</text></g><g class="a16 c1 node n15 p0" transform="translate(-33.6 108.606)"><g class="a15 c2 m0 node n11 p0 s0" transform="translate(0.0 52.672)"><g class="a11 i0 leaf node n0 p0 sample" transform="translate(-11.2 33.3219)"><path class="edge" d="M 0 0 V -33.3219 H 11.2" /><rect class="sym" height="6" width="6" x="-3" y="-3" /><text class="lab" transform="translate(0 11)">0</text></g><g class="a11 i1 leaf node n2 p0 sample" transform="translate(11.2 33.3219)"><path class="edge" d="M 0 0 V -33.3219 H -11.2" /><rect class="sym" height="6" width="6" x="-3" y="-3" /><text class="lab" transform="translate(0 11)">2</text></g><path class="edge" d="M 0 0 V -52.672 H 0.0" /><g class="mut m0 s0" transform="translate(0 -22.7553)"><line x1="0" x2="0" y1="0" y2="22.7553" /><path class="sym" d="M -3,-3 l 6,6 M -3,3 l 6,-6" /><text class="lab lft" transform="translate(-5 0)" /></g><circle class="sym" cx="0" cy="0" r="3" /><text class="lab lft" transform="translate(-3 -7.0)" /></g><path class="edge" d="M 0 0 V -108.606 H 33.6" /><circle class="sym" cx="0" cy="0" r="3" /><text class="lab lft" transform="translate(-3 -7.0)" /></g><circle class="sym" cx="0" cy="0" r="3" /><text class="lab" transform="translate(0 -11)" /></g></g></g><g class="tree t1" transform="translate(231.2 0)"><g class="plotbox"><g class="c2 node n15 p0 root" transform="translate(76 135.406)"><g class="a15 c2 node n11 p0" transform="translate(-33.6 52.672)"><g class="a11 i0 leaf node n0 p0 sample" transform="translate(-11.2 33.3219)"><path class="edge" d="M 0 0 V -33.3219 H 11.2" /><rect class="sym" height="6" width="6" x="-3" y="-3" /><text class="lab" transform="translate(0 11)">0</text></g><g class="a11 i1 leaf node n2 p0 sample" transform="translate(11.2 33.3219)"><path class="edge" d="M 0 0 V -33.3219 H -11.2" /><rect class="sym" height="6" width="6" x="-3" y="-3" /><text class="lab" transform="translate(0 11)">2</text></g><path class="edge" d="M 0 0 V -52.672 H 33.6" /><circle class="sym" cx="0" cy="0" r="3" /><text class="lab lft" transform="translate(-3 -7.0)" /></g><g class="a15 c1 node n14 p0" transform="translate(33.6 3.21256)"><g class="a14 c2 node n12 p0" transform="translate(0.0 44.4866)"><g class="a12 c1 node n9 p0" transform="translate(-22.4 21.2927)"><g class="a9 c2 node n6 p0" transform="translate(0.0 9.11294)"><g class="a6 i0 leaf node n1 p0 sample" transform="translate(-11.2 7.88913)"><path class="edge" d="M 0 0 V -7.88913 H 11.2" /><rect class="sym" height="6" width="6" x="-3" y="-3" /><text class="lab" transform="translate(0 11)">1</text></g><g class="a6 i1 leaf node n3 p0 sample" transform="translate(11.2 7.88913)"><path class="edge" d="M 0 0 V -7.88913 H -11.2" /><rect class="sym" height="6" width="6" x="-3" y="-3" /><text class="lab" transform="translate(0 11)">3</text></g><path class="edge" d="M 0 0 V -9.11294 H 0.0" /><circle class="sym" cx="0" cy="0" r="3" /><text class="lab lft" transform="translate(-3 -7.0)" /></g><path class="edge" d="M 0 0 V -21.2927 H 22.4" /><circle class="sym" cx="0" cy="0" r="3" /><text class="lab lft" transform="translate(-3 -7.0)" /></g><g class="a12 c2 node n10 p0" transform="translate(22.4 18.1844)"><g class="a10 i2 leaf m1 node n4 p0 s1 sample" transform="translate(-11.2 20.1103)"><path class="edge" d="M 0 0 V -20.1103 H 11.2" /><g class="mut m1 s1" transform="translate(0 -17.5666)"><line x1="0" x2="0" y1="0" y2="17.5666" /><path class="sym" d="M -3,-3 l 6,6 M -3,3 l 6,-6" /><text class="lab lft" transform="translate(-5 0)" /></g><rect class="sym" height="6" width="6" x="-3" y="-3" /><text class="lab" transform="translate(0 11)">4</text></g><g class="a10 c1 node n7 p0" transform="translate(11.2 11.7419)"><g class="a7 i2 leaf node n5 p0 sample" transform="translate(0.0 8.36844)"><path class="edge" d="M 0 0 V -8.36844 H 0.0" /><rect class="sym" height="6" width="6" x="-3" y="-3" /><text class="lab" transform="translate(0 11)">5</text></g><path class="edge" d="M 0 0 V -11.7419 H -11.2" /><circle class="sym" cx="0" cy="0" r="3" /><text class="lab rgt" transform="translate(3 -7.0)">7</text></g><path class="edge" d="M 0 0 V -18.1844 H -22.4" /><circle class="sym" cx="0" cy="0" r="3" /><text class="lab rgt" transform="translate(3 -7.0)" /></g><path class="edge" d="M 0 0 V -44.4866 H 0.0" /><circle class="sym" cx="0" cy="0" r="3" /><text class="lab lft" transform="translate(-3 -7.0)" /></g><path class="edge" d="M 0 0 V -3.21256 H -33.6" /><circle class="sym" cx="0" cy="0" r="3" /><text class="lab rgt" transform="translate(3 -7.0)">14</text></g><circle class="sym" cx="0" cy="0" r="3" /><text class="lab" transform="translate(0 -11)" /></g></g></g><g class="tree t2" transform="translate(405.6 0)"><g class="plotbox"><g class="c2 node n15 p0 root" transform="translate(83 135.406)"><g class="a15 c2 node n11 p0" transform="translate(-40.6 52.672)"><g class="a11 i0 leaf node n0 p0 sample" transform="translate(-11.2 33.3219)"><path class="edge" d="M 0 0 V -33.3219 H 11.2" /><rect class="sym" height="6" width="6" x="-3" y="-3" /><text class="lab" transform="translate(0 11)">0</text></g><g class="a11 i1 leaf m2 node n2 p0 s2 sample" transform="translate(11.2 33.3219)"><path class="edge" d="M 0 0 V -33.3219 H -11.2" /><g class="mut m2 s2" transform="translate(0 -13.6986)"><line x1="0" x2="0" y1="0" y2="13.6986" /><path class="sym" d="M -3,-3 l 6,6 M -3,3 l 6,-6" /><text class="lab rgt" transform="translate(5 0)" /></g><rect class="sym" height="6" width="6" x="-3" y="-3" /><text class="lab" transform="translate(0 11)">2</text></g><path class="edge" d="M 0 0 V -52.672 H 40.6" /><circle class="sym" cx="0" cy="0" r="3" /><text class="lab lft" transform="translate(-3 -7.0)" /></g><g class="a15 c1 node n14 p0" transform="translate(40.6 3.21256)"><g class="a14 c2 node n12 p0" transform="translate(0.0 44.4866)"><g class="a12 c2 node n9 p0" transform="translate(-19.6 21.2927)"><g class="a9 c2 node n6 p0" transform="translate(-16.8 9.11294)"><g class="a6 i0 leaf node n1 p0 sample" transform="translate(-11.2 7.88913)"><path class="edge" d="M 0 0 V -7.88913 H 11.2" /><rect class="sym" height="6" width="6" x="-3" y="-3" /><text class="lab" transform="translate(0 11)">1</text></g><g class="a6 i1 leaf node n3 p0 sample" transform="translate(11.2 7.88913)"><path class="edge" d="M 0 0 V -7.88913 H -11.2" /><rect class="sym" height="6" width="6" x="-3" y="-3" /><text class="lab" transform="translate(0 11)">3</text></g><path class="edge" d="M 0 0 V -9.11294 H 16.8" /><circle class="sym" cx="0" cy="0" r="3" /><text class="lab lft" transform="translate(-3 -7.0)" /></g><g class="a9 c1 node n8 p0" transform="translate(16.8 8.63363)"><g class="a8 i2 leaf node n5 p0 sample" transform="translate(0.0 8.36844)"><path class="edge" d="M 0 0 V -8.36844 H 0.0" /><rect class="sym" height="6" width="6" x="-3" y="-3" /><text class="lab" transform="translate(0 11)">5</text></g><path class="edge" d="M 0 0 V -8.63363 H -16.8" /><circle class="sym" cx="0" cy="0" r="3" /><text class="lab rgt" transform="translate(3 -7.0)">8</text></g><path class="edge" d="M 0 0 V -21.2927 H 19.6" /><circle class="sym" cx="0" cy="0" r="3" /><text class="lab lft" transform="translate(-3 -7.0)" /></g><g class="a12 c1 node n10 p0" transform="translate(19.6 18.1844)"><g class="a10 i2 leaf node n4 p0 sample" transform="translate(0.0 20.1103)"><path class="edge" d="M 0 0 V -20.1103 H 0.0" /><rect class="sym" height="6" width="6" x="-3" y="-3" /><text class="lab" transform="translate(0 11)">4</text></g><path class="edge" d="M 0 0 V -18.1844 H -19.6" /><circle class="sym" cx="0" cy="0" r="3" /><text class="lab rgt" transform="translate(3 -7.0)" /></g><path class="edge" d="M 0 0 V -44.4866 H 0.0" /><circle class="sym" cx="0" cy="0" r="3" /><text class="lab lft" transform="translate(-3 -7.0)" /></g><path class="edge" d="M 0 0 V -3.21256 H -40.6" /><circle class="sym" cx="0" cy="0" r="3" /><text class="lab rgt" transform="translate(3 -7.0)">14</text></g><circle class="sym" cx="0" cy="0" r="3" /><text class="lab" transform="translate(0 -11)" /></g></g></g></g></g></svg>