<svg baseProfile="full" height="300" version="1.1" width="320" xmlns="http://www.w3.org/2000/svg" xmlns:ev="http://www.w3.org/2001/xml-events" xmlns:xlink="http://www.w3.org/1999/xlink"><defs><style type="text/css"><![CDATA[.background path {fill: #808080; fill-opacity: 0}.background path:nth-child(odd) {fill-opacity: .1}.x-regions rect {fill: yellow; stroke: black; opacity: 0.5}.axes {font-size: 14px}.x-axis .tick .lab {font-weight: bold; dominant-baseline: hanging}.axes, .tree {font-size: 14px; text-anchor: middle}.axes line, .edge {stroke: black; fill: none}.axes .ax-skip {stroke-dasharray: 4}.y-axis .grid {stroke: #FAFAFA}.node > .sym {fill: black; stroke: none}.site > .sym {stroke: black}.mut text {fill: red; font-style: italic}.mut.extra text {fill: hotpink}.mut line {fill: none; stroke: none}.mut .sym {fill: none; stroke: red}.mut.extra .sym {stroke: hotpink}.node .mut .sym {stroke-width: 1.5px}.tree text, .tree-sequence text {dominant-baseline: central}.plotbox .lab.lft {text-anchor: end}.plotbox .lab.rgt {text-anchor: start}.polytomy line {stroke: black; stroke-dasharray: 1px, 1px}.polytomy text {paint-order:stroke;stroke-width:0.3em;stroke:white}]]></style></defs><g class="tree t2"><g class="plotbox"><g class="c2 node n17 p3 root" transform="translate(139.219 43.6)"><g class="a17 c2 node n16 p3" transform="translate(84.2188 40.7705)"><g class="a16 c2 m22 node n10 p3 s21" transform="translate(41.5625 113.204)"><g class="a10 i3 leaf m15 node n6 p2 s14 sample" transform="translate(-17.5 70.6256)"><path class="edge e4" d="M 0 0 V -70.6256 H 17.5"/><g class="mut m15 s14" transform="translate(0 -24.6108)"><line x1="0" x2="0" y1="0" y2="24.6108"/><path class="sym" d="M -3,-3 l 6,6 M -3,3 l 6,-6"/><text class="lab lft" transform="translate(-5 0)">15</text></g><rect class="sym" height="6" width="6" x="-3" y="-3"/><text class="lab" transform="translate(0 11)">6</text></g><g class="a10 i3 leaf m16 m17 node n7 p2 s15 s16 sample" transform="translate(17.5 70.6256)"><path class="edge e5" d="M 0 0 V -70.6256 H -17.5"/><g class="mut m17 s16" transform="translate(0 -68.5614)"><line x1="0" x2="0" y1="0" y2="68.5614"/><path class="sym" d="M -3,-3 l 6,6 M -3,3 l 6,-6"/><text class="lab rgt" transform="translate(5 0)">17</text></g><g class="mut m16 s15" transform="translate(0 -28.4056)"><line x1="0" x2="0" y1="0" y2="28.4056"/><path class="sym" d="M -3,-3 l 6,6 M -3,3 l 6,-6"/><text class="lab rgt" transform="translate(5 0)">16</text></g><rect class="sym" height="6" width="6" x="-3" y="-3"/><text class="lab" transform="translate(0 11)">7</text></g><path class="edge e20" d="M 0 0 V -113.204 H -41.5625"/><g class="mut m22 s21" transform="translate(0 -37.4813)"><line x1="0" x2="0" y1="0" y2="37.4813"/><path class="sym" d="M -3,-3 l 6,6 M -3,3 l 6,-6"/><text class="lab rgt" transform="translate(5 0)">22</text></g><circle class="sym" cx="0" cy="0" r="3"/><text class="lab rgt" transform="translate(3 -7)">10</text></g><g class="a16 c2 m20 node n15 p3 s19" transform="translate(-41.5625 23.7218)"><g class="a15 i2 leaf node n5 p1 sample" transform="translate(30.625 160.108)"><path class="edge e16" d="M 0 0 V -160.108 H -30.625"/><rect class="sym" height="6" width="6" x="-3" y="-3"/><text class="lab" transform="translate(0 11)">5</text></g><g class="a15 c2 m19 node n9 p3 s18" transform="translate(-30.625 91.2115)"><g class="a9 i2 leaf node n4 p1 sample" transform="translate(26.25 68.8962)"><path class="edge e2" d="M 0 0 V -68.8962 H -26.25"/><rect class="sym" height="6" width="6" x="-3" y="-3"/><text class="lab" transform="translate(0 11)">4</text></g><g class="a9 c2 m18 m24 node n8 p0 s17 s23" transform="translate(-26.25 66.6369)"><g class="a8 i1 leaf node n2 p0 sample" transform="translate(-17.5 2.25923)"><path class="edge e0" d="M 0 0 V -2.25923 H 17.5"/><rect class="sym" height="6" width="6" x="-3" y="-3"/><text class="lab" transform="translate(0 11)">2</text></g><g class="a8 i1 leaf node n3 p0 sample" transform="translate(17.5 2.25923)"><path class="edge e1" d="M 0 0 V -2.25923 H -17.5"/><rect class="sym" height="6" width="6" x="-3" y="-3"/><text class="lab" transform="translate(0 11)">3</text></g><path class="edge e3" d="M 0 0 V -66.6369 H 26.25"/><g class="mut m18 s17" transform="translate(0 -58.8257)"><line x1="0" x2="0" y1="0" y2="58.8257"/><path class="sym" d="M -3,-3 l 6,6 M -3,3 l 6,-6"/><text class="lab lft" transform="translate(-5 0)">18</text></g><g class="mut m24 s23" transform="translate(0 -47.3076)"><line x1="0" x2="0" y1="0" y2="47.3076"/><path class="sym" d="M -3,-3 l 6,6 M -3,3 l 6,-6"/><text class="lab lft" transform="translate(-5 0)">24</text></g><circle class="sym" cx="0" cy="0" r="3"/><text class="lab lft" transform="translate(-3 -7)">8</text></g><path class="edge e18" d="M 0 0 V -91.2115 H 30.625"/><g class="mut m19 s18" transform="translate(0 -27.8662)"><line x1="0" x2="0" y1="0" y2="27.8662"/><path class="sym" d="M -3,-3 l 6,6 M -3,3 l 6,-6"/><text class="lab lft" transform="translate(-5 0)">19</text></g><circle class="sym" cx="0" cy="0" r="3"/><text class="lab lft" transform="translate(-3 -7)">9</text></g><path class="edge e21" d="M 0 0 V -23.7218 H 41.5625"/><g class="mut m20 s19" transform="translate(0 -22.1875)"><line x1="0" x2="0" y1="0" y2="22.1875"/><path class="sym" d="M -3,-3 l 6,6 M -3,3 l 6,-6"/><text class="lab lft" transform="translate(-5 0)">20</text></g><circle class="sym" cx="0" cy="0" r="3"/><text class="lab lft" transform="translate(-3 -7)">15</text></g><path class="edge e24" d="M 0 0 V -40.7705 H -84.2188"/><circle class="sym" cx="0" cy="0" r="3"/><text class="lab rgt" transform="translate(3 -7)">16</text></g><g class="a17 c2 node n14 p3" transform="translate(-84.2188 86.5774)"><g class="a14 i0 leaf m21 node n0 p0 s20 sample" transform="translate(-17.5 138.023)"><path class="edge e13" d="M 0 0 V -138.023 H 17.5"/><g class="mut m21 s20" transform="translate(0 -57.7737)"><line x1="0" x2="0" y1="0" y2="57.7737"/><path class="sym" d="M -3,-3 l 6,6 M -3,3 l 6,-6"/><text class="lab lft" transform="translate(-5 0)">21</text></g><rect class="sym" height="6" width="6" x="-3" y="-3"/><text class="lab" transform="translate(0 11)">0</text></g><g class="a14 i0 leaf m14 m23 node n1 p0 s14 s22 sample" transform="translate(17.5 138.023)"><path class="edge e14" d="M 0 0 V -138.023 H -17.5"/><g class="mut m14 s14" transform="translate(0 -41.1887)"><line x1="0" x2="0" y1="0" y2="41.1887"/><path class="sym" d="M -3,-3 l 6,6 M -3,3 l 6,-6"/><text class="lab rgt" transform="translate(5 0)">14</text></g><g class="mut m23 s22" transform="translate(0 -7.33717)"><line x1="0" x2="0" y1="0" y2="7.33717"/><path class="sym" d="M -3,-3 l 6,6 M -3,3 l 6,-6"/><text class="lab rgt" transform="translate(5 0)">23</text></g><rect class="sym" height="6" width="6" x="-3" y="-3"/><text class="lab" transform="translate(0 11)">1</text></g><path class="edge e23" d="M 0 0 V -86.5774 H 84.2188"/><circle class="sym" cx="0" cy="0" r="3"/><text class="lab lft" transform="translate(-3 -7)">14</text></g><circle class="sym" cx="0" cy="0" r="3"/><text class="lab" transform="translate(0 -11)">17</text></g></g></g><g class="title" transform="translate(160 0)"><text dominant-baseline="hanging" text-anchor="middle">3rd tree, from position 13901 to 21285</text></g></svg>