<svg baseProfile="full" height="200" version="1.1" width="1600" xmlns="http://www.w3.org/2000/svg" xmlns:ev="http://www.w3.org/2001/xml-events" xmlns:xlink="http://www.w3.org/1999/xlink"><defs><style type="text/css"><![CDATA[.background path {fill: #808080; fill-opacity: 0}.background path:nth-child(odd) {fill-opacity: .1}.x-regions rect {fill: yellow; stroke: black; opacity: 0.5}.axes {font-size: 14px}.x-axis .tick .lab {font-weight: bold; dominant-baseline: hanging}.axes, .tree {font-size: 14px; text-anchor: middle}.axes line, .edge {stroke: black; fill: none}.axes .ax-skip {stroke-dasharray: 4}.y-axis .grid {stroke: #FAFAFA}.node > .sym {fill: black; stroke: none}.site > .sym {stroke: black}.mut text {fill: red; font-style: italic}.mut.extra text {fill: hotpink}.mut line {fill: none; stroke: none}.mut .sym {fill: none; stroke: red}.mut.extra .sym {stroke: hotpink}.node .mut .sym {stroke-width: 1.5px}.tree text, .tree-sequence text {dominant-baseline: central}.plotbox .lab.lft {text-anchor: end}.plotbox .lab.rgt {text-anchor: start}.polytomy line {stroke: black; stroke-dasharray: 1px, 1px}.polytomy text {paint-order:stroke;stroke-width:0.3em;stroke:white}]]></style></defs><g class="tree-sequence"><g class="background"><path d="M20,16.8 l195,0 l0,121.4 l154.44,25 l0,5 l-349.44,0 l0,-5 l0,-25 l0,-121.4z"/><path d="M215,16.8 l195,0 l0,121.4 l35.88,25 l0,5 l-76.44,0 l0,-5 l-154.44,-25 l0,-121.4z"/><path d="M410,16.8 l195,0 l0,121.4 l-141.18,25 l0,5 l-17.94,0 l0,-5 l-35.88,-25 l0,-121.4z"/><path d="M605,16.8 l195,0 l0,121.4 l-219.336,25 l0,5 l-116.844,0 l0,-5 l141.18,-25 l0,-121.4z"/><path d="M800,16.8 l195,0 l0,121.4 l-411.06,25 l0,5 l-3.276,0 l0,-5 l219.336,-25 l0,-121.4z"/><path d="M995,16.8 l195,0 l0,121.4 l-143.832,25 l0,5 l-462.228,0 l0,-5 l411.06,-25 l0,-121.4z"/><path d="M1190,16.8 l195,0 l0,121.4 l60.84,25 l0,5 l-399.672,0 l0,-5 l143.83,-25 l0,-121.4z"/><path d="M1385,16.8 l195,0 l0,121.4 l0,25 l0,5 l-134.16,0 l0,-5 l-60.84,-25 l0,-121.4z"/></g><g class="axes"><g class="x-axis"><g class="title" transform="translate(800 200)"><text class="lab" text-anchor="middle" transform="translate(0 -11)">Genome position</text></g><line class="ax-line" x1="20" x2="1580" y1="163.2" y2="163.2"/><g class="ticks"><g class="tick" transform="translate(20 163.2)"><line x1="0" x2="0" y1="0" y2="5"/><g transform="translate(0 6)"><text class="lab">0</text></g></g><g class="tick" transform="translate(369.44 163.2)"><line x1="0" x2="0" y1="0" y2="5"/><g transform="translate(0 6)"><text class="lab">2240</text></g></g><g class="tick" transform="translate(445.88 163.2)"><line x1="0" x2="0" y1="0" y2="5"/><g transform="translate(0 6)"><text class="lab">2730</text></g></g><g class="tick" transform="translate(463.82 163.2)"><line x1="0" x2="0" y1="0" y2="5"/><g transform="translate(0 6)"><text class="lab">2845</text></g></g><g class="tick" transform="translate(580.664 163.2)"><line x1="0" x2="0" y1="0" y2="5"/><g transform="translate(0 6)"><text class="lab">3594</text></g></g><g class="tick" transform="translate(583.94 163.2)"><line x1="0" x2="0" y1="0" y2="5"/><g transform="translate(0 6)"><text class="lab">3615</text></g></g><g class="tick" transform="translate(1046.17 163.2)"><line x1="0" x2="0" y1="0" y2="5"/><g transform="translate(0 6)"><text class="lab">6578</text></g></g><g class="tick" transform="translate(1445.84 163.2)"><line x1="0" x2="0" y1="0" y2="5"/><g transform="translate(0 6)"><text class="lab">9140</text></g></g><g class="tick" transform="translate(1580 163.2)"><line x1="0" x2="0" y1="0" y2="5"/><g transform="translate(0 6)"><text class="lab">10000</text></g></g></g><g class="site s0" transform="translate(63.524 163.2)"><line class="sym" x1="0" x2="0" y1="0" y2="-10"/><g class="mut m0"><polyline class="sym" points="2.5,-6.5 0,-1.5 -2.5,-6.5"/></g></g><g class="site s1" transform="translate(189.884 163.2)"><line class="sym" x1="0" x2="0" y1="0" y2="-10"/><g class="mut m1"><polyline class="sym" points="2.5,-6.5 0,-1.5 -2.5,-6.5"/></g></g><g class="site s2" transform="translate(441.98 163.2)"><line class="sym" x1="0" x2="0" y1="0" y2="-10"/><g class="mut m2"><polyline class="sym" points="2.5,-6.5 0,-1.5 -2.5,-6.5"/></g></g><g class="site s3" transform="translate(552.896 163.2)"><line class="sym" x1="0" x2="0" y1="0" y2="-10"/><g class="mut m3"><polyline class="sym" points="2.5,-6.5 0,-1.5 -2.5,-6.5"/></g></g><g class="site s4" transform="translate(670.52 163.2)"><line class="sym" x1="0" x2="0" y1="0" y2="-10"/><g class="mut m4"><polyline class="sym" points="2.5,-6.5 0,-1.5 -2.5,-6.5"/></g></g><g class="site s5" transform="translate(778.316 163.2)"><line class="sym" x1="0" x2="0" y1="0" y2="-10"/><g class="mut m5"><polyline class="sym" points="2.5,-6.5 0,-1.5 -2.5,-6.5"/></g></g><g class="site s6" transform="translate(1088.29 163.2)"><line class="sym" x1="0" x2="0" y1="0" y2="-10"/><g class="mut m6"><polyline class="sym" points="2.5,-6.5 0,-1.5 -2.5,-6.5"/></g></g><g class="site s7" transform="translate(1402.63 163.2)"><line class="sym" x1="0" x2="0" y1="0" y2="-10"/><g class="mut m7"><polyline class="sym" points="2.5,-6.5 0,-1.5 -2.5,-6.5"/></g></g></g></g><g class="plotbox trees"><g class="tree t0" transform="translate(20 16.8)"><g class="plotbox"><g class="c2 node n13 p0 root" transform="translate(83.776 72.3779)"><g class="a13 c1 node n7 p0" transform="translate(-50.8594 29.799)"><g class="a7 i0 leaf node n0 p0 sample" transform="translate(0.0 2.42317)"><path class="edge e2" d="M 0 0 V -2.42317 H 0.0"/><rect class="sym" height="6" width="6" x="-3" y="-3"/><text class="lab" transform="translate(0 11)">0</text></g><path class="edge e14" d="M 0 0 V -29.799 H 50.8594"/><circle class="sym" cx="0" cy="0" r="3"/><text class="lab lft" transform="translate(-3 -7)">7</text></g><g class="a13 c2 node n12 p0" transform="translate(50.8594 15.3922)"><g class="a12 c2 m1 node n10 p0 s1" transform="translate(-27.4479 11.5994)"><g class="a10 c2 m0 node n8 p0 s0" transform="translate(-29.0625 2.51333)"><g class="a8 i0 leaf node n1 p0 sample" transform="translate(-19.375 2.71726)"><path class="edge e4" d="M 0 0 V -2.71726 H 19.375"/><rect class="sym" height="6" width="6" x="-3" y="-3"/><text class="lab" transform="translate(0 11)">1</text></g><g class="a8 c2 node n6 p0" transform="translate(19.375 1.22999)"><g class="a6 i1 leaf node n3 p0 sample" transform="translate(-12.9167 1.48727)"><path class="edge e0" d="M 0 0 V -1.48727 H 12.9167"/><rect class="sym" height="6" width="6" x="-3" y="-3"/><text class="lab" transform="translate(0 11)">3</text></g><g class="a6 i2 leaf node n4 p0 sample" transform="translate(12.9167 1.48727)"><path class="edge e1" d="M 0 0 V -1.48727 H -12.9167"/><rect class="sym" height="6" width="6" x="-3" y="-3"/><text class="lab" transform="translate(0 11)">4</text></g><path class="edge e5" d="M 0 0 V -1.22999 H -19.375"/><circle class="sym" cx="0" cy="0" r="3"/><text class="lab rgt" transform="translate(3 -7)">6</text></g><path class="edge e8" d="M 0 0 V -2.51333 H 29.0625"/><g class="mut m0 s0" transform="translate(0 -1.0829)"><line x1="0" x2="0" y1="0" y2="1.0829"/><path class="sym" d="M -3,-3 l 6,6 M -3,3 l 6,-6"/><text class="lab lft" transform="translate(-5 0)">0</text></g><circle class="sym" cx="0" cy="0" r="3"/><text class="lab lft" transform="translate(-3 -7)">8</text></g><g class="a10 c1 node n9 p0" transform="translate(29.0625 0.905871)"><g class="a9 i2 leaf node n5 p0 sample" transform="translate(0.0 4.32472)"><path class="edge e6" d="M 0 0 V -4.32472 H 0.0"/><rect class="sym" height="6" width="6" x="-3" y="-3"/><text class="lab" transform="translate(0 11)">5</text></g><path class="edge e9" d="M 0 0 V -0.905871 H -29.0625"/><circle class="sym" cx="0" cy="0" r="3"/><text class="lab rgt" transform="translate(3 -7)">9</text></g><path class="edge e12" d="M 0 0 V -11.5994 H 27.4479"/><g class="mut m1 s1" transform="translate(0 -1.53844)"><line x1="0" x2="0" y1="0" y2="1.53844"/><path class="sym" d="M -3,-3 l 6,6 M -3,3 l 6,-6"/><text class="lab lft" transform="translate(-5 0)">1</text></g><circle class="sym" cx="0" cy="0" r="3"/><text class="lab lft" transform="translate(-3 -7)">10</text></g><g class="a12 c1 node n11 p0" transform="translate(27.4479 3.2516)"><g class="a11 i1 leaf node n2 p0 sample" transform="translate(0.0 13.5783)"><path class="edge e10" d="M 0 0 V -13.5783 H 0.0"/><rect class="sym" height="6" width="6" x="-3" y="-3"/><text class="lab" transform="translate(0 11)">2</text></g><path class="edge e13" d="M 0 0 V -3.2516 H -27.4479"/><circle class="sym" cx="0" cy="0" r="3"/><text class="lab rgt" transform="translate(3 -7)">11</text></g><path class="edge e15" d="M 0 0 V -15.3922 H -50.8594"/><circle class="sym" cx="0" cy="0" r="3"/><text class="lab rgt" transform="translate(3 -7)">12</text></g><path class="edge root" d="M 0 0 V -10.5111 H 0"/><circle class="sym" cx="0" cy="0" r="3"/><text class="lab rgt" transform="translate(3 -7)">13</text></g></g></g><g class="tree t1" transform="translate(215 16.8)"><g class="plotbox"><g class="c1 node n13 p0 root" transform="translate(89.4271 72.3779)"><g class="a13 c2 node n12 p0" transform="translate(0.0 15.3922)"><g class="a12 c2 node n10 p0" transform="translate(43.5938 11.5994)"><g class="a10 c2 node n8 p0" transform="translate(-29.0625 2.51333)"><g class="a8 i0 leaf node n1 p0 sample" transform="translate(-19.375 2.71726)"><path class="edge e4" d="M 0 0 V -2.71726 H 19.375"/><rect class="sym" height="6" width="6" x="-3" y="-3"/><text class="lab" transform="translate(0 11)">1</text></g><g class="a8 c2 node n6 p0" transform="translate(19.375 1.22999)"><g class="a6 i1 leaf node n3 p0 sample" transform="translate(-12.9167 1.48727)"><path class="edge e0" d="M 0 0 V -1.48727 H 12.9167"/><rect class="sym" height="6" width="6" x="-3" y="-3"/><text class="lab" transform="translate(0 11)">3</text></g><g class="a6 i2 leaf node n4 p0 sample" transform="translate(12.9167 1.48727)"><path class="edge e1" d="M 0 0 V -1.48727 H -12.9167"/><rect class="sym" height="6" width="6" x="-3" y="-3"/><text class="lab" transform="translate(0 11)">4</text></g><path class="edge e5" d="M 0 0 V -1.22999 H -19.375"/><circle class="sym" cx="0" cy="0" r="3"/><text class="lab rgt" transform="translate(3 -7)">6</text></g><path class="edge e8" d="M 0 0 V -2.51333 H 29.0625"/><circle class="sym" cx="0" cy="0" r="3"/><text class="lab lft" transform="translate(-3 -7)">8</text></g><g class="a10 c1 node n9 p0" transform="translate(29.0625 0.905871)"><g class="a9 i2 leaf node n5 p0 sample" transform="translate(0.0 4.32472)"><path class="edge e6" d="M 0 0 V -4.32472 H 0.0"/><rect class="sym" height="6" width="6" x="-3" y="-3"/><text class="lab" transform="translate(0 11)">5</text></g><path class="edge e9" d="M 0 0 V -0.905871 H -29.0625"/><circle class="sym" cx="0" cy="0" r="3"/><text class="lab rgt" transform="translate(3 -7)">9</text></g><path class="edge e12" d="M 0 0 V -11.5994 H -43.5938"/><circle class="sym" cx="0" cy="0" r="3"/><text class="lab rgt" transform="translate(3 -7)">10</text></g><g class="a12 c2 m2 node n11 p0 s2" transform="translate(-43.5937 3.2516)"><g class="a11 i1 leaf node n2 p0 sample" transform="translate(12.9167 13.5783)"><path class="edge e10" d="M 0 0 V -13.5783 H -12.9167"/><rect class="sym" height="6" width="6" x="-3" y="-3"/><text class="lab" transform="translate(0 11)">2</text></g><g class="a11 c1 node n7 p0" transform="translate(-12.9167 11.1552)"><g class="a7 i0 leaf node n0 p0 sample" transform="translate(0.0 2.42317)"><path class="edge e2" d="M 0 0 V -2.42317 H 0.0"/><rect class="sym" height="6" width="6" x="-3" y="-3"/><text class="lab" transform="translate(0 11)">0</text></g><path class="edge e11" d="M 0 0 V -11.1552 H 12.9167"/><circle class="sym" cx="0" cy="0" r="3"/><text class="lab lft" transform="translate(-3 -7)">7</text></g><path class="edge e13" d="M 0 0 V -3.2516 H 43.5937"/><g class="mut m2 s2" transform="translate(0 -2.67465)"><line x1="0" x2="0" y1="0" y2="2.67465"/><path class="sym" d="M -3,-3 l 6,6 M -3,3 l 6,-6"/><text class="lab lft" transform="translate(-5 0)">2</text></g><circle class="sym" cx="0" cy="0" r="3"/><text class="lab lft" transform="translate(-3 -7)">11</text></g><path class="edge e15" d="M 0 0 V -15.3922 H 0.0"/><circle class="sym" cx="0" cy="0" r="3"/><text class="lab lft" transform="translate(-3 -7)">12</text></g><path class="edge root" d="M 0 0 V -10.5111 H 0"/><circle class="sym" cx="0" cy="0" r="3"/><text class="lab rgt" transform="translate(3 -7)">13</text></g></g></g><g class="tree t2" transform="translate(410 16.8)"><g class="plotbox"><g class="c1 node n16 p0 root" transform="translate(89.4271 20.5111)"><g class="a16 c2 node n12 p0" transform="translate(0.0 67.2589)"><g class="a12 c2 node n10 p0" transform="translate(43.5938 11.5994)"><g class="a10 c2 node n8 p0" transform="translate(-29.0625 2.51333)"><g class="a8 i0 leaf node n1 p0 sample" transform="translate(-19.375 2.71726)"><path class="edge e4" d="M 0 0 V -2.71726 H 19.375"/><rect class="sym" height="6" width="6" x="-3" y="-3"/><text class="lab" transform="translate(0 11)">1</text></g><g class="a8 c2 node n6 p0" transform="translate(19.375 1.22999)"><g class="a6 i1 leaf node n3 p0 sample" transform="translate(-12.9167 1.48727)"><path class="edge e0" d="M 0 0 V -1.48727 H 12.9167"/><rect class="sym" height="6" width="6" x="-3" y="-3"/><text class="lab" transform="translate(0 11)">3</text></g><g class="a6 i2 leaf node n4 p0 sample" transform="translate(12.9167 1.48727)"><path class="edge e1" d="M 0 0 V -1.48727 H -12.9167"/><rect class="sym" height="6" width="6" x="-3" y="-3"/><text class="lab" transform="translate(0 11)">4</text></g><path class="edge e5" d="M 0 0 V -1.22999 H -19.375"/><circle class="sym" cx="0" cy="0" r="3"/><text class="lab rgt" transform="translate(3 -7)">6</text></g><path class="edge e8" d="M 0 0 V -2.51333 H 29.0625"/><circle class="sym" cx="0" cy="0" r="3"/><text class="lab lft" transform="translate(-3 -7)">8</text></g><g class="a10 c1 node n9 p0" transform="translate(29.0625 0.905871)"><g class="a9 i2 leaf node n5 p0 sample" transform="translate(0.0 4.32472)"><path class="edge e6" d="M 0 0 V -4.32472 H 0.0"/><rect class="sym" height="6" width="6" x="-3" y="-3"/><text class="lab" transform="translate(0 11)">5</text></g><path class="edge e9" d="M 0 0 V -0.905871 H -29.0625"/><circle class="sym" cx="0" cy="0" r="3"/><text class="lab rgt" transform="translate(3 -7)">9</text></g><path class="edge e12" d="M 0 0 V -11.5994 H -43.5938"/><circle class="sym" cx="0" cy="0" r="3"/><text class="lab rgt" transform="translate(3 -7)">10</text></g><g class="a12 c2 node n11 p0" transform="translate(-43.5937 3.2516)"><g class="a11 i1 leaf node n2 p0 sample" transform="translate(12.9167 13.5783)"><path class="edge e10" d="M 0 0 V -13.5783 H -12.9167"/><rect class="sym" height="6" width="6" x="-3" y="-3"/><text class="lab" transform="translate(0 11)">2</text></g><g class="a11 c1 node n7 p0" transform="translate(-12.9167 11.1552)"><g class="a7 i0 leaf node n0 p0 sample" transform="translate(0.0 2.42317)"><path class="edge e2" d="M 0 0 V -2.42317 H 0.0"/><rect class="sym" height="6" width="6" x="-3" y="-3"/><text class="lab" transform="translate(0 11)">0</text></g><path class="edge e11" d="M 0 0 V -11.1552 H 12.9167"/><circle class="sym" cx="0" cy="0" r="3"/><text class="lab lft" transform="translate(-3 -7)">7</text></g><path class="edge e13" d="M 0 0 V -3.2516 H 43.5937"/><circle class="sym" cx="0" cy="0" r="3"/><text class="lab lft" transform="translate(-3 -7)">11</text></g><path class="edge e18" d="M 0 0 V -67.2589 H 0.0"/><circle class="sym" cx="0" cy="0" r="3"/><text class="lab lft" transform="translate(-3 -7)">12</text></g><path class="edge root" d="M 0 0 V -10.5111 H 0"/><circle class="sym" cx="0" cy="0" r="3"/><text class="lab rgt" transform="translate(3 -7)">16</text></g></g></g><g class="tree t3" transform="translate(605 16.8)"><g class="plotbox"><g class="c1 node n16 p0 root" transform="translate(118.49 20.5111)"><g class="a16 c2 node n12 p0" transform="translate(0.0 67.2589)"><g class="a12 c2 node n10 p0" transform="translate(-43.5938 11.5994)"><g class="a10 c2 node n8 p0" transform="translate(29.0625 2.51333)"><g class="a8 i0 leaf node n1 p0 sample" transform="translate(-19.375 2.71726)"><path class="edge e4" d="M 0 0 V -2.71726 H 19.375"/><rect class="sym" height="6" width="6" x="-3" y="-3"/><text class="lab" transform="translate(0 11)">1</text></g><g class="a8 c2 node n6 p0" transform="translate(19.375 1.22999)"><g class="a6 i1 leaf node n3 p0 sample" transform="translate(-12.9167 1.48727)"><path class="edge e0" d="M 0 0 V -1.48727 H 12.9167"/><rect class="sym" height="6" width="6" x="-3" y="-3"/><text class="lab" transform="translate(0 11)">3</text></g><g class="a6 i2 leaf node n4 p0 sample" transform="translate(12.9167 1.48727)"><path class="edge e1" d="M 0 0 V -1.48727 H -12.9167"/><rect class="sym" height="6" width="6" x="-3" y="-3"/><text class="lab" transform="translate(0 11)">4</text></g><path class="edge e5" d="M 0 0 V -1.22999 H -19.375"/><circle class="sym" cx="0" cy="0" r="3"/><text class="lab rgt" transform="translate(3 -7)">6</text></g><path class="edge e8" d="M 0 0 V -2.51333 H -29.0625"/><circle class="sym" cx="0" cy="0" r="3"/><text class="lab rgt" transform="translate(3 -7)">8</text></g><g class="a10 c2 node n9 p0" transform="translate(-29.0625 0.905871)"><g class="a9 i2 leaf m3 node n5 p0 s3 sample" transform="translate(12.9167 4.32472)"><path class="edge e6" d="M 0 0 V -4.32472 H -12.9167"/><g class="mut m3 s3" transform="translate(0 -1.95861)"><line x1="0" x2="0" y1="0" y2="1.95861"/><path class="sym" d="M -3,-3 l 6,6 M -3,3 l 6,-6"/><text class="lab rgt" transform="translate(5 0)">3</text></g><rect class="sym" height="6" width="6" x="-3" y="-3"/><text class="lab" transform="translate(0 11)">5</text></g><g class="a9 c1 node n7 p0" transform="translate(-12.9167 1.90155)"><g class="a7 i0 leaf node n0 p0 sample" transform="translate(0.0 2.42317)"><path class="edge e2" d="M 0 0 V -2.42317 H 0.0"/><rect class="sym" height="6" width="6" x="-3" y="-3"/><text class="lab" transform="translate(0 11)">0</text></g><path class="edge e7" d="M 0 0 V -1.90155 H 12.9167"/><circle class="sym" cx="0" cy="0" r="3"/><text class="lab lft" transform="translate(-3 -7)">7</text></g><path class="edge e9" d="M 0 0 V -0.905871 H 29.0625"/><circle class="sym" cx="0" cy="0" r="3"/><text class="lab lft" transform="translate(-3 -7)">9</text></g><path class="edge e12" d="M 0 0 V -11.5994 H 43.5938"/><circle class="sym" cx="0" cy="0" r="3"/><text class="lab lft" transform="translate(-3 -7)">10</text></g><g class="a12 c1 node n11 p0" transform="translate(43.5938 3.2516)"><g class="a11 i1 leaf node n2 p0 sample" transform="translate(0.0 13.5783)"><path class="edge e10" d="M 0 0 V -13.5783 H 0.0"/><rect class="sym" height="6" width="6" x="-3" y="-3"/><text class="lab" transform="translate(0 11)">2</text></g><path class="edge e13" d="M 0 0 V -3.2516 H -43.5938"/><circle class="sym" cx="0" cy="0" r="3"/><text class="lab rgt" transform="translate(3 -7)">11</text></g><path class="edge e18" d="M 0 0 V -67.2589 H 0.0"/><circle class="sym" cx="0" cy="0" r="3"/><text class="lab lft" transform="translate(-3 -7)">12</text></g><path class="edge root" d="M 0 0 V -10.5111 H 0"/><circle class="sym" cx="0" cy="0" r="3"/><text class="lab rgt" transform="translate(3 -7)">16</text></g></g></g><g class="tree t4" transform="translate(800 16.8)"><g class="plotbox"><g class="c1 node n15 p0 root" transform="translate(118.49 29.5423)"><g class="a15 c2 node n12 p0" transform="translate(0.0 58.2277)"><g class="a12 c2 node n10 p0" transform="translate(-43.5938 11.5994)"><g class="a10 c2 node n8 p0" transform="translate(29.0625 2.51333)"><g class="a8 i0 leaf node n1 p0 sample" transform="translate(-19.375 2.71726)"><path class="edge e4" d="M 0 0 V -2.71726 H 19.375"/><rect class="sym" height="6" width="6" x="-3" y="-3"/><text class="lab" transform="translate(0 11)">1</text></g><g class="a8 c2 node n6 p0" transform="translate(19.375 1.22999)"><g class="a6 i1 leaf node n3 p0 sample" transform="translate(-12.9167 1.48727)"><path class="edge e0" d="M 0 0 V -1.48727 H 12.9167"/><rect class="sym" height="6" width="6" x="-3" y="-3"/><text class="lab" transform="translate(0 11)">3</text></g><g class="a6 i2 leaf node n4 p0 sample" transform="translate(12.9167 1.48727)"><path class="edge e1" d="M 0 0 V -1.48727 H -12.9167"/><rect class="sym" height="6" width="6" x="-3" y="-3"/><text class="lab" transform="translate(0 11)">4</text></g><path class="edge e5" d="M 0 0 V -1.22999 H -19.375"/><circle class="sym" cx="0" cy="0" r="3"/><text class="lab rgt" transform="translate(3 -7)">6</text></g><path class="edge e8" d="M 0 0 V -2.51333 H -29.0625"/><circle class="sym" cx="0" cy="0" r="3"/><text class="lab rgt" transform="translate(3 -7)">8</text></g><g class="a10 c2 node n9 p0" transform="translate(-29.0625 0.905871)"><g class="a9 i2 leaf node n5 p0 sample" transform="translate(12.9167 4.32472)"><path class="edge e6" d="M 0 0 V -4.32472 H -12.9167"/><rect class="sym" height="6" width="6" x="-3" y="-3"/><text class="lab" transform="translate(0 11)">5</text></g><g class="a9 c1 node n7 p0" transform="translate(-12.9167 1.90155)"><g class="a7 i0 leaf node n0 p0 sample" transform="translate(0.0 2.42317)"><path class="edge e2" d="M 0 0 V -2.42317 H 0.0"/><rect class="sym" height="6" width="6" x="-3" y="-3"/><text class="lab" transform="translate(0 11)">0</text></g><path class="edge e7" d="M 0 0 V -1.90155 H 12.9167"/><circle class="sym" cx="0" cy="0" r="3"/><text class="lab lft" transform="translate(-3 -7)">7</text></g><path class="edge e9" d="M 0 0 V -0.905871 H 29.0625"/><circle class="sym" cx="0" cy="0" r="3"/><text class="lab lft" transform="translate(-3 -7)">9</text></g><path class="edge e12" d="M 0 0 V -11.5994 H 43.5938"/><circle class="sym" cx="0" cy="0" r="3"/><text class="lab lft" transform="translate(-3 -7)">10</text></g><g class="a12 c1 node n11 p0" transform="translate(43.5938 3.2516)"><g class="a11 i1 leaf node n2 p0 sample" transform="translate(0.0 13.5783)"><path class="edge e10" d="M 0 0 V -13.5783 H 0.0"/><rect class="sym" height="6" width="6" x="-3" y="-3"/><text class="lab" transform="translate(0 11)">2</text></g><path class="edge e13" d="M 0 0 V -3.2516 H -43.5938"/><circle class="sym" cx="0" cy="0" r="3"/><text class="lab rgt" transform="translate(3 -7)">11</text></g><path class="edge e17" d="M 0 0 V -58.2277 H 0.0"/><circle class="sym" cx="0" cy="0" r="3"/><text class="lab lft" transform="translate(-3 -7)">12</text></g><path class="edge root" d="M 0 0 V -10.5111 H 0"/><circle class="sym" cx="0" cy="0" r="3"/><text class="lab rgt" transform="translate(3 -7)">15</text></g></g></g><g class="tree t5" transform="translate(995 16.8)"><g class="plotbox"><g class="c1 node n14 p0 root" transform="translate(118.49 70.7276)"><g class="a14 c2 m5 node n12 p0 s5" transform="translate(0.0 17.0424)"><g class="a12 c2 node n10 p0" transform="translate(-43.5938 11.5994)"><g class="a10 c2 node n8 p0" transform="translate(29.0625 2.51333)"><g class="a8 i0 leaf node n1 p0 sample" transform="translate(-19.375 2.71726)"><path class="edge e4" d="M 0 0 V -2.71726 H 19.375"/><rect class="sym" height="6" width="6" x="-3" y="-3"/><text class="lab" transform="translate(0 11)">1</text></g><g class="a8 c2 node n6 p0" transform="translate(19.375 1.22999)"><g class="a6 i1 leaf node n3 p0 sample" transform="translate(-12.9167 1.48727)"><path class="edge e0" d="M 0 0 V -1.48727 H 12.9167"/><rect class="sym" height="6" width="6" x="-3" y="-3"/><text class="lab" transform="translate(0 11)">3</text></g><g class="a6 i2 leaf node n4 p0 sample" transform="translate(12.9167 1.48727)"><path class="edge e1" d="M 0 0 V -1.48727 H -12.9167"/><rect class="sym" height="6" width="6" x="-3" y="-3"/><text class="lab" transform="translate(0 11)">4</text></g><path class="edge e5" d="M 0 0 V -1.22999 H -19.375"/><circle class="sym" cx="0" cy="0" r="3"/><text class="lab rgt" transform="translate(3 -7)">6</text></g><path class="edge e8" d="M 0 0 V -2.51333 H -29.0625"/><circle class="sym" cx="0" cy="0" r="3"/><text class="lab rgt" transform="translate(3 -7)">8</text></g><g class="a10 c2 node n9 p0" transform="translate(-29.0625 0.905871)"><g class="a9 i2 leaf node n5 p0 sample" transform="translate(12.9167 4.32472)"><path class="edge e6" d="M 0 0 V -4.32472 H -12.9167"/><rect class="sym" height="6" width="6" x="-3" y="-3"/><text class="lab" transform="translate(0 11)">5</text></g><g class="a9 c1 node n7 p0" transform="translate(-12.9167 1.90155)"><g class="a7 i0 leaf node n0 p0 sample" transform="translate(0.0 2.42317)"><path class="edge e2" d="M 0 0 V -2.42317 H 0.0"/><rect class="sym" height="6" width="6" x="-3" y="-3"/><text class="lab" transform="translate(0 11)">0</text></g><path class="edge e7" d="M 0 0 V -1.90155 H 12.9167"/><circle class="sym" cx="0" cy="0" r="3"/><text class="lab lft" transform="translate(-3 -7)">7</text></g><path class="edge e9" d="M 0 0 V -0.905871 H 29.0625"/><circle class="sym" cx="0" cy="0" r="3"/><text class="lab lft" transform="translate(-3 -7)">9</text></g><path class="edge e12" d="M 0 0 V -11.5994 H 43.5938"/><circle class="sym" cx="0" cy="0" r="3"/><text class="lab lft" transform="translate(-3 -7)">10</text></g><g class="a12 c1 node n11 p0" transform="translate(43.5938 3.2516)"><g class="a11 i1 leaf m4 node n2 p0 s4 sample" transform="translate(0.0 13.5783)"><path class="edge e10" d="M 0 0 V -13.5783 H 0.0"/><g class="mut m4 s4" transform="translate(0 -10.572)"><line x1="0" x2="0" y1="0" y2="10.572"/><path class="sym" d="M -3,-3 l 6,6 M -3,3 l 6,-6"/><text class="lab lft" transform="translate(-5 0)">4</text></g><rect class="sym" height="6" width="6" x="-3" y="-3"/><text class="lab" transform="translate(0 11)">2</text></g><path class="edge e13" d="M 0 0 V -3.2516 H -43.5938"/><circle class="sym" cx="0" cy="0" r="3"/><text class="lab rgt" transform="translate(3 -7)">11</text></g><path class="edge e16" d="M 0 0 V -17.0424 H 0.0"/><g class="mut m5 s5" transform="translate(0 -10.3085)"><line x1="0" x2="0" y1="0" y2="10.3085"/><path class="sym" d="M -3,-3 l 6,6 M -3,3 l 6,-6"/><text class="lab lft" transform="translate(-5 0)">5</text></g><circle class="sym" cx="0" cy="0" r="3"/><text class="lab lft" transform="translate(-3 -7)">12</text></g><path class="edge root" d="M 0 0 V -10.5111 H 0"/><circle class="sym" cx="0" cy="0" r="3"/><text class="lab rgt" transform="translate(3 -7)">14</text></g></g></g><g class="tree t6" transform="translate(1190 16.8)"><g class="plotbox"><g class="c2 m7 node n12 p0 root s7" transform="translate(118.49 87.7701)"><g class="a12 c2 node n10 p0" transform="translate(-43.5938 11.5994)"><g class="a10 c2 node n8 p0" transform="translate(29.0625 2.51333)"><g class="a8 i0 leaf node n1 p0 sample" transform="translate(-19.375 2.71726)"><path class="edge e4" d="M 0 0 V -2.71726 H 19.375"/><rect class="sym" height="6" width="6" x="-3" y="-3"/><text class="lab" transform="translate(0 11)">1</text></g><g class="a8 c2 node n6 p0" transform="translate(19.375 1.22999)"><g class="a6 i1 leaf m6 node n3 p0 s6 sample" transform="translate(-12.9167 1.48727)"><path class="edge e0" d="M 0 0 V -1.48727 H 12.9167"/><g class="mut m6 s6" transform="translate(0 -0.715046)"><line x1="0" x2="0" y1="0" y2="0.715046"/><path class="sym" d="M -3,-3 l 6,6 M -3,3 l 6,-6"/><text class="lab lft" transform="translate(-5 0)">6</text></g><rect class="sym" height="6" width="6" x="-3" y="-3"/><text class="lab" transform="translate(0 11)">3</text></g><g class="a6 i2 leaf node n4 p0 sample" transform="translate(12.9167 1.48727)"><path class="edge e1" d="M 0 0 V -1.48727 H -12.9167"/><rect class="sym" height="6" width="6" x="-3" y="-3"/><text class="lab" transform="translate(0 11)">4</text></g><path class="edge e5" d="M 0 0 V -1.22999 H -19.375"/><circle class="sym" cx="0" cy="0" r="3"/><text class="lab rgt" transform="translate(3 -7)">6</text></g><path class="edge e8" d="M 0 0 V -2.51333 H -29.0625"/><circle class="sym" cx="0" cy="0" r="3"/><text class="lab rgt" transform="translate(3 -7)">8</text></g><g class="a10 c2 node n9 p0" transform="translate(-29.0625 0.905871)"><g class="a9 i2 leaf node n5 p0 sample" transform="translate(12.9167 4.32472)"><path class="edge e6" d="M 0 0 V -4.32472 H -12.9167"/><rect class="sym" height="6" width="6" x="-3" y="-3"/><text class="lab" transform="translate(0 11)">5</text></g><g class="a9 c1 node n7 p0" transform="translate(-12.9167 1.90155)"><g class="a7 i0 leaf node n0 p0 sample" transform="translate(0.0 2.42317)"><path class="edge e2" d="M 0 0 V -2.42317 H 0.0"/><rect class="sym" height="6" width="6" x="-3" y="-3"/><text class="lab" transform="translate(0 11)">0</text></g><path class="edge e7" d="M 0 0 V -1.90155 H 12.9167"/><circle class="sym" cx="0" cy="0" r="3"/><text class="lab lft" transform="translate(-3 -7)">7</text></g><path class="edge e9" d="M 0 0 V -0.905871 H 29.0625"/><circle class="sym" cx="0" cy="0" r="3"/><text class="lab lft" transform="translate(-3 -7)">9</text></g><path class="edge e12" d="M 0 0 V -11.5994 H 43.5938"/><circle class="sym" cx="0" cy="0" r="3"/><text class="lab lft" transform="translate(-3 -7)">10</text></g><g class="a12 c1 node n11 p0" transform="translate(43.5938 3.2516)"><g class="a11 i1 leaf node n2 p0 sample" transform="translate(0.0 13.5783)"><path class="edge e10" d="M 0 0 V -13.5783 H 0.0"/><rect class="sym" height="6" width="6" x="-3" y="-3"/><text class="lab" transform="translate(0 11)">2</text></g><path class="edge e13" d="M 0 0 V -3.2516 H -43.5938"/><circle class="sym" cx="0" cy="0" r="3"/><text class="lab rgt" transform="translate(3 -7)">11</text></g><path class="edge root" d="M 0 0 V -24.334 H 0"/><g class="mut m7 s7" transform="translate(0 -24.334)"><line x1="0" x2="0" y1="0" y2="24.334"/><path class="sym" d="M -3,-3 l 6,6 M -3,3 l 6,-6"/><text class="lab rgt" transform="translate(5 0)">7</text></g><circle class="sym" cx="0" cy="0" r="3"/><text class="lab rgt" transform="translate(3 -7)">12</text></g></g></g><g class="tree t7" transform="translate(1385 16.8)"><g class="plotbox"><g class="c2 node n12 p0 root" transform="translate(118.49 87.7701)"><g class="a12 c2 node n10 p0" transform="translate(-43.5938 11.5994)"><g class="a10 c2 node n8 p0" transform="translate(29.0625 2.51333)"><g class="a8 i0 leaf node n1 p0 sample" transform="translate(-19.375 2.71726)"><path class="edge e4" d="M 0 0 V -2.71726 H 19.375"/><rect class="sym" height="6" width="6" x="-3" y="-3"/><text class="lab" transform="translate(0 11)">1</text></g><g class="a8 c2 node n6 p0" transform="translate(19.375 1.22999)"><g class="a6 i1 leaf node n3 p0 sample" transform="translate(-12.9167 1.48727)"><path class="edge e0" d="M 0 0 V -1.48727 H 12.9167"/><rect class="sym" height="6" width="6" x="-3" y="-3"/><text class="lab" transform="translate(0 11)">3</text></g><g class="a6 i2 leaf node n4 p0 sample" transform="translate(12.9167 1.48727)"><path class="edge e1" d="M 0 0 V -1.48727 H -12.9167"/><rect class="sym" height="6" width="6" x="-3" y="-3"/><text class="lab" transform="translate(0 11)">4</text></g><path class="edge e5" d="M 0 0 V -1.22999 H -19.375"/><circle class="sym" cx="0" cy="0" r="3"/><text class="lab rgt" transform="translate(3 -7)">6</text></g><path class="edge e8" d="M 0 0 V -2.51333 H -29.0625"/><circle class="sym" cx="0" cy="0" r="3"/><text class="lab rgt" transform="translate(3 -7)">8</text></g><g class="a10 c1 node n9 p0" transform="translate(-29.0625 0.905871)"><g class="a9 c2 node n7 p0" transform="translate(0.0 1.90155)"><g class="a7 i0 leaf node n0 p0 sample" transform="translate(-12.9167 2.42317)"><path class="edge e2" d="M 0 0 V -2.42317 H 12.9167"/><rect class="sym" height="6" width="6" x="-3" y="-3"/><text class="lab" transform="translate(0 11)">0</text></g><g class="a7 i2 leaf node n5 p0 sample" transform="translate(12.9167 2.42317)"><path class="edge e3" d="M 0 0 V -2.42317 H -12.9167"/><rect class="sym" height="6" width="6" x="-3" y="-3"/><text class="lab" transform="translate(0 11)">5</text></g><path class="edge e7" d="M 0 0 V -1.90155 H 0.0"/><circle class="sym" cx="0" cy="0" r="3"/><text class="lab lft" transform="translate(-3 -7)">7</text></g><path class="edge e9" d="M 0 0 V -0.905871 H 29.0625"/><circle class="sym" cx="0" cy="0" r="3"/><text class="lab lft" transform="translate(-3 -7)">9</text></g><path class="edge e12" d="M 0 0 V -11.5994 H 43.5938"/><circle class="sym" cx="0" cy="0" r="3"/><text class="lab lft" transform="translate(-3 -7)">10</text></g><g class="a12 c1 node n11 p0" transform="translate(43.5938 3.2516)"><g class="a11 i1 leaf node n2 p0 sample" transform="translate(0.0 13.5783)"><path class="edge e10" d="M 0 0 V -13.5783 H 0.0"/><rect class="sym" height="6" width="6" x="-3" y="-3"/><text class="lab" transform="translate(0 11)">2</text></g><path class="edge e13" d="M 0 0 V -3.2516 H -43.5938"/><circle class="sym" cx="0" cy="0" r="3"/><text class="lab rgt" transform="translate(3 -7)">11</text></g><path class="edge root" d="M 0 0 V -10.5111 H 0"/><circle class="sym" cx="0" cy="0" r="3"/><text class="lab rgt" transform="translate(3 -7)">12</text></g></g></g></g></g><g class="title" transform="translate(800 0)"><text dominant-baseline="hanging" text-anchor="middle">ARG simplified to samples [14 15 16 17 18 19], leaving part-coalescent nodes: this has 19 edges</text></g></svg>