<svg baseProfile="full" height="200" version="1.1" width="600" xmlns="http://www.w3.org/2000/svg" xmlns:ev="http://www.w3.org/2001/xml-events" xmlns:xlink="http://www.w3.org/1999/xlink"><defs><style type="text/css"><![CDATA[.background path {fill: #808080; fill-opacity: 0}.background path:nth-child(odd) {fill-opacity: .1}.axes {font-size: 14px}.x-axis .tick .lab {font-weight: bold; dominant-baseline: hanging}.axes, .tree {font-size: 14px; text-anchor: middle}.axes line, .edge {stroke: black; fill: none}.axes .ax-skip {stroke-dasharray: 4}.y-axis .grid {stroke: #FAFAFA}.node > .sym {fill: black; stroke: none}.site > .sym {stroke: black}.mut text {fill: red; font-style: italic}.mut.extra text {fill: hotpink}.mut line {fill: none; stroke: none}.mut .sym {fill: none; stroke: red}.mut.extra .sym {stroke: hotpink}.node .mut .sym {stroke-width: 1.5px}.tree text, .tree-sequence text {dominant-baseline: central}.plotbox .lab.lft {text-anchor: end}.plotbox .lab.rgt {text-anchor: start}]]></style></defs><g class="tree-sequence"><g class="background"><path d="M56.8,0 l174.4,0 l0,138.2 l79.6136,25 l0,5 l-254.014,0 l0,-5 l0,-25 l0,-138.2z" /><path d="M231.2,0 l174.4,0 l0,138.2 l116.9,25 l0,5 l-211.687,0 l0,-5 l-79.614,-25 l0,-138.2z" /><path d="M405.6,0 l174.4,0 l0,138.2 l0,25 l0,5 l-57.4997,0 l0,-5 l-116.9,-25 l0,-138.2z" /></g><g class="axes"><g class="x-axis"><g class="title" transform="translate(318.4 200)"><text class="lab" text-anchor="middle" transform="translate(0 -11)">Genome position</text></g><line class="ax-line" x1="56.8" x2="580" y1="163.2" y2="163.2" /><g class="ticks"><g class="tick" transform="translate(310.814 163.2)"><line x1="0" x2="0" y1="0" y2="5" /><g transform="translate(0 6)"><text class="lab">9855</text></g></g><g class="tick" transform="translate(522.5 163.2)"><line x1="0" x2="0" y1="0" y2="5" /><g transform="translate(0 6)"><text class="lab">13901</text></g></g></g><g class="site s1" transform="translate(124.554 163.2)"><line class="sym" x1="0" x2="0" y1="0" y2="-10" /><g class="mut m1"><polyline class="sym" points="2.5,-6.5 0,-1.5 -2.5,-6.5" /></g></g><g class="site s2" transform="translate(169.445 163.2)"><line class="sym" x1="0" x2="0" y1="0" y2="-10" /><g class="mut m2"><polyline class="sym" points="2.5,-6.5 0,-1.5 -2.5,-6.5" /></g></g><g class="site s3" transform="translate(197.541 163.2)"><line class="sym" x1="0" x2="0" y1="0" y2="-10" /><g class="mut m3"><polyline class="sym" points="2.5,-6.5 0,-1.5 -2.5,-6.5" /></g></g><g class="site s4" transform="translate(206.226 163.2)"><line class="sym" x1="0" x2="0" y1="0" y2="-10" /><g class="mut m4"><polyline class="sym" points="2.5,-6.5 0,-1.5 -2.5,-6.5" /></g></g><g class="site s5" transform="translate(235.107 163.2)"><line class="sym" x1="0" x2="0" y1="0" y2="-10" /><g class="mut m5"><polyline class="sym" points="2.5,-6.5 0,-1.5 -2.5,-6.5" /></g></g><g class="site s6" transform="translate(237.513 163.2)"><line class="sym" x1="0" x2="0" y1="0" y2="-10" /><g class="mut m6"><polyline class="sym" points="2.5,-6.5 0,-1.5 -2.5,-6.5" /></g></g><g class="site s7" transform="translate(248.919 163.2)"><line class="sym" x1="0" x2="0" y1="0" y2="-10" /><g class="mut m7"><polyline class="sym" points="2.5,-6.5 0,-1.5 -2.5,-6.5" /></g></g><g class="site s8" transform="translate(270.266 163.2)"><line class="sym" x1="0" x2="0" y1="0" y2="-10" /><g class="mut m8"><polyline class="sym" points="2.5,-6.5 0,-1.5 -2.5,-6.5" /></g></g><g class="site s9" transform="translate(435.231 163.2)"><line class="sym" x1="0" x2="0" y1="0" y2="-10" /><g class="mut m9"><polyline class="sym" points="2.5,-6.5 0,-1.5 -2.5,-6.5" /></g></g><g class="site s10" transform="translate(442.817 163.2)"><line class="sym" x1="0" x2="0" y1="0" y2="-10" /><g class="mut m10"><polyline class="sym" points="2.5,-6.5 0,-1.5 -2.5,-6.5" /></g></g><g class="site s11" transform="translate(450.403 163.2)"><line class="sym" x1="0" x2="0" y1="0" y2="-10" /><g class="mut m11"><polyline class="sym" points="2.5,-6.5 0,-1.5 -2.5,-6.5" /></g></g><g class="site s12" transform="translate(468.192 163.2)"><line class="sym" x1="0" x2="0" y1="0" y2="-10" /><g class="mut m12"><polyline class="sym" points="2.5,-6.5 0,-1.5 -2.5,-6.5" /></g></g><g class="site s13" transform="translate(488.859 163.2)"><line class="sym" x1="0" x2="0" y1="0" y2="-10" /><g class="mut m13"><polyline class="sym" points="2.5,-6.5 0,-1.5 -2.5,-6.5" /></g></g><g class="site s14" transform="translate(525.744 163.2)"><line class="sym" x1="0" x2="0" y1="0" y2="-10" /><g class="mut m15"><polyline class="sym" points="2.5,-6.5 0,-1.5 -2.5,-6.5" /></g><g class="mut m14"><polyline class="sym" points="2.5,-10.5 0,-5.5 -2.5,-10.5" /></g></g></g><g class="y-axis"><g class="title" transform="translate(0 65.7)"><text class="lab" text-anchor="middle" transform="translate(11) rotate(-90)">Time (generations)</text></g><line class="ax-line" x1="56.8" x2="56.8" y1="121.4" y2="10" /><g class="ticks"><g class="tick" transform="translate(56.8 121.4)"><line x1="0" x2="-5" y1="0" y2="0" /><g transform="translate(-6 0)"><text class="lab" text-anchor="end">0</text></g></g><g class="tick" transform="translate(56.8 93.4029)"><line x1="0" x2="-5" y1="0" y2="0" /><g transform="translate(-6 0)"><text class="lab" text-anchor="end">1000</text></g></g><g class="tick" transform="translate(56.8 65.4058)"><line x1="0" x2="-5" y1="0" y2="0" /><g transform="translate(-6 0)"><text class="lab" text-anchor="end">2000</text></g></g><g class="tick" transform="translate(56.8 37.4087)"><line x1="0" x2="-5" y1="0" y2="0" /><g transform="translate(-6 0)"><text class="lab" text-anchor="end">3000</text></g></g><g class="tick" transform="translate(56.8 9.41159)"><line x1="0" x2="-5" y1="0" y2="0" /><g transform="translate(-6 0)"><text class="lab" text-anchor="end">4000</text></g></g></g></g></g><g class="plotbox trees"><g class="tree t0" transform="translate(56.8 0)"><g class="plotbox"><g class="c2 node n17 p3 root" transform="translate(85.625 26.8)"><g class="a17 c2 m5 node n13 p3 s5" transform="translate(-39.375 40.2375)"><g class="a13 i0 leaf m6 node n0 p0 s6 sample" transform="translate(-17.85 54.3625)"><path class="edge" d="M 0 0 V -54.3625 H 17.85" /><g class="mut m6 s6" transform="translate(0 -17.3034)"><line x1="0" x2="0" y1="0" y2="17.3034" /><path class="sym" d="M -3,-3 l 6,6 M -3,3 l 6,-6" /><text class="lab lft" transform="translate(-5 0)">A→G</text></g><rect class="sym" height="6" width="6" x="-3" y="-3" /><text class="lab" transform="translate(0 11)">A</text></g><g class="a13 c2 node n12 p3" transform="translate(17.85 14.0706)"><g class="a12 i0 leaf m3 node n1 p0 s3 sample" transform="translate(-18.9 40.2919)"><path class="edge" d="M 0 0 V -40.2919 H 18.9" /><g class="mut m3 s3" transform="translate(0 -29.1465)"><line x1="0" x2="0" y1="0" y2="29.1465" /><path class="sym" d="M -3,-3 l 6,6 M -3,3 l 6,-6" /><text class="lab lft" transform="translate(-5 0)">A→G</text></g><rect class="sym" height="6" width="6" x="-3" y="-3" /><text class="lab" transform="translate(0 11)">A</text></g><g class="a12 c2 node n9 p3" transform="translate(18.9 11.2733)"><g class="a9 i2 leaf node n4 p1 sample" transform="translate(12.6 29.0186)"><path class="edge" d="M 0 0 V -29.0186 H -12.6" /><rect class="sym" height="6" width="6" x="-3" y="-3" /><text class="lab" transform="translate(0 11)">B</text></g><g class="a9 c2 m1 m4 m7 node n8 p0 s1 s4 s7" transform="translate(-12.6 28.067)"><g class="a8 i1 leaf node n2 p0 sample" transform="translate(-8.4 0.95157)"><path class="edge" d="M 0 0 V -0.95157 H 8.4" /><rect class="sym" height="6" width="6" x="-3" y="-3" /><text class="lab" transform="translate(0 11)">A</text></g><g class="a8 i1 leaf node n3 p0 sample" transform="translate(8.4 0.95157)"><path class="edge" d="M 0 0 V -0.95157 H -8.4" /><rect class="sym" height="6" width="6" x="-3" y="-3" /><text class="lab" transform="translate(0 11)">A</text></g><path class="edge" d="M 0 0 V -28.067 H 12.6" /><g class="mut m1 s1" transform="translate(0 -10.0438)"><line x1="0" x2="0" y1="0" y2="10.0438" /><path class="sym" d="M -3,-3 l 6,6 M -3,3 l 6,-6" /><text class="lab lft" transform="translate(-5 0)">G→C</text></g><g class="mut m7 s7" transform="translate(0 -6.48256)"><line x1="0" x2="0" y1="0" y2="6.48256" /><path class="sym" d="M -3,-3 l 6,6 M -3,3 l 6,-6" /><text class="lab lft" transform="translate(-5 0)">G→C</text></g><g class="mut m4 s4" transform="translate(0 -6.2275)"><line x1="0" x2="0" y1="0" y2="6.2275" /><path class="sym" d="M -3,-3 l 6,6 M -3,3 l 6,-6" /><text class="lab lft" transform="translate(-5 0)">A→G</text></g><circle class="sym" cx="0" cy="0" r="3" /><text class="lab lft" transform="translate(-3 -7.0)" /></g><path class="edge" d="M 0 0 V -11.2733 H -18.9" /><circle class="sym" cx="0" cy="0" r="3" /><text class="lab rgt" transform="translate(3 -7.0)" /></g><path class="edge" d="M 0 0 V -14.0706 H -17.85" /><circle class="sym" cx="0" cy="0" r="3" /><text class="lab rgt" transform="translate(3 -7.0)" /></g><path class="edge" d="M 0 0 V -40.2375 H 39.375" /><g class="mut m5 s5" transform="translate(0 -4.76423)"><line x1="0" x2="0" y1="0" y2="4.76423" /><path class="sym" d="M -3,-3 l 6,6 M -3,3 l 6,-6" /><text class="lab lft" transform="translate(-5 0)">G→A</text></g><circle class="sym" cx="0" cy="0" r="3" /><text class="lab lft" transform="translate(-3 -7.0)" /></g><g class="a17 c2 m8 node n16 p3 s8" transform="translate(39.375 17.1723)"><g class="a16 i2 leaf node n5 p1 sample" transform="translate(-12.6 77.4277)"><path class="edge" d="M 0 0 V -77.4277 H 12.6" /><rect class="sym" height="6" width="6" x="-3" y="-3" /><text class="lab" transform="translate(0 11)">B</text></g><g class="a16 c2 node n10 p3" transform="translate(12.6 47.6807)"><g class="a10 i3 leaf node n6 p2 sample" transform="translate(-8.4 29.747)"><path class="edge" d="M 0 0 V -29.747 H 8.4" /><rect class="sym" height="6" width="6" x="-3" y="-3" /><text class="lab" transform="translate(0 11)">C</text></g><g class="a10 i3 leaf m2 node n7 p2 s2 sample" transform="translate(8.4 29.747)"><path class="edge" d="M 0 0 V -29.747 H -8.4" /><g class="mut m2 s2" transform="translate(0 -13.1501)"><line x1="0" x2="0" y1="0" y2="13.1501" /><path class="sym" d="M -3,-3 l 6,6 M -3,3 l 6,-6" /><text class="lab rgt" transform="translate(5 0)">A→G</text></g><rect class="sym" height="6" width="6" x="-3" y="-3" /><text class="lab" transform="translate(0 11)">C</text></g><path class="edge" d="M 0 0 V -47.6807 H -12.6" /><circle class="sym" cx="0" cy="0" r="3" /><text class="lab rgt" transform="translate(3 -7.0)" /></g><path class="edge" d="M 0 0 V -17.1723 H -39.375" /><g class="mut m8 s8" transform="translate(0 -9.55803)"><line x1="0" x2="0" y1="0" y2="9.55803" /><path class="sym" d="M -3,-3 l 6,6 M -3,3 l 6,-6" /><text class="lab rgt" transform="translate(5 0)">G→T</text></g><circle class="sym" cx="0" cy="0" r="3" /><text class="lab rgt" transform="translate(3 -7.0)" /></g><circle class="sym" cx="0" cy="0" r="3" /><text class="lab" transform="translate(0 -11)" /></g></g></g><g class="tree t1" transform="translate(231.2 0)"><g class="plotbox"><g class="c2 node n17 p3 root" transform="translate(77.225 26.8)"><g class="a17 c2 m9 node n13 p3 s9" transform="translate(-40.425 40.2375)"><g class="a13 i0 leaf node n0 p0 sample" transform="translate(-8.4 54.3625)"><path class="edge" d="M 0 0 V -54.3625 H 8.4" /><rect class="sym" height="6" width="6" x="-3" y="-3" /><text class="lab" transform="translate(0 11)">A</text></g><g class="a13 i0 leaf node n1 p0 sample" transform="translate(8.4 54.3625)"><path class="edge" d="M 0 0 V -54.3625 H -8.4" /><rect class="sym" height="6" width="6" x="-3" y="-3" /><text class="lab" transform="translate(0 11)">A</text></g><path class="edge" d="M 0 0 V -40.2375 H 40.425" /><g class="mut m9 s9" transform="translate(0 -1.80647)"><line x1="0" x2="0" y1="0" y2="1.80647" /><path class="sym" d="M -3,-3 l 6,6 M -3,3 l 6,-6" /><text class="lab lft" transform="translate(-5 0)">G→T</text></g><circle class="sym" cx="0" cy="0" r="3" /><text class="lab lft" transform="translate(-3 -7.0)" /></g><g class="a17 c2 node n16 p3" transform="translate(40.425 17.1723)"><g class="a16 c2 node n10 p3" transform="translate(19.95 47.6807)"><g class="a10 i3 leaf m12 node n6 p2 s12 sample" transform="translate(-8.4 29.747)"><path class="edge" d="M 0 0 V -29.747 H 8.4" /><g class="mut m12 s12" transform="translate(0 -0.16764)"><line x1="0" x2="0" y1="0" y2="0.16764" /><path class="sym" d="M -3,-3 l 6,6 M -3,3 l 6,-6" /><text class="lab lft" transform="translate(-5 0)">G→A</text></g><rect class="sym" height="6" width="6" x="-3" y="-3" /><text class="lab" transform="translate(0 11)">C</text></g><g class="a10 i3 leaf node n7 p2 sample" transform="translate(8.4 29.747)"><path class="edge" d="M 0 0 V -29.747 H -8.4" /><rect class="sym" height="6" width="6" x="-3" y="-3" /><text class="lab" transform="translate(0 11)">C</text></g><path class="edge" d="M 0 0 V -47.6807 H -19.95" /><circle class="sym" cx="0" cy="0" r="3" /><text class="lab rgt" transform="translate(3 -7.0)" /></g><g class="a16 c2 node n15 p3" transform="translate(-19.95 9.99148)"><g class="a15 i2 leaf node n5 p1 sample" transform="translate(14.7 67.4362)"><path class="edge" d="M 0 0 V -67.4362 H -14.7" /><rect class="sym" height="6" width="6" x="-3" y="-3" /><text class="lab" transform="translate(0 11)">B</text></g><g class="a15 c2 m11 node n9 p3 s11" transform="translate(-14.7 38.4177)"><g class="a9 i2 leaf m13 node n4 p1 s13 sample" transform="translate(12.6 29.0186)"><path class="edge" d="M 0 0 V -29.0186 H -12.6" /><g class="mut m13 s13" transform="translate(0 -7.32564)"><line x1="0" x2="0" y1="0" y2="7.32564" /><path class="sym" d="M -3,-3 l 6,6 M -3,3 l 6,-6" /><text class="lab rgt" transform="translate(5 0)">G→A</text></g><rect class="sym" height="6" width="6" x="-3" y="-3" /><text class="lab" transform="translate(0 11)">B</text></g><g class="a9 c2 node n8 p0" transform="translate(-12.6 28.067)"><g class="a8 i1 leaf node n2 p0 sample" transform="translate(-8.4 0.95157)"><path class="edge" d="M 0 0 V -0.95157 H 8.4" /><rect class="sym" height="6" width="6" x="-3" y="-3" /><text class="lab" transform="translate(0 11)">A</text></g><g class="a8 i1 leaf m10 node n3 p0 s10 sample" transform="translate(8.4 0.95157)"><path class="edge" d="M 0 0 V -0.95157 H -8.4" /><g class="mut m10 s10" transform="translate(0 -0.0388272)"><line x1="0" x2="0" y1="0" y2="0.0388272" /><path class="sym" d="M -3,-3 l 6,6 M -3,3 l 6,-6" /><text class="lab rgt" transform="translate(5 0)">G→T</text></g><rect class="sym" height="6" width="6" x="-3" y="-3" /><text class="lab" transform="translate(0 11)">A</text></g><path class="edge" d="M 0 0 V -28.067 H 12.6" /><circle class="sym" cx="0" cy="0" r="3" /><text class="lab lft" transform="translate(-3 -7.0)" /></g><path class="edge" d="M 0 0 V -38.4177 H 14.7" /><g class="mut m11 s11" transform="translate(0 -7.38769)"><line x1="0" x2="0" y1="0" y2="7.38769" /><path class="sym" d="M -3,-3 l 6,6 M -3,3 l 6,-6" /><text class="lab lft" transform="translate(-5 0)">G→T</text></g><circle class="sym" cx="0" cy="0" r="3" /><text class="lab lft" transform="translate(-3 -7.0)" /></g><path class="edge" d="M 0 0 V -9.99148 H 19.95" /><circle class="sym" cx="0" cy="0" r="3" /><text class="lab lft" transform="translate(-3 -7.0)" /></g><path class="edge" d="M 0 0 V -17.1723 H -40.425" /><circle class="sym" cx="0" cy="0" r="3" /><text class="lab rgt" transform="translate(3 -7.0)" /></g><circle class="sym" cx="0" cy="0" r="3" /><text class="lab" transform="translate(0 -11)" /></g></g></g><g class="tree t2" transform="translate(405.6 0)"><g class="plotbox"><g class="c2 node n17 p3 root" transform="translate(77.225 26.8)"><g class="a17 c2 node n16 p3" transform="translate(40.425 17.1723)"><g class="a16 c2 node n10 p3" transform="translate(19.95 47.6807)"><g class="a10 i3 leaf m15 node n6 p2 s14 sample" transform="translate(-8.4 29.747)"><path class="edge" d="M 0 0 V -29.747 H 8.4" /><g class="mut m15 s14" transform="translate(0 -10.3659)"><line x1="0" x2="0" y1="0" y2="10.3659" /><path class="sym" d="M -3,-3 l 6,6 M -3,3 l 6,-6" /><text class="lab lft" transform="translate(-5 0)">T→G</text></g><rect class="sym" height="6" width="6" x="-3" y="-3" /><text class="lab" transform="translate(0 11)">C</text></g><g class="a10 i3 leaf node n7 p2 sample" transform="translate(8.4 29.747)"><path class="edge" d="M 0 0 V -29.747 H -8.4" /><rect class="sym" height="6" width="6" x="-3" y="-3" /><text class="lab" transform="translate(0 11)">C</text></g><path class="edge" d="M 0 0 V -47.6807 H -19.95" /><circle class="sym" cx="0" cy="0" r="3" /><text class="lab rgt" transform="translate(3 -7.0)" /></g><g class="a16 c2 node n15 p3" transform="translate(-19.95 9.99148)"><g class="a15 i2 leaf node n5 p1 sample" transform="translate(14.7 67.4362)"><path class="edge" d="M 0 0 V -67.4362 H -14.7" /><rect class="sym" height="6" width="6" x="-3" y="-3" /><text class="lab" transform="translate(0 11)">B</text></g><g class="a15 c2 node n9 p3" transform="translate(-14.7 38.4177)"><g class="a9 i2 leaf node n4 p1 sample" transform="translate(12.6 29.0186)"><path class="edge" d="M 0 0 V -29.0186 H -12.6" /><rect class="sym" height="6" width="6" x="-3" y="-3" /><text class="lab" transform="translate(0 11)">B</text></g><g class="a9 c2 node n8 p0" transform="translate(-12.6 28.067)"><g class="a8 i1 leaf node n2 p0 sample" transform="translate(-8.4 0.95157)"><path class="edge" d="M 0 0 V -0.95157 H 8.4" /><rect class="sym" height="6" width="6" x="-3" y="-3" /><text class="lab" transform="translate(0 11)">A</text></g><g class="a8 i1 leaf node n3 p0 sample" transform="translate(8.4 0.95157)"><path class="edge" d="M 0 0 V -0.95157 H -8.4" /><rect class="sym" height="6" width="6" x="-3" y="-3" /><text class="lab" transform="translate(0 11)">A</text></g><path class="edge" d="M 0 0 V -28.067 H 12.6" /><circle class="sym" cx="0" cy="0" r="3" /><text class="lab lft" transform="translate(-3 -7.0)" /></g><path class="edge" d="M 0 0 V -38.4177 H 14.7" /><circle class="sym" cx="0" cy="0" r="3" /><text class="lab lft" transform="translate(-3 -7.0)" /></g><path class="edge" d="M 0 0 V -9.99148 H 19.95" /><circle class="sym" cx="0" cy="0" r="3" /><text class="lab lft" transform="translate(-3 -7.0)" /></g><path class="edge" d="M 0 0 V -17.1723 H -40.425" /><circle class="sym" cx="0" cy="0" r="3" /><text class="lab rgt" transform="translate(3 -7.0)" /></g><g class="a17 c2 node n14 p3" transform="translate(-40.425 36.4658)"><g class="a14 i0 leaf node n0 p0 sample" transform="translate(-8.4 58.1342)"><path class="edge" d="M 0 0 V -58.1342 H 8.4" /><rect class="sym" height="6" width="6" x="-3" y="-3" /><text class="lab" transform="translate(0 11)">A</text></g><g class="a14 i0 leaf m14 node n1 p0 s14 sample" transform="translate(8.4 58.1342)"><path class="edge" d="M 0 0 V -58.1342 H -8.4" /><g class="mut m14 s14" transform="translate(0 -17.3484)"><line x1="0" x2="0" y1="0" y2="17.3484" /><path class="sym" d="M -3,-3 l 6,6 M -3,3 l 6,-6" /><text class="lab rgt" transform="translate(5 0)">T→G</text></g><rect class="sym" height="6" width="6" x="-3" y="-3" /><text class="lab" transform="translate(0 11)">A</text></g><path class="edge" d="M 0 0 V -36.4658 H 40.425" /><circle class="sym" cx="0" cy="0" r="3" /><text class="lab lft" transform="translate(-3 -7.0)" /></g><circle class="sym" cx="0" cy="0" r="3" /><text class="lab" transform="translate(0 -11)" /></g></g></g></g></g></svg>