<svg baseProfile="full" height="200" version="1.1" width="400" xmlns="http://www.w3.org/2000/svg" xmlns:ev="http://www.w3.org/2001/xml-events" xmlns:xlink="http://www.w3.org/1999/xlink"><defs><style type="text/css"><![CDATA[.background path {fill: #808080; fill-opacity: 0}.background path:nth-child(odd) {fill-opacity: .1}.axes {font-size: 14px}.x-axis .tick .lab {font-weight: bold; dominant-baseline: hanging}.axes, .tree {font-size: 14px; text-anchor: middle}.axes line, .edge {stroke: black; fill: none}.axes .ax-skip {stroke-dasharray: 4}.y-axis .grid {stroke: #FAFAFA}.node > .sym {fill: black; stroke: none}.site > .sym {stroke: black}.mut text {fill: red; font-style: italic}.mut.extra text {fill: hotpink}.mut line {fill: none; stroke: none}.mut .sym {fill: none; stroke: red}.mut.extra .sym {stroke: hotpink}.node .mut .sym {stroke-width: 1.5px}.tree text, .tree-sequence text {dominant-baseline: central}.plotbox .lab.lft {text-anchor: end}.plotbox .lab.rgt {text-anchor: start}]]></style></defs><g class="tree-sequence"><g class="background"><path d="M20,0 l180,0 l0,138.2 l0,25 l0,5 l-180,0 l0,-5 l0,-25 l0,-138.2z" /><path d="M200,0 l180,0 l0,138.2 l0,25 l0,5 l-180,0 l0,-5 l0,-25 l0,-138.2z" /></g><g class="axes"><g class="x-axis"><g class="title" transform="translate(200 200)"><text class="lab" text-anchor="middle" transform="translate(0 -11)">Genome position</text></g><line class="ax-line" x1="20" x2="380" y1="163.2" y2="163.2" /><g class="ticks"><g class="tick" transform="translate(20 163.2)"><line x1="0" x2="0" y1="0" y2="5" /><g transform="translate(0 6)"><text class="lab">0</text></g></g><g class="tick" transform="translate(200 163.2)"><line x1="0" x2="0" y1="0" y2="5" /><g transform="translate(0 6)"><text class="lab">1</text></g></g><g class="tick" transform="translate(380 163.2)"><line x1="0" x2="0" y1="0" y2="5" /><g transform="translate(0 6)"><text class="lab">2</text></g></g></g></g></g><g class="plotbox trees"><g class="tree t0" transform="translate(20 0)"><g class="plotbox"><g class="c1 node n17 p0 root" transform="translate(63.75 26.8)"><g class="a17 c2 node n15 p0" transform="translate(0.0 37.84)"><g class="a15 c2 node n13 p0" transform="translate(-26.25 18.92)"><g class="a13 leaf node n0 p0 sample" transform="translate(-10.5 37.84)"><path class="edge" d="M 0 0 V -37.84 H 10.5" /><rect class="sym" height="6" width="6" x="-3" y="-3" /><text class="lab" transform="translate(0 11)">0</text></g><g class="a13 c2 node n11 p0" transform="translate(10.5 18.92)"><g class="a11 leaf node n4 p0 sample" transform="translate(-7 18.92)"><path class="edge" d="M 0 0 V -18.92 H 7" /><rect class="sym" height="6" width="6" x="-3" y="-3" /><text class="lab" transform="translate(0 11)">4</text></g><g class="a11 leaf node n9 p0 sample" transform="translate(7 18.92)"><path class="edge" d="M 0 0 V -18.92 H -7" /><rect class="sym" height="6" width="6" x="-3" y="-3" /><text class="lab" transform="translate(0 11)">9</text></g><path class="edge" d="M 0 0 V -18.92 H -10.5" /><circle class="sym" cx="0" cy="0" r="3" /><text class="lab rgt" transform="translate(3 -7.0)">11</text></g><path class="edge" d="M 0 0 V -18.92 H 26.25" /><circle class="sym" cx="0" cy="0" r="3" /><text class="lab lft" transform="translate(-3 -7.0)">13</text></g><g class="a15 c3 node n14 p0" transform="translate(26.25 18.92)"><g class="a14 leaf node n1 p0 sample" transform="translate(-21 37.84)"><path class="edge" d="M 0 0 V -37.84 H 21" /><rect class="sym" height="6" width="6" x="-3" y="-3" /><text class="lab" transform="translate(0 11)">1</text></g><g class="a14 leaf node n8 p0 sample" transform="translate(21 37.84)"><path class="edge" d="M 0 0 V -37.84 H -21" /><rect class="sym" height="6" width="6" x="-3" y="-3" /><text class="lab" transform="translate(0 11)">8</text></g><g class="a14 c2 node n12 p0" transform="translate(0.0 18.92)"><g class="a12 leaf node n5 p0 sample" transform="translate(-7 18.92)"><path class="edge" d="M 0 0 V -18.92 H 7" /><rect class="sym" height="6" width="6" x="-3" y="-3" /><text class="lab" transform="translate(0 11)">5</text></g><g class="a12 leaf node n7 p0 sample" transform="translate(7 18.92)"><path class="edge" d="M 0 0 V -18.92 H -7" /><rect class="sym" height="6" width="6" x="-3" y="-3" /><text class="lab" transform="translate(0 11)">7</text></g><path class="edge" d="M 0 0 V -18.92 H 0.0" /><circle class="sym" cx="0" cy="0" r="3" /><text class="lab rgt" transform="translate(3 -7.0)">12</text></g><path class="edge" d="M 0 0 V -18.92 H -26.25" /><circle class="sym" cx="0" cy="0" r="3" /><text class="lab rgt" transform="translate(3 -7.0)">14</text></g><path class="edge" d="M 0 0 V -37.84 H 0.0" /><circle class="sym" cx="0" cy="0" r="3" /><text class="lab lft" transform="translate(-3 -7.0)">15</text></g><circle class="sym" cx="0" cy="0" r="3" /><text class="lab" transform="translate(0 -11)">17</text></g><g class="c1 node n18 p0 root" transform="translate(139 26.8)"><g class="a18 c3 node n10 p0" transform="translate(0.0 75.68)"><g class="a10 leaf node n2 p0 sample" transform="translate(-14 18.92)"><path class="edge" d="M 0 0 V -18.92 H 14" /><rect class="sym" height="6" width="6" x="-3" y="-3" /><text class="lab" transform="translate(0 11)">2</text></g><g class="a10 leaf node n3 p0 sample" transform="translate(0.0 18.92)"><path class="edge" d="M 0 0 V -18.92 H 0.0" /><rect class="sym" height="6" width="6" x="-3" y="-3" /><text class="lab" transform="translate(0 11)">3</text></g><g class="a10 leaf node n6 p0 sample" transform="translate(14 18.92)"><path class="edge" d="M 0 0 V -18.92 H -14" /><rect class="sym" height="6" width="6" x="-3" y="-3" /><text class="lab" transform="translate(0 11)">6</text></g><path class="edge" d="M 0 0 V -75.68 H 0.0" /><circle class="sym" cx="0" cy="0" r="3" /><text class="lab lft" transform="translate(-3 -7.0)">10</text></g><circle class="sym" cx="0" cy="0" r="3" /><text class="lab" transform="translate(0 -11)">18</text></g></g></g><g class="tree t1" transform="translate(200 0)"><g class="plotbox"><g class="c2 node n16 p0 root" transform="translate(34 26.8)"><g class="a16 leaf node n5 p0 sample" transform="translate(-7 94.6)"><path class="edge" d="M 0 0 V -94.6 H 7" /><rect class="sym" height="6" width="6" x="-3" y="-3" /><text class="lab" transform="translate(0 11)">5</text></g><g class="a16 leaf node n7 p0 sample" transform="translate(7 94.6)"><path class="edge" d="M 0 0 V -94.6 H -7" /><rect class="sym" height="6" width="6" x="-3" y="-3" /><text class="lab" transform="translate(0 11)">7</text></g><circle class="sym" cx="0" cy="0" r="3" /><text class="lab" transform="translate(0 -11)">16</text></g><g class="c1 node n17 p0 root" transform="translate(90 26.8)"><g class="a17 c6 node n11 p0" transform="translate(0.0 75.68)"><g class="a11 leaf node n4 p0 sample" transform="translate(-7 18.92)"><path class="edge" d="M 0 0 V -18.92 H 7" /><rect class="sym" height="6" width="6" x="-3" y="-3" /><text class="lab" transform="translate(0 11)">4</text></g><g class="a11 leaf node n9 p0 sample" transform="translate(35 18.92)"><path class="edge" d="M 0 0 V -18.92 H -35" /><rect class="sym" height="6" width="6" x="-3" y="-3" /><text class="lab" transform="translate(0 11)">9</text></g><g class="a11 leaf node n0 p0 sample" transform="translate(-35 18.92)"><path class="edge" d="M 0 0 V -18.92 H 35" /><rect class="sym" height="6" width="6" x="-3" y="-3" /><text class="lab" transform="translate(0 11)">0</text></g><g class="a11 leaf node n3 p0 sample" transform="translate(-21 18.92)"><path class="edge" d="M 0 0 V -18.92 H 21" /><rect class="sym" height="6" width="6" x="-3" y="-3" /><text class="lab" transform="translate(0 11)">3</text></g><g class="a11 leaf node n6 p0 sample" transform="translate(7 18.92)"><path class="edge" d="M 0 0 V -18.92 H -7" /><rect class="sym" height="6" width="6" x="-3" y="-3" /><text class="lab" transform="translate(0 11)">6</text></g><g class="a11 leaf node n8 p0 sample" transform="translate(21 18.92)"><path class="edge" d="M 0 0 V -18.92 H -21" /><rect class="sym" height="6" width="6" x="-3" y="-3" /><text class="lab" transform="translate(0 11)">8</text></g><path class="edge" d="M 0 0 V -75.68 H 0.0" /><circle class="sym" cx="0" cy="0" r="3" /><text class="lab lft" transform="translate(-3 -7.0)">11</text></g><circle class="sym" cx="0" cy="0" r="3" /><text class="lab" transform="translate(0 -11)">17</text></g><g class="c1 node n18 p0 root" transform="translate(139 26.8)"><g class="a18 leaf node n2 p0 sample" transform="translate(0.0 94.6)"><path class="edge" d="M 0 0 V -94.6 H 0.0" /><rect class="sym" height="6" width="6" x="-3" y="-3" /><text class="lab" transform="translate(0 11)">2</text></g><circle class="sym" cx="0" cy="0" r="3" /><text class="lab" transform="translate(0 -11)">18</text></g><g class="c1 node n19 p0 root" transform="translate(153 26.8)"><g class="a19 leaf node n1 p0 sample" transform="translate(0.0 94.6)"><path class="edge" d="M 0 0 V -94.6 H 0.0" /><rect class="sym" height="6" width="6" x="-3" y="-3" /><text class="lab" transform="translate(0 11)">1</text></g><circle class="sym" cx="0" cy="0" r="3" /><text class="lab" transform="translate(0 -11)">19</text></g></g></g></g></g></svg>