<svg baseProfile="full" height="200" version="1.1" width="200" xmlns="http://www.w3.org/2000/svg" xmlns:ev="http://www.w3.org/2001/xml-events" xmlns:xlink="http://www.w3.org/1999/xlink"><defs><style type="text/css"><![CDATA[.background path {fill: #808080; fill-opacity: 0}.background path:nth-child(odd) {fill-opacity: .1}.axes {font-size: 14px}.x-axis .tick .lab {font-weight: bold; dominant-baseline: hanging}.axes, .tree {font-size: 14px; text-anchor: middle}.axes line, .edge {stroke: black; fill: none}.axes .ax-skip {stroke-dasharray: 4}.y-axis .grid {stroke: #FAFAFA}.node > .sym {fill: black; stroke: none}.site > .sym {stroke: black}.mut text {fill: red; font-style: italic}.mut.extra text {fill: hotpink}.mut line {fill: none; stroke: none}.mut .sym {fill: none; stroke: red}.mut.extra .sym {stroke: hotpink}.node .mut .sym {stroke-width: 1.5px}.tree text, .tree-sequence text {dominant-baseline: central}.plotbox .lab.lft {text-anchor: end}.plotbox .lab.rgt {text-anchor: start}]]></style></defs><g class="tree t0"><g class="plotbox"><g class="c2 node n18 p0 root" transform="translate(122 26.8)"><g class="a18 i9 leaf node n9 p0 sample" transform="translate(50 141.4)"><path class="edge" d="M 0 0 V -141.4 H -50" /><rect class="sym" height="6" width="6" x="-3" y="-3" /><text class="lab" transform="translate(0 11)">j</text></g><g class="a18 c2 node n17 p0" transform="translate(-50 56.6006)"><g class="a17 i0 leaf node n0 p0 sample" transform="translate(-44 84.7994)"><path class="edge" d="M 0 0 V -84.7994 H 44" /><rect class="sym" height="6" width="6" x="-3" y="-3" /><text class="lab" transform="translate(0 11)">a</text></g><g class="a17 c2 node n16 p0" transform="translate(44 32.2588)"><g class="a16 c2 node n14 p0" transform="translate(-28 16.6329)"><g class="a14 i6 leaf node n6 p0 sample" transform="translate(20 35.9078)"><path class="edge" d="M 0 0 V -35.9078 H -20" /><rect class="sym" height="6" width="6" x="-3" y="-3" /><text class="lab" transform="translate(0 11)">g</text></g><g class="a14 c2 node n13 p0" transform="translate(-20 25.8258)"><g class="a13 c2 node n11 p0" transform="translate(16 5.96048)"><g class="a11 i3 leaf node n3 p0 sample" transform="translate(-8 4.12146)"><path class="edge" d="M 0 0 V -4.12146 H 8" /><rect class="sym" height="6" width="6" x="-3" y="-3" /><text class="lab" transform="translate(0 11)">d</text></g><g class="a11 i8 leaf node n8 p0 sample" transform="translate(8 4.12146)"><path class="edge" d="M 0 0 V -4.12146 H -8" /><rect class="sym" height="6" width="6" x="-3" y="-3" /><text class="lab" transform="translate(0 11)">i</text></g><path class="edge" d="M 0 0 V -5.96048 H -16" /><circle class="sym" cx="0" cy="0" r="3" /><text class="lab rgt" transform="translate(3 -7.0)" /></g><g class="a13 c2 node n12 p0" transform="translate(-16 3.15408)"><g class="a12 i1 leaf node n1 p0 sample" transform="translate(-8 6.92786)"><path class="edge" d="M 0 0 V -6.92786 H 8" /><rect class="sym" height="6" width="6" x="-3" y="-3" /><text class="lab" transform="translate(0 11)">b</text></g><g class="a12 i4 leaf node n4 p0 sample" transform="translate(8 6.92786)"><path class="edge" d="M 0 0 V -6.92786 H -8" /><rect class="sym" height="6" width="6" x="-3" y="-3" /><text class="lab" transform="translate(0 11)">e</text></g><path class="edge" d="M 0 0 V -3.15408 H 16" /><circle class="sym" cx="0" cy="0" r="3" /><text class="lab lft" transform="translate(-3 -7.0)" /></g><path class="edge" d="M 0 0 V -25.8258 H 20" /><circle class="sym" cx="0" cy="0" r="3" /><text class="lab lft" transform="translate(-3 -7.0)" /></g><path class="edge" d="M 0 0 V -16.6329 H 28" /><circle class="sym" cx="0" cy="0" r="3" /><text class="lab lft" transform="translate(-3 -7.0)" /></g><g class="a16 c2 node n15 p0" transform="translate(28 8.13431)"><g class="a15 i5 leaf node n5 p0 sample" transform="translate(12 44.4063)"><path class="edge" d="M 0 0 V -44.4063 H -12" /><rect class="sym" height="6" width="6" x="-3" y="-3" /><text class="lab" transform="translate(0 11)">f</text></g><g class="a15 c2 node n10 p0" transform="translate(-12 41.8085)"><g class="a10 i2 leaf node n2 p0 sample" transform="translate(-8 2.59778)"><path class="edge" d="M 0 0 V -2.59778 H 8" /><rect class="sym" height="6" width="6" x="-3" y="-3" /><text class="lab" transform="translate(0 11)">c</text></g><g class="a10 i7 leaf node n7 p0 sample" transform="translate(8 2.59778)"><path class="edge" d="M 0 0 V -2.59778 H -8" /><rect class="sym" height="6" width="6" x="-3" y="-3" /><text class="lab" transform="translate(0 11)">h</text></g><path class="edge" d="M 0 0 V -41.8085 H 12" /><circle class="sym" cx="0" cy="0" r="3" /><text class="lab lft" transform="translate(-3 -7.0)" /></g><path class="edge" d="M 0 0 V -8.13431 H -28" /><circle class="sym" cx="0" cy="0" r="3" /><text class="lab rgt" transform="translate(3 -7.0)" /></g><path class="edge" d="M 0 0 V -32.2588 H -44" /><circle class="sym" cx="0" cy="0" r="3" /><text class="lab rgt" transform="translate(3 -7.0)" /></g><path class="edge" d="M 0 0 V -56.6006 H 50" /><circle class="sym" cx="0" cy="0" r="3" /><text class="lab lft" transform="translate(-3 -7.0)" /></g><circle class="sym" cx="0" cy="0" r="3" /><text class="lab" transform="translate(0 -11)" /></g></g></g></svg>