<svg baseProfile="full" class="lft_tree" height="300" version="1.1" width="600.0" xmlns="http://www.w3.org/2000/svg" xmlns:ev="http://www.w3.org/2001/xml-events" xmlns:xlink="http://www.w3.org/1999/xlink"><style>.lft_tree > .tree .n35 > .sym,.lft_tree > .tree .n20 > .sym,.lft_tree > .tree .n31 > .sym,.lft_tree > .tree .n23 > .sym,.lft_tree > .tree .n25 > .sym,.lft_tree > .tree .n48 > .sym,.lft_tree > .tree .n26 > .sym,.lft_tree > .tree .n21 > .sym,.lft_tree > .tree .n24 > .sym{r: 3px; fill: magenta; stroke: black;}.rgt_tree > .tree .n35 > .sym,.rgt_tree > .tree .n20 > .sym,.rgt_tree > .tree .n31 > .sym,.rgt_tree > .tree .n23 > .sym,.rgt_tree > .tree .n25 > .sym,.rgt_tree > .tree .n50 > .sym,.rgt_tree > .tree .n26 > .sym,.rgt_tree > .tree .n21 > .sym,.rgt_tree > .tree .n24 > .sym{r: 3px; fill: magenta; stroke: black;}</style><rect x="240" y="3" height="15" width="120" fill="#EEEEEE" stroke="black" /><circle cx="260" cy="12" r="4" fill="magenta" stroke="black" /><text font-size="12" text-anchor="middle" x="305" y="15">= shared clades</text><g class="tangle_lines"><line stroke="blue" x1="62.379999999999995" y1="271.2" x2="62.380000000000024" y2="328.8" /><line stroke="blue" x1="73.53999999999999" y1="271.2" x2="73.54000000000002" y2="328.8" /><line stroke="blue" x1="84.7" y1="271.2" x2="84.70000000000002" y2="328.8" /><line stroke="blue" x1="95.86" y1="271.2" x2="196.3" y2="328.8" /><line stroke="blue" x1="107.02" y1="271.2" x2="118.18" y2="328.8" /><line stroke="blue" x1="118.18" y1="271.2" x2="129.34" y2="328.8" /><line stroke="blue" x1="129.34" y1="271.2" x2="140.5" y2="328.8" /><line stroke="blue" x1="140.5" y1="271.2" x2="151.66" y2="328.8" /><line stroke="blue" x1="151.66" y1="271.2" x2="263.26" y2="328.8" /><line stroke="blue" x1="162.82" y1="271.2" x2="162.82" y2="328.8" /><line stroke="blue" x1="173.98000000000002" y1="271.2" x2="95.86000000000001" y2="328.8" /><line stroke="blue" x1="185.14000000000001" y1="271.2" x2="107.02000000000001" y2="328.8" /><line stroke="blue" x1="196.3" y1="271.2" x2="173.98000000000002" y2="328.8" /><line stroke="blue" x1="207.46" y1="271.2" x2="185.14" y2="328.8" /><line stroke="blue" x1="218.62" y1="271.2" x2="207.45999999999998" y2="328.8" /><line stroke="blue" x1="229.78" y1="271.2" x2="218.62" y2="328.8" /><line stroke="blue" x1="240.94" y1="271.2" x2="229.78" y2="328.8" /><line stroke="blue" x1="252.1" y1="271.2" x2="240.94" y2="328.8" /><line stroke="blue" x1="263.26" y1="271.2" x2="252.1" y2="328.8" /><line stroke="blue" x1="274.41999999999996" y1="271.2" x2="274.42" y2="328.8" /></g><svg baseProfile="full" class="rgt_tree" height="300" version="1.1" width="300.0" x="300.0" xmlns="http://www.w3.org/2000/svg" xmlns:ev="http://www.w3.org/2001/xml-events" xmlns:xlink="http://www.w3.org/1999/xlink"><defs><style type="text/css"><![CDATA[.background path {fill: #808080; fill-opacity: 0}.background path:nth-child(odd) {fill-opacity: .1}.x-regions rect {fill: yellow; stroke: black; opacity: 0.5}.axes {font-size: 14px}.x-axis .tick .lab {font-weight: bold; dominant-baseline: hanging}.axes, .tree {font-size: 14px; text-anchor: middle}.axes line, .edge {stroke: black; fill: none}.axes .ax-skip {stroke-dasharray: 4}.y-axis .grid {stroke: #FAFAFA}.node > .sym {fill: black; stroke: none}.site > .sym {stroke: black}.mut text {fill: red; font-style: italic}.mut.extra text {fill: hotpink}.mut line {fill: none; stroke: none}.mut .sym {fill: none; stroke: red}.mut.extra .sym {stroke: hotpink}.node .mut .sym {stroke-width: 1.5px}.tree text, .tree-sequence text {dominant-baseline: central}.plotbox .lab.lft {text-anchor: end}.plotbox .lab.rgt {text-anchor: start}.polytomy line {stroke: black; stroke-dasharray: 1px, 1px}.polytomy text {paint-order:stroke;stroke-width:0.3em;stroke:white}.lft_tree > g.tree, .lft_tree > g.tangle_lines {transform: translate(0, 300px) rotate(-90deg);}.lft_tree > g.tree .node > .lab {text-anchor: start; transform: rotate(90deg) translate(4px);}.lft_tree > .title {transform: translate(150.0px);}.rgt_tree > g.tree {transform: translate(300.0px, 0) rotate(90deg);}.rgt_tree > g.tree .node > .lab {text-anchor: end; transform: rotate(-90deg) translate(4px);}.rgt_tree > .title {transform: translate(150.0px);}.lft_tree .axes .y-axis .title text {transform: translate(11px) rotate(90deg);}.rgt_tree .axes .y-axis .title text {transform: translate(-11px) rotate(-90deg);}.rgt_tree .axes .y-axis .ticks .lab {text-anchor: end; transform: rotate(180deg);}]]></style></defs><g class="tree t14"><g class="axes"><g class="y-axis"><g class="title" transform="translate(300 147.5)"><text class="lab" text-anchor="middle" transform="translate(-11) rotate(90)">Time ago (generations)</text></g><line class="ax-line" x1="243.2" x2="243.2" y1="268.2" y2="26.8"/><g class="ticks"><g class="tick" transform="translate(243.2 268.2)"><line x1="0" x2="5" y1="0" y2="0"/><g transform="translate(6 0)"><text class="lab" text-anchor="start">0</text></g></g><g class="tick" transform="translate(243.2 250.356)"><line x1="0" x2="5" y1="0" y2="0"/><g transform="translate(6 0)"><text class="lab" text-anchor="start">1</text></g></g><g class="tick" transform="translate(243.2 206.47)"><line x1="0" x2="5" y1="0" y2="0"/><g transform="translate(6 0)"><text class="lab" text-anchor="start">10</text></g></g><g class="tick" transform="translate(243.2 149.392)"><line x1="0" x2="5" y1="0" y2="0"/><g transform="translate(6 0)"><text class="lab" text-anchor="start">100</text></g></g><g class="tick" transform="translate(243.2 90.3462)"><line x1="0" x2="5" y1="0" y2="0"/><g transform="translate(6 0)"><text class="lab" text-anchor="start">1000</text></g></g></g></g></g><g class="plotbox"><g class="c2 node n50 p0 root" transform="translate(153.31 43.6)"><g class="a50 c2 node n42 p1" transform="translate(50.4816 32.7113)"><g class="a42 c2 node n33 p0" transform="translate(-25.4588 36.2601)"><g class="a33 c2 node n29 p1" transform="translate(-20.2275 26.4276)"><g class="a29 c2 node n23 p0" transform="translate(15.345 50.8883)"><g class="a23 i7 leaf node n15 p0 sample" transform="translate(8.37 78.3127)"><path class="edge e6" d="M 0 0 V -78.3127 H -8.37"/><rect class="sym" height="6" width="6" x="-3" y="-3"/><text class="lab" transform="translate(0 11)"/></g><g class="a23 c2 node n21 p0" transform="translate(-8.37 4.39056)"><g class="a21 i2 leaf node n5 p0 sample" transform="translate(-5.58 73.9221)"><path class="edge e2" d="M 0 0 V -73.9221 H 5.58"/><rect class="sym" height="6" width="6" x="-3" y="-3"/><text class="lab" transform="translate(0 11)"/></g><g class="a21 i7 leaf node n14 p0 sample" transform="translate(5.58 73.9221)"><path class="edge e3" d="M 0 0 V -73.9221 H -5.58"/><rect class="sym" height="6" width="6" x="-3" y="-3"/><text class="lab" transform="translate(0 11)"/></g><path class="edge e7" d="M 0 0 V -4.39056 H 8.37"/><circle class="sym" cx="0" cy="0" r="3"/><text class="lab lft" transform="translate(-3 -7)"/></g><path class="edge e19" d="M 0 0 V -50.8883 H -15.345"/><circle class="sym" cx="0" cy="0" r="3"/><text class="lab rgt" transform="translate(3 -7)"/></g><g class="a29 c2 node n28 p1" transform="translate(-15.345 6.85607)"><g class="a28 i0 leaf node n1 p0 sample" transform="translate(-5.58 122.345)"><path class="edge e16" d="M 0 0 V -122.345 H 5.58"/><rect class="sym" height="6" width="6" x="-3" y="-3"/><text class="lab" transform="translate(0 11)"/></g><g class="a28 i2 leaf node n4 p0 sample" transform="translate(5.58 122.345)"><path class="edge e17" d="M 0 0 V -122.345 H -5.58"/><rect class="sym" height="6" width="6" x="-3" y="-3"/><text class="lab" transform="translate(0 11)"/></g><path class="edge e20" d="M 0 0 V -6.85607 H 15.345"/><circle class="sym" cx="0" cy="0" r="3"/><text class="lab lft" transform="translate(-3 -7)"/></g><path class="edge e28" d="M 0 0 V -26.4276 H 20.2275"/><circle class="sym" cx="0" cy="0" r="3"/><text class="lab lft" transform="translate(-3 -7)"/></g><g class="a33 c2 node n31 p1" transform="translate(20.2275 19.2029)"><g class="a31 i4 leaf node n8 p0 sample" transform="translate(-5.58 136.426)"><path class="edge e24" d="M 0 0 V -136.426 H 5.58"/><rect class="sym" height="6" width="6" x="-3" y="-3"/><text class="lab" transform="translate(0 11)"/></g><g class="a31 i6 leaf node n12 p0 sample" transform="translate(5.58 136.426)"><path class="edge e25" d="M 0 0 V -136.426 H -5.58"/><rect class="sym" height="6" width="6" x="-3" y="-3"/><text class="lab" transform="translate(0 11)"/></g><path class="edge e29" d="M 0 0 V -19.2029 H -20.2275"/><circle class="sym" cx="0" cy="0" r="3"/><text class="lab rgt" transform="translate(3 -7)"/></g><path class="edge e51" d="M 0 0 V -36.2601 H 25.4588"/><circle class="sym" cx="0" cy="0" r="3"/><text class="lab lft" transform="translate(-3 -7)"/></g><g class="a42 c2 node n35 p0" transform="translate(25.4588 26.608)"><g class="a35 i5 leaf node n11 p0 sample" transform="translate(8.37 165.281)"><path class="edge e32" d="M 0 0 V -165.281 H -8.37"/><rect class="sym" height="6" width="6" x="-3" y="-3"/><text class="lab" transform="translate(0 11)"/></g><g class="a35 c2 node n26 p1" transform="translate(-8.37 54.7008)"><g class="a26 i3 leaf node n7 p0 sample" transform="translate(-5.58 110.58)"><path class="edge e12" d="M 0 0 V -110.58 H 5.58"/><rect class="sym" height="6" width="6" x="-3" y="-3"/><text class="lab" transform="translate(0 11)"/></g><g class="a26 i4 leaf node n9 p0 sample" transform="translate(5.58 110.58)"><path class="edge e13" d="M 0 0 V -110.58 H -5.58"/><rect class="sym" height="6" width="6" x="-3" y="-3"/><text class="lab" transform="translate(0 11)"/></g><path class="edge e33" d="M 0 0 V -54.7008 H 8.37"/><circle class="sym" cx="0" cy="0" r="3"/><text class="lab lft" transform="translate(-3 -7)"/></g><path class="edge e52" d="M 0 0 V -26.608 H -25.4588"/><circle class="sym" cx="0" cy="0" r="3"/><text class="lab rgt" transform="translate(3 -7)"/></g><path class="edge e84" d="M 0 0 V -32.7113 H -50.4816"/><circle class="sym" cx="0" cy="0" r="3"/><text class="lab rgt" transform="translate(3 -7)"/></g><g class="a50 c2 node n49 p1" transform="translate(-50.4816 1.25709)"><g class="a49 c2 node n24 p0" transform="translate(17.6119 132.544)"><g class="a24 i3 leaf node n6 p0 sample" transform="translate(-5.58 90.7989)"><path class="edge e8" d="M 0 0 V -90.7989 H 5.58"/><rect class="sym" height="6" width="6" x="-3" y="-3"/><text class="lab" transform="translate(0 11)"/></g><g class="a24 i9 leaf node n19 p0 sample" transform="translate(5.58 90.7989)"><path class="edge e9" d="M 0 0 V -90.7989 H -5.58"/><rect class="sym" height="6" width="6" x="-3" y="-3"/><text class="lab" transform="translate(0 11)"/></g><path class="edge e80" d="M 0 0 V -132.544 H -17.6119"/><circle class="sym" cx="0" cy="0" r="3"/><text class="lab rgt" transform="translate(3 -7)"/></g><g class="a49 c2 node n41 p1" transform="translate(-17.6119 31.9914)"><g class="a41 i1 leaf node n2 p0 sample" transform="translate(18.4838 191.352)"><path class="edge e46" d="M 0 0 V -191.352 H -18.4838"/><rect class="sym" height="6" width="6" x="-3" y="-3"/><text class="lab" transform="translate(0 11)"/></g><g class="a41 c2 node n34 p1" transform="translate(-18.4838 31.2976)"><g class="a34 c2 node n25 p0" transform="translate(17.4375 56.5609)"><g class="a25 i5 leaf node n10 p0 sample" transform="translate(8.37 103.493)"><path class="edge e10" d="M 0 0 V -103.493 H -8.37"/><rect class="sym" height="6" width="6" x="-3" y="-3"/><text class="lab" transform="translate(0 11)"/></g><g class="a25 c2 node n20 p0" transform="translate(-8.37 35.256)"><g class="a20 i1 leaf node n3 p0 sample" transform="translate(-5.58 68.237)"><path class="edge e0" d="M 0 0 V -68.237 H 5.58"/><rect class="sym" height="6" width="6" x="-3" y="-3"/><text class="lab" transform="translate(0 11)"/></g><g class="a20 i6 leaf node n13 p0 sample" transform="translate(5.58 68.237)"><path class="edge e1" d="M 0 0 V -68.237 H -5.58"/><rect class="sym" height="6" width="6" x="-3" y="-3"/><text class="lab" transform="translate(0 11)"/></g><path class="edge e11" d="M 0 0 V -35.256 H 8.37"/><circle class="sym" cx="0" cy="0" r="3"/><text class="lab lft" transform="translate(-3 -7)"/></g><path class="edge e30" d="M 0 0 V -56.5609 H -17.4375"/><circle class="sym" cx="0" cy="0" r="3"/><text class="lab rgt" transform="translate(3 -7)"/></g><g class="a34 c2 node n32 p1" transform="translate(-17.4375 5.50476)"><g class="a32 i9 leaf node n18 p0 sample" transform="translate(9.765 154.549)"><path class="edge e26" d="M 0 0 V -154.549 H -9.765"/><rect class="sym" height="6" width="6" x="-3" y="-3"/><text class="lab" transform="translate(0 11)"/></g><g class="a32 c2 node n30 p0" transform="translate(-9.765 22.4389)"><g class="a30 i8 leaf node n16 p0 sample" transform="translate(8.37 132.11)"><path class="edge e22" d="M 0 0 V -132.11 H -8.37"/><rect class="sym" height="6" width="6" x="-3" y="-3"/><text class="lab" transform="translate(0 11)"/></g><g class="a30 c2 node n22 p0" transform="translate(-8.37 56.3254)"><g class="a22 i0 leaf node n0 p0 sample" transform="translate(-5.58 75.7848)"><path class="edge e4" d="M 0 0 V -75.7848 H 5.58"/><rect class="sym" height="6" width="6" x="-3" y="-3"/><text class="lab" transform="translate(0 11)"/></g><g class="a22 i8 leaf node n17 p0 sample" transform="translate(5.58 75.7848)"><path class="edge e5" d="M 0 0 V -75.7848 H -5.58"/><rect class="sym" height="6" width="6" x="-3" y="-3"/><text class="lab" transform="translate(0 11)"/></g><path class="edge e23" d="M 0 0 V -56.3254 H 8.37"/><circle class="sym" cx="0" cy="0" r="3"/><text class="lab lft" transform="translate(-3 -7)"/></g><path class="edge e27" d="M 0 0 V -22.4389 H 9.765"/><circle class="sym" cx="0" cy="0" r="3"/><text class="lab lft" transform="translate(-3 -7)"/></g><path class="edge e31" d="M 0 0 V -5.50476 H 17.4375"/><circle class="sym" cx="0" cy="0" r="3"/><text class="lab lft" transform="translate(-3 -7)"/></g><path class="edge e48" d="M 0 0 V -31.2976 H 18.4838"/><circle class="sym" cx="0" cy="0" r="3"/><text class="lab lft" transform="translate(-3 -7)"/></g><path class="edge e81" d="M 0 0 V -31.9914 H 17.6119"/><circle class="sym" cx="0" cy="0" r="3"/><text class="lab lft" transform="translate(-3 -7)"/></g><path class="edge e87" d="M 0 0 V -1.25709 H 50.4816"/><circle class="sym" cx="0" cy="0" r="3"/><text class="lab lft" transform="translate(-3 -7)"/></g><circle class="sym" cx="0" cy="0" r="3"/><text class="lab" transform="translate(0 -11)"/></g></g></g><g class="title" transform="translate(150 0)"><text dominant-baseline="hanging" text-anchor="middle">Tree 14</text></g></svg><defs><style type="text/css"><![CDATA[.background path {fill: #808080; fill-opacity: 0}.background path:nth-child(odd) {fill-opacity: .1}.x-regions rect {fill: yellow; stroke: black; opacity: 0.5}.axes {font-size: 14px}.x-axis .tick .lab {font-weight: bold; dominant-baseline: hanging}.axes, .tree {font-size: 14px; text-anchor: middle}.axes line, .edge {stroke: black; fill: none}.axes .ax-skip {stroke-dasharray: 4}.y-axis .grid {stroke: #FAFAFA}.node > .sym {fill: black; stroke: none}.site > .sym {stroke: black}.mut text {fill: red; font-style: italic}.mut.extra text {fill: hotpink}.mut line {fill: none; stroke: none}.mut .sym {fill: none; stroke: red}.mut.extra .sym {stroke: hotpink}.node .mut .sym {stroke-width: 1.5px}.tree text, .tree-sequence text {dominant-baseline: central}.plotbox .lab.lft {text-anchor: end}.plotbox .lab.rgt {text-anchor: start}.polytomy line {stroke: black; stroke-dasharray: 1px, 1px}.polytomy text {paint-order:stroke;stroke-width:0.3em;stroke:white}]]></style></defs><g class="tree t0"><g class="axes"><g class="y-axis"><g class="title" transform="translate(0 147.5)"><text class="lab" text-anchor="middle" transform="translate(11) rotate(-90)">Time ago (generations)</text></g><line class="ax-line" x1="56.8" x2="56.8" y1="268.2" y2="26.8"/><g class="ticks"><g class="tick" transform="translate(56.8 268.2)"><line x1="0" x2="-5" y1="0" y2="0"/><g transform="translate(-6 0)"><text class="lab" text-anchor="end">0</text></g></g><g class="tick" transform="translate(56.8 249.385)"><line x1="0" x2="-5" y1="0" y2="0"/><g transform="translate(-6 0)"><text class="lab" text-anchor="end">1</text></g></g><g class="tick" transform="translate(56.8 203.112)"><line x1="0" x2="-5" y1="0" y2="0"/><g transform="translate(-6 0)"><text class="lab" text-anchor="end">10</text></g></g><g class="tick" transform="translate(56.8 142.929)"><line x1="0" x2="-5" y1="0" y2="0"/><g transform="translate(-6 0)"><text class="lab" text-anchor="end">100</text></g></g><g class="tick" transform="translate(56.8 80.6712)"><line x1="0" x2="-5" y1="0" y2="0"/><g transform="translate(-6 0)"><text class="lab" text-anchor="end">1000</text></g></g></g></g></g><g class="plotbox"><g class="c2 node n48 p0 root" transform="translate(122.539 43.6)"><g class="a48 c2 node n35 p0" transform="translate(-51.7894 50.3282)"><g class="a35 i5 leaf node n0 p0 sample" transform="translate(-8.37 174.272)"><path class="edge e32" d="M 0 0 V -174.272 H 8.37"/><rect class="sym" height="6" width="6" x="-3" y="-3"/><text class="lab" transform="translate(0 11)"/></g><g class="a35 c2 node n26 p1" transform="translate(8.37 57.6764)"><g class="a26 i4 leaf node n1 p0 sample" transform="translate(-5.58 116.595)"><path class="edge e12" d="M 0 0 V -116.595 H 5.58"/><rect class="sym" height="6" width="6" x="-3" y="-3"/><text class="lab" transform="translate(0 11)"/></g><g class="a26 i3 leaf node n2 p0 sample" transform="translate(5.58 116.595)"><path class="edge e13" d="M 0 0 V -116.595 H -5.58"/><rect class="sym" height="6" width="6" x="-3" y="-3"/><text class="lab" transform="translate(0 11)"/></g><path class="edge e33" d="M 0 0 V -57.6764 H -8.37"/><circle class="sym" cx="0" cy="0" r="3"/><text class="lab rgt" transform="translate(3 -7)"/></g><path class="edge e72" d="M 0 0 V -50.3282 H 51.7894"/><circle class="sym" cx="0" cy="0" r="3"/><text class="lab lft" transform="translate(-3 -7)"/></g><g class="a48 c2 node n47 p1" transform="translate(51.7894 1.23467)"><g class="a47 c2 node n37 p0" transform="translate(-60.3338 32.1389)"><g class="a37 i1 leaf node n3 p0 sample" transform="translate(-18.135 191.226)"><path class="edge e36" d="M 0 0 V -191.226 H 18.135"/><rect class="sym" height="6" width="6" x="-3" y="-3"/><text class="lab" transform="translate(0 11)"/></g><g class="a37 c2 node n29 p1" transform="translate(18.135 54.997)"><g class="a29 c2 node n23 p0" transform="translate(-16.74 53.6566)"><g class="a23 i7 leaf node n4 p0 sample" transform="translate(-8.37 82.5728)"><path class="edge e6" d="M 0 0 V -82.5728 H 8.37"/><rect class="sym" height="6" width="6" x="-3" y="-3"/><text class="lab" transform="translate(0 11)"/></g><g class="a23 c2 node n21 p0" transform="translate(8.37 4.6294)"><g class="a21 i7 leaf node n5 p0 sample" transform="translate(-5.58 77.9434)"><path class="edge e2" d="M 0 0 V -77.9434 H 5.58"/><rect class="sym" height="6" width="6" x="-3" y="-3"/><text class="lab" transform="translate(0 11)"/></g><g class="a21 i2 leaf node n6 p0 sample" transform="translate(5.58 77.9434)"><path class="edge e3" d="M 0 0 V -77.9434 H -5.58"/><rect class="sym" height="6" width="6" x="-3" y="-3"/><text class="lab" transform="translate(0 11)"/></g><path class="edge e7" d="M 0 0 V -4.6294 H -8.37"/><circle class="sym" cx="0" cy="0" r="3"/><text class="lab rgt" transform="translate(3 -7)"/></g><path class="edge e19" d="M 0 0 V -53.6566 H 16.74"/><circle class="sym" cx="0" cy="0" r="3"/><text class="lab lft" transform="translate(-3 -7)"/></g><g class="a29 c2 node n28 p1" transform="translate(16.74 7.22903)"><g class="a28 i2 leaf node n7 p0 sample" transform="translate(-8.37 129)"><path class="edge e16" d="M 0 0 V -129 H 8.37"/><rect class="sym" height="6" width="6" x="-3" y="-3"/><text class="lab" transform="translate(0 11)"/></g><g class="a28 c2 node n27 p1" transform="translate(8.37 6.90166)"><g class="a27 i8 leaf node n8 p0 sample" transform="translate(-5.58 122.099)"><path class="edge e14" d="M 0 0 V -122.099 H 5.58"/><rect class="sym" height="6" width="6" x="-3" y="-3"/><text class="lab" transform="translate(0 11)"/></g><g class="a27 i0 leaf node n9 p0 sample" transform="translate(5.58 122.099)"><path class="edge e15" d="M 0 0 V -122.099 H -5.58"/><rect class="sym" height="6" width="6" x="-3" y="-3"/><text class="lab" transform="translate(0 11)"/></g><path class="edge e18" d="M 0 0 V -6.90166 H -8.37"/><circle class="sym" cx="0" cy="0" r="3"/><text class="lab rgt" transform="translate(3 -7)"/></g><path class="edge e20" d="M 0 0 V -7.22903 H -16.74"/><circle class="sym" cx="0" cy="0" r="3"/><text class="lab rgt" transform="translate(3 -7)"/></g><path class="edge e37" d="M 0 0 V -54.997 H -18.135"/><circle class="sym" cx="0" cy="0" r="3"/><text class="lab rgt" transform="translate(3 -7)"/></g><path class="edge e67" d="M 0 0 V -32.1389 H 60.3338"/><circle class="sym" cx="0" cy="0" r="3"/><text class="lab lft" transform="translate(-3 -7)"/></g><g class="a47 c2 node n43 p1" transform="translate(60.3337 17.3617)"><g class="a43 c2 node n32 p1" transform="translate(25.8075 43.0471)"><g class="a32 i9 leaf node n17 p0 sample" transform="translate(-8.37 162.956)"><path class="edge e26" d="M 0 0 V -162.956 H 8.37"/><rect class="sym" height="6" width="6" x="-3" y="-3"/><text class="lab" transform="translate(0 11)"/></g><g class="a32 c2 node n30 p0" transform="translate(8.37 23.6596)"><g class="a30 i8 leaf node n18 p0 sample" transform="translate(-5.58 139.297)"><path class="edge e21" d="M 0 0 V -139.297 H 5.58"/><rect class="sym" height="6" width="6" x="-3" y="-3"/><text class="lab" transform="translate(0 11)"/></g><g class="a30 i0 leaf node n19 p0 sample" transform="translate(5.58 139.297)"><path class="edge e22" d="M 0 0 V -139.297 H -5.58"/><rect class="sym" height="6" width="6" x="-3" y="-3"/><text class="lab" transform="translate(0 11)"/></g><path class="edge e27" d="M 0 0 V -23.6596 H -8.37"/><circle class="sym" cx="0" cy="0" r="3"/><text class="lab rgt" transform="translate(3 -7)"/></g><path class="edge e53" d="M 0 0 V -43.0471 H -25.8075"/><circle class="sym" cx="0" cy="0" r="3"/><text class="lab rgt" transform="translate(3 -7)"/></g><g class="a43 c2 node n40 p0" transform="translate(-25.8075 4.3686)"><g class="a40 c2 node n25 p0" transform="translate(18.135 92.512)"><g class="a25 i5 leaf node n14 p0 sample" transform="translate(-8.37 109.123)"><path class="edge e10" d="M 0 0 V -109.123 H 8.37"/><rect class="sym" height="6" width="6" x="-3" y="-3"/><text class="lab" transform="translate(0 11)"/></g><g class="a25 c2 node n20 p0" transform="translate(8.37 37.1739)"><g class="a20 i6 leaf node n15 p0 sample" transform="translate(-5.58 71.949)"><path class="edge e0" d="M 0 0 V -71.949 H 5.58"/><rect class="sym" height="6" width="6" x="-3" y="-3"/><text class="lab" transform="translate(0 11)"/></g><g class="a20 i1 leaf node n16 p0 sample" transform="translate(5.58 71.949)"><path class="edge e1" d="M 0 0 V -71.949 H -5.58"/><rect class="sym" height="6" width="6" x="-3" y="-3"/><text class="lab" transform="translate(0 11)"/></g><path class="edge e11" d="M 0 0 V -37.1739 H -8.37"/><circle class="sym" cx="0" cy="0" r="3"/><text class="lab rgt" transform="translate(3 -7)"/></g><path class="edge e44" d="M 0 0 V -92.512 H -18.135"/><circle class="sym" cx="0" cy="0" r="3"/><text class="lab rgt" transform="translate(3 -7)"/></g><g class="a40 c2 node n36 p0" transform="translate(-18.135 26.5609)"><g class="a36 c2 node n24 p0" transform="translate(11.16 79.3358)"><g class="a24 i9 leaf node n12 p0 sample" transform="translate(-5.58 95.7383)"><path class="edge e8" d="M 0 0 V -95.7383 H 5.58"/><rect class="sym" height="6" width="6" x="-3" y="-3"/><text class="lab" transform="translate(0 11)"/></g><g class="a24 i3 leaf node n13 p0 sample" transform="translate(5.58 95.7383)"><path class="edge e9" d="M 0 0 V -95.7383 H -5.58"/><rect class="sym" height="6" width="6" x="-3" y="-3"/><text class="lab" transform="translate(0 11)"/></g><path class="edge e34" d="M 0 0 V -79.3358 H -11.16"/><circle class="sym" cx="0" cy="0" r="3"/><text class="lab rgt" transform="translate(3 -7)"/></g><g class="a36 c2 node n31 p1" transform="translate(-11.16 31.2271)"><g class="a31 i6 leaf node n10 p0 sample" transform="translate(-5.58 143.847)"><path class="edge e24" d="M 0 0 V -143.847 H 5.58"/><rect class="sym" height="6" width="6" x="-3" y="-3"/><text class="lab" transform="translate(0 11)"/></g><g class="a31 i4 leaf node n11 p0 sample" transform="translate(5.58 143.847)"><path class="edge e25" d="M 0 0 V -143.847 H -5.58"/><rect class="sym" height="6" width="6" x="-3" y="-3"/><text class="lab" transform="translate(0 11)"/></g><path class="edge e35" d="M 0 0 V -31.2271 H 11.16"/><circle class="sym" cx="0" cy="0" r="3"/><text class="lab lft" transform="translate(-3 -7)"/></g><path class="edge e45" d="M 0 0 V -26.5609 H 18.135"/><circle class="sym" cx="0" cy="0" r="3"/><text class="lab lft" transform="translate(-3 -7)"/></g><path class="edge e54" d="M 0 0 V -4.3686 H 25.8075"/><circle class="sym" cx="0" cy="0" r="3"/><text class="lab lft" transform="translate(-3 -7)"/></g><path class="edge e68" d="M 0 0 V -17.3617 H -60.3337"/><circle class="sym" cx="0" cy="0" r="3"/><text class="lab rgt" transform="translate(3 -7)"/></g><path class="edge e79" d="M 0 0 V -1.23467 H -51.7894"/><circle class="sym" cx="0" cy="0" r="3"/><text class="lab rgt" transform="translate(3 -7)"/></g><circle class="sym" cx="0" cy="0" r="3"/><text class="lab" transform="translate(0 -11)"/></g></g></g><g class="title" transform="translate(150 0)"><text dominant-baseline="hanging" text-anchor="middle">Tree 0</text></g></svg>