<svg baseProfile="full" height="300" version="1.1" width="1000" xmlns="http://www.w3.org/2000/svg" xmlns:ev="http://www.w3.org/2001/xml-events" xmlns:xlink="http://www.w3.org/1999/xlink"><defs><style type="text/css"><![CDATA[.background path {fill: #808080; fill-opacity: 0}.background path:nth-child(odd) {fill-opacity: .1}.x-regions rect {fill: yellow; stroke: black; opacity: 0.5}.axes {font-size: 14px}.x-axis .tick .lab {font-weight: bold; dominant-baseline: hanging}.axes, .tree {font-size: 14px; text-anchor: middle}.axes line, .edge {stroke: black; fill: none}.axes .ax-skip {stroke-dasharray: 4}.y-axis .grid {stroke: #FAFAFA}.node > .sym {fill: black; stroke: none}.site > .sym {stroke: black}.mut text {fill: red; font-style: italic}.mut.extra text {fill: hotpink}.mut line {fill: none; stroke: none}.mut .sym {fill: none; stroke: red}.mut.extra .sym {stroke: hotpink}.node .mut .sym {stroke-width: 1.5px}.tree text, .tree-sequence text {dominant-baseline: central}.plotbox .lab.lft {text-anchor: end}.plotbox .lab.rgt {text-anchor: start}.polytomy line {stroke: black; stroke-dasharray: 1px, 1px}.polytomy text {paint-order:stroke;stroke-width:0.3em;stroke:white}]]></style></defs><g class="tree-sequence"><g class="background"><path d="M56.8,0 l307.733,0 l0,238.2 l140.48,25 l0,5 l-448.214,0 l0,-5 l0,-25 l0,-238.2z"/><path d="M364.533,0 l307.733,0 l0,238.2 l206.274,25 l0,5 l-373.527,0 l0,-5 l-140.481,-25 l0,-238.2z"/><path d="M672.267,0 l307.733,0 l0,238.2 l0,25 l0,5 l-101.46,0 l0,-5 l-206.273,-25 l0,-238.2z"/></g><g class="axes"><g class="x-axis"><g class="title" transform="translate(518.4 300)"><text class="lab" text-anchor="middle" transform="translate(0 -11)">Genome position</text></g><line class="ax-line" x1="56.8" x2="980" y1="263.2" y2="263.2"/><g class="ticks"><g class="tick" transform="translate(505.014 263.2)"><line x1="0" x2="0" y1="0" y2="5"/><g transform="translate(0 6)"><text class="lab">9855</text></g></g><g class="tick" transform="translate(878.54 263.2)"><line x1="0" x2="0" y1="0" y2="5"/><g transform="translate(0 6)"><text class="lab">13901</text></g></g></g><g class="site s1" transform="translate(176.354 263.2)"><line class="sym" x1="0" x2="0" y1="0" y2="-10"/><g class="mut m1"><polyline class="sym" points="2.5,-6.5 0,-1.5 -2.5,-6.5"/></g></g><g class="site s2" transform="translate(255.565 263.2)"><line class="sym" x1="0" x2="0" y1="0" y2="-10"/><g class="mut m2"><polyline class="sym" points="2.5,-6.5 0,-1.5 -2.5,-6.5"/></g></g><g class="site s3" transform="translate(305.141 263.2)"><line class="sym" x1="0" x2="0" y1="0" y2="-10"/><g class="mut m3"><polyline class="sym" points="2.5,-6.5 0,-1.5 -2.5,-6.5"/></g></g><g class="site s4" transform="translate(320.466 263.2)"><line class="sym" x1="0" x2="0" y1="0" y2="-10"/><g class="mut m4"><polyline class="sym" points="2.5,-6.5 0,-1.5 -2.5,-6.5"/></g></g><g class="site s5" transform="translate(371.427 263.2)"><line class="sym" x1="0" x2="0" y1="0" y2="-10"/><g class="mut m5"><polyline class="sym" points="2.5,-6.5 0,-1.5 -2.5,-6.5"/></g></g><g class="site s6" transform="translate(375.673 263.2)"><line class="sym" x1="0" x2="0" y1="0" y2="-10"/><g class="mut m6"><polyline class="sym" points="2.5,-6.5 0,-1.5 -2.5,-6.5"/></g></g><g class="site s7" transform="translate(395.799 263.2)"><line class="sym" x1="0" x2="0" y1="0" y2="-10"/><g class="mut m7"><polyline class="sym" points="2.5,-6.5 0,-1.5 -2.5,-6.5"/></g></g><g class="site s8" transform="translate(433.466 263.2)"><line class="sym" x1="0" x2="0" y1="0" y2="-10"/><g class="mut m8"><polyline class="sym" points="2.5,-6.5 0,-1.5 -2.5,-6.5"/></g></g><g class="site s9" transform="translate(724.551 263.2)"><line class="sym" x1="0" x2="0" y1="0" y2="-10"/><g class="mut m9"><polyline class="sym" points="2.5,-6.5 0,-1.5 -2.5,-6.5"/></g></g><g class="site s10" transform="translate(737.937 263.2)"><line class="sym" x1="0" x2="0" y1="0" y2="-10"/><g class="mut m10"><polyline class="sym" points="2.5,-6.5 0,-1.5 -2.5,-6.5"/></g></g><g class="site s11" transform="translate(751.323 263.2)"><line class="sym" x1="0" x2="0" y1="0" y2="-10"/><g class="mut m11"><polyline class="sym" points="2.5,-6.5 0,-1.5 -2.5,-6.5"/></g></g><g class="site s12" transform="translate(782.712 263.2)"><line class="sym" x1="0" x2="0" y1="0" y2="-10"/><g class="mut m12"><polyline class="sym" points="2.5,-6.5 0,-1.5 -2.5,-6.5"/></g></g><g class="site s13" transform="translate(819.179 263.2)"><line class="sym" x1="0" x2="0" y1="0" y2="-10"/><g class="mut m13"><polyline class="sym" points="2.5,-6.5 0,-1.5 -2.5,-6.5"/></g></g><g class="site s14" transform="translate(884.264 263.2)"><line class="sym" x1="0" x2="0" y1="0" y2="-10"/><g class="mut m15"><polyline class="sym" points="2.5,-6.5 0,-1.5 -2.5,-6.5"/></g><g class="mut m14"><polyline class="sym" points="2.5,-10.5 0,-5.5 -2.5,-10.5"/></g></g></g><g class="y-axis"><g class="title" transform="translate(0 115.7)"><text class="lab" text-anchor="middle" transform="translate(11) rotate(-90)">Time ago (generations)</text></g><line class="ax-line" x1="56.8" x2="56.8" y1="221.4" y2="10"/><g class="ticks"><g class="tick" transform="translate(56.8 221.4)"><line x1="0" x2="-5" y1="0" y2="0"/><g transform="translate(-6 0)"><text class="lab" text-anchor="end">0</text></g></g><g class="tick" transform="translate(56.8 163.808)"><line x1="0" x2="-5" y1="0" y2="0"/><g transform="translate(-6 0)"><text class="lab" text-anchor="end">1000</text></g></g><g class="tick" transform="translate(56.8 106.215)"><line x1="0" x2="-5" y1="0" y2="0"/><g transform="translate(-6 0)"><text class="lab" text-anchor="end">2000</text></g></g><g class="tick" transform="translate(56.8 48.6229)"><line x1="0" x2="-5" y1="0" y2="0"/><g transform="translate(-6 0)"><text class="lab" text-anchor="end">3000</text></g></g></g></g></g><g class="plotbox trees"><g class="tree t0" transform="translate(56.8 0)"><g class="plotbox"><g class="c2 node n17 p3 root" transform="translate(150.729 26.8)"><g class="a17 c2 m5 node n13 p3 s5" transform="translate(-78.4375 82.7719)"><g class="a13 i0 leaf m6 node n0 p0 s6 sample" transform="translate(-35.5583 111.828)"><path class="edge e8" d="M 0 0 V -111.828 H 35.5583"/><g class="mut m6 s6" transform="translate(0 -35.5945)"><line x1="0" x2="0" y1="0" y2="35.5945"/><path class="sym" d="M -3,-3 l 6,6 M -3,3 l 6,-6"/><text class="lab lft" transform="translate(-5 0)">A→G</text></g><rect class="sym" height="6" width="6" x="-3" y="-3"/><text class="lab" transform="translate(0 11)">A</text></g><g class="a13 c2 node n12 p3" transform="translate(35.5583 28.9444)"><g class="a12 i0 leaf m3 node n1 p0 s3 sample" transform="translate(-37.65 82.8837)"><path class="edge e6" d="M 0 0 V -82.8837 H 37.65"/><g class="mut m3 s3" transform="translate(0 -59.9567)"><line x1="0" x2="0" y1="0" y2="59.9567"/><path class="sym" d="M -3,-3 l 6,6 M -3,3 l 6,-6"/><text class="lab lft" transform="translate(-5 0)">A→G</text></g><rect class="sym" height="6" width="6" x="-3" y="-3"/><text class="lab" transform="translate(0 11)">A</text></g><g class="a12 c2 node n9 p3" transform="translate(37.65 23.1901)"><g class="a9 i2 leaf node n4 p1 sample" transform="translate(25.1 59.6936)"><path class="edge e2" d="M 0 0 V -59.6936 H -25.1"/><rect class="sym" height="6" width="6" x="-3" y="-3"/><text class="lab" transform="translate(0 11)">B</text></g><g class="a9 c2 m1 m4 m7 node n8 p0 s1 s4 s7" transform="translate(-25.1 57.7362)"><g class="a8 i1 leaf node n2 p0 sample" transform="translate(-16.7333 1.95746)"><path class="edge e0" d="M 0 0 V -1.95746 H 16.7333"/><rect class="sym" height="6" width="6" x="-3" y="-3"/><text class="lab" transform="translate(0 11)">A</text></g><g class="a8 i1 leaf node n3 p0 sample" transform="translate(16.7333 1.95746)"><path class="edge e1" d="M 0 0 V -1.95746 H -16.7333"/><rect class="sym" height="6" width="6" x="-3" y="-3"/><text class="lab" transform="translate(0 11)">A</text></g><path class="edge e3" d="M 0 0 V -57.7362 H 25.1"/><g class="mut m1 s1" transform="translate(0 -20.661)"><line x1="0" x2="0" y1="0" y2="20.661"/><path class="sym" d="M -3,-3 l 6,6 M -3,3 l 6,-6"/><text class="lab lft" transform="translate(-5 0)">G→C</text></g><g class="mut m7 s7" transform="translate(0 -13.3352)"><line x1="0" x2="0" y1="0" y2="13.3352"/><path class="sym" d="M -3,-3 l 6,6 M -3,3 l 6,-6"/><text class="lab lft" transform="translate(-5 0)">G→C</text></g><g class="mut m4 s4" transform="translate(0 -12.8105)"><line x1="0" x2="0" y1="0" y2="12.8105"/><path class="sym" d="M -3,-3 l 6,6 M -3,3 l 6,-6"/><text class="lab lft" transform="translate(-5 0)">A→G</text></g><circle class="sym" cx="0" cy="0" r="3"/><text class="lab lft" transform="translate(-3 -7)"/></g><path class="edge e7" d="M 0 0 V -23.1901 H -37.65"/><circle class="sym" cx="0" cy="0" r="3"/><text class="lab rgt" transform="translate(3 -7)"/></g><path class="edge e10" d="M 0 0 V -28.9444 H -35.5583"/><circle class="sym" cx="0" cy="0" r="3"/><text class="lab rgt" transform="translate(3 -7)"/></g><path class="edge e18" d="M 0 0 V -82.7719 H 78.4375"/><g class="mut m5 s5" transform="translate(0 -9.80042)"><line x1="0" x2="0" y1="0" y2="9.80042"/><path class="sym" d="M -3,-3 l 6,6 M -3,3 l 6,-6"/><text class="lab lft" transform="translate(-5 0)">G→A</text></g><circle class="sym" cx="0" cy="0" r="3"/><text class="lab lft" transform="translate(-3 -7)"/></g><g class="a17 c2 m8 node n16 p3 s8" transform="translate(78.4375 35.3248)"><g class="a16 i2 leaf node n5 p1 sample" transform="translate(-25.1 159.275)"><path class="edge e15" d="M 0 0 V -159.275 H 25.1"/><rect class="sym" height="6" width="6" x="-3" y="-3"/><text class="lab" transform="translate(0 11)">B</text></g><g class="a16 c2 node n10 p3" transform="translate(25.1 98.0832)"><g class="a10 i3 leaf node n6 p2 sample" transform="translate(-16.7333 61.192)"><path class="edge e4" d="M 0 0 V -61.192 H 16.7333"/><rect class="sym" height="6" width="6" x="-3" y="-3"/><text class="lab" transform="translate(0 11)">C</text></g><g class="a10 i3 leaf m2 node n7 p2 s2 sample" transform="translate(16.7333 61.192)"><path class="edge e5" d="M 0 0 V -61.192 H -16.7333"/><g class="mut m2 s2" transform="translate(0 -27.0508)"><line x1="0" x2="0" y1="0" y2="27.0508"/><path class="sym" d="M -3,-3 l 6,6 M -3,3 l 6,-6"/><text class="lab rgt" transform="translate(5 0)">A→G</text></g><rect class="sym" height="6" width="6" x="-3" y="-3"/><text class="lab" transform="translate(0 11)">C</text></g><path class="edge e16" d="M 0 0 V -98.0832 H -25.1"/><circle class="sym" cx="0" cy="0" r="3"/><text class="lab rgt" transform="translate(3 -7)"/></g><path class="edge e20" d="M 0 0 V -35.3248 H -78.4375"/><g class="mut m8 s8" transform="translate(0 -19.6617)"><line x1="0" x2="0" y1="0" y2="19.6617"/><path class="sym" d="M -3,-3 l 6,6 M -3,3 l 6,-6"/><text class="lab rgt" transform="translate(5 0)">G→T</text></g><circle class="sym" cx="0" cy="0" r="3"/><text class="lab rgt" transform="translate(3 -7)"/></g><circle class="sym" cx="0" cy="0" r="3"/><text class="lab" transform="translate(0 -11)"/></g></g></g><g class="tree t1" transform="translate(364.533 0)"><g class="plotbox"><g class="c2 node n17 p3 root" transform="translate(133.996 26.8)"><g class="a17 c2 m9 node n13 p3 s9" transform="translate(-80.5292 82.7719)"><g class="a13 i0 leaf node n0 p0 sample" transform="translate(-16.7333 111.828)"><path class="edge e8" d="M 0 0 V -111.828 H 16.7333"/><rect class="sym" height="6" width="6" x="-3" y="-3"/><text class="lab" transform="translate(0 11)">A</text></g><g class="a13 i0 leaf node n1 p0 sample" transform="translate(16.7333 111.828)"><path class="edge e9" d="M 0 0 V -111.828 H -16.7333"/><rect class="sym" height="6" width="6" x="-3" y="-3"/><text class="lab" transform="translate(0 11)">A</text></g><path class="edge e18" d="M 0 0 V -82.7719 H 80.5292"/><g class="mut m9 s9" transform="translate(0 -3.71605)"><line x1="0" x2="0" y1="0" y2="3.71605"/><path class="sym" d="M -3,-3 l 6,6 M -3,3 l 6,-6"/><text class="lab lft" transform="translate(-5 0)">G→T</text></g><circle class="sym" cx="0" cy="0" r="3"/><text class="lab lft" transform="translate(-3 -7)"/></g><g class="a17 c2 node n16 p3" transform="translate(80.5292 35.3248)"><g class="a16 c2 node n10 p3" transform="translate(39.7417 98.0832)"><g class="a10 i3 leaf m12 node n6 p2 s12 sample" transform="translate(-16.7333 61.192)"><path class="edge e4" d="M 0 0 V -61.192 H 16.7333"/><g class="mut m12 s12" transform="translate(0 -0.34485)"><line x1="0" x2="0" y1="0" y2="0.34485"/><path class="sym" d="M -3,-3 l 6,6 M -3,3 l 6,-6"/><text class="lab lft" transform="translate(-5 0)">G→A</text></g><rect class="sym" height="6" width="6" x="-3" y="-3"/><text class="lab" transform="translate(0 11)">C</text></g><g class="a10 i3 leaf node n7 p2 sample" transform="translate(16.7333 61.192)"><path class="edge e5" d="M 0 0 V -61.192 H -16.7333"/><rect class="sym" height="6" width="6" x="-3" y="-3"/><text class="lab" transform="translate(0 11)">C</text></g><path class="edge e16" d="M 0 0 V -98.0832 H -39.7417"/><circle class="sym" cx="0" cy="0" r="3"/><text class="lab rgt" transform="translate(3 -7)"/></g><g class="a16 c2 node n15 p3" transform="translate(-39.7417 20.5533)"><g class="a15 i2 leaf node n5 p1 sample" transform="translate(29.2833 138.722)"><path class="edge e13" d="M 0 0 V -138.722 H -29.2833"/><rect class="sym" height="6" width="6" x="-3" y="-3"/><text class="lab" transform="translate(0 11)">B</text></g><g class="a15 c2 m11 node n9 p3 s11" transform="translate(-29.2833 79.0283)"><g class="a9 i2 leaf m13 node n4 p1 s13 sample" transform="translate(25.1 59.6936)"><path class="edge e2" d="M 0 0 V -59.6936 H -25.1"/><g class="mut m13 s13" transform="translate(0 -15.0695)"><line x1="0" x2="0" y1="0" y2="15.0695"/><path class="sym" d="M -3,-3 l 6,6 M -3,3 l 6,-6"/><text class="lab rgt" transform="translate(5 0)">G→A</text></g><rect class="sym" height="6" width="6" x="-3" y="-3"/><text class="lab" transform="translate(0 11)">B</text></g><g class="a9 c2 node n8 p0" transform="translate(-25.1 57.7362)"><g class="a8 i1 leaf node n2 p0 sample" transform="translate(-16.7333 1.95746)"><path class="edge e0" d="M 0 0 V -1.95746 H 16.7333"/><rect class="sym" height="6" width="6" x="-3" y="-3"/><text class="lab" transform="translate(0 11)">A</text></g><g class="a8 i1 leaf m10 node n3 p0 s10 sample" transform="translate(16.7333 1.95746)"><path class="edge e1" d="M 0 0 V -1.95746 H -16.7333"/><g class="mut m10 s10" transform="translate(0 -0.0798708)"><line x1="0" x2="0" y1="0" y2="0.0798708"/><path class="sym" d="M -3,-3 l 6,6 M -3,3 l 6,-6"/><text class="lab rgt" transform="translate(5 0)">G→T</text></g><rect class="sym" height="6" width="6" x="-3" y="-3"/><text class="lab" transform="translate(0 11)">A</text></g><path class="edge e3" d="M 0 0 V -57.7362 H 25.1"/><circle class="sym" cx="0" cy="0" r="3"/><text class="lab lft" transform="translate(-3 -7)"/></g><path class="edge e14" d="M 0 0 V -79.0283 H 29.2833"/><g class="mut m11 s11" transform="translate(0 -15.1971)"><line x1="0" x2="0" y1="0" y2="15.1971"/><path class="sym" d="M -3,-3 l 6,6 M -3,3 l 6,-6"/><text class="lab lft" transform="translate(-5 0)">G→T</text></g><circle class="sym" cx="0" cy="0" r="3"/><text class="lab lft" transform="translate(-3 -7)"/></g><path class="edge e17" d="M 0 0 V -20.5533 H 39.7417"/><circle class="sym" cx="0" cy="0" r="3"/><text class="lab lft" transform="translate(-3 -7)"/></g><path class="edge e20" d="M 0 0 V -35.3248 H -80.5292"/><circle class="sym" cx="0" cy="0" r="3"/><text class="lab rgt" transform="translate(3 -7)"/></g><circle class="sym" cx="0" cy="0" r="3"/><text class="lab" transform="translate(0 -11)"/></g></g></g><g class="tree t2" transform="translate(672.267 0)"><g class="plotbox"><g class="c2 node n17 p3 root" transform="translate(133.996 26.8)"><g class="a17 c2 node n16 p3" transform="translate(80.5292 35.3248)"><g class="a16 c2 node n10 p3" transform="translate(39.7417 98.0832)"><g class="a10 i3 leaf m15 node n6 p2 s14 sample" transform="translate(-16.7333 61.192)"><path class="edge e4" d="M 0 0 V -61.192 H 16.7333"/><g class="mut m15 s14" transform="translate(0 -21.3236)"><line x1="0" x2="0" y1="0" y2="21.3236"/><path class="sym" d="M -3,-3 l 6,6 M -3,3 l 6,-6"/><text class="lab lft" transform="translate(-5 0)">T→G</text></g><rect class="sym" height="6" width="6" x="-3" y="-3"/><text class="lab" transform="translate(0 11)">C</text></g><g class="a10 i3 leaf node n7 p2 sample" transform="translate(16.7333 61.192)"><path class="edge e5" d="M 0 0 V -61.192 H -16.7333"/><rect class="sym" height="6" width="6" x="-3" y="-3"/><text class="lab" transform="translate(0 11)">C</text></g><path class="edge e16" d="M 0 0 V -98.0832 H -39.7417"/><circle class="sym" cx="0" cy="0" r="3"/><text class="lab rgt" transform="translate(3 -7)"/></g><g class="a16 c2 node n15 p3" transform="translate(-39.7417 20.5533)"><g class="a15 i2 leaf node n5 p1 sample" transform="translate(29.2833 138.722)"><path class="edge e13" d="M 0 0 V -138.722 H -29.2833"/><rect class="sym" height="6" width="6" x="-3" y="-3"/><text class="lab" transform="translate(0 11)">B</text></g><g class="a15 c2 node n9 p3" transform="translate(-29.2833 79.0283)"><g class="a9 i2 leaf node n4 p1 sample" transform="translate(25.1 59.6936)"><path class="edge e2" d="M 0 0 V -59.6936 H -25.1"/><rect class="sym" height="6" width="6" x="-3" y="-3"/><text class="lab" transform="translate(0 11)">B</text></g><g class="a9 c2 node n8 p0" transform="translate(-25.1 57.7362)"><g class="a8 i1 leaf node n2 p0 sample" transform="translate(-16.7333 1.95746)"><path class="edge e0" d="M 0 0 V -1.95746 H 16.7333"/><rect class="sym" height="6" width="6" x="-3" y="-3"/><text class="lab" transform="translate(0 11)">A</text></g><g class="a8 i1 leaf node n3 p0 sample" transform="translate(16.7333 1.95746)"><path class="edge e1" d="M 0 0 V -1.95746 H -16.7333"/><rect class="sym" height="6" width="6" x="-3" y="-3"/><text class="lab" transform="translate(0 11)">A</text></g><path class="edge e3" d="M 0 0 V -57.7362 H 25.1"/><circle class="sym" cx="0" cy="0" r="3"/><text class="lab lft" transform="translate(-3 -7)"/></g><path class="edge e14" d="M 0 0 V -79.0283 H 29.2833"/><circle class="sym" cx="0" cy="0" r="3"/><text class="lab lft" transform="translate(-3 -7)"/></g><path class="edge e17" d="M 0 0 V -20.5533 H 39.7417"/><circle class="sym" cx="0" cy="0" r="3"/><text class="lab lft" transform="translate(-3 -7)"/></g><path class="edge e20" d="M 0 0 V -35.3248 H -80.5292"/><circle class="sym" cx="0" cy="0" r="3"/><text class="lab rgt" transform="translate(3 -7)"/></g><g class="a17 c2 node n14 p3" transform="translate(-80.5292 75.0132)"><g class="a14 i0 leaf node n0 p0 sample" transform="translate(-16.7333 119.587)"><path class="edge e11" d="M 0 0 V -119.587 H 16.7333"/><rect class="sym" height="6" width="6" x="-3" y="-3"/><text class="lab" transform="translate(0 11)">A</text></g><g class="a14 i0 leaf m14 node n1 p0 s14 sample" transform="translate(16.7333 119.587)"><path class="edge e12" d="M 0 0 V -119.587 H -16.7333"/><g class="mut m14 s14" transform="translate(0 -35.6871)"><line x1="0" x2="0" y1="0" y2="35.6871"/><path class="sym" d="M -3,-3 l 6,6 M -3,3 l 6,-6"/><text class="lab rgt" transform="translate(5 0)">T→G</text></g><rect class="sym" height="6" width="6" x="-3" y="-3"/><text class="lab" transform="translate(0 11)">A</text></g><path class="edge e19" d="M 0 0 V -75.0132 H 80.5292"/><circle class="sym" cx="0" cy="0" r="3"/><text class="lab lft" transform="translate(-3 -7)"/></g><circle class="sym" cx="0" cy="0" r="3"/><text class="lab" transform="translate(0 -11)"/></g></g></g></g></g></svg>