<svg baseProfile="full" height="250" version="1.1" width="800" xmlns="http://www.w3.org/2000/svg" xmlns:ev="http://www.w3.org/2001/xml-events" xmlns:xlink="http://www.w3.org/1999/xlink"><defs><style type="text/css"><![CDATA[.background path {fill: #808080; fill-opacity: 0}.background path:nth-child(odd) {fill-opacity: .1}.x-regions rect {fill: yellow; stroke: black; opacity: 0.5}.axes {font-size: 14px}.x-axis .tick .lab {font-weight: bold; dominant-baseline: hanging}.axes, .tree {font-size: 14px; text-anchor: middle}.axes line, .edge {stroke: black; fill: none}.axes .ax-skip {stroke-dasharray: 4}.y-axis .grid {stroke: #FAFAFA}.node > .sym {fill: black; stroke: none}.site > .sym {stroke: black}.mut text {fill: red; font-style: italic}.mut.extra text {fill: hotpink}.mut line {fill: none; stroke: none}.mut .sym {fill: none; stroke: red}.mut.extra .sym {stroke: hotpink}.node .mut .sym {stroke-width: 1.5px}.tree text, .tree-sequence text {dominant-baseline: central}.plotbox .lab.lft {text-anchor: end}.plotbox .lab.rgt {text-anchor: start}.polytomy line {stroke: black; stroke-dasharray: 1px, 1px}.polytomy text {paint-order:stroke;stroke-width:0.3em;stroke:white}]]></style></defs><g class="tree-sequence"><g class="background"><path d="M56.8,16.8 l241.067,0 l0,171.4 l110.047,25 l0,5 l-351.114,0 l0,-5 l0,-25 l0,-171.4z"/><path d="M297.867,16.8 l241.067,0 l0,171.4 l161.587,25 l0,5 l-292.607,0 l0,-5 l-110.047,-25 l0,-171.4z"/><path d="M538.933,16.8 l241.067,0 l0,171.4 l0,25 l0,5 l-79.4797,0 l0,-5 l-161.587,-25 l0,-171.4z"/></g><g class="axes"><g class="x-axis"><g class="title" transform="translate(418.4 250)"><text class="lab" text-anchor="middle" transform="translate(0 -11)">Genome position</text></g><line class="ax-line" x1="56.8" x2="780" y1="213.2" y2="213.2"/><g class="ticks"><g class="tick" transform="translate(407.914 213.2)"><line x1="0" x2="0" y1="0" y2="5"/><g transform="translate(0 6)"><text class="lab">9855</text></g></g><g class="tick" transform="translate(700.52 213.2)"><line x1="0" x2="0" y1="0" y2="5"/><g transform="translate(0 6)"><text class="lab">13901</text></g></g></g></g><g class="y-axis"><g class="title" transform="translate(0 82.3)"><text class="lab" text-anchor="middle" transform="translate(11) rotate(-90)">Time ago (generations)</text></g><line class="ax-line" x1="56.8" x2="56.8" y1="154.6" y2="10"/><g class="ticks"><g class="tick" transform="translate(56.8 154.6)"><line x1="0" x2="-5" y1="0" y2="0"/><g transform="translate(-6 0)"><text class="lab" text-anchor="end">0</text></g></g><g class="tick" transform="translate(56.8 116.777)"><line x1="0" x2="-5" y1="0" y2="0"/><g transform="translate(-6 0)"><text class="lab" text-anchor="end">1000</text></g></g><g class="tick" transform="translate(56.8 78.9545)"><line x1="0" x2="-5" y1="0" y2="0"/><g transform="translate(-6 0)"><text class="lab" text-anchor="end">2000</text></g></g><g class="tick" transform="translate(56.8 41.1318)"><line x1="0" x2="-5" y1="0" y2="0"/><g transform="translate(-6 0)"><text class="lab" text-anchor="end">3000</text></g></g></g></g></g><g class="plotbox trees"><g class="tree t0" transform="translate(56.8 16.8)"><g class="plotbox"><g class="c2 node n17 p3 root" transform="translate(118.177 26.8)"><g class="a17 c2 node n13 p3" transform="translate(-58.9063 54.3589)"><g class="a13 i0 leaf node n0 p0 sample" transform="translate(-26.7042 73.4411)"><path class="edge e8" d="M 0 0 V -73.4411 H 26.7042"/><rect class="sym" height="6" width="6" x="-3" y="-3"/><text class="lab" transform="translate(0 11)">0</text></g><g class="a13 c2 node n12 p3" transform="translate(26.7042 19.0087)"><g class="a12 i0 leaf node n1 p0 sample" transform="translate(-28.275 54.4324)"><path class="edge e6" d="M 0 0 V -54.4324 H 28.275"/><rect class="sym" height="6" width="6" x="-3" y="-3"/><text class="lab" transform="translate(0 11)">1</text></g><g class="a12 c2 node n9 p3" transform="translate(28.275 15.2296)"><g class="a9 i2 leaf node n4 p1 sample" transform="translate(18.85 39.2027)"><path class="edge e2" d="M 0 0 V -39.2027 H -18.85"/><rect class="sym" height="6" width="6" x="-3" y="-3"/><text class="lab" transform="translate(0 11)">4</text></g><g class="a9 c2 node n8 p0" transform="translate(-18.85 37.9172)"><g class="a8 i1 leaf node n2 p0 sample" transform="translate(-12.5667 1.28553)"><path class="edge e0" d="M 0 0 V -1.28553 H 12.5667"/><rect class="sym" height="6" width="6" x="-3" y="-3"/><text class="lab" transform="translate(0 11)">2</text></g><g class="a8 i1 leaf node n3 p0 sample" transform="translate(12.5667 1.28553)"><path class="edge e1" d="M 0 0 V -1.28553 H -12.5667"/><rect class="sym" height="6" width="6" x="-3" y="-3"/><text class="lab" transform="translate(0 11)">3</text></g><path class="edge e3" d="M 0 0 V -37.9172 H 18.85"/><circle class="sym" cx="0" cy="0" r="3"/><text class="lab lft" transform="translate(-3 -7)">8</text></g><path class="edge e7" d="M 0 0 V -15.2296 H -28.275"/><circle class="sym" cx="0" cy="0" r="3"/><text class="lab rgt" transform="translate(3 -7)">9</text></g><path class="edge e10" d="M 0 0 V -19.0087 H -26.7042"/><circle class="sym" cx="0" cy="0" r="3"/><text class="lab rgt" transform="translate(3 -7)">12</text></g><path class="edge e18" d="M 0 0 V -54.3589 H 58.9063"/><circle class="sym" cx="0" cy="0" r="3"/><text class="lab lft" transform="translate(-3 -7)">13</text></g><g class="a17 c2 node n16 p3" transform="translate(58.9063 23.1989)"><g class="a16 i2 leaf node n5 p1 sample" transform="translate(-18.85 104.601)"><path class="edge e15" d="M 0 0 V -104.601 H 18.85"/><rect class="sym" height="6" width="6" x="-3" y="-3"/><text class="lab" transform="translate(0 11)">5</text></g><g class="a16 c2 node n10 p3" transform="translate(18.85 64.4143)"><g class="a10 i3 leaf node n6 p2 sample" transform="translate(-12.5667 40.1868)"><path class="edge e4" d="M 0 0 V -40.1868 H 12.5667"/><rect class="sym" height="6" width="6" x="-3" y="-3"/><text class="lab" transform="translate(0 11)">6</text></g><g class="a10 i3 leaf node n7 p2 sample" transform="translate(12.5667 40.1868)"><path class="edge e5" d="M 0 0 V -40.1868 H -12.5667"/><rect class="sym" height="6" width="6" x="-3" y="-3"/><text class="lab" transform="translate(0 11)">7</text></g><path class="edge e16" d="M 0 0 V -64.4143 H -18.85"/><circle class="sym" cx="0" cy="0" r="3"/><text class="lab rgt" transform="translate(3 -7)">10</text></g><path class="edge e20" d="M 0 0 V -23.1989 H -58.9063"/><circle class="sym" cx="0" cy="0" r="3"/><text class="lab rgt" transform="translate(3 -7)">16</text></g><circle class="sym" cx="0" cy="0" r="3"/><text class="lab" transform="translate(0 -11)">17</text></g></g></g><g class="tree t1" transform="translate(297.867 16.8)"><g class="plotbox"><g class="c2 node n17 p3 root" transform="translate(105.61 26.8)"><g class="a17 c2 node n13 p3" transform="translate(-60.4771 54.3589)"><g class="a13 i0 leaf node n0 p0 sample" transform="translate(-12.5667 73.4411)"><path class="edge e8" d="M 0 0 V -73.4411 H 12.5667"/><rect class="sym" height="6" width="6" x="-3" y="-3"/><text class="lab" transform="translate(0 11)">0</text></g><g class="a13 i0 leaf node n1 p0 sample" transform="translate(12.5667 73.4411)"><path class="edge e9" d="M 0 0 V -73.4411 H -12.5667"/><rect class="sym" height="6" width="6" x="-3" y="-3"/><text class="lab" transform="translate(0 11)">1</text></g><path class="edge e18" d="M 0 0 V -54.3589 H 60.4771"/><circle class="sym" cx="0" cy="0" r="3"/><text class="lab lft" transform="translate(-3 -7)">13</text></g><g class="a17 c2 node n16 p3" transform="translate(60.4771 23.1989)"><g class="a16 c2 node n10 p3" transform="translate(29.8458 64.4143)"><g class="a10 i3 leaf node n6 p2 sample" transform="translate(-12.5667 40.1868)"><path class="edge e4" d="M 0 0 V -40.1868 H 12.5667"/><rect class="sym" height="6" width="6" x="-3" y="-3"/><text class="lab" transform="translate(0 11)">6</text></g><g class="a10 i3 leaf node n7 p2 sample" transform="translate(12.5667 40.1868)"><path class="edge e5" d="M 0 0 V -40.1868 H -12.5667"/><rect class="sym" height="6" width="6" x="-3" y="-3"/><text class="lab" transform="translate(0 11)">7</text></g><path class="edge e16" d="M 0 0 V -64.4143 H -29.8458"/><circle class="sym" cx="0" cy="0" r="3"/><text class="lab rgt" transform="translate(3 -7)">10</text></g><g class="a16 c2 node n15 p3" transform="translate(-29.8458 13.498)"><g class="a15 i2 leaf node n5 p1 sample" transform="translate(21.9917 91.1031)"><path class="edge e13" d="M 0 0 V -91.1031 H -21.9917"/><rect class="sym" height="6" width="6" x="-3" y="-3"/><text class="lab" transform="translate(0 11)">5</text></g><g class="a15 c2 node n9 p3" transform="translate(-21.9917 51.9004)"><g class="a9 i2 leaf node n4 p1 sample" transform="translate(18.85 39.2027)"><path class="edge e2" d="M 0 0 V -39.2027 H -18.85"/><rect class="sym" height="6" width="6" x="-3" y="-3"/><text class="lab" transform="translate(0 11)">4</text></g><g class="a9 c2 node n8 p0" transform="translate(-18.85 37.9172)"><g class="a8 i1 leaf node n2 p0 sample" transform="translate(-12.5667 1.28553)"><path class="edge e0" d="M 0 0 V -1.28553 H 12.5667"/><rect class="sym" height="6" width="6" x="-3" y="-3"/><text class="lab" transform="translate(0 11)">2</text></g><g class="a8 i1 leaf node n3 p0 sample" transform="translate(12.5667 1.28553)"><path class="edge e1" d="M 0 0 V -1.28553 H -12.5667"/><rect class="sym" height="6" width="6" x="-3" y="-3"/><text class="lab" transform="translate(0 11)">3</text></g><path class="edge e3" d="M 0 0 V -37.9172 H 18.85"/><circle class="sym" cx="0" cy="0" r="3"/><text class="lab lft" transform="translate(-3 -7)">8</text></g><path class="edge e14" d="M 0 0 V -51.9004 H 21.9917"/><circle class="sym" cx="0" cy="0" r="3"/><text class="lab lft" transform="translate(-3 -7)">9</text></g><path class="edge e17" d="M 0 0 V -13.498 H 29.8458"/><circle class="sym" cx="0" cy="0" r="3"/><text class="lab lft" transform="translate(-3 -7)">15</text></g><path class="edge e20" d="M 0 0 V -23.1989 H -60.4771"/><circle class="sym" cx="0" cy="0" r="3"/><text class="lab rgt" transform="translate(3 -7)">16</text></g><circle class="sym" cx="0" cy="0" r="3"/><text class="lab" transform="translate(0 -11)">17</text></g></g></g><g class="tree t2" transform="translate(538.933 16.8)"><g class="plotbox"><g class="c2 node n17 p3 root" transform="translate(105.61 26.8)"><g class="a17 c2 node n16 p3" transform="translate(60.4771 23.1989)"><g class="a16 c2 node n10 p3" transform="translate(29.8458 64.4143)"><g class="a10 i3 leaf node n6 p2 sample" transform="translate(-12.5667 40.1868)"><path class="edge e4" d="M 0 0 V -40.1868 H 12.5667"/><rect class="sym" height="6" width="6" x="-3" y="-3"/><text class="lab" transform="translate(0 11)">6</text></g><g class="a10 i3 leaf node n7 p2 sample" transform="translate(12.5667 40.1868)"><path class="edge e5" d="M 0 0 V -40.1868 H -12.5667"/><rect class="sym" height="6" width="6" x="-3" y="-3"/><text class="lab" transform="translate(0 11)">7</text></g><path class="edge e16" d="M 0 0 V -64.4143 H -29.8458"/><circle class="sym" cx="0" cy="0" r="3"/><text class="lab rgt" transform="translate(3 -7)">10</text></g><g class="a16 c2 node n15 p3" transform="translate(-29.8458 13.498)"><g class="a15 i2 leaf node n5 p1 sample" transform="translate(21.9917 91.1031)"><path class="edge e13" d="M 0 0 V -91.1031 H -21.9917"/><rect class="sym" height="6" width="6" x="-3" y="-3"/><text class="lab" transform="translate(0 11)">5</text></g><g class="a15 c2 node n9 p3" transform="translate(-21.9917 51.9004)"><g class="a9 i2 leaf node n4 p1 sample" transform="translate(18.85 39.2027)"><path class="edge e2" d="M 0 0 V -39.2027 H -18.85"/><rect class="sym" height="6" width="6" x="-3" y="-3"/><text class="lab" transform="translate(0 11)">4</text></g><g class="a9 c2 node n8 p0" transform="translate(-18.85 37.9172)"><g class="a8 i1 leaf node n2 p0 sample" transform="translate(-12.5667 1.28553)"><path class="edge e0" d="M 0 0 V -1.28553 H 12.5667"/><rect class="sym" height="6" width="6" x="-3" y="-3"/><text class="lab" transform="translate(0 11)">2</text></g><g class="a8 i1 leaf node n3 p0 sample" transform="translate(12.5667 1.28553)"><path class="edge e1" d="M 0 0 V -1.28553 H -12.5667"/><rect class="sym" height="6" width="6" x="-3" y="-3"/><text class="lab" transform="translate(0 11)">3</text></g><path class="edge e3" d="M 0 0 V -37.9172 H 18.85"/><circle class="sym" cx="0" cy="0" r="3"/><text class="lab lft" transform="translate(-3 -7)">8</text></g><path class="edge e14" d="M 0 0 V -51.9004 H 21.9917"/><circle class="sym" cx="0" cy="0" r="3"/><text class="lab lft" transform="translate(-3 -7)">9</text></g><path class="edge e17" d="M 0 0 V -13.498 H 29.8458"/><circle class="sym" cx="0" cy="0" r="3"/><text class="lab lft" transform="translate(-3 -7)">15</text></g><path class="edge e20" d="M 0 0 V -23.1989 H -60.4771"/><circle class="sym" cx="0" cy="0" r="3"/><text class="lab rgt" transform="translate(3 -7)">16</text></g><g class="a17 c2 node n14 p3" transform="translate(-60.4771 49.2636)"><g class="a14 i0 leaf node n0 p0 sample" transform="translate(-12.5667 78.5364)"><path class="edge e11" d="M 0 0 V -78.5364 H 12.5667"/><rect class="sym" height="6" width="6" x="-3" y="-3"/><text class="lab" transform="translate(0 11)">0</text></g><g class="a14 i0 leaf node n1 p0 sample" transform="translate(12.5667 78.5364)"><path class="edge e12" d="M 0 0 V -78.5364 H -12.5667"/><rect class="sym" height="6" width="6" x="-3" y="-3"/><text class="lab" transform="translate(0 11)">1</text></g><path class="edge e19" d="M 0 0 V -49.2636 H 60.4771"/><circle class="sym" cx="0" cy="0" r="3"/><text class="lab lft" transform="translate(-3 -7)">14</text></g><circle class="sym" cx="0" cy="0" r="3"/><text class="lab" transform="translate(0 -11)">17</text></g></g></g></g></g><g class="title" transform="translate(400 0)"><text dominant-baseline="hanging" text-anchor="middle">The tree sequence between positions 5000 and 15000</text></g></svg>