<svg baseProfile="full" height="200" version="1.1" width="800" xmlns="http://www.w3.org/2000/svg" xmlns:ev="http://www.w3.org/2001/xml-events" xmlns:xlink="http://www.w3.org/1999/xlink"><defs><style type="text/css"><![CDATA[.background path {fill: #808080; fill-opacity: 0}.background path:nth-child(odd) {fill-opacity: .1}.axes {font-size: 14px}.x-axis .tick .lab {font-weight: bold; dominant-baseline: hanging}.axes, .tree {font-size: 14px; text-anchor: middle}.axes line, .edge {stroke: black; fill: none}.axes .ax-skip {stroke-dasharray: 4}.y-axis .grid {stroke: #FAFAFA}.node > .sym {fill: black; stroke: none}.site > .sym {stroke: black}.mut text {fill: red; font-style: italic}.mut.extra text {fill: hotpink}.mut line {fill: none; stroke: none}.mut .sym {fill: none; stroke: red}.mut.extra .sym {stroke: hotpink}.node .mut .sym {stroke-width: 1.5px}.tree text, .tree-sequence text {dominant-baseline: central}.plotbox .lab.lft {text-anchor: end}.plotbox .lab.rgt {text-anchor: start}]]></style></defs><g class="tree-sequence"><g class="background"><path d="M20,0 l760,0 l0,138.2 l0,25 l0,5 l-760,0 l0,-5 l0,-25 l0,-138.2z" /></g><g class="axes"><g class="x-axis"><g class="title" transform="translate(400 200)"><text class="lab" text-anchor="middle" transform="translate(0 -11)">Genome position</text></g><line class="ax-line" x1="20" x2="780" y1="163.2" y2="163.2" /><g class="ticks"><g class="tick" transform="translate(20 163.2)"><line x1="0" x2="0" y1="0" y2="5" /><g transform="translate(0 6)"><text class="lab">0</text></g></g><g class="tick" transform="translate(780 163.2)"><line x1="0" x2="0" y1="0" y2="5" /><g transform="translate(0 6)"><text class="lab">50000</text></g></g></g></g></g><g class="plotbox trees"><g class="tree t0" transform="translate(20 0)"><g class="plotbox"><g class="c1 i0 node n23 root" transform="translate(456.875 26.8)"><g class="a23 c2 i1 node n22" transform="translate(0.0 57.706)"><g class="a22 c2 i4 node n18" transform="translate(185.625 33.11)"><g class="a18 i14 leaf node n5 sample" transform="translate(67.5 3.784)"><path class="edge" d="M 0 0 V -3.784 H -67.5" /><rect class="sym" height="6" width="6" x="-3" y="-3" /><text class="lab" transform="translate(0 11)">5</text></g><g class="a18 c2 i7 node n15" transform="translate(-67.5 1.892)"><g class="a15 i13 leaf node n2 sample" transform="translate(-45 1.892)"><path class="edge" d="M 0 0 V -1.892 H 45" /><rect class="sym" height="6" width="6" x="-3" y="-3" /><text class="lab" transform="translate(0 11)">2</text></g><g class="a15 c2 i9 node n12" transform="translate(45 0.946)"><g class="a12 i17 leaf node n10 sample" transform="translate(-30 0.946)"><path class="edge" d="M 0 0 V -0.946 H 30" /><rect class="sym" height="6" width="6" x="-3" y="-3" /><text class="lab" transform="translate(0 11)">10</text></g><g class="a12 i17 leaf node n11 sample" transform="translate(30 0.946)"><path class="edge" d="M 0 0 V -0.946 H -30" /><rect class="sym" height="6" width="6" x="-3" y="-3" /><text class="lab" transform="translate(0 11)">11</text></g><path class="edge" d="M 0 0 V -0.946 H -45" /><circle class="sym" cx="0" cy="0" r="3" /><text class="lab rgt" transform="translate(3 -7.0)">12</text></g><path class="edge" d="M 0 0 V -1.892 H 67.5" /><circle class="sym" cx="0" cy="0" r="3" /><text class="lab lft" transform="translate(-3 -7.0)">15</text></g><path class="edge" d="M 0 0 V -33.11 H -185.625" /><circle class="sym" cx="0" cy="0" r="3" /><text class="lab rgt" transform="translate(3 -7.0)">18</text></g><g class="a22 c2 i2 node n21" transform="translate(-185.625 19.866)"><g class="a21 c2 i6 node n17" transform="translate(131.25 14.19)"><g class="a17 i13 leaf node n3 sample" transform="translate(67.5 2.838)"><path class="edge" d="M 0 0 V -2.838 H -67.5" /><rect class="sym" height="6" width="6" x="-3" y="-3" /><text class="lab" transform="translate(0 11)">3</text></g><g class="a17 c2 i8 node n16" transform="translate(-67.5 0.946)"><g class="a16 i12 leaf node n1 sample" transform="translate(-45 1.892)"><path class="edge" d="M 0 0 V -1.892 H 45" /><rect class="sym" height="6" width="6" x="-3" y="-3" /><text class="lab" transform="translate(0 11)">1</text></g><g class="a16 c2 i10 node n13" transform="translate(45 0.946)"><g class="a13 i15 leaf node n7 sample" transform="translate(-30 0.946)"><path class="edge" d="M 0 0 V -0.946 H 30" /><rect class="sym" height="6" width="6" x="-3" y="-3" /><text class="lab" transform="translate(0 11)">7</text></g><g class="a13 i16 leaf node n9 sample" transform="translate(30 0.946)"><path class="edge" d="M 0 0 V -0.946 H -30" /><rect class="sym" height="6" width="6" x="-3" y="-3" /><text class="lab" transform="translate(0 11)">9</text></g><path class="edge" d="M 0 0 V -0.946 H -45" /><circle class="sym" cx="0" cy="0" r="3" /><text class="lab rgt" transform="translate(3 -7.0)">13</text></g><path class="edge" d="M 0 0 V -0.946 H 67.5" /><circle class="sym" cx="0" cy="0" r="3" /><text class="lab lft" transform="translate(-3 -7.0)">16</text></g><path class="edge" d="M 0 0 V -14.19 H -131.25" /><circle class="sym" cx="0" cy="0" r="3" /><text class="lab rgt" transform="translate(3 -7.0)">17</text></g><g class="a21 c2 i3 node n20" transform="translate(-131.25 9.46)"><g class="a20 c2 i11 node n14" transform="translate(-60 6.622)"><g class="a14 i12 leaf node n0 sample" transform="translate(-30 0.946)"><path class="edge" d="M 0 0 V -0.946 H 30" /><rect class="sym" height="6" width="6" x="-3" y="-3" /><text class="lab" transform="translate(0 11)">0</text></g><g class="a14 i15 leaf node n6 sample" transform="translate(30 0.946)"><path class="edge" d="M 0 0 V -0.946 H -30" /><rect class="sym" height="6" width="6" x="-3" y="-3" /><text class="lab" transform="translate(0 11)">6</text></g><path class="edge" d="M 0 0 V -6.622 H 60" /><circle class="sym" cx="0" cy="0" r="3" /><text class="lab lft" transform="translate(-3 -7.0)">14</text></g><g class="a20 c2 i5 node n19" transform="translate(60 3.784)"><g class="a19 i14 leaf node n4 sample" transform="translate(-30 3.784)"><path class="edge" d="M 0 0 V -3.784 H 30" /><rect class="sym" height="6" width="6" x="-3" y="-3" /><text class="lab" transform="translate(0 11)">4</text></g><g class="a19 i16 leaf node n8 sample" transform="translate(30 3.784)"><path class="edge" d="M 0 0 V -3.784 H -30" /><rect class="sym" height="6" width="6" x="-3" y="-3" /><text class="lab" transform="translate(0 11)">8</text></g><path class="edge" d="M 0 0 V -3.784 H -60" /><circle class="sym" cx="0" cy="0" r="3" /><text class="lab rgt" transform="translate(3 -7.0)">19</text></g><path class="edge" d="M 0 0 V -9.46 H 131.25" /><circle class="sym" cx="0" cy="0" r="3" /><text class="lab lft" transform="translate(-3 -7.0)">20</text></g><path class="edge" d="M 0 0 V -19.866 H 185.625" /><circle class="sym" cx="0" cy="0" r="3" /><text class="lab lft" transform="translate(-3 -7.0)">21</text></g><path class="edge" d="M 0 0 V -57.706 H 0.0" /><circle class="sym" cx="0" cy="0" r="3" /><text class="lab lft" transform="translate(-3 -7.0)">22</text></g><circle class="sym" cx="0" cy="0" r="3" /><text class="lab" transform="translate(0 -11)">23</text></g></g></g></g></g></svg>