<svg baseProfile="full" height="200" version="1.1" width="600" xmlns="http://www.w3.org/2000/svg" xmlns:ev="http://www.w3.org/2001/xml-events" xmlns:xlink="http://www.w3.org/1999/xlink"><defs><style type="text/css"><![CDATA[.background path {fill: #808080; fill-opacity: 0}.background path:nth-child(odd) {fill-opacity: .1}.axes {font-size: 14px}.x-axis .tick .lab {font-weight: bold; dominant-baseline: hanging}.axes, .tree {font-size: 14px; text-anchor: middle}.axes line, .edge {stroke: black; fill: none}.axes .ax-skip {stroke-dasharray: 4}.y-axis .grid {stroke: #FAFAFA}.node > .sym {fill: black; stroke: none}.site > .sym {stroke: black}.mut text {fill: red; font-style: italic}.mut.extra text {fill: hotpink}.mut line {fill: none; stroke: none}.mut .sym {fill: none; stroke: red}.mut.extra .sym {stroke: hotpink}.node .mut .sym {stroke-width: 1.5px}.tree text, .tree-sequence text {dominant-baseline: central}.plotbox .lab.lft {text-anchor: end}.plotbox .lab.rgt {text-anchor: start}]]></style></defs><g class="tree-sequence"><g class="background"><path d="M56.8,0 l174.4,0 l0,138.2 l-69.76,25 l0,5 l-104.64,0 l0,-5 l0,-25 l0,-138.2z" /><path d="M231.2,0 l174.4,0 l0,138.2 l69.76,25 l0,5 l-313.92,0 l0,-5 l69.76,-25 l0,-138.2z" /><path d="M405.6,0 l174.4,0 l0,138.2 l0,25 l0,5 l-104.64,0 l0,-5 l-69.76,-25 l0,-138.2z" /></g><g class="axes"><g class="x-axis"><g class="title" transform="translate(318.4 200)"><text class="lab" text-anchor="middle" transform="translate(0 -11)">Genome position</text></g><line class="ax-line" x1="56.8" x2="580" y1="163.2" y2="163.2" /><g class="ticks"><g class="tick" transform="translate(56.8 163.2)"><line x1="0" x2="0" y1="0" y2="5" /><g transform="translate(0 6)"><text class="lab">0</text></g></g><g class="tick" transform="translate(161.44 163.2)"><line x1="0" x2="0" y1="0" y2="5" /><g transform="translate(0 6)"><text class="lab">20</text></g></g><g class="tick" transform="translate(475.36 163.2)"><line x1="0" x2="0" y1="0" y2="5" /><g transform="translate(0 6)"><text class="lab">80</text></g></g><g class="tick" transform="translate(580 163.2)"><line x1="0" x2="0" y1="0" y2="5" /><g transform="translate(0 6)"><text class="lab">100</text></g></g></g><g class="site s0" transform="translate(135.28 163.2)"><line class="sym" x1="0" x2="0" y1="0" y2="-10" /><g class="mut m0"><polyline class="sym" points="2.5,-6.5 0,-1.5 -2.5,-6.5" /></g></g><g class="site s1" transform="translate(276.544 163.2)"><line class="sym" x1="0" x2="0" y1="0" y2="-10" /><g class="mut m1"><polyline class="sym" points="2.5,-6.5 0,-1.5 -2.5,-6.5" /></g></g><g class="site s2" transform="translate(370.72 163.2)"><line class="sym" x1="0" x2="0" y1="0" y2="-10" /><g class="mut m3"><polyline class="sym" points="2.5,-6.5 0,-1.5 -2.5,-6.5" /></g><g class="mut m2"><polyline class="sym" points="2.5,-10.5 0,-5.5 -2.5,-10.5" /></g></g></g><g class="y-axis"><g class="title" transform="translate(0 65.7)"><text class="lab" text-anchor="middle" transform="translate(11) rotate(-90)">Time</text></g><line class="ax-line" x1="56.8" x2="56.8" y1="121.4" y2="10" /><g class="ticks"><g class="tick" transform="translate(56.8 121.4)"><line x1="0" x2="-5" y1="0" y2="0" /><g transform="translate(-6 0)"><text class="lab" text-anchor="end">0.00</text></g></g><g class="tick" transform="translate(56.8 107.21)"><line x1="0" x2="-5" y1="0" y2="0" /><g transform="translate(-6 0)"><text class="lab" text-anchor="end">0.15</text></g></g><g class="tick" transform="translate(56.8 64.64)"><line x1="0" x2="-5" y1="0" y2="0" /><g transform="translate(-6 0)"><text class="lab" text-anchor="end">0.60</text></g></g><g class="tick" transform="translate(56.8 45.72)"><line x1="0" x2="-5" y1="0" y2="0" /><g transform="translate(-6 0)"><text class="lab" text-anchor="end">0.80</text></g></g><g class="tick" transform="translate(56.8 26.8)"><line x1="0" x2="-5" y1="0" y2="0" /><g transform="translate(-6 0)"><text class="lab" text-anchor="end">1.00</text></g></g></g></g></g><g class="plotbox trees"><g class="tree t0" transform="translate(56.8 0)"><g class="plotbox"><g class="c2 node n6 root" transform="translate(76 26.8)"><g class="a6 i0 leaf node n0 p0 sample" transform="translate(-33.6 94.6)"><path class="edge" d="M 0 0 V -94.6 H 33.6" /><rect class="sym" height="6" width="6" x="-3" y="-3" /><text class="lab" transform="translate(0 11)">0</text></g><g class="a6 c2 m0 node n4 s0" transform="translate(33.6 37.84)"><g class="a4 i0 leaf node n1 p0 sample" transform="translate(-22.4 56.76)"><path class="edge" d="M 0 0 V -56.76 H 22.4" /><rect class="sym" height="6" width="6" x="-3" y="-3" /><text class="lab" transform="translate(0 11)">1</text></g><g class="a4 i1 leaf node n2 p0 sample" transform="translate(22.4 56.76)"><path class="edge" d="M 0 0 V -56.76 H -22.4" /><rect class="sym" height="6" width="6" x="-3" y="-3" /><text class="lab" transform="translate(0 11)">2</text></g><path class="edge" d="M 0 0 V -37.84 H -33.6" /><g class="mut m0 s0" transform="translate(0 -28.38)"><line x1="0" x2="0" y1="0" y2="28.38" /><path class="sym" d="M -3,-3 l 6,6 M -3,3 l 6,-6" /><text class="lab rgt" transform="translate(5 0)">A→G @15</text></g><circle class="sym" cx="0" cy="0" r="3" /><text class="lab rgt" transform="translate(3 -7.0)">4</text></g><circle class="sym" cx="0" cy="0" r="3" /><text class="lab" transform="translate(0 -11)">6</text></g></g></g><g class="tree t1" transform="translate(231.2 0)"><g class="plotbox"><g class="c2 node n4 root" transform="translate(98.4 64.64)"><g class="a4 i0 leaf m1 node n1 p0 s1 sample" transform="translate(33.6 56.76)"><path class="edge" d="M 0 0 V -56.76 H -33.6" /><g class="mut m1 s1" transform="translate(0 -37.84)"><line x1="0" x2="0" y1="0" y2="37.84" /><path class="sym" d="M -3,-3 l 6,6 M -3,3 l 6,-6" /><text class="lab rgt" transform="translate(5 0)">G→A @42</text></g><rect class="sym" height="6" width="6" x="-3" y="-3" /><text class="lab" transform="translate(0 11)">1</text></g><g class="a4 c2 i2 m2 node n3 p0 s2" transform="translate(-33.6 42.57)"><g class="a3 i0 leaf m3 node n0 p0 s2 sample" transform="translate(-22.4 14.19)"><path class="edge" d="M 0 0 V -14.19 H 22.4" /><g class="mut m3 s2" transform="translate(0 -9.46)"><line x1="0" x2="0" y1="0" y2="9.46" /><path class="sym" d="M -3,-3 l 6,6 M -3,3 l 6,-6" /><text class="lab lft" transform="translate(-5 0)">C→T @60</text></g><rect class="sym" height="6" width="6" x="-3" y="-3" /><text class="lab" transform="translate(0 11)">0</text></g><g class="a3 i1 leaf node n2 p0 sample" transform="translate(22.4 14.19)"><path class="edge" d="M 0 0 V -14.19 H -22.4" /><rect class="sym" height="6" width="6" x="-3" y="-3" /><text class="lab" transform="translate(0 11)">2</text></g><path class="edge" d="M 0 0 V -42.57 H 33.6" /><g class="mut m2 s2" transform="translate(0 -37.84)"><line x1="0" x2="0" y1="0" y2="37.84" /><path class="sym" d="M -3,-3 l 6,6 M -3,3 l 6,-6" /><text class="lab lft" transform="translate(-5 0)">T→C @60</text></g><circle class="sym" cx="0" cy="0" r="3" /><text class="lab lft" transform="translate(-3 -7.0)">3</text></g><circle class="sym" cx="0" cy="0" r="3" /><text class="lab" transform="translate(0 -11)">4</text></g></g></g><g class="tree t2" transform="translate(405.6 0)"><g class="plotbox"><g class="c2 node n5 root" transform="translate(76 45.72)"><g class="a5 i0 leaf node n0 p0 sample" transform="translate(-33.6 75.68)"><path class="edge" d="M 0 0 V -75.68 H 33.6" /><rect class="sym" height="6" width="6" x="-3" y="-3" /><text class="lab" transform="translate(0 11)">0</text></g><g class="a5 c2 node n4" transform="translate(33.6 18.92)"><g class="a4 i0 leaf node n1 p0 sample" transform="translate(-22.4 56.76)"><path class="edge" d="M 0 0 V -56.76 H 22.4" /><rect class="sym" height="6" width="6" x="-3" y="-3" /><text class="lab" transform="translate(0 11)">1</text></g><g class="a4 i1 leaf node n2 p0 sample" transform="translate(22.4 56.76)"><path class="edge" d="M 0 0 V -56.76 H -22.4" /><rect class="sym" height="6" width="6" x="-3" y="-3" /><text class="lab" transform="translate(0 11)">2</text></g><path class="edge" d="M 0 0 V -18.92 H -33.6" /><circle class="sym" cx="0" cy="0" r="3" /><text class="lab rgt" transform="translate(3 -7.0)">4</text></g><circle class="sym" cx="0" cy="0" r="3" /><text class="lab" transform="translate(0 -11)">5</text></g></g></g></g></g></svg>