<svg baseProfile="full" height="500" version="1.1" width="1260" xmlns="http://www.w3.org/2000/svg" xmlns:ev="http://www.w3.org/2001/xml-events" xmlns:xlink="http://www.w3.org/1999/xlink"><defs><style type="text/css"><![CDATA[.background path {fill: #808080; fill-opacity: 0}.background path:nth-child(odd) {fill-opacity: .1}.axes {font-size: 14px}.x-axis .tick .lab {font-weight: bold; dominant-baseline: hanging}.axes, .tree {font-size: 14px; text-anchor: middle}.axes line, .edge {stroke: black; fill: none}.axes .ax-skip {stroke-dasharray: 4}.y-axis .grid {stroke: #FAFAFA}.node > .sym {fill: black; stroke: none}.site > .sym {stroke: black}.mut text {fill: red; font-style: italic}.mut.extra text {fill: hotpink}.mut line {fill: none; stroke: none}.mut .sym {fill: none; stroke: red}.mut.extra .sym {stroke: hotpink}.node .mut .sym {stroke-width: 1.5px}.tree text, .tree-sequence text {dominant-baseline: central}.plotbox .lab.lft {text-anchor: end}.plotbox .lab.rgt {text-anchor: start}.tree-sequence {transform: translateX(60px)}.sample .lab {text-anchor: start; transform: rotate(90deg) translate(6px); font-size: 80%}.x-axis .tick .lab {font-size: 85%}.y-axis .title {transform: translateY(250px)}.y-axis .tick .grid {stroke: lightgrey}.y-axis .ticks .tick:nth-child(3) .grid {stroke-dasharray: 4}.y-axis .ticks .tick:nth-child(3) .grid {stroke: magenta}.y-axis .ticks .tick:nth-child(4) .grid {stroke: blue}.y-axis .ticks .tick:nth-child(5) .grid {stroke: darkgrey}]]></style></defs><g class="tree-sequence"><g class="background"><path d="M56.8,0 l112.32,0 l0,438.2 l39.4019,25 l0,5 l-151.722,0 l0,-5 l0,-25 l0,-438.2z" /><path d="M169.12,0 l112.32,0 l0,438.2 l-17.3871,25 l0,5 l-55.531,0 l0,-5 l-39.402,-25 l0,-438.2z" /><path d="M281.44,0 l112.32,0 l0,438.2 l-52.5208,25 l0,5 l-77.1863,0 l0,-5 l17.387,-25 l0,-438.2z" /><path d="M393.76,0 l112.32,0 l0,438.2 l-75.8834,25 l0,5 l-88.9574,0 l0,-5 l52.521,-25 l0,-438.2z" /><path d="M506.08,0 l112.32,0 l0,438.2 l-31.854,25 l0,5 l-156.349,0 l0,-5 l75.883,-25 l0,-438.2z" /><path d="M618.4,0 l112.32,0 l0,438.2 l-86.3965,25 l0,5 l-57.7774,0 l0,-5 l31.854,-25 l0,-438.2z" /><path d="M730.72,0 l112.32,0 l0,438.2 l-101.762,25 l0,5 l-96.9546,0 l0,-5 l86.397,-25 l0,-438.2z" /><path d="M843.04,0 l112.32,0 l0,438.2 l-178.948,25 l0,5 l-35.1337,0 l0,-5 l101.762,-25 l0,-438.2z" /><path d="M955.36,0 l112.32,0 l0,438.2 l-215.07,25 l0,5 l-76.1979,0 l0,-5 l178.948,-25 l0,-438.2z" /><path d="M1067.68,0 l112.32,0 l0,438.2 l0,25 l0,5 l-327.39,0 l0,-5 l215.07,-25 l0,-438.2z" /></g><g class="axes"><g class="x-axis"><g class="title" transform="translate(618.4 500)"><text class="lab" text-anchor="middle" transform="translate(0 -11)">Genome position</text></g><line class="ax-line" x1="56.8" x2="1180" y1="463.2" y2="463.2" /><g class="ticks"><g class="tick" transform="translate(56.8 463.2)"><line x1="0" x2="0" y1="0" y2="5" /><g transform="translate(0 6)"><text class="lab">0</text></g></g><g class="tick" transform="translate(208.522 463.2)"><line x1="0" x2="0" y1="0" y2="5" /><g transform="translate(0 6)"><text class="lab">3377</text></g></g><g class="tick" transform="translate(264.053 463.2)"><line x1="0" x2="0" y1="0" y2="5" /><g transform="translate(0 6)"><text class="lab">4613</text></g></g><g class="tick" transform="translate(341.239 463.2)"><line x1="0" x2="0" y1="0" y2="5" /><g transform="translate(0 6)"><text class="lab">6331</text></g></g><g class="tick" transform="translate(430.197 463.2)"><line x1="0" x2="0" y1="0" y2="5" /><g transform="translate(0 6)"><text class="lab">8311</text></g></g><g class="tick" transform="translate(586.546 463.2)"><line x1="0" x2="0" y1="0" y2="5" /><g transform="translate(0 6)"><text class="lab">11791</text></g></g><g class="tick" transform="translate(644.323 463.2)"><line x1="0" x2="0" y1="0" y2="5" /><g transform="translate(0 6)"><text class="lab">13077</text></g></g><g class="tick" transform="translate(741.278 463.2)"><line x1="0" x2="0" y1="0" y2="5" /><g transform="translate(0 6)"><text class="lab">15235</text></g></g><g class="tick" transform="translate(776.412 463.2)"><line x1="0" x2="0" y1="0" y2="5" /><g transform="translate(0 6)"><text class="lab">16017</text></g></g><g class="tick" transform="translate(852.61 463.2)"><line x1="0" x2="0" y1="0" y2="5" /><g transform="translate(0 6)"><text class="lab">17713</text></g></g></g></g><g class="y-axis"><g class="title" transform="translate(0 215.7)"><text class="lab" text-anchor="middle" transform="translate(11) rotate(-90)">Time (generations)</text></g><line class="ax-line" x1="56.8" x2="56.8" y1="421.4" y2="10" /><g class="ticks"><g class="tick" transform="translate(56.8 421.4)"><line class="grid" x1="0" x2="1123.2" y1="0" y2="0" /><line x1="0" x2="-5" y1="0" y2="0" /><g transform="translate(-6 0)"><text class="lab" text-anchor="end">0</text></g></g><g class="tick" transform="translate(56.8 168.142)"><line class="grid" x1="0" x2="1123.2" y1="0" y2="0" /><line x1="0" x2="-5" y1="0" y2="0" /><g transform="translate(-6 0)"><text class="lab" text-anchor="end">30</text></g></g><g class="tick" transform="translate(56.8 149.909)"><line class="grid" x1="0" x2="1123.2" y1="0" y2="0" /><line x1="0" x2="-5" y1="0" y2="0" /><g transform="translate(-6 0)"><text class="lab" text-anchor="end">Introgression event</text></g></g><g class="tick" transform="translate(56.8 137.897)"><line class="grid" x1="0" x2="1123.2" y1="0" y2="0" /><line x1="0" x2="-5" y1="0" y2="0" /><g transform="translate(-6 0)"><text class="lab" text-anchor="end">European origin</text></g></g><g class="tick" transform="translate(56.8 85.9294)"><line class="grid" x1="0" x2="1123.2" y1="0" y2="0" /><line x1="0" x2="-5" y1="0" y2="0" /><g transform="translate(-6 0)"><text class="lab" text-anchor="end">Neanderthal origin</text></g></g><g class="tick" transform="translate(56.8 42.9304)"><line class="grid" x1="0" x2="1123.2" y1="0" y2="0" /><line x1="0" x2="-5" y1="0" y2="0" /><g transform="translate(-6 0)"><text class="lab" text-anchor="end">1000</text></g></g></g></g></g><g class="plotbox trees"><g class="tree t-1" transform="translate(56.8 0)"><g class="plotbox"><g class="c2 node n4006 p0 root" transform="translate(62.1867 52.4858)"><g class="a4006 i2 leaf node n2 p2 sample" transform="translate(18.08 115.656)"><path class="edge" d="M 0 0 V -115.656 H -18.08" /><rect class="sym" height="6" width="6" x="-3" y="-3" /><text class="lab" transform="translate(0 11)">Neanderthal</text></g><g class="a4006 c2 node n321 p0" transform="translate(-18.08 50.5693)"><g class="a321 i0 leaf node n0 p0 sample" transform="translate(-12.0533 318.345)"><path class="edge" d="M 0 0 V -318.345 H 12.0533" /><rect class="sym" height="6" width="6" x="-3" y="-3" /><text class="lab" transform="translate(0 11)">Africa</text></g><g class="a321 i1 leaf node n1 p1 sample" transform="translate(12.0533 318.345)"><path class="edge" d="M 0 0 V -318.345 H -12.0533" /><rect class="sym" height="6" width="6" x="-3" y="-3" /><text class="lab" transform="translate(0 11)">Europe</text></g><path class="edge" d="M 0 0 V -50.5693 H 18.08" /><circle class="sym" cx="0" cy="0" r="3" /><text class="lab lft" transform="translate(-3 -7.0)" /></g><circle class="sym" cx="0" cy="0" r="3" /><text class="lab" transform="translate(0 -11)" /></g></g></g><g class="tree t0" transform="translate(169.12 0)"><g class="plotbox"><g class="c2 node n5843 p0 root" transform="translate(62.1867 34.3648)"><g class="a5843 i2 leaf node n2 p2 sample" transform="translate(18.08 133.777)"><path class="edge" d="M 0 0 V -133.777 H -18.08" /><rect class="sym" height="6" width="6" x="-3" y="-3" /><text class="lab" transform="translate(0 11)">Neanderthal</text></g><g class="a5843 c2 node n321 p0" transform="translate(-18.08 68.6903)"><g class="a321 i0 leaf node n0 p0 sample" transform="translate(-12.0533 318.345)"><path class="edge" d="M 0 0 V -318.345 H 12.0533" /><rect class="sym" height="6" width="6" x="-3" y="-3" /><text class="lab" transform="translate(0 11)">Africa</text></g><g class="a321 i1 leaf node n1 p1 sample" transform="translate(12.0533 318.345)"><path class="edge" d="M 0 0 V -318.345 H -12.0533" /><rect class="sym" height="6" width="6" x="-3" y="-3" /><text class="lab" transform="translate(0 11)">Europe</text></g><path class="edge" d="M 0 0 V -68.6903 H 18.08" /><circle class="sym" cx="0" cy="0" r="3" /><text class="lab lft" transform="translate(-3 -7.0)" /></g><circle class="sym" cx="0" cy="0" r="3" /><text class="lab" transform="translate(0 -11)" /></g></g></g><g class="tree t1" transform="translate(281.44 0)"><g class="plotbox"><g class="c2 node n6555 p0 root" transform="translate(62.1867 26.8)"><g class="a6555 i2 leaf node n2 p2 sample" transform="translate(18.08 141.342)"><path class="edge" d="M 0 0 V -141.342 H -18.08" /><rect class="sym" height="6" width="6" x="-3" y="-3" /><text class="lab" transform="translate(0 11)">Neanderthal</text></g><g class="a6555 c2 node n321 p0" transform="translate(-18.08 76.2551)"><g class="a321 i0 leaf node n0 p0 sample" transform="translate(-12.0533 318.345)"><path class="edge" d="M 0 0 V -318.345 H 12.0533" /><rect class="sym" height="6" width="6" x="-3" y="-3" /><text class="lab" transform="translate(0 11)">Africa</text></g><g class="a321 i1 leaf node n1 p1 sample" transform="translate(12.0533 318.345)"><path class="edge" d="M 0 0 V -318.345 H -12.0533" /><rect class="sym" height="6" width="6" x="-3" y="-3" /><text class="lab" transform="translate(0 11)">Europe</text></g><path class="edge" d="M 0 0 V -76.2551 H 18.08" /><circle class="sym" cx="0" cy="0" r="3" /><text class="lab lft" transform="translate(-3 -7.0)" /></g><circle class="sym" cx="0" cy="0" r="3" /><text class="lab" transform="translate(0 -11)" /></g></g></g><g class="tree t2" transform="translate(393.76 0)"><g class="plotbox"><g class="c2 node n3060 p0 root" transform="translate(62.1867 61.2155)"><g class="a3060 i2 leaf node n2 p2 sample" transform="translate(18.08 106.926)"><path class="edge" d="M 0 0 V -106.926 H -18.08" /><rect class="sym" height="6" width="6" x="-3" y="-3" /><text class="lab" transform="translate(0 11)">Neanderthal</text></g><g class="a3060 c2 node n321 p0" transform="translate(-18.08 41.8396)"><g class="a321 i0 leaf node n0 p0 sample" transform="translate(-12.0533 318.345)"><path class="edge" d="M 0 0 V -318.345 H 12.0533" /><rect class="sym" height="6" width="6" x="-3" y="-3" /><text class="lab" transform="translate(0 11)">Africa</text></g><g class="a321 i1 leaf node n1 p1 sample" transform="translate(12.0533 318.345)"><path class="edge" d="M 0 0 V -318.345 H -12.0533" /><rect class="sym" height="6" width="6" x="-3" y="-3" /><text class="lab" transform="translate(0 11)">Europe</text></g><path class="edge" d="M 0 0 V -41.8396 H 18.08" /><circle class="sym" cx="0" cy="0" r="3" /><text class="lab lft" transform="translate(-3 -7.0)" /></g><circle class="sym" cx="0" cy="0" r="3" /><text class="lab" transform="translate(0 -11)" /></g></g></g><g class="tree t3" transform="translate(506.08 0)"><g class="plotbox"><g class="c2 node n3060 p0 root" transform="translate(62.1867 61.2155)"><g class="a3060 i2 leaf node n2 p2 sample" transform="translate(18.08 106.926)"><path class="edge" d="M 0 0 V -106.926 H -18.08" /><rect class="sym" height="6" width="6" x="-3" y="-3" /><text class="lab" transform="translate(0 11)">Neanderthal</text></g><g class="a3060 c2 node n2807 p0" transform="translate(-18.08 2.55705)"><g class="a2807 i0 leaf node n0 p0 sample" transform="translate(-12.0533 357.627)"><path class="edge" d="M 0 0 V -357.627 H 12.0533" /><rect class="sym" height="6" width="6" x="-3" y="-3" /><text class="lab" transform="translate(0 11)">Africa</text></g><g class="a2807 i1 leaf node n1 p1 sample" transform="translate(12.0533 357.627)"><path class="edge" d="M 0 0 V -357.627 H -12.0533" /><rect class="sym" height="6" width="6" x="-3" y="-3" /><text class="lab" transform="translate(0 11)">Europe</text></g><path class="edge" d="M 0 0 V -2.55705 H 18.08" /><circle class="sym" cx="0" cy="0" r="3" /><text class="lab lft" transform="translate(-3 -7.0)" /></g><circle class="sym" cx="0" cy="0" r="3" /><text class="lab" transform="translate(0 -11)" /></g></g></g><g class="tree t4" transform="translate(618.4 0)"><g class="plotbox"><g class="c2 node n3060 p0 root" transform="translate(50.1333 61.2155)"><g class="a3060 i0 leaf node n0 p0 sample" transform="translate(-18.08 360.185)"><path class="edge" d="M 0 0 V -360.185 H 18.08" /><rect class="sym" height="6" width="6" x="-3" y="-3" /><text class="lab" transform="translate(0 11)">Africa</text></g><g class="a3060 c2 node n2738 p0" transform="translate(18.08 3.27246)"><g class="a2738 i1 leaf node n1 p1 sample" transform="translate(-12.0533 356.912)"><path class="edge" d="M 0 0 V -356.912 H 12.0533" /><rect class="sym" height="6" width="6" x="-3" y="-3" /><text class="lab" transform="translate(0 11)">Europe</text></g><g class="a2738 i2 leaf node n2 p2 sample" transform="translate(12.0533 103.654)"><path class="edge" d="M 0 0 V -103.654 H -12.0533" /><rect class="sym" height="6" width="6" x="-3" y="-3" /><text class="lab" transform="translate(0 11)">Neanderthal</text></g><path class="edge" d="M 0 0 V -3.27246 H -18.08" /><circle class="sym" cx="0" cy="0" r="3" /><text class="lab rgt" transform="translate(3 -7.0)" /></g><circle class="sym" cx="0" cy="0" r="3" /><text class="lab" transform="translate(0 -11)" /></g></g></g><g class="tree t5" transform="translate(730.72 0)"><g class="plotbox"><g class="c2 node n3060 p0 root" transform="translate(62.1867 61.2155)"><g class="a3060 i2 leaf node n2 p2 sample" transform="translate(18.08 106.926)"><path class="edge" d="M 0 0 V -106.926 H -18.08" /><rect class="sym" height="6" width="6" x="-3" y="-3" /><text class="lab" transform="translate(0 11)">Neanderthal</text></g><g class="a3060 c2 node n2401 p0" transform="translate(-18.08 6.43504)"><g class="a2401 i0 leaf node n0 p0 sample" transform="translate(-12.0533 353.75)"><path class="edge" d="M 0 0 V -353.75 H 12.0533" /><rect class="sym" height="6" width="6" x="-3" y="-3" /><text class="lab" transform="translate(0 11)">Africa</text></g><g class="a2401 i1 leaf node n1 p1 sample" transform="translate(12.0533 353.75)"><path class="edge" d="M 0 0 V -353.75 H -12.0533" /><rect class="sym" height="6" width="6" x="-3" y="-3" /><text class="lab" transform="translate(0 11)">Europe</text></g><path class="edge" d="M 0 0 V -6.43504 H 18.08" /><circle class="sym" cx="0" cy="0" r="3" /><text class="lab lft" transform="translate(-3 -7.0)" /></g><circle class="sym" cx="0" cy="0" r="3" /><text class="lab" transform="translate(0 -11)" /></g></g></g><g class="tree t6" transform="translate(843.04 0)"><g class="plotbox"><g class="c2 node n2401 p0 root" transform="translate(62.1867 67.6505)"><g class="a2401 i1 leaf node n1 p1 sample" transform="translate(18.08 353.75)"><path class="edge" d="M 0 0 V -353.75 H -18.08" /><rect class="sym" height="6" width="6" x="-3" y="-3" /><text class="lab" transform="translate(0 11)">Europe</text></g><g class="a2401 c2 node n1758 p0" transform="translate(-18.08 6.4898)"><g class="a1758 i0 leaf node n0 p0 sample" transform="translate(-12.0533 347.26)"><path class="edge" d="M 0 0 V -347.26 H 12.0533" /><rect class="sym" height="6" width="6" x="-3" y="-3" /><text class="lab" transform="translate(0 11)">Africa</text></g><g class="a1758 i2 leaf node n2 p2 sample" transform="translate(12.0533 94.0013)"><path class="edge" d="M 0 0 V -94.0013 H -12.0533" /><rect class="sym" height="6" width="6" x="-3" y="-3" /><text class="lab" transform="translate(0 11)">Neanderthal</text></g><path class="edge" d="M 0 0 V -6.4898 H 18.08" /><circle class="sym" cx="0" cy="0" r="3" /><text class="lab lft" transform="translate(-3 -7.0)" /></g><circle class="sym" cx="0" cy="0" r="3" /><text class="lab" transform="translate(0 -11)" /></g></g></g><g class="tree t7" transform="translate(955.36 0)"><g class="plotbox"><g class="c2 node n2401 p0 root" transform="translate(62.1867 67.6505)"><g class="a2401 i1 leaf node n1 p1 sample" transform="translate(18.08 353.75)"><path class="edge" d="M 0 0 V -353.75 H -18.08" /><rect class="sym" height="6" width="6" x="-3" y="-3" /><text class="lab" transform="translate(0 11)">Europe</text></g><g class="a2401 c2 node n1791 p0" transform="translate(-18.08 6.16124)"><g class="a1791 i0 leaf node n0 p0 sample" transform="translate(-12.0533 347.588)"><path class="edge" d="M 0 0 V -347.588 H 12.0533" /><rect class="sym" height="6" width="6" x="-3" y="-3" /><text class="lab" transform="translate(0 11)">Africa</text></g><g class="a1791 i2 leaf node n2 p2 sample" transform="translate(12.0533 94.3298)"><path class="edge" d="M 0 0 V -94.3298 H -12.0533" /><rect class="sym" height="6" width="6" x="-3" y="-3" /><text class="lab" transform="translate(0 11)">Neanderthal</text></g><path class="edge" d="M 0 0 V -6.16124 H 18.08" /><circle class="sym" cx="0" cy="0" r="3" /><text class="lab lft" transform="translate(-3 -7.0)" /></g><circle class="sym" cx="0" cy="0" r="3" /><text class="lab" transform="translate(0 -11)" /></g></g></g><g class="tree t8" transform="translate(1067.68 0)"><g class="plotbox"><g class="c2 node n2401 p0 root" transform="translate(62.1867 67.6505)"><g class="a2401 i1 leaf node n1 p1 sample" transform="translate(18.08 353.75)"><path class="edge" d="M 0 0 V -353.75 H -18.08" /><rect class="sym" height="6" width="6" x="-3" y="-3" /><text class="lab" transform="translate(0 11)">Europe</text></g><g class="a2401 c2 node n1402 p0" transform="translate(-18.08 10.4014)"><g class="a1402 i0 leaf node n0 p0 sample" transform="translate(-12.0533 343.348)"><path class="edge" d="M 0 0 V -343.348 H 12.0533" /><rect class="sym" height="6" width="6" x="-3" y="-3" /><text class="lab" transform="translate(0 11)">Africa</text></g><g class="a1402 i2 leaf node n2 p2 sample" transform="translate(12.0533 90.0897)"><path class="edge" d="M 0 0 V -90.0897 H -12.0533" /><rect class="sym" height="6" width="6" x="-3" y="-3" /><text class="lab" transform="translate(0 11)">Neanderthal</text></g><path class="edge" d="M 0 0 V -10.4014 H 18.08" /><circle class="sym" cx="0" cy="0" r="3" /><text class="lab lft" transform="translate(-3 -7.0)" /></g><circle class="sym" cx="0" cy="0" r="3" /><text class="lab" transform="translate(0 -11)" /></g></g></g></g></g></svg>