<svg baseProfile="full" height="200" version="1.1" width="200" xmlns="http://www.w3.org/2000/svg" xmlns:ev="http://www.w3.org/2001/xml-events" xmlns:xlink="http://www.w3.org/1999/xlink"><defs><style type="text/css"><![CDATA[.background path {fill: #808080; fill-opacity: 0}.background path:nth-child(odd) {fill-opacity: .1}.axes {font-size: 14px}.x-axis .tick .lab {font-weight: bold; dominant-baseline: hanging}.axes, .tree {font-size: 14px; text-anchor: middle}.axes line, .edge {stroke: black; fill: none}.axes .ax-skip {stroke-dasharray: 4}.y-axis .grid {stroke: #FAFAFA}.node > .sym {fill: black; stroke: none}.site > .sym {stroke: black}.mut text {fill: red; font-style: italic}.mut.extra text {fill: hotpink}.mut line {fill: none; stroke: none}.mut .sym {fill: none; stroke: red}.mut.extra .sym {stroke: hotpink}.node .mut .sym {stroke-width: 1.5px}.tree text, .tree-sequence text {dominant-baseline: central}.plotbox .lab.lft {text-anchor: end}.plotbox .lab.rgt {text-anchor: start}]]></style></defs><g class="tree t0"><g class="plotbox"><g class="c2 node n18 root" transform="translate(86 26.8)"><g class="a18 leaf node n0 sample" transform="translate(-58 141.4)"><path class="edge" d="M 0 0 V -141.4 H 58" /><rect class="sym" height="6" width="6" x="-3" y="-3" /><text class="lab" transform="translate(0 11)">a</text></g><g class="a18 c2 node n17" transform="translate(58 23.5667)"><g class="a17 leaf node n9 sample" transform="translate(28 117.833)"><path class="edge" d="M 0 0 V -117.833 H -28" /><rect class="sym" height="6" width="6" x="-3" y="-3" /><text class="lab" transform="translate(0 11)">j</text></g><g class="a17 c2 node n16" transform="translate(-28 23.5667)"><g class="a16 c2 node n11" transform="translate(28 47.1333)"><g class="a11 leaf node n5 sample" transform="translate(12 47.1333)"><path class="edge" d="M 0 0 V -47.1333 H -12" /><rect class="sym" height="6" width="6" x="-3" y="-3" /><text class="lab" transform="translate(0 11)">f</text></g><g class="a11 c2 node n10" transform="translate(-12 23.5667)"><g class="a10 leaf node n2 sample" transform="translate(-8 23.5667)"><path class="edge" d="M 0 0 V -23.5667 H 8" /><rect class="sym" height="6" width="6" x="-3" y="-3" /><text class="lab" transform="translate(0 11)">c</text></g><g class="a10 leaf node n7 sample" transform="translate(8 23.5667)"><path class="edge" d="M 0 0 V -23.5667 H -8" /><rect class="sym" height="6" width="6" x="-3" y="-3" /><text class="lab" transform="translate(0 11)">h</text></g><path class="edge" d="M 0 0 V -23.5667 H 12" /><circle class="sym" cx="0" cy="0" r="3" /><text class="lab lft" transform="translate(-3 -7.0)" /></g><path class="edge" d="M 0 0 V -47.1333 H -28" /><circle class="sym" cx="0" cy="0" r="3" /><text class="lab rgt" transform="translate(3 -7.0)" /></g><g class="a16 c2 node n15" transform="translate(-28 23.5667)"><g class="a15 leaf node n6 sample" transform="translate(20 70.7)"><path class="edge" d="M 0 0 V -70.7 H -20" /><rect class="sym" height="6" width="6" x="-3" y="-3" /><text class="lab" transform="translate(0 11)">g</text></g><g class="a15 c2 node n14" transform="translate(-20 23.5667)"><g class="a14 c2 node n12" transform="translate(-16 23.5667)"><g class="a12 leaf node n1 sample" transform="translate(-8 23.5667)"><path class="edge" d="M 0 0 V -23.5667 H 8" /><rect class="sym" height="6" width="6" x="-3" y="-3" /><text class="lab" transform="translate(0 11)">b</text></g><g class="a12 leaf node n4 sample" transform="translate(8 23.5667)"><path class="edge" d="M 0 0 V -23.5667 H -8" /><rect class="sym" height="6" width="6" x="-3" y="-3" /><text class="lab" transform="translate(0 11)">e</text></g><path class="edge" d="M 0 0 V -23.5667 H 16" /><circle class="sym" cx="0" cy="0" r="3" /><text class="lab lft" transform="translate(-3 -7.0)" /></g><g class="a14 c2 node n13" transform="translate(16 23.5667)"><g class="a13 leaf node n3 sample" transform="translate(-8 23.5667)"><path class="edge" d="M 0 0 V -23.5667 H 8" /><rect class="sym" height="6" width="6" x="-3" y="-3" /><text class="lab" transform="translate(0 11)">d</text></g><g class="a13 leaf node n8 sample" transform="translate(8 23.5667)"><path class="edge" d="M 0 0 V -23.5667 H -8" /><rect class="sym" height="6" width="6" x="-3" y="-3" /><text class="lab" transform="translate(0 11)">i</text></g><path class="edge" d="M 0 0 V -23.5667 H -16" /><circle class="sym" cx="0" cy="0" r="3" /><text class="lab rgt" transform="translate(3 -7.0)" /></g><path class="edge" d="M 0 0 V -23.5667 H 20" /><circle class="sym" cx="0" cy="0" r="3" /><text class="lab lft" transform="translate(-3 -7.0)" /></g><path class="edge" d="M 0 0 V -23.5667 H 28" /><circle class="sym" cx="0" cy="0" r="3" /><text class="lab lft" transform="translate(-3 -7.0)" /></g><path class="edge" d="M 0 0 V -23.5667 H 28" /><circle class="sym" cx="0" cy="0" r="3" /><text class="lab lft" transform="translate(-3 -7.0)" /></g><path class="edge" d="M 0 0 V -23.5667 H -58" /><circle class="sym" cx="0" cy="0" r="3" /><text class="lab rgt" transform="translate(3 -7.0)" /></g><circle class="sym" cx="0" cy="0" r="3" /><text class="lab" transform="translate(0 -11)" /></g></g></g></svg>