<svg baseProfile="full" height="400" version="1.1" width="400" xmlns="http://www.w3.org/2000/svg" xmlns:ev="http://www.w3.org/2001/xml-events" xmlns:xlink="http://www.w3.org/1999/xlink"><defs><style type="text/css"><![CDATA[.background path {fill: #808080; fill-opacity: 0}.background path:nth-child(odd) {fill-opacity: .1}.axes {font-size: 14px}.x-axis .tick .lab {font-weight: bold; dominant-baseline: hanging}.axes, .tree {font-size: 14px; text-anchor: middle}.axes line, .edge {stroke: black; fill: none}.axes .ax-skip {stroke-dasharray: 4}.y-axis .grid {stroke: #FAFAFA}.node > .sym {fill: black; stroke: none}.site > .sym {stroke: black}.mut text {fill: red; font-style: italic}.mut.extra text {fill: hotpink}.mut line {fill: none; stroke: none}.mut .sym {fill: none; stroke: red}.mut.extra .sym {stroke: hotpink}.node .mut .sym {stroke-width: 1.5px}.tree text, .tree-sequence text {dominant-baseline: central}.plotbox .lab.lft {text-anchor: end}.plotbox .lab.rgt {text-anchor: start}]]></style></defs><g class="tree-sequence"><g class="background"><path d="M56.8,0 l323.2,0 l0,338.2 l0,25 l0,5 l-323.2,0 l0,-5 l0,-25 l0,-338.2z" /></g><g class="axes"><g class="x-axis"><g class="title" transform="translate(218.4 400)"><text class="lab" text-anchor="middle" transform="translate(0 -11)">Genome position</text></g><line class="ax-line" x1="56.8" x2="380" y1="363.2" y2="363.2" /><g class="ticks"><g class="tick" transform="translate(56.8 363.2)"><line x1="0" x2="0" y1="0" y2="5" /><g transform="translate(0 6)"><text class="lab">0</text></g></g><g class="tick" transform="translate(380 363.2)"><line x1="0" x2="0" y1="0" y2="5" /><g transform="translate(0 6)"><text class="lab">1</text></g></g></g></g><g class="y-axis"><g class="title" transform="translate(0 165.7)"><text class="lab" text-anchor="middle" transform="translate(11) rotate(-90)">Time (generations)</text></g><line class="ax-line" x1="56.8" x2="56.8" y1="321.4" y2="10" /><g class="ticks"><g class="tick" transform="translate(56.8 321.4)"><line x1="0" x2="-5" y1="0" y2="0" /><g transform="translate(-6 0)"><text class="lab" text-anchor="end">0.00</text></g></g><g class="tick" transform="translate(56.8 308.095)"><line x1="0" x2="-5" y1="0" y2="0" /><g transform="translate(-6 0)"><text class="lab" text-anchor="end">0.02</text></g></g><g class="tick" transform="translate(56.8 300.604)"><line x1="0" x2="-5" y1="0" y2="0" /><g transform="translate(-6 0)"><text class="lab" text-anchor="end">0.03</text></g></g><g class="tick" transform="translate(56.8 287.487)"><line x1="0" x2="-5" y1="0" y2="0" /><g transform="translate(-6 0)"><text class="lab" text-anchor="end">0.05</text></g></g><g class="tick" transform="translate(56.8 273.667)"><line x1="0" x2="-5" y1="0" y2="0" /><g transform="translate(-6 0)"><text class="lab" text-anchor="end">0.06</text></g></g><g class="tick" transform="translate(56.8 169.742)"><line x1="0" x2="-5" y1="0" y2="0" /><g transform="translate(-6 0)"><text class="lab" text-anchor="end">0.21</text></g></g><g class="tick" transform="translate(56.8 139.343)"><line x1="0" x2="-5" y1="0" y2="0" /><g transform="translate(-6 0)"><text class="lab" text-anchor="end">0.25</text></g></g><g class="tick" transform="translate(56.8 114.902)"><line x1="0" x2="-5" y1="0" y2="0" /><g transform="translate(-6 0)"><text class="lab" text-anchor="end">0.28</text></g></g><g class="tick" transform="translate(56.8 42.2075)"><line x1="0" x2="-5" y1="0" y2="0" /><g transform="translate(-6 0)"><text class="lab" text-anchor="end">0.38</text></g></g><g class="tick" transform="translate(56.8 26.8)"><line x1="0" x2="-5" y1="0" y2="0" /><g transform="translate(-6 0)"><text class="lab" text-anchor="end">0.40</text></g></g></g></g></g><g class="plotbox trees"><g class="tree t0" transform="translate(56.8 0)"><g class="plotbox"><g class="c4 node n20 p0 root" transform="translate(151.275 26.8)"><g class="a20 i0 leaf node n0 p0 sample" transform="translate(-119.475 294.6)"><path class="edge" d="M 0 0 V -294.6 H 119.475" /><rect class="sym" height="6" width="6" x="-3" y="-3" /><text class="lab" transform="translate(0 11)">0</text></g><g class="a20 c2 node n14 p0" transform="translate(33.925 260.687)"><g class="a14 i2 leaf node n2 p0 sample" transform="translate(-11.8 33.9129)"><path class="edge" d="M 0 0 V -33.9129 H 11.8" /><rect class="sym" height="6" width="6" x="-3" y="-3" /><text class="lab" transform="translate(0 11)">2</text></g><g class="a14 i5 leaf node n5 p0 sample" transform="translate(11.8 33.9129)"><path class="edge" d="M 0 0 V -33.9129 H -11.8" /><rect class="sym" height="6" width="6" x="-3" y="-3" /><text class="lab" transform="translate(0 11)">5</text></g><path class="edge" d="M 0 0 V -260.687 H -33.925" /><circle class="sym" cx="0" cy="0" r="3" /><text class="lab rgt" transform="translate(3 -7.0)">14</text></g><g class="a20 c2 node n18 p0" transform="translate(119.475 88.1021)"><g class="a18 i9 leaf node n9 p0 sample" transform="translate(20.65 206.498)"><path class="edge" d="M 0 0 V -206.498 H -20.65" /><rect class="sym" height="6" width="6" x="-3" y="-3" /><text class="lab" transform="translate(0 11)">9</text></g><g class="a18 c2 node n17 p0" transform="translate(-20.65 24.4407)"><g class="a17 i6 leaf node n6 p0 sample" transform="translate(17.7 182.057)"><path class="edge" d="M 0 0 V -182.057 H -17.7" /><rect class="sym" height="6" width="6" x="-3" y="-3" /><text class="lab" transform="translate(0 11)">6</text></g><g class="a17 c2 node n12 p0" transform="translate(-17.7 168.753)"><g class="a12 i3 leaf node n3 p0 sample" transform="translate(-11.8 13.3047)"><path class="edge" d="M 0 0 V -13.3047 H 11.8" /><rect class="sym" height="6" width="6" x="-3" y="-3" /><text class="lab" transform="translate(0 11)">3</text></g><g class="a12 i8 leaf node n8 p0 sample" transform="translate(11.8 13.3047)"><path class="edge" d="M 0 0 V -13.3047 H -11.8" /><rect class="sym" height="6" width="6" x="-3" y="-3" /><text class="lab" transform="translate(0 11)">8</text></g><path class="edge" d="M 0 0 V -168.753 H 17.7" /><circle class="sym" cx="0" cy="0" r="3" /><text class="lab lft" transform="translate(-3 -7.0)">12</text></g><path class="edge" d="M 0 0 V -24.4407 H 20.65" /><circle class="sym" cx="0" cy="0" r="3" /><text class="lab lft" transform="translate(-3 -7.0)">17</text></g><path class="edge" d="M 0 0 V -88.1021 H -119.475" /><circle class="sym" cx="0" cy="0" r="3" /><text class="lab rgt" transform="translate(3 -7.0)">18</text></g><g class="a20 c2 node n19 p0" transform="translate(-26.55 15.4075)"><g class="a19 i11 leaf node n11 p0 sample" transform="translate(25.075 279.192)"><path class="edge" d="M 0 0 V -279.192 H -25.075" /><rect class="sym" height="6" width="6" x="-3" y="-3" /><text class="lab" transform="translate(0 11)">11</text></g><g class="a19 c2 node n16 p0" transform="translate(-25.075 127.534)"><g class="a16 i7 leaf node n7 p0 sample" transform="translate(26.55 151.658)"><path class="edge" d="M 0 0 V -151.658 H -26.55" /><rect class="sym" height="6" width="6" x="-3" y="-3" /><text class="lab" transform="translate(0 11)">7</text></g><g class="a16 c2 node n15 p0" transform="translate(-26.55 103.925)"><g class="a15 i1 leaf node n1 p0 sample" transform="translate(-17.7 47.7333)"><path class="edge" d="M 0 0 V -47.7333 H 17.7" /><rect class="sym" height="6" width="6" x="-3" y="-3" /><text class="lab" transform="translate(0 11)">1</text></g><g class="a15 c2 node n13 p0" transform="translate(17.7 26.9372)"><g class="a13 i4 leaf node n4 p0 sample" transform="translate(-11.8 20.7961)"><path class="edge" d="M 0 0 V -20.7961 H 11.8" /><rect class="sym" height="6" width="6" x="-3" y="-3" /><text class="lab" transform="translate(0 11)">4</text></g><g class="a13 i10 leaf node n10 p0 sample" transform="translate(11.8 20.7961)"><path class="edge" d="M 0 0 V -20.7961 H -11.8" /><rect class="sym" height="6" width="6" x="-3" y="-3" /><text class="lab" transform="translate(0 11)">10</text></g><path class="edge" d="M 0 0 V -26.9372 H -17.7" /><circle class="sym" cx="0" cy="0" r="3" /><text class="lab rgt" transform="translate(3 -7.0)">13</text></g><path class="edge" d="M 0 0 V -103.925 H 26.55" /><circle class="sym" cx="0" cy="0" r="3" /><text class="lab lft" transform="translate(-3 -7.0)">15</text></g><path class="edge" d="M 0 0 V -127.534 H 25.075" /><circle class="sym" cx="0" cy="0" r="3" /><text class="lab lft" transform="translate(-3 -7.0)">16</text></g><path class="edge" d="M 0 0 V -15.4075 H 26.55" /><circle class="sym" cx="0" cy="0" r="3" /><text class="lab rgt" transform="translate(3 -7.0)">19</text></g><circle class="sym" cx="0" cy="0" r="3" /><text class="lab" transform="translate(0 -11)">20</text></g></g></g></g></g></svg>