<svg baseProfile="full" height="200" version="1.1" width="500" xmlns="http://www.w3.org/2000/svg" xmlns:ev="http://www.w3.org/2001/xml-events" xmlns:xlink="http://www.w3.org/1999/xlink"><defs><style type="text/css"><![CDATA[.background path {fill: #808080; fill-opacity: 0}.background path:nth-child(odd) {fill-opacity: .1}.axes {font-size: 14px}.x-axis .tick .lab {font-weight: bold; dominant-baseline: hanging}.axes, .tree {font-size: 14px; text-anchor: middle}.axes line, .edge {stroke: black; fill: none}.axes .ax-skip {stroke-dasharray: 4}.y-axis .grid {stroke: #FAFAFA}.node > .sym {fill: black; stroke: none}.site > .sym {stroke: black}.mut text {fill: red; font-style: italic}.mut.extra text {fill: hotpink}.mut line {fill: none; stroke: none}.mut .sym {fill: none; stroke: red}.mut.extra .sym {stroke: hotpink}.node .mut .sym {stroke-width: 1.5px}.tree text, .tree-sequence text {dominant-baseline: central}.plotbox .lab.lft {text-anchor: end}.plotbox .lab.rgt {text-anchor: start}]]></style></defs><g class="tree-sequence"><g class="background"><path d="M56.8,0 l423.2,0 l0,138.2 l0,25 l0,5 l-423.2,0 l0,-5 l0,-25 l0,-138.2z" /></g><g class="axes"><g class="x-axis"><g class="title" transform="translate(268.4 200)"><text class="lab" text-anchor="middle" transform="translate(0 -11)">Genome position</text></g><line class="ax-line" x1="56.8" x2="480" y1="163.2" y2="163.2" /><g class="ticks"><g class="tick" transform="translate(56.8 163.2)"><line x1="0" x2="0" y1="0" y2="5" /><g transform="translate(0 6)"><text class="lab">0</text></g></g><g class="tick" transform="translate(480 163.2)"><line x1="0" x2="0" y1="0" y2="5" /><g transform="translate(0 6)"><text class="lab">50000</text></g></g></g></g><g class="y-axis"><g class="title" transform="translate(0 65.7)"><text class="lab" text-anchor="middle" transform="translate(11) rotate(-90)">Time (generations)</text></g><line class="ax-line" x1="56.8" x2="56.8" y1="121.4" y2="10" /><g class="ticks"><g class="tick" transform="translate(56.8 121.4)"><line x1="0" x2="-5" y1="0" y2="0" /><g transform="translate(-6 0)"><text class="lab" text-anchor="end">0</text></g></g><g class="tick" transform="translate(56.8 26.8)"><line x1="0" x2="-5" y1="0" y2="0" /><g transform="translate(-6 0)"><text class="lab" text-anchor="end">1</text></g></g></g></g></g><g class="plotbox trees"><g class="tree t0" transform="translate(56.8 0)"><g class="plotbox"><g class="i0 leaf node n0 root sample" transform="translate(32.7733 26.8)"><rect class="sym" height="6" width="6" x="-3" y="-3" /><text class="lab" transform="translate(0 11)">0</text></g><g class="i0 leaf node n1 root sample" transform="translate(58.32 26.8)"><rect class="sym" height="6" width="6" x="-3" y="-3" /><text class="lab" transform="translate(0 11)">1</text></g><g class="c3 i1 node n2 root sample" transform="translate(109.413 26.8)"><g class="a2 i6 leaf node n13 sample" transform="translate(-25.5467 94.6)"><path class="edge" d="M 0 0 V -94.6 H 25.5467" /><rect class="sym" height="6" width="6" x="-3" y="-3" /><text class="lab" transform="translate(0 11)">13</text></g><g class="a2 i9 leaf node n19 sample" transform="translate(0.0 94.6)"><path class="edge" d="M 0 0 V -94.6 H 0.0" /><rect class="sym" height="6" width="6" x="-3" y="-3" /><text class="lab" transform="translate(0 11)">19</text></g><g class="a2 i11 leaf node n22 sample" transform="translate(25.5467 94.6)"><path class="edge" d="M 0 0 V -94.6 H -25.5467" /><rect class="sym" height="6" width="6" x="-3" y="-3" /><text class="lab" transform="translate(0 11)">22</text></g><rect class="sym" height="6" width="6" x="-3" y="-3" /><text class="lab" transform="translate(0 -11)">2</text></g><g class="c1 i1 node n3 root sample" transform="translate(160.507 26.8)"><g class="a3 i10 leaf node n21 sample" transform="translate(0.0 94.6)"><path class="edge" d="M 0 0 V -94.6 H 0.0" /><rect class="sym" height="6" width="6" x="-3" y="-3" /><text class="lab" transform="translate(0 11)">21</text></g><rect class="sym" height="6" width="6" x="-3" y="-3" /><text class="lab" transform="translate(0 -11)">3</text></g><g class="c1 i2 node n4 root sample" transform="translate(186.053 26.8)"><g class="a4 i7 leaf node n14 sample" transform="translate(0.0 94.6)"><path class="edge" d="M 0 0 V -94.6 H 0.0" /><rect class="sym" height="6" width="6" x="-3" y="-3" /><text class="lab" transform="translate(0 11)">14</text></g><rect class="sym" height="6" width="6" x="-3" y="-3" /><text class="lab" transform="translate(0 -11)">4</text></g><g class="c1 i2 node n5 root sample" transform="translate(211.6 26.8)"><g class="a5 i8 leaf node n16 sample" transform="translate(0.0 94.6)"><path class="edge" d="M 0 0 V -94.6 H 0.0" /><rect class="sym" height="6" width="6" x="-3" y="-3" /><text class="lab" transform="translate(0 11)">16</text></g><rect class="sym" height="6" width="6" x="-3" y="-3" /><text class="lab" transform="translate(0 -11)">5</text></g><g class="c2 i3 node n6 root sample" transform="translate(249.92 26.8)"><g class="a6 i10 leaf node n20 sample" transform="translate(-12.7733 94.6)"><path class="edge" d="M 0 0 V -94.6 H 12.7733" /><rect class="sym" height="6" width="6" x="-3" y="-3" /><text class="lab" transform="translate(0 11)">20</text></g><g class="a6 i11 leaf node n23 sample" transform="translate(12.7733 94.6)"><path class="edge" d="M 0 0 V -94.6 H -12.7733" /><rect class="sym" height="6" width="6" x="-3" y="-3" /><text class="lab" transform="translate(0 11)">23</text></g><rect class="sym" height="6" width="6" x="-3" y="-3" /><text class="lab" transform="translate(0 -11)">6</text></g><g class="c1 i3 node n7 root sample" transform="translate(288.24 26.8)"><g class="a7 i8 leaf node n17 sample" transform="translate(0.0 94.6)"><path class="edge" d="M 0 0 V -94.6 H 0.0" /><rect class="sym" height="6" width="6" x="-3" y="-3" /><text class="lab" transform="translate(0 11)">17</text></g><rect class="sym" height="6" width="6" x="-3" y="-3" /><text class="lab" transform="translate(0 -11)">7</text></g><g class="c1 i4 node n8 root sample" transform="translate(313.787 26.8)"><g class="a8 i7 leaf node n15 sample" transform="translate(0.0 94.6)"><path class="edge" d="M 0 0 V -94.6 H 0.0" /><rect class="sym" height="6" width="6" x="-3" y="-3" /><text class="lab" transform="translate(0 11)">15</text></g><rect class="sym" height="6" width="6" x="-3" y="-3" /><text class="lab" transform="translate(0 -11)">8</text></g><g class="i4 leaf node n9 root sample" transform="translate(339.333 26.8)"><rect class="sym" height="6" width="6" x="-3" y="-3" /><text class="lab" transform="translate(0 11)">9</text></g><g class="c1 i5 node n10 root sample" transform="translate(364.88 26.8)"><g class="a10 i6 leaf node n12 sample" transform="translate(0.0 94.6)"><path class="edge" d="M 0 0 V -94.6 H 0.0" /><rect class="sym" height="6" width="6" x="-3" y="-3" /><text class="lab" transform="translate(0 11)">12</text></g><rect class="sym" height="6" width="6" x="-3" y="-3" /><text class="lab" transform="translate(0 -11)">10</text></g><g class="c1 i5 node n11 root sample" transform="translate(390.427 26.8)"><g class="a11 i9 leaf node n18 sample" transform="translate(0.0 94.6)"><path class="edge" d="M 0 0 V -94.6 H 0.0" /><rect class="sym" height="6" width="6" x="-3" y="-3" /><text class="lab" transform="translate(0 11)">18</text></g><rect class="sym" height="6" width="6" x="-3" y="-3" /><text class="lab" transform="translate(0 -11)">11</text></g></g></g></g></g></svg>