<svg baseProfile="full" height="250" version="1.1" width="800" xmlns="http://www.w3.org/2000/svg" xmlns:ev="http://www.w3.org/2001/xml-events" xmlns:xlink="http://www.w3.org/1999/xlink"><defs><style type="text/css"><![CDATA[.background path {fill: #808080; fill-opacity: 0}.background path:nth-child(odd) {fill-opacity: .1}.x-regions rect {fill: yellow; stroke: black; opacity: 0.5}.axes {font-size: 14px}.x-axis .tick .lab {font-weight: bold; dominant-baseline: hanging}.axes, .tree {font-size: 14px; text-anchor: middle}.axes line, .edge {stroke: black; fill: none}.axes .ax-skip {stroke-dasharray: 4}.y-axis .grid {stroke: #FAFAFA}.node > .sym {fill: black; stroke: none}.site > .sym {stroke: black}.mut text {fill: red; font-style: italic}.mut.extra text {fill: hotpink}.mut line {fill: none; stroke: none}.mut .sym {fill: none; stroke: red}.mut.extra .sym {stroke: hotpink}.node .mut .sym {stroke-width: 1.5px}.tree text, .tree-sequence text {dominant-baseline: central}.plotbox .lab.lft {text-anchor: end}.plotbox .lab.rgt {text-anchor: start}.polytomy line {stroke: black; stroke-dasharray: 1px, 1px}.polytomy text {paint-order:stroke;stroke-width:0.3em;stroke:white}.node:not(.sample) > .sym, .node:not(.sample) > .lab {visibility: hidden;}.mut {font-size: 12px} .y-axis .tick .lab {font-size: 85%}]]></style></defs><g class="tree-sequence"><g class="background"><path d="M20,0 l253.333,0 l0,188.2 l56.5778,25 l0,5 l-309.911,0 l0,-5 l0,-25 l0,-188.2z"/><path d="M273.333,0 l253.333,0 l0,188.2 l0,25 l0,5 l-196.756,0 l0,-5 l-56.578,-25 l0,-188.2z"/><path d="M526.667,0 l253.333,0 l0,188.2 l0,25 l0,5 l-253.333,0 l0,-5 l0,-25 l0,-188.2z"/></g><g class="axes"><g class="x-axis"><g class="title" transform="translate(400 250)"><text class="lab" text-anchor="middle" transform="translate(0 -11)">Genome position</text></g><line class="ax-line" x1="20" x2="780" y1="213.2" y2="213.2"/><g class="ticks"><g class="tick" transform="translate(20 213.2)"><line x1="0" x2="0" y1="0" y2="5"/><g transform="translate(0 6)"><text class="lab">0</text></g></g><g class="tick" transform="translate(329.911 213.2)"><line x1="0" x2="0" y1="0" y2="5"/><g transform="translate(0 6)"><text class="lab">367</text></g></g><g class="tick" transform="translate(526.667 213.2)"><line x1="0" x2="0" y1="0" y2="5"/><g transform="translate(0 6)"><text class="lab">600</text></g></g><g class="tick" transform="translate(780 213.2)"><line x1="0" x2="0" y1="0" y2="5"/><g transform="translate(0 6)"><text class="lab">900</text></g></g></g><g class="site s0" transform="translate(29.2889 213.2)"><line class="sym" x1="0" x2="0" y1="0" y2="-10"/><g class="mut m0"><polyline class="sym" points="2.5,-6.5 0,-1.5 -2.5,-6.5"/></g></g><g class="site s1" transform="translate(159.333 213.2)"><line class="sym" x1="0" x2="0" y1="0" y2="-10"/><g class="mut m1"><polyline class="sym" points="2.5,-6.5 0,-1.5 -2.5,-6.5"/></g></g><g class="site s2" transform="translate(166.089 213.2)"><line class="sym" x1="0" x2="0" y1="0" y2="-10"/><g class="mut m2"><polyline class="sym" points="2.5,-6.5 0,-1.5 -2.5,-6.5"/></g></g><g class="site s3" transform="translate(250.533 213.2)"><line class="sym" x1="0" x2="0" y1="0" y2="-10"/><g class="mut m3"><polyline class="sym" points="2.5,-6.5 0,-1.5 -2.5,-6.5"/></g></g><g class="site s4" transform="translate(305.422 213.2)"><line class="sym" x1="0" x2="0" y1="0" y2="-10"/><g class="mut m4"><polyline class="sym" points="2.5,-6.5 0,-1.5 -2.5,-6.5"/></g></g><g class="site s5" transform="translate(473.467 213.2)"><line class="sym" x1="0" x2="0" y1="0" y2="-10"/><g class="mut m5"><polyline class="sym" points="2.5,-6.5 0,-1.5 -2.5,-6.5"/></g></g><g class="site s6" transform="translate(534.267 213.2)"><line class="sym" x1="0" x2="0" y1="0" y2="-10"/><g class="mut m6"><polyline class="sym" points="2.5,-6.5 0,-1.5 -2.5,-6.5"/></g></g><g class="site s7" transform="translate(546.933 213.2)"><line class="sym" x1="0" x2="0" y1="0" y2="-10"/><g class="mut m7"><polyline class="sym" points="2.5,-6.5 0,-1.5 -2.5,-6.5"/></g></g><g class="site s8" transform="translate(633.911 213.2)"><line class="sym" x1="0" x2="0" y1="0" y2="-10"/><g class="mut m8"><polyline class="sym" points="2.5,-6.5 0,-1.5 -2.5,-6.5"/></g></g><g class="site s9" transform="translate(656.711 213.2)"><line class="sym" x1="0" x2="0" y1="0" y2="-10"/><g class="mut m9"><polyline class="sym" points="2.5,-6.5 0,-1.5 -2.5,-6.5"/></g></g><g class="site s10" transform="translate(734.4 213.2)"><line class="sym" x1="0" x2="0" y1="0" y2="-10"/><g class="mut m10"><polyline class="sym" points="2.5,-6.5 0,-1.5 -2.5,-6.5"/></g></g><g class="site s11" transform="translate(738.622 213.2)"><line class="sym" x1="0" x2="0" y1="0" y2="-10"/><g class="mut m11"><polyline class="sym" points="2.5,-6.5 0,-1.5 -2.5,-6.5"/></g></g></g></g><g class="plotbox trees"><g class="tree t0" transform="translate(20 0)"><g class="plotbox"><g class="c2 node n24 p0 root" transform="translate(168.333 26.8)"><g class="a24 c1 node n22 p0" transform="translate(43.6667 62.6671)"><g class="a22 c2 m3 node n15 p0 s3" transform="translate(0.0 69.8113)"><g class="a15 i3 leaf node n7 p2 sample" transform="translate(-10.6667 12.1216)"><path class="edge e8" d="M 0 0 V -12.1216 H 10.6667"/><rect class="sym" height="6" width="6" x="-3" y="-3"/><text class="lab" transform="translate(0 11)">i</text></g><g class="a15 i4 leaf node n9 p2 sample" transform="translate(10.6667 12.1216)"><path class="edge e9" d="M 0 0 V -12.1216 H -10.6667"/><rect class="sym" height="6" width="6" x="-3" y="-3"/><text class="lab" transform="translate(0 11)">j</text></g><path class="edge e20" d="M 0 0 V -69.8113 H 0.0"/><g class="mut m3 s3 unknown_time" transform="translate(0 -34.9057)"><line x1="0" x2="0" y1="0" y2="34.9057"/><path class="sym" d="M -3,-3 l 6,6 M -3,3 l 6,-6"/><text class="lab lft" transform="translate(-5 0)">273 (A→T)</text></g><circle class="sym" cx="0" cy="0" r="3"/><text class="lab lft" transform="translate(-3 -7)">p</text></g><path class="edge e24" d="M 0 0 V -62.6671 H -43.6667"/><circle class="sym" cx="0" cy="0" r="3"/><text class="lab rgt" transform="translate(3 -7)">w</text></g><g class="a24 c2 node n23 p0" transform="translate(-43.6667 44.2523)"><g class="a23 c2 m1 m4 node n19 p0 s1 s4" transform="translate(-28.6667 40.5412)"><g class="a19 c1 m0 node n13 p0 s0" transform="translate(20 47.9219)"><g class="a13 i1 leaf node n2 p1 sample" transform="translate(0.0 11.8846)"><path class="edge e6" d="M 0 0 V -11.8846 H 0.0"/><rect class="sym" height="6" width="6" x="-3" y="-3"/><text class="lab" transform="translate(0 11)">e</text></g><path class="edge e16" d="M 0 0 V -47.9219 H -20"/><g class="mut m0 s0 unknown_time" transform="translate(0 -23.9609)"><line x1="0" x2="0" y1="0" y2="23.9609"/><path class="sym" d="M -3,-3 l 6,6 M -3,3 l 6,-6"/><text class="lab rgt" transform="translate(5 0)">11 (G→A)</text></g><circle class="sym" cx="0" cy="0" r="3"/><text class="lab rgt" transform="translate(3 -7)">n</text></g><g class="a19 c2 node n18 p0" transform="translate(-20 20.3741)"><g class="a18 i0 leaf node n1 p1 sample" transform="translate(18.6667 39.4324)"><path class="edge e14" d="M 0 0 V -39.4324 H -18.6667"/><rect class="sym" height="6" width="6" x="-3" y="-3"/><text class="lab" transform="translate(0 11)">d</text></g><g class="a18 c2 node n17 p0" transform="translate(-18.6667 20.727)"><g class="a17 i2 leaf node n4 p2 sample" transform="translate(16 18.7054)"><path class="edge e12" d="M 0 0 V -18.7054 H -16"/><rect class="sym" height="6" width="6" x="-3" y="-3"/><text class="lab" transform="translate(0 11)">c</text></g><g class="a17 c2 m2 node n10 p1 s2" transform="translate(-16 15.7375)"><g class="a10 i0 leaf node n0 p1 sample" transform="translate(-10.6667 2.96787)"><path class="edge e0" d="M 0 0 V -2.96787 H 10.6667"/><rect class="sym" height="6" width="6" x="-3" y="-3"/><text class="lab" transform="translate(0 11)">a</text></g><g class="a10 i1 leaf node n3 p1 sample" transform="translate(10.6667 2.96787)"><path class="edge e1" d="M 0 0 V -2.96787 H -10.6667"/><rect class="sym" height="6" width="6" x="-3" y="-3"/><text class="lab" transform="translate(0 11)">b</text></g><path class="edge e13" d="M 0 0 V -15.7375 H 16"/><g class="mut m2 s2 unknown_time" transform="translate(0 -7.86877)"><line x1="0" x2="0" y1="0" y2="7.86877"/><path class="sym" d="M -3,-3 l 6,6 M -3,3 l 6,-6"/><text class="lab lft" transform="translate(-5 0)">173 (G→C)</text></g><circle class="sym" cx="0" cy="0" r="3"/><text class="lab lft" transform="translate(-3 -7)">k</text></g><path class="edge e15" d="M 0 0 V -20.727 H 18.6667"/><circle class="sym" cx="0" cy="0" r="3"/><text class="lab lft" transform="translate(-3 -7)">r</text></g><path class="edge e17" d="M 0 0 V -20.3741 H 20"/><circle class="sym" cx="0" cy="0" r="3"/><text class="lab lft" transform="translate(-3 -7)">s</text></g><path class="edge e22" d="M 0 0 V -40.5412 H 28.6667"/><g class="mut m1 s1 unknown_time" transform="translate(0 -27.0275)"><line x1="0" x2="0" y1="0" y2="27.0275"/><path class="sym" d="M -3,-3 l 6,6 M -3,3 l 6,-6"/><text class="lab lft" transform="translate(-5 0)">165 (G→T)</text></g><g class="mut m4 s4 unknown_time" transform="translate(0 -13.5137)"><line x1="0" x2="0" y1="0" y2="13.5137"/><path class="sym" d="M -3,-3 l 6,6 M -3,3 l 6,-6"/><text class="lab lft" transform="translate(-5 0)">338 (A→T)</text></g><circle class="sym" cx="0" cy="0" r="3"/><text class="lab lft" transform="translate(-3 -7)">t</text></g><g class="a23 c1 node n20 p0" transform="translate(28.6667 33.5188)"><g class="a20 c1 node n16 p0" transform="translate(0.0 51.0034)"><g class="a16 c2 node n12 p0" transform="translate(0.0 4.1582)"><g class="a12 i2 leaf node n5 p2 sample" transform="translate(-16 11.6673)"><path class="edge e4" d="M 0 0 V -11.6673 H 16"/><rect class="sym" height="6" width="6" x="-3" y="-3"/><text class="lab" transform="translate(0 11)">f</text></g><g class="a12 c2 node n11 p2" transform="translate(16 7.0161)"><g class="a11 i3 leaf node n6 p2 sample" transform="translate(-10.6667 4.65121)"><path class="edge e2" d="M 0 0 V -4.65121 H 10.6667"/><rect class="sym" height="6" width="6" x="-3" y="-3"/><text class="lab" transform="translate(0 11)">g</text></g><g class="a11 i4 leaf node n8 p2 sample" transform="translate(10.6667 4.65121)"><path class="edge e3" d="M 0 0 V -4.65121 H -10.6667"/><rect class="sym" height="6" width="6" x="-3" y="-3"/><text class="lab" transform="translate(0 11)">h</text></g><path class="edge e5" d="M 0 0 V -7.0161 H -16"/><circle class="sym" cx="0" cy="0" r="3"/><text class="lab rgt" transform="translate(3 -7)">l</text></g><path class="edge e10" d="M 0 0 V -4.1582 H 0.0"/><circle class="sym" cx="0" cy="0" r="3"/><text class="lab lft" transform="translate(-3 -7)">m</text></g><path class="edge e18" d="M 0 0 V -51.0034 H 0.0"/><circle class="sym" cx="0" cy="0" r="3"/><text class="lab lft" transform="translate(-3 -7)">q</text></g><path class="edge e23" d="M 0 0 V -33.5188 H -28.6667"/><circle class="sym" cx="0" cy="0" r="3"/><text class="lab rgt" transform="translate(3 -7)">u</text></g><path class="edge e25" d="M 0 0 V -44.2523 H 43.6667"/><circle class="sym" cx="0" cy="0" r="3"/><text class="lab lft" transform="translate(-3 -7)">x</text></g><circle class="sym" cx="0" cy="0" r="3"/><text class="lab" transform="translate(0 -11)">y</text></g></g></g><g class="tree t1" transform="translate(273.333 0)"><g class="plotbox"><g class="c2 node n24 p0 root" transform="translate(158.667 26.8)"><g class="a24 c1 node n22 p0" transform="translate(53.3333 62.6671)"><g class="a22 c2 node n15 p0" transform="translate(0.0 69.8113)"><g class="a15 i3 leaf node n7 p2 sample" transform="translate(-10.6667 12.1216)"><path class="edge e8" d="M 0 0 V -12.1216 H 10.6667"/><rect class="sym" height="6" width="6" x="-3" y="-3"/><text class="lab" transform="translate(0 11)">i</text></g><g class="a15 i4 leaf node n9 p2 sample" transform="translate(10.6667 12.1216)"><path class="edge e9" d="M 0 0 V -12.1216 H -10.6667"/><rect class="sym" height="6" width="6" x="-3" y="-3"/><text class="lab" transform="translate(0 11)">j</text></g><path class="edge e20" d="M 0 0 V -69.8113 H 0.0"/><circle class="sym" cx="0" cy="0" r="3"/><text class="lab lft" transform="translate(-3 -7)">p</text></g><path class="edge e24" d="M 0 0 V -62.6671 H -53.3333"/><circle class="sym" cx="0" cy="0" r="3"/><text class="lab rgt" transform="translate(3 -7)">w</text></g><g class="a24 c2 node n23 p0" transform="translate(-53.3333 44.2523)"><g class="a23 c1 node n19 p0" transform="translate(-29.3333 40.5412)"><g class="a19 c2 node n18 p0" transform="translate(0.0 20.3741)"><g class="a18 i0 leaf node n1 p1 sample" transform="translate(18.6667 39.4324)"><path class="edge e14" d="M 0 0 V -39.4324 H -18.6667"/><rect class="sym" height="6" width="6" x="-3" y="-3"/><text class="lab" transform="translate(0 11)">d</text></g><g class="a18 c2 node n17 p0" transform="translate(-18.6667 20.727)"><g class="a17 i2 leaf node n4 p2 sample" transform="translate(16 18.7054)"><path class="edge e12" d="M 0 0 V -18.7054 H -16"/><rect class="sym" height="6" width="6" x="-3" y="-3"/><text class="lab" transform="translate(0 11)">c</text></g><g class="a17 c2 node n10 p1" transform="translate(-16 15.7375)"><g class="a10 i0 leaf node n0 p1 sample" transform="translate(-10.6667 2.96787)"><path class="edge e0" d="M 0 0 V -2.96787 H 10.6667"/><rect class="sym" height="6" width="6" x="-3" y="-3"/><text class="lab" transform="translate(0 11)">a</text></g><g class="a10 i1 leaf node n3 p1 sample" transform="translate(10.6667 2.96787)"><path class="edge e1" d="M 0 0 V -2.96787 H -10.6667"/><rect class="sym" height="6" width="6" x="-3" y="-3"/><text class="lab" transform="translate(0 11)">b</text></g><path class="edge e13" d="M 0 0 V -15.7375 H 16"/><circle class="sym" cx="0" cy="0" r="3"/><text class="lab lft" transform="translate(-3 -7)">k</text></g><path class="edge e15" d="M 0 0 V -20.727 H 18.6667"/><circle class="sym" cx="0" cy="0" r="3"/><text class="lab lft" transform="translate(-3 -7)">r</text></g><path class="edge e17" d="M 0 0 V -20.3741 H 0.0"/><circle class="sym" cx="0" cy="0" r="3"/><text class="lab lft" transform="translate(-3 -7)">s</text></g><path class="edge e22" d="M 0 0 V -40.5412 H 29.3333"/><circle class="sym" cx="0" cy="0" r="3"/><text class="lab lft" transform="translate(-3 -7)">t</text></g><g class="a23 c1 m5 node n20 p0 s5" transform="translate(29.3333 33.5188)"><g class="a20 c2 node n16 p0" transform="translate(0.0 51.0034)"><g class="a16 c2 node n12 p0" transform="translate(18.6667 4.1582)"><g class="a12 i2 leaf node n5 p2 sample" transform="translate(-16 11.6673)"><path class="edge e4" d="M 0 0 V -11.6673 H 16"/><rect class="sym" height="6" width="6" x="-3" y="-3"/><text class="lab" transform="translate(0 11)">f</text></g><g class="a12 c2 node n11 p2" transform="translate(16 7.0161)"><g class="a11 i3 leaf node n6 p2 sample" transform="translate(-10.6667 4.65121)"><path class="edge e2" d="M 0 0 V -4.65121 H 10.6667"/><rect class="sym" height="6" width="6" x="-3" y="-3"/><text class="lab" transform="translate(0 11)">g</text></g><g class="a11 i4 leaf node n8 p2 sample" transform="translate(10.6667 4.65121)"><path class="edge e3" d="M 0 0 V -4.65121 H -10.6667"/><rect class="sym" height="6" width="6" x="-3" y="-3"/><text class="lab" transform="translate(0 11)">h</text></g><path class="edge e5" d="M 0 0 V -7.0161 H -16"/><circle class="sym" cx="0" cy="0" r="3"/><text class="lab rgt" transform="translate(3 -7)">l</text></g><path class="edge e10" d="M 0 0 V -4.1582 H -18.6667"/><circle class="sym" cx="0" cy="0" r="3"/><text class="lab rgt" transform="translate(3 -7)">m</text></g><g class="a16 c1 node n14 p0" transform="translate(-18.6667 3.94089)"><g class="a14 i1 leaf node n2 p1 sample" transform="translate(0.0 11.8846)"><path class="edge e7" d="M 0 0 V -11.8846 H 0.0"/><rect class="sym" height="6" width="6" x="-3" y="-3"/><text class="lab" transform="translate(0 11)">e</text></g><path class="edge e11" d="M 0 0 V -3.94089 H 18.6667"/><circle class="sym" cx="0" cy="0" r="3"/><text class="lab lft" transform="translate(-3 -7)">o</text></g><path class="edge e18" d="M 0 0 V -51.0034 H 0.0"/><circle class="sym" cx="0" cy="0" r="3"/><text class="lab lft" transform="translate(-3 -7)">q</text></g><path class="edge e23" d="M 0 0 V -33.5188 H -29.3333"/><g class="mut m5 s5 unknown_time" transform="translate(0 -16.7594)"><line x1="0" x2="0" y1="0" y2="16.7594"/><path class="sym" d="M -3,-3 l 6,6 M -3,3 l 6,-6"/><text class="lab rgt" transform="translate(5 0)">537 (T→C)</text></g><circle class="sym" cx="0" cy="0" r="3"/><text class="lab rgt" transform="translate(3 -7)">u</text></g><path class="edge e25" d="M 0 0 V -44.2523 H 53.3333"/><circle class="sym" cx="0" cy="0" r="3"/><text class="lab lft" transform="translate(-3 -7)">x</text></g><circle class="sym" cx="0" cy="0" r="3"/><text class="lab" transform="translate(0 -11)">y</text></g></g></g><g class="tree t2" transform="translate(526.667 0)"><g class="plotbox"><g class="c2 node n24 p0 root" transform="translate(124.667 26.8)"><g class="a24 c2 m10 m6 node n22 p0 s10 s6" transform="translate(48.6667 62.6671)"><g class="a22 c2 m11 m8 node n15 p0 s11 s8" transform="translate(38.6667 69.8113)"><g class="a15 i3 leaf node n7 p2 sample" transform="translate(-10.6667 12.1216)"><path class="edge e8" d="M 0 0 V -12.1216 H 10.6667"/><rect class="sym" height="6" width="6" x="-3" y="-3"/><text class="lab" transform="translate(0 11)">i</text></g><g class="a15 i4 leaf node n9 p2 sample" transform="translate(10.6667 12.1216)"><path class="edge e9" d="M 0 0 V -12.1216 H -10.6667"/><rect class="sym" height="6" width="6" x="-3" y="-3"/><text class="lab" transform="translate(0 11)">j</text></g><path class="edge e20" d="M 0 0 V -69.8113 H -38.6667"/><g class="mut m8 s8 unknown_time" transform="translate(0 -46.5409)"><line x1="0" x2="0" y1="0" y2="46.5409"/><path class="sym" d="M -3,-3 l 6,6 M -3,3 l 6,-6"/><text class="lab rgt" transform="translate(5 0)">727 (A→G)</text></g><g class="mut m11 s11 unknown_time" transform="translate(0 -23.2704)"><line x1="0" x2="0" y1="0" y2="23.2704"/><path class="sym" d="M -3,-3 l 6,6 M -3,3 l 6,-6"/><text class="lab rgt" transform="translate(5 0)">851 (A→C)</text></g><circle class="sym" cx="0" cy="0" r="3"/><text class="lab rgt" transform="translate(3 -7)">p</text></g><g class="a22 c1 node n21 p0" transform="translate(-38.6667 15.104)"><g class="a21 c2 node n16 p0" transform="translate(0.0 51.0034)"><g class="a16 c2 node n12 p0" transform="translate(18.6667 4.1582)"><g class="a12 i2 leaf node n5 p2 sample" transform="translate(-16 11.6673)"><path class="edge e4" d="M 0 0 V -11.6673 H 16"/><rect class="sym" height="6" width="6" x="-3" y="-3"/><text class="lab" transform="translate(0 11)">f</text></g><g class="a12 c2 node n11 p2" transform="translate(16 7.0161)"><g class="a11 i3 leaf node n6 p2 sample" transform="translate(-10.6667 4.65121)"><path class="edge e2" d="M 0 0 V -4.65121 H 10.6667"/><rect class="sym" height="6" width="6" x="-3" y="-3"/><text class="lab" transform="translate(0 11)">g</text></g><g class="a11 i4 leaf node n8 p2 sample" transform="translate(10.6667 4.65121)"><path class="edge e3" d="M 0 0 V -4.65121 H -10.6667"/><rect class="sym" height="6" width="6" x="-3" y="-3"/><text class="lab" transform="translate(0 11)">h</text></g><path class="edge e5" d="M 0 0 V -7.0161 H -16"/><circle class="sym" cx="0" cy="0" r="3"/><text class="lab rgt" transform="translate(3 -7)">l</text></g><path class="edge e10" d="M 0 0 V -4.1582 H -18.6667"/><circle class="sym" cx="0" cy="0" r="3"/><text class="lab rgt" transform="translate(3 -7)">m</text></g><g class="a16 c1 node n14 p0" transform="translate(-18.6667 3.94089)"><g class="a14 i1 leaf node n2 p1 sample" transform="translate(0.0 11.8846)"><path class="edge e7" d="M 0 0 V -11.8846 H 0.0"/><rect class="sym" height="6" width="6" x="-3" y="-3"/><text class="lab" transform="translate(0 11)">e</text></g><path class="edge e11" d="M 0 0 V -3.94089 H 18.6667"/><circle class="sym" cx="0" cy="0" r="3"/><text class="lab lft" transform="translate(-3 -7)">o</text></g><path class="edge e19" d="M 0 0 V -51.0034 H 0.0"/><circle class="sym" cx="0" cy="0" r="3"/><text class="lab lft" transform="translate(-3 -7)">q</text></g><path class="edge e21" d="M 0 0 V -15.104 H 38.6667"/><circle class="sym" cx="0" cy="0" r="3"/><text class="lab lft" transform="translate(-3 -7)">v</text></g><path class="edge e24" d="M 0 0 V -62.6671 H -48.6667"/><g class="mut m6 s6 unknown_time" transform="translate(0 -41.778)"><line x1="0" x2="0" y1="0" y2="41.778"/><path class="sym" d="M -3,-3 l 6,6 M -3,3 l 6,-6"/><text class="lab rgt" transform="translate(5 0)">609 (C→A)</text></g><g class="mut m10 s10 unknown_time" transform="translate(0 -20.889)"><line x1="0" x2="0" y1="0" y2="20.889"/><path class="sym" d="M -3,-3 l 6,6 M -3,3 l 6,-6"/><text class="lab rgt" transform="translate(5 0)">846 (G→C)</text></g><circle class="sym" cx="0" cy="0" r="3"/><text class="lab rgt" transform="translate(3 -7)">w</text></g><g class="a24 c1 node n23 p0" transform="translate(-48.6667 44.2523)"><g class="a23 c1 node n19 p0" transform="translate(0.0 40.5412)"><g class="a19 c2 node n18 p0" transform="translate(0.0 20.3741)"><g class="a18 i0 leaf node n1 p1 sample" transform="translate(18.6667 39.4324)"><path class="edge e14" d="M 0 0 V -39.4324 H -18.6667"/><rect class="sym" height="6" width="6" x="-3" y="-3"/><text class="lab" transform="translate(0 11)">d</text></g><g class="a18 c2 node n17 p0" transform="translate(-18.6667 20.727)"><g class="a17 i2 leaf m7 node n4 p2 s7 sample" transform="translate(16 18.7054)"><path class="edge e12" d="M 0 0 V -18.7054 H -16"/><g class="mut m7 s7 unknown_time" transform="translate(0 -9.35271)"><line x1="0" x2="0" y1="0" y2="9.35271"/><path class="sym" d="M -3,-3 l 6,6 M -3,3 l 6,-6"/><text class="lab rgt" transform="translate(5 0)">624 (G→T)</text></g><rect class="sym" height="6" width="6" x="-3" y="-3"/><text class="lab" transform="translate(0 11)">c</text></g><g class="a17 c2 m9 node n10 p1 s9" transform="translate(-16 15.7375)"><g class="a10 i0 leaf node n0 p1 sample" transform="translate(-10.6667 2.96787)"><path class="edge e0" d="M 0 0 V -2.96787 H 10.6667"/><rect class="sym" height="6" width="6" x="-3" y="-3"/><text class="lab" transform="translate(0 11)">a</text></g><g class="a10 i1 leaf node n3 p1 sample" transform="translate(10.6667 2.96787)"><path class="edge e1" d="M 0 0 V -2.96787 H -10.6667"/><rect class="sym" height="6" width="6" x="-3" y="-3"/><text class="lab" transform="translate(0 11)">b</text></g><path class="edge e13" d="M 0 0 V -15.7375 H 16"/><g class="mut m9 s9 unknown_time" transform="translate(0 -7.86877)"><line x1="0" x2="0" y1="0" y2="7.86877"/><path class="sym" d="M -3,-3 l 6,6 M -3,3 l 6,-6"/><text class="lab lft" transform="translate(-5 0)">754 (G→C)</text></g><circle class="sym" cx="0" cy="0" r="3"/><text class="lab lft" transform="translate(-3 -7)">k</text></g><path class="edge e15" d="M 0 0 V -20.727 H 18.6667"/><circle class="sym" cx="0" cy="0" r="3"/><text class="lab lft" transform="translate(-3 -7)">r</text></g><path class="edge e17" d="M 0 0 V -20.3741 H 0.0"/><circle class="sym" cx="0" cy="0" r="3"/><text class="lab lft" transform="translate(-3 -7)">s</text></g><path class="edge e22" d="M 0 0 V -40.5412 H 0.0"/><circle class="sym" cx="0" cy="0" r="3"/><text class="lab lft" transform="translate(-3 -7)">t</text></g><path class="edge e25" d="M 0 0 V -44.2523 H 48.6667"/><circle class="sym" cx="0" cy="0" r="3"/><text class="lab lft" transform="translate(-3 -7)">x</text></g><circle class="sym" cx="0" cy="0" r="3"/><text class="lab" transform="translate(0 -11)">y</text></g></g></g></g></g></svg>