<svg baseProfile="full" height="200" version="1.1" width="600" xmlns="http://www.w3.org/2000/svg" xmlns:ev="http://www.w3.org/2001/xml-events" xmlns:xlink="http://www.w3.org/1999/xlink"><defs><style type="text/css"><![CDATA[.background path {fill: #808080; fill-opacity: 0}.background path:nth-child(odd) {fill-opacity: .1}.axes {font-size: 14px}.x-axis .tick .lab {font-weight: bold; dominant-baseline: hanging}.axes, .tree {font-size: 14px; text-anchor: middle}.axes line, .edge {stroke: black; fill: none}.axes .ax-skip {stroke-dasharray: 4}.y-axis .grid {stroke: #FAFAFA}.node > .sym {fill: black; stroke: none}.site > .sym {stroke: black}.mut text {fill: red; font-style: italic}.mut.extra text {fill: hotpink}.mut line {fill: none; stroke: none}.mut .sym {fill: none; stroke: red}.mut.extra .sym {stroke: hotpink}.node .mut .sym {stroke-width: 1.5px}.tree text, .tree-sequence text {dominant-baseline: central}.plotbox .lab.lft {text-anchor: end}.plotbox .lab.rgt {text-anchor: start}]]></style></defs><g class="tree-sequence"><g class="background"><path d="M56.8,0 l174.4,0 l0,138.2 l79.6136,25 l0,5 l-254.014,0 l0,-5 l0,-25 l0,-138.2z" /><path d="M231.2,0 l174.4,0 l0,138.2 l116.9,25 l0,5 l-211.687,0 l0,-5 l-79.614,-25 l0,-138.2z" /><path d="M405.6,0 l174.4,0 l0,138.2 l0,25 l0,5 l-57.4997,0 l0,-5 l-116.9,-25 l0,-138.2z" /></g><g class="axes"><g class="x-axis"><g class="title" transform="translate(318.4 200)"><text class="lab" text-anchor="middle" transform="translate(0 -11)">Genome position</text></g><line class="ax-line" x1="56.8" x2="580" y1="163.2" y2="163.2" /><g class="ticks"><g class="tick" transform="translate(310.814 163.2)"><line x1="0" x2="0" y1="0" y2="5" /><g transform="translate(0 6)"><text class="lab">9855</text></g></g><g class="tick" transform="translate(522.5 163.2)"><line x1="0" x2="0" y1="0" y2="5" /><g transform="translate(0 6)"><text class="lab">13901</text></g></g></g></g><g class="y-axis"><g class="title" transform="translate(0 65.7)"><text class="lab" text-anchor="middle" transform="translate(11) rotate(-90)">Time (generations)</text></g><line class="ax-line" x1="56.8" x2="56.8" y1="121.4" y2="10" /><g class="ticks"><g class="tick" transform="translate(56.8 121.4)"><line x1="0" x2="-5" y1="0" y2="0" /><g transform="translate(-6 0)"><text class="lab" text-anchor="end">0</text></g></g><g class="tick" transform="translate(56.8 93.4029)"><line x1="0" x2="-5" y1="0" y2="0" /><g transform="translate(-6 0)"><text class="lab" text-anchor="end">1000</text></g></g><g class="tick" transform="translate(56.8 65.4058)"><line x1="0" x2="-5" y1="0" y2="0" /><g transform="translate(-6 0)"><text class="lab" text-anchor="end">2000</text></g></g><g class="tick" transform="translate(56.8 37.4087)"><line x1="0" x2="-5" y1="0" y2="0" /><g transform="translate(-6 0)"><text class="lab" text-anchor="end">3000</text></g></g><g class="tick" transform="translate(56.8 9.41159)"><line x1="0" x2="-5" y1="0" y2="0" /><g transform="translate(-6 0)"><text class="lab" text-anchor="end">4000</text></g></g></g></g></g><g class="plotbox trees"><g class="tree t0" transform="translate(56.8 0)"><g class="plotbox"><g class="c2 node n17 p3 root" transform="translate(85.625 26.8)"><g class="a17 c2 node n13 p3" transform="translate(-39.375 40.2375)"><g class="a13 i0 leaf node n0 p0 sample" transform="translate(-17.85 54.3625)"><path class="edge" d="M 0 0 V -54.3625 H 17.85" /><rect class="sym" height="6" width="6" x="-3" y="-3" /><text class="lab" transform="translate(0 11)">0</text></g><g class="a13 c2 node n12 p3" transform="translate(17.85 14.0706)"><g class="a12 i0 leaf node n1 p0 sample" transform="translate(-18.9 40.2919)"><path class="edge" d="M 0 0 V -40.2919 H 18.9" /><rect class="sym" height="6" width="6" x="-3" y="-3" /><text class="lab" transform="translate(0 11)">1</text></g><g class="a12 c2 node n9 p3" transform="translate(18.9 11.2733)"><g class="a9 i2 leaf node n4 p1 sample" transform="translate(12.6 29.0186)"><path class="edge" d="M 0 0 V -29.0186 H -12.6" /><rect class="sym" height="6" width="6" x="-3" y="-3" /><text class="lab" transform="translate(0 11)">4</text></g><g class="a9 c2 node n8 p0" transform="translate(-12.6 28.067)"><g class="a8 i1 leaf node n2 p0 sample" transform="translate(-8.4 0.95157)"><path class="edge" d="M 0 0 V -0.95157 H 8.4" /><rect class="sym" height="6" width="6" x="-3" y="-3" /><text class="lab" transform="translate(0 11)">2</text></g><g class="a8 i1 leaf node n3 p0 sample" transform="translate(8.4 0.95157)"><path class="edge" d="M 0 0 V -0.95157 H -8.4" /><rect class="sym" height="6" width="6" x="-3" y="-3" /><text class="lab" transform="translate(0 11)">3</text></g><path class="edge" d="M 0 0 V -28.067 H 12.6" /><circle class="sym" cx="0" cy="0" r="3" /><text class="lab lft" transform="translate(-3 -7.0)">8</text></g><path class="edge" d="M 0 0 V -11.2733 H -18.9" /><circle class="sym" cx="0" cy="0" r="3" /><text class="lab rgt" transform="translate(3 -7.0)">9</text></g><path class="edge" d="M 0 0 V -14.0706 H -17.85" /><circle class="sym" cx="0" cy="0" r="3" /><text class="lab rgt" transform="translate(3 -7.0)">12</text></g><path class="edge" d="M 0 0 V -40.2375 H 39.375" /><circle class="sym" cx="0" cy="0" r="3" /><text class="lab lft" transform="translate(-3 -7.0)">13</text></g><g class="a17 c2 node n16 p3" transform="translate(39.375 17.1723)"><g class="a16 i2 leaf node n5 p1 sample" transform="translate(-12.6 77.4277)"><path class="edge" d="M 0 0 V -77.4277 H 12.6" /><rect class="sym" height="6" width="6" x="-3" y="-3" /><text class="lab" transform="translate(0 11)">5</text></g><g class="a16 c2 node n10 p3" transform="translate(12.6 47.6807)"><g class="a10 i3 leaf node n6 p2 sample" transform="translate(-8.4 29.747)"><path class="edge" d="M 0 0 V -29.747 H 8.4" /><rect class="sym" height="6" width="6" x="-3" y="-3" /><text class="lab" transform="translate(0 11)">6</text></g><g class="a10 i3 leaf node n7 p2 sample" transform="translate(8.4 29.747)"><path class="edge" d="M 0 0 V -29.747 H -8.4" /><rect class="sym" height="6" width="6" x="-3" y="-3" /><text class="lab" transform="translate(0 11)">7</text></g><path class="edge" d="M 0 0 V -47.6807 H -12.6" /><circle class="sym" cx="0" cy="0" r="3" /><text class="lab rgt" transform="translate(3 -7.0)">10</text></g><path class="edge" d="M 0 0 V -17.1723 H -39.375" /><circle class="sym" cx="0" cy="0" r="3" /><text class="lab rgt" transform="translate(3 -7.0)">16</text></g><circle class="sym" cx="0" cy="0" r="3" /><text class="lab" transform="translate(0 -11)">17</text></g></g></g><g class="tree t1" transform="translate(231.2 0)"><g class="plotbox"><g class="c2 node n17 p3 root" transform="translate(77.225 26.8)"><g class="a17 c2 node n13 p3" transform="translate(-40.425 40.2375)"><g class="a13 i0 leaf node n0 p0 sample" transform="translate(-8.4 54.3625)"><path class="edge" d="M 0 0 V -54.3625 H 8.4" /><rect class="sym" height="6" width="6" x="-3" y="-3" /><text class="lab" transform="translate(0 11)">0</text></g><g class="a13 i0 leaf node n1 p0 sample" transform="translate(8.4 54.3625)"><path class="edge" d="M 0 0 V -54.3625 H -8.4" /><rect class="sym" height="6" width="6" x="-3" y="-3" /><text class="lab" transform="translate(0 11)">1</text></g><path class="edge" d="M 0 0 V -40.2375 H 40.425" /><circle class="sym" cx="0" cy="0" r="3" /><text class="lab lft" transform="translate(-3 -7.0)">13</text></g><g class="a17 c2 node n16 p3" transform="translate(40.425 17.1723)"><g class="a16 c2 node n10 p3" transform="translate(19.95 47.6807)"><g class="a10 i3 leaf node n6 p2 sample" transform="translate(-8.4 29.747)"><path class="edge" d="M 0 0 V -29.747 H 8.4" /><rect class="sym" height="6" width="6" x="-3" y="-3" /><text class="lab" transform="translate(0 11)">6</text></g><g class="a10 i3 leaf node n7 p2 sample" transform="translate(8.4 29.747)"><path class="edge" d="M 0 0 V -29.747 H -8.4" /><rect class="sym" height="6" width="6" x="-3" y="-3" /><text class="lab" transform="translate(0 11)">7</text></g><path class="edge" d="M 0 0 V -47.6807 H -19.95" /><circle class="sym" cx="0" cy="0" r="3" /><text class="lab rgt" transform="translate(3 -7.0)">10</text></g><g class="a16 c2 node n15 p3" transform="translate(-19.95 9.99148)"><g class="a15 i2 leaf node n5 p1 sample" transform="translate(14.7 67.4362)"><path class="edge" d="M 0 0 V -67.4362 H -14.7" /><rect class="sym" height="6" width="6" x="-3" y="-3" /><text class="lab" transform="translate(0 11)">5</text></g><g class="a15 c2 node n9 p3" transform="translate(-14.7 38.4177)"><g class="a9 i2 leaf node n4 p1 sample" transform="translate(12.6 29.0186)"><path class="edge" d="M 0 0 V -29.0186 H -12.6" /><rect class="sym" height="6" width="6" x="-3" y="-3" /><text class="lab" transform="translate(0 11)">4</text></g><g class="a9 c2 node n8 p0" transform="translate(-12.6 28.067)"><g class="a8 i1 leaf node n2 p0 sample" transform="translate(-8.4 0.95157)"><path class="edge" d="M 0 0 V -0.95157 H 8.4" /><rect class="sym" height="6" width="6" x="-3" y="-3" /><text class="lab" transform="translate(0 11)">2</text></g><g class="a8 i1 leaf node n3 p0 sample" transform="translate(8.4 0.95157)"><path class="edge" d="M 0 0 V -0.95157 H -8.4" /><rect class="sym" height="6" width="6" x="-3" y="-3" /><text class="lab" transform="translate(0 11)">3</text></g><path class="edge" d="M 0 0 V -28.067 H 12.6" /><circle class="sym" cx="0" cy="0" r="3" /><text class="lab lft" transform="translate(-3 -7.0)">8</text></g><path class="edge" d="M 0 0 V -38.4177 H 14.7" /><circle class="sym" cx="0" cy="0" r="3" /><text class="lab lft" transform="translate(-3 -7.0)">9</text></g><path class="edge" d="M 0 0 V -9.99148 H 19.95" /><circle class="sym" cx="0" cy="0" r="3" /><text class="lab lft" transform="translate(-3 -7.0)">15</text></g><path class="edge" d="M 0 0 V -17.1723 H -40.425" /><circle class="sym" cx="0" cy="0" r="3" /><text class="lab rgt" transform="translate(3 -7.0)">16</text></g><circle class="sym" cx="0" cy="0" r="3" /><text class="lab" transform="translate(0 -11)">17</text></g></g></g><g class="tree t2" transform="translate(405.6 0)"><g class="plotbox"><g class="c2 node n17 p3 root" transform="translate(77.225 26.8)"><g class="a17 c2 node n16 p3" transform="translate(40.425 17.1723)"><g class="a16 c2 node n10 p3" transform="translate(19.95 47.6807)"><g class="a10 i3 leaf node n6 p2 sample" transform="translate(-8.4 29.747)"><path class="edge" d="M 0 0 V -29.747 H 8.4" /><rect class="sym" height="6" width="6" x="-3" y="-3" /><text class="lab" transform="translate(0 11)">6</text></g><g class="a10 i3 leaf node n7 p2 sample" transform="translate(8.4 29.747)"><path class="edge" d="M 0 0 V -29.747 H -8.4" /><rect class="sym" height="6" width="6" x="-3" y="-3" /><text class="lab" transform="translate(0 11)">7</text></g><path class="edge" d="M 0 0 V -47.6807 H -19.95" /><circle class="sym" cx="0" cy="0" r="3" /><text class="lab rgt" transform="translate(3 -7.0)">10</text></g><g class="a16 c2 node n15 p3" transform="translate(-19.95 9.99148)"><g class="a15 i2 leaf node n5 p1 sample" transform="translate(14.7 67.4362)"><path class="edge" d="M 0 0 V -67.4362 H -14.7" /><rect class="sym" height="6" width="6" x="-3" y="-3" /><text class="lab" transform="translate(0 11)">5</text></g><g class="a15 c2 node n9 p3" transform="translate(-14.7 38.4177)"><g class="a9 i2 leaf node n4 p1 sample" transform="translate(12.6 29.0186)"><path class="edge" d="M 0 0 V -29.0186 H -12.6" /><rect class="sym" height="6" width="6" x="-3" y="-3" /><text class="lab" transform="translate(0 11)">4</text></g><g class="a9 c2 node n8 p0" transform="translate(-12.6 28.067)"><g class="a8 i1 leaf node n2 p0 sample" transform="translate(-8.4 0.95157)"><path class="edge" d="M 0 0 V -0.95157 H 8.4" /><rect class="sym" height="6" width="6" x="-3" y="-3" /><text class="lab" transform="translate(0 11)">2</text></g><g class="a8 i1 leaf node n3 p0 sample" transform="translate(8.4 0.95157)"><path class="edge" d="M 0 0 V -0.95157 H -8.4" /><rect class="sym" height="6" width="6" x="-3" y="-3" /><text class="lab" transform="translate(0 11)">3</text></g><path class="edge" d="M 0 0 V -28.067 H 12.6" /><circle class="sym" cx="0" cy="0" r="3" /><text class="lab lft" transform="translate(-3 -7.0)">8</text></g><path class="edge" d="M 0 0 V -38.4177 H 14.7" /><circle class="sym" cx="0" cy="0" r="3" /><text class="lab lft" transform="translate(-3 -7.0)">9</text></g><path class="edge" d="M 0 0 V -9.99148 H 19.95" /><circle class="sym" cx="0" cy="0" r="3" /><text class="lab lft" transform="translate(-3 -7.0)">15</text></g><path class="edge" d="M 0 0 V -17.1723 H -40.425" /><circle class="sym" cx="0" cy="0" r="3" /><text class="lab rgt" transform="translate(3 -7.0)">16</text></g><g class="a17 c2 node n14 p3" transform="translate(-40.425 36.4658)"><g class="a14 i0 leaf node n0 p0 sample" transform="translate(-8.4 58.1342)"><path class="edge" d="M 0 0 V -58.1342 H 8.4" /><rect class="sym" height="6" width="6" x="-3" y="-3" /><text class="lab" transform="translate(0 11)">0</text></g><g class="a14 i0 leaf node n1 p0 sample" transform="translate(8.4 58.1342)"><path class="edge" d="M 0 0 V -58.1342 H -8.4" /><rect class="sym" height="6" width="6" x="-3" y="-3" /><text class="lab" transform="translate(0 11)">1</text></g><path class="edge" d="M 0 0 V -36.4658 H 40.425" /><circle class="sym" cx="0" cy="0" r="3" /><text class="lab lft" transform="translate(-3 -7.0)">14</text></g><circle class="sym" cx="0" cy="0" r="3" /><text class="lab" transform="translate(0 -11)">17</text></g></g></g></g></g></svg>