<svg xmlns="http://www.w3.org/2000/svg" height="160" width="550"><style>.x-axis {transform: translateY(10px)}</style><svg xmlns="http://www.w3.org/2000/svg" xmlns:ev="http://www.w3.org/2001/xml-events" xmlns:xlink="http://www.w3.org/1999/xlink" baseProfile="full" height="160" version="1.1" width="110" x="0"><defs><style type="text/css"><![CDATA[.background path {fill: #808080; fill-opacity: 0}.background path:nth-child(odd) {fill-opacity: .1}.axes {font-size: 14px}.x-axis .tick .lab {font-weight: bold; dominant-baseline: hanging}.axes, .tree {font-size: 14px; text-anchor: middle}.axes line, .edge {stroke: black; fill: none}.axes .ax-skip {stroke-dasharray: 4}.y-axis .grid {stroke: #FAFAFA}.node > .sym {fill: black; stroke: none}.site > .sym {stroke: black}.mut text {fill: red; font-style: italic}.mut.extra text {fill: hotpink}.mut line {fill: none; stroke: none}.mut .sym {fill: none; stroke: red}.mut.extra .sym {stroke: hotpink}.node .mut .sym {stroke-width: 1.5px}.tree text, .tree-sequence text {dominant-baseline: central}.plotbox .lab.lft {text-anchor: end}.plotbox .lab.rgt {text-anchor: start}]]></style></defs><g class="tree t0"><g class="axes"><g class="x-axis"><g class="title" transform="translate(50 150)"><text class="lab" text-anchor="middle" transform="translate(0 -11)">shape = 0</text></g></g></g><g class="plotbox"><g class="c4 node n4 root" transform="translate(50 26.8)"><g class="a4 leaf node n0 sample" transform="translate(-22.5 91.4)"><path class="edge" d="M 0 0 V -91.4 H 22.5"/><rect class="sym" height="6" width="6" x="-3" y="-3"/><text class="lab" transform="translate(0 11)"/></g><g class="a4 leaf node n1 sample" transform="translate(-7.5 91.4)"><path class="edge" d="M 0 0 V -91.4 H 7.5"/><rect class="sym" height="6" width="6" x="-3" y="-3"/><text class="lab" transform="translate(0 11)"/></g><g class="a4 leaf node n2 sample" transform="translate(7.5 91.4)"><path class="edge" d="M 0 0 V -91.4 H -7.5"/><rect class="sym" height="6" width="6" x="-3" y="-3"/><text class="lab" transform="translate(0 11)"/></g><g class="a4 leaf node n3 sample" transform="translate(22.5 91.4)"><path class="edge" d="M 0 0 V -91.4 H -22.5"/><rect class="sym" height="6" width="6" x="-3" y="-3"/><text class="lab" transform="translate(0 11)"/></g><circle class="sym" cx="0" cy="0" r="3"/><text class="lab" transform="translate(0 -11)"/></g></g></g></svg><svg xmlns="http://www.w3.org/2000/svg" xmlns:ev="http://www.w3.org/2001/xml-events" xmlns:xlink="http://www.w3.org/1999/xlink" baseProfile="full" height="160" version="1.1" width="110" x="110"><defs><style type="text/css"><![CDATA[.background path {fill: #808080; fill-opacity: 0}.background path:nth-child(odd) {fill-opacity: .1}.axes {font-size: 14px}.x-axis .tick .lab {font-weight: bold; dominant-baseline: hanging}.axes, .tree {font-size: 14px; text-anchor: middle}.axes line, .edge {stroke: black; fill: none}.axes .ax-skip {stroke-dasharray: 4}.y-axis .grid {stroke: #FAFAFA}.node > .sym {fill: black; stroke: none}.site > .sym {stroke: black}.mut text {fill: red; font-style: italic}.mut.extra text {fill: hotpink}.mut line {fill: none; stroke: none}.mut .sym {fill: none; stroke: red}.mut.extra .sym {stroke: hotpink}.node .mut .sym {stroke-width: 1.5px}.tree text, .tree-sequence text {dominant-baseline: central}.plotbox .lab.lft {text-anchor: end}.plotbox .lab.rgt {text-anchor: start}]]></style></defs><g class="tree t0"><g class="axes"><g class="x-axis"><g class="title" transform="translate(50 150)"><text class="lab" text-anchor="middle" transform="translate(0 -11)">shape = 1</text></g></g></g><g class="plotbox"><g class="c3 node n5 root" transform="translate(46.25 26.8)"><g class="a5 leaf node n0 sample" transform="translate(-18.75 91.4)"><path class="edge" d="M 0 0 V -91.4 H 18.75"/><rect class="sym" height="6" width="6" x="-3" y="-3"/><text class="lab" transform="translate(0 11)"/></g><g class="a5 leaf node n1 sample" transform="translate(-3.75 91.4)"><path class="edge" d="M 0 0 V -91.4 H 3.75"/><rect class="sym" height="6" width="6" x="-3" y="-3"/><text class="lab" transform="translate(0 11)"/></g><g class="a5 c2 node n4" transform="translate(18.75 45.7)"><g class="a4 leaf node n2 sample" transform="translate(-7.5 45.7)"><path class="edge" d="M 0 0 V -45.7 H 7.5"/><rect class="sym" height="6" width="6" x="-3" y="-3"/><text class="lab" transform="translate(0 11)"/></g><g class="a4 leaf node n3 sample" transform="translate(7.5 45.7)"><path class="edge" d="M 0 0 V -45.7 H -7.5"/><rect class="sym" height="6" width="6" x="-3" y="-3"/><text class="lab" transform="translate(0 11)"/></g><path class="edge" d="M 0 0 V -45.7 H -18.75"/><circle class="sym" cx="0" cy="0" r="3"/><text class="lab rgt" transform="translate(3 -7.0)"/></g><circle class="sym" cx="0" cy="0" r="3"/><text class="lab" transform="translate(0 -11)"/></g></g></g></svg><svg xmlns="http://www.w3.org/2000/svg" xmlns:ev="http://www.w3.org/2001/xml-events" xmlns:xlink="http://www.w3.org/1999/xlink" baseProfile="full" height="160" version="1.1" width="110" x="220"><defs><style type="text/css"><![CDATA[.background path {fill: #808080; fill-opacity: 0}.background path:nth-child(odd) {fill-opacity: .1}.axes {font-size: 14px}.x-axis .tick .lab {font-weight: bold; dominant-baseline: hanging}.axes, .tree {font-size: 14px; text-anchor: middle}.axes line, .edge {stroke: black; fill: none}.axes .ax-skip {stroke-dasharray: 4}.y-axis .grid {stroke: #FAFAFA}.node > .sym {fill: black; stroke: none}.site > .sym {stroke: black}.mut text {fill: red; font-style: italic}.mut.extra text {fill: hotpink}.mut line {fill: none; stroke: none}.mut .sym {fill: none; stroke: red}.mut.extra .sym {stroke: hotpink}.node .mut .sym {stroke-width: 1.5px}.tree text, .tree-sequence text {dominant-baseline: central}.plotbox .lab.lft {text-anchor: end}.plotbox .lab.rgt {text-anchor: start}]]></style></defs><g class="tree t0"><g class="axes"><g class="x-axis"><g class="title" transform="translate(50 150)"><text class="lab" text-anchor="middle" transform="translate(0 -11)">shape = 2</text></g></g></g><g class="plotbox"><g class="c2 node n5 root" transform="translate(42.5 26.8)"><g class="a5 leaf node n0 sample" transform="translate(-15 91.4)"><path class="edge" d="M 0 0 V -91.4 H 15"/><rect class="sym" height="6" width="6" x="-3" y="-3"/><text class="lab" transform="translate(0 11)"/></g><g class="a5 c3 node n4" transform="translate(15 45.7)"><g class="a4 leaf node n1 sample" transform="translate(-15 45.7)"><path class="edge" d="M 0 0 V -45.7 H 15"/><rect class="sym" height="6" width="6" x="-3" y="-3"/><text class="lab" transform="translate(0 11)"/></g><g class="a4 leaf node n2 sample" transform="translate(0.0 45.7)"><path class="edge" d="M 0 0 V -45.7 H 0.0"/><rect class="sym" height="6" width="6" x="-3" y="-3"/><text class="lab" transform="translate(0 11)"/></g><g class="a4 leaf node n3 sample" transform="translate(15 45.7)"><path class="edge" d="M 0 0 V -45.7 H -15"/><rect class="sym" height="6" width="6" x="-3" y="-3"/><text class="lab" transform="translate(0 11)"/></g><path class="edge" d="M 0 0 V -45.7 H -15"/><circle class="sym" cx="0" cy="0" r="3"/><text class="lab rgt" transform="translate(3 -7.0)"/></g><circle class="sym" cx="0" cy="0" r="3"/><text class="lab" transform="translate(0 -11)"/></g></g></g></svg><svg xmlns="http://www.w3.org/2000/svg" xmlns:ev="http://www.w3.org/2001/xml-events" xmlns:xlink="http://www.w3.org/1999/xlink" baseProfile="full" height="160" version="1.1" width="110" x="330"><defs><style type="text/css"><![CDATA[.background path {fill: #808080; fill-opacity: 0}.background path:nth-child(odd) {fill-opacity: .1}.axes {font-size: 14px}.x-axis .tick .lab {font-weight: bold; dominant-baseline: hanging}.axes, .tree {font-size: 14px; text-anchor: middle}.axes line, .edge {stroke: black; fill: none}.axes .ax-skip {stroke-dasharray: 4}.y-axis .grid {stroke: #FAFAFA}.node > .sym {fill: black; stroke: none}.site > .sym {stroke: black}.mut text {fill: red; font-style: italic}.mut.extra text {fill: hotpink}.mut line {fill: none; stroke: none}.mut .sym {fill: none; stroke: red}.mut.extra .sym {stroke: hotpink}.node .mut .sym {stroke-width: 1.5px}.tree text, .tree-sequence text {dominant-baseline: central}.plotbox .lab.lft {text-anchor: end}.plotbox .lab.rgt {text-anchor: start}]]></style></defs><g class="tree t0"><g class="axes"><g class="x-axis"><g class="title" transform="translate(50 150)"><text class="lab" text-anchor="middle" transform="translate(0 -11)">shape = 3</text></g></g></g><g class="plotbox"><g class="c2 node n6 root" transform="translate(40.625 26.8)"><g class="a6 leaf node n0 sample" transform="translate(-13.125 91.4)"><path class="edge" d="M 0 0 V -91.4 H 13.125"/><rect class="sym" height="6" width="6" x="-3" y="-3"/><text class="lab" transform="translate(0 11)"/></g><g class="a6 c2 node n5" transform="translate(13.125 30.4667)"><g class="a5 leaf node n1 sample" transform="translate(-11.25 60.9333)"><path class="edge" d="M 0 0 V -60.9333 H 11.25"/><rect class="sym" height="6" width="6" x="-3" y="-3"/><text class="lab" transform="translate(0 11)"/></g><g class="a5 c2 node n4" transform="translate(11.25 30.4667)"><g class="a4 leaf node n2 sample" transform="translate(-7.5 30.4667)"><path class="edge" d="M 0 0 V -30.4667 H 7.5"/><rect class="sym" height="6" width="6" x="-3" y="-3"/><text class="lab" transform="translate(0 11)"/></g><g class="a4 leaf node n3 sample" transform="translate(7.5 30.4667)"><path class="edge" d="M 0 0 V -30.4667 H -7.5"/><rect class="sym" height="6" width="6" x="-3" y="-3"/><text class="lab" transform="translate(0 11)"/></g><path class="edge" d="M 0 0 V -30.4667 H -11.25"/><circle class="sym" cx="0" cy="0" r="3"/><text class="lab rgt" transform="translate(3 -7.0)"/></g><path class="edge" d="M 0 0 V -30.4667 H -13.125"/><circle class="sym" cx="0" cy="0" r="3"/><text class="lab rgt" transform="translate(3 -7.0)"/></g><circle class="sym" cx="0" cy="0" r="3"/><text class="lab" transform="translate(0 -11)"/></g></g></g></svg><svg xmlns="http://www.w3.org/2000/svg" xmlns:ev="http://www.w3.org/2001/xml-events" xmlns:xlink="http://www.w3.org/1999/xlink" baseProfile="full" height="160" version="1.1" width="110" x="440"><defs><style type="text/css"><![CDATA[.background path {fill: #808080; fill-opacity: 0}.background path:nth-child(odd) {fill-opacity: .1}.axes {font-size: 14px}.x-axis .tick .lab {font-weight: bold; dominant-baseline: hanging}.axes, .tree {font-size: 14px; text-anchor: middle}.axes line, .edge {stroke: black; fill: none}.axes .ax-skip {stroke-dasharray: 4}.y-axis .grid {stroke: #FAFAFA}.node > .sym {fill: black; stroke: none}.site > .sym {stroke: black}.mut text {fill: red; font-style: italic}.mut.extra text {fill: hotpink}.mut line {fill: none; stroke: none}.mut .sym {fill: none; stroke: red}.mut.extra .sym {stroke: hotpink}.node .mut .sym {stroke-width: 1.5px}.tree text, .tree-sequence text {dominant-baseline: central}.plotbox .lab.lft {text-anchor: end}.plotbox .lab.rgt {text-anchor: start}]]></style></defs><g class="tree t0"><g class="axes"><g class="x-axis"><g class="title" transform="translate(50 150)"><text class="lab" text-anchor="middle" transform="translate(0 -11)">shape = 4</text></g></g></g><g class="plotbox"><g class="c2 node n6 root" transform="translate(50 26.8)"><g class="a6 c2 node n4" transform="translate(-15 45.7)"><g class="a4 leaf node n0 sample" transform="translate(-7.5 45.7)"><path class="edge" d="M 0 0 V -45.7 H 7.5"/><rect class="sym" height="6" width="6" x="-3" y="-3"/><text class="lab" transform="translate(0 11)"/></g><g class="a4 leaf node n1 sample" transform="translate(7.5 45.7)"><path class="edge" d="M 0 0 V -45.7 H -7.5"/><rect class="sym" height="6" width="6" x="-3" y="-3"/><text class="lab" transform="translate(0 11)"/></g><path class="edge" d="M 0 0 V -45.7 H 15"/><circle class="sym" cx="0" cy="0" r="3"/><text class="lab lft" transform="translate(-3 -7.0)"/></g><g class="a6 c2 node n5" transform="translate(15 45.7)"><g class="a5 leaf node n2 sample" transform="translate(-7.5 45.7)"><path class="edge" d="M 0 0 V -45.7 H 7.5"/><rect class="sym" height="6" width="6" x="-3" y="-3"/><text class="lab" transform="translate(0 11)"/></g><g class="a5 leaf node n3 sample" transform="translate(7.5 45.7)"><path class="edge" d="M 0 0 V -45.7 H -7.5"/><rect class="sym" height="6" width="6" x="-3" y="-3"/><text class="lab" transform="translate(0 11)"/></g><path class="edge" d="M 0 0 V -45.7 H -15"/><circle class="sym" cx="0" cy="0" r="3"/><text class="lab rgt" transform="translate(3 -7.0)"/></g><circle class="sym" cx="0" cy="0" r="3"/><text class="lab" transform="translate(0 -11)"/></g></g></g></svg></svg>