<svg baseProfile="full" height="200" version="1.1" width="500" xmlns="http://www.w3.org/2000/svg" xmlns:ev="http://www.w3.org/2001/xml-events" xmlns:xlink="http://www.w3.org/1999/xlink"><svg baseProfile="full" height="200" version="1.1" width="200" x="300" xmlns="http://www.w3.org/2000/svg" xmlns:ev="http://www.w3.org/2001/xml-events" xmlns:xlink="http://www.w3.org/1999/xlink"><defs><style type="text/css"><![CDATA[.background path {fill: #808080; fill-opacity: 0}.background path:nth-child(odd) {fill-opacity: .1}.x-regions rect {fill: yellow; stroke: black; opacity: 0.5}.axes {font-size: 14px}.x-axis .tick .lab {font-weight: bold; dominant-baseline: hanging}.axes, .tree {font-size: 14px; text-anchor: middle}.axes line, .edge {stroke: black; fill: none}.axes .ax-skip {stroke-dasharray: 4}.y-axis .grid {stroke: #FAFAFA}.node > .sym {fill: black; stroke: none}.site > .sym {stroke: black}.mut text {fill: red; font-style: italic}.mut.extra text {fill: hotpink}.mut line {fill: none; stroke: none}.mut .sym {fill: none; stroke: red}.mut.extra .sym {stroke: hotpink}.node .mut .sym {stroke-width: 1.5px}.tree text, .tree-sequence text {dominant-baseline: central}.plotbox .lab.lft {text-anchor: end}.plotbox .lab.rgt {text-anchor: start}.polytomy line {stroke: black; stroke-dasharray: 1px, 1px}.polytomy text {paint-order:stroke;stroke-width:0.3em;stroke:white}]]></style></defs><g class="tree t0"><g class="plotbox"><g class="c2 node n17 p3 root" transform="translate(116.875 43.6)"><g class="a17 c2 m5 node n13 p3 s5" transform="translate(-28.125 52.9978)"><g class="a13 i0 leaf m6 node n4 p0 s6 sample" transform="translate(21.25 71.6022)"><path class="edge e11" d="M 0 0 V -71.6022 H -21.25"/><g class="mut m6 s6" transform="translate(0 -22.7907)"><line x1="0" x2="0" y1="0" y2="22.7907"/><path class="sym" d="M -3,-3 l 6,6 M -3,3 l 6,-6"/><text class="lab rgt" transform="translate(5 0)">6</text></g><rect class="sym" height="6" width="6" x="-3" y="-3"/><text class="lab" transform="translate(0 11)">0</text></g><g class="a13 c2 node n12 p3" transform="translate(-21.25 18.5327)"><g class="a12 i0 leaf m3 node n3 p0 s3 sample" transform="translate(22.5 53.0694)"><path class="edge e8" d="M 0 0 V -53.0694 H -22.5"/><g class="mut m3 s3" transform="translate(0 -38.3895)"><line x1="0" x2="0" y1="0" y2="38.3895"/><path class="sym" d="M -3,-3 l 6,6 M -3,3 l 6,-6"/><text class="lab rgt" transform="translate(5 0)">3</text></g><rect class="sym" height="6" width="6" x="-3" y="-3"/><text class="lab" transform="translate(0 11)">1</text></g><g class="a12 c2 node n9 p3" transform="translate(-22.5 14.8483)"><g class="a9 i2 leaf node n0 p1 sample" transform="translate(-15 38.2211)"><path class="edge e2" d="M 0 0 V -38.2211 H 15"/><rect class="sym" height="6" width="6" x="-3" y="-3"/><text class="lab" transform="translate(0 11)">4</text></g><g class="a9 c2 m1 m4 m7 node n8 p0 s1 s4 s7" transform="translate(15 36.9678)"><g class="a8 i1 leaf node n1 p0 sample" transform="translate(-10 1.25334)"><path class="edge e0" d="M 0 0 V -1.25334 H 10"/><rect class="sym" height="6" width="6" x="-3" y="-3"/><text class="lab" transform="translate(0 11)">3</text></g><g class="a8 i1 leaf node n2 p0 sample" transform="translate(10 1.25334)"><path class="edge e1" d="M 0 0 V -1.25334 H -10"/><rect class="sym" height="6" width="6" x="-3" y="-3"/><text class="lab" transform="translate(0 11)">2</text></g><path class="edge e3" d="M 0 0 V -36.9678 H -15"/><g class="mut m1 s1" transform="translate(0 -13.229)"><line x1="0" x2="0" y1="0" y2="13.229"/><path class="sym" d="M -3,-3 l 6,6 M -3,3 l 6,-6"/><text class="lab rgt" transform="translate(5 0)">1</text></g><g class="mut m7 s7" transform="translate(0 -8.53835)"><line x1="0" x2="0" y1="0" y2="8.53835"/><path class="sym" d="M -3,-3 l 6,6 M -3,3 l 6,-6"/><text class="lab rgt" transform="translate(5 0)">7</text></g><g class="mut m4 s4" transform="translate(0 -8.2024)"><line x1="0" x2="0" y1="0" y2="8.2024"/><path class="sym" d="M -3,-3 l 6,6 M -3,3 l 6,-6"/><text class="lab rgt" transform="translate(5 0)">4</text></g><circle class="sym" cx="0" cy="0" r="3"/><text class="lab rgt" transform="translate(3 -7)">8</text></g><path class="edge e9" d="M 0 0 V -14.8483 H 22.5"/><circle class="sym" cx="0" cy="0" r="3"/><text class="lab lft" transform="translate(-3 -7)">9</text></g><path class="edge e12" d="M 0 0 V -18.5327 H 21.25"/><circle class="sym" cx="0" cy="0" r="3"/><text class="lab lft" transform="translate(-3 -7)">12</text></g><path class="edge e22" d="M 0 0 V -52.9978 H 28.125"/><g class="mut m5 s5" transform="translate(0 -6.27509)"><line x1="0" x2="0" y1="0" y2="6.27509"/><path class="sym" d="M -3,-3 l 6,6 M -3,3 l 6,-6"/><text class="lab lft" transform="translate(-5 0)">5</text></g><circle class="sym" cx="0" cy="0" r="3"/><text class="lab lft" transform="translate(-3 -7)">13</text></g><g class="a17 c2 m8 node n16 p3 s8" transform="translate(28.125 22.618)"><g class="a16 i2 leaf node n5 p1 sample" transform="translate(-15 101.982)"><path class="edge e19" d="M 0 0 V -101.982 H 15"/><rect class="sym" height="6" width="6" x="-3" y="-3"/><text class="lab" transform="translate(0 11)">5</text></g><g class="a16 c2 m0 node n10 p3 s0" transform="translate(15 62.8015)"><g class="a10 i3 leaf m2 node n6 p2 s2 sample" transform="translate(-10 39.1805)"><path class="edge e4" d="M 0 0 V -39.1805 H 10"/><g class="mut m2 s2" transform="translate(0 -17.3203)"><line x1="0" x2="0" y1="0" y2="17.3203"/><path class="sym" d="M -3,-3 l 6,6 M -3,3 l 6,-6"/><text class="lab lft" transform="translate(-5 0)">2</text></g><rect class="sym" height="6" width="6" x="-3" y="-3"/><text class="lab" transform="translate(0 11)">7</text></g><g class="a10 i3 leaf node n7 p2 sample" transform="translate(10 39.1805)"><path class="edge e5" d="M 0 0 V -39.1805 H -10"/><rect class="sym" height="6" width="6" x="-3" y="-3"/><text class="lab" transform="translate(0 11)">6</text></g><path class="edge e20" d="M 0 0 V -62.8015 H -15"/><g class="mut m0 s0" transform="translate(0 -53.9287)"><line x1="0" x2="0" y1="0" y2="53.9287"/><path class="sym" d="M -3,-3 l 6,6 M -3,3 l 6,-6"/><text class="lab rgt" transform="translate(5 0)">0</text></g><circle class="sym" cx="0" cy="0" r="3"/><text class="lab rgt" transform="translate(3 -7)">10</text></g><path class="edge e24" d="M 0 0 V -22.618 H -28.125"/><g class="mut m8 s8" transform="translate(0 -12.5891)"><line x1="0" x2="0" y1="0" y2="12.5891"/><path class="sym" d="M -3,-3 l 6,6 M -3,3 l 6,-6"/><text class="lab rgt" transform="translate(5 0)">8</text></g><circle class="sym" cx="0" cy="0" r="3"/><text class="lab rgt" transform="translate(3 -7)">16</text></g><circle class="sym" cx="0" cy="0" r="3"/><text class="lab" transform="translate(0 -11)">17</text></g></g></g><g class="title" transform="translate(100 0)"><text dominant-baseline="hanging" text-anchor="middle">Leaf nodes reordered</text></g></svg><defs><style type="text/css"><![CDATA[.background path {fill: #808080; fill-opacity: 0}.background path:nth-child(odd) {fill-opacity: .1}.x-regions rect {fill: yellow; stroke: black; opacity: 0.5}.axes {font-size: 14px}.x-axis .tick .lab {font-weight: bold; dominant-baseline: hanging}.axes, .tree {font-size: 14px; text-anchor: middle}.axes line, .edge {stroke: black; fill: none}.axes .ax-skip {stroke-dasharray: 4}.y-axis .grid {stroke: #FAFAFA}.node > .sym {fill: black; stroke: none}.site > .sym {stroke: black}.mut text {fill: red; font-style: italic}.mut.extra text {fill: hotpink}.mut line {fill: none; stroke: none}.mut .sym {fill: none; stroke: red}.mut.extra .sym {stroke: hotpink}.node .mut .sym {stroke-width: 1.5px}.tree text, .tree-sequence text {dominant-baseline: central}.plotbox .lab.lft {text-anchor: end}.plotbox .lab.rgt {text-anchor: start}.polytomy line {stroke: black; stroke-dasharray: 1px, 1px}.polytomy text {paint-order:stroke;stroke-width:0.3em;stroke:white}]]></style></defs><g class="tree t0"><g class="plotbox"><g class="c2 node n17 p3 root" transform="translate(98.125 43.6)"><g class="a17 c2 m5 node n13 p3 s5" transform="translate(-46.875 52.9978)"><g class="a13 i0 leaf m6 node n0 p0 s6 sample" transform="translate(-21.25 71.6022)"><path class="edge e10" d="M 0 0 V -71.6022 H 21.25"/><g class="mut m6 s6" transform="translate(0 -22.7907)"><line x1="0" x2="0" y1="0" y2="22.7907"/><path class="sym" d="M -3,-3 l 6,6 M -3,3 l 6,-6"/><text class="lab lft" transform="translate(-5 0)">6</text></g><rect class="sym" height="6" width="6" x="-3" y="-3"/><text class="lab" transform="translate(0 11)">0</text></g><g class="a13 c2 node n12 p3" transform="translate(21.25 18.5327)"><g class="a12 i0 leaf m3 node n1 p0 s3 sample" transform="translate(-22.5 53.0694)"><path class="edge e8" d="M 0 0 V -53.0694 H 22.5"/><g class="mut m3 s3" transform="translate(0 -38.3895)"><line x1="0" x2="0" y1="0" y2="38.3895"/><path class="sym" d="M -3,-3 l 6,6 M -3,3 l 6,-6"/><text class="lab lft" transform="translate(-5 0)">3</text></g><rect class="sym" height="6" width="6" x="-3" y="-3"/><text class="lab" transform="translate(0 11)">1</text></g><g class="a12 c2 node n9 p3" transform="translate(22.5 14.8483)"><g class="a9 i2 leaf node n4 p1 sample" transform="translate(15 38.2211)"><path class="edge e2" d="M 0 0 V -38.2211 H -15"/><rect class="sym" height="6" width="6" x="-3" y="-3"/><text class="lab" transform="translate(0 11)">4</text></g><g class="a9 c2 m1 m4 m7 node n8 p0 s1 s4 s7" transform="translate(-15 36.9678)"><g class="a8 i1 leaf node n2 p0 sample" transform="translate(-10 1.25334)"><path class="edge e0" d="M 0 0 V -1.25334 H 10"/><rect class="sym" height="6" width="6" x="-3" y="-3"/><text class="lab" transform="translate(0 11)">2</text></g><g class="a8 i1 leaf node n3 p0 sample" transform="translate(10 1.25334)"><path class="edge e1" d="M 0 0 V -1.25334 H -10"/><rect class="sym" height="6" width="6" x="-3" y="-3"/><text class="lab" transform="translate(0 11)">3</text></g><path class="edge e3" d="M 0 0 V -36.9678 H 15"/><g class="mut m1 s1" transform="translate(0 -13.229)"><line x1="0" x2="0" y1="0" y2="13.229"/><path class="sym" d="M -3,-3 l 6,6 M -3,3 l 6,-6"/><text class="lab lft" transform="translate(-5 0)">1</text></g><g class="mut m7 s7" transform="translate(0 -8.53835)"><line x1="0" x2="0" y1="0" y2="8.53835"/><path class="sym" d="M -3,-3 l 6,6 M -3,3 l 6,-6"/><text class="lab lft" transform="translate(-5 0)">7</text></g><g class="mut m4 s4" transform="translate(0 -8.2024)"><line x1="0" x2="0" y1="0" y2="8.2024"/><path class="sym" d="M -3,-3 l 6,6 M -3,3 l 6,-6"/><text class="lab lft" transform="translate(-5 0)">4</text></g><circle class="sym" cx="0" cy="0" r="3"/><text class="lab lft" transform="translate(-3 -7)">8</text></g><path class="edge e9" d="M 0 0 V -14.8483 H -22.5"/><circle class="sym" cx="0" cy="0" r="3"/><text class="lab rgt" transform="translate(3 -7)">9</text></g><path class="edge e12" d="M 0 0 V -18.5327 H -21.25"/><circle class="sym" cx="0" cy="0" r="3"/><text class="lab rgt" transform="translate(3 -7)">12</text></g><path class="edge e22" d="M 0 0 V -52.9978 H 46.875"/><g class="mut m5 s5" transform="translate(0 -6.27509)"><line x1="0" x2="0" y1="0" y2="6.27509"/><path class="sym" d="M -3,-3 l 6,6 M -3,3 l 6,-6"/><text class="lab lft" transform="translate(-5 0)">5</text></g><circle class="sym" cx="0" cy="0" r="3"/><text class="lab lft" transform="translate(-3 -7)">13</text></g><g class="a17 c2 m8 node n16 p3 s8" transform="translate(46.875 22.618)"><g class="a16 i2 leaf node n5 p1 sample" transform="translate(-15 101.982)"><path class="edge e19" d="M 0 0 V -101.982 H 15"/><rect class="sym" height="6" width="6" x="-3" y="-3"/><text class="lab" transform="translate(0 11)">5</text></g><g class="a16 c2 m0 node n10 p3 s0" transform="translate(15 62.8015)"><g class="a10 i3 leaf node n6 p2 sample" transform="translate(-10 39.1805)"><path class="edge e4" d="M 0 0 V -39.1805 H 10"/><rect class="sym" height="6" width="6" x="-3" y="-3"/><text class="lab" transform="translate(0 11)">6</text></g><g class="a10 i3 leaf m2 node n7 p2 s2 sample" transform="translate(10 39.1805)"><path class="edge e5" d="M 0 0 V -39.1805 H -10"/><g class="mut m2 s2" transform="translate(0 -17.3203)"><line x1="0" x2="0" y1="0" y2="17.3203"/><path class="sym" d="M -3,-3 l 6,6 M -3,3 l 6,-6"/><text class="lab rgt" transform="translate(5 0)">2</text></g><rect class="sym" height="6" width="6" x="-3" y="-3"/><text class="lab" transform="translate(0 11)">7</text></g><path class="edge e20" d="M 0 0 V -62.8015 H -15"/><g class="mut m0 s0" transform="translate(0 -53.9287)"><line x1="0" x2="0" y1="0" y2="53.9287"/><path class="sym" d="M -3,-3 l 6,6 M -3,3 l 6,-6"/><text class="lab rgt" transform="translate(5 0)">0</text></g><circle class="sym" cx="0" cy="0" r="3"/><text class="lab rgt" transform="translate(3 -7)">10</text></g><path class="edge e24" d="M 0 0 V -22.618 H -46.875"/><g class="mut m8 s8" transform="translate(0 -12.5891)"><line x1="0" x2="0" y1="0" y2="12.5891"/><path class="sym" d="M -3,-3 l 6,6 M -3,3 l 6,-6"/><text class="lab rgt" transform="translate(5 0)">8</text></g><circle class="sym" cx="0" cy="0" r="3"/><text class="lab rgt" transform="translate(3 -7)">16</text></g><circle class="sym" cx="0" cy="0" r="3"/><text class="lab" transform="translate(0 -11)">17</text></g></g></g><g class="title" transform="translate(100 0)"><text dominant-baseline="hanging" text-anchor="middle">Original tree</text></g></svg>