<svg baseProfile="full" height="300" version="1.1" width="600" xmlns="http://www.w3.org/2000/svg" xmlns:ev="http://www.w3.org/2001/xml-events" xmlns:xlink="http://www.w3.org/1999/xlink"><defs><style type="text/css"><![CDATA[.background path {fill: #808080; fill-opacity: 0}.background path:nth-child(odd) {fill-opacity: .1}.axes {font-size: 14px}.x-axis .tick .lab {font-weight: bold; dominant-baseline: hanging}.axes, .tree {font-size: 14px; text-anchor: middle}.axes line, .edge {stroke: black; fill: none}.axes .ax-skip {stroke-dasharray: 4}.y-axis .grid {stroke: #FAFAFA}.node > .sym {fill: black; stroke: none}.site > .sym {stroke: black}.mut text {fill: red; font-style: italic}.mut.extra text {fill: hotpink}.mut line {fill: none; stroke: none}.mut .sym {fill: none; stroke: red}.mut.extra .sym {stroke: hotpink}.node .mut .sym {stroke-width: 1.5px}.tree text, .tree-sequence text {dominant-baseline: central}.plotbox .lab.lft {text-anchor: end}.plotbox .lab.rgt {text-anchor: start}]]></style></defs><g class="tree-sequence"><g class="background"><path d="M56.8,0 l523.2,0 l0,238.2 l0,25 l0,5 l-523.2,0 l0,-5 l0,-25 l0,-238.2z" /></g><g class="axes"><g class="x-axis"><g class="title" transform="translate(318.4 300)"><text class="lab" text-anchor="middle" transform="translate(0 -11)">Genome position</text></g><line class="ax-line" x1="56.8" x2="580" y1="263.2" y2="263.2" /><g class="ticks"><g class="tick" transform="translate(56.8 263.2)"><line x1="0" x2="0" y1="0" y2="5" /><g transform="translate(0 6)"><text class="lab">0</text></g></g><g class="tick" transform="translate(580 263.2)"><line x1="0" x2="0" y1="0" y2="5" /><g transform="translate(0 6)"><text class="lab">50000</text></g></g></g></g><g class="y-axis"><g class="title" transform="translate(0 115.7)"><text class="lab" text-anchor="middle" transform="translate(11) rotate(-90)">Time (generations ago)</text></g><line class="ax-line" x1="56.8" x2="56.8" y1="221.4" y2="10" /><g class="ticks"><g class="tick" transform="translate(56.8 221.4)"><line x1="0" x2="-5" y1="0" y2="0" /><g transform="translate(-6 0)"><text class="lab" text-anchor="end">Current</text></g></g><g class="tick" transform="translate(56.8 211.67)"><line x1="0" x2="-5" y1="0" y2="0" /><g transform="translate(-6 0)"><text class="lab" text-anchor="end">1</text></g></g><g class="tick" transform="translate(56.8 201.94)"><line x1="0" x2="-5" y1="0" y2="0" /><g transform="translate(-6 0)"><text class="lab" text-anchor="end">2</text></g></g><g class="tick" transform="translate(56.8 192.21)"><line x1="0" x2="-5" y1="0" y2="0" /><g transform="translate(-6 0)"><text class="lab" text-anchor="end">3</text></g></g><g class="tick" transform="translate(56.8 182.48)"><line x1="0" x2="-5" y1="0" y2="0" /><g transform="translate(-6 0)"><text class="lab" text-anchor="end">4</text></g></g><g class="tick" transform="translate(56.8 172.75)"><line x1="0" x2="-5" y1="0" y2="0" /><g transform="translate(-6 0)"><text class="lab" text-anchor="end">5</text></g></g><g class="tick" transform="translate(56.8 163.02)"><line x1="0" x2="-5" y1="0" y2="0" /><g transform="translate(-6 0)"><text class="lab" text-anchor="end">6</text></g></g><g class="tick" transform="translate(56.8 153.29)"><line x1="0" x2="-5" y1="0" y2="0" /><g transform="translate(-6 0)"><text class="lab" text-anchor="end">7</text></g></g><g class="tick" transform="translate(56.8 143.56)"><line x1="0" x2="-5" y1="0" y2="0" /><g transform="translate(-6 0)"><text class="lab" text-anchor="end">8</text></g></g><g class="tick" transform="translate(56.8 133.83)"><line x1="0" x2="-5" y1="0" y2="0" /><g transform="translate(-6 0)"><text class="lab" text-anchor="end">9</text></g></g><g class="tick" transform="translate(56.8 124.1)"><line x1="0" x2="-5" y1="0" y2="0" /><g transform="translate(-6 0)"><text class="lab" text-anchor="end">10</text></g></g><g class="tick" transform="translate(56.8 114.37)"><line x1="0" x2="-5" y1="0" y2="0" /><g transform="translate(-6 0)"><text class="lab" text-anchor="end">11</text></g></g><g class="tick" transform="translate(56.8 104.64)"><line x1="0" x2="-5" y1="0" y2="0" /><g transform="translate(-6 0)"><text class="lab" text-anchor="end">12</text></g></g><g class="tick" transform="translate(56.8 94.91)"><line x1="0" x2="-5" y1="0" y2="0" /><g transform="translate(-6 0)"><text class="lab" text-anchor="end">13</text></g></g><g class="tick" transform="translate(56.8 85.18)"><line x1="0" x2="-5" y1="0" y2="0" /><g transform="translate(-6 0)"><text class="lab" text-anchor="end">14</text></g></g><g class="tick" transform="translate(56.8 75.45)"><line x1="0" x2="-5" y1="0" y2="0" /><g transform="translate(-6 0)"><text class="lab" text-anchor="end">15</text></g></g><g class="tick" transform="translate(56.8 65.72)"><line x1="0" x2="-5" y1="0" y2="0" /><g transform="translate(-6 0)"><text class="lab" text-anchor="end">16</text></g></g><g class="tick" transform="translate(56.8 55.99)"><line x1="0" x2="-5" y1="0" y2="0" /><g transform="translate(-6 0)"><text class="lab" text-anchor="end">17</text></g></g><g class="tick" transform="translate(56.8 46.26)"><line x1="0" x2="-5" y1="0" y2="0" /><g transform="translate(-6 0)"><text class="lab" text-anchor="end">18</text></g></g><g class="tick" transform="translate(56.8 36.53)"><line x1="0" x2="-5" y1="0" y2="0" /><g transform="translate(-6 0)"><text class="lab" text-anchor="end">19</text></g></g><g class="tick" transform="translate(56.8 26.8)"><line x1="0" x2="-5" y1="0" y2="0" /><g transform="translate(-6 0)"><text class="lab" text-anchor="end">20</text></g></g></g></g></g><g class="plotbox trees"><g class="tree t0" transform="translate(56.8 0)"><g class="plotbox"><g class="c1 i0 node n70 root" transform="translate(331.438 26.8)"><g class="a70 c1 i1 node n69" transform="translate(0.0 9.73)"><g class="a69 c2 i2 node n68" transform="translate(0.0 9.73)"><g class="a68 c1 i3 node n66" transform="translate(101.296 9.73)"><g class="a66 c1 i4 node n64" transform="translate(0.0 9.73)"><g class="a64 c1 i6 node n62" transform="translate(0.0 9.73)"><g class="a62 c1 i8 node n60" transform="translate(0.0 9.73)"><g class="a60 c1 i11 node n59" transform="translate(0.0 9.73)"><g class="a59 c1 i13 node n57" transform="translate(0.0 9.73)"><g class="a57 c1 i14 node n54" transform="translate(0.0 9.73)"><g class="a54 c1 i18 node n53" transform="translate(0.0 9.73)"><g class="a53 c1 i21 node n50" transform="translate(0.0 9.73)"><g class="a50 c1 i22 node n44" transform="translate(0.0 9.73)"><g class="a44 c1 i26 node n41" transform="translate(0.0 9.73)"><g class="a41 c1 i29 node n36" transform="translate(0.0 9.73)"><g class="a36 c1 i36 node n35" transform="translate(0.0 9.73)"><g class="a35 c1 i39 node n31" transform="translate(0.0 9.73)"><g class="a31 c1 i43 node n27" transform="translate(0.0 9.73)"><g class="a27 c2 i44 node n19" transform="translate(0.0 9.73)"><g class="a19 c1 i48 node n12" transform="translate(50.3333 9.73)"><g class="a12 i55 leaf node n5 sample" transform="translate(0.0 9.73)"><path class="edge" d="M 0 0 V -9.73 H 0.0" /><rect class="sym" height="6" width="6" x="-3" y="-3" /><text class="lab" transform="translate(0 11)">5</text></g><path class="edge" d="M 0 0 V -9.73 H -50.3333" /><circle class="sym" cx="0" cy="0" r="3" /><text class="lab rgt" transform="translate(3 -7.0)">12</text></g><g class="a19 c4 i49 node n14" transform="translate(-50.3333 9.73)"><g class="a14 i53 leaf node n1 sample" transform="translate(-60.4 9.73)"><path class="edge" d="M 0 0 V -9.73 H 60.4" /><rect class="sym" height="6" width="6" x="-3" y="-3" /><text class="lab" transform="translate(0 11)">1</text></g><g class="a14 i54 leaf node n2 sample" transform="translate(-20.1333 9.73)"><path class="edge" d="M 0 0 V -9.73 H 20.1333" /><rect class="sym" height="6" width="6" x="-3" y="-3" /><text class="lab" transform="translate(0 11)">2</text></g><g class="a14 i54 leaf node n3 sample" transform="translate(20.1333 9.73)"><path class="edge" d="M 0 0 V -9.73 H -20.1333" /><rect class="sym" height="6" width="6" x="-3" y="-3" /><text class="lab" transform="translate(0 11)">3</text></g><g class="a14 i57 leaf node n8 sample" transform="translate(60.4 9.73)"><path class="edge" d="M 0 0 V -9.73 H -60.4" /><rect class="sym" height="6" width="6" x="-3" y="-3" /><text class="lab" transform="translate(0 11)">8</text></g><path class="edge" d="M 0 0 V -9.73 H 50.3333" /><circle class="sym" cx="0" cy="0" r="3" /><text class="lab lft" transform="translate(-3 -7.0)">14</text></g><path class="edge" d="M 0 0 V -9.73 H 0.0" /><circle class="sym" cx="0" cy="0" r="3" /><text class="lab lft" transform="translate(-3 -7.0)">19</text></g><path class="edge" d="M 0 0 V -9.73 H 0.0" /><circle class="sym" cx="0" cy="0" r="3" /><text class="lab lft" transform="translate(-3 -7.0)">27</text></g><path class="edge" d="M 0 0 V -9.73 H 0.0" /><circle class="sym" cx="0" cy="0" r="3" /><text class="lab lft" transform="translate(-3 -7.0)">31</text></g><path class="edge" d="M 0 0 V -9.73 H 0.0" /><circle class="sym" cx="0" cy="0" r="3" /><text class="lab lft" transform="translate(-3 -7.0)">35</text></g><path class="edge" d="M 0 0 V -9.73 H 0.0" /><circle class="sym" cx="0" cy="0" r="3" /><text class="lab lft" transform="translate(-3 -7.0)">36</text></g><path class="edge" d="M 0 0 V -9.73 H 0.0" /><circle class="sym" cx="0" cy="0" r="3" /><text class="lab lft" transform="translate(-3 -7.0)">41</text></g><path class="edge" d="M 0 0 V -9.73 H 0.0" /><circle class="sym" cx="0" cy="0" r="3" /><text class="lab lft" transform="translate(-3 -7.0)">44</text></g><path class="edge" d="M 0 0 V -9.73 H 0.0" /><circle class="sym" cx="0" cy="0" r="3" /><text class="lab lft" transform="translate(-3 -7.0)">50</text></g><path class="edge" d="M 0 0 V -9.73 H 0.0" /><circle class="sym" cx="0" cy="0" r="3" /><text class="lab lft" transform="translate(-3 -7.0)">53</text></g><path class="edge" d="M 0 0 V -9.73 H 0.0" /><circle class="sym" cx="0" cy="0" r="3" /><text class="lab lft" transform="translate(-3 -7.0)">54</text></g><path class="edge" d="M 0 0 V -9.73 H 0.0" /><circle class="sym" cx="0" cy="0" r="3" /><text class="lab lft" transform="translate(-3 -7.0)">57</text></g><path class="edge" d="M 0 0 V -9.73 H 0.0" /><circle class="sym" cx="0" cy="0" r="3" /><text class="lab lft" transform="translate(-3 -7.0)">59</text></g><path class="edge" d="M 0 0 V -9.73 H 0.0" /><circle class="sym" cx="0" cy="0" r="3" /><text class="lab lft" transform="translate(-3 -7.0)">60</text></g><path class="edge" d="M 0 0 V -9.73 H 0.0" /><circle class="sym" cx="0" cy="0" r="3" /><text class="lab lft" transform="translate(-3 -7.0)">62</text></g><path class="edge" d="M 0 0 V -9.73 H 0.0" /><circle class="sym" cx="0" cy="0" r="3" /><text class="lab lft" transform="translate(-3 -7.0)">64</text></g><path class="edge" d="M 0 0 V -9.73 H -101.296" /><circle class="sym" cx="0" cy="0" r="3" /><text class="lab rgt" transform="translate(3 -7.0)">66</text></g><g class="a68 c1 i3 node n67" transform="translate(-101.296 9.73)"><g class="a67 c1 i5 node n65" transform="translate(0.0 9.73)"><g class="a65 c1 i7 node n63" transform="translate(0.0 9.73)"><g class="a63 c1 i9 node n61" transform="translate(0.0 9.73)"><g class="a61 c1 i10 node n58" transform="translate(0.0 9.73)"><g class="a58 c1 i12 node n56" transform="translate(0.0 9.73)"><g class="a56 c2 i15 node n55" transform="translate(0.0 9.73)"><g class="a55 c1 i16 node n51" transform="translate(-51.5917 9.73)"><g class="a51 c2 i19 node n48" transform="translate(0.0 9.73)"><g class="a48 c1 i23 node n45" transform="translate(62.9167 9.73)"><g class="a45 c1 i25 node n40" transform="translate(0.0 9.73)"><g class="a40 c1 i31 node n38" transform="translate(0.0 9.73)"><g class="a38 c1 i35 node n34" transform="translate(0.0 9.73)"><g class="a34 c1 i38 node n29" transform="translate(0.0 9.73)"><g class="a29 c1 i40 node n24" transform="translate(0.0 9.73)"><g class="a24 c1 i46 node n21" transform="translate(0.0 9.73)"><g class="a21 c1 i52 node n18" transform="translate(0.0 9.73)"><g class="a18 i55 leaf node n4 sample" transform="translate(0.0 9.73)"><path class="edge" d="M 0 0 V -9.73 H 0.0" /><rect class="sym" height="6" width="6" x="-3" y="-3" /><text class="lab" transform="translate(0 11)">4</text></g><path class="edge" d="M 0 0 V -9.73 H 0.0" /><circle class="sym" cx="0" cy="0" r="3" /><text class="lab lft" transform="translate(-3 -7.0)">18</text></g><path class="edge" d="M 0 0 V -9.73 H 0.0" /><circle class="sym" cx="0" cy="0" r="3" /><text class="lab lft" transform="translate(-3 -7.0)">21</text></g><path class="edge" d="M 0 0 V -9.73 H 0.0" /><circle class="sym" cx="0" cy="0" r="3" /><text class="lab lft" transform="translate(-3 -7.0)">24</text></g><path class="edge" d="M 0 0 V -9.73 H 0.0" /><circle class="sym" cx="0" cy="0" r="3" /><text class="lab lft" transform="translate(-3 -7.0)">29</text></g><path class="edge" d="M 0 0 V -9.73 H 0.0" /><circle class="sym" cx="0" cy="0" r="3" /><text class="lab lft" transform="translate(-3 -7.0)">34</text></g><path class="edge" d="M 0 0 V -9.73 H 0.0" /><circle class="sym" cx="0" cy="0" r="3" /><text class="lab lft" transform="translate(-3 -7.0)">38</text></g><path class="edge" d="M 0 0 V -9.73 H 0.0" /><circle class="sym" cx="0" cy="0" r="3" /><text class="lab lft" transform="translate(-3 -7.0)">40</text></g><path class="edge" d="M 0 0 V -9.73 H -62.9167" /><circle class="sym" cx="0" cy="0" r="3" /><text class="lab rgt" transform="translate(3 -7.0)">45</text></g><g class="a48 c1 i24 node n47" transform="translate(-62.9167 9.73)"><g class="a47 c1 i27 node n42" transform="translate(0.0 9.73)"><g class="a42 c1 i30 node n37" transform="translate(0.0 9.73)"><g class="a37 c1 i33 node n32" transform="translate(0.0 9.73)"><g class="a32 c1 i37 node n28" transform="translate(0.0 9.73)"><g class="a28 c2 i41 node n25" transform="translate(0.0 9.73)"><g class="a25 c1 i45 node n20" transform="translate(-55.3667 9.73)"><g class="a20 c2 i50 node n15" transform="translate(0.0 9.73)"><g class="a15 i53 leaf node n0 sample" transform="translate(-20.1333 9.73)"><path class="edge" d="M 0 0 V -9.73 H 20.1333" /><rect class="sym" height="6" width="6" x="-3" y="-3" /><text class="lab" transform="translate(0 11)">0</text></g><g class="a15 i57 leaf node n9 sample" transform="translate(20.1333 9.73)"><path class="edge" d="M 0 0 V -9.73 H -20.1333" /><rect class="sym" height="6" width="6" x="-3" y="-3" /><text class="lab" transform="translate(0 11)">9</text></g><path class="edge" d="M 0 0 V -9.73 H 0.0" /><circle class="sym" cx="0" cy="0" r="3" /><text class="lab lft" transform="translate(-3 -7.0)">15</text></g><path class="edge" d="M 0 0 V -9.73 H 55.3667" /><circle class="sym" cx="0" cy="0" r="3" /><text class="lab lft" transform="translate(-3 -7.0)">20</text></g><g class="a25 c2 i47 node n23" transform="translate(55.3667 9.73)"><g class="a23 c1 i48 node n13" transform="translate(30.2 9.73)"><g class="a13 i56 leaf node n7 sample" transform="translate(0.0 9.73)"><path class="edge" d="M 0 0 V -9.73 H 0.0" /><rect class="sym" height="6" width="6" x="-3" y="-3" /><text class="lab" transform="translate(0 11)">7</text></g><path class="edge" d="M 0 0 V -9.73 H -30.2" /><circle class="sym" cx="0" cy="0" r="3" /><text class="lab rgt" transform="translate(3 -7.0)">13</text></g><g class="a23 c2 i51 node n17" transform="translate(-30.2 9.73)"><g class="a17 i56 leaf node n6 sample" transform="translate(-20.1333 9.73)"><path class="edge" d="M 0 0 V -9.73 H 20.1333" /><rect class="sym" height="6" width="6" x="-3" y="-3" /><text class="lab" transform="translate(0 11)">6</text></g><g class="a17 i58 leaf node n10 sample" transform="translate(20.1333 9.73)"><path class="edge" d="M 0 0 V -9.73 H -20.1333" /><rect class="sym" height="6" width="6" x="-3" y="-3" /><text class="lab" transform="translate(0 11)">10</text></g><path class="edge" d="M 0 0 V -9.73 H 30.2" /><circle class="sym" cx="0" cy="0" r="3" /><text class="lab lft" transform="translate(-3 -7.0)">17</text></g><path class="edge" d="M 0 0 V -9.73 H -55.3667" /><circle class="sym" cx="0" cy="0" r="3" /><text class="lab rgt" transform="translate(3 -7.0)">23</text></g><path class="edge" d="M 0 0 V -9.73 H 0.0" /><circle class="sym" cx="0" cy="0" r="3" /><text class="lab lft" transform="translate(-3 -7.0)">25</text></g><path class="edge" d="M 0 0 V -9.73 H 0.0" /><circle class="sym" cx="0" cy="0" r="3" /><text class="lab lft" transform="translate(-3 -7.0)">28</text></g><path class="edge" d="M 0 0 V -9.73 H 0.0" /><circle class="sym" cx="0" cy="0" r="3" /><text class="lab lft" transform="translate(-3 -7.0)">32</text></g><path class="edge" d="M 0 0 V -9.73 H 0.0" /><circle class="sym" cx="0" cy="0" r="3" /><text class="lab lft" transform="translate(-3 -7.0)">37</text></g><path class="edge" d="M 0 0 V -9.73 H 0.0" /><circle class="sym" cx="0" cy="0" r="3" /><text class="lab lft" transform="translate(-3 -7.0)">42</text></g><path class="edge" d="M 0 0 V -9.73 H 62.9167" /><circle class="sym" cx="0" cy="0" r="3" /><text class="lab lft" transform="translate(-3 -7.0)">47</text></g><path class="edge" d="M 0 0 V -9.73 H 0.0" /><circle class="sym" cx="0" cy="0" r="3" /><text class="lab lft" transform="translate(-3 -7.0)">48</text></g><path class="edge" d="M 0 0 V -9.73 H 51.5917" /><circle class="sym" cx="0" cy="0" r="3" /><text class="lab lft" transform="translate(-3 -7.0)">51</text></g><g class="a55 c1 i17 node n52" transform="translate(51.5917 9.73)"><g class="a52 c1 i20 node n49" transform="translate(0.0 9.73)"><g class="a49 c1 i23 node n46" transform="translate(0.0 9.73)"><g class="a46 c1 i28 node n43" transform="translate(0.0 9.73)"><g class="a43 c1 i32 node n39" transform="translate(0.0 9.73)"><g class="a39 c1 i34 node n33" transform="translate(0.0 9.73)"><g class="a33 c1 i39 node n30" transform="translate(0.0 9.73)"><g class="a30 c1 i42 node n26" transform="translate(0.0 9.73)"><g class="a26 c1 i46 node n22" transform="translate(0.0 9.73)"><g class="a22 c1 i51 node n16" transform="translate(0.0 9.73)"><g class="a16 i58 leaf node n11 sample" transform="translate(0.0 9.73)"><path class="edge" d="M 0 0 V -9.73 H 0.0" /><rect class="sym" height="6" width="6" x="-3" y="-3" /><text class="lab" transform="translate(0 11)">11</text></g><path class="edge" d="M 0 0 V -9.73 H 0.0" /><circle class="sym" cx="0" cy="0" r="3" /><text class="lab lft" transform="translate(-3 -7.0)">16</text></g><path class="edge" d="M 0 0 V -9.73 H 0.0" /><circle class="sym" cx="0" cy="0" r="3" /><text class="lab lft" transform="translate(-3 -7.0)">22</text></g><path class="edge" d="M 0 0 V -9.73 H 0.0" /><circle class="sym" cx="0" cy="0" r="3" /><text class="lab lft" transform="translate(-3 -7.0)">26</text></g><path class="edge" d="M 0 0 V -9.73 H 0.0" /><circle class="sym" cx="0" cy="0" r="3" /><text class="lab lft" transform="translate(-3 -7.0)">30</text></g><path class="edge" d="M 0 0 V -9.73 H 0.0" /><circle class="sym" cx="0" cy="0" r="3" /><text class="lab lft" transform="translate(-3 -7.0)">33</text></g><path class="edge" d="M 0 0 V -9.73 H 0.0" /><circle class="sym" cx="0" cy="0" r="3" /><text class="lab lft" transform="translate(-3 -7.0)">39</text></g><path class="edge" d="M 0 0 V -9.73 H 0.0" /><circle class="sym" cx="0" cy="0" r="3" /><text class="lab lft" transform="translate(-3 -7.0)">43</text></g><path class="edge" d="M 0 0 V -9.73 H 0.0" /><circle class="sym" cx="0" cy="0" r="3" /><text class="lab lft" transform="translate(-3 -7.0)">46</text></g><path class="edge" d="M 0 0 V -9.73 H 0.0" /><circle class="sym" cx="0" cy="0" r="3" /><text class="lab lft" transform="translate(-3 -7.0)">49</text></g><path class="edge" d="M 0 0 V -9.73 H -51.5917" /><circle class="sym" cx="0" cy="0" r="3" /><text class="lab rgt" transform="translate(3 -7.0)">52</text></g><path class="edge" d="M 0 0 V -9.73 H 0.0" /><circle class="sym" cx="0" cy="0" r="3" /><text class="lab lft" transform="translate(-3 -7.0)">55</text></g><path class="edge" d="M 0 0 V -9.73 H 0.0" /><circle class="sym" cx="0" cy="0" r="3" /><text class="lab lft" transform="translate(-3 -7.0)">56</text></g><path class="edge" d="M 0 0 V -9.73 H 0.0" /><circle class="sym" cx="0" cy="0" r="3" /><text class="lab lft" transform="translate(-3 -7.0)">58</text></g><path class="edge" d="M 0 0 V -9.73 H 0.0" /><circle class="sym" cx="0" cy="0" r="3" /><text class="lab lft" transform="translate(-3 -7.0)">61</text></g><path class="edge" d="M 0 0 V -9.73 H 0.0" /><circle class="sym" cx="0" cy="0" r="3" /><text class="lab lft" transform="translate(-3 -7.0)">63</text></g><path class="edge" d="M 0 0 V -9.73 H 0.0" /><circle class="sym" cx="0" cy="0" r="3" /><text class="lab lft" transform="translate(-3 -7.0)">65</text></g><path class="edge" d="M 0 0 V -9.73 H 101.296" /><circle class="sym" cx="0" cy="0" r="3" /><text class="lab lft" transform="translate(-3 -7.0)">67</text></g><path class="edge" d="M 0 0 V -9.73 H 0.0" /><circle class="sym" cx="0" cy="0" r="3" /><text class="lab lft" transform="translate(-3 -7.0)">68</text></g><path class="edge" d="M 0 0 V -9.73 H 0.0" /><circle class="sym" cx="0" cy="0" r="3" /><text class="lab lft" transform="translate(-3 -7.0)">69</text></g><circle class="sym" cx="0" cy="0" r="3" /><text class="lab" transform="translate(0 -11)">70</text></g></g></g></g></g></svg>