<svg baseProfile="full" height="200" version="1.1" width="400" xmlns="http://www.w3.org/2000/svg" xmlns:ev="http://www.w3.org/2001/xml-events" xmlns:xlink="http://www.w3.org/1999/xlink"><defs><style type="text/css"><![CDATA[.background path {fill: #808080; fill-opacity: 0}.background path:nth-child(odd) {fill-opacity: .1}.axes {font-size: 14px}.x-axis .tick .lab {font-weight: bold; dominant-baseline: hanging}.axes, .tree {font-size: 14px; text-anchor: middle}.axes line, .edge {stroke: black; fill: none}.axes .ax-skip {stroke-dasharray: 4}.y-axis .grid {stroke: #FAFAFA}.node > .sym {fill: black; stroke: none}.site > .sym {stroke: black}.mut text {fill: red; font-style: italic}.mut.extra text {fill: hotpink}.mut line {fill: none; stroke: none}.mut .sym {fill: none; stroke: red}.mut.extra .sym {stroke: hotpink}.node .mut .sym {stroke-width: 1.5px}.tree text, .tree-sequence text {dominant-baseline: central}.plotbox .lab.lft {text-anchor: end}.plotbox .lab.rgt {text-anchor: start}]]></style></defs><g class="tree-sequence"><g class="background"><path d="M20,0 l180,0 l0,138.2 l0,25 l0,5 l-180,0 l0,-5 l0,-25 l0,-138.2z" /><path d="M200,0 l180,0 l0,138.2 l0,25 l0,5 l-180,0 l0,-5 l0,-25 l0,-138.2z" /></g><g class="axes"><g class="x-axis"><g class="title" transform="translate(200 200)"><text class="lab" text-anchor="middle" transform="translate(0 -11)">Genome position</text></g><line class="ax-line" x1="20" x2="380" y1="163.2" y2="163.2" /><g class="ticks"><g class="tick" transform="translate(20 163.2)"><line x1="0" x2="0" y1="0" y2="5" /><g transform="translate(0 6)"><text class="lab">0</text></g></g><g class="tick" transform="translate(200 163.2)"><line x1="0" x2="0" y1="0" y2="5" /><g transform="translate(0 6)"><text class="lab">1</text></g></g><g class="tick" transform="translate(380 163.2)"><line x1="0" x2="0" y1="0" y2="5" /><g transform="translate(0 6)"><text class="lab">2</text></g></g></g></g></g><g class="plotbox trees"><g class="tree t0" transform="translate(20 0)"><g class="plotbox"><g class="c2 node n22 p0 root" transform="translate(101.375 75.2786)"><g class="a22 c1 node n17 p0" transform="translate(-37.625 24.396)"><g class="a17 c2 node n15 p0" transform="translate(0.0 8.69018)"><g class="a15 c2 node n13 p0" transform="translate(-26.25 4.34509)"><g class="a13 leaf node n0 p0 sample" transform="translate(-10.5 8.69018)"><path class="edge" d="M 0 0 V -8.69018 H 10.5" /><rect class="sym" height="6" width="6" x="-3" y="-3" /><text class="lab" transform="translate(0 11)">0</text></g><g class="a13 c2 node n11 p0" transform="translate(10.5 4.34509)"><g class="a11 leaf node n4 p0 sample" transform="translate(-7 4.34509)"><path class="edge" d="M 0 0 V -4.34509 H 7" /><rect class="sym" height="6" width="6" x="-3" y="-3" /><text class="lab" transform="translate(0 11)">4</text></g><g class="a11 leaf node n9 p0 sample" transform="translate(7 4.34509)"><path class="edge" d="M 0 0 V -4.34509 H -7" /><rect class="sym" height="6" width="6" x="-3" y="-3" /><text class="lab" transform="translate(0 11)">9</text></g><path class="edge" d="M 0 0 V -4.34509 H -10.5" /><circle class="sym" cx="0" cy="0" r="3" /><text class="lab rgt" transform="translate(3 -7.0)">11</text></g><path class="edge" d="M 0 0 V -4.34509 H 26.25" /><circle class="sym" cx="0" cy="0" r="3" /><text class="lab lft" transform="translate(-3 -7.0)">13</text></g><g class="a15 c3 node n14 p0" transform="translate(26.25 4.34509)"><g class="a14 leaf node n1 p0 sample" transform="translate(-21 8.69018)"><path class="edge" d="M 0 0 V -8.69018 H 21" /><rect class="sym" height="6" width="6" x="-3" y="-3" /><text class="lab" transform="translate(0 11)">1</text></g><g class="a14 leaf node n8 p0 sample" transform="translate(21 8.69018)"><path class="edge" d="M 0 0 V -8.69018 H -21" /><rect class="sym" height="6" width="6" x="-3" y="-3" /><text class="lab" transform="translate(0 11)">8</text></g><g class="a14 c2 node n12 p0" transform="translate(0.0 4.34509)"><g class="a12 leaf node n5 p0 sample" transform="translate(-7 4.34509)"><path class="edge" d="M 0 0 V -4.34509 H 7" /><rect class="sym" height="6" width="6" x="-3" y="-3" /><text class="lab" transform="translate(0 11)">5</text></g><g class="a12 leaf node n7 p0 sample" transform="translate(7 4.34509)"><path class="edge" d="M 0 0 V -4.34509 H -7" /><rect class="sym" height="6" width="6" x="-3" y="-3" /><text class="lab" transform="translate(0 11)">7</text></g><path class="edge" d="M 0 0 V -4.34509 H 0.0" /><circle class="sym" cx="0" cy="0" r="3" /><text class="lab rgt" transform="translate(3 -7.0)">12</text></g><path class="edge" d="M 0 0 V -4.34509 H -26.25" /><circle class="sym" cx="0" cy="0" r="3" /><text class="lab rgt" transform="translate(3 -7.0)">14</text></g><path class="edge" d="M 0 0 V -8.69018 H 0.0" /><circle class="sym" cx="0" cy="0" r="3" /><text class="lab lft" transform="translate(-3 -7.0)">15</text></g><path class="edge" d="M 0 0 V -24.396 H 37.625" /><circle class="sym" cx="0" cy="0" r="3" /><text class="lab lft" transform="translate(-3 -7.0)">17</text></g><g class="a22 c1 node n18 p0" transform="translate(37.625 24.396)"><g class="a18 c3 node n10 p0" transform="translate(0.0 17.3804)"><g class="a10 leaf node n2 p0 sample" transform="translate(-14 4.34509)"><path class="edge" d="M 0 0 V -4.34509 H 14" /><rect class="sym" height="6" width="6" x="-3" y="-3" /><text class="lab" transform="translate(0 11)">2</text></g><g class="a10 leaf node n3 p0 sample" transform="translate(0.0 4.34509)"><path class="edge" d="M 0 0 V -4.34509 H 0.0" /><rect class="sym" height="6" width="6" x="-3" y="-3" /><text class="lab" transform="translate(0 11)">3</text></g><g class="a10 leaf node n6 p0 sample" transform="translate(14 4.34509)"><path class="edge" d="M 0 0 V -4.34509 H -14" /><rect class="sym" height="6" width="6" x="-3" y="-3" /><text class="lab" transform="translate(0 11)">6</text></g><path class="edge" d="M 0 0 V -17.3804 H 0.0" /><circle class="sym" cx="0" cy="0" r="3" /><text class="lab lft" transform="translate(-3 -7.0)">10</text></g><path class="edge" d="M 0 0 V -24.396 H -37.625" /><circle class="sym" cx="0" cy="0" r="3" /><text class="lab rgt" transform="translate(3 -7.0)">18</text></g><circle class="sym" cx="0" cy="0" r="3" /><text class="lab" transform="translate(0 -11)">22</text></g></g></g><g class="tree t1" transform="translate(200 0)"><g class="plotbox"><g class="c2 node n23 p0 root" transform="translate(92.625 26.8)"><g class="a23 c1 node n17 p0" transform="translate(-30.625 72.8746)"><g class="a17 c6 node n11 p0" transform="translate(0.0 17.3804)"><g class="a11 leaf node n4 p0 sample" transform="translate(-7 4.34509)"><path class="edge" d="M 0 0 V -4.34509 H 7" /><rect class="sym" height="6" width="6" x="-3" y="-3" /><text class="lab" transform="translate(0 11)">4</text></g><g class="a11 leaf node n9 p0 sample" transform="translate(35 4.34509)"><path class="edge" d="M 0 0 V -4.34509 H -35" /><rect class="sym" height="6" width="6" x="-3" y="-3" /><text class="lab" transform="translate(0 11)">9</text></g><g class="a11 leaf node n0 p0 sample" transform="translate(-35 4.34509)"><path class="edge" d="M 0 0 V -4.34509 H 35" /><rect class="sym" height="6" width="6" x="-3" y="-3" /><text class="lab" transform="translate(0 11)">0</text></g><g class="a11 leaf node n3 p0 sample" transform="translate(-21 4.34509)"><path class="edge" d="M 0 0 V -4.34509 H 21" /><rect class="sym" height="6" width="6" x="-3" y="-3" /><text class="lab" transform="translate(0 11)">3</text></g><g class="a11 leaf node n6 p0 sample" transform="translate(7 4.34509)"><path class="edge" d="M 0 0 V -4.34509 H -7" /><rect class="sym" height="6" width="6" x="-3" y="-3" /><text class="lab" transform="translate(0 11)">6</text></g><g class="a11 leaf node n8 p0 sample" transform="translate(21 4.34509)"><path class="edge" d="M 0 0 V -4.34509 H -21" /><rect class="sym" height="6" width="6" x="-3" y="-3" /><text class="lab" transform="translate(0 11)">8</text></g><path class="edge" d="M 0 0 V -17.3804 H 0.0" /><circle class="sym" cx="0" cy="0" r="3" /><text class="lab lft" transform="translate(-3 -7.0)">11</text></g><path class="edge" d="M 0 0 V -72.8746 H 30.625" /><circle class="sym" cx="0" cy="0" r="3" /><text class="lab lft" transform="translate(-3 -7.0)">17</text></g><g class="a23 c2 node n21 p0" transform="translate(30.625 60.8372)"><g class="a21 c1 node n19 p0" transform="translate(-12.25 12.0374)"><g class="a19 leaf node n1 p0 sample" transform="translate(0.0 21.7254)"><path class="edge" d="M 0 0 V -21.7254 H 0.0" /><rect class="sym" height="6" width="6" x="-3" y="-3" /><text class="lab" transform="translate(0 11)">1</text></g><path class="edge" d="M 0 0 V -12.0374 H 12.25" /><circle class="sym" cx="0" cy="0" r="3" /><text class="lab lft" transform="translate(-3 -7.0)">19</text></g><g class="a21 c2 node n20 p0" transform="translate(12.25 9.18544)"><g class="a20 c2 node n16 p0" transform="translate(10.5 2.85194)"><g class="a16 leaf node n5 p0 sample" transform="translate(-7 21.7254)"><path class="edge" d="M 0 0 V -21.7254 H 7" /><rect class="sym" height="6" width="6" x="-3" y="-3" /><text class="lab" transform="translate(0 11)">5</text></g><g class="a16 leaf node n7 p0 sample" transform="translate(7 21.7254)"><path class="edge" d="M 0 0 V -21.7254 H -7" /><rect class="sym" height="6" width="6" x="-3" y="-3" /><text class="lab" transform="translate(0 11)">7</text></g><path class="edge" d="M 0 0 V -2.85194 H -10.5" /><circle class="sym" cx="0" cy="0" r="3" /><text class="lab rgt" transform="translate(3 -7.0)">16</text></g><g class="a20 c1 node n18 p0" transform="translate(-10.5 2.85194)"><g class="a18 leaf node n2 p0 sample" transform="translate(0.0 21.7254)"><path class="edge" d="M 0 0 V -21.7254 H 0.0" /><rect class="sym" height="6" width="6" x="-3" y="-3" /><text class="lab" transform="translate(0 11)">2</text></g><path class="edge" d="M 0 0 V -2.85194 H 10.5" /><circle class="sym" cx="0" cy="0" r="3" /><text class="lab lft" transform="translate(-3 -7.0)">18</text></g><path class="edge" d="M 0 0 V -9.18544 H -12.25" /><circle class="sym" cx="0" cy="0" r="3" /><text class="lab rgt" transform="translate(3 -7.0)">20</text></g><path class="edge" d="M 0 0 V -60.8372 H -30.625" /><circle class="sym" cx="0" cy="0" r="3" /><text class="lab rgt" transform="translate(3 -7.0)">21</text></g><circle class="sym" cx="0" cy="0" r="3" /><text class="lab" transform="translate(0 -11)">23</text></g></g></g></g></g></svg>