<svg baseProfile="full" height="300" version="1.1" width="800" xmlns="http://www.w3.org/2000/svg" xmlns:ev="http://www.w3.org/2001/xml-events" xmlns:xlink="http://www.w3.org/1999/xlink"><rect x="30" y="267" height="30" width="245" fill="lightgrey" stroke="black" /><text font-size="12" text-anchor="middle" y="280" fill="red"><tspan font-size="14" x="150" fill="darkred" font-weight="bold">Mutation labels:</tspan><tspan dy="1em" x="150">&lt;inherited_state&gt;&lt;POSITION&gt;&lt;derived_state&gt;</tspan></text><defs><style type="text/css"><![CDATA[.background path {fill: #808080; fill-opacity: 0}.background path:nth-child(odd) {fill-opacity: .1}.x-regions rect {fill: yellow; stroke: black; opacity: 0.5}.axes {font-size: 14px}.x-axis .tick .lab {font-weight: bold; dominant-baseline: hanging}.axes, .tree {font-size: 14px; text-anchor: middle}.axes line, .edge {stroke: black; fill: none}.axes .ax-skip {stroke-dasharray: 4}.y-axis .grid {stroke: #FAFAFA}.node > .sym {fill: black; stroke: none}.site > .sym {stroke: black}.mut text {fill: red; font-style: italic}.mut.extra text {fill: hotpink}.mut line {fill: none; stroke: none}.mut .sym {fill: none; stroke: red}.mut.extra .sym {stroke: hotpink}.node .mut .sym {stroke-width: 1.5px}.tree text, .tree-sequence text {dominant-baseline: central}.plotbox .lab.lft {text-anchor: end}.plotbox .lab.rgt {text-anchor: start}.polytomy line {stroke: black; stroke-dasharray: 1px, 1px}.polytomy text {paint-order:stroke;stroke-width:0.3em;stroke:white}]]></style></defs><g class="tree-sequence"><g class="background"><path d="M56.8,16.8 l241.067,0 l0,221.4 l110.047,25 l0,5 l-351.114,0 l0,-5 l0,-25 l0,-221.4z"/><path d="M297.867,16.8 l241.067,0 l0,221.4 l161.587,25 l0,5 l-292.607,0 l0,-5 l-110.047,-25 l0,-221.4z"/><path d="M538.933,16.8 l241.067,0 l0,221.4 l0,25 l0,5 l-79.4797,0 l0,-5 l-161.587,-25 l0,-221.4z"/></g><g class="axes"><g class="x-axis"><g class="title" transform="translate(418.4 300)"><text class="lab" text-anchor="middle" transform="translate(0 -11)">Genome position</text></g><line class="ax-line" x1="56.8" x2="780" y1="263.2" y2="263.2"/><g class="ticks"><g class="tick" transform="translate(407.914 263.2)"><line x1="0" x2="0" y1="0" y2="5"/><g transform="translate(0 6)"><text class="lab">9855</text></g></g><g class="tick" transform="translate(700.52 263.2)"><line x1="0" x2="0" y1="0" y2="5"/><g transform="translate(0 6)"><text class="lab">13901</text></g></g></g><g class="site s1" transform="translate(150.454 263.2)"><line class="sym" x1="0" x2="0" y1="0" y2="-10"/><g class="mut m1"><polyline class="sym" points="2.5,-6.5 0,-1.5 -2.5,-6.5"/></g></g><g class="site s2" transform="translate(212.505 263.2)"><line class="sym" x1="0" x2="0" y1="0" y2="-10"/><g class="mut m2"><polyline class="sym" points="2.5,-6.5 0,-1.5 -2.5,-6.5"/></g></g><g class="site s3" transform="translate(251.341 263.2)"><line class="sym" x1="0" x2="0" y1="0" y2="-10"/><g class="mut m3"><polyline class="sym" points="2.5,-6.5 0,-1.5 -2.5,-6.5"/></g></g><g class="site s4" transform="translate(263.346 263.2)"><line class="sym" x1="0" x2="0" y1="0" y2="-10"/><g class="mut m4"><polyline class="sym" points="2.5,-6.5 0,-1.5 -2.5,-6.5"/></g></g><g class="site s5" transform="translate(303.267 263.2)"><line class="sym" x1="0" x2="0" y1="0" y2="-10"/><g class="mut m5"><polyline class="sym" points="2.5,-6.5 0,-1.5 -2.5,-6.5"/></g></g><g class="site s6" transform="translate(306.593 263.2)"><line class="sym" x1="0" x2="0" y1="0" y2="-10"/><g class="mut m6"><polyline class="sym" points="2.5,-6.5 0,-1.5 -2.5,-6.5"/></g></g><g class="site s7" transform="translate(322.359 263.2)"><line class="sym" x1="0" x2="0" y1="0" y2="-10"/><g class="mut m7"><polyline class="sym" points="2.5,-6.5 0,-1.5 -2.5,-6.5"/></g></g><g class="site s8" transform="translate(351.866 263.2)"><line class="sym" x1="0" x2="0" y1="0" y2="-10"/><g class="mut m8"><polyline class="sym" points="2.5,-6.5 0,-1.5 -2.5,-6.5"/></g></g><g class="site s9" transform="translate(579.891 263.2)"><line class="sym" x1="0" x2="0" y1="0" y2="-10"/><g class="mut m9"><polyline class="sym" points="2.5,-6.5 0,-1.5 -2.5,-6.5"/></g></g><g class="site s10" transform="translate(590.377 263.2)"><line class="sym" x1="0" x2="0" y1="0" y2="-10"/><g class="mut m10"><polyline class="sym" points="2.5,-6.5 0,-1.5 -2.5,-6.5"/></g></g><g class="site s11" transform="translate(600.863 263.2)"><line class="sym" x1="0" x2="0" y1="0" y2="-10"/><g class="mut m11"><polyline class="sym" points="2.5,-6.5 0,-1.5 -2.5,-6.5"/></g></g><g class="site s12" transform="translate(625.452 263.2)"><line class="sym" x1="0" x2="0" y1="0" y2="-10"/><g class="mut m12"><polyline class="sym" points="2.5,-6.5 0,-1.5 -2.5,-6.5"/></g></g><g class="site s13" transform="translate(654.019 263.2)"><line class="sym" x1="0" x2="0" y1="0" y2="-10"/><g class="mut m13"><polyline class="sym" points="2.5,-6.5 0,-1.5 -2.5,-6.5"/></g></g><g class="site s14" transform="translate(705.004 263.2)"><line class="sym" x1="0" x2="0" y1="0" y2="-10"/><g class="mut m15"><polyline class="sym" points="2.5,-6.5 0,-1.5 -2.5,-6.5"/></g><g class="mut m14"><polyline class="sym" points="2.5,-10.5 0,-5.5 -2.5,-10.5"/></g></g></g><g class="y-axis"><g class="title" transform="translate(0 107.3)"><text class="lab" text-anchor="middle" transform="translate(11) rotate(-90)">Time ago (generations)</text></g><line class="ax-line" x1="56.8" x2="56.8" y1="204.6" y2="10"/><g class="ticks"><g class="tick" transform="translate(56.8 204.6)"><line x1="0" x2="-5" y1="0" y2="0"/><g transform="translate(-6 0)"><text class="lab" text-anchor="end">0</text></g></g><g class="tick" transform="translate(56.8 151.98)"><line x1="0" x2="-5" y1="0" y2="0"/><g transform="translate(-6 0)"><text class="lab" text-anchor="end">1000</text></g></g><g class="tick" transform="translate(56.8 99.3593)"><line x1="0" x2="-5" y1="0" y2="0"/><g transform="translate(-6 0)"><text class="lab" text-anchor="end">2000</text></g></g><g class="tick" transform="translate(56.8 46.739)"><line x1="0" x2="-5" y1="0" y2="0"/><g transform="translate(-6 0)"><text class="lab" text-anchor="end">3000</text></g></g></g></g></g><g class="plotbox trees"><g class="tree t0" transform="translate(56.8 16.8)"><g class="plotbox"><g class="c2 node n17 p3 root" transform="translate(118.177 26.8)"><g class="a17 c2 m5 node n13 p3 s5" transform="translate(-58.9063 75.6261)"><g class="a13 i0 leaf m6 node n0 p0 s6 sample" transform="translate(-26.7042 102.174)"><path class="edge e8" d="M 0 0 V -102.174 H 26.7042"/><g class="mut m6 s6" transform="translate(0 -32.5216)"><line x1="0" x2="0" y1="0" y2="32.5216"/><path class="sym" d="M -3,-3 l 6,6 M -3,3 l 6,-6"/><text class="lab lft" transform="translate(-5 0)">A8454G</text></g><rect class="sym" height="6" width="6" x="-3" y="-3"/><text class="lab" transform="translate(0 11)">A</text></g><g class="a13 c2 node n12 p3" transform="translate(26.7042 26.4456)"><g class="a12 i0 leaf m3 node n1 p0 s3 sample" transform="translate(-28.275 75.7283)"><path class="edge e6" d="M 0 0 V -75.7283 H 28.275"/><g class="mut m3 s3" transform="translate(0 -54.7805)"><line x1="0" x2="0" y1="0" y2="54.7805"/><path class="sym" d="M -3,-3 l 6,6 M -3,3 l 6,-6"/><text class="lab lft" transform="translate(-5 0)">A7690G</text></g><rect class="sym" height="6" width="6" x="-3" y="-3"/><text class="lab" transform="translate(0 11)">A</text></g><g class="a12 c2 node n9 p3" transform="translate(28.275 21.188)"><g class="a9 i2 leaf node n4 p1 sample" transform="translate(18.85 54.5402)"><path class="edge e2" d="M 0 0 V -54.5402 H -18.85"/><rect class="sym" height="6" width="6" x="-3" y="-3"/><text class="lab" transform="translate(0 11)">B</text></g><g class="a9 c2 m1 m4 m7 node n8 p0 s1 s4 s7" transform="translate(-18.85 52.7518)"><g class="a8 i1 leaf node n2 p0 sample" transform="translate(-12.5667 1.78847)"><path class="edge e0" d="M 0 0 V -1.78847 H 12.5667"/><rect class="sym" height="6" width="6" x="-3" y="-3"/><text class="lab" transform="translate(0 11)">A</text></g><g class="a8 i1 leaf node n3 p0 sample" transform="translate(12.5667 1.78847)"><path class="edge e1" d="M 0 0 V -1.78847 H -12.5667"/><rect class="sym" height="6" width="6" x="-3" y="-3"/><text class="lab" transform="translate(0 11)">A</text></g><path class="edge e3" d="M 0 0 V -52.7518 H 18.85"/><g class="mut m1 s1" transform="translate(0 -18.8773)"><line x1="0" x2="0" y1="0" y2="18.8773"/><path class="sym" d="M -3,-3 l 6,6 M -3,3 l 6,-6"/><text class="lab lft" transform="translate(-5 0)">A6295C</text></g><g class="mut m7 s7" transform="translate(0 -12.1839)"><line x1="0" x2="0" y1="0" y2="12.1839"/><path class="sym" d="M -3,-3 l 6,6 M -3,3 l 6,-6"/><text class="lab lft" transform="translate(-5 0)">A8672C</text></g><g class="mut m4 s4" transform="translate(0 -11.7045)"><line x1="0" x2="0" y1="0" y2="11.7045"/><path class="sym" d="M -3,-3 l 6,6 M -3,3 l 6,-6"/><text class="lab lft" transform="translate(-5 0)">A7856G</text></g><circle class="sym" cx="0" cy="0" r="3"/><text class="lab lft" transform="translate(-3 -7)"/></g><path class="edge e7" d="M 0 0 V -21.188 H -28.275"/><circle class="sym" cx="0" cy="0" r="3"/><text class="lab rgt" transform="translate(3 -7)"/></g><path class="edge e10" d="M 0 0 V -26.4456 H -26.7042"/><circle class="sym" cx="0" cy="0" r="3"/><text class="lab rgt" transform="translate(3 -7)"/></g><path class="edge e18" d="M 0 0 V -75.6261 H 58.9063"/><g class="mut m5 s5" transform="translate(0 -8.95434)"><line x1="0" x2="0" y1="0" y2="8.95434"/><path class="sym" d="M -3,-3 l 6,6 M -3,3 l 6,-6"/><text class="lab lft" transform="translate(-5 0)">A8408A</text></g><circle class="sym" cx="0" cy="0" r="3"/><text class="lab lft" transform="translate(-3 -7)"/></g><g class="a17 c2 m8 node n16 p3 s8" transform="translate(58.9063 32.2752)"><g class="a16 i2 leaf node n5 p1 sample" transform="translate(-18.85 145.525)"><path class="edge e15" d="M 0 0 V -145.525 H 18.85"/><rect class="sym" height="6" width="6" x="-3" y="-3"/><text class="lab" transform="translate(0 11)">B</text></g><g class="a16 c2 node n10 p3" transform="translate(18.85 89.6156)"><g class="a10 i3 leaf node n6 p2 sample" transform="translate(-12.5667 55.9093)"><path class="edge e4" d="M 0 0 V -55.9093 H 12.5667"/><rect class="sym" height="6" width="6" x="-3" y="-3"/><text class="lab" transform="translate(0 11)">C</text></g><g class="a10 i3 leaf m2 node n7 p2 s2 sample" transform="translate(12.5667 55.9093)"><path class="edge e5" d="M 0 0 V -55.9093 H -12.5667"/><g class="mut m2 s2" transform="translate(0 -24.7155)"><line x1="0" x2="0" y1="0" y2="24.7155"/><path class="sym" d="M -3,-3 l 6,6 M -3,3 l 6,-6"/><text class="lab rgt" transform="translate(5 0)">A7153G</text></g><rect class="sym" height="6" width="6" x="-3" y="-3"/><text class="lab" transform="translate(0 11)">C</text></g><path class="edge e16" d="M 0 0 V -89.6156 H -18.85"/><circle class="sym" cx="0" cy="0" r="3"/><text class="lab rgt" transform="translate(3 -7)"/></g><path class="edge e20" d="M 0 0 V -32.2752 H -58.9063"/><g class="mut m8 s8" transform="translate(0 -17.9643)"><line x1="0" x2="0" y1="0" y2="17.9643"/><path class="sym" d="M -3,-3 l 6,6 M -3,3 l 6,-6"/><text class="lab rgt" transform="translate(5 0)">A9080T</text></g><circle class="sym" cx="0" cy="0" r="3"/><text class="lab rgt" transform="translate(3 -7)"/></g><circle class="sym" cx="0" cy="0" r="3"/><text class="lab" transform="translate(0 -11)"/></g></g></g><g class="tree t1" transform="translate(297.867 16.8)"><g class="plotbox"><g class="c2 node n17 p3 root" transform="translate(105.61 26.8)"><g class="a17 c2 m9 node n13 p3 s9" transform="translate(-60.4771 75.6261)"><g class="a13 i0 leaf node n0 p0 sample" transform="translate(-12.5667 102.174)"><path class="edge e8" d="M 0 0 V -102.174 H 12.5667"/><rect class="sym" height="6" width="6" x="-3" y="-3"/><text class="lab" transform="translate(0 11)">A</text></g><g class="a13 i0 leaf node n1 p0 sample" transform="translate(12.5667 102.174)"><path class="edge e9" d="M 0 0 V -102.174 H -12.5667"/><rect class="sym" height="6" width="6" x="-3" y="-3"/><text class="lab" transform="translate(0 11)">A</text></g><path class="edge e18" d="M 0 0 V -75.6261 H 60.4771"/><g class="mut m9 s9" transform="translate(0 -3.39524)"><line x1="0" x2="0" y1="0" y2="3.39524"/><path class="sym" d="M -3,-3 l 6,6 M -3,3 l 6,-6"/><text class="lab lft" transform="translate(-5 0)">A12233T</text></g><circle class="sym" cx="0" cy="0" r="3"/><text class="lab lft" transform="translate(-3 -7)"/></g><g class="a17 c2 node n16 p3" transform="translate(60.4771 32.2752)"><g class="a16 c2 node n10 p3" transform="translate(29.8458 89.6156)"><g class="a10 i3 leaf m12 node n6 p2 s12 sample" transform="translate(-12.5667 55.9093)"><path class="edge e4" d="M 0 0 V -55.9093 H 12.5667"/><g class="mut m12 s12" transform="translate(0 -0.315078)"><line x1="0" x2="0" y1="0" y2="0.315078"/><path class="sym" d="M -3,-3 l 6,6 M -3,3 l 6,-6"/><text class="lab lft" transform="translate(-5 0)">A12863A</text></g><rect class="sym" height="6" width="6" x="-3" y="-3"/><text class="lab" transform="translate(0 11)">C</text></g><g class="a10 i3 leaf node n7 p2 sample" transform="translate(12.5667 55.9093)"><path class="edge e5" d="M 0 0 V -55.9093 H -12.5667"/><rect class="sym" height="6" width="6" x="-3" y="-3"/><text class="lab" transform="translate(0 11)">C</text></g><path class="edge e16" d="M 0 0 V -89.6156 H -29.8458"/><circle class="sym" cx="0" cy="0" r="3"/><text class="lab rgt" transform="translate(3 -7)"/></g><g class="a16 c2 node n15 p3" transform="translate(-29.8458 18.7789)"><g class="a15 i2 leaf node n5 p1 sample" transform="translate(21.9917 126.746)"><path class="edge e13" d="M 0 0 V -126.746 H -21.9917"/><rect class="sym" height="6" width="6" x="-3" y="-3"/><text class="lab" transform="translate(0 11)">B</text></g><g class="a15 c2 m11 node n9 p3 s11" transform="translate(-21.9917 72.2057)"><g class="a9 i2 leaf m13 node n4 p1 s13 sample" transform="translate(18.85 54.5402)"><path class="edge e2" d="M 0 0 V -54.5402 H -18.85"/><g class="mut m13 s13" transform="translate(0 -13.7685)"><line x1="0" x2="0" y1="0" y2="13.7685"/><path class="sym" d="M -3,-3 l 6,6 M -3,3 l 6,-6"/><text class="lab rgt" transform="translate(5 0)">A13258A</text></g><rect class="sym" height="6" width="6" x="-3" y="-3"/><text class="lab" transform="translate(0 11)">B</text></g><g class="a9 c2 node n8 p0" transform="translate(-18.85 52.7518)"><g class="a8 i1 leaf node n2 p0 sample" transform="translate(-12.5667 1.78847)"><path class="edge e0" d="M 0 0 V -1.78847 H 12.5667"/><rect class="sym" height="6" width="6" x="-3" y="-3"/><text class="lab" transform="translate(0 11)">A</text></g><g class="a8 i1 leaf m10 node n3 p0 s10 sample" transform="translate(12.5667 1.78847)"><path class="edge e1" d="M 0 0 V -1.78847 H -12.5667"/><g class="mut m10 s10" transform="translate(0 -0.0729755)"><line x1="0" x2="0" y1="0" y2="0.0729755"/><path class="sym" d="M -3,-3 l 6,6 M -3,3 l 6,-6"/><text class="lab rgt" transform="translate(5 0)">A12378T</text></g><rect class="sym" height="6" width="6" x="-3" y="-3"/><text class="lab" transform="translate(0 11)">A</text></g><path class="edge e3" d="M 0 0 V -52.7518 H 18.85"/><circle class="sym" cx="0" cy="0" r="3"/><text class="lab lft" transform="translate(-3 -7)"/></g><path class="edge e14" d="M 0 0 V -72.2057 H 21.9917"/><g class="mut m11 s11" transform="translate(0 -13.8851)"><line x1="0" x2="0" y1="0" y2="13.8851"/><path class="sym" d="M -3,-3 l 6,6 M -3,3 l 6,-6"/><text class="lab lft" transform="translate(-5 0)">A12523T</text></g><circle class="sym" cx="0" cy="0" r="3"/><text class="lab lft" transform="translate(-3 -7)"/></g><path class="edge e17" d="M 0 0 V -18.7789 H 29.8458"/><circle class="sym" cx="0" cy="0" r="3"/><text class="lab lft" transform="translate(-3 -7)"/></g><path class="edge e20" d="M 0 0 V -32.2752 H -60.4771"/><circle class="sym" cx="0" cy="0" r="3"/><text class="lab rgt" transform="translate(3 -7)"/></g><circle class="sym" cx="0" cy="0" r="3"/><text class="lab" transform="translate(0 -11)"/></g></g></g><g class="tree t2" transform="translate(538.933 16.8)"><g class="plotbox"><g class="c2 node n17 p3 root" transform="translate(105.61 26.8)"><g class="a17 c2 node n16 p3" transform="translate(60.4771 32.2752)"><g class="a16 c2 node n10 p3" transform="translate(29.8458 89.6156)"><g class="a10 i3 leaf m15 node n6 p2 s14 sample" transform="translate(-12.5667 55.9093)"><path class="edge e4" d="M 0 0 V -55.9093 H 12.5667"/><g class="mut m15 s14" transform="translate(0 -19.4827)"><line x1="0" x2="0" y1="0" y2="19.4827"/><path class="sym" d="M -3,-3 l 6,6 M -3,3 l 6,-6"/><text class="lab lft" transform="translate(-5 0)">A13963G</text></g><rect class="sym" height="6" width="6" x="-3" y="-3"/><text class="lab" transform="translate(0 11)">C</text></g><g class="a10 i3 leaf node n7 p2 sample" transform="translate(12.5667 55.9093)"><path class="edge e5" d="M 0 0 V -55.9093 H -12.5667"/><rect class="sym" height="6" width="6" x="-3" y="-3"/><text class="lab" transform="translate(0 11)">C</text></g><path class="edge e16" d="M 0 0 V -89.6156 H -29.8458"/><circle class="sym" cx="0" cy="0" r="3"/><text class="lab rgt" transform="translate(3 -7)"/></g><g class="a16 c2 node n15 p3" transform="translate(-29.8458 18.7789)"><g class="a15 i2 leaf node n5 p1 sample" transform="translate(21.9917 126.746)"><path class="edge e13" d="M 0 0 V -126.746 H -21.9917"/><rect class="sym" height="6" width="6" x="-3" y="-3"/><text class="lab" transform="translate(0 11)">B</text></g><g class="a15 c2 node n9 p3" transform="translate(-21.9917 72.2057)"><g class="a9 i2 leaf node n4 p1 sample" transform="translate(18.85 54.5402)"><path class="edge e2" d="M 0 0 V -54.5402 H -18.85"/><rect class="sym" height="6" width="6" x="-3" y="-3"/><text class="lab" transform="translate(0 11)">B</text></g><g class="a9 c2 node n8 p0" transform="translate(-18.85 52.7518)"><g class="a8 i1 leaf node n2 p0 sample" transform="translate(-12.5667 1.78847)"><path class="edge e0" d="M 0 0 V -1.78847 H 12.5667"/><rect class="sym" height="6" width="6" x="-3" y="-3"/><text class="lab" transform="translate(0 11)">A</text></g><g class="a8 i1 leaf node n3 p0 sample" transform="translate(12.5667 1.78847)"><path class="edge e1" d="M 0 0 V -1.78847 H -12.5667"/><rect class="sym" height="6" width="6" x="-3" y="-3"/><text class="lab" transform="translate(0 11)">A</text></g><path class="edge e3" d="M 0 0 V -52.7518 H 18.85"/><circle class="sym" cx="0" cy="0" r="3"/><text class="lab lft" transform="translate(-3 -7)"/></g><path class="edge e14" d="M 0 0 V -72.2057 H 21.9917"/><circle class="sym" cx="0" cy="0" r="3"/><text class="lab lft" transform="translate(-3 -7)"/></g><path class="edge e17" d="M 0 0 V -18.7789 H 29.8458"/><circle class="sym" cx="0" cy="0" r="3"/><text class="lab lft" transform="translate(-3 -7)"/></g><path class="edge e20" d="M 0 0 V -32.2752 H -60.4771"/><circle class="sym" cx="0" cy="0" r="3"/><text class="lab rgt" transform="translate(3 -7)"/></g><g class="a17 c2 node n14 p3" transform="translate(-60.4771 68.5373)"><g class="a14 i0 leaf node n0 p0 sample" transform="translate(-12.5667 109.263)"><path class="edge e11" d="M 0 0 V -109.263 H 12.5667"/><rect class="sym" height="6" width="6" x="-3" y="-3"/><text class="lab" transform="translate(0 11)">A</text></g><g class="a14 i0 leaf m14 node n1 p0 s14 sample" transform="translate(12.5667 109.263)"><path class="edge e12" d="M 0 0 V -109.263 H -12.5667"/><g class="mut m14 s14" transform="translate(0 -32.6062)"><line x1="0" x2="0" y1="0" y2="32.6062"/><path class="sym" d="M -3,-3 l 6,6 M -3,3 l 6,-6"/><text class="lab rgt" transform="translate(5 0)">A13963G</text></g><rect class="sym" height="6" width="6" x="-3" y="-3"/><text class="lab" transform="translate(0 11)">A</text></g><path class="edge e19" d="M 0 0 V -68.5373 H 60.4771"/><circle class="sym" cx="0" cy="0" r="3"/><text class="lab lft" transform="translate(-3 -7)"/></g><circle class="sym" cx="0" cy="0" r="3"/><text class="lab" transform="translate(0 -11)"/></g></g></g></g></g><g class="title" transform="translate(400 0)"><text dominant-baseline="hanging" text-anchor="middle">A plot with a rudimentary legend to describe the mutation label format</text></g></svg>