<svg baseProfile="full" height="300" version="1.1" width="320" xmlns="http://www.w3.org/2000/svg" xmlns:ev="http://www.w3.org/2001/xml-events" xmlns:xlink="http://www.w3.org/1999/xlink"><defs><style type="text/css"><![CDATA[.background path {fill: #808080; fill-opacity: 0}.background path:nth-child(odd) {fill-opacity: .1}.x-regions rect {fill: yellow; stroke: black; opacity: 0.5}.axes {font-size: 14px}.x-axis .tick .lab {font-weight: bold; dominant-baseline: hanging}.axes, .tree {font-size: 14px; text-anchor: middle}.axes line, .edge {stroke: black; fill: none}.axes .ax-skip {stroke-dasharray: 4}.y-axis .grid {stroke: #FAFAFA}.node > .sym {fill: black; stroke: none}.site > .sym {stroke: black}.mut text {fill: red; font-style: italic}.mut.extra text {fill: hotpink}.mut line {fill: none; stroke: none}.mut .sym {fill: none; stroke: red}.mut.extra .sym {stroke: hotpink}.node .mut .sym {stroke-width: 1.5px}.tree text, .tree-sequence text {dominant-baseline: central}.plotbox .lab.lft {text-anchor: end}.plotbox .lab.rgt {text-anchor: start}.polytomy line {stroke: black; stroke-dasharray: 1px, 1px}.polytomy text {paint-order:stroke;stroke-width:0.3em;stroke:white}]]></style></defs><g class="tree t2"><g class="plotbox"><g class="c2 node n17 p3 root" transform="translate(139.219 43.6)"><g class="a17 c2 m8 node n16 p3 s8" transform="translate(84.2188 40.7705)"><g class="a16 c2 m0 m22 m30 m40 m44 m53 m76 m84 node n10 p3 s0 s21 s29 s39 s43 s52 s75 s83" transform="translate(41.5625 113.204)"><g class="a10 i3 leaf m12 m15 m29 m61 m74 node n6 p2 s12 s14 s28 s60 s73 sample" transform="translate(-17.5 70.6256)"><path class="edge e4" d="M 0 0 V -70.6256 H 17.5"/><g class="mut m61 s60 extra" transform="translate(0 -54.0471)"><line x1="0" x2="0" y1="0" y2="54.0471"/><path class="sym" d="M -3,-3 l 6,6 M -3,3 l 6,-6"/><text class="lab lft" transform="translate(-5 0)">61</text></g><g class="mut m74 s73 extra" transform="translate(0 -32.8385)"><line x1="0" x2="0" y1="0" y2="32.8385"/><path class="sym" d="M -3,-3 l 6,6 M -3,3 l 6,-6"/><text class="lab lft" transform="translate(-5 0)">74</text></g><g class="mut m15 s14" transform="translate(0 -24.6108)"><line x1="0" x2="0" y1="0" y2="24.6108"/><path class="sym" d="M -3,-3 l 6,6 M -3,3 l 6,-6"/><text class="lab lft" transform="translate(-5 0)">15</text></g><g class="mut m29 s28 extra" transform="translate(0 -18.4002)"><line x1="0" x2="0" y1="0" y2="18.4002"/><path class="sym" d="M -3,-3 l 6,6 M -3,3 l 6,-6"/><text class="lab lft" transform="translate(-5 0)">29</text></g><g class="mut m12 s12 extra" transform="translate(0 -0.398012)"><line x1="0" x2="0" y1="0" y2="0.398012"/><path class="sym" d="M -3,-3 l 6,6 M -3,3 l 6,-6"/><text class="lab lft" transform="translate(-5 0)">12</text></g><rect class="sym" height="6" width="6" x="-3" y="-3"/><text class="lab" transform="translate(0 11)">6</text></g><g class="a10 i3 leaf m16 m17 m2 m64 m94 m96 node n7 p2 s15 s16 s2 s63 s93 s95 sample" transform="translate(17.5 70.6256)"><path class="edge e5" d="M 0 0 V -70.6256 H -17.5"/><g class="mut m17 s16" transform="translate(0 -68.5614)"><line x1="0" x2="0" y1="0" y2="68.5614"/><path class="sym" d="M -3,-3 l 6,6 M -3,3 l 6,-6"/><text class="lab rgt" transform="translate(5 0)">17</text></g><g class="mut m94 s93 extra" transform="translate(0 -66.2229)"><line x1="0" x2="0" y1="0" y2="66.2229"/><path class="sym" d="M -3,-3 l 6,6 M -3,3 l 6,-6"/><text class="lab rgt" transform="translate(5 0)">94</text></g><g class="mut m96 s95 extra" transform="translate(0 -46.4051)"><line x1="0" x2="0" y1="0" y2="46.4051"/><path class="sym" d="M -3,-3 l 6,6 M -3,3 l 6,-6"/><text class="lab rgt" transform="translate(5 0)">96</text></g><g class="mut m2 s2 extra" transform="translate(0 -31.221)"><line x1="0" x2="0" y1="0" y2="31.221"/><path class="sym" d="M -3,-3 l 6,6 M -3,3 l 6,-6"/><text class="lab rgt" transform="translate(5 0)">2</text></g><g class="mut m16 s15" transform="translate(0 -28.4056)"><line x1="0" x2="0" y1="0" y2="28.4056"/><path class="sym" d="M -3,-3 l 6,6 M -3,3 l 6,-6"/><text class="lab rgt" transform="translate(5 0)">16</text></g><g class="mut m64 s63 extra" transform="translate(0 -1.91112)"><line x1="0" x2="0" y1="0" y2="1.91112"/><path class="sym" d="M -3,-3 l 6,6 M -3,3 l 6,-6"/><text class="lab rgt" transform="translate(5 0)">64</text></g><rect class="sym" height="6" width="6" x="-3" y="-3"/><text class="lab" transform="translate(0 11)">7</text></g><path class="edge e20" d="M 0 0 V -113.204 H -41.5625"/><g class="mut m0 s0 extra" transform="translate(0 -97.2102)"><line x1="0" x2="0" y1="0" y2="97.2102"/><path class="sym" d="M -3,-3 l 6,6 M -3,3 l 6,-6"/><text class="lab rgt" transform="translate(5 0)">0</text></g><g class="mut m76 s75 extra" transform="translate(0 -85.2428)"><line x1="0" x2="0" y1="0" y2="85.2428"/><path class="sym" d="M -3,-3 l 6,6 M -3,3 l 6,-6"/><text class="lab rgt" transform="translate(5 0)">76</text></g><g class="mut m40 s39 extra" transform="translate(0 -84.712)"><line x1="0" x2="0" y1="0" y2="84.712"/><path class="sym" d="M -3,-3 l 6,6 M -3,3 l 6,-6"/><text class="lab rgt" transform="translate(5 0)">40</text></g><g class="mut m53 s52 extra" transform="translate(0 -82.6225)"><line x1="0" x2="0" y1="0" y2="82.6225"/><path class="sym" d="M -3,-3 l 6,6 M -3,3 l 6,-6"/><text class="lab rgt" transform="translate(5 0)">53</text></g><g class="mut m30 s29 extra" transform="translate(0 -75.838)"><line x1="0" x2="0" y1="0" y2="75.838"/><path class="sym" d="M -3,-3 l 6,6 M -3,3 l 6,-6"/><text class="lab rgt" transform="translate(5 0)">30</text></g><g class="mut m22 s21" transform="translate(0 -37.4813)"><line x1="0" x2="0" y1="0" y2="37.4813"/><path class="sym" d="M -3,-3 l 6,6 M -3,3 l 6,-6"/><text class="lab rgt" transform="translate(5 0)">22</text></g><g class="mut m84 s83 extra" transform="translate(0 -33.1084)"><line x1="0" x2="0" y1="0" y2="33.1084"/><path class="sym" d="M -3,-3 l 6,6 M -3,3 l 6,-6"/><text class="lab rgt" transform="translate(5 0)">84</text></g><g class="mut m44 s43 extra" transform="translate(0 -18.1027)"><line x1="0" x2="0" y1="0" y2="18.1027"/><path class="sym" d="M -3,-3 l 6,6 M -3,3 l 6,-6"/><text class="lab rgt" transform="translate(5 0)">44</text></g><circle class="sym" cx="0" cy="0" r="3"/><text class="lab rgt" transform="translate(3 -7)">10</text></g><g class="a16 c2 m20 m73 m83 node n15 p3 s19 s72 s82" transform="translate(-41.5625 23.7218)"><g class="a15 i2 leaf m25 m32 m34 m48 m51 m52 m63 node n5 p1 s24 s31 s33 s47 s50 s51 s62 sample" transform="translate(30.625 160.108)"><path class="edge e16" d="M 0 0 V -160.108 H -30.625"/><g class="mut m63 s62 extra" transform="translate(0 -114.035)"><line x1="0" x2="0" y1="0" y2="114.035"/><path class="sym" d="M -3,-3 l 6,6 M -3,3 l 6,-6"/><text class="lab rgt" transform="translate(5 0)">63</text></g><g class="mut m25 s24 extra" transform="translate(0 -84.4452)"><line x1="0" x2="0" y1="0" y2="84.4452"/><path class="sym" d="M -3,-3 l 6,6 M -3,3 l 6,-6"/><text class="lab rgt" transform="translate(5 0)">25</text></g><g class="mut m52 s51 extra" transform="translate(0 -45.2314)"><line x1="0" x2="0" y1="0" y2="45.2314"/><path class="sym" d="M -3,-3 l 6,6 M -3,3 l 6,-6"/><text class="lab rgt" transform="translate(5 0)">52</text></g><g class="mut m34 s33 extra" transform="translate(0 -38.4707)"><line x1="0" x2="0" y1="0" y2="38.4707"/><path class="sym" d="M -3,-3 l 6,6 M -3,3 l 6,-6"/><text class="lab rgt" transform="translate(5 0)">34</text></g><g class="mut m32 s31 extra" transform="translate(0 -35.6402)"><line x1="0" x2="0" y1="0" y2="35.6402"/><path class="sym" d="M -3,-3 l 6,6 M -3,3 l 6,-6"/><text class="lab rgt" transform="translate(5 0)">32</text></g><g class="mut m48 s47 extra" transform="translate(0 -21.8151)"><line x1="0" x2="0" y1="0" y2="21.8151"/><path class="sym" d="M -3,-3 l 6,6 M -3,3 l 6,-6"/><text class="lab rgt" transform="translate(5 0)">48</text></g><g class="mut m51 s50 extra" transform="translate(0 -18.5483)"><line x1="0" x2="0" y1="0" y2="18.5483"/><path class="sym" d="M -3,-3 l 6,6 M -3,3 l 6,-6"/><text class="lab rgt" transform="translate(5 0)">51</text></g><rect class="sym" height="6" width="6" x="-3" y="-3"/><text class="lab" transform="translate(0 11)">5</text></g><g class="a15 c2 m11 m19 m47 node n9 p3 s11 s18 s46" transform="translate(-30.625 91.2115)"><g class="a9 i2 leaf m13 m75 node n4 p1 s13 s74 sample" transform="translate(26.25 68.8962)"><path class="edge e2" d="M 0 0 V -68.8962 H -26.25"/><g class="mut m13 s13 extra" transform="translate(0 -17.3926)"><line x1="0" x2="0" y1="0" y2="17.3926"/><path class="sym" d="M -3,-3 l 6,6 M -3,3 l 6,-6"/><text class="lab rgt" transform="translate(5 0)">13</text></g><g class="mut m75 s74 extra" transform="translate(0 -9.10398)"><line x1="0" x2="0" y1="0" y2="9.10398"/><path class="sym" d="M -3,-3 l 6,6 M -3,3 l 6,-6"/><text class="lab rgt" transform="translate(5 0)">75</text></g><rect class="sym" height="6" width="6" x="-3" y="-3"/><text class="lab" transform="translate(0 11)">4</text></g><g class="a9 c2 m1 m18 m24 m27 m4 m7 node n8 p0 s1 s17 s23 s26 s4 s7" transform="translate(-26.25 66.6369)"><g class="a8 i1 leaf node n2 p0 sample" transform="translate(-17.5 2.25923)"><path class="edge e0" d="M 0 0 V -2.25923 H 17.5"/><rect class="sym" height="6" width="6" x="-3" y="-3"/><text class="lab" transform="translate(0 11)">2</text></g><g class="a8 i1 leaf m10 node n3 p0 s10 sample" transform="translate(17.5 2.25923)"><path class="edge e1" d="M 0 0 V -2.25923 H -17.5"/><g class="mut m10 s10 extra" transform="translate(0 -0.0921839)"><line x1="0" x2="0" y1="0" y2="0.0921839"/><path class="sym" d="M -3,-3 l 6,6 M -3,3 l 6,-6"/><text class="lab rgt" transform="translate(5 0)">10</text></g><rect class="sym" height="6" width="6" x="-3" y="-3"/><text class="lab" transform="translate(0 11)">3</text></g><path class="edge e3" d="M 0 0 V -66.6369 H 26.25"/><g class="mut m18 s17" transform="translate(0 -58.8257)"><line x1="0" x2="0" y1="0" y2="58.8257"/><path class="sym" d="M -3,-3 l 6,6 M -3,3 l 6,-6"/><text class="lab lft" transform="translate(-5 0)">18</text></g><g class="mut m27 s26 extra" transform="translate(0 -55.2585)"><line x1="0" x2="0" y1="0" y2="55.2585"/><path class="sym" d="M -3,-3 l 6,6 M -3,3 l 6,-6"/><text class="lab lft" transform="translate(-5 0)">27</text></g><g class="mut m24 s23" transform="translate(0 -47.3076)"><line x1="0" x2="0" y1="0" y2="47.3076"/><path class="sym" d="M -3,-3 l 6,6 M -3,3 l 6,-6"/><text class="lab lft" transform="translate(-5 0)">24</text></g><g class="mut m1 s1 extra" transform="translate(0 -23.8461)"><line x1="0" x2="0" y1="0" y2="23.8461"/><path class="sym" d="M -3,-3 l 6,6 M -3,3 l 6,-6"/><text class="lab lft" transform="translate(-5 0)">1</text></g><g class="mut m7 s7 extra" transform="translate(0 -15.3909)"><line x1="0" x2="0" y1="0" y2="15.3909"/><path class="sym" d="M -3,-3 l 6,6 M -3,3 l 6,-6"/><text class="lab lft" transform="translate(-5 0)">7</text></g><g class="mut m4 s4 extra" transform="translate(0 -14.7854)"><line x1="0" x2="0" y1="0" y2="14.7854"/><path class="sym" d="M -3,-3 l 6,6 M -3,3 l 6,-6"/><text class="lab lft" transform="translate(-5 0)">4</text></g><circle class="sym" cx="0" cy="0" r="3"/><text class="lab lft" transform="translate(-3 -7)">8</text></g><path class="edge e18" d="M 0 0 V -91.2115 H 30.625"/><g class="mut m47 s46 extra" transform="translate(0 -88.4319)"><line x1="0" x2="0" y1="0" y2="88.4319"/><path class="sym" d="M -3,-3 l 6,6 M -3,3 l 6,-6"/><text class="lab lft" transform="translate(-5 0)">47</text></g><g class="mut m19 s18" transform="translate(0 -27.8662)"><line x1="0" x2="0" y1="0" y2="27.8662"/><path class="sym" d="M -3,-3 l 6,6 M -3,3 l 6,-6"/><text class="lab lft" transform="translate(-5 0)">19</text></g><g class="mut m11 s11 extra" transform="translate(0 -17.5399)"><line x1="0" x2="0" y1="0" y2="17.5399"/><path class="sym" d="M -3,-3 l 6,6 M -3,3 l 6,-6"/><text class="lab lft" transform="translate(-5 0)">11</text></g><circle class="sym" cx="0" cy="0" r="3"/><text class="lab lft" transform="translate(-3 -7)">9</text></g><path class="edge e21" d="M 0 0 V -23.7218 H 41.5625"/><g class="mut m83 s82 extra" transform="translate(0 -22.9138)"><line x1="0" x2="0" y1="0" y2="22.9138"/><path class="sym" d="M -3,-3 l 6,6 M -3,3 l 6,-6"/><text class="lab lft" transform="translate(-5 0)">83</text></g><g class="mut m20 s19" transform="translate(0 -22.1875)"><line x1="0" x2="0" y1="0" y2="22.1875"/><path class="sym" d="M -3,-3 l 6,6 M -3,3 l 6,-6"/><text class="lab lft" transform="translate(-5 0)">20</text></g><g class="mut m73 s72 extra" transform="translate(0 -0.546973)"><line x1="0" x2="0" y1="0" y2="0.546973"/><path class="sym" d="M -3,-3 l 6,6 M -3,3 l 6,-6"/><text class="lab lft" transform="translate(-5 0)">73</text></g><circle class="sym" cx="0" cy="0" r="3"/><text class="lab lft" transform="translate(-3 -7)">15</text></g><path class="edge e24" d="M 0 0 V -40.7705 H -84.2188"/><g class="mut m8 s8 extra" transform="translate(0 -22.6927)"><line x1="0" x2="0" y1="0" y2="22.6927"/><path class="sym" d="M -3,-3 l 6,6 M -3,3 l 6,-6"/><text class="lab rgt" transform="translate(5 0)">8</text></g><circle class="sym" cx="0" cy="0" r="3"/><text class="lab rgt" transform="translate(3 -7)">16</text></g><g class="a17 c2 node n14 p3" transform="translate(-84.2188 86.5774)"><g class="a14 i0 leaf m21 m50 m67 m77 node n0 p0 s20 s49 s66 s76 sample" transform="translate(-17.5 138.023)"><path class="edge e13" d="M 0 0 V -138.023 H 17.5"/><g class="mut m67 s66 extra" transform="translate(0 -73.8491)"><line x1="0" x2="0" y1="0" y2="73.8491"/><path class="sym" d="M -3,-3 l 6,6 M -3,3 l 6,-6"/><text class="lab lft" transform="translate(-5 0)">67</text></g><g class="mut m21 s20" transform="translate(0 -57.7737)"><line x1="0" x2="0" y1="0" y2="57.7737"/><path class="sym" d="M -3,-3 l 6,6 M -3,3 l 6,-6"/><text class="lab lft" transform="translate(-5 0)">21</text></g><g class="mut m77 s76 extra" transform="translate(0 -48.0668)"><line x1="0" x2="0" y1="0" y2="48.0668"/><path class="sym" d="M -3,-3 l 6,6 M -3,3 l 6,-6"/><text class="lab lft" transform="translate(-5 0)">77</text></g><g class="mut m50 s49 extra" transform="translate(0 -43.9075)"><line x1="0" x2="0" y1="0" y2="43.9075"/><path class="sym" d="M -3,-3 l 6,6 M -3,3 l 6,-6"/><text class="lab lft" transform="translate(-5 0)">50</text></g><rect class="sym" height="6" width="6" x="-3" y="-3"/><text class="lab" transform="translate(0 11)">0</text></g><g class="a14 i0 leaf m101 m102 m14 m23 m28 m43 m45 m80 m81 node n1 p0 s100 s101 s14 s22 s27 s42 s44 s79 s80 sample" transform="translate(17.5 138.023)"><path class="edge e14" d="M 0 0 V -138.023 H -17.5"/><g class="mut m45 s44 extra" transform="translate(0 -111.271)"><line x1="0" x2="0" y1="0" y2="111.271"/><path class="sym" d="M -3,-3 l 6,6 M -3,3 l 6,-6"/><text class="lab rgt" transform="translate(5 0)">45</text></g><g class="mut m102 s101 extra" transform="translate(0 -98.8755)"><line x1="0" x2="0" y1="0" y2="98.8755"/><path class="sym" d="M -3,-3 l 6,6 M -3,3 l 6,-6"/><text class="lab rgt" transform="translate(5 0)">102</text></g><g class="mut m101 s100 extra" transform="translate(0 -66.0882)"><line x1="0" x2="0" y1="0" y2="66.0882"/><path class="sym" d="M -3,-3 l 6,6 M -3,3 l 6,-6"/><text class="lab rgt" transform="translate(5 0)">101</text></g><g class="mut m81 s80 extra" transform="translate(0 -41.5385)"><line x1="0" x2="0" y1="0" y2="41.5385"/><path class="sym" d="M -3,-3 l 6,6 M -3,3 l 6,-6"/><text class="lab rgt" transform="translate(5 0)">81</text></g><g class="mut m14 s14" transform="translate(0 -41.1887)"><line x1="0" x2="0" y1="0" y2="41.1887"/><path class="sym" d="M -3,-3 l 6,6 M -3,3 l 6,-6"/><text class="lab rgt" transform="translate(5 0)">14</text></g><g class="mut m80 s79 extra" transform="translate(0 -23.9505)"><line x1="0" x2="0" y1="0" y2="23.9505"/><path class="sym" d="M -3,-3 l 6,6 M -3,3 l 6,-6"/><text class="lab rgt" transform="translate(5 0)">80</text></g><g class="mut m28 s27 extra" transform="translate(0 -19.7876)"><line x1="0" x2="0" y1="0" y2="19.7876"/><path class="sym" d="M -3,-3 l 6,6 M -3,3 l 6,-6"/><text class="lab rgt" transform="translate(5 0)">28</text></g><g class="mut m43 s42 extra" transform="translate(0 -8.99988)"><line x1="0" x2="0" y1="0" y2="8.99988"/><path class="sym" d="M -3,-3 l 6,6 M -3,3 l 6,-6"/><text class="lab rgt" transform="translate(5 0)">43</text></g><g class="mut m23 s22" transform="translate(0 -7.33717)"><line x1="0" x2="0" y1="0" y2="7.33717"/><path class="sym" d="M -3,-3 l 6,6 M -3,3 l 6,-6"/><text class="lab rgt" transform="translate(5 0)">23</text></g><rect class="sym" height="6" width="6" x="-3" y="-3"/><text class="lab" transform="translate(0 11)">1</text></g><path class="edge e23" d="M 0 0 V -86.5774 H 84.2188"/><circle class="sym" cx="0" cy="0" r="3"/><text class="lab lft" transform="translate(-3 -7)">14</text></g><circle class="sym" cx="0" cy="0" r="3"/><text class="lab" transform="translate(0 -11)">17</text></g></g></g><g class="title" transform="translate(160 0)"><text dominant-baseline="hanging" text-anchor="middle">As above, but with all mutations on visible edges</text></g></svg>