<svg baseProfile="full" height="267.38307043704634" version="1.1" width="620" xmlns="http://www.w3.org/2000/svg" xmlns:ev="http://www.w3.org/2001/xml-events" xmlns:xlink="http://www.w3.org/1999/xlink"><defs><style type="text/css"><![CDATA[.background path {fill: #808080; fill-opacity: 0}.background path:nth-child(odd) {fill-opacity: .1}.axes {font-size: 14px}.x-axis .tick .lab {font-weight: bold; dominant-baseline: hanging}.axes, .tree {font-size: 14px; text-anchor: middle}.axes line, .edge {stroke: black; fill: none}.axes .ax-skip {stroke-dasharray: 4}.y-axis .grid {stroke: #FAFAFA}.node > .sym {fill: black; stroke: none}.site > .sym {stroke: black}.mut text {fill: red; font-style: italic}.mut.extra text {fill: hotpink}.mut line {fill: none; stroke: none}.mut .sym {fill: none; stroke: red}.mut.extra .sym {stroke: hotpink}.node .mut .sym {stroke-width: 1.5px}.tree text, .tree-sequence text {dominant-baseline: central}.plotbox .lab.lft {text-anchor: end}.plotbox .lab.rgt {text-anchor: start}.x-axis {transform: translate(20px, 90.64476339334172px) skewY(-0.24497866312686414rad)}.tree.t0 > .plotbox {transform:translateY(35px) skewY(0.7rad)}.tree.t1 > .plotbox {transform:translateY(15px) skewY(0.7rad)}.tree.t2 > .plotbox {transform:translateY(-5px) skewY(0.7rad)}.tree.t3 > .plotbox {transform:translateY(-25px) skewY(0.7rad)}.tree.t4 > .plotbox {transform:translateY(-45px) skewY(0.7rad)}.tree.t5 > .plotbox {transform:translateY(-65px) skewY(0.7rad)}.tree.t6 > .plotbox {transform:translateY(-85px) skewY(0.7rad)}]]></style></defs><g class="tree-sequence"><g class="axes"><g class="x-axis"><g class="title" transform="translate(300 200)"><text class="lab" text-anchor="middle" transform="translate(0 -11)">Genome position</text></g><line class="ax-line" x1="20" x2="580" y1="163.2" y2="163.2" /><g class="ticks"><g class="tick" transform="translate(20 163.2)"><line x1="0" x2="0" y1="-5" y2="5" /><g transform="translate(0 6)"><text class="lab">0</text></g></g><g class="tick" transform="translate(100 163.2)"><line x1="0" x2="0" y1="-5" y2="5" /><g transform="translate(0 6)"><text class="lab">30</text></g></g><g class="tick" transform="translate(180 163.2)"><line x1="0" x2="0" y1="-5" y2="5" /><g transform="translate(0 6)"><text class="lab">58</text></g></g><g class="tick" transform="translate(260 163.2)"><line x1="0" x2="0" y1="-5" y2="5" /><g transform="translate(0 6)"><text class="lab">133</text></g></g><g class="tick" transform="translate(340 163.2)"><line x1="0" x2="0" y1="-5" y2="5" /><g transform="translate(0 6)"><text class="lab">232</text></g></g><g class="tick" transform="translate(420 163.2)"><line x1="0" x2="0" y1="-5" y2="5" /><g transform="translate(0 6)"><text class="lab">568</text></g></g><g class="tick" transform="translate(500 163.2)"><line x1="0" x2="0" y1="-5" y2="5" /><g transform="translate(0 6)"><text class="lab">743</text></g></g><g class="tick" transform="translate(580 163.2)"><line x1="0" x2="0" y1="-5" y2="5" /><g transform="translate(0 6)"><text class="lab">1000</text></g></g></g></g></g><g class="plotbox trees"><g class="tree t0" transform="translate(20 0)"><g class="plotbox"><g class="c2 node n12 p0 root" transform="translate(40 26.8)"><g class="a12 c2 node n4 p0" transform="translate(10 84.0928)"><g class="a4 i2 leaf node n2 p0 sample" transform="translate(-5 10.5072)"><path class="edge" d="M 0 0 V -10.5072 H 5" /><rect class="sym" height="6" width="6" x="-3" y="-3" /><text class="lab" transform="translate(0 11)">2</text></g><g class="a4 i3 leaf node n3 p0 sample" transform="translate(5 10.5072)"><path class="edge" d="M 0 0 V -10.5072 H -5" /><rect class="sym" height="6" width="6" x="-3" y="-3" /><text class="lab" transform="translate(0 11)">3</text></g><path class="edge" d="M 0 0 V -84.0928 H -10" /><circle class="sym" cx="0" cy="0" r="3" /><text class="lab rgt" transform="translate(3 -7.0)">4</text></g><g class="a12 c2 node n6 p0" transform="translate(-10 64.4703)"><g class="a6 i0 leaf node n0 p0 sample" transform="translate(-5 30.1297)"><path class="edge" d="M 0 0 V -30.1297 H 5" /><rect class="sym" height="6" width="6" x="-3" y="-3" /><text class="lab" transform="translate(0 11)">0</text></g><g class="a6 i1 leaf node n1 p0 sample" transform="translate(5 30.1297)"><path class="edge" d="M 0 0 V -30.1297 H -5" /><rect class="sym" height="6" width="6" x="-3" y="-3" /><text class="lab" transform="translate(0 11)">1</text></g><path class="edge" d="M 0 0 V -64.4703 H 10" /><circle class="sym" cx="0" cy="0" r="3" /><text class="lab lft" transform="translate(-3 -7.0)">6</text></g><circle class="sym" cx="0" cy="0" r="3" /><text class="lab" transform="translate(0 -11)">12</text></g></g></g><g class="tree t1" transform="translate(100 0)"><g class="plotbox"><g class="c2 node n11 p0 root" transform="translate(40 28.7208)"><g class="a11 c2 node n4 p0" transform="translate(10 82.172)"><g class="a4 i2 leaf node n2 p0 sample" transform="translate(-5 10.5072)"><path class="edge" d="M 0 0 V -10.5072 H 5" /><rect class="sym" height="6" width="6" x="-3" y="-3" /><text class="lab" transform="translate(0 11)">2</text></g><g class="a4 i3 leaf node n3 p0 sample" transform="translate(5 10.5072)"><path class="edge" d="M 0 0 V -10.5072 H -5" /><rect class="sym" height="6" width="6" x="-3" y="-3" /><text class="lab" transform="translate(0 11)">3</text></g><path class="edge" d="M 0 0 V -82.172 H -10" /><circle class="sym" cx="0" cy="0" r="3" /><text class="lab rgt" transform="translate(3 -7.0)">4</text></g><g class="a11 c2 node n6 p0" transform="translate(-10 62.5495)"><g class="a6 i0 leaf node n0 p0 sample" transform="translate(-5 30.1297)"><path class="edge" d="M 0 0 V -30.1297 H 5" /><rect class="sym" height="6" width="6" x="-3" y="-3" /><text class="lab" transform="translate(0 11)">0</text></g><g class="a6 i1 leaf node n1 p0 sample" transform="translate(5 30.1297)"><path class="edge" d="M 0 0 V -30.1297 H -5" /><rect class="sym" height="6" width="6" x="-3" y="-3" /><text class="lab" transform="translate(0 11)">1</text></g><path class="edge" d="M 0 0 V -62.5495 H 10" /><circle class="sym" cx="0" cy="0" r="3" /><text class="lab lft" transform="translate(-3 -7.0)">6</text></g><circle class="sym" cx="0" cy="0" r="3" /><text class="lab" transform="translate(0 -11)">11</text></g></g></g><g class="tree t2" transform="translate(180 0)"><g class="plotbox"><g class="c2 node n11 p0 root" transform="translate(33.75 28.7208)"><g class="a11 i0 leaf node n0 p0 sample" transform="translate(-8.75 92.6792)"><path class="edge" d="M 0 0 V -92.6792 H 8.75" /><rect class="sym" height="6" width="6" x="-3" y="-3" /><text class="lab" transform="translate(0 11)">0</text></g><g class="a11 c2 node n7 p0" transform="translate(8.75 60.644)"><g class="a7 i1 leaf node n1 p0 sample" transform="translate(-7.5 32.0352)"><path class="edge" d="M 0 0 V -32.0352 H 7.5" /><rect class="sym" height="6" width="6" x="-3" y="-3" /><text class="lab" transform="translate(0 11)">1</text></g><g class="a7 c2 node n4 p0" transform="translate(7.5 21.528)"><g class="a4 i2 leaf node n2 p0 sample" transform="translate(-5 10.5072)"><path class="edge" d="M 0 0 V -10.5072 H 5" /><rect class="sym" height="6" width="6" x="-3" y="-3" /><text class="lab" transform="translate(0 11)">2</text></g><g class="a4 i3 leaf node n3 p0 sample" transform="translate(5 10.5072)"><path class="edge" d="M 0 0 V -10.5072 H -5" /><rect class="sym" height="6" width="6" x="-3" y="-3" /><text class="lab" transform="translate(0 11)">3</text></g><path class="edge" d="M 0 0 V -21.528 H -7.5" /><circle class="sym" cx="0" cy="0" r="3" /><text class="lab rgt" transform="translate(3 -7.0)">4</text></g><path class="edge" d="M 0 0 V -60.644 H -8.75" /><circle class="sym" cx="0" cy="0" r="3" /><text class="lab rgt" transform="translate(3 -7.0)">7</text></g><circle class="sym" cx="0" cy="0" r="3" /><text class="lab" transform="translate(0 -11)">11</text></g></g></g><g class="tree t3" transform="translate(260 0)"><g class="plotbox"><g class="c2 node n10 p0 root" transform="translate(33.75 60.1597)"><g class="a10 i0 leaf node n0 p0 sample" transform="translate(-8.75 61.2403)"><path class="edge" d="M 0 0 V -61.2403 H 8.75" /><rect class="sym" height="6" width="6" x="-3" y="-3" /><text class="lab" transform="translate(0 11)">0</text></g><g class="a10 c2 node n7 p0" transform="translate(8.75 29.2051)"><g class="a7 i1 leaf node n1 p0 sample" transform="translate(-7.5 32.0352)"><path class="edge" d="M 0 0 V -32.0352 H 7.5" /><rect class="sym" height="6" width="6" x="-3" y="-3" /><text class="lab" transform="translate(0 11)">1</text></g><g class="a7 c2 node n4 p0" transform="translate(7.5 21.528)"><g class="a4 i2 leaf node n2 p0 sample" transform="translate(-5 10.5072)"><path class="edge" d="M 0 0 V -10.5072 H 5" /><rect class="sym" height="6" width="6" x="-3" y="-3" /><text class="lab" transform="translate(0 11)">2</text></g><g class="a4 i3 leaf node n3 p0 sample" transform="translate(5 10.5072)"><path class="edge" d="M 0 0 V -10.5072 H -5" /><rect class="sym" height="6" width="6" x="-3" y="-3" /><text class="lab" transform="translate(0 11)">3</text></g><path class="edge" d="M 0 0 V -21.528 H -7.5" /><circle class="sym" cx="0" cy="0" r="3" /><text class="lab rgt" transform="translate(3 -7.0)">4</text></g><path class="edge" d="M 0 0 V -29.2051 H -8.75" /><circle class="sym" cx="0" cy="0" r="3" /><text class="lab rgt" transform="translate(3 -7.0)">7</text></g><circle class="sym" cx="0" cy="0" r="3" /><text class="lab" transform="translate(0 -11)">10</text></g></g></g><g class="tree t4" transform="translate(340 0)"><g class="plotbox"><g class="c2 node n9 p0 root" transform="translate(33.75 69.161)"><g class="a9 i0 leaf node n0 p0 sample" transform="translate(-8.75 52.239)"><path class="edge" d="M 0 0 V -52.239 H 8.75" /><rect class="sym" height="6" width="6" x="-3" y="-3" /><text class="lab" transform="translate(0 11)">0</text></g><g class="a9 c2 node n7 p0" transform="translate(8.75 20.2038)"><g class="a7 i1 leaf m1 node n1 p0 s1 sample" transform="translate(-7.5 32.0352)"><path class="edge" d="M 0 0 V -32.0352 H 7.5" /><g class="mut m1 s1" transform="translate(0 -18.5706)"><line x1="0" x2="0" y1="0" y2="18.5706" /><path class="sym" d="M -3,-3 l 6,6 M -3,3 l 6,-6" /><text class="lab lft" transform="translate(-5 0)">1</text></g><rect class="sym" height="6" width="6" x="-3" y="-3" /><text class="lab" transform="translate(0 11)">1</text></g><g class="a7 c2 node n4 p0" transform="translate(7.5 21.528)"><g class="a4 i2 leaf m0 node n2 p0 s0 sample" transform="translate(-5 10.5072)"><path class="edge" d="M 0 0 V -10.5072 H 5" /><g class="mut m0 s0" transform="translate(0 -4.50204)"><line x1="0" x2="0" y1="0" y2="4.50204" /><path class="sym" d="M -3,-3 l 6,6 M -3,3 l 6,-6" /><text class="lab lft" transform="translate(-5 0)">0</text></g><rect class="sym" height="6" width="6" x="-3" y="-3" /><text class="lab" transform="translate(0 11)">2</text></g><g class="a4 i3 leaf node n3 p0 sample" transform="translate(5 10.5072)"><path class="edge" d="M 0 0 V -10.5072 H -5" /><rect class="sym" height="6" width="6" x="-3" y="-3" /><text class="lab" transform="translate(0 11)">3</text></g><path class="edge" d="M 0 0 V -21.528 H -7.5" /><circle class="sym" cx="0" cy="0" r="3" /><text class="lab rgt" transform="translate(3 -7.0)">4</text></g><path class="edge" d="M 0 0 V -20.2038 H -8.75" /><circle class="sym" cx="0" cy="0" r="3" /><text class="lab rgt" transform="translate(3 -7.0)">7</text></g><circle class="sym" cx="0" cy="0" r="3" /><text class="lab" transform="translate(0 -11)">9</text></g></g></g><g class="tree t5" transform="translate(420 0)"><g class="plotbox"><g class="c2 node n9 p0 root" transform="translate(33.75 69.161)"><g class="a9 i0 leaf m2 node n0 p0 s2 sample" transform="translate(-8.75 52.239)"><path class="edge" d="M 0 0 V -52.239 H 8.75" /><g class="mut m2 s2" transform="translate(0 -16.9333)"><line x1="0" x2="0" y1="0" y2="16.9333" /><path class="sym" d="M -3,-3 l 6,6 M -3,3 l 6,-6" /><text class="lab lft" transform="translate(-5 0)">2</text></g><rect class="sym" height="6" width="6" x="-3" y="-3" /><text class="lab" transform="translate(0 11)">0</text></g><g class="a9 c2 node n8 p0" transform="translate(8.75 3.15497)"><g class="a8 i1 leaf node n1 p0 sample" transform="translate(-7.5 49.0841)"><path class="edge" d="M 0 0 V -49.0841 H 7.5" /><rect class="sym" height="6" width="6" x="-3" y="-3" /><text class="lab" transform="translate(0 11)">1</text></g><g class="a8 c2 node n4 p0" transform="translate(7.5 38.5768)"><g class="a4 i2 leaf node n2 p0 sample" transform="translate(-5 10.5072)"><path class="edge" d="M 0 0 V -10.5072 H 5" /><rect class="sym" height="6" width="6" x="-3" y="-3" /><text class="lab" transform="translate(0 11)">2</text></g><g class="a4 i3 leaf node n3 p0 sample" transform="translate(5 10.5072)"><path class="edge" d="M 0 0 V -10.5072 H -5" /><rect class="sym" height="6" width="6" x="-3" y="-3" /><text class="lab" transform="translate(0 11)">3</text></g><path class="edge" d="M 0 0 V -38.5768 H -7.5" /><circle class="sym" cx="0" cy="0" r="3" /><text class="lab rgt" transform="translate(3 -7.0)">4</text></g><path class="edge" d="M 0 0 V -3.15497 H -8.75" /><circle class="sym" cx="0" cy="0" r="3" /><text class="lab rgt" transform="translate(3 -7.0)">8</text></g><circle class="sym" cx="0" cy="0" r="3" /><text class="lab" transform="translate(0 -11)">9</text></g></g></g><g class="tree t6" transform="translate(500 0)"><g class="plotbox"><g class="c2 node n8 p0 root" transform="translate(40 72.3159)"><g class="a8 c2 node n4 p0" transform="translate(10 38.5768)"><g class="a4 i2 leaf node n2 p0 sample" transform="translate(-5 10.5072)"><path class="edge" d="M 0 0 V -10.5072 H 5" /><rect class="sym" height="6" width="6" x="-3" y="-3" /><text class="lab" transform="translate(0 11)">2</text></g><g class="a4 i3 leaf node n3 p0 sample" transform="translate(5 10.5072)"><path class="edge" d="M 0 0 V -10.5072 H -5" /><rect class="sym" height="6" width="6" x="-3" y="-3" /><text class="lab" transform="translate(0 11)">3</text></g><path class="edge" d="M 0 0 V -38.5768 H -10" /><circle class="sym" cx="0" cy="0" r="3" /><text class="lab rgt" transform="translate(3 -7.0)">4</text></g><g class="a8 c2 node n5 p0" transform="translate(-10 20.0718)"><g class="a5 i0 leaf m3 node n0 p0 s3 sample" transform="translate(-5 29.0123)"><path class="edge" d="M 0 0 V -29.0123 H 5" /><g class="mut m3 s3" transform="translate(0 -20.8734)"><line x1="0" x2="0" y1="0" y2="20.8734" /><path class="sym" d="M -3,-3 l 6,6 M -3,3 l 6,-6" /><text class="lab lft" transform="translate(-5 0)">3</text></g><rect class="sym" height="6" width="6" x="-3" y="-3" /><text class="lab" transform="translate(0 11)">0</text></g><g class="a5 i1 leaf node n1 p0 sample" transform="translate(5 29.0123)"><path class="edge" d="M 0 0 V -29.0123 H -5" /><rect class="sym" height="6" width="6" x="-3" y="-3" /><text class="lab" transform="translate(0 11)">1</text></g><path class="edge" d="M 0 0 V -20.0718 H 10" /><circle class="sym" cx="0" cy="0" r="3" /><text class="lab lft" transform="translate(-3 -7.0)">5</text></g><circle class="sym" cx="0" cy="0" r="3" /><text class="lab" transform="translate(0 -11)">8</text></g></g></g></g></g></svg>