<svg baseProfile="full" height="400" version="1.1" width="1000" xmlns="http://www.w3.org/2000/svg" xmlns:ev="http://www.w3.org/2001/xml-events" xmlns:xlink="http://www.w3.org/1999/xlink"><defs><style type="text/css"><![CDATA[.background path {fill: #808080; fill-opacity: 0}.background path:nth-child(odd) {fill-opacity: .1}.x-regions rect {fill: yellow; stroke: black; opacity: 0.5}.axes {font-size: 14px}.x-axis .tick .lab {font-weight: bold; dominant-baseline: hanging}.axes, .tree {font-size: 14px; text-anchor: middle}.axes line, .edge {stroke: black; fill: none}.axes .ax-skip {stroke-dasharray: 4}.y-axis .grid {stroke: #FAFAFA}.node > .sym {fill: black; stroke: none}.site > .sym {stroke: black}.mut text {fill: red; font-style: italic}.mut.extra text {fill: hotpink}.mut line {fill: none; stroke: none}.mut .sym {fill: none; stroke: red}.mut.extra .sym {stroke: hotpink}.node .mut .sym {stroke-width: 1.5px}.tree text, .tree-sequence text {dominant-baseline: central}.plotbox .lab.lft {text-anchor: end}.plotbox .lab.rgt {text-anchor: start}.polytomy line {stroke: black; stroke-dasharray: 1px, 1px}.polytomy text {paint-order:stroke;stroke-width:0.3em;stroke:white}.y-axis .tick .lab {font-size: 8pt}.n1999979 > .sym {clip-path: polygon(50% 0%, 100% 100%, 0% 100%); transform: scale(8.0, 3.5)}.n1999979 > .lab {transform: translateY(20px); font-size: 12px}]]></style></defs><g class="tree t0"><g class="axes"><g class="y-axis"><g class="title" transform="translate(0 189.1)"><text class="lab" text-anchor="middle" transform="translate(11) rotate(-90)">Node time</text></g><line class="ax-line" x1="56.8" x2="56.8" y1="368.2" y2="10"/><g class="ticks"><g class="tick" transform="translate(56.8 368.2)"><line x1="0" x2="-5" y1="0" y2="0"/><g transform="translate(-6 0)"><text class="lab" text-anchor="end">0</text></g></g><g class="tick" transform="translate(56.8 351.13)"><line x1="0" x2="-5" y1="0" y2="0"/><g transform="translate(-6 0)"><text class="lab" text-anchor="end">999980</text></g></g><g class="tick" transform="translate(56.8 334.06)"><line x1="0" x2="-5" y1="0" y2="0"/><g transform="translate(-6 0)"><text class="lab" text-anchor="end">999981</text></g></g><g class="tick" transform="translate(56.8 316.99)"><line x1="0" x2="-5" y1="0" y2="0"/><g transform="translate(-6 0)"><text class="lab" text-anchor="end">999982</text></g></g><g class="tick" transform="translate(56.8 299.92)"><line x1="0" x2="-5" y1="0" y2="0"/><g transform="translate(-6 0)"><text class="lab" text-anchor="end">999983</text></g></g><g class="tick" transform="translate(56.8 282.85)"><line x1="0" x2="-5" y1="0" y2="0"/><g transform="translate(-6 0)"><text class="lab" text-anchor="end">999984</text></g></g><g class="tick" transform="translate(56.8 265.78)"><line x1="0" x2="-5" y1="0" y2="0"/><g transform="translate(-6 0)"><text class="lab" text-anchor="end">999985</text></g></g><g class="tick" transform="translate(56.8 248.71)"><line x1="0" x2="-5" y1="0" y2="0"/><g transform="translate(-6 0)"><text class="lab" text-anchor="end">999986</text></g></g><g class="tick" transform="translate(56.8 231.64)"><line x1="0" x2="-5" y1="0" y2="0"/><g transform="translate(-6 0)"><text class="lab" text-anchor="end">999987</text></g></g><g class="tick" transform="translate(56.8 214.57)"><line x1="0" x2="-5" y1="0" y2="0"/><g transform="translate(-6 0)"><text class="lab" text-anchor="end">999988</text></g></g><g class="tick" transform="translate(56.8 197.5)"><line x1="0" x2="-5" y1="0" y2="0"/><g transform="translate(-6 0)"><text class="lab" text-anchor="end">999989</text></g></g><g class="tick" transform="translate(56.8 180.43)"><line x1="0" x2="-5" y1="0" y2="0"/><g transform="translate(-6 0)"><text class="lab" text-anchor="end">999990</text></g></g><g class="tick" transform="translate(56.8 163.36)"><line x1="0" x2="-5" y1="0" y2="0"/><g transform="translate(-6 0)"><text class="lab" text-anchor="end">999991</text></g></g><g class="tick" transform="translate(56.8 146.29)"><line x1="0" x2="-5" y1="0" y2="0"/><g transform="translate(-6 0)"><text class="lab" text-anchor="end">999992</text></g></g><g class="tick" transform="translate(56.8 129.22)"><line x1="0" x2="-5" y1="0" y2="0"/><g transform="translate(-6 0)"><text class="lab" text-anchor="end">999993</text></g></g><g class="tick" transform="translate(56.8 112.15)"><line x1="0" x2="-5" y1="0" y2="0"/><g transform="translate(-6 0)"><text class="lab" text-anchor="end">999994</text></g></g><g class="tick" transform="translate(56.8 95.08)"><line x1="0" x2="-5" y1="0" y2="0"/><g transform="translate(-6 0)"><text class="lab" text-anchor="end">999995</text></g></g><g class="tick" transform="translate(56.8 78.01)"><line x1="0" x2="-5" y1="0" y2="0"/><g transform="translate(-6 0)"><text class="lab" text-anchor="end">999996</text></g></g><g class="tick" transform="translate(56.8 60.94)"><line x1="0" x2="-5" y1="0" y2="0"/><g transform="translate(-6 0)"><text class="lab" text-anchor="end">999997</text></g></g><g class="tick" transform="translate(56.8 43.87)"><line x1="0" x2="-5" y1="0" y2="0"/><g transform="translate(-6 0)"><text class="lab" text-anchor="end">999998</text></g></g><g class="tick" transform="translate(56.8 26.8)"><line x1="0" x2="-5" y1="0" y2="0"/><g transform="translate(-6 0)"><text class="lab" text-anchor="end">999999</text></g></g></g></g></g><g class="plotbox"><g class="c2 node n1999998 root" transform="translate(126.04 26.8)"><g class="a1999998 leaf node n0 sample" transform="translate(-46.1599 341.4)"><path class="edge e36" d="M 0 0 V -341.4 H 46.1599"/><rect class="sym" height="6" width="6" x="-3" y="-3"/><text class="lab" transform="translate(0 11)">0</text></g><g class="a1999998 c2 node n1999997" transform="translate(46.1599 17.07)"><g class="a1999997 leaf node n1 sample" transform="translate(-46.1598 324.33)"><path class="edge e34" d="M 0 0 V -324.33 H 46.1598"/><rect class="sym" height="6" width="6" x="-3" y="-3"/><text class="lab" transform="translate(0 11)">1</text></g><g class="a1999997 c2 node n1999996" transform="translate(46.1598 17.07)"><g class="a1999996 leaf node n2 sample" transform="translate(-46.1596 307.26)"><path class="edge e32" d="M 0 0 V -307.26 H 46.1596"/><rect class="sym" height="6" width="6" x="-3" y="-3"/><text class="lab" transform="translate(0 11)">2</text></g><g class="a1999996 c2 node n1999995" transform="translate(46.1596 17.07)"><g class="a1999995 leaf node n3 sample" transform="translate(-46.1593 290.19)"><path class="edge e30" d="M 0 0 V -290.19 H 46.1593"/><rect class="sym" height="6" width="6" x="-3" y="-3"/><text class="lab" transform="translate(0 11)">3</text></g><g class="a1999995 c2 node n1999994" transform="translate(46.1593 17.07)"><g class="a1999994 leaf node n4 sample" transform="translate(-46.1586 273.12)"><path class="edge e28" d="M 0 0 V -273.12 H 46.1586"/><rect class="sym" height="6" width="6" x="-3" y="-3"/><text class="lab" transform="translate(0 11)">4</text></g><g class="a1999994 c2 node n1999993" transform="translate(46.1586 17.07)"><g class="a1999993 leaf node n5 sample" transform="translate(-46.1572 256.05)"><path class="edge e26" d="M 0 0 V -256.05 H 46.1572"/><rect class="sym" height="6" width="6" x="-3" y="-3"/><text class="lab" transform="translate(0 11)">5</text></g><g class="a1999993 c2 node n1999992" transform="translate(46.1572 17.07)"><g class="a1999992 leaf node n6 sample" transform="translate(-46.1544 238.98)"><path class="edge e24" d="M 0 0 V -238.98 H 46.1544"/><rect class="sym" height="6" width="6" x="-3" y="-3"/><text class="lab" transform="translate(0 11)">6</text></g><g class="a1999992 c2 node n1999991" transform="translate(46.1544 17.07)"><g class="a1999991 leaf node n7 sample" transform="translate(-46.1487 221.91)"><path class="edge e22" d="M 0 0 V -221.91 H 46.1487"/><rect class="sym" height="6" width="6" x="-3" y="-3"/><text class="lab" transform="translate(0 11)">7</text></g><g class="a1999991 c2 node n1999990" transform="translate(46.1487 17.07)"><g class="a1999990 leaf node n8 sample" transform="translate(-46.1375 204.84)"><path class="edge e20" d="M 0 0 V -204.84 H 46.1375"/><rect class="sym" height="6" width="6" x="-3" y="-3"/><text class="lab" transform="translate(0 11)">8</text></g><g class="a1999990 c2 node n1999989" transform="translate(46.1375 17.07)"><g class="a1999989 leaf node n9 sample" transform="translate(-46.1149 187.77)"><path class="edge e18" d="M 0 0 V -187.77 H 46.1149"/><rect class="sym" height="6" width="6" x="-3" y="-3"/><text class="lab" transform="translate(0 11)">9</text></g><g class="a1999989 c2 node n1999988" transform="translate(46.1149 17.07)"><g class="a1999988 leaf node n10 sample" transform="translate(-46.0698 170.7)"><path class="edge e16" d="M 0 0 V -170.7 H 46.0698"/><rect class="sym" height="6" width="6" x="-3" y="-3"/><text class="lab" transform="translate(0 11)">10</text></g><g class="a1999988 c2 node n1999987" transform="translate(46.0698 17.07)"><g class="a1999987 leaf node n11 sample" transform="translate(-45.9797 153.63)"><path class="edge e14" d="M 0 0 V -153.63 H 45.9797"/><rect class="sym" height="6" width="6" x="-3" y="-3"/><text class="lab" transform="translate(0 11)">11</text></g><g class="a1999987 c2 node n1999986" transform="translate(45.9797 17.07)"><g class="a1999986 leaf node n12 sample" transform="translate(-45.7994 136.56)"><path class="edge e12" d="M 0 0 V -136.56 H 45.7994"/><rect class="sym" height="6" width="6" x="-3" y="-3"/><text class="lab" transform="translate(0 11)">12</text></g><g class="a1999986 c2 node n1999985" transform="translate(45.7994 17.07)"><g class="a1999985 leaf node n13 sample" transform="translate(-45.4388 119.49)"><path class="edge e10" d="M 0 0 V -119.49 H 45.4388"/><rect class="sym" height="6" width="6" x="-3" y="-3"/><text class="lab" transform="translate(0 11)">13</text></g><g class="a1999985 c2 node n1999984" transform="translate(45.4388 17.07)"><g class="a1999984 leaf node n14 sample" transform="translate(-44.7175 102.42)"><path class="edge e8" d="M 0 0 V -102.42 H 44.7175"/><rect class="sym" height="6" width="6" x="-3" y="-3"/><text class="lab" transform="translate(0 11)">14</text></g><g class="a1999984 c2 node n1999983" transform="translate(44.7175 17.07)"><g class="a1999983 leaf node n15 sample" transform="translate(-43.275 85.35)"><path class="edge e6" d="M 0 0 V -85.35 H 43.275"/><rect class="sym" height="6" width="6" x="-3" y="-3"/><text class="lab" transform="translate(0 11)">15</text></g><g class="a1999983 c2 node n1999982" transform="translate(43.275 17.07)"><g class="a1999982 leaf node n16 sample" transform="translate(-40.39 68.28)"><path class="edge e4" d="M 0 0 V -68.28 H 40.39"/><rect class="sym" height="6" width="6" x="-3" y="-3"/><text class="lab" transform="translate(0 11)">16</text></g><g class="a1999982 c2 node n1999981" transform="translate(40.39 17.07)"><g class="a1999981 leaf node n17 sample" transform="translate(-34.62 51.21)"><path class="edge e2" d="M 0 0 V -51.21 H 34.62"/><rect class="sym" height="6" width="6" x="-3" y="-3"/><text class="lab" transform="translate(0 11)">17</text></g><g class="a1999981 c2 node n1999980" transform="translate(34.62 17.07)"><g class="a1999980 leaf node n18 sample" transform="translate(-23.08 34.14)"><path class="edge e0" d="M 0 0 V -34.14 H 23.08"/><rect class="sym" height="6" width="6" x="-3" y="-3"/><text class="lab" transform="translate(0 11)">18</text></g><g class="a1999980 leaf node n1999979 sample" transform="translate(23.08 17.07)"><path class="edge e1" d="M 0 0 V -17.07 H -23.08"/><rect class="sym" height="6" width="6" x="-3" y="-3"/><text class="lab" transform="translate(0 11)">999,981 tips</text></g><path class="edge e3" d="M 0 0 V -17.07 H -34.62"/><circle class="sym" cx="0" cy="0" r="3"/><text class="lab rgt" transform="translate(3 -7)"/></g><path class="edge e5" d="M 0 0 V -17.07 H -40.39"/><circle class="sym" cx="0" cy="0" r="3"/><text class="lab rgt" transform="translate(3 -7)"/></g><path class="edge e7" d="M 0 0 V -17.07 H -43.275"/><circle class="sym" cx="0" cy="0" r="3"/><text class="lab rgt" transform="translate(3 -7)"/></g><path class="edge e9" d="M 0 0 V -17.07 H -44.7175"/><circle class="sym" cx="0" cy="0" r="3"/><text class="lab rgt" transform="translate(3 -7)"/></g><path class="edge e11" d="M 0 0 V -17.07 H -45.4388"/><circle class="sym" cx="0" cy="0" r="3"/><text class="lab rgt" transform="translate(3 -7)"/></g><path class="edge e13" d="M 0 0 V -17.07 H -45.7994"/><circle class="sym" cx="0" cy="0" r="3"/><text class="lab rgt" transform="translate(3 -7)"/></g><path class="edge e15" d="M 0 0 V -17.07 H -45.9797"/><circle class="sym" cx="0" cy="0" r="3"/><text class="lab rgt" transform="translate(3 -7)"/></g><path class="edge e17" d="M 0 0 V -17.07 H -46.0698"/><circle class="sym" cx="0" cy="0" r="3"/><text class="lab rgt" transform="translate(3 -7)"/></g><path class="edge e19" d="M 0 0 V -17.07 H -46.1149"/><circle class="sym" cx="0" cy="0" r="3"/><text class="lab rgt" transform="translate(3 -7)"/></g><path class="edge e21" d="M 0 0 V -17.07 H -46.1375"/><circle class="sym" cx="0" cy="0" r="3"/><text class="lab rgt" transform="translate(3 -7)"/></g><path class="edge e23" d="M 0 0 V -17.07 H -46.1487"/><circle class="sym" cx="0" cy="0" r="3"/><text class="lab rgt" transform="translate(3 -7)"/></g><path class="edge e25" d="M 0 0 V -17.07 H -46.1544"/><circle class="sym" cx="0" cy="0" r="3"/><text class="lab rgt" transform="translate(3 -7)"/></g><path class="edge e27" d="M 0 0 V -17.07 H -46.1572"/><circle class="sym" cx="0" cy="0" r="3"/><text class="lab rgt" transform="translate(3 -7)"/></g><path class="edge e29" d="M 0 0 V -17.07 H -46.1586"/><circle class="sym" cx="0" cy="0" r="3"/><text class="lab rgt" transform="translate(3 -7)"/></g><path class="edge e31" d="M 0 0 V -17.07 H -46.1593"/><circle class="sym" cx="0" cy="0" r="3"/><text class="lab rgt" transform="translate(3 -7)"/></g><path class="edge e33" d="M 0 0 V -17.07 H -46.1596"/><circle class="sym" cx="0" cy="0" r="3"/><text class="lab rgt" transform="translate(3 -7)"/></g><path class="edge e35" d="M 0 0 V -17.07 H -46.1598"/><circle class="sym" cx="0" cy="0" r="3"/><text class="lab rgt" transform="translate(3 -7)"/></g><path class="edge e37" d="M 0 0 V -17.07 H -46.1599"/><circle class="sym" cx="0" cy="0" r="3"/><text class="lab rgt" transform="translate(3 -7)"/></g><circle class="sym" cx="0" cy="0" r="3"/><text class="lab" transform="translate(0 -11)"/></g></g></g></svg>