<svg baseProfile="full" height="200" version="1.1" width="300" xmlns="http://www.w3.org/2000/svg" xmlns:ev="http://www.w3.org/2001/xml-events" xmlns:xlink="http://www.w3.org/1999/xlink"><circle cx="164.6" cy="46.92139616558647" r="10" stroke="blue" fill="white" /><text x="172.6" y="38.92139616558647" fill="blue">This is node 10!</text><line x1="103.0" y1="106.33651085991656" x2="183.0" y2="86.33651085991656" stroke="red" /><text x="185.0" y="84.33651085991656" fill="red">This is node 8!</text><defs><style type="text/css"><![CDATA[.background path {fill: #808080; fill-opacity: 0}.background path:nth-child(odd) {fill-opacity: .1}.x-regions rect {fill: yellow; stroke: black; opacity: 0.5}.axes {font-size: 14px}.x-axis .tick .lab {font-weight: bold; dominant-baseline: hanging}.axes, .tree {font-size: 14px; text-anchor: middle}.axes line, .edge {stroke: black; fill: none}.axes .ax-skip {stroke-dasharray: 4}.y-axis .grid {stroke: #FAFAFA}.node > .sym {fill: black; stroke: none}.site > .sym {stroke: black}.mut text {fill: red; font-style: italic}.mut.extra text {fill: hotpink}.mut line {fill: none; stroke: none}.mut .sym {fill: none; stroke: red}.mut.extra .sym {stroke: hotpink}.node .mut .sym {stroke-width: 1.5px}.tree text, .tree-sequence text {dominant-baseline: central}.plotbox .lab.lft {text-anchor: end}.plotbox .lab.rgt {text-anchor: start}.polytomy line {stroke: black; stroke-dasharray: 1px, 1px}.polytomy text {paint-order:stroke;stroke-width:0.3em;stroke:white}]]></style></defs><g class="tree t0"><g class="axes"><g class="y-axis"><g class="title" transform="translate(0 89.1)"><text class="lab" text-anchor="middle" transform="translate(11) rotate(-90)">Time ago (generations)</text></g><line class="ax-line" x1="56.8" x2="56.8" y1="168.2" y2="10"/><g class="ticks"><g class="tick" transform="translate(56.8 168.2)"><line x1="0" x2="-5" y1="0" y2="0"/><g transform="translate(-6 0)"><text class="lab" text-anchor="end">0</text></g></g><g class="tick" transform="translate(56.8 126.472)"><line x1="0" x2="-5" y1="0" y2="0"/><g transform="translate(-6 0)"><text class="lab" text-anchor="end">10</text></g></g><g class="tick" transform="translate(56.8 87.8887)"><line x1="0" x2="-5" y1="0" y2="0"/><g transform="translate(-6 0)"><text class="lab" text-anchor="end">100</text></g></g><g class="tick" transform="translate(56.8 47.9754)"><line x1="0" x2="-5" y1="0" y2="0"/><g transform="translate(-6 0)"><text class="lab" text-anchor="end">1000</text></g></g></g></g></g><g class="plotbox"><g class="c2 node n17 p3 root" transform="translate(116.956 26.8)"><g class="a17 c2 node n13 p3" transform="translate(-36.0938 9.63648)"><g class="a13 i0 leaf node n0 p0 sample" transform="translate(-16.3625 131.764)"><path class="edge e10" d="M 0 0 V -131.764 H 16.3625"/><rect class="sym" height="6" width="6" x="-3" y="-3"/><text class="lab" transform="translate(0 11)"/></g><g class="a13 c2 node n12 p3" transform="translate(16.3625 5.20913)"><g class="a12 i0 leaf node n1 p0 sample" transform="translate(-17.325 126.554)"><path class="edge e8" d="M 0 0 V -126.554 H 17.325"/><rect class="sym" height="6" width="6" x="-3" y="-3"/><text class="lab" transform="translate(0 11)"/></g><g class="a12 c2 node n9 p3" transform="translate(17.325 5.70679)"><g class="a9 i2 leaf node n4 p1 sample" transform="translate(11.55 120.848)"><path class="edge e2" d="M 0 0 V -120.848 H -11.55"/><rect class="sym" height="6" width="6" x="-3" y="-3"/><text class="lab" transform="translate(0 11)"/></g><g class="a9 c2 node n8 p0" transform="translate(-11.55 58.9841)"><g class="a8 i1 leaf node n2 p0 sample" transform="translate(-7.7 61.8635)"><path class="edge e0" d="M 0 0 V -61.8635 H 7.7"/><rect class="sym" height="6" width="6" x="-3" y="-3"/><text class="lab" transform="translate(0 11)"/></g><g class="a8 i1 leaf node n3 p0 sample" transform="translate(7.7 61.8635)"><path class="edge e1" d="M 0 0 V -61.8635 H -7.7"/><rect class="sym" height="6" width="6" x="-3" y="-3"/><text class="lab" transform="translate(0 11)"/></g><path class="edge e3" d="M 0 0 V -58.9841 H 11.55"/><circle class="sym" cx="0" cy="0" r="3"/><text class="lab lft" transform="translate(-3 -7)"/></g><path class="edge e9" d="M 0 0 V -5.70679 H -17.325"/><circle class="sym" cx="0" cy="0" r="3"/><text class="lab rgt" transform="translate(3 -7)"/></g><path class="edge e12" d="M 0 0 V -5.20913 H -16.3625"/><circle class="sym" cx="0" cy="0" r="3"/><text class="lab rgt" transform="translate(3 -7)"/></g><path class="edge e22" d="M 0 0 V -9.63648 H 36.0938"/><circle class="sym" cx="0" cy="0" r="3"/><text class="lab lft" transform="translate(-3 -7)"/></g><g class="a17 c2 node n16 p3" transform="translate(36.0938 3.48465)"><g class="a16 i2 leaf node n5 p1 sample" transform="translate(-11.55 137.915)"><path class="edge e19" d="M 0 0 V -137.915 H 11.55"/><rect class="sym" height="6" width="6" x="-3" y="-3"/><text class="lab" transform="translate(0 11)"/></g><g class="a16 c2 node n10 p3" transform="translate(11.55 16.6367)"><g class="a10 i3 leaf node n6 p2 sample" transform="translate(-7.7 121.279)"><path class="edge e4" d="M 0 0 V -121.279 H 7.7"/><rect class="sym" height="6" width="6" x="-3" y="-3"/><text class="lab" transform="translate(0 11)"/></g><g class="a10 i3 leaf node n7 p2 sample" transform="translate(7.7 121.279)"><path class="edge e5" d="M 0 0 V -121.279 H -7.7"/><rect class="sym" height="6" width="6" x="-3" y="-3"/><text class="lab" transform="translate(0 11)"/></g><path class="edge e20" d="M 0 0 V -16.6367 H -11.55"/><circle class="sym" cx="0" cy="0" r="3"/><text class="lab rgt" transform="translate(3 -7)"/></g><path class="edge e24" d="M 0 0 V -3.48465 H -36.0938"/><circle class="sym" cx="0" cy="0" r="3"/><text class="lab rgt" transform="translate(3 -7)"/></g><circle class="sym" cx="0" cy="0" r="3"/><text class="lab" transform="translate(0 -11)"/></g></g></g></svg>