<svg baseProfile="full" height="200" version="1.1" width="500" xmlns="http://www.w3.org/2000/svg" xmlns:ev="http://www.w3.org/2001/xml-events" xmlns:xlink="http://www.w3.org/1999/xlink"><defs><style type="text/css"><![CDATA[.background path {fill: #808080; fill-opacity: 0}.background path:nth-child(odd) {fill-opacity: .1}.x-regions rect {fill: yellow; stroke: black; opacity: 0.5}.axes {font-size: 14px}.x-axis .tick .lab {font-weight: bold; dominant-baseline: hanging}.axes, .tree {font-size: 14px; text-anchor: middle}.axes line, .edge {stroke: black; fill: none}.axes .ax-skip {stroke-dasharray: 4}.y-axis .grid {stroke: #FAFAFA}.node > .sym {fill: black; stroke: none}.site > .sym {stroke: black}.mut text {fill: red; font-style: italic}.mut.extra text {fill: hotpink}.mut line {fill: none; stroke: none}.mut .sym {fill: none; stroke: red}.mut.extra .sym {stroke: hotpink}.node .mut .sym {stroke-width: 1.5px}.tree text, .tree-sequence text {dominant-baseline: central}.plotbox .lab.lft {text-anchor: end}.plotbox .lab.rgt {text-anchor: start}.polytomy line {stroke: black; stroke-dasharray: 1px, 1px}.polytomy text {paint-order:stroke;stroke-width:0.3em;stroke:white}]]></style></defs><g class="tree-sequence"><g class="background"><path d="M56.8,0 l423.2,0 l0,138.2 l0,25 l0,5 l-423.2,0 l0,-5 l0,-25 l0,-138.2z"/></g><g class="axes"><g class="x-axis"><g class="title" transform="translate(268.4 200)"><text class="lab" text-anchor="middle" transform="translate(0 -11)">Genome position</text></g><line class="ax-line" x1="56.8" x2="480" y1="163.2" y2="163.2"/><g class="ticks"><g class="tick" transform="translate(56.8 163.2)"><line x1="0" x2="0" y1="0" y2="5"/><g transform="translate(0 6)"><text class="lab">0</text></g></g><g class="tick" transform="translate(480 163.2)"><line x1="0" x2="0" y1="0" y2="5"/><g transform="translate(0 6)"><text class="lab">1000</text></g></g></g><g class="site s0" transform="translate(161.33 163.2)"><line class="sym" x1="0" x2="0" y1="0" y2="-10"/><g class="mut m0"><polyline class="sym" points="2.5,-6.5 0,-1.5 -2.5,-6.5"/></g></g><g class="site s1" transform="translate(465.188 163.2)"><line class="sym" x1="0" x2="0" y1="0" y2="-10"/><g class="mut m1"><polyline class="sym" points="2.5,-6.5 0,-1.5 -2.5,-6.5"/></g></g></g><g class="y-axis"><g class="title" transform="translate(0 65.7)"><text class="lab" text-anchor="middle" transform="translate(11) rotate(-90)">Time ago (generations)</text></g><line class="ax-line" x1="56.8" x2="56.8" y1="121.4" y2="10"/><g class="ticks"><g class="tick" transform="translate(56.8 121.4)"><line x1="0" x2="-5" y1="0" y2="0"/><g transform="translate(-6 0)"><text class="lab" text-anchor="end">0</text></g></g><g class="tick" transform="translate(56.8 88.1321)"><line x1="0" x2="-5" y1="0" y2="0"/><g transform="translate(-6 0)"><text class="lab" text-anchor="end">10</text></g></g><g class="tick" transform="translate(56.8 57.3708)"><line x1="0" x2="-5" y1="0" y2="0"/><g transform="translate(-6 0)"><text class="lab" text-anchor="end">100</text></g></g><g class="tick" transform="translate(56.8 25.5495)"><line x1="0" x2="-5" y1="0" y2="0"/><g transform="translate(-6 0)"><text class="lab" text-anchor="end">1000</text></g></g></g></g></g><g class="plotbox trees"><g class="tree t0" transform="translate(56.8 0)"><g class="plotbox"><g class="c2 node n14 p0 root" transform="translate(269.978 26.8)"><g class="a14 i1 leaf m1 node n2 p0 s1 sample" transform="translate(109.272 94.6)"><path class="edge e12" d="M 0 0 V -94.6 H -109.272"/><g class="mut m1 s1" transform="translate(0 -85.4707)"><line x1="0" x2="0" y1="0" y2="85.4707"/><path class="sym" d="M -3,-3 l 6,6 M -3,3 l 6,-6"/><text class="lab rgt" transform="translate(5 0)">1</text></g><rect class="sym" height="6" width="6" x="-3" y="-3"/><text class="lab" transform="translate(0 11)">2</text></g><g class="a14 c2 node n13 p0" transform="translate(-109.272 22.8682)"><g class="a13 c2 node n11 p0" transform="translate(-92.8063 9.49168)"><g class="a11 i0 leaf node n0 p0 sample" transform="translate(-23.95 62.2401)"><path class="edge e6" d="M 0 0 V -62.2401 H 23.95"/><rect class="sym" height="6" width="6" x="-3" y="-3"/><text class="lab" transform="translate(0 11)">0</text></g><g class="a11 i3 leaf node n6 p0 sample" transform="translate(23.95 62.2401)"><path class="edge e7" d="M 0 0 V -62.2401 H -23.95"/><rect class="sym" height="6" width="6" x="-3" y="-3"/><text class="lab" transform="translate(0 11)">6</text></g><path class="edge e10" d="M 0 0 V -9.49168 H 92.8063"/><circle class="sym" cx="0" cy="0" r="3"/><text class="lab lft" transform="translate(-3 -7)">11</text></g><g class="a13 c2 node n12 p0" transform="translate(92.8062 8.58674)"><g class="a12 c2 node n9 p0" transform="translate(53.8875 23.9642)"><g class="a9 i1 leaf node n3 p0 sample" transform="translate(-23.95 39.1809)"><path class="edge e2" d="M 0 0 V -39.1809 H 23.95"/><rect class="sym" height="6" width="6" x="-3" y="-3"/><text class="lab" transform="translate(0 11)">3</text></g><g class="a9 i2 leaf node n4 p0 sample" transform="translate(23.95 39.1809)"><path class="edge e3" d="M 0 0 V -39.1809 H -23.95"/><rect class="sym" height="6" width="6" x="-3" y="-3"/><text class="lab" transform="translate(0 11)">4</text></g><path class="edge e8" d="M 0 0 V -23.9642 H -53.8875"/><circle class="sym" cx="0" cy="0" r="3"/><text class="lab rgt" transform="translate(3 -7)">9</text></g><g class="a12 c2 node n10 p0" transform="translate(-53.8875 7.96731)"><g class="a10 i2 leaf m0 node n5 p0 s0 sample" transform="translate(35.925 55.1778)"><path class="edge e4" d="M 0 0 V -55.1778 H -35.925"/><g class="mut m0 s0" transform="translate(0 -42.4876)"><line x1="0" x2="0" y1="0" y2="42.4876"/><path class="sym" d="M -3,-3 l 6,6 M -3,3 l 6,-6"/><text class="lab rgt" transform="translate(5 0)">0</text></g><rect class="sym" height="6" width="6" x="-3" y="-3"/><text class="lab" transform="translate(0 11)">5</text></g><g class="a10 c2 node n8 p0" transform="translate(-35.925 21.8398)"><g class="a8 i0 leaf node n1 p0 sample" transform="translate(-23.95 33.338)"><path class="edge e0" d="M 0 0 V -33.338 H 23.95"/><rect class="sym" height="6" width="6" x="-3" y="-3"/><text class="lab" transform="translate(0 11)">1</text></g><g class="a8 i3 leaf node n7 p0 sample" transform="translate(23.95 33.338)"><path class="edge e1" d="M 0 0 V -33.338 H -23.95"/><rect class="sym" height="6" width="6" x="-3" y="-3"/><text class="lab" transform="translate(0 11)">7</text></g><path class="edge e5" d="M 0 0 V -21.8398 H 35.925"/><circle class="sym" cx="0" cy="0" r="3"/><text class="lab lft" transform="translate(-3 -7)">8</text></g><path class="edge e9" d="M 0 0 V -7.96731 H 53.8875"/><circle class="sym" cx="0" cy="0" r="3"/><text class="lab lft" transform="translate(-3 -7)">10</text></g><path class="edge e11" d="M 0 0 V -8.58674 H -92.8062"/><circle class="sym" cx="0" cy="0" r="3"/><text class="lab rgt" transform="translate(3 -7)">12</text></g><path class="edge e13" d="M 0 0 V -22.8682 H 109.272"/><circle class="sym" cx="0" cy="0" r="3"/><text class="lab lft" transform="translate(-3 -7)">13</text></g><circle class="sym" cx="0" cy="0" r="3"/><text class="lab" transform="translate(0 -11)">14</text></g></g></g></g></g></svg>