<svg baseProfile="full" height="250" version="1.1" width="810" xmlns="http://www.w3.org/2000/svg" xmlns:ev="http://www.w3.org/2001/xml-events" xmlns:xlink="http://www.w3.org/1999/xlink"><defs><style type="text/css"><![CDATA[.background path {fill: #808080; fill-opacity: 0}.background path:nth-child(odd) {fill-opacity: .1}.axes {font-size: 14px}.x-axis .tick .lab {font-weight: bold; dominant-baseline: hanging}.axes, .tree {font-size: 14px; text-anchor: middle}.axes line, .edge {stroke: black; fill: none}.axes .ax-skip {stroke-dasharray: 4}.y-axis .grid {stroke: #FAFAFA}.node > .sym {fill: black; stroke: none}.site > .sym {stroke: black}.mut text {fill: red; font-style: italic}.mut.extra text {fill: hotpink}.mut line {fill: none; stroke: none}.mut .sym {fill: none; stroke: red}.mut.extra .sym {stroke: hotpink}.node .mut .sym {stroke-width: 1.5px}.tree text, .tree-sequence text {dominant-baseline: central}.plotbox .lab.lft {text-anchor: end}.plotbox .lab.rgt {text-anchor: start}.tree .plotbox {transform: skewY(0.8rad)}.x-axis {transform: translate(10px, 50px)}]]></style></defs><g class="tree-sequence"><g class="axes"><g class="x-axis"><g class="title" transform="translate(400 200)"><text class="lab" text-anchor="middle" transform="translate(0 -11)">Genome position</text></g><line class="ax-line" x1="20" x2="780" y1="163.2" y2="163.2" /><g class="ticks"><g class="tick" transform="translate(20 163.2)"><line x1="0" x2="0" y1="-5" y2="5" /><g transform="translate(0 6)"><text class="lab">0</text></g></g><g class="tick" transform="translate(115 163.2)"><line x1="0" x2="0" y1="-5" y2="5" /><g transform="translate(0 6)"><text class="lab">9855</text></g></g><g class="tick" transform="translate(210 163.2)"><line x1="0" x2="0" y1="-5" y2="5" /><g transform="translate(0 6)"><text class="lab">13901</text></g></g><g class="tick" transform="translate(305 163.2)"><line x1="0" x2="0" y1="-5" y2="5" /><g transform="translate(0 6)"><text class="lab">21285</text></g></g><g class="tick" transform="translate(400 163.2)"><line x1="0" x2="0" y1="-5" y2="5" /><g transform="translate(0 6)"><text class="lab">23424</text></g></g><g class="tick" transform="translate(495 163.2)"><line x1="0" x2="0" y1="-5" y2="5" /><g transform="translate(0 6)"><text class="lab">25213</text></g></g><g class="tick" transform="translate(590 163.2)"><line x1="0" x2="0" y1="-5" y2="5" /><g transform="translate(0 6)"><text class="lab">30463</text></g></g><g class="tick" transform="translate(685 163.2)"><line x1="0" x2="0" y1="-5" y2="5" /><g transform="translate(0 6)"><text class="lab">46237</text></g></g><g class="tick" transform="translate(780 163.2)"><line x1="0" x2="0" y1="-5" y2="5" /><g transform="translate(0 6)"><text class="lab">50000</text></g></g></g></g></g><g class="plotbox trees"><g class="tree t0" transform="translate(20 0)"><g class="plotbox"><g class="c2 node n6 p1 root" transform="translate(38.9062 105.327)"><g class="a6 i0 leaf node n0 p0 sample" transform="translate(-12.0312 16.0727)"><path class="edge" d="M 0 0 V -16.0727 H 12.0312" /><rect class="sym" height="6" width="6" x="-3" y="-3" /><text class="lab" transform="translate(0 11)">0</text></g><g class="a6 c2 node n5 p1" transform="translate(12.0312 4.16009)"><g class="a5 i0 leaf node n1 p0 sample" transform="translate(-10.3125 11.9126)"><path class="edge" d="M 0 0 V -11.9126 H 10.3125" /><rect class="sym" height="6" width="6" x="-3" y="-3" /><text class="lab" transform="translate(0 11)">1</text></g><g class="a5 c2 node n4 p0" transform="translate(10.3125 11.6313)"><g class="a4 i1 leaf node n2 p0 sample" transform="translate(-6.875 0.281339)"><path class="edge" d="M 0 0 V -0.281339 H 6.875" /><rect class="sym" height="6" width="6" x="-3" y="-3" /><text class="lab" transform="translate(0 11)">2</text></g><g class="a4 i1 leaf node n3 p0 sample" transform="translate(6.875 0.281339)"><path class="edge" d="M 0 0 V -0.281339 H -6.875" /><rect class="sym" height="6" width="6" x="-3" y="-3" /><text class="lab" transform="translate(0 11)">3</text></g><path class="edge" d="M 0 0 V -11.6313 H -10.3125" /><circle class="sym" cx="0" cy="0" r="3" /><text class="lab rgt" transform="translate(3 -7.0)">4</text></g><path class="edge" d="M 0 0 V -4.16009 H -12.0312" /><circle class="sym" cx="0" cy="0" r="3" /><text class="lab rgt" transform="translate(3 -7.0)">5</text></g><circle class="sym" cx="0" cy="0" r="3" /><text class="lab" transform="translate(0 -11)">6</text></g></g></g><g class="tree t1" transform="translate(115 0)"><g class="plotbox"><g class="c2 node n8 p1 root" transform="translate(47.5 93.4308)"><g class="a8 c2 node n4 p0" transform="translate(13.75 27.6879)"><g class="a4 i1 leaf node n2 p0 sample" transform="translate(-6.875 0.281339)"><path class="edge" d="M 0 0 V -0.281339 H 6.875" /><rect class="sym" height="6" width="6" x="-3" y="-3" /><text class="lab" transform="translate(0 11)">2</text></g><g class="a4 i1 leaf node n3 p0 sample" transform="translate(6.875 0.281339)"><path class="edge" d="M 0 0 V -0.281339 H -6.875" /><rect class="sym" height="6" width="6" x="-3" y="-3" /><text class="lab" transform="translate(0 11)">3</text></g><path class="edge" d="M 0 0 V -27.6879 H -13.75" /><circle class="sym" cx="0" cy="0" r="3" /><text class="lab rgt" transform="translate(3 -7.0)">4</text></g><g class="a8 c2 node n6 p1" transform="translate(-13.75 11.8965)"><g class="a6 i0 leaf node n0 p0 sample" transform="translate(-6.875 16.0727)"><path class="edge" d="M 0 0 V -16.0727 H 6.875" /><rect class="sym" height="6" width="6" x="-3" y="-3" /><text class="lab" transform="translate(0 11)">0</text></g><g class="a6 i0 leaf node n1 p0 sample" transform="translate(6.875 16.0727)"><path class="edge" d="M 0 0 V -16.0727 H -6.875" /><rect class="sym" height="6" width="6" x="-3" y="-3" /><text class="lab" transform="translate(0 11)">1</text></g><path class="edge" d="M 0 0 V -11.8965 H 13.75" /><circle class="sym" cx="0" cy="0" r="3" /><text class="lab lft" transform="translate(-3 -7.0)">6</text></g><circle class="sym" cx="0" cy="0" r="3" /><text class="lab" transform="translate(0 -11)">8</text></g></g></g><g class="tree t2" transform="translate(210 0)"><g class="plotbox"><g class="c2 node n8 p1 root" transform="translate(47.5 93.4308)"><g class="a8 c2 node n4 p0" transform="translate(13.75 27.6879)"><g class="a4 i1 leaf node n2 p0 sample" transform="translate(-6.875 0.281339)"><path class="edge" d="M 0 0 V -0.281339 H 6.875" /><rect class="sym" height="6" width="6" x="-3" y="-3" /><text class="lab" transform="translate(0 11)">2</text></g><g class="a4 i1 leaf node n3 p0 sample" transform="translate(6.875 0.281339)"><path class="edge" d="M 0 0 V -0.281339 H -6.875" /><rect class="sym" height="6" width="6" x="-3" y="-3" /><text class="lab" transform="translate(0 11)">3</text></g><path class="edge" d="M 0 0 V -27.6879 H -13.75" /><circle class="sym" cx="0" cy="0" r="3" /><text class="lab rgt" transform="translate(3 -7.0)">4</text></g><g class="a8 c2 node n7 p1" transform="translate(-13.75 10.7814)"><g class="a7 i0 leaf node n0 p0 sample" transform="translate(-6.875 17.1878)"><path class="edge" d="M 0 0 V -17.1878 H 6.875" /><rect class="sym" height="6" width="6" x="-3" y="-3" /><text class="lab" transform="translate(0 11)">0</text></g><g class="a7 i0 leaf node n1 p0 sample" transform="translate(6.875 17.1878)"><path class="edge" d="M 0 0 V -17.1878 H -6.875" /><rect class="sym" height="6" width="6" x="-3" y="-3" /><text class="lab" transform="translate(0 11)">1</text></g><path class="edge" d="M 0 0 V -10.7814 H 13.75" /><circle class="sym" cx="0" cy="0" r="3" /><text class="lab lft" transform="translate(-3 -7.0)">7</text></g><circle class="sym" cx="0" cy="0" r="3" /><text class="lab" transform="translate(0 -11)">8</text></g></g></g><g class="tree t3" transform="translate(305 0)"><g class="plotbox"><g class="c2 node n10 p1 root" transform="translate(47.5 70.0425)"><g class="a10 c2 node n4 p0" transform="translate(13.75 51.0762)"><g class="a4 i1 leaf node n2 p0 sample" transform="translate(-6.875 0.281339)"><path class="edge" d="M 0 0 V -0.281339 H 6.875" /><rect class="sym" height="6" width="6" x="-3" y="-3" /><text class="lab" transform="translate(0 11)">2</text></g><g class="a4 i1 leaf node n3 p0 sample" transform="translate(6.875 0.281339)"><path class="edge" d="M 0 0 V -0.281339 H -6.875" /><rect class="sym" height="6" width="6" x="-3" y="-3" /><text class="lab" transform="translate(0 11)">3</text></g><path class="edge" d="M 0 0 V -51.0762 H -13.75" /><circle class="sym" cx="0" cy="0" r="3" /><text class="lab rgt" transform="translate(3 -7.0)">4</text></g><g class="a10 c2 node n7 p1" transform="translate(-13.75 34.1697)"><g class="a7 i0 leaf node n0 p0 sample" transform="translate(-6.875 17.1878)"><path class="edge" d="M 0 0 V -17.1878 H 6.875" /><rect class="sym" height="6" width="6" x="-3" y="-3" /><text class="lab" transform="translate(0 11)">0</text></g><g class="a7 i0 leaf node n1 p0 sample" transform="translate(6.875 17.1878)"><path class="edge" d="M 0 0 V -17.1878 H -6.875" /><rect class="sym" height="6" width="6" x="-3" y="-3" /><text class="lab" transform="translate(0 11)">1</text></g><path class="edge" d="M 0 0 V -34.1697 H 13.75" /><circle class="sym" cx="0" cy="0" r="3" /><text class="lab lft" transform="translate(-3 -7.0)">7</text></g><circle class="sym" cx="0" cy="0" r="3" /><text class="lab" transform="translate(0 -11)">10</text></g></g></g><g class="tree t4" transform="translate(400 0)"><g class="plotbox"><g class="c2 node n13 p1 root" transform="translate(47.5 26.8)"><g class="a13 c2 node n4 p0" transform="translate(13.75 94.3187)"><g class="a4 i1 leaf node n2 p0 sample" transform="translate(-6.875 0.281339)"><path class="edge" d="M 0 0 V -0.281339 H 6.875" /><rect class="sym" height="6" width="6" x="-3" y="-3" /><text class="lab" transform="translate(0 11)">2</text></g><g class="a4 i1 leaf node n3 p0 sample" transform="translate(6.875 0.281339)"><path class="edge" d="M 0 0 V -0.281339 H -6.875" /><rect class="sym" height="6" width="6" x="-3" y="-3" /><text class="lab" transform="translate(0 11)">3</text></g><path class="edge" d="M 0 0 V -94.3187 H -13.75" /><circle class="sym" cx="0" cy="0" r="3" /><text class="lab rgt" transform="translate(3 -7.0)">4</text></g><g class="a13 c2 node n7 p1" transform="translate(-13.75 77.4122)"><g class="a7 i0 leaf node n0 p0 sample" transform="translate(-6.875 17.1878)"><path class="edge" d="M 0 0 V -17.1878 H 6.875" /><rect class="sym" height="6" width="6" x="-3" y="-3" /><text class="lab" transform="translate(0 11)">0</text></g><g class="a7 i0 leaf node n1 p0 sample" transform="translate(6.875 17.1878)"><path class="edge" d="M 0 0 V -17.1878 H -6.875" /><rect class="sym" height="6" width="6" x="-3" y="-3" /><text class="lab" transform="translate(0 11)">1</text></g><path class="edge" d="M 0 0 V -77.4122 H 13.75" /><circle class="sym" cx="0" cy="0" r="3" /><text class="lab lft" transform="translate(-3 -7.0)">7</text></g><circle class="sym" cx="0" cy="0" r="3" /><text class="lab" transform="translate(0 -11)">13</text></g></g></g><g class="tree t5" transform="translate(495 0)"><g class="plotbox"><g class="c2 node n12 p1 root" transform="translate(47.5 29.1487)"><g class="a12 c2 node n4 p0" transform="translate(13.75 91.97)"><g class="a4 i1 leaf node n2 p0 sample" transform="translate(-6.875 0.281339)"><path class="edge" d="M 0 0 V -0.281339 H 6.875" /><rect class="sym" height="6" width="6" x="-3" y="-3" /><text class="lab" transform="translate(0 11)">2</text></g><g class="a4 i1 leaf node n3 p0 sample" transform="translate(6.875 0.281339)"><path class="edge" d="M 0 0 V -0.281339 H -6.875" /><rect class="sym" height="6" width="6" x="-3" y="-3" /><text class="lab" transform="translate(0 11)">3</text></g><path class="edge" d="M 0 0 V -91.97 H -13.75" /><circle class="sym" cx="0" cy="0" r="3" /><text class="lab rgt" transform="translate(3 -7.0)">4</text></g><g class="a12 c2 node n7 p1" transform="translate(-13.75 75.0635)"><g class="a7 i0 leaf node n0 p0 sample" transform="translate(-6.875 17.1878)"><path class="edge" d="M 0 0 V -17.1878 H 6.875" /><rect class="sym" height="6" width="6" x="-3" y="-3" /><text class="lab" transform="translate(0 11)">0</text></g><g class="a7 i0 leaf node n1 p0 sample" transform="translate(6.875 17.1878)"><path class="edge" d="M 0 0 V -17.1878 H -6.875" /><rect class="sym" height="6" width="6" x="-3" y="-3" /><text class="lab" transform="translate(0 11)">1</text></g><path class="edge" d="M 0 0 V -75.0635 H 13.75" /><circle class="sym" cx="0" cy="0" r="3" /><text class="lab lft" transform="translate(-3 -7.0)">7</text></g><circle class="sym" cx="0" cy="0" r="3" /><text class="lab" transform="translate(0 -11)">12</text></g></g></g><g class="tree t6" transform="translate(590 0)"><g class="plotbox"><g class="c2 node n11 p1 root" transform="translate(47.5 40.6632)"><g class="a11 c2 node n4 p0" transform="translate(13.75 80.4555)"><g class="a4 i1 leaf node n2 p0 sample" transform="translate(-6.875 0.281339)"><path class="edge" d="M 0 0 V -0.281339 H 6.875" /><rect class="sym" height="6" width="6" x="-3" y="-3" /><text class="lab" transform="translate(0 11)">2</text></g><g class="a4 i1 leaf node n3 p0 sample" transform="translate(6.875 0.281339)"><path class="edge" d="M 0 0 V -0.281339 H -6.875" /><rect class="sym" height="6" width="6" x="-3" y="-3" /><text class="lab" transform="translate(0 11)">3</text></g><path class="edge" d="M 0 0 V -80.4555 H -13.75" /><circle class="sym" cx="0" cy="0" r="3" /><text class="lab rgt" transform="translate(3 -7.0)">4</text></g><g class="a11 c2 node n7 p1" transform="translate(-13.75 63.549)"><g class="a7 i0 leaf node n0 p0 sample" transform="translate(-6.875 17.1878)"><path class="edge" d="M 0 0 V -17.1878 H 6.875" /><rect class="sym" height="6" width="6" x="-3" y="-3" /><text class="lab" transform="translate(0 11)">0</text></g><g class="a7 i0 leaf node n1 p0 sample" transform="translate(6.875 17.1878)"><path class="edge" d="M 0 0 V -17.1878 H -6.875" /><rect class="sym" height="6" width="6" x="-3" y="-3" /><text class="lab" transform="translate(0 11)">1</text></g><path class="edge" d="M 0 0 V -63.549 H 13.75" /><circle class="sym" cx="0" cy="0" r="3" /><text class="lab lft" transform="translate(-3 -7.0)">7</text></g><circle class="sym" cx="0" cy="0" r="3" /><text class="lab" transform="translate(0 -11)">11</text></g></g></g><g class="tree t7" transform="translate(685 0)"><g class="plotbox"><g class="c2 node n9 p1 root" transform="translate(47.5 89.175)"><g class="a9 c2 node n4 p0" transform="translate(13.75 31.9437)"><g class="a4 i1 leaf node n2 p0 sample" transform="translate(-6.875 0.281339)"><path class="edge" d="M 0 0 V -0.281339 H 6.875" /><rect class="sym" height="6" width="6" x="-3" y="-3" /><text class="lab" transform="translate(0 11)">2</text></g><g class="a4 i1 leaf node n3 p0 sample" transform="translate(6.875 0.281339)"><path class="edge" d="M 0 0 V -0.281339 H -6.875" /><rect class="sym" height="6" width="6" x="-3" y="-3" /><text class="lab" transform="translate(0 11)">3</text></g><path class="edge" d="M 0 0 V -31.9437 H -13.75" /><circle class="sym" cx="0" cy="0" r="3" /><text class="lab rgt" transform="translate(3 -7.0)">4</text></g><g class="a9 c2 node n7 p1" transform="translate(-13.75 15.0372)"><g class="a7 i0 leaf node n0 p0 sample" transform="translate(-6.875 17.1878)"><path class="edge" d="M 0 0 V -17.1878 H 6.875" /><rect class="sym" height="6" width="6" x="-3" y="-3" /><text class="lab" transform="translate(0 11)">0</text></g><g class="a7 i0 leaf node n1 p0 sample" transform="translate(6.875 17.1878)"><path class="edge" d="M 0 0 V -17.1878 H -6.875" /><rect class="sym" height="6" width="6" x="-3" y="-3" /><text class="lab" transform="translate(0 11)">1</text></g><path class="edge" d="M 0 0 V -15.0372 H 13.75" /><circle class="sym" cx="0" cy="0" r="3" /><text class="lab lft" transform="translate(-3 -7.0)">7</text></g><circle class="sym" cx="0" cy="0" r="3" /><text class="lab" transform="translate(0 -11)">9</text></g></g></g></g></g></svg>