<svg baseProfile="full" height="350" version="1.1" width="1000" xmlns="http://www.w3.org/2000/svg" xmlns:ev="http://www.w3.org/2001/xml-events" xmlns:xlink="http://www.w3.org/1999/xlink"><defs><style type="text/css"><![CDATA[.background path {fill: #808080; fill-opacity: 0}.background path:nth-child(odd) {fill-opacity: .1}.axes {font-size: 14px}.x-axis .tick .lab {font-weight: bold; dominant-baseline: hanging}.axes, .tree {font-size: 14px; text-anchor: middle}.axes line, .edge {stroke: black; fill: none}.axes .ax-skip {stroke-dasharray: 4}.y-axis .grid {stroke: #FAFAFA}.node > .sym {fill: black; stroke: none}.site > .sym {stroke: black}.mut text {fill: red; font-style: italic}.mut.extra text {fill: hotpink}.mut line {fill: none; stroke: none}.mut .sym {fill: none; stroke: red}.mut.extra .sym {stroke: hotpink}.node .mut .sym {stroke-width: 1.5px}.tree text, .tree-sequence text {dominant-baseline: central}.plotbox .lab.lft {text-anchor: end}.plotbox .lab.rgt {text-anchor: start}.tree .lab {font-family: sans-serif}.x-axis .tick .lab {text-anchor: start; dominant-baseline: central; transform: rotate(90deg)}.y-axis .grid {stroke: #DDDDDD}.tree :not(.leaf).node > .lab  {transform: translate(0,0); text-anchor:middle; fill: white}.tree :not(.leaf).node > .sym {transform: scale(3.5)}.tree .n0 > .sym {fill: hsl(260, 50%, 50%)}.tree .n1 > .sym {fill: hsl(260, 50%, 50%)}.tree .n2 > .sym {fill: hsl(260, 50%, 50%)}.tree .n3 > .sym {fill: hsl(260, 50%, 50%)}.tree .n4 > .sym {fill: hsl(260, 50%, 50%)}.tree .n5 > .sym {fill: hsl(260, 50%, 50%)}.tree .n6 > .sym {fill: hsl(260, 50%, 50%)}.tree .n7 > .sym {fill: hsl(246, 50%, 50%)}.tree .n8 > .sym {fill: hsl(232, 50%, 50%)}.tree .n9 > .sym {fill: hsl(194, 50%, 50%)}.tree .n10 > .sym {fill: hsl(192, 50%, 50%)}.tree .n11 > .sym {fill: hsl(159, 50%, 50%)}.tree .n12 > .sym {fill: hsl(135, 50%, 50%)}.tree .n13 > .sym {fill: hsl(58, 50%, 50%)}.tree .n14 > .sym {fill: hsl(0, 50%, 50%)}]]></style></defs><g class="tree-sequence"><g class="background"><path d="M56.8,0 l307.733,0 l0,288.2 l250.803,25 l0,5 l-558.536,0 l0,-5 l0,-25 l0,-288.2z" /><path d="M364.533,0 l307.733,0 l0,288.2 l105.553,25 l0,5 l-162.483,0 l0,-5 l-250.803,-25 l0,-288.2z" /><path d="M672.267,0 l307.733,0 l0,288.2 l0,25 l0,5 l-202.181,0 l0,-5 l-105.552,-25 l0,-288.2z" /></g><g class="axes"><g class="x-axis"><g class="title" transform="translate(518.4 350)"><text class="lab" text-anchor="middle" transform="translate(0 -11)">Genome position</text></g><line class="ax-line" x1="56.8" x2="980" y1="313.2" y2="313.2" /><g class="ticks"><g class="tick" transform="translate(56.8 313.2)"><line x1="0" x2="0" y1="0" y2="5" /><g transform="translate(0 6)"><text class="lab">0</text></g></g><g class="tick" transform="translate(615.336 313.2)"><line x1="0" x2="0" y1="0" y2="5" /><g transform="translate(0 6)"><text class="lab">605</text></g></g><g class="tick" transform="translate(777.819 313.2)"><line x1="0" x2="0" y1="0" y2="5" /><g transform="translate(0 6)"><text class="lab">781</text></g></g><g class="tick" transform="translate(980 313.2)"><line x1="0" x2="0" y1="0" y2="5" /><g transform="translate(0 6)"><text class="lab">1000</text></g></g></g></g><g class="y-axis"><g class="title" transform="translate(0 140.7)"><text class="lab" text-anchor="middle" transform="translate(11) rotate(-90)">Time (generations)</text></g><line class="ax-line" x1="56.8" x2="56.8" y1="271.4" y2="10" /><g class="ticks"><g class="tick" transform="translate(56.8 271.4)"><line class="grid" x1="0" x2="923.2" y1="0" y2="0" /><line x1="0" x2="-5" y1="0" y2="0" /><g transform="translate(-6 0)"><text class="lab" text-anchor="end">0.00</text></g></g><g class="tick" transform="translate(56.8 258.943)"><line class="grid" x1="0" x2="923.2" y1="0" y2="0" /><line x1="0" x2="-5" y1="0" y2="0" /><g transform="translate(-6 0)"><text class="lab" text-anchor="end">0.03</text></g></g><g class="tick" transform="translate(56.8 245.775)"><line class="grid" x1="0" x2="923.2" y1="0" y2="0" /><line x1="0" x2="-5" y1="0" y2="0" /><g transform="translate(-6 0)"><text class="lab" text-anchor="end">0.06</text></g></g><g class="tick" transform="translate(56.8 207.884)"><line class="grid" x1="0" x2="923.2" y1="0" y2="0" /><line x1="0" x2="-5" y1="0" y2="0" /><g transform="translate(-6 0)"><text class="lab" text-anchor="end">0.14</text></g></g><g class="tick" transform="translate(56.8 176.988)"><line class="grid" x1="0" x2="923.2" y1="0" y2="0" /><line x1="0" x2="-5" y1="0" y2="0" /><g transform="translate(-6 0)"><text class="lab" text-anchor="end">0.20</text></g></g><g class="tick" transform="translate(56.8 154.421)"><line class="grid" x1="0" x2="923.2" y1="0" y2="0" /><line x1="0" x2="-5" y1="0" y2="0" /><g transform="translate(-6 0)"><text class="lab" text-anchor="end">0.25</text></g></g><g class="tick" transform="translate(56.8 82.1667)"><line class="grid" x1="0" x2="923.2" y1="0" y2="0" /><line x1="0" x2="-5" y1="0" y2="0" /><g transform="translate(-6 0)"><text class="lab" text-anchor="end">0.41</text></g></g><g class="tick" transform="translate(56.8 26.8)"><line class="grid" x1="0" x2="923.2" y1="0" y2="0" /><line x1="0" x2="-5" y1="0" y2="0" /><g transform="translate(-6 0)"><text class="lab" text-anchor="end">0.53</text></g></g></g></g></g><g class="plotbox trees"><g class="tree t0" transform="translate(56.8 0)"><g class="plotbox"><g class="c2 node n14 p0 root" transform="translate(132.352 26.8)"><g class="a14 c2 node n12 p0" transform="translate(74.1048 127.621)"><g class="a12 c2 node n8 p0" transform="translate(-43.0286 91.3548)"><g class="a8 i4 leaf node n4 p0 sample" transform="translate(28.6857 25.6246)"><path class="edge" d="M 0 0 V -25.6246 H -28.6857" /><rect class="sym" height="6" width="6" x="-3" y="-3" /><text class="lab" transform="translate(0 11)">4</text></g><g class="a8 c2 node n7 p0" transform="translate(-28.6857 13.1674)"><g class="a7 i2 leaf node n2 p0 sample" transform="translate(-19.1238 12.4572)"><path class="edge" d="M 0 0 V -12.4572 H 19.1238" /><rect class="sym" height="6" width="6" x="-3" y="-3" /><text class="lab" transform="translate(0 11)">2</text></g><g class="a7 i3 leaf node n3 p0 sample" transform="translate(19.1238 12.4572)"><path class="edge" d="M 0 0 V -12.4572 H -19.1238" /><rect class="sym" height="6" width="6" x="-3" y="-3" /><text class="lab" transform="translate(0 11)">3</text></g><path class="edge" d="M 0 0 V -13.1674 H 28.6857" /><circle class="sym" cx="0" cy="0" r="3" /><text class="lab lft" transform="translate(-3 -7.0)">7</text></g><path class="edge" d="M 0 0 V -91.3548 H 43.0286" /><circle class="sym" cx="0" cy="0" r="3" /><text class="lab lft" transform="translate(-3 -7.0)">8</text></g><g class="a12 c2 node n9 p0" transform="translate(43.0286 55.382)"><g class="a9 i5 leaf node n5 p0 sample" transform="translate(-19.1238 61.5974)"><path class="edge" d="M 0 0 V -61.5974 H 19.1238" /><rect class="sym" height="6" width="6" x="-3" y="-3" /><text class="lab" transform="translate(0 11)">5</text></g><g class="a9 i6 leaf node n6 p0 sample" transform="translate(19.1238 61.5974)"><path class="edge" d="M 0 0 V -61.5974 H -19.1238" /><rect class="sym" height="6" width="6" x="-3" y="-3" /><text class="lab" transform="translate(0 11)">6</text></g><path class="edge" d="M 0 0 V -55.382 H -43.0286" /><circle class="sym" cx="0" cy="0" r="3" /><text class="lab rgt" transform="translate(3 -7.0)">9</text></g><path class="edge" d="M 0 0 V -127.621 H -74.1048" /><circle class="sym" cx="0" cy="0" r="3" /><text class="lab rgt" transform="translate(3 -7.0)">12</text></g><g class="a14 c2 node n13 p0" transform="translate(-74.1048 55.3667)"><g class="a13 i0 leaf node n0 p0 sample" transform="translate(-19.1238 189.233)"><path class="edge" d="M 0 0 V -189.233 H 19.1238" /><rect class="sym" height="6" width="6" x="-3" y="-3" /><text class="lab" transform="translate(0 11)">0</text></g><g class="a13 i1 leaf node n1 p0 sample" transform="translate(19.1238 189.233)"><path class="edge" d="M 0 0 V -189.233 H -19.1238" /><rect class="sym" height="6" width="6" x="-3" y="-3" /><text class="lab" transform="translate(0 11)">1</text></g><path class="edge" d="M 0 0 V -55.3667 H 74.1048" /><circle class="sym" cx="0" cy="0" r="3" /><text class="lab lft" transform="translate(-3 -7.0)">13</text></g><circle class="sym" cx="0" cy="0" r="3" /><text class="lab" transform="translate(0 -11)">14</text></g></g></g><g class="tree t1" transform="translate(364.533 0)"><g class="plotbox"><g class="c2 node n14 p0 root" transform="translate(146.695 26.8)"><g class="a14 c2 node n12 p0" transform="translate(74.1048 127.621)"><g class="a12 c2 node n9 p0" transform="translate(28.6857 55.382)"><g class="a9 i5 leaf node n5 p0 sample" transform="translate(-19.1238 61.5974)"><path class="edge" d="M 0 0 V -61.5974 H 19.1238" /><rect class="sym" height="6" width="6" x="-3" y="-3" /><text class="lab" transform="translate(0 11)">5</text></g><g class="a9 i6 leaf node n6 p0 sample" transform="translate(19.1238 61.5974)"><path class="edge" d="M 0 0 V -61.5974 H -19.1238" /><rect class="sym" height="6" width="6" x="-3" y="-3" /><text class="lab" transform="translate(0 11)">6</text></g><path class="edge" d="M 0 0 V -55.382 H -28.6857" /><circle class="sym" cx="0" cy="0" r="3" /><text class="lab rgt" transform="translate(3 -7.0)">9</text></g><g class="a12 i4 leaf node n4 p0 sample" transform="translate(-28.6857 116.979)"><path class="edge" d="M 0 0 V -116.979 H 28.6857" /><rect class="sym" height="6" width="6" x="-3" y="-3" /><text class="lab" transform="translate(0 11)">4</text></g><path class="edge" d="M 0 0 V -127.621 H -74.1048" /><circle class="sym" cx="0" cy="0" r="3" /><text class="lab rgt" transform="translate(3 -7.0)">12</text></g><g class="a14 c2 node n13 p0" transform="translate(-74.1048 55.3667)"><g class="a13 i0 leaf node n0 p0 sample" transform="translate(-33.4667 189.233)"><path class="edge" d="M 0 0 V -189.233 H 33.4667" /><rect class="sym" height="6" width="6" x="-3" y="-3" /><text class="lab" transform="translate(0 11)">0</text></g><g class="a13 c2 node n11 p0" transform="translate(33.4667 94.8217)"><g class="a11 i1 leaf node n1 p0 sample" transform="translate(-28.6857 94.4116)"><path class="edge" d="M 0 0 V -94.4116 H 28.6857" /><rect class="sym" height="6" width="6" x="-3" y="-3" /><text class="lab" transform="translate(0 11)">1</text></g><g class="a11 c2 node n7 p0" transform="translate(28.6857 81.9544)"><g class="a7 i2 leaf node n2 p0 sample" transform="translate(-19.1238 12.4572)"><path class="edge" d="M 0 0 V -12.4572 H 19.1238" /><rect class="sym" height="6" width="6" x="-3" y="-3" /><text class="lab" transform="translate(0 11)">2</text></g><g class="a7 i3 leaf node n3 p0 sample" transform="translate(19.1238 12.4572)"><path class="edge" d="M 0 0 V -12.4572 H -19.1238" /><rect class="sym" height="6" width="6" x="-3" y="-3" /><text class="lab" transform="translate(0 11)">3</text></g><path class="edge" d="M 0 0 V -81.9544 H -28.6857" /><circle class="sym" cx="0" cy="0" r="3" /><text class="lab rgt" transform="translate(3 -7.0)">7</text></g><path class="edge" d="M 0 0 V -94.8217 H -33.4667" /><circle class="sym" cx="0" cy="0" r="3" /><text class="lab rgt" transform="translate(3 -7.0)">11</text></g><path class="edge" d="M 0 0 V -55.3667 H 74.1048" /><circle class="sym" cx="0" cy="0" r="3" /><text class="lab lft" transform="translate(-3 -7.0)">13</text></g><circle class="sym" cx="0" cy="0" r="3" /><text class="lab" transform="translate(0 -11)">14</text></g></g></g><g class="tree t2" transform="translate(672.267 0)"><g class="plotbox"><g class="c2 node n14 p0 root" transform="translate(146.695 26.8)"><g class="a14 c2 node n13 p0" transform="translate(-74.1048 55.3667)"><g class="a13 i0 leaf node n0 p0 sample" transform="translate(-33.4667 189.233)"><path class="edge" d="M 0 0 V -189.233 H 33.4667" /><rect class="sym" height="6" width="6" x="-3" y="-3" /><text class="lab" transform="translate(0 11)">0</text></g><g class="a13 c2 node n11 p0" transform="translate(33.4667 94.8217)"><g class="a11 i1 leaf node n1 p0 sample" transform="translate(-28.6857 94.4116)"><path class="edge" d="M 0 0 V -94.4116 H 28.6857" /><rect class="sym" height="6" width="6" x="-3" y="-3" /><text class="lab" transform="translate(0 11)">1</text></g><g class="a11 c2 node n7 p0" transform="translate(28.6857 81.9544)"><g class="a7 i2 leaf node n2 p0 sample" transform="translate(-19.1238 12.4572)"><path class="edge" d="M 0 0 V -12.4572 H 19.1238" /><rect class="sym" height="6" width="6" x="-3" y="-3" /><text class="lab" transform="translate(0 11)">2</text></g><g class="a7 i3 leaf node n3 p0 sample" transform="translate(19.1238 12.4572)"><path class="edge" d="M 0 0 V -12.4572 H -19.1238" /><rect class="sym" height="6" width="6" x="-3" y="-3" /><text class="lab" transform="translate(0 11)">3</text></g><path class="edge" d="M 0 0 V -81.9544 H -28.6857" /><circle class="sym" cx="0" cy="0" r="3" /><text class="lab rgt" transform="translate(3 -7.0)">7</text></g><path class="edge" d="M 0 0 V -94.8217 H -33.4667" /><circle class="sym" cx="0" cy="0" r="3" /><text class="lab rgt" transform="translate(3 -7.0)">11</text></g><path class="edge" d="M 0 0 V -55.3667 H 74.1048" /><circle class="sym" cx="0" cy="0" r="3" /><text class="lab lft" transform="translate(-3 -7.0)">13</text></g><g class="a14 c2 node n10 p0" transform="translate(74.1048 181.084)"><g class="a10 i4 leaf node n4 p0 sample" transform="translate(-28.6857 63.5158)"><path class="edge" d="M 0 0 V -63.5158 H 28.6857" /><rect class="sym" height="6" width="6" x="-3" y="-3" /><text class="lab" transform="translate(0 11)">4</text></g><g class="a10 c2 node n9 p0" transform="translate(28.6857 1.91843)"><g class="a9 i5 leaf node n5 p0 sample" transform="translate(-19.1238 61.5974)"><path class="edge" d="M 0 0 V -61.5974 H 19.1238" /><rect class="sym" height="6" width="6" x="-3" y="-3" /><text class="lab" transform="translate(0 11)">5</text></g><g class="a9 i6 leaf node n6 p0 sample" transform="translate(19.1238 61.5974)"><path class="edge" d="M 0 0 V -61.5974 H -19.1238" /><rect class="sym" height="6" width="6" x="-3" y="-3" /><text class="lab" transform="translate(0 11)">6</text></g><path class="edge" d="M 0 0 V -1.91843 H -28.6857" /><circle class="sym" cx="0" cy="0" r="3" /><text class="lab rgt" transform="translate(3 -7.0)">9</text></g><path class="edge" d="M 0 0 V -181.084 H -74.1048" /><circle class="sym" cx="0" cy="0" r="3" /><text class="lab rgt" transform="translate(3 -7.0)">10</text></g><circle class="sym" cx="0" cy="0" r="3" /><text class="lab" transform="translate(0 -11)">14</text></g></g></g></g></g></svg>