<svg baseProfile="full" height="250" version="1.1" width="800" xmlns="http://www.w3.org/2000/svg" xmlns:ev="http://www.w3.org/2001/xml-events" xmlns:xlink="http://www.w3.org/1999/xlink"><defs><style type="text/css"><![CDATA[.background path {fill: #808080; fill-opacity: 0}.background path:nth-child(odd) {fill-opacity: .1}.axes {font-size: 14px}.x-axis .tick .lab {font-weight: bold; dominant-baseline: hanging}.axes, .tree {font-size: 14px; text-anchor: middle}.axes line, .edge {stroke: black; fill: none}.axes .ax-skip {stroke-dasharray: 4}.y-axis .grid {stroke: #FAFAFA}.node > .sym {fill: black; stroke: none}.site > .sym {stroke: black}.mut text {fill: red; font-style: italic}.mut.extra text {fill: hotpink}.mut line {fill: none; stroke: none}.mut .sym {fill: none; stroke: red}.mut.extra .sym {stroke: hotpink}.node .mut .sym {stroke-width: 1.5px}.tree text, .tree-sequence text {dominant-baseline: central}.plotbox .lab.lft {text-anchor: end}.plotbox .lab.rgt {text-anchor: start}.node:not(.sample) > .sym, .node:not(.sample) > .lab {visibility: hidden;}.mut {font-size: 12px} .y-axis .tick .lab {font-size: 85%}]]></style></defs><g class="tree-sequence"><g class="background"><path d="M56.8,0 l241.067,0 l0,188.2 l-104.382,25 l0,5 l-136.685,0 l0,-5 l0,-25 l0,-188.2z" /><path d="M297.867,0 l241.067,0 l0,188.2 l-87.2661,25 l0,5 l-258.182,0 l0,-5 l104.382,-25 l0,-188.2z" /><path d="M538.933,0 l241.067,0 l0,188.2 l0,25 l0,5 l-328.333,0 l0,-5 l87.266,-25 l0,-188.2z" /></g><g class="axes"><g class="x-axis"><g class="title" transform="translate(418.4 250)"><text class="lab" text-anchor="middle" transform="translate(0 -11)">Genome position</text></g><line class="ax-line" x1="56.8" x2="780" y1="213.2" y2="213.2" /><g class="ticks"><g class="tick" transform="translate(56.8 213.2)"><line x1="0" x2="0" y1="0" y2="5" /><g transform="translate(0 6)"><text class="lab">0</text></g></g><g class="tick" transform="translate(193.485 213.2)"><line x1="0" x2="0" y1="0" y2="5" /><g transform="translate(0 6)"><text class="lab">189</text></g></g><g class="tick" transform="translate(451.667 213.2)"><line x1="0" x2="0" y1="0" y2="5" /><g transform="translate(0 6)"><text class="lab">546</text></g></g><g class="tick" transform="translate(780 213.2)"><line x1="0" x2="0" y1="0" y2="5" /><g transform="translate(0 6)"><text class="lab">1000</text></g></g></g></g><g class="y-axis"><g class="title" transform="translate(0 90.7)"><text class="lab" text-anchor="middle" transform="translate(11) rotate(-90)">Time ago</text></g><line class="ax-line" x1="56.8" x2="56.8" y1="171.4" y2="10" /><g class="ticks"><g class="tick" transform="translate(56.8 171.4)"><line x1="0" x2="-5" y1="0" y2="0" /><g transform="translate(-6 0)"><text class="lab" text-anchor="end">0</text></g></g><g class="tick" transform="translate(56.8 134.696)"><line x1="0" x2="-5" y1="0" y2="0" /><g transform="translate(-6 0)"><text class="lab" text-anchor="end">5000</text></g></g><g class="tick" transform="translate(56.8 97.9912)"><line x1="0" x2="-5" y1="0" y2="0" /><g transform="translate(-6 0)"><text class="lab" text-anchor="end">10000</text></g></g><g class="tick" transform="translate(56.8 61.2867)"><line x1="0" x2="-5" y1="0" y2="0" /><g transform="translate(-6 0)"><text class="lab" text-anchor="end">15000</text></g></g><g class="tick" transform="translate(56.8 24.5823)"><line x1="0" x2="-5" y1="0" y2="0" /><g transform="translate(-6 0)"><text class="lab" text-anchor="end">20000</text></g></g></g></g></g><g class="plotbox trees"><g class="tree t0" transform="translate(56.8 0)"><g class="plotbox"><g class="c2 node n20 p0 root" transform="translate(149.751 26.8)"><g class="a20 c2 node n14 p0" transform="translate(46.1825 121.107)"><g class="a14 i3 leaf node n6 p2 sample" transform="translate(15.08 23.4927)"><path class="edge" d="M 0 0 V -23.4927 H -15.08" /><rect class="sym" height="6" width="6" x="-3" y="-3" /><text class="lab" transform="translate(0 11)">j</text></g><g class="a14 c2 node n13 p0" transform="translate(-15.08 13.0082)"><g class="a13 i0 leaf node n1 p1 sample" transform="translate(-10.0533 10.4845)"><path class="edge" d="M 0 0 V -10.4845 H 10.0533" /><rect class="sym" height="6" width="6" x="-3" y="-3" /><text class="lab" transform="translate(0 11)">h</text></g><g class="a13 i3 leaf node n7 p2 sample" transform="translate(10.0533 10.4845)"><path class="edge" d="M 0 0 V -10.4845 H -10.0533" /><rect class="sym" height="6" width="6" x="-3" y="-3" /><text class="lab" transform="translate(0 11)">i</text></g><path class="edge" d="M 0 0 V -13.0082 H 15.08" /><circle class="sym" cx="0" cy="0" r="3" /><text class="lab lft" transform="translate(-3 -7.0)">n</text></g><path class="edge" d="M 0 0 V -121.107 H -46.1825" /><circle class="sym" cx="0" cy="0" r="3" /><text class="lab rgt" transform="translate(3 -7.0)">o</text></g><g class="a20 c2 node n19 p0" transform="translate(-46.1825 56.0698)"><g class="a19 i2 leaf node n5 p2 sample" transform="translate(47.125 88.5302)"><path class="edge" d="M 0 0 V -88.5302 H -47.125" /><rect class="sym" height="6" width="6" x="-3" y="-3" /><text class="lab" transform="translate(0 11)">g</text></g><g class="a19 c2 node n17 p0" transform="translate(-47.125 16.8039)"><g class="a17 i0 leaf node n0 p1 sample" transform="translate(-26.39 71.7263)"><path class="edge" d="M 0 0 V -71.7263 H 26.39" /><rect class="sym" height="6" width="6" x="-3" y="-3" /><text class="lab" transform="translate(0 11)">a</text></g><g class="a17 c2 node n15 p0" transform="translate(26.39 48.119)"><g class="a15 c2 node n11 p2" transform="translate(22.62 20.3069)"><g class="a11 i2 leaf node n4 p2 sample" transform="translate(-15.08 3.30029)"><path class="edge" d="M 0 0 V -3.30029 H 15.08" /><rect class="sym" height="6" width="6" x="-3" y="-3" /><text class="lab" transform="translate(0 11)">d</text></g><g class="a11 c2 node n10 p2" transform="translate(15.08 0.5326)"><g class="a10 i4 leaf node n8 p2 sample" transform="translate(-10.0533 2.76769)"><path class="edge" d="M 0 0 V -2.76769 H 10.0533" /><rect class="sym" height="6" width="6" x="-3" y="-3" /><text class="lab" transform="translate(0 11)">e</text></g><g class="a10 i4 leaf node n9 p2 sample" transform="translate(10.0533 2.76769)"><path class="edge" d="M 0 0 V -2.76769 H -10.0533" /><rect class="sym" height="6" width="6" x="-3" y="-3" /><text class="lab" transform="translate(0 11)">f</text></g><path class="edge" d="M 0 0 V -0.5326 H -15.08" /><circle class="sym" cx="0" cy="0" r="3" /><text class="lab rgt" transform="translate(3 -7.0)">k</text></g><path class="edge" d="M 0 0 V -20.3069 H -22.62" /><circle class="sym" cx="0" cy="0" r="3" /><text class="lab rgt" transform="translate(3 -7.0)">l</text></g><g class="a15 c2 node n12 p0" transform="translate(-22.62 14.4347)"><g class="a12 i1 leaf node n2 p1 sample" transform="translate(-10.0533 9.17257)"><path class="edge" d="M 0 0 V -9.17257 H 10.0533" /><rect class="sym" height="6" width="6" x="-3" y="-3" /><text class="lab" transform="translate(0 11)">b</text></g><g class="a12 i1 leaf node n3 p1 sample" transform="translate(10.0533 9.17257)"><path class="edge" d="M 0 0 V -9.17257 H -10.0533" /><rect class="sym" height="6" width="6" x="-3" y="-3" /><text class="lab" transform="translate(0 11)">c</text></g><path class="edge" d="M 0 0 V -14.4347 H 22.62" /><circle class="sym" cx="0" cy="0" r="3" /><text class="lab lft" transform="translate(-3 -7.0)">m</text></g><path class="edge" d="M 0 0 V -48.119 H -26.39" /><circle class="sym" cx="0" cy="0" r="3" /><text class="lab rgt" transform="translate(3 -7.0)">p</text></g><path class="edge" d="M 0 0 V -16.8039 H 47.125" /><circle class="sym" cx="0" cy="0" r="3" /><text class="lab lft" transform="translate(-3 -7.0)">r</text></g><path class="edge" d="M 0 0 V -56.0698 H 46.1825" /><circle class="sym" cx="0" cy="0" r="3" /><text class="lab lft" transform="translate(-3 -7.0)">t</text></g><circle class="sym" cx="0" cy="0" r="3" /><text class="lab" transform="translate(0 -11)">u</text></g></g></g><g class="tree t1" transform="translate(297.867 0)"><g class="plotbox"><g class="c2 node n20 p0 root" transform="translate(134.671 26.8)"><g class="a20 c2 node n14 p0" transform="translate(61.2625 121.107)"><g class="a14 i3 leaf node n6 p2 sample" transform="translate(15.08 23.4927)"><path class="edge" d="M 0 0 V -23.4927 H -15.08" /><rect class="sym" height="6" width="6" x="-3" y="-3" /><text class="lab" transform="translate(0 11)">j</text></g><g class="a14 c2 node n13 p0" transform="translate(-15.08 13.0082)"><g class="a13 i0 leaf node n1 p1 sample" transform="translate(-10.0533 10.4845)"><path class="edge" d="M 0 0 V -10.4845 H 10.0533" /><rect class="sym" height="6" width="6" x="-3" y="-3" /><text class="lab" transform="translate(0 11)">h</text></g><g class="a13 i3 leaf node n7 p2 sample" transform="translate(10.0533 10.4845)"><path class="edge" d="M 0 0 V -10.4845 H -10.0533" /><rect class="sym" height="6" width="6" x="-3" y="-3" /><text class="lab" transform="translate(0 11)">i</text></g><path class="edge" d="M 0 0 V -13.0082 H 15.08" /><circle class="sym" cx="0" cy="0" r="3" /><text class="lab lft" transform="translate(-3 -7.0)">n</text></g><path class="edge" d="M 0 0 V -121.107 H -61.2625" /><circle class="sym" cx="0" cy="0" r="3" /><text class="lab rgt" transform="translate(3 -7.0)">o</text></g><g class="a20 c2 node n19 p0" transform="translate(-61.2625 56.0698)"><g class="a19 i0 leaf node n0 p1 sample" transform="translate(-43.355 88.5302)"><path class="edge" d="M 0 0 V -88.5302 H 43.355" /><rect class="sym" height="6" width="6" x="-3" y="-3" /><text class="lab" transform="translate(0 11)">a</text></g><g class="a19 c2 node n18 p0" transform="translate(43.355 13.8521)"><g class="a18 i2 leaf node n5 p2 sample" transform="translate(33.93 74.678)"><path class="edge" d="M 0 0 V -74.678 H -33.93" /><rect class="sym" height="6" width="6" x="-3" y="-3" /><text class="lab" transform="translate(0 11)">g</text></g><g class="a18 c2 node n15 p0" transform="translate(-33.93 51.0708)"><g class="a15 c2 node n11 p2" transform="translate(22.62 20.3069)"><g class="a11 i2 leaf node n4 p2 sample" transform="translate(-15.08 3.30029)"><path class="edge" d="M 0 0 V -3.30029 H 15.08" /><rect class="sym" height="6" width="6" x="-3" y="-3" /><text class="lab" transform="translate(0 11)">d</text></g><g class="a11 c2 node n10 p2" transform="translate(15.08 0.5326)"><g class="a10 i4 leaf node n8 p2 sample" transform="translate(-10.0533 2.76769)"><path class="edge" d="M 0 0 V -2.76769 H 10.0533" /><rect class="sym" height="6" width="6" x="-3" y="-3" /><text class="lab" transform="translate(0 11)">e</text></g><g class="a10 i4 leaf node n9 p2 sample" transform="translate(10.0533 2.76769)"><path class="edge" d="M 0 0 V -2.76769 H -10.0533" /><rect class="sym" height="6" width="6" x="-3" y="-3" /><text class="lab" transform="translate(0 11)">f</text></g><path class="edge" d="M 0 0 V -0.5326 H -15.08" /><circle class="sym" cx="0" cy="0" r="3" /><text class="lab rgt" transform="translate(3 -7.0)">k</text></g><path class="edge" d="M 0 0 V -20.3069 H -22.62" /><circle class="sym" cx="0" cy="0" r="3" /><text class="lab rgt" transform="translate(3 -7.0)">l</text></g><g class="a15 c2 node n12 p0" transform="translate(-22.62 14.4347)"><g class="a12 i1 leaf node n2 p1 sample" transform="translate(-10.0533 9.17257)"><path class="edge" d="M 0 0 V -9.17257 H 10.0533" /><rect class="sym" height="6" width="6" x="-3" y="-3" /><text class="lab" transform="translate(0 11)">b</text></g><g class="a12 i1 leaf node n3 p1 sample" transform="translate(10.0533 9.17257)"><path class="edge" d="M 0 0 V -9.17257 H -10.0533" /><rect class="sym" height="6" width="6" x="-3" y="-3" /><text class="lab" transform="translate(0 11)">c</text></g><path class="edge" d="M 0 0 V -14.4347 H 22.62" /><circle class="sym" cx="0" cy="0" r="3" /><text class="lab lft" transform="translate(-3 -7.0)">m</text></g><path class="edge" d="M 0 0 V -51.0708 H 33.93" /><circle class="sym" cx="0" cy="0" r="3" /><text class="lab lft" transform="translate(-3 -7.0)">p</text></g><path class="edge" d="M 0 0 V -13.8521 H -43.355" /><circle class="sym" cx="0" cy="0" r="3" /><text class="lab rgt" transform="translate(3 -7.0)">s</text></g><path class="edge" d="M 0 0 V -56.0698 H 61.2625" /><circle class="sym" cx="0" cy="0" r="3" /><text class="lab lft" transform="translate(-3 -7.0)">t</text></g><circle class="sym" cx="0" cy="0" r="3" /><text class="lab" transform="translate(0 -11)">u</text></g></g></g><g class="tree t2" transform="translate(538.933 0)"><g class="plotbox"><g class="c2 node n20 p0 root" transform="translate(149.751 26.8)"><g class="a20 c2 node n14 p0" transform="translate(46.1825 121.107)"><g class="a14 i3 leaf node n6 p2 sample" transform="translate(15.08 23.4927)"><path class="edge" d="M 0 0 V -23.4927 H -15.08" /><rect class="sym" height="6" width="6" x="-3" y="-3" /><text class="lab" transform="translate(0 11)">j</text></g><g class="a14 c2 node n13 p0" transform="translate(-15.08 13.0082)"><g class="a13 i0 leaf node n1 p1 sample" transform="translate(-10.0533 10.4845)"><path class="edge" d="M 0 0 V -10.4845 H 10.0533" /><rect class="sym" height="6" width="6" x="-3" y="-3" /><text class="lab" transform="translate(0 11)">h</text></g><g class="a13 i3 leaf node n7 p2 sample" transform="translate(10.0533 10.4845)"><path class="edge" d="M 0 0 V -10.4845 H -10.0533" /><rect class="sym" height="6" width="6" x="-3" y="-3" /><text class="lab" transform="translate(0 11)">i</text></g><path class="edge" d="M 0 0 V -13.0082 H 15.08" /><circle class="sym" cx="0" cy="0" r="3" /><text class="lab lft" transform="translate(-3 -7.0)">n</text></g><path class="edge" d="M 0 0 V -121.107 H -46.1825" /><circle class="sym" cx="0" cy="0" r="3" /><text class="lab rgt" transform="translate(3 -7.0)">o</text></g><g class="a20 c2 node n18 p0" transform="translate(-46.1825 69.922)"><g class="a18 i2 leaf node n5 p2 sample" transform="translate(47.125 74.678)"><path class="edge" d="M 0 0 V -74.678 H -47.125" /><rect class="sym" height="6" width="6" x="-3" y="-3" /><text class="lab" transform="translate(0 11)">g</text></g><g class="a18 c2 node n16 p0" transform="translate(-47.125 46.8197)"><g class="a16 i0 leaf node n0 p1 sample" transform="translate(-26.39 27.8584)"><path class="edge" d="M 0 0 V -27.8584 H 26.39" /><rect class="sym" height="6" width="6" x="-3" y="-3" /><text class="lab" transform="translate(0 11)">a</text></g><g class="a16 c2 node n15 p0" transform="translate(26.39 4.25116)"><g class="a15 c2 node n11 p2" transform="translate(22.62 20.3069)"><g class="a11 i2 leaf node n4 p2 sample" transform="translate(-15.08 3.30029)"><path class="edge" d="M 0 0 V -3.30029 H 15.08" /><rect class="sym" height="6" width="6" x="-3" y="-3" /><text class="lab" transform="translate(0 11)">d</text></g><g class="a11 c2 node n10 p2" transform="translate(15.08 0.5326)"><g class="a10 i4 leaf node n8 p2 sample" transform="translate(-10.0533 2.76769)"><path class="edge" d="M 0 0 V -2.76769 H 10.0533" /><rect class="sym" height="6" width="6" x="-3" y="-3" /><text class="lab" transform="translate(0 11)">e</text></g><g class="a10 i4 leaf node n9 p2 sample" transform="translate(10.0533 2.76769)"><path class="edge" d="M 0 0 V -2.76769 H -10.0533" /><rect class="sym" height="6" width="6" x="-3" y="-3" /><text class="lab" transform="translate(0 11)">f</text></g><path class="edge" d="M 0 0 V -0.5326 H -15.08" /><circle class="sym" cx="0" cy="0" r="3" /><text class="lab rgt" transform="translate(3 -7.0)">k</text></g><path class="edge" d="M 0 0 V -20.3069 H -22.62" /><circle class="sym" cx="0" cy="0" r="3" /><text class="lab rgt" transform="translate(3 -7.0)">l</text></g><g class="a15 c2 node n12 p0" transform="translate(-22.62 14.4347)"><g class="a12 i1 leaf node n2 p1 sample" transform="translate(-10.0533 9.17257)"><path class="edge" d="M 0 0 V -9.17257 H 10.0533" /><rect class="sym" height="6" width="6" x="-3" y="-3" /><text class="lab" transform="translate(0 11)">b</text></g><g class="a12 i1 leaf node n3 p1 sample" transform="translate(10.0533 9.17257)"><path class="edge" d="M 0 0 V -9.17257 H -10.0533" /><rect class="sym" height="6" width="6" x="-3" y="-3" /><text class="lab" transform="translate(0 11)">c</text></g><path class="edge" d="M 0 0 V -14.4347 H 22.62" /><circle class="sym" cx="0" cy="0" r="3" /><text class="lab lft" transform="translate(-3 -7.0)">m</text></g><path class="edge" d="M 0 0 V -4.25116 H -26.39" /><circle class="sym" cx="0" cy="0" r="3" /><text class="lab rgt" transform="translate(3 -7.0)">p</text></g><path class="edge" d="M 0 0 V -46.8197 H 47.125" /><circle class="sym" cx="0" cy="0" r="3" /><text class="lab lft" transform="translate(-3 -7.0)">q</text></g><path class="edge" d="M 0 0 V -69.922 H 46.1825" /><circle class="sym" cx="0" cy="0" r="3" /><text class="lab lft" transform="translate(-3 -7.0)">s</text></g><circle class="sym" cx="0" cy="0" r="3" /><text class="lab" transform="translate(0 -11)">u</text></g></g></g></g></g></svg>