<svg baseProfile="full" height="200" version="1.1" width="200" xmlns="http://www.w3.org/2000/svg" xmlns:ev="http://www.w3.org/2001/xml-events" xmlns:xlink="http://www.w3.org/1999/xlink"><defs><style type="text/css"><![CDATA[.background path {fill: #808080; fill-opacity: 0}.background path:nth-child(odd) {fill-opacity: .1}.axes {font-size: 14px}.x-axis .tick .lab {font-weight: bold; dominant-baseline: hanging}.axes, .tree {font-size: 14px; text-anchor: middle}.axes line, .edge {stroke: black; fill: none}.axes .ax-skip {stroke-dasharray: 4}.y-axis .grid {stroke: #FAFAFA}.node > .sym {fill: black; stroke: none}.site > .sym {stroke: black}.mut text {fill: red; font-style: italic}.mut.extra text {fill: hotpink}.mut line {fill: none; stroke: none}.mut .sym {fill: none; stroke: red}.mut.extra .sym {stroke: hotpink}.node .mut .sym {stroke-width: 1.5px}.tree text, .tree-sequence text {dominant-baseline: central}.plotbox .lab.lft {text-anchor: end}.plotbox .lab.rgt {text-anchor: start}]]></style></defs><g class="tree t0"><g class="plotbox"><g class="c2 node n10 p0 root" transform="translate(121.667 26.8)"><g class="a10 c2 node n7 p0" transform="translate(31.6667 125.565)"><g class="a7 leaf node n2 p0 sample" transform="translate(-13.3333 15.8352)"><path class="edge" d="M 0 0 V -15.8352 H 13.3333" /><rect class="sym" height="6" style="fill:red;" width="6" x="-3" y="-3" /><text class="lab" transform="translate(0 11)">2</text></g><g class="a7 leaf node n3 p0 sample" transform="translate(13.3333 15.8352)"><path class="edge" d="M 0 0 V -15.8352 H -13.3333" /><rect class="sym" height="6" style="fill:red;" width="6" x="-3" y="-3" /><text class="lab" transform="translate(0 11)">3</text></g><path class="edge" d="M 0 0 V -125.565 H -31.6667" /><circle class="sym" cx="0" cy="0" r="3" /><text class="lab rgt" transform="translate(3 -7.0)">7</text></g><g class="a10 c2 node n9 p0" transform="translate(-31.6667 18.3816)"><g class="a9 leaf node n5 p0 sample" transform="translate(23.3333 123.018)"><path class="edge" d="M 0 0 V -123.018 H -23.3333" /><rect class="sym" height="6" style="fill:red;" width="6" x="-3" y="-3" /><text class="lab" transform="translate(0 11)">5</text></g><g class="a9 c2 node n8 p0" transform="translate(-23.3333 60.4427)"><g class="a8 leaf node n4 p0 sample" transform="translate(20 62.5757)"><path class="edge" d="M 0 0 V -62.5757 H -20" /><rect class="sym" height="6" style="fill:red;" width="6" x="-3" y="-3" /><text class="lab" transform="translate(0 11)">4</text></g><g class="a8 c2 node n6 p0" transform="translate(-20 52.9655)"><g class="a6 leaf node n0 p0 sample" transform="translate(-13.3333 9.61016)"><path class="edge" d="M 0 0 V -9.61016 H 13.3333" /><rect class="sym" height="6" style="fill:blue;" width="6" x="-3" y="-3" /><text class="lab" transform="translate(0 11)">0</text></g><g class="a6 leaf node n1 p0 sample" transform="translate(13.3333 9.61016)"><path class="edge" d="M 0 0 V -9.61016 H -13.3333" /><rect class="sym" height="6" style="fill:white;" width="6" x="-3" y="-3" /><text class="lab" transform="translate(0 11)">1</text></g><path class="edge" d="M 0 0 V -52.9655 H 20" /><circle class="sym" cx="0" cy="0" r="3" /><text class="lab lft" transform="translate(-3 -7.0)">6</text></g><path class="edge" d="M 0 0 V -60.4427 H 23.3333" /><circle class="sym" cx="0" cy="0" r="3" /><text class="lab lft" transform="translate(-3 -7.0)">8</text></g><path class="edge" d="M 0 0 V -18.3816 H 31.6667" /><circle class="sym" cx="0" cy="0" r="3" /><text class="lab lft" transform="translate(-3 -7.0)">9</text></g><circle class="sym" cx="0" cy="0" r="3" /><text class="lab" transform="translate(0 -11)">10</text></g></g></g></svg>