<svg baseProfile="full" height="300" version="1.1" width="500" xmlns="http://www.w3.org/2000/svg" xmlns:ev="http://www.w3.org/2001/xml-events" xmlns:xlink="http://www.w3.org/1999/xlink"><defs><style type="text/css"><![CDATA[.background path {fill: #808080; fill-opacity: 0}.background path:nth-child(odd) {fill-opacity: .1}.axes {font-size: 14px}.x-axis .tick .lab {font-weight: bold; dominant-baseline: hanging}.axes, .tree {font-size: 14px; text-anchor: middle}.axes line, .edge {stroke: black; fill: none}.axes .ax-skip {stroke-dasharray: 4}.y-axis .grid {stroke: #FAFAFA}.node > .sym {fill: black; stroke: none}.site > .sym {stroke: black}.mut text {fill: red; font-style: italic}.mut.extra text {fill: hotpink}.mut line {fill: none; stroke: none}.mut .sym {fill: none; stroke: red}.mut.extra .sym {stroke: hotpink}.node .mut .sym {stroke-width: 1.5px}.tree text, .tree-sequence text {dominant-baseline: central}.plotbox .lab.lft {text-anchor: end}.plotbox .lab.rgt {text-anchor: start}]]></style></defs><g class="tree-sequence"><g class="background"><path d="M20,0 l460,0 l0,238.2 l-5.68434e-14,25 l0,5 l-460,0 l0,-5 l0,-25 l0,-238.2z" /></g><g class="axes"><g class="x-axis"><g class="title" transform="translate(250 300)"><text class="lab" text-anchor="middle" transform="translate(0 -11)">Genome position</text></g><line class="ax-line" x1="20" x2="480" y1="263.2" y2="263.2" /><g class="ticks"><g class="tick" transform="translate(20 263.2)"><line x1="0" x2="0" y1="0" y2="5" /><g transform="translate(0 6)"><text class="lab">0</text></g></g><g class="tick" transform="translate(480 263.2)"><line x1="0" x2="0" y1="0" y2="5" /><g transform="translate(0 6)"><text class="lab">100</text></g></g></g><g class="site s0" transform="translate(58.5142 263.2)"><line class="sym" x1="0" x2="0" y1="0" y2="-10" /><g class="mut m0"><polyline class="sym" points="2.5,-6.5 0,-1.5 -2.5,-6.5" /></g></g><g class="site s1" transform="translate(132.589 263.2)"><line class="sym" x1="0" x2="0" y1="0" y2="-10" /><g class="mut m1"><polyline class="sym" points="2.5,-6.5 0,-1.5 -2.5,-6.5" /></g></g><g class="site s2" transform="translate(177.862 263.2)"><line class="sym" x1="0" x2="0" y1="0" y2="-10" /><g class="mut m2"><polyline class="sym" points="2.5,-6.5 0,-1.5 -2.5,-6.5" /></g></g><g class="site s3" transform="translate(200.374 263.2)"><line class="sym" x1="0" x2="0" y1="0" y2="-10" /><g class="mut m3"><polyline class="sym" points="2.5,-6.5 0,-1.5 -2.5,-6.5" /></g></g><g class="site s4" transform="translate(222.518 263.2)"><line class="sym" x1="0" x2="0" y1="0" y2="-10" /><g class="mut m4"><polyline class="sym" points="2.5,-6.5 0,-1.5 -2.5,-6.5" /></g></g><g class="site s5" transform="translate(241.229 263.2)"><line class="sym" x1="0" x2="0" y1="0" y2="-10" /><g class="mut m5"><polyline class="sym" points="2.5,-6.5 0,-1.5 -2.5,-6.5" /></g></g><g class="site s6" transform="translate(335.022 263.2)"><line class="sym" x1="0" x2="0" y1="0" y2="-10" /><g class="mut m6"><polyline class="sym" points="2.5,-6.5 0,-1.5 -2.5,-6.5" /></g></g><g class="site s7" transform="translate(339.587 263.2)"><line class="sym" x1="0" x2="0" y1="0" y2="-10" /><g class="mut m7"><polyline class="sym" points="2.5,-6.5 0,-1.5 -2.5,-6.5" /></g></g><g class="site s8" transform="translate(347.672 263.2)"><line class="sym" x1="0" x2="0" y1="0" y2="-10" /><g class="mut m8"><polyline class="sym" points="2.5,-6.5 0,-1.5 -2.5,-6.5" /></g></g><g class="site s9" transform="translate(350.809 263.2)"><line class="sym" x1="0" x2="0" y1="0" y2="-10" /><g class="mut m9"><polyline class="sym" points="2.5,-6.5 0,-1.5 -2.5,-6.5" /></g></g></g></g><g class="plotbox trees"><g class="tree t0" transform="translate(20 0)"><g class="plotbox"><g class="c2 node n10 p0 root" transform="translate(195 26.8)"><g class="a10 c2 m0 m4 m8 node n6 p0 s0 s4 s8" transform="translate(-105 155.68)"><g class="a6 i0 leaf node n0 p0 sample" transform="translate(-35 38.92)"><path class="edge" d="M 0 0 V -38.92 H 35" /><rect class="sym" height="6" width="6" x="-3" y="-3" /><text class="lab" transform="translate(0 11)">0</text></g><g class="a6 i0 leaf node n1 p0 sample" transform="translate(35 38.92)"><path class="edge" d="M 0 0 V -38.92 H -35" /><rect class="sym" height="6" width="6" x="-3" y="-3" /><text class="lab" transform="translate(0 11)">1</text></g><path class="edge" d="M 0 0 V -155.68 H 105" /><g class="mut m0 s0 unknown_time" transform="translate(0 -116.76)"><line x1="0" x2="0" y1="0" y2="116.76" /><path class="sym" d="M -3,-3 l 6,6 M -3,3 l 6,-6" /><text class="lab lft" transform="translate(-5 0)">0: G→A</text></g><g class="mut m4 s4 unknown_time" transform="translate(0 -77.84)"><line x1="0" x2="0" y1="0" y2="77.84" /><path class="sym" d="M -3,-3 l 6,6 M -3,3 l 6,-6" /><text class="lab lft" transform="translate(-5 0)">4: G→C</text></g><g class="mut m8 s8 unknown_time" transform="translate(0 -38.92)"><line x1="0" x2="0" y1="0" y2="38.92" /><path class="sym" d="M -3,-3 l 6,6 M -3,3 l 6,-6" /><text class="lab lft" transform="translate(-5 0)">8: C→T</text></g><circle class="sym" cx="0" cy="0" r="3" /><text class="lab lft" transform="translate(-3 -7.0)">6</text></g><g class="a10 c2 node n9 p0" transform="translate(105 38.92)"><g class="a9 c2 m2 m3 m5 m6 node n7 p0 s2 s3 s5 s6" transform="translate(-70 77.84)"><g class="a7 i1 leaf node n2 p0 sample" transform="translate(-35 77.84)"><path class="edge" d="M 0 0 V -77.84 H 35" /><rect class="sym" height="6" width="6" x="-3" y="-3" /><text class="lab" transform="translate(0 11)">2</text></g><g class="a7 i1 leaf node n3 p0 sample" transform="translate(35 77.84)"><path class="edge" d="M 0 0 V -77.84 H -35" /><rect class="sym" height="6" width="6" x="-3" y="-3" /><text class="lab" transform="translate(0 11)">3</text></g><path class="edge" d="M 0 0 V -77.84 H 70" /><g class="mut m2 s2 unknown_time" transform="translate(0 -62.272)"><line x1="0" x2="0" y1="0" y2="62.272" /><path class="sym" d="M -3,-3 l 6,6 M -3,3 l 6,-6" /><text class="lab lft" transform="translate(-5 0)">2: G→T</text></g><g class="mut m3 s3 unknown_time" transform="translate(0 -46.704)"><line x1="0" x2="0" y1="0" y2="46.704" /><path class="sym" d="M -3,-3 l 6,6 M -3,3 l 6,-6" /><text class="lab lft" transform="translate(-5 0)">3: G→C</text></g><g class="mut m5 s5 unknown_time" transform="translate(0 -31.136)"><line x1="0" x2="0" y1="0" y2="31.136" /><path class="sym" d="M -3,-3 l 6,6 M -3,3 l 6,-6" /><text class="lab lft" transform="translate(-5 0)">5: C→G</text></g><g class="mut m6 s6 unknown_time" transform="translate(0 -15.568)"><line x1="0" x2="0" y1="0" y2="15.568" /><path class="sym" d="M -3,-3 l 6,6 M -3,3 l 6,-6" /><text class="lab lft" transform="translate(-5 0)">6: C→G</text></g><circle class="sym" cx="0" cy="0" r="3" /><text class="lab lft" transform="translate(-3 -7.0)">7</text></g><g class="a9 c2 m1 m7 node n8 p0 s1 s7" transform="translate(70 38.92)"><g class="a8 i2 leaf node n4 p0 sample" transform="translate(-35 116.76)"><path class="edge" d="M 0 0 V -116.76 H 35" /><rect class="sym" height="6" width="6" x="-3" y="-3" /><text class="lab" transform="translate(0 11)">4</text></g><g class="a8 i2 leaf m9 node n5 p0 s9 sample" transform="translate(35 116.76)"><path class="edge" d="M 0 0 V -116.76 H -35" /><g class="mut m9 s9 unknown_time" transform="translate(0 -58.38)"><line x1="0" x2="0" y1="0" y2="58.38" /><path class="sym" d="M -3,-3 l 6,6 M -3,3 l 6,-6" /><text class="lab rgt" transform="translate(5 0)">9: G→T</text></g><rect class="sym" height="6" width="6" x="-3" y="-3" /><text class="lab" transform="translate(0 11)">5</text></g><path class="edge" d="M 0 0 V -38.92 H -70" /><g class="mut m1 s1 unknown_time" transform="translate(0 -25.9467)"><line x1="0" x2="0" y1="0" y2="25.9467" /><path class="sym" d="M -3,-3 l 6,6 M -3,3 l 6,-6" /><text class="lab rgt" transform="translate(5 0)">1: T→C</text></g><g class="mut m7 s7 unknown_time" transform="translate(0 -12.9733)"><line x1="0" x2="0" y1="0" y2="12.9733" /><path class="sym" d="M -3,-3 l 6,6 M -3,3 l 6,-6" /><text class="lab rgt" transform="translate(5 0)">7: A→C</text></g><circle class="sym" cx="0" cy="0" r="3" /><text class="lab rgt" transform="translate(3 -7.0)">8</text></g><path class="edge" d="M 0 0 V -38.92 H -105" /><circle class="sym" cx="0" cy="0" r="3" /><text class="lab rgt" transform="translate(3 -7.0)">9</text></g><circle class="sym" cx="0" cy="0" r="3" /><text class="lab" transform="translate(0 -11)">10</text></g></g></g></g></g></svg>