<svg baseProfile="full" height="200" version="1.1" width="1000" xmlns="http://www.w3.org/2000/svg" xmlns:ev="http://www.w3.org/2001/xml-events" xmlns:xlink="http://www.w3.org/1999/xlink"><defs><style type="text/css"><![CDATA[.background path {fill: #808080; fill-opacity: 0}.background path:nth-child(odd) {fill-opacity: .1}.x-regions rect {fill: yellow; stroke: black; opacity: 0.5}.axes {font-size: 14px}.x-axis .tick .lab {font-weight: bold; dominant-baseline: hanging}.axes, .tree {font-size: 14px; text-anchor: middle}.axes line, .edge {stroke: black; fill: none}.axes .ax-skip {stroke-dasharray: 4}.y-axis .grid {stroke: #FAFAFA}.node > .sym {fill: black; stroke: none}.site > .sym {stroke: black}.mut text {fill: red; font-style: italic}.mut.extra text {fill: hotpink}.mut line {fill: none; stroke: none}.mut .sym {fill: none; stroke: red}.mut.extra .sym {stroke: hotpink}.node .mut .sym {stroke-width: 1.5px}.tree text, .tree-sequence text {dominant-baseline: central}.plotbox .lab.lft {text-anchor: end}.plotbox .lab.rgt {text-anchor: start}.polytomy line {stroke: black; stroke-dasharray: 1px, 1px}.polytomy text {paint-order:stroke;stroke-width:0.3em;stroke:white}]]></style></defs><g class="tree t2653"><g class="axes"><g class="y-axis"><g class="title" transform="translate(0 97.5)"><text class="lab" text-anchor="middle" transform="translate(11) rotate(-90)">Time ago (generations)</text></g><line class="ax-line" x1="56.8" x2="56.8" y1="168.2" y2="26.8"/><g class="ticks"><g class="tick" transform="translate(56.8 168.2)"><line x1="0" x2="-5" y1="0" y2="0"/><g transform="translate(-6 0)"><text class="lab" text-anchor="end">0</text></g></g><g class="tick" transform="translate(56.8 149.883)"><line x1="0" x2="-5" y1="0" y2="0"/><g transform="translate(-6 0)"><text class="lab" text-anchor="end">20</text></g></g><g class="tick" transform="translate(56.8 131.566)"><line x1="0" x2="-5" y1="0" y2="0"/><g transform="translate(-6 0)"><text class="lab" text-anchor="end">40</text></g></g><g class="tick" transform="translate(56.8 113.25)"><line x1="0" x2="-5" y1="0" y2="0"/><g transform="translate(-6 0)"><text class="lab" text-anchor="end">60</text></g></g><g class="tick" transform="translate(56.8 94.9328)"><line x1="0" x2="-5" y1="0" y2="0"/><g transform="translate(-6 0)"><text class="lab" text-anchor="end">80</text></g></g></g></g></g><g class="plotbox"><g class="c2 node n212 p0 root" transform="translate(677.706 43.6)"><g class="a212 c2 node n206 p0" transform="translate(-218.629 9.69874)"><g class="a206 c2 node n198 p0" transform="translate(-113.958 6.85964)"><g class="a198 c2 node n192 p0" transform="translate(-80.9603 4.39603)"><g class="a192 c2 node n182 p0" transform="translate(-73.9281 3.35197)"><g class="a182 c2 node n174 p0" transform="translate(-39.6687 1.17227)"><g class="a174 i5 leaf node n11 p0 sample" transform="translate(56.2575 99.1213)"><path class="edge e452" d="M 0 0 V -99.1213 H -56.2575"/><rect class="sym" height="6" width="6" x="-3" y="-3"/><text class="lab" transform="translate(0 11)"/></g><g class="a174 c2 node n171 p0" transform="translate(-56.2575 0.384653)"><g class="a171 i0 leaf node n0 p0 sample" transform="translate(-25.965 98.7367)"><path class="edge e428" d="M 0 0 V -98.7367 H 25.965"/><rect class="sym" height="6" width="6" x="-3" y="-3"/><text class="lab" transform="translate(0 11)"/></g><g class="a171 c2 node n123 p0" transform="translate(25.965 12.8675)"><g class="a123 i3 leaf node n6 p0 sample" transform="translate(-28.85 85.8691)"><path class="edge e224" d="M 0 0 V -85.8691 H 28.85"/><rect class="sym" height="6" width="6" x="-3" y="-3"/><text class="lab" transform="translate(0 11)"/></g><g class="a123 c2 node n117 p0" transform="translate(28.85 1.95074)"><g class="a117 c2 node n45 p0" transform="translate(-23.08 64.3194)"><g class="a45 i4 leaf node n9 p0 sample" transform="translate(-11.54 19.599)"><path class="edge e11" d="M 0 0 V -19.599 H 11.54"/><rect class="sym" height="6" width="6" x="-3" y="-3"/><text class="lab" transform="translate(0 11)"/></g><g class="a45 i18 leaf node n37 p0 sample" transform="translate(11.54 19.599)"><path class="edge e12" d="M 0 0 V -19.599 H -11.54"/><rect class="sym" height="6" width="6" x="-3" y="-3"/><text class="lab" transform="translate(0 11)"/></g><path class="edge e209" d="M 0 0 V -64.3194 H 23.08"/><circle class="sym" cx="0" cy="0" r="3"/><text class="lab lft" transform="translate(-3 -7)"/></g><g class="a117 c2 node n107 p0" transform="translate(23.08 4.02969)"><g class="a107 i9 leaf node n18 p0 sample" transform="translate(-11.54 79.8887)"><path class="edge e173" d="M 0 0 V -79.8887 H 11.54"/><rect class="sym" height="6" width="6" x="-3" y="-3"/><text class="lab" transform="translate(0 11)"/></g><g class="a107 i18 leaf node n36 p0 sample" transform="translate(11.54 79.8887)"><path class="edge e174" d="M 0 0 V -79.8887 H -11.54"/><rect class="sym" height="6" width="6" x="-3" y="-3"/><text class="lab" transform="translate(0 11)"/></g><path class="edge e210" d="M 0 0 V -4.02969 H -23.08"/><circle class="sym" cx="0" cy="0" r="3"/><text class="lab rgt" transform="translate(3 -7)"/></g><path class="edge e229" d="M 0 0 V -1.95074 H -28.85"/><circle class="sym" cx="0" cy="0" r="3"/><text class="lab rgt" transform="translate(3 -7)"/></g><path class="edge e431" d="M 0 0 V -12.8675 H -25.965"/><circle class="sym" cx="0" cy="0" r="3"/><text class="lab rgt" transform="translate(3 -7)"/></g><path class="edge e461" d="M 0 0 V -0.384653 H 56.2575"/><circle class="sym" cx="0" cy="0" r="3"/><text class="lab lft" transform="translate(-3 -7)"/></g><path class="edge e546" d="M 0 0 V -1.17227 H 39.6687"/><circle class="sym" cx="0" cy="0" r="3"/><text class="lab lft" transform="translate(-3 -7)"/></g><g class="a182 i19 leaf node n38 p0 sample" transform="translate(39.6688 100.294)"><path class="edge e531" d="M 0 0 V -100.294 H -39.6688"/><rect class="sym" height="6" width="6" x="-3" y="-3"/><text class="lab" transform="translate(0 11)"/></g><path class="edge e652" d="M 0 0 V -3.35197 H 73.9281"/><circle class="sym" cx="0" cy="0" r="3"/><text class="lab lft" transform="translate(-3 -7)"/></g><g class="a192 c2 node n169 p0" transform="translate(73.9281 5.67821)"><g class="a169 i11 leaf node n22 p0 sample" transform="translate(30.2925 97.9674)"><path class="edge e415" d="M 0 0 V -97.9674 H -30.2925"/><rect class="sym" height="6" width="6" x="-3" y="-3"/><text class="lab" transform="translate(0 11)"/></g><g class="a169 c2 node n154 p0" transform="translate(-30.2925 4.01138)"><g class="a154 c2 node n92 p0" transform="translate(-25.965 21.4123)"><g class="a92 i10 leaf m3313 node n21 p0 s3312 sample" transform="translate(17.31 72.5437)"><path class="edge e116" d="M 0 0 V -72.5437 H -17.31"/><g class="mut m3313 s3312" transform="translate(0 -35.2104)"><line x1="0" x2="0" y1="0" y2="35.2104"/><path class="sym" d="M -3,-3 l 6,6 M -3,3 l 6,-6"/><text class="lab rgt" transform="translate(5 0)">3313</text></g><rect class="sym" height="6" width="6" x="-3" y="-3"/><text class="lab" transform="translate(0 11)"/></g><g class="a92 c2 node n42 p0" transform="translate(-17.31 59.3647)"><g class="a42 i1 leaf node n3 p0 sample" transform="translate(-11.54 13.1789)"><path class="edge e4" d="M 0 0 V -13.1789 H 11.54"/><rect class="sym" height="6" width="6" x="-3" y="-3"/><text class="lab" transform="translate(0 11)"/></g><g class="a42 i8 leaf node n17 p0 sample" transform="translate(11.54 13.1789)"><path class="edge e5" d="M 0 0 V -13.1789 H -11.54"/><rect class="sym" height="6" width="6" x="-3" y="-3"/><text class="lab" transform="translate(0 11)"/></g><path class="edge e119" d="M 0 0 V -59.3647 H 17.31"/><circle class="sym" cx="0" cy="0" r="3"/><text class="lab lft" transform="translate(-3 -7)"/></g><path class="edge e363" d="M 0 0 V -21.4123 H 25.965"/><circle class="sym" cx="0" cy="0" r="3"/><text class="lab lft" transform="translate(-3 -7)"/></g><g class="a154 c2 node n153 p0" transform="translate(25.965 0.210643)"><g class="a153 i7 leaf node n15 p0 sample" transform="translate(-11.54 93.7454)"><path class="edge e354" d="M 0 0 V -93.7454 H 11.54"/><rect class="sym" height="6" width="6" x="-3" y="-3"/><text class="lab" transform="translate(0 11)"/></g><g class="a153 i14 leaf node n28 p0 sample" transform="translate(11.54 93.7454)"><path class="edge e355" d="M 0 0 V -93.7454 H -11.54"/><rect class="sym" height="6" width="6" x="-3" y="-3"/><text class="lab" transform="translate(0 11)"/></g><path class="edge e365" d="M 0 0 V -0.210643 H -25.965"/><circle class="sym" cx="0" cy="0" r="3"/><text class="lab rgt" transform="translate(3 -7)"/></g><path class="edge e420" d="M 0 0 V -4.01138 H 30.2925"/><circle class="sym" cx="0" cy="0" r="3"/><text class="lab lft" transform="translate(-3 -7)"/></g><path class="edge e649" d="M 0 0 V -5.67821 H -73.9281"/><circle class="sym" cx="0" cy="0" r="3"/><text class="lab rgt" transform="translate(3 -7)"/></g><path class="edge e751" d="M 0 0 V -4.39603 H 80.9603"/><circle class="sym" cx="0" cy="0" r="3"/><text class="lab lft" transform="translate(-3 -7)"/></g><g class="a198 c2 node n197 p0" transform="translate(80.9603 1.01658)"><g class="a197 c2 node n67 p0" transform="translate(-23.08 52.5967)"><g class="a67 i3 leaf node n7 p0 sample" transform="translate(-11.54 54.4284)"><path class="edge e56" d="M 0 0 V -54.4284 H 11.54"/><rect class="sym" height="6" width="6" x="-3" y="-3"/><text class="lab" transform="translate(0 11)"/></g><g class="a67 i17 leaf node n34 p0 sample" transform="translate(11.54 54.4284)"><path class="edge e59" d="M 0 0 V -54.4284 H -11.54"/><rect class="sym" height="6" width="6" x="-3" y="-3"/><text class="lab" transform="translate(0 11)"/></g><path class="edge e723" d="M 0 0 V -52.5967 H 23.08"/><circle class="sym" cx="0" cy="0" r="3"/><text class="lab lft" transform="translate(-3 -7)"/></g><g class="a197 c2 node n189 p0" transform="translate(23.08 4.27697)"><g class="a189 i14 leaf node n29 p0 sample" transform="translate(11.54 102.748)"><path class="edge e606" d="M 0 0 V -102.748 H -11.54"/><rect class="sym" height="6" width="6" x="-3" y="-3"/><text class="lab" transform="translate(0 11)"/></g><g class="a189 i12 leaf node n25 p0 sample" transform="translate(-11.54 102.748)"><path class="edge e602" d="M 0 0 V -102.748 H 11.54"/><rect class="sym" height="6" width="6" x="-3" y="-3"/><text class="lab" transform="translate(0 11)"/></g><path class="edge e737" d="M 0 0 V -4.27697 H -23.08"/><circle class="sym" cx="0" cy="0" r="3"/><text class="lab rgt" transform="translate(3 -7)"/></g><path class="edge e755" d="M 0 0 V -1.01658 H -80.9603"/><circle class="sym" cx="0" cy="0" r="3"/><text class="lab rgt" transform="translate(3 -7)"/></g><path class="edge e846" d="M 0 0 V -6.85964 H 113.958"/><circle class="sym" cx="0" cy="0" r="3"/><text class="lab lft" transform="translate(-3 -7)"/></g><g class="a206 c2 node n199 p0" transform="translate(113.957 6.85048)"><g class="a199 i0 leaf node n1 p0 sample" transform="translate(-89.2547 108.051)"><path class="edge e756" d="M 0 0 V -108.051 H 89.2547"/><rect class="sym" height="6" width="6" x="-3" y="-3"/><text class="lab" transform="translate(0 11)"/></g><g class="a199 c2 node n194 p0" transform="translate(89.2547 3.69999)"><g class="a194 c2 node n173 p0" transform="translate(-68.1581 5.37598)"><g class="a173 c2 node n164 p0" transform="translate(-28.1287 2.15222)"><g class="a164 i8 leaf node n16 p0 sample" transform="translate(33.1775 96.8226)"><path class="edge e398" d="M 0 0 V -96.8226 H -33.1775"/><rect class="sym" height="6" width="6" x="-3" y="-3"/><text class="lab" transform="translate(0 11)"/></g><g class="a164 c2 node n90 p0" transform="translate(-33.1775 27.4111)"><g class="a90 i1 leaf m3312 node n2 p0 s3311 sample" transform="translate(-25.965 69.4115)"><path class="edge e111" d="M 0 0 V -69.4115 H 25.965"/><g class="mut m3312 s3311" transform="translate(0 -6.94249)"><line x1="0" x2="0" y1="0" y2="6.94249"/><path class="sym" d="M -3,-3 l 6,6 M -3,3 l 6,-6"/><text class="lab lft" transform="translate(-5 0)">3312</text></g><rect class="sym" height="6" width="6" x="-3" y="-3"/><text class="lab" transform="translate(0 11)"/></g><g class="a90 c2 node n75 p0" transform="translate(25.965 11.8235)"><g class="a75 i6 leaf node n13 p0 sample" transform="translate(17.31 57.588)"><path class="edge e76" d="M 0 0 V -57.588 H -17.31"/><rect class="sym" height="6" width="6" x="-3" y="-3"/><text class="lab" transform="translate(0 11)"/></g><g class="a75 c2 node n62 p0" transform="translate(-17.31 13.2888)"><g class="a62 i2 leaf node n5 p0 sample" transform="translate(-11.54 44.2992)"><path class="edge e46" d="M 0 0 V -44.2992 H 11.54"/><rect class="sym" height="6" width="6" x="-3" y="-3"/><text class="lab" transform="translate(0 11)"/></g><g class="a62 i10 leaf node n20 p0 sample" transform="translate(11.54 44.2992)"><path class="edge e47" d="M 0 0 V -44.2992 H -11.54"/><rect class="sym" height="6" width="6" x="-3" y="-3"/><text class="lab" transform="translate(0 11)"/></g><path class="edge e78" d="M 0 0 V -13.2888 H 17.31"/><circle class="sym" cx="0" cy="0" r="3"/><text class="lab lft" transform="translate(-3 -7)"/></g><path class="edge e113" d="M 0 0 V -11.8235 H -25.965"/><circle class="sym" cx="0" cy="0" r="3"/><text class="lab rgt" transform="translate(3 -7)"/></g><path class="edge e399" d="M 0 0 V -27.4111 H 33.1775"/><circle class="sym" cx="0" cy="0" r="3"/><text class="lab lft" transform="translate(-3 -7)"/></g><path class="edge e447" d="M 0 0 V -2.15222 H 28.1287"/><circle class="sym" cx="0" cy="0" r="3"/><text class="lab lft" transform="translate(-3 -7)"/></g><g class="a173 i4 leaf node n8 p0 sample" transform="translate(28.1287 98.9748)"><path class="edge e435" d="M 0 0 V -98.9748 H -28.1287"/><rect class="sym" height="6" width="6" x="-3" y="-3"/><text class="lab" transform="translate(0 11)"/></g><path class="edge e675" d="M 0 0 V -5.37598 H 68.1581"/><circle class="sym" cx="0" cy="0" r="3"/><text class="lab lft" transform="translate(-3 -7)"/></g><g class="a194 c2 node n136 p0" transform="translate(68.1581 14.6534)"><g class="a136 i12 leaf node n24 p0 sample" transform="translate(30.2925 89.6973)"><path class="edge e273" d="M 0 0 V -89.6973 H -30.2925"/><rect class="sym" height="6" width="6" x="-3" y="-3"/><text class="lab" transform="translate(0 11)"/></g><g class="a136 c2 node n110 p0" transform="translate(-30.2925 7.82127)"><g class="a110 c2 node n48 p0" transform="translate(25.965 59.7677)"><g class="a48 i15 leaf node n31 p0 sample" transform="translate(-11.54 22.1084)"><path class="edge e17" d="M 0 0 V -22.1084 H 11.54"/><rect class="sym" height="6" width="6" x="-3" y="-3"/><text class="lab" transform="translate(0 11)"/></g><g class="a48 i19 leaf node n39 p0 sample" transform="translate(11.54 22.1084)"><path class="edge e18" d="M 0 0 V -22.1084 H -11.54"/><rect class="sym" height="6" width="6" x="-3" y="-3"/><text class="lab" transform="translate(0 11)"/></g><path class="edge e188" d="M 0 0 V -59.7677 H -25.965"/><circle class="sym" cx="0" cy="0" r="3"/><text class="lab rgt" transform="translate(3 -7)"/></g><g class="a110 c2 node n59 p0" transform="translate(-25.965 41.515)"><g class="a59 i13 leaf node n26 p0 sample" transform="translate(17.31 40.3611)"><path class="edge e40" d="M 0 0 V -40.3611 H -17.31"/><rect class="sym" height="6" width="6" x="-3" y="-3"/><text class="lab" transform="translate(0 11)"/></g><g class="a59 c2 node n40 p0" transform="translate(-17.31 38.1997)"><g class="a40 i7 leaf node n14 p0 sample" transform="translate(-11.54 2.16138)"><path class="edge e0" d="M 0 0 V -2.16138 H 11.54"/><rect class="sym" height="6" width="6" x="-3" y="-3"/><text class="lab" transform="translate(0 11)"/></g><g class="a40 i15 leaf node n30 p0 sample" transform="translate(11.54 2.16138)"><path class="edge e1" d="M 0 0 V -2.16138 H -11.54"/><rect class="sym" height="6" width="6" x="-3" y="-3"/><text class="lab" transform="translate(0 11)"/></g><path class="edge e41" d="M 0 0 V -38.1997 H 17.31"/><circle class="sym" cx="0" cy="0" r="3"/><text class="lab lft" transform="translate(-3 -7)"/></g><path class="edge e190" d="M 0 0 V -41.515 H 25.965"/><circle class="sym" cx="0" cy="0" r="3"/><text class="lab lft" transform="translate(-3 -7)"/></g><path class="edge e278" d="M 0 0 V -7.82127 H 30.2925"/><circle class="sym" cx="0" cy="0" r="3"/><text class="lab lft" transform="translate(-3 -7)"/></g><path class="edge e670" d="M 0 0 V -14.6534 H -68.1581"/><circle class="sym" cx="0" cy="0" r="3"/><text class="lab rgt" transform="translate(3 -7)"/></g><path class="edge e766" d="M 0 0 V -3.69999 H -89.2547"/><circle class="sym" cx="0" cy="0" r="3"/><text class="lab rgt" transform="translate(3 -7)"/></g><path class="edge e847" d="M 0 0 V -6.85048 H -113.957"/><circle class="sym" cx="0" cy="0" r="3"/><text class="lab rgt" transform="translate(3 -7)"/></g><path class="edge e946" d="M 0 0 V -9.69874 H 218.629"/><circle class="sym" cx="0" cy="0" r="3"/><text class="lab lft" transform="translate(-3 -7)"/></g><g class="a212 c2 node n211 p0" transform="translate(218.629 0.622771)"><g class="a211 c2 node n208 p0" transform="translate(-54.815 7.6839)"><g class="a208 c2 node n202 p0" transform="translate(-28.85 4.58836)"><g class="a202 i11 leaf m3311 node n23 p0 s3310 sample" transform="translate(17.31 111.705)"><path class="edge e790" d="M 0 0 V -111.705 H -17.31"/><g class="mut m3311 s3310" transform="translate(0 -90.5099)"><line x1="0" x2="0" y1="0" y2="90.5099"/><path class="sym" d="M -3,-3 l 6,6 M -3,3 l 6,-6"/><text class="lab rgt" transform="translate(5 0)">3311</text></g><rect class="sym" height="6" width="6" x="-3" y="-3"/><text class="lab" transform="translate(0 11)"/></g><g class="a202 c2 node n165 p0" transform="translate(-17.31 14.7084)"><g class="a165 i2 leaf node n4 p0 sample" transform="translate(-11.54 96.9966)"><path class="edge e400" d="M 0 0 V -96.9966 H 11.54"/><rect class="sym" height="6" width="6" x="-3" y="-3"/><text class="lab" transform="translate(0 11)"/></g><g class="a165 i5 leaf node n10 p0 sample" transform="translate(11.54 96.9966)"><path class="edge e401" d="M 0 0 V -96.9966 H -11.54"/><rect class="sym" height="6" width="6" x="-3" y="-3"/><text class="lab" transform="translate(0 11)"/></g><path class="edge e800" d="M 0 0 V -14.7084 H 17.31"/><circle class="sym" cx="0" cy="0" r="3"/><text class="lab lft" transform="translate(-3 -7)"/></g><path class="edge e877" d="M 0 0 V -4.58836 H 28.85"/><circle class="sym" cx="0" cy="0" r="3"/><text class="lab lft" transform="translate(-3 -7)"/></g><g class="a208 c2 node n109 p0" transform="translate(28.85 34.9301)"><g class="a109 i13 leaf node n27 p0 sample" transform="translate(-17.31 81.3632)"><path class="edge e183" d="M 0 0 V -81.3632 H 17.31"/><rect class="sym" height="6" width="6" x="-3" y="-3"/><text class="lab" transform="translate(0 11)"/></g><g class="a109 c2 node n43 p0" transform="translate(17.31 64.1546)"><g class="a43 i16 leaf node n32 p0 sample" transform="translate(-11.54 17.2086)"><path class="edge e6" d="M 0 0 V -17.2086 H 11.54"/><rect class="sym" height="6" width="6" x="-3" y="-3"/><text class="lab" transform="translate(0 11)"/></g><g class="a43 i17 leaf node n35 p0 sample" transform="translate(11.54 17.2086)"><path class="edge e7" d="M 0 0 V -17.2086 H -11.54"/><rect class="sym" height="6" width="6" x="-3" y="-3"/><text class="lab" transform="translate(0 11)"/></g><path class="edge e185" d="M 0 0 V -64.1546 H -17.31"/><circle class="sym" cx="0" cy="0" r="3"/><text class="lab rgt" transform="translate(3 -7)"/></g><path class="edge e866" d="M 0 0 V -34.9301 H -28.85"/><circle class="sym" cx="0" cy="0" r="3"/><text class="lab rgt" transform="translate(3 -7)"/></g><path class="edge e933" d="M 0 0 V -7.6839 H 54.815"/><circle class="sym" cx="0" cy="0" r="3"/><text class="lab lft" transform="translate(-3 -7)"/></g><g class="a211 c2 node n175 p0" transform="translate(54.815 24.3064)"><g class="a175 c2 node n122 p0" transform="translate(-17.31 13.9574)"><g class="a122 i6 leaf node n12 p0 sample" transform="translate(-11.54 85.7134)"><path class="edge e220" d="M 0 0 V -85.7134 H 11.54"/><rect class="sym" height="6" width="6" x="-3" y="-3"/><text class="lab" transform="translate(0 11)"/></g><g class="a122 i9 leaf node n19 p0 sample" transform="translate(11.54 85.7134)"><path class="edge e222" d="M 0 0 V -85.7134 H -11.54"/><rect class="sym" height="6" width="6" x="-3" y="-3"/><text class="lab" transform="translate(0 11)"/></g><path class="edge e471" d="M 0 0 V -13.9574 H 17.31"/><circle class="sym" cx="0" cy="0" r="3"/><text class="lab lft" transform="translate(-3 -7)"/></g><g class="a175 i16 leaf node n33 p0 sample" transform="translate(17.31 99.6708)"><path class="edge e469" d="M 0 0 V -99.6708 H -17.31"/><rect class="sym" height="6" width="6" x="-3" y="-3"/><text class="lab" transform="translate(0 11)"/></g><path class="edge e925" d="M 0 0 V -24.3064 H -54.815"/><circle class="sym" cx="0" cy="0" r="3"/><text class="lab rgt" transform="translate(3 -7)"/></g><path class="edge e948" d="M 0 0 V -0.622771 H -218.629"/><circle class="sym" cx="0" cy="0" r="3"/><text class="lab rgt" transform="translate(3 -7)"/></g><circle class="sym" cx="0" cy="0" r="3"/><text class="lab" transform="translate(0 -11)"/></g></g></g><g class="title" transform="translate(500 0)"><text dominant-baseline="hanging" text-anchor="middle">Tree number 2653, which runs from position 4991648.0 to 5056252.0:</text></g></svg>