<svg baseProfile="full" height="200" version="1.1" width="200" xmlns="http://www.w3.org/2000/svg" xmlns:ev="http://www.w3.org/2001/xml-events" xmlns:xlink="http://www.w3.org/1999/xlink"><defs><style type="text/css"><![CDATA[.background path {fill: #808080; fill-opacity: 0}.background path:nth-child(odd) {fill-opacity: .1}.axes {font-size: 14px}.x-axis .tick .lab {font-weight: bold; dominant-baseline: hanging}.axes, .tree {font-size: 14px; text-anchor: middle}.axes line, .edge {stroke: black; fill: none}.axes .ax-skip {stroke-dasharray: 4}.y-axis .grid {stroke: #FAFAFA}.node > .sym {fill: black; stroke: none}.site > .sym {stroke: black}.mut text {fill: red; font-style: italic}.mut.extra text {fill: hotpink}.mut line {fill: none; stroke: none}.mut .sym {fill: none; stroke: red}.mut.extra .sym {stroke: hotpink}.node .mut .sym {stroke-width: 1.5px}.tree text, .tree-sequence text {dominant-baseline: central}.plotbox .lab.lft {text-anchor: end}.plotbox .lab.rgt {text-anchor: start}.node > .sym {transform: scale(2.2); fill: yellow; stroke: black; stroke-width: 0.5px}.node.leaf > .sym {transform: scale(1); fill:black}.tree .node > .lab {transform: translate(0, 0); text-anchor: middle; font-size: 7pt}.node.leaf > .lab {transform: translate(0, 12px); font-size: 10pt}]]></style></defs><g class="tree t0"><g class="plotbox"><g class="c2 node n17 p3 root" transform="translate(98.125 26.8)"><g class="a17 c2 node n13 p3" transform="translate(-46.875 60.1436)"><g class="a13 i0 leaf node n0 p0 sample" transform="translate(-21.25 81.2564)"><path class="edge" d="M 0 0 V -81.2564 H 21.25" /><rect class="sym" height="6" width="6" x="-3" y="-3" /><text class="lab" transform="translate(0 11)">0</text></g><g class="a13 c2 node n12 p3" transform="translate(21.25 21.0315)"><g class="a12 i0 leaf node n1 p0 sample" transform="translate(-22.5 60.2248)"><path class="edge" d="M 0 0 V -60.2248 H 22.5" /><rect class="sym" height="6" width="6" x="-3" y="-3" /><text class="lab" transform="translate(0 11)">1</text></g><g class="a12 c2 node n9 p3" transform="translate(22.5 16.8503)"><g class="a9 i2 leaf node n4 p1 sample" transform="translate(15 43.3745)"><path class="edge" d="M 0 0 V -43.3745 H -15" /><rect class="sym" height="6" width="6" x="-3" y="-3" /><text class="lab" transform="translate(0 11)">4</text></g><g class="a9 c2 node n8 p0" transform="translate(-15 41.9522)"><g class="a8 i1 leaf node n2 p0 sample" transform="translate(-10 1.42233)"><path class="edge" d="M 0 0 V -1.42233 H 10" /><rect class="sym" height="6" width="6" x="-3" y="-3" /><text class="lab" transform="translate(0 11)">2</text></g><g class="a8 i1 leaf node n3 p0 sample" transform="translate(10 1.42233)"><path class="edge" d="M 0 0 V -1.42233 H -10" /><rect class="sym" height="6" width="6" x="-3" y="-3" /><text class="lab" transform="translate(0 11)">3</text></g><path class="edge" d="M 0 0 V -41.9522 H 15" /><circle class="sym" cx="0" cy="0" r="3" /><text class="lab lft" transform="translate(-3 -7.0)">8</text></g><path class="edge" d="M 0 0 V -16.8503 H -22.5" /><circle class="sym" cx="0" cy="0" r="3" /><text class="lab rgt" transform="translate(3 -7.0)">9</text></g><path class="edge" d="M 0 0 V -21.0315 H -21.25" /><circle class="sym" cx="0" cy="0" r="3" /><text class="lab rgt" transform="translate(3 -7.0)">12</text></g><path class="edge" d="M 0 0 V -60.1436 H 46.875" /><circle class="sym" cx="0" cy="0" r="3" /><text class="lab lft" transform="translate(-3 -7.0)">13</text></g><g class="a17 c2 node n16 p3" transform="translate(46.875 25.6676)"><g class="a16 i2 leaf node n5 p1 sample" transform="translate(-15 115.732)"><path class="edge" d="M 0 0 V -115.732 H 15" /><rect class="sym" height="6" width="6" x="-3" y="-3" /><text class="lab" transform="translate(0 11)">5</text></g><g class="a16 c2 node n10 p3" transform="translate(15 71.2691)"><g class="a10 i3 leaf node n6 p2 sample" transform="translate(-10 44.4633)"><path class="edge" d="M 0 0 V -44.4633 H 10" /><rect class="sym" height="6" width="6" x="-3" y="-3" /><text class="lab" transform="translate(0 11)">6</text></g><g class="a10 i3 leaf node n7 p2 sample" transform="translate(10 44.4633)"><path class="edge" d="M 0 0 V -44.4633 H -10" /><rect class="sym" height="6" width="6" x="-3" y="-3" /><text class="lab" transform="translate(0 11)">7</text></g><path class="edge" d="M 0 0 V -71.2691 H -15" /><circle class="sym" cx="0" cy="0" r="3" /><text class="lab rgt" transform="translate(3 -7.0)">10</text></g><path class="edge" d="M 0 0 V -25.6676 H -46.875" /><circle class="sym" cx="0" cy="0" r="3" /><text class="lab rgt" transform="translate(3 -7.0)">16</text></g><circle class="sym" cx="0" cy="0" r="3" /><text class="lab" transform="translate(0 -11)">17</text></g></g></g></svg>