<svg baseProfile="full" height="400" version="1.1" width="600" xmlns="http://www.w3.org/2000/svg" xmlns:ev="http://www.w3.org/2001/xml-events" xmlns:xlink="http://www.w3.org/1999/xlink"><defs><style type="text/css"><![CDATA[.background path {fill: #808080; fill-opacity: 0}.background path:nth-child(odd) {fill-opacity: .1}.axes {font-size: 14px}.x-axis .tick .lab {font-weight: bold; dominant-baseline: hanging}.axes, .tree {font-size: 14px; text-anchor: middle}.axes line, .edge {stroke: black; fill: none}.axes .ax-skip {stroke-dasharray: 4}.y-axis .grid {stroke: #FAFAFA}.node > .sym {fill: black; stroke: none}.site > .sym {stroke: black}.mut text {fill: red; font-style: italic}.mut.extra text {fill: hotpink}.mut line {fill: none; stroke: none}.mut .sym {fill: none; stroke: red}.mut.extra .sym {stroke: hotpink}.node .mut .sym {stroke-width: 1.5px}.tree text, .tree-sequence text {dominant-baseline: central}.plotbox .lab.lft {text-anchor: end}.plotbox .lab.rgt {text-anchor: start}]]></style></defs><g class="tree-sequence"><g class="background"><path d="M56.8,0 l523.2,0 l0,338.2 l0,25 l0,5 l-523.2,0 l0,-5 l0,-25 l0,-338.2z" /></g><g class="axes"><g class="x-axis"><g class="title" transform="translate(318.4 400)"><text class="lab" text-anchor="middle" transform="translate(0 -11)">Genome position</text></g><line class="ax-line" x1="56.8" x2="580" y1="363.2" y2="363.2" /><g class="ticks"><g class="tick" transform="translate(56.8 363.2)"><line x1="0" x2="0" y1="0" y2="5" /><g transform="translate(0 6)"><text class="lab">0</text></g></g><g class="tick" transform="translate(580 363.2)"><line x1="0" x2="0" y1="0" y2="5" /><g transform="translate(0 6)"><text class="lab">50000</text></g></g></g></g><g class="y-axis"><g class="title" transform="translate(0 165.7)"><text class="lab" text-anchor="middle" transform="translate(11) rotate(-90)">Time (generations ago)</text></g><line class="ax-line" x1="56.8" x2="56.8" y1="321.4" y2="10" /><g class="ticks"><g class="tick" transform="translate(56.8 321.4)"><line x1="0" x2="-5" y1="0" y2="0" /><g transform="translate(-6 0)"><text class="lab" text-anchor="end">Current</text></g></g><g class="tick" transform="translate(56.8 306.67)"><line x1="0" x2="-5" y1="0" y2="0" /><g transform="translate(-6 0)"><text class="lab" text-anchor="end">1</text></g></g><g class="tick" transform="translate(56.8 291.94)"><line x1="0" x2="-5" y1="0" y2="0" /><g transform="translate(-6 0)"><text class="lab" text-anchor="end">2</text></g></g><g class="tick" transform="translate(56.8 277.21)"><line x1="0" x2="-5" y1="0" y2="0" /><g transform="translate(-6 0)"><text class="lab" text-anchor="end">3</text></g></g><g class="tick" transform="translate(56.8 262.48)"><line x1="0" x2="-5" y1="0" y2="0" /><g transform="translate(-6 0)"><text class="lab" text-anchor="end">4</text></g></g><g class="tick" transform="translate(56.8 247.75)"><line x1="0" x2="-5" y1="0" y2="0" /><g transform="translate(-6 0)"><text class="lab" text-anchor="end">5</text></g></g><g class="tick" transform="translate(56.8 233.02)"><line x1="0" x2="-5" y1="0" y2="0" /><g transform="translate(-6 0)"><text class="lab" text-anchor="end">6</text></g></g><g class="tick" transform="translate(56.8 218.29)"><line x1="0" x2="-5" y1="0" y2="0" /><g transform="translate(-6 0)"><text class="lab" text-anchor="end">7</text></g></g><g class="tick" transform="translate(56.8 203.56)"><line x1="0" x2="-5" y1="0" y2="0" /><g transform="translate(-6 0)"><text class="lab" text-anchor="end">8</text></g></g><g class="tick" transform="translate(56.8 188.83)"><line x1="0" x2="-5" y1="0" y2="0" /><g transform="translate(-6 0)"><text class="lab" text-anchor="end">9</text></g></g><g class="tick" transform="translate(56.8 174.1)"><line x1="0" x2="-5" y1="0" y2="0" /><g transform="translate(-6 0)"><text class="lab" text-anchor="end">10</text></g></g><g class="tick" transform="translate(56.8 159.37)"><line x1="0" x2="-5" y1="0" y2="0" /><g transform="translate(-6 0)"><text class="lab" text-anchor="end">11</text></g></g><g class="tick" transform="translate(56.8 144.64)"><line x1="0" x2="-5" y1="0" y2="0" /><g transform="translate(-6 0)"><text class="lab" text-anchor="end">12</text></g></g><g class="tick" transform="translate(56.8 129.91)"><line x1="0" x2="-5" y1="0" y2="0" /><g transform="translate(-6 0)"><text class="lab" text-anchor="end">13</text></g></g><g class="tick" transform="translate(56.8 115.18)"><line x1="0" x2="-5" y1="0" y2="0" /><g transform="translate(-6 0)"><text class="lab" text-anchor="end">14</text></g></g><g class="tick" transform="translate(56.8 100.45)"><line x1="0" x2="-5" y1="0" y2="0" /><g transform="translate(-6 0)"><text class="lab" text-anchor="end">15</text></g></g><g class="tick" transform="translate(56.8 85.72)"><line x1="0" x2="-5" y1="0" y2="0" /><g transform="translate(-6 0)"><text class="lab" text-anchor="end">16</text></g></g><g class="tick" transform="translate(56.8 70.99)"><line x1="0" x2="-5" y1="0" y2="0" /><g transform="translate(-6 0)"><text class="lab" text-anchor="end">17</text></g></g><g class="tick" transform="translate(56.8 56.26)"><line x1="0" x2="-5" y1="0" y2="0" /><g transform="translate(-6 0)"><text class="lab" text-anchor="end">18</text></g></g><g class="tick" transform="translate(56.8 41.53)"><line x1="0" x2="-5" y1="0" y2="0" /><g transform="translate(-6 0)"><text class="lab" text-anchor="end">19</text></g></g><g class="tick" transform="translate(56.8 26.8)"><line x1="0" x2="-5" y1="0" y2="0" /><g transform="translate(-6 0)"><text class="lab" text-anchor="end">20</text></g></g></g></g></g><g class="plotbox trees"><g class="tree t0" transform="translate(56.8 0)"><g class="plotbox"><g class="c1 i2 node n5 root" transform="translate(331.438 26.8)"><g class="a5 c1 i8 node n16" transform="translate(0.0 14.73)"><g class="a16 c2 i15 node n30" transform="translate(0.0 14.73)"><g class="a30 c1 i23 node n46" transform="translate(101.296 14.73)"><g class="a46 c1 i25 node n51" transform="translate(0.0 14.73)"><g class="a51 c1 i30 node n60" transform="translate(0.0 14.73)"><g class="a60 c1 i39 node n79" transform="translate(0.0 14.73)"><g class="a79 c1 i44 node n88" transform="translate(0.0 14.73)"><g class="a88 c1 i53 node n107" transform="translate(0.0 14.73)"><g class="a107 c1 i55 node n110" transform="translate(0.0 14.73)"><g class="a110 c1 i64 node n128" transform="translate(0.0 14.73)"><g class="a128 c1 i71 node n142" transform="translate(0.0 14.73)"><g class="a142 c1 i72 node n145" transform="translate(0.0 14.73)"><g class="a145 c1 i80 node n161" transform="translate(0.0 14.73)"><g class="a161 c1 i84 node n169" transform="translate(0.0 14.73)"><g class="a169 c1 i95 node n190" transform="translate(0.0 14.73)"><g class="a190 c1 i101 node n203" transform="translate(0.0 14.73)"><g class="a203 c1 i107 node n214" transform="translate(0.0 14.73)"><g class="a214 c2 i108 node n216" transform="translate(0.0 14.73)"><g class="a216 c1 i114 node n228" transform="translate(50.3333 14.73)"><g class="a228 i122 leaf node n245 sample" transform="translate(0.0 14.73)"><path class="edge" d="M 0 0 V -14.73 H 0.0" /><rect class="sym" height="6" width="6" x="-3" y="-3" /><text class="lab" transform="translate(0 11)">245</text></g><path class="edge" d="M 0 0 V -14.73 H -50.3333" /><circle class="sym" cx="0" cy="0" r="3" /><text class="lab rgt" transform="translate(3 -7.0)">228</text></g><g class="a216 c4 i115 node n230" transform="translate(-50.3333 14.73)"><g class="a230 i120 leaf node n241 sample" transform="translate(-60.4 14.73)"><path class="edge" d="M 0 0 V -14.73 H 60.4" /><rect class="sym" height="6" width="6" x="-3" y="-3" /><text class="lab" transform="translate(0 11)">241</text></g><g class="a230 i121 leaf node n242 sample" transform="translate(-20.1333 14.73)"><path class="edge" d="M 0 0 V -14.73 H 20.1333" /><rect class="sym" height="6" width="6" x="-3" y="-3" /><text class="lab" transform="translate(0 11)">242</text></g><g class="a230 i121 leaf node n243 sample" transform="translate(20.1333 14.73)"><path class="edge" d="M 0 0 V -14.73 H -20.1333" /><rect class="sym" height="6" width="6" x="-3" y="-3" /><text class="lab" transform="translate(0 11)">243</text></g><g class="a230 i124 leaf node n248 sample" transform="translate(60.4 14.73)"><path class="edge" d="M 0 0 V -14.73 H -60.4" /><rect class="sym" height="6" width="6" x="-3" y="-3" /><text class="lab" transform="translate(0 11)">248</text></g><path class="edge" d="M 0 0 V -14.73 H 50.3333" /><circle class="sym" cx="0" cy="0" r="3" /><text class="lab lft" transform="translate(-3 -7.0)">230</text></g><path class="edge" d="M 0 0 V -14.73 H 0.0" /><circle class="sym" cx="0" cy="0" r="3" /><text class="lab lft" transform="translate(-3 -7.0)">216</text></g><path class="edge" d="M 0 0 V -14.73 H 0.0" /><circle class="sym" cx="0" cy="0" r="3" /><text class="lab lft" transform="translate(-3 -7.0)">214</text></g><path class="edge" d="M 0 0 V -14.73 H 0.0" /><circle class="sym" cx="0" cy="0" r="3" /><text class="lab lft" transform="translate(-3 -7.0)">203</text></g><path class="edge" d="M 0 0 V -14.73 H 0.0" /><circle class="sym" cx="0" cy="0" r="3" /><text class="lab lft" transform="translate(-3 -7.0)">190</text></g><path class="edge" d="M 0 0 V -14.73 H 0.0" /><circle class="sym" cx="0" cy="0" r="3" /><text class="lab lft" transform="translate(-3 -7.0)">169</text></g><path class="edge" d="M 0 0 V -14.73 H 0.0" /><circle class="sym" cx="0" cy="0" r="3" /><text class="lab lft" transform="translate(-3 -7.0)">161</text></g><path class="edge" d="M 0 0 V -14.73 H 0.0" /><circle class="sym" cx="0" cy="0" r="3" /><text class="lab lft" transform="translate(-3 -7.0)">145</text></g><path class="edge" d="M 0 0 V -14.73 H 0.0" /><circle class="sym" cx="0" cy="0" r="3" /><text class="lab lft" transform="translate(-3 -7.0)">142</text></g><path class="edge" d="M 0 0 V -14.73 H 0.0" /><circle class="sym" cx="0" cy="0" r="3" /><text class="lab lft" transform="translate(-3 -7.0)">128</text></g><path class="edge" d="M 0 0 V -14.73 H 0.0" /><circle class="sym" cx="0" cy="0" r="3" /><text class="lab lft" transform="translate(-3 -7.0)">110</text></g><path class="edge" d="M 0 0 V -14.73 H 0.0" /><circle class="sym" cx="0" cy="0" r="3" /><text class="lab lft" transform="translate(-3 -7.0)">107</text></g><path class="edge" d="M 0 0 V -14.73 H 0.0" /><circle class="sym" cx="0" cy="0" r="3" /><text class="lab lft" transform="translate(-3 -7.0)">88</text></g><path class="edge" d="M 0 0 V -14.73 H 0.0" /><circle class="sym" cx="0" cy="0" r="3" /><text class="lab lft" transform="translate(-3 -7.0)">79</text></g><path class="edge" d="M 0 0 V -14.73 H 0.0" /><circle class="sym" cx="0" cy="0" r="3" /><text class="lab lft" transform="translate(-3 -7.0)">60</text></g><path class="edge" d="M 0 0 V -14.73 H 0.0" /><circle class="sym" cx="0" cy="0" r="3" /><text class="lab lft" transform="translate(-3 -7.0)">51</text></g><path class="edge" d="M 0 0 V -14.73 H -101.296" /><circle class="sym" cx="0" cy="0" r="3" /><text class="lab rgt" transform="translate(3 -7.0)">46</text></g><g class="a30 c1 i23 node n47" transform="translate(-101.296 14.73)"><g class="a47 c1 i26 node n53" transform="translate(0.0 14.73)"><g class="a53 c1 i33 node n67" transform="translate(0.0 14.73)"><g class="a67 c1 i40 node n80" transform="translate(0.0 14.73)"><g class="a80 c1 i42 node n84" transform="translate(0.0 14.73)"><g class="a84 c1 i48 node n96" transform="translate(0.0 14.73)"><g class="a96 c2 i59 node n119" transform="translate(0.0 14.73)"><g class="a119 c1 i60 node n120" transform="translate(-51.5917 14.73)"><g class="a120 c2 i66 node n133" transform="translate(0.0 14.73)"><g class="a133 c1 i74 node n148" transform="translate(62.9167 14.73)"><g class="a148 c1 i78 node n156" transform="translate(0.0 14.73)"><g class="a156 c1 i87 node n175" transform="translate(0.0 14.73)"><g class="a175 c1 i94 node n189" transform="translate(0.0 14.73)"><g class="a189 c1 i100 node n200" transform="translate(0.0 14.73)"><g class="a200 c1 i102 node n205" transform="translate(0.0 14.73)"><g class="a205 c1 i112 node n224" transform="translate(0.0 14.73)"><g class="a224 c1 i118 node n236" transform="translate(0.0 14.73)"><g class="a236 i122 leaf node n244 sample" transform="translate(0.0 14.73)"><path class="edge" d="M 0 0 V -14.73 H 0.0" /><rect class="sym" height="6" width="6" x="-3" y="-3" /><text class="lab" transform="translate(0 11)">244</text></g><path class="edge" d="M 0 0 V -14.73 H 0.0" /><circle class="sym" cx="0" cy="0" r="3" /><text class="lab lft" transform="translate(-3 -7.0)">236</text></g><path class="edge" d="M 0 0 V -14.73 H 0.0" /><circle class="sym" cx="0" cy="0" r="3" /><text class="lab lft" transform="translate(-3 -7.0)">224</text></g><path class="edge" d="M 0 0 V -14.73 H 0.0" /><circle class="sym" cx="0" cy="0" r="3" /><text class="lab lft" transform="translate(-3 -7.0)">205</text></g><path class="edge" d="M 0 0 V -14.73 H 0.0" /><circle class="sym" cx="0" cy="0" r="3" /><text class="lab lft" transform="translate(-3 -7.0)">200</text></g><path class="edge" d="M 0 0 V -14.73 H 0.0" /><circle class="sym" cx="0" cy="0" r="3" /><text class="lab lft" transform="translate(-3 -7.0)">189</text></g><path class="edge" d="M 0 0 V -14.73 H 0.0" /><circle class="sym" cx="0" cy="0" r="3" /><text class="lab lft" transform="translate(-3 -7.0)">175</text></g><path class="edge" d="M 0 0 V -14.73 H 0.0" /><circle class="sym" cx="0" cy="0" r="3" /><text class="lab lft" transform="translate(-3 -7.0)">156</text></g><path class="edge" d="M 0 0 V -14.73 H -62.9167" /><circle class="sym" cx="0" cy="0" r="3" /><text class="lab rgt" transform="translate(3 -7.0)">148</text></g><g class="a133 c1 i77 node n154" transform="translate(-62.9167 14.73)"><g class="a154 c1 i81 node n163" transform="translate(0.0 14.73)"><g class="a163 c1 i85 node n171" transform="translate(0.0 14.73)"><g class="a171 c1 i92 node n185" transform="translate(0.0 14.73)"><g class="a185 c1 i99 node n198" transform="translate(0.0 14.73)"><g class="a198 c2 i103 node n206" transform="translate(0.0 14.73)"><g class="a206 c1 i111 node n222" transform="translate(-55.3667 14.73)"><g class="a222 c2 i116 node n232" transform="translate(0.0 14.73)"><g class="a232 i120 leaf node n240 sample" transform="translate(-20.1333 14.73)"><path class="edge" d="M 0 0 V -14.73 H 20.1333" /><rect class="sym" height="6" width="6" x="-3" y="-3" /><text class="lab" transform="translate(0 11)">240</text></g><g class="a232 i124 leaf node n249 sample" transform="translate(20.1333 14.73)"><path class="edge" d="M 0 0 V -14.73 H -20.1333" /><rect class="sym" height="6" width="6" x="-3" y="-3" /><text class="lab" transform="translate(0 11)">249</text></g><path class="edge" d="M 0 0 V -14.73 H 0.0" /><circle class="sym" cx="0" cy="0" r="3" /><text class="lab lft" transform="translate(-3 -7.0)">232</text></g><path class="edge" d="M 0 0 V -14.73 H 55.3667" /><circle class="sym" cx="0" cy="0" r="3" /><text class="lab lft" transform="translate(-3 -7.0)">222</text></g><g class="a206 c2 i113 node n227" transform="translate(55.3667 14.73)"><g class="a227 c1 i114 node n229" transform="translate(30.2 14.73)"><g class="a229 i123 leaf node n247 sample" transform="translate(0.0 14.73)"><path class="edge" d="M 0 0 V -14.73 H 0.0" /><rect class="sym" height="6" width="6" x="-3" y="-3" /><text class="lab" transform="translate(0 11)">247</text></g><path class="edge" d="M 0 0 V -14.73 H -30.2" /><circle class="sym" cx="0" cy="0" r="3" /><text class="lab rgt" transform="translate(3 -7.0)">229</text></g><g class="a227 c2 i117 node n235" transform="translate(-30.2 14.73)"><g class="a235 i123 leaf node n246 sample" transform="translate(-20.1333 14.73)"><path class="edge" d="M 0 0 V -14.73 H 20.1333" /><rect class="sym" height="6" width="6" x="-3" y="-3" /><text class="lab" transform="translate(0 11)">246</text></g><g class="a235 i125 leaf node n250 sample" transform="translate(20.1333 14.73)"><path class="edge" d="M 0 0 V -14.73 H -20.1333" /><rect class="sym" height="6" width="6" x="-3" y="-3" /><text class="lab" transform="translate(0 11)">250</text></g><path class="edge" d="M 0 0 V -14.73 H 30.2" /><circle class="sym" cx="0" cy="0" r="3" /><text class="lab lft" transform="translate(-3 -7.0)">235</text></g><path class="edge" d="M 0 0 V -14.73 H -55.3667" /><circle class="sym" cx="0" cy="0" r="3" /><text class="lab rgt" transform="translate(3 -7.0)">227</text></g><path class="edge" d="M 0 0 V -14.73 H 0.0" /><circle class="sym" cx="0" cy="0" r="3" /><text class="lab lft" transform="translate(-3 -7.0)">206</text></g><path class="edge" d="M 0 0 V -14.73 H 0.0" /><circle class="sym" cx="0" cy="0" r="3" /><text class="lab lft" transform="translate(-3 -7.0)">198</text></g><path class="edge" d="M 0 0 V -14.73 H 0.0" /><circle class="sym" cx="0" cy="0" r="3" /><text class="lab lft" transform="translate(-3 -7.0)">185</text></g><path class="edge" d="M 0 0 V -14.73 H 0.0" /><circle class="sym" cx="0" cy="0" r="3" /><text class="lab lft" transform="translate(-3 -7.0)">171</text></g><path class="edge" d="M 0 0 V -14.73 H 0.0" /><circle class="sym" cx="0" cy="0" r="3" /><text class="lab lft" transform="translate(-3 -7.0)">163</text></g><path class="edge" d="M 0 0 V -14.73 H 62.9167" /><circle class="sym" cx="0" cy="0" r="3" /><text class="lab lft" transform="translate(-3 -7.0)">154</text></g><path class="edge" d="M 0 0 V -14.73 H 0.0" /><circle class="sym" cx="0" cy="0" r="3" /><text class="lab lft" transform="translate(-3 -7.0)">133</text></g><path class="edge" d="M 0 0 V -14.73 H 51.5917" /><circle class="sym" cx="0" cy="0" r="3" /><text class="lab lft" transform="translate(-3 -7.0)">120</text></g><g class="a119 c1 i63 node n126" transform="translate(51.5917 14.73)"><g class="a126 c1 i70 node n140" transform="translate(0.0 14.73)"><g class="a140 c1 i74 node n149" transform="translate(0.0 14.73)"><g class="a149 c1 i83 node n166" transform="translate(0.0 14.73)"><g class="a166 c1 i89 node n178" transform="translate(0.0 14.73)"><g class="a178 c1 i93 node n187" transform="translate(0.0 14.73)"><g class="a187 c1 i101 node n202" transform="translate(0.0 14.73)"><g class="a202 c1 i106 node n213" transform="translate(0.0 14.73)"><g class="a213 c1 i112 node n225" transform="translate(0.0 14.73)"><g class="a225 c1 i117 node n234" transform="translate(0.0 14.73)"><g class="a234 i125 leaf node n251 sample" transform="translate(0.0 14.73)"><path class="edge" d="M 0 0 V -14.73 H 0.0" /><rect class="sym" height="6" width="6" x="-3" y="-3" /><text class="lab" transform="translate(0 11)">251</text></g><path class="edge" d="M 0 0 V -14.73 H 0.0" /><circle class="sym" cx="0" cy="0" r="3" /><text class="lab lft" transform="translate(-3 -7.0)">234</text></g><path class="edge" d="M 0 0 V -14.73 H 0.0" /><circle class="sym" cx="0" cy="0" r="3" /><text class="lab lft" transform="translate(-3 -7.0)">225</text></g><path class="edge" d="M 0 0 V -14.73 H 0.0" /><circle class="sym" cx="0" cy="0" r="3" /><text class="lab lft" transform="translate(-3 -7.0)">213</text></g><path class="edge" d="M 0 0 V -14.73 H 0.0" /><circle class="sym" cx="0" cy="0" r="3" /><text class="lab lft" transform="translate(-3 -7.0)">202</text></g><path class="edge" d="M 0 0 V -14.73 H 0.0" /><circle class="sym" cx="0" cy="0" r="3" /><text class="lab lft" transform="translate(-3 -7.0)">187</text></g><path class="edge" d="M 0 0 V -14.73 H 0.0" /><circle class="sym" cx="0" cy="0" r="3" /><text class="lab lft" transform="translate(-3 -7.0)">178</text></g><path class="edge" d="M 0 0 V -14.73 H 0.0" /><circle class="sym" cx="0" cy="0" r="3" /><text class="lab lft" transform="translate(-3 -7.0)">166</text></g><path class="edge" d="M 0 0 V -14.73 H 0.0" /><circle class="sym" cx="0" cy="0" r="3" /><text class="lab lft" transform="translate(-3 -7.0)">149</text></g><path class="edge" d="M 0 0 V -14.73 H 0.0" /><circle class="sym" cx="0" cy="0" r="3" /><text class="lab lft" transform="translate(-3 -7.0)">140</text></g><path class="edge" d="M 0 0 V -14.73 H -51.5917" /><circle class="sym" cx="0" cy="0" r="3" /><text class="lab rgt" transform="translate(3 -7.0)">126</text></g><path class="edge" d="M 0 0 V -14.73 H 0.0" /><circle class="sym" cx="0" cy="0" r="3" /><text class="lab lft" transform="translate(-3 -7.0)">119</text></g><path class="edge" d="M 0 0 V -14.73 H 0.0" /><circle class="sym" cx="0" cy="0" r="3" /><text class="lab lft" transform="translate(-3 -7.0)">96</text></g><path class="edge" d="M 0 0 V -14.73 H 0.0" /><circle class="sym" cx="0" cy="0" r="3" /><text class="lab lft" transform="translate(-3 -7.0)">84</text></g><path class="edge" d="M 0 0 V -14.73 H 0.0" /><circle class="sym" cx="0" cy="0" r="3" /><text class="lab lft" transform="translate(-3 -7.0)">80</text></g><path class="edge" d="M 0 0 V -14.73 H 0.0" /><circle class="sym" cx="0" cy="0" r="3" /><text class="lab lft" transform="translate(-3 -7.0)">67</text></g><path class="edge" d="M 0 0 V -14.73 H 0.0" /><circle class="sym" cx="0" cy="0" r="3" /><text class="lab lft" transform="translate(-3 -7.0)">53</text></g><path class="edge" d="M 0 0 V -14.73 H 101.296" /><circle class="sym" cx="0" cy="0" r="3" /><text class="lab lft" transform="translate(-3 -7.0)">47</text></g><path class="edge" d="M 0 0 V -14.73 H 0.0" /><circle class="sym" cx="0" cy="0" r="3" /><text class="lab lft" transform="translate(-3 -7.0)">30</text></g><path class="edge" d="M 0 0 V -14.73 H 0.0" /><circle class="sym" cx="0" cy="0" r="3" /><text class="lab lft" transform="translate(-3 -7.0)">16</text></g><circle class="sym" cx="0" cy="0" r="3" /><text class="lab" transform="translate(0 -11)">5</text></g></g></g></g></g></svg>