<svg xmlns="http://www.w3.org/2000/svg" xmlns:ev="http://www.w3.org/2001/xml-events" xmlns:xlink="http://www.w3.org/1999/xlink" baseProfile="full" height="200" version="1.1" width="600"><defs><style type="text/css"><![CDATA[.background path {fill: #808080; fill-opacity:0}.background path:nth-child(odd) {fill-opacity:.1}.axes {font-size: 14px}.x-axis .tick .lab {font-weight: bold}.axes, .tree {font-size: 14px; text-anchor:middle}.y-axis line.grid {stroke: #FAFAFA}.y-axis > .lab text {transform: translateX(0.8em) rotate(-90deg)}.x-axis .tick g {transform: translateY(0.9em)}.x-axis > .lab text {transform: translateY(-0.8em)}.axes line, .edge {stroke:black; fill:none}.node > .sym {fill: black; stroke: none}.site > .sym {stroke: black}.mut text {fill: red; font-style: italic}.mut.extra text {fill: hotpink}.mut line {fill: none; stroke: none}.mut .sym {fill: none; stroke: red}.mut.extra .sym {stroke: hotpink}.node .mut .sym {stroke-width: 1.5px}.tree text, .tree-sequence text {dominant-baseline: central}.plotbox .lab.lft {text-anchor: end}.plotbox .lab.rgt {text-anchor: start}.mut {display: none}]]></style></defs><g class="tree-sequence"><g class="background"><path d="M56.8,0 l174.4,0 l0,138.2 l-26.8576,25 l0,5 l-147.542,0 l0,-5 l0,-25 l0,-138.2z"/><path d="M231.2,0 l174.4,0 l0,138.2 l-55.808,25 l0,5 l-145.45,0 l0,-5 l26.8576,-25 l0,-138.2z"/><path d="M405.6,0 l174.4,0 l0,138.2 l0,25 l0,5 l-230.208,0 l0,-5 l55.808,-25 l0,-138.2z"/></g><g class="axes"><g class="x-axis"><g class="lab" transform="translate(318.4,200)"><text text-anchor="middle">Genome position</text></g><line x1="56.8" x2="580" y1="163.2" y2="163.2"/><g class="tick" transform="translate(56.8 163.2)"><line x1="0" x2="0" y1="0" y2="5"/><g class="lab" transform="translate(0,5)"><text>0</text></g></g><g class="tick" transform="translate(204.342 163.2)"><line x1="0" x2="0" y1="0" y2="5"/><g class="lab" transform="translate(0,5)"><text>282</text></g></g><g class="tick" transform="translate(349.792 163.2)"><line x1="0" x2="0" y1="0" y2="5"/><g class="lab" transform="translate(0,5)"><text>560</text></g></g><g class="tick" transform="translate(580 163.2)"><line x1="0" x2="0" y1="0" y2="5"/><g class="lab" transform="translate(0,5)"><text>1000</text></g></g><g class="site s0" transform="translate(191.262 163.2)"><line class="sym" x1="0" x2="0" y1="0" y2="-10"/><g class="mut m0"><polyline class="sym" points="2.5,-6.5 0,-1.5 -2.5,-6.5"/></g></g></g><g class="y-axis"><g class="lab" transform="translate(0,65.7)"><text text-anchor="middle">Node time</text></g><line x1="56.8" x2="56.8" y1="121.4" y2="10"/><g class="tick" transform="translate(56.8 121.4)"><line class="grid" x1="0" x2="523.2" y1="0" y2="0"/><line x1="0" x2="-5" y1="0" y2="0"/><g class="lab" transform="translate(-5,0)"><text text-anchor="end">0.00</text></g></g><g class="tick" transform="translate(56.8 105.633)"><line class="grid" x1="0" x2="523.2" y1="0" y2="0"/><line x1="0" x2="-5" y1="0" y2="0"/><g class="lab" transform="translate(-5,0)"><text text-anchor="end">0.05</text></g></g><g class="tick" transform="translate(56.8 89.8667)"><line class="grid" x1="0" x2="523.2" y1="0" y2="0"/><line x1="0" x2="-5" y1="0" y2="0"/><g class="lab" transform="translate(-5,0)"><text text-anchor="end">0.16</text></g></g><g class="tick" transform="translate(56.8 74.1)"><line class="grid" x1="0" x2="523.2" y1="0" y2="0"/><line x1="0" x2="-5" y1="0" y2="0"/><g class="lab" transform="translate(-5,0)"><text text-anchor="end">0.46</text></g></g><g class="tick" transform="translate(56.8 58.3333)"><line class="grid" x1="0" x2="523.2" y1="0" y2="0"/><line x1="0" x2="-5" y1="0" y2="0"/><g class="lab" transform="translate(-5,0)"><text text-anchor="end">1.25</text></g></g><g class="tick" transform="translate(56.8 42.5667)"><line class="grid" x1="0" x2="523.2" y1="0" y2="0"/><line x1="0" x2="-5" y1="0" y2="0"/><g class="lab" transform="translate(-5,0)"><text text-anchor="end">2.53</text></g></g><g class="tick" transform="translate(56.8 26.8)"><line class="grid" x1="0" x2="523.2" y1="0" y2="0"/><line x1="0" x2="-5" y1="0" y2="0"/><g class="lab" transform="translate(-5,0)"><text text-anchor="end">4.07</text></g></g></g></g><g class="plotbox trees"><g class="tree t0" transform="translate(56.8 0)"><g class="plotbox"><g class="node n11 p0 root" transform="translate(92.8 26.8)"><g class="a11 m0 node n8 p0 s0" transform="translate(33.6 47.3)"><g class="a8 i2 leaf node n4 p0 sample" transform="translate(16.8 47.3)"><path class="edge" d="M 0 0 V -47.3 H -16.8"/><rect class="sym" height="6" width="6" x="-3" y="-3"/><text class="lab" transform="translate(0 11)">4</text></g><g class="a8 node n6 p0" transform="translate(-16.8 31.5333)"><g class="a6 i1 leaf node n2 p0 sample" transform="translate(-11.2 15.7667)"><path class="edge" d="M 0 0 V -15.7667 H 11.2"/><rect class="sym" height="6" width="6" x="-3" y="-3"/><text class="lab" transform="translate(0 11)">2</text></g><g class="a6 i2 leaf node n5 p0 sample" transform="translate(11.2 15.7667)"><path class="edge" d="M 0 0 V -15.7667 H -11.2"/><rect class="sym" height="6" width="6" x="-3" y="-3"/><text class="lab" transform="translate(0 11)">5</text></g><path class="edge" d="M 0 0 V -31.5333 H 16.8"/><circle class="sym" cx="0" cy="0" r="3"/><text class="lab lft" transform="translate(-3 -7.0)">6</text></g><path class="edge" d="M 0 0 V -47.3 H -33.6"/><g class="mut m0 s0 unknown_time" transform="translate(0 -23.65)"><line x1="0" x2="0" y1="0" y2="23.65"/><path class="sym" d="M -3,-3 l 6,6 M -3,3 l 6,-6"/><text class="lab rgt" transform="translate(5 0)">0</text></g><circle class="sym" cx="0" cy="0" r="3"/><text class="lab rgt" transform="translate(3 -7.0)">8</text></g><g class="a11 node n10 p0" transform="translate(-33.6 15.7667)"><g class="a10 i1 leaf node n3 p0 sample" transform="translate(16.8 78.8333)"><path class="edge" d="M 0 0 V -78.8333 H -16.8"/><rect class="sym" height="6" width="6" x="-3" y="-3"/><text class="lab" transform="translate(0 11)">3</text></g><g class="a10 node n7 p0" transform="translate(-16.8 47.3)"><g class="a7 i0 leaf node n0 p0 sample" transform="translate(-11.2 31.5333)"><path class="edge" d="M 0 0 V -31.5333 H 11.2"/><rect class="sym" height="6" width="6" x="-3" y="-3"/><text class="lab" transform="translate(0 11)">0</text></g><g class="a7 i0 leaf node n1 p0 sample" transform="translate(11.2 31.5333)"><path class="edge" d="M 0 0 V -31.5333 H -11.2"/><rect class="sym" height="6" width="6" x="-3" y="-3"/><text class="lab" transform="translate(0 11)">1</text></g><path class="edge" d="M 0 0 V -47.3 H 16.8"/><circle class="sym" cx="0" cy="0" r="3"/><text class="lab lft" transform="translate(-3 -7.0)">7</text></g><path class="edge" d="M 0 0 V -15.7667 H 33.6"/><circle class="sym" cx="0" cy="0" r="3"/><text class="lab lft" transform="translate(-3 -7.0)">10</text></g><circle class="sym" cx="0" cy="0" r="3"/><text class="lab" transform="translate(0 -11)">11</text></g></g></g><g class="tree t1" transform="translate(231.2 0)"><g class="plotbox"><g class="node n10 p0 root" transform="translate(83 42.5667)"><g class="a10 node n7 p0" transform="translate(-40.6 47.3)"><g class="a7 i0 leaf node n0 p0 sample" transform="translate(-11.2 31.5333)"><path class="edge" d="M 0 0 V -31.5333 H 11.2"/><rect class="sym" height="6" width="6" x="-3" y="-3"/><text class="lab" transform="translate(0 11)">0</text></g><g class="a7 i0 leaf node n1 p0 sample" transform="translate(11.2 31.5333)"><path class="edge" d="M 0 0 V -31.5333 H -11.2"/><rect class="sym" height="6" width="6" x="-3" y="-3"/><text class="lab" transform="translate(0 11)">1</text></g><path class="edge" d="M 0 0 V -47.3 H 40.6"/><circle class="sym" cx="0" cy="0" r="3"/><text class="lab lft" transform="translate(-3 -7.0)">7</text></g><g class="a10 node n9 p0" transform="translate(40.6 15.7667)"><g class="a9 i1 leaf node n3 p0 sample" transform="translate(19.6 63.0667)"><path class="edge" d="M 0 0 V -63.0667 H -19.6"/><rect class="sym" height="6" width="6" x="-3" y="-3"/><text class="lab" transform="translate(0 11)">3</text></g><g class="a9 node n8 p0" transform="translate(-19.6 15.7667)"><g class="a8 i2 leaf node n4 p0 sample" transform="translate(16.8 47.3)"><path class="edge" d="M 0 0 V -47.3 H -16.8"/><rect class="sym" height="6" width="6" x="-3" y="-3"/><text class="lab" transform="translate(0 11)">4</text></g><g class="a8 node n6 p0" transform="translate(-16.8 31.5333)"><g class="a6 i1 leaf node n2 p0 sample" transform="translate(-11.2 15.7667)"><path class="edge" d="M 0 0 V -15.7667 H 11.2"/><rect class="sym" height="6" width="6" x="-3" y="-3"/><text class="lab" transform="translate(0 11)">2</text></g><g class="a6 i2 leaf node n5 p0 sample" transform="translate(11.2 15.7667)"><path class="edge" d="M 0 0 V -15.7667 H -11.2"/><rect class="sym" height="6" width="6" x="-3" y="-3"/><text class="lab" transform="translate(0 11)">5</text></g><path class="edge" d="M 0 0 V -31.5333 H 16.8"/><circle class="sym" cx="0" cy="0" r="3"/><text class="lab lft" transform="translate(-3 -7.0)">6</text></g><path class="edge" d="M 0 0 V -15.7667 H 19.6"/><circle class="sym" cx="0" cy="0" r="3"/><text class="lab lft" transform="translate(-3 -7.0)">8</text></g><path class="edge" d="M 0 0 V -15.7667 H -40.6"/><circle class="sym" cx="0" cy="0" r="3"/><text class="lab rgt" transform="translate(3 -7.0)">9</text></g><circle class="sym" cx="0" cy="0" r="3"/><text class="lab" transform="translate(0 -11)">10</text></g></g></g><g class="tree t2" transform="translate(405.6 0)"><g class="plotbox"><g class="node n11 p0 root" transform="translate(83 26.8)"><g class="a11 node n7 p0" transform="translate(-40.6 63.0667)"><g class="a7 i0 leaf node n0 p0 sample" transform="translate(-11.2 31.5333)"><path class="edge" d="M 0 0 V -31.5333 H 11.2"/><rect class="sym" height="6" width="6" x="-3" y="-3"/><text class="lab" transform="translate(0 11)">0</text></g><g class="a7 i0 leaf node n1 p0 sample" transform="translate(11.2 31.5333)"><path class="edge" d="M 0 0 V -31.5333 H -11.2"/><rect class="sym" height="6" width="6" x="-3" y="-3"/><text class="lab" transform="translate(0 11)">1</text></g><path class="edge" d="M 0 0 V -63.0667 H 40.6"/><circle class="sym" cx="0" cy="0" r="3"/><text class="lab lft" transform="translate(-3 -7.0)">7</text></g><g class="a11 node n9 p0" transform="translate(40.6 31.5333)"><g class="a9 i1 leaf node n3 p0 sample" transform="translate(19.6 63.0667)"><path class="edge" d="M 0 0 V -63.0667 H -19.6"/><rect class="sym" height="6" width="6" x="-3" y="-3"/><text class="lab" transform="translate(0 11)">3</text></g><g class="a9 node n8 p0" transform="translate(-19.6 15.7667)"><g class="a8 i2 leaf node n4 p0 sample" transform="translate(16.8 47.3)"><path class="edge" d="M 0 0 V -47.3 H -16.8"/><rect class="sym" height="6" width="6" x="-3" y="-3"/><text class="lab" transform="translate(0 11)">4</text></g><g class="a8 node n6 p0" transform="translate(-16.8 31.5333)"><g class="a6 i1 leaf node n2 p0 sample" transform="translate(-11.2 15.7667)"><path class="edge" d="M 0 0 V -15.7667 H 11.2"/><rect class="sym" height="6" width="6" x="-3" y="-3"/><text class="lab" transform="translate(0 11)">2</text></g><g class="a6 i2 leaf node n5 p0 sample" transform="translate(11.2 15.7667)"><path class="edge" d="M 0 0 V -15.7667 H -11.2"/><rect class="sym" height="6" width="6" x="-3" y="-3"/><text class="lab" transform="translate(0 11)">5</text></g><path class="edge" d="M 0 0 V -31.5333 H 16.8"/><circle class="sym" cx="0" cy="0" r="3"/><text class="lab lft" transform="translate(-3 -7.0)">6</text></g><path class="edge" d="M 0 0 V -15.7667 H 19.6"/><circle class="sym" cx="0" cy="0" r="3"/><text class="lab lft" transform="translate(-3 -7.0)">8</text></g><path class="edge" d="M 0 0 V -31.5333 H -40.6"/><circle class="sym" cx="0" cy="0" r="3"/><text class="lab rgt" transform="translate(3 -7.0)">9</text></g><circle class="sym" cx="0" cy="0" r="3"/><text class="lab" transform="translate(0 -11)">11</text></g></g></g></g></g></svg>