<svg baseProfile="full" height="250" version="1.1" width="1200" xmlns="http://www.w3.org/2000/svg" xmlns:ev="http://www.w3.org/2001/xml-events" xmlns:xlink="http://www.w3.org/1999/xlink"><defs><style type="text/css"><![CDATA[.background path {fill: #808080; fill-opacity: 0}.background path:nth-child(odd) {fill-opacity: .1}.axes {font-size: 14px}.x-axis .tick .lab {font-weight: bold; dominant-baseline: hanging}.axes, .tree {font-size: 14px; text-anchor: middle}.axes line, .edge {stroke: black; fill: none}.axes .ax-skip {stroke-dasharray: 4}.y-axis .grid {stroke: #FAFAFA}.node > .sym {fill: black; stroke: none}.site > .sym {stroke: black}.mut text {fill: red; font-style: italic}.mut.extra text {fill: hotpink}.mut line {fill: none; stroke: none}.mut .sym {fill: none; stroke: red}.mut.extra .sym {stroke: hotpink}.node .mut .sym {stroke-width: 1.5px}.tree text, .tree-sequence text {dominant-baseline: central}.plotbox .lab.lft {text-anchor: end}.plotbox .lab.rgt {text-anchor: start}.a15.n9 > .edge {stroke: cyan; stroke-width: 2px}]]></style></defs><g class="tree-sequence"><g class="background"><path d="M20,0 l128.889,0 l0,188.2 l99.7471,25 l0,5 l-228.636,0 l0,-5 l0,-25 l0,-188.2z" /><path d="M148.889,0 l128.889,0 l0,188.2 l64.7254,25 l0,5 l-93.8672,0 l0,-5 l-99.747,-25 l0,-188.2z" /><path d="M277.778,0 l128.889,0 l0,188.2 l107.145,25 l0,5 l-171.309,0 l0,-5 l-64.725,-25 l0,-188.2z" /><path d="M406.667,0 l128.889,0 l0,188.2 l27.8812,25 l0,5 l-49.6248,0 l0,-5 l-107.145,-25 l0,-188.2z" /><path d="M535.556,0 l128.889,0 l0,188.2 l-59.5028,25 l0,5 l-41.5048,0 l0,-5 l-27.881,-25 l0,-188.2z" /><path d="M664.444,0 l128.889,0 l0,188.2 l-66.5917,25 l0,5 l-121.8,0 l0,-5 l59.502,-25 l0,-188.2z" /><path d="M793.333,0 l128.889,0 l0,188.2 l56.2626,25 l0,5 l-251.743,0 l0,-5 l66.591,-25 l0,-188.2z" /><path d="M922.222,0 l128.889,0 l0,188.2 l41.5873,25 l0,5 l-114.214,0 l0,-5 l-56.263,-25 l0,-188.2z" /><path d="M1051.11,0 l128.889,0 l0,188.2 l0,25 l0,5 l-87.3016,0 l0,-5 l-41.59,-25 l0,-188.2z" /></g><g class="axes"><g class="x-axis"><g class="title" transform="translate(600 250)"><text class="lab" text-anchor="middle" transform="translate(0 -11)">Genome position</text></g><line class="ax-line" x1="20" x2="1180" y1="213.2" y2="213.2" /><g class="ticks"><g class="tick" transform="translate(20 213.2)"><line x1="0" x2="0" y1="0" y2="5" /><g transform="translate(0 6)"><text class="lab">0</text></g></g><g class="tick" transform="translate(248.636 213.2)"><line x1="0" x2="0" y1="0" y2="5" /><g transform="translate(0 6)"><text class="lab">9855</text></g></g><g class="tick" transform="translate(342.503 213.2)"><line x1="0" x2="0" y1="0" y2="5" /><g transform="translate(0 6)"><text class="lab">13901</text></g></g><g class="tick" transform="translate(513.812 213.2)"><line x1="0" x2="0" y1="0" y2="5" /><g transform="translate(0 6)"><text class="lab">21285</text></g></g><g class="tick" transform="translate(563.437 213.2)"><line x1="0" x2="0" y1="0" y2="5" /><g transform="translate(0 6)"><text class="lab">23424</text></g></g><g class="tick" transform="translate(604.942 213.2)"><line x1="0" x2="0" y1="0" y2="5" /><g transform="translate(0 6)"><text class="lab">25213</text></g></g><g class="tick" transform="translate(726.742 213.2)"><line x1="0" x2="0" y1="0" y2="5" /><g transform="translate(0 6)"><text class="lab">30463</text></g></g><g class="tick" transform="translate(978.485 213.2)"><line x1="0" x2="0" y1="0" y2="5" /><g transform="translate(0 6)"><text class="lab">41314</text></g></g><g class="tick" transform="translate(1092.7 213.2)"><line x1="0" x2="0" y1="0" y2="5" /><g transform="translate(0 6)"><text class="lab">46237</text></g></g><g class="tick" transform="translate(1180 213.2)"><line x1="0" x2="0" y1="0" y2="5" /><g transform="translate(0 6)"><text class="lab">50000</text></g></g></g></g></g><g class="plotbox trees"><g class="tree t0" transform="translate(20 0)"><g class="plotbox"><g class="c2 node n17 p3 root" transform="translate(63.4028 75)"><g class="a17 c2 node n13 p3" transform="translate(-26.0417 38.56)"><g class="a13 i0 leaf node n0 p0 sample" transform="translate(-11.8056 57.84)"><path class="edge" d="M 0 0 V -57.84 H 11.8056" /><rect class="sym" height="6" width="6" x="-3" y="-3" /><text class="lab" transform="translate(0 11)">0</text></g><g class="a13 c2 node n12 p3" transform="translate(11.8056 9.64)"><g class="a12 i0 leaf node n1 p0 sample" transform="translate(-12.5 48.2)"><path class="edge" d="M 0 0 V -48.2 H 12.5" /><rect class="sym" height="6" width="6" x="-3" y="-3" /><text class="lab" transform="translate(0 11)">1</text></g><g class="a12 c2 node n9 p3" transform="translate(12.5 28.92)"><g class="a9 i2 leaf node n4 p1 sample" transform="translate(8.33333 19.28)"><path class="edge" d="M 0 0 V -19.28 H -8.33333" /><rect class="sym" height="6" width="6" x="-3" y="-3" /><text class="lab" transform="translate(0 11)">4</text></g><g class="a9 c2 node n8 p0" transform="translate(-8.33333 9.64)"><g class="a8 i1 leaf node n2 p0 sample" transform="translate(-5.55556 9.64)"><path class="edge" d="M 0 0 V -9.64 H 5.55556" /><rect class="sym" height="6" width="6" x="-3" y="-3" /><text class="lab" transform="translate(0 11)">2</text></g><g class="a8 i1 leaf node n3 p0 sample" transform="translate(5.55556 9.64)"><path class="edge" d="M 0 0 V -9.64 H -5.55556" /><rect class="sym" height="6" width="6" x="-3" y="-3" /><text class="lab" transform="translate(0 11)">3</text></g><path class="edge" d="M 0 0 V -9.64 H 8.33333" /><circle class="sym" cx="0" cy="0" r="3" /><text class="lab lft" transform="translate(-3 -7.0)">8</text></g><path class="edge" d="M 0 0 V -28.92 H -12.5" /><circle class="sym" cx="0" cy="0" r="3" /><text class="lab rgt" transform="translate(3 -7.0)">9</text></g><path class="edge" d="M 0 0 V -9.64 H -11.8056" /><circle class="sym" cx="0" cy="0" r="3" /><text class="lab rgt" transform="translate(3 -7.0)">12</text></g><path class="edge" d="M 0 0 V -38.56 H 26.0417" /><circle class="sym" cx="0" cy="0" r="3" /><text class="lab lft" transform="translate(-3 -7.0)">13</text></g><g class="a17 c2 node n16 p3" transform="translate(26.0417 9.64)"><g class="a16 i2 leaf node n5 p1 sample" transform="translate(-8.33333 86.76)"><path class="edge" d="M 0 0 V -86.76 H 8.33333" /><rect class="sym" height="6" width="6" x="-3" y="-3" /><text class="lab" transform="translate(0 11)">5</text></g><g class="a16 c2 node n10 p3" transform="translate(8.33333 57.84)"><g class="a10 i3 leaf node n6 p2 sample" transform="translate(-5.55556 28.92)"><path class="edge" d="M 0 0 V -28.92 H 5.55556" /><rect class="sym" height="6" width="6" x="-3" y="-3" /><text class="lab" transform="translate(0 11)">6</text></g><g class="a10 i3 leaf node n7 p2 sample" transform="translate(5.55556 28.92)"><path class="edge" d="M 0 0 V -28.92 H -5.55556" /><rect class="sym" height="6" width="6" x="-3" y="-3" /><text class="lab" transform="translate(0 11)">7</text></g><path class="edge" d="M 0 0 V -57.84 H -8.33333" /><circle class="sym" cx="0" cy="0" r="3" /><text class="lab rgt" transform="translate(3 -7.0)">10</text></g><path class="edge" d="M 0 0 V -9.64 H -26.0417" /><circle class="sym" cx="0" cy="0" r="3" /><text class="lab rgt" transform="translate(3 -7.0)">16</text></g><circle class="sym" cx="0" cy="0" r="3" /><text class="lab" transform="translate(0 -11)">17</text></g></g></g><g class="tree t1" transform="translate(148.889 0)"><g class="plotbox"><g class="c2 node n17 p3 root" transform="translate(57.8472 75)"><g class="a17 c2 node n13 p3" transform="translate(-26.7361 38.56)"><g class="a13 i0 leaf node n0 p0 sample" transform="translate(-5.55556 57.84)"><path class="edge" d="M 0 0 V -57.84 H 5.55556" /><rect class="sym" height="6" width="6" x="-3" y="-3" /><text class="lab" transform="translate(0 11)">0</text></g><g class="a13 i0 leaf node n1 p0 sample" transform="translate(5.55556 57.84)"><path class="edge" d="M 0 0 V -57.84 H -5.55556" /><rect class="sym" height="6" width="6" x="-3" y="-3" /><text class="lab" transform="translate(0 11)">1</text></g><path class="edge" d="M 0 0 V -38.56 H 26.7361" /><circle class="sym" cx="0" cy="0" r="3" /><text class="lab lft" transform="translate(-3 -7.0)">13</text></g><g class="a17 c2 node n16 p3" transform="translate(26.7361 9.64)"><g class="a16 c2 node n10 p3" transform="translate(13.1944 57.84)"><g class="a10 i3 leaf node n6 p2 sample" transform="translate(-5.55556 28.92)"><path class="edge" d="M 0 0 V -28.92 H 5.55556" /><rect class="sym" height="6" width="6" x="-3" y="-3" /><text class="lab" transform="translate(0 11)">6</text></g><g class="a10 i3 leaf node n7 p2 sample" transform="translate(5.55556 28.92)"><path class="edge" d="M 0 0 V -28.92 H -5.55556" /><rect class="sym" height="6" width="6" x="-3" y="-3" /><text class="lab" transform="translate(0 11)">7</text></g><path class="edge" d="M 0 0 V -57.84 H -13.1944" /><circle class="sym" cx="0" cy="0" r="3" /><text class="lab rgt" transform="translate(3 -7.0)">10</text></g><g class="a16 c2 node n15 p3" transform="translate(-13.1944 9.64)"><g class="a15 i2 leaf node n5 p1 sample" transform="translate(9.72222 77.12)"><path class="edge" d="M 0 0 V -77.12 H -9.72222" /><rect class="sym" height="6" width="6" x="-3" y="-3" /><text class="lab" transform="translate(0 11)">5</text></g><g class="a15 c2 node n9 p3" transform="translate(-9.72222 57.84)"><g class="a9 i2 leaf node n4 p1 sample" transform="translate(8.33333 19.28)"><path class="edge" d="M 0 0 V -19.28 H -8.33333" /><rect class="sym" height="6" width="6" x="-3" y="-3" /><text class="lab" transform="translate(0 11)">4</text></g><g class="a9 c2 node n8 p0" transform="translate(-8.33333 9.64)"><g class="a8 i1 leaf node n2 p0 sample" transform="translate(-5.55556 9.64)"><path class="edge" d="M 0 0 V -9.64 H 5.55556" /><rect class="sym" height="6" width="6" x="-3" y="-3" /><text class="lab" transform="translate(0 11)">2</text></g><g class="a8 i1 leaf node n3 p0 sample" transform="translate(5.55556 9.64)"><path class="edge" d="M 0 0 V -9.64 H -5.55556" /><rect class="sym" height="6" width="6" x="-3" y="-3" /><text class="lab" transform="translate(0 11)">3</text></g><path class="edge" d="M 0 0 V -9.64 H 8.33333" /><circle class="sym" cx="0" cy="0" r="3" /><text class="lab lft" transform="translate(-3 -7.0)">8</text></g><path class="edge" d="M 0 0 V -57.84 H 9.72222" /><circle class="sym" cx="0" cy="0" r="3" /><text class="lab lft" transform="translate(-3 -7.0)">9</text></g><path class="edge" d="M 0 0 V -9.64 H 13.1944" /><circle class="sym" cx="0" cy="0" r="3" /><text class="lab lft" transform="translate(-3 -7.0)">15</text></g><path class="edge" d="M 0 0 V -9.64 H -26.7361" /><circle class="sym" cx="0" cy="0" r="3" /><text class="lab rgt" transform="translate(3 -7.0)">16</text></g><circle class="sym" cx="0" cy="0" r="3" /><text class="lab" transform="translate(0 -11)">17</text></g></g></g><g class="tree t2" transform="translate(277.778 0)"><g class="plotbox"><g class="c2 node n17 p3 root" transform="translate(57.8472 75)"><g class="a17 c2 node n16 p3" transform="translate(26.7361 9.64)"><g class="a16 c2 node n10 p3" transform="translate(13.1944 57.84)"><g class="a10 i3 leaf node n6 p2 sample" transform="translate(-5.55556 28.92)"><path class="edge" d="M 0 0 V -28.92 H 5.55556" /><rect class="sym" height="6" width="6" x="-3" y="-3" /><text class="lab" transform="translate(0 11)">6</text></g><g class="a10 i3 leaf node n7 p2 sample" transform="translate(5.55556 28.92)"><path class="edge" d="M 0 0 V -28.92 H -5.55556" /><rect class="sym" height="6" width="6" x="-3" y="-3" /><text class="lab" transform="translate(0 11)">7</text></g><path class="edge" d="M 0 0 V -57.84 H -13.1944" /><circle class="sym" cx="0" cy="0" r="3" /><text class="lab rgt" transform="translate(3 -7.0)">10</text></g><g class="a16 c2 node n15 p3" transform="translate(-13.1944 9.64)"><g class="a15 i2 leaf node n5 p1 sample" transform="translate(9.72222 77.12)"><path class="edge" d="M 0 0 V -77.12 H -9.72222" /><rect class="sym" height="6" width="6" x="-3" y="-3" /><text class="lab" transform="translate(0 11)">5</text></g><g class="a15 c2 node n9 p3" transform="translate(-9.72222 57.84)"><g class="a9 i2 leaf node n4 p1 sample" transform="translate(8.33333 19.28)"><path class="edge" d="M 0 0 V -19.28 H -8.33333" /><rect class="sym" height="6" width="6" x="-3" y="-3" /><text class="lab" transform="translate(0 11)">4</text></g><g class="a9 c2 node n8 p0" transform="translate(-8.33333 9.64)"><g class="a8 i1 leaf node n2 p0 sample" transform="translate(-5.55556 9.64)"><path class="edge" d="M 0 0 V -9.64 H 5.55556" /><rect class="sym" height="6" width="6" x="-3" y="-3" /><text class="lab" transform="translate(0 11)">2</text></g><g class="a8 i1 leaf node n3 p0 sample" transform="translate(5.55556 9.64)"><path class="edge" d="M 0 0 V -9.64 H -5.55556" /><rect class="sym" height="6" width="6" x="-3" y="-3" /><text class="lab" transform="translate(0 11)">3</text></g><path class="edge" d="M 0 0 V -9.64 H 8.33333" /><circle class="sym" cx="0" cy="0" r="3" /><text class="lab lft" transform="translate(-3 -7.0)">8</text></g><path class="edge" d="M 0 0 V -57.84 H 9.72222" /><circle class="sym" cx="0" cy="0" r="3" /><text class="lab lft" transform="translate(-3 -7.0)">9</text></g><path class="edge" d="M 0 0 V -9.64 H 13.1944" /><circle class="sym" cx="0" cy="0" r="3" /><text class="lab lft" transform="translate(-3 -7.0)">15</text></g><path class="edge" d="M 0 0 V -9.64 H -26.7361" /><circle class="sym" cx="0" cy="0" r="3" /><text class="lab rgt" transform="translate(3 -7.0)">16</text></g><g class="a17 c2 node n14 p3" transform="translate(-26.7361 28.92)"><g class="a14 i0 leaf node n0 p0 sample" transform="translate(-5.55556 67.48)"><path class="edge" d="M 0 0 V -67.48 H 5.55556" /><rect class="sym" height="6" width="6" x="-3" y="-3" /><text class="lab" transform="translate(0 11)">0</text></g><g class="a14 i0 leaf node n1 p0 sample" transform="translate(5.55556 67.48)"><path class="edge" d="M 0 0 V -67.48 H -5.55556" /><rect class="sym" height="6" width="6" x="-3" y="-3" /><text class="lab" transform="translate(0 11)">1</text></g><path class="edge" d="M 0 0 V -28.92 H 26.7361" /><circle class="sym" cx="0" cy="0" r="3" /><text class="lab lft" transform="translate(-3 -7.0)">14</text></g><circle class="sym" cx="0" cy="0" r="3" /><text class="lab" transform="translate(0 -11)">17</text></g></g></g><g class="tree t3" transform="translate(406.667 0)"><g class="plotbox"><g class="c2 node n19 p3 root" transform="translate(57.8472 55.72)"><g class="a19 c2 node n14 p3" transform="translate(-26.7361 48.2)"><g class="a14 i0 leaf node n0 p0 sample" transform="translate(-5.55556 67.48)"><path class="edge" d="M 0 0 V -67.48 H 5.55556" /><rect class="sym" height="6" width="6" x="-3" y="-3" /><text class="lab" transform="translate(0 11)">0</text></g><g class="a14 i0 leaf node n1 p0 sample" transform="translate(5.55556 67.48)"><path class="edge" d="M 0 0 V -67.48 H -5.55556" /><rect class="sym" height="6" width="6" x="-3" y="-3" /><text class="lab" transform="translate(0 11)">1</text></g><path class="edge" d="M 0 0 V -48.2 H 26.7361" /><circle class="sym" cx="0" cy="0" r="3" /><text class="lab lft" transform="translate(-3 -7.0)">14</text></g><g class="a19 c2 node n16 p3" transform="translate(26.7361 28.92)"><g class="a16 c2 node n10 p3" transform="translate(13.1944 57.84)"><g class="a10 i3 leaf node n6 p2 sample" transform="translate(-5.55556 28.92)"><path class="edge" d="M 0 0 V -28.92 H 5.55556" /><rect class="sym" height="6" width="6" x="-3" y="-3" /><text class="lab" transform="translate(0 11)">6</text></g><g class="a10 i3 leaf node n7 p2 sample" transform="translate(5.55556 28.92)"><path class="edge" d="M 0 0 V -28.92 H -5.55556" /><rect class="sym" height="6" width="6" x="-3" y="-3" /><text class="lab" transform="translate(0 11)">7</text></g><path class="edge" d="M 0 0 V -57.84 H -13.1944" /><circle class="sym" cx="0" cy="0" r="3" /><text class="lab rgt" transform="translate(3 -7.0)">10</text></g><g class="a16 c2 node n15 p3" transform="translate(-13.1944 9.64)"><g class="a15 i2 leaf node n5 p1 sample" transform="translate(9.72222 77.12)"><path class="edge" d="M 0 0 V -77.12 H -9.72222" /><rect class="sym" height="6" width="6" x="-3" y="-3" /><text class="lab" transform="translate(0 11)">5</text></g><g class="a15 c2 node n9 p3" transform="translate(-9.72222 57.84)"><g class="a9 i2 leaf node n4 p1 sample" transform="translate(8.33333 19.28)"><path class="edge" d="M 0 0 V -19.28 H -8.33333" /><rect class="sym" height="6" width="6" x="-3" y="-3" /><text class="lab" transform="translate(0 11)">4</text></g><g class="a9 c2 node n8 p0" transform="translate(-8.33333 9.64)"><g class="a8 i1 leaf node n2 p0 sample" transform="translate(-5.55556 9.64)"><path class="edge" d="M 0 0 V -9.64 H 5.55556" /><rect class="sym" height="6" width="6" x="-3" y="-3" /><text class="lab" transform="translate(0 11)">2</text></g><g class="a8 i1 leaf node n3 p0 sample" transform="translate(5.55556 9.64)"><path class="edge" d="M 0 0 V -9.64 H -5.55556" /><rect class="sym" height="6" width="6" x="-3" y="-3" /><text class="lab" transform="translate(0 11)">3</text></g><path class="edge" d="M 0 0 V -9.64 H 8.33333" /><circle class="sym" cx="0" cy="0" r="3" /><text class="lab lft" transform="translate(-3 -7.0)">8</text></g><path class="edge" d="M 0 0 V -57.84 H 9.72222" /><circle class="sym" cx="0" cy="0" r="3" /><text class="lab lft" transform="translate(-3 -7.0)">9</text></g><path class="edge" d="M 0 0 V -9.64 H 13.1944" /><circle class="sym" cx="0" cy="0" r="3" /><text class="lab lft" transform="translate(-3 -7.0)">15</text></g><path class="edge" d="M 0 0 V -28.92 H -26.7361" /><circle class="sym" cx="0" cy="0" r="3" /><text class="lab rgt" transform="translate(3 -7.0)">16</text></g><circle class="sym" cx="0" cy="0" r="3" /><text class="lab" transform="translate(0 -11)">19</text></g></g></g><g class="tree t4" transform="translate(535.556 0)"><g class="plotbox"><g class="c2 node n22 p3 root" transform="translate(57.8472 26.8)"><g class="a22 c2 node n14 p3" transform="translate(-26.7361 77.12)"><g class="a14 i0 leaf node n0 p0 sample" transform="translate(-5.55556 67.48)"><path class="edge" d="M 0 0 V -67.48 H 5.55556" /><rect class="sym" height="6" width="6" x="-3" y="-3" /><text class="lab" transform="translate(0 11)">0</text></g><g class="a14 i0 leaf node n1 p0 sample" transform="translate(5.55556 67.48)"><path class="edge" d="M 0 0 V -67.48 H -5.55556" /><rect class="sym" height="6" width="6" x="-3" y="-3" /><text class="lab" transform="translate(0 11)">1</text></g><path class="edge" d="M 0 0 V -77.12 H 26.7361" /><circle class="sym" cx="0" cy="0" r="3" /><text class="lab lft" transform="translate(-3 -7.0)">14</text></g><g class="a22 c2 node n16 p3" transform="translate(26.7361 57.84)"><g class="a16 c2 node n10 p3" transform="translate(13.1944 57.84)"><g class="a10 i3 leaf node n6 p2 sample" transform="translate(-5.55556 28.92)"><path class="edge" d="M 0 0 V -28.92 H 5.55556" /><rect class="sym" height="6" width="6" x="-3" y="-3" /><text class="lab" transform="translate(0 11)">6</text></g><g class="a10 i3 leaf node n7 p2 sample" transform="translate(5.55556 28.92)"><path class="edge" d="M 0 0 V -28.92 H -5.55556" /><rect class="sym" height="6" width="6" x="-3" y="-3" /><text class="lab" transform="translate(0 11)">7</text></g><path class="edge" d="M 0 0 V -57.84 H -13.1944" /><circle class="sym" cx="0" cy="0" r="3" /><text class="lab rgt" transform="translate(3 -7.0)">10</text></g><g class="a16 c2 node n15 p3" transform="translate(-13.1944 9.64)"><g class="a15 i2 leaf node n5 p1 sample" transform="translate(9.72222 77.12)"><path class="edge" d="M 0 0 V -77.12 H -9.72222" /><rect class="sym" height="6" width="6" x="-3" y="-3" /><text class="lab" transform="translate(0 11)">5</text></g><g class="a15 c2 node n9 p3" transform="translate(-9.72222 57.84)"><g class="a9 i2 leaf node n4 p1 sample" transform="translate(8.33333 19.28)"><path class="edge" d="M 0 0 V -19.28 H -8.33333" /><rect class="sym" height="6" width="6" x="-3" y="-3" /><text class="lab" transform="translate(0 11)">4</text></g><g class="a9 c2 node n8 p0" transform="translate(-8.33333 9.64)"><g class="a8 i1 leaf node n2 p0 sample" transform="translate(-5.55556 9.64)"><path class="edge" d="M 0 0 V -9.64 H 5.55556" /><rect class="sym" height="6" width="6" x="-3" y="-3" /><text class="lab" transform="translate(0 11)">2</text></g><g class="a8 i1 leaf node n3 p0 sample" transform="translate(5.55556 9.64)"><path class="edge" d="M 0 0 V -9.64 H -5.55556" /><rect class="sym" height="6" width="6" x="-3" y="-3" /><text class="lab" transform="translate(0 11)">3</text></g><path class="edge" d="M 0 0 V -9.64 H 8.33333" /><circle class="sym" cx="0" cy="0" r="3" /><text class="lab lft" transform="translate(-3 -7.0)">8</text></g><path class="edge" d="M 0 0 V -57.84 H 9.72222" /><circle class="sym" cx="0" cy="0" r="3" /><text class="lab lft" transform="translate(-3 -7.0)">9</text></g><path class="edge" d="M 0 0 V -9.64 H 13.1944" /><circle class="sym" cx="0" cy="0" r="3" /><text class="lab lft" transform="translate(-3 -7.0)">15</text></g><path class="edge" d="M 0 0 V -57.84 H -26.7361" /><circle class="sym" cx="0" cy="0" r="3" /><text class="lab rgt" transform="translate(3 -7.0)">16</text></g><circle class="sym" cx="0" cy="0" r="3" /><text class="lab" transform="translate(0 -11)">22</text></g></g></g><g class="tree t5" transform="translate(664.444 0)"><g class="plotbox"><g class="c2 node n21 p3 root" transform="translate(57.8472 36.44)"><g class="a21 c2 node n14 p3" transform="translate(-26.7361 67.48)"><g class="a14 i0 leaf node n0 p0 sample" transform="translate(-5.55556 67.48)"><path class="edge" d="M 0 0 V -67.48 H 5.55556" /><rect class="sym" height="6" width="6" x="-3" y="-3" /><text class="lab" transform="translate(0 11)">0</text></g><g class="a14 i0 leaf node n1 p0 sample" transform="translate(5.55556 67.48)"><path class="edge" d="M 0 0 V -67.48 H -5.55556" /><rect class="sym" height="6" width="6" x="-3" y="-3" /><text class="lab" transform="translate(0 11)">1</text></g><path class="edge" d="M 0 0 V -67.48 H 26.7361" /><circle class="sym" cx="0" cy="0" r="3" /><text class="lab lft" transform="translate(-3 -7.0)">14</text></g><g class="a21 c2 node n16 p3" transform="translate(26.7361 48.2)"><g class="a16 c2 node n10 p3" transform="translate(13.1944 57.84)"><g class="a10 i3 leaf node n6 p2 sample" transform="translate(-5.55556 28.92)"><path class="edge" d="M 0 0 V -28.92 H 5.55556" /><rect class="sym" height="6" width="6" x="-3" y="-3" /><text class="lab" transform="translate(0 11)">6</text></g><g class="a10 i3 leaf node n7 p2 sample" transform="translate(5.55556 28.92)"><path class="edge" d="M 0 0 V -28.92 H -5.55556" /><rect class="sym" height="6" width="6" x="-3" y="-3" /><text class="lab" transform="translate(0 11)">7</text></g><path class="edge" d="M 0 0 V -57.84 H -13.1944" /><circle class="sym" cx="0" cy="0" r="3" /><text class="lab rgt" transform="translate(3 -7.0)">10</text></g><g class="a16 c2 node n15 p3" transform="translate(-13.1944 9.64)"><g class="a15 i2 leaf node n5 p1 sample" transform="translate(9.72222 77.12)"><path class="edge" d="M 0 0 V -77.12 H -9.72222" /><rect class="sym" height="6" width="6" x="-3" y="-3" /><text class="lab" transform="translate(0 11)">5</text></g><g class="a15 c2 node n9 p3" transform="translate(-9.72222 57.84)"><g class="a9 i2 leaf node n4 p1 sample" transform="translate(8.33333 19.28)"><path class="edge" d="M 0 0 V -19.28 H -8.33333" /><rect class="sym" height="6" width="6" x="-3" y="-3" /><text class="lab" transform="translate(0 11)">4</text></g><g class="a9 c2 node n8 p0" transform="translate(-8.33333 9.64)"><g class="a8 i1 leaf node n2 p0 sample" transform="translate(-5.55556 9.64)"><path class="edge" d="M 0 0 V -9.64 H 5.55556" /><rect class="sym" height="6" width="6" x="-3" y="-3" /><text class="lab" transform="translate(0 11)">2</text></g><g class="a8 i1 leaf node n3 p0 sample" transform="translate(5.55556 9.64)"><path class="edge" d="M 0 0 V -9.64 H -5.55556" /><rect class="sym" height="6" width="6" x="-3" y="-3" /><text class="lab" transform="translate(0 11)">3</text></g><path class="edge" d="M 0 0 V -9.64 H 8.33333" /><circle class="sym" cx="0" cy="0" r="3" /><text class="lab lft" transform="translate(-3 -7.0)">8</text></g><path class="edge" d="M 0 0 V -57.84 H 9.72222" /><circle class="sym" cx="0" cy="0" r="3" /><text class="lab lft" transform="translate(-3 -7.0)">9</text></g><path class="edge" d="M 0 0 V -9.64 H 13.1944" /><circle class="sym" cx="0" cy="0" r="3" /><text class="lab lft" transform="translate(-3 -7.0)">15</text></g><path class="edge" d="M 0 0 V -48.2 H -26.7361" /><circle class="sym" cx="0" cy="0" r="3" /><text class="lab rgt" transform="translate(3 -7.0)">16</text></g><circle class="sym" cx="0" cy="0" r="3" /><text class="lab" transform="translate(0 -11)">21</text></g></g></g><g class="tree t6" transform="translate(793.333 0)"><g class="plotbox"><g class="c2 node n20 p3 root" transform="translate(57.8472 46.08)"><g class="a20 c2 node n14 p3" transform="translate(-26.7361 57.84)"><g class="a14 i0 leaf node n0 p0 sample" transform="translate(-5.55556 67.48)"><path class="edge" d="M 0 0 V -67.48 H 5.55556" /><rect class="sym" height="6" width="6" x="-3" y="-3" /><text class="lab" transform="translate(0 11)">0</text></g><g class="a14 i0 leaf node n1 p0 sample" transform="translate(5.55556 67.48)"><path class="edge" d="M 0 0 V -67.48 H -5.55556" /><rect class="sym" height="6" width="6" x="-3" y="-3" /><text class="lab" transform="translate(0 11)">1</text></g><path class="edge" d="M 0 0 V -57.84 H 26.7361" /><circle class="sym" cx="0" cy="0" r="3" /><text class="lab lft" transform="translate(-3 -7.0)">14</text></g><g class="a20 c2 node n16 p3" transform="translate(26.7361 38.56)"><g class="a16 c2 node n10 p3" transform="translate(13.1944 57.84)"><g class="a10 i3 leaf node n6 p2 sample" transform="translate(-5.55556 28.92)"><path class="edge" d="M 0 0 V -28.92 H 5.55556" /><rect class="sym" height="6" width="6" x="-3" y="-3" /><text class="lab" transform="translate(0 11)">6</text></g><g class="a10 i3 leaf node n7 p2 sample" transform="translate(5.55556 28.92)"><path class="edge" d="M 0 0 V -28.92 H -5.55556" /><rect class="sym" height="6" width="6" x="-3" y="-3" /><text class="lab" transform="translate(0 11)">7</text></g><path class="edge" d="M 0 0 V -57.84 H -13.1944" /><circle class="sym" cx="0" cy="0" r="3" /><text class="lab rgt" transform="translate(3 -7.0)">10</text></g><g class="a16 c2 node n15 p3" transform="translate(-13.1944 9.64)"><g class="a15 i2 leaf node n5 p1 sample" transform="translate(9.72222 77.12)"><path class="edge" d="M 0 0 V -77.12 H -9.72222" /><rect class="sym" height="6" width="6" x="-3" y="-3" /><text class="lab" transform="translate(0 11)">5</text></g><g class="a15 c2 node n9 p3" transform="translate(-9.72222 57.84)"><g class="a9 i2 leaf node n4 p1 sample" transform="translate(8.33333 19.28)"><path class="edge" d="M 0 0 V -19.28 H -8.33333" /><rect class="sym" height="6" width="6" x="-3" y="-3" /><text class="lab" transform="translate(0 11)">4</text></g><g class="a9 c2 node n8 p0" transform="translate(-8.33333 9.64)"><g class="a8 i1 leaf node n2 p0 sample" transform="translate(-5.55556 9.64)"><path class="edge" d="M 0 0 V -9.64 H 5.55556" /><rect class="sym" height="6" width="6" x="-3" y="-3" /><text class="lab" transform="translate(0 11)">2</text></g><g class="a8 i1 leaf node n3 p0 sample" transform="translate(5.55556 9.64)"><path class="edge" d="M 0 0 V -9.64 H -5.55556" /><rect class="sym" height="6" width="6" x="-3" y="-3" /><text class="lab" transform="translate(0 11)">3</text></g><path class="edge" d="M 0 0 V -9.64 H 8.33333" /><circle class="sym" cx="0" cy="0" r="3" /><text class="lab lft" transform="translate(-3 -7.0)">8</text></g><path class="edge" d="M 0 0 V -57.84 H 9.72222" /><circle class="sym" cx="0" cy="0" r="3" /><text class="lab lft" transform="translate(-3 -7.0)">9</text></g><path class="edge" d="M 0 0 V -9.64 H 13.1944" /><circle class="sym" cx="0" cy="0" r="3" /><text class="lab lft" transform="translate(-3 -7.0)">15</text></g><path class="edge" d="M 0 0 V -38.56 H -26.7361" /><circle class="sym" cx="0" cy="0" r="3" /><text class="lab rgt" transform="translate(3 -7.0)">16</text></g><circle class="sym" cx="0" cy="0" r="3" /><text class="lab" transform="translate(0 -11)">20</text></g></g></g><g class="tree t7" transform="translate(922.222 0)"><g class="plotbox"><g class="c2 node n20 p3 root" transform="translate(62.3611 46.08)"><g class="a20 c2 node n14 p3" transform="translate(-22.9167 57.84)"><g class="a14 i0 leaf node n1 p0 sample" transform="translate(8.33333 67.48)"><path class="edge" d="M 0 0 V -67.48 H -8.33333" /><rect class="sym" height="6" width="6" x="-3" y="-3" /><text class="lab" transform="translate(0 11)">1</text></g><g class="a14 c2 node n11 p3" transform="translate(-8.33333 28.92)"><g class="a11 i0 leaf node n0 p0 sample" transform="translate(-5.55556 38.56)"><path class="edge" d="M 0 0 V -38.56 H 5.55556" /><rect class="sym" height="6" width="6" x="-3" y="-3" /><text class="lab" transform="translate(0 11)">0</text></g><g class="a11 i2 leaf node n4 p1 sample" transform="translate(5.55556 38.56)"><path class="edge" d="M 0 0 V -38.56 H -5.55556" /><rect class="sym" height="6" width="6" x="-3" y="-3" /><text class="lab" transform="translate(0 11)">4</text></g><path class="edge" d="M 0 0 V -28.92 H 8.33333" /><circle class="sym" cx="0" cy="0" r="3" /><text class="lab lft" transform="translate(-3 -7.0)">11</text></g><path class="edge" d="M 0 0 V -57.84 H 22.9167" /><circle class="sym" cx="0" cy="0" r="3" /><text class="lab lft" transform="translate(-3 -7.0)">14</text></g><g class="a20 c2 node n16 p3" transform="translate(22.9167 38.56)"><g class="a16 c2 node n10 p3" transform="translate(12.5 57.84)"><g class="a10 i3 leaf node n6 p2 sample" transform="translate(-5.55556 28.92)"><path class="edge" d="M 0 0 V -28.92 H 5.55556" /><rect class="sym" height="6" width="6" x="-3" y="-3" /><text class="lab" transform="translate(0 11)">6</text></g><g class="a10 i3 leaf node n7 p2 sample" transform="translate(5.55556 28.92)"><path class="edge" d="M 0 0 V -28.92 H -5.55556" /><rect class="sym" height="6" width="6" x="-3" y="-3" /><text class="lab" transform="translate(0 11)">7</text></g><path class="edge" d="M 0 0 V -57.84 H -12.5" /><circle class="sym" cx="0" cy="0" r="3" /><text class="lab rgt" transform="translate(3 -7.0)">10</text></g><g class="a16 c2 node n15 p3" transform="translate(-12.5 9.64)"><g class="a15 i2 leaf node n5 p1 sample" transform="translate(8.33333 77.12)"><path class="edge" d="M 0 0 V -77.12 H -8.33333" /><rect class="sym" height="6" width="6" x="-3" y="-3" /><text class="lab" transform="translate(0 11)">5</text></g><g class="a15 c2 node n8 p0" transform="translate(-8.33333 67.48)"><g class="a8 i1 leaf node n2 p0 sample" transform="translate(-5.55556 9.64)"><path class="edge" d="M 0 0 V -9.64 H 5.55556" /><rect class="sym" height="6" width="6" x="-3" y="-3" /><text class="lab" transform="translate(0 11)">2</text></g><g class="a8 i1 leaf node n3 p0 sample" transform="translate(5.55556 9.64)"><path class="edge" d="M 0 0 V -9.64 H -5.55556" /><rect class="sym" height="6" width="6" x="-3" y="-3" /><text class="lab" transform="translate(0 11)">3</text></g><path class="edge" d="M 0 0 V -67.48 H 8.33333" /><circle class="sym" cx="0" cy="0" r="3" /><text class="lab lft" transform="translate(-3 -7.0)">8</text></g><path class="edge" d="M 0 0 V -9.64 H 12.5" /><circle class="sym" cx="0" cy="0" r="3" /><text class="lab lft" transform="translate(-3 -7.0)">15</text></g><path class="edge" d="M 0 0 V -38.56 H -22.9167" /><circle class="sym" cx="0" cy="0" r="3" /><text class="lab rgt" transform="translate(3 -7.0)">16</text></g><circle class="sym" cx="0" cy="0" r="3" /><text class="lab" transform="translate(0 -11)">20</text></g></g></g><g class="tree t8" transform="translate(1051.11 0)"><g class="plotbox"><g class="c2 node n18 p3 root" transform="translate(62.3611 65.36)"><g class="a18 c2 node n14 p3" transform="translate(-22.9167 38.56)"><g class="a14 i0 leaf node n1 p0 sample" transform="translate(8.33333 67.48)"><path class="edge" d="M 0 0 V -67.48 H -8.33333" /><rect class="sym" height="6" width="6" x="-3" y="-3" /><text class="lab" transform="translate(0 11)">1</text></g><g class="a14 c2 node n11 p3" transform="translate(-8.33333 28.92)"><g class="a11 i0 leaf node n0 p0 sample" transform="translate(-5.55556 38.56)"><path class="edge" d="M 0 0 V -38.56 H 5.55556" /><rect class="sym" height="6" width="6" x="-3" y="-3" /><text class="lab" transform="translate(0 11)">0</text></g><g class="a11 i2 leaf node n4 p1 sample" transform="translate(5.55556 38.56)"><path class="edge" d="M 0 0 V -38.56 H -5.55556" /><rect class="sym" height="6" width="6" x="-3" y="-3" /><text class="lab" transform="translate(0 11)">4</text></g><path class="edge" d="M 0 0 V -28.92 H 8.33333" /><circle class="sym" cx="0" cy="0" r="3" /><text class="lab lft" transform="translate(-3 -7.0)">11</text></g><path class="edge" d="M 0 0 V -38.56 H 22.9167" /><circle class="sym" cx="0" cy="0" r="3" /><text class="lab lft" transform="translate(-3 -7.0)">14</text></g><g class="a18 c2 node n16 p3" transform="translate(22.9167 19.28)"><g class="a16 c2 node n10 p3" transform="translate(12.5 57.84)"><g class="a10 i3 leaf node n6 p2 sample" transform="translate(-5.55556 28.92)"><path class="edge" d="M 0 0 V -28.92 H 5.55556" /><rect class="sym" height="6" width="6" x="-3" y="-3" /><text class="lab" transform="translate(0 11)">6</text></g><g class="a10 i3 leaf node n7 p2 sample" transform="translate(5.55556 28.92)"><path class="edge" d="M 0 0 V -28.92 H -5.55556" /><rect class="sym" height="6" width="6" x="-3" y="-3" /><text class="lab" transform="translate(0 11)">7</text></g><path class="edge" d="M 0 0 V -57.84 H -12.5" /><circle class="sym" cx="0" cy="0" r="3" /><text class="lab rgt" transform="translate(3 -7.0)">10</text></g><g class="a16 c2 node n15 p3" transform="translate(-12.5 9.64)"><g class="a15 i2 leaf node n5 p1 sample" transform="translate(8.33333 77.12)"><path class="edge" d="M 0 0 V -77.12 H -8.33333" /><rect class="sym" height="6" width="6" x="-3" y="-3" /><text class="lab" transform="translate(0 11)">5</text></g><g class="a15 c2 node n8 p0" transform="translate(-8.33333 67.48)"><g class="a8 i1 leaf node n2 p0 sample" transform="translate(-5.55556 9.64)"><path class="edge" d="M 0 0 V -9.64 H 5.55556" /><rect class="sym" height="6" width="6" x="-3" y="-3" /><text class="lab" transform="translate(0 11)">2</text></g><g class="a8 i1 leaf node n3 p0 sample" transform="translate(5.55556 9.64)"><path class="edge" d="M 0 0 V -9.64 H -5.55556" /><rect class="sym" height="6" width="6" x="-3" y="-3" /><text class="lab" transform="translate(0 11)">3</text></g><path class="edge" d="M 0 0 V -67.48 H 8.33333" /><circle class="sym" cx="0" cy="0" r="3" /><text class="lab lft" transform="translate(-3 -7.0)">8</text></g><path class="edge" d="M 0 0 V -9.64 H 12.5" /><circle class="sym" cx="0" cy="0" r="3" /><text class="lab lft" transform="translate(-3 -7.0)">15</text></g><path class="edge" d="M 0 0 V -19.28 H -22.9167" /><circle class="sym" cx="0" cy="0" r="3" /><text class="lab rgt" transform="translate(3 -7.0)">16</text></g><circle class="sym" cx="0" cy="0" r="3" /><text class="lab" transform="translate(0 -11)">18</text></g></g></g></g></g></svg>