<svg baseProfile="full" height="250" version="1.1" width="800" xmlns="http://www.w3.org/2000/svg" xmlns:ev="http://www.w3.org/2001/xml-events" xmlns:xlink="http://www.w3.org/1999/xlink"><defs><style type="text/css"><![CDATA[.background path {fill: #808080; fill-opacity: 0}.background path:nth-child(odd) {fill-opacity: .1}.x-regions rect {fill: yellow; stroke: black; opacity: 0.5}.axes {font-size: 14px}.x-axis .tick .lab {font-weight: bold; dominant-baseline: hanging}.axes, .tree {font-size: 14px; text-anchor: middle}.axes line, .edge {stroke: black; fill: none}.axes .ax-skip {stroke-dasharray: 4}.y-axis .grid {stroke: #FAFAFA}.node > .sym {fill: black; stroke: none}.site > .sym {stroke: black}.mut text {fill: red; font-style: italic}.mut.extra text {fill: hotpink}.mut line {fill: none; stroke: none}.mut .sym {fill: none; stroke: red}.mut.extra .sym {stroke: hotpink}.node .mut .sym {stroke-width: 1.5px}.tree text, .tree-sequence text {dominant-baseline: central}.plotbox .lab.lft {text-anchor: end}.plotbox .lab.rgt {text-anchor: start}.polytomy line {stroke: black; stroke-dasharray: 1px, 1px}.polytomy text {paint-order:stroke;stroke-width:0.3em;stroke:white}]]></style></defs><g class="tree-sequence"><g class="axes"><g class="x-axis"><g class="title" transform="translate(418.4 250)"><text class="lab" text-anchor="middle" transform="translate(0 -11)">Genome position</text></g><line class="ax-line" x1="56.8" x2="780" y1="213.2" y2="213.2"/><g class="ticks"><g class="tick" transform="translate(56.8 213.2)"><line x1="0" x2="0" y1="-5" y2="5"/><g transform="translate(0 6)"><text class="lab">0</text></g></g><g class="tick" transform="translate(147.2 213.2)"><line x1="0" x2="0" y1="-5" y2="5"/><g transform="translate(0 6)"><text class="lab">9855</text></g></g><g class="tick" transform="translate(237.6 213.2)"><line x1="0" x2="0" y1="-5" y2="5"/><g transform="translate(0 6)"><text class="lab">13901</text></g></g><g class="tick" transform="translate(328 213.2)"><line x1="0" x2="0" y1="-5" y2="5"/><g transform="translate(0 6)"><text class="lab">21285</text></g></g><g class="tick" transform="translate(418.4 213.2)"><line x1="0" x2="0" y1="-5" y2="5"/><g transform="translate(0 6)"><text class="lab">23424</text></g></g><g class="tick" transform="translate(508.8 213.2)"><line x1="0" x2="0" y1="-5" y2="5"/><g transform="translate(0 6)"><text class="lab">25213</text></g></g><g class="tick" transform="translate(599.2 213.2)"><line x1="0" x2="0" y1="-5" y2="5"/><g transform="translate(0 6)"><text class="lab">30463</text></g></g><g class="tick" transform="translate(689.6 213.2)"><line x1="0" x2="0" y1="-5" y2="5"/><g transform="translate(0 6)"><text class="lab">46237</text></g></g><g class="tick" transform="translate(780 213.2)"><line x1="0" x2="0" y1="-5" y2="5"/><g transform="translate(0 6)"><text class="lab">50000</text></g></g></g></g><g class="y-axis"><g class="title" transform="translate(0 82.3)"><text class="lab" text-anchor="middle" transform="translate(11) rotate(-90)"> </text></g><line class="ax-line" x1="56.8" x2="56.8" y1="154.6" y2="10"/><g class="ticks"><g class="tick" transform="translate(56.8 154.6)"><line x1="0" x2="-5" y1="0" y2="0"/><g transform="translate(-6 0)"><text class="lab" text-anchor="end">0.00</text></g></g><g class="tick" transform="translate(56.8 141.82)"><line x1="0" x2="-5" y1="0" y2="0"/><g transform="translate(-6 0)"><text class="lab" text-anchor="end">33.99</text></g></g><g class="tick" transform="translate(56.8 129.04)"><line x1="0" x2="-5" y1="0" y2="0"/><g transform="translate(-6 0)"><text class="lab" text-anchor="end">1439.14</text></g></g><g class="tick" transform="translate(56.8 116.26)"><line x1="0" x2="-5" y1="0" y2="0"/><g transform="translate(-6 0)"><text class="lab" text-anchor="end">1941.72</text></g></g><g class="tick" transform="translate(56.8 103.48)"><line x1="0" x2="-5" y1="0" y2="0"/><g transform="translate(-6 0)"><text class="lab" text-anchor="end">2076.43</text></g></g><g class="tick" transform="translate(56.8 90.7)"><line x1="0" x2="-5" y1="0" y2="0"/><g transform="translate(-6 0)"><text class="lab" text-anchor="end">3378.92</text></g></g><g class="tick" transform="translate(56.8 77.92)"><line x1="0" x2="-5" y1="0" y2="0"/><g transform="translate(-6 0)"><text class="lab" text-anchor="end">3893.05</text></g></g><g class="tick" transform="translate(56.8 65.14)"><line x1="0" x2="-5" y1="0" y2="0"/><g transform="translate(-6 0)"><text class="lab" text-anchor="end">6204.42</text></g></g><g class="tick" transform="translate(56.8 52.36)"><line x1="0" x2="-5" y1="0" y2="0"/><g transform="translate(-6 0)"><text class="lab" text-anchor="end">9753.69</text></g></g><g class="tick" transform="translate(56.8 39.58)"><line x1="0" x2="-5" y1="0" y2="0"/><g transform="translate(-6 0)"><text class="lab" text-anchor="end">11144.74</text></g></g><g class="tick" transform="translate(56.8 26.8)"><line x1="0" x2="-5" y1="0" y2="0"/><g transform="translate(-6 0)"><text class="lab" text-anchor="end">11428.48</text></g></g></g></g></g><g class="plotbox trees"><g class="tree t0" transform="translate(56.8 16.8)"><g class="plotbox"><g class="c2 node n6 p1 root" transform="translate(37.325 116.26)"><g class="a6 i0 leaf node n0 p0 sample" transform="translate(-11.025 38.34)"><path class="edge e4" d="M 0 0 V -38.34 H 11.025"/><rect class="sym" height="6" width="6" x="-3" y="-3"/><text class="lab" transform="translate(0 11)">0</text></g><g class="a6 c2 node n5 p1" transform="translate(11.025 12.78)"><g class="a5 i0 leaf node n1 p0 sample" transform="translate(-9.45 25.56)"><path class="edge e2" d="M 0 0 V -25.56 H 9.45"/><rect class="sym" height="6" width="6" x="-3" y="-3"/><text class="lab" transform="translate(0 11)">1</text></g><g class="a5 c2 node n4 p0" transform="translate(9.45 12.78)"><g class="a4 i1 leaf node n2 p0 sample" transform="translate(-6.3 12.78)"><path class="edge e0" d="M 0 0 V -12.78 H 6.3"/><rect class="sym" height="6" width="6" x="-3" y="-3"/><text class="lab" transform="translate(0 11)">2</text></g><g class="a4 i1 leaf node n3 p0 sample" transform="translate(6.3 12.78)"><path class="edge e1" d="M 0 0 V -12.78 H -6.3"/><rect class="sym" height="6" width="6" x="-3" y="-3"/><text class="lab" transform="translate(0 11)">3</text></g><path class="edge e3" d="M 0 0 V -12.78 H -9.45"/><circle class="sym" cx="0" cy="0" r="3"/><text class="lab rgt" transform="translate(3 -7)">4</text></g><path class="edge e6" d="M 0 0 V -12.78 H -11.025"/><circle class="sym" cx="0" cy="0" r="3"/><text class="lab rgt" transform="translate(3 -7)">5</text></g><circle class="sym" cx="0" cy="0" r="3"/><text class="lab" transform="translate(0 -11)">6</text></g></g></g><g class="tree t1" transform="translate(147.2 16.8)"><g class="plotbox"><g class="c2 node n8 p1 root" transform="translate(45.2 90.7)"><g class="a8 c2 node n4 p0" transform="translate(12.6 51.12)"><g class="a4 i1 leaf node n2 p0 sample" transform="translate(-6.3 12.78)"><path class="edge e0" d="M 0 0 V -12.78 H 6.3"/><rect class="sym" height="6" width="6" x="-3" y="-3"/><text class="lab" transform="translate(0 11)">2</text></g><g class="a4 i1 leaf node n3 p0 sample" transform="translate(6.3 12.78)"><path class="edge e1" d="M 0 0 V -12.78 H -6.3"/><rect class="sym" height="6" width="6" x="-3" y="-3"/><text class="lab" transform="translate(0 11)">3</text></g><path class="edge e9" d="M 0 0 V -51.12 H -12.6"/><circle class="sym" cx="0" cy="0" r="3"/><text class="lab rgt" transform="translate(3 -7)">4</text></g><g class="a8 c2 node n6 p1" transform="translate(-12.6 25.56)"><g class="a6 i0 leaf node n0 p0 sample" transform="translate(-6.3 38.34)"><path class="edge e4" d="M 0 0 V -38.34 H 6.3"/><rect class="sym" height="6" width="6" x="-3" y="-3"/><text class="lab" transform="translate(0 11)">0</text></g><g class="a6 i0 leaf node n1 p0 sample" transform="translate(6.3 38.34)"><path class="edge e5" d="M 0 0 V -38.34 H -6.3"/><rect class="sym" height="6" width="6" x="-3" y="-3"/><text class="lab" transform="translate(0 11)">1</text></g><path class="edge e10" d="M 0 0 V -25.56 H 12.6"/><circle class="sym" cx="0" cy="0" r="3"/><text class="lab lft" transform="translate(-3 -7)">6</text></g><circle class="sym" cx="0" cy="0" r="3"/><text class="lab" transform="translate(0 -11)">8</text></g></g></g><g class="tree t2" transform="translate(237.6 16.8)"><g class="plotbox"><g class="c2 node n8 p1 root" transform="translate(45.2 90.7)"><g class="a8 c2 node n4 p0" transform="translate(12.6 51.12)"><g class="a4 i1 leaf node n2 p0 sample" transform="translate(-6.3 12.78)"><path class="edge e0" d="M 0 0 V -12.78 H 6.3"/><rect class="sym" height="6" width="6" x="-3" y="-3"/><text class="lab" transform="translate(0 11)">2</text></g><g class="a4 i1 leaf node n3 p0 sample" transform="translate(6.3 12.78)"><path class="edge e1" d="M 0 0 V -12.78 H -6.3"/><rect class="sym" height="6" width="6" x="-3" y="-3"/><text class="lab" transform="translate(0 11)">3</text></g><path class="edge e9" d="M 0 0 V -51.12 H -12.6"/><circle class="sym" cx="0" cy="0" r="3"/><text class="lab rgt" transform="translate(3 -7)">4</text></g><g class="a8 c2 node n7 p1" transform="translate(-12.6 12.78)"><g class="a7 i0 leaf node n0 p0 sample" transform="translate(-6.3 51.12)"><path class="edge e7" d="M 0 0 V -51.12 H 6.3"/><rect class="sym" height="6" width="6" x="-3" y="-3"/><text class="lab" transform="translate(0 11)">0</text></g><g class="a7 i0 leaf node n1 p0 sample" transform="translate(6.3 51.12)"><path class="edge e8" d="M 0 0 V -51.12 H -6.3"/><rect class="sym" height="6" width="6" x="-3" y="-3"/><text class="lab" transform="translate(0 11)">1</text></g><path class="edge e11" d="M 0 0 V -12.78 H 12.6"/><circle class="sym" cx="0" cy="0" r="3"/><text class="lab lft" transform="translate(-3 -7)">7</text></g><circle class="sym" cx="0" cy="0" r="3"/><text class="lab" transform="translate(0 -11)">8</text></g></g></g><g class="tree t3" transform="translate(328 16.8)"><g class="plotbox"><g class="c2 node n10 p1 root" transform="translate(45.2 65.14)"><g class="a10 c2 node n4 p0" transform="translate(12.6 76.68)"><g class="a4 i1 leaf node n2 p0 sample" transform="translate(-6.3 12.78)"><path class="edge e0" d="M 0 0 V -12.78 H 6.3"/><rect class="sym" height="6" width="6" x="-3" y="-3"/><text class="lab" transform="translate(0 11)">2</text></g><g class="a4 i1 leaf node n3 p0 sample" transform="translate(6.3 12.78)"><path class="edge e1" d="M 0 0 V -12.78 H -6.3"/><rect class="sym" height="6" width="6" x="-3" y="-3"/><text class="lab" transform="translate(0 11)">3</text></g><path class="edge e14" d="M 0 0 V -76.68 H -12.6"/><circle class="sym" cx="0" cy="0" r="3"/><text class="lab rgt" transform="translate(3 -7)">4</text></g><g class="a10 c2 node n7 p1" transform="translate(-12.6 38.34)"><g class="a7 i0 leaf node n0 p0 sample" transform="translate(-6.3 51.12)"><path class="edge e7" d="M 0 0 V -51.12 H 6.3"/><rect class="sym" height="6" width="6" x="-3" y="-3"/><text class="lab" transform="translate(0 11)">0</text></g><g class="a7 i0 leaf node n1 p0 sample" transform="translate(6.3 51.12)"><path class="edge e8" d="M 0 0 V -51.12 H -6.3"/><rect class="sym" height="6" width="6" x="-3" y="-3"/><text class="lab" transform="translate(0 11)">1</text></g><path class="edge e15" d="M 0 0 V -38.34 H 12.6"/><circle class="sym" cx="0" cy="0" r="3"/><text class="lab lft" transform="translate(-3 -7)">7</text></g><circle class="sym" cx="0" cy="0" r="3"/><text class="lab" transform="translate(0 -11)">10</text></g></g></g><g class="tree t4" transform="translate(418.4 16.8)"><g class="plotbox"><g class="c2 node n13 p1 root" transform="translate(45.2 26.8)"><g class="a13 c2 node n4 p0" transform="translate(12.6 115.02)"><g class="a4 i1 leaf node n2 p0 sample" transform="translate(-6.3 12.78)"><path class="edge e0" d="M 0 0 V -12.78 H 6.3"/><rect class="sym" height="6" width="6" x="-3" y="-3"/><text class="lab" transform="translate(0 11)">2</text></g><g class="a4 i1 leaf node n3 p0 sample" transform="translate(6.3 12.78)"><path class="edge e1" d="M 0 0 V -12.78 H -6.3"/><rect class="sym" height="6" width="6" x="-3" y="-3"/><text class="lab" transform="translate(0 11)">3</text></g><path class="edge e20" d="M 0 0 V -115.02 H -12.6"/><circle class="sym" cx="0" cy="0" r="3"/><text class="lab rgt" transform="translate(3 -7)">4</text></g><g class="a13 c2 node n7 p1" transform="translate(-12.6 76.68)"><g class="a7 i0 leaf node n0 p0 sample" transform="translate(-6.3 51.12)"><path class="edge e7" d="M 0 0 V -51.12 H 6.3"/><rect class="sym" height="6" width="6" x="-3" y="-3"/><text class="lab" transform="translate(0 11)">0</text></g><g class="a7 i0 leaf node n1 p0 sample" transform="translate(6.3 51.12)"><path class="edge e8" d="M 0 0 V -51.12 H -6.3"/><rect class="sym" height="6" width="6" x="-3" y="-3"/><text class="lab" transform="translate(0 11)">1</text></g><path class="edge e21" d="M 0 0 V -76.68 H 12.6"/><circle class="sym" cx="0" cy="0" r="3"/><text class="lab lft" transform="translate(-3 -7)">7</text></g><circle class="sym" cx="0" cy="0" r="3"/><text class="lab" transform="translate(0 -11)">13</text></g></g></g><g class="tree t5" transform="translate(508.8 16.8)"><g class="plotbox"><g class="c2 node n12 p1 root" transform="translate(45.2 39.58)"><g class="a12 c2 node n4 p0" transform="translate(12.6 102.24)"><g class="a4 i1 leaf node n2 p0 sample" transform="translate(-6.3 12.78)"><path class="edge e0" d="M 0 0 V -12.78 H 6.3"/><rect class="sym" height="6" width="6" x="-3" y="-3"/><text class="lab" transform="translate(0 11)">2</text></g><g class="a4 i1 leaf node n3 p0 sample" transform="translate(6.3 12.78)"><path class="edge e1" d="M 0 0 V -12.78 H -6.3"/><rect class="sym" height="6" width="6" x="-3" y="-3"/><text class="lab" transform="translate(0 11)">3</text></g><path class="edge e18" d="M 0 0 V -102.24 H -12.6"/><circle class="sym" cx="0" cy="0" r="3"/><text class="lab rgt" transform="translate(3 -7)">4</text></g><g class="a12 c2 node n7 p1" transform="translate(-12.6 63.9)"><g class="a7 i0 leaf node n0 p0 sample" transform="translate(-6.3 51.12)"><path class="edge e7" d="M 0 0 V -51.12 H 6.3"/><rect class="sym" height="6" width="6" x="-3" y="-3"/><text class="lab" transform="translate(0 11)">0</text></g><g class="a7 i0 leaf node n1 p0 sample" transform="translate(6.3 51.12)"><path class="edge e8" d="M 0 0 V -51.12 H -6.3"/><rect class="sym" height="6" width="6" x="-3" y="-3"/><text class="lab" transform="translate(0 11)">1</text></g><path class="edge e19" d="M 0 0 V -63.9 H 12.6"/><circle class="sym" cx="0" cy="0" r="3"/><text class="lab lft" transform="translate(-3 -7)">7</text></g><circle class="sym" cx="0" cy="0" r="3"/><text class="lab" transform="translate(0 -11)">12</text></g></g></g><g class="tree t6" transform="translate(599.2 16.8)"><g class="plotbox"><g class="c2 node n11 p1 root" transform="translate(45.2 52.36)"><g class="a11 c2 node n4 p0" transform="translate(12.6 89.46)"><g class="a4 i1 leaf node n2 p0 sample" transform="translate(-6.3 12.78)"><path class="edge e0" d="M 0 0 V -12.78 H 6.3"/><rect class="sym" height="6" width="6" x="-3" y="-3"/><text class="lab" transform="translate(0 11)">2</text></g><g class="a4 i1 leaf node n3 p0 sample" transform="translate(6.3 12.78)"><path class="edge e1" d="M 0 0 V -12.78 H -6.3"/><rect class="sym" height="6" width="6" x="-3" y="-3"/><text class="lab" transform="translate(0 11)">3</text></g><path class="edge e16" d="M 0 0 V -89.46 H -12.6"/><circle class="sym" cx="0" cy="0" r="3"/><text class="lab rgt" transform="translate(3 -7)">4</text></g><g class="a11 c2 node n7 p1" transform="translate(-12.6 51.12)"><g class="a7 i0 leaf node n0 p0 sample" transform="translate(-6.3 51.12)"><path class="edge e7" d="M 0 0 V -51.12 H 6.3"/><rect class="sym" height="6" width="6" x="-3" y="-3"/><text class="lab" transform="translate(0 11)">0</text></g><g class="a7 i0 leaf node n1 p0 sample" transform="translate(6.3 51.12)"><path class="edge e8" d="M 0 0 V -51.12 H -6.3"/><rect class="sym" height="6" width="6" x="-3" y="-3"/><text class="lab" transform="translate(0 11)">1</text></g><path class="edge e17" d="M 0 0 V -51.12 H 12.6"/><circle class="sym" cx="0" cy="0" r="3"/><text class="lab lft" transform="translate(-3 -7)">7</text></g><circle class="sym" cx="0" cy="0" r="3"/><text class="lab" transform="translate(0 -11)">11</text></g></g></g><g class="tree t7" transform="translate(689.6 16.8)"><g class="plotbox"><g class="c2 node n9 p1 root" transform="translate(45.2 77.92)"><g class="a9 c2 node n4 p0" transform="translate(12.6 63.9)"><g class="a4 i1 leaf node n2 p0 sample" transform="translate(-6.3 12.78)"><path class="edge e0" d="M 0 0 V -12.78 H 6.3"/><rect class="sym" height="6" width="6" x="-3" y="-3"/><text class="lab" transform="translate(0 11)">2</text></g><g class="a4 i1 leaf node n3 p0 sample" transform="translate(6.3 12.78)"><path class="edge e1" d="M 0 0 V -12.78 H -6.3"/><rect class="sym" height="6" width="6" x="-3" y="-3"/><text class="lab" transform="translate(0 11)">3</text></g><path class="edge e12" d="M 0 0 V -63.9 H -12.6"/><circle class="sym" cx="0" cy="0" r="3"/><text class="lab rgt" transform="translate(3 -7)">4</text></g><g class="a9 c2 node n7 p1" transform="translate(-12.6 25.56)"><g class="a7 i0 leaf node n0 p0 sample" transform="translate(-6.3 51.12)"><path class="edge e7" d="M 0 0 V -51.12 H 6.3"/><rect class="sym" height="6" width="6" x="-3" y="-3"/><text class="lab" transform="translate(0 11)">0</text></g><g class="a7 i0 leaf node n1 p0 sample" transform="translate(6.3 51.12)"><path class="edge e8" d="M 0 0 V -51.12 H -6.3"/><rect class="sym" height="6" width="6" x="-3" y="-3"/><text class="lab" transform="translate(0 11)">1</text></g><path class="edge e13" d="M 0 0 V -25.56 H 12.6"/><circle class="sym" cx="0" cy="0" r="3"/><text class="lab lft" transform="translate(-3 -7)">7</text></g><circle class="sym" cx="0" cy="0" r="3"/><text class="lab" transform="translate(0 -11)">9</text></g></g></g></g></g><g class="title" transform="translate(400 0)"><text dominant-baseline="hanging" text-anchor="middle">A basic SVG plot</text></g></svg>