<?xml version="1.0" encoding="utf-8" standalone="no"?>
<!DOCTYPE svg PUBLIC "-//W3C//DTD SVG 1.1//EN"
  "http://www.w3.org/Graphics/SVG/1.1/DTD/svg11.dtd">
<!-- Created with matplotlib (https://matplotlib.org/) -->
<svg height="262.19625pt" version="1.1" viewBox="0 0 385.78125 262.19625" width="385.78125pt" xmlns="http://www.w3.org/2000/svg" xmlns:xlink="http://www.w3.org/1999/xlink">
 <metadata>
  <rdf:RDF xmlns:cc="http://creativecommons.org/ns#" xmlns:dc="http://purl.org/dc/elements/1.1/" xmlns:rdf="http://www.w3.org/1999/02/22-rdf-syntax-ns#">
   <cc:Work>
    <dc:type rdf:resource="http://purl.org/dc/dcmitype/StillImage"/>
    <dc:date>2021-01-20T18:28:24.771026</dc:date>
    <dc:format>image/svg+xml</dc:format>
    <dc:creator>
     <cc:Agent>
      <dc:title>Matplotlib v3.3.3, https://matplotlib.org/</dc:title>
     </cc:Agent>
    </dc:creator>
   </cc:Work>
  </rdf:RDF>
 </metadata>
 <defs>
  <style type="text/css">*{stroke-linecap:butt;stroke-linejoin:round;}</style>
 </defs>
 <g id="figure_1">
  <g id="patch_1">
   <path d="M 0 262.19625 
L 385.78125 262.19625 
L 385.78125 0 
L 0 0 
z
" style="fill:none;"/>
  </g>
  <g id="axes_1">
   <g id="patch_2">
    <path d="M 43.78125 224.64 
L 378.58125 224.64 
L 378.58125 7.2 
L 43.78125 7.2 
z
" style="fill:#ffffff;"/>
   </g>
   <g id="patch_3">
    <path clip-path="url(#p0d26c1b252)" d="M 77.797842 224.64 
L 82.082609 224.64 
L 82.082609 221.319199 
L 77.797842 221.319199 
z
" style="fill:#1f77b4;opacity:0.4;"/>
   </g>
   <g id="patch_4">
    <path clip-path="url(#p0d26c1b252)" d="M 82.082609 224.64 
L 86.367375 224.64 
L 86.367375 217.998398 
L 82.082609 217.998398 
z
" style="fill:#1f77b4;opacity:0.4;"/>
   </g>
   <g id="patch_5">
    <path clip-path="url(#p0d26c1b252)" d="M 86.367375 224.64 
L 90.652142 224.64 
L 90.652142 213.570663 
L 86.367375 213.570663 
z
" style="fill:#1f77b4;opacity:0.4;"/>
   </g>
   <g id="patch_6">
    <path clip-path="url(#p0d26c1b252)" d="M 90.652142 224.64 
L 94.936909 224.64 
L 94.936909 209.585702 
L 90.652142 209.585702 
z
" style="fill:#1f77b4;opacity:0.4;"/>
   </g>
   <g id="patch_7">
    <path clip-path="url(#p0d26c1b252)" d="M 94.936909 224.64 
L 99.221675 224.64 
L 99.221675 202.9441 
L 94.936909 202.9441 
z
" style="fill:#1f77b4;opacity:0.4;"/>
   </g>
   <g id="patch_8">
    <path clip-path="url(#p0d26c1b252)" d="M 99.221675 224.64 
L 103.506442 224.64 
L 103.506442 195.638338 
L 99.221675 195.638338 
z
" style="fill:#1f77b4;opacity:0.4;"/>
   </g>
   <g id="patch_9">
    <path clip-path="url(#p0d26c1b252)" d="M 103.506442 224.64 
L 107.791208 224.64 
L 107.791208 193.867244 
L 103.506442 193.867244 
z
" style="fill:#1f77b4;opacity:0.4;"/>
   </g>
   <g id="patch_10">
    <path clip-path="url(#p0d26c1b252)" d="M 107.791208 224.64 
L 112.075975 224.64 
L 112.075975 202.058553 
L 107.791208 202.058553 
z
" style="fill:#1f77b4;opacity:0.4;"/>
   </g>
   <g id="patch_11">
    <path clip-path="url(#p0d26c1b252)" d="M 112.075975 224.64 
L 116.360741 224.64 
L 116.360741 207.814608 
L 112.075975 207.814608 
z
" style="fill:#1f77b4;opacity:0.4;"/>
   </g>
   <g id="patch_12">
    <path clip-path="url(#p0d26c1b252)" d="M 116.360741 224.64 
L 120.645508 224.64 
L 120.645508 214.898984 
L 116.360741 214.898984 
z
" style="fill:#1f77b4;opacity:0.4;"/>
   </g>
   <g id="patch_13">
    <path clip-path="url(#p0d26c1b252)" d="M 120.645508 224.64 
L 124.930275 224.64 
L 124.930275 213.570663 
L 120.645508 213.570663 
z
" style="fill:#1f77b4;opacity:0.4;"/>
   </g>
   <g id="patch_14">
    <path clip-path="url(#p0d26c1b252)" d="M 124.930275 224.64 
L 129.215041 224.64 
L 129.215041 212.685116 
L 124.930275 212.685116 
z
" style="fill:#1f77b4;opacity:0.4;"/>
   </g>
   <g id="patch_15">
    <path clip-path="url(#p0d26c1b252)" d="M 129.215041 224.64 
L 133.499808 224.64 
L 133.499808 219.105332 
L 129.215041 219.105332 
z
" style="fill:#1f77b4;opacity:0.4;"/>
   </g>
   <g id="patch_16">
    <path clip-path="url(#p0d26c1b252)" d="M 133.499808 224.64 
L 137.784574 224.64 
L 137.784574 219.990879 
L 133.499808 219.990879 
z
" style="fill:#1f77b4;opacity:0.4;"/>
   </g>
   <g id="patch_17">
    <path clip-path="url(#p0d26c1b252)" d="M 137.784574 224.64 
L 142.069341 224.64 
L 142.069341 221.097812 
L 137.784574 221.097812 
z
" style="fill:#1f77b4;opacity:0.4;"/>
   </g>
   <g id="patch_18">
    <path clip-path="url(#p0d26c1b252)" d="M 142.069341 224.64 
L 146.354107 224.64 
L 146.354107 220.876426 
L 142.069341 220.876426 
z
" style="fill:#1f77b4;opacity:0.4;"/>
   </g>
   <g id="patch_19">
    <path clip-path="url(#p0d26c1b252)" d="M 146.354107 224.64 
L 150.638874 224.64 
L 150.638874 224.197227 
L 146.354107 224.197227 
z
" style="fill:#1f77b4;opacity:0.4;"/>
   </g>
   <g id="patch_20">
    <path clip-path="url(#p0d26c1b252)" d="M 150.638874 224.64 
L 154.923641 224.64 
L 154.923641 222.868906 
L 150.638874 222.868906 
z
" style="fill:#1f77b4;opacity:0.4;"/>
   </g>
   <g id="patch_21">
    <path clip-path="url(#p0d26c1b252)" d="M 154.923641 224.64 
L 159.208407 224.64 
L 159.208407 222.868906 
L 154.923641 222.868906 
z
" style="fill:#1f77b4;opacity:0.4;"/>
   </g>
   <g id="patch_22">
    <path clip-path="url(#p0d26c1b252)" d="M 159.208407 224.64 
L 163.493174 224.64 
L 163.493174 223.533066 
L 159.208407 223.533066 
z
" style="fill:#1f77b4;opacity:0.4;"/>
   </g>
   <g id="patch_23">
    <path clip-path="url(#p0d26c1b252)" d="M 163.493174 224.64 
L 167.77794 224.64 
L 167.77794 223.754453 
L 163.493174 223.754453 
z
" style="fill:#1f77b4;opacity:0.4;"/>
   </g>
   <g id="patch_24">
    <path clip-path="url(#p0d26c1b252)" d="M 167.77794 224.64 
L 172.062707 224.64 
L 172.062707 223.090293 
L 167.77794 223.090293 
z
" style="fill:#1f77b4;opacity:0.4;"/>
   </g>
   <g id="patch_25">
    <path clip-path="url(#p0d26c1b252)" d="M 172.062707 224.64 
L 176.347473 224.64 
L 176.347473 223.97584 
L 172.062707 223.97584 
z
" style="fill:#1f77b4;opacity:0.4;"/>
   </g>
   <g id="patch_26">
    <path clip-path="url(#p0d26c1b252)" d="M 176.347473 224.64 
L 180.63224 224.64 
L 180.63224 223.533066 
L 176.347473 223.533066 
z
" style="fill:#1f77b4;opacity:0.4;"/>
   </g>
   <g id="patch_27">
    <path clip-path="url(#p0d26c1b252)" d="M 180.63224 224.64 
L 184.917007 224.64 
L 184.917007 223.754453 
L 180.63224 223.754453 
z
" style="fill:#1f77b4;opacity:0.4;"/>
   </g>
   <g id="patch_28">
    <path clip-path="url(#p0d26c1b252)" d="M 184.917007 224.64 
L 189.201773 224.64 
L 189.201773 223.533066 
L 184.917007 223.533066 
z
" style="fill:#1f77b4;opacity:0.4;"/>
   </g>
   <g id="patch_29">
    <path clip-path="url(#p0d26c1b252)" d="M 189.201773 224.64 
L 193.48654 224.64 
L 193.48654 224.197227 
L 189.201773 224.197227 
z
" style="fill:#1f77b4;opacity:0.4;"/>
   </g>
   <g id="patch_30">
    <path clip-path="url(#p0d26c1b252)" d="M 193.48654 224.64 
L 197.771306 224.64 
L 197.771306 224.418613 
L 193.48654 224.418613 
z
" style="fill:#1f77b4;opacity:0.4;"/>
   </g>
   <g id="patch_31">
    <path clip-path="url(#p0d26c1b252)" d="M 197.771306 224.64 
L 202.056073 224.64 
L 202.056073 223.97584 
L 197.771306 223.97584 
z
" style="fill:#1f77b4;opacity:0.4;"/>
   </g>
   <g id="patch_32">
    <path clip-path="url(#p0d26c1b252)" d="M 202.056073 224.64 
L 206.340839 224.64 
L 206.340839 224.197227 
L 202.056073 224.197227 
z
" style="fill:#1f77b4;opacity:0.4;"/>
   </g>
   <g id="patch_33">
    <path clip-path="url(#p0d26c1b252)" d="M 206.340839 224.64 
L 210.625606 224.64 
L 210.625606 224.418613 
L 206.340839 224.418613 
z
" style="fill:#1f77b4;opacity:0.4;"/>
   </g>
   <g id="patch_34">
    <path clip-path="url(#p0d26c1b252)" d="M 210.625606 224.64 
L 214.910372 224.64 
L 214.910372 224.418613 
L 210.625606 224.418613 
z
" style="fill:#1f77b4;opacity:0.4;"/>
   </g>
   <g id="patch_35">
    <path clip-path="url(#p0d26c1b252)" d="M 214.910372 224.64 
L 219.195139 224.64 
L 219.195139 224.64 
L 214.910372 224.64 
z
" style="fill:#1f77b4;opacity:0.4;"/>
   </g>
   <g id="patch_36">
    <path clip-path="url(#p0d26c1b252)" d="M 219.195139 224.64 
L 223.479906 224.64 
L 223.479906 224.418613 
L 219.195139 224.418613 
z
" style="fill:#1f77b4;opacity:0.4;"/>
   </g>
   <g id="patch_37">
    <path clip-path="url(#p0d26c1b252)" d="M 223.479906 224.64 
L 227.764672 224.64 
L 227.764672 224.64 
L 223.479906 224.64 
z
" style="fill:#1f77b4;opacity:0.4;"/>
   </g>
   <g id="patch_38">
    <path clip-path="url(#p0d26c1b252)" d="M 227.764672 224.64 
L 232.049439 224.64 
L 232.049439 224.64 
L 227.764672 224.64 
z
" style="fill:#1f77b4;opacity:0.4;"/>
   </g>
   <g id="patch_39">
    <path clip-path="url(#p0d26c1b252)" d="M 232.049439 224.64 
L 236.334205 224.64 
L 236.334205 224.418613 
L 232.049439 224.418613 
z
" style="fill:#1f77b4;opacity:0.4;"/>
   </g>
   <g id="patch_40">
    <path clip-path="url(#p0d26c1b252)" d="M 236.334205 224.64 
L 240.618972 224.64 
L 240.618972 224.64 
L 236.334205 224.64 
z
" style="fill:#1f77b4;opacity:0.4;"/>
   </g>
   <g id="patch_41">
    <path clip-path="url(#p0d26c1b252)" d="M 240.618972 224.64 
L 244.903738 224.64 
L 244.903738 224.418613 
L 240.618972 224.418613 
z
" style="fill:#1f77b4;opacity:0.4;"/>
   </g>
   <g id="patch_42">
    <path clip-path="url(#p0d26c1b252)" d="M 76.797247 224.64 
L 82.172607 224.64 
L 82.172607 151.228429 
L 76.797247 151.228429 
z
" style="fill:#ff7f0e;opacity:0.4;"/>
   </g>
   <g id="patch_43">
    <path clip-path="url(#p0d26c1b252)" d="M 82.172607 224.64 
L 87.547967 224.64 
L 87.547967 174.346015 
L 82.172607 174.346015 
z
" style="fill:#ff7f0e;opacity:0.4;"/>
   </g>
   <g id="patch_44">
    <path clip-path="url(#p0d26c1b252)" d="M 87.547967 224.64 
L 92.923327 224.64 
L 92.923327 201.522414 
L 87.547967 201.522414 
z
" style="fill:#ff7f0e;opacity:0.4;"/>
   </g>
   <g id="patch_45">
    <path clip-path="url(#p0d26c1b252)" d="M 92.923327 224.64 
L 98.298687 224.64 
L 98.298687 216.522374 
L 92.923327 216.522374 
z
" style="fill:#ff7f0e;opacity:0.4;"/>
   </g>
   <g id="patch_46">
    <path clip-path="url(#p0d26c1b252)" d="M 98.298687 224.64 
L 103.674048 224.64 
L 103.674048 221.110598 
L 98.298687 221.110598 
z
" style="fill:#ff7f0e;opacity:0.4;"/>
   </g>
   <g id="patch_47">
    <path clip-path="url(#p0d26c1b252)" d="M 103.674048 224.64 
L 109.049408 224.64 
L 109.049408 222.522359 
L 103.674048 222.522359 
z
" style="fill:#ff7f0e;opacity:0.4;"/>
   </g>
   <g id="patch_48">
    <path clip-path="url(#p0d26c1b252)" d="M 109.049408 224.64 
L 114.424768 224.64 
L 114.424768 222.875299 
L 109.049408 222.875299 
z
" style="fill:#ff7f0e;opacity:0.4;"/>
   </g>
   <g id="patch_49">
    <path clip-path="url(#p0d26c1b252)" d="M 114.424768 224.64 
L 119.800128 224.64 
L 119.800128 222.345888 
L 114.424768 222.345888 
z
" style="fill:#ff7f0e;opacity:0.4;"/>
   </g>
   <g id="patch_50">
    <path clip-path="url(#p0d26c1b252)" d="M 119.800128 224.64 
L 125.175488 224.64 
L 125.175488 223.581179 
L 119.800128 223.581179 
z
" style="fill:#ff7f0e;opacity:0.4;"/>
   </g>
   <g id="patch_51">
    <path clip-path="url(#p0d26c1b252)" d="M 125.175488 224.64 
L 130.550848 224.64 
L 130.550848 223.051769 
L 125.175488 223.051769 
z
" style="fill:#ff7f0e;opacity:0.4;"/>
   </g>
   <g id="patch_52">
    <path clip-path="url(#p0d26c1b252)" d="M 130.550848 224.64 
L 135.926208 224.64 
L 135.926208 223.93412 
L 130.550848 223.93412 
z
" style="fill:#ff7f0e;opacity:0.4;"/>
   </g>
   <g id="patch_53">
    <path clip-path="url(#p0d26c1b252)" d="M 135.926208 224.64 
L 141.301568 224.64 
L 141.301568 223.757649 
L 135.926208 223.757649 
z
" style="fill:#ff7f0e;opacity:0.4;"/>
   </g>
   <g id="patch_54">
    <path clip-path="url(#p0d26c1b252)" d="M 141.301568 224.64 
L 146.676929 224.64 
L 146.676929 223.757649 
L 141.301568 223.757649 
z
" style="fill:#ff7f0e;opacity:0.4;"/>
   </g>
   <g id="patch_55">
    <path clip-path="url(#p0d26c1b252)" d="M 146.676929 224.64 
L 152.052289 224.64 
L 152.052289 223.581179 
L 146.676929 223.581179 
z
" style="fill:#ff7f0e;opacity:0.4;"/>
   </g>
   <g id="patch_56">
    <path clip-path="url(#p0d26c1b252)" d="M 152.052289 224.64 
L 157.427649 224.64 
L 157.427649 223.404709 
L 152.052289 223.404709 
z
" style="fill:#ff7f0e;opacity:0.4;"/>
   </g>
   <g id="patch_57">
    <path clip-path="url(#p0d26c1b252)" d="M 157.427649 224.64 
L 162.803009 224.64 
L 162.803009 223.228239 
L 157.427649 223.228239 
z
" style="fill:#ff7f0e;opacity:0.4;"/>
   </g>
   <g id="patch_58">
    <path clip-path="url(#p0d26c1b252)" d="M 162.803009 224.64 
L 168.178369 224.64 
L 168.178369 224.46353 
L 162.803009 224.46353 
z
" style="fill:#ff7f0e;opacity:0.4;"/>
   </g>
   <g id="patch_59">
    <path clip-path="url(#p0d26c1b252)" d="M 168.178369 224.64 
L 173.553729 224.64 
L 173.553729 224.46353 
L 168.178369 224.46353 
z
" style="fill:#ff7f0e;opacity:0.4;"/>
   </g>
   <g id="patch_60">
    <path clip-path="url(#p0d26c1b252)" d="M 173.553729 224.64 
L 178.929089 224.64 
L 178.929089 224.46353 
L 173.553729 224.46353 
z
" style="fill:#ff7f0e;opacity:0.4;"/>
   </g>
   <g id="patch_61">
    <path clip-path="url(#p0d26c1b252)" d="M 178.929089 224.64 
L 184.304449 224.64 
L 184.304449 224.28706 
L 178.929089 224.28706 
z
" style="fill:#ff7f0e;opacity:0.4;"/>
   </g>
   <g id="patch_62">
    <path clip-path="url(#p0d26c1b252)" d="M 184.304449 224.64 
L 189.67981 224.64 
L 189.67981 224.64 
L 184.304449 224.64 
z
" style="fill:#ff7f0e;opacity:0.4;"/>
   </g>
   <g id="patch_63">
    <path clip-path="url(#p0d26c1b252)" d="M 189.67981 224.64 
L 195.05517 224.64 
L 195.05517 224.46353 
L 189.67981 224.46353 
z
" style="fill:#ff7f0e;opacity:0.4;"/>
   </g>
   <g id="patch_64">
    <path clip-path="url(#p0d26c1b252)" d="M 195.05517 224.64 
L 200.43053 224.64 
L 200.43053 224.46353 
L 195.05517 224.46353 
z
" style="fill:#ff7f0e;opacity:0.4;"/>
   </g>
   <g id="patch_65">
    <path clip-path="url(#p0d26c1b252)" d="M 200.43053 224.64 
L 205.80589 224.64 
L 205.80589 224.28706 
L 200.43053 224.28706 
z
" style="fill:#ff7f0e;opacity:0.4;"/>
   </g>
   <g id="patch_66">
    <path clip-path="url(#p0d26c1b252)" d="M 205.80589 224.64 
L 211.18125 224.64 
L 211.18125 224.64 
L 205.80589 224.64 
z
" style="fill:#ff7f0e;opacity:0.4;"/>
   </g>
   <g id="patch_67">
    <path clip-path="url(#p0d26c1b252)" d="M 211.18125 224.64 
L 216.55661 224.64 
L 216.55661 224.64 
L 211.18125 224.64 
z
" style="fill:#ff7f0e;opacity:0.4;"/>
   </g>
   <g id="patch_68">
    <path clip-path="url(#p0d26c1b252)" d="M 216.55661 224.64 
L 221.93197 224.64 
L 221.93197 224.46353 
L 216.55661 224.46353 
z
" style="fill:#ff7f0e;opacity:0.4;"/>
   </g>
   <g id="patch_69">
    <path clip-path="url(#p0d26c1b252)" d="M 221.93197 224.64 
L 227.30733 224.64 
L 227.30733 224.64 
L 221.93197 224.64 
z
" style="fill:#ff7f0e;opacity:0.4;"/>
   </g>
   <g id="patch_70">
    <path clip-path="url(#p0d26c1b252)" d="M 227.30733 224.64 
L 232.68269 224.64 
L 232.68269 224.28706 
L 227.30733 224.28706 
z
" style="fill:#ff7f0e;opacity:0.4;"/>
   </g>
   <g id="patch_71">
    <path clip-path="url(#p0d26c1b252)" d="M 232.68269 224.64 
L 238.058051 224.64 
L 238.058051 224.46353 
L 232.68269 224.46353 
z
" style="fill:#ff7f0e;opacity:0.4;"/>
   </g>
   <g id="patch_72">
    <path clip-path="url(#p0d26c1b252)" d="M 238.058051 224.64 
L 243.433411 224.64 
L 243.433411 224.46353 
L 238.058051 224.46353 
z
" style="fill:#ff7f0e;opacity:0.4;"/>
   </g>
   <g id="patch_73">
    <path clip-path="url(#p0d26c1b252)" d="M 243.433411 224.64 
L 248.808771 224.64 
L 248.808771 224.64 
L 243.433411 224.64 
z
" style="fill:#ff7f0e;opacity:0.4;"/>
   </g>
   <g id="patch_74">
    <path clip-path="url(#p0d26c1b252)" d="M 248.808771 224.64 
L 254.184131 224.64 
L 254.184131 224.64 
L 248.808771 224.64 
z
" style="fill:#ff7f0e;opacity:0.4;"/>
   </g>
   <g id="patch_75">
    <path clip-path="url(#p0d26c1b252)" d="M 254.184131 224.64 
L 259.559491 224.64 
L 259.559491 224.64 
L 254.184131 224.64 
z
" style="fill:#ff7f0e;opacity:0.4;"/>
   </g>
   <g id="patch_76">
    <path clip-path="url(#p0d26c1b252)" d="M 259.559491 224.64 
L 264.934851 224.64 
L 264.934851 224.46353 
L 259.559491 224.46353 
z
" style="fill:#ff7f0e;opacity:0.4;"/>
   </g>
   <g id="patch_77">
    <path clip-path="url(#p0d26c1b252)" d="M 264.934851 224.64 
L 270.310211 224.64 
L 270.310211 224.64 
L 264.934851 224.64 
z
" style="fill:#ff7f0e;opacity:0.4;"/>
   </g>
   <g id="patch_78">
    <path clip-path="url(#p0d26c1b252)" d="M 270.310211 224.64 
L 275.685571 224.64 
L 275.685571 224.64 
L 270.310211 224.64 
z
" style="fill:#ff7f0e;opacity:0.4;"/>
   </g>
   <g id="patch_79">
    <path clip-path="url(#p0d26c1b252)" d="M 275.685571 224.64 
L 281.060932 224.64 
L 281.060932 224.64 
L 275.685571 224.64 
z
" style="fill:#ff7f0e;opacity:0.4;"/>
   </g>
   <g id="patch_80">
    <path clip-path="url(#p0d26c1b252)" d="M 281.060932 224.64 
L 286.436292 224.64 
L 286.436292 224.64 
L 281.060932 224.64 
z
" style="fill:#ff7f0e;opacity:0.4;"/>
   </g>
   <g id="patch_81">
    <path clip-path="url(#p0d26c1b252)" d="M 286.436292 224.64 
L 291.811652 224.64 
L 291.811652 224.64 
L 286.436292 224.64 
z
" style="fill:#ff7f0e;opacity:0.4;"/>
   </g>
   <g id="patch_82">
    <path clip-path="url(#p0d26c1b252)" d="M 291.811652 224.64 
L 297.187012 224.64 
L 297.187012 224.64 
L 291.811652 224.64 
z
" style="fill:#ff7f0e;opacity:0.4;"/>
   </g>
   <g id="patch_83">
    <path clip-path="url(#p0d26c1b252)" d="M 297.187012 224.64 
L 302.562372 224.64 
L 302.562372 224.64 
L 297.187012 224.64 
z
" style="fill:#ff7f0e;opacity:0.4;"/>
   </g>
   <g id="patch_84">
    <path clip-path="url(#p0d26c1b252)" d="M 302.562372 224.64 
L 307.937732 224.64 
L 307.937732 224.64 
L 302.562372 224.64 
z
" style="fill:#ff7f0e;opacity:0.4;"/>
   </g>
   <g id="patch_85">
    <path clip-path="url(#p0d26c1b252)" d="M 307.937732 224.64 
L 313.313092 224.64 
L 313.313092 224.64 
L 307.937732 224.64 
z
" style="fill:#ff7f0e;opacity:0.4;"/>
   </g>
   <g id="patch_86">
    <path clip-path="url(#p0d26c1b252)" d="M 313.313092 224.64 
L 318.688452 224.64 
L 318.688452 224.64 
L 313.313092 224.64 
z
" style="fill:#ff7f0e;opacity:0.4;"/>
   </g>
   <g id="patch_87">
    <path clip-path="url(#p0d26c1b252)" d="M 318.688452 224.64 
L 324.063813 224.64 
L 324.063813 224.64 
L 318.688452 224.64 
z
" style="fill:#ff7f0e;opacity:0.4;"/>
   </g>
   <g id="patch_88">
    <path clip-path="url(#p0d26c1b252)" d="M 324.063813 224.64 
L 329.439173 224.64 
L 329.439173 224.46353 
L 324.063813 224.46353 
z
" style="fill:#ff7f0e;opacity:0.4;"/>
   </g>
   <g id="patch_89">
    <path clip-path="url(#p0d26c1b252)" d="M 329.439173 224.64 
L 334.814533 224.64 
L 334.814533 224.64 
L 329.439173 224.64 
z
" style="fill:#ff7f0e;opacity:0.4;"/>
   </g>
   <g id="patch_90">
    <path clip-path="url(#p0d26c1b252)" d="M 334.814533 224.64 
L 340.189893 224.64 
L 340.189893 224.64 
L 334.814533 224.64 
z
" style="fill:#ff7f0e;opacity:0.4;"/>
   </g>
   <g id="patch_91">
    <path clip-path="url(#p0d26c1b252)" d="M 340.189893 224.64 
L 345.565253 224.64 
L 345.565253 224.46353 
L 340.189893 224.46353 
z
" style="fill:#ff7f0e;opacity:0.4;"/>
   </g>
   <g id="patch_92">
    <path clip-path="url(#p0d26c1b252)" d="M 76.797247 224.64 
L 79.330355 224.64 
L 79.330355 17.554286 
L 76.797247 17.554286 
z
" style="fill:#2ca02c;opacity:0.4;"/>
   </g>
   <g id="patch_93">
    <path clip-path="url(#p0d26c1b252)" d="M 79.330355 224.64 
L 81.863463 224.64 
L 81.863463 194.68185 
L 79.330355 194.68185 
z
" style="fill:#2ca02c;opacity:0.4;"/>
   </g>
   <g id="patch_94">
    <path clip-path="url(#p0d26c1b252)" d="M 81.863463 224.64 
L 84.396572 224.64 
L 84.396572 194.68185 
L 81.863463 194.68185 
z
" style="fill:#2ca02c;opacity:0.4;"/>
   </g>
   <g id="patch_95">
    <path clip-path="url(#p0d26c1b252)" d="M 84.396572 224.64 
L 86.92968 224.64 
L 86.92968 199.550049 
L 84.396572 199.550049 
z
" style="fill:#2ca02c;opacity:0.4;"/>
   </g>
   <g id="patch_96">
    <path clip-path="url(#p0d26c1b252)" d="M 86.92968 224.64 
L 89.462788 224.64 
L 89.462788 213.031217 
L 86.92968 213.031217 
z
" style="fill:#2ca02c;opacity:0.4;"/>
   </g>
   <g id="patch_97">
    <path clip-path="url(#p0d26c1b252)" d="M 89.462788 224.64 
L 91.995896 224.64 
L 91.995896 216.027032 
L 89.462788 216.027032 
z
" style="fill:#2ca02c;opacity:0.4;"/>
   </g>
   <g id="patch_98">
    <path clip-path="url(#p0d26c1b252)" d="M 91.995896 224.64 
L 94.529005 224.64 
L 94.529005 220.520754 
L 91.995896 220.520754 
z
" style="fill:#2ca02c;opacity:0.4;"/>
   </g>
   <g id="patch_99">
    <path clip-path="url(#p0d26c1b252)" d="M 94.529005 224.64 
L 97.062113 224.64 
L 97.062113 219.022847 
L 94.529005 219.022847 
z
" style="fill:#2ca02c;opacity:0.4;"/>
   </g>
   <g id="patch_100">
    <path clip-path="url(#p0d26c1b252)" d="M 97.062113 224.64 
L 99.595221 224.64 
L 99.595221 219.397324 
L 97.062113 219.397324 
z
" style="fill:#2ca02c;opacity:0.4;"/>
   </g>
   <g id="patch_101">
    <path clip-path="url(#p0d26c1b252)" d="M 99.595221 224.64 
L 102.128329 224.64 
L 102.128329 220.520754 
L 99.595221 220.520754 
z
" style="fill:#2ca02c;opacity:0.4;"/>
   </g>
   <g id="patch_102">
    <path clip-path="url(#p0d26c1b252)" d="M 102.128329 224.64 
L 104.661438 224.64 
L 104.661438 218.273893 
L 102.128329 218.273893 
z
" style="fill:#2ca02c;opacity:0.4;"/>
   </g>
   <g id="patch_103">
    <path clip-path="url(#p0d26c1b252)" d="M 104.661438 224.64 
L 107.194546 224.64 
L 107.194546 219.771801 
L 104.661438 219.771801 
z
" style="fill:#2ca02c;opacity:0.4;"/>
   </g>
   <g id="patch_104">
    <path clip-path="url(#p0d26c1b252)" d="M 107.194546 224.64 
L 109.727654 224.64 
L 109.727654 222.393139 
L 107.194546 222.393139 
z
" style="fill:#2ca02c;opacity:0.4;"/>
   </g>
   <g id="patch_105">
    <path clip-path="url(#p0d26c1b252)" d="M 109.727654 224.64 
L 112.260762 224.64 
L 112.260762 222.393139 
L 109.727654 222.393139 
z
" style="fill:#2ca02c;opacity:0.4;"/>
   </g>
   <g id="patch_106">
    <path clip-path="url(#p0d26c1b252)" d="M 112.260762 224.64 
L 114.79387 224.64 
L 114.79387 222.767616 
L 112.260762 222.767616 
z
" style="fill:#2ca02c;opacity:0.4;"/>
   </g>
   <g id="patch_107">
    <path clip-path="url(#p0d26c1b252)" d="M 114.79387 224.64 
L 117.326979 224.64 
L 117.326979 220.895231 
L 114.79387 220.895231 
z
" style="fill:#2ca02c;opacity:0.4;"/>
   </g>
   <g id="patch_108">
    <path clip-path="url(#p0d26c1b252)" d="M 117.326979 224.64 
L 119.860087 224.64 
L 119.860087 222.018662 
L 117.326979 222.018662 
z
" style="fill:#2ca02c;opacity:0.4;"/>
   </g>
   <g id="patch_109">
    <path clip-path="url(#p0d26c1b252)" d="M 119.860087 224.64 
L 122.393195 224.64 
L 122.393195 222.393139 
L 119.860087 222.393139 
z
" style="fill:#2ca02c;opacity:0.4;"/>
   </g>
   <g id="patch_110">
    <path clip-path="url(#p0d26c1b252)" d="M 122.393195 224.64 
L 124.926303 224.64 
L 124.926303 223.142092 
L 122.393195 223.142092 
z
" style="fill:#2ca02c;opacity:0.4;"/>
   </g>
   <g id="patch_111">
    <path clip-path="url(#p0d26c1b252)" d="M 124.926303 224.64 
L 127.459412 224.64 
L 127.459412 223.891046 
L 124.926303 223.891046 
z
" style="fill:#2ca02c;opacity:0.4;"/>
   </g>
   <g id="patch_112">
    <path clip-path="url(#p0d26c1b252)" d="M 127.459412 224.64 
L 129.99252 224.64 
L 129.99252 223.891046 
L 127.459412 223.891046 
z
" style="fill:#2ca02c;opacity:0.4;"/>
   </g>
   <g id="patch_113">
    <path clip-path="url(#p0d26c1b252)" d="M 129.99252 224.64 
L 132.525628 224.64 
L 132.525628 223.891046 
L 129.99252 223.891046 
z
" style="fill:#2ca02c;opacity:0.4;"/>
   </g>
   <g id="patch_114">
    <path clip-path="url(#p0d26c1b252)" d="M 132.525628 224.64 
L 135.058736 224.64 
L 135.058736 223.142092 
L 132.525628 223.142092 
z
" style="fill:#2ca02c;opacity:0.4;"/>
   </g>
   <g id="patch_115">
    <path clip-path="url(#p0d26c1b252)" d="M 135.058736 224.64 
L 137.591845 224.64 
L 137.591845 223.891046 
L 135.058736 223.891046 
z
" style="fill:#2ca02c;opacity:0.4;"/>
   </g>
   <g id="patch_116">
    <path clip-path="url(#p0d26c1b252)" d="M 137.591845 224.64 
L 140.124953 224.64 
L 140.124953 223.516569 
L 137.591845 223.516569 
z
" style="fill:#2ca02c;opacity:0.4;"/>
   </g>
   <g id="patch_117">
    <path clip-path="url(#p0d26c1b252)" d="M 140.124953 224.64 
L 142.658061 224.64 
L 142.658061 223.516569 
L 140.124953 223.516569 
z
" style="fill:#2ca02c;opacity:0.4;"/>
   </g>
   <g id="patch_118">
    <path clip-path="url(#p0d26c1b252)" d="M 142.658061 224.64 
L 145.191169 224.64 
L 145.191169 223.516569 
L 142.658061 223.516569 
z
" style="fill:#2ca02c;opacity:0.4;"/>
   </g>
   <g id="patch_119">
    <path clip-path="url(#p0d26c1b252)" d="M 145.191169 224.64 
L 147.724277 224.64 
L 147.724277 223.516569 
L 145.191169 223.516569 
z
" style="fill:#2ca02c;opacity:0.4;"/>
   </g>
   <g id="patch_120">
    <path clip-path="url(#p0d26c1b252)" d="M 147.724277 224.64 
L 150.257386 224.64 
L 150.257386 223.516569 
L 147.724277 223.516569 
z
" style="fill:#2ca02c;opacity:0.4;"/>
   </g>
   <g id="patch_121">
    <path clip-path="url(#p0d26c1b252)" d="M 150.257386 224.64 
L 152.790494 224.64 
L 152.790494 224.265523 
L 150.257386 224.265523 
z
" style="fill:#2ca02c;opacity:0.4;"/>
   </g>
   <g id="patch_122">
    <path clip-path="url(#p0d26c1b252)" d="M 152.790494 224.64 
L 155.323602 224.64 
L 155.323602 224.265523 
L 152.790494 224.265523 
z
" style="fill:#2ca02c;opacity:0.4;"/>
   </g>
   <g id="patch_123">
    <path clip-path="url(#p0d26c1b252)" d="M 155.323602 224.64 
L 157.85671 224.64 
L 157.85671 223.891046 
L 155.323602 223.891046 
z
" style="fill:#2ca02c;opacity:0.4;"/>
   </g>
   <g id="patch_124">
    <path clip-path="url(#p0d26c1b252)" d="M 157.85671 224.64 
L 160.389819 224.64 
L 160.389819 224.265523 
L 157.85671 224.265523 
z
" style="fill:#2ca02c;opacity:0.4;"/>
   </g>
   <g id="patch_125">
    <path clip-path="url(#p0d26c1b252)" d="M 160.389819 224.64 
L 162.922927 224.64 
L 162.922927 224.64 
L 160.389819 224.64 
z
" style="fill:#2ca02c;opacity:0.4;"/>
   </g>
   <g id="patch_126">
    <path clip-path="url(#p0d26c1b252)" d="M 162.922927 224.64 
L 165.456035 224.64 
L 165.456035 223.891046 
L 162.922927 223.891046 
z
" style="fill:#2ca02c;opacity:0.4;"/>
   </g>
   <g id="patch_127">
    <path clip-path="url(#p0d26c1b252)" d="M 165.456035 224.64 
L 167.989143 224.64 
L 167.989143 224.265523 
L 165.456035 224.265523 
z
" style="fill:#2ca02c;opacity:0.4;"/>
   </g>
   <g id="patch_128">
    <path clip-path="url(#p0d26c1b252)" d="M 167.989143 224.64 
L 170.522252 224.64 
L 170.522252 224.265523 
L 167.989143 224.265523 
z
" style="fill:#2ca02c;opacity:0.4;"/>
   </g>
   <g id="patch_129">
    <path clip-path="url(#p0d26c1b252)" d="M 170.522252 224.64 
L 173.05536 224.64 
L 173.05536 224.64 
L 170.522252 224.64 
z
" style="fill:#2ca02c;opacity:0.4;"/>
   </g>
   <g id="patch_130">
    <path clip-path="url(#p0d26c1b252)" d="M 173.05536 224.64 
L 175.588468 224.64 
L 175.588468 223.891046 
L 173.05536 223.891046 
z
" style="fill:#2ca02c;opacity:0.4;"/>
   </g>
   <g id="patch_131">
    <path clip-path="url(#p0d26c1b252)" d="M 175.588468 224.64 
L 178.121576 224.64 
L 178.121576 224.265523 
L 175.588468 224.265523 
z
" style="fill:#2ca02c;opacity:0.4;"/>
   </g>
   <g id="patch_132">
    <path clip-path="url(#p0d26c1b252)" d="M 178.121576 224.64 
L 180.654684 224.64 
L 180.654684 224.64 
L 178.121576 224.64 
z
" style="fill:#2ca02c;opacity:0.4;"/>
   </g>
   <g id="patch_133">
    <path clip-path="url(#p0d26c1b252)" d="M 180.654684 224.64 
L 183.187793 224.64 
L 183.187793 224.64 
L 180.654684 224.64 
z
" style="fill:#2ca02c;opacity:0.4;"/>
   </g>
   <g id="patch_134">
    <path clip-path="url(#p0d26c1b252)" d="M 183.187793 224.64 
L 185.720901 224.64 
L 185.720901 224.64 
L 183.187793 224.64 
z
" style="fill:#2ca02c;opacity:0.4;"/>
   </g>
   <g id="patch_135">
    <path clip-path="url(#p0d26c1b252)" d="M 185.720901 224.64 
L 188.254009 224.64 
L 188.254009 224.64 
L 185.720901 224.64 
z
" style="fill:#2ca02c;opacity:0.4;"/>
   </g>
   <g id="patch_136">
    <path clip-path="url(#p0d26c1b252)" d="M 188.254009 224.64 
L 190.787117 224.64 
L 190.787117 224.64 
L 188.254009 224.64 
z
" style="fill:#2ca02c;opacity:0.4;"/>
   </g>
   <g id="patch_137">
    <path clip-path="url(#p0d26c1b252)" d="M 190.787117 224.64 
L 193.320226 224.64 
L 193.320226 224.64 
L 190.787117 224.64 
z
" style="fill:#2ca02c;opacity:0.4;"/>
   </g>
   <g id="patch_138">
    <path clip-path="url(#p0d26c1b252)" d="M 193.320226 224.64 
L 195.853334 224.64 
L 195.853334 224.64 
L 193.320226 224.64 
z
" style="fill:#2ca02c;opacity:0.4;"/>
   </g>
   <g id="patch_139">
    <path clip-path="url(#p0d26c1b252)" d="M 195.853334 224.64 
L 198.386442 224.64 
L 198.386442 224.64 
L 195.853334 224.64 
z
" style="fill:#2ca02c;opacity:0.4;"/>
   </g>
   <g id="patch_140">
    <path clip-path="url(#p0d26c1b252)" d="M 198.386442 224.64 
L 200.91955 224.64 
L 200.91955 224.265523 
L 198.386442 224.265523 
z
" style="fill:#2ca02c;opacity:0.4;"/>
   </g>
   <g id="patch_141">
    <path clip-path="url(#p0d26c1b252)" d="M 200.91955 224.64 
L 203.452659 224.64 
L 203.452659 224.265523 
L 200.91955 224.265523 
z
" style="fill:#2ca02c;opacity:0.4;"/>
   </g>
   <g id="matplotlib.axis_1">
    <g id="xtick_1">
     <g id="line2d_1">
      <defs>
       <path d="M 0 0 
L 0 3.5 
" id="m3efbd622d9" style="stroke:#000000;stroke-width:0.8;"/>
      </defs>
      <g>
       <use style="stroke:#000000;stroke-width:0.8;" x="76.797247" xlink:href="#m3efbd622d9" y="224.64"/>
      </g>
     </g>
     <g id="text_1">
      <!-- 0 -->
      <g transform="translate(73.615997 239.238437)scale(0.1 -0.1)">
       <defs>
        <path d="M 31.78125 66.40625 
Q 24.171875 66.40625 20.328125 58.90625 
Q 16.5 51.421875 16.5 36.375 
Q 16.5 21.390625 20.328125 13.890625 
Q 24.171875 6.390625 31.78125 6.390625 
Q 39.453125 6.390625 43.28125 13.890625 
Q 47.125 21.390625 47.125 36.375 
Q 47.125 51.421875 43.28125 58.90625 
Q 39.453125 66.40625 31.78125 66.40625 
z
M 31.78125 74.21875 
Q 44.046875 74.21875 50.515625 64.515625 
Q 56.984375 54.828125 56.984375 36.375 
Q 56.984375 17.96875 50.515625 8.265625 
Q 44.046875 -1.421875 31.78125 -1.421875 
Q 19.53125 -1.421875 13.0625 8.265625 
Q 6.59375 17.96875 6.59375 36.375 
Q 6.59375 54.828125 13.0625 64.515625 
Q 19.53125 74.21875 31.78125 74.21875 
z
" id="DejaVuSans-48"/>
       </defs>
       <use xlink:href="#DejaVuSans-48"/>
      </g>
     </g>
    </g>
    <g id="xtick_2">
     <g id="line2d_2">
      <g>
       <use style="stroke:#000000;stroke-width:0.8;" x="138.283062" xlink:href="#m3efbd622d9" y="224.64"/>
      </g>
     </g>
     <g id="text_2">
      <!-- 5 -->
      <g transform="translate(135.101812 239.238437)scale(0.1 -0.1)">
       <defs>
        <path d="M 10.796875 72.90625 
L 49.515625 72.90625 
L 49.515625 64.59375 
L 19.828125 64.59375 
L 19.828125 46.734375 
Q 21.96875 47.46875 24.109375 47.828125 
Q 26.265625 48.1875 28.421875 48.1875 
Q 40.625 48.1875 47.75 41.5 
Q 54.890625 34.8125 54.890625 23.390625 
Q 54.890625 11.625 47.5625 5.09375 
Q 40.234375 -1.421875 26.90625 -1.421875 
Q 22.3125 -1.421875 17.546875 -0.640625 
Q 12.796875 0.140625 7.71875 1.703125 
L 7.71875 11.625 
Q 12.109375 9.234375 16.796875 8.0625 
Q 21.484375 6.890625 26.703125 6.890625 
Q 35.15625 6.890625 40.078125 11.328125 
Q 45.015625 15.765625 45.015625 23.390625 
Q 45.015625 31 40.078125 35.4375 
Q 35.15625 39.890625 26.703125 39.890625 
Q 22.75 39.890625 18.8125 39.015625 
Q 14.890625 38.140625 10.796875 36.28125 
z
" id="DejaVuSans-53"/>
       </defs>
       <use xlink:href="#DejaVuSans-53"/>
      </g>
     </g>
    </g>
    <g id="xtick_3">
     <g id="line2d_3">
      <g>
       <use style="stroke:#000000;stroke-width:0.8;" x="199.768877" xlink:href="#m3efbd622d9" y="224.64"/>
      </g>
     </g>
     <g id="text_3">
      <!-- 10 -->
      <g transform="translate(193.406377 239.238437)scale(0.1 -0.1)">
       <defs>
        <path d="M 12.40625 8.296875 
L 28.515625 8.296875 
L 28.515625 63.921875 
L 10.984375 60.40625 
L 10.984375 69.390625 
L 28.421875 72.90625 
L 38.28125 72.90625 
L 38.28125 8.296875 
L 54.390625 8.296875 
L 54.390625 0 
L 12.40625 0 
z
" id="DejaVuSans-49"/>
       </defs>
       <use xlink:href="#DejaVuSans-49"/>
       <use x="63.623047" xlink:href="#DejaVuSans-48"/>
      </g>
     </g>
    </g>
    <g id="xtick_4">
     <g id="line2d_4">
      <g>
       <use style="stroke:#000000;stroke-width:0.8;" x="261.254692" xlink:href="#m3efbd622d9" y="224.64"/>
      </g>
     </g>
     <g id="text_4">
      <!-- 15 -->
      <g transform="translate(254.892192 239.238437)scale(0.1 -0.1)">
       <use xlink:href="#DejaVuSans-49"/>
       <use x="63.623047" xlink:href="#DejaVuSans-53"/>
      </g>
     </g>
    </g>
    <g id="xtick_5">
     <g id="line2d_5">
      <g>
       <use style="stroke:#000000;stroke-width:0.8;" x="322.740508" xlink:href="#m3efbd622d9" y="224.64"/>
      </g>
     </g>
     <g id="text_5">
      <!-- 20 -->
      <g transform="translate(316.378008 239.238437)scale(0.1 -0.1)">
       <defs>
        <path d="M 19.1875 8.296875 
L 53.609375 8.296875 
L 53.609375 0 
L 7.328125 0 
L 7.328125 8.296875 
Q 12.9375 14.109375 22.625 23.890625 
Q 32.328125 33.6875 34.8125 36.53125 
Q 39.546875 41.84375 41.421875 45.53125 
Q 43.3125 49.21875 43.3125 52.78125 
Q 43.3125 58.59375 39.234375 62.25 
Q 35.15625 65.921875 28.609375 65.921875 
Q 23.96875 65.921875 18.8125 64.3125 
Q 13.671875 62.703125 7.8125 59.421875 
L 7.8125 69.390625 
Q 13.765625 71.78125 18.9375 73 
Q 24.125 74.21875 28.421875 74.21875 
Q 39.75 74.21875 46.484375 68.546875 
Q 53.21875 62.890625 53.21875 53.421875 
Q 53.21875 48.921875 51.53125 44.890625 
Q 49.859375 40.875 45.40625 35.40625 
Q 44.1875 33.984375 37.640625 27.21875 
Q 31.109375 20.453125 19.1875 8.296875 
z
" id="DejaVuSans-50"/>
       </defs>
       <use xlink:href="#DejaVuSans-50"/>
       <use x="63.623047" xlink:href="#DejaVuSans-48"/>
      </g>
     </g>
    </g>
    <g id="text_6">
     <!-- f(t) -->
     <g transform="translate(203.559375 252.916562)scale(0.1 -0.1)">
      <defs>
       <path d="M 37.109375 75.984375 
L 37.109375 68.5 
L 28.515625 68.5 
Q 23.6875 68.5 21.796875 66.546875 
Q 19.921875 64.59375 19.921875 59.515625 
L 19.921875 54.6875 
L 34.71875 54.6875 
L 34.71875 47.703125 
L 19.921875 47.703125 
L 19.921875 0 
L 10.890625 0 
L 10.890625 47.703125 
L 2.296875 47.703125 
L 2.296875 54.6875 
L 10.890625 54.6875 
L 10.890625 58.5 
Q 10.890625 67.625 15.140625 71.796875 
Q 19.390625 75.984375 28.609375 75.984375 
z
" id="DejaVuSans-102"/>
       <path d="M 31 75.875 
Q 24.46875 64.65625 21.28125 53.65625 
Q 18.109375 42.671875 18.109375 31.390625 
Q 18.109375 20.125 21.3125 9.0625 
Q 24.515625 -2 31 -13.1875 
L 23.1875 -13.1875 
Q 15.875 -1.703125 12.234375 9.375 
Q 8.59375 20.453125 8.59375 31.390625 
Q 8.59375 42.28125 12.203125 53.3125 
Q 15.828125 64.359375 23.1875 75.875 
z
" id="DejaVuSans-40"/>
       <path d="M 18.3125 70.21875 
L 18.3125 54.6875 
L 36.8125 54.6875 
L 36.8125 47.703125 
L 18.3125 47.703125 
L 18.3125 18.015625 
Q 18.3125 11.328125 20.140625 9.421875 
Q 21.96875 7.515625 27.59375 7.515625 
L 36.8125 7.515625 
L 36.8125 0 
L 27.59375 0 
Q 17.1875 0 13.234375 3.875 
Q 9.28125 7.765625 9.28125 18.015625 
L 9.28125 47.703125 
L 2.6875 47.703125 
L 2.6875 54.6875 
L 9.28125 54.6875 
L 9.28125 70.21875 
z
" id="DejaVuSans-116"/>
       <path d="M 8.015625 75.875 
L 15.828125 75.875 
Q 23.140625 64.359375 26.78125 53.3125 
Q 30.421875 42.28125 30.421875 31.390625 
Q 30.421875 20.453125 26.78125 9.375 
Q 23.140625 -1.703125 15.828125 -13.1875 
L 8.015625 -13.1875 
Q 14.5 -2 17.703125 9.0625 
Q 20.90625 20.125 20.90625 31.390625 
Q 20.90625 42.671875 17.703125 53.65625 
Q 14.5 64.65625 8.015625 75.875 
z
" id="DejaVuSans-41"/>
      </defs>
      <use xlink:href="#DejaVuSans-102"/>
      <use x="35.205078" xlink:href="#DejaVuSans-40"/>
      <use x="74.21875" xlink:href="#DejaVuSans-116"/>
      <use x="113.427734" xlink:href="#DejaVuSans-41"/>
     </g>
    </g>
   </g>
   <g id="matplotlib.axis_2">
    <g id="ytick_1">
     <g id="line2d_6">
      <defs>
       <path d="M 0 0 
L -3.5 0 
" id="me2923b2106" style="stroke:#000000;stroke-width:0.8;"/>
      </defs>
      <g>
       <use style="stroke:#000000;stroke-width:0.8;" x="43.78125" xlink:href="#me2923b2106" y="224.64"/>
      </g>
     </g>
     <g id="text_7">
      <!-- 0.0 -->
      <g transform="translate(20.878125 228.439219)scale(0.1 -0.1)">
       <defs>
        <path d="M 10.6875 12.40625 
L 21 12.40625 
L 21 0 
L 10.6875 0 
z
" id="DejaVuSans-46"/>
       </defs>
       <use xlink:href="#DejaVuSans-48"/>
       <use x="63.623047" xlink:href="#DejaVuSans-46"/>
       <use x="95.410156" xlink:href="#DejaVuSans-48"/>
      </g>
     </g>
    </g>
    <g id="ytick_2">
     <g id="line2d_7">
      <g>
       <use style="stroke:#000000;stroke-width:0.8;" x="43.78125" xlink:href="#me2923b2106" y="186.070516"/>
      </g>
     </g>
     <g id="text_8">
      <!-- 0.5 -->
      <g transform="translate(20.878125 189.869735)scale(0.1 -0.1)">
       <use xlink:href="#DejaVuSans-48"/>
       <use x="63.623047" xlink:href="#DejaVuSans-46"/>
       <use x="95.410156" xlink:href="#DejaVuSans-53"/>
      </g>
     </g>
    </g>
    <g id="ytick_3">
     <g id="line2d_8">
      <g>
       <use style="stroke:#000000;stroke-width:0.8;" x="43.78125" xlink:href="#me2923b2106" y="147.501032"/>
      </g>
     </g>
     <g id="text_9">
      <!-- 1.0 -->
      <g transform="translate(20.878125 151.300251)scale(0.1 -0.1)">
       <use xlink:href="#DejaVuSans-49"/>
       <use x="63.623047" xlink:href="#DejaVuSans-46"/>
       <use x="95.410156" xlink:href="#DejaVuSans-48"/>
      </g>
     </g>
    </g>
    <g id="ytick_4">
     <g id="line2d_9">
      <g>
       <use style="stroke:#000000;stroke-width:0.8;" x="43.78125" xlink:href="#me2923b2106" y="108.931548"/>
      </g>
     </g>
     <g id="text_10">
      <!-- 1.5 -->
      <g transform="translate(20.878125 112.730767)scale(0.1 -0.1)">
       <use xlink:href="#DejaVuSans-49"/>
       <use x="63.623047" xlink:href="#DejaVuSans-46"/>
       <use x="95.410156" xlink:href="#DejaVuSans-53"/>
      </g>
     </g>
    </g>
    <g id="ytick_5">
     <g id="line2d_10">
      <g>
       <use style="stroke:#000000;stroke-width:0.8;" x="43.78125" xlink:href="#me2923b2106" y="70.362064"/>
      </g>
     </g>
     <g id="text_11">
      <!-- 2.0 -->
      <g transform="translate(20.878125 74.161283)scale(0.1 -0.1)">
       <use xlink:href="#DejaVuSans-50"/>
       <use x="63.623047" xlink:href="#DejaVuSans-46"/>
       <use x="95.410156" xlink:href="#DejaVuSans-48"/>
      </g>
     </g>
    </g>
    <g id="ytick_6">
     <g id="line2d_11">
      <g>
       <use style="stroke:#000000;stroke-width:0.8;" x="43.78125" xlink:href="#me2923b2106" y="31.79258"/>
      </g>
     </g>
     <g id="text_12">
      <!-- 2.5 -->
      <g transform="translate(20.878125 35.591799)scale(0.1 -0.1)">
       <use xlink:href="#DejaVuSans-50"/>
       <use x="63.623047" xlink:href="#DejaVuSans-46"/>
       <use x="95.410156" xlink:href="#DejaVuSans-53"/>
      </g>
     </g>
    </g>
    <g id="text_13">
     <!-- Density -->
     <g transform="translate(14.798438 134.928594)rotate(-90)scale(0.1 -0.1)">
      <defs>
       <path d="M 19.671875 64.796875 
L 19.671875 8.109375 
L 31.59375 8.109375 
Q 46.6875 8.109375 53.6875 14.9375 
Q 60.6875 21.78125 60.6875 36.53125 
Q 60.6875 51.171875 53.6875 57.984375 
Q 46.6875 64.796875 31.59375 64.796875 
z
M 9.8125 72.90625 
L 30.078125 72.90625 
Q 51.265625 72.90625 61.171875 64.09375 
Q 71.09375 55.28125 71.09375 36.53125 
Q 71.09375 17.671875 61.125 8.828125 
Q 51.171875 0 30.078125 0 
L 9.8125 0 
z
" id="DejaVuSans-68"/>
       <path d="M 56.203125 29.59375 
L 56.203125 25.203125 
L 14.890625 25.203125 
Q 15.484375 15.921875 20.484375 11.0625 
Q 25.484375 6.203125 34.421875 6.203125 
Q 39.59375 6.203125 44.453125 7.46875 
Q 49.3125 8.734375 54.109375 11.28125 
L 54.109375 2.78125 
Q 49.265625 0.734375 44.1875 -0.34375 
Q 39.109375 -1.421875 33.890625 -1.421875 
Q 20.796875 -1.421875 13.15625 6.1875 
Q 5.515625 13.8125 5.515625 26.8125 
Q 5.515625 40.234375 12.765625 48.109375 
Q 20.015625 56 32.328125 56 
Q 43.359375 56 49.78125 48.890625 
Q 56.203125 41.796875 56.203125 29.59375 
z
M 47.21875 32.234375 
Q 47.125 39.59375 43.09375 43.984375 
Q 39.0625 48.390625 32.421875 48.390625 
Q 24.90625 48.390625 20.390625 44.140625 
Q 15.875 39.890625 15.1875 32.171875 
z
" id="DejaVuSans-101"/>
       <path d="M 54.890625 33.015625 
L 54.890625 0 
L 45.90625 0 
L 45.90625 32.71875 
Q 45.90625 40.484375 42.875 44.328125 
Q 39.84375 48.1875 33.796875 48.1875 
Q 26.515625 48.1875 22.3125 43.546875 
Q 18.109375 38.921875 18.109375 30.90625 
L 18.109375 0 
L 9.078125 0 
L 9.078125 54.6875 
L 18.109375 54.6875 
L 18.109375 46.1875 
Q 21.34375 51.125 25.703125 53.5625 
Q 30.078125 56 35.796875 56 
Q 45.21875 56 50.046875 50.171875 
Q 54.890625 44.34375 54.890625 33.015625 
z
" id="DejaVuSans-110"/>
       <path d="M 44.28125 53.078125 
L 44.28125 44.578125 
Q 40.484375 46.53125 36.375 47.5 
Q 32.28125 48.484375 27.875 48.484375 
Q 21.1875 48.484375 17.84375 46.4375 
Q 14.5 44.390625 14.5 40.28125 
Q 14.5 37.15625 16.890625 35.375 
Q 19.28125 33.59375 26.515625 31.984375 
L 29.59375 31.296875 
Q 39.15625 29.25 43.1875 25.515625 
Q 47.21875 21.78125 47.21875 15.09375 
Q 47.21875 7.46875 41.1875 3.015625 
Q 35.15625 -1.421875 24.609375 -1.421875 
Q 20.21875 -1.421875 15.453125 -0.5625 
Q 10.6875 0.296875 5.421875 2 
L 5.421875 11.28125 
Q 10.40625 8.6875 15.234375 7.390625 
Q 20.0625 6.109375 24.8125 6.109375 
Q 31.15625 6.109375 34.5625 8.28125 
Q 37.984375 10.453125 37.984375 14.40625 
Q 37.984375 18.0625 35.515625 20.015625 
Q 33.0625 21.96875 24.703125 23.78125 
L 21.578125 24.515625 
Q 13.234375 26.265625 9.515625 29.90625 
Q 5.8125 33.546875 5.8125 39.890625 
Q 5.8125 47.609375 11.28125 51.796875 
Q 16.75 56 26.8125 56 
Q 31.78125 56 36.171875 55.265625 
Q 40.578125 54.546875 44.28125 53.078125 
z
" id="DejaVuSans-115"/>
       <path d="M 9.421875 54.6875 
L 18.40625 54.6875 
L 18.40625 0 
L 9.421875 0 
z
M 9.421875 75.984375 
L 18.40625 75.984375 
L 18.40625 64.59375 
L 9.421875 64.59375 
z
" id="DejaVuSans-105"/>
       <path d="M 32.171875 -5.078125 
Q 28.375 -14.84375 24.75 -17.8125 
Q 21.140625 -20.796875 15.09375 -20.796875 
L 7.90625 -20.796875 
L 7.90625 -13.28125 
L 13.1875 -13.28125 
Q 16.890625 -13.28125 18.9375 -11.515625 
Q 21 -9.765625 23.484375 -3.21875 
L 25.09375 0.875 
L 2.984375 54.6875 
L 12.5 54.6875 
L 29.59375 11.921875 
L 46.6875 54.6875 
L 56.203125 54.6875 
z
" id="DejaVuSans-121"/>
      </defs>
      <use xlink:href="#DejaVuSans-68"/>
      <use x="77.001953" xlink:href="#DejaVuSans-101"/>
      <use x="138.525391" xlink:href="#DejaVuSans-110"/>
      <use x="201.904297" xlink:href="#DejaVuSans-115"/>
      <use x="254.003906" xlink:href="#DejaVuSans-105"/>
      <use x="281.787109" xlink:href="#DejaVuSans-116"/>
      <use x="320.996094" xlink:href="#DejaVuSans-121"/>
     </g>
    </g>
   </g>
   <g id="line2d_12">
    <path clip-path="url(#p0d26c1b252)" d="M 61.209773 224.635967 
L 67.248428 224.547025 
L 70.267755 224.330936 
L 72.28064 224.031985 
L 74.293524 223.548036 
L 76.306409 222.834689 
L 78.319294 221.86667 
L 80.332179 220.641532 
L 82.345063 219.174611 
L 84.357948 217.489034 
L 87.377275 214.597959 
L 90.396602 211.324713 
L 94.422372 206.519409 
L 97.441699 202.896381 
L 99.454584 200.77441 
L 100.461026 199.895749 
L 101.467469 199.185433 
L 102.473911 198.675667 
L 103.480353 198.392245 
L 104.486796 198.351459 
L 105.493238 198.557924 
L 106.499681 199.003676 
L 107.506123 199.668676 
L 108.512565 200.522569 
L 110.52545 202.64049 
L 115.557662 208.397171 
L 117.570547 210.239632 
L 119.583432 211.697129 
L 121.596316 212.855329 
L 131.66074 217.904263 
L 134.680067 219.150761 
L 137.699394 220.126802 
L 142.731606 221.477821 
L 146.757376 222.378177 
L 149.776703 222.842542 
L 152.79603 223.102196 
L 157.828242 223.269402 
L 193.053725 224.043867 
L 209.156804 224.409609 
L 230.292094 224.581207 
L 250.420941 224.596683 
L 261.491807 224.639239 
L 261.491807 224.639239 
" style="fill:none;stroke:#1f77b4;stroke-linecap:square;stroke-width:1.5;"/>
   </g>
   <g id="line2d_13">
    <path clip-path="url(#p0d26c1b252)" d="M 58.999432 224.512162 
L 60.528897 224.357843 
L 62.058363 224.054829 
L 63.587828 223.499006 
L 65.117294 222.546918 
L 66.646759 221.024721 
L 68.176225 218.754709 
L 69.70569 215.600133 
L 71.235156 211.5206 
L 72.764621 206.621565 
L 77.353018 190.440708 
L 78.882483 186.171657 
L 80.411949 183.222478 
L 81.941414 181.848181 
L 83.47088 182.1131 
L 85.000345 183.900385 
L 86.529811 186.94893 
L 88.059276 190.904242 
L 92.647673 204.384858 
L 94.177139 208.367062 
L 95.706604 211.78323 
L 97.23607 214.587869 
L 98.765535 216.806332 
L 100.295001 218.506946 
L 101.824466 219.775459 
L 103.353932 220.697381 
L 104.883397 221.349299 
L 106.412863 221.796811 
L 109.471794 222.292439 
L 114.06019 222.615922 
L 133.943242 223.690204 
L 140.061104 223.754752 
L 149.237897 223.568373 
L 155.355759 223.47807 
L 159.944155 223.647185 
L 170.650414 224.365313 
L 176.768276 224.434254 
L 242.535293 224.553899 
L 253.241552 224.618701 
L 274.654069 224.631729 
L 315.949637 224.617993 
L 334.303224 224.612709 
L 363.363068 224.639291 
L 363.363068 224.639291 
" style="fill:none;stroke:#ff7f0e;stroke-linecap:square;stroke-width:1.5;"/>
   </g>
   <g id="line2d_14">
    <path clip-path="url(#p0d26c1b252)" d="M 64.136214 224.149056 
L 64.89992 223.803996 
L 65.663626 223.261542 
L 66.427332 222.439015 
L 67.191038 221.236591 
L 67.954744 219.542863 
L 68.718449 217.245601 
L 69.482155 214.247918 
L 70.245861 210.48872 
L 71.009567 205.964728 
L 72.536979 195.007022 
L 74.828097 177.458394 
L 75.591803 172.681971 
L 76.355509 169.007236 
L 77.119215 166.666287 
L 77.88292 165.772841 
L 78.646626 166.31077 
L 79.410332 168.142932 
L 80.174038 171.037746 
L 81.70145 178.848953 
L 83.992568 191.561878 
L 85.51998 198.747014 
L 87.047391 204.482516 
L 88.574803 208.943401 
L 90.102215 212.376948 
L 91.629627 214.962291 
L 93.157039 216.824708 
L 94.684451 218.085 
L 96.211862 218.878895 
L 97.739274 219.345093 
L 100.030392 219.693649 
L 104.612628 220.212728 
L 107.667451 220.89859 
L 110.722275 221.592962 
L 113.013393 221.882835 
L 120.650452 222.472552 
L 127.523805 223.562998 
L 130.578629 223.690644 
L 146.616453 223.670092 
L 151.962394 223.923262 
L 158.835748 224.231197 
L 165.709101 224.284982 
L 178.692102 224.408903 
L 186.329161 224.623966 
L 194.729926 224.584996 
L 204.658103 224.508508 
L 216.113692 224.638956 
L 216.113692 224.638956 
" style="fill:none;stroke:#2ca02c;stroke-linecap:square;stroke-width:1.5;"/>
   </g>
   <g id="patch_142">
    <path d="M 43.78125 224.64 
L 43.78125 7.2 
" style="fill:none;stroke:#000000;stroke-linecap:square;stroke-linejoin:miter;stroke-width:0.8;"/>
   </g>
   <g id="patch_143">
    <path d="M 378.58125 224.64 
L 378.58125 7.2 
" style="fill:none;stroke:#000000;stroke-linecap:square;stroke-linejoin:miter;stroke-width:0.8;"/>
   </g>
   <g id="patch_144">
    <path d="M 43.78125 224.64 
L 378.58125 224.64 
" style="fill:none;stroke:#000000;stroke-linecap:square;stroke-linejoin:miter;stroke-width:0.8;"/>
   </g>
   <g id="patch_145">
    <path d="M 43.78125 7.2 
L 378.58125 7.2 
" style="fill:none;stroke:#000000;stroke-linecap:square;stroke-linejoin:miter;stroke-width:0.8;"/>
   </g>
  </g>
 </g>
 <defs>
  <clipPath id="p0d26c1b252">
   <rect height="217.44" width="334.8" x="43.78125" y="7.2"/>
  </clipPath>
 </defs>
</svg>
