<?xml version="1.0" encoding="utf-8" standalone="no"?>
<!DOCTYPE svg PUBLIC "-//W3C//DTD SVG 1.1//EN"
  "http://www.w3.org/Graphics/SVG/1.1/DTD/svg11.dtd">
<!-- Created with matplotlib (https://matplotlib.org/) -->
<svg height="262.19625pt" version="1.1" viewBox="0 0 385.78125 262.19625" width="385.78125pt" xmlns="http://www.w3.org/2000/svg" xmlns:xlink="http://www.w3.org/1999/xlink">
 <metadata>
  <rdf:RDF xmlns:cc="http://creativecommons.org/ns#" xmlns:dc="http://purl.org/dc/elements/1.1/" xmlns:rdf="http://www.w3.org/1999/02/22-rdf-syntax-ns#">
   <cc:Work>
    <dc:type rdf:resource="http://purl.org/dc/dcmitype/StillImage"/>
    <dc:date>2021-02-12T15:48:39.639932</dc:date>
    <dc:format>image/svg+xml</dc:format>
    <dc:creator>
     <cc:Agent>
      <dc:title>Matplotlib v3.3.4, https://matplotlib.org/</dc:title>
     </cc:Agent>
    </dc:creator>
   </cc:Work>
  </rdf:RDF>
 </metadata>
 <defs>
  <style type="text/css">*{stroke-linecap:butt;stroke-linejoin:round;}</style>
 </defs>
 <g id="figure_1">
  <g id="patch_1">
   <path d="M 0 262.19625 
L 385.78125 262.19625 
L 385.78125 0 
L 0 0 
z
" style="fill:none;"/>
  </g>
  <g id="axes_1">
   <g id="patch_2">
    <path d="M 43.78125 224.64 
L 378.58125 224.64 
L 378.58125 7.2 
L 43.78125 7.2 
z
" style="fill:#ffffff;"/>
   </g>
   <g id="patch_3">
    <path clip-path="url(#p2d395a115d)" d="M 77.255146 224.64 
L 80.923785 224.64 
L 80.923785 220.030618 
L 77.255146 220.030618 
z
" style="fill:#1f77b4;opacity:0.4;"/>
   </g>
   <g id="patch_4">
    <path clip-path="url(#p2d395a115d)" d="M 80.923785 224.64 
L 84.592425 224.64 
L 84.592425 214.065536 
L 80.923785 214.065536 
z
" style="fill:#1f77b4;opacity:0.4;"/>
   </g>
   <g id="patch_5">
    <path clip-path="url(#p2d395a115d)" d="M 84.592425 224.64 
L 88.261064 224.64 
L 88.261064 208.100453 
L 84.592425 208.100453 
z
" style="fill:#1f77b4;opacity:0.4;"/>
   </g>
   <g id="patch_6">
    <path clip-path="url(#p2d395a115d)" d="M 88.261064 224.64 
L 91.929703 224.64 
L 91.929703 205.117912 
L 88.261064 205.117912 
z
" style="fill:#1f77b4;opacity:0.4;"/>
   </g>
   <g id="patch_7">
    <path clip-path="url(#p2d395a115d)" d="M 91.929703 224.64 
L 95.598343 224.64 
L 95.598343 196.441428 
L 91.929703 196.441428 
z
" style="fill:#1f77b4;opacity:0.4;"/>
   </g>
   <g id="patch_8">
    <path clip-path="url(#p2d395a115d)" d="M 95.598343 224.64 
L 99.266982 224.64 
L 99.266982 185.053543 
L 95.598343 185.053543 
z
" style="fill:#1f77b4;opacity:0.4;"/>
   </g>
   <g id="patch_9">
    <path clip-path="url(#p2d395a115d)" d="M 99.266982 224.64 
L 102.935622 224.64 
L 102.935622 193.458887 
L 99.266982 193.458887 
z
" style="fill:#1f77b4;opacity:0.4;"/>
   </g>
   <g id="patch_10">
    <path clip-path="url(#p2d395a115d)" d="M 102.935622 224.64 
L 106.604261 224.64 
L 106.604261 196.170288 
L 102.935622 196.170288 
z
" style="fill:#1f77b4;opacity:0.4;"/>
   </g>
   <g id="patch_11">
    <path clip-path="url(#p2d395a115d)" d="M 106.604261 224.64 
L 110.272901 224.64 
L 110.272901 208.913873 
L 106.604261 208.913873 
z
" style="fill:#1f77b4;opacity:0.4;"/>
   </g>
   <g id="patch_12">
    <path clip-path="url(#p2d395a115d)" d="M 110.272901 224.64 
L 113.94154 224.64 
L 113.94154 206.744752 
L 110.272901 206.744752 
z
" style="fill:#1f77b4;opacity:0.4;"/>
   </g>
   <g id="patch_13">
    <path clip-path="url(#p2d395a115d)" d="M 113.94154 224.64 
L 117.610179 224.64 
L 117.610179 211.625274 
L 113.94154 211.625274 
z
" style="fill:#1f77b4;opacity:0.4;"/>
   </g>
   <g id="patch_14">
    <path clip-path="url(#p2d395a115d)" d="M 117.610179 224.64 
L 121.278819 224.64 
L 121.278819 211.896415 
L 117.610179 211.896415 
z
" style="fill:#1f77b4;opacity:0.4;"/>
   </g>
   <g id="patch_15">
    <path clip-path="url(#p2d395a115d)" d="M 121.278819 224.64 
L 124.947458 224.64 
L 124.947458 219.488338 
L 121.278819 219.488338 
z
" style="fill:#1f77b4;opacity:0.4;"/>
   </g>
   <g id="patch_16">
    <path clip-path="url(#p2d395a115d)" d="M 124.947458 224.64 
L 128.616098 224.64 
L 128.616098 220.572898 
L 124.947458 220.572898 
z
" style="fill:#1f77b4;opacity:0.4;"/>
   </g>
   <g id="patch_17">
    <path clip-path="url(#p2d395a115d)" d="M 128.616098 224.64 
L 132.284737 224.64 
L 132.284737 220.572898 
L 128.616098 220.572898 
z
" style="fill:#1f77b4;opacity:0.4;"/>
   </g>
   <g id="patch_18">
    <path clip-path="url(#p2d395a115d)" d="M 132.284737 224.64 
L 135.953376 224.64 
L 135.953376 221.657459 
L 132.284737 221.657459 
z
" style="fill:#1f77b4;opacity:0.4;"/>
   </g>
   <g id="patch_19">
    <path clip-path="url(#p2d395a115d)" d="M 135.953376 224.64 
L 139.622016 224.64 
L 139.622016 223.284299 
L 135.953376 223.284299 
z
" style="fill:#1f77b4;opacity:0.4;"/>
   </g>
   <g id="patch_20">
    <path clip-path="url(#p2d395a115d)" d="M 139.622016 224.64 
L 143.290655 224.64 
L 143.290655 223.013159 
L 139.622016 223.013159 
z
" style="fill:#1f77b4;opacity:0.4;"/>
   </g>
   <g id="patch_21">
    <path clip-path="url(#p2d395a115d)" d="M 143.290655 224.64 
L 146.959295 224.64 
L 146.959295 222.742019 
L 143.290655 222.742019 
z
" style="fill:#1f77b4;opacity:0.4;"/>
   </g>
   <g id="patch_22">
    <path clip-path="url(#p2d395a115d)" d="M 146.959295 224.64 
L 150.627934 224.64 
L 150.627934 222.742019 
L 146.959295 222.742019 
z
" style="fill:#1f77b4;opacity:0.4;"/>
   </g>
   <g id="patch_23">
    <path clip-path="url(#p2d395a115d)" d="M 150.627934 224.64 
L 154.296573 224.64 
L 154.296573 221.386319 
L 150.627934 221.386319 
z
" style="fill:#1f77b4;opacity:0.4;"/>
   </g>
   <g id="patch_24">
    <path clip-path="url(#p2d395a115d)" d="M 154.296573 224.64 
L 157.965213 224.64 
L 157.965213 223.82658 
L 154.296573 223.82658 
z
" style="fill:#1f77b4;opacity:0.4;"/>
   </g>
   <g id="patch_25">
    <path clip-path="url(#p2d395a115d)" d="M 157.965213 224.64 
L 161.633852 224.64 
L 161.633852 223.55544 
L 157.965213 223.55544 
z
" style="fill:#1f77b4;opacity:0.4;"/>
   </g>
   <g id="patch_26">
    <path clip-path="url(#p2d395a115d)" d="M 161.633852 224.64 
L 165.302492 224.64 
L 165.302492 223.284299 
L 161.633852 223.284299 
z
" style="fill:#1f77b4;opacity:0.4;"/>
   </g>
   <g id="patch_27">
    <path clip-path="url(#p2d395a115d)" d="M 165.302492 224.64 
L 168.971131 224.64 
L 168.971131 224.09772 
L 165.302492 224.09772 
z
" style="fill:#1f77b4;opacity:0.4;"/>
   </g>
   <g id="patch_28">
    <path clip-path="url(#p2d395a115d)" d="M 168.971131 224.64 
L 172.63977 224.64 
L 172.63977 224.36886 
L 168.971131 224.36886 
z
" style="fill:#1f77b4;opacity:0.4;"/>
   </g>
   <g id="patch_29">
    <path clip-path="url(#p2d395a115d)" d="M 172.63977 224.64 
L 176.30841 224.64 
L 176.30841 223.82658 
L 172.63977 223.82658 
z
" style="fill:#1f77b4;opacity:0.4;"/>
   </g>
   <g id="patch_30">
    <path clip-path="url(#p2d395a115d)" d="M 176.30841 224.64 
L 179.977049 224.64 
L 179.977049 224.64 
L 176.30841 224.64 
z
" style="fill:#1f77b4;opacity:0.4;"/>
   </g>
   <g id="patch_31">
    <path clip-path="url(#p2d395a115d)" d="M 179.977049 224.64 
L 183.645689 224.64 
L 183.645689 224.09772 
L 179.977049 224.09772 
z
" style="fill:#1f77b4;opacity:0.4;"/>
   </g>
   <g id="patch_32">
    <path clip-path="url(#p2d395a115d)" d="M 183.645689 224.64 
L 187.314328 224.64 
L 187.314328 224.09772 
L 183.645689 224.09772 
z
" style="fill:#1f77b4;opacity:0.4;"/>
   </g>
   <g id="patch_33">
    <path clip-path="url(#p2d395a115d)" d="M 187.314328 224.64 
L 190.982968 224.64 
L 190.982968 224.36886 
L 187.314328 224.36886 
z
" style="fill:#1f77b4;opacity:0.4;"/>
   </g>
   <g id="patch_34">
    <path clip-path="url(#p2d395a115d)" d="M 190.982968 224.64 
L 194.651607 224.64 
L 194.651607 224.64 
L 190.982968 224.64 
z
" style="fill:#1f77b4;opacity:0.4;"/>
   </g>
   <g id="patch_35">
    <path clip-path="url(#p2d395a115d)" d="M 194.651607 224.64 
L 198.320246 224.64 
L 198.320246 224.64 
L 194.651607 224.64 
z
" style="fill:#1f77b4;opacity:0.4;"/>
   </g>
   <g id="patch_36">
    <path clip-path="url(#p2d395a115d)" d="M 198.320246 224.64 
L 201.988886 224.64 
L 201.988886 224.64 
L 198.320246 224.64 
z
" style="fill:#1f77b4;opacity:0.4;"/>
   </g>
   <g id="patch_37">
    <path clip-path="url(#p2d395a115d)" d="M 201.988886 224.64 
L 205.657525 224.64 
L 205.657525 224.36886 
L 201.988886 224.36886 
z
" style="fill:#1f77b4;opacity:0.4;"/>
   </g>
   <g id="patch_38">
    <path clip-path="url(#p2d395a115d)" d="M 205.657525 224.64 
L 209.326165 224.64 
L 209.326165 224.64 
L 205.657525 224.64 
z
" style="fill:#1f77b4;opacity:0.4;"/>
   </g>
   <g id="patch_39">
    <path clip-path="url(#p2d395a115d)" d="M 209.326165 224.64 
L 212.994804 224.64 
L 212.994804 224.64 
L 209.326165 224.64 
z
" style="fill:#1f77b4;opacity:0.4;"/>
   </g>
   <g id="patch_40">
    <path clip-path="url(#p2d395a115d)" d="M 212.994804 224.64 
L 216.663443 224.64 
L 216.663443 224.64 
L 212.994804 224.64 
z
" style="fill:#1f77b4;opacity:0.4;"/>
   </g>
   <g id="patch_41">
    <path clip-path="url(#p2d395a115d)" d="M 216.663443 224.64 
L 220.332083 224.64 
L 220.332083 224.64 
L 216.663443 224.64 
z
" style="fill:#1f77b4;opacity:0.4;"/>
   </g>
   <g id="patch_42">
    <path clip-path="url(#p2d395a115d)" d="M 220.332083 224.64 
L 224.000722 224.64 
L 224.000722 224.64 
L 220.332083 224.64 
z
" style="fill:#1f77b4;opacity:0.4;"/>
   </g>
   <g id="patch_43">
    <path clip-path="url(#p2d395a115d)" d="M 224.000722 224.64 
L 227.669362 224.64 
L 227.669362 224.64 
L 224.000722 224.64 
z
" style="fill:#1f77b4;opacity:0.4;"/>
   </g>
   <g id="patch_44">
    <path clip-path="url(#p2d395a115d)" d="M 227.669362 224.64 
L 231.338001 224.64 
L 231.338001 224.64 
L 227.669362 224.64 
z
" style="fill:#1f77b4;opacity:0.4;"/>
   </g>
   <g id="patch_45">
    <path clip-path="url(#p2d395a115d)" d="M 231.338001 224.64 
L 235.00664 224.64 
L 235.00664 224.64 
L 231.338001 224.64 
z
" style="fill:#1f77b4;opacity:0.4;"/>
   </g>
   <g id="patch_46">
    <path clip-path="url(#p2d395a115d)" d="M 235.00664 224.64 
L 238.67528 224.64 
L 238.67528 224.64 
L 235.00664 224.64 
z
" style="fill:#1f77b4;opacity:0.4;"/>
   </g>
   <g id="patch_47">
    <path clip-path="url(#p2d395a115d)" d="M 238.67528 224.64 
L 242.343919 224.64 
L 242.343919 224.64 
L 238.67528 224.64 
z
" style="fill:#1f77b4;opacity:0.4;"/>
   </g>
   <g id="patch_48">
    <path clip-path="url(#p2d395a115d)" d="M 242.343919 224.64 
L 246.012559 224.64 
L 246.012559 224.64 
L 242.343919 224.64 
z
" style="fill:#1f77b4;opacity:0.4;"/>
   </g>
   <g id="patch_49">
    <path clip-path="url(#p2d395a115d)" d="M 246.012559 224.64 
L 249.681198 224.64 
L 249.681198 224.64 
L 246.012559 224.64 
z
" style="fill:#1f77b4;opacity:0.4;"/>
   </g>
   <g id="patch_50">
    <path clip-path="url(#p2d395a115d)" d="M 249.681198 224.64 
L 253.349837 224.64 
L 253.349837 224.64 
L 249.681198 224.64 
z
" style="fill:#1f77b4;opacity:0.4;"/>
   </g>
   <g id="patch_51">
    <path clip-path="url(#p2d395a115d)" d="M 253.349837 224.64 
L 257.018477 224.64 
L 257.018477 224.64 
L 253.349837 224.64 
z
" style="fill:#1f77b4;opacity:0.4;"/>
   </g>
   <g id="patch_52">
    <path clip-path="url(#p2d395a115d)" d="M 257.018477 224.64 
L 260.687116 224.64 
L 260.687116 224.36886 
L 257.018477 224.36886 
z
" style="fill:#1f77b4;opacity:0.4;"/>
   </g>
   <g id="patch_53">
    <path clip-path="url(#p2d395a115d)" d="M 75.698007 224.64 
L 81.117336 224.64 
L 81.117336 141.308523 
L 75.698007 141.308523 
z
" style="fill:#ff7f0e;opacity:0.4;"/>
   </g>
   <g id="patch_54">
    <path clip-path="url(#p2d395a115d)" d="M 81.117336 224.64 
L 86.536666 224.64 
L 86.536666 164.068662 
L 81.117336 164.068662 
z
" style="fill:#ff7f0e;opacity:0.4;"/>
   </g>
   <g id="patch_55">
    <path clip-path="url(#p2d395a115d)" d="M 86.536666 224.64 
L 91.955996 224.64 
L 91.955996 210.506688 
L 86.536666 210.506688 
z
" style="fill:#ff7f0e;opacity:0.4;"/>
   </g>
   <g id="patch_56">
    <path clip-path="url(#p2d395a115d)" d="M 91.955996 224.64 
L 97.375326 224.64 
L 97.375326 218.399317 
L 91.955996 218.399317 
z
" style="fill:#ff7f0e;opacity:0.4;"/>
   </g>
   <g id="patch_57">
    <path clip-path="url(#p2d395a115d)" d="M 97.375326 224.64 
L 102.794655 224.64 
L 102.794655 222.070307 
L 97.375326 222.070307 
z
" style="fill:#ff7f0e;opacity:0.4;"/>
   </g>
   <g id="patch_58">
    <path clip-path="url(#p2d395a115d)" d="M 102.794655 224.64 
L 108.213985 224.64 
L 108.213985 222.620955 
L 102.794655 222.620955 
z
" style="fill:#ff7f0e;opacity:0.4;"/>
   </g>
   <g id="patch_59">
    <path clip-path="url(#p2d395a115d)" d="M 108.213985 224.64 
L 113.633315 224.64 
L 113.633315 222.988054 
L 108.213985 222.988054 
z
" style="fill:#ff7f0e;opacity:0.4;"/>
   </g>
   <g id="patch_60">
    <path clip-path="url(#p2d395a115d)" d="M 113.633315 224.64 
L 119.052645 224.64 
L 119.052645 222.804505 
L 113.633315 222.804505 
z
" style="fill:#ff7f0e;opacity:0.4;"/>
   </g>
   <g id="patch_61">
    <path clip-path="url(#p2d395a115d)" d="M 119.052645 224.64 
L 124.471974 224.64 
L 124.471974 223.905802 
L 119.052645 223.905802 
z
" style="fill:#ff7f0e;opacity:0.4;"/>
   </g>
   <g id="patch_62">
    <path clip-path="url(#p2d395a115d)" d="M 124.471974 224.64 
L 129.891304 224.64 
L 129.891304 223.171604 
L 124.471974 223.171604 
z
" style="fill:#ff7f0e;opacity:0.4;"/>
   </g>
   <g id="patch_63">
    <path clip-path="url(#p2d395a115d)" d="M 129.891304 224.64 
L 135.310634 224.64 
L 135.310634 223.538703 
L 129.891304 223.538703 
z
" style="fill:#ff7f0e;opacity:0.4;"/>
   </g>
   <g id="patch_64">
    <path clip-path="url(#p2d395a115d)" d="M 135.310634 224.64 
L 140.729963 224.64 
L 140.729963 223.722252 
L 135.310634 223.722252 
z
" style="fill:#ff7f0e;opacity:0.4;"/>
   </g>
   <g id="patch_65">
    <path clip-path="url(#p2d395a115d)" d="M 140.729963 224.64 
L 146.149293 224.64 
L 146.149293 223.355153 
L 140.729963 223.355153 
z
" style="fill:#ff7f0e;opacity:0.4;"/>
   </g>
   <g id="patch_66">
    <path clip-path="url(#p2d395a115d)" d="M 146.149293 224.64 
L 151.568623 224.64 
L 151.568623 223.905802 
L 146.149293 223.905802 
z
" style="fill:#ff7f0e;opacity:0.4;"/>
   </g>
   <g id="patch_67">
    <path clip-path="url(#p2d395a115d)" d="M 151.568623 224.64 
L 156.987953 224.64 
L 156.987953 224.272901 
L 151.568623 224.272901 
z
" style="fill:#ff7f0e;opacity:0.4;"/>
   </g>
   <g id="patch_68">
    <path clip-path="url(#p2d395a115d)" d="M 156.987953 224.64 
L 162.407282 224.64 
L 162.407282 224.089351 
L 156.987953 224.089351 
z
" style="fill:#ff7f0e;opacity:0.4;"/>
   </g>
   <g id="patch_69">
    <path clip-path="url(#p2d395a115d)" d="M 162.407282 224.64 
L 167.826612 224.64 
L 167.826612 223.722252 
L 162.407282 223.722252 
z
" style="fill:#ff7f0e;opacity:0.4;"/>
   </g>
   <g id="patch_70">
    <path clip-path="url(#p2d395a115d)" d="M 167.826612 224.64 
L 173.245942 224.64 
L 173.245942 224.45645 
L 167.826612 224.45645 
z
" style="fill:#ff7f0e;opacity:0.4;"/>
   </g>
   <g id="patch_71">
    <path clip-path="url(#p2d395a115d)" d="M 173.245942 224.64 
L 178.665272 224.64 
L 178.665272 224.089351 
L 173.245942 224.089351 
z
" style="fill:#ff7f0e;opacity:0.4;"/>
   </g>
   <g id="patch_72">
    <path clip-path="url(#p2d395a115d)" d="M 178.665272 224.64 
L 184.084601 224.64 
L 184.084601 224.64 
L 178.665272 224.64 
z
" style="fill:#ff7f0e;opacity:0.4;"/>
   </g>
   <g id="patch_73">
    <path clip-path="url(#p2d395a115d)" d="M 184.084601 224.64 
L 189.503931 224.64 
L 189.503931 224.272901 
L 184.084601 224.272901 
z
" style="fill:#ff7f0e;opacity:0.4;"/>
   </g>
   <g id="patch_74">
    <path clip-path="url(#p2d395a115d)" d="M 189.503931 224.64 
L 194.923261 224.64 
L 194.923261 224.45645 
L 189.503931 224.45645 
z
" style="fill:#ff7f0e;opacity:0.4;"/>
   </g>
   <g id="patch_75">
    <path clip-path="url(#p2d395a115d)" d="M 194.923261 224.64 
L 200.342591 224.64 
L 200.342591 224.45645 
L 194.923261 224.45645 
z
" style="fill:#ff7f0e;opacity:0.4;"/>
   </g>
   <g id="patch_76">
    <path clip-path="url(#p2d395a115d)" d="M 200.342591 224.64 
L 205.76192 224.64 
L 205.76192 224.272901 
L 200.342591 224.272901 
z
" style="fill:#ff7f0e;opacity:0.4;"/>
   </g>
   <g id="patch_77">
    <path clip-path="url(#p2d395a115d)" d="M 205.76192 224.64 
L 211.18125 224.64 
L 211.18125 224.64 
L 205.76192 224.64 
z
" style="fill:#ff7f0e;opacity:0.4;"/>
   </g>
   <g id="patch_78">
    <path clip-path="url(#p2d395a115d)" d="M 211.18125 224.64 
L 216.60058 224.64 
L 216.60058 224.089351 
L 211.18125 224.089351 
z
" style="fill:#ff7f0e;opacity:0.4;"/>
   </g>
   <g id="patch_79">
    <path clip-path="url(#p2d395a115d)" d="M 216.60058 224.64 
L 222.019909 224.64 
L 222.019909 224.64 
L 216.60058 224.64 
z
" style="fill:#ff7f0e;opacity:0.4;"/>
   </g>
   <g id="patch_80">
    <path clip-path="url(#p2d395a115d)" d="M 222.019909 224.64 
L 227.439239 224.64 
L 227.439239 224.64 
L 222.019909 224.64 
z
" style="fill:#ff7f0e;opacity:0.4;"/>
   </g>
   <g id="patch_81">
    <path clip-path="url(#p2d395a115d)" d="M 227.439239 224.64 
L 232.858569 224.64 
L 232.858569 224.64 
L 227.439239 224.64 
z
" style="fill:#ff7f0e;opacity:0.4;"/>
   </g>
   <g id="patch_82">
    <path clip-path="url(#p2d395a115d)" d="M 232.858569 224.64 
L 238.277899 224.64 
L 238.277899 224.272901 
L 232.858569 224.272901 
z
" style="fill:#ff7f0e;opacity:0.4;"/>
   </g>
   <g id="patch_83">
    <path clip-path="url(#p2d395a115d)" d="M 238.277899 224.64 
L 243.697228 224.64 
L 243.697228 224.64 
L 238.277899 224.64 
z
" style="fill:#ff7f0e;opacity:0.4;"/>
   </g>
   <g id="patch_84">
    <path clip-path="url(#p2d395a115d)" d="M 243.697228 224.64 
L 249.116558 224.64 
L 249.116558 224.64 
L 243.697228 224.64 
z
" style="fill:#ff7f0e;opacity:0.4;"/>
   </g>
   <g id="patch_85">
    <path clip-path="url(#p2d395a115d)" d="M 249.116558 224.64 
L 254.535888 224.64 
L 254.535888 224.45645 
L 249.116558 224.45645 
z
" style="fill:#ff7f0e;opacity:0.4;"/>
   </g>
   <g id="patch_86">
    <path clip-path="url(#p2d395a115d)" d="M 254.535888 224.64 
L 259.955218 224.64 
L 259.955218 224.64 
L 254.535888 224.64 
z
" style="fill:#ff7f0e;opacity:0.4;"/>
   </g>
   <g id="patch_87">
    <path clip-path="url(#p2d395a115d)" d="M 259.955218 224.64 
L 265.374547 224.64 
L 265.374547 224.64 
L 259.955218 224.64 
z
" style="fill:#ff7f0e;opacity:0.4;"/>
   </g>
   <g id="patch_88">
    <path clip-path="url(#p2d395a115d)" d="M 265.374547 224.64 
L 270.793877 224.64 
L 270.793877 224.64 
L 265.374547 224.64 
z
" style="fill:#ff7f0e;opacity:0.4;"/>
   </g>
   <g id="patch_89">
    <path clip-path="url(#p2d395a115d)" d="M 270.793877 224.64 
L 276.213207 224.64 
L 276.213207 224.64 
L 270.793877 224.64 
z
" style="fill:#ff7f0e;opacity:0.4;"/>
   </g>
   <g id="patch_90">
    <path clip-path="url(#p2d395a115d)" d="M 276.213207 224.64 
L 281.632537 224.64 
L 281.632537 224.64 
L 276.213207 224.64 
z
" style="fill:#ff7f0e;opacity:0.4;"/>
   </g>
   <g id="patch_91">
    <path clip-path="url(#p2d395a115d)" d="M 281.632537 224.64 
L 287.051866 224.64 
L 287.051866 224.64 
L 281.632537 224.64 
z
" style="fill:#ff7f0e;opacity:0.4;"/>
   </g>
   <g id="patch_92">
    <path clip-path="url(#p2d395a115d)" d="M 287.051866 224.64 
L 292.471196 224.64 
L 292.471196 224.64 
L 287.051866 224.64 
z
" style="fill:#ff7f0e;opacity:0.4;"/>
   </g>
   <g id="patch_93">
    <path clip-path="url(#p2d395a115d)" d="M 292.471196 224.64 
L 297.890526 224.64 
L 297.890526 224.64 
L 292.471196 224.64 
z
" style="fill:#ff7f0e;opacity:0.4;"/>
   </g>
   <g id="patch_94">
    <path clip-path="url(#p2d395a115d)" d="M 297.890526 224.64 
L 303.309855 224.64 
L 303.309855 224.64 
L 297.890526 224.64 
z
" style="fill:#ff7f0e;opacity:0.4;"/>
   </g>
   <g id="patch_95">
    <path clip-path="url(#p2d395a115d)" d="M 303.309855 224.64 
L 308.729185 224.64 
L 308.729185 224.64 
L 303.309855 224.64 
z
" style="fill:#ff7f0e;opacity:0.4;"/>
   </g>
   <g id="patch_96">
    <path clip-path="url(#p2d395a115d)" d="M 308.729185 224.64 
L 314.148515 224.64 
L 314.148515 224.64 
L 308.729185 224.64 
z
" style="fill:#ff7f0e;opacity:0.4;"/>
   </g>
   <g id="patch_97">
    <path clip-path="url(#p2d395a115d)" d="M 314.148515 224.64 
L 319.567845 224.64 
L 319.567845 224.64 
L 314.148515 224.64 
z
" style="fill:#ff7f0e;opacity:0.4;"/>
   </g>
   <g id="patch_98">
    <path clip-path="url(#p2d395a115d)" d="M 319.567845 224.64 
L 324.987174 224.64 
L 324.987174 224.64 
L 319.567845 224.64 
z
" style="fill:#ff7f0e;opacity:0.4;"/>
   </g>
   <g id="patch_99">
    <path clip-path="url(#p2d395a115d)" d="M 324.987174 224.64 
L 330.406504 224.64 
L 330.406504 224.64 
L 324.987174 224.64 
z
" style="fill:#ff7f0e;opacity:0.4;"/>
   </g>
   <g id="patch_100">
    <path clip-path="url(#p2d395a115d)" d="M 330.406504 224.64 
L 335.825834 224.64 
L 335.825834 224.64 
L 330.406504 224.64 
z
" style="fill:#ff7f0e;opacity:0.4;"/>
   </g>
   <g id="patch_101">
    <path clip-path="url(#p2d395a115d)" d="M 335.825834 224.64 
L 341.245164 224.64 
L 341.245164 224.64 
L 335.825834 224.64 
z
" style="fill:#ff7f0e;opacity:0.4;"/>
   </g>
   <g id="patch_102">
    <path clip-path="url(#p2d395a115d)" d="M 341.245164 224.64 
L 346.664493 224.64 
L 346.664493 224.45645 
L 341.245164 224.45645 
z
" style="fill:#ff7f0e;opacity:0.4;"/>
   </g>
   <g id="patch_103">
    <path clip-path="url(#p2d395a115d)" d="M 75.698007 224.64 
L 78.556029 224.64 
L 78.556029 17.554286 
L 75.698007 17.554286 
z
" style="fill:#2ca02c;opacity:0.4;"/>
   </g>
   <g id="patch_104">
    <path clip-path="url(#p2d395a115d)" d="M 78.556029 224.64 
L 81.414051 224.64 
L 81.414051 182.874814 
L 78.556029 182.874814 
z
" style="fill:#2ca02c;opacity:0.4;"/>
   </g>
   <g id="patch_105">
    <path clip-path="url(#p2d395a115d)" d="M 81.414051 224.64 
L 84.272074 224.64 
L 84.272074 196.448499 
L 81.414051 196.448499 
z
" style="fill:#2ca02c;opacity:0.4;"/>
   </g>
   <g id="patch_106">
    <path clip-path="url(#p2d395a115d)" d="M 84.272074 224.64 
L 87.130096 224.64 
L 87.130096 214.198703 
L 84.272074 214.198703 
z
" style="fill:#2ca02c;opacity:0.4;"/>
   </g>
   <g id="patch_107">
    <path clip-path="url(#p2d395a115d)" d="M 87.130096 224.64 
L 89.988119 224.64 
L 89.988119 215.242833 
L 87.130096 215.242833 
z
" style="fill:#2ca02c;opacity:0.4;"/>
   </g>
   <g id="patch_108">
    <path clip-path="url(#p2d395a115d)" d="M 89.988119 224.64 
L 92.846141 224.64 
L 92.846141 214.89479 
L 89.988119 214.89479 
z
" style="fill:#2ca02c;opacity:0.4;"/>
   </g>
   <g id="patch_109">
    <path clip-path="url(#p2d395a115d)" d="M 92.846141 224.64 
L 95.704163 224.64 
L 95.704163 219.767395 
L 92.846141 219.767395 
z
" style="fill:#2ca02c;opacity:0.4;"/>
   </g>
   <g id="patch_110">
    <path clip-path="url(#p2d395a115d)" d="M 95.704163 224.64 
L 98.562186 224.64 
L 98.562186 220.115438 
L 95.704163 220.115438 
z
" style="fill:#2ca02c;opacity:0.4;"/>
   </g>
   <g id="patch_111">
    <path clip-path="url(#p2d395a115d)" d="M 98.562186 224.64 
L 101.420208 224.64 
L 101.420208 221.159568 
L 98.562186 221.159568 
z
" style="fill:#2ca02c;opacity:0.4;"/>
   </g>
   <g id="patch_112">
    <path clip-path="url(#p2d395a115d)" d="M 101.420208 224.64 
L 104.278231 224.64 
L 104.278231 220.115438 
L 101.420208 220.115438 
z
" style="fill:#2ca02c;opacity:0.4;"/>
   </g>
   <g id="patch_113">
    <path clip-path="url(#p2d395a115d)" d="M 104.278231 224.64 
L 107.136253 224.64 
L 107.136253 221.855654 
L 104.278231 221.855654 
z
" style="fill:#2ca02c;opacity:0.4;"/>
   </g>
   <g id="patch_114">
    <path clip-path="url(#p2d395a115d)" d="M 107.136253 224.64 
L 109.994275 224.64 
L 109.994275 221.855654 
L 107.136253 221.855654 
z
" style="fill:#2ca02c;opacity:0.4;"/>
   </g>
   <g id="patch_115">
    <path clip-path="url(#p2d395a115d)" d="M 109.994275 224.64 
L 112.852298 224.64 
L 112.852298 222.203697 
L 109.994275 222.203697 
z
" style="fill:#2ca02c;opacity:0.4;"/>
   </g>
   <g id="patch_116">
    <path clip-path="url(#p2d395a115d)" d="M 112.852298 224.64 
L 115.71032 224.64 
L 115.71032 222.551741 
L 112.852298 222.551741 
z
" style="fill:#2ca02c;opacity:0.4;"/>
   </g>
   <g id="patch_117">
    <path clip-path="url(#p2d395a115d)" d="M 115.71032 224.64 
L 118.568343 224.64 
L 118.568343 223.59587 
L 115.71032 223.59587 
z
" style="fill:#2ca02c;opacity:0.4;"/>
   </g>
   <g id="patch_118">
    <path clip-path="url(#p2d395a115d)" d="M 118.568343 224.64 
L 121.426365 224.64 
L 121.426365 222.899784 
L 118.568343 222.899784 
z
" style="fill:#2ca02c;opacity:0.4;"/>
   </g>
   <g id="patch_119">
    <path clip-path="url(#p2d395a115d)" d="M 121.426365 224.64 
L 124.284387 224.64 
L 124.284387 223.943914 
L 121.426365 223.943914 
z
" style="fill:#2ca02c;opacity:0.4;"/>
   </g>
   <g id="patch_120">
    <path clip-path="url(#p2d395a115d)" d="M 124.284387 224.64 
L 127.14241 224.64 
L 127.14241 223.59587 
L 124.284387 223.59587 
z
" style="fill:#2ca02c;opacity:0.4;"/>
   </g>
   <g id="patch_121">
    <path clip-path="url(#p2d395a115d)" d="M 127.14241 224.64 
L 130.000432 224.64 
L 130.000432 223.943914 
L 127.14241 223.943914 
z
" style="fill:#2ca02c;opacity:0.4;"/>
   </g>
   <g id="patch_122">
    <path clip-path="url(#p2d395a115d)" d="M 130.000432 224.64 
L 132.858455 224.64 
L 132.858455 223.59587 
L 130.000432 223.59587 
z
" style="fill:#2ca02c;opacity:0.4;"/>
   </g>
   <g id="patch_123">
    <path clip-path="url(#p2d395a115d)" d="M 132.858455 224.64 
L 135.716477 224.64 
L 135.716477 224.64 
L 132.858455 224.64 
z
" style="fill:#2ca02c;opacity:0.4;"/>
   </g>
   <g id="patch_124">
    <path clip-path="url(#p2d395a115d)" d="M 135.716477 224.64 
L 138.574499 224.64 
L 138.574499 223.247827 
L 135.716477 223.247827 
z
" style="fill:#2ca02c;opacity:0.4;"/>
   </g>
   <g id="patch_125">
    <path clip-path="url(#p2d395a115d)" d="M 138.574499 224.64 
L 141.432522 224.64 
L 141.432522 223.247827 
L 138.574499 223.247827 
z
" style="fill:#2ca02c;opacity:0.4;"/>
   </g>
   <g id="patch_126">
    <path clip-path="url(#p2d395a115d)" d="M 141.432522 224.64 
L 144.290544 224.64 
L 144.290544 223.59587 
L 141.432522 223.59587 
z
" style="fill:#2ca02c;opacity:0.4;"/>
   </g>
   <g id="patch_127">
    <path clip-path="url(#p2d395a115d)" d="M 144.290544 224.64 
L 147.148567 224.64 
L 147.148567 224.291957 
L 144.290544 224.291957 
z
" style="fill:#2ca02c;opacity:0.4;"/>
   </g>
   <g id="patch_128">
    <path clip-path="url(#p2d395a115d)" d="M 147.148567 224.64 
L 150.006589 224.64 
L 150.006589 224.291957 
L 147.148567 224.291957 
z
" style="fill:#2ca02c;opacity:0.4;"/>
   </g>
   <g id="patch_129">
    <path clip-path="url(#p2d395a115d)" d="M 150.006589 224.64 
L 152.864611 224.64 
L 152.864611 223.59587 
L 150.006589 223.59587 
z
" style="fill:#2ca02c;opacity:0.4;"/>
   </g>
   <g id="patch_130">
    <path clip-path="url(#p2d395a115d)" d="M 152.864611 224.64 
L 155.722634 224.64 
L 155.722634 224.291957 
L 152.864611 224.291957 
z
" style="fill:#2ca02c;opacity:0.4;"/>
   </g>
   <g id="patch_131">
    <path clip-path="url(#p2d395a115d)" d="M 155.722634 224.64 
L 158.580656 224.64 
L 158.580656 223.943914 
L 155.722634 223.943914 
z
" style="fill:#2ca02c;opacity:0.4;"/>
   </g>
   <g id="patch_132">
    <path clip-path="url(#p2d395a115d)" d="M 158.580656 224.64 
L 161.438679 224.64 
L 161.438679 223.943914 
L 158.580656 223.943914 
z
" style="fill:#2ca02c;opacity:0.4;"/>
   </g>
   <g id="patch_133">
    <path clip-path="url(#p2d395a115d)" d="M 161.438679 224.64 
L 164.296701 224.64 
L 164.296701 224.64 
L 161.438679 224.64 
z
" style="fill:#2ca02c;opacity:0.4;"/>
   </g>
   <g id="patch_134">
    <path clip-path="url(#p2d395a115d)" d="M 164.296701 224.64 
L 167.154723 224.64 
L 167.154723 224.64 
L 164.296701 224.64 
z
" style="fill:#2ca02c;opacity:0.4;"/>
   </g>
   <g id="patch_135">
    <path clip-path="url(#p2d395a115d)" d="M 167.154723 224.64 
L 170.012746 224.64 
L 170.012746 224.64 
L 167.154723 224.64 
z
" style="fill:#2ca02c;opacity:0.4;"/>
   </g>
   <g id="patch_136">
    <path clip-path="url(#p2d395a115d)" d="M 170.012746 224.64 
L 172.870768 224.64 
L 172.870768 224.64 
L 170.012746 224.64 
z
" style="fill:#2ca02c;opacity:0.4;"/>
   </g>
   <g id="patch_137">
    <path clip-path="url(#p2d395a115d)" d="M 172.870768 224.64 
L 175.728791 224.64 
L 175.728791 224.64 
L 172.870768 224.64 
z
" style="fill:#2ca02c;opacity:0.4;"/>
   </g>
   <g id="patch_138">
    <path clip-path="url(#p2d395a115d)" d="M 175.728791 224.64 
L 178.586813 224.64 
L 178.586813 224.64 
L 175.728791 224.64 
z
" style="fill:#2ca02c;opacity:0.4;"/>
   </g>
   <g id="patch_139">
    <path clip-path="url(#p2d395a115d)" d="M 178.586813 224.64 
L 181.444835 224.64 
L 181.444835 224.64 
L 178.586813 224.64 
z
" style="fill:#2ca02c;opacity:0.4;"/>
   </g>
   <g id="patch_140">
    <path clip-path="url(#p2d395a115d)" d="M 181.444835 224.64 
L 184.302858 224.64 
L 184.302858 224.64 
L 181.444835 224.64 
z
" style="fill:#2ca02c;opacity:0.4;"/>
   </g>
   <g id="patch_141">
    <path clip-path="url(#p2d395a115d)" d="M 184.302858 224.64 
L 187.16088 224.64 
L 187.16088 224.64 
L 184.302858 224.64 
z
" style="fill:#2ca02c;opacity:0.4;"/>
   </g>
   <g id="patch_142">
    <path clip-path="url(#p2d395a115d)" d="M 187.16088 224.64 
L 190.018903 224.64 
L 190.018903 224.64 
L 187.16088 224.64 
z
" style="fill:#2ca02c;opacity:0.4;"/>
   </g>
   <g id="patch_143">
    <path clip-path="url(#p2d395a115d)" d="M 190.018903 224.64 
L 192.876925 224.64 
L 192.876925 224.64 
L 190.018903 224.64 
z
" style="fill:#2ca02c;opacity:0.4;"/>
   </g>
   <g id="patch_144">
    <path clip-path="url(#p2d395a115d)" d="M 192.876925 224.64 
L 195.734947 224.64 
L 195.734947 224.64 
L 192.876925 224.64 
z
" style="fill:#2ca02c;opacity:0.4;"/>
   </g>
   <g id="patch_145">
    <path clip-path="url(#p2d395a115d)" d="M 195.734947 224.64 
L 198.59297 224.64 
L 198.59297 224.64 
L 195.734947 224.64 
z
" style="fill:#2ca02c;opacity:0.4;"/>
   </g>
   <g id="patch_146">
    <path clip-path="url(#p2d395a115d)" d="M 198.59297 224.64 
L 201.450992 224.64 
L 201.450992 224.64 
L 198.59297 224.64 
z
" style="fill:#2ca02c;opacity:0.4;"/>
   </g>
   <g id="patch_147">
    <path clip-path="url(#p2d395a115d)" d="M 201.450992 224.64 
L 204.309015 224.64 
L 204.309015 224.64 
L 201.450992 224.64 
z
" style="fill:#2ca02c;opacity:0.4;"/>
   </g>
   <g id="patch_148">
    <path clip-path="url(#p2d395a115d)" d="M 204.309015 224.64 
L 207.167037 224.64 
L 207.167037 224.64 
L 204.309015 224.64 
z
" style="fill:#2ca02c;opacity:0.4;"/>
   </g>
   <g id="patch_149">
    <path clip-path="url(#p2d395a115d)" d="M 207.167037 224.64 
L 210.025059 224.64 
L 210.025059 224.64 
L 207.167037 224.64 
z
" style="fill:#2ca02c;opacity:0.4;"/>
   </g>
   <g id="patch_150">
    <path clip-path="url(#p2d395a115d)" d="M 210.025059 224.64 
L 212.883082 224.64 
L 212.883082 224.64 
L 210.025059 224.64 
z
" style="fill:#2ca02c;opacity:0.4;"/>
   </g>
   <g id="patch_151">
    <path clip-path="url(#p2d395a115d)" d="M 212.883082 224.64 
L 215.741104 224.64 
L 215.741104 224.64 
L 212.883082 224.64 
z
" style="fill:#2ca02c;opacity:0.4;"/>
   </g>
   <g id="patch_152">
    <path clip-path="url(#p2d395a115d)" d="M 215.741104 224.64 
L 218.599127 224.64 
L 218.599127 224.291957 
L 215.741104 224.291957 
z
" style="fill:#2ca02c;opacity:0.4;"/>
   </g>
   <g id="matplotlib.axis_1">
    <g id="xtick_1">
     <g id="line2d_1">
      <defs>
       <path d="M 0 0 
L 0 3.5 
" id="m43f60b0cbd" style="stroke:#000000;stroke-width:0.8;"/>
      </defs>
      <g>
       <use style="stroke:#000000;stroke-width:0.8;" x="75.698007" xlink:href="#m43f60b0cbd" y="224.64"/>
      </g>
     </g>
     <g id="text_1">
      <!-- 0 -->
      <g transform="translate(72.516757 239.238438)scale(0.1 -0.1)">
       <defs>
        <path d="M 31.78125 66.40625 
Q 24.171875 66.40625 20.328125 58.90625 
Q 16.5 51.421875 16.5 36.375 
Q 16.5 21.390625 20.328125 13.890625 
Q 24.171875 6.390625 31.78125 6.390625 
Q 39.453125 6.390625 43.28125 13.890625 
Q 47.125 21.390625 47.125 36.375 
Q 47.125 51.421875 43.28125 58.90625 
Q 39.453125 66.40625 31.78125 66.40625 
z
M 31.78125 74.21875 
Q 44.046875 74.21875 50.515625 64.515625 
Q 56.984375 54.828125 56.984375 36.375 
Q 56.984375 17.96875 50.515625 8.265625 
Q 44.046875 -1.421875 31.78125 -1.421875 
Q 19.53125 -1.421875 13.0625 8.265625 
Q 6.59375 17.96875 6.59375 36.375 
Q 6.59375 54.828125 13.0625 64.515625 
Q 19.53125 74.21875 31.78125 74.21875 
z
" id="DejaVuSans-48"/>
       </defs>
       <use xlink:href="#DejaVuSans-48"/>
      </g>
     </g>
    </g>
    <g id="xtick_2">
     <g id="line2d_2">
      <g>
       <use style="stroke:#000000;stroke-width:0.8;" x="128.307994" xlink:href="#m43f60b0cbd" y="224.64"/>
      </g>
     </g>
     <g id="text_2">
      <!-- 5 -->
      <g transform="translate(125.126744 239.238438)scale(0.1 -0.1)">
       <defs>
        <path d="M 10.796875 72.90625 
L 49.515625 72.90625 
L 49.515625 64.59375 
L 19.828125 64.59375 
L 19.828125 46.734375 
Q 21.96875 47.46875 24.109375 47.828125 
Q 26.265625 48.1875 28.421875 48.1875 
Q 40.625 48.1875 47.75 41.5 
Q 54.890625 34.8125 54.890625 23.390625 
Q 54.890625 11.625 47.5625 5.09375 
Q 40.234375 -1.421875 26.90625 -1.421875 
Q 22.3125 -1.421875 17.546875 -0.640625 
Q 12.796875 0.140625 7.71875 1.703125 
L 7.71875 11.625 
Q 12.109375 9.234375 16.796875 8.0625 
Q 21.484375 6.890625 26.703125 6.890625 
Q 35.15625 6.890625 40.078125 11.328125 
Q 45.015625 15.765625 45.015625 23.390625 
Q 45.015625 31 40.078125 35.4375 
Q 35.15625 39.890625 26.703125 39.890625 
Q 22.75 39.890625 18.8125 39.015625 
Q 14.890625 38.140625 10.796875 36.28125 
z
" id="DejaVuSans-53"/>
       </defs>
       <use xlink:href="#DejaVuSans-53"/>
      </g>
     </g>
    </g>
    <g id="xtick_3">
     <g id="line2d_3">
      <g>
       <use style="stroke:#000000;stroke-width:0.8;" x="180.917981" xlink:href="#m43f60b0cbd" y="224.64"/>
      </g>
     </g>
     <g id="text_3">
      <!-- 10 -->
      <g transform="translate(174.555481 239.238438)scale(0.1 -0.1)">
       <defs>
        <path d="M 12.40625 8.296875 
L 28.515625 8.296875 
L 28.515625 63.921875 
L 10.984375 60.40625 
L 10.984375 69.390625 
L 28.421875 72.90625 
L 38.28125 72.90625 
L 38.28125 8.296875 
L 54.390625 8.296875 
L 54.390625 0 
L 12.40625 0 
z
" id="DejaVuSans-49"/>
       </defs>
       <use xlink:href="#DejaVuSans-49"/>
       <use x="63.623047" xlink:href="#DejaVuSans-48"/>
      </g>
     </g>
    </g>
    <g id="xtick_4">
     <g id="line2d_4">
      <g>
       <use style="stroke:#000000;stroke-width:0.8;" x="233.527968" xlink:href="#m43f60b0cbd" y="224.64"/>
      </g>
     </g>
     <g id="text_4">
      <!-- 15 -->
      <g transform="translate(227.165468 239.238438)scale(0.1 -0.1)">
       <use xlink:href="#DejaVuSans-49"/>
       <use x="63.623047" xlink:href="#DejaVuSans-53"/>
      </g>
     </g>
    </g>
    <g id="xtick_5">
     <g id="line2d_5">
      <g>
       <use style="stroke:#000000;stroke-width:0.8;" x="286.137955" xlink:href="#m43f60b0cbd" y="224.64"/>
      </g>
     </g>
     <g id="text_5">
      <!-- 20 -->
      <g transform="translate(279.775455 239.238438)scale(0.1 -0.1)">
       <defs>
        <path d="M 19.1875 8.296875 
L 53.609375 8.296875 
L 53.609375 0 
L 7.328125 0 
L 7.328125 8.296875 
Q 12.9375 14.109375 22.625 23.890625 
Q 32.328125 33.6875 34.8125 36.53125 
Q 39.546875 41.84375 41.421875 45.53125 
Q 43.3125 49.21875 43.3125 52.78125 
Q 43.3125 58.59375 39.234375 62.25 
Q 35.15625 65.921875 28.609375 65.921875 
Q 23.96875 65.921875 18.8125 64.3125 
Q 13.671875 62.703125 7.8125 59.421875 
L 7.8125 69.390625 
Q 13.765625 71.78125 18.9375 73 
Q 24.125 74.21875 28.421875 74.21875 
Q 39.75 74.21875 46.484375 68.546875 
Q 53.21875 62.890625 53.21875 53.421875 
Q 53.21875 48.921875 51.53125 44.890625 
Q 49.859375 40.875 45.40625 35.40625 
Q 44.1875 33.984375 37.640625 27.21875 
Q 31.109375 20.453125 19.1875 8.296875 
z
" id="DejaVuSans-50"/>
       </defs>
       <use xlink:href="#DejaVuSans-50"/>
       <use x="63.623047" xlink:href="#DejaVuSans-48"/>
      </g>
     </g>
    </g>
    <g id="xtick_6">
     <g id="line2d_6">
      <g>
       <use style="stroke:#000000;stroke-width:0.8;" x="338.747942" xlink:href="#m43f60b0cbd" y="224.64"/>
      </g>
     </g>
     <g id="text_6">
      <!-- 25 -->
      <g transform="translate(332.385442 239.238438)scale(0.1 -0.1)">
       <use xlink:href="#DejaVuSans-50"/>
       <use x="63.623047" xlink:href="#DejaVuSans-53"/>
      </g>
     </g>
    </g>
    <g id="text_7">
     <!-- f(t) -->
     <g transform="translate(203.559375 252.916563)scale(0.1 -0.1)">
      <defs>
       <path d="M 37.109375 75.984375 
L 37.109375 68.5 
L 28.515625 68.5 
Q 23.6875 68.5 21.796875 66.546875 
Q 19.921875 64.59375 19.921875 59.515625 
L 19.921875 54.6875 
L 34.71875 54.6875 
L 34.71875 47.703125 
L 19.921875 47.703125 
L 19.921875 0 
L 10.890625 0 
L 10.890625 47.703125 
L 2.296875 47.703125 
L 2.296875 54.6875 
L 10.890625 54.6875 
L 10.890625 58.5 
Q 10.890625 67.625 15.140625 71.796875 
Q 19.390625 75.984375 28.609375 75.984375 
z
" id="DejaVuSans-102"/>
       <path d="M 31 75.875 
Q 24.46875 64.65625 21.28125 53.65625 
Q 18.109375 42.671875 18.109375 31.390625 
Q 18.109375 20.125 21.3125 9.0625 
Q 24.515625 -2 31 -13.1875 
L 23.1875 -13.1875 
Q 15.875 -1.703125 12.234375 9.375 
Q 8.59375 20.453125 8.59375 31.390625 
Q 8.59375 42.28125 12.203125 53.3125 
Q 15.828125 64.359375 23.1875 75.875 
z
" id="DejaVuSans-40"/>
       <path d="M 18.3125 70.21875 
L 18.3125 54.6875 
L 36.8125 54.6875 
L 36.8125 47.703125 
L 18.3125 47.703125 
L 18.3125 18.015625 
Q 18.3125 11.328125 20.140625 9.421875 
Q 21.96875 7.515625 27.59375 7.515625 
L 36.8125 7.515625 
L 36.8125 0 
L 27.59375 0 
Q 17.1875 0 13.234375 3.875 
Q 9.28125 7.765625 9.28125 18.015625 
L 9.28125 47.703125 
L 2.6875 47.703125 
L 2.6875 54.6875 
L 9.28125 54.6875 
L 9.28125 70.21875 
z
" id="DejaVuSans-116"/>
       <path d="M 8.015625 75.875 
L 15.828125 75.875 
Q 23.140625 64.359375 26.78125 53.3125 
Q 30.421875 42.28125 30.421875 31.390625 
Q 30.421875 20.453125 26.78125 9.375 
Q 23.140625 -1.703125 15.828125 -13.1875 
L 8.015625 -13.1875 
Q 14.5 -2 17.703125 9.0625 
Q 20.90625 20.125 20.90625 31.390625 
Q 20.90625 42.671875 17.703125 53.65625 
Q 14.5 64.65625 8.015625 75.875 
z
" id="DejaVuSans-41"/>
      </defs>
      <use xlink:href="#DejaVuSans-102"/>
      <use x="35.205078" xlink:href="#DejaVuSans-40"/>
      <use x="74.21875" xlink:href="#DejaVuSans-116"/>
      <use x="113.427734" xlink:href="#DejaVuSans-41"/>
     </g>
    </g>
   </g>
   <g id="matplotlib.axis_2">
    <g id="ytick_1">
     <g id="line2d_7">
      <defs>
       <path d="M 0 0 
L -3.5 0 
" id="mf647fa3549" style="stroke:#000000;stroke-width:0.8;"/>
      </defs>
      <g>
       <use style="stroke:#000000;stroke-width:0.8;" x="43.78125" xlink:href="#mf647fa3549" y="224.64"/>
      </g>
     </g>
     <g id="text_8">
      <!-- 0.0 -->
      <g transform="translate(20.878125 228.439219)scale(0.1 -0.1)">
       <defs>
        <path d="M 10.6875 12.40625 
L 21 12.40625 
L 21 0 
L 10.6875 0 
z
" id="DejaVuSans-46"/>
       </defs>
       <use xlink:href="#DejaVuSans-48"/>
       <use x="63.623047" xlink:href="#DejaVuSans-46"/>
       <use x="95.410156" xlink:href="#DejaVuSans-48"/>
      </g>
     </g>
    </g>
    <g id="ytick_2">
     <g id="line2d_8">
      <g>
       <use style="stroke:#000000;stroke-width:0.8;" x="43.78125" xlink:href="#mf647fa3549" y="177.371631"/>
      </g>
     </g>
     <g id="text_9">
      <!-- 0.5 -->
      <g transform="translate(20.878125 181.17085)scale(0.1 -0.1)">
       <use xlink:href="#DejaVuSans-48"/>
       <use x="63.623047" xlink:href="#DejaVuSans-46"/>
       <use x="95.410156" xlink:href="#DejaVuSans-53"/>
      </g>
     </g>
    </g>
    <g id="ytick_3">
     <g id="line2d_9">
      <g>
       <use style="stroke:#000000;stroke-width:0.8;" x="43.78125" xlink:href="#mf647fa3549" y="130.103262"/>
      </g>
     </g>
     <g id="text_10">
      <!-- 1.0 -->
      <g transform="translate(20.878125 133.902481)scale(0.1 -0.1)">
       <use xlink:href="#DejaVuSans-49"/>
       <use x="63.623047" xlink:href="#DejaVuSans-46"/>
       <use x="95.410156" xlink:href="#DejaVuSans-48"/>
      </g>
     </g>
    </g>
    <g id="ytick_4">
     <g id="line2d_10">
      <g>
       <use style="stroke:#000000;stroke-width:0.8;" x="43.78125" xlink:href="#mf647fa3549" y="82.834893"/>
      </g>
     </g>
     <g id="text_11">
      <!-- 1.5 -->
      <g transform="translate(20.878125 86.634112)scale(0.1 -0.1)">
       <use xlink:href="#DejaVuSans-49"/>
       <use x="63.623047" xlink:href="#DejaVuSans-46"/>
       <use x="95.410156" xlink:href="#DejaVuSans-53"/>
      </g>
     </g>
    </g>
    <g id="ytick_5">
     <g id="line2d_11">
      <g>
       <use style="stroke:#000000;stroke-width:0.8;" x="43.78125" xlink:href="#mf647fa3549" y="35.566524"/>
      </g>
     </g>
     <g id="text_12">
      <!-- 2.0 -->
      <g transform="translate(20.878125 39.365743)scale(0.1 -0.1)">
       <use xlink:href="#DejaVuSans-50"/>
       <use x="63.623047" xlink:href="#DejaVuSans-46"/>
       <use x="95.410156" xlink:href="#DejaVuSans-48"/>
      </g>
     </g>
    </g>
    <g id="text_13">
     <!-- Density -->
     <g transform="translate(14.798438 134.928594)rotate(-90)scale(0.1 -0.1)">
      <defs>
       <path d="M 19.671875 64.796875 
L 19.671875 8.109375 
L 31.59375 8.109375 
Q 46.6875 8.109375 53.6875 14.9375 
Q 60.6875 21.78125 60.6875 36.53125 
Q 60.6875 51.171875 53.6875 57.984375 
Q 46.6875 64.796875 31.59375 64.796875 
z
M 9.8125 72.90625 
L 30.078125 72.90625 
Q 51.265625 72.90625 61.171875 64.09375 
Q 71.09375 55.28125 71.09375 36.53125 
Q 71.09375 17.671875 61.125 8.828125 
Q 51.171875 0 30.078125 0 
L 9.8125 0 
z
" id="DejaVuSans-68"/>
       <path d="M 56.203125 29.59375 
L 56.203125 25.203125 
L 14.890625 25.203125 
Q 15.484375 15.921875 20.484375 11.0625 
Q 25.484375 6.203125 34.421875 6.203125 
Q 39.59375 6.203125 44.453125 7.46875 
Q 49.3125 8.734375 54.109375 11.28125 
L 54.109375 2.78125 
Q 49.265625 0.734375 44.1875 -0.34375 
Q 39.109375 -1.421875 33.890625 -1.421875 
Q 20.796875 -1.421875 13.15625 6.1875 
Q 5.515625 13.8125 5.515625 26.8125 
Q 5.515625 40.234375 12.765625 48.109375 
Q 20.015625 56 32.328125 56 
Q 43.359375 56 49.78125 48.890625 
Q 56.203125 41.796875 56.203125 29.59375 
z
M 47.21875 32.234375 
Q 47.125 39.59375 43.09375 43.984375 
Q 39.0625 48.390625 32.421875 48.390625 
Q 24.90625 48.390625 20.390625 44.140625 
Q 15.875 39.890625 15.1875 32.171875 
z
" id="DejaVuSans-101"/>
       <path d="M 54.890625 33.015625 
L 54.890625 0 
L 45.90625 0 
L 45.90625 32.71875 
Q 45.90625 40.484375 42.875 44.328125 
Q 39.84375 48.1875 33.796875 48.1875 
Q 26.515625 48.1875 22.3125 43.546875 
Q 18.109375 38.921875 18.109375 30.90625 
L 18.109375 0 
L 9.078125 0 
L 9.078125 54.6875 
L 18.109375 54.6875 
L 18.109375 46.1875 
Q 21.34375 51.125 25.703125 53.5625 
Q 30.078125 56 35.796875 56 
Q 45.21875 56 50.046875 50.171875 
Q 54.890625 44.34375 54.890625 33.015625 
z
" id="DejaVuSans-110"/>
       <path d="M 44.28125 53.078125 
L 44.28125 44.578125 
Q 40.484375 46.53125 36.375 47.5 
Q 32.28125 48.484375 27.875 48.484375 
Q 21.1875 48.484375 17.84375 46.4375 
Q 14.5 44.390625 14.5 40.28125 
Q 14.5 37.15625 16.890625 35.375 
Q 19.28125 33.59375 26.515625 31.984375 
L 29.59375 31.296875 
Q 39.15625 29.25 43.1875 25.515625 
Q 47.21875 21.78125 47.21875 15.09375 
Q 47.21875 7.46875 41.1875 3.015625 
Q 35.15625 -1.421875 24.609375 -1.421875 
Q 20.21875 -1.421875 15.453125 -0.5625 
Q 10.6875 0.296875 5.421875 2 
L 5.421875 11.28125 
Q 10.40625 8.6875 15.234375 7.390625 
Q 20.0625 6.109375 24.8125 6.109375 
Q 31.15625 6.109375 34.5625 8.28125 
Q 37.984375 10.453125 37.984375 14.40625 
Q 37.984375 18.0625 35.515625 20.015625 
Q 33.0625 21.96875 24.703125 23.78125 
L 21.578125 24.515625 
Q 13.234375 26.265625 9.515625 29.90625 
Q 5.8125 33.546875 5.8125 39.890625 
Q 5.8125 47.609375 11.28125 51.796875 
Q 16.75 56 26.8125 56 
Q 31.78125 56 36.171875 55.265625 
Q 40.578125 54.546875 44.28125 53.078125 
z
" id="DejaVuSans-115"/>
       <path d="M 9.421875 54.6875 
L 18.40625 54.6875 
L 18.40625 0 
L 9.421875 0 
z
M 9.421875 75.984375 
L 18.40625 75.984375 
L 18.40625 64.59375 
L 9.421875 64.59375 
z
" id="DejaVuSans-105"/>
       <path d="M 32.171875 -5.078125 
Q 28.375 -14.84375 24.75 -17.8125 
Q 21.140625 -20.796875 15.09375 -20.796875 
L 7.90625 -20.796875 
L 7.90625 -13.28125 
L 13.1875 -13.28125 
Q 16.890625 -13.28125 18.9375 -11.515625 
Q 21 -9.765625 23.484375 -3.21875 
L 25.09375 0.875 
L 2.984375 54.6875 
L 12.5 54.6875 
L 29.59375 11.921875 
L 46.6875 54.6875 
L 56.203125 54.6875 
z
" id="DejaVuSans-121"/>
      </defs>
      <use xlink:href="#DejaVuSans-68"/>
      <use x="77.001953" xlink:href="#DejaVuSans-101"/>
      <use x="138.525391" xlink:href="#DejaVuSans-110"/>
      <use x="201.904297" xlink:href="#DejaVuSans-115"/>
      <use x="254.003906" xlink:href="#DejaVuSans-105"/>
      <use x="281.787109" xlink:href="#DejaVuSans-116"/>
      <use x="320.996094" xlink:href="#DejaVuSans-121"/>
     </g>
    </g>
   </g>
   <g id="line2d_12">
    <path clip-path="url(#p2d395a115d)" d="M 63.473779 224.633453 
L 67.714879 224.542751 
L 69.835429 224.350994 
L 71.955979 223.909075 
L 73.016253 223.542271 
L 74.076528 223.050083 
L 75.136803 222.415719 
L 76.197078 221.629243 
L 78.317628 219.605768 
L 80.438178 217.080448 
L 83.619002 212.752821 
L 87.860102 206.493859 
L 94.221751 196.530228 
L 95.282026 195.205084 
L 96.342301 194.151027 
L 97.402576 193.432023 
L 98.462851 193.093227 
L 99.523126 193.154458 
L 100.583401 193.608041 
L 101.643675 194.420913 
L 102.70395 195.539544 
L 104.8245 198.412406 
L 108.005325 203.127018 
L 110.125875 205.763517 
L 112.246424 207.787225 
L 116.487524 211.264107 
L 118.608074 213.371353 
L 121.788898 216.682441 
L 123.909448 218.455081 
L 124.969723 219.132369 
L 127.090273 220.104421 
L 129.210823 220.726642 
L 134.512197 221.841515 
L 137.693022 222.391099 
L 140.873846 222.708618 
L 144.054671 222.76716 
L 152.53687 222.650653 
L 156.77797 223.062341 
L 163.139619 223.606338 
L 169.501268 224.059413 
L 176.923193 224.257195 
L 190.706766 224.463418 
L 196.008141 224.579514 
L 274.468483 224.63904 
L 274.468483 224.63904 
" style="fill:none;stroke:#1f77b4;stroke-linecap:square;stroke-width:1.5;"/>
   </g>
   <g id="line2d_13">
    <path clip-path="url(#p2d395a115d)" d="M 58.999432 224.49395 
L 60.528897 224.30078 
L 62.058363 223.905793 
L 63.587828 223.158077 
L 65.117294 221.848264 
L 66.646759 219.726342 
L 68.176225 216.550164 
L 69.70569 212.16346 
L 71.235156 206.585429 
L 74.294087 193.161616 
L 75.823552 186.540366 
L 77.353018 180.979398 
L 78.882483 177.140944 
L 80.411949 175.449084 
L 81.941414 176.0161 
L 83.47088 178.645033 
L 85.000345 182.896582 
L 86.529811 188.19362 
L 89.588742 199.585943 
L 91.118208 204.752852 
L 92.647673 209.195649 
L 94.177139 212.82208 
L 95.706604 215.652097 
L 97.23607 217.775749 
L 98.765535 219.315827 
L 100.295001 220.401139 
L 101.824466 221.150453 
L 103.353932 221.664278 
L 106.412863 222.280153 
L 111.001259 222.779949 
L 118.648587 223.308471 
L 123.236983 223.453516 
L 140.061104 223.614471 
L 149.237897 223.858204 
L 155.355759 224.034287 
L 170.650414 224.247566 
L 184.415604 224.358473 
L 205.828121 224.419739 
L 221.122776 224.530422 
L 228.770103 224.587493 
L 242.535293 224.531865 
L 263.94781 224.632428 
L 314.420172 224.64 
L 363.363068 224.639208 
L 363.363068 224.639208 
" style="fill:none;stroke:#ff7f0e;stroke-linecap:square;stroke-width:1.5;"/>
   </g>
   <g id="line2d_14">
    <path clip-path="url(#p2d395a115d)" d="M 64.984735 223.99664 
L 65.810502 223.378937 
L 66.63627 222.295053 
L 67.462037 220.502791 
L 68.287804 217.713082 
L 69.113571 213.631413 
L 69.939338 208.028475 
L 70.765105 200.83129 
L 72.41664 182.64239 
L 74.068174 163.868993 
L 74.893941 156.579401 
L 75.719708 151.802311 
L 76.545475 149.98592 
L 77.371243 151.149581 
L 78.19701 154.906663 
L 79.022777 160.58272 
L 82.325845 187.925599 
L 83.151613 193.540548 
L 83.97738 198.340666 
L 84.803147 202.367048 
L 85.628914 205.697346 
L 86.454681 208.417661 
L 87.280448 210.611583 
L 88.106215 212.359283 
L 88.931983 213.739412 
L 89.75775 214.829305 
L 91.409284 216.422902 
L 93.060818 217.597896 
L 95.53812 219.017286 
L 97.189654 219.753328 
L 98.841188 220.294123 
L 101.31849 220.825242 
L 106.273093 221.570977 
L 116.182299 222.857357 
L 119.485367 223.298567 
L 123.614203 223.609385 
L 129.394573 223.818301 
L 134.349176 223.795485 
L 140.955313 223.635669 
L 145.084149 223.955399 
L 148.387217 224.075043 
L 157.470656 224.078677 
L 161.599492 224.285557 
L 166.554095 224.583964 
L 172.334465 224.639293 
L 216.100124 224.55301 
L 221.880494 224.567144 
L 229.312398 224.638766 
L 229.312398 224.638766 
" style="fill:none;stroke:#2ca02c;stroke-linecap:square;stroke-width:1.5;"/>
   </g>
   <g id="patch_153">
    <path d="M 43.78125 224.64 
L 43.78125 7.2 
" style="fill:none;stroke:#000000;stroke-linecap:square;stroke-linejoin:miter;stroke-width:0.8;"/>
   </g>
   <g id="patch_154">
    <path d="M 378.58125 224.64 
L 378.58125 7.2 
" style="fill:none;stroke:#000000;stroke-linecap:square;stroke-linejoin:miter;stroke-width:0.8;"/>
   </g>
   <g id="patch_155">
    <path d="M 43.78125 224.64 
L 378.58125 224.64 
" style="fill:none;stroke:#000000;stroke-linecap:square;stroke-linejoin:miter;stroke-width:0.8;"/>
   </g>
   <g id="patch_156">
    <path d="M 43.78125 7.2 
L 378.58125 7.2 
" style="fill:none;stroke:#000000;stroke-linecap:square;stroke-linejoin:miter;stroke-width:0.8;"/>
   </g>
  </g>
 </g>
 <defs>
  <clipPath id="p2d395a115d">
   <rect height="217.44" width="334.8" x="43.78125" y="7.2"/>
  </clipPath>
 </defs>
</svg>
