<?xml version="1.0" encoding="utf-8" standalone="no"?>
<!DOCTYPE svg PUBLIC "-//W3C//DTD SVG 1.1//EN"
  "http://www.w3.org/Graphics/SVG/1.1/DTD/svg11.dtd">
<!-- Created with matplotlib (https://matplotlib.org/) -->
<svg height="262.19625pt" version="1.1" viewBox="0 0 392.14375 262.19625" width="392.14375pt" xmlns="http://www.w3.org/2000/svg" xmlns:xlink="http://www.w3.org/1999/xlink">
 <metadata>
  <rdf:RDF xmlns:cc="http://creativecommons.org/ns#" xmlns:dc="http://purl.org/dc/elements/1.1/" xmlns:rdf="http://www.w3.org/1999/02/22-rdf-syntax-ns#">
   <cc:Work>
    <dc:type rdf:resource="http://purl.org/dc/dcmitype/StillImage"/>
    <dc:date>2021-02-17T16:27:59.885552</dc:date>
    <dc:format>image/svg+xml</dc:format>
    <dc:creator>
     <cc:Agent>
      <dc:title>Matplotlib v3.3.4, https://matplotlib.org/</dc:title>
     </cc:Agent>
    </dc:creator>
   </cc:Work>
  </rdf:RDF>
 </metadata>
 <defs>
  <style type="text/css">*{stroke-linecap:butt;stroke-linejoin:round;}</style>
 </defs>
 <g id="figure_1">
  <g id="patch_1">
   <path d="M 0 262.19625 
L 392.14375 262.19625 
L 392.14375 0 
L 0 0 
z
" style="fill:none;"/>
  </g>
  <g id="axes_1">
   <g id="patch_2">
    <path d="M 50.14375 224.64 
L 384.94375 224.64 
L 384.94375 7.2 
L 50.14375 7.2 
z
" style="fill:#ffffff;"/>
   </g>
   <g id="patch_3">
    <path clip-path="url(#pe3421d2a94)" d="M 89.331743 224.64 
L 93.865152 224.64 
L 93.865152 219.690574 
L 89.331743 219.690574 
z
" style="fill:#1f77b4;opacity:0.4;"/>
   </g>
   <g id="patch_4">
    <path clip-path="url(#pe3421d2a94)" d="M 93.865152 224.64 
L 98.398562 224.64 
L 98.398562 212.431417 
L 93.865152 212.431417 
z
" style="fill:#1f77b4;opacity:0.4;"/>
   </g>
   <g id="patch_5">
    <path clip-path="url(#pe3421d2a94)" d="M 98.398562 224.64 
L 102.931971 224.64 
L 102.931971 213.751263 
L 98.398562 213.751263 
z
" style="fill:#1f77b4;opacity:0.4;"/>
   </g>
   <g id="patch_6">
    <path clip-path="url(#pe3421d2a94)" d="M 102.931971 224.64 
L 107.465381 224.64 
L 107.465381 201.212718 
L 102.931971 201.212718 
z
" style="fill:#1f77b4;opacity:0.4;"/>
   </g>
   <g id="patch_7">
    <path clip-path="url(#pe3421d2a94)" d="M 107.465381 224.64 
L 111.998791 224.64 
L 111.998791 193.293637 
L 107.465381 193.293637 
z
" style="fill:#1f77b4;opacity:0.4;"/>
   </g>
   <g id="patch_8">
    <path clip-path="url(#pe3421d2a94)" d="M 111.998791 224.64 
L 116.5322 224.64 
L 116.5322 185.374556 
L 111.998791 185.374556 
z
" style="fill:#1f77b4;opacity:0.4;"/>
   </g>
   <g id="patch_9">
    <path clip-path="url(#pe3421d2a94)" d="M 116.5322 224.64 
L 121.06561 224.64 
L 121.06561 181.085054 
L 116.5322 181.085054 
z
" style="fill:#1f77b4;opacity:0.4;"/>
   </g>
   <g id="patch_10">
    <path clip-path="url(#pe3421d2a94)" d="M 121.06561 224.64 
L 125.599019 224.64 
L 125.599019 188.344211 
L 121.06561 188.344211 
z
" style="fill:#1f77b4;opacity:0.4;"/>
   </g>
   <g id="patch_11">
    <path clip-path="url(#pe3421d2a94)" d="M 125.599019 224.64 
L 130.132429 224.64 
L 130.132429 199.56291 
L 125.599019 199.56291 
z
" style="fill:#1f77b4;opacity:0.4;"/>
   </g>
   <g id="patch_12">
    <path clip-path="url(#pe3421d2a94)" d="M 130.132429 224.64 
L 134.665839 224.64 
L 134.665839 201.872642 
L 130.132429 201.872642 
z
" style="fill:#1f77b4;opacity:0.4;"/>
   </g>
   <g id="patch_13">
    <path clip-path="url(#pe3421d2a94)" d="M 134.665839 224.64 
L 139.199248 224.64 
L 139.199248 209.791723 
L 134.665839 209.791723 
z
" style="fill:#1f77b4;opacity:0.4;"/>
   </g>
   <g id="patch_14">
    <path clip-path="url(#pe3421d2a94)" d="M 139.199248 224.64 
L 143.732658 224.64 
L 143.732658 215.07111 
L 139.199248 215.07111 
z
" style="fill:#1f77b4;opacity:0.4;"/>
   </g>
   <g id="patch_15">
    <path clip-path="url(#pe3421d2a94)" d="M 143.732658 224.64 
L 148.266068 224.64 
L 148.266068 208.141914 
L 143.732658 208.141914 
z
" style="fill:#1f77b4;opacity:0.4;"/>
   </g>
   <g id="patch_16">
    <path clip-path="url(#pe3421d2a94)" d="M 148.266068 224.64 
L 152.799477 224.64 
L 152.799477 219.030651 
L 148.266068 219.030651 
z
" style="fill:#1f77b4;opacity:0.4;"/>
   </g>
   <g id="patch_17">
    <path clip-path="url(#pe3421d2a94)" d="M 152.799477 224.64 
L 157.332887 224.64 
L 157.332887 218.370727 
L 152.799477 218.370727 
z
" style="fill:#1f77b4;opacity:0.4;"/>
   </g>
   <g id="patch_18">
    <path clip-path="url(#pe3421d2a94)" d="M 157.332887 224.64 
L 161.866296 224.64 
L 161.866296 222.66023 
L 157.332887 222.66023 
z
" style="fill:#1f77b4;opacity:0.4;"/>
   </g>
   <g id="patch_19">
    <path clip-path="url(#pe3421d2a94)" d="M 161.866296 224.64 
L 166.399706 224.64 
L 166.399706 222.000306 
L 161.866296 222.000306 
z
" style="fill:#1f77b4;opacity:0.4;"/>
   </g>
   <g id="patch_20">
    <path clip-path="url(#pe3421d2a94)" d="M 166.399706 224.64 
L 170.933116 224.64 
L 170.933116 220.350498 
L 166.399706 220.350498 
z
" style="fill:#1f77b4;opacity:0.4;"/>
   </g>
   <g id="patch_21">
    <path clip-path="url(#pe3421d2a94)" d="M 170.933116 224.64 
L 175.466525 224.64 
L 175.466525 222.330268 
L 170.933116 222.330268 
z
" style="fill:#1f77b4;opacity:0.4;"/>
   </g>
   <g id="patch_22">
    <path clip-path="url(#pe3421d2a94)" d="M 175.466525 224.64 
L 179.999935 224.64 
L 179.999935 223.320153 
L 175.466525 223.320153 
z
" style="fill:#1f77b4;opacity:0.4;"/>
   </g>
   <g id="patch_23">
    <path clip-path="url(#pe3421d2a94)" d="M 179.999935 224.64 
L 184.533344 224.64 
L 184.533344 222.66023 
L 179.999935 222.66023 
z
" style="fill:#1f77b4;opacity:0.4;"/>
   </g>
   <g id="patch_24">
    <path clip-path="url(#pe3421d2a94)" d="M 184.533344 224.64 
L 189.066754 224.64 
L 189.066754 222.66023 
L 184.533344 222.66023 
z
" style="fill:#1f77b4;opacity:0.4;"/>
   </g>
   <g id="patch_25">
    <path clip-path="url(#pe3421d2a94)" d="M 189.066754 224.64 
L 193.600164 224.64 
L 193.600164 224.310038 
L 189.066754 224.310038 
z
" style="fill:#1f77b4;opacity:0.4;"/>
   </g>
   <g id="patch_26">
    <path clip-path="url(#pe3421d2a94)" d="M 193.600164 224.64 
L 198.133573 224.64 
L 198.133573 224.310038 
L 193.600164 224.310038 
z
" style="fill:#1f77b4;opacity:0.4;"/>
   </g>
   <g id="patch_27">
    <path clip-path="url(#pe3421d2a94)" d="M 198.133573 224.64 
L 202.666983 224.64 
L 202.666983 223.320153 
L 198.133573 223.320153 
z
" style="fill:#1f77b4;opacity:0.4;"/>
   </g>
   <g id="patch_28">
    <path clip-path="url(#pe3421d2a94)" d="M 202.666983 224.64 
L 207.200392 224.64 
L 207.200392 223.650115 
L 202.666983 223.650115 
z
" style="fill:#1f77b4;opacity:0.4;"/>
   </g>
   <g id="patch_29">
    <path clip-path="url(#pe3421d2a94)" d="M 207.200392 224.64 
L 211.733802 224.64 
L 211.733802 223.650115 
L 207.200392 223.650115 
z
" style="fill:#1f77b4;opacity:0.4;"/>
   </g>
   <g id="patch_30">
    <path clip-path="url(#pe3421d2a94)" d="M 211.733802 224.64 
L 216.267212 224.64 
L 216.267212 223.980077 
L 211.733802 223.980077 
z
" style="fill:#1f77b4;opacity:0.4;"/>
   </g>
   <g id="patch_31">
    <path clip-path="url(#pe3421d2a94)" d="M 216.267212 224.64 
L 220.800621 224.64 
L 220.800621 224.310038 
L 216.267212 224.310038 
z
" style="fill:#1f77b4;opacity:0.4;"/>
   </g>
   <g id="patch_32">
    <path clip-path="url(#pe3421d2a94)" d="M 220.800621 224.64 
L 225.334031 224.64 
L 225.334031 223.980077 
L 220.800621 223.980077 
z
" style="fill:#1f77b4;opacity:0.4;"/>
   </g>
   <g id="patch_33">
    <path clip-path="url(#pe3421d2a94)" d="M 225.334031 224.64 
L 229.867441 224.64 
L 229.867441 224.310038 
L 225.334031 224.310038 
z
" style="fill:#1f77b4;opacity:0.4;"/>
   </g>
   <g id="patch_34">
    <path clip-path="url(#pe3421d2a94)" d="M 229.867441 224.64 
L 234.40085 224.64 
L 234.40085 224.64 
L 229.867441 224.64 
z
" style="fill:#1f77b4;opacity:0.4;"/>
   </g>
   <g id="patch_35">
    <path clip-path="url(#pe3421d2a94)" d="M 234.40085 224.64 
L 238.93426 224.64 
L 238.93426 223.650115 
L 234.40085 223.650115 
z
" style="fill:#1f77b4;opacity:0.4;"/>
   </g>
   <g id="patch_36">
    <path clip-path="url(#pe3421d2a94)" d="M 238.93426 224.64 
L 243.467669 224.64 
L 243.467669 223.650115 
L 238.93426 223.650115 
z
" style="fill:#1f77b4;opacity:0.4;"/>
   </g>
   <g id="patch_37">
    <path clip-path="url(#pe3421d2a94)" d="M 243.467669 224.64 
L 248.001079 224.64 
L 248.001079 224.310038 
L 243.467669 224.310038 
z
" style="fill:#1f77b4;opacity:0.4;"/>
   </g>
   <g id="patch_38">
    <path clip-path="url(#pe3421d2a94)" d="M 248.001079 224.64 
L 252.534489 224.64 
L 252.534489 224.64 
L 248.001079 224.64 
z
" style="fill:#1f77b4;opacity:0.4;"/>
   </g>
   <g id="patch_39">
    <path clip-path="url(#pe3421d2a94)" d="M 252.534489 224.64 
L 257.067898 224.64 
L 257.067898 224.64 
L 252.534489 224.64 
z
" style="fill:#1f77b4;opacity:0.4;"/>
   </g>
   <g id="patch_40">
    <path clip-path="url(#pe3421d2a94)" d="M 257.067898 224.64 
L 261.601308 224.64 
L 261.601308 224.64 
L 257.067898 224.64 
z
" style="fill:#1f77b4;opacity:0.4;"/>
   </g>
   <g id="patch_41">
    <path clip-path="url(#pe3421d2a94)" d="M 261.601308 224.64 
L 266.134717 224.64 
L 266.134717 224.310038 
L 261.601308 224.310038 
z
" style="fill:#1f77b4;opacity:0.4;"/>
   </g>
   <g id="patch_42">
    <path clip-path="url(#pe3421d2a94)" d="M 266.134717 224.64 
L 270.668127 224.64 
L 270.668127 224.310038 
L 266.134717 224.310038 
z
" style="fill:#1f77b4;opacity:0.4;"/>
   </g>
   <g id="patch_43">
    <path clip-path="url(#pe3421d2a94)" d="M 270.668127 224.64 
L 275.201537 224.64 
L 275.201537 224.310038 
L 270.668127 224.310038 
z
" style="fill:#1f77b4;opacity:0.4;"/>
   </g>
   <g id="patch_44">
    <path clip-path="url(#pe3421d2a94)" d="M 275.201537 224.64 
L 279.734946 224.64 
L 279.734946 223.980077 
L 275.201537 223.980077 
z
" style="fill:#1f77b4;opacity:0.4;"/>
   </g>
   <g id="patch_45">
    <path clip-path="url(#pe3421d2a94)" d="M 279.734946 224.64 
L 284.268356 224.64 
L 284.268356 224.64 
L 279.734946 224.64 
z
" style="fill:#1f77b4;opacity:0.4;"/>
   </g>
   <g id="patch_46">
    <path clip-path="url(#pe3421d2a94)" d="M 284.268356 224.64 
L 288.801765 224.64 
L 288.801765 224.64 
L 284.268356 224.64 
z
" style="fill:#1f77b4;opacity:0.4;"/>
   </g>
   <g id="patch_47">
    <path clip-path="url(#pe3421d2a94)" d="M 288.801765 224.64 
L 293.335175 224.64 
L 293.335175 224.64 
L 288.801765 224.64 
z
" style="fill:#1f77b4;opacity:0.4;"/>
   </g>
   <g id="patch_48">
    <path clip-path="url(#pe3421d2a94)" d="M 293.335175 224.64 
L 297.868585 224.64 
L 297.868585 224.64 
L 293.335175 224.64 
z
" style="fill:#1f77b4;opacity:0.4;"/>
   </g>
   <g id="patch_49">
    <path clip-path="url(#pe3421d2a94)" d="M 297.868585 224.64 
L 302.401994 224.64 
L 302.401994 223.980077 
L 297.868585 223.980077 
z
" style="fill:#1f77b4;opacity:0.4;"/>
   </g>
   <g id="patch_50">
    <path clip-path="url(#pe3421d2a94)" d="M 302.401994 224.64 
L 306.935404 224.64 
L 306.935404 224.64 
L 302.401994 224.64 
z
" style="fill:#1f77b4;opacity:0.4;"/>
   </g>
   <g id="patch_51">
    <path clip-path="url(#pe3421d2a94)" d="M 306.935404 224.64 
L 311.468814 224.64 
L 311.468814 224.64 
L 306.935404 224.64 
z
" style="fill:#1f77b4;opacity:0.4;"/>
   </g>
   <g id="patch_52">
    <path clip-path="url(#pe3421d2a94)" d="M 311.468814 224.64 
L 316.002223 224.64 
L 316.002223 224.310038 
L 311.468814 224.310038 
z
" style="fill:#1f77b4;opacity:0.4;"/>
   </g>
   <g id="patch_53">
    <path clip-path="url(#pe3421d2a94)" d="M 87.415486 224.64 
L 92.620617 224.64 
L 92.620617 112.27433 
L 87.415486 112.27433 
z
" style="fill:#ff7f0e;opacity:0.4;"/>
   </g>
   <g id="patch_54">
    <path clip-path="url(#pe3421d2a94)" d="M 92.620617 224.64 
L 97.825747 224.64 
L 97.825747 156.243506 
L 92.620617 156.243506 
z
" style="fill:#ff7f0e;opacity:0.4;"/>
   </g>
   <g id="patch_55">
    <path clip-path="url(#pe3421d2a94)" d="M 97.825747 224.64 
L 103.030878 224.64 
L 103.030878 172.911559 
L 97.825747 172.911559 
z
" style="fill:#ff7f0e;opacity:0.4;"/>
   </g>
   <g id="patch_56">
    <path clip-path="url(#pe3421d2a94)" d="M 103.030878 224.64 
L 108.236008 224.64 
L 108.236008 210.845749 
L 103.030878 210.845749 
z
" style="fill:#ff7f0e;opacity:0.4;"/>
   </g>
   <g id="patch_57">
    <path clip-path="url(#pe3421d2a94)" d="M 108.236008 224.64 
L 113.441139 224.64 
L 113.441139 213.144791 
L 108.236008 213.144791 
z
" style="fill:#ff7f0e;opacity:0.4;"/>
   </g>
   <g id="patch_58">
    <path clip-path="url(#pe3421d2a94)" d="M 113.441139 224.64 
L 118.64627 224.64 
L 118.64627 220.904057 
L 113.441139 220.904057 
z
" style="fill:#ff7f0e;opacity:0.4;"/>
   </g>
   <g id="patch_59">
    <path clip-path="url(#pe3421d2a94)" d="M 118.64627 224.64 
L 123.8514 224.64 
L 123.8514 222.053578 
L 118.64627 222.053578 
z
" style="fill:#ff7f0e;opacity:0.4;"/>
   </g>
   <g id="patch_60">
    <path clip-path="url(#pe3421d2a94)" d="M 123.8514 224.64 
L 129.056531 224.64 
L 129.056531 223.490479 
L 123.8514 223.490479 
z
" style="fill:#ff7f0e;opacity:0.4;"/>
   </g>
   <g id="patch_61">
    <path clip-path="url(#pe3421d2a94)" d="M 129.056531 224.64 
L 134.261661 224.64 
L 134.261661 223.490479 
L 129.056531 223.490479 
z
" style="fill:#ff7f0e;opacity:0.4;"/>
   </g>
   <g id="patch_62">
    <path clip-path="url(#pe3421d2a94)" d="M 134.261661 224.64 
L 139.466792 224.64 
L 139.466792 222.915719 
L 134.261661 222.915719 
z
" style="fill:#ff7f0e;opacity:0.4;"/>
   </g>
   <g id="patch_63">
    <path clip-path="url(#pe3421d2a94)" d="M 139.466792 224.64 
L 144.671922 224.64 
L 144.671922 221.766198 
L 139.466792 221.766198 
z
" style="fill:#ff7f0e;opacity:0.4;"/>
   </g>
   <g id="patch_64">
    <path clip-path="url(#pe3421d2a94)" d="M 144.671922 224.64 
L 149.877053 224.64 
L 149.877053 222.628338 
L 144.671922 222.628338 
z
" style="fill:#ff7f0e;opacity:0.4;"/>
   </g>
   <g id="patch_65">
    <path clip-path="url(#pe3421d2a94)" d="M 149.877053 224.64 
L 155.082183 224.64 
L 155.082183 224.35262 
L 149.877053 224.35262 
z
" style="fill:#ff7f0e;opacity:0.4;"/>
   </g>
   <g id="patch_66">
    <path clip-path="url(#pe3421d2a94)" d="M 155.082183 224.64 
L 160.287314 224.64 
L 160.287314 223.203099 
L 155.082183 223.203099 
z
" style="fill:#ff7f0e;opacity:0.4;"/>
   </g>
   <g id="patch_67">
    <path clip-path="url(#pe3421d2a94)" d="M 160.287314 224.64 
L 165.492444 224.64 
L 165.492444 224.06524 
L 160.287314 224.06524 
z
" style="fill:#ff7f0e;opacity:0.4;"/>
   </g>
   <g id="patch_68">
    <path clip-path="url(#pe3421d2a94)" d="M 165.492444 224.64 
L 170.697575 224.64 
L 170.697575 223.777859 
L 165.492444 223.777859 
z
" style="fill:#ff7f0e;opacity:0.4;"/>
   </g>
   <g id="patch_69">
    <path clip-path="url(#pe3421d2a94)" d="M 170.697575 224.64 
L 175.902706 224.64 
L 175.902706 222.340958 
L 170.697575 222.340958 
z
" style="fill:#ff7f0e;opacity:0.4;"/>
   </g>
   <g id="patch_70">
    <path clip-path="url(#pe3421d2a94)" d="M 175.902706 224.64 
L 181.107836 224.64 
L 181.107836 224.06524 
L 175.902706 224.06524 
z
" style="fill:#ff7f0e;opacity:0.4;"/>
   </g>
   <g id="patch_71">
    <path clip-path="url(#pe3421d2a94)" d="M 181.107836 224.64 
L 186.312967 224.64 
L 186.312967 224.35262 
L 181.107836 224.35262 
z
" style="fill:#ff7f0e;opacity:0.4;"/>
   </g>
   <g id="patch_72">
    <path clip-path="url(#pe3421d2a94)" d="M 186.312967 224.64 
L 191.518097 224.64 
L 191.518097 224.06524 
L 186.312967 224.06524 
z
" style="fill:#ff7f0e;opacity:0.4;"/>
   </g>
   <g id="patch_73">
    <path clip-path="url(#pe3421d2a94)" d="M 191.518097 224.64 
L 196.723228 224.64 
L 196.723228 224.35262 
L 191.518097 224.35262 
z
" style="fill:#ff7f0e;opacity:0.4;"/>
   </g>
   <g id="patch_74">
    <path clip-path="url(#pe3421d2a94)" d="M 196.723228 224.64 
L 201.928358 224.64 
L 201.928358 224.06524 
L 196.723228 224.06524 
z
" style="fill:#ff7f0e;opacity:0.4;"/>
   </g>
   <g id="patch_75">
    <path clip-path="url(#pe3421d2a94)" d="M 201.928358 224.64 
L 207.133489 224.64 
L 207.133489 224.35262 
L 201.928358 224.35262 
z
" style="fill:#ff7f0e;opacity:0.4;"/>
   </g>
   <g id="patch_76">
    <path clip-path="url(#pe3421d2a94)" d="M 207.133489 224.64 
L 212.338619 224.64 
L 212.338619 224.35262 
L 207.133489 224.35262 
z
" style="fill:#ff7f0e;opacity:0.4;"/>
   </g>
   <g id="patch_77">
    <path clip-path="url(#pe3421d2a94)" d="M 212.338619 224.64 
L 217.54375 224.64 
L 217.54375 224.06524 
L 212.338619 224.06524 
z
" style="fill:#ff7f0e;opacity:0.4;"/>
   </g>
   <g id="patch_78">
    <path clip-path="url(#pe3421d2a94)" d="M 217.54375 224.64 
L 222.748881 224.64 
L 222.748881 224.64 
L 217.54375 224.64 
z
" style="fill:#ff7f0e;opacity:0.4;"/>
   </g>
   <g id="patch_79">
    <path clip-path="url(#pe3421d2a94)" d="M 222.748881 224.64 
L 227.954011 224.64 
L 227.954011 224.64 
L 222.748881 224.64 
z
" style="fill:#ff7f0e;opacity:0.4;"/>
   </g>
   <g id="patch_80">
    <path clip-path="url(#pe3421d2a94)" d="M 227.954011 224.64 
L 233.159142 224.64 
L 233.159142 224.35262 
L 227.954011 224.35262 
z
" style="fill:#ff7f0e;opacity:0.4;"/>
   </g>
   <g id="patch_81">
    <path clip-path="url(#pe3421d2a94)" d="M 233.159142 224.64 
L 238.364272 224.64 
L 238.364272 224.06524 
L 233.159142 224.06524 
z
" style="fill:#ff7f0e;opacity:0.4;"/>
   </g>
   <g id="patch_82">
    <path clip-path="url(#pe3421d2a94)" d="M 238.364272 224.64 
L 243.569403 224.64 
L 243.569403 223.777859 
L 238.364272 223.777859 
z
" style="fill:#ff7f0e;opacity:0.4;"/>
   </g>
   <g id="patch_83">
    <path clip-path="url(#pe3421d2a94)" d="M 243.569403 224.64 
L 248.774533 224.64 
L 248.774533 224.35262 
L 243.569403 224.35262 
z
" style="fill:#ff7f0e;opacity:0.4;"/>
   </g>
   <g id="patch_84">
    <path clip-path="url(#pe3421d2a94)" d="M 248.774533 224.64 
L 253.979664 224.64 
L 253.979664 224.35262 
L 248.774533 224.35262 
z
" style="fill:#ff7f0e;opacity:0.4;"/>
   </g>
   <g id="patch_85">
    <path clip-path="url(#pe3421d2a94)" d="M 253.979664 224.64 
L 259.184794 224.64 
L 259.184794 224.35262 
L 253.979664 224.35262 
z
" style="fill:#ff7f0e;opacity:0.4;"/>
   </g>
   <g id="patch_86">
    <path clip-path="url(#pe3421d2a94)" d="M 259.184794 224.64 
L 264.389925 224.64 
L 264.389925 224.35262 
L 259.184794 224.35262 
z
" style="fill:#ff7f0e;opacity:0.4;"/>
   </g>
   <g id="patch_87">
    <path clip-path="url(#pe3421d2a94)" d="M 264.389925 224.64 
L 269.595056 224.64 
L 269.595056 224.35262 
L 264.389925 224.35262 
z
" style="fill:#ff7f0e;opacity:0.4;"/>
   </g>
   <g id="patch_88">
    <path clip-path="url(#pe3421d2a94)" d="M 269.595056 224.64 
L 274.800186 224.64 
L 274.800186 224.35262 
L 269.595056 224.35262 
z
" style="fill:#ff7f0e;opacity:0.4;"/>
   </g>
   <g id="patch_89">
    <path clip-path="url(#pe3421d2a94)" d="M 274.800186 224.64 
L 280.005317 224.64 
L 280.005317 224.35262 
L 274.800186 224.35262 
z
" style="fill:#ff7f0e;opacity:0.4;"/>
   </g>
   <g id="patch_90">
    <path clip-path="url(#pe3421d2a94)" d="M 280.005317 224.64 
L 285.210447 224.64 
L 285.210447 224.35262 
L 280.005317 224.35262 
z
" style="fill:#ff7f0e;opacity:0.4;"/>
   </g>
   <g id="patch_91">
    <path clip-path="url(#pe3421d2a94)" d="M 285.210447 224.64 
L 290.415578 224.64 
L 290.415578 224.35262 
L 285.210447 224.35262 
z
" style="fill:#ff7f0e;opacity:0.4;"/>
   </g>
   <g id="patch_92">
    <path clip-path="url(#pe3421d2a94)" d="M 290.415578 224.64 
L 295.620708 224.64 
L 295.620708 224.35262 
L 290.415578 224.35262 
z
" style="fill:#ff7f0e;opacity:0.4;"/>
   </g>
   <g id="patch_93">
    <path clip-path="url(#pe3421d2a94)" d="M 295.620708 224.64 
L 300.825839 224.64 
L 300.825839 224.35262 
L 295.620708 224.35262 
z
" style="fill:#ff7f0e;opacity:0.4;"/>
   </g>
   <g id="patch_94">
    <path clip-path="url(#pe3421d2a94)" d="M 300.825839 224.64 
L 306.030969 224.64 
L 306.030969 224.64 
L 300.825839 224.64 
z
" style="fill:#ff7f0e;opacity:0.4;"/>
   </g>
   <g id="patch_95">
    <path clip-path="url(#pe3421d2a94)" d="M 306.030969 224.64 
L 311.2361 224.64 
L 311.2361 224.64 
L 306.030969 224.64 
z
" style="fill:#ff7f0e;opacity:0.4;"/>
   </g>
   <g id="patch_96">
    <path clip-path="url(#pe3421d2a94)" d="M 311.2361 224.64 
L 316.44123 224.64 
L 316.44123 224.64 
L 311.2361 224.64 
z
" style="fill:#ff7f0e;opacity:0.4;"/>
   </g>
   <g id="patch_97">
    <path clip-path="url(#pe3421d2a94)" d="M 316.44123 224.64 
L 321.646361 224.64 
L 321.646361 224.64 
L 316.44123 224.64 
z
" style="fill:#ff7f0e;opacity:0.4;"/>
   </g>
   <g id="patch_98">
    <path clip-path="url(#pe3421d2a94)" d="M 321.646361 224.64 
L 326.851492 224.64 
L 326.851492 224.35262 
L 321.646361 224.35262 
z
" style="fill:#ff7f0e;opacity:0.4;"/>
   </g>
   <g id="patch_99">
    <path clip-path="url(#pe3421d2a94)" d="M 326.851492 224.64 
L 332.056622 224.64 
L 332.056622 224.64 
L 326.851492 224.64 
z
" style="fill:#ff7f0e;opacity:0.4;"/>
   </g>
   <g id="patch_100">
    <path clip-path="url(#pe3421d2a94)" d="M 332.056622 224.64 
L 337.261753 224.64 
L 337.261753 224.64 
L 332.056622 224.64 
z
" style="fill:#ff7f0e;opacity:0.4;"/>
   </g>
   <g id="patch_101">
    <path clip-path="url(#pe3421d2a94)" d="M 337.261753 224.64 
L 342.466883 224.64 
L 342.466883 224.64 
L 337.261753 224.64 
z
" style="fill:#ff7f0e;opacity:0.4;"/>
   </g>
   <g id="patch_102">
    <path clip-path="url(#pe3421d2a94)" d="M 342.466883 224.64 
L 347.672014 224.64 
L 347.672014 224.35262 
L 342.466883 224.35262 
z
" style="fill:#ff7f0e;opacity:0.4;"/>
   </g>
   <g id="patch_103">
    <path clip-path="url(#pe3421d2a94)" d="M 87.415486 224.64 
L 91.735047 224.64 
L 91.735047 17.554286 
L 87.415486 17.554286 
z
" style="fill:#2ca02c;opacity:0.4;"/>
   </g>
   <g id="patch_104">
    <path clip-path="url(#pe3421d2a94)" d="M 91.735047 224.64 
L 96.054607 224.64 
L 96.054607 178.928772 
L 91.735047 178.928772 
z
" style="fill:#2ca02c;opacity:0.4;"/>
   </g>
   <g id="patch_105">
    <path clip-path="url(#pe3421d2a94)" d="M 96.054607 224.64 
L 100.374168 224.64 
L 100.374168 194.512145 
L 96.054607 194.512145 
z
" style="fill:#2ca02c;opacity:0.4;"/>
   </g>
   <g id="patch_106">
    <path clip-path="url(#pe3421d2a94)" d="M 100.374168 224.64 
L 104.693728 224.64 
L 104.693728 211.827004 
L 100.374168 211.827004 
z
" style="fill:#2ca02c;opacity:0.4;"/>
   </g>
   <g id="patch_107">
    <path clip-path="url(#pe3421d2a94)" d="M 104.693728 224.64 
L 109.013289 224.64 
L 109.013289 218.406651 
L 104.693728 218.406651 
z
" style="fill:#2ca02c;opacity:0.4;"/>
   </g>
   <g id="patch_108">
    <path clip-path="url(#pe3421d2a94)" d="M 109.013289 224.64 
L 113.332849 224.64 
L 113.332849 219.445542 
L 109.013289 219.445542 
z
" style="fill:#2ca02c;opacity:0.4;"/>
   </g>
   <g id="patch_109">
    <path clip-path="url(#pe3421d2a94)" d="M 113.332849 224.64 
L 117.652409 224.64 
L 117.652409 219.791839 
L 113.332849 219.791839 
z
" style="fill:#2ca02c;opacity:0.4;"/>
   </g>
   <g id="patch_110">
    <path clip-path="url(#pe3421d2a94)" d="M 117.652409 224.64 
L 121.97197 224.64 
L 121.97197 221.869623 
L 117.652409 221.869623 
z
" style="fill:#2ca02c;opacity:0.4;"/>
   </g>
   <g id="patch_111">
    <path clip-path="url(#pe3421d2a94)" d="M 121.97197 224.64 
L 126.29153 224.64 
L 126.29153 220.484434 
L 121.97197 220.484434 
z
" style="fill:#2ca02c;opacity:0.4;"/>
   </g>
   <g id="patch_112">
    <path clip-path="url(#pe3421d2a94)" d="M 126.29153 224.64 
L 130.611091 224.64 
L 130.611091 221.177028 
L 126.29153 221.177028 
z
" style="fill:#2ca02c;opacity:0.4;"/>
   </g>
   <g id="patch_113">
    <path clip-path="url(#pe3421d2a94)" d="M 130.611091 224.64 
L 134.930651 224.64 
L 134.930651 222.21592 
L 130.611091 222.21592 
z
" style="fill:#2ca02c;opacity:0.4;"/>
   </g>
   <g id="patch_114">
    <path clip-path="url(#pe3421d2a94)" d="M 134.930651 224.64 
L 139.250212 224.64 
L 139.250212 223.254811 
L 134.930651 223.254811 
z
" style="fill:#2ca02c;opacity:0.4;"/>
   </g>
   <g id="patch_115">
    <path clip-path="url(#pe3421d2a94)" d="M 139.250212 224.64 
L 143.569772 224.64 
L 143.569772 221.177028 
L 139.250212 221.177028 
z
" style="fill:#2ca02c;opacity:0.4;"/>
   </g>
   <g id="patch_116">
    <path clip-path="url(#pe3421d2a94)" d="M 143.569772 224.64 
L 147.889333 224.64 
L 147.889333 223.254811 
L 143.569772 223.254811 
z
" style="fill:#2ca02c;opacity:0.4;"/>
   </g>
   <g id="patch_117">
    <path clip-path="url(#pe3421d2a94)" d="M 147.889333 224.64 
L 152.208893 224.64 
L 152.208893 221.869623 
L 147.889333 221.869623 
z
" style="fill:#2ca02c;opacity:0.4;"/>
   </g>
   <g id="patch_118">
    <path clip-path="url(#pe3421d2a94)" d="M 152.208893 224.64 
L 156.528454 224.64 
L 156.528454 222.562217 
L 152.208893 222.562217 
z
" style="fill:#2ca02c;opacity:0.4;"/>
   </g>
   <g id="patch_119">
    <path clip-path="url(#pe3421d2a94)" d="M 156.528454 224.64 
L 160.848014 224.64 
L 160.848014 222.908514 
L 156.528454 222.908514 
z
" style="fill:#2ca02c;opacity:0.4;"/>
   </g>
   <g id="patch_120">
    <path clip-path="url(#pe3421d2a94)" d="M 160.848014 224.64 
L 165.167574 224.64 
L 165.167574 223.601108 
L 160.848014 223.601108 
z
" style="fill:#2ca02c;opacity:0.4;"/>
   </g>
   <g id="patch_121">
    <path clip-path="url(#pe3421d2a94)" d="M 165.167574 224.64 
L 169.487135 224.64 
L 169.487135 224.293703 
L 165.167574 224.293703 
z
" style="fill:#2ca02c;opacity:0.4;"/>
   </g>
   <g id="patch_122">
    <path clip-path="url(#pe3421d2a94)" d="M 169.487135 224.64 
L 173.806695 224.64 
L 173.806695 223.947406 
L 169.487135 223.947406 
z
" style="fill:#2ca02c;opacity:0.4;"/>
   </g>
   <g id="patch_123">
    <path clip-path="url(#pe3421d2a94)" d="M 173.806695 224.64 
L 178.126256 224.64 
L 178.126256 224.293703 
L 173.806695 224.293703 
z
" style="fill:#2ca02c;opacity:0.4;"/>
   </g>
   <g id="patch_124">
    <path clip-path="url(#pe3421d2a94)" d="M 178.126256 224.64 
L 182.445816 224.64 
L 182.445816 224.293703 
L 178.126256 224.293703 
z
" style="fill:#2ca02c;opacity:0.4;"/>
   </g>
   <g id="patch_125">
    <path clip-path="url(#pe3421d2a94)" d="M 182.445816 224.64 
L 186.765377 224.64 
L 186.765377 223.947406 
L 182.445816 223.947406 
z
" style="fill:#2ca02c;opacity:0.4;"/>
   </g>
   <g id="patch_126">
    <path clip-path="url(#pe3421d2a94)" d="M 186.765377 224.64 
L 191.084937 224.64 
L 191.084937 223.947406 
L 186.765377 223.947406 
z
" style="fill:#2ca02c;opacity:0.4;"/>
   </g>
   <g id="patch_127">
    <path clip-path="url(#pe3421d2a94)" d="M 191.084937 224.64 
L 195.404498 224.64 
L 195.404498 224.64 
L 191.084937 224.64 
z
" style="fill:#2ca02c;opacity:0.4;"/>
   </g>
   <g id="patch_128">
    <path clip-path="url(#pe3421d2a94)" d="M 195.404498 224.64 
L 199.724058 224.64 
L 199.724058 223.601108 
L 195.404498 223.601108 
z
" style="fill:#2ca02c;opacity:0.4;"/>
   </g>
   <g id="patch_129">
    <path clip-path="url(#pe3421d2a94)" d="M 199.724058 224.64 
L 204.043619 224.64 
L 204.043619 224.64 
L 199.724058 224.64 
z
" style="fill:#2ca02c;opacity:0.4;"/>
   </g>
   <g id="patch_130">
    <path clip-path="url(#pe3421d2a94)" d="M 204.043619 224.64 
L 208.363179 224.64 
L 208.363179 223.947406 
L 204.043619 223.947406 
z
" style="fill:#2ca02c;opacity:0.4;"/>
   </g>
   <g id="patch_131">
    <path clip-path="url(#pe3421d2a94)" d="M 208.363179 224.64 
L 212.682739 224.64 
L 212.682739 224.293703 
L 208.363179 224.293703 
z
" style="fill:#2ca02c;opacity:0.4;"/>
   </g>
   <g id="patch_132">
    <path clip-path="url(#pe3421d2a94)" d="M 212.682739 224.64 
L 217.0023 224.64 
L 217.0023 224.64 
L 212.682739 224.64 
z
" style="fill:#2ca02c;opacity:0.4;"/>
   </g>
   <g id="patch_133">
    <path clip-path="url(#pe3421d2a94)" d="M 217.0023 224.64 
L 221.32186 224.64 
L 221.32186 224.64 
L 217.0023 224.64 
z
" style="fill:#2ca02c;opacity:0.4;"/>
   </g>
   <g id="patch_134">
    <path clip-path="url(#pe3421d2a94)" d="M 221.32186 224.64 
L 225.641421 224.64 
L 225.641421 224.293703 
L 221.32186 224.293703 
z
" style="fill:#2ca02c;opacity:0.4;"/>
   </g>
   <g id="patch_135">
    <path clip-path="url(#pe3421d2a94)" d="M 225.641421 224.64 
L 229.960981 224.64 
L 229.960981 224.293703 
L 225.641421 224.293703 
z
" style="fill:#2ca02c;opacity:0.4;"/>
   </g>
   <g id="patch_136">
    <path clip-path="url(#pe3421d2a94)" d="M 229.960981 224.64 
L 234.280542 224.64 
L 234.280542 224.64 
L 229.960981 224.64 
z
" style="fill:#2ca02c;opacity:0.4;"/>
   </g>
   <g id="patch_137">
    <path clip-path="url(#pe3421d2a94)" d="M 234.280542 224.64 
L 238.600102 224.64 
L 238.600102 224.293703 
L 234.280542 224.293703 
z
" style="fill:#2ca02c;opacity:0.4;"/>
   </g>
   <g id="patch_138">
    <path clip-path="url(#pe3421d2a94)" d="M 238.600102 224.64 
L 242.919663 224.64 
L 242.919663 224.293703 
L 238.600102 224.293703 
z
" style="fill:#2ca02c;opacity:0.4;"/>
   </g>
   <g id="patch_139">
    <path clip-path="url(#pe3421d2a94)" d="M 242.919663 224.64 
L 247.239223 224.64 
L 247.239223 224.293703 
L 242.919663 224.293703 
z
" style="fill:#2ca02c;opacity:0.4;"/>
   </g>
   <g id="patch_140">
    <path clip-path="url(#pe3421d2a94)" d="M 247.239223 224.64 
L 251.558784 224.64 
L 251.558784 224.64 
L 247.239223 224.64 
z
" style="fill:#2ca02c;opacity:0.4;"/>
   </g>
   <g id="patch_141">
    <path clip-path="url(#pe3421d2a94)" d="M 251.558784 224.64 
L 255.878344 224.64 
L 255.878344 224.64 
L 251.558784 224.64 
z
" style="fill:#2ca02c;opacity:0.4;"/>
   </g>
   <g id="patch_142">
    <path clip-path="url(#pe3421d2a94)" d="M 255.878344 224.64 
L 260.197904 224.64 
L 260.197904 224.64 
L 255.878344 224.64 
z
" style="fill:#2ca02c;opacity:0.4;"/>
   </g>
   <g id="patch_143">
    <path clip-path="url(#pe3421d2a94)" d="M 260.197904 224.64 
L 264.517465 224.64 
L 264.517465 224.64 
L 260.197904 224.64 
z
" style="fill:#2ca02c;opacity:0.4;"/>
   </g>
   <g id="patch_144">
    <path clip-path="url(#pe3421d2a94)" d="M 264.517465 224.64 
L 268.837025 224.64 
L 268.837025 224.293703 
L 264.517465 224.293703 
z
" style="fill:#2ca02c;opacity:0.4;"/>
   </g>
   <g id="patch_145">
    <path clip-path="url(#pe3421d2a94)" d="M 268.837025 224.64 
L 273.156586 224.64 
L 273.156586 224.64 
L 268.837025 224.64 
z
" style="fill:#2ca02c;opacity:0.4;"/>
   </g>
   <g id="patch_146">
    <path clip-path="url(#pe3421d2a94)" d="M 273.156586 224.64 
L 277.476146 224.64 
L 277.476146 224.64 
L 273.156586 224.64 
z
" style="fill:#2ca02c;opacity:0.4;"/>
   </g>
   <g id="patch_147">
    <path clip-path="url(#pe3421d2a94)" d="M 277.476146 224.64 
L 281.795707 224.64 
L 281.795707 224.64 
L 277.476146 224.64 
z
" style="fill:#2ca02c;opacity:0.4;"/>
   </g>
   <g id="patch_148">
    <path clip-path="url(#pe3421d2a94)" d="M 281.795707 224.64 
L 286.115267 224.64 
L 286.115267 224.64 
L 281.795707 224.64 
z
" style="fill:#2ca02c;opacity:0.4;"/>
   </g>
   <g id="patch_149">
    <path clip-path="url(#pe3421d2a94)" d="M 286.115267 224.64 
L 290.434828 224.64 
L 290.434828 224.64 
L 286.115267 224.64 
z
" style="fill:#2ca02c;opacity:0.4;"/>
   </g>
   <g id="patch_150">
    <path clip-path="url(#pe3421d2a94)" d="M 290.434828 224.64 
L 294.754388 224.64 
L 294.754388 224.64 
L 290.434828 224.64 
z
" style="fill:#2ca02c;opacity:0.4;"/>
   </g>
   <g id="patch_151">
    <path clip-path="url(#pe3421d2a94)" d="M 294.754388 224.64 
L 299.073949 224.64 
L 299.073949 224.64 
L 294.754388 224.64 
z
" style="fill:#2ca02c;opacity:0.4;"/>
   </g>
   <g id="patch_152">
    <path clip-path="url(#pe3421d2a94)" d="M 299.073949 224.64 
L 303.393509 224.64 
L 303.393509 224.293703 
L 299.073949 224.293703 
z
" style="fill:#2ca02c;opacity:0.4;"/>
   </g>
   <g id="matplotlib.axis_1">
    <g id="xtick_1">
     <g id="line2d_1">
      <defs>
       <path d="M 0 0 
L 0 3.5 
" id="mb2474c6f2d" style="stroke:#000000;stroke-width:0.8;"/>
      </defs>
      <g>
       <use style="stroke:#000000;stroke-width:0.8;" x="87.415486" xlink:href="#mb2474c6f2d" y="224.64"/>
      </g>
     </g>
     <g id="text_1">
      <!-- 0 -->
      <g transform="translate(84.234236 239.238437)scale(0.1 -0.1)">
       <defs>
        <path d="M 31.78125 66.40625 
Q 24.171875 66.40625 20.328125 58.90625 
Q 16.5 51.421875 16.5 36.375 
Q 16.5 21.390625 20.328125 13.890625 
Q 24.171875 6.390625 31.78125 6.390625 
Q 39.453125 6.390625 43.28125 13.890625 
Q 47.125 21.390625 47.125 36.375 
Q 47.125 51.421875 43.28125 58.90625 
Q 39.453125 66.40625 31.78125 66.40625 
z
M 31.78125 74.21875 
Q 44.046875 74.21875 50.515625 64.515625 
Q 56.984375 54.828125 56.984375 36.375 
Q 56.984375 17.96875 50.515625 8.265625 
Q 44.046875 -1.421875 31.78125 -1.421875 
Q 19.53125 -1.421875 13.0625 8.265625 
Q 6.59375 17.96875 6.59375 36.375 
Q 6.59375 54.828125 13.0625 64.515625 
Q 19.53125 74.21875 31.78125 74.21875 
z
" id="DejaVuSans-48"/>
       </defs>
       <use xlink:href="#DejaVuSans-48"/>
      </g>
     </g>
    </g>
    <g id="xtick_2">
     <g id="line2d_2">
      <g>
       <use style="stroke:#000000;stroke-width:0.8;" x="158.656877" xlink:href="#mb2474c6f2d" y="224.64"/>
      </g>
     </g>
     <g id="text_2">
      <!-- 5 -->
      <g transform="translate(155.475627 239.238437)scale(0.1 -0.1)">
       <defs>
        <path d="M 10.796875 72.90625 
L 49.515625 72.90625 
L 49.515625 64.59375 
L 19.828125 64.59375 
L 19.828125 46.734375 
Q 21.96875 47.46875 24.109375 47.828125 
Q 26.265625 48.1875 28.421875 48.1875 
Q 40.625 48.1875 47.75 41.5 
Q 54.890625 34.8125 54.890625 23.390625 
Q 54.890625 11.625 47.5625 5.09375 
Q 40.234375 -1.421875 26.90625 -1.421875 
Q 22.3125 -1.421875 17.546875 -0.640625 
Q 12.796875 0.140625 7.71875 1.703125 
L 7.71875 11.625 
Q 12.109375 9.234375 16.796875 8.0625 
Q 21.484375 6.890625 26.703125 6.890625 
Q 35.15625 6.890625 40.078125 11.328125 
Q 45.015625 15.765625 45.015625 23.390625 
Q 45.015625 31 40.078125 35.4375 
Q 35.15625 39.890625 26.703125 39.890625 
Q 22.75 39.890625 18.8125 39.015625 
Q 14.890625 38.140625 10.796875 36.28125 
z
" id="DejaVuSans-53"/>
       </defs>
       <use xlink:href="#DejaVuSans-53"/>
      </g>
     </g>
    </g>
    <g id="xtick_3">
     <g id="line2d_3">
      <g>
       <use style="stroke:#000000;stroke-width:0.8;" x="229.898269" xlink:href="#mb2474c6f2d" y="224.64"/>
      </g>
     </g>
     <g id="text_3">
      <!-- 10 -->
      <g transform="translate(223.535769 239.238437)scale(0.1 -0.1)">
       <defs>
        <path d="M 12.40625 8.296875 
L 28.515625 8.296875 
L 28.515625 63.921875 
L 10.984375 60.40625 
L 10.984375 69.390625 
L 28.421875 72.90625 
L 38.28125 72.90625 
L 38.28125 8.296875 
L 54.390625 8.296875 
L 54.390625 0 
L 12.40625 0 
z
" id="DejaVuSans-49"/>
       </defs>
       <use xlink:href="#DejaVuSans-49"/>
       <use x="63.623047" xlink:href="#DejaVuSans-48"/>
      </g>
     </g>
    </g>
    <g id="xtick_4">
     <g id="line2d_4">
      <g>
       <use style="stroke:#000000;stroke-width:0.8;" x="301.13966" xlink:href="#mb2474c6f2d" y="224.64"/>
      </g>
     </g>
     <g id="text_4">
      <!-- 15 -->
      <g transform="translate(294.77716 239.238437)scale(0.1 -0.1)">
       <use xlink:href="#DejaVuSans-49"/>
       <use x="63.623047" xlink:href="#DejaVuSans-53"/>
      </g>
     </g>
    </g>
    <g id="xtick_5">
     <g id="line2d_5">
      <g>
       <use style="stroke:#000000;stroke-width:0.8;" x="372.381051" xlink:href="#mb2474c6f2d" y="224.64"/>
      </g>
     </g>
     <g id="text_5">
      <!-- 20 -->
      <g transform="translate(366.018551 239.238437)scale(0.1 -0.1)">
       <defs>
        <path d="M 19.1875 8.296875 
L 53.609375 8.296875 
L 53.609375 0 
L 7.328125 0 
L 7.328125 8.296875 
Q 12.9375 14.109375 22.625 23.890625 
Q 32.328125 33.6875 34.8125 36.53125 
Q 39.546875 41.84375 41.421875 45.53125 
Q 43.3125 49.21875 43.3125 52.78125 
Q 43.3125 58.59375 39.234375 62.25 
Q 35.15625 65.921875 28.609375 65.921875 
Q 23.96875 65.921875 18.8125 64.3125 
Q 13.671875 62.703125 7.8125 59.421875 
L 7.8125 69.390625 
Q 13.765625 71.78125 18.9375 73 
Q 24.125 74.21875 28.421875 74.21875 
Q 39.75 74.21875 46.484375 68.546875 
Q 53.21875 62.890625 53.21875 53.421875 
Q 53.21875 48.921875 51.53125 44.890625 
Q 49.859375 40.875 45.40625 35.40625 
Q 44.1875 33.984375 37.640625 27.21875 
Q 31.109375 20.453125 19.1875 8.296875 
z
" id="DejaVuSans-50"/>
       </defs>
       <use xlink:href="#DejaVuSans-50"/>
       <use x="63.623047" xlink:href="#DejaVuSans-48"/>
      </g>
     </g>
    </g>
    <g id="text_6">
     <!-- f(t) -->
     <g transform="translate(209.921875 252.916562)scale(0.1 -0.1)">
      <defs>
       <path d="M 37.109375 75.984375 
L 37.109375 68.5 
L 28.515625 68.5 
Q 23.6875 68.5 21.796875 66.546875 
Q 19.921875 64.59375 19.921875 59.515625 
L 19.921875 54.6875 
L 34.71875 54.6875 
L 34.71875 47.703125 
L 19.921875 47.703125 
L 19.921875 0 
L 10.890625 0 
L 10.890625 47.703125 
L 2.296875 47.703125 
L 2.296875 54.6875 
L 10.890625 54.6875 
L 10.890625 58.5 
Q 10.890625 67.625 15.140625 71.796875 
Q 19.390625 75.984375 28.609375 75.984375 
z
" id="DejaVuSans-102"/>
       <path d="M 31 75.875 
Q 24.46875 64.65625 21.28125 53.65625 
Q 18.109375 42.671875 18.109375 31.390625 
Q 18.109375 20.125 21.3125 9.0625 
Q 24.515625 -2 31 -13.1875 
L 23.1875 -13.1875 
Q 15.875 -1.703125 12.234375 9.375 
Q 8.59375 20.453125 8.59375 31.390625 
Q 8.59375 42.28125 12.203125 53.3125 
Q 15.828125 64.359375 23.1875 75.875 
z
" id="DejaVuSans-40"/>
       <path d="M 18.3125 70.21875 
L 18.3125 54.6875 
L 36.8125 54.6875 
L 36.8125 47.703125 
L 18.3125 47.703125 
L 18.3125 18.015625 
Q 18.3125 11.328125 20.140625 9.421875 
Q 21.96875 7.515625 27.59375 7.515625 
L 36.8125 7.515625 
L 36.8125 0 
L 27.59375 0 
Q 17.1875 0 13.234375 3.875 
Q 9.28125 7.765625 9.28125 18.015625 
L 9.28125 47.703125 
L 2.6875 47.703125 
L 2.6875 54.6875 
L 9.28125 54.6875 
L 9.28125 70.21875 
z
" id="DejaVuSans-116"/>
       <path d="M 8.015625 75.875 
L 15.828125 75.875 
Q 23.140625 64.359375 26.78125 53.3125 
Q 30.421875 42.28125 30.421875 31.390625 
Q 30.421875 20.453125 26.78125 9.375 
Q 23.140625 -1.703125 15.828125 -13.1875 
L 8.015625 -13.1875 
Q 14.5 -2 17.703125 9.0625 
Q 20.90625 20.125 20.90625 31.390625 
Q 20.90625 42.671875 17.703125 53.65625 
Q 14.5 64.65625 8.015625 75.875 
z
" id="DejaVuSans-41"/>
      </defs>
      <use xlink:href="#DejaVuSans-102"/>
      <use x="35.205078" xlink:href="#DejaVuSans-40"/>
      <use x="74.21875" xlink:href="#DejaVuSans-116"/>
      <use x="113.427734" xlink:href="#DejaVuSans-41"/>
     </g>
    </g>
   </g>
   <g id="matplotlib.axis_2">
    <g id="ytick_1">
     <g id="line2d_6">
      <defs>
       <path d="M 0 0 
L -3.5 0 
" id="m37d4e9149b" style="stroke:#000000;stroke-width:0.8;"/>
      </defs>
      <g>
       <use style="stroke:#000000;stroke-width:0.8;" x="50.14375" xlink:href="#m37d4e9149b" y="224.64"/>
      </g>
     </g>
     <g id="text_7">
      <!-- 0.00 -->
      <g transform="translate(20.878125 228.439219)scale(0.1 -0.1)">
       <defs>
        <path d="M 10.6875 12.40625 
L 21 12.40625 
L 21 0 
L 10.6875 0 
z
" id="DejaVuSans-46"/>
       </defs>
       <use xlink:href="#DejaVuSans-48"/>
       <use x="63.623047" xlink:href="#DejaVuSans-46"/>
       <use x="95.410156" xlink:href="#DejaVuSans-48"/>
       <use x="159.033203" xlink:href="#DejaVuSans-48"/>
      </g>
     </g>
    </g>
    <g id="ytick_2">
     <g id="line2d_7">
      <g>
       <use style="stroke:#000000;stroke-width:0.8;" x="50.14375" xlink:href="#m37d4e9149b" y="198.393818"/>
      </g>
     </g>
     <g id="text_8">
      <!-- 0.25 -->
      <g transform="translate(20.878125 202.193037)scale(0.1 -0.1)">
       <use xlink:href="#DejaVuSans-48"/>
       <use x="63.623047" xlink:href="#DejaVuSans-46"/>
       <use x="95.410156" xlink:href="#DejaVuSans-50"/>
       <use x="159.033203" xlink:href="#DejaVuSans-53"/>
      </g>
     </g>
    </g>
    <g id="ytick_3">
     <g id="line2d_8">
      <g>
       <use style="stroke:#000000;stroke-width:0.8;" x="50.14375" xlink:href="#m37d4e9149b" y="172.147636"/>
      </g>
     </g>
     <g id="text_9">
      <!-- 0.50 -->
      <g transform="translate(20.878125 175.946855)scale(0.1 -0.1)">
       <use xlink:href="#DejaVuSans-48"/>
       <use x="63.623047" xlink:href="#DejaVuSans-46"/>
       <use x="95.410156" xlink:href="#DejaVuSans-53"/>
       <use x="159.033203" xlink:href="#DejaVuSans-48"/>
      </g>
     </g>
    </g>
    <g id="ytick_4">
     <g id="line2d_9">
      <g>
       <use style="stroke:#000000;stroke-width:0.8;" x="50.14375" xlink:href="#m37d4e9149b" y="145.901454"/>
      </g>
     </g>
     <g id="text_10">
      <!-- 0.75 -->
      <g transform="translate(20.878125 149.700673)scale(0.1 -0.1)">
       <defs>
        <path d="M 8.203125 72.90625 
L 55.078125 72.90625 
L 55.078125 68.703125 
L 28.609375 0 
L 18.3125 0 
L 43.21875 64.59375 
L 8.203125 64.59375 
z
" id="DejaVuSans-55"/>
       </defs>
       <use xlink:href="#DejaVuSans-48"/>
       <use x="63.623047" xlink:href="#DejaVuSans-46"/>
       <use x="95.410156" xlink:href="#DejaVuSans-55"/>
       <use x="159.033203" xlink:href="#DejaVuSans-53"/>
      </g>
     </g>
    </g>
    <g id="ytick_5">
     <g id="line2d_10">
      <g>
       <use style="stroke:#000000;stroke-width:0.8;" x="50.14375" xlink:href="#m37d4e9149b" y="119.655272"/>
      </g>
     </g>
     <g id="text_11">
      <!-- 1.00 -->
      <g transform="translate(20.878125 123.454491)scale(0.1 -0.1)">
       <use xlink:href="#DejaVuSans-49"/>
       <use x="63.623047" xlink:href="#DejaVuSans-46"/>
       <use x="95.410156" xlink:href="#DejaVuSans-48"/>
       <use x="159.033203" xlink:href="#DejaVuSans-48"/>
      </g>
     </g>
    </g>
    <g id="ytick_6">
     <g id="line2d_11">
      <g>
       <use style="stroke:#000000;stroke-width:0.8;" x="50.14375" xlink:href="#m37d4e9149b" y="93.409091"/>
      </g>
     </g>
     <g id="text_12">
      <!-- 1.25 -->
      <g transform="translate(20.878125 97.208309)scale(0.1 -0.1)">
       <use xlink:href="#DejaVuSans-49"/>
       <use x="63.623047" xlink:href="#DejaVuSans-46"/>
       <use x="95.410156" xlink:href="#DejaVuSans-50"/>
       <use x="159.033203" xlink:href="#DejaVuSans-53"/>
      </g>
     </g>
    </g>
    <g id="ytick_7">
     <g id="line2d_12">
      <g>
       <use style="stroke:#000000;stroke-width:0.8;" x="50.14375" xlink:href="#m37d4e9149b" y="67.162909"/>
      </g>
     </g>
     <g id="text_13">
      <!-- 1.50 -->
      <g transform="translate(20.878125 70.962127)scale(0.1 -0.1)">
       <use xlink:href="#DejaVuSans-49"/>
       <use x="63.623047" xlink:href="#DejaVuSans-46"/>
       <use x="95.410156" xlink:href="#DejaVuSans-53"/>
       <use x="159.033203" xlink:href="#DejaVuSans-48"/>
      </g>
     </g>
    </g>
    <g id="ytick_8">
     <g id="line2d_13">
      <g>
       <use style="stroke:#000000;stroke-width:0.8;" x="50.14375" xlink:href="#m37d4e9149b" y="40.916727"/>
      </g>
     </g>
     <g id="text_14">
      <!-- 1.75 -->
      <g transform="translate(20.878125 44.715946)scale(0.1 -0.1)">
       <use xlink:href="#DejaVuSans-49"/>
       <use x="63.623047" xlink:href="#DejaVuSans-46"/>
       <use x="95.410156" xlink:href="#DejaVuSans-55"/>
       <use x="159.033203" xlink:href="#DejaVuSans-53"/>
      </g>
     </g>
    </g>
    <g id="ytick_9">
     <g id="line2d_14">
      <g>
       <use style="stroke:#000000;stroke-width:0.8;" x="50.14375" xlink:href="#m37d4e9149b" y="14.670545"/>
      </g>
     </g>
     <g id="text_15">
      <!-- 2.00 -->
      <g transform="translate(20.878125 18.469764)scale(0.1 -0.1)">
       <use xlink:href="#DejaVuSans-50"/>
       <use x="63.623047" xlink:href="#DejaVuSans-46"/>
       <use x="95.410156" xlink:href="#DejaVuSans-48"/>
       <use x="159.033203" xlink:href="#DejaVuSans-48"/>
      </g>
     </g>
    </g>
    <g id="text_16">
     <!-- Density -->
     <g transform="translate(14.798438 134.928594)rotate(-90)scale(0.1 -0.1)">
      <defs>
       <path d="M 19.671875 64.796875 
L 19.671875 8.109375 
L 31.59375 8.109375 
Q 46.6875 8.109375 53.6875 14.9375 
Q 60.6875 21.78125 60.6875 36.53125 
Q 60.6875 51.171875 53.6875 57.984375 
Q 46.6875 64.796875 31.59375 64.796875 
z
M 9.8125 72.90625 
L 30.078125 72.90625 
Q 51.265625 72.90625 61.171875 64.09375 
Q 71.09375 55.28125 71.09375 36.53125 
Q 71.09375 17.671875 61.125 8.828125 
Q 51.171875 0 30.078125 0 
L 9.8125 0 
z
" id="DejaVuSans-68"/>
       <path d="M 56.203125 29.59375 
L 56.203125 25.203125 
L 14.890625 25.203125 
Q 15.484375 15.921875 20.484375 11.0625 
Q 25.484375 6.203125 34.421875 6.203125 
Q 39.59375 6.203125 44.453125 7.46875 
Q 49.3125 8.734375 54.109375 11.28125 
L 54.109375 2.78125 
Q 49.265625 0.734375 44.1875 -0.34375 
Q 39.109375 -1.421875 33.890625 -1.421875 
Q 20.796875 -1.421875 13.15625 6.1875 
Q 5.515625 13.8125 5.515625 26.8125 
Q 5.515625 40.234375 12.765625 48.109375 
Q 20.015625 56 32.328125 56 
Q 43.359375 56 49.78125 48.890625 
Q 56.203125 41.796875 56.203125 29.59375 
z
M 47.21875 32.234375 
Q 47.125 39.59375 43.09375 43.984375 
Q 39.0625 48.390625 32.421875 48.390625 
Q 24.90625 48.390625 20.390625 44.140625 
Q 15.875 39.890625 15.1875 32.171875 
z
" id="DejaVuSans-101"/>
       <path d="M 54.890625 33.015625 
L 54.890625 0 
L 45.90625 0 
L 45.90625 32.71875 
Q 45.90625 40.484375 42.875 44.328125 
Q 39.84375 48.1875 33.796875 48.1875 
Q 26.515625 48.1875 22.3125 43.546875 
Q 18.109375 38.921875 18.109375 30.90625 
L 18.109375 0 
L 9.078125 0 
L 9.078125 54.6875 
L 18.109375 54.6875 
L 18.109375 46.1875 
Q 21.34375 51.125 25.703125 53.5625 
Q 30.078125 56 35.796875 56 
Q 45.21875 56 50.046875 50.171875 
Q 54.890625 44.34375 54.890625 33.015625 
z
" id="DejaVuSans-110"/>
       <path d="M 44.28125 53.078125 
L 44.28125 44.578125 
Q 40.484375 46.53125 36.375 47.5 
Q 32.28125 48.484375 27.875 48.484375 
Q 21.1875 48.484375 17.84375 46.4375 
Q 14.5 44.390625 14.5 40.28125 
Q 14.5 37.15625 16.890625 35.375 
Q 19.28125 33.59375 26.515625 31.984375 
L 29.59375 31.296875 
Q 39.15625 29.25 43.1875 25.515625 
Q 47.21875 21.78125 47.21875 15.09375 
Q 47.21875 7.46875 41.1875 3.015625 
Q 35.15625 -1.421875 24.609375 -1.421875 
Q 20.21875 -1.421875 15.453125 -0.5625 
Q 10.6875 0.296875 5.421875 2 
L 5.421875 11.28125 
Q 10.40625 8.6875 15.234375 7.390625 
Q 20.0625 6.109375 24.8125 6.109375 
Q 31.15625 6.109375 34.5625 8.28125 
Q 37.984375 10.453125 37.984375 14.40625 
Q 37.984375 18.0625 35.515625 20.015625 
Q 33.0625 21.96875 24.703125 23.78125 
L 21.578125 24.515625 
Q 13.234375 26.265625 9.515625 29.90625 
Q 5.8125 33.546875 5.8125 39.890625 
Q 5.8125 47.609375 11.28125 51.796875 
Q 16.75 56 26.8125 56 
Q 31.78125 56 36.171875 55.265625 
Q 40.578125 54.546875 44.28125 53.078125 
z
" id="DejaVuSans-115"/>
       <path d="M 9.421875 54.6875 
L 18.40625 54.6875 
L 18.40625 0 
L 9.421875 0 
z
M 9.421875 75.984375 
L 18.40625 75.984375 
L 18.40625 64.59375 
L 9.421875 64.59375 
z
" id="DejaVuSans-105"/>
       <path d="M 32.171875 -5.078125 
Q 28.375 -14.84375 24.75 -17.8125 
Q 21.140625 -20.796875 15.09375 -20.796875 
L 7.90625 -20.796875 
L 7.90625 -13.28125 
L 13.1875 -13.28125 
Q 16.890625 -13.28125 18.9375 -11.515625 
Q 21 -9.765625 23.484375 -3.21875 
L 25.09375 0.875 
L 2.984375 54.6875 
L 12.5 54.6875 
L 29.59375 11.921875 
L 46.6875 54.6875 
L 56.203125 54.6875 
z
" id="DejaVuSans-121"/>
      </defs>
      <use xlink:href="#DejaVuSans-68"/>
      <use x="77.001953" xlink:href="#DejaVuSans-101"/>
      <use x="138.525391" xlink:href="#DejaVuSans-110"/>
      <use x="201.904297" xlink:href="#DejaVuSans-115"/>
      <use x="254.003906" xlink:href="#DejaVuSans-105"/>
      <use x="281.787109" xlink:href="#DejaVuSans-116"/>
      <use x="320.996094" xlink:href="#DejaVuSans-121"/>
     </g>
    </g>
   </g>
   <g id="line2d_15">
    <path clip-path="url(#pe3421d2a94)" d="M 68.86666 224.631876 
L 75.590294 224.499479 
L 78.279748 224.290665 
L 80.969201 223.872484 
L 83.658655 223.13899 
L 86.348109 222.002004 
L 89.037563 220.42072 
L 91.727016 218.40068 
L 94.41647 215.957658 
L 97.105924 213.083052 
L 99.795377 209.756471 
L 102.484831 206.004886 
L 110.553192 194.059614 
L 111.897919 192.400387 
L 113.242646 190.976891 
L 114.587373 189.84331 
L 115.9321 189.046589 
L 117.276827 188.621079 
L 118.621554 188.58384 
L 119.966281 188.931728 
L 121.311007 189.641054 
L 122.655734 190.669987 
L 124.000461 191.963219 
L 126.689915 195.089724 
L 133.413549 203.464384 
L 136.103003 206.301538 
L 138.792457 208.706941 
L 141.48191 210.747402 
L 145.516091 213.417385 
L 150.894998 216.691824 
L 153.584452 218.141333 
L 156.273906 219.350253 
L 158.96336 220.265911 
L 161.652813 220.895733 
L 164.342267 221.303547 
L 169.721175 221.821678 
L 188.547351 223.387192 
L 193.926258 223.69088 
L 199.305166 223.755413 
L 208.718254 223.830578 
L 226.199703 224.175375 
L 245.025879 224.224332 
L 255.783694 224.524418 
L 263.852055 224.42867 
L 274.60987 224.297016 
L 285.367685 224.504251 
L 293.436046 224.520403 
L 305.538588 224.484824 
L 336.467306 224.639028 
L 336.467306 224.639028 
" style="fill:none;stroke:#1f77b4;stroke-linecap:square;stroke-width:1.5;"/>
   </g>
   <g id="line2d_16">
    <path clip-path="url(#pe3421d2a94)" d="M 65.361932 224.462226 
L 66.891397 224.301568 
L 68.420863 224.021364 
L 69.950328 223.553889 
L 71.479794 222.808006 
L 73.009259 221.670143 
L 74.538725 220.011058 
L 76.06819 217.7 
L 77.597656 214.62636 
L 79.127121 210.72661 
L 80.656587 206.011879 
L 82.186052 200.589565 
L 88.303914 177.333639 
L 89.83338 172.980758 
L 91.362845 169.898128 
L 92.892311 168.276935 
L 94.421776 168.178979 
L 95.951242 169.537789 
L 97.480708 172.177023 
L 99.010173 175.840786 
L 100.539639 180.229444 
L 106.657501 199.325735 
L 108.186966 203.436773 
L 109.716432 207.064022 
L 111.245897 210.190106 
L 112.775363 212.832864 
L 114.304828 215.032217 
L 115.834294 216.838778 
L 117.363759 218.30546 
L 118.893225 219.482358 
L 120.42269 220.414392 
L 121.952156 221.140826 
L 123.481621 221.695748 
L 125.011087 222.108834 
L 128.070018 222.609985 
L 131.128949 222.814729 
L 135.717345 222.837956 
L 143.364673 222.804654 
L 149.482535 223.074714 
L 158.659328 223.60054 
L 164.77719 223.663329 
L 175.483448 223.582698 
L 183.130776 223.924494 
L 190.778104 224.163769 
L 209.13169 224.288277 
L 227.485276 224.394211 
L 241.250465 224.150099 
L 271.839776 224.354517 
L 293.252293 224.389382 
L 314.66481 224.585369 
L 346.783586 224.559036 
L 369.725568 224.639098 
L 369.725568 224.639098 
" style="fill:none;stroke:#ff7f0e;stroke-linecap:square;stroke-width:1.5;"/>
   </g>
   <g id="line2d_17">
    <path clip-path="url(#pe3421d2a94)" d="M 70.569792 224.035599 
L 71.824412 223.479355 
L 73.079032 222.517844 
L 74.333653 220.944902 
L 75.588273 218.511874 
L 76.842893 214.957571 
L 78.097513 210.061198 
L 79.352133 203.713473 
L 80.606753 195.991163 
L 85.625234 161.089509 
L 86.879854 155.138696 
L 88.134474 151.666595 
L 89.389094 150.916938 
L 90.643715 152.779915 
L 91.898335 156.842094 
L 93.152955 162.496513 
L 98.171436 188.95571 
L 99.426056 194.558156 
L 100.680676 199.447775 
L 101.935296 203.631448 
L 103.189916 207.15218 
L 104.444536 210.068437 
L 105.699156 212.444293 
L 106.953777 214.346285 
L 108.208397 215.842797 
L 109.463017 217.003216 
L 110.717637 217.895728 
L 111.972257 218.583912 
L 114.481498 219.556607 
L 116.990738 220.218464 
L 119.499978 220.684639 
L 123.263839 221.081543 
L 129.536939 221.571261 
L 135.81004 222.237624 
L 139.573901 222.340699 
L 147.101622 222.417129 
L 155.883963 222.771254 
L 160.902443 223.243954 
L 167.175544 223.85653 
L 172.194025 224.073987 
L 180.976366 224.188047 
L 196.031808 224.160838 
L 233.670412 224.407349 
L 243.707374 224.374968 
L 256.253575 224.606652 
L 276.327498 224.619704 
L 293.89218 224.614606 
L 308.947622 224.574839 
L 320.239203 224.638819 
L 320.239203 224.638819 
" style="fill:none;stroke:#2ca02c;stroke-linecap:square;stroke-width:1.5;"/>
   </g>
   <g id="patch_153">
    <path d="M 50.14375 224.64 
L 50.14375 7.2 
" style="fill:none;stroke:#000000;stroke-linecap:square;stroke-linejoin:miter;stroke-width:0.8;"/>
   </g>
   <g id="patch_154">
    <path d="M 384.94375 224.64 
L 384.94375 7.2 
" style="fill:none;stroke:#000000;stroke-linecap:square;stroke-linejoin:miter;stroke-width:0.8;"/>
   </g>
   <g id="patch_155">
    <path d="M 50.14375 224.64 
L 384.94375 224.64 
" style="fill:none;stroke:#000000;stroke-linecap:square;stroke-linejoin:miter;stroke-width:0.8;"/>
   </g>
   <g id="patch_156">
    <path d="M 50.14375 7.2 
L 384.94375 7.2 
" style="fill:none;stroke:#000000;stroke-linecap:square;stroke-linejoin:miter;stroke-width:0.8;"/>
   </g>
  </g>
 </g>
 <defs>
  <clipPath id="pe3421d2a94">
   <rect height="217.44" width="334.8" x="50.14375" y="7.2"/>
  </clipPath>
 </defs>
</svg>
