<?xml version="1.0" encoding="utf-8" standalone="no"?>
<!DOCTYPE svg PUBLIC "-//W3C//DTD SVG 1.1//EN"
  "http://www.w3.org/Graphics/SVG/1.1/DTD/svg11.dtd">
<!-- Created with matplotlib (https://matplotlib.org/) -->
<svg height="262.19625pt" version="1.1" viewBox="0 0 396.538627 262.19625" width="396.538627pt" xmlns="http://www.w3.org/2000/svg" xmlns:xlink="http://www.w3.org/1999/xlink">
 <metadata>
  <rdf:RDF xmlns:cc="http://creativecommons.org/ns#" xmlns:dc="http://purl.org/dc/elements/1.1/" xmlns:rdf="http://www.w3.org/1999/02/22-rdf-syntax-ns#">
   <cc:Work>
    <dc:type rdf:resource="http://purl.org/dc/dcmitype/StillImage"/>
    <dc:date>2021-01-27T15:39:04.166817</dc:date>
    <dc:format>image/svg+xml</dc:format>
    <dc:creator>
     <cc:Agent>
      <dc:title>Matplotlib v3.3.3, https://matplotlib.org/</dc:title>
     </cc:Agent>
    </dc:creator>
   </cc:Work>
  </rdf:RDF>
 </metadata>
 <defs>
  <style type="text/css">*{stroke-linecap:butt;stroke-linejoin:round;}</style>
 </defs>
 <g id="figure_1">
  <g id="patch_1">
   <path d="M 0 262.19625 
L 396.538627 262.19625 
L 396.538627 0 
L 0 0 
z
" style="fill:none;"/>
  </g>
  <g id="axes_1">
   <g id="patch_2">
    <path d="M 43.78125 224.64 
L 378.58125 224.64 
L 378.58125 7.2 
L 43.78125 7.2 
z
" style="fill:#ffffff;"/>
   </g>
   <g id="patch_3">
    <path clip-path="url(#p4936042d1f)" d="M 81.492065 224.64 
L 86.435798 224.64 
L 86.435798 219.531789 
L 81.492065 219.531789 
z
" style="fill:#1f77b4;opacity:0.4;"/>
   </g>
   <g id="patch_4">
    <path clip-path="url(#p4936042d1f)" d="M 86.435798 224.64 
L 91.379532 224.64 
L 91.379532 214.707368 
L 86.435798 214.707368 
z
" style="fill:#1f77b4;opacity:0.4;"/>
   </g>
   <g id="patch_5">
    <path clip-path="url(#p4936042d1f)" d="M 91.379532 224.64 
L 96.323265 224.64 
L 96.323265 211.301894 
L 91.379532 211.301894 
z
" style="fill:#1f77b4;opacity:0.4;"/>
   </g>
   <g id="patch_6">
    <path clip-path="url(#p4936042d1f)" d="M 96.323265 224.64 
L 101.266999 224.64 
L 101.266999 206.761262 
L 96.323265 206.761262 
z
" style="fill:#1f77b4;opacity:0.4;"/>
   </g>
   <g id="patch_7">
    <path clip-path="url(#p4936042d1f)" d="M 101.266999 224.64 
L 106.210732 224.64 
L 106.210732 200.234103 
L 101.266999 200.234103 
z
" style="fill:#1f77b4;opacity:0.4;"/>
   </g>
   <g id="patch_8">
    <path clip-path="url(#p4936042d1f)" d="M 106.210732 224.64 
L 111.154466 224.64 
L 111.154466 193.706945 
L 106.210732 193.706945 
z
" style="fill:#1f77b4;opacity:0.4;"/>
   </g>
   <g id="patch_9">
    <path clip-path="url(#p4936042d1f)" d="M 111.154466 224.64 
L 116.098199 224.64 
L 116.098199 185.477049 
L 111.154466 185.477049 
z
" style="fill:#1f77b4;opacity:0.4;"/>
   </g>
   <g id="patch_10">
    <path clip-path="url(#p4936042d1f)" d="M 116.098199 224.64 
L 121.041933 224.64 
L 121.041933 198.815156 
L 116.098199 198.815156 
z
" style="fill:#1f77b4;opacity:0.4;"/>
   </g>
   <g id="patch_11">
    <path clip-path="url(#p4936042d1f)" d="M 121.041933 224.64 
L 125.985667 224.64 
L 125.985667 200.234103 
L 121.041933 200.234103 
z
" style="fill:#1f77b4;opacity:0.4;"/>
   </g>
   <g id="patch_12">
    <path clip-path="url(#p4936042d1f)" d="M 125.985667 224.64 
L 130.9294 224.64 
L 130.9294 205.058525 
L 125.985667 205.058525 
z
" style="fill:#1f77b4;opacity:0.4;"/>
   </g>
   <g id="patch_13">
    <path clip-path="url(#p4936042d1f)" d="M 130.9294 224.64 
L 135.873134 224.64 
L 135.873134 211.869473 
L 130.9294 211.869473 
z
" style="fill:#1f77b4;opacity:0.4;"/>
   </g>
   <g id="patch_14">
    <path clip-path="url(#p4936042d1f)" d="M 135.873134 224.64 
L 140.816867 224.64 
L 140.816867 203.923367 
L 135.873134 203.923367 
z
" style="fill:#1f77b4;opacity:0.4;"/>
   </g>
   <g id="patch_15">
    <path clip-path="url(#p4936042d1f)" d="M 140.816867 224.64 
L 145.760601 224.64 
L 145.760601 216.410105 
L 140.816867 216.410105 
z
" style="fill:#1f77b4;opacity:0.4;"/>
   </g>
   <g id="patch_16">
    <path clip-path="url(#p4936042d1f)" d="M 145.760601 224.64 
L 150.704334 224.64 
L 150.704334 218.112842 
L 145.760601 218.112842 
z
" style="fill:#1f77b4;opacity:0.4;"/>
   </g>
   <g id="patch_17">
    <path clip-path="url(#p4936042d1f)" d="M 150.704334 224.64 
L 155.648068 224.64 
L 155.648068 220.950737 
L 150.704334 220.950737 
z
" style="fill:#1f77b4;opacity:0.4;"/>
   </g>
   <g id="patch_18">
    <path clip-path="url(#p4936042d1f)" d="M 155.648068 224.64 
L 160.591801 224.64 
L 160.591801 221.518316 
L 155.648068 221.518316 
z
" style="fill:#1f77b4;opacity:0.4;"/>
   </g>
   <g id="patch_19">
    <path clip-path="url(#p4936042d1f)" d="M 160.591801 224.64 
L 165.535535 224.64 
L 165.535535 222.369684 
L 160.591801 222.369684 
z
" style="fill:#1f77b4;opacity:0.4;"/>
   </g>
   <g id="patch_20">
    <path clip-path="url(#p4936042d1f)" d="M 165.535535 224.64 
L 170.479268 224.64 
L 170.479268 222.653474 
L 165.535535 222.653474 
z
" style="fill:#1f77b4;opacity:0.4;"/>
   </g>
   <g id="patch_21">
    <path clip-path="url(#p4936042d1f)" d="M 170.479268 224.64 
L 175.423002 224.64 
L 175.423002 222.369684 
L 170.479268 222.369684 
z
" style="fill:#1f77b4;opacity:0.4;"/>
   </g>
   <g id="patch_22">
    <path clip-path="url(#p4936042d1f)" d="M 175.423002 224.64 
L 180.366735 224.64 
L 180.366735 223.788632 
L 175.423002 223.788632 
z
" style="fill:#1f77b4;opacity:0.4;"/>
   </g>
   <g id="patch_23">
    <path clip-path="url(#p4936042d1f)" d="M 180.366735 224.64 
L 185.310469 224.64 
L 185.310469 223.221053 
L 180.366735 223.221053 
z
" style="fill:#1f77b4;opacity:0.4;"/>
   </g>
   <g id="patch_24">
    <path clip-path="url(#p4936042d1f)" d="M 185.310469 224.64 
L 190.254202 224.64 
L 190.254202 222.937263 
L 185.310469 222.937263 
z
" style="fill:#1f77b4;opacity:0.4;"/>
   </g>
   <g id="patch_25">
    <path clip-path="url(#p4936042d1f)" d="M 190.254202 224.64 
L 195.197936 224.64 
L 195.197936 223.788632 
L 190.254202 223.788632 
z
" style="fill:#1f77b4;opacity:0.4;"/>
   </g>
   <g id="patch_26">
    <path clip-path="url(#p4936042d1f)" d="M 195.197936 224.64 
L 200.14167 224.64 
L 200.14167 223.504842 
L 195.197936 223.504842 
z
" style="fill:#1f77b4;opacity:0.4;"/>
   </g>
   <g id="patch_27">
    <path clip-path="url(#p4936042d1f)" d="M 200.14167 224.64 
L 205.085403 224.64 
L 205.085403 224.072421 
L 200.14167 224.072421 
z
" style="fill:#1f77b4;opacity:0.4;"/>
   </g>
   <g id="patch_28">
    <path clip-path="url(#p4936042d1f)" d="M 205.085403 224.64 
L 210.029137 224.64 
L 210.029137 223.504842 
L 205.085403 223.504842 
z
" style="fill:#1f77b4;opacity:0.4;"/>
   </g>
   <g id="patch_29">
    <path clip-path="url(#p4936042d1f)" d="M 210.029137 224.64 
L 214.97287 224.64 
L 214.97287 223.788632 
L 210.029137 223.788632 
z
" style="fill:#1f77b4;opacity:0.4;"/>
   </g>
   <g id="patch_30">
    <path clip-path="url(#p4936042d1f)" d="M 214.97287 224.64 
L 219.916604 224.64 
L 219.916604 223.788632 
L 214.97287 223.788632 
z
" style="fill:#1f77b4;opacity:0.4;"/>
   </g>
   <g id="patch_31">
    <path clip-path="url(#p4936042d1f)" d="M 219.916604 224.64 
L 224.860337 224.64 
L 224.860337 224.64 
L 219.916604 224.64 
z
" style="fill:#1f77b4;opacity:0.4;"/>
   </g>
   <g id="patch_32">
    <path clip-path="url(#p4936042d1f)" d="M 224.860337 224.64 
L 229.804071 224.64 
L 229.804071 224.356211 
L 224.860337 224.356211 
z
" style="fill:#1f77b4;opacity:0.4;"/>
   </g>
   <g id="patch_33">
    <path clip-path="url(#p4936042d1f)" d="M 229.804071 224.64 
L 234.747804 224.64 
L 234.747804 224.356211 
L 229.804071 224.356211 
z
" style="fill:#1f77b4;opacity:0.4;"/>
   </g>
   <g id="patch_34">
    <path clip-path="url(#p4936042d1f)" d="M 234.747804 224.64 
L 239.691538 224.64 
L 239.691538 224.356211 
L 234.747804 224.356211 
z
" style="fill:#1f77b4;opacity:0.4;"/>
   </g>
   <g id="patch_35">
    <path clip-path="url(#p4936042d1f)" d="M 239.691538 224.64 
L 244.635271 224.64 
L 244.635271 224.64 
L 239.691538 224.64 
z
" style="fill:#1f77b4;opacity:0.4;"/>
   </g>
   <g id="patch_36">
    <path clip-path="url(#p4936042d1f)" d="M 244.635271 224.64 
L 249.579005 224.64 
L 249.579005 224.072421 
L 244.635271 224.072421 
z
" style="fill:#1f77b4;opacity:0.4;"/>
   </g>
   <g id="patch_37">
    <path clip-path="url(#p4936042d1f)" d="M 249.579005 224.64 
L 254.522738 224.64 
L 254.522738 224.64 
L 249.579005 224.64 
z
" style="fill:#1f77b4;opacity:0.4;"/>
   </g>
   <g id="patch_38">
    <path clip-path="url(#p4936042d1f)" d="M 254.522738 224.64 
L 259.466472 224.64 
L 259.466472 224.64 
L 254.522738 224.64 
z
" style="fill:#1f77b4;opacity:0.4;"/>
   </g>
   <g id="patch_39">
    <path clip-path="url(#p4936042d1f)" d="M 259.466472 224.64 
L 264.410205 224.64 
L 264.410205 224.64 
L 259.466472 224.64 
z
" style="fill:#1f77b4;opacity:0.4;"/>
   </g>
   <g id="patch_40">
    <path clip-path="url(#p4936042d1f)" d="M 264.410205 224.64 
L 269.353939 224.64 
L 269.353939 224.64 
L 264.410205 224.64 
z
" style="fill:#1f77b4;opacity:0.4;"/>
   </g>
   <g id="patch_41">
    <path clip-path="url(#p4936042d1f)" d="M 269.353939 224.64 
L 274.297673 224.64 
L 274.297673 224.64 
L 269.353939 224.64 
z
" style="fill:#1f77b4;opacity:0.4;"/>
   </g>
   <g id="patch_42">
    <path clip-path="url(#p4936042d1f)" d="M 274.297673 224.64 
L 279.241406 224.64 
L 279.241406 224.64 
L 274.297673 224.64 
z
" style="fill:#1f77b4;opacity:0.4;"/>
   </g>
   <g id="patch_43">
    <path clip-path="url(#p4936042d1f)" d="M 279.241406 224.64 
L 284.18514 224.64 
L 284.18514 224.072421 
L 279.241406 224.072421 
z
" style="fill:#1f77b4;opacity:0.4;"/>
   </g>
   <g id="patch_44">
    <path clip-path="url(#p4936042d1f)" d="M 284.18514 224.64 
L 289.128873 224.64 
L 289.128873 224.64 
L 284.18514 224.64 
z
" style="fill:#1f77b4;opacity:0.4;"/>
   </g>
   <g id="patch_45">
    <path clip-path="url(#p4936042d1f)" d="M 289.128873 224.64 
L 294.072607 224.64 
L 294.072607 224.64 
L 289.128873 224.64 
z
" style="fill:#1f77b4;opacity:0.4;"/>
   </g>
   <g id="patch_46">
    <path clip-path="url(#p4936042d1f)" d="M 294.072607 224.64 
L 299.01634 224.64 
L 299.01634 224.64 
L 294.072607 224.64 
z
" style="fill:#1f77b4;opacity:0.4;"/>
   </g>
   <g id="patch_47">
    <path clip-path="url(#p4936042d1f)" d="M 299.01634 224.64 
L 303.960074 224.64 
L 303.960074 224.356211 
L 299.01634 224.356211 
z
" style="fill:#1f77b4;opacity:0.4;"/>
   </g>
   <g id="patch_48">
    <path clip-path="url(#p4936042d1f)" d="M 79.265858 224.64 
L 84.542474 224.64 
L 84.542474 134.238669 
L 79.265858 134.238669 
z
" style="fill:#ff7f0e;opacity:0.4;"/>
   </g>
   <g id="patch_49">
    <path clip-path="url(#p4936042d1f)" d="M 84.542474 224.64 
L 89.819089 224.64 
L 89.819089 156.307229 
L 84.542474 156.307229 
z
" style="fill:#ff7f0e;opacity:0.4;"/>
   </g>
   <g id="patch_50">
    <path clip-path="url(#p4936042d1f)" d="M 89.819089 224.64 
L 95.095705 224.64 
L 95.095705 168.272111 
L 89.819089 168.272111 
z
" style="fill:#ff7f0e;opacity:0.4;"/>
   </g>
   <g id="patch_51">
    <path clip-path="url(#p4936042d1f)" d="M 95.095705 224.64 
L 100.372321 224.64 
L 100.372321 212.143345 
L 95.095705 212.143345 
z
" style="fill:#ff7f0e;opacity:0.4;"/>
   </g>
   <g id="patch_52">
    <path clip-path="url(#p4936042d1f)" d="M 100.372321 224.64 
L 105.648936 224.64 
L 105.648936 214.270436 
L 100.372321 214.270436 
z
" style="fill:#ff7f0e;opacity:0.4;"/>
   </g>
   <g id="patch_53">
    <path clip-path="url(#p4936042d1f)" d="M 105.648936 224.64 
L 110.925552 224.64 
L 110.925552 220.38582 
L 105.648936 220.38582 
z
" style="fill:#ff7f0e;opacity:0.4;"/>
   </g>
   <g id="patch_54">
    <path clip-path="url(#p4936042d1f)" d="M 110.925552 224.64 
L 116.202168 224.64 
L 116.202168 222.247024 
L 110.925552 222.247024 
z
" style="fill:#ff7f0e;opacity:0.4;"/>
   </g>
   <g id="patch_55">
    <path clip-path="url(#p4936042d1f)" d="M 116.202168 224.64 
L 121.478784 224.64 
L 121.478784 222.247024 
L 116.202168 222.247024 
z
" style="fill:#ff7f0e;opacity:0.4;"/>
   </g>
   <g id="patch_56">
    <path clip-path="url(#p4936042d1f)" d="M 121.478784 224.64 
L 126.755399 224.64 
L 126.755399 222.51291 
L 121.478784 222.51291 
z
" style="fill:#ff7f0e;opacity:0.4;"/>
   </g>
   <g id="patch_57">
    <path clip-path="url(#p4936042d1f)" d="M 126.755399 224.64 
L 132.032015 224.64 
L 132.032015 223.310569 
L 126.755399 223.310569 
z
" style="fill:#ff7f0e;opacity:0.4;"/>
   </g>
   <g id="patch_58">
    <path clip-path="url(#p4936042d1f)" d="M 132.032015 224.64 
L 137.308631 224.64 
L 137.308631 223.842341 
L 132.032015 223.842341 
z
" style="fill:#ff7f0e;opacity:0.4;"/>
   </g>
   <g id="patch_59">
    <path clip-path="url(#p4936042d1f)" d="M 137.308631 224.64 
L 142.585246 224.64 
L 142.585246 224.108227 
L 137.308631 224.108227 
z
" style="fill:#ff7f0e;opacity:0.4;"/>
   </g>
   <g id="patch_60">
    <path clip-path="url(#p4936042d1f)" d="M 142.585246 224.64 
L 147.861862 224.64 
L 147.861862 223.842341 
L 142.585246 223.842341 
z
" style="fill:#ff7f0e;opacity:0.4;"/>
   </g>
   <g id="patch_61">
    <path clip-path="url(#p4936042d1f)" d="M 147.861862 224.64 
L 153.138478 224.64 
L 153.138478 223.310569 
L 147.861862 223.310569 
z
" style="fill:#ff7f0e;opacity:0.4;"/>
   </g>
   <g id="patch_62">
    <path clip-path="url(#p4936042d1f)" d="M 153.138478 224.64 
L 158.415093 224.64 
L 158.415093 223.044682 
L 153.138478 223.044682 
z
" style="fill:#ff7f0e;opacity:0.4;"/>
   </g>
   <g id="patch_63">
    <path clip-path="url(#p4936042d1f)" d="M 158.415093 224.64 
L 163.691709 224.64 
L 163.691709 223.842341 
L 158.415093 223.842341 
z
" style="fill:#ff7f0e;opacity:0.4;"/>
   </g>
   <g id="patch_64">
    <path clip-path="url(#p4936042d1f)" d="M 163.691709 224.64 
L 168.968325 224.64 
L 168.968325 223.310569 
L 163.691709 223.310569 
z
" style="fill:#ff7f0e;opacity:0.4;"/>
   </g>
   <g id="patch_65">
    <path clip-path="url(#p4936042d1f)" d="M 168.968325 224.64 
L 174.24494 224.64 
L 174.24494 223.576455 
L 168.968325 223.576455 
z
" style="fill:#ff7f0e;opacity:0.4;"/>
   </g>
   <g id="patch_66">
    <path clip-path="url(#p4936042d1f)" d="M 174.24494 224.64 
L 179.521556 224.64 
L 179.521556 223.310569 
L 174.24494 223.310569 
z
" style="fill:#ff7f0e;opacity:0.4;"/>
   </g>
   <g id="patch_67">
    <path clip-path="url(#p4936042d1f)" d="M 179.521556 224.64 
L 184.798172 224.64 
L 184.798172 223.576455 
L 179.521556 223.576455 
z
" style="fill:#ff7f0e;opacity:0.4;"/>
   </g>
   <g id="patch_68">
    <path clip-path="url(#p4936042d1f)" d="M 184.798172 224.64 
L 190.074787 224.64 
L 190.074787 223.842341 
L 184.798172 223.842341 
z
" style="fill:#ff7f0e;opacity:0.4;"/>
   </g>
   <g id="patch_69">
    <path clip-path="url(#p4936042d1f)" d="M 190.074787 224.64 
L 195.351403 224.64 
L 195.351403 224.374114 
L 190.074787 224.374114 
z
" style="fill:#ff7f0e;opacity:0.4;"/>
   </g>
   <g id="patch_70">
    <path clip-path="url(#p4936042d1f)" d="M 195.351403 224.64 
L 200.628019 224.64 
L 200.628019 224.64 
L 195.351403 224.64 
z
" style="fill:#ff7f0e;opacity:0.4;"/>
   </g>
   <g id="patch_71">
    <path clip-path="url(#p4936042d1f)" d="M 200.628019 224.64 
L 205.904634 224.64 
L 205.904634 224.374114 
L 200.628019 224.374114 
z
" style="fill:#ff7f0e;opacity:0.4;"/>
   </g>
   <g id="patch_72">
    <path clip-path="url(#p4936042d1f)" d="M 205.904634 224.64 
L 211.18125 224.64 
L 211.18125 224.64 
L 205.904634 224.64 
z
" style="fill:#ff7f0e;opacity:0.4;"/>
   </g>
   <g id="patch_73">
    <path clip-path="url(#p4936042d1f)" d="M 211.18125 224.64 
L 216.457866 224.64 
L 216.457866 224.374114 
L 211.18125 224.374114 
z
" style="fill:#ff7f0e;opacity:0.4;"/>
   </g>
   <g id="patch_74">
    <path clip-path="url(#p4936042d1f)" d="M 216.457866 224.64 
L 221.734481 224.64 
L 221.734481 224.374114 
L 216.457866 224.374114 
z
" style="fill:#ff7f0e;opacity:0.4;"/>
   </g>
   <g id="patch_75">
    <path clip-path="url(#p4936042d1f)" d="M 221.734481 224.64 
L 227.011097 224.64 
L 227.011097 224.64 
L 221.734481 224.64 
z
" style="fill:#ff7f0e;opacity:0.4;"/>
   </g>
   <g id="patch_76">
    <path clip-path="url(#p4936042d1f)" d="M 227.011097 224.64 
L 232.287713 224.64 
L 232.287713 224.108227 
L 227.011097 224.108227 
z
" style="fill:#ff7f0e;opacity:0.4;"/>
   </g>
   <g id="patch_77">
    <path clip-path="url(#p4936042d1f)" d="M 232.287713 224.64 
L 237.564328 224.64 
L 237.564328 224.64 
L 232.287713 224.64 
z
" style="fill:#ff7f0e;opacity:0.4;"/>
   </g>
   <g id="patch_78">
    <path clip-path="url(#p4936042d1f)" d="M 237.564328 224.64 
L 242.840944 224.64 
L 242.840944 224.64 
L 237.564328 224.64 
z
" style="fill:#ff7f0e;opacity:0.4;"/>
   </g>
   <g id="patch_79">
    <path clip-path="url(#p4936042d1f)" d="M 242.840944 224.64 
L 248.11756 224.64 
L 248.11756 224.374114 
L 242.840944 224.374114 
z
" style="fill:#ff7f0e;opacity:0.4;"/>
   </g>
   <g id="patch_80">
    <path clip-path="url(#p4936042d1f)" d="M 248.11756 224.64 
L 253.394175 224.64 
L 253.394175 223.842341 
L 248.11756 223.842341 
z
" style="fill:#ff7f0e;opacity:0.4;"/>
   </g>
   <g id="patch_81">
    <path clip-path="url(#p4936042d1f)" d="M 253.394175 224.64 
L 258.670791 224.64 
L 258.670791 224.64 
L 253.394175 224.64 
z
" style="fill:#ff7f0e;opacity:0.4;"/>
   </g>
   <g id="patch_82">
    <path clip-path="url(#p4936042d1f)" d="M 258.670791 224.64 
L 263.947407 224.64 
L 263.947407 224.374114 
L 258.670791 224.374114 
z
" style="fill:#ff7f0e;opacity:0.4;"/>
   </g>
   <g id="patch_83">
    <path clip-path="url(#p4936042d1f)" d="M 263.947407 224.64 
L 269.224022 224.64 
L 269.224022 224.64 
L 263.947407 224.64 
z
" style="fill:#ff7f0e;opacity:0.4;"/>
   </g>
   <g id="patch_84">
    <path clip-path="url(#p4936042d1f)" d="M 269.224022 224.64 
L 274.500638 224.64 
L 274.500638 224.374114 
L 269.224022 224.374114 
z
" style="fill:#ff7f0e;opacity:0.4;"/>
   </g>
   <g id="patch_85">
    <path clip-path="url(#p4936042d1f)" d="M 274.500638 224.64 
L 279.777254 224.64 
L 279.777254 224.64 
L 274.500638 224.64 
z
" style="fill:#ff7f0e;opacity:0.4;"/>
   </g>
   <g id="patch_86">
    <path clip-path="url(#p4936042d1f)" d="M 279.777254 224.64 
L 285.053869 224.64 
L 285.053869 224.64 
L 279.777254 224.64 
z
" style="fill:#ff7f0e;opacity:0.4;"/>
   </g>
   <g id="patch_87">
    <path clip-path="url(#p4936042d1f)" d="M 285.053869 224.64 
L 290.330485 224.64 
L 290.330485 224.64 
L 285.053869 224.64 
z
" style="fill:#ff7f0e;opacity:0.4;"/>
   </g>
   <g id="patch_88">
    <path clip-path="url(#p4936042d1f)" d="M 290.330485 224.64 
L 295.607101 224.64 
L 295.607101 224.64 
L 290.330485 224.64 
z
" style="fill:#ff7f0e;opacity:0.4;"/>
   </g>
   <g id="patch_89">
    <path clip-path="url(#p4936042d1f)" d="M 295.607101 224.64 
L 300.883716 224.64 
L 300.883716 224.64 
L 295.607101 224.64 
z
" style="fill:#ff7f0e;opacity:0.4;"/>
   </g>
   <g id="patch_90">
    <path clip-path="url(#p4936042d1f)" d="M 300.883716 224.64 
L 306.160332 224.64 
L 306.160332 224.64 
L 300.883716 224.64 
z
" style="fill:#ff7f0e;opacity:0.4;"/>
   </g>
   <g id="patch_91">
    <path clip-path="url(#p4936042d1f)" d="M 306.160332 224.64 
L 311.436948 224.64 
L 311.436948 224.374114 
L 306.160332 224.374114 
z
" style="fill:#ff7f0e;opacity:0.4;"/>
   </g>
   <g id="patch_92">
    <path clip-path="url(#p4936042d1f)" d="M 311.436948 224.64 
L 316.713564 224.64 
L 316.713564 224.64 
L 311.436948 224.64 
z
" style="fill:#ff7f0e;opacity:0.4;"/>
   </g>
   <g id="patch_93">
    <path clip-path="url(#p4936042d1f)" d="M 316.713564 224.64 
L 321.990179 224.64 
L 321.990179 224.64 
L 316.713564 224.64 
z
" style="fill:#ff7f0e;opacity:0.4;"/>
   </g>
   <g id="patch_94">
    <path clip-path="url(#p4936042d1f)" d="M 321.990179 224.64 
L 327.266795 224.64 
L 327.266795 224.64 
L 321.990179 224.64 
z
" style="fill:#ff7f0e;opacity:0.4;"/>
   </g>
   <g id="patch_95">
    <path clip-path="url(#p4936042d1f)" d="M 327.266795 224.64 
L 332.543411 224.64 
L 332.543411 224.64 
L 327.266795 224.64 
z
" style="fill:#ff7f0e;opacity:0.4;"/>
   </g>
   <g id="patch_96">
    <path clip-path="url(#p4936042d1f)" d="M 332.543411 224.64 
L 337.820026 224.64 
L 337.820026 224.64 
L 332.543411 224.64 
z
" style="fill:#ff7f0e;opacity:0.4;"/>
   </g>
   <g id="patch_97">
    <path clip-path="url(#p4936042d1f)" d="M 337.820026 224.64 
L 343.096642 224.64 
L 343.096642 224.108227 
L 337.820026 224.108227 
z
" style="fill:#ff7f0e;opacity:0.4;"/>
   </g>
   <g id="patch_98">
    <path clip-path="url(#p4936042d1f)" d="M 79.265858 224.64 
L 83.032688 224.64 
L 83.032688 17.554286 
L 79.265858 17.554286 
z
" style="fill:#2ca02c;opacity:0.4;"/>
   </g>
   <g id="patch_99">
    <path clip-path="url(#p4936042d1f)" d="M 83.032688 224.64 
L 86.799518 224.64 
L 86.799518 184.787174 
L 83.032688 184.787174 
z
" style="fill:#2ca02c;opacity:0.4;"/>
   </g>
   <g id="patch_100">
    <path clip-path="url(#p4936042d1f)" d="M 86.799518 224.64 
L 90.566348 224.64 
L 90.566348 188.884193 
L 86.799518 188.884193 
z
" style="fill:#2ca02c;opacity:0.4;"/>
   </g>
   <g id="patch_101">
    <path clip-path="url(#p4936042d1f)" d="M 90.566348 224.64 
L 94.333178 224.64 
L 94.333178 204.527359 
L 90.566348 204.527359 
z
" style="fill:#2ca02c;opacity:0.4;"/>
   </g>
   <g id="patch_102">
    <path clip-path="url(#p4936042d1f)" d="M 94.333178 224.64 
L 98.100008 224.64 
L 98.100008 214.211223 
L 94.333178 214.211223 
z
" style="fill:#2ca02c;opacity:0.4;"/>
   </g>
   <g id="patch_103">
    <path clip-path="url(#p4936042d1f)" d="M 98.100008 224.64 
L 101.866838 224.64 
L 101.866838 215.328592 
L 98.100008 215.328592 
z
" style="fill:#2ca02c;opacity:0.4;"/>
   </g>
   <g id="patch_104">
    <path clip-path="url(#p4936042d1f)" d="M 101.866838 224.64 
L 105.633668 224.64 
L 105.633668 217.190874 
L 101.866838 217.190874 
z
" style="fill:#2ca02c;opacity:0.4;"/>
   </g>
   <g id="patch_105">
    <path clip-path="url(#p4936042d1f)" d="M 105.633668 224.64 
L 109.400498 224.64 
L 109.400498 220.54298 
L 105.633668 220.54298 
z
" style="fill:#2ca02c;opacity:0.4;"/>
   </g>
   <g id="patch_106">
    <path clip-path="url(#p4936042d1f)" d="M 109.400498 224.64 
L 113.167328 224.64 
L 113.167328 219.425612 
L 109.400498 219.425612 
z
" style="fill:#2ca02c;opacity:0.4;"/>
   </g>
   <g id="patch_107">
    <path clip-path="url(#p4936042d1f)" d="M 113.167328 224.64 
L 116.934158 224.64 
L 116.934158 222.032806 
L 113.167328 222.032806 
z
" style="fill:#2ca02c;opacity:0.4;"/>
   </g>
   <g id="patch_108">
    <path clip-path="url(#p4936042d1f)" d="M 116.934158 224.64 
L 120.700988 224.64 
L 120.700988 220.915437 
L 116.934158 220.915437 
z
" style="fill:#2ca02c;opacity:0.4;"/>
   </g>
   <g id="patch_109">
    <path clip-path="url(#p4936042d1f)" d="M 120.700988 224.64 
L 124.467819 224.64 
L 124.467819 222.405262 
L 120.700988 222.405262 
z
" style="fill:#2ca02c;opacity:0.4;"/>
   </g>
   <g id="patch_110">
    <path clip-path="url(#p4936042d1f)" d="M 124.467819 224.64 
L 128.234649 224.64 
L 128.234649 223.150175 
L 124.467819 223.150175 
z
" style="fill:#2ca02c;opacity:0.4;"/>
   </g>
   <g id="patch_111">
    <path clip-path="url(#p4936042d1f)" d="M 128.234649 224.64 
L 132.001479 224.64 
L 132.001479 223.150175 
L 128.234649 223.150175 
z
" style="fill:#2ca02c;opacity:0.4;"/>
   </g>
   <g id="patch_112">
    <path clip-path="url(#p4936042d1f)" d="M 132.001479 224.64 
L 135.768309 224.64 
L 135.768309 222.032806 
L 132.001479 222.032806 
z
" style="fill:#2ca02c;opacity:0.4;"/>
   </g>
   <g id="patch_113">
    <path clip-path="url(#p4936042d1f)" d="M 135.768309 224.64 
L 139.535139 224.64 
L 139.535139 222.777718 
L 135.768309 222.777718 
z
" style="fill:#2ca02c;opacity:0.4;"/>
   </g>
   <g id="patch_114">
    <path clip-path="url(#p4936042d1f)" d="M 139.535139 224.64 
L 143.301969 224.64 
L 143.301969 221.660349 
L 139.535139 221.660349 
z
" style="fill:#2ca02c;opacity:0.4;"/>
   </g>
   <g id="patch_115">
    <path clip-path="url(#p4936042d1f)" d="M 143.301969 224.64 
L 147.068799 224.64 
L 147.068799 223.895087 
L 143.301969 223.895087 
z
" style="fill:#2ca02c;opacity:0.4;"/>
   </g>
   <g id="patch_116">
    <path clip-path="url(#p4936042d1f)" d="M 147.068799 224.64 
L 150.835629 224.64 
L 150.835629 222.032806 
L 147.068799 222.032806 
z
" style="fill:#2ca02c;opacity:0.4;"/>
   </g>
   <g id="patch_117">
    <path clip-path="url(#p4936042d1f)" d="M 150.835629 224.64 
L 154.602459 224.64 
L 154.602459 222.405262 
L 150.835629 222.405262 
z
" style="fill:#2ca02c;opacity:0.4;"/>
   </g>
   <g id="patch_118">
    <path clip-path="url(#p4936042d1f)" d="M 154.602459 224.64 
L 158.369289 224.64 
L 158.369289 224.267544 
L 154.602459 224.267544 
z
" style="fill:#2ca02c;opacity:0.4;"/>
   </g>
   <g id="patch_119">
    <path clip-path="url(#p4936042d1f)" d="M 158.369289 224.64 
L 162.136119 224.64 
L 162.136119 224.64 
L 158.369289 224.64 
z
" style="fill:#2ca02c;opacity:0.4;"/>
   </g>
   <g id="patch_120">
    <path clip-path="url(#p4936042d1f)" d="M 162.136119 224.64 
L 165.902949 224.64 
L 165.902949 223.522631 
L 162.136119 223.522631 
z
" style="fill:#2ca02c;opacity:0.4;"/>
   </g>
   <g id="patch_121">
    <path clip-path="url(#p4936042d1f)" d="M 165.902949 224.64 
L 169.669779 224.64 
L 169.669779 223.522631 
L 165.902949 223.522631 
z
" style="fill:#2ca02c;opacity:0.4;"/>
   </g>
   <g id="patch_122">
    <path clip-path="url(#p4936042d1f)" d="M 169.669779 224.64 
L 173.436609 224.64 
L 173.436609 222.777718 
L 169.669779 222.777718 
z
" style="fill:#2ca02c;opacity:0.4;"/>
   </g>
   <g id="patch_123">
    <path clip-path="url(#p4936042d1f)" d="M 173.436609 224.64 
L 177.203439 224.64 
L 177.203439 224.267544 
L 173.436609 224.267544 
z
" style="fill:#2ca02c;opacity:0.4;"/>
   </g>
   <g id="patch_124">
    <path clip-path="url(#p4936042d1f)" d="M 177.203439 224.64 
L 180.970269 224.64 
L 180.970269 224.267544 
L 177.203439 224.267544 
z
" style="fill:#2ca02c;opacity:0.4;"/>
   </g>
   <g id="patch_125">
    <path clip-path="url(#p4936042d1f)" d="M 180.970269 224.64 
L 184.737099 224.64 
L 184.737099 224.267544 
L 180.970269 224.267544 
z
" style="fill:#2ca02c;opacity:0.4;"/>
   </g>
   <g id="patch_126">
    <path clip-path="url(#p4936042d1f)" d="M 184.737099 224.64 
L 188.503929 224.64 
L 188.503929 224.64 
L 184.737099 224.64 
z
" style="fill:#2ca02c;opacity:0.4;"/>
   </g>
   <g id="patch_127">
    <path clip-path="url(#p4936042d1f)" d="M 188.503929 224.64 
L 192.270759 224.64 
L 192.270759 224.267544 
L 188.503929 224.267544 
z
" style="fill:#2ca02c;opacity:0.4;"/>
   </g>
   <g id="patch_128">
    <path clip-path="url(#p4936042d1f)" d="M 192.270759 224.64 
L 196.037589 224.64 
L 196.037589 224.64 
L 192.270759 224.64 
z
" style="fill:#2ca02c;opacity:0.4;"/>
   </g>
   <g id="patch_129">
    <path clip-path="url(#p4936042d1f)" d="M 196.037589 224.64 
L 199.804419 224.64 
L 199.804419 224.64 
L 196.037589 224.64 
z
" style="fill:#2ca02c;opacity:0.4;"/>
   </g>
   <g id="patch_130">
    <path clip-path="url(#p4936042d1f)" d="M 199.804419 224.64 
L 203.571249 224.64 
L 203.571249 224.64 
L 199.804419 224.64 
z
" style="fill:#2ca02c;opacity:0.4;"/>
   </g>
   <g id="patch_131">
    <path clip-path="url(#p4936042d1f)" d="M 203.571249 224.64 
L 207.338079 224.64 
L 207.338079 224.64 
L 203.571249 224.64 
z
" style="fill:#2ca02c;opacity:0.4;"/>
   </g>
   <g id="patch_132">
    <path clip-path="url(#p4936042d1f)" d="M 207.338079 224.64 
L 211.104909 224.64 
L 211.104909 224.64 
L 207.338079 224.64 
z
" style="fill:#2ca02c;opacity:0.4;"/>
   </g>
   <g id="patch_133">
    <path clip-path="url(#p4936042d1f)" d="M 211.104909 224.64 
L 214.871739 224.64 
L 214.871739 224.267544 
L 211.104909 224.267544 
z
" style="fill:#2ca02c;opacity:0.4;"/>
   </g>
   <g id="patch_134">
    <path clip-path="url(#p4936042d1f)" d="M 214.871739 224.64 
L 218.638569 224.64 
L 218.638569 224.64 
L 214.871739 224.64 
z
" style="fill:#2ca02c;opacity:0.4;"/>
   </g>
   <g id="patch_135">
    <path clip-path="url(#p4936042d1f)" d="M 218.638569 224.64 
L 222.405399 224.64 
L 222.405399 224.64 
L 218.638569 224.64 
z
" style="fill:#2ca02c;opacity:0.4;"/>
   </g>
   <g id="patch_136">
    <path clip-path="url(#p4936042d1f)" d="M 222.405399 224.64 
L 226.172229 224.64 
L 226.172229 224.267544 
L 222.405399 224.267544 
z
" style="fill:#2ca02c;opacity:0.4;"/>
   </g>
   <g id="patch_137">
    <path clip-path="url(#p4936042d1f)" d="M 226.172229 224.64 
L 229.939059 224.64 
L 229.939059 224.267544 
L 226.172229 224.267544 
z
" style="fill:#2ca02c;opacity:0.4;"/>
   </g>
   <g id="patch_138">
    <path clip-path="url(#p4936042d1f)" d="M 229.939059 224.64 
L 233.705889 224.64 
L 233.705889 223.895087 
L 229.939059 223.895087 
z
" style="fill:#2ca02c;opacity:0.4;"/>
   </g>
   <g id="patch_139">
    <path clip-path="url(#p4936042d1f)" d="M 233.705889 224.64 
L 237.472719 224.64 
L 237.472719 224.64 
L 233.705889 224.64 
z
" style="fill:#2ca02c;opacity:0.4;"/>
   </g>
   <g id="patch_140">
    <path clip-path="url(#p4936042d1f)" d="M 237.472719 224.64 
L 241.23955 224.64 
L 241.23955 224.267544 
L 237.472719 224.267544 
z
" style="fill:#2ca02c;opacity:0.4;"/>
   </g>
   <g id="patch_141">
    <path clip-path="url(#p4936042d1f)" d="M 241.23955 224.64 
L 245.00638 224.64 
L 245.00638 224.64 
L 241.23955 224.64 
z
" style="fill:#2ca02c;opacity:0.4;"/>
   </g>
   <g id="patch_142">
    <path clip-path="url(#p4936042d1f)" d="M 245.00638 224.64 
L 248.77321 224.64 
L 248.77321 224.64 
L 245.00638 224.64 
z
" style="fill:#2ca02c;opacity:0.4;"/>
   </g>
   <g id="patch_143">
    <path clip-path="url(#p4936042d1f)" d="M 248.77321 224.64 
L 252.54004 224.64 
L 252.54004 224.64 
L 248.77321 224.64 
z
" style="fill:#2ca02c;opacity:0.4;"/>
   </g>
   <g id="patch_144">
    <path clip-path="url(#p4936042d1f)" d="M 252.54004 224.64 
L 256.30687 224.64 
L 256.30687 224.64 
L 252.54004 224.64 
z
" style="fill:#2ca02c;opacity:0.4;"/>
   </g>
   <g id="patch_145">
    <path clip-path="url(#p4936042d1f)" d="M 256.30687 224.64 
L 260.0737 224.64 
L 260.0737 224.64 
L 256.30687 224.64 
z
" style="fill:#2ca02c;opacity:0.4;"/>
   </g>
   <g id="patch_146">
    <path clip-path="url(#p4936042d1f)" d="M 260.0737 224.64 
L 263.84053 224.64 
L 263.84053 224.64 
L 260.0737 224.64 
z
" style="fill:#2ca02c;opacity:0.4;"/>
   </g>
   <g id="patch_147">
    <path clip-path="url(#p4936042d1f)" d="M 263.84053 224.64 
L 267.60736 224.64 
L 267.60736 224.267544 
L 263.84053 224.267544 
z
" style="fill:#2ca02c;opacity:0.4;"/>
   </g>
   <g id="matplotlib.axis_1">
    <g id="xtick_1">
     <g id="line2d_1">
      <defs>
       <path d="M 0 0 
L 0 3.5 
" id="m0479516b8b" style="stroke:#000000;stroke-width:0.8;"/>
      </defs>
      <g>
       <use style="stroke:#000000;stroke-width:0.8;" x="79.265858" xlink:href="#m0479516b8b" y="224.64"/>
      </g>
     </g>
     <g id="text_1">
      <!-- 0.0 -->
      <g transform="translate(71.314296 239.238437)scale(0.1 -0.1)">
       <defs>
        <path d="M 31.78125 66.40625 
Q 24.171875 66.40625 20.328125 58.90625 
Q 16.5 51.421875 16.5 36.375 
Q 16.5 21.390625 20.328125 13.890625 
Q 24.171875 6.390625 31.78125 6.390625 
Q 39.453125 6.390625 43.28125 13.890625 
Q 47.125 21.390625 47.125 36.375 
Q 47.125 51.421875 43.28125 58.90625 
Q 39.453125 66.40625 31.78125 66.40625 
z
M 31.78125 74.21875 
Q 44.046875 74.21875 50.515625 64.515625 
Q 56.984375 54.828125 56.984375 36.375 
Q 56.984375 17.96875 50.515625 8.265625 
Q 44.046875 -1.421875 31.78125 -1.421875 
Q 19.53125 -1.421875 13.0625 8.265625 
Q 6.59375 17.96875 6.59375 36.375 
Q 6.59375 54.828125 13.0625 64.515625 
Q 19.53125 74.21875 31.78125 74.21875 
z
" id="DejaVuSans-48"/>
        <path d="M 10.6875 12.40625 
L 21 12.40625 
L 21 0 
L 10.6875 0 
z
" id="DejaVuSans-46"/>
       </defs>
       <use xlink:href="#DejaVuSans-48"/>
       <use x="63.623047" xlink:href="#DejaVuSans-46"/>
       <use x="95.410156" xlink:href="#DejaVuSans-48"/>
      </g>
     </g>
    </g>
    <g id="xtick_2">
     <g id="line2d_2">
      <g>
       <use style="stroke:#000000;stroke-width:0.8;" x="116.633353" xlink:href="#m0479516b8b" y="224.64"/>
      </g>
     </g>
     <g id="text_2">
      <!-- 2.5 -->
      <g transform="translate(108.68179 239.238437)scale(0.1 -0.1)">
       <defs>
        <path d="M 19.1875 8.296875 
L 53.609375 8.296875 
L 53.609375 0 
L 7.328125 0 
L 7.328125 8.296875 
Q 12.9375 14.109375 22.625 23.890625 
Q 32.328125 33.6875 34.8125 36.53125 
Q 39.546875 41.84375 41.421875 45.53125 
Q 43.3125 49.21875 43.3125 52.78125 
Q 43.3125 58.59375 39.234375 62.25 
Q 35.15625 65.921875 28.609375 65.921875 
Q 23.96875 65.921875 18.8125 64.3125 
Q 13.671875 62.703125 7.8125 59.421875 
L 7.8125 69.390625 
Q 13.765625 71.78125 18.9375 73 
Q 24.125 74.21875 28.421875 74.21875 
Q 39.75 74.21875 46.484375 68.546875 
Q 53.21875 62.890625 53.21875 53.421875 
Q 53.21875 48.921875 51.53125 44.890625 
Q 49.859375 40.875 45.40625 35.40625 
Q 44.1875 33.984375 37.640625 27.21875 
Q 31.109375 20.453125 19.1875 8.296875 
z
" id="DejaVuSans-50"/>
        <path d="M 10.796875 72.90625 
L 49.515625 72.90625 
L 49.515625 64.59375 
L 19.828125 64.59375 
L 19.828125 46.734375 
Q 21.96875 47.46875 24.109375 47.828125 
Q 26.265625 48.1875 28.421875 48.1875 
Q 40.625 48.1875 47.75 41.5 
Q 54.890625 34.8125 54.890625 23.390625 
Q 54.890625 11.625 47.5625 5.09375 
Q 40.234375 -1.421875 26.90625 -1.421875 
Q 22.3125 -1.421875 17.546875 -0.640625 
Q 12.796875 0.140625 7.71875 1.703125 
L 7.71875 11.625 
Q 12.109375 9.234375 16.796875 8.0625 
Q 21.484375 6.890625 26.703125 6.890625 
Q 35.15625 6.890625 40.078125 11.328125 
Q 45.015625 15.765625 45.015625 23.390625 
Q 45.015625 31 40.078125 35.4375 
Q 35.15625 39.890625 26.703125 39.890625 
Q 22.75 39.890625 18.8125 39.015625 
Q 14.890625 38.140625 10.796875 36.28125 
z
" id="DejaVuSans-53"/>
       </defs>
       <use xlink:href="#DejaVuSans-50"/>
       <use x="63.623047" xlink:href="#DejaVuSans-46"/>
       <use x="95.410156" xlink:href="#DejaVuSans-53"/>
      </g>
     </g>
    </g>
    <g id="xtick_3">
     <g id="line2d_3">
      <g>
       <use style="stroke:#000000;stroke-width:0.8;" x="154.000847" xlink:href="#m0479516b8b" y="224.64"/>
      </g>
     </g>
     <g id="text_3">
      <!-- 5.0 -->
      <g transform="translate(146.049285 239.238437)scale(0.1 -0.1)">
       <use xlink:href="#DejaVuSans-53"/>
       <use x="63.623047" xlink:href="#DejaVuSans-46"/>
       <use x="95.410156" xlink:href="#DejaVuSans-48"/>
      </g>
     </g>
    </g>
    <g id="xtick_4">
     <g id="line2d_4">
      <g>
       <use style="stroke:#000000;stroke-width:0.8;" x="191.368342" xlink:href="#m0479516b8b" y="224.64"/>
      </g>
     </g>
     <g id="text_4">
      <!-- 7.5 -->
      <g transform="translate(183.416779 239.238437)scale(0.1 -0.1)">
       <defs>
        <path d="M 8.203125 72.90625 
L 55.078125 72.90625 
L 55.078125 68.703125 
L 28.609375 0 
L 18.3125 0 
L 43.21875 64.59375 
L 8.203125 64.59375 
z
" id="DejaVuSans-55"/>
       </defs>
       <use xlink:href="#DejaVuSans-55"/>
       <use x="63.623047" xlink:href="#DejaVuSans-46"/>
       <use x="95.410156" xlink:href="#DejaVuSans-53"/>
      </g>
     </g>
    </g>
    <g id="xtick_5">
     <g id="line2d_5">
      <g>
       <use style="stroke:#000000;stroke-width:0.8;" x="228.735836" xlink:href="#m0479516b8b" y="224.64"/>
      </g>
     </g>
     <g id="text_5">
      <!-- 10.0 -->
      <g transform="translate(217.603024 239.238437)scale(0.1 -0.1)">
       <defs>
        <path d="M 12.40625 8.296875 
L 28.515625 8.296875 
L 28.515625 63.921875 
L 10.984375 60.40625 
L 10.984375 69.390625 
L 28.421875 72.90625 
L 38.28125 72.90625 
L 38.28125 8.296875 
L 54.390625 8.296875 
L 54.390625 0 
L 12.40625 0 
z
" id="DejaVuSans-49"/>
       </defs>
       <use xlink:href="#DejaVuSans-49"/>
       <use x="63.623047" xlink:href="#DejaVuSans-48"/>
       <use x="127.246094" xlink:href="#DejaVuSans-46"/>
       <use x="159.033203" xlink:href="#DejaVuSans-48"/>
      </g>
     </g>
    </g>
    <g id="xtick_6">
     <g id="line2d_6">
      <g>
       <use style="stroke:#000000;stroke-width:0.8;" x="266.103331" xlink:href="#m0479516b8b" y="224.64"/>
      </g>
     </g>
     <g id="text_6">
      <!-- 12.5 -->
      <g transform="translate(254.970518 239.238437)scale(0.1 -0.1)">
       <use xlink:href="#DejaVuSans-49"/>
       <use x="63.623047" xlink:href="#DejaVuSans-50"/>
       <use x="127.246094" xlink:href="#DejaVuSans-46"/>
       <use x="159.033203" xlink:href="#DejaVuSans-53"/>
      </g>
     </g>
    </g>
    <g id="xtick_7">
     <g id="line2d_7">
      <g>
       <use style="stroke:#000000;stroke-width:0.8;" x="303.470825" xlink:href="#m0479516b8b" y="224.64"/>
      </g>
     </g>
     <g id="text_7">
      <!-- 15.0 -->
      <g transform="translate(292.338013 239.238437)scale(0.1 -0.1)">
       <use xlink:href="#DejaVuSans-49"/>
       <use x="63.623047" xlink:href="#DejaVuSans-53"/>
       <use x="127.246094" xlink:href="#DejaVuSans-46"/>
       <use x="159.033203" xlink:href="#DejaVuSans-48"/>
      </g>
     </g>
    </g>
    <g id="xtick_8">
     <g id="line2d_8">
      <g>
       <use style="stroke:#000000;stroke-width:0.8;" x="340.83832" xlink:href="#m0479516b8b" y="224.64"/>
      </g>
     </g>
     <g id="text_8">
      <!-- 17.5 -->
      <g transform="translate(329.705507 239.238437)scale(0.1 -0.1)">
       <use xlink:href="#DejaVuSans-49"/>
       <use x="63.623047" xlink:href="#DejaVuSans-55"/>
       <use x="127.246094" xlink:href="#DejaVuSans-46"/>
       <use x="159.033203" xlink:href="#DejaVuSans-53"/>
      </g>
     </g>
    </g>
    <g id="xtick_9">
     <g id="line2d_9">
      <g>
       <use style="stroke:#000000;stroke-width:0.8;" x="378.205814" xlink:href="#m0479516b8b" y="224.64"/>
      </g>
     </g>
     <g id="text_9">
      <!-- 20.0 -->
      <g transform="translate(367.073002 239.238437)scale(0.1 -0.1)">
       <use xlink:href="#DejaVuSans-50"/>
       <use x="63.623047" xlink:href="#DejaVuSans-48"/>
       <use x="127.246094" xlink:href="#DejaVuSans-46"/>
       <use x="159.033203" xlink:href="#DejaVuSans-48"/>
      </g>
     </g>
    </g>
    <g id="text_10">
     <!-- f(t) -->
     <g transform="translate(203.559375 252.916562)scale(0.1 -0.1)">
      <defs>
       <path d="M 37.109375 75.984375 
L 37.109375 68.5 
L 28.515625 68.5 
Q 23.6875 68.5 21.796875 66.546875 
Q 19.921875 64.59375 19.921875 59.515625 
L 19.921875 54.6875 
L 34.71875 54.6875 
L 34.71875 47.703125 
L 19.921875 47.703125 
L 19.921875 0 
L 10.890625 0 
L 10.890625 47.703125 
L 2.296875 47.703125 
L 2.296875 54.6875 
L 10.890625 54.6875 
L 10.890625 58.5 
Q 10.890625 67.625 15.140625 71.796875 
Q 19.390625 75.984375 28.609375 75.984375 
z
" id="DejaVuSans-102"/>
       <path d="M 31 75.875 
Q 24.46875 64.65625 21.28125 53.65625 
Q 18.109375 42.671875 18.109375 31.390625 
Q 18.109375 20.125 21.3125 9.0625 
Q 24.515625 -2 31 -13.1875 
L 23.1875 -13.1875 
Q 15.875 -1.703125 12.234375 9.375 
Q 8.59375 20.453125 8.59375 31.390625 
Q 8.59375 42.28125 12.203125 53.3125 
Q 15.828125 64.359375 23.1875 75.875 
z
" id="DejaVuSans-40"/>
       <path d="M 18.3125 70.21875 
L 18.3125 54.6875 
L 36.8125 54.6875 
L 36.8125 47.703125 
L 18.3125 47.703125 
L 18.3125 18.015625 
Q 18.3125 11.328125 20.140625 9.421875 
Q 21.96875 7.515625 27.59375 7.515625 
L 36.8125 7.515625 
L 36.8125 0 
L 27.59375 0 
Q 17.1875 0 13.234375 3.875 
Q 9.28125 7.765625 9.28125 18.015625 
L 9.28125 47.703125 
L 2.6875 47.703125 
L 2.6875 54.6875 
L 9.28125 54.6875 
L 9.28125 70.21875 
z
" id="DejaVuSans-116"/>
       <path d="M 8.015625 75.875 
L 15.828125 75.875 
Q 23.140625 64.359375 26.78125 53.3125 
Q 30.421875 42.28125 30.421875 31.390625 
Q 30.421875 20.453125 26.78125 9.375 
Q 23.140625 -1.703125 15.828125 -13.1875 
L 8.015625 -13.1875 
Q 14.5 -2 17.703125 9.0625 
Q 20.90625 20.125 20.90625 31.390625 
Q 20.90625 42.671875 17.703125 53.65625 
Q 14.5 64.65625 8.015625 75.875 
z
" id="DejaVuSans-41"/>
      </defs>
      <use xlink:href="#DejaVuSans-102"/>
      <use x="35.205078" xlink:href="#DejaVuSans-40"/>
      <use x="74.21875" xlink:href="#DejaVuSans-116"/>
      <use x="113.427734" xlink:href="#DejaVuSans-41"/>
     </g>
    </g>
   </g>
   <g id="matplotlib.axis_2">
    <g id="ytick_1">
     <g id="line2d_10">
      <defs>
       <path d="M 0 0 
L -3.5 0 
" id="m8ac3d91564" style="stroke:#000000;stroke-width:0.8;"/>
      </defs>
      <g>
       <use style="stroke:#000000;stroke-width:0.8;" x="43.78125" xlink:href="#m8ac3d91564" y="224.64"/>
      </g>
     </g>
     <g id="text_11">
      <!-- 0.0 -->
      <g transform="translate(20.878125 228.439219)scale(0.1 -0.1)">
       <use xlink:href="#DejaVuSans-48"/>
       <use x="63.623047" xlink:href="#DejaVuSans-46"/>
       <use x="95.410156" xlink:href="#DejaVuSans-48"/>
      </g>
     </g>
    </g>
    <g id="ytick_2">
     <g id="line2d_11">
      <g>
       <use style="stroke:#000000;stroke-width:0.8;" x="43.78125" xlink:href="#m8ac3d91564" y="177.708179"/>
      </g>
     </g>
     <g id="text_12">
      <!-- 0.5 -->
      <g transform="translate(20.878125 181.507398)scale(0.1 -0.1)">
       <use xlink:href="#DejaVuSans-48"/>
       <use x="63.623047" xlink:href="#DejaVuSans-46"/>
       <use x="95.410156" xlink:href="#DejaVuSans-53"/>
      </g>
     </g>
    </g>
    <g id="ytick_3">
     <g id="line2d_12">
      <g>
       <use style="stroke:#000000;stroke-width:0.8;" x="43.78125" xlink:href="#m8ac3d91564" y="130.776358"/>
      </g>
     </g>
     <g id="text_13">
      <!-- 1.0 -->
      <g transform="translate(20.878125 134.575576)scale(0.1 -0.1)">
       <use xlink:href="#DejaVuSans-49"/>
       <use x="63.623047" xlink:href="#DejaVuSans-46"/>
       <use x="95.410156" xlink:href="#DejaVuSans-48"/>
      </g>
     </g>
    </g>
    <g id="ytick_4">
     <g id="line2d_13">
      <g>
       <use style="stroke:#000000;stroke-width:0.8;" x="43.78125" xlink:href="#m8ac3d91564" y="83.844537"/>
      </g>
     </g>
     <g id="text_14">
      <!-- 1.5 -->
      <g transform="translate(20.878125 87.643755)scale(0.1 -0.1)">
       <use xlink:href="#DejaVuSans-49"/>
       <use x="63.623047" xlink:href="#DejaVuSans-46"/>
       <use x="95.410156" xlink:href="#DejaVuSans-53"/>
      </g>
     </g>
    </g>
    <g id="ytick_5">
     <g id="line2d_14">
      <g>
       <use style="stroke:#000000;stroke-width:0.8;" x="43.78125" xlink:href="#m8ac3d91564" y="36.912715"/>
      </g>
     </g>
     <g id="text_15">
      <!-- 2.0 -->
      <g transform="translate(20.878125 40.711934)scale(0.1 -0.1)">
       <use xlink:href="#DejaVuSans-50"/>
       <use x="63.623047" xlink:href="#DejaVuSans-46"/>
       <use x="95.410156" xlink:href="#DejaVuSans-48"/>
      </g>
     </g>
    </g>
    <g id="text_16">
     <!-- Density -->
     <g transform="translate(14.798438 134.928594)rotate(-90)scale(0.1 -0.1)">
      <defs>
       <path d="M 19.671875 64.796875 
L 19.671875 8.109375 
L 31.59375 8.109375 
Q 46.6875 8.109375 53.6875 14.9375 
Q 60.6875 21.78125 60.6875 36.53125 
Q 60.6875 51.171875 53.6875 57.984375 
Q 46.6875 64.796875 31.59375 64.796875 
z
M 9.8125 72.90625 
L 30.078125 72.90625 
Q 51.265625 72.90625 61.171875 64.09375 
Q 71.09375 55.28125 71.09375 36.53125 
Q 71.09375 17.671875 61.125 8.828125 
Q 51.171875 0 30.078125 0 
L 9.8125 0 
z
" id="DejaVuSans-68"/>
       <path d="M 56.203125 29.59375 
L 56.203125 25.203125 
L 14.890625 25.203125 
Q 15.484375 15.921875 20.484375 11.0625 
Q 25.484375 6.203125 34.421875 6.203125 
Q 39.59375 6.203125 44.453125 7.46875 
Q 49.3125 8.734375 54.109375 11.28125 
L 54.109375 2.78125 
Q 49.265625 0.734375 44.1875 -0.34375 
Q 39.109375 -1.421875 33.890625 -1.421875 
Q 20.796875 -1.421875 13.15625 6.1875 
Q 5.515625 13.8125 5.515625 26.8125 
Q 5.515625 40.234375 12.765625 48.109375 
Q 20.015625 56 32.328125 56 
Q 43.359375 56 49.78125 48.890625 
Q 56.203125 41.796875 56.203125 29.59375 
z
M 47.21875 32.234375 
Q 47.125 39.59375 43.09375 43.984375 
Q 39.0625 48.390625 32.421875 48.390625 
Q 24.90625 48.390625 20.390625 44.140625 
Q 15.875 39.890625 15.1875 32.171875 
z
" id="DejaVuSans-101"/>
       <path d="M 54.890625 33.015625 
L 54.890625 0 
L 45.90625 0 
L 45.90625 32.71875 
Q 45.90625 40.484375 42.875 44.328125 
Q 39.84375 48.1875 33.796875 48.1875 
Q 26.515625 48.1875 22.3125 43.546875 
Q 18.109375 38.921875 18.109375 30.90625 
L 18.109375 0 
L 9.078125 0 
L 9.078125 54.6875 
L 18.109375 54.6875 
L 18.109375 46.1875 
Q 21.34375 51.125 25.703125 53.5625 
Q 30.078125 56 35.796875 56 
Q 45.21875 56 50.046875 50.171875 
Q 54.890625 44.34375 54.890625 33.015625 
z
" id="DejaVuSans-110"/>
       <path d="M 44.28125 53.078125 
L 44.28125 44.578125 
Q 40.484375 46.53125 36.375 47.5 
Q 32.28125 48.484375 27.875 48.484375 
Q 21.1875 48.484375 17.84375 46.4375 
Q 14.5 44.390625 14.5 40.28125 
Q 14.5 37.15625 16.890625 35.375 
Q 19.28125 33.59375 26.515625 31.984375 
L 29.59375 31.296875 
Q 39.15625 29.25 43.1875 25.515625 
Q 47.21875 21.78125 47.21875 15.09375 
Q 47.21875 7.46875 41.1875 3.015625 
Q 35.15625 -1.421875 24.609375 -1.421875 
Q 20.21875 -1.421875 15.453125 -0.5625 
Q 10.6875 0.296875 5.421875 2 
L 5.421875 11.28125 
Q 10.40625 8.6875 15.234375 7.390625 
Q 20.0625 6.109375 24.8125 6.109375 
Q 31.15625 6.109375 34.5625 8.28125 
Q 37.984375 10.453125 37.984375 14.40625 
Q 37.984375 18.0625 35.515625 20.015625 
Q 33.0625 21.96875 24.703125 23.78125 
L 21.578125 24.515625 
Q 13.234375 26.265625 9.515625 29.90625 
Q 5.8125 33.546875 5.8125 39.890625 
Q 5.8125 47.609375 11.28125 51.796875 
Q 16.75 56 26.8125 56 
Q 31.78125 56 36.171875 55.265625 
Q 40.578125 54.546875 44.28125 53.078125 
z
" id="DejaVuSans-115"/>
       <path d="M 9.421875 54.6875 
L 18.40625 54.6875 
L 18.40625 0 
L 9.421875 0 
z
M 9.421875 75.984375 
L 18.40625 75.984375 
L 18.40625 64.59375 
L 9.421875 64.59375 
z
" id="DejaVuSans-105"/>
       <path d="M 32.171875 -5.078125 
Q 28.375 -14.84375 24.75 -17.8125 
Q 21.140625 -20.796875 15.09375 -20.796875 
L 7.90625 -20.796875 
L 7.90625 -13.28125 
L 13.1875 -13.28125 
Q 16.890625 -13.28125 18.9375 -11.515625 
Q 21 -9.765625 23.484375 -3.21875 
L 25.09375 0.875 
L 2.984375 54.6875 
L 12.5 54.6875 
L 29.59375 11.921875 
L 46.6875 54.6875 
L 56.203125 54.6875 
z
" id="DejaVuSans-121"/>
      </defs>
      <use xlink:href="#DejaVuSans-68"/>
      <use x="77.001953" xlink:href="#DejaVuSans-101"/>
      <use x="138.525391" xlink:href="#DejaVuSans-110"/>
      <use x="201.904297" xlink:href="#DejaVuSans-115"/>
      <use x="254.003906" xlink:href="#DejaVuSans-105"/>
      <use x="281.787109" xlink:href="#DejaVuSans-116"/>
      <use x="320.996094" xlink:href="#DejaVuSans-121"/>
     </g>
    </g>
   </g>
   <g id="line2d_15">
    <path clip-path="url(#p4936042d1f)" d="M 62.041331 224.633832 
L 68.608403 224.5204 
L 71.235232 224.331401 
L 73.862061 223.940696 
L 76.48889 223.240503 
L 79.115719 222.147979 
L 81.742548 220.651573 
L 84.369377 218.824468 
L 88.30962 215.708725 
L 92.249863 212.305525 
L 94.876692 209.824755 
L 97.503521 207.118237 
L 101.443765 202.69884 
L 105.384008 198.309816 
L 106.697422 197.019199 
L 108.010837 195.894801 
L 109.324251 194.986497 
L 110.637666 194.337844 
L 111.95108 193.97991 
L 113.264495 193.926293 
L 114.577909 194.170643 
L 115.891324 194.68748 
L 117.204738 195.436144 
L 119.831567 197.427395 
L 127.712054 204.249585 
L 130.338883 206.111202 
L 132.965712 207.662731 
L 138.219369 210.470797 
L 140.846198 212.136545 
L 148.726685 217.659707 
L 151.353514 219.025338 
L 153.980343 220.02569 
L 156.607172 220.737216 
L 160.547415 221.481847 
L 165.801073 222.203922 
L 172.368145 222.865364 
L 177.621803 223.169299 
L 184.188875 223.268707 
L 190.755948 223.425319 
L 199.949849 223.723147 
L 214.397408 223.874113 
L 226.218138 224.324053 
L 236.725453 224.409631 
L 256.42667 224.575344 
L 266.933986 224.616511 
L 289.262032 224.567847 
L 299.769347 224.568062 
L 311.590077 224.596805 
L 323.410808 224.639041 
L 323.410808 224.639041 
" style="fill:none;stroke:#1f77b4;stroke-linecap:square;stroke-width:1.5;"/>
   </g>
   <g id="line2d_16">
    <path clip-path="url(#p4936042d1f)" d="M 58.999432 224.486931 
L 60.528897 224.331828 
L 62.058363 224.048562 
L 63.587828 223.557538 
L 65.117294 222.749784 
L 66.646759 221.489019 
L 68.176225 219.622432 
L 69.70569 217.002075 
L 71.235156 213.515959 
L 72.764621 209.124 
L 74.294087 203.890364 
L 77.353018 191.766088 
L 78.882483 185.580568 
L 80.411949 179.886593 
L 81.941414 175.108537 
L 83.47088 171.597521 
L 85.000345 169.589026 
L 86.529811 169.18111 
L 88.059276 170.333643 
L 89.588742 172.884499 
L 91.118208 176.576981 
L 92.647673 181.093406 
L 98.765535 200.882782 
L 100.295001 205.009888 
L 101.824466 208.556215 
L 103.353932 211.519565 
L 104.883397 213.944548 
L 106.412863 215.901024 
L 107.942328 217.465516 
L 109.471794 218.708746 
L 111.001259 219.690031 
L 112.530725 220.457122 
L 114.06019 221.049035 
L 117.119121 221.839093 
L 120.178052 222.297793 
L 129.354845 223.201873 
L 135.472707 223.679535 
L 140.061104 223.811572 
L 144.6495 223.738725 
L 156.885224 223.34576 
L 166.062017 223.451116 
L 187.474535 223.915017 
L 198.180793 224.420521 
L 207.357586 224.495329 
L 247.123689 224.368278 
L 254.771017 224.308695 
L 296.066586 224.632571 
L 351.127344 224.583081 
L 363.363068 224.638963 
L 363.363068 224.638963 
" style="fill:none;stroke:#ff7f0e;stroke-linecap:square;stroke-width:1.5;"/>
   </g>
   <g id="line2d_17">
    <path clip-path="url(#p4936042d1f)" d="M 63.02918 224.073457 
L 64.138802 223.607541 
L 65.248424 222.834678 
L 66.358047 221.610814 
L 67.467669 219.761965 
L 68.577292 217.099814 
L 69.686914 213.450171 
L 70.796536 208.693146 
L 71.906159 202.809308 
L 73.015781 195.921388 
L 77.454271 166.227801 
L 78.563893 161.044518 
L 79.673516 157.747126 
L 80.783138 156.538158 
L 81.89276 157.382456 
L 83.002383 160.028874 
L 84.112005 164.071471 
L 86.33125 174.442885 
L 88.550495 185.143753 
L 90.76974 194.315276 
L 91.879362 198.159452 
L 92.988984 201.529233 
L 94.098607 204.463859 
L 95.208229 207.004146 
L 96.317852 209.187477 
L 97.427474 211.048147 
L 98.537097 212.619734 
L 99.646719 213.937016 
L 100.756341 215.03626 
L 101.865964 215.953912 
L 104.085209 217.378271 
L 106.304453 218.430691 
L 108.523698 219.249575 
L 111.852565 220.201575 
L 116.291055 221.16264 
L 121.839167 222.073884 
L 126.277657 222.54494 
L 129.606524 222.67282 
L 135.154636 222.571848 
L 140.702748 222.539738 
L 147.360482 222.736861 
L 151.798972 223.070354 
L 158.456706 223.754473 
L 161.785574 223.825373 
L 171.772175 223.662972 
L 177.320287 223.986428 
L 183.978022 224.31803 
L 197.293491 224.598206 
L 206.17047 224.597074 
L 235.020652 224.363459 
L 251.664989 224.624513 
L 263.870835 224.558502 
L 272.747814 224.574128 
L 283.844038 224.638851 
L 283.844038 224.638851 
" style="fill:none;stroke:#2ca02c;stroke-linecap:square;stroke-width:1.5;"/>
   </g>
   <g id="patch_148">
    <path d="M 43.78125 224.64 
L 43.78125 7.2 
" style="fill:none;stroke:#000000;stroke-linecap:square;stroke-linejoin:miter;stroke-width:0.8;"/>
   </g>
   <g id="patch_149">
    <path d="M 378.58125 224.64 
L 378.58125 7.2 
" style="fill:none;stroke:#000000;stroke-linecap:square;stroke-linejoin:miter;stroke-width:0.8;"/>
   </g>
   <g id="patch_150">
    <path d="M 43.78125 224.64 
L 378.58125 224.64 
" style="fill:none;stroke:#000000;stroke-linecap:square;stroke-linejoin:miter;stroke-width:0.8;"/>
   </g>
   <g id="patch_151">
    <path d="M 43.78125 7.2 
L 378.58125 7.2 
" style="fill:none;stroke:#000000;stroke-linecap:square;stroke-linejoin:miter;stroke-width:0.8;"/>
   </g>
  </g>
 </g>
 <defs>
  <clipPath id="p4936042d1f">
   <rect height="217.44" width="334.8" x="43.78125" y="7.2"/>
  </clipPath>
 </defs>
</svg>
