<?xml version="1.0" encoding="utf-8" standalone="no"?>
<!DOCTYPE svg PUBLIC "-//W3C//DTD SVG 1.1//EN"
  "http://www.w3.org/Graphics/SVG/1.1/DTD/svg11.dtd">
<svg height="262.19625pt" version="1.1" viewBox="0 0 392.14375 262.19625" width="392.14375pt" xmlns="http://www.w3.org/2000/svg" xmlns:xlink="http://www.w3.org/1999/xlink">
 <metadata>
  <rdf:RDF xmlns:cc="http://creativecommons.org/ns#" xmlns:dc="http://purl.org/dc/elements/1.1/" xmlns:rdf="http://www.w3.org/1999/02/22-rdf-syntax-ns#">
   <cc:Work>
    <dc:type rdf:resource="http://purl.org/dc/dcmitype/StillImage"/>
    <dc:date>2021-06-02T15:11:10.481263</dc:date>
    <dc:format>image/svg+xml</dc:format>
    <dc:creator>
     <cc:Agent>
      <dc:title>Matplotlib v3.4.2, https://matplotlib.org/</dc:title>
     </cc:Agent>
    </dc:creator>
   </cc:Work>
  </rdf:RDF>
 </metadata>
 <defs>
  <style type="text/css">*{stroke-linecap:butt;stroke-linejoin:round;}</style>
 </defs>
 <g id="figure_1">
  <g id="patch_1">
   <path d="M 0 262.19625 
L 392.14375 262.19625 
L 392.14375 0 
L 0 0 
z
" style="fill:none;"/>
  </g>
  <g id="axes_1">
   <g id="patch_2">
    <path d="M 50.14375 224.64 
L 384.94375 224.64 
L 384.94375 7.2 
L 50.14375 7.2 
z
" style="fill:#ffffff;"/>
   </g>
   <g id="patch_3">
    <path clip-path="url(#pe2eff4438a)" d="M 89.667537 224.64 
L 95.185826 224.64 
L 95.185826 219.960878 
L 89.667537 219.960878 
z
" style="fill:#1f77b4;opacity:0.4;"/>
   </g>
   <g id="patch_4">
    <path clip-path="url(#pe2eff4438a)" d="M 95.185826 224.64 
L 100.704115 224.64 
L 100.704115 213.176152 
L 95.185826 213.176152 
z
" style="fill:#1f77b4;opacity:0.4;"/>
   </g>
   <g id="patch_5">
    <path clip-path="url(#pe2eff4438a)" d="M 100.704115 224.64 
L 106.222404 224.64 
L 106.222404 206.625382 
L 100.704115 206.625382 
z
" style="fill:#1f77b4;opacity:0.4;"/>
   </g>
   <g id="patch_6">
    <path clip-path="url(#pe2eff4438a)" d="M 106.222404 224.64 
L 111.740692 224.64 
L 111.740692 196.56527 
L 106.222404 196.56527 
z
" style="fill:#1f77b4;opacity:0.4;"/>
   </g>
   <g id="patch_7">
    <path clip-path="url(#pe2eff4438a)" d="M 111.740692 224.64 
L 117.258981 224.64 
L 117.258981 192.821973 
L 111.740692 192.821973 
z
" style="fill:#1f77b4;opacity:0.4;"/>
   </g>
   <g id="patch_8">
    <path clip-path="url(#pe2eff4438a)" d="M 117.258981 224.64 
L 122.77727 224.64 
L 122.77727 198.202963 
L 117.258981 198.202963 
z
" style="fill:#1f77b4;opacity:0.4;"/>
   </g>
   <g id="patch_9">
    <path clip-path="url(#pe2eff4438a)" d="M 122.77727 224.64 
L 128.295559 224.64 
L 128.295559 201.94626 
L 122.77727 201.94626 
z
" style="fill:#1f77b4;opacity:0.4;"/>
   </g>
   <g id="patch_10">
    <path clip-path="url(#pe2eff4438a)" d="M 128.295559 224.64 
L 133.813848 224.64 
L 133.813848 205.455601 
L 128.295559 205.455601 
z
" style="fill:#1f77b4;opacity:0.4;"/>
   </g>
   <g id="patch_11">
    <path clip-path="url(#pe2eff4438a)" d="M 133.813848 224.64 
L 139.332137 224.64 
L 139.332137 208.964943 
L 133.813848 208.964943 
z
" style="fill:#1f77b4;opacity:0.4;"/>
   </g>
   <g id="patch_12">
    <path clip-path="url(#pe2eff4438a)" d="M 139.332137 224.64 
L 144.850425 224.64 
L 144.850425 214.813845 
L 139.332137 214.813845 
z
" style="fill:#1f77b4;opacity:0.4;"/>
   </g>
   <g id="patch_13">
    <path clip-path="url(#pe2eff4438a)" d="M 144.850425 224.64 
L 150.368714 224.64 
L 150.368714 218.323186 
L 144.850425 218.323186 
z
" style="fill:#1f77b4;opacity:0.4;"/>
   </g>
   <g id="patch_14">
    <path clip-path="url(#pe2eff4438a)" d="M 150.368714 224.64 
L 155.887003 224.64 
L 155.887003 217.621318 
L 150.368714 217.621318 
z
" style="fill:#1f77b4;opacity:0.4;"/>
   </g>
   <g id="patch_15">
    <path clip-path="url(#pe2eff4438a)" d="M 155.887003 224.64 
L 161.405292 224.64 
L 161.405292 220.428791 
L 155.887003 220.428791 
z
" style="fill:#1f77b4;opacity:0.4;"/>
   </g>
   <g id="patch_16">
    <path clip-path="url(#pe2eff4438a)" d="M 161.405292 224.64 
L 166.923581 224.64 
L 166.923581 218.791098 
L 161.405292 218.791098 
z
" style="fill:#1f77b4;opacity:0.4;"/>
   </g>
   <g id="patch_17">
    <path clip-path="url(#pe2eff4438a)" d="M 166.923581 224.64 
L 172.44187 224.64 
L 172.44187 219.960878 
L 166.923581 219.960878 
z
" style="fill:#1f77b4;opacity:0.4;"/>
   </g>
   <g id="patch_18">
    <path clip-path="url(#pe2eff4438a)" d="M 172.44187 224.64 
L 177.960159 224.64 
L 177.960159 220.896703 
L 172.44187 220.896703 
z
" style="fill:#1f77b4;opacity:0.4;"/>
   </g>
   <g id="patch_19">
    <path clip-path="url(#pe2eff4438a)" d="M 177.960159 224.64 
L 183.478447 224.64 
L 183.478447 221.832527 
L 177.960159 221.832527 
z
" style="fill:#1f77b4;opacity:0.4;"/>
   </g>
   <g id="patch_20">
    <path clip-path="url(#pe2eff4438a)" d="M 183.478447 224.64 
L 188.996736 224.64 
L 188.996736 222.534395 
L 183.478447 222.534395 
z
" style="fill:#1f77b4;opacity:0.4;"/>
   </g>
   <g id="patch_21">
    <path clip-path="url(#pe2eff4438a)" d="M 188.996736 224.64 
L 194.515025 224.64 
L 194.515025 222.300439 
L 188.996736 222.300439 
z
" style="fill:#1f77b4;opacity:0.4;"/>
   </g>
   <g id="patch_22">
    <path clip-path="url(#pe2eff4438a)" d="M 194.515025 224.64 
L 200.033314 224.64 
L 200.033314 223.47022 
L 194.515025 223.47022 
z
" style="fill:#1f77b4;opacity:0.4;"/>
   </g>
   <g id="patch_23">
    <path clip-path="url(#pe2eff4438a)" d="M 200.033314 224.64 
L 205.551603 224.64 
L 205.551603 223.47022 
L 200.033314 223.47022 
z
" style="fill:#1f77b4;opacity:0.4;"/>
   </g>
   <g id="patch_24">
    <path clip-path="url(#pe2eff4438a)" d="M 205.551603 224.64 
L 211.069892 224.64 
L 211.069892 223.704176 
L 205.551603 223.704176 
z
" style="fill:#1f77b4;opacity:0.4;"/>
   </g>
   <g id="patch_25">
    <path clip-path="url(#pe2eff4438a)" d="M 211.069892 224.64 
L 216.58818 224.64 
L 216.58818 224.172088 
L 211.069892 224.172088 
z
" style="fill:#1f77b4;opacity:0.4;"/>
   </g>
   <g id="patch_26">
    <path clip-path="url(#pe2eff4438a)" d="M 216.58818 224.64 
L 222.106469 224.64 
L 222.106469 223.704176 
L 216.58818 223.704176 
z
" style="fill:#1f77b4;opacity:0.4;"/>
   </g>
   <g id="patch_27">
    <path clip-path="url(#pe2eff4438a)" d="M 222.106469 224.64 
L 227.624758 224.64 
L 227.624758 223.938132 
L 222.106469 223.938132 
z
" style="fill:#1f77b4;opacity:0.4;"/>
   </g>
   <g id="patch_28">
    <path clip-path="url(#pe2eff4438a)" d="M 227.624758 224.64 
L 233.143047 224.64 
L 233.143047 224.406044 
L 227.624758 224.406044 
z
" style="fill:#1f77b4;opacity:0.4;"/>
   </g>
   <g id="patch_29">
    <path clip-path="url(#pe2eff4438a)" d="M 233.143047 224.64 
L 238.661336 224.64 
L 238.661336 224.172088 
L 233.143047 224.172088 
z
" style="fill:#1f77b4;opacity:0.4;"/>
   </g>
   <g id="patch_30">
    <path clip-path="url(#pe2eff4438a)" d="M 238.661336 224.64 
L 244.179625 224.64 
L 244.179625 224.406044 
L 238.661336 224.406044 
z
" style="fill:#1f77b4;opacity:0.4;"/>
   </g>
   <g id="patch_31">
    <path clip-path="url(#pe2eff4438a)" d="M 244.179625 224.64 
L 249.697914 224.64 
L 249.697914 224.406044 
L 244.179625 224.406044 
z
" style="fill:#1f77b4;opacity:0.4;"/>
   </g>
   <g id="patch_32">
    <path clip-path="url(#pe2eff4438a)" d="M 249.697914 224.64 
L 255.216202 224.64 
L 255.216202 224.172088 
L 249.697914 224.172088 
z
" style="fill:#1f77b4;opacity:0.4;"/>
   </g>
   <g id="patch_33">
    <path clip-path="url(#pe2eff4438a)" d="M 88.485478 224.64 
L 93.647809 224.64 
L 93.647809 136.609008 
L 88.485478 136.609008 
z
" style="fill:#ff7f0e;opacity:0.4;"/>
   </g>
   <g id="patch_34">
    <path clip-path="url(#pe2eff4438a)" d="M 93.647809 224.64 
L 98.81014 224.64 
L 98.81014 161.117637 
L 93.647809 161.117637 
z
" style="fill:#ff7f0e;opacity:0.4;"/>
   </g>
   <g id="patch_35">
    <path clip-path="url(#pe2eff4438a)" d="M 98.81014 224.64 
L 103.972471 224.64 
L 103.972471 191.128202 
L 98.81014 191.128202 
z
" style="fill:#ff7f0e;opacity:0.4;"/>
   </g>
   <g id="patch_36">
    <path clip-path="url(#pe2eff4438a)" d="M 103.972471 224.64 
L 109.134802 224.64 
L 109.134802 209.134541 
L 103.972471 209.134541 
z
" style="fill:#ff7f0e;opacity:0.4;"/>
   </g>
   <g id="patch_37">
    <path clip-path="url(#pe2eff4438a)" d="M 109.134802 224.64 
L 114.297133 224.64 
L 114.297133 214.136302 
L 109.134802 214.136302 
z
" style="fill:#ff7f0e;opacity:0.4;"/>
   </g>
   <g id="patch_38">
    <path clip-path="url(#pe2eff4438a)" d="M 114.297133 224.64 
L 119.459464 224.64 
L 119.459464 219.888327 
L 114.297133 219.888327 
z
" style="fill:#ff7f0e;opacity:0.4;"/>
   </g>
   <g id="patch_39">
    <path clip-path="url(#pe2eff4438a)" d="M 119.459464 224.64 
L 124.621794 224.64 
L 124.621794 221.388855 
L 119.459464 221.388855 
z
" style="fill:#ff7f0e;opacity:0.4;"/>
   </g>
   <g id="patch_40">
    <path clip-path="url(#pe2eff4438a)" d="M 124.621794 224.64 
L 129.784125 224.64 
L 129.784125 218.637887 
L 124.621794 218.637887 
z
" style="fill:#ff7f0e;opacity:0.4;"/>
   </g>
   <g id="patch_41">
    <path clip-path="url(#pe2eff4438a)" d="M 129.784125 224.64 
L 134.946456 224.64 
L 134.946456 221.889032 
L 129.784125 221.889032 
z
" style="fill:#ff7f0e;opacity:0.4;"/>
   </g>
   <g id="patch_42">
    <path clip-path="url(#pe2eff4438a)" d="M 134.946456 224.64 
L 140.108787 224.64 
L 140.108787 223.38956 
L 134.946456 223.38956 
z
" style="fill:#ff7f0e;opacity:0.4;"/>
   </g>
   <g id="patch_43">
    <path clip-path="url(#pe2eff4438a)" d="M 140.108787 224.64 
L 145.271118 224.64 
L 145.271118 223.139472 
L 140.108787 223.139472 
z
" style="fill:#ff7f0e;opacity:0.4;"/>
   </g>
   <g id="patch_44">
    <path clip-path="url(#pe2eff4438a)" d="M 145.271118 224.64 
L 150.433449 224.64 
L 150.433449 221.889032 
L 145.271118 221.889032 
z
" style="fill:#ff7f0e;opacity:0.4;"/>
   </g>
   <g id="patch_45">
    <path clip-path="url(#pe2eff4438a)" d="M 150.433449 224.64 
L 155.59578 224.64 
L 155.59578 224.139824 
L 150.433449 224.139824 
z
" style="fill:#ff7f0e;opacity:0.4;"/>
   </g>
   <g id="patch_46">
    <path clip-path="url(#pe2eff4438a)" d="M 155.59578 224.64 
L 160.75811 224.64 
L 160.75811 222.889384 
L 155.59578 222.889384 
z
" style="fill:#ff7f0e;opacity:0.4;"/>
   </g>
   <g id="patch_47">
    <path clip-path="url(#pe2eff4438a)" d="M 160.75811 224.64 
L 165.920441 224.64 
L 165.920441 222.889384 
L 160.75811 222.889384 
z
" style="fill:#ff7f0e;opacity:0.4;"/>
   </g>
   <g id="patch_48">
    <path clip-path="url(#pe2eff4438a)" d="M 165.920441 224.64 
L 171.082772 224.64 
L 171.082772 222.639296 
L 165.920441 222.639296 
z
" style="fill:#ff7f0e;opacity:0.4;"/>
   </g>
   <g id="patch_49">
    <path clip-path="url(#pe2eff4438a)" d="M 171.082772 224.64 
L 176.245103 224.64 
L 176.245103 223.38956 
L 171.082772 223.38956 
z
" style="fill:#ff7f0e;opacity:0.4;"/>
   </g>
   <g id="patch_50">
    <path clip-path="url(#pe2eff4438a)" d="M 176.245103 224.64 
L 181.407434 224.64 
L 181.407434 224.139824 
L 176.245103 224.139824 
z
" style="fill:#ff7f0e;opacity:0.4;"/>
   </g>
   <g id="patch_51">
    <path clip-path="url(#pe2eff4438a)" d="M 181.407434 224.64 
L 186.569765 224.64 
L 186.569765 223.889736 
L 181.407434 223.889736 
z
" style="fill:#ff7f0e;opacity:0.4;"/>
   </g>
   <g id="patch_52">
    <path clip-path="url(#pe2eff4438a)" d="M 186.569765 224.64 
L 191.732096 224.64 
L 191.732096 224.64 
L 186.569765 224.64 
z
" style="fill:#ff7f0e;opacity:0.4;"/>
   </g>
   <g id="patch_53">
    <path clip-path="url(#pe2eff4438a)" d="M 191.732096 224.64 
L 196.894427 224.64 
L 196.894427 223.38956 
L 191.732096 223.38956 
z
" style="fill:#ff7f0e;opacity:0.4;"/>
   </g>
   <g id="patch_54">
    <path clip-path="url(#pe2eff4438a)" d="M 196.894427 224.64 
L 202.056757 224.64 
L 202.056757 224.389912 
L 196.894427 224.389912 
z
" style="fill:#ff7f0e;opacity:0.4;"/>
   </g>
   <g id="patch_55">
    <path clip-path="url(#pe2eff4438a)" d="M 202.056757 224.64 
L 207.219088 224.64 
L 207.219088 224.64 
L 202.056757 224.64 
z
" style="fill:#ff7f0e;opacity:0.4;"/>
   </g>
   <g id="patch_56">
    <path clip-path="url(#pe2eff4438a)" d="M 207.219088 224.64 
L 212.381419 224.64 
L 212.381419 223.639648 
L 207.219088 223.639648 
z
" style="fill:#ff7f0e;opacity:0.4;"/>
   </g>
   <g id="patch_57">
    <path clip-path="url(#pe2eff4438a)" d="M 212.381419 224.64 
L 217.54375 224.64 
L 217.54375 224.389912 
L 212.381419 224.389912 
z
" style="fill:#ff7f0e;opacity:0.4;"/>
   </g>
   <g id="patch_58">
    <path clip-path="url(#pe2eff4438a)" d="M 217.54375 224.64 
L 222.706081 224.64 
L 222.706081 224.64 
L 217.54375 224.64 
z
" style="fill:#ff7f0e;opacity:0.4;"/>
   </g>
   <g id="patch_59">
    <path clip-path="url(#pe2eff4438a)" d="M 222.706081 224.64 
L 227.868412 224.64 
L 227.868412 224.139824 
L 222.706081 224.139824 
z
" style="fill:#ff7f0e;opacity:0.4;"/>
   </g>
   <g id="patch_60">
    <path clip-path="url(#pe2eff4438a)" d="M 227.868412 224.64 
L 233.030743 224.64 
L 233.030743 223.889736 
L 227.868412 223.889736 
z
" style="fill:#ff7f0e;opacity:0.4;"/>
   </g>
   <g id="patch_61">
    <path clip-path="url(#pe2eff4438a)" d="M 233.030743 224.64 
L 238.193073 224.64 
L 238.193073 224.139824 
L 233.030743 224.139824 
z
" style="fill:#ff7f0e;opacity:0.4;"/>
   </g>
   <g id="patch_62">
    <path clip-path="url(#pe2eff4438a)" d="M 238.193073 224.64 
L 243.355404 224.64 
L 243.355404 224.139824 
L 238.193073 224.139824 
z
" style="fill:#ff7f0e;opacity:0.4;"/>
   </g>
   <g id="patch_63">
    <path clip-path="url(#pe2eff4438a)" d="M 243.355404 224.64 
L 248.517735 224.64 
L 248.517735 224.139824 
L 243.355404 224.139824 
z
" style="fill:#ff7f0e;opacity:0.4;"/>
   </g>
   <g id="patch_64">
    <path clip-path="url(#pe2eff4438a)" d="M 248.517735 224.64 
L 253.680066 224.64 
L 253.680066 224.389912 
L 248.517735 224.389912 
z
" style="fill:#ff7f0e;opacity:0.4;"/>
   </g>
   <g id="patch_65">
    <path clip-path="url(#pe2eff4438a)" d="M 253.680066 224.64 
L 258.842397 224.64 
L 258.842397 224.389912 
L 253.680066 224.389912 
z
" style="fill:#ff7f0e;opacity:0.4;"/>
   </g>
   <g id="patch_66">
    <path clip-path="url(#pe2eff4438a)" d="M 258.842397 224.64 
L 264.004728 224.64 
L 264.004728 224.389912 
L 258.842397 224.389912 
z
" style="fill:#ff7f0e;opacity:0.4;"/>
   </g>
   <g id="patch_67">
    <path clip-path="url(#pe2eff4438a)" d="M 264.004728 224.64 
L 269.167059 224.64 
L 269.167059 224.389912 
L 264.004728 224.389912 
z
" style="fill:#ff7f0e;opacity:0.4;"/>
   </g>
   <g id="patch_68">
    <path clip-path="url(#pe2eff4438a)" d="M 269.167059 224.64 
L 274.32939 224.64 
L 274.32939 224.64 
L 269.167059 224.64 
z
" style="fill:#ff7f0e;opacity:0.4;"/>
   </g>
   <g id="patch_69">
    <path clip-path="url(#pe2eff4438a)" d="M 274.32939 224.64 
L 279.49172 224.64 
L 279.49172 224.139824 
L 274.32939 224.139824 
z
" style="fill:#ff7f0e;opacity:0.4;"/>
   </g>
   <g id="patch_70">
    <path clip-path="url(#pe2eff4438a)" d="M 279.49172 224.64 
L 284.654051 224.64 
L 284.654051 224.139824 
L 279.49172 224.139824 
z
" style="fill:#ff7f0e;opacity:0.4;"/>
   </g>
   <g id="patch_71">
    <path clip-path="url(#pe2eff4438a)" d="M 284.654051 224.64 
L 289.816382 224.64 
L 289.816382 224.64 
L 284.654051 224.64 
z
" style="fill:#ff7f0e;opacity:0.4;"/>
   </g>
   <g id="patch_72">
    <path clip-path="url(#pe2eff4438a)" d="M 289.816382 224.64 
L 294.978713 224.64 
L 294.978713 224.64 
L 289.816382 224.64 
z
" style="fill:#ff7f0e;opacity:0.4;"/>
   </g>
   <g id="patch_73">
    <path clip-path="url(#pe2eff4438a)" d="M 294.978713 224.64 
L 300.141044 224.64 
L 300.141044 224.64 
L 294.978713 224.64 
z
" style="fill:#ff7f0e;opacity:0.4;"/>
   </g>
   <g id="patch_74">
    <path clip-path="url(#pe2eff4438a)" d="M 300.141044 224.64 
L 305.303375 224.64 
L 305.303375 224.389912 
L 300.141044 224.389912 
z
" style="fill:#ff7f0e;opacity:0.4;"/>
   </g>
   <g id="patch_75">
    <path clip-path="url(#pe2eff4438a)" d="M 305.303375 224.64 
L 310.465706 224.64 
L 310.465706 224.64 
L 305.303375 224.64 
z
" style="fill:#ff7f0e;opacity:0.4;"/>
   </g>
   <g id="patch_76">
    <path clip-path="url(#pe2eff4438a)" d="M 310.465706 224.64 
L 315.628036 224.64 
L 315.628036 224.64 
L 310.465706 224.64 
z
" style="fill:#ff7f0e;opacity:0.4;"/>
   </g>
   <g id="patch_77">
    <path clip-path="url(#pe2eff4438a)" d="M 315.628036 224.64 
L 320.790367 224.64 
L 320.790367 224.64 
L 315.628036 224.64 
z
" style="fill:#ff7f0e;opacity:0.4;"/>
   </g>
   <g id="patch_78">
    <path clip-path="url(#pe2eff4438a)" d="M 320.790367 224.64 
L 325.952698 224.64 
L 325.952698 224.389912 
L 320.790367 224.389912 
z
" style="fill:#ff7f0e;opacity:0.4;"/>
   </g>
   <g id="patch_79">
    <path clip-path="url(#pe2eff4438a)" d="M 325.952698 224.64 
L 331.115029 224.64 
L 331.115029 224.64 
L 325.952698 224.64 
z
" style="fill:#ff7f0e;opacity:0.4;"/>
   </g>
   <g id="patch_80">
    <path clip-path="url(#pe2eff4438a)" d="M 331.115029 224.64 
L 336.27736 224.64 
L 336.27736 224.64 
L 331.115029 224.64 
z
" style="fill:#ff7f0e;opacity:0.4;"/>
   </g>
   <g id="patch_81">
    <path clip-path="url(#pe2eff4438a)" d="M 336.27736 224.64 
L 341.439691 224.64 
L 341.439691 224.64 
L 336.27736 224.64 
z
" style="fill:#ff7f0e;opacity:0.4;"/>
   </g>
   <g id="patch_82">
    <path clip-path="url(#pe2eff4438a)" d="M 341.439691 224.64 
L 346.602022 224.64 
L 346.602022 224.389912 
L 341.439691 224.389912 
z
" style="fill:#ff7f0e;opacity:0.4;"/>
   </g>
   <g id="patch_83">
    <path clip-path="url(#pe2eff4438a)" d="M 88.485478 224.64 
L 91.484183 224.64 
L 91.484183 17.554286 
L 88.485478 17.554286 
z
" style="fill:#2ca02c;opacity:0.4;"/>
   </g>
   <g id="patch_84">
    <path clip-path="url(#pe2eff4438a)" d="M 91.484183 224.64 
L 94.482888 224.64 
L 94.482888 178.142584 
L 91.484183 178.142584 
z
" style="fill:#2ca02c;opacity:0.4;"/>
   </g>
   <g id="patch_85">
    <path clip-path="url(#pe2eff4438a)" d="M 94.482888 224.64 
L 97.481593 224.64 
L 97.481593 193.211191 
L 94.482888 193.211191 
z
" style="fill:#2ca02c;opacity:0.4;"/>
   </g>
   <g id="patch_86">
    <path clip-path="url(#pe2eff4438a)" d="M 97.481593 224.64 
L 100.480297 224.64 
L 100.480297 202.252355 
L 97.481593 202.252355 
z
" style="fill:#2ca02c;opacity:0.4;"/>
   </g>
   <g id="patch_87">
    <path clip-path="url(#pe2eff4438a)" d="M 100.480297 224.64 
L 103.479002 224.64 
L 103.479002 210.432456 
L 100.480297 210.432456 
z
" style="fill:#2ca02c;opacity:0.4;"/>
   </g>
   <g id="patch_88">
    <path clip-path="url(#pe2eff4438a)" d="M 103.479002 224.64 
L 106.477707 224.64 
L 106.477707 212.585114 
L 103.479002 212.585114 
z
" style="fill:#2ca02c;opacity:0.4;"/>
   </g>
   <g id="patch_89">
    <path clip-path="url(#pe2eff4438a)" d="M 106.477707 224.64 
L 109.476411 224.64 
L 109.476411 216.029367 
L 106.477707 216.029367 
z
" style="fill:#2ca02c;opacity:0.4;"/>
   </g>
   <g id="patch_90">
    <path clip-path="url(#pe2eff4438a)" d="M 109.476411 224.64 
L 112.475116 224.64 
L 112.475116 216.890431 
L 109.476411 216.890431 
z
" style="fill:#2ca02c;opacity:0.4;"/>
   </g>
   <g id="patch_91">
    <path clip-path="url(#pe2eff4438a)" d="M 112.475116 224.64 
L 115.473821 224.64 
L 115.473821 217.751494 
L 112.475116 217.751494 
z
" style="fill:#2ca02c;opacity:0.4;"/>
   </g>
   <g id="patch_92">
    <path clip-path="url(#pe2eff4438a)" d="M 115.473821 224.64 
L 118.472525 224.64 
L 118.472525 216.890431 
L 115.473821 216.890431 
z
" style="fill:#2ca02c;opacity:0.4;"/>
   </g>
   <g id="patch_93">
    <path clip-path="url(#pe2eff4438a)" d="M 118.472525 224.64 
L 121.47123 224.64 
L 121.47123 213.876709 
L 118.472525 213.876709 
z
" style="fill:#2ca02c;opacity:0.4;"/>
   </g>
   <g id="patch_94">
    <path clip-path="url(#pe2eff4438a)" d="M 121.47123 224.64 
L 124.469935 224.64 
L 124.469935 218.612557 
L 121.47123 218.612557 
z
" style="fill:#2ca02c;opacity:0.4;"/>
   </g>
   <g id="patch_95">
    <path clip-path="url(#pe2eff4438a)" d="M 124.469935 224.64 
L 127.46864 224.64 
L 127.46864 220.765215 
L 124.469935 220.765215 
z
" style="fill:#2ca02c;opacity:0.4;"/>
   </g>
   <g id="patch_96">
    <path clip-path="url(#pe2eff4438a)" d="M 127.46864 224.64 
L 130.467344 224.64 
L 130.467344 218.182026 
L 127.46864 218.182026 
z
" style="fill:#2ca02c;opacity:0.4;"/>
   </g>
   <g id="patch_97">
    <path clip-path="url(#pe2eff4438a)" d="M 130.467344 224.64 
L 133.466049 224.64 
L 133.466049 220.765215 
L 130.467344 220.765215 
z
" style="fill:#2ca02c;opacity:0.4;"/>
   </g>
   <g id="patch_98">
    <path clip-path="url(#pe2eff4438a)" d="M 133.466049 224.64 
L 136.464754 224.64 
L 136.464754 218.612557 
L 133.466049 218.612557 
z
" style="fill:#2ca02c;opacity:0.4;"/>
   </g>
   <g id="patch_99">
    <path clip-path="url(#pe2eff4438a)" d="M 136.464754 224.64 
L 139.463458 224.64 
L 139.463458 219.043089 
L 136.464754 219.043089 
z
" style="fill:#2ca02c;opacity:0.4;"/>
   </g>
   <g id="patch_100">
    <path clip-path="url(#pe2eff4438a)" d="M 139.463458 224.64 
L 142.462163 224.64 
L 142.462163 223.348405 
L 139.463458 223.348405 
z
" style="fill:#2ca02c;opacity:0.4;"/>
   </g>
   <g id="patch_101">
    <path clip-path="url(#pe2eff4438a)" d="M 142.462163 224.64 
L 145.460868 224.64 
L 145.460868 220.334684 
L 142.462163 220.334684 
z
" style="fill:#2ca02c;opacity:0.4;"/>
   </g>
   <g id="patch_102">
    <path clip-path="url(#pe2eff4438a)" d="M 145.460868 224.64 
L 148.459573 224.64 
L 148.459573 222.05681 
L 145.460868 222.05681 
z
" style="fill:#2ca02c;opacity:0.4;"/>
   </g>
   <g id="patch_103">
    <path clip-path="url(#pe2eff4438a)" d="M 148.459573 224.64 
L 151.458277 224.64 
L 151.458277 222.487342 
L 148.459573 222.487342 
z
" style="fill:#2ca02c;opacity:0.4;"/>
   </g>
   <g id="patch_104">
    <path clip-path="url(#pe2eff4438a)" d="M 151.458277 224.64 
L 154.456982 224.64 
L 154.456982 223.778937 
L 151.458277 223.778937 
z
" style="fill:#2ca02c;opacity:0.4;"/>
   </g>
   <g id="patch_105">
    <path clip-path="url(#pe2eff4438a)" d="M 154.456982 224.64 
L 157.455687 224.64 
L 157.455687 224.209468 
L 154.456982 224.209468 
z
" style="fill:#2ca02c;opacity:0.4;"/>
   </g>
   <g id="patch_106">
    <path clip-path="url(#pe2eff4438a)" d="M 157.455687 224.64 
L 160.454391 224.64 
L 160.454391 223.778937 
L 157.455687 223.778937 
z
" style="fill:#2ca02c;opacity:0.4;"/>
   </g>
   <g id="patch_107">
    <path clip-path="url(#pe2eff4438a)" d="M 160.454391 224.64 
L 163.453096 224.64 
L 163.453096 222.05681 
L 160.454391 222.05681 
z
" style="fill:#2ca02c;opacity:0.4;"/>
   </g>
   <g id="patch_108">
    <path clip-path="url(#pe2eff4438a)" d="M 163.453096 224.64 
L 166.451801 224.64 
L 166.451801 223.778937 
L 163.453096 223.778937 
z
" style="fill:#2ca02c;opacity:0.4;"/>
   </g>
   <g id="patch_109">
    <path clip-path="url(#pe2eff4438a)" d="M 166.451801 224.64 
L 169.450506 224.64 
L 169.450506 223.348405 
L 166.451801 223.348405 
z
" style="fill:#2ca02c;opacity:0.4;"/>
   </g>
   <g id="patch_110">
    <path clip-path="url(#pe2eff4438a)" d="M 169.450506 224.64 
L 172.44921 224.64 
L 172.44921 223.778937 
L 169.450506 223.778937 
z
" style="fill:#2ca02c;opacity:0.4;"/>
   </g>
   <g id="patch_111">
    <path clip-path="url(#pe2eff4438a)" d="M 172.44921 224.64 
L 175.447915 224.64 
L 175.447915 223.778937 
L 172.44921 223.778937 
z
" style="fill:#2ca02c;opacity:0.4;"/>
   </g>
   <g id="patch_112">
    <path clip-path="url(#pe2eff4438a)" d="M 175.447915 224.64 
L 178.44662 224.64 
L 178.44662 224.64 
L 175.447915 224.64 
z
" style="fill:#2ca02c;opacity:0.4;"/>
   </g>
   <g id="patch_113">
    <path clip-path="url(#pe2eff4438a)" d="M 178.44662 224.64 
L 181.445324 224.64 
L 181.445324 224.209468 
L 178.44662 224.209468 
z
" style="fill:#2ca02c;opacity:0.4;"/>
   </g>
   <g id="patch_114">
    <path clip-path="url(#pe2eff4438a)" d="M 181.445324 224.64 
L 184.444029 224.64 
L 184.444029 223.778937 
L 181.445324 223.778937 
z
" style="fill:#2ca02c;opacity:0.4;"/>
   </g>
   <g id="patch_115">
    <path clip-path="url(#pe2eff4438a)" d="M 184.444029 224.64 
L 187.442734 224.64 
L 187.442734 224.209468 
L 184.444029 224.209468 
z
" style="fill:#2ca02c;opacity:0.4;"/>
   </g>
   <g id="patch_116">
    <path clip-path="url(#pe2eff4438a)" d="M 187.442734 224.64 
L 190.441439 224.64 
L 190.441439 223.778937 
L 187.442734 223.778937 
z
" style="fill:#2ca02c;opacity:0.4;"/>
   </g>
   <g id="patch_117">
    <path clip-path="url(#pe2eff4438a)" d="M 190.441439 224.64 
L 193.440143 224.64 
L 193.440143 224.64 
L 190.441439 224.64 
z
" style="fill:#2ca02c;opacity:0.4;"/>
   </g>
   <g id="patch_118">
    <path clip-path="url(#pe2eff4438a)" d="M 193.440143 224.64 
L 196.438848 224.64 
L 196.438848 224.64 
L 193.440143 224.64 
z
" style="fill:#2ca02c;opacity:0.4;"/>
   </g>
   <g id="patch_119">
    <path clip-path="url(#pe2eff4438a)" d="M 196.438848 224.64 
L 199.437553 224.64 
L 199.437553 224.64 
L 196.438848 224.64 
z
" style="fill:#2ca02c;opacity:0.4;"/>
   </g>
   <g id="patch_120">
    <path clip-path="url(#pe2eff4438a)" d="M 199.437553 224.64 
L 202.436257 224.64 
L 202.436257 224.209468 
L 199.437553 224.209468 
z
" style="fill:#2ca02c;opacity:0.4;"/>
   </g>
   <g id="patch_121">
    <path clip-path="url(#pe2eff4438a)" d="M 202.436257 224.64 
L 205.434962 224.64 
L 205.434962 224.209468 
L 202.436257 224.209468 
z
" style="fill:#2ca02c;opacity:0.4;"/>
   </g>
   <g id="patch_122">
    <path clip-path="url(#pe2eff4438a)" d="M 205.434962 224.64 
L 208.433667 224.64 
L 208.433667 224.64 
L 205.434962 224.64 
z
" style="fill:#2ca02c;opacity:0.4;"/>
   </g>
   <g id="patch_123">
    <path clip-path="url(#pe2eff4438a)" d="M 208.433667 224.64 
L 211.432372 224.64 
L 211.432372 224.64 
L 208.433667 224.64 
z
" style="fill:#2ca02c;opacity:0.4;"/>
   </g>
   <g id="patch_124">
    <path clip-path="url(#pe2eff4438a)" d="M 211.432372 224.64 
L 214.431076 224.64 
L 214.431076 224.64 
L 211.432372 224.64 
z
" style="fill:#2ca02c;opacity:0.4;"/>
   </g>
   <g id="patch_125">
    <path clip-path="url(#pe2eff4438a)" d="M 214.431076 224.64 
L 217.429781 224.64 
L 217.429781 224.209468 
L 214.431076 224.209468 
z
" style="fill:#2ca02c;opacity:0.4;"/>
   </g>
   <g id="patch_126">
    <path clip-path="url(#pe2eff4438a)" d="M 217.429781 224.64 
L 220.428486 224.64 
L 220.428486 224.64 
L 217.429781 224.64 
z
" style="fill:#2ca02c;opacity:0.4;"/>
   </g>
   <g id="patch_127">
    <path clip-path="url(#pe2eff4438a)" d="M 220.428486 224.64 
L 223.42719 224.64 
L 223.42719 224.209468 
L 220.428486 224.209468 
z
" style="fill:#2ca02c;opacity:0.4;"/>
   </g>
   <g id="matplotlib.axis_1">
    <g id="xtick_1">
     <g id="line2d_1">
      <defs>
       <path d="M 0 0 
L 0 3.5 
" id="m23755ded08" style="stroke:#000000;stroke-width:0.8;"/>
      </defs>
      <g>
       <use style="stroke:#000000;stroke-width:0.8;" x="88.485478" xlink:href="#m23755ded08" y="224.64"/>
      </g>
     </g>
     <g id="text_1">
      <!-- 0 -->
      <g transform="translate(85.304228 239.238437)scale(0.1 -0.1)">
       <defs>
        <path d="M 2034 4250 
Q 1547 4250 1301 3770 
Q 1056 3291 1056 2328 
Q 1056 1369 1301 889 
Q 1547 409 2034 409 
Q 2525 409 2770 889 
Q 3016 1369 3016 2328 
Q 3016 3291 2770 3770 
Q 2525 4250 2034 4250 
z
M 2034 4750 
Q 2819 4750 3233 4129 
Q 3647 3509 3647 2328 
Q 3647 1150 3233 529 
Q 2819 -91 2034 -91 
Q 1250 -91 836 529 
Q 422 1150 422 2328 
Q 422 3509 836 4129 
Q 1250 4750 2034 4750 
z
" id="DejaVuSans-30" transform="scale(0.015625)"/>
       </defs>
       <use xlink:href="#DejaVuSans-30"/>
      </g>
     </g>
    </g>
    <g id="xtick_2">
     <g id="line2d_2">
      <g>
       <use style="stroke:#000000;stroke-width:0.8;" x="151.848051" xlink:href="#m23755ded08" y="224.64"/>
      </g>
     </g>
     <g id="text_2">
      <!-- 5 -->
      <g transform="translate(148.666801 239.238437)scale(0.1 -0.1)">
       <defs>
        <path d="M 691 4666 
L 3169 4666 
L 3169 4134 
L 1269 4134 
L 1269 2991 
Q 1406 3038 1543 3061 
Q 1681 3084 1819 3084 
Q 2600 3084 3056 2656 
Q 3513 2228 3513 1497 
Q 3513 744 3044 326 
Q 2575 -91 1722 -91 
Q 1428 -91 1123 -41 
Q 819 9 494 109 
L 494 744 
Q 775 591 1075 516 
Q 1375 441 1709 441 
Q 2250 441 2565 725 
Q 2881 1009 2881 1497 
Q 2881 1984 2565 2268 
Q 2250 2553 1709 2553 
Q 1456 2553 1204 2497 
Q 953 2441 691 2322 
L 691 4666 
z
" id="DejaVuSans-35" transform="scale(0.015625)"/>
       </defs>
       <use xlink:href="#DejaVuSans-35"/>
      </g>
     </g>
    </g>
    <g id="xtick_3">
     <g id="line2d_3">
      <g>
       <use style="stroke:#000000;stroke-width:0.8;" x="215.210623" xlink:href="#m23755ded08" y="224.64"/>
      </g>
     </g>
     <g id="text_3">
      <!-- 10 -->
      <g transform="translate(208.848123 239.238437)scale(0.1 -0.1)">
       <defs>
        <path d="M 794 531 
L 1825 531 
L 1825 4091 
L 703 3866 
L 703 4441 
L 1819 4666 
L 2450 4666 
L 2450 531 
L 3481 531 
L 3481 0 
L 794 0 
L 794 531 
z
" id="DejaVuSans-31" transform="scale(0.015625)"/>
       </defs>
       <use xlink:href="#DejaVuSans-31"/>
       <use x="63.623047" xlink:href="#DejaVuSans-30"/>
      </g>
     </g>
    </g>
    <g id="xtick_4">
     <g id="line2d_4">
      <g>
       <use style="stroke:#000000;stroke-width:0.8;" x="278.573196" xlink:href="#m23755ded08" y="224.64"/>
      </g>
     </g>
     <g id="text_4">
      <!-- 15 -->
      <g transform="translate(272.210696 239.238437)scale(0.1 -0.1)">
       <use xlink:href="#DejaVuSans-31"/>
       <use x="63.623047" xlink:href="#DejaVuSans-35"/>
      </g>
     </g>
    </g>
    <g id="xtick_5">
     <g id="line2d_5">
      <g>
       <use style="stroke:#000000;stroke-width:0.8;" x="341.935768" xlink:href="#m23755ded08" y="224.64"/>
      </g>
     </g>
     <g id="text_5">
      <!-- 20 -->
      <g transform="translate(335.573268 239.238437)scale(0.1 -0.1)">
       <defs>
        <path d="M 1228 531 
L 3431 531 
L 3431 0 
L 469 0 
L 469 531 
Q 828 903 1448 1529 
Q 2069 2156 2228 2338 
Q 2531 2678 2651 2914 
Q 2772 3150 2772 3378 
Q 2772 3750 2511 3984 
Q 2250 4219 1831 4219 
Q 1534 4219 1204 4116 
Q 875 4013 500 3803 
L 500 4441 
Q 881 4594 1212 4672 
Q 1544 4750 1819 4750 
Q 2544 4750 2975 4387 
Q 3406 4025 3406 3419 
Q 3406 3131 3298 2873 
Q 3191 2616 2906 2266 
Q 2828 2175 2409 1742 
Q 1991 1309 1228 531 
z
" id="DejaVuSans-32" transform="scale(0.015625)"/>
       </defs>
       <use xlink:href="#DejaVuSans-32"/>
       <use x="63.623047" xlink:href="#DejaVuSans-30"/>
      </g>
     </g>
    </g>
    <g id="text_6">
     <!-- f(t) -->
     <g transform="translate(209.921875 252.916562)scale(0.1 -0.1)">
      <defs>
       <path d="M 2375 4863 
L 2375 4384 
L 1825 4384 
Q 1516 4384 1395 4259 
Q 1275 4134 1275 3809 
L 1275 3500 
L 2222 3500 
L 2222 3053 
L 1275 3053 
L 1275 0 
L 697 0 
L 697 3053 
L 147 3053 
L 147 3500 
L 697 3500 
L 697 3744 
Q 697 4328 969 4595 
Q 1241 4863 1831 4863 
L 2375 4863 
z
" id="DejaVuSans-66" transform="scale(0.015625)"/>
       <path d="M 1984 4856 
Q 1566 4138 1362 3434 
Q 1159 2731 1159 2009 
Q 1159 1288 1364 580 
Q 1569 -128 1984 -844 
L 1484 -844 
Q 1016 -109 783 600 
Q 550 1309 550 2009 
Q 550 2706 781 3412 
Q 1013 4119 1484 4856 
L 1984 4856 
z
" id="DejaVuSans-28" transform="scale(0.015625)"/>
       <path d="M 1172 4494 
L 1172 3500 
L 2356 3500 
L 2356 3053 
L 1172 3053 
L 1172 1153 
Q 1172 725 1289 603 
Q 1406 481 1766 481 
L 2356 481 
L 2356 0 
L 1766 0 
Q 1100 0 847 248 
Q 594 497 594 1153 
L 594 3053 
L 172 3053 
L 172 3500 
L 594 3500 
L 594 4494 
L 1172 4494 
z
" id="DejaVuSans-74" transform="scale(0.015625)"/>
       <path d="M 513 4856 
L 1013 4856 
Q 1481 4119 1714 3412 
Q 1947 2706 1947 2009 
Q 1947 1309 1714 600 
Q 1481 -109 1013 -844 
L 513 -844 
Q 928 -128 1133 580 
Q 1338 1288 1338 2009 
Q 1338 2731 1133 3434 
Q 928 4138 513 4856 
z
" id="DejaVuSans-29" transform="scale(0.015625)"/>
      </defs>
      <use xlink:href="#DejaVuSans-66"/>
      <use x="35.205078" xlink:href="#DejaVuSans-28"/>
      <use x="74.21875" xlink:href="#DejaVuSans-74"/>
      <use x="113.427734" xlink:href="#DejaVuSans-29"/>
     </g>
    </g>
   </g>
   <g id="matplotlib.axis_2">
    <g id="ytick_1">
     <g id="line2d_6">
      <defs>
       <path d="M 0 0 
L -3.5 0 
" id="mf484b08307" style="stroke:#000000;stroke-width:0.8;"/>
      </defs>
      <g>
       <use style="stroke:#000000;stroke-width:0.8;" x="50.14375" xlink:href="#mf484b08307" y="224.64"/>
      </g>
     </g>
     <g id="text_7">
      <!-- 0.00 -->
      <g transform="translate(20.878125 228.439219)scale(0.1 -0.1)">
       <defs>
        <path d="M 684 794 
L 1344 794 
L 1344 0 
L 684 0 
L 684 794 
z
" id="DejaVuSans-2e" transform="scale(0.015625)"/>
       </defs>
       <use xlink:href="#DejaVuSans-30"/>
       <use x="63.623047" xlink:href="#DejaVuSans-2e"/>
       <use x="95.410156" xlink:href="#DejaVuSans-30"/>
       <use x="159.033203" xlink:href="#DejaVuSans-30"/>
      </g>
     </g>
    </g>
    <g id="ytick_2">
     <g id="line2d_7">
      <g>
       <use style="stroke:#000000;stroke-width:0.8;" x="50.14375" xlink:href="#mf484b08307" y="199.17076"/>
      </g>
     </g>
     <g id="text_8">
      <!-- 0.25 -->
      <g transform="translate(20.878125 202.969979)scale(0.1 -0.1)">
       <use xlink:href="#DejaVuSans-30"/>
       <use x="63.623047" xlink:href="#DejaVuSans-2e"/>
       <use x="95.410156" xlink:href="#DejaVuSans-32"/>
       <use x="159.033203" xlink:href="#DejaVuSans-35"/>
      </g>
     </g>
    </g>
    <g id="ytick_3">
     <g id="line2d_8">
      <g>
       <use style="stroke:#000000;stroke-width:0.8;" x="50.14375" xlink:href="#mf484b08307" y="173.701521"/>
      </g>
     </g>
     <g id="text_9">
      <!-- 0.50 -->
      <g transform="translate(20.878125 177.50074)scale(0.1 -0.1)">
       <use xlink:href="#DejaVuSans-30"/>
       <use x="63.623047" xlink:href="#DejaVuSans-2e"/>
       <use x="95.410156" xlink:href="#DejaVuSans-35"/>
       <use x="159.033203" xlink:href="#DejaVuSans-30"/>
      </g>
     </g>
    </g>
    <g id="ytick_4">
     <g id="line2d_9">
      <g>
       <use style="stroke:#000000;stroke-width:0.8;" x="50.14375" xlink:href="#mf484b08307" y="148.232281"/>
      </g>
     </g>
     <g id="text_10">
      <!-- 0.75 -->
      <g transform="translate(20.878125 152.0315)scale(0.1 -0.1)">
       <defs>
        <path d="M 525 4666 
L 3525 4666 
L 3525 4397 
L 1831 0 
L 1172 0 
L 2766 4134 
L 525 4134 
L 525 4666 
z
" id="DejaVuSans-37" transform="scale(0.015625)"/>
       </defs>
       <use xlink:href="#DejaVuSans-30"/>
       <use x="63.623047" xlink:href="#DejaVuSans-2e"/>
       <use x="95.410156" xlink:href="#DejaVuSans-37"/>
       <use x="159.033203" xlink:href="#DejaVuSans-35"/>
      </g>
     </g>
    </g>
    <g id="ytick_5">
     <g id="line2d_10">
      <g>
       <use style="stroke:#000000;stroke-width:0.8;" x="50.14375" xlink:href="#mf484b08307" y="122.763042"/>
      </g>
     </g>
     <g id="text_11">
      <!-- 1.00 -->
      <g transform="translate(20.878125 126.56226)scale(0.1 -0.1)">
       <use xlink:href="#DejaVuSans-31"/>
       <use x="63.623047" xlink:href="#DejaVuSans-2e"/>
       <use x="95.410156" xlink:href="#DejaVuSans-30"/>
       <use x="159.033203" xlink:href="#DejaVuSans-30"/>
      </g>
     </g>
    </g>
    <g id="ytick_6">
     <g id="line2d_11">
      <g>
       <use style="stroke:#000000;stroke-width:0.8;" x="50.14375" xlink:href="#mf484b08307" y="97.293802"/>
      </g>
     </g>
     <g id="text_12">
      <!-- 1.25 -->
      <g transform="translate(20.878125 101.093021)scale(0.1 -0.1)">
       <use xlink:href="#DejaVuSans-31"/>
       <use x="63.623047" xlink:href="#DejaVuSans-2e"/>
       <use x="95.410156" xlink:href="#DejaVuSans-32"/>
       <use x="159.033203" xlink:href="#DejaVuSans-35"/>
      </g>
     </g>
    </g>
    <g id="ytick_7">
     <g id="line2d_12">
      <g>
       <use style="stroke:#000000;stroke-width:0.8;" x="50.14375" xlink:href="#mf484b08307" y="71.824563"/>
      </g>
     </g>
     <g id="text_13">
      <!-- 1.50 -->
      <g transform="translate(20.878125 75.623781)scale(0.1 -0.1)">
       <use xlink:href="#DejaVuSans-31"/>
       <use x="63.623047" xlink:href="#DejaVuSans-2e"/>
       <use x="95.410156" xlink:href="#DejaVuSans-35"/>
       <use x="159.033203" xlink:href="#DejaVuSans-30"/>
      </g>
     </g>
    </g>
    <g id="ytick_8">
     <g id="line2d_13">
      <g>
       <use style="stroke:#000000;stroke-width:0.8;" x="50.14375" xlink:href="#mf484b08307" y="46.355323"/>
      </g>
     </g>
     <g id="text_14">
      <!-- 1.75 -->
      <g transform="translate(20.878125 50.154542)scale(0.1 -0.1)">
       <use xlink:href="#DejaVuSans-31"/>
       <use x="63.623047" xlink:href="#DejaVuSans-2e"/>
       <use x="95.410156" xlink:href="#DejaVuSans-37"/>
       <use x="159.033203" xlink:href="#DejaVuSans-35"/>
      </g>
     </g>
    </g>
    <g id="ytick_9">
     <g id="line2d_14">
      <g>
       <use style="stroke:#000000;stroke-width:0.8;" x="50.14375" xlink:href="#mf484b08307" y="20.886083"/>
      </g>
     </g>
     <g id="text_15">
      <!-- 2.00 -->
      <g transform="translate(20.878125 24.685302)scale(0.1 -0.1)">
       <use xlink:href="#DejaVuSans-32"/>
       <use x="63.623047" xlink:href="#DejaVuSans-2e"/>
       <use x="95.410156" xlink:href="#DejaVuSans-30"/>
       <use x="159.033203" xlink:href="#DejaVuSans-30"/>
      </g>
     </g>
    </g>
    <g id="text_16">
     <!-- Density -->
     <g transform="translate(14.798438 134.928594)rotate(-90)scale(0.1 -0.1)">
      <defs>
       <path d="M 1259 4147 
L 1259 519 
L 2022 519 
Q 2988 519 3436 956 
Q 3884 1394 3884 2338 
Q 3884 3275 3436 3711 
Q 2988 4147 2022 4147 
L 1259 4147 
z
M 628 4666 
L 1925 4666 
Q 3281 4666 3915 4102 
Q 4550 3538 4550 2338 
Q 4550 1131 3912 565 
Q 3275 0 1925 0 
L 628 0 
L 628 4666 
z
" id="DejaVuSans-44" transform="scale(0.015625)"/>
       <path d="M 3597 1894 
L 3597 1613 
L 953 1613 
Q 991 1019 1311 708 
Q 1631 397 2203 397 
Q 2534 397 2845 478 
Q 3156 559 3463 722 
L 3463 178 
Q 3153 47 2828 -22 
Q 2503 -91 2169 -91 
Q 1331 -91 842 396 
Q 353 884 353 1716 
Q 353 2575 817 3079 
Q 1281 3584 2069 3584 
Q 2775 3584 3186 3129 
Q 3597 2675 3597 1894 
z
M 3022 2063 
Q 3016 2534 2758 2815 
Q 2500 3097 2075 3097 
Q 1594 3097 1305 2825 
Q 1016 2553 972 2059 
L 3022 2063 
z
" id="DejaVuSans-65" transform="scale(0.015625)"/>
       <path d="M 3513 2113 
L 3513 0 
L 2938 0 
L 2938 2094 
Q 2938 2591 2744 2837 
Q 2550 3084 2163 3084 
Q 1697 3084 1428 2787 
Q 1159 2491 1159 1978 
L 1159 0 
L 581 0 
L 581 3500 
L 1159 3500 
L 1159 2956 
Q 1366 3272 1645 3428 
Q 1925 3584 2291 3584 
Q 2894 3584 3203 3211 
Q 3513 2838 3513 2113 
z
" id="DejaVuSans-6e" transform="scale(0.015625)"/>
       <path d="M 2834 3397 
L 2834 2853 
Q 2591 2978 2328 3040 
Q 2066 3103 1784 3103 
Q 1356 3103 1142 2972 
Q 928 2841 928 2578 
Q 928 2378 1081 2264 
Q 1234 2150 1697 2047 
L 1894 2003 
Q 2506 1872 2764 1633 
Q 3022 1394 3022 966 
Q 3022 478 2636 193 
Q 2250 -91 1575 -91 
Q 1294 -91 989 -36 
Q 684 19 347 128 
L 347 722 
Q 666 556 975 473 
Q 1284 391 1588 391 
Q 1994 391 2212 530 
Q 2431 669 2431 922 
Q 2431 1156 2273 1281 
Q 2116 1406 1581 1522 
L 1381 1569 
Q 847 1681 609 1914 
Q 372 2147 372 2553 
Q 372 3047 722 3315 
Q 1072 3584 1716 3584 
Q 2034 3584 2315 3537 
Q 2597 3491 2834 3397 
z
" id="DejaVuSans-73" transform="scale(0.015625)"/>
       <path d="M 603 3500 
L 1178 3500 
L 1178 0 
L 603 0 
L 603 3500 
z
M 603 4863 
L 1178 4863 
L 1178 4134 
L 603 4134 
L 603 4863 
z
" id="DejaVuSans-69" transform="scale(0.015625)"/>
       <path d="M 2059 -325 
Q 1816 -950 1584 -1140 
Q 1353 -1331 966 -1331 
L 506 -1331 
L 506 -850 
L 844 -850 
Q 1081 -850 1212 -737 
Q 1344 -625 1503 -206 
L 1606 56 
L 191 3500 
L 800 3500 
L 1894 763 
L 2988 3500 
L 3597 3500 
L 2059 -325 
z
" id="DejaVuSans-79" transform="scale(0.015625)"/>
      </defs>
      <use xlink:href="#DejaVuSans-44"/>
      <use x="77.001953" xlink:href="#DejaVuSans-65"/>
      <use x="138.525391" xlink:href="#DejaVuSans-6e"/>
      <use x="201.904297" xlink:href="#DejaVuSans-73"/>
      <use x="254.003906" xlink:href="#DejaVuSans-69"/>
      <use x="281.787109" xlink:href="#DejaVuSans-74"/>
      <use x="320.996094" xlink:href="#DejaVuSans-79"/>
     </g>
    </g>
   </g>
   <g id="line2d_15">
    <path clip-path="url(#pe2eff4438a)" d="M 69.665246 224.634632 
L 76.895763 224.51527 
L 79.994555 224.279519 
L 82.060417 223.970341 
L 84.126279 223.475924 
L 86.192141 222.739013 
L 88.258002 221.711018 
L 90.323864 220.362245 
L 92.389726 218.688518 
L 94.455588 216.712125 
L 96.521449 214.477963 
L 99.620242 210.783378 
L 105.817827 203.22843 
L 107.883689 201.054714 
L 109.949551 199.251852 
L 112.015413 197.928492 
L 113.048344 197.473216 
L 114.081275 197.164451 
L 115.114205 197.004602 
L 116.147136 196.992187 
L 117.180067 197.121711 
L 118.212998 197.383851 
L 120.27886 198.252845 
L 122.344722 199.473588 
L 125.443514 201.678139 
L 136.805754 210.149368 
L 140.937478 212.938606 
L 144.03627 214.747936 
L 146.102132 215.75417 
L 148.167994 216.583999 
L 151.266786 217.532958 
L 154.365579 218.224999 
L 158.497303 218.902494 
L 163.661957 219.498304 
L 170.892473 220.32202 
L 184.320575 222.099178 
L 192.584022 222.808222 
L 200.847469 223.329026 
L 212.209709 223.860383 
L 221.506087 223.940597 
L 231.835396 224.20515 
L 242.164705 224.315733 
L 258.691599 224.514842 
L 271.08677 224.634546 
L 275.218493 224.639029 
L 275.218493 224.639029 
" style="fill:none;stroke:#1f77b4;stroke-linecap:square;stroke-width:1.5;"/>
   </g>
   <g id="line2d_16">
    <path clip-path="url(#pe2eff4438a)" d="M 65.361932 224.508216 
L 68.420863 224.200234 
L 69.950328 223.879827 
L 71.479794 223.373069 
L 73.009259 222.603586 
L 74.538725 221.482165 
L 76.06819 219.914197 
L 77.597656 217.811986 
L 79.127121 215.111287 
L 80.656587 211.790005 
L 82.186052 207.885586 
L 85.244983 198.836536 
L 88.303914 189.649003 
L 89.83338 185.718993 
L 91.362845 182.603811 
L 92.892311 180.516045 
L 94.421776 179.582023 
L 95.951242 179.828381 
L 97.480708 181.183155 
L 99.010173 183.490346 
L 100.539639 186.534461 
L 103.59857 193.851423 
L 106.657501 201.306143 
L 108.186966 204.669225 
L 109.716432 207.666134 
L 111.245897 210.26137 
L 112.775363 212.454356 
L 114.304828 214.268851 
L 115.834294 215.743306 
L 117.363759 216.923342 
L 118.893225 217.85665 
L 120.42269 218.589934 
L 123.481621 219.628426 
L 126.540552 220.337205 
L 132.658414 221.454728 
L 137.246811 222.148546 
L 141.835207 222.616408 
L 147.953069 222.967128 
L 154.070931 223.113013 
L 169.365586 223.157819 
L 187.719173 224.055271 
L 206.072759 224.239263 
L 251.956724 224.30323 
L 265.721914 224.421082 
L 285.604965 224.438774 
L 300.89962 224.562503 
L 369.725568 224.639258 
L 369.725568 224.639258 
" style="fill:none;stroke:#ff7f0e;stroke-linecap:square;stroke-width:1.5;"/>
   </g>
   <g id="line2d_17">
    <path clip-path="url(#pe2eff4438a)" d="M 73.663909 224.133946 
L 74.490968 223.810778 
L 75.318028 223.318122 
L 76.145087 222.589847 
L 76.972147 221.546237 
L 77.799206 220.097123 
L 78.626266 218.148267 
L 79.453326 215.611275 
L 80.280385 212.416743 
L 81.107445 208.529416 
L 82.761564 198.794083 
L 86.896862 170.948166 
L 87.723921 166.912552 
L 88.550981 163.990464 
L 89.37804 162.31984 
L 90.2051 161.944019 
L 91.032159 162.810932 
L 91.859219 164.78451 
L 92.686278 167.665744 
L 94.340398 175.201126 
L 97.648636 191.387693 
L 99.302755 197.971129 
L 100.956874 203.179159 
L 102.610993 207.160986 
L 104.265112 210.146357 
L 105.919231 212.34551 
L 107.57335 213.92504 
L 109.22747 215.015098 
L 110.881589 215.723443 
L 112.535708 216.148656 
L 115.016886 216.472379 
L 118.325125 216.825644 
L 120.806303 217.316457 
L 127.42278 218.964823 
L 130.731018 219.394276 
L 134.866316 219.88336 
L 139.001614 220.664738 
L 143.963971 221.600129 
L 155.542805 223.406591 
L 158.023983 223.448986 
L 165.467519 223.350945 
L 170.429877 223.65328 
L 177.046353 224.065087 
L 183.66283 224.134385 
L 191.106365 224.310349 
L 197.722842 224.433906 
L 207.647557 224.502414 
L 215.091093 224.506352 
L 225.015807 224.518979 
L 238.24876 224.638836 
L 238.24876 224.638836 
" style="fill:none;stroke:#2ca02c;stroke-linecap:square;stroke-width:1.5;"/>
   </g>
   <g id="patch_128">
    <path d="M 50.14375 224.64 
L 50.14375 7.2 
" style="fill:none;stroke:#000000;stroke-linecap:square;stroke-linejoin:miter;stroke-width:0.8;"/>
   </g>
   <g id="patch_129">
    <path d="M 384.94375 224.64 
L 384.94375 7.2 
" style="fill:none;stroke:#000000;stroke-linecap:square;stroke-linejoin:miter;stroke-width:0.8;"/>
   </g>
   <g id="patch_130">
    <path d="M 50.14375 224.64 
L 384.94375 224.64 
" style="fill:none;stroke:#000000;stroke-linecap:square;stroke-linejoin:miter;stroke-width:0.8;"/>
   </g>
   <g id="patch_131">
    <path d="M 50.14375 7.2 
L 384.94375 7.2 
" style="fill:none;stroke:#000000;stroke-linecap:square;stroke-linejoin:miter;stroke-width:0.8;"/>
   </g>
  </g>
 </g>
 <defs>
  <clipPath id="pe2eff4438a">
   <rect height="217.44" width="334.8" x="50.14375" y="7.2"/>
  </clipPath>
 </defs>
</svg>
