<?xml version="1.0" encoding="utf-8" standalone="no"?>
<!DOCTYPE svg PUBLIC "-//W3C//DTD SVG 1.1//EN"
  "http://www.w3.org/Graphics/SVG/1.1/DTD/svg11.dtd">
<!-- Created with matplotlib (https://matplotlib.org/) -->
<svg height="262.19625pt" version="1.1" viewBox="0 0 392.14375 262.19625" width="392.14375pt" xmlns="http://www.w3.org/2000/svg" xmlns:xlink="http://www.w3.org/1999/xlink">
 <metadata>
  <rdf:RDF xmlns:cc="http://creativecommons.org/ns#" xmlns:dc="http://purl.org/dc/elements/1.1/" xmlns:rdf="http://www.w3.org/1999/02/22-rdf-syntax-ns#">
   <cc:Work>
    <dc:type rdf:resource="http://purl.org/dc/dcmitype/StillImage"/>
    <dc:date>2021-01-25T14:16:38.155103</dc:date>
    <dc:format>image/svg+xml</dc:format>
    <dc:creator>
     <cc:Agent>
      <dc:title>Matplotlib v3.3.3, https://matplotlib.org/</dc:title>
     </cc:Agent>
    </dc:creator>
   </cc:Work>
  </rdf:RDF>
 </metadata>
 <defs>
  <style type="text/css">*{stroke-linecap:butt;stroke-linejoin:round;}</style>
 </defs>
 <g id="figure_1">
  <g id="patch_1">
   <path d="M 0 262.19625 
L 392.14375 262.19625 
L 392.14375 0 
L 0 0 
z
" style="fill:none;"/>
  </g>
  <g id="axes_1">
   <g id="patch_2">
    <path d="M 50.14375 224.64 
L 384.94375 224.64 
L 384.94375 7.2 
L 50.14375 7.2 
z
" style="fill:#ffffff;"/>
   </g>
   <g id="patch_3">
    <path clip-path="url(#p837148dbd7)" d="M 87.762178 224.64 
L 92.072216 224.64 
L 92.072216 219.804093 
L 87.762178 219.804093 
z
" style="fill:#1f77b4;opacity:0.4;"/>
   </g>
   <g id="patch_4">
    <path clip-path="url(#p837148dbd7)" d="M 92.072216 224.64 
L 96.382254 224.64 
L 96.382254 217.990627 
L 92.072216 217.990627 
z
" style="fill:#1f77b4;opacity:0.4;"/>
   </g>
   <g id="patch_5">
    <path clip-path="url(#p837148dbd7)" d="M 96.382254 224.64 
L 100.692292 224.64 
L 100.692292 210.736766 
L 96.382254 210.736766 
z
" style="fill:#1f77b4;opacity:0.4;"/>
   </g>
   <g id="patch_6">
    <path clip-path="url(#p837148dbd7)" d="M 100.692292 224.64 
L 105.002329 224.64 
L 105.002329 204.087394 
L 100.692292 204.087394 
z
" style="fill:#1f77b4;opacity:0.4;"/>
   </g>
   <g id="patch_7">
    <path clip-path="url(#p837148dbd7)" d="M 105.002329 224.64 
L 109.312367 224.64 
L 109.312367 199.855975 
L 105.002329 199.855975 
z
" style="fill:#1f77b4;opacity:0.4;"/>
   </g>
   <g id="patch_8">
    <path clip-path="url(#p837148dbd7)" d="M 109.312367 224.64 
L 113.622405 224.64 
L 113.622405 193.81109 
L 109.312367 193.81109 
z
" style="fill:#1f77b4;opacity:0.4;"/>
   </g>
   <g id="patch_9">
    <path clip-path="url(#p837148dbd7)" d="M 113.622405 224.64 
L 117.932443 224.64 
L 117.932443 186.254985 
L 113.622405 186.254985 
z
" style="fill:#1f77b4;opacity:0.4;"/>
   </g>
   <g id="patch_10">
    <path clip-path="url(#p837148dbd7)" d="M 117.932443 224.64 
L 122.242481 224.64 
L 122.242481 191.997625 
L 117.932443 191.997625 
z
" style="fill:#1f77b4;opacity:0.4;"/>
   </g>
   <g id="patch_11">
    <path clip-path="url(#p837148dbd7)" d="M 122.242481 224.64 
L 126.552518 224.64 
L 126.552518 199.251486 
L 122.242481 199.251486 
z
" style="fill:#1f77b4;opacity:0.4;"/>
   </g>
   <g id="patch_12">
    <path clip-path="url(#p837148dbd7)" d="M 126.552518 224.64 
L 130.862556 224.64 
L 130.862556 198.646998 
L 126.552518 198.646998 
z
" style="fill:#1f77b4;opacity:0.4;"/>
   </g>
   <g id="patch_13">
    <path clip-path="url(#p837148dbd7)" d="M 130.862556 224.64 
L 135.172594 224.64 
L 135.172594 213.759208 
L 130.862556 213.759208 
z
" style="fill:#1f77b4;opacity:0.4;"/>
   </g>
   <g id="patch_14">
    <path clip-path="url(#p837148dbd7)" d="M 135.172594 224.64 
L 139.482632 224.64 
L 139.482632 212.852476 
L 135.172594 212.852476 
z
" style="fill:#1f77b4;opacity:0.4;"/>
   </g>
   <g id="patch_15">
    <path clip-path="url(#p837148dbd7)" d="M 139.482632 224.64 
L 143.79267 224.64 
L 143.79267 212.247987 
L 139.482632 212.247987 
z
" style="fill:#1f77b4;opacity:0.4;"/>
   </g>
   <g id="patch_16">
    <path clip-path="url(#p837148dbd7)" d="M 143.79267 224.64 
L 148.102708 224.64 
L 148.102708 219.501848 
L 143.79267 219.501848 
z
" style="fill:#1f77b4;opacity:0.4;"/>
   </g>
   <g id="patch_17">
    <path clip-path="url(#p837148dbd7)" d="M 148.102708 224.64 
L 152.412745 224.64 
L 152.412745 219.199604 
L 148.102708 219.199604 
z
" style="fill:#1f77b4;opacity:0.4;"/>
   </g>
   <g id="patch_18">
    <path clip-path="url(#p837148dbd7)" d="M 152.412745 224.64 
L 156.722783 224.64 
L 156.722783 221.617558 
L 152.412745 221.617558 
z
" style="fill:#1f77b4;opacity:0.4;"/>
   </g>
   <g id="patch_19">
    <path clip-path="url(#p837148dbd7)" d="M 156.722783 224.64 
L 161.032821 224.64 
L 161.032821 219.804093 
L 156.722783 219.804093 
z
" style="fill:#1f77b4;opacity:0.4;"/>
   </g>
   <g id="patch_20">
    <path clip-path="url(#p837148dbd7)" d="M 161.032821 224.64 
L 165.342859 224.64 
L 165.342859 221.013069 
L 161.032821 221.013069 
z
" style="fill:#1f77b4;opacity:0.4;"/>
   </g>
   <g id="patch_21">
    <path clip-path="url(#p837148dbd7)" d="M 165.342859 224.64 
L 169.652897 224.64 
L 169.652897 220.408581 
L 165.342859 220.408581 
z
" style="fill:#1f77b4;opacity:0.4;"/>
   </g>
   <g id="patch_22">
    <path clip-path="url(#p837148dbd7)" d="M 169.652897 224.64 
L 173.962935 224.64 
L 173.962935 221.919802 
L 169.652897 221.919802 
z
" style="fill:#1f77b4;opacity:0.4;"/>
   </g>
   <g id="patch_23">
    <path clip-path="url(#p837148dbd7)" d="M 173.962935 224.64 
L 178.272972 224.64 
L 178.272972 222.222046 
L 173.962935 222.222046 
z
" style="fill:#1f77b4;opacity:0.4;"/>
   </g>
   <g id="patch_24">
    <path clip-path="url(#p837148dbd7)" d="M 178.272972 224.64 
L 182.58301 224.64 
L 182.58301 222.826535 
L 178.272972 222.826535 
z
" style="fill:#1f77b4;opacity:0.4;"/>
   </g>
   <g id="patch_25">
    <path clip-path="url(#p837148dbd7)" d="M 182.58301 224.64 
L 186.893048 224.64 
L 186.893048 223.128779 
L 182.58301 223.128779 
z
" style="fill:#1f77b4;opacity:0.4;"/>
   </g>
   <g id="patch_26">
    <path clip-path="url(#p837148dbd7)" d="M 186.893048 224.64 
L 191.203086 224.64 
L 191.203086 224.035512 
L 186.893048 224.035512 
z
" style="fill:#1f77b4;opacity:0.4;"/>
   </g>
   <g id="patch_27">
    <path clip-path="url(#p837148dbd7)" d="M 191.203086 224.64 
L 195.513124 224.64 
L 195.513124 222.826535 
L 191.203086 222.826535 
z
" style="fill:#1f77b4;opacity:0.4;"/>
   </g>
   <g id="patch_28">
    <path clip-path="url(#p837148dbd7)" d="M 195.513124 224.64 
L 199.823161 224.64 
L 199.823161 223.431023 
L 195.513124 223.431023 
z
" style="fill:#1f77b4;opacity:0.4;"/>
   </g>
   <g id="patch_29">
    <path clip-path="url(#p837148dbd7)" d="M 199.823161 224.64 
L 204.133199 224.64 
L 204.133199 223.733267 
L 199.823161 223.733267 
z
" style="fill:#1f77b4;opacity:0.4;"/>
   </g>
   <g id="patch_30">
    <path clip-path="url(#p837148dbd7)" d="M 204.133199 224.64 
L 208.443237 224.64 
L 208.443237 224.035512 
L 204.133199 224.035512 
z
" style="fill:#1f77b4;opacity:0.4;"/>
   </g>
   <g id="patch_31">
    <path clip-path="url(#p837148dbd7)" d="M 208.443237 224.64 
L 212.753275 224.64 
L 212.753275 223.733267 
L 208.443237 223.733267 
z
" style="fill:#1f77b4;opacity:0.4;"/>
   </g>
   <g id="patch_32">
    <path clip-path="url(#p837148dbd7)" d="M 212.753275 224.64 
L 217.063313 224.64 
L 217.063313 224.035512 
L 212.753275 224.035512 
z
" style="fill:#1f77b4;opacity:0.4;"/>
   </g>
   <g id="patch_33">
    <path clip-path="url(#p837148dbd7)" d="M 217.063313 224.64 
L 221.373351 224.64 
L 221.373351 224.337756 
L 217.063313 224.337756 
z
" style="fill:#1f77b4;opacity:0.4;"/>
   </g>
   <g id="patch_34">
    <path clip-path="url(#p837148dbd7)" d="M 221.373351 224.64 
L 225.683388 224.64 
L 225.683388 224.64 
L 221.373351 224.64 
z
" style="fill:#1f77b4;opacity:0.4;"/>
   </g>
   <g id="patch_35">
    <path clip-path="url(#p837148dbd7)" d="M 225.683388 224.64 
L 229.993426 224.64 
L 229.993426 224.337756 
L 225.683388 224.337756 
z
" style="fill:#1f77b4;opacity:0.4;"/>
   </g>
   <g id="patch_36">
    <path clip-path="url(#p837148dbd7)" d="M 229.993426 224.64 
L 234.303464 224.64 
L 234.303464 224.337756 
L 229.993426 224.337756 
z
" style="fill:#1f77b4;opacity:0.4;"/>
   </g>
   <g id="patch_37">
    <path clip-path="url(#p837148dbd7)" d="M 234.303464 224.64 
L 238.613502 224.64 
L 238.613502 224.64 
L 234.303464 224.64 
z
" style="fill:#1f77b4;opacity:0.4;"/>
   </g>
   <g id="patch_38">
    <path clip-path="url(#p837148dbd7)" d="M 238.613502 224.64 
L 242.92354 224.64 
L 242.92354 224.64 
L 238.613502 224.64 
z
" style="fill:#1f77b4;opacity:0.4;"/>
   </g>
   <g id="patch_39">
    <path clip-path="url(#p837148dbd7)" d="M 242.92354 224.64 
L 247.233578 224.64 
L 247.233578 224.337756 
L 242.92354 224.337756 
z
" style="fill:#1f77b4;opacity:0.4;"/>
   </g>
   <g id="patch_40">
    <path clip-path="url(#p837148dbd7)" d="M 247.233578 224.64 
L 251.543615 224.64 
L 251.543615 224.337756 
L 247.233578 224.337756 
z
" style="fill:#1f77b4;opacity:0.4;"/>
   </g>
   <g id="patch_41">
    <path clip-path="url(#p837148dbd7)" d="M 251.543615 224.64 
L 255.853653 224.64 
L 255.853653 224.64 
L 251.543615 224.64 
z
" style="fill:#1f77b4;opacity:0.4;"/>
   </g>
   <g id="patch_42">
    <path clip-path="url(#p837148dbd7)" d="M 255.853653 224.64 
L 260.163691 224.64 
L 260.163691 224.64 
L 255.853653 224.64 
z
" style="fill:#1f77b4;opacity:0.4;"/>
   </g>
   <g id="patch_43">
    <path clip-path="url(#p837148dbd7)" d="M 260.163691 224.64 
L 264.473729 224.64 
L 264.473729 224.64 
L 260.163691 224.64 
z
" style="fill:#1f77b4;opacity:0.4;"/>
   </g>
   <g id="patch_44">
    <path clip-path="url(#p837148dbd7)" d="M 264.473729 224.64 
L 268.783767 224.64 
L 268.783767 224.64 
L 264.473729 224.64 
z
" style="fill:#1f77b4;opacity:0.4;"/>
   </g>
   <g id="patch_45">
    <path clip-path="url(#p837148dbd7)" d="M 268.783767 224.64 
L 273.093804 224.64 
L 273.093804 224.64 
L 268.783767 224.64 
z
" style="fill:#1f77b4;opacity:0.4;"/>
   </g>
   <g id="patch_46">
    <path clip-path="url(#p837148dbd7)" d="M 273.093804 224.64 
L 277.403842 224.64 
L 277.403842 224.64 
L 273.093804 224.64 
z
" style="fill:#1f77b4;opacity:0.4;"/>
   </g>
   <g id="patch_47">
    <path clip-path="url(#p837148dbd7)" d="M 277.403842 224.64 
L 281.71388 224.64 
L 281.71388 224.64 
L 277.403842 224.64 
z
" style="fill:#1f77b4;opacity:0.4;"/>
   </g>
   <g id="patch_48">
    <path clip-path="url(#p837148dbd7)" d="M 281.71388 224.64 
L 286.023918 224.64 
L 286.023918 224.64 
L 281.71388 224.64 
z
" style="fill:#1f77b4;opacity:0.4;"/>
   </g>
   <g id="patch_49">
    <path clip-path="url(#p837148dbd7)" d="M 286.023918 224.64 
L 290.333956 224.64 
L 290.333956 224.64 
L 286.023918 224.64 
z
" style="fill:#1f77b4;opacity:0.4;"/>
   </g>
   <g id="patch_50">
    <path clip-path="url(#p837148dbd7)" d="M 290.333956 224.64 
L 294.643994 224.64 
L 294.643994 224.64 
L 290.333956 224.64 
z
" style="fill:#1f77b4;opacity:0.4;"/>
   </g>
   <g id="patch_51">
    <path clip-path="url(#p837148dbd7)" d="M 294.643994 224.64 
L 298.954031 224.64 
L 298.954031 224.64 
L 294.643994 224.64 
z
" style="fill:#1f77b4;opacity:0.4;"/>
   </g>
   <g id="patch_52">
    <path clip-path="url(#p837148dbd7)" d="M 298.954031 224.64 
L 303.264069 224.64 
L 303.264069 224.337756 
L 298.954031 224.337756 
z
" style="fill:#1f77b4;opacity:0.4;"/>
   </g>
   <g id="patch_53">
    <path clip-path="url(#p837148dbd7)" d="M 86.553813 224.64 
L 91.793411 224.64 
L 91.793411 132.4009 
L 86.553813 132.4009 
z
" style="fill:#ff7f0e;opacity:0.4;"/>
   </g>
   <g id="patch_54">
    <path clip-path="url(#p837148dbd7)" d="M 91.793411 224.64 
L 97.033008 224.64 
L 97.033008 149.804504 
L 91.793411 149.804504 
z
" style="fill:#ff7f0e;opacity:0.4;"/>
   </g>
   <g id="patch_55">
    <path clip-path="url(#p837148dbd7)" d="M 97.033008 224.64 
L 102.272606 224.64 
L 102.272606 185.35758 
L 97.033008 185.35758 
z
" style="fill:#ff7f0e;opacity:0.4;"/>
   </g>
   <g id="patch_56">
    <path clip-path="url(#p837148dbd7)" d="M 102.272606 224.64 
L 107.512203 224.64 
L 107.512203 213.451969 
L 102.272606 213.451969 
z
" style="fill:#ff7f0e;opacity:0.4;"/>
   </g>
   <g id="patch_57">
    <path clip-path="url(#p837148dbd7)" d="M 107.512203 224.64 
L 112.751801 224.64 
L 112.751801 218.424427 
L 107.512203 218.424427 
z
" style="fill:#ff7f0e;opacity:0.4;"/>
   </g>
   <g id="patch_58">
    <path clip-path="url(#p837148dbd7)" d="M 112.751801 224.64 
L 117.991398 224.64 
L 117.991398 221.905148 
L 112.751801 221.905148 
z
" style="fill:#ff7f0e;opacity:0.4;"/>
   </g>
   <g id="patch_59">
    <path clip-path="url(#p837148dbd7)" d="M 117.991398 224.64 
L 123.230995 224.64 
L 123.230995 221.905148 
L 117.991398 221.905148 
z
" style="fill:#ff7f0e;opacity:0.4;"/>
   </g>
   <g id="patch_60">
    <path clip-path="url(#p837148dbd7)" d="M 123.230995 224.64 
L 128.470593 224.64 
L 128.470593 222.89964 
L 123.230995 222.89964 
z
" style="fill:#ff7f0e;opacity:0.4;"/>
   </g>
   <g id="patch_61">
    <path clip-path="url(#p837148dbd7)" d="M 128.470593 224.64 
L 133.71019 224.64 
L 133.71019 222.89964 
L 128.470593 222.89964 
z
" style="fill:#ff7f0e;opacity:0.4;"/>
   </g>
   <g id="patch_62">
    <path clip-path="url(#p837148dbd7)" d="M 133.71019 224.64 
L 138.949788 224.64 
L 138.949788 222.89964 
L 133.71019 222.89964 
z
" style="fill:#ff7f0e;opacity:0.4;"/>
   </g>
   <g id="patch_63">
    <path clip-path="url(#p837148dbd7)" d="M 138.949788 224.64 
L 144.189385 224.64 
L 144.189385 222.402394 
L 138.949788 222.402394 
z
" style="fill:#ff7f0e;opacity:0.4;"/>
   </g>
   <g id="patch_64">
    <path clip-path="url(#p837148dbd7)" d="M 144.189385 224.64 
L 149.428983 224.64 
L 149.428983 224.391377 
L 144.189385 224.391377 
z
" style="fill:#ff7f0e;opacity:0.4;"/>
   </g>
   <g id="patch_65">
    <path clip-path="url(#p837148dbd7)" d="M 149.428983 224.64 
L 154.66858 224.64 
L 154.66858 224.391377 
L 149.428983 224.391377 
z
" style="fill:#ff7f0e;opacity:0.4;"/>
   </g>
   <g id="patch_66">
    <path clip-path="url(#p837148dbd7)" d="M 154.66858 224.64 
L 159.908178 224.64 
L 159.908178 223.645508 
L 154.66858 223.645508 
z
" style="fill:#ff7f0e;opacity:0.4;"/>
   </g>
   <g id="patch_67">
    <path clip-path="url(#p837148dbd7)" d="M 159.908178 224.64 
L 165.147775 224.64 
L 165.147775 224.64 
L 159.908178 224.64 
z
" style="fill:#ff7f0e;opacity:0.4;"/>
   </g>
   <g id="patch_68">
    <path clip-path="url(#p837148dbd7)" d="M 165.147775 224.64 
L 170.387373 224.64 
L 170.387373 224.391377 
L 165.147775 224.391377 
z
" style="fill:#ff7f0e;opacity:0.4;"/>
   </g>
   <g id="patch_69">
    <path clip-path="url(#p837148dbd7)" d="M 170.387373 224.64 
L 175.62697 224.64 
L 175.62697 223.396885 
L 170.387373 223.396885 
z
" style="fill:#ff7f0e;opacity:0.4;"/>
   </g>
   <g id="patch_70">
    <path clip-path="url(#p837148dbd7)" d="M 175.62697 224.64 
L 180.866568 224.64 
L 180.866568 223.894131 
L 175.62697 223.894131 
z
" style="fill:#ff7f0e;opacity:0.4;"/>
   </g>
   <g id="patch_71">
    <path clip-path="url(#p837148dbd7)" d="M 180.866568 224.64 
L 186.106165 224.64 
L 186.106165 224.391377 
L 180.866568 224.391377 
z
" style="fill:#ff7f0e;opacity:0.4;"/>
   </g>
   <g id="patch_72">
    <path clip-path="url(#p837148dbd7)" d="M 186.106165 224.64 
L 191.345763 224.64 
L 191.345763 223.148263 
L 186.106165 223.148263 
z
" style="fill:#ff7f0e;opacity:0.4;"/>
   </g>
   <g id="patch_73">
    <path clip-path="url(#p837148dbd7)" d="M 191.345763 224.64 
L 196.58536 224.64 
L 196.58536 223.894131 
L 191.345763 223.894131 
z
" style="fill:#ff7f0e;opacity:0.4;"/>
   </g>
   <g id="patch_74">
    <path clip-path="url(#p837148dbd7)" d="M 196.58536 224.64 
L 201.824958 224.64 
L 201.824958 224.142754 
L 196.58536 224.142754 
z
" style="fill:#ff7f0e;opacity:0.4;"/>
   </g>
   <g id="patch_75">
    <path clip-path="url(#p837148dbd7)" d="M 201.824958 224.64 
L 207.064555 224.64 
L 207.064555 224.142754 
L 201.824958 224.142754 
z
" style="fill:#ff7f0e;opacity:0.4;"/>
   </g>
   <g id="patch_76">
    <path clip-path="url(#p837148dbd7)" d="M 207.064555 224.64 
L 212.304153 224.64 
L 212.304153 223.645508 
L 207.064555 223.645508 
z
" style="fill:#ff7f0e;opacity:0.4;"/>
   </g>
   <g id="patch_77">
    <path clip-path="url(#p837148dbd7)" d="M 212.304153 224.64 
L 217.54375 224.64 
L 217.54375 224.391377 
L 212.304153 224.391377 
z
" style="fill:#ff7f0e;opacity:0.4;"/>
   </g>
   <g id="patch_78">
    <path clip-path="url(#p837148dbd7)" d="M 217.54375 224.64 
L 222.783347 224.64 
L 222.783347 224.391377 
L 217.54375 224.391377 
z
" style="fill:#ff7f0e;opacity:0.4;"/>
   </g>
   <g id="patch_79">
    <path clip-path="url(#p837148dbd7)" d="M 222.783347 224.64 
L 228.022945 224.64 
L 228.022945 224.391377 
L 222.783347 224.391377 
z
" style="fill:#ff7f0e;opacity:0.4;"/>
   </g>
   <g id="patch_80">
    <path clip-path="url(#p837148dbd7)" d="M 228.022945 224.64 
L 233.262542 224.64 
L 233.262542 224.391377 
L 228.022945 224.391377 
z
" style="fill:#ff7f0e;opacity:0.4;"/>
   </g>
   <g id="patch_81">
    <path clip-path="url(#p837148dbd7)" d="M 233.262542 224.64 
L 238.50214 224.64 
L 238.50214 224.64 
L 233.262542 224.64 
z
" style="fill:#ff7f0e;opacity:0.4;"/>
   </g>
   <g id="patch_82">
    <path clip-path="url(#p837148dbd7)" d="M 238.50214 224.64 
L 243.741737 224.64 
L 243.741737 224.64 
L 238.50214 224.64 
z
" style="fill:#ff7f0e;opacity:0.4;"/>
   </g>
   <g id="patch_83">
    <path clip-path="url(#p837148dbd7)" d="M 243.741737 224.64 
L 248.981335 224.64 
L 248.981335 224.391377 
L 243.741737 224.391377 
z
" style="fill:#ff7f0e;opacity:0.4;"/>
   </g>
   <g id="patch_84">
    <path clip-path="url(#p837148dbd7)" d="M 248.981335 224.64 
L 254.220932 224.64 
L 254.220932 223.894131 
L 248.981335 223.894131 
z
" style="fill:#ff7f0e;opacity:0.4;"/>
   </g>
   <g id="patch_85">
    <path clip-path="url(#p837148dbd7)" d="M 254.220932 224.64 
L 259.46053 224.64 
L 259.46053 224.391377 
L 254.220932 224.391377 
z
" style="fill:#ff7f0e;opacity:0.4;"/>
   </g>
   <g id="patch_86">
    <path clip-path="url(#p837148dbd7)" d="M 259.46053 224.64 
L 264.700127 224.64 
L 264.700127 224.391377 
L 259.46053 224.391377 
z
" style="fill:#ff7f0e;opacity:0.4;"/>
   </g>
   <g id="patch_87">
    <path clip-path="url(#p837148dbd7)" d="M 264.700127 224.64 
L 269.939725 224.64 
L 269.939725 224.64 
L 264.700127 224.64 
z
" style="fill:#ff7f0e;opacity:0.4;"/>
   </g>
   <g id="patch_88">
    <path clip-path="url(#p837148dbd7)" d="M 269.939725 224.64 
L 275.179322 224.64 
L 275.179322 224.64 
L 269.939725 224.64 
z
" style="fill:#ff7f0e;opacity:0.4;"/>
   </g>
   <g id="patch_89">
    <path clip-path="url(#p837148dbd7)" d="M 275.179322 224.64 
L 280.41892 224.64 
L 280.41892 224.64 
L 275.179322 224.64 
z
" style="fill:#ff7f0e;opacity:0.4;"/>
   </g>
   <g id="patch_90">
    <path clip-path="url(#p837148dbd7)" d="M 280.41892 224.64 
L 285.658517 224.64 
L 285.658517 224.391377 
L 280.41892 224.391377 
z
" style="fill:#ff7f0e;opacity:0.4;"/>
   </g>
   <g id="patch_91">
    <path clip-path="url(#p837148dbd7)" d="M 285.658517 224.64 
L 290.898115 224.64 
L 290.898115 224.64 
L 285.658517 224.64 
z
" style="fill:#ff7f0e;opacity:0.4;"/>
   </g>
   <g id="patch_92">
    <path clip-path="url(#p837148dbd7)" d="M 290.898115 224.64 
L 296.137712 224.64 
L 296.137712 224.64 
L 290.898115 224.64 
z
" style="fill:#ff7f0e;opacity:0.4;"/>
   </g>
   <g id="patch_93">
    <path clip-path="url(#p837148dbd7)" d="M 296.137712 224.64 
L 301.37731 224.64 
L 301.37731 224.64 
L 296.137712 224.64 
z
" style="fill:#ff7f0e;opacity:0.4;"/>
   </g>
   <g id="patch_94">
    <path clip-path="url(#p837148dbd7)" d="M 301.37731 224.64 
L 306.616907 224.64 
L 306.616907 224.391377 
L 301.37731 224.391377 
z
" style="fill:#ff7f0e;opacity:0.4;"/>
   </g>
   <g id="patch_95">
    <path clip-path="url(#p837148dbd7)" d="M 306.616907 224.64 
L 311.856505 224.64 
L 311.856505 224.64 
L 306.616907 224.64 
z
" style="fill:#ff7f0e;opacity:0.4;"/>
   </g>
   <g id="patch_96">
    <path clip-path="url(#p837148dbd7)" d="M 311.856505 224.64 
L 317.096102 224.64 
L 317.096102 224.64 
L 311.856505 224.64 
z
" style="fill:#ff7f0e;opacity:0.4;"/>
   </g>
   <g id="patch_97">
    <path clip-path="url(#p837148dbd7)" d="M 317.096102 224.64 
L 322.335699 224.64 
L 322.335699 224.64 
L 317.096102 224.64 
z
" style="fill:#ff7f0e;opacity:0.4;"/>
   </g>
   <g id="patch_98">
    <path clip-path="url(#p837148dbd7)" d="M 322.335699 224.64 
L 327.575297 224.64 
L 327.575297 224.64 
L 322.335699 224.64 
z
" style="fill:#ff7f0e;opacity:0.4;"/>
   </g>
   <g id="patch_99">
    <path clip-path="url(#p837148dbd7)" d="M 327.575297 224.64 
L 332.814894 224.64 
L 332.814894 224.391377 
L 327.575297 224.391377 
z
" style="fill:#ff7f0e;opacity:0.4;"/>
   </g>
   <g id="patch_100">
    <path clip-path="url(#p837148dbd7)" d="M 332.814894 224.64 
L 338.054492 224.64 
L 338.054492 224.64 
L 332.814894 224.64 
z
" style="fill:#ff7f0e;opacity:0.4;"/>
   </g>
   <g id="patch_101">
    <path clip-path="url(#p837148dbd7)" d="M 338.054492 224.64 
L 343.294089 224.64 
L 343.294089 224.391377 
L 338.054492 224.391377 
z
" style="fill:#ff7f0e;opacity:0.4;"/>
   </g>
   <g id="patch_102">
    <path clip-path="url(#p837148dbd7)" d="M 343.294089 224.64 
L 348.533687 224.64 
L 348.533687 224.391377 
L 343.294089 224.391377 
z
" style="fill:#ff7f0e;opacity:0.4;"/>
   </g>
   <g id="patch_103">
    <path clip-path="url(#p837148dbd7)" d="M 86.553813 224.64 
L 90.101686 224.64 
L 90.101686 17.554286 
L 86.553813 17.554286 
z
" style="fill:#2ca02c;opacity:0.4;"/>
   </g>
   <g id="patch_104">
    <path clip-path="url(#p837148dbd7)" d="M 90.101686 224.64 
L 93.649559 224.64 
L 93.649559 189.024195 
L 90.101686 189.024195 
z
" style="fill:#2ca02c;opacity:0.4;"/>
   </g>
   <g id="patch_105">
    <path clip-path="url(#p837148dbd7)" d="M 93.649559 224.64 
L 97.197431 224.64 
L 97.197431 183.883769 
L 93.649559 183.883769 
z
" style="fill:#2ca02c;opacity:0.4;"/>
   </g>
   <g id="patch_106">
    <path clip-path="url(#p837148dbd7)" d="M 97.197431 224.64 
L 100.745304 224.64 
L 100.745304 210.687416 
L 97.197431 210.687416 
z
" style="fill:#2ca02c;opacity:0.4;"/>
   </g>
   <g id="patch_107">
    <path clip-path="url(#p837148dbd7)" d="M 100.745304 224.64 
L 104.293177 224.64 
L 104.293177 219.499574 
L 100.745304 219.499574 
z
" style="fill:#2ca02c;opacity:0.4;"/>
   </g>
   <g id="patch_108">
    <path clip-path="url(#p837148dbd7)" d="M 104.293177 224.64 
L 107.84105 224.64 
L 107.84105 216.195015 
L 104.293177 216.195015 
z
" style="fill:#2ca02c;opacity:0.4;"/>
   </g>
   <g id="patch_109">
    <path clip-path="url(#p837148dbd7)" d="M 107.84105 224.64 
L 111.388923 224.64 
L 111.388923 218.765228 
L 107.84105 218.765228 
z
" style="fill:#2ca02c;opacity:0.4;"/>
   </g>
   <g id="patch_110">
    <path clip-path="url(#p837148dbd7)" d="M 111.388923 224.64 
L 114.936795 224.64 
L 114.936795 218.030881 
L 111.388923 218.030881 
z
" style="fill:#2ca02c;opacity:0.4;"/>
   </g>
   <g id="patch_111">
    <path clip-path="url(#p837148dbd7)" d="M 114.936795 224.64 
L 118.484668 224.64 
L 118.484668 219.499574 
L 114.936795 219.499574 
z
" style="fill:#2ca02c;opacity:0.4;"/>
   </g>
   <g id="patch_112">
    <path clip-path="url(#p837148dbd7)" d="M 118.484668 224.64 
L 122.032541 224.64 
L 122.032541 218.398055 
L 118.484668 218.398055 
z
" style="fill:#2ca02c;opacity:0.4;"/>
   </g>
   <g id="patch_113">
    <path clip-path="url(#p837148dbd7)" d="M 122.032541 224.64 
L 125.580414 224.64 
L 125.580414 220.233921 
L 122.032541 220.233921 
z
" style="fill:#2ca02c;opacity:0.4;"/>
   </g>
   <g id="patch_114">
    <path clip-path="url(#p837148dbd7)" d="M 125.580414 224.64 
L 129.128286 224.64 
L 129.128286 222.43696 
L 125.580414 222.43696 
z
" style="fill:#2ca02c;opacity:0.4;"/>
   </g>
   <g id="patch_115">
    <path clip-path="url(#p837148dbd7)" d="M 129.128286 224.64 
L 132.676159 224.64 
L 132.676159 222.804134 
L 129.128286 222.804134 
z
" style="fill:#2ca02c;opacity:0.4;"/>
   </g>
   <g id="patch_116">
    <path clip-path="url(#p837148dbd7)" d="M 132.676159 224.64 
L 136.224032 224.64 
L 136.224032 220.601094 
L 132.676159 220.601094 
z
" style="fill:#2ca02c;opacity:0.4;"/>
   </g>
   <g id="patch_117">
    <path clip-path="url(#p837148dbd7)" d="M 136.224032 224.64 
L 139.771905 224.64 
L 139.771905 223.171307 
L 136.224032 223.171307 
z
" style="fill:#2ca02c;opacity:0.4;"/>
   </g>
   <g id="patch_118">
    <path clip-path="url(#p837148dbd7)" d="M 139.771905 224.64 
L 143.319777 224.64 
L 143.319777 220.968267 
L 139.771905 220.968267 
z
" style="fill:#2ca02c;opacity:0.4;"/>
   </g>
   <g id="patch_119">
    <path clip-path="url(#p837148dbd7)" d="M 143.319777 224.64 
L 146.86765 224.64 
L 146.86765 223.53848 
L 143.319777 223.53848 
z
" style="fill:#2ca02c;opacity:0.4;"/>
   </g>
   <g id="patch_120">
    <path clip-path="url(#p837148dbd7)" d="M 146.86765 224.64 
L 150.415523 224.64 
L 150.415523 223.171307 
L 146.86765 223.171307 
z
" style="fill:#2ca02c;opacity:0.4;"/>
   </g>
   <g id="patch_121">
    <path clip-path="url(#p837148dbd7)" d="M 150.415523 224.64 
L 153.963396 224.64 
L 153.963396 223.171307 
L 150.415523 223.171307 
z
" style="fill:#2ca02c;opacity:0.4;"/>
   </g>
   <g id="patch_122">
    <path clip-path="url(#p837148dbd7)" d="M 153.963396 224.64 
L 157.511268 224.64 
L 157.511268 222.43696 
L 153.963396 222.43696 
z
" style="fill:#2ca02c;opacity:0.4;"/>
   </g>
   <g id="patch_123">
    <path clip-path="url(#p837148dbd7)" d="M 157.511268 224.64 
L 161.059141 224.64 
L 161.059141 223.905653 
L 157.511268 223.905653 
z
" style="fill:#2ca02c;opacity:0.4;"/>
   </g>
   <g id="patch_124">
    <path clip-path="url(#p837148dbd7)" d="M 161.059141 224.64 
L 164.607014 224.64 
L 164.607014 222.069787 
L 161.059141 222.069787 
z
" style="fill:#2ca02c;opacity:0.4;"/>
   </g>
   <g id="patch_125">
    <path clip-path="url(#p837148dbd7)" d="M 164.607014 224.64 
L 168.154887 224.64 
L 168.154887 224.272827 
L 164.607014 224.272827 
z
" style="fill:#2ca02c;opacity:0.4;"/>
   </g>
   <g id="patch_126">
    <path clip-path="url(#p837148dbd7)" d="M 168.154887 224.64 
L 171.702759 224.64 
L 171.702759 222.804134 
L 168.154887 222.804134 
z
" style="fill:#2ca02c;opacity:0.4;"/>
   </g>
   <g id="patch_127">
    <path clip-path="url(#p837148dbd7)" d="M 171.702759 224.64 
L 175.250632 224.64 
L 175.250632 223.905653 
L 171.702759 223.905653 
z
" style="fill:#2ca02c;opacity:0.4;"/>
   </g>
   <g id="patch_128">
    <path clip-path="url(#p837148dbd7)" d="M 175.250632 224.64 
L 178.798505 224.64 
L 178.798505 224.64 
L 175.250632 224.64 
z
" style="fill:#2ca02c;opacity:0.4;"/>
   </g>
   <g id="patch_129">
    <path clip-path="url(#p837148dbd7)" d="M 178.798505 224.64 
L 182.346378 224.64 
L 182.346378 224.272827 
L 178.798505 224.272827 
z
" style="fill:#2ca02c;opacity:0.4;"/>
   </g>
   <g id="patch_130">
    <path clip-path="url(#p837148dbd7)" d="M 182.346378 224.64 
L 185.894251 224.64 
L 185.894251 224.64 
L 182.346378 224.64 
z
" style="fill:#2ca02c;opacity:0.4;"/>
   </g>
   <g id="patch_131">
    <path clip-path="url(#p837148dbd7)" d="M 185.894251 224.64 
L 189.442123 224.64 
L 189.442123 224.272827 
L 185.894251 224.272827 
z
" style="fill:#2ca02c;opacity:0.4;"/>
   </g>
   <g id="patch_132">
    <path clip-path="url(#p837148dbd7)" d="M 189.442123 224.64 
L 192.989996 224.64 
L 192.989996 224.272827 
L 189.442123 224.272827 
z
" style="fill:#2ca02c;opacity:0.4;"/>
   </g>
   <g id="patch_133">
    <path clip-path="url(#p837148dbd7)" d="M 192.989996 224.64 
L 196.537869 224.64 
L 196.537869 224.64 
L 192.989996 224.64 
z
" style="fill:#2ca02c;opacity:0.4;"/>
   </g>
   <g id="patch_134">
    <path clip-path="url(#p837148dbd7)" d="M 196.537869 224.64 
L 200.085742 224.64 
L 200.085742 224.64 
L 196.537869 224.64 
z
" style="fill:#2ca02c;opacity:0.4;"/>
   </g>
   <g id="patch_135">
    <path clip-path="url(#p837148dbd7)" d="M 200.085742 224.64 
L 203.633614 224.64 
L 203.633614 223.905653 
L 200.085742 223.905653 
z
" style="fill:#2ca02c;opacity:0.4;"/>
   </g>
   <g id="patch_136">
    <path clip-path="url(#p837148dbd7)" d="M 203.633614 224.64 
L 207.181487 224.64 
L 207.181487 224.64 
L 203.633614 224.64 
z
" style="fill:#2ca02c;opacity:0.4;"/>
   </g>
   <g id="patch_137">
    <path clip-path="url(#p837148dbd7)" d="M 207.181487 224.64 
L 210.72936 224.64 
L 210.72936 224.64 
L 207.181487 224.64 
z
" style="fill:#2ca02c;opacity:0.4;"/>
   </g>
   <g id="patch_138">
    <path clip-path="url(#p837148dbd7)" d="M 210.72936 224.64 
L 214.277233 224.64 
L 214.277233 224.64 
L 210.72936 224.64 
z
" style="fill:#2ca02c;opacity:0.4;"/>
   </g>
   <g id="patch_139">
    <path clip-path="url(#p837148dbd7)" d="M 214.277233 224.64 
L 217.825105 224.64 
L 217.825105 224.64 
L 214.277233 224.64 
z
" style="fill:#2ca02c;opacity:0.4;"/>
   </g>
   <g id="patch_140">
    <path clip-path="url(#p837148dbd7)" d="M 217.825105 224.64 
L 221.372978 224.64 
L 221.372978 224.64 
L 217.825105 224.64 
z
" style="fill:#2ca02c;opacity:0.4;"/>
   </g>
   <g id="patch_141">
    <path clip-path="url(#p837148dbd7)" d="M 221.372978 224.64 
L 224.920851 224.64 
L 224.920851 224.64 
L 221.372978 224.64 
z
" style="fill:#2ca02c;opacity:0.4;"/>
   </g>
   <g id="patch_142">
    <path clip-path="url(#p837148dbd7)" d="M 224.920851 224.64 
L 228.468724 224.64 
L 228.468724 224.64 
L 224.920851 224.64 
z
" style="fill:#2ca02c;opacity:0.4;"/>
   </g>
   <g id="patch_143">
    <path clip-path="url(#p837148dbd7)" d="M 228.468724 224.64 
L 232.016596 224.64 
L 232.016596 224.64 
L 228.468724 224.64 
z
" style="fill:#2ca02c;opacity:0.4;"/>
   </g>
   <g id="patch_144">
    <path clip-path="url(#p837148dbd7)" d="M 232.016596 224.64 
L 235.564469 224.64 
L 235.564469 224.64 
L 232.016596 224.64 
z
" style="fill:#2ca02c;opacity:0.4;"/>
   </g>
   <g id="patch_145">
    <path clip-path="url(#p837148dbd7)" d="M 235.564469 224.64 
L 239.112342 224.64 
L 239.112342 224.64 
L 235.564469 224.64 
z
" style="fill:#2ca02c;opacity:0.4;"/>
   </g>
   <g id="patch_146">
    <path clip-path="url(#p837148dbd7)" d="M 239.112342 224.64 
L 242.660215 224.64 
L 242.660215 224.64 
L 239.112342 224.64 
z
" style="fill:#2ca02c;opacity:0.4;"/>
   </g>
   <g id="patch_147">
    <path clip-path="url(#p837148dbd7)" d="M 242.660215 224.64 
L 246.208088 224.64 
L 246.208088 224.64 
L 242.660215 224.64 
z
" style="fill:#2ca02c;opacity:0.4;"/>
   </g>
   <g id="patch_148">
    <path clip-path="url(#p837148dbd7)" d="M 246.208088 224.64 
L 249.75596 224.64 
L 249.75596 224.64 
L 246.208088 224.64 
z
" style="fill:#2ca02c;opacity:0.4;"/>
   </g>
   <g id="patch_149">
    <path clip-path="url(#p837148dbd7)" d="M 249.75596 224.64 
L 253.303833 224.64 
L 253.303833 224.64 
L 249.75596 224.64 
z
" style="fill:#2ca02c;opacity:0.4;"/>
   </g>
   <g id="patch_150">
    <path clip-path="url(#p837148dbd7)" d="M 253.303833 224.64 
L 256.851706 224.64 
L 256.851706 224.64 
L 253.303833 224.64 
z
" style="fill:#2ca02c;opacity:0.4;"/>
   </g>
   <g id="patch_151">
    <path clip-path="url(#p837148dbd7)" d="M 256.851706 224.64 
L 260.399579 224.64 
L 260.399579 224.64 
L 256.851706 224.64 
z
" style="fill:#2ca02c;opacity:0.4;"/>
   </g>
   <g id="patch_152">
    <path clip-path="url(#p837148dbd7)" d="M 260.399579 224.64 
L 263.947451 224.64 
L 263.947451 224.272827 
L 260.399579 224.272827 
z
" style="fill:#2ca02c;opacity:0.4;"/>
   </g>
   <g id="matplotlib.axis_1">
    <g id="xtick_1">
     <g id="line2d_1">
      <defs>
       <path d="M 0 0 
L 0 3.5 
" id="m9b716dd699" style="stroke:#000000;stroke-width:0.8;"/>
      </defs>
      <g>
       <use style="stroke:#000000;stroke-width:0.8;" x="86.553813" xlink:href="#m9b716dd699" y="224.64"/>
      </g>
     </g>
     <g id="text_1">
      <!-- 0 -->
      <g transform="translate(83.372563 239.238437)scale(0.1 -0.1)">
       <defs>
        <path d="M 31.78125 66.40625 
Q 24.171875 66.40625 20.328125 58.90625 
Q 16.5 51.421875 16.5 36.375 
Q 16.5 21.390625 20.328125 13.890625 
Q 24.171875 6.390625 31.78125 6.390625 
Q 39.453125 6.390625 43.28125 13.890625 
Q 47.125 21.390625 47.125 36.375 
Q 47.125 51.421875 43.28125 58.90625 
Q 39.453125 66.40625 31.78125 66.40625 
z
M 31.78125 74.21875 
Q 44.046875 74.21875 50.515625 64.515625 
Q 56.984375 54.828125 56.984375 36.375 
Q 56.984375 17.96875 50.515625 8.265625 
Q 44.046875 -1.421875 31.78125 -1.421875 
Q 19.53125 -1.421875 13.0625 8.265625 
Q 6.59375 17.96875 6.59375 36.375 
Q 6.59375 54.828125 13.0625 64.515625 
Q 19.53125 74.21875 31.78125 74.21875 
z
" id="DejaVuSans-48"/>
       </defs>
       <use xlink:href="#DejaVuSans-48"/>
      </g>
     </g>
    </g>
    <g id="xtick_2">
     <g id="line2d_2">
      <g>
       <use style="stroke:#000000;stroke-width:0.8;" x="153.361769" xlink:href="#m9b716dd699" y="224.64"/>
      </g>
     </g>
     <g id="text_2">
      <!-- 5 -->
      <g transform="translate(150.180519 239.238437)scale(0.1 -0.1)">
       <defs>
        <path d="M 10.796875 72.90625 
L 49.515625 72.90625 
L 49.515625 64.59375 
L 19.828125 64.59375 
L 19.828125 46.734375 
Q 21.96875 47.46875 24.109375 47.828125 
Q 26.265625 48.1875 28.421875 48.1875 
Q 40.625 48.1875 47.75 41.5 
Q 54.890625 34.8125 54.890625 23.390625 
Q 54.890625 11.625 47.5625 5.09375 
Q 40.234375 -1.421875 26.90625 -1.421875 
Q 22.3125 -1.421875 17.546875 -0.640625 
Q 12.796875 0.140625 7.71875 1.703125 
L 7.71875 11.625 
Q 12.109375 9.234375 16.796875 8.0625 
Q 21.484375 6.890625 26.703125 6.890625 
Q 35.15625 6.890625 40.078125 11.328125 
Q 45.015625 15.765625 45.015625 23.390625 
Q 45.015625 31 40.078125 35.4375 
Q 35.15625 39.890625 26.703125 39.890625 
Q 22.75 39.890625 18.8125 39.015625 
Q 14.890625 38.140625 10.796875 36.28125 
z
" id="DejaVuSans-53"/>
       </defs>
       <use xlink:href="#DejaVuSans-53"/>
      </g>
     </g>
    </g>
    <g id="xtick_3">
     <g id="line2d_3">
      <g>
       <use style="stroke:#000000;stroke-width:0.8;" x="220.169725" xlink:href="#m9b716dd699" y="224.64"/>
      </g>
     </g>
     <g id="text_3">
      <!-- 10 -->
      <g transform="translate(213.807225 239.238437)scale(0.1 -0.1)">
       <defs>
        <path d="M 12.40625 8.296875 
L 28.515625 8.296875 
L 28.515625 63.921875 
L 10.984375 60.40625 
L 10.984375 69.390625 
L 28.421875 72.90625 
L 38.28125 72.90625 
L 38.28125 8.296875 
L 54.390625 8.296875 
L 54.390625 0 
L 12.40625 0 
z
" id="DejaVuSans-49"/>
       </defs>
       <use xlink:href="#DejaVuSans-49"/>
       <use x="63.623047" xlink:href="#DejaVuSans-48"/>
      </g>
     </g>
    </g>
    <g id="xtick_4">
     <g id="line2d_4">
      <g>
       <use style="stroke:#000000;stroke-width:0.8;" x="286.97768" xlink:href="#m9b716dd699" y="224.64"/>
      </g>
     </g>
     <g id="text_4">
      <!-- 15 -->
      <g transform="translate(280.61518 239.238437)scale(0.1 -0.1)">
       <use xlink:href="#DejaVuSans-49"/>
       <use x="63.623047" xlink:href="#DejaVuSans-53"/>
      </g>
     </g>
    </g>
    <g id="xtick_5">
     <g id="line2d_5">
      <g>
       <use style="stroke:#000000;stroke-width:0.8;" x="353.785636" xlink:href="#m9b716dd699" y="224.64"/>
      </g>
     </g>
     <g id="text_5">
      <!-- 20 -->
      <g transform="translate(347.423136 239.238437)scale(0.1 -0.1)">
       <defs>
        <path d="M 19.1875 8.296875 
L 53.609375 8.296875 
L 53.609375 0 
L 7.328125 0 
L 7.328125 8.296875 
Q 12.9375 14.109375 22.625 23.890625 
Q 32.328125 33.6875 34.8125 36.53125 
Q 39.546875 41.84375 41.421875 45.53125 
Q 43.3125 49.21875 43.3125 52.78125 
Q 43.3125 58.59375 39.234375 62.25 
Q 35.15625 65.921875 28.609375 65.921875 
Q 23.96875 65.921875 18.8125 64.3125 
Q 13.671875 62.703125 7.8125 59.421875 
L 7.8125 69.390625 
Q 13.765625 71.78125 18.9375 73 
Q 24.125 74.21875 28.421875 74.21875 
Q 39.75 74.21875 46.484375 68.546875 
Q 53.21875 62.890625 53.21875 53.421875 
Q 53.21875 48.921875 51.53125 44.890625 
Q 49.859375 40.875 45.40625 35.40625 
Q 44.1875 33.984375 37.640625 27.21875 
Q 31.109375 20.453125 19.1875 8.296875 
z
" id="DejaVuSans-50"/>
       </defs>
       <use xlink:href="#DejaVuSans-50"/>
       <use x="63.623047" xlink:href="#DejaVuSans-48"/>
      </g>
     </g>
    </g>
    <g id="text_6">
     <!-- f(t) -->
     <g transform="translate(209.921875 252.916562)scale(0.1 -0.1)">
      <defs>
       <path d="M 37.109375 75.984375 
L 37.109375 68.5 
L 28.515625 68.5 
Q 23.6875 68.5 21.796875 66.546875 
Q 19.921875 64.59375 19.921875 59.515625 
L 19.921875 54.6875 
L 34.71875 54.6875 
L 34.71875 47.703125 
L 19.921875 47.703125 
L 19.921875 0 
L 10.890625 0 
L 10.890625 47.703125 
L 2.296875 47.703125 
L 2.296875 54.6875 
L 10.890625 54.6875 
L 10.890625 58.5 
Q 10.890625 67.625 15.140625 71.796875 
Q 19.390625 75.984375 28.609375 75.984375 
z
" id="DejaVuSans-102"/>
       <path d="M 31 75.875 
Q 24.46875 64.65625 21.28125 53.65625 
Q 18.109375 42.671875 18.109375 31.390625 
Q 18.109375 20.125 21.3125 9.0625 
Q 24.515625 -2 31 -13.1875 
L 23.1875 -13.1875 
Q 15.875 -1.703125 12.234375 9.375 
Q 8.59375 20.453125 8.59375 31.390625 
Q 8.59375 42.28125 12.203125 53.3125 
Q 15.828125 64.359375 23.1875 75.875 
z
" id="DejaVuSans-40"/>
       <path d="M 18.3125 70.21875 
L 18.3125 54.6875 
L 36.8125 54.6875 
L 36.8125 47.703125 
L 18.3125 47.703125 
L 18.3125 18.015625 
Q 18.3125 11.328125 20.140625 9.421875 
Q 21.96875 7.515625 27.59375 7.515625 
L 36.8125 7.515625 
L 36.8125 0 
L 27.59375 0 
Q 17.1875 0 13.234375 3.875 
Q 9.28125 7.765625 9.28125 18.015625 
L 9.28125 47.703125 
L 2.6875 47.703125 
L 2.6875 54.6875 
L 9.28125 54.6875 
L 9.28125 70.21875 
z
" id="DejaVuSans-116"/>
       <path d="M 8.015625 75.875 
L 15.828125 75.875 
Q 23.140625 64.359375 26.78125 53.3125 
Q 30.421875 42.28125 30.421875 31.390625 
Q 30.421875 20.453125 26.78125 9.375 
Q 23.140625 -1.703125 15.828125 -13.1875 
L 8.015625 -13.1875 
Q 14.5 -2 17.703125 9.0625 
Q 20.90625 20.125 20.90625 31.390625 
Q 20.90625 42.671875 17.703125 53.65625 
Q 14.5 64.65625 8.015625 75.875 
z
" id="DejaVuSans-41"/>
      </defs>
      <use xlink:href="#DejaVuSans-102"/>
      <use x="35.205078" xlink:href="#DejaVuSans-40"/>
      <use x="74.21875" xlink:href="#DejaVuSans-116"/>
      <use x="113.427734" xlink:href="#DejaVuSans-41"/>
     </g>
    </g>
   </g>
   <g id="matplotlib.axis_2">
    <g id="ytick_1">
     <g id="line2d_6">
      <defs>
       <path d="M 0 0 
L -3.5 0 
" id="mc1243a8384" style="stroke:#000000;stroke-width:0.8;"/>
      </defs>
      <g>
       <use style="stroke:#000000;stroke-width:0.8;" x="50.14375" xlink:href="#mc1243a8384" y="224.64"/>
      </g>
     </g>
     <g id="text_7">
      <!-- 0.00 -->
      <g transform="translate(20.878125 228.439219)scale(0.1 -0.1)">
       <defs>
        <path d="M 10.6875 12.40625 
L 21 12.40625 
L 21 0 
L 10.6875 0 
z
" id="DejaVuSans-46"/>
       </defs>
       <use xlink:href="#DejaVuSans-48"/>
       <use x="63.623047" xlink:href="#DejaVuSans-46"/>
       <use x="95.410156" xlink:href="#DejaVuSans-48"/>
       <use x="159.033203" xlink:href="#DejaVuSans-48"/>
      </g>
     </g>
    </g>
    <g id="ytick_2">
     <g id="line2d_7">
      <g>
       <use style="stroke:#000000;stroke-width:0.8;" x="50.14375" xlink:href="#mc1243a8384" y="200.266331"/>
      </g>
     </g>
     <g id="text_8">
      <!-- 0.25 -->
      <g transform="translate(20.878125 204.06555)scale(0.1 -0.1)">
       <use xlink:href="#DejaVuSans-48"/>
       <use x="63.623047" xlink:href="#DejaVuSans-46"/>
       <use x="95.410156" xlink:href="#DejaVuSans-50"/>
       <use x="159.033203" xlink:href="#DejaVuSans-53"/>
      </g>
     </g>
    </g>
    <g id="ytick_3">
     <g id="line2d_8">
      <g>
       <use style="stroke:#000000;stroke-width:0.8;" x="50.14375" xlink:href="#mc1243a8384" y="175.892663"/>
      </g>
     </g>
     <g id="text_9">
      <!-- 0.50 -->
      <g transform="translate(20.878125 179.691881)scale(0.1 -0.1)">
       <use xlink:href="#DejaVuSans-48"/>
       <use x="63.623047" xlink:href="#DejaVuSans-46"/>
       <use x="95.410156" xlink:href="#DejaVuSans-53"/>
       <use x="159.033203" xlink:href="#DejaVuSans-48"/>
      </g>
     </g>
    </g>
    <g id="ytick_4">
     <g id="line2d_9">
      <g>
       <use style="stroke:#000000;stroke-width:0.8;" x="50.14375" xlink:href="#mc1243a8384" y="151.518994"/>
      </g>
     </g>
     <g id="text_10">
      <!-- 0.75 -->
      <g transform="translate(20.878125 155.318213)scale(0.1 -0.1)">
       <defs>
        <path d="M 8.203125 72.90625 
L 55.078125 72.90625 
L 55.078125 68.703125 
L 28.609375 0 
L 18.3125 0 
L 43.21875 64.59375 
L 8.203125 64.59375 
z
" id="DejaVuSans-55"/>
       </defs>
       <use xlink:href="#DejaVuSans-48"/>
       <use x="63.623047" xlink:href="#DejaVuSans-46"/>
       <use x="95.410156" xlink:href="#DejaVuSans-55"/>
       <use x="159.033203" xlink:href="#DejaVuSans-53"/>
      </g>
     </g>
    </g>
    <g id="ytick_5">
     <g id="line2d_10">
      <g>
       <use style="stroke:#000000;stroke-width:0.8;" x="50.14375" xlink:href="#mc1243a8384" y="127.145325"/>
      </g>
     </g>
     <g id="text_11">
      <!-- 1.00 -->
      <g transform="translate(20.878125 130.944544)scale(0.1 -0.1)">
       <use xlink:href="#DejaVuSans-49"/>
       <use x="63.623047" xlink:href="#DejaVuSans-46"/>
       <use x="95.410156" xlink:href="#DejaVuSans-48"/>
       <use x="159.033203" xlink:href="#DejaVuSans-48"/>
      </g>
     </g>
    </g>
    <g id="ytick_6">
     <g id="line2d_11">
      <g>
       <use style="stroke:#000000;stroke-width:0.8;" x="50.14375" xlink:href="#mc1243a8384" y="102.771657"/>
      </g>
     </g>
     <g id="text_12">
      <!-- 1.25 -->
      <g transform="translate(20.878125 106.570875)scale(0.1 -0.1)">
       <use xlink:href="#DejaVuSans-49"/>
       <use x="63.623047" xlink:href="#DejaVuSans-46"/>
       <use x="95.410156" xlink:href="#DejaVuSans-50"/>
       <use x="159.033203" xlink:href="#DejaVuSans-53"/>
      </g>
     </g>
    </g>
    <g id="ytick_7">
     <g id="line2d_12">
      <g>
       <use style="stroke:#000000;stroke-width:0.8;" x="50.14375" xlink:href="#mc1243a8384" y="78.397988"/>
      </g>
     </g>
     <g id="text_13">
      <!-- 1.50 -->
      <g transform="translate(20.878125 82.197207)scale(0.1 -0.1)">
       <use xlink:href="#DejaVuSans-49"/>
       <use x="63.623047" xlink:href="#DejaVuSans-46"/>
       <use x="95.410156" xlink:href="#DejaVuSans-53"/>
       <use x="159.033203" xlink:href="#DejaVuSans-48"/>
      </g>
     </g>
    </g>
    <g id="ytick_8">
     <g id="line2d_13">
      <g>
       <use style="stroke:#000000;stroke-width:0.8;" x="50.14375" xlink:href="#mc1243a8384" y="54.024319"/>
      </g>
     </g>
     <g id="text_14">
      <!-- 1.75 -->
      <g transform="translate(20.878125 57.823538)scale(0.1 -0.1)">
       <use xlink:href="#DejaVuSans-49"/>
       <use x="63.623047" xlink:href="#DejaVuSans-46"/>
       <use x="95.410156" xlink:href="#DejaVuSans-55"/>
       <use x="159.033203" xlink:href="#DejaVuSans-53"/>
      </g>
     </g>
    </g>
    <g id="ytick_9">
     <g id="line2d_14">
      <g>
       <use style="stroke:#000000;stroke-width:0.8;" x="50.14375" xlink:href="#mc1243a8384" y="29.650651"/>
      </g>
     </g>
     <g id="text_15">
      <!-- 2.00 -->
      <g transform="translate(20.878125 33.449869)scale(0.1 -0.1)">
       <use xlink:href="#DejaVuSans-50"/>
       <use x="63.623047" xlink:href="#DejaVuSans-46"/>
       <use x="95.410156" xlink:href="#DejaVuSans-48"/>
       <use x="159.033203" xlink:href="#DejaVuSans-48"/>
      </g>
     </g>
    </g>
    <g id="text_16">
     <!-- Density -->
     <g transform="translate(14.798438 134.928594)rotate(-90)scale(0.1 -0.1)">
      <defs>
       <path d="M 19.671875 64.796875 
L 19.671875 8.109375 
L 31.59375 8.109375 
Q 46.6875 8.109375 53.6875 14.9375 
Q 60.6875 21.78125 60.6875 36.53125 
Q 60.6875 51.171875 53.6875 57.984375 
Q 46.6875 64.796875 31.59375 64.796875 
z
M 9.8125 72.90625 
L 30.078125 72.90625 
Q 51.265625 72.90625 61.171875 64.09375 
Q 71.09375 55.28125 71.09375 36.53125 
Q 71.09375 17.671875 61.125 8.828125 
Q 51.171875 0 30.078125 0 
L 9.8125 0 
z
" id="DejaVuSans-68"/>
       <path d="M 56.203125 29.59375 
L 56.203125 25.203125 
L 14.890625 25.203125 
Q 15.484375 15.921875 20.484375 11.0625 
Q 25.484375 6.203125 34.421875 6.203125 
Q 39.59375 6.203125 44.453125 7.46875 
Q 49.3125 8.734375 54.109375 11.28125 
L 54.109375 2.78125 
Q 49.265625 0.734375 44.1875 -0.34375 
Q 39.109375 -1.421875 33.890625 -1.421875 
Q 20.796875 -1.421875 13.15625 6.1875 
Q 5.515625 13.8125 5.515625 26.8125 
Q 5.515625 40.234375 12.765625 48.109375 
Q 20.015625 56 32.328125 56 
Q 43.359375 56 49.78125 48.890625 
Q 56.203125 41.796875 56.203125 29.59375 
z
M 47.21875 32.234375 
Q 47.125 39.59375 43.09375 43.984375 
Q 39.0625 48.390625 32.421875 48.390625 
Q 24.90625 48.390625 20.390625 44.140625 
Q 15.875 39.890625 15.1875 32.171875 
z
" id="DejaVuSans-101"/>
       <path d="M 54.890625 33.015625 
L 54.890625 0 
L 45.90625 0 
L 45.90625 32.71875 
Q 45.90625 40.484375 42.875 44.328125 
Q 39.84375 48.1875 33.796875 48.1875 
Q 26.515625 48.1875 22.3125 43.546875 
Q 18.109375 38.921875 18.109375 30.90625 
L 18.109375 0 
L 9.078125 0 
L 9.078125 54.6875 
L 18.109375 54.6875 
L 18.109375 46.1875 
Q 21.34375 51.125 25.703125 53.5625 
Q 30.078125 56 35.796875 56 
Q 45.21875 56 50.046875 50.171875 
Q 54.890625 44.34375 54.890625 33.015625 
z
" id="DejaVuSans-110"/>
       <path d="M 44.28125 53.078125 
L 44.28125 44.578125 
Q 40.484375 46.53125 36.375 47.5 
Q 32.28125 48.484375 27.875 48.484375 
Q 21.1875 48.484375 17.84375 46.4375 
Q 14.5 44.390625 14.5 40.28125 
Q 14.5 37.15625 16.890625 35.375 
Q 19.28125 33.59375 26.515625 31.984375 
L 29.59375 31.296875 
Q 39.15625 29.25 43.1875 25.515625 
Q 47.21875 21.78125 47.21875 15.09375 
Q 47.21875 7.46875 41.1875 3.015625 
Q 35.15625 -1.421875 24.609375 -1.421875 
Q 20.21875 -1.421875 15.453125 -0.5625 
Q 10.6875 0.296875 5.421875 2 
L 5.421875 11.28125 
Q 10.40625 8.6875 15.234375 7.390625 
Q 20.0625 6.109375 24.8125 6.109375 
Q 31.15625 6.109375 34.5625 8.28125 
Q 37.984375 10.453125 37.984375 14.40625 
Q 37.984375 18.0625 35.515625 20.015625 
Q 33.0625 21.96875 24.703125 23.78125 
L 21.578125 24.515625 
Q 13.234375 26.265625 9.515625 29.90625 
Q 5.8125 33.546875 5.8125 39.890625 
Q 5.8125 47.609375 11.28125 51.796875 
Q 16.75 56 26.8125 56 
Q 31.78125 56 36.171875 55.265625 
Q 40.578125 54.546875 44.28125 53.078125 
z
" id="DejaVuSans-115"/>
       <path d="M 9.421875 54.6875 
L 18.40625 54.6875 
L 18.40625 0 
L 9.421875 0 
z
M 9.421875 75.984375 
L 18.40625 75.984375 
L 18.40625 64.59375 
L 9.421875 64.59375 
z
" id="DejaVuSans-105"/>
       <path d="M 32.171875 -5.078125 
Q 28.375 -14.84375 24.75 -17.8125 
Q 21.140625 -20.796875 15.09375 -20.796875 
L 7.90625 -20.796875 
L 7.90625 -13.28125 
L 13.1875 -13.28125 
Q 16.890625 -13.28125 18.9375 -11.515625 
Q 21 -9.765625 23.484375 -3.21875 
L 25.09375 0.875 
L 2.984375 54.6875 
L 12.5 54.6875 
L 29.59375 11.921875 
L 46.6875 54.6875 
L 56.203125 54.6875 
z
" id="DejaVuSans-121"/>
      </defs>
      <use xlink:href="#DejaVuSans-68"/>
      <use x="77.001953" xlink:href="#DejaVuSans-101"/>
      <use x="138.525391" xlink:href="#DejaVuSans-110"/>
      <use x="201.904297" xlink:href="#DejaVuSans-115"/>
      <use x="254.003906" xlink:href="#DejaVuSans-105"/>
      <use x="281.787109" xlink:href="#DejaVuSans-116"/>
      <use x="320.996094" xlink:href="#DejaVuSans-121"/>
     </g>
    </g>
   </g>
   <g id="line2d_15">
    <path clip-path="url(#p837148dbd7)" d="M 69.743002 224.632846 
L 76.063108 224.505893 
L 78.591151 224.304611 
L 81.119194 223.904748 
L 83.647236 223.208815 
L 86.175279 222.129194 
L 88.703322 220.60621 
L 91.231364 218.614704 
L 93.759407 216.167051 
L 96.28745 213.321682 
L 100.079514 208.555289 
L 106.39962 200.393662 
L 108.927663 197.420586 
L 110.191684 196.094131 
L 111.455706 194.92881 
L 112.719727 193.971585 
L 113.983748 193.267942 
L 115.24777 192.855119 
L 116.511791 192.755864 
L 117.775812 192.974321 
L 119.039833 193.49516 
L 120.303855 194.286144 
L 121.567876 195.303407 
L 124.095919 197.821585 
L 127.887983 202.165836 
L 131.680047 206.448529 
L 134.208089 208.986939 
L 136.736132 211.198266 
L 139.264175 213.14276 
L 143.056239 215.731033 
L 145.584281 217.221478 
L 148.112324 218.432531 
L 150.640367 219.319419 
L 153.168409 219.910562 
L 155.696452 220.283495 
L 160.752537 220.712915 
L 170.864708 221.493112 
L 177.184814 222.28038 
L 182.2409 222.899626 
L 186.032964 223.185017 
L 191.089049 223.338193 
L 201.20122 223.59243 
L 221.425561 224.334289 
L 229.009689 224.451242 
L 285.890648 224.638681 
L 321.283245 224.639039 
L 321.283245 224.639039 
" style="fill:none;stroke:#1f77b4;stroke-linecap:square;stroke-width:1.5;"/>
   </g>
   <g id="line2d_16">
    <path clip-path="url(#p837148dbd7)" d="M 65.361932 224.495993 
L 68.420863 224.10765 
L 69.950328 223.68101 
L 71.479794 222.985073 
L 73.009259 221.903009 
L 74.538725 220.299884 
L 76.06819 218.037776 
L 77.597656 214.999616 
L 79.127121 211.119416 
L 80.656587 206.413446 
L 82.186052 201.004655 
L 86.774449 183.445505 
L 88.303914 178.484613 
L 89.83338 174.657067 
L 91.362845 172.268578 
L 92.892311 171.490208 
L 94.421776 172.339171 
L 95.951242 174.683697 
L 97.480708 178.269132 
L 99.010173 182.758722 
L 105.128035 202.69603 
L 106.657501 206.825966 
L 108.186966 210.339596 
L 109.716432 213.228871 
L 111.245897 215.536193 
L 112.775363 217.334808 
L 114.304828 218.711178 
L 115.834294 219.751458 
L 117.363759 220.532805 
L 118.893225 221.119113 
L 121.952156 221.892862 
L 125.011087 222.332164 
L 129.599483 222.651189 
L 140.305742 223.172063 
L 151.012 223.987838 
L 157.129862 224.169702 
L 164.77719 224.189664 
L 175.483448 223.869613 
L 186.189707 223.741403 
L 193.837035 223.859421 
L 204.543293 224.064035 
L 216.779017 224.246404 
L 235.132603 224.507403 
L 242.779931 224.432474 
L 251.956724 224.283768 
L 261.133517 224.431759 
L 273.369241 224.562871 
L 369.725568 224.639178 
L 369.725568 224.639178 
" style="fill:none;stroke:#ff7f0e;stroke-linecap:square;stroke-width:1.5;"/>
   </g>
   <g id="line2d_17">
    <path clip-path="url(#p837148dbd7)" d="M 72.385795 224.044375 
L 73.419613 223.511087 
L 74.45343 222.59889 
L 75.487248 221.11915 
L 76.521065 218.844737 
L 77.554883 215.536055 
L 78.5887 210.987114 
L 79.622517 205.087919 
L 80.656335 197.89106 
L 82.72397 180.897431 
L 84.791605 164.575186 
L 85.825422 158.52863 
L 86.85924 154.694434 
L 87.893057 153.348303 
L 88.926875 154.443607 
L 89.960692 157.64477 
L 90.994509 162.420838 
L 93.062144 174.322551 
L 95.129779 186.229055 
L 97.197414 196.272874 
L 98.231232 200.462026 
L 99.265049 204.108977 
L 100.298867 207.23205 
L 101.332684 209.84971 
L 102.366502 211.985772 
L 103.400319 213.676069 
L 104.434136 214.97165 
L 105.467954 215.936763 
L 106.501771 216.642548 
L 107.535589 217.158888 
L 109.603224 217.854231 
L 112.704676 218.545935 
L 115.806128 219.034039 
L 120.975216 219.77294 
L 124.076668 220.51522 
L 127.17812 221.280891 
L 129.245755 221.623489 
L 132.347208 221.854156 
L 139.58393 222.178192 
L 150.955922 222.979768 
L 167.497001 223.407344 
L 172.666089 223.76897 
L 179.902811 224.332032 
L 185.071898 224.449811 
L 205.748247 224.480683 
L 216.086422 224.636313 
L 257.43912 224.597424 
L 267.777295 224.560794 
L 278.115469 224.638778 
L 278.115469 224.638778 
" style="fill:none;stroke:#2ca02c;stroke-linecap:square;stroke-width:1.5;"/>
   </g>
   <g id="patch_153">
    <path d="M 50.14375 224.64 
L 50.14375 7.2 
" style="fill:none;stroke:#000000;stroke-linecap:square;stroke-linejoin:miter;stroke-width:0.8;"/>
   </g>
   <g id="patch_154">
    <path d="M 384.94375 224.64 
L 384.94375 7.2 
" style="fill:none;stroke:#000000;stroke-linecap:square;stroke-linejoin:miter;stroke-width:0.8;"/>
   </g>
   <g id="patch_155">
    <path d="M 50.14375 224.64 
L 384.94375 224.64 
" style="fill:none;stroke:#000000;stroke-linecap:square;stroke-linejoin:miter;stroke-width:0.8;"/>
   </g>
   <g id="patch_156">
    <path d="M 50.14375 7.2 
L 384.94375 7.2 
" style="fill:none;stroke:#000000;stroke-linecap:square;stroke-linejoin:miter;stroke-width:0.8;"/>
   </g>
  </g>
 </g>
 <defs>
  <clipPath id="p837148dbd7">
   <rect height="217.44" width="334.8" x="50.14375" y="7.2"/>
  </clipPath>
 </defs>
</svg>
