<?xml version="1.0" encoding="utf-8" standalone="no"?>
<!DOCTYPE svg PUBLIC "-//W3C//DTD SVG 1.1//EN"
  "http://www.w3.org/Graphics/SVG/1.1/DTD/svg11.dtd">
<!-- Created with matplotlib (https://matplotlib.org/) -->
<svg height="262.19625pt" version="1.1" viewBox="0 0 385.78125 262.19625" width="385.78125pt" xmlns="http://www.w3.org/2000/svg" xmlns:xlink="http://www.w3.org/1999/xlink">
 <metadata>
  <rdf:RDF xmlns:cc="http://creativecommons.org/ns#" xmlns:dc="http://purl.org/dc/elements/1.1/" xmlns:rdf="http://www.w3.org/1999/02/22-rdf-syntax-ns#">
   <cc:Work>
    <dc:type rdf:resource="http://purl.org/dc/dcmitype/StillImage"/>
    <dc:date>2021-01-19T18:12:06.959588</dc:date>
    <dc:format>image/svg+xml</dc:format>
    <dc:creator>
     <cc:Agent>
      <dc:title>Matplotlib v3.3.3, https://matplotlib.org/</dc:title>
     </cc:Agent>
    </dc:creator>
   </cc:Work>
  </rdf:RDF>
 </metadata>
 <defs>
  <style type="text/css">*{stroke-linecap:butt;stroke-linejoin:round;}</style>
 </defs>
 <g id="figure_1">
  <g id="patch_1">
   <path d="M 0 262.19625 
L 385.78125 262.19625 
L 385.78125 0 
L 0 0 
z
" style="fill:none;"/>
  </g>
  <g id="axes_1">
   <g id="patch_2">
    <path d="M 43.78125 224.64 
L 378.58125 224.64 
L 378.58125 7.2 
L 43.78125 7.2 
z
" style="fill:#ffffff;"/>
   </g>
   <g id="patch_3">
    <path clip-path="url(#p429788ff7f)" d="M 75.217052 224.64 
L 78.151108 224.64 
L 78.151108 220.671499 
L 75.217052 220.671499 
z
" style="fill:#1f77b4;opacity:0.4;"/>
   </g>
   <g id="patch_4">
    <path clip-path="url(#p429788ff7f)" d="M 78.151108 224.64 
L 81.085165 224.64 
L 81.085165 215.644731 
L 78.151108 215.644731 
z
" style="fill:#1f77b4;opacity:0.4;"/>
   </g>
   <g id="patch_5">
    <path clip-path="url(#p429788ff7f)" d="M 81.085165 224.64 
L 84.019221 224.64 
L 84.019221 211.67623 
L 81.085165 211.67623 
z
" style="fill:#1f77b4;opacity:0.4;"/>
   </g>
   <g id="patch_6">
    <path clip-path="url(#p429788ff7f)" d="M 84.019221 224.64 
L 86.953278 224.64 
L 86.953278 207.707729 
L 84.019221 207.707729 
z
" style="fill:#1f77b4;opacity:0.4;"/>
   </g>
   <g id="patch_7">
    <path clip-path="url(#p429788ff7f)" d="M 86.953278 224.64 
L 89.887335 224.64 
L 89.887335 201.093561 
L 86.953278 201.093561 
z
" style="fill:#1f77b4;opacity:0.4;"/>
   </g>
   <g id="patch_8">
    <path clip-path="url(#p429788ff7f)" d="M 89.887335 224.64 
L 92.821391 224.64 
L 92.821391 193.421126 
L 89.887335 193.421126 
z
" style="fill:#1f77b4;opacity:0.4;"/>
   </g>
   <g id="patch_9">
    <path clip-path="url(#p429788ff7f)" d="M 92.821391 224.64 
L 95.755448 224.64 
L 95.755448 186.013258 
L 92.821391 186.013258 
z
" style="fill:#1f77b4;opacity:0.4;"/>
   </g>
   <g id="patch_10">
    <path clip-path="url(#p429788ff7f)" d="M 95.755448 224.64 
L 98.689504 224.64 
L 98.689504 197.389627 
L 95.755448 197.389627 
z
" style="fill:#1f77b4;opacity:0.4;"/>
   </g>
   <g id="patch_11">
    <path clip-path="url(#p429788ff7f)" d="M 98.689504 224.64 
L 101.623561 224.64 
L 101.623561 204.003795 
L 98.689504 204.003795 
z
" style="fill:#1f77b4;opacity:0.4;"/>
   </g>
   <g id="patch_12">
    <path clip-path="url(#p429788ff7f)" d="M 101.623561 224.64 
L 104.557617 224.64 
L 104.557617 210.617963 
L 101.623561 210.617963 
z
" style="fill:#1f77b4;opacity:0.4;"/>
   </g>
   <g id="patch_13">
    <path clip-path="url(#p429788ff7f)" d="M 104.557617 224.64 
L 107.491674 224.64 
L 107.491674 209.559697 
L 104.557617 209.559697 
z
" style="fill:#1f77b4;opacity:0.4;"/>
   </g>
   <g id="patch_14">
    <path clip-path="url(#p429788ff7f)" d="M 107.491674 224.64 
L 110.42573 224.64 
L 110.42573 210.88253 
L 107.491674 210.88253 
z
" style="fill:#1f77b4;opacity:0.4;"/>
   </g>
   <g id="patch_15">
    <path clip-path="url(#p429788ff7f)" d="M 110.42573 224.64 
L 113.359787 224.64 
L 113.359787 219.084099 
L 110.42573 219.084099 
z
" style="fill:#1f77b4;opacity:0.4;"/>
   </g>
   <g id="patch_16">
    <path clip-path="url(#p429788ff7f)" d="M 113.359787 224.64 
L 116.293844 224.64 
L 116.293844 219.084099 
L 113.359787 219.084099 
z
" style="fill:#1f77b4;opacity:0.4;"/>
   </g>
   <g id="patch_17">
    <path clip-path="url(#p429788ff7f)" d="M 116.293844 224.64 
L 119.2279 224.64 
L 119.2279 221.465199 
L 116.293844 221.465199 
z
" style="fill:#1f77b4;opacity:0.4;"/>
   </g>
   <g id="patch_18">
    <path clip-path="url(#p429788ff7f)" d="M 119.2279 224.64 
L 122.161957 224.64 
L 122.161957 221.729766 
L 119.2279 221.729766 
z
" style="fill:#1f77b4;opacity:0.4;"/>
   </g>
   <g id="patch_19">
    <path clip-path="url(#p429788ff7f)" d="M 122.161957 224.64 
L 125.096013 224.64 
L 125.096013 221.200633 
L 122.161957 221.200633 
z
" style="fill:#1f77b4;opacity:0.4;"/>
   </g>
   <g id="patch_20">
    <path clip-path="url(#p429788ff7f)" d="M 125.096013 224.64 
L 128.03007 224.64 
L 128.03007 222.788033 
L 125.096013 222.788033 
z
" style="fill:#1f77b4;opacity:0.4;"/>
   </g>
   <g id="patch_21">
    <path clip-path="url(#p429788ff7f)" d="M 128.03007 224.64 
L 130.964126 224.64 
L 130.964126 222.788033 
L 128.03007 222.788033 
z
" style="fill:#1f77b4;opacity:0.4;"/>
   </g>
   <g id="patch_22">
    <path clip-path="url(#p429788ff7f)" d="M 130.964126 224.64 
L 133.898183 224.64 
L 133.898183 222.258899 
L 130.964126 222.258899 
z
" style="fill:#1f77b4;opacity:0.4;"/>
   </g>
   <g id="patch_23">
    <path clip-path="url(#p429788ff7f)" d="M 133.898183 224.64 
L 136.832239 224.64 
L 136.832239 222.258899 
L 133.898183 222.258899 
z
" style="fill:#1f77b4;opacity:0.4;"/>
   </g>
   <g id="patch_24">
    <path clip-path="url(#p429788ff7f)" d="M 136.832239 224.64 
L 139.766296 224.64 
L 139.766296 224.64 
L 136.832239 224.64 
z
" style="fill:#1f77b4;opacity:0.4;"/>
   </g>
   <g id="patch_25">
    <path clip-path="url(#p429788ff7f)" d="M 139.766296 224.64 
L 142.700353 224.64 
L 142.700353 222.258899 
L 139.766296 222.258899 
z
" style="fill:#1f77b4;opacity:0.4;"/>
   </g>
   <g id="patch_26">
    <path clip-path="url(#p429788ff7f)" d="M 142.700353 224.64 
L 145.634409 224.64 
L 145.634409 223.581733 
L 142.700353 223.581733 
z
" style="fill:#1f77b4;opacity:0.4;"/>
   </g>
   <g id="patch_27">
    <path clip-path="url(#p429788ff7f)" d="M 145.634409 224.64 
L 148.568466 224.64 
L 148.568466 223.581733 
L 145.634409 223.581733 
z
" style="fill:#1f77b4;opacity:0.4;"/>
   </g>
   <g id="patch_28">
    <path clip-path="url(#p429788ff7f)" d="M 148.568466 224.64 
L 151.502522 224.64 
L 151.502522 223.581733 
L 148.568466 223.581733 
z
" style="fill:#1f77b4;opacity:0.4;"/>
   </g>
   <g id="patch_29">
    <path clip-path="url(#p429788ff7f)" d="M 151.502522 224.64 
L 154.436579 224.64 
L 154.436579 223.8463 
L 151.502522 223.8463 
z
" style="fill:#1f77b4;opacity:0.4;"/>
   </g>
   <g id="patch_30">
    <path clip-path="url(#p429788ff7f)" d="M 154.436579 224.64 
L 157.370635 224.64 
L 157.370635 224.375433 
L 154.436579 224.375433 
z
" style="fill:#1f77b4;opacity:0.4;"/>
   </g>
   <g id="patch_31">
    <path clip-path="url(#p429788ff7f)" d="M 157.370635 224.64 
L 160.304692 224.64 
L 160.304692 224.375433 
L 157.370635 224.375433 
z
" style="fill:#1f77b4;opacity:0.4;"/>
   </g>
   <g id="patch_32">
    <path clip-path="url(#p429788ff7f)" d="M 160.304692 224.64 
L 163.238748 224.64 
L 163.238748 224.64 
L 160.304692 224.64 
z
" style="fill:#1f77b4;opacity:0.4;"/>
   </g>
   <g id="patch_33">
    <path clip-path="url(#p429788ff7f)" d="M 163.238748 224.64 
L 166.172805 224.64 
L 166.172805 224.375433 
L 163.238748 224.375433 
z
" style="fill:#1f77b4;opacity:0.4;"/>
   </g>
   <g id="patch_34">
    <path clip-path="url(#p429788ff7f)" d="M 166.172805 224.64 
L 169.106861 224.64 
L 169.106861 224.64 
L 166.172805 224.64 
z
" style="fill:#1f77b4;opacity:0.4;"/>
   </g>
   <g id="patch_35">
    <path clip-path="url(#p429788ff7f)" d="M 169.106861 224.64 
L 172.040918 224.64 
L 172.040918 224.375433 
L 169.106861 224.375433 
z
" style="fill:#1f77b4;opacity:0.4;"/>
   </g>
   <g id="patch_36">
    <path clip-path="url(#p429788ff7f)" d="M 172.040918 224.64 
L 174.974975 224.64 
L 174.974975 224.110867 
L 172.040918 224.110867 
z
" style="fill:#1f77b4;opacity:0.4;"/>
   </g>
   <g id="patch_37">
    <path clip-path="url(#p429788ff7f)" d="M 174.974975 224.64 
L 177.909031 224.64 
L 177.909031 224.375433 
L 174.974975 224.375433 
z
" style="fill:#1f77b4;opacity:0.4;"/>
   </g>
   <g id="patch_38">
    <path clip-path="url(#p429788ff7f)" d="M 177.909031 224.64 
L 180.843088 224.64 
L 180.843088 224.64 
L 177.909031 224.64 
z
" style="fill:#1f77b4;opacity:0.4;"/>
   </g>
   <g id="patch_39">
    <path clip-path="url(#p429788ff7f)" d="M 180.843088 224.64 
L 183.777144 224.64 
L 183.777144 224.64 
L 180.843088 224.64 
z
" style="fill:#1f77b4;opacity:0.4;"/>
   </g>
   <g id="patch_40">
    <path clip-path="url(#p429788ff7f)" d="M 183.777144 224.64 
L 186.711201 224.64 
L 186.711201 224.64 
L 183.777144 224.64 
z
" style="fill:#1f77b4;opacity:0.4;"/>
   </g>
   <g id="patch_41">
    <path clip-path="url(#p429788ff7f)" d="M 186.711201 224.64 
L 189.645257 224.64 
L 189.645257 224.64 
L 186.711201 224.64 
z
" style="fill:#1f77b4;opacity:0.4;"/>
   </g>
   <g id="patch_42">
    <path clip-path="url(#p429788ff7f)" d="M 189.645257 224.64 
L 192.579314 224.64 
L 192.579314 224.64 
L 189.645257 224.64 
z
" style="fill:#1f77b4;opacity:0.4;"/>
   </g>
   <g id="patch_43">
    <path clip-path="url(#p429788ff7f)" d="M 192.579314 224.64 
L 195.51337 224.64 
L 195.51337 224.64 
L 192.579314 224.64 
z
" style="fill:#1f77b4;opacity:0.4;"/>
   </g>
   <g id="patch_44">
    <path clip-path="url(#p429788ff7f)" d="M 195.51337 224.64 
L 198.447427 224.64 
L 198.447427 224.64 
L 195.51337 224.64 
z
" style="fill:#1f77b4;opacity:0.4;"/>
   </g>
   <g id="patch_45">
    <path clip-path="url(#p429788ff7f)" d="M 198.447427 224.64 
L 201.381484 224.64 
L 201.381484 224.64 
L 198.447427 224.64 
z
" style="fill:#1f77b4;opacity:0.4;"/>
   </g>
   <g id="patch_46">
    <path clip-path="url(#p429788ff7f)" d="M 201.381484 224.64 
L 204.31554 224.64 
L 204.31554 224.375433 
L 201.381484 224.375433 
z
" style="fill:#1f77b4;opacity:0.4;"/>
   </g>
   <g id="patch_47">
    <path clip-path="url(#p429788ff7f)" d="M 74.566863 224.64 
L 80.031438 224.64 
L 80.031438 152.051441 
L 74.566863 152.051441 
z
" style="fill:#ff7f0e;opacity:0.4;"/>
   </g>
   <g id="patch_48">
    <path clip-path="url(#p429788ff7f)" d="M 80.031438 224.64 
L 85.496014 224.64 
L 85.496014 182.734667 
L 80.031438 182.734667 
z
" style="fill:#ff7f0e;opacity:0.4;"/>
   </g>
   <g id="patch_49">
    <path clip-path="url(#p429788ff7f)" d="M 85.496014 224.64 
L 90.960589 224.64 
L 90.960589 214.696362 
L 85.496014 214.696362 
z
" style="fill:#ff7f0e;opacity:0.4;"/>
   </g>
   <g id="patch_50">
    <path clip-path="url(#p429788ff7f)" d="M 90.960589 224.64 
L 96.425165 224.64 
L 96.425165 222.225116 
L 90.960589 222.225116 
z
" style="fill:#ff7f0e;opacity:0.4;"/>
   </g>
   <g id="patch_51">
    <path clip-path="url(#p429788ff7f)" d="M 96.425165 224.64 
L 101.88974 224.64 
L 101.88974 222.225116 
L 96.425165 222.225116 
z
" style="fill:#ff7f0e;opacity:0.4;"/>
   </g>
   <g id="patch_52">
    <path clip-path="url(#p429788ff7f)" d="M 101.88974 224.64 
L 107.354316 224.64 
L 107.354316 222.651272 
L 101.88974 222.651272 
z
" style="fill:#ff7f0e;opacity:0.4;"/>
   </g>
   <g id="patch_53">
    <path clip-path="url(#p429788ff7f)" d="M 107.354316 224.64 
L 112.818891 224.64 
L 112.818891 223.21948 
L 107.354316 223.21948 
z
" style="fill:#ff7f0e;opacity:0.4;"/>
   </g>
   <g id="patch_54">
    <path clip-path="url(#p429788ff7f)" d="M 112.818891 224.64 
L 118.283467 224.64 
L 118.283467 223.21948 
L 112.818891 223.21948 
z
" style="fill:#ff7f0e;opacity:0.4;"/>
   </g>
   <g id="patch_55">
    <path clip-path="url(#p429788ff7f)" d="M 118.283467 224.64 
L 123.748042 224.64 
L 123.748042 223.21948 
L 118.283467 223.21948 
z
" style="fill:#ff7f0e;opacity:0.4;"/>
   </g>
   <g id="patch_56">
    <path clip-path="url(#p429788ff7f)" d="M 123.748042 224.64 
L 129.212618 224.64 
L 129.212618 223.787688 
L 123.748042 223.787688 
z
" style="fill:#ff7f0e;opacity:0.4;"/>
   </g>
   <g id="patch_57">
    <path clip-path="url(#p429788ff7f)" d="M 129.212618 224.64 
L 134.677193 224.64 
L 134.677193 223.503584 
L 129.212618 223.503584 
z
" style="fill:#ff7f0e;opacity:0.4;"/>
   </g>
   <g id="patch_58">
    <path clip-path="url(#p429788ff7f)" d="M 134.677193 224.64 
L 140.141769 224.64 
L 140.141769 223.787688 
L 134.677193 223.787688 
z
" style="fill:#ff7f0e;opacity:0.4;"/>
   </g>
   <g id="patch_59">
    <path clip-path="url(#p429788ff7f)" d="M 140.141769 224.64 
L 145.606344 224.64 
L 145.606344 223.787688 
L 140.141769 223.787688 
z
" style="fill:#ff7f0e;opacity:0.4;"/>
   </g>
   <g id="patch_60">
    <path clip-path="url(#p429788ff7f)" d="M 145.606344 224.64 
L 151.07092 224.64 
L 151.07092 224.213844 
L 145.606344 224.213844 
z
" style="fill:#ff7f0e;opacity:0.4;"/>
   </g>
   <g id="patch_61">
    <path clip-path="url(#p429788ff7f)" d="M 151.07092 224.64 
L 156.535495 224.64 
L 156.535495 224.213844 
L 151.07092 224.213844 
z
" style="fill:#ff7f0e;opacity:0.4;"/>
   </g>
   <g id="patch_62">
    <path clip-path="url(#p429788ff7f)" d="M 156.535495 224.64 
L 162.000071 224.64 
L 162.000071 224.213844 
L 156.535495 224.213844 
z
" style="fill:#ff7f0e;opacity:0.4;"/>
   </g>
   <g id="patch_63">
    <path clip-path="url(#p429788ff7f)" d="M 162.000071 224.64 
L 167.464646 224.64 
L 167.464646 224.64 
L 162.000071 224.64 
z
" style="fill:#ff7f0e;opacity:0.4;"/>
   </g>
   <g id="patch_64">
    <path clip-path="url(#p429788ff7f)" d="M 167.464646 224.64 
L 172.929222 224.64 
L 172.929222 224.355896 
L 167.464646 224.355896 
z
" style="fill:#ff7f0e;opacity:0.4;"/>
   </g>
   <g id="patch_65">
    <path clip-path="url(#p429788ff7f)" d="M 172.929222 224.64 
L 178.393797 224.64 
L 178.393797 224.64 
L 172.929222 224.64 
z
" style="fill:#ff7f0e;opacity:0.4;"/>
   </g>
   <g id="patch_66">
    <path clip-path="url(#p429788ff7f)" d="M 178.393797 224.64 
L 183.858373 224.64 
L 183.858373 224.497948 
L 178.393797 224.497948 
z
" style="fill:#ff7f0e;opacity:0.4;"/>
   </g>
   <g id="patch_67">
    <path clip-path="url(#p429788ff7f)" d="M 183.858373 224.64 
L 189.322948 224.64 
L 189.322948 224.64 
L 183.858373 224.64 
z
" style="fill:#ff7f0e;opacity:0.4;"/>
   </g>
   <g id="patch_68">
    <path clip-path="url(#p429788ff7f)" d="M 189.322948 224.64 
L 194.787524 224.64 
L 194.787524 224.497948 
L 189.322948 224.497948 
z
" style="fill:#ff7f0e;opacity:0.4;"/>
   </g>
   <g id="patch_69">
    <path clip-path="url(#p429788ff7f)" d="M 194.787524 224.64 
L 200.252099 224.64 
L 200.252099 224.64 
L 194.787524 224.64 
z
" style="fill:#ff7f0e;opacity:0.4;"/>
   </g>
   <g id="patch_70">
    <path clip-path="url(#p429788ff7f)" d="M 200.252099 224.64 
L 205.716675 224.64 
L 205.716675 224.64 
L 200.252099 224.64 
z
" style="fill:#ff7f0e;opacity:0.4;"/>
   </g>
   <g id="patch_71">
    <path clip-path="url(#p429788ff7f)" d="M 205.716675 224.64 
L 211.18125 224.64 
L 211.18125 224.497948 
L 205.716675 224.497948 
z
" style="fill:#ff7f0e;opacity:0.4;"/>
   </g>
   <g id="patch_72">
    <path clip-path="url(#p429788ff7f)" d="M 211.18125 224.64 
L 216.645825 224.64 
L 216.645825 224.64 
L 211.18125 224.64 
z
" style="fill:#ff7f0e;opacity:0.4;"/>
   </g>
   <g id="patch_73">
    <path clip-path="url(#p429788ff7f)" d="M 216.645825 224.64 
L 222.110401 224.64 
L 222.110401 224.64 
L 216.645825 224.64 
z
" style="fill:#ff7f0e;opacity:0.4;"/>
   </g>
   <g id="patch_74">
    <path clip-path="url(#p429788ff7f)" d="M 222.110401 224.64 
L 227.574976 224.64 
L 227.574976 224.64 
L 222.110401 224.64 
z
" style="fill:#ff7f0e;opacity:0.4;"/>
   </g>
   <g id="patch_75">
    <path clip-path="url(#p429788ff7f)" d="M 227.574976 224.64 
L 233.039552 224.64 
L 233.039552 224.213844 
L 227.574976 224.213844 
z
" style="fill:#ff7f0e;opacity:0.4;"/>
   </g>
   <g id="patch_76">
    <path clip-path="url(#p429788ff7f)" d="M 233.039552 224.64 
L 238.504127 224.64 
L 238.504127 224.64 
L 233.039552 224.64 
z
" style="fill:#ff7f0e;opacity:0.4;"/>
   </g>
   <g id="patch_77">
    <path clip-path="url(#p429788ff7f)" d="M 238.504127 224.64 
L 243.968703 224.64 
L 243.968703 224.64 
L 238.504127 224.64 
z
" style="fill:#ff7f0e;opacity:0.4;"/>
   </g>
   <g id="patch_78">
    <path clip-path="url(#p429788ff7f)" d="M 243.968703 224.64 
L 249.433278 224.64 
L 249.433278 224.497948 
L 243.968703 224.497948 
z
" style="fill:#ff7f0e;opacity:0.4;"/>
   </g>
   <g id="patch_79">
    <path clip-path="url(#p429788ff7f)" d="M 249.433278 224.64 
L 254.897854 224.64 
L 254.897854 224.64 
L 249.433278 224.64 
z
" style="fill:#ff7f0e;opacity:0.4;"/>
   </g>
   <g id="patch_80">
    <path clip-path="url(#p429788ff7f)" d="M 254.897854 224.64 
L 260.362429 224.64 
L 260.362429 224.64 
L 254.897854 224.64 
z
" style="fill:#ff7f0e;opacity:0.4;"/>
   </g>
   <g id="patch_81">
    <path clip-path="url(#p429788ff7f)" d="M 260.362429 224.64 
L 265.827005 224.64 
L 265.827005 224.497948 
L 260.362429 224.497948 
z
" style="fill:#ff7f0e;opacity:0.4;"/>
   </g>
   <g id="patch_82">
    <path clip-path="url(#p429788ff7f)" d="M 265.827005 224.64 
L 271.29158 224.64 
L 271.29158 224.64 
L 265.827005 224.64 
z
" style="fill:#ff7f0e;opacity:0.4;"/>
   </g>
   <g id="patch_83">
    <path clip-path="url(#p429788ff7f)" d="M 271.29158 224.64 
L 276.756156 224.64 
L 276.756156 224.64 
L 271.29158 224.64 
z
" style="fill:#ff7f0e;opacity:0.4;"/>
   </g>
   <g id="patch_84">
    <path clip-path="url(#p429788ff7f)" d="M 276.756156 224.64 
L 282.220731 224.64 
L 282.220731 224.64 
L 276.756156 224.64 
z
" style="fill:#ff7f0e;opacity:0.4;"/>
   </g>
   <g id="patch_85">
    <path clip-path="url(#p429788ff7f)" d="M 282.220731 224.64 
L 287.685307 224.64 
L 287.685307 224.64 
L 282.220731 224.64 
z
" style="fill:#ff7f0e;opacity:0.4;"/>
   </g>
   <g id="patch_86">
    <path clip-path="url(#p429788ff7f)" d="M 287.685307 224.64 
L 293.149882 224.64 
L 293.149882 224.64 
L 287.685307 224.64 
z
" style="fill:#ff7f0e;opacity:0.4;"/>
   </g>
   <g id="patch_87">
    <path clip-path="url(#p429788ff7f)" d="M 293.149882 224.64 
L 298.614458 224.64 
L 298.614458 224.64 
L 293.149882 224.64 
z
" style="fill:#ff7f0e;opacity:0.4;"/>
   </g>
   <g id="patch_88">
    <path clip-path="url(#p429788ff7f)" d="M 298.614458 224.64 
L 304.079033 224.64 
L 304.079033 224.64 
L 298.614458 224.64 
z
" style="fill:#ff7f0e;opacity:0.4;"/>
   </g>
   <g id="patch_89">
    <path clip-path="url(#p429788ff7f)" d="M 304.079033 224.64 
L 309.543609 224.64 
L 309.543609 224.64 
L 304.079033 224.64 
z
" style="fill:#ff7f0e;opacity:0.4;"/>
   </g>
   <g id="patch_90">
    <path clip-path="url(#p429788ff7f)" d="M 309.543609 224.64 
L 315.008184 224.64 
L 315.008184 224.64 
L 309.543609 224.64 
z
" style="fill:#ff7f0e;opacity:0.4;"/>
   </g>
   <g id="patch_91">
    <path clip-path="url(#p429788ff7f)" d="M 315.008184 224.64 
L 320.47276 224.64 
L 320.47276 224.64 
L 315.008184 224.64 
z
" style="fill:#ff7f0e;opacity:0.4;"/>
   </g>
   <g id="patch_92">
    <path clip-path="url(#p429788ff7f)" d="M 320.47276 224.64 
L 325.937335 224.64 
L 325.937335 224.64 
L 320.47276 224.64 
z
" style="fill:#ff7f0e;opacity:0.4;"/>
   </g>
   <g id="patch_93">
    <path clip-path="url(#p429788ff7f)" d="M 325.937335 224.64 
L 331.401911 224.64 
L 331.401911 224.64 
L 325.937335 224.64 
z
" style="fill:#ff7f0e;opacity:0.4;"/>
   </g>
   <g id="patch_94">
    <path clip-path="url(#p429788ff7f)" d="M 331.401911 224.64 
L 336.866486 224.64 
L 336.866486 224.64 
L 331.401911 224.64 
z
" style="fill:#ff7f0e;opacity:0.4;"/>
   </g>
   <g id="patch_95">
    <path clip-path="url(#p429788ff7f)" d="M 336.866486 224.64 
L 342.331062 224.64 
L 342.331062 224.64 
L 336.866486 224.64 
z
" style="fill:#ff7f0e;opacity:0.4;"/>
   </g>
   <g id="patch_96">
    <path clip-path="url(#p429788ff7f)" d="M 342.331062 224.64 
L 347.795637 224.64 
L 347.795637 224.497948 
L 342.331062 224.497948 
z
" style="fill:#ff7f0e;opacity:0.4;"/>
   </g>
   <g id="patch_97">
    <path clip-path="url(#p429788ff7f)" d="M 74.566863 224.64 
L 76.759715 224.64 
L 76.759715 17.554286 
L 74.566863 17.554286 
z
" style="fill:#2ca02c;opacity:0.4;"/>
   </g>
   <g id="patch_98">
    <path clip-path="url(#p429788ff7f)" d="M 76.759715 224.64 
L 78.952568 224.64 
L 78.952568 180.744908 
L 76.759715 180.744908 
z
" style="fill:#2ca02c;opacity:0.4;"/>
   </g>
   <g id="patch_99">
    <path clip-path="url(#p429788ff7f)" d="M 78.952568 224.64 
L 81.145421 224.64 
L 81.145421 197.028571 
L 78.952568 197.028571 
z
" style="fill:#2ca02c;opacity:0.4;"/>
   </g>
   <g id="patch_100">
    <path clip-path="url(#p429788ff7f)" d="M 81.145421 224.64 
L 83.338273 224.64 
L 83.338273 208.356337 
L 81.145421 208.356337 
z
" style="fill:#2ca02c;opacity:0.4;"/>
   </g>
   <g id="patch_101">
    <path clip-path="url(#p429788ff7f)" d="M 83.338273 224.64 
L 85.531126 224.64 
L 85.531126 217.914139 
L 83.338273 217.914139 
z
" style="fill:#2ca02c;opacity:0.4;"/>
   </g>
   <g id="patch_102">
    <path clip-path="url(#p429788ff7f)" d="M 85.531126 224.64 
L 87.723978 224.64 
L 87.723978 218.268132 
L 85.531126 218.268132 
z
" style="fill:#2ca02c;opacity:0.4;"/>
   </g>
   <g id="patch_103">
    <path clip-path="url(#p429788ff7f)" d="M 87.723978 224.64 
L 89.916831 224.64 
L 89.916831 220.746081 
L 87.723978 220.746081 
z
" style="fill:#2ca02c;opacity:0.4;"/>
   </g>
   <g id="patch_104">
    <path clip-path="url(#p429788ff7f)" d="M 89.916831 224.64 
L 92.109683 224.64 
L 92.109683 221.100073 
L 89.916831 221.100073 
z
" style="fill:#2ca02c;opacity:0.4;"/>
   </g>
   <g id="patch_105">
    <path clip-path="url(#p429788ff7f)" d="M 92.109683 224.64 
L 94.302536 224.64 
L 94.302536 220.392088 
L 92.109683 220.392088 
z
" style="fill:#2ca02c;opacity:0.4;"/>
   </g>
   <g id="patch_106">
    <path clip-path="url(#p429788ff7f)" d="M 94.302536 224.64 
L 96.495388 224.64 
L 96.495388 222.516044 
L 94.302536 222.516044 
z
" style="fill:#2ca02c;opacity:0.4;"/>
   </g>
   <g id="patch_107">
    <path clip-path="url(#p429788ff7f)" d="M 96.495388 224.64 
L 98.688241 224.64 
L 98.688241 221.100073 
L 96.495388 221.100073 
z
" style="fill:#2ca02c;opacity:0.4;"/>
   </g>
   <g id="patch_108">
    <path clip-path="url(#p429788ff7f)" d="M 98.688241 224.64 
L 100.881094 224.64 
L 100.881094 220.392088 
L 98.688241 220.392088 
z
" style="fill:#2ca02c;opacity:0.4;"/>
   </g>
   <g id="patch_109">
    <path clip-path="url(#p429788ff7f)" d="M 100.881094 224.64 
L 103.073946 224.64 
L 103.073946 223.932015 
L 100.881094 223.932015 
z
" style="fill:#2ca02c;opacity:0.4;"/>
   </g>
   <g id="patch_110">
    <path clip-path="url(#p429788ff7f)" d="M 103.073946 224.64 
L 105.266799 224.64 
L 105.266799 220.392088 
L 103.073946 220.392088 
z
" style="fill:#2ca02c;opacity:0.4;"/>
   </g>
   <g id="patch_111">
    <path clip-path="url(#p429788ff7f)" d="M 105.266799 224.64 
L 107.459651 224.64 
L 107.459651 222.516044 
L 105.266799 222.516044 
z
" style="fill:#2ca02c;opacity:0.4;"/>
   </g>
   <g id="patch_112">
    <path clip-path="url(#p429788ff7f)" d="M 107.459651 224.64 
L 109.652504 224.64 
L 109.652504 223.224029 
L 107.459651 223.224029 
z
" style="fill:#2ca02c;opacity:0.4;"/>
   </g>
   <g id="patch_113">
    <path clip-path="url(#p429788ff7f)" d="M 109.652504 224.64 
L 111.845356 224.64 
L 111.845356 222.870037 
L 109.652504 222.870037 
z
" style="fill:#2ca02c;opacity:0.4;"/>
   </g>
   <g id="patch_114">
    <path clip-path="url(#p429788ff7f)" d="M 111.845356 224.64 
L 114.038209 224.64 
L 114.038209 222.870037 
L 111.845356 222.870037 
z
" style="fill:#2ca02c;opacity:0.4;"/>
   </g>
   <g id="patch_115">
    <path clip-path="url(#p429788ff7f)" d="M 114.038209 224.64 
L 116.231061 224.64 
L 116.231061 223.578022 
L 114.038209 223.578022 
z
" style="fill:#2ca02c;opacity:0.4;"/>
   </g>
   <g id="patch_116">
    <path clip-path="url(#p429788ff7f)" d="M 116.231061 224.64 
L 118.423914 224.64 
L 118.423914 223.224029 
L 116.231061 223.224029 
z
" style="fill:#2ca02c;opacity:0.4;"/>
   </g>
   <g id="patch_117">
    <path clip-path="url(#p429788ff7f)" d="M 118.423914 224.64 
L 120.616767 224.64 
L 120.616767 223.578022 
L 118.423914 223.578022 
z
" style="fill:#2ca02c;opacity:0.4;"/>
   </g>
   <g id="patch_118">
    <path clip-path="url(#p429788ff7f)" d="M 120.616767 224.64 
L 122.809619 224.64 
L 122.809619 222.870037 
L 120.616767 222.870037 
z
" style="fill:#2ca02c;opacity:0.4;"/>
   </g>
   <g id="patch_119">
    <path clip-path="url(#p429788ff7f)" d="M 122.809619 224.64 
L 125.002472 224.64 
L 125.002472 224.286007 
L 122.809619 224.286007 
z
" style="fill:#2ca02c;opacity:0.4;"/>
   </g>
   <g id="patch_120">
    <path clip-path="url(#p429788ff7f)" d="M 125.002472 224.64 
L 127.195324 224.64 
L 127.195324 224.286007 
L 125.002472 224.286007 
z
" style="fill:#2ca02c;opacity:0.4;"/>
   </g>
   <g id="patch_121">
    <path clip-path="url(#p429788ff7f)" d="M 127.195324 224.64 
L 129.388177 224.64 
L 129.388177 224.286007 
L 127.195324 224.286007 
z
" style="fill:#2ca02c;opacity:0.4;"/>
   </g>
   <g id="patch_122">
    <path clip-path="url(#p429788ff7f)" d="M 129.388177 224.64 
L 131.581029 224.64 
L 131.581029 223.224029 
L 129.388177 223.224029 
z
" style="fill:#2ca02c;opacity:0.4;"/>
   </g>
   <g id="patch_123">
    <path clip-path="url(#p429788ff7f)" d="M 131.581029 224.64 
L 133.773882 224.64 
L 133.773882 224.64 
L 131.581029 224.64 
z
" style="fill:#2ca02c;opacity:0.4;"/>
   </g>
   <g id="patch_124">
    <path clip-path="url(#p429788ff7f)" d="M 133.773882 224.64 
L 135.966734 224.64 
L 135.966734 223.578022 
L 133.773882 223.578022 
z
" style="fill:#2ca02c;opacity:0.4;"/>
   </g>
   <g id="patch_125">
    <path clip-path="url(#p429788ff7f)" d="M 135.966734 224.64 
L 138.159587 224.64 
L 138.159587 223.932015 
L 135.966734 223.932015 
z
" style="fill:#2ca02c;opacity:0.4;"/>
   </g>
   <g id="patch_126">
    <path clip-path="url(#p429788ff7f)" d="M 138.159587 224.64 
L 140.352439 224.64 
L 140.352439 223.932015 
L 138.159587 223.932015 
z
" style="fill:#2ca02c;opacity:0.4;"/>
   </g>
   <g id="patch_127">
    <path clip-path="url(#p429788ff7f)" d="M 140.352439 224.64 
L 142.545292 224.64 
L 142.545292 224.286007 
L 140.352439 224.286007 
z
" style="fill:#2ca02c;opacity:0.4;"/>
   </g>
   <g id="patch_128">
    <path clip-path="url(#p429788ff7f)" d="M 142.545292 224.64 
L 144.738145 224.64 
L 144.738145 224.64 
L 142.545292 224.64 
z
" style="fill:#2ca02c;opacity:0.4;"/>
   </g>
   <g id="patch_129">
    <path clip-path="url(#p429788ff7f)" d="M 144.738145 224.64 
L 146.930997 224.64 
L 146.930997 223.932015 
L 144.738145 223.932015 
z
" style="fill:#2ca02c;opacity:0.4;"/>
   </g>
   <g id="patch_130">
    <path clip-path="url(#p429788ff7f)" d="M 146.930997 224.64 
L 149.12385 224.64 
L 149.12385 224.64 
L 146.930997 224.64 
z
" style="fill:#2ca02c;opacity:0.4;"/>
   </g>
   <g id="patch_131">
    <path clip-path="url(#p429788ff7f)" d="M 149.12385 224.64 
L 151.316702 224.64 
L 151.316702 224.64 
L 149.12385 224.64 
z
" style="fill:#2ca02c;opacity:0.4;"/>
   </g>
   <g id="patch_132">
    <path clip-path="url(#p429788ff7f)" d="M 151.316702 224.64 
L 153.509555 224.64 
L 153.509555 224.286007 
L 151.316702 224.286007 
z
" style="fill:#2ca02c;opacity:0.4;"/>
   </g>
   <g id="patch_133">
    <path clip-path="url(#p429788ff7f)" d="M 153.509555 224.64 
L 155.702407 224.64 
L 155.702407 224.64 
L 153.509555 224.64 
z
" style="fill:#2ca02c;opacity:0.4;"/>
   </g>
   <g id="patch_134">
    <path clip-path="url(#p429788ff7f)" d="M 155.702407 224.64 
L 157.89526 224.64 
L 157.89526 224.64 
L 155.702407 224.64 
z
" style="fill:#2ca02c;opacity:0.4;"/>
   </g>
   <g id="patch_135">
    <path clip-path="url(#p429788ff7f)" d="M 157.89526 224.64 
L 160.088112 224.64 
L 160.088112 224.286007 
L 157.89526 224.286007 
z
" style="fill:#2ca02c;opacity:0.4;"/>
   </g>
   <g id="patch_136">
    <path clip-path="url(#p429788ff7f)" d="M 160.088112 224.64 
L 162.280965 224.64 
L 162.280965 224.64 
L 160.088112 224.64 
z
" style="fill:#2ca02c;opacity:0.4;"/>
   </g>
   <g id="patch_137">
    <path clip-path="url(#p429788ff7f)" d="M 162.280965 224.64 
L 164.473818 224.64 
L 164.473818 224.64 
L 162.280965 224.64 
z
" style="fill:#2ca02c;opacity:0.4;"/>
   </g>
   <g id="patch_138">
    <path clip-path="url(#p429788ff7f)" d="M 164.473818 224.64 
L 166.66667 224.64 
L 166.66667 224.64 
L 164.473818 224.64 
z
" style="fill:#2ca02c;opacity:0.4;"/>
   </g>
   <g id="patch_139">
    <path clip-path="url(#p429788ff7f)" d="M 166.66667 224.64 
L 168.859523 224.64 
L 168.859523 224.64 
L 166.66667 224.64 
z
" style="fill:#2ca02c;opacity:0.4;"/>
   </g>
   <g id="patch_140">
    <path clip-path="url(#p429788ff7f)" d="M 168.859523 224.64 
L 171.052375 224.64 
L 171.052375 224.64 
L 168.859523 224.64 
z
" style="fill:#2ca02c;opacity:0.4;"/>
   </g>
   <g id="patch_141">
    <path clip-path="url(#p429788ff7f)" d="M 171.052375 224.64 
L 173.245228 224.64 
L 173.245228 224.64 
L 171.052375 224.64 
z
" style="fill:#2ca02c;opacity:0.4;"/>
   </g>
   <g id="patch_142">
    <path clip-path="url(#p429788ff7f)" d="M 173.245228 224.64 
L 175.43808 224.64 
L 175.43808 224.64 
L 173.245228 224.64 
z
" style="fill:#2ca02c;opacity:0.4;"/>
   </g>
   <g id="patch_143">
    <path clip-path="url(#p429788ff7f)" d="M 175.43808 224.64 
L 177.630933 224.64 
L 177.630933 224.64 
L 175.43808 224.64 
z
" style="fill:#2ca02c;opacity:0.4;"/>
   </g>
   <g id="patch_144">
    <path clip-path="url(#p429788ff7f)" d="M 177.630933 224.64 
L 179.823785 224.64 
L 179.823785 224.64 
L 177.630933 224.64 
z
" style="fill:#2ca02c;opacity:0.4;"/>
   </g>
   <g id="patch_145">
    <path clip-path="url(#p429788ff7f)" d="M 179.823785 224.64 
L 182.016638 224.64 
L 182.016638 224.64 
L 179.823785 224.64 
z
" style="fill:#2ca02c;opacity:0.4;"/>
   </g>
   <g id="patch_146">
    <path clip-path="url(#p429788ff7f)" d="M 182.016638 224.64 
L 184.209491 224.64 
L 184.209491 224.286007 
L 182.016638 224.286007 
z
" style="fill:#2ca02c;opacity:0.4;"/>
   </g>
   <g id="matplotlib.axis_1">
    <g id="xtick_1">
     <g id="line2d_1">
      <defs>
       <path d="M 0 0 
L 0 3.5 
" id="me0b896482f" style="stroke:#000000;stroke-width:0.8;"/>
      </defs>
      <g>
       <use style="stroke:#000000;stroke-width:0.8;" x="74.566863" xlink:href="#me0b896482f" y="224.64"/>
      </g>
     </g>
     <g id="text_1">
      <!-- 0 -->
      <g transform="translate(71.385613 239.238437)scale(0.1 -0.1)">
       <defs>
        <path d="M 31.78125 66.40625 
Q 24.171875 66.40625 20.328125 58.90625 
Q 16.5 51.421875 16.5 36.375 
Q 16.5 21.390625 20.328125 13.890625 
Q 24.171875 6.390625 31.78125 6.390625 
Q 39.453125 6.390625 43.28125 13.890625 
Q 47.125 21.390625 47.125 36.375 
Q 47.125 51.421875 43.28125 58.90625 
Q 39.453125 66.40625 31.78125 66.40625 
z
M 31.78125 74.21875 
Q 44.046875 74.21875 50.515625 64.515625 
Q 56.984375 54.828125 56.984375 36.375 
Q 56.984375 17.96875 50.515625 8.265625 
Q 44.046875 -1.421875 31.78125 -1.421875 
Q 19.53125 -1.421875 13.0625 8.265625 
Q 6.59375 17.96875 6.59375 36.375 
Q 6.59375 54.828125 13.0625 64.515625 
Q 19.53125 74.21875 31.78125 74.21875 
z
" id="DejaVuSans-48"/>
       </defs>
       <use xlink:href="#DejaVuSans-48"/>
      </g>
     </g>
    </g>
    <g id="xtick_2">
     <g id="line2d_2">
      <g>
       <use style="stroke:#000000;stroke-width:0.8;" x="118.424362" xlink:href="#me0b896482f" y="224.64"/>
      </g>
     </g>
     <g id="text_2">
      <!-- 5 -->
      <g transform="translate(115.243112 239.238437)scale(0.1 -0.1)">
       <defs>
        <path d="M 10.796875 72.90625 
L 49.515625 72.90625 
L 49.515625 64.59375 
L 19.828125 64.59375 
L 19.828125 46.734375 
Q 21.96875 47.46875 24.109375 47.828125 
Q 26.265625 48.1875 28.421875 48.1875 
Q 40.625 48.1875 47.75 41.5 
Q 54.890625 34.8125 54.890625 23.390625 
Q 54.890625 11.625 47.5625 5.09375 
Q 40.234375 -1.421875 26.90625 -1.421875 
Q 22.3125 -1.421875 17.546875 -0.640625 
Q 12.796875 0.140625 7.71875 1.703125 
L 7.71875 11.625 
Q 12.109375 9.234375 16.796875 8.0625 
Q 21.484375 6.890625 26.703125 6.890625 
Q 35.15625 6.890625 40.078125 11.328125 
Q 45.015625 15.765625 45.015625 23.390625 
Q 45.015625 31 40.078125 35.4375 
Q 35.15625 39.890625 26.703125 39.890625 
Q 22.75 39.890625 18.8125 39.015625 
Q 14.890625 38.140625 10.796875 36.28125 
z
" id="DejaVuSans-53"/>
       </defs>
       <use xlink:href="#DejaVuSans-53"/>
      </g>
     </g>
    </g>
    <g id="xtick_3">
     <g id="line2d_3">
      <g>
       <use style="stroke:#000000;stroke-width:0.8;" x="162.281861" xlink:href="#me0b896482f" y="224.64"/>
      </g>
     </g>
     <g id="text_3">
      <!-- 10 -->
      <g transform="translate(155.919361 239.238437)scale(0.1 -0.1)">
       <defs>
        <path d="M 12.40625 8.296875 
L 28.515625 8.296875 
L 28.515625 63.921875 
L 10.984375 60.40625 
L 10.984375 69.390625 
L 28.421875 72.90625 
L 38.28125 72.90625 
L 38.28125 8.296875 
L 54.390625 8.296875 
L 54.390625 0 
L 12.40625 0 
z
" id="DejaVuSans-49"/>
       </defs>
       <use xlink:href="#DejaVuSans-49"/>
       <use x="63.623047" xlink:href="#DejaVuSans-48"/>
      </g>
     </g>
    </g>
    <g id="xtick_4">
     <g id="line2d_4">
      <g>
       <use style="stroke:#000000;stroke-width:0.8;" x="206.139361" xlink:href="#me0b896482f" y="224.64"/>
      </g>
     </g>
     <g id="text_4">
      <!-- 15 -->
      <g transform="translate(199.776861 239.238437)scale(0.1 -0.1)">
       <use xlink:href="#DejaVuSans-49"/>
       <use x="63.623047" xlink:href="#DejaVuSans-53"/>
      </g>
     </g>
    </g>
    <g id="xtick_5">
     <g id="line2d_5">
      <g>
       <use style="stroke:#000000;stroke-width:0.8;" x="249.99686" xlink:href="#me0b896482f" y="224.64"/>
      </g>
     </g>
     <g id="text_5">
      <!-- 20 -->
      <g transform="translate(243.63436 239.238437)scale(0.1 -0.1)">
       <defs>
        <path d="M 19.1875 8.296875 
L 53.609375 8.296875 
L 53.609375 0 
L 7.328125 0 
L 7.328125 8.296875 
Q 12.9375 14.109375 22.625 23.890625 
Q 32.328125 33.6875 34.8125 36.53125 
Q 39.546875 41.84375 41.421875 45.53125 
Q 43.3125 49.21875 43.3125 52.78125 
Q 43.3125 58.59375 39.234375 62.25 
Q 35.15625 65.921875 28.609375 65.921875 
Q 23.96875 65.921875 18.8125 64.3125 
Q 13.671875 62.703125 7.8125 59.421875 
L 7.8125 69.390625 
Q 13.765625 71.78125 18.9375 73 
Q 24.125 74.21875 28.421875 74.21875 
Q 39.75 74.21875 46.484375 68.546875 
Q 53.21875 62.890625 53.21875 53.421875 
Q 53.21875 48.921875 51.53125 44.890625 
Q 49.859375 40.875 45.40625 35.40625 
Q 44.1875 33.984375 37.640625 27.21875 
Q 31.109375 20.453125 19.1875 8.296875 
z
" id="DejaVuSans-50"/>
       </defs>
       <use xlink:href="#DejaVuSans-50"/>
       <use x="63.623047" xlink:href="#DejaVuSans-48"/>
      </g>
     </g>
    </g>
    <g id="xtick_6">
     <g id="line2d_6">
      <g>
       <use style="stroke:#000000;stroke-width:0.8;" x="293.854359" xlink:href="#me0b896482f" y="224.64"/>
      </g>
     </g>
     <g id="text_6">
      <!-- 25 -->
      <g transform="translate(287.491859 239.238437)scale(0.1 -0.1)">
       <use xlink:href="#DejaVuSans-50"/>
       <use x="63.623047" xlink:href="#DejaVuSans-53"/>
      </g>
     </g>
    </g>
    <g id="xtick_7">
     <g id="line2d_7">
      <g>
       <use style="stroke:#000000;stroke-width:0.8;" x="337.711859" xlink:href="#me0b896482f" y="224.64"/>
      </g>
     </g>
     <g id="text_7">
      <!-- 30 -->
      <g transform="translate(331.349359 239.238437)scale(0.1 -0.1)">
       <defs>
        <path d="M 40.578125 39.3125 
Q 47.65625 37.796875 51.625 33 
Q 55.609375 28.21875 55.609375 21.1875 
Q 55.609375 10.40625 48.1875 4.484375 
Q 40.765625 -1.421875 27.09375 -1.421875 
Q 22.515625 -1.421875 17.65625 -0.515625 
Q 12.796875 0.390625 7.625 2.203125 
L 7.625 11.71875 
Q 11.71875 9.328125 16.59375 8.109375 
Q 21.484375 6.890625 26.8125 6.890625 
Q 36.078125 6.890625 40.9375 10.546875 
Q 45.796875 14.203125 45.796875 21.1875 
Q 45.796875 27.640625 41.28125 31.265625 
Q 36.765625 34.90625 28.71875 34.90625 
L 20.21875 34.90625 
L 20.21875 43.015625 
L 29.109375 43.015625 
Q 36.375 43.015625 40.234375 45.921875 
Q 44.09375 48.828125 44.09375 54.296875 
Q 44.09375 59.90625 40.109375 62.90625 
Q 36.140625 65.921875 28.71875 65.921875 
Q 24.65625 65.921875 20.015625 65.03125 
Q 15.375 64.15625 9.8125 62.3125 
L 9.8125 71.09375 
Q 15.4375 72.65625 20.34375 73.4375 
Q 25.25 74.21875 29.59375 74.21875 
Q 40.828125 74.21875 47.359375 69.109375 
Q 53.90625 64.015625 53.90625 55.328125 
Q 53.90625 49.265625 50.4375 45.09375 
Q 46.96875 40.921875 40.578125 39.3125 
z
" id="DejaVuSans-51"/>
       </defs>
       <use xlink:href="#DejaVuSans-51"/>
       <use x="63.623047" xlink:href="#DejaVuSans-48"/>
      </g>
     </g>
    </g>
    <g id="text_8">
     <!-- f(t) -->
     <g transform="translate(203.559375 252.916562)scale(0.1 -0.1)">
      <defs>
       <path d="M 37.109375 75.984375 
L 37.109375 68.5 
L 28.515625 68.5 
Q 23.6875 68.5 21.796875 66.546875 
Q 19.921875 64.59375 19.921875 59.515625 
L 19.921875 54.6875 
L 34.71875 54.6875 
L 34.71875 47.703125 
L 19.921875 47.703125 
L 19.921875 0 
L 10.890625 0 
L 10.890625 47.703125 
L 2.296875 47.703125 
L 2.296875 54.6875 
L 10.890625 54.6875 
L 10.890625 58.5 
Q 10.890625 67.625 15.140625 71.796875 
Q 19.390625 75.984375 28.609375 75.984375 
z
" id="DejaVuSans-102"/>
       <path d="M 31 75.875 
Q 24.46875 64.65625 21.28125 53.65625 
Q 18.109375 42.671875 18.109375 31.390625 
Q 18.109375 20.125 21.3125 9.0625 
Q 24.515625 -2 31 -13.1875 
L 23.1875 -13.1875 
Q 15.875 -1.703125 12.234375 9.375 
Q 8.59375 20.453125 8.59375 31.390625 
Q 8.59375 42.28125 12.203125 53.3125 
Q 15.828125 64.359375 23.1875 75.875 
z
" id="DejaVuSans-40"/>
       <path d="M 18.3125 70.21875 
L 18.3125 54.6875 
L 36.8125 54.6875 
L 36.8125 47.703125 
L 18.3125 47.703125 
L 18.3125 18.015625 
Q 18.3125 11.328125 20.140625 9.421875 
Q 21.96875 7.515625 27.59375 7.515625 
L 36.8125 7.515625 
L 36.8125 0 
L 27.59375 0 
Q 17.1875 0 13.234375 3.875 
Q 9.28125 7.765625 9.28125 18.015625 
L 9.28125 47.703125 
L 2.6875 47.703125 
L 2.6875 54.6875 
L 9.28125 54.6875 
L 9.28125 70.21875 
z
" id="DejaVuSans-116"/>
       <path d="M 8.015625 75.875 
L 15.828125 75.875 
Q 23.140625 64.359375 26.78125 53.3125 
Q 30.421875 42.28125 30.421875 31.390625 
Q 30.421875 20.453125 26.78125 9.375 
Q 23.140625 -1.703125 15.828125 -13.1875 
L 8.015625 -13.1875 
Q 14.5 -2 17.703125 9.0625 
Q 20.90625 20.125 20.90625 31.390625 
Q 20.90625 42.671875 17.703125 53.65625 
Q 14.5 64.65625 8.015625 75.875 
z
" id="DejaVuSans-41"/>
      </defs>
      <use xlink:href="#DejaVuSans-102"/>
      <use x="35.205078" xlink:href="#DejaVuSans-40"/>
      <use x="74.21875" xlink:href="#DejaVuSans-116"/>
      <use x="113.427734" xlink:href="#DejaVuSans-41"/>
     </g>
    </g>
   </g>
   <g id="matplotlib.axis_2">
    <g id="ytick_1">
     <g id="line2d_8">
      <defs>
       <path d="M 0 0 
L -3.5 0 
" id="mcf63950494" style="stroke:#000000;stroke-width:0.8;"/>
      </defs>
      <g>
       <use style="stroke:#000000;stroke-width:0.8;" x="43.78125" xlink:href="#mcf63950494" y="224.64"/>
      </g>
     </g>
     <g id="text_9">
      <!-- 0.0 -->
      <g transform="translate(20.878125 228.439219)scale(0.1 -0.1)">
       <defs>
        <path d="M 10.6875 12.40625 
L 21 12.40625 
L 21 0 
L 10.6875 0 
z
" id="DejaVuSans-46"/>
       </defs>
       <use xlink:href="#DejaVuSans-48"/>
       <use x="63.623047" xlink:href="#DejaVuSans-46"/>
       <use x="95.410156" xlink:href="#DejaVuSans-48"/>
      </g>
     </g>
    </g>
    <g id="ytick_2">
     <g id="line2d_9">
      <g>
       <use style="stroke:#000000;stroke-width:0.8;" x="43.78125" xlink:href="#mcf63950494" y="180.391368"/>
      </g>
     </g>
     <g id="text_10">
      <!-- 0.5 -->
      <g transform="translate(20.878125 184.190587)scale(0.1 -0.1)">
       <use xlink:href="#DejaVuSans-48"/>
       <use x="63.623047" xlink:href="#DejaVuSans-46"/>
       <use x="95.410156" xlink:href="#DejaVuSans-53"/>
      </g>
     </g>
    </g>
    <g id="ytick_3">
     <g id="line2d_10">
      <g>
       <use style="stroke:#000000;stroke-width:0.8;" x="43.78125" xlink:href="#mcf63950494" y="136.142736"/>
      </g>
     </g>
     <g id="text_11">
      <!-- 1.0 -->
      <g transform="translate(20.878125 139.941955)scale(0.1 -0.1)">
       <use xlink:href="#DejaVuSans-49"/>
       <use x="63.623047" xlink:href="#DejaVuSans-46"/>
       <use x="95.410156" xlink:href="#DejaVuSans-48"/>
      </g>
     </g>
    </g>
    <g id="ytick_4">
     <g id="line2d_11">
      <g>
       <use style="stroke:#000000;stroke-width:0.8;" x="43.78125" xlink:href="#mcf63950494" y="91.894104"/>
      </g>
     </g>
     <g id="text_12">
      <!-- 1.5 -->
      <g transform="translate(20.878125 95.693323)scale(0.1 -0.1)">
       <use xlink:href="#DejaVuSans-49"/>
       <use x="63.623047" xlink:href="#DejaVuSans-46"/>
       <use x="95.410156" xlink:href="#DejaVuSans-53"/>
      </g>
     </g>
    </g>
    <g id="ytick_5">
     <g id="line2d_12">
      <g>
       <use style="stroke:#000000;stroke-width:0.8;" x="43.78125" xlink:href="#mcf63950494" y="47.645472"/>
      </g>
     </g>
     <g id="text_13">
      <!-- 2.0 -->
      <g transform="translate(20.878125 51.444691)scale(0.1 -0.1)">
       <use xlink:href="#DejaVuSans-50"/>
       <use x="63.623047" xlink:href="#DejaVuSans-46"/>
       <use x="95.410156" xlink:href="#DejaVuSans-48"/>
      </g>
     </g>
    </g>
    <g id="text_14">
     <!-- Density -->
     <g transform="translate(14.798438 134.928594)rotate(-90)scale(0.1 -0.1)">
      <defs>
       <path d="M 19.671875 64.796875 
L 19.671875 8.109375 
L 31.59375 8.109375 
Q 46.6875 8.109375 53.6875 14.9375 
Q 60.6875 21.78125 60.6875 36.53125 
Q 60.6875 51.171875 53.6875 57.984375 
Q 46.6875 64.796875 31.59375 64.796875 
z
M 9.8125 72.90625 
L 30.078125 72.90625 
Q 51.265625 72.90625 61.171875 64.09375 
Q 71.09375 55.28125 71.09375 36.53125 
Q 71.09375 17.671875 61.125 8.828125 
Q 51.171875 0 30.078125 0 
L 9.8125 0 
z
" id="DejaVuSans-68"/>
       <path d="M 56.203125 29.59375 
L 56.203125 25.203125 
L 14.890625 25.203125 
Q 15.484375 15.921875 20.484375 11.0625 
Q 25.484375 6.203125 34.421875 6.203125 
Q 39.59375 6.203125 44.453125 7.46875 
Q 49.3125 8.734375 54.109375 11.28125 
L 54.109375 2.78125 
Q 49.265625 0.734375 44.1875 -0.34375 
Q 39.109375 -1.421875 33.890625 -1.421875 
Q 20.796875 -1.421875 13.15625 6.1875 
Q 5.515625 13.8125 5.515625 26.8125 
Q 5.515625 40.234375 12.765625 48.109375 
Q 20.015625 56 32.328125 56 
Q 43.359375 56 49.78125 48.890625 
Q 56.203125 41.796875 56.203125 29.59375 
z
M 47.21875 32.234375 
Q 47.125 39.59375 43.09375 43.984375 
Q 39.0625 48.390625 32.421875 48.390625 
Q 24.90625 48.390625 20.390625 44.140625 
Q 15.875 39.890625 15.1875 32.171875 
z
" id="DejaVuSans-101"/>
       <path d="M 54.890625 33.015625 
L 54.890625 0 
L 45.90625 0 
L 45.90625 32.71875 
Q 45.90625 40.484375 42.875 44.328125 
Q 39.84375 48.1875 33.796875 48.1875 
Q 26.515625 48.1875 22.3125 43.546875 
Q 18.109375 38.921875 18.109375 30.90625 
L 18.109375 0 
L 9.078125 0 
L 9.078125 54.6875 
L 18.109375 54.6875 
L 18.109375 46.1875 
Q 21.34375 51.125 25.703125 53.5625 
Q 30.078125 56 35.796875 56 
Q 45.21875 56 50.046875 50.171875 
Q 54.890625 44.34375 54.890625 33.015625 
z
" id="DejaVuSans-110"/>
       <path d="M 44.28125 53.078125 
L 44.28125 44.578125 
Q 40.484375 46.53125 36.375 47.5 
Q 32.28125 48.484375 27.875 48.484375 
Q 21.1875 48.484375 17.84375 46.4375 
Q 14.5 44.390625 14.5 40.28125 
Q 14.5 37.15625 16.890625 35.375 
Q 19.28125 33.59375 26.515625 31.984375 
L 29.59375 31.296875 
Q 39.15625 29.25 43.1875 25.515625 
Q 47.21875 21.78125 47.21875 15.09375 
Q 47.21875 7.46875 41.1875 3.015625 
Q 35.15625 -1.421875 24.609375 -1.421875 
Q 20.21875 -1.421875 15.453125 -0.5625 
Q 10.6875 0.296875 5.421875 2 
L 5.421875 11.28125 
Q 10.40625 8.6875 15.234375 7.390625 
Q 20.0625 6.109375 24.8125 6.109375 
Q 31.15625 6.109375 34.5625 8.28125 
Q 37.984375 10.453125 37.984375 14.40625 
Q 37.984375 18.0625 35.515625 20.015625 
Q 33.0625 21.96875 24.703125 23.78125 
L 21.578125 24.515625 
Q 13.234375 26.265625 9.515625 29.90625 
Q 5.8125 33.546875 5.8125 39.890625 
Q 5.8125 47.609375 11.28125 51.796875 
Q 16.75 56 26.8125 56 
Q 31.78125 56 36.171875 55.265625 
Q 40.578125 54.546875 44.28125 53.078125 
z
" id="DejaVuSans-115"/>
       <path d="M 9.421875 54.6875 
L 18.40625 54.6875 
L 18.40625 0 
L 9.421875 0 
z
M 9.421875 75.984375 
L 18.40625 75.984375 
L 18.40625 64.59375 
L 9.421875 64.59375 
z
" id="DejaVuSans-105"/>
       <path d="M 32.171875 -5.078125 
Q 28.375 -14.84375 24.75 -17.8125 
Q 21.140625 -20.796875 15.09375 -20.796875 
L 7.90625 -20.796875 
L 7.90625 -13.28125 
L 13.1875 -13.28125 
Q 16.890625 -13.28125 18.9375 -11.515625 
Q 21 -9.765625 23.484375 -3.21875 
L 25.09375 0.875 
L 2.984375 54.6875 
L 12.5 54.6875 
L 29.59375 11.921875 
L 46.6875 54.6875 
L 56.203125 54.6875 
z
" id="DejaVuSans-121"/>
      </defs>
      <use xlink:href="#DejaVuSans-68"/>
      <use x="77.001953" xlink:href="#DejaVuSans-101"/>
      <use x="138.525391" xlink:href="#DejaVuSans-110"/>
      <use x="201.904297" xlink:href="#DejaVuSans-115"/>
      <use x="254.003906" xlink:href="#DejaVuSans-105"/>
      <use x="281.787109" xlink:href="#DejaVuSans-116"/>
      <use x="320.996094" xlink:href="#DejaVuSans-121"/>
     </g>
    </g>
   </g>
   <g id="line2d_13">
    <path clip-path="url(#p429788ff7f)" d="M 63.755024 224.635687 
L 68.338618 224.501367 
L 69.866483 224.299451 
L 71.394348 223.898493 
L 72.922213 223.199648 
L 74.450077 222.124455 
L 75.977942 220.65183 
L 77.505807 218.832207 
L 79.797604 215.660583 
L 82.089401 212.157892 
L 84.381198 208.293216 
L 86.672996 203.968203 
L 89.728725 198.103596 
L 91.25659 195.836294 
L 92.020522 195.052068 
L 92.784455 194.559057 
L 93.548387 194.383339 
L 94.312319 194.532419 
L 95.076252 194.994158 
L 95.840184 195.738201 
L 96.604116 196.719544 
L 98.131981 199.171326 
L 101.187711 204.508021 
L 102.715576 206.800708 
L 104.24344 208.725569 
L 106.535237 211.108758 
L 114.174561 218.234089 
L 115.702426 219.328979 
L 117.230291 220.185623 
L 118.758156 220.828163 
L 121.049953 221.485299 
L 123.34175 221.894614 
L 126.397479 222.216155 
L 151.607248 223.849468 
L 163.830166 224.486369 
L 170.705557 224.381634 
L 175.289152 224.380672 
L 189.039934 224.639169 
L 215.777568 224.6391 
L 215.777568 224.6391 
" style="fill:none;stroke:#1f77b4;stroke-linecap:square;stroke-width:1.5;"/>
   </g>
   <g id="line2d_14">
    <path clip-path="url(#p429788ff7f)" d="M 58.999432 224.517351 
L 60.528897 224.336338 
L 62.058363 223.946497 
L 63.587828 223.177786 
L 65.117294 221.790845 
L 66.646759 219.503428 
L 68.176225 216.060269 
L 69.70569 211.341749 
L 71.235156 205.479683 
L 74.294087 192.431103 
L 75.823552 186.893729 
L 77.353018 183.153991 
L 78.882483 181.768902 
L 80.411949 182.872772 
L 81.941414 186.162838 
L 83.47088 191.007309 
L 86.529811 202.288162 
L 88.059276 207.433145 
L 89.588742 211.744952 
L 91.118208 215.125789 
L 92.647673 217.634334 
L 94.177139 219.412135 
L 95.706604 220.624935 
L 97.23607 221.427456 
L 98.765535 221.947887 
L 100.295001 222.284168 
L 103.353932 222.658804 
L 107.942328 222.924367 
L 126.295914 223.517143 
L 135.472707 223.711848 
L 172.17988 224.504249 
L 196.651328 224.581639 
L 225.711172 224.531938 
L 233.3585 224.485648 
L 247.123689 224.583332 
L 271.595138 224.621787 
L 299.125517 224.64 
L 363.363068 224.639337 
L 363.363068 224.639337 
" style="fill:none;stroke:#ff7f0e;stroke-linecap:square;stroke-width:1.5;"/>
   </g>
   <g id="line2d_15">
    <path clip-path="url(#p429788ff7f)" d="M 65.258421 224.066255 
L 65.902941 223.586471 
L 66.547461 222.78587 
L 67.191982 221.51213 
L 67.836502 219.581375 
L 68.481022 216.795522 
L 69.125542 212.973728 
L 69.770062 207.996477 
L 71.059102 194.698458 
L 73.637183 164.628548 
L 74.281703 159.713657 
L 74.926223 156.850021 
L 75.570744 156.211038 
L 76.215264 157.715286 
L 76.859784 161.057957 
L 77.504304 165.782295 
L 81.371425 198.437298 
L 82.660465 205.747833 
L 83.949506 211.04524 
L 85.238546 214.722697 
L 85.883066 216.06896 
L 86.527586 217.145516 
L 87.172106 217.995096 
L 88.461147 219.173203 
L 89.750187 219.885356 
L 91.683748 220.516413 
L 94.261828 221.069869 
L 97.484429 221.527391 
L 102.64059 222.011271 
L 105.863191 222.286393 
L 111.019352 222.953651 
L 128.421396 223.993408 
L 137.444679 223.999749 
L 150.979602 224.476662 
L 158.713844 224.533173 
L 181.272049 224.576241 
L 187.072731 224.5748 
L 193.517932 224.638891 
L 193.517932 224.638891 
" style="fill:none;stroke:#2ca02c;stroke-linecap:square;stroke-width:1.5;"/>
   </g>
   <g id="patch_147">
    <path d="M 43.78125 224.64 
L 43.78125 7.2 
" style="fill:none;stroke:#000000;stroke-linecap:square;stroke-linejoin:miter;stroke-width:0.8;"/>
   </g>
   <g id="patch_148">
    <path d="M 378.58125 224.64 
L 378.58125 7.2 
" style="fill:none;stroke:#000000;stroke-linecap:square;stroke-linejoin:miter;stroke-width:0.8;"/>
   </g>
   <g id="patch_149">
    <path d="M 43.78125 224.64 
L 378.58125 224.64 
" style="fill:none;stroke:#000000;stroke-linecap:square;stroke-linejoin:miter;stroke-width:0.8;"/>
   </g>
   <g id="patch_150">
    <path d="M 43.78125 7.2 
L 378.58125 7.2 
" style="fill:none;stroke:#000000;stroke-linecap:square;stroke-linejoin:miter;stroke-width:0.8;"/>
   </g>
  </g>
 </g>
 <defs>
  <clipPath id="p429788ff7f">
   <rect height="217.44" width="334.8" x="43.78125" y="7.2"/>
  </clipPath>
 </defs>
</svg>
