<?xml version="1.0" encoding="utf-8" standalone="no"?>
<!DOCTYPE svg PUBLIC "-//W3C//DTD SVG 1.1//EN"
  "http://www.w3.org/Graphics/SVG/1.1/DTD/svg11.dtd">
<svg height="262.19625pt" version="1.1" viewBox="0 0 385.78125 262.19625" width="385.78125pt" xmlns="http://www.w3.org/2000/svg" xmlns:xlink="http://www.w3.org/1999/xlink">
 <metadata>
  <rdf:RDF xmlns:cc="http://creativecommons.org/ns#" xmlns:dc="http://purl.org/dc/elements/1.1/" xmlns:rdf="http://www.w3.org/1999/02/22-rdf-syntax-ns#">
   <cc:Work>
    <dc:type rdf:resource="http://purl.org/dc/dcmitype/StillImage"/>
    <dc:date>2021-05-11T18:11:47.426080</dc:date>
    <dc:format>image/svg+xml</dc:format>
    <dc:creator>
     <cc:Agent>
      <dc:title>Matplotlib v3.4.2, https://matplotlib.org/</dc:title>
     </cc:Agent>
    </dc:creator>
   </cc:Work>
  </rdf:RDF>
 </metadata>
 <defs>
  <style type="text/css">*{stroke-linecap:butt;stroke-linejoin:round;}</style>
 </defs>
 <g id="figure_1">
  <g id="patch_1">
   <path d="M 0 262.19625 
L 385.78125 262.19625 
L 385.78125 0 
L 0 0 
z
" style="fill:none;"/>
  </g>
  <g id="axes_1">
   <g id="patch_2">
    <path d="M 43.78125 224.64 
L 378.58125 224.64 
L 378.58125 7.2 
L 43.78125 7.2 
z
" style="fill:#ffffff;"/>
   </g>
   <g id="patch_3">
    <path clip-path="url(#p3b8d6a54c7)" d="M 79.613396 224.64 
L 84.217109 224.64 
L 84.217109 219.219288 
L 79.613396 219.219288 
z
" style="fill:#1f77b4;opacity:0.4;"/>
   </g>
   <g id="patch_4">
    <path clip-path="url(#p3b8d6a54c7)" d="M 84.217109 224.64 
L 88.820822 224.64 
L 88.820822 206.783536 
L 84.217109 206.783536 
z
" style="fill:#1f77b4;opacity:0.4;"/>
   </g>
   <g id="patch_5">
    <path clip-path="url(#p3b8d6a54c7)" d="M 88.820822 224.64 
L 93.424535 224.64 
L 93.424535 203.594882 
L 88.820822 203.594882 
z
" style="fill:#1f77b4;opacity:0.4;"/>
   </g>
   <g id="patch_6">
    <path clip-path="url(#p3b8d6a54c7)" d="M 93.424535 224.64 
L 98.028247 224.64 
L 98.028247 193.072322 
L 93.424535 193.072322 
z
" style="fill:#1f77b4;opacity:0.4;"/>
   </g>
   <g id="patch_7">
    <path clip-path="url(#p3b8d6a54c7)" d="M 98.028247 224.64 
L 102.63196 224.64 
L 102.63196 179.679974 
L 98.028247 179.679974 
z
" style="fill:#1f77b4;opacity:0.4;"/>
   </g>
   <g id="patch_8">
    <path clip-path="url(#p3b8d6a54c7)" d="M 102.63196 224.64 
L 107.235673 224.64 
L 107.235673 187.970475 
L 102.63196 187.970475 
z
" style="fill:#1f77b4;opacity:0.4;"/>
   </g>
   <g id="patch_9">
    <path clip-path="url(#p3b8d6a54c7)" d="M 107.235673 224.64 
L 111.839385 224.64 
L 111.839385 192.434591 
L 107.235673 192.434591 
z
" style="fill:#1f77b4;opacity:0.4;"/>
   </g>
   <g id="patch_10">
    <path clip-path="url(#p3b8d6a54c7)" d="M 111.839385 224.64 
L 116.443098 224.64 
L 116.443098 197.855304 
L 111.839385 197.855304 
z
" style="fill:#1f77b4;opacity:0.4;"/>
   </g>
   <g id="patch_11">
    <path clip-path="url(#p3b8d6a54c7)" d="M 116.443098 224.64 
L 121.046811 224.64 
L 121.046811 208.696728 
L 116.443098 208.696728 
z
" style="fill:#1f77b4;opacity:0.4;"/>
   </g>
   <g id="patch_12">
    <path clip-path="url(#p3b8d6a54c7)" d="M 121.046811 224.64 
L 125.650523 224.64 
L 125.650523 203.913747 
L 121.046811 203.913747 
z
" style="fill:#1f77b4;opacity:0.4;"/>
   </g>
   <g id="patch_13">
    <path clip-path="url(#p3b8d6a54c7)" d="M 125.650523 224.64 
L 130.254236 224.64 
L 130.254236 215.711768 
L 125.650523 215.711768 
z
" style="fill:#1f77b4;opacity:0.4;"/>
   </g>
   <g id="patch_14">
    <path clip-path="url(#p3b8d6a54c7)" d="M 130.254236 224.64 
L 134.857949 224.64 
L 134.857949 212.841979 
L 130.254236 212.841979 
z
" style="fill:#1f77b4;opacity:0.4;"/>
   </g>
   <g id="patch_15">
    <path clip-path="url(#p3b8d6a54c7)" d="M 134.857949 224.64 
L 139.461661 224.64 
L 139.461661 218.581557 
L 134.857949 218.581557 
z
" style="fill:#1f77b4;opacity:0.4;"/>
   </g>
   <g id="patch_16">
    <path clip-path="url(#p3b8d6a54c7)" d="M 139.461661 224.64 
L 144.065374 224.64 
L 144.065374 217.306095 
L 139.461661 217.306095 
z
" style="fill:#1f77b4;opacity:0.4;"/>
   </g>
   <g id="patch_17">
    <path clip-path="url(#p3b8d6a54c7)" d="M 144.065374 224.64 
L 148.669087 224.64 
L 148.669087 220.494749 
L 144.065374 220.494749 
z
" style="fill:#1f77b4;opacity:0.4;"/>
   </g>
   <g id="patch_18">
    <path clip-path="url(#p3b8d6a54c7)" d="M 148.669087 224.64 
L 153.272799 224.64 
L 153.272799 220.813615 
L 148.669087 220.813615 
z
" style="fill:#1f77b4;opacity:0.4;"/>
   </g>
   <g id="patch_19">
    <path clip-path="url(#p3b8d6a54c7)" d="M 153.272799 224.64 
L 157.876512 224.64 
L 157.876512 220.813615 
L 153.272799 220.813615 
z
" style="fill:#1f77b4;opacity:0.4;"/>
   </g>
   <g id="patch_20">
    <path clip-path="url(#p3b8d6a54c7)" d="M 157.876512 224.64 
L 162.480225 224.64 
L 162.480225 221.770211 
L 157.876512 221.770211 
z
" style="fill:#1f77b4;opacity:0.4;"/>
   </g>
   <g id="patch_21">
    <path clip-path="url(#p3b8d6a54c7)" d="M 162.480225 224.64 
L 167.083938 224.64 
L 167.083938 220.813615 
L 162.480225 220.813615 
z
" style="fill:#1f77b4;opacity:0.4;"/>
   </g>
   <g id="patch_22">
    <path clip-path="url(#p3b8d6a54c7)" d="M 167.083938 224.64 
L 171.68765 224.64 
L 171.68765 223.364538 
L 167.083938 223.364538 
z
" style="fill:#1f77b4;opacity:0.4;"/>
   </g>
   <g id="patch_23">
    <path clip-path="url(#p3b8d6a54c7)" d="M 171.68765 224.64 
L 176.291363 224.64 
L 176.291363 222.407942 
L 171.68765 222.407942 
z
" style="fill:#1f77b4;opacity:0.4;"/>
   </g>
   <g id="patch_24">
    <path clip-path="url(#p3b8d6a54c7)" d="M 176.291363 224.64 
L 180.895076 224.64 
L 180.895076 221.451346 
L 176.291363 221.451346 
z
" style="fill:#1f77b4;opacity:0.4;"/>
   </g>
   <g id="patch_25">
    <path clip-path="url(#p3b8d6a54c7)" d="M 180.895076 224.64 
L 185.498788 224.64 
L 185.498788 222.726807 
L 180.895076 222.726807 
z
" style="fill:#1f77b4;opacity:0.4;"/>
   </g>
   <g id="patch_26">
    <path clip-path="url(#p3b8d6a54c7)" d="M 185.498788 224.64 
L 190.102501 224.64 
L 190.102501 223.683404 
L 185.498788 223.683404 
z
" style="fill:#1f77b4;opacity:0.4;"/>
   </g>
   <g id="patch_27">
    <path clip-path="url(#p3b8d6a54c7)" d="M 190.102501 224.64 
L 194.706214 224.64 
L 194.706214 223.683404 
L 190.102501 223.683404 
z
" style="fill:#1f77b4;opacity:0.4;"/>
   </g>
   <g id="patch_28">
    <path clip-path="url(#p3b8d6a54c7)" d="M 194.706214 224.64 
L 199.309926 224.64 
L 199.309926 224.321135 
L 194.706214 224.321135 
z
" style="fill:#1f77b4;opacity:0.4;"/>
   </g>
   <g id="patch_29">
    <path clip-path="url(#p3b8d6a54c7)" d="M 199.309926 224.64 
L 203.913639 224.64 
L 203.913639 224.64 
L 199.309926 224.64 
z
" style="fill:#1f77b4;opacity:0.4;"/>
   </g>
   <g id="patch_30">
    <path clip-path="url(#p3b8d6a54c7)" d="M 203.913639 224.64 
L 208.517352 224.64 
L 208.517352 223.683404 
L 203.913639 223.683404 
z
" style="fill:#1f77b4;opacity:0.4;"/>
   </g>
   <g id="patch_31">
    <path clip-path="url(#p3b8d6a54c7)" d="M 208.517352 224.64 
L 213.121064 224.64 
L 213.121064 224.64 
L 208.517352 224.64 
z
" style="fill:#1f77b4;opacity:0.4;"/>
   </g>
   <g id="patch_32">
    <path clip-path="url(#p3b8d6a54c7)" d="M 213.121064 224.64 
L 217.724777 224.64 
L 217.724777 224.64 
L 213.121064 224.64 
z
" style="fill:#1f77b4;opacity:0.4;"/>
   </g>
   <g id="patch_33">
    <path clip-path="url(#p3b8d6a54c7)" d="M 217.724777 224.64 
L 222.32849 224.64 
L 222.32849 224.321135 
L 217.724777 224.321135 
z
" style="fill:#1f77b4;opacity:0.4;"/>
   </g>
   <g id="patch_34">
    <path clip-path="url(#p3b8d6a54c7)" d="M 222.32849 224.64 
L 226.932202 224.64 
L 226.932202 224.64 
L 222.32849 224.64 
z
" style="fill:#1f77b4;opacity:0.4;"/>
   </g>
   <g id="patch_35">
    <path clip-path="url(#p3b8d6a54c7)" d="M 226.932202 224.64 
L 231.535915 224.64 
L 231.535915 224.64 
L 226.932202 224.64 
z
" style="fill:#1f77b4;opacity:0.4;"/>
   </g>
   <g id="patch_36">
    <path clip-path="url(#p3b8d6a54c7)" d="M 231.535915 224.64 
L 236.139628 224.64 
L 236.139628 224.321135 
L 231.535915 224.321135 
z
" style="fill:#1f77b4;opacity:0.4;"/>
   </g>
   <g id="patch_37">
    <path clip-path="url(#p3b8d6a54c7)" d="M 236.139628 224.64 
L 240.743341 224.64 
L 240.743341 224.64 
L 236.139628 224.64 
z
" style="fill:#1f77b4;opacity:0.4;"/>
   </g>
   <g id="patch_38">
    <path clip-path="url(#p3b8d6a54c7)" d="M 240.743341 224.64 
L 245.347053 224.64 
L 245.347053 224.64 
L 240.743341 224.64 
z
" style="fill:#1f77b4;opacity:0.4;"/>
   </g>
   <g id="patch_39">
    <path clip-path="url(#p3b8d6a54c7)" d="M 245.347053 224.64 
L 249.950766 224.64 
L 249.950766 224.64 
L 245.347053 224.64 
z
" style="fill:#1f77b4;opacity:0.4;"/>
   </g>
   <g id="patch_40">
    <path clip-path="url(#p3b8d6a54c7)" d="M 249.950766 224.64 
L 254.554479 224.64 
L 254.554479 224.64 
L 249.950766 224.64 
z
" style="fill:#1f77b4;opacity:0.4;"/>
   </g>
   <g id="patch_41">
    <path clip-path="url(#p3b8d6a54c7)" d="M 254.554479 224.64 
L 259.158191 224.64 
L 259.158191 224.321135 
L 254.554479 224.321135 
z
" style="fill:#1f77b4;opacity:0.4;"/>
   </g>
   <g id="patch_42">
    <path clip-path="url(#p3b8d6a54c7)" d="M 259.158191 224.64 
L 263.761904 224.64 
L 263.761904 224.64 
L 259.158191 224.64 
z
" style="fill:#1f77b4;opacity:0.4;"/>
   </g>
   <g id="patch_43">
    <path clip-path="url(#p3b8d6a54c7)" d="M 263.761904 224.64 
L 268.365617 224.64 
L 268.365617 224.64 
L 263.761904 224.64 
z
" style="fill:#1f77b4;opacity:0.4;"/>
   </g>
   <g id="patch_44">
    <path clip-path="url(#p3b8d6a54c7)" d="M 268.365617 224.64 
L 272.969329 224.64 
L 272.969329 224.64 
L 268.365617 224.64 
z
" style="fill:#1f77b4;opacity:0.4;"/>
   </g>
   <g id="patch_45">
    <path clip-path="url(#p3b8d6a54c7)" d="M 272.969329 224.64 
L 277.573042 224.64 
L 277.573042 224.64 
L 272.969329 224.64 
z
" style="fill:#1f77b4;opacity:0.4;"/>
   </g>
   <g id="patch_46">
    <path clip-path="url(#p3b8d6a54c7)" d="M 277.573042 224.64 
L 282.176755 224.64 
L 282.176755 224.64 
L 277.573042 224.64 
z
" style="fill:#1f77b4;opacity:0.4;"/>
   </g>
   <g id="patch_47">
    <path clip-path="url(#p3b8d6a54c7)" d="M 282.176755 224.64 
L 286.780467 224.64 
L 286.780467 224.64 
L 282.176755 224.64 
z
" style="fill:#1f77b4;opacity:0.4;"/>
   </g>
   <g id="patch_48">
    <path clip-path="url(#p3b8d6a54c7)" d="M 286.780467 224.64 
L 291.38418 224.64 
L 291.38418 224.64 
L 286.780467 224.64 
z
" style="fill:#1f77b4;opacity:0.4;"/>
   </g>
   <g id="patch_49">
    <path clip-path="url(#p3b8d6a54c7)" d="M 291.38418 224.64 
L 295.987893 224.64 
L 295.987893 224.321135 
L 291.38418 224.321135 
z
" style="fill:#1f77b4;opacity:0.4;"/>
   </g>
   <g id="patch_50">
    <path clip-path="url(#p3b8d6a54c7)" d="M 79.013565 224.64 
L 84.300272 224.64 
L 84.300272 106.629865 
L 79.013565 106.629865 
z
" style="fill:#ff7f0e;opacity:0.4;"/>
   </g>
   <g id="patch_51">
    <path clip-path="url(#p3b8d6a54c7)" d="M 84.300272 224.64 
L 89.58698 224.64 
L 89.58698 142.727083 
L 84.300272 142.727083 
z
" style="fill:#ff7f0e;opacity:0.4;"/>
   </g>
   <g id="patch_52">
    <path clip-path="url(#p3b8d6a54c7)" d="M 89.58698 224.64 
L 94.873687 224.64 
L 94.873687 203.537011 
L 89.58698 203.537011 
z
" style="fill:#ff7f0e;opacity:0.4;"/>
   </g>
   <g id="patch_53">
    <path clip-path="url(#p3b8d6a54c7)" d="M 94.873687 224.64 
L 100.160395 224.64 
L 100.160395 211.034126 
L 94.873687 211.034126 
z
" style="fill:#ff7f0e;opacity:0.4;"/>
   </g>
   <g id="patch_54">
    <path clip-path="url(#p3b8d6a54c7)" d="M 100.160395 224.64 
L 105.447102 224.64 
L 105.447102 219.641924 
L 100.160395 219.641924 
z
" style="fill:#ff7f0e;opacity:0.4;"/>
   </g>
   <g id="patch_55">
    <path clip-path="url(#p3b8d6a54c7)" d="M 105.447102 224.64 
L 110.733809 224.64 
L 110.733809 219.086582 
L 105.447102 219.086582 
z
" style="fill:#ff7f0e;opacity:0.4;"/>
   </g>
   <g id="patch_56">
    <path clip-path="url(#p3b8d6a54c7)" d="M 110.733809 224.64 
L 116.020517 224.64 
L 116.020517 221.863291 
L 110.733809 221.863291 
z
" style="fill:#ff7f0e;opacity:0.4;"/>
   </g>
   <g id="patch_57">
    <path clip-path="url(#p3b8d6a54c7)" d="M 116.020517 224.64 
L 121.307224 224.64 
L 121.307224 221.863291 
L 116.020517 221.863291 
z
" style="fill:#ff7f0e;opacity:0.4;"/>
   </g>
   <g id="patch_58">
    <path clip-path="url(#p3b8d6a54c7)" d="M 121.307224 224.64 
L 126.593932 224.64 
L 126.593932 222.140962 
L 121.307224 222.140962 
z
" style="fill:#ff7f0e;opacity:0.4;"/>
   </g>
   <g id="patch_59">
    <path clip-path="url(#p3b8d6a54c7)" d="M 126.593932 224.64 
L 131.880639 224.64 
L 131.880639 221.863291 
L 126.593932 221.863291 
z
" style="fill:#ff7f0e;opacity:0.4;"/>
   </g>
   <g id="patch_60">
    <path clip-path="url(#p3b8d6a54c7)" d="M 131.880639 224.64 
L 137.167346 224.64 
L 137.167346 221.58562 
L 131.880639 221.58562 
z
" style="fill:#ff7f0e;opacity:0.4;"/>
   </g>
   <g id="patch_61">
    <path clip-path="url(#p3b8d6a54c7)" d="M 137.167346 224.64 
L 142.454054 224.64 
L 142.454054 221.863291 
L 137.167346 221.863291 
z
" style="fill:#ff7f0e;opacity:0.4;"/>
   </g>
   <g id="patch_62">
    <path clip-path="url(#p3b8d6a54c7)" d="M 142.454054 224.64 
L 147.740761 224.64 
L 147.740761 224.362329 
L 142.454054 224.362329 
z
" style="fill:#ff7f0e;opacity:0.4;"/>
   </g>
   <g id="patch_63">
    <path clip-path="url(#p3b8d6a54c7)" d="M 147.740761 224.64 
L 153.027469 224.64 
L 153.027469 222.973975 
L 147.740761 222.973975 
z
" style="fill:#ff7f0e;opacity:0.4;"/>
   </g>
   <g id="patch_64">
    <path clip-path="url(#p3b8d6a54c7)" d="M 153.027469 224.64 
L 158.314176 224.64 
L 158.314176 222.973975 
L 153.027469 222.973975 
z
" style="fill:#ff7f0e;opacity:0.4;"/>
   </g>
   <g id="patch_65">
    <path clip-path="url(#p3b8d6a54c7)" d="M 158.314176 224.64 
L 163.600883 224.64 
L 163.600883 223.529316 
L 158.314176 223.529316 
z
" style="fill:#ff7f0e;opacity:0.4;"/>
   </g>
   <g id="patch_66">
    <path clip-path="url(#p3b8d6a54c7)" d="M 163.600883 224.64 
L 168.887591 224.64 
L 168.887591 222.696304 
L 163.600883 222.696304 
z
" style="fill:#ff7f0e;opacity:0.4;"/>
   </g>
   <g id="patch_67">
    <path clip-path="url(#p3b8d6a54c7)" d="M 168.887591 224.64 
L 174.174298 224.64 
L 174.174298 223.529316 
L 168.887591 223.529316 
z
" style="fill:#ff7f0e;opacity:0.4;"/>
   </g>
   <g id="patch_68">
    <path clip-path="url(#p3b8d6a54c7)" d="M 174.174298 224.64 
L 179.461006 224.64 
L 179.461006 223.529316 
L 174.174298 223.529316 
z
" style="fill:#ff7f0e;opacity:0.4;"/>
   </g>
   <g id="patch_69">
    <path clip-path="url(#p3b8d6a54c7)" d="M 179.461006 224.64 
L 184.747713 224.64 
L 184.747713 223.251645 
L 179.461006 223.251645 
z
" style="fill:#ff7f0e;opacity:0.4;"/>
   </g>
   <g id="patch_70">
    <path clip-path="url(#p3b8d6a54c7)" d="M 184.747713 224.64 
L 190.03442 224.64 
L 190.03442 224.362329 
L 184.747713 224.362329 
z
" style="fill:#ff7f0e;opacity:0.4;"/>
   </g>
   <g id="patch_71">
    <path clip-path="url(#p3b8d6a54c7)" d="M 190.03442 224.64 
L 195.321128 224.64 
L 195.321128 223.251645 
L 190.03442 223.251645 
z
" style="fill:#ff7f0e;opacity:0.4;"/>
   </g>
   <g id="patch_72">
    <path clip-path="url(#p3b8d6a54c7)" d="M 195.321128 224.64 
L 200.607835 224.64 
L 200.607835 224.362329 
L 195.321128 224.362329 
z
" style="fill:#ff7f0e;opacity:0.4;"/>
   </g>
   <g id="patch_73">
    <path clip-path="url(#p3b8d6a54c7)" d="M 200.607835 224.64 
L 205.894543 224.64 
L 205.894543 224.084658 
L 200.607835 224.084658 
z
" style="fill:#ff7f0e;opacity:0.4;"/>
   </g>
   <g id="patch_74">
    <path clip-path="url(#p3b8d6a54c7)" d="M 205.894543 224.64 
L 211.18125 224.64 
L 211.18125 224.362329 
L 205.894543 224.362329 
z
" style="fill:#ff7f0e;opacity:0.4;"/>
   </g>
   <g id="patch_75">
    <path clip-path="url(#p3b8d6a54c7)" d="M 211.18125 224.64 
L 216.467957 224.64 
L 216.467957 224.64 
L 211.18125 224.64 
z
" style="fill:#ff7f0e;opacity:0.4;"/>
   </g>
   <g id="patch_76">
    <path clip-path="url(#p3b8d6a54c7)" d="M 216.467957 224.64 
L 221.754665 224.64 
L 221.754665 224.362329 
L 216.467957 224.362329 
z
" style="fill:#ff7f0e;opacity:0.4;"/>
   </g>
   <g id="patch_77">
    <path clip-path="url(#p3b8d6a54c7)" d="M 221.754665 224.64 
L 227.041372 224.64 
L 227.041372 224.084658 
L 221.754665 224.084658 
z
" style="fill:#ff7f0e;opacity:0.4;"/>
   </g>
   <g id="patch_78">
    <path clip-path="url(#p3b8d6a54c7)" d="M 227.041372 224.64 
L 232.32808 224.64 
L 232.32808 224.084658 
L 227.041372 224.084658 
z
" style="fill:#ff7f0e;opacity:0.4;"/>
   </g>
   <g id="patch_79">
    <path clip-path="url(#p3b8d6a54c7)" d="M 232.32808 224.64 
L 237.614787 224.64 
L 237.614787 224.64 
L 232.32808 224.64 
z
" style="fill:#ff7f0e;opacity:0.4;"/>
   </g>
   <g id="patch_80">
    <path clip-path="url(#p3b8d6a54c7)" d="M 237.614787 224.64 
L 242.901494 224.64 
L 242.901494 224.64 
L 237.614787 224.64 
z
" style="fill:#ff7f0e;opacity:0.4;"/>
   </g>
   <g id="patch_81">
    <path clip-path="url(#p3b8d6a54c7)" d="M 242.901494 224.64 
L 248.188202 224.64 
L 248.188202 224.084658 
L 242.901494 224.084658 
z
" style="fill:#ff7f0e;opacity:0.4;"/>
   </g>
   <g id="patch_82">
    <path clip-path="url(#p3b8d6a54c7)" d="M 248.188202 224.64 
L 253.474909 224.64 
L 253.474909 224.64 
L 248.188202 224.64 
z
" style="fill:#ff7f0e;opacity:0.4;"/>
   </g>
   <g id="patch_83">
    <path clip-path="url(#p3b8d6a54c7)" d="M 253.474909 224.64 
L 258.761617 224.64 
L 258.761617 224.362329 
L 253.474909 224.362329 
z
" style="fill:#ff7f0e;opacity:0.4;"/>
   </g>
   <g id="patch_84">
    <path clip-path="url(#p3b8d6a54c7)" d="M 258.761617 224.64 
L 264.048324 224.64 
L 264.048324 224.64 
L 258.761617 224.64 
z
" style="fill:#ff7f0e;opacity:0.4;"/>
   </g>
   <g id="patch_85">
    <path clip-path="url(#p3b8d6a54c7)" d="M 264.048324 224.64 
L 269.335031 224.64 
L 269.335031 224.64 
L 264.048324 224.64 
z
" style="fill:#ff7f0e;opacity:0.4;"/>
   </g>
   <g id="patch_86">
    <path clip-path="url(#p3b8d6a54c7)" d="M 269.335031 224.64 
L 274.621739 224.64 
L 274.621739 224.362329 
L 269.335031 224.362329 
z
" style="fill:#ff7f0e;opacity:0.4;"/>
   </g>
   <g id="patch_87">
    <path clip-path="url(#p3b8d6a54c7)" d="M 274.621739 224.64 
L 279.908446 224.64 
L 279.908446 224.64 
L 274.621739 224.64 
z
" style="fill:#ff7f0e;opacity:0.4;"/>
   </g>
   <g id="patch_88">
    <path clip-path="url(#p3b8d6a54c7)" d="M 279.908446 224.64 
L 285.195154 224.64 
L 285.195154 224.64 
L 279.908446 224.64 
z
" style="fill:#ff7f0e;opacity:0.4;"/>
   </g>
   <g id="patch_89">
    <path clip-path="url(#p3b8d6a54c7)" d="M 285.195154 224.64 
L 290.481861 224.64 
L 290.481861 224.64 
L 285.195154 224.64 
z
" style="fill:#ff7f0e;opacity:0.4;"/>
   </g>
   <g id="patch_90">
    <path clip-path="url(#p3b8d6a54c7)" d="M 290.481861 224.64 
L 295.768568 224.64 
L 295.768568 224.64 
L 290.481861 224.64 
z
" style="fill:#ff7f0e;opacity:0.4;"/>
   </g>
   <g id="patch_91">
    <path clip-path="url(#p3b8d6a54c7)" d="M 295.768568 224.64 
L 301.055276 224.64 
L 301.055276 224.64 
L 295.768568 224.64 
z
" style="fill:#ff7f0e;opacity:0.4;"/>
   </g>
   <g id="patch_92">
    <path clip-path="url(#p3b8d6a54c7)" d="M 301.055276 224.64 
L 306.341983 224.64 
L 306.341983 224.64 
L 301.055276 224.64 
z
" style="fill:#ff7f0e;opacity:0.4;"/>
   </g>
   <g id="patch_93">
    <path clip-path="url(#p3b8d6a54c7)" d="M 306.341983 224.64 
L 311.628691 224.64 
L 311.628691 224.64 
L 306.341983 224.64 
z
" style="fill:#ff7f0e;opacity:0.4;"/>
   </g>
   <g id="patch_94">
    <path clip-path="url(#p3b8d6a54c7)" d="M 311.628691 224.64 
L 316.915398 224.64 
L 316.915398 224.64 
L 311.628691 224.64 
z
" style="fill:#ff7f0e;opacity:0.4;"/>
   </g>
   <g id="patch_95">
    <path clip-path="url(#p3b8d6a54c7)" d="M 316.915398 224.64 
L 322.202105 224.64 
L 322.202105 224.64 
L 316.915398 224.64 
z
" style="fill:#ff7f0e;opacity:0.4;"/>
   </g>
   <g id="patch_96">
    <path clip-path="url(#p3b8d6a54c7)" d="M 322.202105 224.64 
L 327.488813 224.64 
L 327.488813 224.64 
L 322.202105 224.64 
z
" style="fill:#ff7f0e;opacity:0.4;"/>
   </g>
   <g id="patch_97">
    <path clip-path="url(#p3b8d6a54c7)" d="M 327.488813 224.64 
L 332.77552 224.64 
L 332.77552 224.64 
L 327.488813 224.64 
z
" style="fill:#ff7f0e;opacity:0.4;"/>
   </g>
   <g id="patch_98">
    <path clip-path="url(#p3b8d6a54c7)" d="M 332.77552 224.64 
L 338.062228 224.64 
L 338.062228 224.64 
L 332.77552 224.64 
z
" style="fill:#ff7f0e;opacity:0.4;"/>
   </g>
   <g id="patch_99">
    <path clip-path="url(#p3b8d6a54c7)" d="M 338.062228 224.64 
L 343.348935 224.64 
L 343.348935 224.362329 
L 338.062228 224.362329 
z
" style="fill:#ff7f0e;opacity:0.4;"/>
   </g>
   <g id="patch_100">
    <path clip-path="url(#p3b8d6a54c7)" d="M 79.013565 224.64 
L 82.784744 224.64 
L 82.784744 17.554286 
L 79.013565 17.554286 
z
" style="fill:#2ca02c;opacity:0.4;"/>
   </g>
   <g id="patch_101">
    <path clip-path="url(#p3b8d6a54c7)" d="M 82.784744 224.64 
L 86.555923 224.64 
L 86.555923 177.928937 
L 82.784744 177.928937 
z
" style="fill:#2ca02c;opacity:0.4;"/>
   </g>
   <g id="patch_102">
    <path clip-path="url(#p3b8d6a54c7)" d="M 86.555923 224.64 
L 90.327102 224.64 
L 90.327102 198.559656 
L 86.555923 198.559656 
z
" style="fill:#2ca02c;opacity:0.4;"/>
   </g>
   <g id="patch_103">
    <path clip-path="url(#p3b8d6a54c7)" d="M 90.327102 224.64 
L 94.098281 224.64 
L 94.098281 208.291128 
L 90.327102 208.291128 
z
" style="fill:#2ca02c;opacity:0.4;"/>
   </g>
   <g id="patch_104">
    <path clip-path="url(#p3b8d6a54c7)" d="M 94.098281 224.64 
L 97.86946 224.64 
L 97.86946 209.458904 
L 94.098281 209.458904 
z
" style="fill:#2ca02c;opacity:0.4;"/>
   </g>
   <g id="patch_105">
    <path clip-path="url(#p3b8d6a54c7)" d="M 97.86946 224.64 
L 101.640639 224.64 
L 101.640639 213.740752 
L 97.86946 213.740752 
z
" style="fill:#2ca02c;opacity:0.4;"/>
   </g>
   <g id="patch_106">
    <path clip-path="url(#p3b8d6a54c7)" d="M 101.640639 224.64 
L 105.411818 224.64 
L 105.411818 214.130011 
L 101.640639 214.130011 
z
" style="fill:#2ca02c;opacity:0.4;"/>
   </g>
   <g id="patch_107">
    <path clip-path="url(#p3b8d6a54c7)" d="M 105.411818 224.64 
L 109.182997 224.64 
L 109.182997 217.244082 
L 105.411818 217.244082 
z
" style="fill:#2ca02c;opacity:0.4;"/>
   </g>
   <g id="patch_108">
    <path clip-path="url(#p3b8d6a54c7)" d="M 109.182997 224.64 
L 112.954176 224.64 
L 112.954176 216.465564 
L 109.182997 216.465564 
z
" style="fill:#2ca02c;opacity:0.4;"/>
   </g>
   <g id="patch_109">
    <path clip-path="url(#p3b8d6a54c7)" d="M 112.954176 224.64 
L 116.725355 224.64 
L 116.725355 217.244082 
L 112.954176 217.244082 
z
" style="fill:#2ca02c;opacity:0.4;"/>
   </g>
   <g id="patch_110">
    <path clip-path="url(#p3b8d6a54c7)" d="M 116.725355 224.64 
L 120.496534 224.64 
L 120.496534 219.190376 
L 116.725355 219.190376 
z
" style="fill:#2ca02c;opacity:0.4;"/>
   </g>
   <g id="patch_111">
    <path clip-path="url(#p3b8d6a54c7)" d="M 120.496534 224.64 
L 124.267713 224.64 
L 124.267713 219.968894 
L 120.496534 219.968894 
z
" style="fill:#2ca02c;opacity:0.4;"/>
   </g>
   <g id="patch_112">
    <path clip-path="url(#p3b8d6a54c7)" d="M 124.267713 224.64 
L 128.038892 224.64 
L 128.038892 222.693706 
L 124.267713 222.693706 
z
" style="fill:#2ca02c;opacity:0.4;"/>
   </g>
   <g id="patch_113">
    <path clip-path="url(#p3b8d6a54c7)" d="M 128.038892 224.64 
L 131.810071 224.64 
L 131.810071 219.968894 
L 128.038892 219.968894 
z
" style="fill:#2ca02c;opacity:0.4;"/>
   </g>
   <g id="patch_114">
    <path clip-path="url(#p3b8d6a54c7)" d="M 131.810071 224.64 
L 135.58125 224.64 
L 135.58125 221.915188 
L 131.810071 221.915188 
z
" style="fill:#2ca02c;opacity:0.4;"/>
   </g>
   <g id="patch_115">
    <path clip-path="url(#p3b8d6a54c7)" d="M 135.58125 224.64 
L 139.352428 224.64 
L 139.352428 222.304447 
L 135.58125 222.304447 
z
" style="fill:#2ca02c;opacity:0.4;"/>
   </g>
   <g id="patch_116">
    <path clip-path="url(#p3b8d6a54c7)" d="M 139.352428 224.64 
L 143.123607 224.64 
L 143.123607 223.082965 
L 139.352428 223.082965 
z
" style="fill:#2ca02c;opacity:0.4;"/>
   </g>
   <g id="patch_117">
    <path clip-path="url(#p3b8d6a54c7)" d="M 143.123607 224.64 
L 146.894786 224.64 
L 146.894786 223.861482 
L 143.123607 223.861482 
z
" style="fill:#2ca02c;opacity:0.4;"/>
   </g>
   <g id="patch_118">
    <path clip-path="url(#p3b8d6a54c7)" d="M 146.894786 224.64 
L 150.665965 224.64 
L 150.665965 222.693706 
L 146.894786 222.693706 
z
" style="fill:#2ca02c;opacity:0.4;"/>
   </g>
   <g id="patch_119">
    <path clip-path="url(#p3b8d6a54c7)" d="M 150.665965 224.64 
L 154.437144 224.64 
L 154.437144 224.250741 
L 150.665965 224.250741 
z
" style="fill:#2ca02c;opacity:0.4;"/>
   </g>
   <g id="patch_120">
    <path clip-path="url(#p3b8d6a54c7)" d="M 154.437144 224.64 
L 158.208323 224.64 
L 158.208323 222.304447 
L 154.437144 222.304447 
z
" style="fill:#2ca02c;opacity:0.4;"/>
   </g>
   <g id="patch_121">
    <path clip-path="url(#p3b8d6a54c7)" d="M 158.208323 224.64 
L 161.979502 224.64 
L 161.979502 223.472223 
L 158.208323 223.472223 
z
" style="fill:#2ca02c;opacity:0.4;"/>
   </g>
   <g id="patch_122">
    <path clip-path="url(#p3b8d6a54c7)" d="M 161.979502 224.64 
L 165.750681 224.64 
L 165.750681 224.64 
L 161.979502 224.64 
z
" style="fill:#2ca02c;opacity:0.4;"/>
   </g>
   <g id="patch_123">
    <path clip-path="url(#p3b8d6a54c7)" d="M 165.750681 224.64 
L 169.52186 224.64 
L 169.52186 223.861482 
L 165.750681 223.861482 
z
" style="fill:#2ca02c;opacity:0.4;"/>
   </g>
   <g id="patch_124">
    <path clip-path="url(#p3b8d6a54c7)" d="M 169.52186 224.64 
L 173.293039 224.64 
L 173.293039 223.861482 
L 169.52186 223.861482 
z
" style="fill:#2ca02c;opacity:0.4;"/>
   </g>
   <g id="patch_125">
    <path clip-path="url(#p3b8d6a54c7)" d="M 173.293039 224.64 
L 177.064218 224.64 
L 177.064218 224.64 
L 173.293039 224.64 
z
" style="fill:#2ca02c;opacity:0.4;"/>
   </g>
   <g id="patch_126">
    <path clip-path="url(#p3b8d6a54c7)" d="M 177.064218 224.64 
L 180.835397 224.64 
L 180.835397 224.250741 
L 177.064218 224.250741 
z
" style="fill:#2ca02c;opacity:0.4;"/>
   </g>
   <g id="patch_127">
    <path clip-path="url(#p3b8d6a54c7)" d="M 180.835397 224.64 
L 184.606576 224.64 
L 184.606576 224.250741 
L 180.835397 224.250741 
z
" style="fill:#2ca02c;opacity:0.4;"/>
   </g>
   <g id="patch_128">
    <path clip-path="url(#p3b8d6a54c7)" d="M 184.606576 224.64 
L 188.377755 224.64 
L 188.377755 224.250741 
L 184.606576 224.250741 
z
" style="fill:#2ca02c;opacity:0.4;"/>
   </g>
   <g id="patch_129">
    <path clip-path="url(#p3b8d6a54c7)" d="M 188.377755 224.64 
L 192.148934 224.64 
L 192.148934 224.64 
L 188.377755 224.64 
z
" style="fill:#2ca02c;opacity:0.4;"/>
   </g>
   <g id="patch_130">
    <path clip-path="url(#p3b8d6a54c7)" d="M 192.148934 224.64 
L 195.920113 224.64 
L 195.920113 224.64 
L 192.148934 224.64 
z
" style="fill:#2ca02c;opacity:0.4;"/>
   </g>
   <g id="patch_131">
    <path clip-path="url(#p3b8d6a54c7)" d="M 195.920113 224.64 
L 199.691292 224.64 
L 199.691292 224.64 
L 195.920113 224.64 
z
" style="fill:#2ca02c;opacity:0.4;"/>
   </g>
   <g id="patch_132">
    <path clip-path="url(#p3b8d6a54c7)" d="M 199.691292 224.64 
L 203.462471 224.64 
L 203.462471 224.64 
L 199.691292 224.64 
z
" style="fill:#2ca02c;opacity:0.4;"/>
   </g>
   <g id="patch_133">
    <path clip-path="url(#p3b8d6a54c7)" d="M 203.462471 224.64 
L 207.23365 224.64 
L 207.23365 224.64 
L 203.462471 224.64 
z
" style="fill:#2ca02c;opacity:0.4;"/>
   </g>
   <g id="patch_134">
    <path clip-path="url(#p3b8d6a54c7)" d="M 207.23365 224.64 
L 211.004829 224.64 
L 211.004829 224.64 
L 207.23365 224.64 
z
" style="fill:#2ca02c;opacity:0.4;"/>
   </g>
   <g id="patch_135">
    <path clip-path="url(#p3b8d6a54c7)" d="M 211.004829 224.64 
L 214.776008 224.64 
L 214.776008 224.64 
L 211.004829 224.64 
z
" style="fill:#2ca02c;opacity:0.4;"/>
   </g>
   <g id="patch_136">
    <path clip-path="url(#p3b8d6a54c7)" d="M 214.776008 224.64 
L 218.547187 224.64 
L 218.547187 224.64 
L 214.776008 224.64 
z
" style="fill:#2ca02c;opacity:0.4;"/>
   </g>
   <g id="patch_137">
    <path clip-path="url(#p3b8d6a54c7)" d="M 218.547187 224.64 
L 222.318366 224.64 
L 222.318366 224.64 
L 218.547187 224.64 
z
" style="fill:#2ca02c;opacity:0.4;"/>
   </g>
   <g id="patch_138">
    <path clip-path="url(#p3b8d6a54c7)" d="M 222.318366 224.64 
L 226.089545 224.64 
L 226.089545 224.250741 
L 222.318366 224.250741 
z
" style="fill:#2ca02c;opacity:0.4;"/>
   </g>
   <g id="patch_139">
    <path clip-path="url(#p3b8d6a54c7)" d="M 226.089545 224.64 
L 229.860724 224.64 
L 229.860724 224.64 
L 226.089545 224.64 
z
" style="fill:#2ca02c;opacity:0.4;"/>
   </g>
   <g id="patch_140">
    <path clip-path="url(#p3b8d6a54c7)" d="M 229.860724 224.64 
L 233.631903 224.64 
L 233.631903 224.64 
L 229.860724 224.64 
z
" style="fill:#2ca02c;opacity:0.4;"/>
   </g>
   <g id="patch_141">
    <path clip-path="url(#p3b8d6a54c7)" d="M 233.631903 224.64 
L 237.403082 224.64 
L 237.403082 224.64 
L 233.631903 224.64 
z
" style="fill:#2ca02c;opacity:0.4;"/>
   </g>
   <g id="patch_142">
    <path clip-path="url(#p3b8d6a54c7)" d="M 237.403082 224.64 
L 241.17426 224.64 
L 241.17426 224.64 
L 237.403082 224.64 
z
" style="fill:#2ca02c;opacity:0.4;"/>
   </g>
   <g id="patch_143">
    <path clip-path="url(#p3b8d6a54c7)" d="M 241.17426 224.64 
L 244.945439 224.64 
L 244.945439 224.64 
L 241.17426 224.64 
z
" style="fill:#2ca02c;opacity:0.4;"/>
   </g>
   <g id="patch_144">
    <path clip-path="url(#p3b8d6a54c7)" d="M 244.945439 224.64 
L 248.716618 224.64 
L 248.716618 224.64 
L 244.945439 224.64 
z
" style="fill:#2ca02c;opacity:0.4;"/>
   </g>
   <g id="patch_145">
    <path clip-path="url(#p3b8d6a54c7)" d="M 248.716618 224.64 
L 252.487797 224.64 
L 252.487797 224.64 
L 248.716618 224.64 
z
" style="fill:#2ca02c;opacity:0.4;"/>
   </g>
   <g id="patch_146">
    <path clip-path="url(#p3b8d6a54c7)" d="M 252.487797 224.64 
L 256.258976 224.64 
L 256.258976 224.64 
L 252.487797 224.64 
z
" style="fill:#2ca02c;opacity:0.4;"/>
   </g>
   <g id="patch_147">
    <path clip-path="url(#p3b8d6a54c7)" d="M 256.258976 224.64 
L 260.030155 224.64 
L 260.030155 224.64 
L 256.258976 224.64 
z
" style="fill:#2ca02c;opacity:0.4;"/>
   </g>
   <g id="patch_148">
    <path clip-path="url(#p3b8d6a54c7)" d="M 260.030155 224.64 
L 263.801334 224.64 
L 263.801334 224.64 
L 260.030155 224.64 
z
" style="fill:#2ca02c;opacity:0.4;"/>
   </g>
   <g id="patch_149">
    <path clip-path="url(#p3b8d6a54c7)" d="M 263.801334 224.64 
L 267.572513 224.64 
L 267.572513 224.250741 
L 263.801334 224.250741 
z
" style="fill:#2ca02c;opacity:0.4;"/>
   </g>
   <g id="matplotlib.axis_1">
    <g id="xtick_1">
     <g id="line2d_1">
      <defs>
       <path d="M 0 0 
L 0 3.5 
" id="md3dd55c97d" style="stroke:#000000;stroke-width:0.8;"/>
      </defs>
      <g>
       <use style="stroke:#000000;stroke-width:0.8;" x="79.013565" xlink:href="#md3dd55c97d" y="224.64"/>
      </g>
     </g>
     <g id="text_1">
      <!-- 0 -->
      <g transform="translate(75.832315 239.238437)scale(0.1 -0.1)">
       <defs>
        <path d="M 2034 4250 
Q 1547 4250 1301 3770 
Q 1056 3291 1056 2328 
Q 1056 1369 1301 889 
Q 1547 409 2034 409 
Q 2525 409 2770 889 
Q 3016 1369 3016 2328 
Q 3016 3291 2770 3770 
Q 2525 4250 2034 4250 
z
M 2034 4750 
Q 2819 4750 3233 4129 
Q 3647 3509 3647 2328 
Q 3647 1150 3233 529 
Q 2819 -91 2034 -91 
Q 1250 -91 836 529 
Q 422 1150 422 2328 
Q 422 3509 836 4129 
Q 1250 4750 2034 4750 
z
" id="DejaVuSans-30" transform="scale(0.015625)"/>
       </defs>
       <use xlink:href="#DejaVuSans-30"/>
      </g>
     </g>
    </g>
    <g id="xtick_2">
     <g id="line2d_2">
      <g>
       <use style="stroke:#000000;stroke-width:0.8;" x="132.518295" xlink:href="#md3dd55c97d" y="224.64"/>
      </g>
     </g>
     <g id="text_2">
      <!-- 5 -->
      <g transform="translate(129.337045 239.238437)scale(0.1 -0.1)">
       <defs>
        <path d="M 691 4666 
L 3169 4666 
L 3169 4134 
L 1269 4134 
L 1269 2991 
Q 1406 3038 1543 3061 
Q 1681 3084 1819 3084 
Q 2600 3084 3056 2656 
Q 3513 2228 3513 1497 
Q 3513 744 3044 326 
Q 2575 -91 1722 -91 
Q 1428 -91 1123 -41 
Q 819 9 494 109 
L 494 744 
Q 775 591 1075 516 
Q 1375 441 1709 441 
Q 2250 441 2565 725 
Q 2881 1009 2881 1497 
Q 2881 1984 2565 2268 
Q 2250 2553 1709 2553 
Q 1456 2553 1204 2497 
Q 953 2441 691 2322 
L 691 4666 
z
" id="DejaVuSans-35" transform="scale(0.015625)"/>
       </defs>
       <use xlink:href="#DejaVuSans-35"/>
      </g>
     </g>
    </g>
    <g id="xtick_3">
     <g id="line2d_3">
      <g>
       <use style="stroke:#000000;stroke-width:0.8;" x="186.023024" xlink:href="#md3dd55c97d" y="224.64"/>
      </g>
     </g>
     <g id="text_3">
      <!-- 10 -->
      <g transform="translate(179.660524 239.238437)scale(0.1 -0.1)">
       <defs>
        <path d="M 794 531 
L 1825 531 
L 1825 4091 
L 703 3866 
L 703 4441 
L 1819 4666 
L 2450 4666 
L 2450 531 
L 3481 531 
L 3481 0 
L 794 0 
L 794 531 
z
" id="DejaVuSans-31" transform="scale(0.015625)"/>
       </defs>
       <use xlink:href="#DejaVuSans-31"/>
       <use x="63.623047" xlink:href="#DejaVuSans-30"/>
      </g>
     </g>
    </g>
    <g id="xtick_4">
     <g id="line2d_4">
      <g>
       <use style="stroke:#000000;stroke-width:0.8;" x="239.527754" xlink:href="#md3dd55c97d" y="224.64"/>
      </g>
     </g>
     <g id="text_4">
      <!-- 15 -->
      <g transform="translate(233.165254 239.238437)scale(0.1 -0.1)">
       <use xlink:href="#DejaVuSans-31"/>
       <use x="63.623047" xlink:href="#DejaVuSans-35"/>
      </g>
     </g>
    </g>
    <g id="xtick_5">
     <g id="line2d_5">
      <g>
       <use style="stroke:#000000;stroke-width:0.8;" x="293.032484" xlink:href="#md3dd55c97d" y="224.64"/>
      </g>
     </g>
     <g id="text_5">
      <!-- 20 -->
      <g transform="translate(286.669984 239.238437)scale(0.1 -0.1)">
       <defs>
        <path d="M 1228 531 
L 3431 531 
L 3431 0 
L 469 0 
L 469 531 
Q 828 903 1448 1529 
Q 2069 2156 2228 2338 
Q 2531 2678 2651 2914 
Q 2772 3150 2772 3378 
Q 2772 3750 2511 3984 
Q 2250 4219 1831 4219 
Q 1534 4219 1204 4116 
Q 875 4013 500 3803 
L 500 4441 
Q 881 4594 1212 4672 
Q 1544 4750 1819 4750 
Q 2544 4750 2975 4387 
Q 3406 4025 3406 3419 
Q 3406 3131 3298 2873 
Q 3191 2616 2906 2266 
Q 2828 2175 2409 1742 
Q 1991 1309 1228 531 
z
" id="DejaVuSans-32" transform="scale(0.015625)"/>
       </defs>
       <use xlink:href="#DejaVuSans-32"/>
       <use x="63.623047" xlink:href="#DejaVuSans-30"/>
      </g>
     </g>
    </g>
    <g id="xtick_6">
     <g id="line2d_6">
      <g>
       <use style="stroke:#000000;stroke-width:0.8;" x="346.537213" xlink:href="#md3dd55c97d" y="224.64"/>
      </g>
     </g>
     <g id="text_6">
      <!-- 25 -->
      <g transform="translate(340.174713 239.238437)scale(0.1 -0.1)">
       <use xlink:href="#DejaVuSans-32"/>
       <use x="63.623047" xlink:href="#DejaVuSans-35"/>
      </g>
     </g>
    </g>
    <g id="text_7">
     <!-- f(t) -->
     <g transform="translate(203.559375 252.916562)scale(0.1 -0.1)">
      <defs>
       <path d="M 2375 4863 
L 2375 4384 
L 1825 4384 
Q 1516 4384 1395 4259 
Q 1275 4134 1275 3809 
L 1275 3500 
L 2222 3500 
L 2222 3053 
L 1275 3053 
L 1275 0 
L 697 0 
L 697 3053 
L 147 3053 
L 147 3500 
L 697 3500 
L 697 3744 
Q 697 4328 969 4595 
Q 1241 4863 1831 4863 
L 2375 4863 
z
" id="DejaVuSans-66" transform="scale(0.015625)"/>
       <path d="M 1984 4856 
Q 1566 4138 1362 3434 
Q 1159 2731 1159 2009 
Q 1159 1288 1364 580 
Q 1569 -128 1984 -844 
L 1484 -844 
Q 1016 -109 783 600 
Q 550 1309 550 2009 
Q 550 2706 781 3412 
Q 1013 4119 1484 4856 
L 1984 4856 
z
" id="DejaVuSans-28" transform="scale(0.015625)"/>
       <path d="M 1172 4494 
L 1172 3500 
L 2356 3500 
L 2356 3053 
L 1172 3053 
L 1172 1153 
Q 1172 725 1289 603 
Q 1406 481 1766 481 
L 2356 481 
L 2356 0 
L 1766 0 
Q 1100 0 847 248 
Q 594 497 594 1153 
L 594 3053 
L 172 3053 
L 172 3500 
L 594 3500 
L 594 4494 
L 1172 4494 
z
" id="DejaVuSans-74" transform="scale(0.015625)"/>
       <path d="M 513 4856 
L 1013 4856 
Q 1481 4119 1714 3412 
Q 1947 2706 1947 2009 
Q 1947 1309 1714 600 
Q 1481 -109 1013 -844 
L 513 -844 
Q 928 -128 1133 580 
Q 1338 1288 1338 2009 
Q 1338 2731 1133 3434 
Q 928 4138 513 4856 
z
" id="DejaVuSans-29" transform="scale(0.015625)"/>
      </defs>
      <use xlink:href="#DejaVuSans-66"/>
      <use x="35.205078" xlink:href="#DejaVuSans-28"/>
      <use x="74.21875" xlink:href="#DejaVuSans-74"/>
      <use x="113.427734" xlink:href="#DejaVuSans-29"/>
     </g>
    </g>
   </g>
   <g id="matplotlib.axis_2">
    <g id="ytick_1">
     <g id="line2d_7">
      <defs>
       <path d="M 0 0 
L -3.5 0 
" id="mf252a279a5" style="stroke:#000000;stroke-width:0.8;"/>
      </defs>
      <g>
       <use style="stroke:#000000;stroke-width:0.8;" x="43.78125" xlink:href="#mf252a279a5" y="224.64"/>
      </g>
     </g>
     <g id="text_8">
      <!-- 0.0 -->
      <g transform="translate(20.878125 228.439219)scale(0.1 -0.1)">
       <defs>
        <path d="M 684 794 
L 1344 794 
L 1344 0 
L 684 0 
L 684 794 
z
" id="DejaVuSans-2e" transform="scale(0.015625)"/>
       </defs>
       <use xlink:href="#DejaVuSans-30"/>
       <use x="63.623047" xlink:href="#DejaVuSans-2e"/>
       <use x="95.410156" xlink:href="#DejaVuSans-30"/>
      </g>
     </g>
    </g>
    <g id="ytick_2">
     <g id="line2d_8">
      <g>
       <use style="stroke:#000000;stroke-width:0.8;" x="43.78125" xlink:href="#mf252a279a5" y="197.203831"/>
      </g>
     </g>
     <g id="text_9">
      <!-- 0.2 -->
      <g transform="translate(20.878125 201.003049)scale(0.1 -0.1)">
       <use xlink:href="#DejaVuSans-30"/>
       <use x="63.623047" xlink:href="#DejaVuSans-2e"/>
       <use x="95.410156" xlink:href="#DejaVuSans-32"/>
      </g>
     </g>
    </g>
    <g id="ytick_3">
     <g id="line2d_9">
      <g>
       <use style="stroke:#000000;stroke-width:0.8;" x="43.78125" xlink:href="#mf252a279a5" y="169.767661"/>
      </g>
     </g>
     <g id="text_10">
      <!-- 0.4 -->
      <g transform="translate(20.878125 173.56688)scale(0.1 -0.1)">
       <defs>
        <path d="M 2419 4116 
L 825 1625 
L 2419 1625 
L 2419 4116 
z
M 2253 4666 
L 3047 4666 
L 3047 1625 
L 3713 1625 
L 3713 1100 
L 3047 1100 
L 3047 0 
L 2419 0 
L 2419 1100 
L 313 1100 
L 313 1709 
L 2253 4666 
z
" id="DejaVuSans-34" transform="scale(0.015625)"/>
       </defs>
       <use xlink:href="#DejaVuSans-30"/>
       <use x="63.623047" xlink:href="#DejaVuSans-2e"/>
       <use x="95.410156" xlink:href="#DejaVuSans-34"/>
      </g>
     </g>
    </g>
    <g id="ytick_4">
     <g id="line2d_10">
      <g>
       <use style="stroke:#000000;stroke-width:0.8;" x="43.78125" xlink:href="#mf252a279a5" y="142.331492"/>
      </g>
     </g>
     <g id="text_11">
      <!-- 0.6 -->
      <g transform="translate(20.878125 146.13071)scale(0.1 -0.1)">
       <defs>
        <path d="M 2113 2584 
Q 1688 2584 1439 2293 
Q 1191 2003 1191 1497 
Q 1191 994 1439 701 
Q 1688 409 2113 409 
Q 2538 409 2786 701 
Q 3034 994 3034 1497 
Q 3034 2003 2786 2293 
Q 2538 2584 2113 2584 
z
M 3366 4563 
L 3366 3988 
Q 3128 4100 2886 4159 
Q 2644 4219 2406 4219 
Q 1781 4219 1451 3797 
Q 1122 3375 1075 2522 
Q 1259 2794 1537 2939 
Q 1816 3084 2150 3084 
Q 2853 3084 3261 2657 
Q 3669 2231 3669 1497 
Q 3669 778 3244 343 
Q 2819 -91 2113 -91 
Q 1303 -91 875 529 
Q 447 1150 447 2328 
Q 447 3434 972 4092 
Q 1497 4750 2381 4750 
Q 2619 4750 2861 4703 
Q 3103 4656 3366 4563 
z
" id="DejaVuSans-36" transform="scale(0.015625)"/>
       </defs>
       <use xlink:href="#DejaVuSans-30"/>
       <use x="63.623047" xlink:href="#DejaVuSans-2e"/>
       <use x="95.410156" xlink:href="#DejaVuSans-36"/>
      </g>
     </g>
    </g>
    <g id="ytick_5">
     <g id="line2d_11">
      <g>
       <use style="stroke:#000000;stroke-width:0.8;" x="43.78125" xlink:href="#mf252a279a5" y="114.895322"/>
      </g>
     </g>
     <g id="text_12">
      <!-- 0.8 -->
      <g transform="translate(20.878125 118.694541)scale(0.1 -0.1)">
       <defs>
        <path d="M 2034 2216 
Q 1584 2216 1326 1975 
Q 1069 1734 1069 1313 
Q 1069 891 1326 650 
Q 1584 409 2034 409 
Q 2484 409 2743 651 
Q 3003 894 3003 1313 
Q 3003 1734 2745 1975 
Q 2488 2216 2034 2216 
z
M 1403 2484 
Q 997 2584 770 2862 
Q 544 3141 544 3541 
Q 544 4100 942 4425 
Q 1341 4750 2034 4750 
Q 2731 4750 3128 4425 
Q 3525 4100 3525 3541 
Q 3525 3141 3298 2862 
Q 3072 2584 2669 2484 
Q 3125 2378 3379 2068 
Q 3634 1759 3634 1313 
Q 3634 634 3220 271 
Q 2806 -91 2034 -91 
Q 1263 -91 848 271 
Q 434 634 434 1313 
Q 434 1759 690 2068 
Q 947 2378 1403 2484 
z
M 1172 3481 
Q 1172 3119 1398 2916 
Q 1625 2713 2034 2713 
Q 2441 2713 2670 2916 
Q 2900 3119 2900 3481 
Q 2900 3844 2670 4047 
Q 2441 4250 2034 4250 
Q 1625 4250 1398 4047 
Q 1172 3844 1172 3481 
z
" id="DejaVuSans-38" transform="scale(0.015625)"/>
       </defs>
       <use xlink:href="#DejaVuSans-30"/>
       <use x="63.623047" xlink:href="#DejaVuSans-2e"/>
       <use x="95.410156" xlink:href="#DejaVuSans-38"/>
      </g>
     </g>
    </g>
    <g id="ytick_6">
     <g id="line2d_12">
      <g>
       <use style="stroke:#000000;stroke-width:0.8;" x="43.78125" xlink:href="#mf252a279a5" y="87.459153"/>
      </g>
     </g>
     <g id="text_13">
      <!-- 1.0 -->
      <g transform="translate(20.878125 91.258371)scale(0.1 -0.1)">
       <use xlink:href="#DejaVuSans-31"/>
       <use x="63.623047" xlink:href="#DejaVuSans-2e"/>
       <use x="95.410156" xlink:href="#DejaVuSans-30"/>
      </g>
     </g>
    </g>
    <g id="ytick_7">
     <g id="line2d_13">
      <g>
       <use style="stroke:#000000;stroke-width:0.8;" x="43.78125" xlink:href="#mf252a279a5" y="60.022983"/>
      </g>
     </g>
     <g id="text_14">
      <!-- 1.2 -->
      <g transform="translate(20.878125 63.822202)scale(0.1 -0.1)">
       <use xlink:href="#DejaVuSans-31"/>
       <use x="63.623047" xlink:href="#DejaVuSans-2e"/>
       <use x="95.410156" xlink:href="#DejaVuSans-32"/>
      </g>
     </g>
    </g>
    <g id="ytick_8">
     <g id="line2d_14">
      <g>
       <use style="stroke:#000000;stroke-width:0.8;" x="43.78125" xlink:href="#mf252a279a5" y="32.586814"/>
      </g>
     </g>
     <g id="text_15">
      <!-- 1.4 -->
      <g transform="translate(20.878125 36.386032)scale(0.1 -0.1)">
       <use xlink:href="#DejaVuSans-31"/>
       <use x="63.623047" xlink:href="#DejaVuSans-2e"/>
       <use x="95.410156" xlink:href="#DejaVuSans-34"/>
      </g>
     </g>
    </g>
    <g id="text_16">
     <!-- Density -->
     <g transform="translate(14.798438 134.928594)rotate(-90)scale(0.1 -0.1)">
      <defs>
       <path d="M 1259 4147 
L 1259 519 
L 2022 519 
Q 2988 519 3436 956 
Q 3884 1394 3884 2338 
Q 3884 3275 3436 3711 
Q 2988 4147 2022 4147 
L 1259 4147 
z
M 628 4666 
L 1925 4666 
Q 3281 4666 3915 4102 
Q 4550 3538 4550 2338 
Q 4550 1131 3912 565 
Q 3275 0 1925 0 
L 628 0 
L 628 4666 
z
" id="DejaVuSans-44" transform="scale(0.015625)"/>
       <path d="M 3597 1894 
L 3597 1613 
L 953 1613 
Q 991 1019 1311 708 
Q 1631 397 2203 397 
Q 2534 397 2845 478 
Q 3156 559 3463 722 
L 3463 178 
Q 3153 47 2828 -22 
Q 2503 -91 2169 -91 
Q 1331 -91 842 396 
Q 353 884 353 1716 
Q 353 2575 817 3079 
Q 1281 3584 2069 3584 
Q 2775 3584 3186 3129 
Q 3597 2675 3597 1894 
z
M 3022 2063 
Q 3016 2534 2758 2815 
Q 2500 3097 2075 3097 
Q 1594 3097 1305 2825 
Q 1016 2553 972 2059 
L 3022 2063 
z
" id="DejaVuSans-65" transform="scale(0.015625)"/>
       <path d="M 3513 2113 
L 3513 0 
L 2938 0 
L 2938 2094 
Q 2938 2591 2744 2837 
Q 2550 3084 2163 3084 
Q 1697 3084 1428 2787 
Q 1159 2491 1159 1978 
L 1159 0 
L 581 0 
L 581 3500 
L 1159 3500 
L 1159 2956 
Q 1366 3272 1645 3428 
Q 1925 3584 2291 3584 
Q 2894 3584 3203 3211 
Q 3513 2838 3513 2113 
z
" id="DejaVuSans-6e" transform="scale(0.015625)"/>
       <path d="M 2834 3397 
L 2834 2853 
Q 2591 2978 2328 3040 
Q 2066 3103 1784 3103 
Q 1356 3103 1142 2972 
Q 928 2841 928 2578 
Q 928 2378 1081 2264 
Q 1234 2150 1697 2047 
L 1894 2003 
Q 2506 1872 2764 1633 
Q 3022 1394 3022 966 
Q 3022 478 2636 193 
Q 2250 -91 1575 -91 
Q 1294 -91 989 -36 
Q 684 19 347 128 
L 347 722 
Q 666 556 975 473 
Q 1284 391 1588 391 
Q 1994 391 2212 530 
Q 2431 669 2431 922 
Q 2431 1156 2273 1281 
Q 2116 1406 1581 1522 
L 1381 1569 
Q 847 1681 609 1914 
Q 372 2147 372 2553 
Q 372 3047 722 3315 
Q 1072 3584 1716 3584 
Q 2034 3584 2315 3537 
Q 2597 3491 2834 3397 
z
" id="DejaVuSans-73" transform="scale(0.015625)"/>
       <path d="M 603 3500 
L 1178 3500 
L 1178 0 
L 603 0 
L 603 3500 
z
M 603 4863 
L 1178 4863 
L 1178 4134 
L 603 4134 
L 603 4863 
z
" id="DejaVuSans-69" transform="scale(0.015625)"/>
       <path d="M 2059 -325 
Q 1816 -950 1584 -1140 
Q 1353 -1331 966 -1331 
L 506 -1331 
L 506 -850 
L 844 -850 
Q 1081 -850 1212 -737 
Q 1344 -625 1503 -206 
L 1606 56 
L 191 3500 
L 800 3500 
L 1894 763 
L 2988 3500 
L 3597 3500 
L 2059 -325 
z
" id="DejaVuSans-79" transform="scale(0.015625)"/>
      </defs>
      <use xlink:href="#DejaVuSans-44"/>
      <use x="77.001953" xlink:href="#DejaVuSans-65"/>
      <use x="138.525391" xlink:href="#DejaVuSans-6e"/>
      <use x="201.904297" xlink:href="#DejaVuSans-73"/>
      <use x="254.003906" xlink:href="#DejaVuSans-69"/>
      <use x="281.787109" xlink:href="#DejaVuSans-74"/>
      <use x="320.996094" xlink:href="#DejaVuSans-79"/>
     </g>
    </g>
   </g>
   <g id="line2d_15">
    <path clip-path="url(#p3b8d6a54c7)" d="M 61.574022 224.633084 
L 66.648459 224.545433 
L 69.185678 224.360589 
L 71.722896 223.924567 
L 72.991505 223.553015 
L 74.260115 223.042739 
L 75.528724 222.367733 
L 76.797333 221.506986 
L 78.065942 220.447846 
L 79.334552 219.188562 
L 80.603161 217.739272 
L 83.14038 214.36247 
L 85.677598 210.551774 
L 90.752035 202.40432 
L 94.557863 196.292544 
L 97.095082 192.661204 
L 98.363691 191.149206 
L 99.6323 189.924514 
L 100.900909 189.040333 
L 102.169519 188.53286 
L 103.438128 188.416861 
L 104.706737 188.68447 
L 105.975347 189.307055 
L 107.243956 190.239404 
L 108.512565 191.425215 
L 111.049784 194.311068 
L 117.39283 202.153642 
L 119.930049 204.972803 
L 122.467267 207.538514 
L 125.004486 209.82321 
L 127.541704 211.769119 
L 130.078923 213.352677 
L 132.616141 214.633418 
L 136.421969 216.224847 
L 141.496406 218.082994 
L 145.302234 219.272373 
L 147.839453 219.896824 
L 150.376671 220.357879 
L 154.182499 220.801163 
L 165.599982 221.91075 
L 170.674419 222.323664 
L 175.748857 222.45922 
L 180.823294 222.611963 
L 185.897731 223.002589 
L 197.315214 224.056084 
L 202.389651 224.245026 
L 226.493227 224.53395 
L 275.968989 224.638329 
L 314.027267 224.638918 
L 314.027267 224.638918 
" style="fill:none;stroke:#1f77b4;stroke-linecap:square;stroke-width:1.5;"/>
   </g>
   <g id="line2d_16">
    <path clip-path="url(#p3b8d6a54c7)" d="M 58.999432 224.463543 
L 60.528897 224.278928 
L 62.058363 223.936688 
L 63.587828 223.335503 
L 65.117294 222.335167 
L 66.646759 220.759213 
L 68.176225 218.409964 
L 69.70569 215.099184 
L 71.235156 210.693401 
L 72.764621 205.166866 
L 74.294087 198.649123 
L 78.882483 177.061666 
L 80.411949 171.108164 
L 81.941414 166.758656 
L 83.47088 164.411059 
L 85.000345 164.231631 
L 86.529811 166.136459 
L 88.059276 169.821046 
L 89.588742 174.827179 
L 95.706604 198.11134 
L 97.23607 202.918015 
L 98.765535 206.985743 
L 100.295001 210.321357 
L 101.824466 212.988459 
L 103.353932 215.080525 
L 104.883397 216.700279 
L 106.412863 217.946001 
L 107.942328 218.903728 
L 109.471794 219.643834 
L 111.001259 220.220569 
L 114.06019 221.030549 
L 117.119121 221.52651 
L 120.178052 221.804389 
L 124.766449 221.944319 
L 133.943242 221.983563 
L 138.531638 222.297248 
L 147.708431 223.114792 
L 153.826293 223.30796 
L 161.473621 223.272923 
L 170.650414 223.191161 
L 176.768276 223.418629 
L 185.945069 223.764472 
L 199.710259 224.037258 
L 210.416517 224.395439 
L 216.534379 224.404224 
L 230.299569 224.294602 
L 242.535293 224.425846 
L 256.300483 224.518107 
L 270.065672 224.561475 
L 283.830862 224.607793 
L 306.772844 224.639999 
L 363.363068 224.639025 
L 363.363068 224.639025 
" style="fill:none;stroke:#ff7f0e;stroke-linecap:square;stroke-width:1.5;"/>
   </g>
   <g id="line2d_17">
    <path clip-path="url(#p3b8d6a54c7)" d="M 64.778954 224.037708 
L 65.869548 223.460631 
L 66.960142 222.44721 
L 68.050735 220.768097 
L 69.141329 218.145809 
L 70.231923 214.290652 
L 71.322517 208.964217 
L 72.413111 202.063878 
L 73.503705 193.709071 
L 76.775486 165.25008 
L 77.86608 157.442956 
L 78.956674 151.919961 
L 80.047268 149.213091 
L 81.137861 149.460515 
L 82.228455 152.399738 
L 83.319049 157.45347 
L 85.500237 170.906047 
L 87.681424 184.395851 
L 88.772018 190.123521 
L 89.862612 194.981305 
L 90.953206 198.98477 
L 92.0438 202.218986 
L 93.134393 204.800357 
L 94.224987 206.851382 
L 95.315581 208.486234 
L 96.406175 209.803585 
L 97.496769 210.883721 
L 99.677956 212.561407 
L 101.859144 213.821471 
L 104.040332 214.789495 
L 106.221519 215.522985 
L 109.493301 216.343589 
L 113.855676 217.444275 
L 118.218051 218.871798 
L 122.580426 220.255493 
L 124.761614 220.749229 
L 128.033396 221.188969 
L 134.576959 221.876192 
L 142.211115 223.064375 
L 145.482897 223.251566 
L 152.02646 223.25958 
L 156.388835 223.289338 
L 159.660616 223.539165 
L 165.113585 224.080675 
L 168.385367 224.145312 
L 176.019524 224.202198 
L 207.646744 224.639903 
L 222.915058 224.535709 
L 229.458621 224.550279 
L 241.455153 224.639513 
L 264.357623 224.54189 
L 270.901186 224.543499 
L 281.807124 224.638629 
L 281.807124 224.638629 
" style="fill:none;stroke:#2ca02c;stroke-linecap:square;stroke-width:1.5;"/>
   </g>
   <g id="patch_150">
    <path d="M 43.78125 224.64 
L 43.78125 7.2 
" style="fill:none;stroke:#000000;stroke-linecap:square;stroke-linejoin:miter;stroke-width:0.8;"/>
   </g>
   <g id="patch_151">
    <path d="M 378.58125 224.64 
L 378.58125 7.2 
" style="fill:none;stroke:#000000;stroke-linecap:square;stroke-linejoin:miter;stroke-width:0.8;"/>
   </g>
   <g id="patch_152">
    <path d="M 43.78125 224.64 
L 378.58125 224.64 
" style="fill:none;stroke:#000000;stroke-linecap:square;stroke-linejoin:miter;stroke-width:0.8;"/>
   </g>
   <g id="patch_153">
    <path d="M 43.78125 7.2 
L 378.58125 7.2 
" style="fill:none;stroke:#000000;stroke-linecap:square;stroke-linejoin:miter;stroke-width:0.8;"/>
   </g>
  </g>
 </g>
 <defs>
  <clipPath id="p3b8d6a54c7">
   <rect height="217.44" width="334.8" x="43.78125" y="7.2"/>
  </clipPath>
 </defs>
</svg>
