<?xml version="1.0" encoding="utf-8" standalone="no"?>
<!DOCTYPE svg PUBLIC "-//W3C//DTD SVG 1.1//EN"
  "http://www.w3.org/Graphics/SVG/1.1/DTD/svg11.dtd">
<svg height="262.19625pt" version="1.1" viewBox="0 0 385.78125 262.19625" width="385.78125pt" xmlns="http://www.w3.org/2000/svg" xmlns:xlink="http://www.w3.org/1999/xlink">
 <metadata>
  <rdf:RDF xmlns:cc="http://creativecommons.org/ns#" xmlns:dc="http://purl.org/dc/elements/1.1/" xmlns:rdf="http://www.w3.org/1999/02/22-rdf-syntax-ns#">
   <cc:Work>
    <dc:type rdf:resource="http://purl.org/dc/dcmitype/StillImage"/>
    <dc:date>2021-06-14T12:01:42.354232</dc:date>
    <dc:format>image/svg+xml</dc:format>
    <dc:creator>
     <cc:Agent>
      <dc:title>Matplotlib v3.4.2, https://matplotlib.org/</dc:title>
     </cc:Agent>
    </dc:creator>
   </cc:Work>
  </rdf:RDF>
 </metadata>
 <defs>
  <style type="text/css">*{stroke-linecap:butt;stroke-linejoin:round;}</style>
 </defs>
 <g id="figure_1">
  <g id="patch_1">
   <path d="M 0 262.19625 
L 385.78125 262.19625 
L 385.78125 0 
L 0 0 
z
" style="fill:none;"/>
  </g>
  <g id="axes_1">
   <g id="patch_2">
    <path d="M 43.78125 224.64 
L 378.58125 224.64 
L 378.58125 7.2 
L 43.78125 7.2 
z
" style="fill:#ffffff;"/>
   </g>
   <g id="patch_3">
    <path clip-path="url(#p119e8cd0ac)" d="M 78.325332 224.64 
L 83.422701 224.64 
L 83.422701 219.075129 
L 78.325332 219.075129 
z
" style="fill:#1f77b4;opacity:0.4;"/>
   </g>
   <g id="patch_4">
    <path clip-path="url(#p119e8cd0ac)" d="M 83.422701 224.64 
L 88.520069 224.64 
L 88.520069 214.522054 
L 83.422701 214.522054 
z
" style="fill:#1f77b4;opacity:0.4;"/>
   </g>
   <g id="patch_5">
    <path clip-path="url(#p119e8cd0ac)" d="M 88.520069 224.64 
L 93.617437 224.64 
L 93.617437 205.162953 
L 88.520069 205.162953 
z
" style="fill:#1f77b4;opacity:0.4;"/>
   </g>
   <g id="patch_6">
    <path clip-path="url(#p119e8cd0ac)" d="M 93.617437 224.64 
L 98.714806 224.64 
L 98.714806 206.427697 
L 93.617437 206.427697 
z
" style="fill:#1f77b4;opacity:0.4;"/>
   </g>
   <g id="patch_7">
    <path clip-path="url(#p119e8cd0ac)" d="M 98.714806 224.64 
L 103.812174 224.64 
L 103.812174 205.668851 
L 98.714806 205.668851 
z
" style="fill:#1f77b4;opacity:0.4;"/>
   </g>
   <g id="patch_8">
    <path clip-path="url(#p119e8cd0ac)" d="M 103.812174 224.64 
L 108.909542 224.64 
L 108.909542 193.274366 
L 103.812174 193.274366 
z
" style="fill:#1f77b4;opacity:0.4;"/>
   </g>
   <g id="patch_9">
    <path clip-path="url(#p119e8cd0ac)" d="M 108.909542 224.64 
L 114.006911 224.64 
L 114.006911 197.068596 
L 108.909542 197.068596 
z
" style="fill:#1f77b4;opacity:0.4;"/>
   </g>
   <g id="patch_10">
    <path clip-path="url(#p119e8cd0ac)" d="M 114.006911 224.64 
L 119.104279 224.64 
L 119.104279 197.827442 
L 114.006911 197.827442 
z
" style="fill:#1f77b4;opacity:0.4;"/>
   </g>
   <g id="patch_11">
    <path clip-path="url(#p119e8cd0ac)" d="M 119.104279 224.64 
L 124.201648 224.64 
L 124.201648 205.415902 
L 119.104279 205.415902 
z
" style="fill:#1f77b4;opacity:0.4;"/>
   </g>
   <g id="patch_12">
    <path clip-path="url(#p119e8cd0ac)" d="M 124.201648 224.64 
L 129.299016 224.64 
L 129.299016 206.174748 
L 124.201648 206.174748 
z
" style="fill:#1f77b4;opacity:0.4;"/>
   </g>
   <g id="patch_13">
    <path clip-path="url(#p119e8cd0ac)" d="M 129.299016 224.64 
L 134.396384 224.64 
L 134.396384 208.451286 
L 129.299016 208.451286 
z
" style="fill:#1f77b4;opacity:0.4;"/>
   </g>
   <g id="patch_14">
    <path clip-path="url(#p119e8cd0ac)" d="M 134.396384 224.64 
L 139.493753 224.64 
L 139.493753 210.727824 
L 134.396384 210.727824 
z
" style="fill:#1f77b4;opacity:0.4;"/>
   </g>
   <g id="patch_15">
    <path clip-path="url(#p119e8cd0ac)" d="M 139.493753 224.64 
L 144.591121 224.64 
L 144.591121 217.557438 
L 139.493753 217.557438 
z
" style="fill:#1f77b4;opacity:0.4;"/>
   </g>
   <g id="patch_16">
    <path clip-path="url(#p119e8cd0ac)" d="M 144.591121 224.64 
L 149.688489 224.64 
L 149.688489 219.581027 
L 144.591121 219.581027 
z
" style="fill:#1f77b4;opacity:0.4;"/>
   </g>
   <g id="patch_17">
    <path clip-path="url(#p119e8cd0ac)" d="M 149.688489 224.64 
L 154.785858 224.64 
L 154.785858 220.086924 
L 149.688489 220.086924 
z
" style="fill:#1f77b4;opacity:0.4;"/>
   </g>
   <g id="patch_18">
    <path clip-path="url(#p119e8cd0ac)" d="M 154.785858 224.64 
L 159.883226 224.64 
L 159.883226 221.604616 
L 154.785858 221.604616 
z
" style="fill:#1f77b4;opacity:0.4;"/>
   </g>
   <g id="patch_19">
    <path clip-path="url(#p119e8cd0ac)" d="M 159.883226 224.64 
L 164.980594 224.64 
L 164.980594 222.363462 
L 159.883226 222.363462 
z
" style="fill:#1f77b4;opacity:0.4;"/>
   </g>
   <g id="patch_20">
    <path clip-path="url(#p119e8cd0ac)" d="M 164.980594 224.64 
L 170.077963 224.64 
L 170.077963 223.122308 
L 164.980594 223.122308 
z
" style="fill:#1f77b4;opacity:0.4;"/>
   </g>
   <g id="patch_21">
    <path clip-path="url(#p119e8cd0ac)" d="M 170.077963 224.64 
L 175.175331 224.64 
L 175.175331 223.628205 
L 170.077963 223.628205 
z
" style="fill:#1f77b4;opacity:0.4;"/>
   </g>
   <g id="patch_22">
    <path clip-path="url(#p119e8cd0ac)" d="M 175.175331 224.64 
L 180.272699 224.64 
L 180.272699 224.134103 
L 175.175331 224.134103 
z
" style="fill:#1f77b4;opacity:0.4;"/>
   </g>
   <g id="patch_23">
    <path clip-path="url(#p119e8cd0ac)" d="M 180.272699 224.64 
L 185.370068 224.64 
L 185.370068 224.387051 
L 180.272699 224.387051 
z
" style="fill:#1f77b4;opacity:0.4;"/>
   </g>
   <g id="patch_24">
    <path clip-path="url(#p119e8cd0ac)" d="M 185.370068 224.64 
L 190.467436 224.64 
L 190.467436 224.134103 
L 185.370068 224.134103 
z
" style="fill:#1f77b4;opacity:0.4;"/>
   </g>
   <g id="patch_25">
    <path clip-path="url(#p119e8cd0ac)" d="M 190.467436 224.64 
L 195.564804 224.64 
L 195.564804 224.64 
L 190.467436 224.64 
z
" style="fill:#1f77b4;opacity:0.4;"/>
   </g>
   <g id="patch_26">
    <path clip-path="url(#p119e8cd0ac)" d="M 195.564804 224.64 
L 200.662173 224.64 
L 200.662173 224.387051 
L 195.564804 224.387051 
z
" style="fill:#1f77b4;opacity:0.4;"/>
   </g>
   <g id="patch_27">
    <path clip-path="url(#p119e8cd0ac)" d="M 200.662173 224.64 
L 205.759541 224.64 
L 205.759541 224.387051 
L 200.662173 224.387051 
z
" style="fill:#1f77b4;opacity:0.4;"/>
   </g>
   <g id="patch_28">
    <path clip-path="url(#p119e8cd0ac)" d="M 205.759541 224.64 
L 210.85691 224.64 
L 210.85691 224.387051 
L 205.759541 224.387051 
z
" style="fill:#1f77b4;opacity:0.4;"/>
   </g>
   <g id="patch_29">
    <path clip-path="url(#p119e8cd0ac)" d="M 210.85691 224.64 
L 215.954278 224.64 
L 215.954278 224.387051 
L 210.85691 224.387051 
z
" style="fill:#1f77b4;opacity:0.4;"/>
   </g>
   <g id="patch_30">
    <path clip-path="url(#p119e8cd0ac)" d="M 215.954278 224.64 
L 221.051646 224.64 
L 221.051646 224.64 
L 215.954278 224.64 
z
" style="fill:#1f77b4;opacity:0.4;"/>
   </g>
   <g id="patch_31">
    <path clip-path="url(#p119e8cd0ac)" d="M 221.051646 224.64 
L 226.149015 224.64 
L 226.149015 224.387051 
L 221.051646 224.387051 
z
" style="fill:#1f77b4;opacity:0.4;"/>
   </g>
   <g id="patch_32">
    <path clip-path="url(#p119e8cd0ac)" d="M 77.614292 224.64 
L 82.95697 224.64 
L 82.95697 136.31158 
L 77.614292 136.31158 
z
" style="fill:#ff7f0e;opacity:0.4;"/>
   </g>
   <g id="patch_33">
    <path clip-path="url(#p119e8cd0ac)" d="M 82.95697 224.64 
L 88.299649 224.64 
L 88.299649 180.958459 
L 82.95697 180.958459 
z
" style="fill:#ff7f0e;opacity:0.4;"/>
   </g>
   <g id="patch_34">
    <path clip-path="url(#p119e8cd0ac)" d="M 88.299649 224.64 
L 93.642327 224.64 
L 93.642327 196.162531 
L 88.299649 196.162531 
z
" style="fill:#ff7f0e;opacity:0.4;"/>
   </g>
   <g id="patch_35">
    <path clip-path="url(#p119e8cd0ac)" d="M 93.642327 224.64 
L 98.985005 224.64 
L 98.985005 200.023883 
L 93.642327 200.023883 
z
" style="fill:#ff7f0e;opacity:0.4;"/>
   </g>
   <g id="patch_36">
    <path clip-path="url(#p119e8cd0ac)" d="M 98.985005 224.64 
L 104.327684 224.64 
L 104.327684 211.849273 
L 98.985005 211.849273 
z
" style="fill:#ff7f0e;opacity:0.4;"/>
   </g>
   <g id="patch_37">
    <path clip-path="url(#p119e8cd0ac)" d="M 104.327684 224.64 
L 109.670362 224.64 
L 109.670362 214.503952 
L 104.327684 214.503952 
z
" style="fill:#ff7f0e;opacity:0.4;"/>
   </g>
   <g id="patch_38">
    <path clip-path="url(#p119e8cd0ac)" d="M 109.670362 224.64 
L 115.01304 224.64 
L 115.01304 216.434628 
L 109.670362 216.434628 
z
" style="fill:#ff7f0e;opacity:0.4;"/>
   </g>
   <g id="patch_39">
    <path clip-path="url(#p119e8cd0ac)" d="M 115.01304 224.64 
L 120.355719 224.64 
L 120.355719 217.882635 
L 115.01304 217.882635 
z
" style="fill:#ff7f0e;opacity:0.4;"/>
   </g>
   <g id="patch_40">
    <path clip-path="url(#p119e8cd0ac)" d="M 120.355719 224.64 
L 125.698397 224.64 
L 125.698397 220.537314 
L 120.355719 220.537314 
z
" style="fill:#ff7f0e;opacity:0.4;"/>
   </g>
   <g id="patch_41">
    <path clip-path="url(#p119e8cd0ac)" d="M 125.698397 224.64 
L 131.041075 224.64 
L 131.041075 222.226655 
L 125.698397 222.226655 
z
" style="fill:#ff7f0e;opacity:0.4;"/>
   </g>
   <g id="patch_42">
    <path clip-path="url(#p119e8cd0ac)" d="M 131.041075 224.64 
L 136.383754 224.64 
L 136.383754 224.157331 
L 131.041075 224.157331 
z
" style="fill:#ff7f0e;opacity:0.4;"/>
   </g>
   <g id="patch_43">
    <path clip-path="url(#p119e8cd0ac)" d="M 136.383754 224.64 
L 141.726432 224.64 
L 141.726432 222.709324 
L 136.383754 222.709324 
z
" style="fill:#ff7f0e;opacity:0.4;"/>
   </g>
   <g id="patch_44">
    <path clip-path="url(#p119e8cd0ac)" d="M 141.726432 224.64 
L 147.06911 224.64 
L 147.06911 223.915997 
L 141.726432 223.915997 
z
" style="fill:#ff7f0e;opacity:0.4;"/>
   </g>
   <g id="patch_45">
    <path clip-path="url(#p119e8cd0ac)" d="M 147.06911 224.64 
L 152.411789 224.64 
L 152.411789 222.950659 
L 147.06911 222.950659 
z
" style="fill:#ff7f0e;opacity:0.4;"/>
   </g>
   <g id="patch_46">
    <path clip-path="url(#p119e8cd0ac)" d="M 152.411789 224.64 
L 157.754467 224.64 
L 157.754467 224.398666 
L 152.411789 224.398666 
z
" style="fill:#ff7f0e;opacity:0.4;"/>
   </g>
   <g id="patch_47">
    <path clip-path="url(#p119e8cd0ac)" d="M 157.754467 224.64 
L 163.097145 224.64 
L 163.097145 223.915997 
L 157.754467 223.915997 
z
" style="fill:#ff7f0e;opacity:0.4;"/>
   </g>
   <g id="patch_48">
    <path clip-path="url(#p119e8cd0ac)" d="M 163.097145 224.64 
L 168.439823 224.64 
L 168.439823 224.398666 
L 163.097145 224.398666 
z
" style="fill:#ff7f0e;opacity:0.4;"/>
   </g>
   <g id="patch_49">
    <path clip-path="url(#p119e8cd0ac)" d="M 168.439823 224.64 
L 173.782502 224.64 
L 173.782502 223.915997 
L 168.439823 223.915997 
z
" style="fill:#ff7f0e;opacity:0.4;"/>
   </g>
   <g id="patch_50">
    <path clip-path="url(#p119e8cd0ac)" d="M 173.782502 224.64 
L 179.12518 224.64 
L 179.12518 223.915997 
L 173.782502 223.915997 
z
" style="fill:#ff7f0e;opacity:0.4;"/>
   </g>
   <g id="patch_51">
    <path clip-path="url(#p119e8cd0ac)" d="M 179.12518 224.64 
L 184.467858 224.64 
L 184.467858 223.191993 
L 179.12518 223.191993 
z
" style="fill:#ff7f0e;opacity:0.4;"/>
   </g>
   <g id="patch_52">
    <path clip-path="url(#p119e8cd0ac)" d="M 184.467858 224.64 
L 189.810537 224.64 
L 189.810537 224.64 
L 184.467858 224.64 
z
" style="fill:#ff7f0e;opacity:0.4;"/>
   </g>
   <g id="patch_53">
    <path clip-path="url(#p119e8cd0ac)" d="M 189.810537 224.64 
L 195.153215 224.64 
L 195.153215 224.398666 
L 189.810537 224.398666 
z
" style="fill:#ff7f0e;opacity:0.4;"/>
   </g>
   <g id="patch_54">
    <path clip-path="url(#p119e8cd0ac)" d="M 195.153215 224.64 
L 200.495893 224.64 
L 200.495893 224.64 
L 195.153215 224.64 
z
" style="fill:#ff7f0e;opacity:0.4;"/>
   </g>
   <g id="patch_55">
    <path clip-path="url(#p119e8cd0ac)" d="M 200.495893 224.64 
L 205.838572 224.64 
L 205.838572 224.157331 
L 200.495893 224.157331 
z
" style="fill:#ff7f0e;opacity:0.4;"/>
   </g>
   <g id="patch_56">
    <path clip-path="url(#p119e8cd0ac)" d="M 205.838572 224.64 
L 211.18125 224.64 
L 211.18125 224.398666 
L 205.838572 224.398666 
z
" style="fill:#ff7f0e;opacity:0.4;"/>
   </g>
   <g id="patch_57">
    <path clip-path="url(#p119e8cd0ac)" d="M 211.18125 224.64 
L 216.523928 224.64 
L 216.523928 224.398666 
L 211.18125 224.398666 
z
" style="fill:#ff7f0e;opacity:0.4;"/>
   </g>
   <g id="patch_58">
    <path clip-path="url(#p119e8cd0ac)" d="M 216.523928 224.64 
L 221.866607 224.64 
L 221.866607 224.64 
L 216.523928 224.64 
z
" style="fill:#ff7f0e;opacity:0.4;"/>
   </g>
   <g id="patch_59">
    <path clip-path="url(#p119e8cd0ac)" d="M 221.866607 224.64 
L 227.209285 224.64 
L 227.209285 224.398666 
L 221.866607 224.398666 
z
" style="fill:#ff7f0e;opacity:0.4;"/>
   </g>
   <g id="patch_60">
    <path clip-path="url(#p119e8cd0ac)" d="M 227.209285 224.64 
L 232.551963 224.64 
L 232.551963 224.64 
L 227.209285 224.64 
z
" style="fill:#ff7f0e;opacity:0.4;"/>
   </g>
   <g id="patch_61">
    <path clip-path="url(#p119e8cd0ac)" d="M 232.551963 224.64 
L 237.894642 224.64 
L 237.894642 224.64 
L 232.551963 224.64 
z
" style="fill:#ff7f0e;opacity:0.4;"/>
   </g>
   <g id="patch_62">
    <path clip-path="url(#p119e8cd0ac)" d="M 237.894642 224.64 
L 243.23732 224.64 
L 243.23732 224.64 
L 237.894642 224.64 
z
" style="fill:#ff7f0e;opacity:0.4;"/>
   </g>
   <g id="patch_63">
    <path clip-path="url(#p119e8cd0ac)" d="M 243.23732 224.64 
L 248.579998 224.64 
L 248.579998 224.398666 
L 243.23732 224.398666 
z
" style="fill:#ff7f0e;opacity:0.4;"/>
   </g>
   <g id="patch_64">
    <path clip-path="url(#p119e8cd0ac)" d="M 248.579998 224.64 
L 253.922677 224.64 
L 253.922677 224.398666 
L 248.579998 224.398666 
z
" style="fill:#ff7f0e;opacity:0.4;"/>
   </g>
   <g id="patch_65">
    <path clip-path="url(#p119e8cd0ac)" d="M 253.922677 224.64 
L 259.265355 224.64 
L 259.265355 224.64 
L 253.922677 224.64 
z
" style="fill:#ff7f0e;opacity:0.4;"/>
   </g>
   <g id="patch_66">
    <path clip-path="url(#p119e8cd0ac)" d="M 259.265355 224.64 
L 264.608033 224.64 
L 264.608033 224.398666 
L 259.265355 224.398666 
z
" style="fill:#ff7f0e;opacity:0.4;"/>
   </g>
   <g id="patch_67">
    <path clip-path="url(#p119e8cd0ac)" d="M 264.608033 224.64 
L 269.950711 224.64 
L 269.950711 224.64 
L 264.608033 224.64 
z
" style="fill:#ff7f0e;opacity:0.4;"/>
   </g>
   <g id="patch_68">
    <path clip-path="url(#p119e8cd0ac)" d="M 269.950711 224.64 
L 275.29339 224.64 
L 275.29339 224.64 
L 269.950711 224.64 
z
" style="fill:#ff7f0e;opacity:0.4;"/>
   </g>
   <g id="patch_69">
    <path clip-path="url(#p119e8cd0ac)" d="M 275.29339 224.64 
L 280.636068 224.64 
L 280.636068 224.64 
L 275.29339 224.64 
z
" style="fill:#ff7f0e;opacity:0.4;"/>
   </g>
   <g id="patch_70">
    <path clip-path="url(#p119e8cd0ac)" d="M 280.636068 224.64 
L 285.978746 224.64 
L 285.978746 224.64 
L 280.636068 224.64 
z
" style="fill:#ff7f0e;opacity:0.4;"/>
   </g>
   <g id="patch_71">
    <path clip-path="url(#p119e8cd0ac)" d="M 285.978746 224.64 
L 291.321425 224.64 
L 291.321425 224.398666 
L 285.978746 224.398666 
z
" style="fill:#ff7f0e;opacity:0.4;"/>
   </g>
   <g id="patch_72">
    <path clip-path="url(#p119e8cd0ac)" d="M 291.321425 224.64 
L 296.664103 224.64 
L 296.664103 224.64 
L 291.321425 224.64 
z
" style="fill:#ff7f0e;opacity:0.4;"/>
   </g>
   <g id="patch_73">
    <path clip-path="url(#p119e8cd0ac)" d="M 296.664103 224.64 
L 302.006781 224.64 
L 302.006781 224.64 
L 296.664103 224.64 
z
" style="fill:#ff7f0e;opacity:0.4;"/>
   </g>
   <g id="patch_74">
    <path clip-path="url(#p119e8cd0ac)" d="M 302.006781 224.64 
L 307.34946 224.64 
L 307.34946 224.64 
L 302.006781 224.64 
z
" style="fill:#ff7f0e;opacity:0.4;"/>
   </g>
   <g id="patch_75">
    <path clip-path="url(#p119e8cd0ac)" d="M 307.34946 224.64 
L 312.692138 224.64 
L 312.692138 224.64 
L 307.34946 224.64 
z
" style="fill:#ff7f0e;opacity:0.4;"/>
   </g>
   <g id="patch_76">
    <path clip-path="url(#p119e8cd0ac)" d="M 312.692138 224.64 
L 318.034816 224.64 
L 318.034816 224.64 
L 312.692138 224.64 
z
" style="fill:#ff7f0e;opacity:0.4;"/>
   </g>
   <g id="patch_77">
    <path clip-path="url(#p119e8cd0ac)" d="M 318.034816 224.64 
L 323.377495 224.64 
L 323.377495 224.398666 
L 318.034816 224.398666 
z
" style="fill:#ff7f0e;opacity:0.4;"/>
   </g>
   <g id="patch_78">
    <path clip-path="url(#p119e8cd0ac)" d="M 323.377495 224.64 
L 328.720173 224.64 
L 328.720173 224.64 
L 323.377495 224.64 
z
" style="fill:#ff7f0e;opacity:0.4;"/>
   </g>
   <g id="patch_79">
    <path clip-path="url(#p119e8cd0ac)" d="M 328.720173 224.64 
L 334.062851 224.64 
L 334.062851 224.64 
L 328.720173 224.64 
z
" style="fill:#ff7f0e;opacity:0.4;"/>
   </g>
   <g id="patch_80">
    <path clip-path="url(#p119e8cd0ac)" d="M 334.062851 224.64 
L 339.40553 224.64 
L 339.40553 224.64 
L 334.062851 224.64 
z
" style="fill:#ff7f0e;opacity:0.4;"/>
   </g>
   <g id="patch_81">
    <path clip-path="url(#p119e8cd0ac)" d="M 339.40553 224.64 
L 344.748208 224.64 
L 344.748208 224.398666 
L 339.40553 224.398666 
z
" style="fill:#ff7f0e;opacity:0.4;"/>
   </g>
   <g id="patch_82">
    <path clip-path="url(#p119e8cd0ac)" d="M 77.608238 224.64 
L 80.403835 224.64 
L 80.403835 17.554286 
L 77.608238 17.554286 
z
" style="fill:#2ca02c;opacity:0.4;"/>
   </g>
   <g id="patch_83">
    <path clip-path="url(#p119e8cd0ac)" d="M 80.403835 224.64 
L 83.199433 224.64 
L 83.199433 187.281553 
L 80.403835 187.281553 
z
" style="fill:#2ca02c;opacity:0.4;"/>
   </g>
   <g id="patch_84">
    <path clip-path="url(#p119e8cd0ac)" d="M 83.199433 224.64 
L 85.99503 224.64 
L 85.99503 186.820337 
L 83.199433 186.820337 
z
" style="fill:#2ca02c;opacity:0.4;"/>
   </g>
   <g id="patch_85">
    <path clip-path="url(#p119e8cd0ac)" d="M 85.99503 224.64 
L 88.790627 224.64 
L 88.790627 191.893707 
L 85.99503 191.893707 
z
" style="fill:#2ca02c;opacity:0.4;"/>
   </g>
   <g id="patch_86">
    <path clip-path="url(#p119e8cd0ac)" d="M 88.790627 224.64 
L 91.586224 224.64 
L 91.586224 196.044645 
L 88.790627 196.044645 
z
" style="fill:#2ca02c;opacity:0.4;"/>
   </g>
   <g id="patch_87">
    <path clip-path="url(#p119e8cd0ac)" d="M 91.586224 224.64 
L 94.381822 224.64 
L 94.381822 197.889507 
L 91.586224 197.889507 
z
" style="fill:#2ca02c;opacity:0.4;"/>
   </g>
   <g id="patch_88">
    <path clip-path="url(#p119e8cd0ac)" d="M 94.381822 224.64 
L 97.177419 224.64 
L 97.177419 197.889507 
L 94.381822 197.889507 
z
" style="fill:#2ca02c;opacity:0.4;"/>
   </g>
   <g id="patch_89">
    <path clip-path="url(#p119e8cd0ac)" d="M 97.177419 224.64 
L 99.973016 224.64 
L 99.973016 203.885307 
L 97.177419 203.885307 
z
" style="fill:#2ca02c;opacity:0.4;"/>
   </g>
   <g id="patch_90">
    <path clip-path="url(#p119e8cd0ac)" d="M 99.973016 224.64 
L 102.768613 224.64 
L 102.768613 216.338123 
L 99.973016 216.338123 
z
" style="fill:#2ca02c;opacity:0.4;"/>
   </g>
   <g id="patch_91">
    <path clip-path="url(#p119e8cd0ac)" d="M 102.768613 224.64 
L 105.564211 224.64 
L 105.564211 217.260554 
L 102.768613 217.260554 
z
" style="fill:#2ca02c;opacity:0.4;"/>
   </g>
   <g id="patch_92">
    <path clip-path="url(#p119e8cd0ac)" d="M 105.564211 224.64 
L 108.359808 224.64 
L 108.359808 221.411492 
L 105.564211 221.411492 
z
" style="fill:#2ca02c;opacity:0.4;"/>
   </g>
   <g id="patch_93">
    <path clip-path="url(#p119e8cd0ac)" d="M 108.359808 224.64 
L 111.155405 224.64 
L 111.155405 220.950277 
L 108.359808 220.950277 
z
" style="fill:#2ca02c;opacity:0.4;"/>
   </g>
   <g id="patch_94">
    <path clip-path="url(#p119e8cd0ac)" d="M 111.155405 224.64 
L 113.951002 224.64 
L 113.951002 221.411492 
L 111.155405 221.411492 
z
" style="fill:#2ca02c;opacity:0.4;"/>
   </g>
   <g id="patch_95">
    <path clip-path="url(#p119e8cd0ac)" d="M 113.951002 224.64 
L 116.746599 224.64 
L 116.746599 222.795138 
L 113.951002 222.795138 
z
" style="fill:#2ca02c;opacity:0.4;"/>
   </g>
   <g id="patch_96">
    <path clip-path="url(#p119e8cd0ac)" d="M 116.746599 224.64 
L 119.542197 224.64 
L 119.542197 221.411492 
L 116.746599 221.411492 
z
" style="fill:#2ca02c;opacity:0.4;"/>
   </g>
   <g id="patch_97">
    <path clip-path="url(#p119e8cd0ac)" d="M 119.542197 224.64 
L 122.337794 224.64 
L 122.337794 224.64 
L 119.542197 224.64 
z
" style="fill:#2ca02c;opacity:0.4;"/>
   </g>
   <g id="patch_98">
    <path clip-path="url(#p119e8cd0ac)" d="M 122.337794 224.64 
L 125.133391 224.64 
L 125.133391 221.872708 
L 122.337794 221.872708 
z
" style="fill:#2ca02c;opacity:0.4;"/>
   </g>
   <g id="patch_99">
    <path clip-path="url(#p119e8cd0ac)" d="M 125.133391 224.64 
L 127.928988 224.64 
L 127.928988 223.256354 
L 125.133391 223.256354 
z
" style="fill:#2ca02c;opacity:0.4;"/>
   </g>
   <g id="patch_100">
    <path clip-path="url(#p119e8cd0ac)" d="M 127.928988 224.64 
L 130.724586 224.64 
L 130.724586 222.333923 
L 127.928988 222.333923 
z
" style="fill:#2ca02c;opacity:0.4;"/>
   </g>
   <g id="patch_101">
    <path clip-path="url(#p119e8cd0ac)" d="M 130.724586 224.64 
L 133.520183 224.64 
L 133.520183 223.717569 
L 130.724586 223.717569 
z
" style="fill:#2ca02c;opacity:0.4;"/>
   </g>
   <g id="patch_102">
    <path clip-path="url(#p119e8cd0ac)" d="M 133.520183 224.64 
L 136.31578 224.64 
L 136.31578 223.717569 
L 133.520183 223.717569 
z
" style="fill:#2ca02c;opacity:0.4;"/>
   </g>
   <g id="patch_103">
    <path clip-path="url(#p119e8cd0ac)" d="M 136.31578 224.64 
L 139.111377 224.64 
L 139.111377 223.717569 
L 136.31578 223.717569 
z
" style="fill:#2ca02c;opacity:0.4;"/>
   </g>
   <g id="patch_104">
    <path clip-path="url(#p119e8cd0ac)" d="M 139.111377 224.64 
L 141.906975 224.64 
L 141.906975 224.178785 
L 139.111377 224.178785 
z
" style="fill:#2ca02c;opacity:0.4;"/>
   </g>
   <g id="patch_105">
    <path clip-path="url(#p119e8cd0ac)" d="M 141.906975 224.64 
L 144.702572 224.64 
L 144.702572 224.64 
L 141.906975 224.64 
z
" style="fill:#2ca02c;opacity:0.4;"/>
   </g>
   <g id="patch_106">
    <path clip-path="url(#p119e8cd0ac)" d="M 144.702572 224.64 
L 147.498169 224.64 
L 147.498169 224.64 
L 144.702572 224.64 
z
" style="fill:#2ca02c;opacity:0.4;"/>
   </g>
   <g id="patch_107">
    <path clip-path="url(#p119e8cd0ac)" d="M 147.498169 224.64 
L 150.293766 224.64 
L 150.293766 224.64 
L 147.498169 224.64 
z
" style="fill:#2ca02c;opacity:0.4;"/>
   </g>
   <g id="patch_108">
    <path clip-path="url(#p119e8cd0ac)" d="M 150.293766 224.64 
L 153.089363 224.64 
L 153.089363 224.178785 
L 150.293766 224.178785 
z
" style="fill:#2ca02c;opacity:0.4;"/>
   </g>
   <g id="patch_109">
    <path clip-path="url(#p119e8cd0ac)" d="M 153.089363 224.64 
L 155.884961 224.64 
L 155.884961 224.64 
L 153.089363 224.64 
z
" style="fill:#2ca02c;opacity:0.4;"/>
   </g>
   <g id="patch_110">
    <path clip-path="url(#p119e8cd0ac)" d="M 155.884961 224.64 
L 158.680558 224.64 
L 158.680558 224.178785 
L 155.884961 224.178785 
z
" style="fill:#2ca02c;opacity:0.4;"/>
   </g>
   <g id="patch_111">
    <path clip-path="url(#p119e8cd0ac)" d="M 158.680558 224.64 
L 161.476155 224.64 
L 161.476155 224.178785 
L 158.680558 224.178785 
z
" style="fill:#2ca02c;opacity:0.4;"/>
   </g>
   <g id="patch_112">
    <path clip-path="url(#p119e8cd0ac)" d="M 161.476155 224.64 
L 164.271752 224.64 
L 164.271752 224.64 
L 161.476155 224.64 
z
" style="fill:#2ca02c;opacity:0.4;"/>
   </g>
   <g id="patch_113">
    <path clip-path="url(#p119e8cd0ac)" d="M 164.271752 224.64 
L 167.06735 224.64 
L 167.06735 224.64 
L 164.271752 224.64 
z
" style="fill:#2ca02c;opacity:0.4;"/>
   </g>
   <g id="patch_114">
    <path clip-path="url(#p119e8cd0ac)" d="M 167.06735 224.64 
L 169.862947 224.64 
L 169.862947 224.64 
L 167.06735 224.64 
z
" style="fill:#2ca02c;opacity:0.4;"/>
   </g>
   <g id="patch_115">
    <path clip-path="url(#p119e8cd0ac)" d="M 169.862947 224.64 
L 172.658544 224.64 
L 172.658544 224.178785 
L 169.862947 224.178785 
z
" style="fill:#2ca02c;opacity:0.4;"/>
   </g>
   <g id="patch_116">
    <path clip-path="url(#p119e8cd0ac)" d="M 172.658544 224.64 
L 175.454141 224.64 
L 175.454141 224.64 
L 172.658544 224.64 
z
" style="fill:#2ca02c;opacity:0.4;"/>
   </g>
   <g id="patch_117">
    <path clip-path="url(#p119e8cd0ac)" d="M 175.454141 224.64 
L 178.249738 224.64 
L 178.249738 224.64 
L 175.454141 224.64 
z
" style="fill:#2ca02c;opacity:0.4;"/>
   </g>
   <g id="patch_118">
    <path clip-path="url(#p119e8cd0ac)" d="M 178.249738 224.64 
L 181.045336 224.64 
L 181.045336 224.178785 
L 178.249738 224.178785 
z
" style="fill:#2ca02c;opacity:0.4;"/>
   </g>
   <g id="patch_119">
    <path clip-path="url(#p119e8cd0ac)" d="M 181.045336 224.64 
L 183.840933 224.64 
L 183.840933 224.64 
L 181.045336 224.64 
z
" style="fill:#2ca02c;opacity:0.4;"/>
   </g>
   <g id="patch_120">
    <path clip-path="url(#p119e8cd0ac)" d="M 183.840933 224.64 
L 186.63653 224.64 
L 186.63653 224.64 
L 183.840933 224.64 
z
" style="fill:#2ca02c;opacity:0.4;"/>
   </g>
   <g id="patch_121">
    <path clip-path="url(#p119e8cd0ac)" d="M 186.63653 224.64 
L 189.432127 224.64 
L 189.432127 224.64 
L 186.63653 224.64 
z
" style="fill:#2ca02c;opacity:0.4;"/>
   </g>
   <g id="patch_122">
    <path clip-path="url(#p119e8cd0ac)" d="M 189.432127 224.64 
L 192.227725 224.64 
L 192.227725 224.64 
L 189.432127 224.64 
z
" style="fill:#2ca02c;opacity:0.4;"/>
   </g>
   <g id="patch_123">
    <path clip-path="url(#p119e8cd0ac)" d="M 192.227725 224.64 
L 195.023322 224.64 
L 195.023322 224.64 
L 192.227725 224.64 
z
" style="fill:#2ca02c;opacity:0.4;"/>
   </g>
   <g id="patch_124">
    <path clip-path="url(#p119e8cd0ac)" d="M 195.023322 224.64 
L 197.818919 224.64 
L 197.818919 224.178785 
L 195.023322 224.178785 
z
" style="fill:#2ca02c;opacity:0.4;"/>
   </g>
   <g id="matplotlib.axis_1">
    <g id="xtick_1">
     <g id="line2d_1">
      <defs>
       <path d="M 0 0 
L 0 3.5 
" id="me95110d408" style="stroke:#000000;stroke-width:0.8;"/>
      </defs>
      <g>
       <use style="stroke:#000000;stroke-width:0.8;" x="77.608238" xlink:href="#me95110d408" y="224.64"/>
      </g>
     </g>
     <g id="text_1">
      <!-- 0 -->
      <g transform="translate(74.426988 239.238437)scale(0.1 -0.1)">
       <defs>
        <path d="M 2034 4250 
Q 1547 4250 1301 3770 
Q 1056 3291 1056 2328 
Q 1056 1369 1301 889 
Q 1547 409 2034 409 
Q 2525 409 2770 889 
Q 3016 1369 3016 2328 
Q 3016 3291 2770 3770 
Q 2525 4250 2034 4250 
z
M 2034 4750 
Q 2819 4750 3233 4129 
Q 3647 3509 3647 2328 
Q 3647 1150 3233 529 
Q 2819 -91 2034 -91 
Q 1250 -91 836 529 
Q 422 1150 422 2328 
Q 422 3509 836 4129 
Q 1250 4750 2034 4750 
z
" id="DejaVuSans-30" transform="scale(0.015625)"/>
       </defs>
       <use xlink:href="#DejaVuSans-30"/>
      </g>
     </g>
    </g>
    <g id="xtick_2">
     <g id="line2d_2">
      <g>
       <use style="stroke:#000000;stroke-width:0.8;" x="124.653981" xlink:href="#me95110d408" y="224.64"/>
      </g>
     </g>
     <g id="text_2">
      <!-- 2 -->
      <g transform="translate(121.472731 239.238437)scale(0.1 -0.1)">
       <defs>
        <path d="M 1228 531 
L 3431 531 
L 3431 0 
L 469 0 
L 469 531 
Q 828 903 1448 1529 
Q 2069 2156 2228 2338 
Q 2531 2678 2651 2914 
Q 2772 3150 2772 3378 
Q 2772 3750 2511 3984 
Q 2250 4219 1831 4219 
Q 1534 4219 1204 4116 
Q 875 4013 500 3803 
L 500 4441 
Q 881 4594 1212 4672 
Q 1544 4750 1819 4750 
Q 2544 4750 2975 4387 
Q 3406 4025 3406 3419 
Q 3406 3131 3298 2873 
Q 3191 2616 2906 2266 
Q 2828 2175 2409 1742 
Q 1991 1309 1228 531 
z
" id="DejaVuSans-32" transform="scale(0.015625)"/>
       </defs>
       <use xlink:href="#DejaVuSans-32"/>
      </g>
     </g>
    </g>
    <g id="xtick_3">
     <g id="line2d_3">
      <g>
       <use style="stroke:#000000;stroke-width:0.8;" x="171.699724" xlink:href="#me95110d408" y="224.64"/>
      </g>
     </g>
     <g id="text_3">
      <!-- 4 -->
      <g transform="translate(168.518474 239.238437)scale(0.1 -0.1)">
       <defs>
        <path d="M 2419 4116 
L 825 1625 
L 2419 1625 
L 2419 4116 
z
M 2253 4666 
L 3047 4666 
L 3047 1625 
L 3713 1625 
L 3713 1100 
L 3047 1100 
L 3047 0 
L 2419 0 
L 2419 1100 
L 313 1100 
L 313 1709 
L 2253 4666 
z
" id="DejaVuSans-34" transform="scale(0.015625)"/>
       </defs>
       <use xlink:href="#DejaVuSans-34"/>
      </g>
     </g>
    </g>
    <g id="xtick_4">
     <g id="line2d_4">
      <g>
       <use style="stroke:#000000;stroke-width:0.8;" x="218.745467" xlink:href="#me95110d408" y="224.64"/>
      </g>
     </g>
     <g id="text_4">
      <!-- 6 -->
      <g transform="translate(215.564217 239.238437)scale(0.1 -0.1)">
       <defs>
        <path d="M 2113 2584 
Q 1688 2584 1439 2293 
Q 1191 2003 1191 1497 
Q 1191 994 1439 701 
Q 1688 409 2113 409 
Q 2538 409 2786 701 
Q 3034 994 3034 1497 
Q 3034 2003 2786 2293 
Q 2538 2584 2113 2584 
z
M 3366 4563 
L 3366 3988 
Q 3128 4100 2886 4159 
Q 2644 4219 2406 4219 
Q 1781 4219 1451 3797 
Q 1122 3375 1075 2522 
Q 1259 2794 1537 2939 
Q 1816 3084 2150 3084 
Q 2853 3084 3261 2657 
Q 3669 2231 3669 1497 
Q 3669 778 3244 343 
Q 2819 -91 2113 -91 
Q 1303 -91 875 529 
Q 447 1150 447 2328 
Q 447 3434 972 4092 
Q 1497 4750 2381 4750 
Q 2619 4750 2861 4703 
Q 3103 4656 3366 4563 
z
" id="DejaVuSans-36" transform="scale(0.015625)"/>
       </defs>
       <use xlink:href="#DejaVuSans-36"/>
      </g>
     </g>
    </g>
    <g id="xtick_5">
     <g id="line2d_5">
      <g>
       <use style="stroke:#000000;stroke-width:0.8;" x="265.79121" xlink:href="#me95110d408" y="224.64"/>
      </g>
     </g>
     <g id="text_5">
      <!-- 8 -->
      <g transform="translate(262.60996 239.238437)scale(0.1 -0.1)">
       <defs>
        <path d="M 2034 2216 
Q 1584 2216 1326 1975 
Q 1069 1734 1069 1313 
Q 1069 891 1326 650 
Q 1584 409 2034 409 
Q 2484 409 2743 651 
Q 3003 894 3003 1313 
Q 3003 1734 2745 1975 
Q 2488 2216 2034 2216 
z
M 1403 2484 
Q 997 2584 770 2862 
Q 544 3141 544 3541 
Q 544 4100 942 4425 
Q 1341 4750 2034 4750 
Q 2731 4750 3128 4425 
Q 3525 4100 3525 3541 
Q 3525 3141 3298 2862 
Q 3072 2584 2669 2484 
Q 3125 2378 3379 2068 
Q 3634 1759 3634 1313 
Q 3634 634 3220 271 
Q 2806 -91 2034 -91 
Q 1263 -91 848 271 
Q 434 634 434 1313 
Q 434 1759 690 2068 
Q 947 2378 1403 2484 
z
M 1172 3481 
Q 1172 3119 1398 2916 
Q 1625 2713 2034 2713 
Q 2441 2713 2670 2916 
Q 2900 3119 2900 3481 
Q 2900 3844 2670 4047 
Q 2441 4250 2034 4250 
Q 1625 4250 1398 4047 
Q 1172 3844 1172 3481 
z
" id="DejaVuSans-38" transform="scale(0.015625)"/>
       </defs>
       <use xlink:href="#DejaVuSans-38"/>
      </g>
     </g>
    </g>
    <g id="xtick_6">
     <g id="line2d_6">
      <g>
       <use style="stroke:#000000;stroke-width:0.8;" x="312.836954" xlink:href="#me95110d408" y="224.64"/>
      </g>
     </g>
     <g id="text_6">
      <!-- 10 -->
      <g transform="translate(306.474454 239.238437)scale(0.1 -0.1)">
       <defs>
        <path d="M 794 531 
L 1825 531 
L 1825 4091 
L 703 3866 
L 703 4441 
L 1819 4666 
L 2450 4666 
L 2450 531 
L 3481 531 
L 3481 0 
L 794 0 
L 794 531 
z
" id="DejaVuSans-31" transform="scale(0.015625)"/>
       </defs>
       <use xlink:href="#DejaVuSans-31"/>
       <use x="63.623047" xlink:href="#DejaVuSans-30"/>
      </g>
     </g>
    </g>
    <g id="xtick_7">
     <g id="line2d_7">
      <g>
       <use style="stroke:#000000;stroke-width:0.8;" x="359.882697" xlink:href="#me95110d408" y="224.64"/>
      </g>
     </g>
     <g id="text_7">
      <!-- 12 -->
      <g transform="translate(353.520197 239.238437)scale(0.1 -0.1)">
       <use xlink:href="#DejaVuSans-31"/>
       <use x="63.623047" xlink:href="#DejaVuSans-32"/>
      </g>
     </g>
    </g>
    <g id="text_8">
     <!-- f(t) -->
     <g transform="translate(203.559375 252.916562)scale(0.1 -0.1)">
      <defs>
       <path d="M 2375 4863 
L 2375 4384 
L 1825 4384 
Q 1516 4384 1395 4259 
Q 1275 4134 1275 3809 
L 1275 3500 
L 2222 3500 
L 2222 3053 
L 1275 3053 
L 1275 0 
L 697 0 
L 697 3053 
L 147 3053 
L 147 3500 
L 697 3500 
L 697 3744 
Q 697 4328 969 4595 
Q 1241 4863 1831 4863 
L 2375 4863 
z
" id="DejaVuSans-66" transform="scale(0.015625)"/>
       <path d="M 1984 4856 
Q 1566 4138 1362 3434 
Q 1159 2731 1159 2009 
Q 1159 1288 1364 580 
Q 1569 -128 1984 -844 
L 1484 -844 
Q 1016 -109 783 600 
Q 550 1309 550 2009 
Q 550 2706 781 3412 
Q 1013 4119 1484 4856 
L 1984 4856 
z
" id="DejaVuSans-28" transform="scale(0.015625)"/>
       <path d="M 1172 4494 
L 1172 3500 
L 2356 3500 
L 2356 3053 
L 1172 3053 
L 1172 1153 
Q 1172 725 1289 603 
Q 1406 481 1766 481 
L 2356 481 
L 2356 0 
L 1766 0 
Q 1100 0 847 248 
Q 594 497 594 1153 
L 594 3053 
L 172 3053 
L 172 3500 
L 594 3500 
L 594 4494 
L 1172 4494 
z
" id="DejaVuSans-74" transform="scale(0.015625)"/>
       <path d="M 513 4856 
L 1013 4856 
Q 1481 4119 1714 3412 
Q 1947 2706 1947 2009 
Q 1947 1309 1714 600 
Q 1481 -109 1013 -844 
L 513 -844 
Q 928 -128 1133 580 
Q 1338 1288 1338 2009 
Q 1338 2731 1133 3434 
Q 928 4138 513 4856 
z
" id="DejaVuSans-29" transform="scale(0.015625)"/>
      </defs>
      <use xlink:href="#DejaVuSans-66"/>
      <use x="35.205078" xlink:href="#DejaVuSans-28"/>
      <use x="74.21875" xlink:href="#DejaVuSans-74"/>
      <use x="113.427734" xlink:href="#DejaVuSans-29"/>
     </g>
    </g>
   </g>
   <g id="matplotlib.axis_2">
    <g id="ytick_1">
     <g id="line2d_8">
      <defs>
       <path d="M 0 0 
L -3.5 0 
" id="m91b5b119ef" style="stroke:#000000;stroke-width:0.8;"/>
      </defs>
      <g>
       <use style="stroke:#000000;stroke-width:0.8;" x="43.78125" xlink:href="#m91b5b119ef" y="224.64"/>
      </g>
     </g>
     <g id="text_9">
      <!-- 0.0 -->
      <g transform="translate(20.878125 228.439219)scale(0.1 -0.1)">
       <defs>
        <path d="M 684 794 
L 1344 794 
L 1344 0 
L 684 0 
L 684 794 
z
" id="DejaVuSans-2e" transform="scale(0.015625)"/>
       </defs>
       <use xlink:href="#DejaVuSans-30"/>
       <use x="63.623047" xlink:href="#DejaVuSans-2e"/>
       <use x="95.410156" xlink:href="#DejaVuSans-30"/>
      </g>
     </g>
    </g>
    <g id="ytick_2">
     <g id="line2d_9">
      <g>
       <use style="stroke:#000000;stroke-width:0.8;" x="43.78125" xlink:href="#m91b5b119ef" y="197.233217"/>
      </g>
     </g>
     <g id="text_10">
      <!-- 0.5 -->
      <g transform="translate(20.878125 201.032435)scale(0.1 -0.1)">
       <defs>
        <path d="M 691 4666 
L 3169 4666 
L 3169 4134 
L 1269 4134 
L 1269 2991 
Q 1406 3038 1543 3061 
Q 1681 3084 1819 3084 
Q 2600 3084 3056 2656 
Q 3513 2228 3513 1497 
Q 3513 744 3044 326 
Q 2575 -91 1722 -91 
Q 1428 -91 1123 -41 
Q 819 9 494 109 
L 494 744 
Q 775 591 1075 516 
Q 1375 441 1709 441 
Q 2250 441 2565 725 
Q 2881 1009 2881 1497 
Q 2881 1984 2565 2268 
Q 2250 2553 1709 2553 
Q 1456 2553 1204 2497 
Q 953 2441 691 2322 
L 691 4666 
z
" id="DejaVuSans-35" transform="scale(0.015625)"/>
       </defs>
       <use xlink:href="#DejaVuSans-30"/>
       <use x="63.623047" xlink:href="#DejaVuSans-2e"/>
       <use x="95.410156" xlink:href="#DejaVuSans-35"/>
      </g>
     </g>
    </g>
    <g id="ytick_3">
     <g id="line2d_10">
      <g>
       <use style="stroke:#000000;stroke-width:0.8;" x="43.78125" xlink:href="#m91b5b119ef" y="169.826433"/>
      </g>
     </g>
     <g id="text_11">
      <!-- 1.0 -->
      <g transform="translate(20.878125 173.625652)scale(0.1 -0.1)">
       <use xlink:href="#DejaVuSans-31"/>
       <use x="63.623047" xlink:href="#DejaVuSans-2e"/>
       <use x="95.410156" xlink:href="#DejaVuSans-30"/>
      </g>
     </g>
    </g>
    <g id="ytick_4">
     <g id="line2d_11">
      <g>
       <use style="stroke:#000000;stroke-width:0.8;" x="43.78125" xlink:href="#m91b5b119ef" y="142.41965"/>
      </g>
     </g>
     <g id="text_12">
      <!-- 1.5 -->
      <g transform="translate(20.878125 146.218868)scale(0.1 -0.1)">
       <use xlink:href="#DejaVuSans-31"/>
       <use x="63.623047" xlink:href="#DejaVuSans-2e"/>
       <use x="95.410156" xlink:href="#DejaVuSans-35"/>
      </g>
     </g>
    </g>
    <g id="ytick_5">
     <g id="line2d_12">
      <g>
       <use style="stroke:#000000;stroke-width:0.8;" x="43.78125" xlink:href="#m91b5b119ef" y="115.012866"/>
      </g>
     </g>
     <g id="text_13">
      <!-- 2.0 -->
      <g transform="translate(20.878125 118.812085)scale(0.1 -0.1)">
       <use xlink:href="#DejaVuSans-32"/>
       <use x="63.623047" xlink:href="#DejaVuSans-2e"/>
       <use x="95.410156" xlink:href="#DejaVuSans-30"/>
      </g>
     </g>
    </g>
    <g id="ytick_6">
     <g id="line2d_13">
      <g>
       <use style="stroke:#000000;stroke-width:0.8;" x="43.78125" xlink:href="#m91b5b119ef" y="87.606083"/>
      </g>
     </g>
     <g id="text_14">
      <!-- 2.5 -->
      <g transform="translate(20.878125 91.405302)scale(0.1 -0.1)">
       <use xlink:href="#DejaVuSans-32"/>
       <use x="63.623047" xlink:href="#DejaVuSans-2e"/>
       <use x="95.410156" xlink:href="#DejaVuSans-35"/>
      </g>
     </g>
    </g>
    <g id="ytick_7">
     <g id="line2d_14">
      <g>
       <use style="stroke:#000000;stroke-width:0.8;" x="43.78125" xlink:href="#m91b5b119ef" y="60.199299"/>
      </g>
     </g>
     <g id="text_15">
      <!-- 3.0 -->
      <g transform="translate(20.878125 63.998518)scale(0.1 -0.1)">
       <defs>
        <path d="M 2597 2516 
Q 3050 2419 3304 2112 
Q 3559 1806 3559 1356 
Q 3559 666 3084 287 
Q 2609 -91 1734 -91 
Q 1441 -91 1130 -33 
Q 819 25 488 141 
L 488 750 
Q 750 597 1062 519 
Q 1375 441 1716 441 
Q 2309 441 2620 675 
Q 2931 909 2931 1356 
Q 2931 1769 2642 2001 
Q 2353 2234 1838 2234 
L 1294 2234 
L 1294 2753 
L 1863 2753 
Q 2328 2753 2575 2939 
Q 2822 3125 2822 3475 
Q 2822 3834 2567 4026 
Q 2313 4219 1838 4219 
Q 1578 4219 1281 4162 
Q 984 4106 628 3988 
L 628 4550 
Q 988 4650 1302 4700 
Q 1616 4750 1894 4750 
Q 2613 4750 3031 4423 
Q 3450 4097 3450 3541 
Q 3450 3153 3228 2886 
Q 3006 2619 2597 2516 
z
" id="DejaVuSans-33" transform="scale(0.015625)"/>
       </defs>
       <use xlink:href="#DejaVuSans-33"/>
       <use x="63.623047" xlink:href="#DejaVuSans-2e"/>
       <use x="95.410156" xlink:href="#DejaVuSans-30"/>
      </g>
     </g>
    </g>
    <g id="ytick_8">
     <g id="line2d_15">
      <g>
       <use style="stroke:#000000;stroke-width:0.8;" x="43.78125" xlink:href="#m91b5b119ef" y="32.792516"/>
      </g>
     </g>
     <g id="text_16">
      <!-- 3.5 -->
      <g transform="translate(20.878125 36.591735)scale(0.1 -0.1)">
       <use xlink:href="#DejaVuSans-33"/>
       <use x="63.623047" xlink:href="#DejaVuSans-2e"/>
       <use x="95.410156" xlink:href="#DejaVuSans-35"/>
      </g>
     </g>
    </g>
    <g id="text_17">
     <!-- Density -->
     <g transform="translate(14.798438 134.928594)rotate(-90)scale(0.1 -0.1)">
      <defs>
       <path d="M 1259 4147 
L 1259 519 
L 2022 519 
Q 2988 519 3436 956 
Q 3884 1394 3884 2338 
Q 3884 3275 3436 3711 
Q 2988 4147 2022 4147 
L 1259 4147 
z
M 628 4666 
L 1925 4666 
Q 3281 4666 3915 4102 
Q 4550 3538 4550 2338 
Q 4550 1131 3912 565 
Q 3275 0 1925 0 
L 628 0 
L 628 4666 
z
" id="DejaVuSans-44" transform="scale(0.015625)"/>
       <path d="M 3597 1894 
L 3597 1613 
L 953 1613 
Q 991 1019 1311 708 
Q 1631 397 2203 397 
Q 2534 397 2845 478 
Q 3156 559 3463 722 
L 3463 178 
Q 3153 47 2828 -22 
Q 2503 -91 2169 -91 
Q 1331 -91 842 396 
Q 353 884 353 1716 
Q 353 2575 817 3079 
Q 1281 3584 2069 3584 
Q 2775 3584 3186 3129 
Q 3597 2675 3597 1894 
z
M 3022 2063 
Q 3016 2534 2758 2815 
Q 2500 3097 2075 3097 
Q 1594 3097 1305 2825 
Q 1016 2553 972 2059 
L 3022 2063 
z
" id="DejaVuSans-65" transform="scale(0.015625)"/>
       <path d="M 3513 2113 
L 3513 0 
L 2938 0 
L 2938 2094 
Q 2938 2591 2744 2837 
Q 2550 3084 2163 3084 
Q 1697 3084 1428 2787 
Q 1159 2491 1159 1978 
L 1159 0 
L 581 0 
L 581 3500 
L 1159 3500 
L 1159 2956 
Q 1366 3272 1645 3428 
Q 1925 3584 2291 3584 
Q 2894 3584 3203 3211 
Q 3513 2838 3513 2113 
z
" id="DejaVuSans-6e" transform="scale(0.015625)"/>
       <path d="M 2834 3397 
L 2834 2853 
Q 2591 2978 2328 3040 
Q 2066 3103 1784 3103 
Q 1356 3103 1142 2972 
Q 928 2841 928 2578 
Q 928 2378 1081 2264 
Q 1234 2150 1697 2047 
L 1894 2003 
Q 2506 1872 2764 1633 
Q 3022 1394 3022 966 
Q 3022 478 2636 193 
Q 2250 -91 1575 -91 
Q 1294 -91 989 -36 
Q 684 19 347 128 
L 347 722 
Q 666 556 975 473 
Q 1284 391 1588 391 
Q 1994 391 2212 530 
Q 2431 669 2431 922 
Q 2431 1156 2273 1281 
Q 2116 1406 1581 1522 
L 1381 1569 
Q 847 1681 609 1914 
Q 372 2147 372 2553 
Q 372 3047 722 3315 
Q 1072 3584 1716 3584 
Q 2034 3584 2315 3537 
Q 2597 3491 2834 3397 
z
" id="DejaVuSans-73" transform="scale(0.015625)"/>
       <path d="M 603 3500 
L 1178 3500 
L 1178 0 
L 603 0 
L 603 3500 
z
M 603 4863 
L 1178 4863 
L 1178 4134 
L 603 4134 
L 603 4863 
z
" id="DejaVuSans-69" transform="scale(0.015625)"/>
       <path d="M 2059 -325 
Q 1816 -950 1584 -1140 
Q 1353 -1331 966 -1331 
L 506 -1331 
L 506 -850 
L 844 -850 
Q 1081 -850 1212 -737 
Q 1344 -625 1503 -206 
L 1606 56 
L 191 3500 
L 800 3500 
L 1894 763 
L 2988 3500 
L 3597 3500 
L 2059 -325 
z
" id="DejaVuSans-79" transform="scale(0.015625)"/>
      </defs>
      <use xlink:href="#DejaVuSans-44"/>
      <use x="77.001953" xlink:href="#DejaVuSans-65"/>
      <use x="138.525391" xlink:href="#DejaVuSans-6e"/>
      <use x="201.904297" xlink:href="#DejaVuSans-73"/>
      <use x="254.003906" xlink:href="#DejaVuSans-69"/>
      <use x="281.787109" xlink:href="#DejaVuSans-74"/>
      <use x="320.996094" xlink:href="#DejaVuSans-79"/>
     </g>
    </g>
   </g>
   <g id="line2d_16">
    <path clip-path="url(#p119e8cd0ac)" d="M 62.888627 224.634363 
L 68.276479 224.514786 
L 70.970405 224.224715 
L 72.766356 223.823282 
L 74.562306 223.176305 
L 76.358257 222.234755 
L 78.154208 220.988048 
L 79.950158 219.470094 
L 82.644084 216.835649 
L 88.031936 211.310519 
L 89.827887 209.712918 
L 91.623838 208.358403 
L 93.419789 207.248949 
L 99.705616 203.779756 
L 102.399542 201.708203 
L 105.991443 198.856717 
L 107.787394 197.825993 
L 108.685369 197.481184 
L 109.583345 197.264842 
L 110.48132 197.181205 
L 111.379295 197.229506 
L 112.277271 197.404621 
L 114.073221 198.097035 
L 115.869172 199.154924 
L 118.563098 201.131945 
L 122.154999 203.796142 
L 124.848926 205.43244 
L 127.542852 206.710377 
L 132.032728 208.677804 
L 133.828679 209.697406 
L 135.62463 210.930866 
L 139.216531 213.816105 
L 141.910457 215.918914 
L 143.706408 217.120517 
L 145.502358 218.118909 
L 147.298309 218.917749 
L 149.992235 219.807288 
L 153.584136 220.646766 
L 158.971989 221.636133 
L 170.645668 223.422954 
L 175.135545 223.873657 
L 180.523397 224.16297 
L 189.50315 224.361404 
L 201.17683 224.45346 
L 215.544435 224.470681 
L 223.626213 224.537902 
L 235.299893 224.619431 
L 241.58572 224.638889 
L 241.58572 224.638889 
" style="fill:none;stroke:#1f77b4;stroke-linecap:square;stroke-width:1.5;"/>
   </g>
   <g id="line2d_17">
    <path clip-path="url(#p119e8cd0ac)" d="M 58.999432 224.507907 
L 60.528897 224.354906 
L 62.058363 224.058908 
L 63.587828 223.521045 
L 65.117294 222.603536 
L 66.646759 221.135278 
L 68.176225 218.933169 
L 69.70569 215.841733 
L 71.235156 211.786812 
L 72.764621 206.830357 
L 77.353018 189.69416 
L 78.882483 184.879346 
L 80.411949 181.340538 
L 81.941414 179.361656 
L 83.47088 178.99503 
L 85.000345 180.070785 
L 86.529811 182.259079 
L 88.059276 185.161025 
L 92.647673 194.804217 
L 94.177139 197.701385 
L 95.706604 200.350812 
L 98.765535 204.989534 
L 100.295001 207.016396 
L 101.824466 208.850462 
L 103.353932 210.480477 
L 104.883397 211.895979 
L 106.412863 213.096283 
L 107.942328 214.095485 
L 109.471794 214.922584 
L 112.530725 216.224826 
L 121.707518 219.693147 
L 126.295914 221.388193 
L 129.354845 222.251022 
L 132.413776 222.827101 
L 135.472707 223.14762 
L 140.061104 223.359643 
L 166.062017 224.068381 
L 181.356673 223.872423 
L 193.592397 224.41626 
L 204.298655 224.35612 
L 215.004914 224.479062 
L 234.887965 224.593939 
L 263.94781 224.542834 
L 285.360327 224.56528 
L 297.596051 224.61332 
L 312.890706 224.591068 
L 325.12643 224.586372 
L 338.89162 224.586342 
L 351.127344 224.59113 
L 363.363068 224.639079 
L 363.363068 224.639079 
" style="fill:none;stroke:#ff7f0e;stroke-linecap:square;stroke-width:1.5;"/>
   </g>
   <g id="line2d_18">
    <path clip-path="url(#p119e8cd0ac)" d="M 67.916489 223.951892 
L 68.617967 223.34374 
L 69.319445 222.309112 
L 70.020924 220.638796 
L 70.722402 218.082211 
L 71.42388 214.376554 
L 72.125359 209.297783 
L 72.826837 202.729274 
L 74.229793 185.614654 
L 76.334228 157.938751 
L 77.035707 151.32052 
L 77.737185 147.158874 
L 78.438663 145.734105 
L 79.140141 146.952883 
L 79.84162 150.384094 
L 80.543098 155.366497 
L 82.647533 172.552588 
L 83.349011 177.314437 
L 84.050489 181.22443 
L 84.751968 184.317671 
L 85.453446 186.72329 
L 86.154924 188.606301 
L 87.557881 191.403212 
L 88.960838 193.547973 
L 90.363794 195.336409 
L 91.766751 196.798273 
L 95.274142 199.943547 
L 95.97562 200.824297 
L 97.378577 203.147601 
L 98.781534 206.178568 
L 101.587447 212.77671 
L 102.990403 215.431343 
L 104.39336 217.403234 
L 105.796316 218.79397 
L 107.199273 219.772642 
L 108.60223 220.470784 
L 110.706665 221.17145 
L 113.512578 221.759083 
L 120.527361 222.871455 
L 122.631795 222.938736 
L 128.243622 222.772296 
L 130.348057 223.016807 
L 135.258405 223.729626 
L 146.482057 224.58367 
L 150.690927 224.49681 
L 157.70571 224.328901 
L 161.91458 224.419944 
L 166.824928 224.558957 
L 182.25745 224.520815 
L 189.272233 224.633086 
L 196.287016 224.497707 
L 200.495886 224.527045 
L 207.510669 224.638231 
L 207.510669 224.638231 
" style="fill:none;stroke:#2ca02c;stroke-linecap:square;stroke-width:1.5;"/>
   </g>
   <g id="patch_125">
    <path d="M 43.78125 224.64 
L 43.78125 7.2 
" style="fill:none;stroke:#000000;stroke-linecap:square;stroke-linejoin:miter;stroke-width:0.8;"/>
   </g>
   <g id="patch_126">
    <path d="M 378.58125 224.64 
L 378.58125 7.2 
" style="fill:none;stroke:#000000;stroke-linecap:square;stroke-linejoin:miter;stroke-width:0.8;"/>
   </g>
   <g id="patch_127">
    <path d="M 43.78125 224.64 
L 378.58125 224.64 
" style="fill:none;stroke:#000000;stroke-linecap:square;stroke-linejoin:miter;stroke-width:0.8;"/>
   </g>
   <g id="patch_128">
    <path d="M 43.78125 7.2 
L 378.58125 7.2 
" style="fill:none;stroke:#000000;stroke-linecap:square;stroke-linejoin:miter;stroke-width:0.8;"/>
   </g>
  </g>
 </g>
 <defs>
  <clipPath id="p119e8cd0ac">
   <rect height="217.44" width="334.8" x="43.78125" y="7.2"/>
  </clipPath>
 </defs>
</svg>
