<?xml version="1.0" encoding="utf-8" standalone="no"?>
<!DOCTYPE svg PUBLIC "-//W3C//DTD SVG 1.1//EN"
  "http://www.w3.org/Graphics/SVG/1.1/DTD/svg11.dtd">
<!-- Created with matplotlib (https://matplotlib.org/) -->
<svg height="263.969141pt" version="1.1" viewBox="0 0 385.78125 263.969141" width="385.78125pt" xmlns="http://www.w3.org/2000/svg" xmlns:xlink="http://www.w3.org/1999/xlink">
 <metadata>
  <rdf:RDF xmlns:cc="http://creativecommons.org/ns#" xmlns:dc="http://purl.org/dc/elements/1.1/" xmlns:rdf="http://www.w3.org/1999/02/22-rdf-syntax-ns#">
   <cc:Work>
    <dc:type rdf:resource="http://purl.org/dc/dcmitype/StillImage"/>
    <dc:date>2021-01-22T18:01:04.430729</dc:date>
    <dc:format>image/svg+xml</dc:format>
    <dc:creator>
     <cc:Agent>
      <dc:title>Matplotlib v3.3.3, https://matplotlib.org/</dc:title>
     </cc:Agent>
    </dc:creator>
   </cc:Work>
  </rdf:RDF>
 </metadata>
 <defs>
  <style type="text/css">*{stroke-linecap:butt;stroke-linejoin:round;}</style>
 </defs>
 <g id="figure_1">
  <g id="patch_1">
   <path d="M 0 263.969141 
L 385.78125 263.969141 
L 385.78125 0 
L 0 0 
z
" style="fill:none;"/>
  </g>
  <g id="axes_1">
   <g id="patch_2">
    <path d="M 43.78125 226.412891 
L 378.58125 226.412891 
L 378.58125 8.972891 
L 43.78125 8.972891 
z
" style="fill:#ffffff;"/>
   </g>
   <g id="patch_3">
    <path clip-path="url(#pfa538c0e60)" d="M 72.151914 226.412891 
L 74.529137 226.412891 
L 74.529137 223.33896 
L 72.151914 223.33896 
z
" style="fill:#1f77b4;opacity:0.4;"/>
   </g>
   <g id="patch_4">
    <path clip-path="url(#pfa538c0e60)" d="M 74.529137 226.412891 
L 76.906361 226.412891 
L 76.906361 220.084209 
L 74.529137 220.084209 
z
" style="fill:#1f77b4;opacity:0.4;"/>
   </g>
   <g id="patch_5">
    <path clip-path="url(#pfa538c0e60)" d="M 76.906361 226.412891 
L 79.283584 226.412891 
L 79.283584 214.478805 
L 76.906361 214.478805 
z
" style="fill:#1f77b4;opacity:0.4;"/>
   </g>
   <g id="patch_6">
    <path clip-path="url(#pfa538c0e60)" d="M 79.283584 226.412891 
L 81.660808 226.412891 
L 81.660808 212.128152 
L 79.283584 212.128152 
z
" style="fill:#1f77b4;opacity:0.4;"/>
   </g>
   <g id="patch_7">
    <path clip-path="url(#pfa538c0e60)" d="M 81.660808 226.412891 
L 84.038032 226.412891 
L 84.038032 209.23504 
L 81.660808 209.23504 
z
" style="fill:#1f77b4;opacity:0.4;"/>
   </g>
   <g id="patch_8">
    <path clip-path="url(#pfa538c0e60)" d="M 84.038032 226.412891 
L 86.415255 226.412891 
L 86.415255 202.544719 
L 84.038032 202.544719 
z
" style="fill:#1f77b4;opacity:0.4;"/>
   </g>
   <g id="patch_9">
    <path clip-path="url(#pfa538c0e60)" d="M 86.415255 226.412891 
L 88.792479 226.412891 
L 88.792479 204.172094 
L 86.415255 204.172094 
z
" style="fill:#1f77b4;opacity:0.4;"/>
   </g>
   <g id="patch_10">
    <path clip-path="url(#pfa538c0e60)" d="M 88.792479 226.412891 
L 91.169702 226.412891 
L 91.169702 210.862415 
L 88.792479 210.862415 
z
" style="fill:#1f77b4;opacity:0.4;"/>
   </g>
   <g id="patch_11">
    <path clip-path="url(#pfa538c0e60)" d="M 91.169702 226.412891 
L 93.546926 226.412891 
L 93.546926 214.659624 
L 91.169702 214.659624 
z
" style="fill:#1f77b4;opacity:0.4;"/>
   </g>
   <g id="patch_12">
    <path clip-path="url(#pfa538c0e60)" d="M 93.546926 226.412891 
L 95.92415 226.412891 
L 95.92415 215.382902 
L 93.546926 215.382902 
z
" style="fill:#1f77b4;opacity:0.4;"/>
   </g>
   <g id="patch_13">
    <path clip-path="url(#pfa538c0e60)" d="M 95.92415 226.412891 
L 98.301373 226.412891 
L 98.301373 219.180112 
L 95.92415 219.180112 
z
" style="fill:#1f77b4;opacity:0.4;"/>
   </g>
   <g id="patch_14">
    <path clip-path="url(#pfa538c0e60)" d="M 98.301373 226.412891 
L 100.678597 226.412891 
L 100.678597 215.925361 
L 98.301373 215.925361 
z
" style="fill:#1f77b4;opacity:0.4;"/>
   </g>
   <g id="patch_15">
    <path clip-path="url(#pfa538c0e60)" d="M 100.678597 226.412891 
L 103.05582 226.412891 
L 103.05582 222.615682 
L 100.678597 222.615682 
z
" style="fill:#1f77b4;opacity:0.4;"/>
   </g>
   <g id="patch_16">
    <path clip-path="url(#pfa538c0e60)" d="M 103.05582 226.412891 
L 105.433044 226.412891 
L 105.433044 222.434862 
L 103.05582 222.434862 
z
" style="fill:#1f77b4;opacity:0.4;"/>
   </g>
   <g id="patch_17">
    <path clip-path="url(#pfa538c0e60)" d="M 105.433044 226.412891 
L 107.810267 226.412891 
L 107.810267 222.434862 
L 105.433044 222.434862 
z
" style="fill:#1f77b4;opacity:0.4;"/>
   </g>
   <g id="patch_18">
    <path clip-path="url(#pfa538c0e60)" d="M 107.810267 226.412891 
L 110.187491 226.412891 
L 110.187491 223.700599 
L 107.810267 223.700599 
z
" style="fill:#1f77b4;opacity:0.4;"/>
   </g>
   <g id="patch_19">
    <path clip-path="url(#pfa538c0e60)" d="M 110.187491 226.412891 
L 112.564715 226.412891 
L 112.564715 224.423877 
L 110.187491 224.423877 
z
" style="fill:#1f77b4;opacity:0.4;"/>
   </g>
   <g id="patch_20">
    <path clip-path="url(#pfa538c0e60)" d="M 112.564715 226.412891 
L 114.941938 226.412891 
L 114.941938 224.785516 
L 112.564715 224.785516 
z
" style="fill:#1f77b4;opacity:0.4;"/>
   </g>
   <g id="patch_21">
    <path clip-path="url(#pfa538c0e60)" d="M 114.941938 226.412891 
L 117.319162 226.412891 
L 117.319162 224.966335 
L 114.941938 224.966335 
z
" style="fill:#1f77b4;opacity:0.4;"/>
   </g>
   <g id="patch_22">
    <path clip-path="url(#pfa538c0e60)" d="M 117.319162 226.412891 
L 119.696385 226.412891 
L 119.696385 225.327974 
L 117.319162 225.327974 
z
" style="fill:#1f77b4;opacity:0.4;"/>
   </g>
   <g id="patch_23">
    <path clip-path="url(#pfa538c0e60)" d="M 119.696385 226.412891 
L 122.073609 226.412891 
L 122.073609 225.508794 
L 119.696385 225.508794 
z
" style="fill:#1f77b4;opacity:0.4;"/>
   </g>
   <g id="patch_24">
    <path clip-path="url(#pfa538c0e60)" d="M 122.073609 226.412891 
L 124.450832 226.412891 
L 124.450832 225.689613 
L 122.073609 225.689613 
z
" style="fill:#1f77b4;opacity:0.4;"/>
   </g>
   <g id="patch_25">
    <path clip-path="url(#pfa538c0e60)" d="M 124.450832 226.412891 
L 126.828056 226.412891 
L 126.828056 225.870433 
L 124.450832 225.870433 
z
" style="fill:#1f77b4;opacity:0.4;"/>
   </g>
   <g id="patch_26">
    <path clip-path="url(#pfa538c0e60)" d="M 126.828056 226.412891 
L 129.20528 226.412891 
L 129.20528 226.232072 
L 126.828056 226.232072 
z
" style="fill:#1f77b4;opacity:0.4;"/>
   </g>
   <g id="patch_27">
    <path clip-path="url(#pfa538c0e60)" d="M 129.20528 226.412891 
L 131.582503 226.412891 
L 131.582503 225.689613 
L 129.20528 225.689613 
z
" style="fill:#1f77b4;opacity:0.4;"/>
   </g>
   <g id="patch_28">
    <path clip-path="url(#pfa538c0e60)" d="M 131.582503 226.412891 
L 133.959727 226.412891 
L 133.959727 226.051252 
L 131.582503 226.051252 
z
" style="fill:#1f77b4;opacity:0.4;"/>
   </g>
   <g id="patch_29">
    <path clip-path="url(#pfa538c0e60)" d="M 133.959727 226.412891 
L 136.33695 226.412891 
L 136.33695 226.051252 
L 133.959727 226.051252 
z
" style="fill:#1f77b4;opacity:0.4;"/>
   </g>
   <g id="patch_30">
    <path clip-path="url(#pfa538c0e60)" d="M 136.33695 226.412891 
L 138.714174 226.412891 
L 138.714174 226.051252 
L 136.33695 226.051252 
z
" style="fill:#1f77b4;opacity:0.4;"/>
   </g>
   <g id="patch_31">
    <path clip-path="url(#pfa538c0e60)" d="M 138.714174 226.412891 
L 141.091398 226.412891 
L 141.091398 226.051252 
L 138.714174 226.051252 
z
" style="fill:#1f77b4;opacity:0.4;"/>
   </g>
   <g id="patch_32">
    <path clip-path="url(#pfa538c0e60)" d="M 141.091398 226.412891 
L 143.468621 226.412891 
L 143.468621 226.232072 
L 141.091398 226.232072 
z
" style="fill:#1f77b4;opacity:0.4;"/>
   </g>
   <g id="patch_33">
    <path clip-path="url(#pfa538c0e60)" d="M 143.468621 226.412891 
L 145.845845 226.412891 
L 145.845845 225.870433 
L 143.468621 225.870433 
z
" style="fill:#1f77b4;opacity:0.4;"/>
   </g>
   <g id="patch_34">
    <path clip-path="url(#pfa538c0e60)" d="M 71.255918 226.412891 
L 76.852931 226.412891 
L 76.852931 177.33795 
L 71.255918 177.33795 
z
" style="fill:#ff7f0e;opacity:0.4;"/>
   </g>
   <g id="patch_35">
    <path clip-path="url(#pfa538c0e60)" d="M 76.852931 226.412891 
L 82.449945 226.412891 
L 82.449945 209.056183 
L 76.852931 209.056183 
z
" style="fill:#ff7f0e;opacity:0.4;"/>
   </g>
   <g id="patch_36">
    <path clip-path="url(#pfa538c0e60)" d="M 82.449945 226.412891 
L 88.046958 226.412891 
L 88.046958 222.419312 
L 82.449945 222.419312 
z
" style="fill:#ff7f0e;opacity:0.4;"/>
   </g>
   <g id="patch_37">
    <path clip-path="url(#pfa538c0e60)" d="M 88.046958 226.412891 
L 93.643971 226.412891 
L 93.643971 225.107298 
L 88.046958 225.107298 
z
" style="fill:#ff7f0e;opacity:0.4;"/>
   </g>
   <g id="patch_38">
    <path clip-path="url(#pfa538c0e60)" d="M 93.643971 226.412891 
L 99.240984 226.412891 
L 99.240984 225.568096 
L 93.643971 225.568096 
z
" style="fill:#ff7f0e;opacity:0.4;"/>
   </g>
   <g id="patch_39">
    <path clip-path="url(#pfa538c0e60)" d="M 99.240984 226.412891 
L 104.837998 226.412891 
L 104.837998 225.644895 
L 99.240984 225.644895 
z
" style="fill:#ff7f0e;opacity:0.4;"/>
   </g>
   <g id="patch_40">
    <path clip-path="url(#pfa538c0e60)" d="M 104.837998 226.412891 
L 110.435011 226.412891 
L 110.435011 225.644895 
L 104.837998 225.644895 
z
" style="fill:#ff7f0e;opacity:0.4;"/>
   </g>
   <g id="patch_41">
    <path clip-path="url(#pfa538c0e60)" d="M 110.435011 226.412891 
L 116.032024 226.412891 
L 116.032024 226.105693 
L 110.435011 226.105693 
z
" style="fill:#ff7f0e;opacity:0.4;"/>
   </g>
   <g id="patch_42">
    <path clip-path="url(#pfa538c0e60)" d="M 116.032024 226.412891 
L 121.629038 226.412891 
L 121.629038 226.028893 
L 116.032024 226.028893 
z
" style="fill:#ff7f0e;opacity:0.4;"/>
   </g>
   <g id="patch_43">
    <path clip-path="url(#pfa538c0e60)" d="M 121.629038 226.412891 
L 127.226051 226.412891 
L 127.226051 226.105693 
L 121.629038 226.105693 
z
" style="fill:#ff7f0e;opacity:0.4;"/>
   </g>
   <g id="patch_44">
    <path clip-path="url(#pfa538c0e60)" d="M 127.226051 226.412891 
L 132.823064 226.412891 
L 132.823064 226.028893 
L 127.226051 226.028893 
z
" style="fill:#ff7f0e;opacity:0.4;"/>
   </g>
   <g id="patch_45">
    <path clip-path="url(#pfa538c0e60)" d="M 132.823064 226.412891 
L 138.420077 226.412891 
L 138.420077 226.105693 
L 132.823064 226.105693 
z
" style="fill:#ff7f0e;opacity:0.4;"/>
   </g>
   <g id="patch_46">
    <path clip-path="url(#pfa538c0e60)" d="M 138.420077 226.412891 
L 144.017091 226.412891 
L 144.017091 226.259292 
L 138.420077 226.259292 
z
" style="fill:#ff7f0e;opacity:0.4;"/>
   </g>
   <g id="patch_47">
    <path clip-path="url(#pfa538c0e60)" d="M 144.017091 226.412891 
L 149.614104 226.412891 
L 149.614104 226.412891 
L 144.017091 226.412891 
z
" style="fill:#ff7f0e;opacity:0.4;"/>
   </g>
   <g id="patch_48">
    <path clip-path="url(#pfa538c0e60)" d="M 149.614104 226.412891 
L 155.211117 226.412891 
L 155.211117 226.336092 
L 149.614104 226.336092 
z
" style="fill:#ff7f0e;opacity:0.4;"/>
   </g>
   <g id="patch_49">
    <path clip-path="url(#pfa538c0e60)" d="M 155.211117 226.412891 
L 160.808131 226.412891 
L 160.808131 226.336092 
L 155.211117 226.336092 
z
" style="fill:#ff7f0e;opacity:0.4;"/>
   </g>
   <g id="patch_50">
    <path clip-path="url(#pfa538c0e60)" d="M 160.808131 226.412891 
L 166.405144 226.412891 
L 166.405144 226.336092 
L 160.808131 226.336092 
z
" style="fill:#ff7f0e;opacity:0.4;"/>
   </g>
   <g id="patch_51">
    <path clip-path="url(#pfa538c0e60)" d="M 166.405144 226.412891 
L 172.002157 226.412891 
L 172.002157 226.259292 
L 166.405144 226.259292 
z
" style="fill:#ff7f0e;opacity:0.4;"/>
   </g>
   <g id="patch_52">
    <path clip-path="url(#pfa538c0e60)" d="M 172.002157 226.412891 
L 177.59917 226.412891 
L 177.59917 226.259292 
L 172.002157 226.259292 
z
" style="fill:#ff7f0e;opacity:0.4;"/>
   </g>
   <g id="patch_53">
    <path clip-path="url(#pfa538c0e60)" d="M 177.59917 226.412891 
L 183.196184 226.412891 
L 183.196184 226.336092 
L 177.59917 226.336092 
z
" style="fill:#ff7f0e;opacity:0.4;"/>
   </g>
   <g id="patch_54">
    <path clip-path="url(#pfa538c0e60)" d="M 183.196184 226.412891 
L 188.793197 226.412891 
L 188.793197 226.412891 
L 183.196184 226.412891 
z
" style="fill:#ff7f0e;opacity:0.4;"/>
   </g>
   <g id="patch_55">
    <path clip-path="url(#pfa538c0e60)" d="M 188.793197 226.412891 
L 194.39021 226.412891 
L 194.39021 226.412891 
L 188.793197 226.412891 
z
" style="fill:#ff7f0e;opacity:0.4;"/>
   </g>
   <g id="patch_56">
    <path clip-path="url(#pfa538c0e60)" d="M 194.39021 226.412891 
L 199.987223 226.412891 
L 199.987223 226.412891 
L 194.39021 226.412891 
z
" style="fill:#ff7f0e;opacity:0.4;"/>
   </g>
   <g id="patch_57">
    <path clip-path="url(#pfa538c0e60)" d="M 199.987223 226.412891 
L 205.584237 226.412891 
L 205.584237 226.336092 
L 199.987223 226.336092 
z
" style="fill:#ff7f0e;opacity:0.4;"/>
   </g>
   <g id="patch_58">
    <path clip-path="url(#pfa538c0e60)" d="M 205.584237 226.412891 
L 211.18125 226.412891 
L 211.18125 226.336092 
L 205.584237 226.336092 
z
" style="fill:#ff7f0e;opacity:0.4;"/>
   </g>
   <g id="patch_59">
    <path clip-path="url(#pfa538c0e60)" d="M 211.18125 226.412891 
L 216.778263 226.412891 
L 216.778263 226.412891 
L 211.18125 226.412891 
z
" style="fill:#ff7f0e;opacity:0.4;"/>
   </g>
   <g id="patch_60">
    <path clip-path="url(#pfa538c0e60)" d="M 216.778263 226.412891 
L 222.375277 226.412891 
L 222.375277 226.412891 
L 216.778263 226.412891 
z
" style="fill:#ff7f0e;opacity:0.4;"/>
   </g>
   <g id="patch_61">
    <path clip-path="url(#pfa538c0e60)" d="M 222.375277 226.412891 
L 227.97229 226.412891 
L 227.97229 226.412891 
L 222.375277 226.412891 
z
" style="fill:#ff7f0e;opacity:0.4;"/>
   </g>
   <g id="patch_62">
    <path clip-path="url(#pfa538c0e60)" d="M 227.97229 226.412891 
L 233.569303 226.412891 
L 233.569303 226.412891 
L 227.97229 226.412891 
z
" style="fill:#ff7f0e;opacity:0.4;"/>
   </g>
   <g id="patch_63">
    <path clip-path="url(#pfa538c0e60)" d="M 233.569303 226.412891 
L 239.166316 226.412891 
L 239.166316 226.412891 
L 233.569303 226.412891 
z
" style="fill:#ff7f0e;opacity:0.4;"/>
   </g>
   <g id="patch_64">
    <path clip-path="url(#pfa538c0e60)" d="M 239.166316 226.412891 
L 244.76333 226.412891 
L 244.76333 226.412891 
L 239.166316 226.412891 
z
" style="fill:#ff7f0e;opacity:0.4;"/>
   </g>
   <g id="patch_65">
    <path clip-path="url(#pfa538c0e60)" d="M 244.76333 226.412891 
L 250.360343 226.412891 
L 250.360343 226.412891 
L 244.76333 226.412891 
z
" style="fill:#ff7f0e;opacity:0.4;"/>
   </g>
   <g id="patch_66">
    <path clip-path="url(#pfa538c0e60)" d="M 250.360343 226.412891 
L 255.957356 226.412891 
L 255.957356 226.412891 
L 250.360343 226.412891 
z
" style="fill:#ff7f0e;opacity:0.4;"/>
   </g>
   <g id="patch_67">
    <path clip-path="url(#pfa538c0e60)" d="M 255.957356 226.412891 
L 261.554369 226.412891 
L 261.554369 226.412891 
L 255.957356 226.412891 
z
" style="fill:#ff7f0e;opacity:0.4;"/>
   </g>
   <g id="patch_68">
    <path clip-path="url(#pfa538c0e60)" d="M 261.554369 226.412891 
L 267.151383 226.412891 
L 267.151383 226.412891 
L 261.554369 226.412891 
z
" style="fill:#ff7f0e;opacity:0.4;"/>
   </g>
   <g id="patch_69">
    <path clip-path="url(#pfa538c0e60)" d="M 267.151383 226.412891 
L 272.748396 226.412891 
L 272.748396 226.412891 
L 267.151383 226.412891 
z
" style="fill:#ff7f0e;opacity:0.4;"/>
   </g>
   <g id="patch_70">
    <path clip-path="url(#pfa538c0e60)" d="M 272.748396 226.412891 
L 278.345409 226.412891 
L 278.345409 226.412891 
L 272.748396 226.412891 
z
" style="fill:#ff7f0e;opacity:0.4;"/>
   </g>
   <g id="patch_71">
    <path clip-path="url(#pfa538c0e60)" d="M 278.345409 226.412891 
L 283.942423 226.412891 
L 283.942423 226.412891 
L 278.345409 226.412891 
z
" style="fill:#ff7f0e;opacity:0.4;"/>
   </g>
   <g id="patch_72">
    <path clip-path="url(#pfa538c0e60)" d="M 283.942423 226.412891 
L 289.539436 226.412891 
L 289.539436 226.412891 
L 283.942423 226.412891 
z
" style="fill:#ff7f0e;opacity:0.4;"/>
   </g>
   <g id="patch_73">
    <path clip-path="url(#pfa538c0e60)" d="M 289.539436 226.412891 
L 295.136449 226.412891 
L 295.136449 226.412891 
L 289.539436 226.412891 
z
" style="fill:#ff7f0e;opacity:0.4;"/>
   </g>
   <g id="patch_74">
    <path clip-path="url(#pfa538c0e60)" d="M 295.136449 226.412891 
L 300.733462 226.412891 
L 300.733462 226.412891 
L 295.136449 226.412891 
z
" style="fill:#ff7f0e;opacity:0.4;"/>
   </g>
   <g id="patch_75">
    <path clip-path="url(#pfa538c0e60)" d="M 300.733462 226.412891 
L 306.330476 226.412891 
L 306.330476 226.412891 
L 300.733462 226.412891 
z
" style="fill:#ff7f0e;opacity:0.4;"/>
   </g>
   <g id="patch_76">
    <path clip-path="url(#pfa538c0e60)" d="M 306.330476 226.412891 
L 311.927489 226.412891 
L 311.927489 226.412891 
L 306.330476 226.412891 
z
" style="fill:#ff7f0e;opacity:0.4;"/>
   </g>
   <g id="patch_77">
    <path clip-path="url(#pfa538c0e60)" d="M 311.927489 226.412891 
L 317.524502 226.412891 
L 317.524502 226.412891 
L 311.927489 226.412891 
z
" style="fill:#ff7f0e;opacity:0.4;"/>
   </g>
   <g id="patch_78">
    <path clip-path="url(#pfa538c0e60)" d="M 317.524502 226.412891 
L 323.121516 226.412891 
L 323.121516 226.412891 
L 317.524502 226.412891 
z
" style="fill:#ff7f0e;opacity:0.4;"/>
   </g>
   <g id="patch_79">
    <path clip-path="url(#pfa538c0e60)" d="M 323.121516 226.412891 
L 328.718529 226.412891 
L 328.718529 226.412891 
L 323.121516 226.412891 
z
" style="fill:#ff7f0e;opacity:0.4;"/>
   </g>
   <g id="patch_80">
    <path clip-path="url(#pfa538c0e60)" d="M 328.718529 226.412891 
L 334.315542 226.412891 
L 334.315542 226.412891 
L 328.718529 226.412891 
z
" style="fill:#ff7f0e;opacity:0.4;"/>
   </g>
   <g id="patch_81">
    <path clip-path="url(#pfa538c0e60)" d="M 334.315542 226.412891 
L 339.912555 226.412891 
L 339.912555 226.412891 
L 334.315542 226.412891 
z
" style="fill:#ff7f0e;opacity:0.4;"/>
   </g>
   <g id="patch_82">
    <path clip-path="url(#pfa538c0e60)" d="M 339.912555 226.412891 
L 345.509569 226.412891 
L 345.509569 226.412891 
L 339.912555 226.412891 
z
" style="fill:#ff7f0e;opacity:0.4;"/>
   </g>
   <g id="patch_83">
    <path clip-path="url(#pfa538c0e60)" d="M 345.509569 226.412891 
L 351.106582 226.412891 
L 351.106582 226.336092 
L 345.509569 226.336092 
z
" style="fill:#ff7f0e;opacity:0.4;"/>
   </g>
   <g id="patch_84">
    <path clip-path="url(#pfa538c0e60)" d="M 71.255918 226.412891 
L 72.362268 226.412891 
L 72.362268 19.327177 
L 71.255918 19.327177 
z
" style="fill:#2ca02c;opacity:0.4;"/>
   </g>
   <g id="patch_85">
    <path clip-path="url(#pfa538c0e60)" d="M 72.362268 226.412891 
L 73.468617 226.412891 
L 73.468617 201.158536 
L 72.362268 201.158536 
z
" style="fill:#2ca02c;opacity:0.4;"/>
   </g>
   <g id="patch_86">
    <path clip-path="url(#pfa538c0e60)" d="M 73.468617 226.412891 
L 74.574966 226.412891 
L 74.574966 202.71265 
L 73.468617 202.71265 
z
" style="fill:#2ca02c;opacity:0.4;"/>
   </g>
   <g id="patch_87">
    <path clip-path="url(#pfa538c0e60)" d="M 74.574966 226.412891 
L 75.681316 226.412891 
L 75.681316 198.827364 
L 74.574966 198.827364 
z
" style="fill:#2ca02c;opacity:0.4;"/>
   </g>
   <g id="patch_88">
    <path clip-path="url(#pfa538c0e60)" d="M 75.681316 226.412891 
L 76.787665 226.412891 
L 76.787665 208.15205 
L 75.681316 208.15205 
z
" style="fill:#2ca02c;opacity:0.4;"/>
   </g>
   <g id="patch_89">
    <path clip-path="url(#pfa538c0e60)" d="M 76.787665 226.412891 
L 77.894015 226.412891 
L 77.894015 214.757035 
L 76.787665 214.757035 
z
" style="fill:#2ca02c;opacity:0.4;"/>
   </g>
   <g id="patch_90">
    <path clip-path="url(#pfa538c0e60)" d="M 77.894015 226.412891 
L 79.000364 226.412891 
L 79.000364 214.757035 
L 77.894015 214.757035 
z
" style="fill:#2ca02c;opacity:0.4;"/>
   </g>
   <g id="patch_91">
    <path clip-path="url(#pfa538c0e60)" d="M 79.000364 226.412891 
L 80.106714 226.412891 
L 80.106714 222.527606 
L 79.000364 222.527606 
z
" style="fill:#2ca02c;opacity:0.4;"/>
   </g>
   <g id="patch_92">
    <path clip-path="url(#pfa538c0e60)" d="M 80.106714 226.412891 
L 81.213063 226.412891 
L 81.213063 224.08172 
L 80.106714 224.08172 
z
" style="fill:#2ca02c;opacity:0.4;"/>
   </g>
   <g id="patch_93">
    <path clip-path="url(#pfa538c0e60)" d="M 81.213063 226.412891 
L 82.319413 226.412891 
L 82.319413 222.139077 
L 81.213063 222.139077 
z
" style="fill:#2ca02c;opacity:0.4;"/>
   </g>
   <g id="patch_94">
    <path clip-path="url(#pfa538c0e60)" d="M 82.319413 226.412891 
L 83.425762 226.412891 
L 83.425762 223.693191 
L 82.319413 223.693191 
z
" style="fill:#2ca02c;opacity:0.4;"/>
   </g>
   <g id="patch_95">
    <path clip-path="url(#pfa538c0e60)" d="M 83.425762 226.412891 
L 84.532112 226.412891 
L 84.532112 222.916134 
L 83.425762 222.916134 
z
" style="fill:#2ca02c;opacity:0.4;"/>
   </g>
   <g id="patch_96">
    <path clip-path="url(#pfa538c0e60)" d="M 84.532112 226.412891 
L 85.638461 226.412891 
L 85.638461 223.304663 
L 84.532112 223.304663 
z
" style="fill:#2ca02c;opacity:0.4;"/>
   </g>
   <g id="patch_97">
    <path clip-path="url(#pfa538c0e60)" d="M 85.638461 226.412891 
L 86.744811 226.412891 
L 86.744811 223.304663 
L 85.638461 223.304663 
z
" style="fill:#2ca02c;opacity:0.4;"/>
   </g>
   <g id="patch_98">
    <path clip-path="url(#pfa538c0e60)" d="M 86.744811 226.412891 
L 87.85116 226.412891 
L 87.85116 222.527606 
L 86.744811 222.527606 
z
" style="fill:#2ca02c;opacity:0.4;"/>
   </g>
   <g id="patch_99">
    <path clip-path="url(#pfa538c0e60)" d="M 87.85116 226.412891 
L 88.95751 226.412891 
L 88.95751 223.304663 
L 87.85116 223.304663 
z
" style="fill:#2ca02c;opacity:0.4;"/>
   </g>
   <g id="patch_100">
    <path clip-path="url(#pfa538c0e60)" d="M 88.95751 226.412891 
L 90.063859 226.412891 
L 90.063859 223.693191 
L 88.95751 223.693191 
z
" style="fill:#2ca02c;opacity:0.4;"/>
   </g>
   <g id="patch_101">
    <path clip-path="url(#pfa538c0e60)" d="M 90.063859 226.412891 
L 91.170208 226.412891 
L 91.170208 223.304663 
L 90.063859 223.304663 
z
" style="fill:#2ca02c;opacity:0.4;"/>
   </g>
   <g id="patch_102">
    <path clip-path="url(#pfa538c0e60)" d="M 91.170208 226.412891 
L 92.276558 226.412891 
L 92.276558 223.693191 
L 91.170208 223.693191 
z
" style="fill:#2ca02c;opacity:0.4;"/>
   </g>
   <g id="patch_103">
    <path clip-path="url(#pfa538c0e60)" d="M 92.276558 226.412891 
L 93.382907 226.412891 
L 93.382907 224.08172 
L 92.276558 224.08172 
z
" style="fill:#2ca02c;opacity:0.4;"/>
   </g>
   <g id="patch_104">
    <path clip-path="url(#pfa538c0e60)" d="M 93.382907 226.412891 
L 94.489257 226.412891 
L 94.489257 225.635834 
L 93.382907 225.635834 
z
" style="fill:#2ca02c;opacity:0.4;"/>
   </g>
   <g id="patch_105">
    <path clip-path="url(#pfa538c0e60)" d="M 94.489257 226.412891 
L 95.595606 226.412891 
L 95.595606 225.247305 
L 94.489257 225.247305 
z
" style="fill:#2ca02c;opacity:0.4;"/>
   </g>
   <g id="patch_106">
    <path clip-path="url(#pfa538c0e60)" d="M 95.595606 226.412891 
L 96.701956 226.412891 
L 96.701956 224.470248 
L 95.595606 224.470248 
z
" style="fill:#2ca02c;opacity:0.4;"/>
   </g>
   <g id="patch_107">
    <path clip-path="url(#pfa538c0e60)" d="M 96.701956 226.412891 
L 97.808305 226.412891 
L 97.808305 223.304663 
L 96.701956 223.304663 
z
" style="fill:#2ca02c;opacity:0.4;"/>
   </g>
   <g id="patch_108">
    <path clip-path="url(#pfa538c0e60)" d="M 97.808305 226.412891 
L 98.914655 226.412891 
L 98.914655 225.247305 
L 97.808305 225.247305 
z
" style="fill:#2ca02c;opacity:0.4;"/>
   </g>
   <g id="patch_109">
    <path clip-path="url(#pfa538c0e60)" d="M 98.914655 226.412891 
L 100.021004 226.412891 
L 100.021004 224.858777 
L 98.914655 224.858777 
z
" style="fill:#2ca02c;opacity:0.4;"/>
   </g>
   <g id="patch_110">
    <path clip-path="url(#pfa538c0e60)" d="M 100.021004 226.412891 
L 101.127354 226.412891 
L 101.127354 225.635834 
L 100.021004 225.635834 
z
" style="fill:#2ca02c;opacity:0.4;"/>
   </g>
   <g id="patch_111">
    <path clip-path="url(#pfa538c0e60)" d="M 101.127354 226.412891 
L 102.233703 226.412891 
L 102.233703 225.635834 
L 101.127354 225.635834 
z
" style="fill:#2ca02c;opacity:0.4;"/>
   </g>
   <g id="patch_112">
    <path clip-path="url(#pfa538c0e60)" d="M 102.233703 226.412891 
L 103.340053 226.412891 
L 103.340053 224.858777 
L 102.233703 224.858777 
z
" style="fill:#2ca02c;opacity:0.4;"/>
   </g>
   <g id="patch_113">
    <path clip-path="url(#pfa538c0e60)" d="M 103.340053 226.412891 
L 104.446402 226.412891 
L 104.446402 225.247305 
L 103.340053 225.247305 
z
" style="fill:#2ca02c;opacity:0.4;"/>
   </g>
   <g id="patch_114">
    <path clip-path="url(#pfa538c0e60)" d="M 104.446402 226.412891 
L 105.552752 226.412891 
L 105.552752 225.635834 
L 104.446402 225.635834 
z
" style="fill:#2ca02c;opacity:0.4;"/>
   </g>
   <g id="patch_115">
    <path clip-path="url(#pfa538c0e60)" d="M 105.552752 226.412891 
L 106.659101 226.412891 
L 106.659101 225.247305 
L 105.552752 225.247305 
z
" style="fill:#2ca02c;opacity:0.4;"/>
   </g>
   <g id="patch_116">
    <path clip-path="url(#pfa538c0e60)" d="M 106.659101 226.412891 
L 107.76545 226.412891 
L 107.76545 226.024363 
L 106.659101 226.024363 
z
" style="fill:#2ca02c;opacity:0.4;"/>
   </g>
   <g id="patch_117">
    <path clip-path="url(#pfa538c0e60)" d="M 107.76545 226.412891 
L 108.8718 226.412891 
L 108.8718 226.024363 
L 107.76545 226.024363 
z
" style="fill:#2ca02c;opacity:0.4;"/>
   </g>
   <g id="patch_118">
    <path clip-path="url(#pfa538c0e60)" d="M 108.8718 226.412891 
L 109.978149 226.412891 
L 109.978149 226.412891 
L 108.8718 226.412891 
z
" style="fill:#2ca02c;opacity:0.4;"/>
   </g>
   <g id="patch_119">
    <path clip-path="url(#pfa538c0e60)" d="M 109.978149 226.412891 
L 111.084499 226.412891 
L 111.084499 226.412891 
L 109.978149 226.412891 
z
" style="fill:#2ca02c;opacity:0.4;"/>
   </g>
   <g id="patch_120">
    <path clip-path="url(#pfa538c0e60)" d="M 111.084499 226.412891 
L 112.190848 226.412891 
L 112.190848 226.024363 
L 111.084499 226.024363 
z
" style="fill:#2ca02c;opacity:0.4;"/>
   </g>
   <g id="patch_121">
    <path clip-path="url(#pfa538c0e60)" d="M 112.190848 226.412891 
L 113.297198 226.412891 
L 113.297198 226.412891 
L 112.190848 226.412891 
z
" style="fill:#2ca02c;opacity:0.4;"/>
   </g>
   <g id="patch_122">
    <path clip-path="url(#pfa538c0e60)" d="M 113.297198 226.412891 
L 114.403547 226.412891 
L 114.403547 226.412891 
L 113.297198 226.412891 
z
" style="fill:#2ca02c;opacity:0.4;"/>
   </g>
   <g id="patch_123">
    <path clip-path="url(#pfa538c0e60)" d="M 114.403547 226.412891 
L 115.509897 226.412891 
L 115.509897 225.635834 
L 114.403547 225.635834 
z
" style="fill:#2ca02c;opacity:0.4;"/>
   </g>
   <g id="patch_124">
    <path clip-path="url(#pfa538c0e60)" d="M 115.509897 226.412891 
L 116.616246 226.412891 
L 116.616246 225.635834 
L 115.509897 225.635834 
z
" style="fill:#2ca02c;opacity:0.4;"/>
   </g>
   <g id="patch_125">
    <path clip-path="url(#pfa538c0e60)" d="M 116.616246 226.412891 
L 117.722596 226.412891 
L 117.722596 226.024363 
L 116.616246 226.024363 
z
" style="fill:#2ca02c;opacity:0.4;"/>
   </g>
   <g id="patch_126">
    <path clip-path="url(#pfa538c0e60)" d="M 117.722596 226.412891 
L 118.828945 226.412891 
L 118.828945 226.024363 
L 117.722596 226.024363 
z
" style="fill:#2ca02c;opacity:0.4;"/>
   </g>
   <g id="patch_127">
    <path clip-path="url(#pfa538c0e60)" d="M 118.828945 226.412891 
L 119.935295 226.412891 
L 119.935295 226.024363 
L 118.828945 226.024363 
z
" style="fill:#2ca02c;opacity:0.4;"/>
   </g>
   <g id="patch_128">
    <path clip-path="url(#pfa538c0e60)" d="M 119.935295 226.412891 
L 121.041644 226.412891 
L 121.041644 226.024363 
L 119.935295 226.024363 
z
" style="fill:#2ca02c;opacity:0.4;"/>
   </g>
   <g id="patch_129">
    <path clip-path="url(#pfa538c0e60)" d="M 121.041644 226.412891 
L 122.147994 226.412891 
L 122.147994 225.635834 
L 121.041644 225.635834 
z
" style="fill:#2ca02c;opacity:0.4;"/>
   </g>
   <g id="patch_130">
    <path clip-path="url(#pfa538c0e60)" d="M 122.147994 226.412891 
L 123.254343 226.412891 
L 123.254343 226.412891 
L 122.147994 226.412891 
z
" style="fill:#2ca02c;opacity:0.4;"/>
   </g>
   <g id="patch_131">
    <path clip-path="url(#pfa538c0e60)" d="M 123.254343 226.412891 
L 124.360692 226.412891 
L 124.360692 226.024363 
L 123.254343 226.024363 
z
" style="fill:#2ca02c;opacity:0.4;"/>
   </g>
   <g id="patch_132">
    <path clip-path="url(#pfa538c0e60)" d="M 124.360692 226.412891 
L 125.467042 226.412891 
L 125.467042 226.024363 
L 124.360692 226.024363 
z
" style="fill:#2ca02c;opacity:0.4;"/>
   </g>
   <g id="patch_133">
    <path clip-path="url(#pfa538c0e60)" d="M 125.467042 226.412891 
L 126.573391 226.412891 
L 126.573391 225.635834 
L 125.467042 225.635834 
z
" style="fill:#2ca02c;opacity:0.4;"/>
   </g>
   <g id="matplotlib.axis_1">
    <g id="xtick_1">
     <g id="line2d_1">
      <defs>
       <path d="M 0 0 
L 0 3.5 
" id="ma63daedf05" style="stroke:#000000;stroke-width:0.8;"/>
      </defs>
      <g>
       <use style="stroke:#000000;stroke-width:0.8;" x="71.255918" xlink:href="#ma63daedf05" y="226.412891"/>
      </g>
     </g>
     <g id="text_1">
      <!-- 0 -->
      <g transform="translate(68.074668 241.011329)scale(0.1 -0.1)">
       <defs>
        <path d="M 31.78125 66.40625 
Q 24.171875 66.40625 20.328125 58.90625 
Q 16.5 51.421875 16.5 36.375 
Q 16.5 21.390625 20.328125 13.890625 
Q 24.171875 6.390625 31.78125 6.390625 
Q 39.453125 6.390625 43.28125 13.890625 
Q 47.125 21.390625 47.125 36.375 
Q 47.125 51.421875 43.28125 58.90625 
Q 39.453125 66.40625 31.78125 66.40625 
z
M 31.78125 74.21875 
Q 44.046875 74.21875 50.515625 64.515625 
Q 56.984375 54.828125 56.984375 36.375 
Q 56.984375 17.96875 50.515625 8.265625 
Q 44.046875 -1.421875 31.78125 -1.421875 
Q 19.53125 -1.421875 13.0625 8.265625 
Q 6.59375 17.96875 6.59375 36.375 
Q 6.59375 54.828125 13.0625 64.515625 
Q 19.53125 74.21875 31.78125 74.21875 
z
" id="DejaVuSans-48"/>
       </defs>
       <use xlink:href="#DejaVuSans-48"/>
      </g>
     </g>
    </g>
    <g id="xtick_2">
     <g id="line2d_2">
      <g>
       <use style="stroke:#000000;stroke-width:0.8;" x="141.096853" xlink:href="#ma63daedf05" y="226.412891"/>
      </g>
     </g>
     <g id="text_2">
      <!-- 10 -->
      <g transform="translate(134.734353 241.011329)scale(0.1 -0.1)">
       <defs>
        <path d="M 12.40625 8.296875 
L 28.515625 8.296875 
L 28.515625 63.921875 
L 10.984375 60.40625 
L 10.984375 69.390625 
L 28.421875 72.90625 
L 38.28125 72.90625 
L 38.28125 8.296875 
L 54.390625 8.296875 
L 54.390625 0 
L 12.40625 0 
z
" id="DejaVuSans-49"/>
       </defs>
       <use xlink:href="#DejaVuSans-49"/>
       <use x="63.623047" xlink:href="#DejaVuSans-48"/>
      </g>
     </g>
    </g>
    <g id="xtick_3">
     <g id="line2d_3">
      <g>
       <use style="stroke:#000000;stroke-width:0.8;" x="210.937787" xlink:href="#ma63daedf05" y="226.412891"/>
      </g>
     </g>
     <g id="text_3">
      <!-- 20 -->
      <g transform="translate(204.575287 241.011329)scale(0.1 -0.1)">
       <defs>
        <path d="M 19.1875 8.296875 
L 53.609375 8.296875 
L 53.609375 0 
L 7.328125 0 
L 7.328125 8.296875 
Q 12.9375 14.109375 22.625 23.890625 
Q 32.328125 33.6875 34.8125 36.53125 
Q 39.546875 41.84375 41.421875 45.53125 
Q 43.3125 49.21875 43.3125 52.78125 
Q 43.3125 58.59375 39.234375 62.25 
Q 35.15625 65.921875 28.609375 65.921875 
Q 23.96875 65.921875 18.8125 64.3125 
Q 13.671875 62.703125 7.8125 59.421875 
L 7.8125 69.390625 
Q 13.765625 71.78125 18.9375 73 
Q 24.125 74.21875 28.421875 74.21875 
Q 39.75 74.21875 46.484375 68.546875 
Q 53.21875 62.890625 53.21875 53.421875 
Q 53.21875 48.921875 51.53125 44.890625 
Q 49.859375 40.875 45.40625 35.40625 
Q 44.1875 33.984375 37.640625 27.21875 
Q 31.109375 20.453125 19.1875 8.296875 
z
" id="DejaVuSans-50"/>
       </defs>
       <use xlink:href="#DejaVuSans-50"/>
       <use x="63.623047" xlink:href="#DejaVuSans-48"/>
      </g>
     </g>
    </g>
    <g id="xtick_4">
     <g id="line2d_4">
      <g>
       <use style="stroke:#000000;stroke-width:0.8;" x="280.778722" xlink:href="#ma63daedf05" y="226.412891"/>
      </g>
     </g>
     <g id="text_4">
      <!-- 30 -->
      <g transform="translate(274.416222 241.011329)scale(0.1 -0.1)">
       <defs>
        <path d="M 40.578125 39.3125 
Q 47.65625 37.796875 51.625 33 
Q 55.609375 28.21875 55.609375 21.1875 
Q 55.609375 10.40625 48.1875 4.484375 
Q 40.765625 -1.421875 27.09375 -1.421875 
Q 22.515625 -1.421875 17.65625 -0.515625 
Q 12.796875 0.390625 7.625 2.203125 
L 7.625 11.71875 
Q 11.71875 9.328125 16.59375 8.109375 
Q 21.484375 6.890625 26.8125 6.890625 
Q 36.078125 6.890625 40.9375 10.546875 
Q 45.796875 14.203125 45.796875 21.1875 
Q 45.796875 27.640625 41.28125 31.265625 
Q 36.765625 34.90625 28.71875 34.90625 
L 20.21875 34.90625 
L 20.21875 43.015625 
L 29.109375 43.015625 
Q 36.375 43.015625 40.234375 45.921875 
Q 44.09375 48.828125 44.09375 54.296875 
Q 44.09375 59.90625 40.109375 62.90625 
Q 36.140625 65.921875 28.71875 65.921875 
Q 24.65625 65.921875 20.015625 65.03125 
Q 15.375 64.15625 9.8125 62.3125 
L 9.8125 71.09375 
Q 15.4375 72.65625 20.34375 73.4375 
Q 25.25 74.21875 29.59375 74.21875 
Q 40.828125 74.21875 47.359375 69.109375 
Q 53.90625 64.015625 53.90625 55.328125 
Q 53.90625 49.265625 50.4375 45.09375 
Q 46.96875 40.921875 40.578125 39.3125 
z
" id="DejaVuSans-51"/>
       </defs>
       <use xlink:href="#DejaVuSans-51"/>
       <use x="63.623047" xlink:href="#DejaVuSans-48"/>
      </g>
     </g>
    </g>
    <g id="xtick_5">
     <g id="line2d_5">
      <g>
       <use style="stroke:#000000;stroke-width:0.8;" x="350.619656" xlink:href="#ma63daedf05" y="226.412891"/>
      </g>
     </g>
     <g id="text_5">
      <!-- 40 -->
      <g transform="translate(344.257156 241.011329)scale(0.1 -0.1)">
       <defs>
        <path d="M 37.796875 64.3125 
L 12.890625 25.390625 
L 37.796875 25.390625 
z
M 35.203125 72.90625 
L 47.609375 72.90625 
L 47.609375 25.390625 
L 58.015625 25.390625 
L 58.015625 17.1875 
L 47.609375 17.1875 
L 47.609375 0 
L 37.796875 0 
L 37.796875 17.1875 
L 4.890625 17.1875 
L 4.890625 26.703125 
z
" id="DejaVuSans-52"/>
       </defs>
       <use xlink:href="#DejaVuSans-52"/>
       <use x="63.623047" xlink:href="#DejaVuSans-48"/>
      </g>
     </g>
    </g>
    <g id="text_6">
     <!-- f(t) -->
     <g transform="translate(203.559375 254.689454)scale(0.1 -0.1)">
      <defs>
       <path d="M 37.109375 75.984375 
L 37.109375 68.5 
L 28.515625 68.5 
Q 23.6875 68.5 21.796875 66.546875 
Q 19.921875 64.59375 19.921875 59.515625 
L 19.921875 54.6875 
L 34.71875 54.6875 
L 34.71875 47.703125 
L 19.921875 47.703125 
L 19.921875 0 
L 10.890625 0 
L 10.890625 47.703125 
L 2.296875 47.703125 
L 2.296875 54.6875 
L 10.890625 54.6875 
L 10.890625 58.5 
Q 10.890625 67.625 15.140625 71.796875 
Q 19.390625 75.984375 28.609375 75.984375 
z
" id="DejaVuSans-102"/>
       <path d="M 31 75.875 
Q 24.46875 64.65625 21.28125 53.65625 
Q 18.109375 42.671875 18.109375 31.390625 
Q 18.109375 20.125 21.3125 9.0625 
Q 24.515625 -2 31 -13.1875 
L 23.1875 -13.1875 
Q 15.875 -1.703125 12.234375 9.375 
Q 8.59375 20.453125 8.59375 31.390625 
Q 8.59375 42.28125 12.203125 53.3125 
Q 15.828125 64.359375 23.1875 75.875 
z
" id="DejaVuSans-40"/>
       <path d="M 18.3125 70.21875 
L 18.3125 54.6875 
L 36.8125 54.6875 
L 36.8125 47.703125 
L 18.3125 47.703125 
L 18.3125 18.015625 
Q 18.3125 11.328125 20.140625 9.421875 
Q 21.96875 7.515625 27.59375 7.515625 
L 36.8125 7.515625 
L 36.8125 0 
L 27.59375 0 
Q 17.1875 0 13.234375 3.875 
Q 9.28125 7.765625 9.28125 18.015625 
L 9.28125 47.703125 
L 2.6875 47.703125 
L 2.6875 54.6875 
L 9.28125 54.6875 
L 9.28125 70.21875 
z
" id="DejaVuSans-116"/>
       <path d="M 8.015625 75.875 
L 15.828125 75.875 
Q 23.140625 64.359375 26.78125 53.3125 
Q 30.421875 42.28125 30.421875 31.390625 
Q 30.421875 20.453125 26.78125 9.375 
Q 23.140625 -1.703125 15.828125 -13.1875 
L 8.015625 -13.1875 
Q 14.5 -2 17.703125 9.0625 
Q 20.90625 20.125 20.90625 31.390625 
Q 20.90625 42.671875 17.703125 53.65625 
Q 14.5 64.65625 8.015625 75.875 
z
" id="DejaVuSans-41"/>
      </defs>
      <use xlink:href="#DejaVuSans-102"/>
      <use x="35.205078" xlink:href="#DejaVuSans-40"/>
      <use x="74.21875" xlink:href="#DejaVuSans-116"/>
      <use x="113.427734" xlink:href="#DejaVuSans-41"/>
     </g>
    </g>
   </g>
   <g id="matplotlib.axis_2">
    <g id="ytick_1">
     <g id="line2d_6">
      <defs>
       <path d="M 0 0 
L -3.5 0 
" id="m0aba5b414c" style="stroke:#000000;stroke-width:0.8;"/>
      </defs>
      <g>
       <use style="stroke:#000000;stroke-width:0.8;" x="43.78125" xlink:href="#m0aba5b414c" y="226.412891"/>
      </g>
     </g>
     <g id="text_7">
      <!-- 0.0 -->
      <g transform="translate(20.878125 230.21211)scale(0.1 -0.1)">
       <defs>
        <path d="M 10.6875 12.40625 
L 21 12.40625 
L 21 0 
L 10.6875 0 
z
" id="DejaVuSans-46"/>
       </defs>
       <use xlink:href="#DejaVuSans-48"/>
       <use x="63.623047" xlink:href="#DejaVuSans-46"/>
       <use x="95.410156" xlink:href="#DejaVuSans-48"/>
      </g>
     </g>
    </g>
    <g id="ytick_2">
     <g id="line2d_7">
      <g>
       <use style="stroke:#000000;stroke-width:0.8;" x="43.78125" xlink:href="#m0aba5b414c" y="195.639509"/>
      </g>
     </g>
     <g id="text_8">
      <!-- 0.5 -->
      <g transform="translate(20.878125 199.438728)scale(0.1 -0.1)">
       <defs>
        <path d="M 10.796875 72.90625 
L 49.515625 72.90625 
L 49.515625 64.59375 
L 19.828125 64.59375 
L 19.828125 46.734375 
Q 21.96875 47.46875 24.109375 47.828125 
Q 26.265625 48.1875 28.421875 48.1875 
Q 40.625 48.1875 47.75 41.5 
Q 54.890625 34.8125 54.890625 23.390625 
Q 54.890625 11.625 47.5625 5.09375 
Q 40.234375 -1.421875 26.90625 -1.421875 
Q 22.3125 -1.421875 17.546875 -0.640625 
Q 12.796875 0.140625 7.71875 1.703125 
L 7.71875 11.625 
Q 12.109375 9.234375 16.796875 8.0625 
Q 21.484375 6.890625 26.703125 6.890625 
Q 35.15625 6.890625 40.078125 11.328125 
Q 45.015625 15.765625 45.015625 23.390625 
Q 45.015625 31 40.078125 35.4375 
Q 35.15625 39.890625 26.703125 39.890625 
Q 22.75 39.890625 18.8125 39.015625 
Q 14.890625 38.140625 10.796875 36.28125 
z
" id="DejaVuSans-53"/>
       </defs>
       <use xlink:href="#DejaVuSans-48"/>
       <use x="63.623047" xlink:href="#DejaVuSans-46"/>
       <use x="95.410156" xlink:href="#DejaVuSans-53"/>
      </g>
     </g>
    </g>
    <g id="ytick_3">
     <g id="line2d_8">
      <g>
       <use style="stroke:#000000;stroke-width:0.8;" x="43.78125" xlink:href="#m0aba5b414c" y="164.866128"/>
      </g>
     </g>
     <g id="text_9">
      <!-- 1.0 -->
      <g transform="translate(20.878125 168.665346)scale(0.1 -0.1)">
       <use xlink:href="#DejaVuSans-49"/>
       <use x="63.623047" xlink:href="#DejaVuSans-46"/>
       <use x="95.410156" xlink:href="#DejaVuSans-48"/>
      </g>
     </g>
    </g>
    <g id="ytick_4">
     <g id="line2d_9">
      <g>
       <use style="stroke:#000000;stroke-width:0.8;" x="43.78125" xlink:href="#m0aba5b414c" y="134.092746"/>
      </g>
     </g>
     <g id="text_10">
      <!-- 1.5 -->
      <g transform="translate(20.878125 137.891965)scale(0.1 -0.1)">
       <use xlink:href="#DejaVuSans-49"/>
       <use x="63.623047" xlink:href="#DejaVuSans-46"/>
       <use x="95.410156" xlink:href="#DejaVuSans-53"/>
      </g>
     </g>
    </g>
    <g id="ytick_5">
     <g id="line2d_10">
      <g>
       <use style="stroke:#000000;stroke-width:0.8;" x="43.78125" xlink:href="#m0aba5b414c" y="103.319364"/>
      </g>
     </g>
     <g id="text_11">
      <!-- 2.0 -->
      <g transform="translate(20.878125 107.118583)scale(0.1 -0.1)">
       <use xlink:href="#DejaVuSans-50"/>
       <use x="63.623047" xlink:href="#DejaVuSans-46"/>
       <use x="95.410156" xlink:href="#DejaVuSans-48"/>
      </g>
     </g>
    </g>
    <g id="ytick_6">
     <g id="line2d_11">
      <g>
       <use style="stroke:#000000;stroke-width:0.8;" x="43.78125" xlink:href="#m0aba5b414c" y="72.545982"/>
      </g>
     </g>
     <g id="text_12">
      <!-- 2.5 -->
      <g transform="translate(20.878125 76.345201)scale(0.1 -0.1)">
       <use xlink:href="#DejaVuSans-50"/>
       <use x="63.623047" xlink:href="#DejaVuSans-46"/>
       <use x="95.410156" xlink:href="#DejaVuSans-53"/>
      </g>
     </g>
    </g>
    <g id="ytick_7">
     <g id="line2d_12">
      <g>
       <use style="stroke:#000000;stroke-width:0.8;" x="43.78125" xlink:href="#m0aba5b414c" y="41.772601"/>
      </g>
     </g>
     <g id="text_13">
      <!-- 3.0 -->
      <g transform="translate(20.878125 45.571819)scale(0.1 -0.1)">
       <use xlink:href="#DejaVuSans-51"/>
       <use x="63.623047" xlink:href="#DejaVuSans-46"/>
       <use x="95.410156" xlink:href="#DejaVuSans-48"/>
      </g>
     </g>
    </g>
    <g id="ytick_8">
     <g id="line2d_13">
      <g>
       <use style="stroke:#000000;stroke-width:0.8;" x="43.78125" xlink:href="#m0aba5b414c" y="10.999219"/>
      </g>
     </g>
     <g id="text_14">
      <!-- 3.5 -->
      <g transform="translate(20.878125 14.798437)scale(0.1 -0.1)">
       <use xlink:href="#DejaVuSans-51"/>
       <use x="63.623047" xlink:href="#DejaVuSans-46"/>
       <use x="95.410156" xlink:href="#DejaVuSans-53"/>
      </g>
     </g>
    </g>
    <g id="text_15">
     <!-- Density -->
     <g transform="translate(14.798438 136.701485)rotate(-90)scale(0.1 -0.1)">
      <defs>
       <path d="M 19.671875 64.796875 
L 19.671875 8.109375 
L 31.59375 8.109375 
Q 46.6875 8.109375 53.6875 14.9375 
Q 60.6875 21.78125 60.6875 36.53125 
Q 60.6875 51.171875 53.6875 57.984375 
Q 46.6875 64.796875 31.59375 64.796875 
z
M 9.8125 72.90625 
L 30.078125 72.90625 
Q 51.265625 72.90625 61.171875 64.09375 
Q 71.09375 55.28125 71.09375 36.53125 
Q 71.09375 17.671875 61.125 8.828125 
Q 51.171875 0 30.078125 0 
L 9.8125 0 
z
" id="DejaVuSans-68"/>
       <path d="M 56.203125 29.59375 
L 56.203125 25.203125 
L 14.890625 25.203125 
Q 15.484375 15.921875 20.484375 11.0625 
Q 25.484375 6.203125 34.421875 6.203125 
Q 39.59375 6.203125 44.453125 7.46875 
Q 49.3125 8.734375 54.109375 11.28125 
L 54.109375 2.78125 
Q 49.265625 0.734375 44.1875 -0.34375 
Q 39.109375 -1.421875 33.890625 -1.421875 
Q 20.796875 -1.421875 13.15625 6.1875 
Q 5.515625 13.8125 5.515625 26.8125 
Q 5.515625 40.234375 12.765625 48.109375 
Q 20.015625 56 32.328125 56 
Q 43.359375 56 49.78125 48.890625 
Q 56.203125 41.796875 56.203125 29.59375 
z
M 47.21875 32.234375 
Q 47.125 39.59375 43.09375 43.984375 
Q 39.0625 48.390625 32.421875 48.390625 
Q 24.90625 48.390625 20.390625 44.140625 
Q 15.875 39.890625 15.1875 32.171875 
z
" id="DejaVuSans-101"/>
       <path d="M 54.890625 33.015625 
L 54.890625 0 
L 45.90625 0 
L 45.90625 32.71875 
Q 45.90625 40.484375 42.875 44.328125 
Q 39.84375 48.1875 33.796875 48.1875 
Q 26.515625 48.1875 22.3125 43.546875 
Q 18.109375 38.921875 18.109375 30.90625 
L 18.109375 0 
L 9.078125 0 
L 9.078125 54.6875 
L 18.109375 54.6875 
L 18.109375 46.1875 
Q 21.34375 51.125 25.703125 53.5625 
Q 30.078125 56 35.796875 56 
Q 45.21875 56 50.046875 50.171875 
Q 54.890625 44.34375 54.890625 33.015625 
z
" id="DejaVuSans-110"/>
       <path d="M 44.28125 53.078125 
L 44.28125 44.578125 
Q 40.484375 46.53125 36.375 47.5 
Q 32.28125 48.484375 27.875 48.484375 
Q 21.1875 48.484375 17.84375 46.4375 
Q 14.5 44.390625 14.5 40.28125 
Q 14.5 37.15625 16.890625 35.375 
Q 19.28125 33.59375 26.515625 31.984375 
L 29.59375 31.296875 
Q 39.15625 29.25 43.1875 25.515625 
Q 47.21875 21.78125 47.21875 15.09375 
Q 47.21875 7.46875 41.1875 3.015625 
Q 35.15625 -1.421875 24.609375 -1.421875 
Q 20.21875 -1.421875 15.453125 -0.5625 
Q 10.6875 0.296875 5.421875 2 
L 5.421875 11.28125 
Q 10.40625 8.6875 15.234375 7.390625 
Q 20.0625 6.109375 24.8125 6.109375 
Q 31.15625 6.109375 34.5625 8.28125 
Q 37.984375 10.453125 37.984375 14.40625 
Q 37.984375 18.0625 35.515625 20.015625 
Q 33.0625 21.96875 24.703125 23.78125 
L 21.578125 24.515625 
Q 13.234375 26.265625 9.515625 29.90625 
Q 5.8125 33.546875 5.8125 39.890625 
Q 5.8125 47.609375 11.28125 51.796875 
Q 16.75 56 26.8125 56 
Q 31.78125 56 36.171875 55.265625 
Q 40.578125 54.546875 44.28125 53.078125 
z
" id="DejaVuSans-115"/>
       <path d="M 9.421875 54.6875 
L 18.40625 54.6875 
L 18.40625 0 
L 9.421875 0 
z
M 9.421875 75.984375 
L 18.40625 75.984375 
L 18.40625 64.59375 
L 9.421875 64.59375 
z
" id="DejaVuSans-105"/>
       <path d="M 32.171875 -5.078125 
Q 28.375 -14.84375 24.75 -17.8125 
Q 21.140625 -20.796875 15.09375 -20.796875 
L 7.90625 -20.796875 
L 7.90625 -13.28125 
L 13.1875 -13.28125 
Q 16.890625 -13.28125 18.9375 -11.515625 
Q 21 -9.765625 23.484375 -3.21875 
L 25.09375 0.875 
L 2.984375 54.6875 
L 12.5 54.6875 
L 29.59375 11.921875 
L 46.6875 54.6875 
L 56.203125 54.6875 
z
" id="DejaVuSans-121"/>
      </defs>
      <use xlink:href="#DejaVuSans-68"/>
      <use x="77.001953" xlink:href="#DejaVuSans-101"/>
      <use x="138.525391" xlink:href="#DejaVuSans-110"/>
      <use x="201.904297" xlink:href="#DejaVuSans-115"/>
      <use x="254.003906" xlink:href="#DejaVuSans-105"/>
      <use x="281.787109" xlink:href="#DejaVuSans-116"/>
      <use x="320.996094" xlink:href="#DejaVuSans-121"/>
     </g>
    </g>
   </g>
   <g id="line2d_14">
    <path clip-path="url(#pfa538c0e60)" d="M 63.443277 226.409446 
L 67.106039 226.292556 
L 68.479574 226.084437 
L 69.85311 225.650093 
L 70.768801 225.18077 
L 71.684491 224.537945 
L 73.058027 223.225546 
L 74.431563 221.516256 
L 76.262944 218.762895 
L 82.672777 208.485616 
L 84.046313 206.812478 
L 84.962004 206.082373 
L 85.877694 205.790031 
L 86.335539 205.830084 
L 86.793385 205.997122 
L 87.709075 206.689508 
L 88.624766 207.775167 
L 90.456147 210.535715 
L 92.287528 213.183437 
L 93.661063 214.763387 
L 95.034599 215.982587 
L 96.86598 217.239657 
L 99.155206 218.785176 
L 102.817968 221.438671 
L 104.191504 222.07941 
L 106.48073 222.804778 
L 111.974873 224.329135 
L 115.637635 224.903821 
L 119.758243 225.375572 
L 127.541612 225.968816 
L 154.554482 226.411717 
L 154.554482 226.411717 
" style="fill:none;stroke:#1f77b4;stroke-linecap:square;stroke-width:1.5;"/>
   </g>
   <g id="line2d_15">
    <path clip-path="url(#pfa538c0e60)" d="M 58.999432 226.319921 
L 60.528897 226.124445 
L 62.058363 225.627661 
L 63.587828 224.533767 
L 65.117294 222.450493 
L 66.646759 219.029217 
L 68.176225 214.210284 
L 71.235156 202.744467 
L 72.764621 198.339211 
L 74.294087 196.257183 
L 75.823552 196.89107 
L 77.353018 199.89168 
L 78.882483 204.375496 
L 80.411949 209.304352 
L 81.941414 213.836259 
L 83.47088 217.507011 
L 85.000345 220.216752 
L 86.529811 222.095427 
L 88.059276 223.353009 
L 89.588742 224.18277 
L 91.118208 224.726807 
L 92.647673 225.079381 
L 95.706604 225.438653 
L 100.295001 225.610687 
L 123.236983 226.066195 
L 137.002173 226.15322 
L 153.826293 226.365733 
L 182.886138 226.35925 
L 195.121862 226.400728 
L 211.945983 226.397749 
L 236.417431 226.412891 
L 363.363068 226.412425 
L 363.363068 226.412425 
" style="fill:none;stroke:#ff7f0e;stroke-linecap:square;stroke-width:1.5;"/>
   </g>
   <g id="line2d_16">
    <path clip-path="url(#pfa538c0e60)" d="M 64.574696 225.986131 
L 65.264947 225.373514 
L 65.610072 224.847392 
L 65.955197 224.109959 
L 66.645447 221.769047 
L 67.335698 217.885969 
L 68.025948 212.145566 
L 69.061324 200.410775 
L 70.441825 184.020566 
L 71.132075 178.72956 
L 71.4772 177.318998 
L 71.822326 176.801665 
L 72.167451 177.156045 
L 72.512576 178.306069 
L 73.202826 182.485759 
L 76.308953 206.326886 
L 77.344329 211.400725 
L 78.379705 215.305105 
L 79.41508 218.306605 
L 80.450456 220.468738 
L 81.140706 221.46817 
L 81.830957 222.158573 
L 82.521207 222.599629 
L 83.556583 222.939269 
L 84.937084 223.085094 
L 88.388336 223.315972 
L 90.804212 223.762302 
L 94.60059 224.592578 
L 96.671341 224.602829 
L 98.051842 224.688763 
L 102.883595 225.3184 
L 105.299471 225.522274 
L 110.476349 226.213819 
L 112.892226 226.166166 
L 117.723979 225.94341 
L 126.006984 226.125416 
L 132.219238 226.408458 
L 133.254613 226.411744 
L 133.254613 226.411744 
" style="fill:none;stroke:#2ca02c;stroke-linecap:square;stroke-width:1.5;"/>
   </g>
   <g id="patch_134">
    <path d="M 43.78125 226.412891 
L 43.78125 8.972891 
" style="fill:none;stroke:#000000;stroke-linecap:square;stroke-linejoin:miter;stroke-width:0.8;"/>
   </g>
   <g id="patch_135">
    <path d="M 378.58125 226.412891 
L 378.58125 8.972891 
" style="fill:none;stroke:#000000;stroke-linecap:square;stroke-linejoin:miter;stroke-width:0.8;"/>
   </g>
   <g id="patch_136">
    <path d="M 43.78125 226.412891 
L 378.58125 226.412891 
" style="fill:none;stroke:#000000;stroke-linecap:square;stroke-linejoin:miter;stroke-width:0.8;"/>
   </g>
   <g id="patch_137">
    <path d="M 43.78125 8.972891 
L 378.58125 8.972891 
" style="fill:none;stroke:#000000;stroke-linecap:square;stroke-linejoin:miter;stroke-width:0.8;"/>
   </g>
  </g>
 </g>
 <defs>
  <clipPath id="pfa538c0e60">
   <rect height="217.44" width="334.8" x="43.78125" y="8.972891"/>
  </clipPath>
 </defs>
</svg>
