<?xml version="1.0" encoding="utf-8" standalone="no"?>
<!DOCTYPE svg PUBLIC "-//W3C//DTD SVG 1.1//EN"
  "http://www.w3.org/Graphics/SVG/1.1/DTD/svg11.dtd">
<svg height="263.071398pt" version="1.1" viewBox="0 0 385.78125 263.071398" width="385.78125pt" xmlns="http://www.w3.org/2000/svg" xmlns:xlink="http://www.w3.org/1999/xlink">
 <metadata>
  <rdf:RDF xmlns:cc="http://creativecommons.org/ns#" xmlns:dc="http://purl.org/dc/elements/1.1/" xmlns:rdf="http://www.w3.org/1999/02/22-rdf-syntax-ns#">
   <cc:Work>
    <dc:type rdf:resource="http://purl.org/dc/dcmitype/StillImage"/>
    <dc:date>2021-03-29T10:57:46.786297</dc:date>
    <dc:format>image/svg+xml</dc:format>
    <dc:creator>
     <cc:Agent>
      <dc:title>Matplotlib v3.4.0, https://matplotlib.org/</dc:title>
     </cc:Agent>
    </dc:creator>
   </cc:Work>
  </rdf:RDF>
 </metadata>
 <defs>
  <style type="text/css">*{stroke-linecap:butt;stroke-linejoin:round;}</style>
 </defs>
 <g id="figure_1">
  <g id="patch_1">
   <path d="M 0 263.071398 
L 385.78125 263.071398 
L 385.78125 0 
L 0 0 
z
" style="fill:none;"/>
  </g>
  <g id="axes_1">
   <g id="patch_2">
    <path d="M 43.78125 225.515148 
L 378.58125 225.515148 
L 378.58125 8.075148 
L 43.78125 8.075148 
z
" style="fill:#ffffff;"/>
   </g>
   <g id="patch_3">
    <path clip-path="url(#pf895f0b489)" d="M 79.835865 225.515148 
L 84.205944 225.515148 
L 84.205944 222.732312 
L 79.835865 222.732312 
z
" style="fill:#1f77b4;opacity:0.4;"/>
   </g>
   <g id="patch_4">
    <path clip-path="url(#pf895f0b489)" d="M 84.205944 225.515148 
L 88.576022 225.515148 
L 88.576022 216.888357 
L 84.205944 216.888357 
z
" style="fill:#1f77b4;opacity:0.4;"/>
   </g>
   <g id="patch_5">
    <path clip-path="url(#pf895f0b489)" d="M 88.576022 225.515148 
L 92.946101 225.515148 
L 92.946101 214.940372 
L 88.576022 214.940372 
z
" style="fill:#1f77b4;opacity:0.4;"/>
   </g>
   <g id="patch_6">
    <path clip-path="url(#pf895f0b489)" d="M 92.946101 225.515148 
L 97.31618 225.515148 
L 97.31618 209.931268 
L 92.946101 209.931268 
z
" style="fill:#1f77b4;opacity:0.4;"/>
   </g>
   <g id="patch_7">
    <path clip-path="url(#pf895f0b489)" d="M 97.31618 225.515148 
L 101.686259 225.515148 
L 101.686259 201.861045 
L 97.31618 201.861045 
z
" style="fill:#1f77b4;opacity:0.4;"/>
   </g>
   <g id="patch_8">
    <path clip-path="url(#pf895f0b489)" d="M 101.686259 225.515148 
L 106.056338 225.515148 
L 106.056338 199.078209 
L 101.686259 199.078209 
z
" style="fill:#1f77b4;opacity:0.4;"/>
   </g>
   <g id="patch_9">
    <path clip-path="url(#pf895f0b489)" d="M 106.056338 225.515148 
L 110.426417 225.515148 
L 110.426417 189.338284 
L 106.056338 189.338284 
z
" style="fill:#1f77b4;opacity:0.4;"/>
   </g>
   <g id="patch_10">
    <path clip-path="url(#pf895f0b489)" d="M 110.426417 225.515148 
L 114.796496 225.515148 
L 114.796496 191.842836 
L 110.426417 191.842836 
z
" style="fill:#1f77b4;opacity:0.4;"/>
   </g>
   <g id="patch_11">
    <path clip-path="url(#pf895f0b489)" d="M 114.796496 225.515148 
L 119.166574 225.515148 
L 119.166574 202.695895 
L 114.796496 202.695895 
z
" style="fill:#1f77b4;opacity:0.4;"/>
   </g>
   <g id="patch_12">
    <path clip-path="url(#pf895f0b489)" d="M 119.166574 225.515148 
L 123.536653 225.515148 
L 123.536653 201.582761 
L 119.166574 201.582761 
z
" style="fill:#1f77b4;opacity:0.4;"/>
   </g>
   <g id="patch_13">
    <path clip-path="url(#pf895f0b489)" d="M 123.536653 225.515148 
L 127.906732 225.515148 
L 127.906732 210.209552 
L 123.536653 210.209552 
z
" style="fill:#1f77b4;opacity:0.4;"/>
   </g>
   <g id="patch_14">
    <path clip-path="url(#pf895f0b489)" d="M 127.906732 225.515148 
L 132.276811 225.515148 
L 132.276811 212.992387 
L 127.906732 212.992387 
z
" style="fill:#1f77b4;opacity:0.4;"/>
   </g>
   <g id="patch_15">
    <path clip-path="url(#pf895f0b489)" d="M 132.276811 225.515148 
L 136.64689 225.515148 
L 136.64689 211.044402 
L 132.276811 211.044402 
z
" style="fill:#1f77b4;opacity:0.4;"/>
   </g>
   <g id="patch_16">
    <path clip-path="url(#pf895f0b489)" d="M 136.64689 225.515148 
L 141.016969 225.515148 
L 141.016969 222.732312 
L 136.64689 222.732312 
z
" style="fill:#1f77b4;opacity:0.4;"/>
   </g>
   <g id="patch_17">
    <path clip-path="url(#pf895f0b489)" d="M 141.016969 225.515148 
L 145.387048 225.515148 
L 145.387048 221.619178 
L 141.016969 221.619178 
z
" style="fill:#1f77b4;opacity:0.4;"/>
   </g>
   <g id="patch_18">
    <path clip-path="url(#pf895f0b489)" d="M 145.387048 225.515148 
L 149.757126 225.515148 
L 149.757126 221.062611 
L 145.387048 221.062611 
z
" style="fill:#1f77b4;opacity:0.4;"/>
   </g>
   <g id="patch_19">
    <path clip-path="url(#pf895f0b489)" d="M 149.757126 225.515148 
L 154.127205 225.515148 
L 154.127205 224.402014 
L 149.757126 224.402014 
z
" style="fill:#1f77b4;opacity:0.4;"/>
   </g>
   <g id="patch_20">
    <path clip-path="url(#pf895f0b489)" d="M 154.127205 225.515148 
L 158.497284 225.515148 
L 158.497284 223.845447 
L 154.127205 223.845447 
z
" style="fill:#1f77b4;opacity:0.4;"/>
   </g>
   <g id="patch_21">
    <path clip-path="url(#pf895f0b489)" d="M 158.497284 225.515148 
L 162.867363 225.515148 
L 162.867363 223.845447 
L 158.497284 223.845447 
z
" style="fill:#1f77b4;opacity:0.4;"/>
   </g>
   <g id="patch_22">
    <path clip-path="url(#pf895f0b489)" d="M 162.867363 225.515148 
L 167.237442 225.515148 
L 167.237442 223.28888 
L 162.867363 223.28888 
z
" style="fill:#1f77b4;opacity:0.4;"/>
   </g>
   <g id="patch_23">
    <path clip-path="url(#pf895f0b489)" d="M 167.237442 225.515148 
L 171.607521 225.515148 
L 171.607521 223.845447 
L 167.237442 223.845447 
z
" style="fill:#1f77b4;opacity:0.4;"/>
   </g>
   <g id="patch_24">
    <path clip-path="url(#pf895f0b489)" d="M 171.607521 225.515148 
L 175.9776 225.515148 
L 175.9776 223.845447 
L 171.607521 223.845447 
z
" style="fill:#1f77b4;opacity:0.4;"/>
   </g>
   <g id="patch_25">
    <path clip-path="url(#pf895f0b489)" d="M 175.9776 225.515148 
L 180.347678 225.515148 
L 180.347678 224.402014 
L 175.9776 224.402014 
z
" style="fill:#1f77b4;opacity:0.4;"/>
   </g>
   <g id="patch_26">
    <path clip-path="url(#pf895f0b489)" d="M 180.347678 225.515148 
L 184.717757 225.515148 
L 184.717757 222.732312 
L 180.347678 222.732312 
z
" style="fill:#1f77b4;opacity:0.4;"/>
   </g>
   <g id="patch_27">
    <path clip-path="url(#pf895f0b489)" d="M 184.717757 225.515148 
L 189.087836 225.515148 
L 189.087836 224.680297 
L 184.717757 224.680297 
z
" style="fill:#1f77b4;opacity:0.4;"/>
   </g>
   <g id="patch_28">
    <path clip-path="url(#pf895f0b489)" d="M 189.087836 225.515148 
L 193.457915 225.515148 
L 193.457915 224.680297 
L 189.087836 224.680297 
z
" style="fill:#1f77b4;opacity:0.4;"/>
   </g>
   <g id="patch_29">
    <path clip-path="url(#pf895f0b489)" d="M 193.457915 225.515148 
L 197.827994 225.515148 
L 197.827994 224.958581 
L 193.457915 224.958581 
z
" style="fill:#1f77b4;opacity:0.4;"/>
   </g>
   <g id="patch_30">
    <path clip-path="url(#pf895f0b489)" d="M 197.827994 225.515148 
L 202.198073 225.515148 
L 202.198073 225.515148 
L 197.827994 225.515148 
z
" style="fill:#1f77b4;opacity:0.4;"/>
   </g>
   <g id="patch_31">
    <path clip-path="url(#pf895f0b489)" d="M 202.198073 225.515148 
L 206.568152 225.515148 
L 206.568152 224.402014 
L 202.198073 224.402014 
z
" style="fill:#1f77b4;opacity:0.4;"/>
   </g>
   <g id="patch_32">
    <path clip-path="url(#pf895f0b489)" d="M 206.568152 225.515148 
L 210.938231 225.515148 
L 210.938231 224.958581 
L 206.568152 224.958581 
z
" style="fill:#1f77b4;opacity:0.4;"/>
   </g>
   <g id="patch_33">
    <path clip-path="url(#pf895f0b489)" d="M 210.938231 225.515148 
L 215.308309 225.515148 
L 215.308309 225.515148 
L 210.938231 225.515148 
z
" style="fill:#1f77b4;opacity:0.4;"/>
   </g>
   <g id="patch_34">
    <path clip-path="url(#pf895f0b489)" d="M 215.308309 225.515148 
L 219.678388 225.515148 
L 219.678388 224.958581 
L 215.308309 224.958581 
z
" style="fill:#1f77b4;opacity:0.4;"/>
   </g>
   <g id="patch_35">
    <path clip-path="url(#pf895f0b489)" d="M 219.678388 225.515148 
L 224.048467 225.515148 
L 224.048467 224.680297 
L 219.678388 224.680297 
z
" style="fill:#1f77b4;opacity:0.4;"/>
   </g>
   <g id="patch_36">
    <path clip-path="url(#pf895f0b489)" d="M 224.048467 225.515148 
L 228.418546 225.515148 
L 228.418546 225.515148 
L 224.048467 225.515148 
z
" style="fill:#1f77b4;opacity:0.4;"/>
   </g>
   <g id="patch_37">
    <path clip-path="url(#pf895f0b489)" d="M 228.418546 225.515148 
L 232.788625 225.515148 
L 232.788625 225.515148 
L 228.418546 225.515148 
z
" style="fill:#1f77b4;opacity:0.4;"/>
   </g>
   <g id="patch_38">
    <path clip-path="url(#pf895f0b489)" d="M 232.788625 225.515148 
L 237.158704 225.515148 
L 237.158704 224.958581 
L 232.788625 224.958581 
z
" style="fill:#1f77b4;opacity:0.4;"/>
   </g>
   <g id="patch_39">
    <path clip-path="url(#pf895f0b489)" d="M 237.158704 225.515148 
L 241.528783 225.515148 
L 241.528783 225.236865 
L 237.158704 225.236865 
z
" style="fill:#1f77b4;opacity:0.4;"/>
   </g>
   <g id="patch_40">
    <path clip-path="url(#pf895f0b489)" d="M 241.528783 225.515148 
L 245.898861 225.515148 
L 245.898861 225.515148 
L 241.528783 225.515148 
z
" style="fill:#1f77b4;opacity:0.4;"/>
   </g>
   <g id="patch_41">
    <path clip-path="url(#pf895f0b489)" d="M 245.898861 225.515148 
L 250.26894 225.515148 
L 250.26894 225.515148 
L 245.898861 225.515148 
z
" style="fill:#1f77b4;opacity:0.4;"/>
   </g>
   <g id="patch_42">
    <path clip-path="url(#pf895f0b489)" d="M 250.26894 225.515148 
L 254.639019 225.515148 
L 254.639019 225.515148 
L 250.26894 225.515148 
z
" style="fill:#1f77b4;opacity:0.4;"/>
   </g>
   <g id="patch_43">
    <path clip-path="url(#pf895f0b489)" d="M 254.639019 225.515148 
L 259.009098 225.515148 
L 259.009098 225.515148 
L 254.639019 225.515148 
z
" style="fill:#1f77b4;opacity:0.4;"/>
   </g>
   <g id="patch_44">
    <path clip-path="url(#pf895f0b489)" d="M 259.009098 225.515148 
L 263.379177 225.515148 
L 263.379177 225.236865 
L 259.009098 225.236865 
z
" style="fill:#1f77b4;opacity:0.4;"/>
   </g>
   <g id="patch_45">
    <path clip-path="url(#pf895f0b489)" d="M 263.379177 225.515148 
L 267.749256 225.515148 
L 267.749256 225.236865 
L 263.379177 225.236865 
z
" style="fill:#1f77b4;opacity:0.4;"/>
   </g>
   <g id="patch_46">
    <path clip-path="url(#pf895f0b489)" d="M 78.858035 225.515148 
L 84.150964 225.515148 
L 84.150964 138.894355 
L 78.858035 138.894355 
z
" style="fill:#ff7f0e;opacity:0.4;"/>
   </g>
   <g id="patch_47">
    <path clip-path="url(#pf895f0b489)" d="M 84.150964 225.515148 
L 89.443892 225.515148 
L 89.443892 167.385013 
L 84.150964 167.385013 
z
" style="fill:#ff7f0e;opacity:0.4;"/>
   </g>
   <g id="patch_48">
    <path clip-path="url(#pf895f0b489)" d="M 89.443892 225.515148 
L 94.736821 225.515148 
L 94.736821 183.46845 
L 89.443892 183.46845 
z
" style="fill:#ff7f0e;opacity:0.4;"/>
   </g>
   <g id="patch_49">
    <path clip-path="url(#pf895f0b489)" d="M 94.736821 225.515148 
L 100.02975 225.515148 
L 100.02975 215.865086 
L 94.736821 215.865086 
z
" style="fill:#ff7f0e;opacity:0.4;"/>
   </g>
   <g id="patch_50">
    <path clip-path="url(#pf895f0b489)" d="M 100.02975 225.515148 
L 105.322678 225.515148 
L 105.322678 216.324613 
L 100.02975 216.324613 
z
" style="fill:#ff7f0e;opacity:0.4;"/>
   </g>
   <g id="patch_51">
    <path clip-path="url(#pf895f0b489)" d="M 105.322678 225.515148 
L 110.615607 225.515148 
L 110.615607 223.447278 
L 105.322678 223.447278 
z
" style="fill:#ff7f0e;opacity:0.4;"/>
   </g>
   <g id="patch_52">
    <path clip-path="url(#pf895f0b489)" d="M 110.615607 225.515148 
L 115.908535 225.515148 
L 115.908535 222.757988 
L 110.615607 222.757988 
z
" style="fill:#ff7f0e;opacity:0.4;"/>
   </g>
   <g id="patch_53">
    <path clip-path="url(#pf895f0b489)" d="M 115.908535 225.515148 
L 121.201464 225.515148 
L 121.201464 223.447278 
L 115.908535 223.447278 
z
" style="fill:#ff7f0e;opacity:0.4;"/>
   </g>
   <g id="patch_54">
    <path clip-path="url(#pf895f0b489)" d="M 121.201464 225.515148 
L 126.494393 225.515148 
L 126.494393 224.136568 
L 121.201464 224.136568 
z
" style="fill:#ff7f0e;opacity:0.4;"/>
   </g>
   <g id="patch_55">
    <path clip-path="url(#pf895f0b489)" d="M 126.494393 225.515148 
L 131.787321 225.515148 
L 131.787321 223.447278 
L 126.494393 223.447278 
z
" style="fill:#ff7f0e;opacity:0.4;"/>
   </g>
   <g id="patch_56">
    <path clip-path="url(#pf895f0b489)" d="M 131.787321 225.515148 
L 137.08025 225.515148 
L 137.08025 224.825858 
L 131.787321 224.825858 
z
" style="fill:#ff7f0e;opacity:0.4;"/>
   </g>
   <g id="patch_57">
    <path clip-path="url(#pf895f0b489)" d="M 137.08025 225.515148 
L 142.373178 225.515148 
L 142.373178 225.055621 
L 137.08025 225.055621 
z
" style="fill:#ff7f0e;opacity:0.4;"/>
   </g>
   <g id="patch_58">
    <path clip-path="url(#pf895f0b489)" d="M 142.373178 225.515148 
L 147.666107 225.515148 
L 147.666107 223.447278 
L 142.373178 223.447278 
z
" style="fill:#ff7f0e;opacity:0.4;"/>
   </g>
   <g id="patch_59">
    <path clip-path="url(#pf895f0b489)" d="M 147.666107 225.515148 
L 152.959036 225.515148 
L 152.959036 225.055621 
L 147.666107 225.055621 
z
" style="fill:#ff7f0e;opacity:0.4;"/>
   </g>
   <g id="patch_60">
    <path clip-path="url(#pf895f0b489)" d="M 152.959036 225.515148 
L 158.251964 225.515148 
L 158.251964 224.366331 
L 152.959036 224.366331 
z
" style="fill:#ff7f0e;opacity:0.4;"/>
   </g>
   <g id="patch_61">
    <path clip-path="url(#pf895f0b489)" d="M 158.251964 225.515148 
L 163.544893 225.515148 
L 163.544893 223.677041 
L 158.251964 223.677041 
z
" style="fill:#ff7f0e;opacity:0.4;"/>
   </g>
   <g id="patch_62">
    <path clip-path="url(#pf895f0b489)" d="M 163.544893 225.515148 
L 168.837821 225.515148 
L 168.837821 225.055621 
L 163.544893 225.055621 
z
" style="fill:#ff7f0e;opacity:0.4;"/>
   </g>
   <g id="patch_63">
    <path clip-path="url(#pf895f0b489)" d="M 168.837821 225.515148 
L 174.13075 225.515148 
L 174.13075 223.906805 
L 168.837821 223.906805 
z
" style="fill:#ff7f0e;opacity:0.4;"/>
   </g>
   <g id="patch_64">
    <path clip-path="url(#pf895f0b489)" d="M 174.13075 225.515148 
L 179.423678 225.515148 
L 179.423678 224.825858 
L 174.13075 224.825858 
z
" style="fill:#ff7f0e;opacity:0.4;"/>
   </g>
   <g id="patch_65">
    <path clip-path="url(#pf895f0b489)" d="M 179.423678 225.515148 
L 184.716607 225.515148 
L 184.716607 224.825858 
L 179.423678 224.825858 
z
" style="fill:#ff7f0e;opacity:0.4;"/>
   </g>
   <g id="patch_66">
    <path clip-path="url(#pf895f0b489)" d="M 184.716607 225.515148 
L 190.009536 225.515148 
L 190.009536 225.285385 
L 184.716607 225.285385 
z
" style="fill:#ff7f0e;opacity:0.4;"/>
   </g>
   <g id="patch_67">
    <path clip-path="url(#pf895f0b489)" d="M 190.009536 225.515148 
L 195.302464 225.515148 
L 195.302464 225.515148 
L 190.009536 225.515148 
z
" style="fill:#ff7f0e;opacity:0.4;"/>
   </g>
   <g id="patch_68">
    <path clip-path="url(#pf895f0b489)" d="M 195.302464 225.515148 
L 200.595393 225.515148 
L 200.595393 224.825858 
L 195.302464 224.825858 
z
" style="fill:#ff7f0e;opacity:0.4;"/>
   </g>
   <g id="patch_69">
    <path clip-path="url(#pf895f0b489)" d="M 200.595393 225.515148 
L 205.888321 225.515148 
L 205.888321 225.515148 
L 200.595393 225.515148 
z
" style="fill:#ff7f0e;opacity:0.4;"/>
   </g>
   <g id="patch_70">
    <path clip-path="url(#pf895f0b489)" d="M 205.888321 225.515148 
L 211.18125 225.515148 
L 211.18125 225.515148 
L 205.888321 225.515148 
z
" style="fill:#ff7f0e;opacity:0.4;"/>
   </g>
   <g id="patch_71">
    <path clip-path="url(#pf895f0b489)" d="M 211.18125 225.515148 
L 216.474179 225.515148 
L 216.474179 225.055621 
L 211.18125 225.055621 
z
" style="fill:#ff7f0e;opacity:0.4;"/>
   </g>
   <g id="patch_72">
    <path clip-path="url(#pf895f0b489)" d="M 216.474179 225.515148 
L 221.767107 225.515148 
L 221.767107 225.285385 
L 216.474179 225.285385 
z
" style="fill:#ff7f0e;opacity:0.4;"/>
   </g>
   <g id="patch_73">
    <path clip-path="url(#pf895f0b489)" d="M 221.767107 225.515148 
L 227.060036 225.515148 
L 227.060036 225.515148 
L 221.767107 225.515148 
z
" style="fill:#ff7f0e;opacity:0.4;"/>
   </g>
   <g id="patch_74">
    <path clip-path="url(#pf895f0b489)" d="M 227.060036 225.515148 
L 232.352964 225.515148 
L 232.352964 225.055621 
L 227.060036 225.055621 
z
" style="fill:#ff7f0e;opacity:0.4;"/>
   </g>
   <g id="patch_75">
    <path clip-path="url(#pf895f0b489)" d="M 232.352964 225.515148 
L 237.645893 225.515148 
L 237.645893 225.515148 
L 232.352964 225.515148 
z
" style="fill:#ff7f0e;opacity:0.4;"/>
   </g>
   <g id="patch_76">
    <path clip-path="url(#pf895f0b489)" d="M 237.645893 225.515148 
L 242.938822 225.515148 
L 242.938822 225.515148 
L 237.645893 225.515148 
z
" style="fill:#ff7f0e;opacity:0.4;"/>
   </g>
   <g id="patch_77">
    <path clip-path="url(#pf895f0b489)" d="M 242.938822 225.515148 
L 248.23175 225.515148 
L 248.23175 225.515148 
L 242.938822 225.515148 
z
" style="fill:#ff7f0e;opacity:0.4;"/>
   </g>
   <g id="patch_78">
    <path clip-path="url(#pf895f0b489)" d="M 248.23175 225.515148 
L 253.524679 225.515148 
L 253.524679 225.285385 
L 248.23175 225.285385 
z
" style="fill:#ff7f0e;opacity:0.4;"/>
   </g>
   <g id="patch_79">
    <path clip-path="url(#pf895f0b489)" d="M 253.524679 225.515148 
L 258.817607 225.515148 
L 258.817607 225.055621 
L 253.524679 225.055621 
z
" style="fill:#ff7f0e;opacity:0.4;"/>
   </g>
   <g id="patch_80">
    <path clip-path="url(#pf895f0b489)" d="M 258.817607 225.515148 
L 264.110536 225.515148 
L 264.110536 225.515148 
L 258.817607 225.515148 
z
" style="fill:#ff7f0e;opacity:0.4;"/>
   </g>
   <g id="patch_81">
    <path clip-path="url(#pf895f0b489)" d="M 264.110536 225.515148 
L 269.403464 225.515148 
L 269.403464 225.515148 
L 264.110536 225.515148 
z
" style="fill:#ff7f0e;opacity:0.4;"/>
   </g>
   <g id="patch_82">
    <path clip-path="url(#pf895f0b489)" d="M 269.403464 225.515148 
L 274.696393 225.515148 
L 274.696393 225.515148 
L 269.403464 225.515148 
z
" style="fill:#ff7f0e;opacity:0.4;"/>
   </g>
   <g id="patch_83">
    <path clip-path="url(#pf895f0b489)" d="M 274.696393 225.515148 
L 279.989322 225.515148 
L 279.989322 225.515148 
L 274.696393 225.515148 
z
" style="fill:#ff7f0e;opacity:0.4;"/>
   </g>
   <g id="patch_84">
    <path clip-path="url(#pf895f0b489)" d="M 279.989322 225.515148 
L 285.28225 225.515148 
L 285.28225 225.515148 
L 279.989322 225.515148 
z
" style="fill:#ff7f0e;opacity:0.4;"/>
   </g>
   <g id="patch_85">
    <path clip-path="url(#pf895f0b489)" d="M 285.28225 225.515148 
L 290.575179 225.515148 
L 290.575179 225.515148 
L 285.28225 225.515148 
z
" style="fill:#ff7f0e;opacity:0.4;"/>
   </g>
   <g id="patch_86">
    <path clip-path="url(#pf895f0b489)" d="M 290.575179 225.515148 
L 295.868107 225.515148 
L 295.868107 225.515148 
L 290.575179 225.515148 
z
" style="fill:#ff7f0e;opacity:0.4;"/>
   </g>
   <g id="patch_87">
    <path clip-path="url(#pf895f0b489)" d="M 295.868107 225.515148 
L 301.161036 225.515148 
L 301.161036 225.285385 
L 295.868107 225.285385 
z
" style="fill:#ff7f0e;opacity:0.4;"/>
   </g>
   <g id="patch_88">
    <path clip-path="url(#pf895f0b489)" d="M 301.161036 225.515148 
L 306.453965 225.515148 
L 306.453965 225.285385 
L 301.161036 225.285385 
z
" style="fill:#ff7f0e;opacity:0.4;"/>
   </g>
   <g id="patch_89">
    <path clip-path="url(#pf895f0b489)" d="M 306.453965 225.515148 
L 311.746893 225.515148 
L 311.746893 225.285385 
L 306.453965 225.285385 
z
" style="fill:#ff7f0e;opacity:0.4;"/>
   </g>
   <g id="patch_90">
    <path clip-path="url(#pf895f0b489)" d="M 311.746893 225.515148 
L 317.039822 225.515148 
L 317.039822 225.515148 
L 311.746893 225.515148 
z
" style="fill:#ff7f0e;opacity:0.4;"/>
   </g>
   <g id="patch_91">
    <path clip-path="url(#pf895f0b489)" d="M 317.039822 225.515148 
L 322.33275 225.515148 
L 322.33275 225.515148 
L 317.039822 225.515148 
z
" style="fill:#ff7f0e;opacity:0.4;"/>
   </g>
   <g id="patch_92">
    <path clip-path="url(#pf895f0b489)" d="M 322.33275 225.515148 
L 327.625679 225.515148 
L 327.625679 225.515148 
L 322.33275 225.515148 
z
" style="fill:#ff7f0e;opacity:0.4;"/>
   </g>
   <g id="patch_93">
    <path clip-path="url(#pf895f0b489)" d="M 327.625679 225.515148 
L 332.918608 225.515148 
L 332.918608 225.515148 
L 327.625679 225.515148 
z
" style="fill:#ff7f0e;opacity:0.4;"/>
   </g>
   <g id="patch_94">
    <path clip-path="url(#pf895f0b489)" d="M 332.918608 225.515148 
L 338.211536 225.515148 
L 338.211536 225.515148 
L 332.918608 225.515148 
z
" style="fill:#ff7f0e;opacity:0.4;"/>
   </g>
   <g id="patch_95">
    <path clip-path="url(#pf895f0b489)" d="M 338.211536 225.515148 
L 343.504465 225.515148 
L 343.504465 225.285385 
L 338.211536 225.285385 
z
" style="fill:#ff7f0e;opacity:0.4;"/>
   </g>
   <g id="patch_96">
    <path clip-path="url(#pf895f0b489)" d="M 78.858035 225.515148 
L 82.181898 225.515148 
L 82.181898 18.429434 
L 78.858035 18.429434 
z
" style="fill:#2ca02c;opacity:0.4;"/>
   </g>
   <g id="patch_97">
    <path clip-path="url(#pf895f0b489)" d="M 82.181898 225.515148 
L 85.505762 225.515148 
L 85.505762 184.537056 
L 82.181898 184.537056 
z
" style="fill:#2ca02c;opacity:0.4;"/>
   </g>
   <g id="patch_98">
    <path clip-path="url(#pf895f0b489)" d="M 85.505762 225.515148 
L 88.829625 225.515148 
L 88.829625 192.220449 
L 85.505762 192.220449 
z
" style="fill:#2ca02c;opacity:0.4;"/>
   </g>
   <g id="patch_99">
    <path clip-path="url(#pf895f0b489)" d="M 88.829625 225.515148 
L 92.153488 225.515148 
L 92.153488 205.757854 
L 88.829625 205.757854 
z
" style="fill:#2ca02c;opacity:0.4;"/>
   </g>
   <g id="patch_100">
    <path clip-path="url(#pf895f0b489)" d="M 92.153488 225.515148 
L 95.477351 225.515148 
L 95.477351 219.295259 
L 92.153488 219.295259 
z
" style="fill:#2ca02c;opacity:0.4;"/>
   </g>
   <g id="patch_101">
    <path clip-path="url(#pf895f0b489)" d="M 95.477351 225.515148 
L 98.801214 225.515148 
L 98.801214 219.295259 
L 95.477351 219.295259 
z
" style="fill:#2ca02c;opacity:0.4;"/>
   </g>
   <g id="patch_102">
    <path clip-path="url(#pf895f0b489)" d="M 98.801214 225.515148 
L 102.125077 225.515148 
L 102.125077 217.46588 
L 98.801214 217.46588 
z
" style="fill:#2ca02c;opacity:0.4;"/>
   </g>
   <g id="patch_103">
    <path clip-path="url(#pf895f0b489)" d="M 102.125077 225.515148 
L 105.44894 225.515148 
L 105.44894 219.661135 
L 102.125077 219.661135 
z
" style="fill:#2ca02c;opacity:0.4;"/>
   </g>
   <g id="patch_104">
    <path clip-path="url(#pf895f0b489)" d="M 105.44894 225.515148 
L 108.772804 225.515148 
L 108.772804 221.490514 
L 105.44894 221.490514 
z
" style="fill:#2ca02c;opacity:0.4;"/>
   </g>
   <g id="patch_105">
    <path clip-path="url(#pf895f0b489)" d="M 108.772804 225.515148 
L 112.096667 225.515148 
L 112.096667 221.85639 
L 108.772804 221.85639 
z
" style="fill:#2ca02c;opacity:0.4;"/>
   </g>
   <g id="patch_106">
    <path clip-path="url(#pf895f0b489)" d="M 112.096667 225.515148 
L 115.42053 225.515148 
L 115.42053 222.222266 
L 112.096667 222.222266 
z
" style="fill:#2ca02c;opacity:0.4;"/>
   </g>
   <g id="patch_107">
    <path clip-path="url(#pf895f0b489)" d="M 115.42053 225.515148 
L 118.744393 225.515148 
L 118.744393 222.222266 
L 115.42053 222.222266 
z
" style="fill:#2ca02c;opacity:0.4;"/>
   </g>
   <g id="patch_108">
    <path clip-path="url(#pf895f0b489)" d="M 118.744393 225.515148 
L 122.068256 225.515148 
L 122.068256 221.85639 
L 118.744393 221.85639 
z
" style="fill:#2ca02c;opacity:0.4;"/>
   </g>
   <g id="patch_109">
    <path clip-path="url(#pf895f0b489)" d="M 122.068256 225.515148 
L 125.392119 225.515148 
L 125.392119 222.588142 
L 122.068256 222.588142 
z
" style="fill:#2ca02c;opacity:0.4;"/>
   </g>
   <g id="patch_110">
    <path clip-path="url(#pf895f0b489)" d="M 125.392119 225.515148 
L 128.715982 225.515148 
L 128.715982 223.319893 
L 125.392119 223.319893 
z
" style="fill:#2ca02c;opacity:0.4;"/>
   </g>
   <g id="patch_111">
    <path clip-path="url(#pf895f0b489)" d="M 128.715982 225.515148 
L 132.039846 225.515148 
L 132.039846 223.319893 
L 128.715982 223.319893 
z
" style="fill:#2ca02c;opacity:0.4;"/>
   </g>
   <g id="patch_112">
    <path clip-path="url(#pf895f0b489)" d="M 132.039846 225.515148 
L 135.363709 225.515148 
L 135.363709 223.319893 
L 132.039846 223.319893 
z
" style="fill:#2ca02c;opacity:0.4;"/>
   </g>
   <g id="patch_113">
    <path clip-path="url(#pf895f0b489)" d="M 135.363709 225.515148 
L 138.687572 225.515148 
L 138.687572 224.417521 
L 135.363709 224.417521 
z
" style="fill:#2ca02c;opacity:0.4;"/>
   </g>
   <g id="patch_114">
    <path clip-path="url(#pf895f0b489)" d="M 138.687572 225.515148 
L 142.011435 225.515148 
L 142.011435 224.783397 
L 138.687572 224.783397 
z
" style="fill:#2ca02c;opacity:0.4;"/>
   </g>
   <g id="patch_115">
    <path clip-path="url(#pf895f0b489)" d="M 142.011435 225.515148 
L 145.335298 225.515148 
L 145.335298 224.051645 
L 142.011435 224.051645 
z
" style="fill:#2ca02c;opacity:0.4;"/>
   </g>
   <g id="patch_116">
    <path clip-path="url(#pf895f0b489)" d="M 145.335298 225.515148 
L 148.659161 225.515148 
L 148.659161 224.783397 
L 145.335298 224.783397 
z
" style="fill:#2ca02c;opacity:0.4;"/>
   </g>
   <g id="patch_117">
    <path clip-path="url(#pf895f0b489)" d="M 148.659161 225.515148 
L 151.983024 225.515148 
L 151.983024 225.149272 
L 148.659161 225.149272 
z
" style="fill:#2ca02c;opacity:0.4;"/>
   </g>
   <g id="patch_118">
    <path clip-path="url(#pf895f0b489)" d="M 151.983024 225.515148 
L 155.306888 225.515148 
L 155.306888 224.417521 
L 151.983024 224.417521 
z
" style="fill:#2ca02c;opacity:0.4;"/>
   </g>
   <g id="patch_119">
    <path clip-path="url(#pf895f0b489)" d="M 155.306888 225.515148 
L 158.630751 225.515148 
L 158.630751 225.149272 
L 155.306888 225.149272 
z
" style="fill:#2ca02c;opacity:0.4;"/>
   </g>
   <g id="patch_120">
    <path clip-path="url(#pf895f0b489)" d="M 158.630751 225.515148 
L 161.954614 225.515148 
L 161.954614 224.417521 
L 158.630751 224.417521 
z
" style="fill:#2ca02c;opacity:0.4;"/>
   </g>
   <g id="patch_121">
    <path clip-path="url(#pf895f0b489)" d="M 161.954614 225.515148 
L 165.278477 225.515148 
L 165.278477 225.149272 
L 161.954614 225.149272 
z
" style="fill:#2ca02c;opacity:0.4;"/>
   </g>
   <g id="patch_122">
    <path clip-path="url(#pf895f0b489)" d="M 165.278477 225.515148 
L 168.60234 225.515148 
L 168.60234 224.783397 
L 165.278477 224.783397 
z
" style="fill:#2ca02c;opacity:0.4;"/>
   </g>
   <g id="patch_123">
    <path clip-path="url(#pf895f0b489)" d="M 168.60234 225.515148 
L 171.926203 225.515148 
L 171.926203 224.783397 
L 168.60234 224.783397 
z
" style="fill:#2ca02c;opacity:0.4;"/>
   </g>
   <g id="patch_124">
    <path clip-path="url(#pf895f0b489)" d="M 171.926203 225.515148 
L 175.250066 225.515148 
L 175.250066 225.515148 
L 171.926203 225.515148 
z
" style="fill:#2ca02c;opacity:0.4;"/>
   </g>
   <g id="patch_125">
    <path clip-path="url(#pf895f0b489)" d="M 175.250066 225.515148 
L 178.57393 225.515148 
L 178.57393 225.149272 
L 175.250066 225.149272 
z
" style="fill:#2ca02c;opacity:0.4;"/>
   </g>
   <g id="patch_126">
    <path clip-path="url(#pf895f0b489)" d="M 178.57393 225.515148 
L 181.897793 225.515148 
L 181.897793 224.783397 
L 178.57393 224.783397 
z
" style="fill:#2ca02c;opacity:0.4;"/>
   </g>
   <g id="patch_127">
    <path clip-path="url(#pf895f0b489)" d="M 181.897793 225.515148 
L 185.221656 225.515148 
L 185.221656 225.149272 
L 181.897793 225.149272 
z
" style="fill:#2ca02c;opacity:0.4;"/>
   </g>
   <g id="patch_128">
    <path clip-path="url(#pf895f0b489)" d="M 185.221656 225.515148 
L 188.545519 225.515148 
L 188.545519 225.515148 
L 185.221656 225.515148 
z
" style="fill:#2ca02c;opacity:0.4;"/>
   </g>
   <g id="patch_129">
    <path clip-path="url(#pf895f0b489)" d="M 188.545519 225.515148 
L 191.869382 225.515148 
L 191.869382 225.515148 
L 188.545519 225.515148 
z
" style="fill:#2ca02c;opacity:0.4;"/>
   </g>
   <g id="patch_130">
    <path clip-path="url(#pf895f0b489)" d="M 191.869382 225.515148 
L 195.193245 225.515148 
L 195.193245 225.515148 
L 191.869382 225.515148 
z
" style="fill:#2ca02c;opacity:0.4;"/>
   </g>
   <g id="patch_131">
    <path clip-path="url(#pf895f0b489)" d="M 195.193245 225.515148 
L 198.517108 225.515148 
L 198.517108 225.515148 
L 195.193245 225.515148 
z
" style="fill:#2ca02c;opacity:0.4;"/>
   </g>
   <g id="patch_132">
    <path clip-path="url(#pf895f0b489)" d="M 198.517108 225.515148 
L 201.840972 225.515148 
L 201.840972 225.515148 
L 198.517108 225.515148 
z
" style="fill:#2ca02c;opacity:0.4;"/>
   </g>
   <g id="patch_133">
    <path clip-path="url(#pf895f0b489)" d="M 201.840972 225.515148 
L 205.164835 225.515148 
L 205.164835 225.515148 
L 201.840972 225.515148 
z
" style="fill:#2ca02c;opacity:0.4;"/>
   </g>
   <g id="patch_134">
    <path clip-path="url(#pf895f0b489)" d="M 205.164835 225.515148 
L 208.488698 225.515148 
L 208.488698 225.149272 
L 205.164835 225.149272 
z
" style="fill:#2ca02c;opacity:0.4;"/>
   </g>
   <g id="patch_135">
    <path clip-path="url(#pf895f0b489)" d="M 208.488698 225.515148 
L 211.812561 225.515148 
L 211.812561 225.515148 
L 208.488698 225.515148 
z
" style="fill:#2ca02c;opacity:0.4;"/>
   </g>
   <g id="patch_136">
    <path clip-path="url(#pf895f0b489)" d="M 211.812561 225.515148 
L 215.136424 225.515148 
L 215.136424 225.515148 
L 211.812561 225.515148 
z
" style="fill:#2ca02c;opacity:0.4;"/>
   </g>
   <g id="patch_137">
    <path clip-path="url(#pf895f0b489)" d="M 215.136424 225.515148 
L 218.460287 225.515148 
L 218.460287 225.515148 
L 215.136424 225.515148 
z
" style="fill:#2ca02c;opacity:0.4;"/>
   </g>
   <g id="patch_138">
    <path clip-path="url(#pf895f0b489)" d="M 218.460287 225.515148 
L 221.78415 225.515148 
L 221.78415 225.515148 
L 218.460287 225.515148 
z
" style="fill:#2ca02c;opacity:0.4;"/>
   </g>
   <g id="patch_139">
    <path clip-path="url(#pf895f0b489)" d="M 221.78415 225.515148 
L 225.108014 225.515148 
L 225.108014 225.515148 
L 221.78415 225.515148 
z
" style="fill:#2ca02c;opacity:0.4;"/>
   </g>
   <g id="patch_140">
    <path clip-path="url(#pf895f0b489)" d="M 225.108014 225.515148 
L 228.431877 225.515148 
L 228.431877 225.515148 
L 225.108014 225.515148 
z
" style="fill:#2ca02c;opacity:0.4;"/>
   </g>
   <g id="patch_141">
    <path clip-path="url(#pf895f0b489)" d="M 228.431877 225.515148 
L 231.75574 225.515148 
L 231.75574 225.515148 
L 228.431877 225.515148 
z
" style="fill:#2ca02c;opacity:0.4;"/>
   </g>
   <g id="patch_142">
    <path clip-path="url(#pf895f0b489)" d="M 231.75574 225.515148 
L 235.079603 225.515148 
L 235.079603 225.515148 
L 231.75574 225.515148 
z
" style="fill:#2ca02c;opacity:0.4;"/>
   </g>
   <g id="patch_143">
    <path clip-path="url(#pf895f0b489)" d="M 235.079603 225.515148 
L 238.403466 225.515148 
L 238.403466 225.515148 
L 235.079603 225.515148 
z
" style="fill:#2ca02c;opacity:0.4;"/>
   </g>
   <g id="patch_144">
    <path clip-path="url(#pf895f0b489)" d="M 238.403466 225.515148 
L 241.727329 225.515148 
L 241.727329 225.515148 
L 238.403466 225.515148 
z
" style="fill:#2ca02c;opacity:0.4;"/>
   </g>
   <g id="patch_145">
    <path clip-path="url(#pf895f0b489)" d="M 241.727329 225.515148 
L 245.051192 225.515148 
L 245.051192 225.149272 
L 241.727329 225.149272 
z
" style="fill:#2ca02c;opacity:0.4;"/>
   </g>
   <g id="matplotlib.axis_1">
    <g id="xtick_1">
     <g id="line2d_1">
      <defs>
       <path d="M 0 0 
L 0 3.5 
" id="m380badedc0" style="stroke:#000000;stroke-width:0.8;"/>
      </defs>
      <g>
       <use style="stroke:#000000;stroke-width:0.8;" x="78.858035" xlink:href="#m380badedc0" y="225.515148"/>
      </g>
     </g>
     <g id="text_1">
      <!-- 0 -->
      <g transform="translate(75.676785 240.113586)scale(0.1 -0.1)">
       <defs>
        <path d="M 2034 4250 
Q 1547 4250 1301 3770 
Q 1056 3291 1056 2328 
Q 1056 1369 1301 889 
Q 1547 409 2034 409 
Q 2525 409 2770 889 
Q 3016 1369 3016 2328 
Q 3016 3291 2770 3770 
Q 2525 4250 2034 4250 
z
M 2034 4750 
Q 2819 4750 3233 4129 
Q 3647 3509 3647 2328 
Q 3647 1150 3233 529 
Q 2819 -91 2034 -91 
Q 1250 -91 836 529 
Q 422 1150 422 2328 
Q 422 3509 836 4129 
Q 1250 4750 2034 4750 
z
" id="DejaVuSans-30" transform="scale(0.015625)"/>
       </defs>
       <use xlink:href="#DejaVuSans-30"/>
      </g>
     </g>
    </g>
    <g id="xtick_2">
     <g id="line2d_2">
      <g>
       <use style="stroke:#000000;stroke-width:0.8;" x="149.722304" xlink:href="#m380badedc0" y="225.515148"/>
      </g>
     </g>
     <g id="text_2">
      <!-- 5 -->
      <g transform="translate(146.541054 240.113586)scale(0.1 -0.1)">
       <defs>
        <path d="M 691 4666 
L 3169 4666 
L 3169 4134 
L 1269 4134 
L 1269 2991 
Q 1406 3038 1543 3061 
Q 1681 3084 1819 3084 
Q 2600 3084 3056 2656 
Q 3513 2228 3513 1497 
Q 3513 744 3044 326 
Q 2575 -91 1722 -91 
Q 1428 -91 1123 -41 
Q 819 9 494 109 
L 494 744 
Q 775 591 1075 516 
Q 1375 441 1709 441 
Q 2250 441 2565 725 
Q 2881 1009 2881 1497 
Q 2881 1984 2565 2268 
Q 2250 2553 1709 2553 
Q 1456 2553 1204 2497 
Q 953 2441 691 2322 
L 691 4666 
z
" id="DejaVuSans-35" transform="scale(0.015625)"/>
       </defs>
       <use xlink:href="#DejaVuSans-35"/>
      </g>
     </g>
    </g>
    <g id="xtick_3">
     <g id="line2d_3">
      <g>
       <use style="stroke:#000000;stroke-width:0.8;" x="220.586572" xlink:href="#m380badedc0" y="225.515148"/>
      </g>
     </g>
     <g id="text_3">
      <!-- 10 -->
      <g transform="translate(214.224072 240.113586)scale(0.1 -0.1)">
       <defs>
        <path d="M 794 531 
L 1825 531 
L 1825 4091 
L 703 3866 
L 703 4441 
L 1819 4666 
L 2450 4666 
L 2450 531 
L 3481 531 
L 3481 0 
L 794 0 
L 794 531 
z
" id="DejaVuSans-31" transform="scale(0.015625)"/>
       </defs>
       <use xlink:href="#DejaVuSans-31"/>
       <use x="63.623047" xlink:href="#DejaVuSans-30"/>
      </g>
     </g>
    </g>
    <g id="xtick_4">
     <g id="line2d_4">
      <g>
       <use style="stroke:#000000;stroke-width:0.8;" x="291.450841" xlink:href="#m380badedc0" y="225.515148"/>
      </g>
     </g>
     <g id="text_4">
      <!-- 15 -->
      <g transform="translate(285.088341 240.113586)scale(0.1 -0.1)">
       <use xlink:href="#DejaVuSans-31"/>
       <use x="63.623047" xlink:href="#DejaVuSans-35"/>
      </g>
     </g>
    </g>
    <g id="xtick_5">
     <g id="line2d_5">
      <g>
       <use style="stroke:#000000;stroke-width:0.8;" x="362.315109" xlink:href="#m380badedc0" y="225.515148"/>
      </g>
     </g>
     <g id="text_5">
      <!-- 20 -->
      <g transform="translate(355.952609 240.113586)scale(0.1 -0.1)">
       <defs>
        <path d="M 1228 531 
L 3431 531 
L 3431 0 
L 469 0 
L 469 531 
Q 828 903 1448 1529 
Q 2069 2156 2228 2338 
Q 2531 2678 2651 2914 
Q 2772 3150 2772 3378 
Q 2772 3750 2511 3984 
Q 2250 4219 1831 4219 
Q 1534 4219 1204 4116 
Q 875 4013 500 3803 
L 500 4441 
Q 881 4594 1212 4672 
Q 1544 4750 1819 4750 
Q 2544 4750 2975 4387 
Q 3406 4025 3406 3419 
Q 3406 3131 3298 2873 
Q 3191 2616 2906 2266 
Q 2828 2175 2409 1742 
Q 1991 1309 1228 531 
z
" id="DejaVuSans-32" transform="scale(0.015625)"/>
       </defs>
       <use xlink:href="#DejaVuSans-32"/>
       <use x="63.623047" xlink:href="#DejaVuSans-30"/>
      </g>
     </g>
    </g>
    <g id="text_6">
     <!-- f(t) -->
     <g transform="translate(203.559375 253.791711)scale(0.1 -0.1)">
      <defs>
       <path d="M 2375 4863 
L 2375 4384 
L 1825 4384 
Q 1516 4384 1395 4259 
Q 1275 4134 1275 3809 
L 1275 3500 
L 2222 3500 
L 2222 3053 
L 1275 3053 
L 1275 0 
L 697 0 
L 697 3053 
L 147 3053 
L 147 3500 
L 697 3500 
L 697 3744 
Q 697 4328 969 4595 
Q 1241 4863 1831 4863 
L 2375 4863 
z
" id="DejaVuSans-66" transform="scale(0.015625)"/>
       <path d="M 1984 4856 
Q 1566 4138 1362 3434 
Q 1159 2731 1159 2009 
Q 1159 1288 1364 580 
Q 1569 -128 1984 -844 
L 1484 -844 
Q 1016 -109 783 600 
Q 550 1309 550 2009 
Q 550 2706 781 3412 
Q 1013 4119 1484 4856 
L 1984 4856 
z
" id="DejaVuSans-28" transform="scale(0.015625)"/>
       <path d="M 1172 4494 
L 1172 3500 
L 2356 3500 
L 2356 3053 
L 1172 3053 
L 1172 1153 
Q 1172 725 1289 603 
Q 1406 481 1766 481 
L 2356 481 
L 2356 0 
L 1766 0 
Q 1100 0 847 248 
Q 594 497 594 1153 
L 594 3053 
L 172 3053 
L 172 3500 
L 594 3500 
L 594 4494 
L 1172 4494 
z
" id="DejaVuSans-74" transform="scale(0.015625)"/>
       <path d="M 513 4856 
L 1013 4856 
Q 1481 4119 1714 3412 
Q 1947 2706 1947 2009 
Q 1947 1309 1714 600 
Q 1481 -109 1013 -844 
L 513 -844 
Q 928 -128 1133 580 
Q 1338 1288 1338 2009 
Q 1338 2731 1133 3434 
Q 928 4138 513 4856 
z
" id="DejaVuSans-29" transform="scale(0.015625)"/>
      </defs>
      <use xlink:href="#DejaVuSans-66"/>
      <use x="35.205078" xlink:href="#DejaVuSans-28"/>
      <use x="74.21875" xlink:href="#DejaVuSans-74"/>
      <use x="113.427734" xlink:href="#DejaVuSans-29"/>
     </g>
    </g>
   </g>
   <g id="matplotlib.axis_2">
    <g id="ytick_1">
     <g id="line2d_6">
      <defs>
       <path d="M 0 0 
L -3.5 0 
" id="m76e69babf4" style="stroke:#000000;stroke-width:0.8;"/>
      </defs>
      <g>
       <use style="stroke:#000000;stroke-width:0.8;" x="43.78125" xlink:href="#m76e69babf4" y="225.515148"/>
      </g>
     </g>
     <g id="text_7">
      <!-- 0.0 -->
      <g transform="translate(20.878125 229.314367)scale(0.1 -0.1)">
       <defs>
        <path d="M 684 794 
L 1344 794 
L 1344 0 
L 684 0 
L 684 794 
z
" id="DejaVuSans-2e" transform="scale(0.015625)"/>
       </defs>
       <use xlink:href="#DejaVuSans-30"/>
       <use x="63.623047" xlink:href="#DejaVuSans-2e"/>
       <use x="95.410156" xlink:href="#DejaVuSans-30"/>
      </g>
     </g>
    </g>
    <g id="ytick_2">
     <g id="line2d_7">
      <g>
       <use style="stroke:#000000;stroke-width:0.8;" x="43.78125" xlink:href="#m76e69babf4" y="182.611962"/>
      </g>
     </g>
     <g id="text_8">
      <!-- 0.5 -->
      <g transform="translate(20.878125 186.411181)scale(0.1 -0.1)">
       <use xlink:href="#DejaVuSans-30"/>
       <use x="63.623047" xlink:href="#DejaVuSans-2e"/>
       <use x="95.410156" xlink:href="#DejaVuSans-35"/>
      </g>
     </g>
    </g>
    <g id="ytick_3">
     <g id="line2d_8">
      <g>
       <use style="stroke:#000000;stroke-width:0.8;" x="43.78125" xlink:href="#m76e69babf4" y="139.708776"/>
      </g>
     </g>
     <g id="text_9">
      <!-- 1.0 -->
      <g transform="translate(20.878125 143.507995)scale(0.1 -0.1)">
       <use xlink:href="#DejaVuSans-31"/>
       <use x="63.623047" xlink:href="#DejaVuSans-2e"/>
       <use x="95.410156" xlink:href="#DejaVuSans-30"/>
      </g>
     </g>
    </g>
    <g id="ytick_4">
     <g id="line2d_9">
      <g>
       <use style="stroke:#000000;stroke-width:0.8;" x="43.78125" xlink:href="#m76e69babf4" y="96.805591"/>
      </g>
     </g>
     <g id="text_10">
      <!-- 1.5 -->
      <g transform="translate(20.878125 100.604809)scale(0.1 -0.1)">
       <use xlink:href="#DejaVuSans-31"/>
       <use x="63.623047" xlink:href="#DejaVuSans-2e"/>
       <use x="95.410156" xlink:href="#DejaVuSans-35"/>
      </g>
     </g>
    </g>
    <g id="ytick_5">
     <g id="line2d_10">
      <g>
       <use style="stroke:#000000;stroke-width:0.8;" x="43.78125" xlink:href="#m76e69babf4" y="53.902405"/>
      </g>
     </g>
     <g id="text_11">
      <!-- 2.0 -->
      <g transform="translate(20.878125 57.701623)scale(0.1 -0.1)">
       <use xlink:href="#DejaVuSans-32"/>
       <use x="63.623047" xlink:href="#DejaVuSans-2e"/>
       <use x="95.410156" xlink:href="#DejaVuSans-30"/>
      </g>
     </g>
    </g>
    <g id="ytick_6">
     <g id="line2d_11">
      <g>
       <use style="stroke:#000000;stroke-width:0.8;" x="43.78125" xlink:href="#m76e69babf4" y="10.999219"/>
      </g>
     </g>
     <g id="text_12">
      <!-- 2.5 -->
      <g transform="translate(20.878125 14.798437)scale(0.1 -0.1)">
       <use xlink:href="#DejaVuSans-32"/>
       <use x="63.623047" xlink:href="#DejaVuSans-2e"/>
       <use x="95.410156" xlink:href="#DejaVuSans-35"/>
      </g>
     </g>
    </g>
    <g id="text_13">
     <!-- Density -->
     <g transform="translate(14.798438 135.803742)rotate(-90)scale(0.1 -0.1)">
      <defs>
       <path d="M 1259 4147 
L 1259 519 
L 2022 519 
Q 2988 519 3436 956 
Q 3884 1394 3884 2338 
Q 3884 3275 3436 3711 
Q 2988 4147 2022 4147 
L 1259 4147 
z
M 628 4666 
L 1925 4666 
Q 3281 4666 3915 4102 
Q 4550 3538 4550 2338 
Q 4550 1131 3912 565 
Q 3275 0 1925 0 
L 628 0 
L 628 4666 
z
" id="DejaVuSans-44" transform="scale(0.015625)"/>
       <path d="M 3597 1894 
L 3597 1613 
L 953 1613 
Q 991 1019 1311 708 
Q 1631 397 2203 397 
Q 2534 397 2845 478 
Q 3156 559 3463 722 
L 3463 178 
Q 3153 47 2828 -22 
Q 2503 -91 2169 -91 
Q 1331 -91 842 396 
Q 353 884 353 1716 
Q 353 2575 817 3079 
Q 1281 3584 2069 3584 
Q 2775 3584 3186 3129 
Q 3597 2675 3597 1894 
z
M 3022 2063 
Q 3016 2534 2758 2815 
Q 2500 3097 2075 3097 
Q 1594 3097 1305 2825 
Q 1016 2553 972 2059 
L 3022 2063 
z
" id="DejaVuSans-65" transform="scale(0.015625)"/>
       <path d="M 3513 2113 
L 3513 0 
L 2938 0 
L 2938 2094 
Q 2938 2591 2744 2837 
Q 2550 3084 2163 3084 
Q 1697 3084 1428 2787 
Q 1159 2491 1159 1978 
L 1159 0 
L 581 0 
L 581 3500 
L 1159 3500 
L 1159 2956 
Q 1366 3272 1645 3428 
Q 1925 3584 2291 3584 
Q 2894 3584 3203 3211 
Q 3513 2838 3513 2113 
z
" id="DejaVuSans-6e" transform="scale(0.015625)"/>
       <path d="M 2834 3397 
L 2834 2853 
Q 2591 2978 2328 3040 
Q 2066 3103 1784 3103 
Q 1356 3103 1142 2972 
Q 928 2841 928 2578 
Q 928 2378 1081 2264 
Q 1234 2150 1697 2047 
L 1894 2003 
Q 2506 1872 2764 1633 
Q 3022 1394 3022 966 
Q 3022 478 2636 193 
Q 2250 -91 1575 -91 
Q 1294 -91 989 -36 
Q 684 19 347 128 
L 347 722 
Q 666 556 975 473 
Q 1284 391 1588 391 
Q 1994 391 2212 530 
Q 2431 669 2431 922 
Q 2431 1156 2273 1281 
Q 2116 1406 1581 1522 
L 1381 1569 
Q 847 1681 609 1914 
Q 372 2147 372 2553 
Q 372 3047 722 3315 
Q 1072 3584 1716 3584 
Q 2034 3584 2315 3537 
Q 2597 3491 2834 3397 
z
" id="DejaVuSans-73" transform="scale(0.015625)"/>
       <path d="M 603 3500 
L 1178 3500 
L 1178 0 
L 603 0 
L 603 3500 
z
M 603 4863 
L 1178 4863 
L 1178 4134 
L 603 4134 
L 603 4863 
z
" id="DejaVuSans-69" transform="scale(0.015625)"/>
       <path d="M 2059 -325 
Q 1816 -950 1584 -1140 
Q 1353 -1331 966 -1331 
L 506 -1331 
L 506 -850 
L 844 -850 
Q 1081 -850 1212 -737 
Q 1344 -625 1503 -206 
L 1606 56 
L 191 3500 
L 800 3500 
L 1894 763 
L 2988 3500 
L 3597 3500 
L 2059 -325 
z
" id="DejaVuSans-79" transform="scale(0.015625)"/>
      </defs>
      <use xlink:href="#DejaVuSans-44"/>
      <use x="77.001953" xlink:href="#DejaVuSans-65"/>
      <use x="138.525391" xlink:href="#DejaVuSans-6e"/>
      <use x="201.904297" xlink:href="#DejaVuSans-73"/>
      <use x="254.003906" xlink:href="#DejaVuSans-69"/>
      <use x="281.787109" xlink:href="#DejaVuSans-74"/>
      <use x="320.996094" xlink:href="#DejaVuSans-79"/>
     </g>
    </g>
   </g>
   <g id="line2d_12">
    <path clip-path="url(#pf895f0b489)" d="M 61.71196 225.511733 
L 68.470589 225.417319 
L 71.849904 225.159578 
L 74.10278 224.782212 
L 76.355656 224.153701 
L 78.608533 223.220302 
L 80.861409 221.971409 
L 83.114286 220.439791 
L 85.367162 218.674665 
L 87.620038 216.706414 
L 89.872915 214.532546 
L 92.125791 212.138166 
L 95.505106 208.174401 
L 101.137297 201.416898 
L 103.390173 199.12709 
L 104.516611 198.160842 
L 105.643049 197.343105 
L 106.769488 196.694076 
L 107.895926 196.231135 
L 109.022364 195.967501 
L 110.148802 195.910899 
L 111.27524 196.062497 
L 112.401679 196.416331 
L 113.528117 196.959382 
L 114.654555 197.67232 
L 116.907431 199.507276 
L 120.286746 202.855483 
L 124.792499 207.372583 
L 127.045375 209.369158 
L 130.42469 211.991382 
L 137.183319 216.750121 
L 140.562633 218.944983 
L 142.81551 220.16983 
L 145.068386 221.159605 
L 147.321263 221.940697 
L 150.700577 222.816894 
L 154.079892 223.399378 
L 157.459206 223.701609 
L 161.964959 223.793971 
L 176.608656 223.877536 
L 183.367285 223.99224 
L 188.999476 224.386866 
L 195.758105 224.834037 
L 201.390296 224.955797 
L 227.298374 225.231685 
L 236.30988 225.264748 
L 245.321385 225.423246 
L 253.206453 225.472729 
L 272.355902 225.439017 
L 285.87316 225.514232 
L 285.87316 225.514232 
" style="fill:none;stroke:#1f77b4;stroke-linecap:square;stroke-width:1.5;"/>
   </g>
   <g id="line2d_13">
    <path clip-path="url(#pf895f0b489)" d="M 58.999432 225.367735 
L 60.528897 225.215026 
L 62.058363 224.933883 
L 63.587828 224.44376 
L 65.117294 223.634847 
L 66.646759 222.371298 
L 68.176225 220.504022 
L 69.70569 217.894732 
L 71.235156 214.449554 
L 72.764621 210.156102 
L 74.294087 205.114156 
L 78.882483 188.282312 
L 80.411949 183.429472 
L 81.941414 179.630577 
L 83.47088 177.17524 
L 85.000345 176.218974 
L 86.529811 176.772909 
L 88.059276 178.715571 
L 89.588742 181.820133 
L 91.118208 185.789779 
L 97.23607 203.976337 
L 98.765535 207.838404 
L 100.295001 211.154652 
L 101.824466 213.911746 
L 103.353932 216.14587 
L 104.883397 217.922172 
L 106.412863 219.316072 
L 107.942328 220.399905 
L 109.471794 221.236013 
L 111.001259 221.875244 
L 112.530725 222.358644 
L 115.589656 222.988723 
L 118.648587 223.344089 
L 127.82538 224.004358 
L 133.943242 224.361875 
L 138.531638 224.442758 
L 167.591483 224.423497 
L 178.297742 224.72458 
L 189.004 225.165139 
L 204.298655 225.319197 
L 213.475448 225.287731 
L 224.181707 225.287308 
L 247.123689 225.377805 
L 256.300483 225.317577 
L 277.713 225.514387 
L 296.066586 225.408199 
L 306.772844 225.335547 
L 335.832689 225.477685 
L 351.127344 225.477383 
L 363.363068 225.514334 
L 363.363068 225.514334 
" style="fill:none;stroke:#ff7f0e;stroke-linecap:square;stroke-width:1.5;"/>
   </g>
   <g id="line2d_14">
    <path clip-path="url(#pf895f0b489)" d="M 65.687325 224.899083 
L 66.654835 224.343753 
L 67.622346 223.391869 
L 68.589856 221.845743 
L 69.557367 219.468139 
L 70.524877 216.010625 
L 71.492388 211.26318 
L 72.459898 205.12069 
L 73.427408 197.652872 
L 77.29745 163.689164 
L 78.264961 157.770802 
L 79.232471 154.205068 
L 80.199982 153.23963 
L 81.167492 154.779812 
L 82.135002 158.431262 
L 83.102513 163.604608 
L 86.972555 187.792258 
L 87.940065 192.884628 
L 88.907576 197.368323 
L 89.875086 201.284278 
L 90.842596 204.691002 
L 91.810107 207.639196 
L 92.777617 210.16352 
L 93.745128 212.286711 
L 94.712638 214.029283 
L 95.680149 215.418832 
L 96.647659 216.495148 
L 97.61517 217.309976 
L 98.58268 217.922347 
L 100.517701 218.770808 
L 105.355253 220.319933 
L 108.257784 221.13242 
L 111.160316 221.688257 
L 114.062847 221.976019 
L 124.705462 222.744057 
L 129.543014 223.237969 
L 138.250608 224.250712 
L 143.08816 224.448388 
L 161.470859 224.8895 
L 181.788578 225.143043 
L 194.366214 225.507722 
L 242.741736 225.418918 
L 249.514309 225.449233 
L 258.221903 225.513921 
L 258.221903 225.513921 
" style="fill:none;stroke:#2ca02c;stroke-linecap:square;stroke-width:1.5;"/>
   </g>
   <g id="patch_146">
    <path d="M 43.78125 225.515148 
L 43.78125 8.075148 
" style="fill:none;stroke:#000000;stroke-linecap:square;stroke-linejoin:miter;stroke-width:0.8;"/>
   </g>
   <g id="patch_147">
    <path d="M 378.58125 225.515148 
L 378.58125 8.075148 
" style="fill:none;stroke:#000000;stroke-linecap:square;stroke-linejoin:miter;stroke-width:0.8;"/>
   </g>
   <g id="patch_148">
    <path d="M 43.78125 225.515148 
L 378.58125 225.515148 
" style="fill:none;stroke:#000000;stroke-linecap:square;stroke-linejoin:miter;stroke-width:0.8;"/>
   </g>
   <g id="patch_149">
    <path d="M 43.78125 8.075148 
L 378.58125 8.075148 
" style="fill:none;stroke:#000000;stroke-linecap:square;stroke-linejoin:miter;stroke-width:0.8;"/>
   </g>
  </g>
 </g>
 <defs>
  <clipPath id="pf895f0b489">
   <rect height="217.44" width="334.8" x="43.78125" y="8.075148"/>
  </clipPath>
 </defs>
</svg>
