<?xml version="1.0" encoding="utf-8" standalone="no"?>
<!DOCTYPE svg PUBLIC "-//W3C//DTD SVG 1.1//EN"
  "http://www.w3.org/Graphics/SVG/1.1/DTD/svg11.dtd">
<svg height="263.476571pt" version="1.1" viewBox="0 0 385.78125 263.476571" width="385.78125pt" xmlns="http://www.w3.org/2000/svg" xmlns:xlink="http://www.w3.org/1999/xlink">
 <metadata>
  <rdf:RDF xmlns:cc="http://creativecommons.org/ns#" xmlns:dc="http://purl.org/dc/elements/1.1/" xmlns:rdf="http://www.w3.org/1999/02/22-rdf-syntax-ns#">
   <cc:Work>
    <dc:type rdf:resource="http://purl.org/dc/dcmitype/StillImage"/>
    <dc:date>2021-06-16T17:26:47.779181</dc:date>
    <dc:format>image/svg+xml</dc:format>
    <dc:creator>
     <cc:Agent>
      <dc:title>Matplotlib v3.4.2, https://matplotlib.org/</dc:title>
     </cc:Agent>
    </dc:creator>
   </cc:Work>
  </rdf:RDF>
 </metadata>
 <defs>
  <style type="text/css">*{stroke-linecap:butt;stroke-linejoin:round;}</style>
 </defs>
 <g id="figure_1">
  <g id="patch_1">
   <path d="M 0 263.476571 
L 385.78125 263.476571 
L 385.78125 0 
L 0 0 
z
" style="fill:none;"/>
  </g>
  <g id="axes_1">
   <g id="patch_2">
    <path d="M 43.78125 225.920321 
L 378.58125 225.920321 
L 378.58125 8.480321 
L 43.78125 8.480321 
z
" style="fill:#ffffff;"/>
   </g>
   <g id="patch_3">
    <path clip-path="url(#pb3fb5d72b2)" d="M 80.530371 225.920321 
L 86.903584 225.920321 
L 86.903584 217.375309 
L 80.530371 217.375309 
z
" style="fill:#1f77b4;opacity:0.4;"/>
   </g>
   <g id="patch_4">
    <path clip-path="url(#pb3fb5d72b2)" d="M 86.903584 225.920321 
L 93.276798 225.920321 
L 93.276798 211.767646 
L 86.903584 211.767646 
z
" style="fill:#1f77b4;opacity:0.4;"/>
   </g>
   <g id="patch_5">
    <path clip-path="url(#pb3fb5d72b2)" d="M 93.276798 225.920321 
L 99.650012 225.920321 
L 99.650012 204.824824 
L 93.276798 204.824824 
z
" style="fill:#1f77b4;opacity:0.4;"/>
   </g>
   <g id="patch_6">
    <path clip-path="url(#pb3fb5d72b2)" d="M 99.650012 225.920321 
L 106.023225 225.920321 
L 106.023225 203.222634 
L 99.650012 203.222634 
z
" style="fill:#1f77b4;opacity:0.4;"/>
   </g>
   <g id="patch_7">
    <path clip-path="url(#pb3fb5d72b2)" d="M 106.023225 225.920321 
L 112.396439 225.920321 
L 112.396439 198.683097 
L 106.023225 198.683097 
z
" style="fill:#1f77b4;opacity:0.4;"/>
   </g>
   <g id="patch_8">
    <path clip-path="url(#pb3fb5d72b2)" d="M 112.396439 225.920321 
L 118.769652 225.920321 
L 118.769652 197.614971 
L 112.396439 197.614971 
z
" style="fill:#1f77b4;opacity:0.4;"/>
   </g>
   <g id="patch_9">
    <path clip-path="url(#pb3fb5d72b2)" d="M 118.769652 225.920321 
L 125.142866 225.920321 
L 125.142866 195.478718 
L 118.769652 195.478718 
z
" style="fill:#1f77b4;opacity:0.4;"/>
   </g>
   <g id="patch_10">
    <path clip-path="url(#pb3fb5d72b2)" d="M 125.142866 225.920321 
L 131.51608 225.920321 
L 131.51608 204.557792 
L 125.142866 204.557792 
z
" style="fill:#1f77b4;opacity:0.4;"/>
   </g>
   <g id="patch_11">
    <path clip-path="url(#pb3fb5d72b2)" d="M 131.51608 225.920321 
L 137.889293 225.920321 
L 137.889293 201.887476 
L 131.51608 201.887476 
z
" style="fill:#1f77b4;opacity:0.4;"/>
   </g>
   <g id="patch_12">
    <path clip-path="url(#pb3fb5d72b2)" d="M 137.889293 225.920321 
L 144.262507 225.920321 
L 144.262507 205.89295 
L 137.889293 205.89295 
z
" style="fill:#1f77b4;opacity:0.4;"/>
   </g>
   <g id="patch_13">
    <path clip-path="url(#pb3fb5d72b2)" d="M 144.262507 225.920321 
L 150.635721 225.920321 
L 150.635721 212.301709 
L 144.262507 212.301709 
z
" style="fill:#1f77b4;opacity:0.4;"/>
   </g>
   <g id="patch_14">
    <path clip-path="url(#pb3fb5d72b2)" d="M 150.635721 225.920321 
L 157.008934 225.920321 
L 157.008934 218.710467 
L 150.635721 218.710467 
z
" style="fill:#1f77b4;opacity:0.4;"/>
   </g>
   <g id="patch_15">
    <path clip-path="url(#pb3fb5d72b2)" d="M 157.008934 225.920321 
L 163.382148 225.920321 
L 163.382148 218.443436 
L 157.008934 218.443436 
z
" style="fill:#1f77b4;opacity:0.4;"/>
   </g>
   <g id="patch_16">
    <path clip-path="url(#pb3fb5d72b2)" d="M 163.382148 225.920321 
L 169.755361 225.920321 
L 169.755361 222.715941 
L 163.382148 222.715941 
z
" style="fill:#1f77b4;opacity:0.4;"/>
   </g>
   <g id="patch_17">
    <path clip-path="url(#pb3fb5d72b2)" d="M 169.755361 225.920321 
L 176.128575 225.920321 
L 176.128575 221.647815 
L 169.755361 221.647815 
z
" style="fill:#1f77b4;opacity:0.4;"/>
   </g>
   <g id="patch_18">
    <path clip-path="url(#pb3fb5d72b2)" d="M 176.128575 225.920321 
L 182.501789 225.920321 
L 182.501789 222.715941 
L 176.128575 222.715941 
z
" style="fill:#1f77b4;opacity:0.4;"/>
   </g>
   <g id="patch_19">
    <path clip-path="url(#pb3fb5d72b2)" d="M 182.501789 225.920321 
L 188.875002 225.920321 
L 188.875002 224.585163 
L 182.501789 224.585163 
z
" style="fill:#1f77b4;opacity:0.4;"/>
   </g>
   <g id="patch_20">
    <path clip-path="url(#pb3fb5d72b2)" d="M 188.875002 225.920321 
L 195.248216 225.920321 
L 195.248216 224.852194 
L 188.875002 224.852194 
z
" style="fill:#1f77b4;opacity:0.4;"/>
   </g>
   <g id="patch_21">
    <path clip-path="url(#pb3fb5d72b2)" d="M 195.248216 225.920321 
L 201.62143 225.920321 
L 201.62143 224.852194 
L 195.248216 224.852194 
z
" style="fill:#1f77b4;opacity:0.4;"/>
   </g>
   <g id="patch_22">
    <path clip-path="url(#pb3fb5d72b2)" d="M 201.62143 225.920321 
L 207.994643 225.920321 
L 207.994643 224.318131 
L 201.62143 224.318131 
z
" style="fill:#1f77b4;opacity:0.4;"/>
   </g>
   <g id="patch_23">
    <path clip-path="url(#pb3fb5d72b2)" d="M 207.994643 225.920321 
L 214.367857 225.920321 
L 214.367857 224.051099 
L 207.994643 224.051099 
z
" style="fill:#1f77b4;opacity:0.4;"/>
   </g>
   <g id="patch_24">
    <path clip-path="url(#pb3fb5d72b2)" d="M 214.367857 225.920321 
L 220.74107 225.920321 
L 220.74107 225.653289 
L 214.367857 225.653289 
z
" style="fill:#1f77b4;opacity:0.4;"/>
   </g>
   <g id="patch_25">
    <path clip-path="url(#pb3fb5d72b2)" d="M 220.74107 225.920321 
L 227.114284 225.920321 
L 227.114284 225.653289 
L 220.74107 225.653289 
z
" style="fill:#1f77b4;opacity:0.4;"/>
   </g>
   <g id="patch_26">
    <path clip-path="url(#pb3fb5d72b2)" d="M 227.114284 225.920321 
L 233.487498 225.920321 
L 233.487498 224.852194 
L 227.114284 224.852194 
z
" style="fill:#1f77b4;opacity:0.4;"/>
   </g>
   <g id="patch_27">
    <path clip-path="url(#pb3fb5d72b2)" d="M 233.487498 225.920321 
L 239.860711 225.920321 
L 239.860711 225.653289 
L 233.487498 225.653289 
z
" style="fill:#1f77b4;opacity:0.4;"/>
   </g>
   <g id="patch_28">
    <path clip-path="url(#pb3fb5d72b2)" d="M 239.860711 225.920321 
L 246.233925 225.920321 
L 246.233925 225.920321 
L 239.860711 225.920321 
z
" style="fill:#1f77b4;opacity:0.4;"/>
   </g>
   <g id="patch_29">
    <path clip-path="url(#pb3fb5d72b2)" d="M 246.233925 225.920321 
L 252.607139 225.920321 
L 252.607139 225.653289 
L 246.233925 225.653289 
z
" style="fill:#1f77b4;opacity:0.4;"/>
   </g>
   <g id="patch_30">
    <path clip-path="url(#pb3fb5d72b2)" d="M 252.607139 225.920321 
L 258.980352 225.920321 
L 258.980352 225.653289 
L 252.607139 225.653289 
z
" style="fill:#1f77b4;opacity:0.4;"/>
   </g>
   <g id="patch_31">
    <path clip-path="url(#pb3fb5d72b2)" d="M 258.980352 225.920321 
L 265.353566 225.920321 
L 265.353566 225.920321 
L 258.980352 225.920321 
z
" style="fill:#1f77b4;opacity:0.4;"/>
   </g>
   <g id="patch_32">
    <path clip-path="url(#pb3fb5d72b2)" d="M 265.353566 225.920321 
L 271.726779 225.920321 
L 271.726779 225.920321 
L 265.353566 225.920321 
z
" style="fill:#1f77b4;opacity:0.4;"/>
   </g>
   <g id="patch_33">
    <path clip-path="url(#pb3fb5d72b2)" d="M 271.726779 225.920321 
L 278.099993 225.920321 
L 278.099993 225.920321 
L 271.726779 225.920321 
z
" style="fill:#1f77b4;opacity:0.4;"/>
   </g>
   <g id="patch_34">
    <path clip-path="url(#pb3fb5d72b2)" d="M 278.099993 225.920321 
L 284.473207 225.920321 
L 284.473207 225.653289 
L 278.099993 225.653289 
z
" style="fill:#1f77b4;opacity:0.4;"/>
   </g>
   <g id="patch_35">
    <path clip-path="url(#pb3fb5d72b2)" d="M 284.473207 225.920321 
L 290.84642 225.920321 
L 290.84642 225.920321 
L 284.473207 225.920321 
z
" style="fill:#1f77b4;opacity:0.4;"/>
   </g>
   <g id="patch_36">
    <path clip-path="url(#pb3fb5d72b2)" d="M 290.84642 225.920321 
L 297.219634 225.920321 
L 297.219634 225.920321 
L 290.84642 225.920321 
z
" style="fill:#1f77b4;opacity:0.4;"/>
   </g>
   <g id="patch_37">
    <path clip-path="url(#pb3fb5d72b2)" d="M 297.219634 225.920321 
L 303.592848 225.920321 
L 303.592848 225.653289 
L 297.219634 225.653289 
z
" style="fill:#1f77b4;opacity:0.4;"/>
   </g>
   <g id="patch_38">
    <path clip-path="url(#pb3fb5d72b2)" d="M 303.592848 225.920321 
L 309.966061 225.920321 
L 309.966061 225.920321 
L 303.592848 225.920321 
z
" style="fill:#1f77b4;opacity:0.4;"/>
   </g>
   <g id="patch_39">
    <path clip-path="url(#pb3fb5d72b2)" d="M 309.966061 225.920321 
L 316.339275 225.920321 
L 316.339275 225.920321 
L 309.966061 225.920321 
z
" style="fill:#1f77b4;opacity:0.4;"/>
   </g>
   <g id="patch_40">
    <path clip-path="url(#pb3fb5d72b2)" d="M 316.339275 225.920321 
L 322.712488 225.920321 
L 322.712488 225.920321 
L 316.339275 225.920321 
z
" style="fill:#1f77b4;opacity:0.4;"/>
   </g>
   <g id="patch_41">
    <path clip-path="url(#pb3fb5d72b2)" d="M 322.712488 225.920321 
L 329.085702 225.920321 
L 329.085702 225.920321 
L 322.712488 225.920321 
z
" style="fill:#1f77b4;opacity:0.4;"/>
   </g>
   <g id="patch_42">
    <path clip-path="url(#pb3fb5d72b2)" d="M 329.085702 225.920321 
L 335.458916 225.920321 
L 335.458916 225.920321 
L 329.085702 225.920321 
z
" style="fill:#1f77b4;opacity:0.4;"/>
   </g>
   <g id="patch_43">
    <path clip-path="url(#pb3fb5d72b2)" d="M 335.458916 225.920321 
L 341.832129 225.920321 
L 341.832129 225.653289 
L 335.458916 225.653289 
z
" style="fill:#1f77b4;opacity:0.4;"/>
   </g>
   <g id="patch_44">
    <path clip-path="url(#pb3fb5d72b2)" d="M 78.695641 225.920321 
L 83.145316 225.920321 
L 83.145316 122.6545 
L 78.695641 122.6545 
z
" style="fill:#ff7f0e;opacity:0.4;"/>
   </g>
   <g id="patch_45">
    <path clip-path="url(#pb3fb5d72b2)" d="M 83.145316 225.920321 
L 87.594991 225.920321 
L 87.594991 160.518634 
L 83.145316 160.518634 
z
" style="fill:#ff7f0e;opacity:0.4;"/>
   </g>
   <g id="patch_46">
    <path clip-path="url(#pb3fb5d72b2)" d="M 87.594991 225.920321 
L 92.044666 225.920321 
L 92.044666 175.052342 
L 87.594991 175.052342 
z
" style="fill:#ff7f0e;opacity:0.4;"/>
   </g>
   <g id="patch_47">
    <path clip-path="url(#pb3fb5d72b2)" d="M 92.044666 225.920321 
L 96.494341 225.920321 
L 96.494341 189.968516 
L 92.044666 189.968516 
z
" style="fill:#ff7f0e;opacity:0.4;"/>
   </g>
   <g id="patch_48">
    <path clip-path="url(#pb3fb5d72b2)" d="M 96.494341 225.920321 
L 100.944016 225.920321 
L 100.944016 203.737292 
L 96.494341 203.737292 
z
" style="fill:#ff7f0e;opacity:0.4;"/>
   </g>
   <g id="patch_49">
    <path clip-path="url(#pb3fb5d72b2)" d="M 100.944016 225.920321 
L 105.393692 225.920321 
L 105.393692 203.354826 
L 100.944016 203.354826 
z
" style="fill:#ff7f0e;opacity:0.4;"/>
   </g>
   <g id="patch_50">
    <path clip-path="url(#pb3fb5d72b2)" d="M 105.393692 225.920321 
L 109.843367 225.920321 
L 109.843367 211.004147 
L 105.393692 211.004147 
z
" style="fill:#ff7f0e;opacity:0.4;"/>
   </g>
   <g id="patch_51">
    <path clip-path="url(#pb3fb5d72b2)" d="M 109.843367 225.920321 
L 114.293042 225.920321 
L 114.293042 217.123603 
L 109.843367 217.123603 
z
" style="fill:#ff7f0e;opacity:0.4;"/>
   </g>
   <g id="patch_52">
    <path clip-path="url(#pb3fb5d72b2)" d="M 114.293042 225.920321 
L 118.742717 225.920321 
L 118.742717 214.446341 
L 114.293042 214.446341 
z
" style="fill:#ff7f0e;opacity:0.4;"/>
   </g>
   <g id="patch_53">
    <path clip-path="url(#pb3fb5d72b2)" d="M 118.742717 225.920321 
L 123.192392 225.920321 
L 123.192392 215.211273 
L 118.742717 215.211273 
z
" style="fill:#ff7f0e;opacity:0.4;"/>
   </g>
   <g id="patch_54">
    <path clip-path="url(#pb3fb5d72b2)" d="M 123.192392 225.920321 
L 127.642067 225.920321 
L 127.642067 217.123603 
L 123.192392 217.123603 
z
" style="fill:#ff7f0e;opacity:0.4;"/>
   </g>
   <g id="patch_55">
    <path clip-path="url(#pb3fb5d72b2)" d="M 127.642067 225.920321 
L 132.091742 225.920321 
L 132.091742 218.271001 
L 127.642067 218.271001 
z
" style="fill:#ff7f0e;opacity:0.4;"/>
   </g>
   <g id="patch_56">
    <path clip-path="url(#pb3fb5d72b2)" d="M 132.091742 225.920321 
L 136.541417 225.920321 
L 136.541417 224.390457 
L 132.091742 224.390457 
z
" style="fill:#ff7f0e;opacity:0.4;"/>
   </g>
   <g id="patch_57">
    <path clip-path="url(#pb3fb5d72b2)" d="M 136.541417 225.920321 
L 140.991093 225.920321 
L 140.991093 224.772923 
L 136.541417 224.772923 
z
" style="fill:#ff7f0e;opacity:0.4;"/>
   </g>
   <g id="patch_58">
    <path clip-path="url(#pb3fb5d72b2)" d="M 140.991093 225.920321 
L 145.440768 225.920321 
L 145.440768 225.920321 
L 140.991093 225.920321 
z
" style="fill:#ff7f0e;opacity:0.4;"/>
   </g>
   <g id="patch_59">
    <path clip-path="url(#pb3fb5d72b2)" d="M 145.440768 225.920321 
L 149.890443 225.920321 
L 149.890443 223.625525 
L 145.440768 223.625525 
z
" style="fill:#ff7f0e;opacity:0.4;"/>
   </g>
   <g id="patch_60">
    <path clip-path="url(#pb3fb5d72b2)" d="M 149.890443 225.920321 
L 154.340118 225.920321 
L 154.340118 224.007991 
L 149.890443 224.007991 
z
" style="fill:#ff7f0e;opacity:0.4;"/>
   </g>
   <g id="patch_61">
    <path clip-path="url(#pb3fb5d72b2)" d="M 154.340118 225.920321 
L 158.789793 225.920321 
L 158.789793 224.007991 
L 154.340118 224.007991 
z
" style="fill:#ff7f0e;opacity:0.4;"/>
   </g>
   <g id="patch_62">
    <path clip-path="url(#pb3fb5d72b2)" d="M 158.789793 225.920321 
L 163.239468 225.920321 
L 163.239468 225.537855 
L 158.789793 225.537855 
z
" style="fill:#ff7f0e;opacity:0.4;"/>
   </g>
   <g id="patch_63">
    <path clip-path="url(#pb3fb5d72b2)" d="M 163.239468 225.920321 
L 167.689143 225.920321 
L 167.689143 225.155389 
L 163.239468 225.155389 
z
" style="fill:#ff7f0e;opacity:0.4;"/>
   </g>
   <g id="patch_64">
    <path clip-path="url(#pb3fb5d72b2)" d="M 167.689143 225.920321 
L 172.138819 225.920321 
L 172.138819 225.537855 
L 167.689143 225.537855 
z
" style="fill:#ff7f0e;opacity:0.4;"/>
   </g>
   <g id="patch_65">
    <path clip-path="url(#pb3fb5d72b2)" d="M 172.138819 225.920321 
L 176.588494 225.920321 
L 176.588494 224.772923 
L 172.138819 224.772923 
z
" style="fill:#ff7f0e;opacity:0.4;"/>
   </g>
   <g id="patch_66">
    <path clip-path="url(#pb3fb5d72b2)" d="M 176.588494 225.920321 
L 181.038169 225.920321 
L 181.038169 225.155389 
L 176.588494 225.155389 
z
" style="fill:#ff7f0e;opacity:0.4;"/>
   </g>
   <g id="patch_67">
    <path clip-path="url(#pb3fb5d72b2)" d="M 181.038169 225.920321 
L 185.487844 225.920321 
L 185.487844 225.537855 
L 181.038169 225.537855 
z
" style="fill:#ff7f0e;opacity:0.4;"/>
   </g>
   <g id="patch_68">
    <path clip-path="url(#pb3fb5d72b2)" d="M 185.487844 225.920321 
L 189.937519 225.920321 
L 189.937519 225.537855 
L 185.487844 225.537855 
z
" style="fill:#ff7f0e;opacity:0.4;"/>
   </g>
   <g id="patch_69">
    <path clip-path="url(#pb3fb5d72b2)" d="M 189.937519 225.920321 
L 194.387194 225.920321 
L 194.387194 225.920321 
L 189.937519 225.920321 
z
" style="fill:#ff7f0e;opacity:0.4;"/>
   </g>
   <g id="patch_70">
    <path clip-path="url(#pb3fb5d72b2)" d="M 194.387194 225.920321 
L 198.836869 225.920321 
L 198.836869 225.537855 
L 194.387194 225.537855 
z
" style="fill:#ff7f0e;opacity:0.4;"/>
   </g>
   <g id="patch_71">
    <path clip-path="url(#pb3fb5d72b2)" d="M 198.836869 225.920321 
L 203.286544 225.920321 
L 203.286544 224.772923 
L 198.836869 224.772923 
z
" style="fill:#ff7f0e;opacity:0.4;"/>
   </g>
   <g id="patch_72">
    <path clip-path="url(#pb3fb5d72b2)" d="M 203.286544 225.920321 
L 207.73622 225.920321 
L 207.73622 225.155389 
L 203.286544 225.155389 
z
" style="fill:#ff7f0e;opacity:0.4;"/>
   </g>
   <g id="patch_73">
    <path clip-path="url(#pb3fb5d72b2)" d="M 207.73622 225.920321 
L 212.185895 225.920321 
L 212.185895 225.155389 
L 207.73622 225.155389 
z
" style="fill:#ff7f0e;opacity:0.4;"/>
   </g>
   <g id="patch_74">
    <path clip-path="url(#pb3fb5d72b2)" d="M 212.185895 225.920321 
L 216.63557 225.920321 
L 216.63557 225.537855 
L 212.185895 225.537855 
z
" style="fill:#ff7f0e;opacity:0.4;"/>
   </g>
   <g id="patch_75">
    <path clip-path="url(#pb3fb5d72b2)" d="M 216.63557 225.920321 
L 221.085245 225.920321 
L 221.085245 225.920321 
L 216.63557 225.920321 
z
" style="fill:#ff7f0e;opacity:0.4;"/>
   </g>
   <g id="patch_76">
    <path clip-path="url(#pb3fb5d72b2)" d="M 221.085245 225.920321 
L 225.53492 225.920321 
L 225.53492 225.155389 
L 221.085245 225.155389 
z
" style="fill:#ff7f0e;opacity:0.4;"/>
   </g>
   <g id="patch_77">
    <path clip-path="url(#pb3fb5d72b2)" d="M 225.53492 225.920321 
L 229.984595 225.920321 
L 229.984595 225.920321 
L 225.53492 225.920321 
z
" style="fill:#ff7f0e;opacity:0.4;"/>
   </g>
   <g id="patch_78">
    <path clip-path="url(#pb3fb5d72b2)" d="M 229.984595 225.920321 
L 234.43427 225.920321 
L 234.43427 225.920321 
L 229.984595 225.920321 
z
" style="fill:#ff7f0e;opacity:0.4;"/>
   </g>
   <g id="patch_79">
    <path clip-path="url(#pb3fb5d72b2)" d="M 234.43427 225.920321 
L 238.883945 225.920321 
L 238.883945 225.537855 
L 234.43427 225.537855 
z
" style="fill:#ff7f0e;opacity:0.4;"/>
   </g>
   <g id="patch_80">
    <path clip-path="url(#pb3fb5d72b2)" d="M 238.883945 225.920321 
L 243.333621 225.920321 
L 243.333621 225.920321 
L 238.883945 225.920321 
z
" style="fill:#ff7f0e;opacity:0.4;"/>
   </g>
   <g id="patch_81">
    <path clip-path="url(#pb3fb5d72b2)" d="M 243.333621 225.920321 
L 247.783296 225.920321 
L 247.783296 225.920321 
L 243.333621 225.920321 
z
" style="fill:#ff7f0e;opacity:0.4;"/>
   </g>
   <g id="patch_82">
    <path clip-path="url(#pb3fb5d72b2)" d="M 247.783296 225.920321 
L 252.232971 225.920321 
L 252.232971 225.920321 
L 247.783296 225.920321 
z
" style="fill:#ff7f0e;opacity:0.4;"/>
   </g>
   <g id="patch_83">
    <path clip-path="url(#pb3fb5d72b2)" d="M 252.232971 225.920321 
L 256.682646 225.920321 
L 256.682646 225.537855 
L 252.232971 225.537855 
z
" style="fill:#ff7f0e;opacity:0.4;"/>
   </g>
   <g id="patch_84">
    <path clip-path="url(#pb3fb5d72b2)" d="M 256.682646 225.920321 
L 261.132321 225.920321 
L 261.132321 225.537855 
L 256.682646 225.537855 
z
" style="fill:#ff7f0e;opacity:0.4;"/>
   </g>
   <g id="patch_85">
    <path clip-path="url(#pb3fb5d72b2)" d="M 261.132321 225.920321 
L 265.581996 225.920321 
L 265.581996 225.155389 
L 261.132321 225.155389 
z
" style="fill:#ff7f0e;opacity:0.4;"/>
   </g>
   <g id="patch_86">
    <path clip-path="url(#pb3fb5d72b2)" d="M 265.581996 225.920321 
L 270.031671 225.920321 
L 270.031671 225.920321 
L 265.581996 225.920321 
z
" style="fill:#ff7f0e;opacity:0.4;"/>
   </g>
   <g id="patch_87">
    <path clip-path="url(#pb3fb5d72b2)" d="M 270.031671 225.920321 
L 274.481347 225.920321 
L 274.481347 225.920321 
L 270.031671 225.920321 
z
" style="fill:#ff7f0e;opacity:0.4;"/>
   </g>
   <g id="patch_88">
    <path clip-path="url(#pb3fb5d72b2)" d="M 274.481347 225.920321 
L 278.931022 225.920321 
L 278.931022 225.537855 
L 274.481347 225.537855 
z
" style="fill:#ff7f0e;opacity:0.4;"/>
   </g>
   <g id="patch_89">
    <path clip-path="url(#pb3fb5d72b2)" d="M 278.931022 225.920321 
L 283.380697 225.920321 
L 283.380697 225.920321 
L 278.931022 225.920321 
z
" style="fill:#ff7f0e;opacity:0.4;"/>
   </g>
   <g id="patch_90">
    <path clip-path="url(#pb3fb5d72b2)" d="M 283.380697 225.920321 
L 287.830372 225.920321 
L 287.830372 225.920321 
L 283.380697 225.920321 
z
" style="fill:#ff7f0e;opacity:0.4;"/>
   </g>
   <g id="patch_91">
    <path clip-path="url(#pb3fb5d72b2)" d="M 287.830372 225.920321 
L 292.280047 225.920321 
L 292.280047 225.920321 
L 287.830372 225.920321 
z
" style="fill:#ff7f0e;opacity:0.4;"/>
   </g>
   <g id="patch_92">
    <path clip-path="url(#pb3fb5d72b2)" d="M 292.280047 225.920321 
L 296.729722 225.920321 
L 296.729722 225.920321 
L 292.280047 225.920321 
z
" style="fill:#ff7f0e;opacity:0.4;"/>
   </g>
   <g id="patch_93">
    <path clip-path="url(#pb3fb5d72b2)" d="M 296.729722 225.920321 
L 301.179397 225.920321 
L 301.179397 225.537855 
L 296.729722 225.537855 
z
" style="fill:#ff7f0e;opacity:0.4;"/>
   </g>
   <g id="patch_94">
    <path clip-path="url(#pb3fb5d72b2)" d="M 78.683077 225.920321 
L 82.340128 225.920321 
L 82.340128 18.834606 
L 78.683077 18.834606 
z
" style="fill:#2ca02c;opacity:0.4;"/>
   </g>
   <g id="patch_95">
    <path clip-path="url(#pb3fb5d72b2)" d="M 82.340128 225.920321 
L 85.997179 225.920321 
L 85.997179 184.037817 
L 82.340128 184.037817 
z
" style="fill:#2ca02c;opacity:0.4;"/>
   </g>
   <g id="patch_96">
    <path clip-path="url(#pb3fb5d72b2)" d="M 85.997179 225.920321 
L 89.65423 225.920321 
L 89.65423 176.592038 
L 85.997179 176.592038 
z
" style="fill:#2ca02c;opacity:0.4;"/>
   </g>
   <g id="patch_97">
    <path clip-path="url(#pb3fb5d72b2)" d="M 89.65423 225.920321 
L 93.311281 225.920321 
L 93.311281 191.018234 
L 89.65423 191.018234 
z
" style="fill:#2ca02c;opacity:0.4;"/>
   </g>
   <g id="patch_98">
    <path clip-path="url(#pb3fb5d72b2)" d="M 93.311281 225.920321 
L 96.968332 225.920321 
L 96.968332 193.810401 
L 93.311281 193.810401 
z
" style="fill:#2ca02c;opacity:0.4;"/>
   </g>
   <g id="patch_99">
    <path clip-path="url(#pb3fb5d72b2)" d="M 96.968332 225.920321 
L 100.625383 225.920321 
L 100.625383 195.671846 
L 96.968332 195.671846 
z
" style="fill:#2ca02c;opacity:0.4;"/>
   </g>
   <g id="patch_100">
    <path clip-path="url(#pb3fb5d72b2)" d="M 100.625383 225.920321 
L 104.282434 225.920321 
L 104.282434 203.582985 
L 100.625383 203.582985 
z
" style="fill:#2ca02c;opacity:0.4;"/>
   </g>
   <g id="patch_101">
    <path clip-path="url(#pb3fb5d72b2)" d="M 104.282434 225.920321 
L 107.939485 225.920321 
L 107.939485 217.54382 
L 104.282434 217.54382 
z
" style="fill:#2ca02c;opacity:0.4;"/>
   </g>
   <g id="patch_102">
    <path clip-path="url(#pb3fb5d72b2)" d="M 107.939485 225.920321 
L 111.596536 225.920321 
L 111.596536 223.128154 
L 107.939485 223.128154 
z
" style="fill:#2ca02c;opacity:0.4;"/>
   </g>
   <g id="patch_103">
    <path clip-path="url(#pb3fb5d72b2)" d="M 111.596536 225.920321 
L 115.253587 225.920321 
L 115.253587 222.662793 
L 111.596536 222.662793 
z
" style="fill:#2ca02c;opacity:0.4;"/>
   </g>
   <g id="patch_104">
    <path clip-path="url(#pb3fb5d72b2)" d="M 115.253587 225.920321 
L 118.910638 225.920321 
L 118.910638 222.197431 
L 115.253587 222.197431 
z
" style="fill:#2ca02c;opacity:0.4;"/>
   </g>
   <g id="patch_105">
    <path clip-path="url(#pb3fb5d72b2)" d="M 118.910638 225.920321 
L 122.567689 225.920321 
L 122.567689 221.266709 
L 118.910638 221.266709 
z
" style="fill:#2ca02c;opacity:0.4;"/>
   </g>
   <g id="patch_106">
    <path clip-path="url(#pb3fb5d72b2)" d="M 122.567689 225.920321 
L 126.22474 225.920321 
L 126.22474 223.593515 
L 122.567689 223.593515 
z
" style="fill:#2ca02c;opacity:0.4;"/>
   </g>
   <g id="patch_107">
    <path clip-path="url(#pb3fb5d72b2)" d="M 126.22474 225.920321 
L 129.881791 225.920321 
L 129.881791 224.524237 
L 126.22474 224.524237 
z
" style="fill:#2ca02c;opacity:0.4;"/>
   </g>
   <g id="patch_108">
    <path clip-path="url(#pb3fb5d72b2)" d="M 129.881791 225.920321 
L 133.538842 225.920321 
L 133.538842 222.662793 
L 129.881791 222.662793 
z
" style="fill:#2ca02c;opacity:0.4;"/>
   </g>
   <g id="patch_109">
    <path clip-path="url(#pb3fb5d72b2)" d="M 133.538842 225.920321 
L 137.195893 225.920321 
L 137.195893 223.593515 
L 133.538842 223.593515 
z
" style="fill:#2ca02c;opacity:0.4;"/>
   </g>
   <g id="patch_110">
    <path clip-path="url(#pb3fb5d72b2)" d="M 137.195893 225.920321 
L 140.852944 225.920321 
L 140.852944 224.524237 
L 137.195893 224.524237 
z
" style="fill:#2ca02c;opacity:0.4;"/>
   </g>
   <g id="patch_111">
    <path clip-path="url(#pb3fb5d72b2)" d="M 140.852944 225.920321 
L 144.509995 225.920321 
L 144.509995 224.058876 
L 140.852944 224.058876 
z
" style="fill:#2ca02c;opacity:0.4;"/>
   </g>
   <g id="patch_112">
    <path clip-path="url(#pb3fb5d72b2)" d="M 144.509995 225.920321 
L 148.167046 225.920321 
L 148.167046 224.058876 
L 144.509995 224.058876 
z
" style="fill:#2ca02c;opacity:0.4;"/>
   </g>
   <g id="patch_113">
    <path clip-path="url(#pb3fb5d72b2)" d="M 148.167046 225.920321 
L 151.824097 225.920321 
L 151.824097 224.989598 
L 148.167046 224.989598 
z
" style="fill:#2ca02c;opacity:0.4;"/>
   </g>
   <g id="patch_114">
    <path clip-path="url(#pb3fb5d72b2)" d="M 151.824097 225.920321 
L 155.481148 225.920321 
L 155.481148 225.45496 
L 151.824097 225.45496 
z
" style="fill:#2ca02c;opacity:0.4;"/>
   </g>
   <g id="patch_115">
    <path clip-path="url(#pb3fb5d72b2)" d="M 155.481148 225.920321 
L 159.138199 225.920321 
L 159.138199 225.45496 
L 155.481148 225.45496 
z
" style="fill:#2ca02c;opacity:0.4;"/>
   </g>
   <g id="patch_116">
    <path clip-path="url(#pb3fb5d72b2)" d="M 159.138199 225.920321 
L 162.795249 225.920321 
L 162.795249 224.058876 
L 159.138199 224.058876 
z
" style="fill:#2ca02c;opacity:0.4;"/>
   </g>
   <g id="patch_117">
    <path clip-path="url(#pb3fb5d72b2)" d="M 162.795249 225.920321 
L 166.4523 225.920321 
L 166.4523 224.524237 
L 162.795249 224.524237 
z
" style="fill:#2ca02c;opacity:0.4;"/>
   </g>
   <g id="patch_118">
    <path clip-path="url(#pb3fb5d72b2)" d="M 166.4523 225.920321 
L 170.109351 225.920321 
L 170.109351 225.920321 
L 166.4523 225.920321 
z
" style="fill:#2ca02c;opacity:0.4;"/>
   </g>
   <g id="patch_119">
    <path clip-path="url(#pb3fb5d72b2)" d="M 170.109351 225.920321 
L 173.766402 225.920321 
L 173.766402 224.989598 
L 170.109351 224.989598 
z
" style="fill:#2ca02c;opacity:0.4;"/>
   </g>
   <g id="patch_120">
    <path clip-path="url(#pb3fb5d72b2)" d="M 173.766402 225.920321 
L 177.423453 225.920321 
L 177.423453 225.45496 
L 173.766402 225.45496 
z
" style="fill:#2ca02c;opacity:0.4;"/>
   </g>
   <g id="patch_121">
    <path clip-path="url(#pb3fb5d72b2)" d="M 177.423453 225.920321 
L 181.080504 225.920321 
L 181.080504 225.45496 
L 177.423453 225.45496 
z
" style="fill:#2ca02c;opacity:0.4;"/>
   </g>
   <g id="patch_122">
    <path clip-path="url(#pb3fb5d72b2)" d="M 181.080504 225.920321 
L 184.737555 225.920321 
L 184.737555 225.920321 
L 181.080504 225.920321 
z
" style="fill:#2ca02c;opacity:0.4;"/>
   </g>
   <g id="patch_123">
    <path clip-path="url(#pb3fb5d72b2)" d="M 184.737555 225.920321 
L 188.394606 225.920321 
L 188.394606 225.45496 
L 184.737555 225.45496 
z
" style="fill:#2ca02c;opacity:0.4;"/>
   </g>
   <g id="patch_124">
    <path clip-path="url(#pb3fb5d72b2)" d="M 188.394606 225.920321 
L 192.051657 225.920321 
L 192.051657 225.920321 
L 188.394606 225.920321 
z
" style="fill:#2ca02c;opacity:0.4;"/>
   </g>
   <g id="patch_125">
    <path clip-path="url(#pb3fb5d72b2)" d="M 192.051657 225.920321 
L 195.708708 225.920321 
L 195.708708 225.920321 
L 192.051657 225.920321 
z
" style="fill:#2ca02c;opacity:0.4;"/>
   </g>
   <g id="patch_126">
    <path clip-path="url(#pb3fb5d72b2)" d="M 195.708708 225.920321 
L 199.365759 225.920321 
L 199.365759 225.45496 
L 195.708708 225.45496 
z
" style="fill:#2ca02c;opacity:0.4;"/>
   </g>
   <g id="patch_127">
    <path clip-path="url(#pb3fb5d72b2)" d="M 199.365759 225.920321 
L 203.02281 225.920321 
L 203.02281 225.920321 
L 199.365759 225.920321 
z
" style="fill:#2ca02c;opacity:0.4;"/>
   </g>
   <g id="patch_128">
    <path clip-path="url(#pb3fb5d72b2)" d="M 203.02281 225.920321 
L 206.679861 225.920321 
L 206.679861 225.920321 
L 203.02281 225.920321 
z
" style="fill:#2ca02c;opacity:0.4;"/>
   </g>
   <g id="patch_129">
    <path clip-path="url(#pb3fb5d72b2)" d="M 206.679861 225.920321 
L 210.336912 225.920321 
L 210.336912 225.920321 
L 206.679861 225.920321 
z
" style="fill:#2ca02c;opacity:0.4;"/>
   </g>
   <g id="patch_130">
    <path clip-path="url(#pb3fb5d72b2)" d="M 210.336912 225.920321 
L 213.993963 225.920321 
L 213.993963 225.920321 
L 210.336912 225.920321 
z
" style="fill:#2ca02c;opacity:0.4;"/>
   </g>
   <g id="patch_131">
    <path clip-path="url(#pb3fb5d72b2)" d="M 213.993963 225.920321 
L 217.651014 225.920321 
L 217.651014 224.989598 
L 213.993963 224.989598 
z
" style="fill:#2ca02c;opacity:0.4;"/>
   </g>
   <g id="patch_132">
    <path clip-path="url(#pb3fb5d72b2)" d="M 217.651014 225.920321 
L 221.308065 225.920321 
L 221.308065 225.45496 
L 217.651014 225.45496 
z
" style="fill:#2ca02c;opacity:0.4;"/>
   </g>
   <g id="patch_133">
    <path clip-path="url(#pb3fb5d72b2)" d="M 221.308065 225.920321 
L 224.965116 225.920321 
L 224.965116 225.920321 
L 221.308065 225.920321 
z
" style="fill:#2ca02c;opacity:0.4;"/>
   </g>
   <g id="patch_134">
    <path clip-path="url(#pb3fb5d72b2)" d="M 224.965116 225.920321 
L 228.622167 225.920321 
L 228.622167 225.920321 
L 224.965116 225.920321 
z
" style="fill:#2ca02c;opacity:0.4;"/>
   </g>
   <g id="patch_135">
    <path clip-path="url(#pb3fb5d72b2)" d="M 228.622167 225.920321 
L 232.279218 225.920321 
L 232.279218 225.45496 
L 228.622167 225.45496 
z
" style="fill:#2ca02c;opacity:0.4;"/>
   </g>
   <g id="patch_136">
    <path clip-path="url(#pb3fb5d72b2)" d="M 232.279218 225.920321 
L 235.936269 225.920321 
L 235.936269 225.920321 
L 232.279218 225.920321 
z
" style="fill:#2ca02c;opacity:0.4;"/>
   </g>
   <g id="patch_137">
    <path clip-path="url(#pb3fb5d72b2)" d="M 235.936269 225.920321 
L 239.59332 225.920321 
L 239.59332 225.920321 
L 235.936269 225.920321 
z
" style="fill:#2ca02c;opacity:0.4;"/>
   </g>
   <g id="patch_138">
    <path clip-path="url(#pb3fb5d72b2)" d="M 239.59332 225.920321 
L 243.250371 225.920321 
L 243.250371 225.920321 
L 239.59332 225.920321 
z
" style="fill:#2ca02c;opacity:0.4;"/>
   </g>
   <g id="patch_139">
    <path clip-path="url(#pb3fb5d72b2)" d="M 243.250371 225.920321 
L 246.907422 225.920321 
L 246.907422 225.920321 
L 243.250371 225.920321 
z
" style="fill:#2ca02c;opacity:0.4;"/>
   </g>
   <g id="patch_140">
    <path clip-path="url(#pb3fb5d72b2)" d="M 246.907422 225.920321 
L 250.564473 225.920321 
L 250.564473 225.920321 
L 246.907422 225.920321 
z
" style="fill:#2ca02c;opacity:0.4;"/>
   </g>
   <g id="patch_141">
    <path clip-path="url(#pb3fb5d72b2)" d="M 250.564473 225.920321 
L 254.221524 225.920321 
L 254.221524 225.920321 
L 250.564473 225.920321 
z
" style="fill:#2ca02c;opacity:0.4;"/>
   </g>
   <g id="patch_142">
    <path clip-path="url(#pb3fb5d72b2)" d="M 254.221524 225.920321 
L 257.878575 225.920321 
L 257.878575 225.920321 
L 254.221524 225.920321 
z
" style="fill:#2ca02c;opacity:0.4;"/>
   </g>
   <g id="patch_143">
    <path clip-path="url(#pb3fb5d72b2)" d="M 257.878575 225.920321 
L 261.535626 225.920321 
L 261.535626 225.45496 
L 257.878575 225.45496 
z
" style="fill:#2ca02c;opacity:0.4;"/>
   </g>
   <g id="matplotlib.axis_1">
    <g id="xtick_1">
     <g id="line2d_1">
      <defs>
       <path d="M 0 0 
L 0 3.5 
" id="m131e017de7" style="stroke:#000000;stroke-width:0.8;"/>
      </defs>
      <g>
       <use style="stroke:#000000;stroke-width:0.8;" x="78.683077" xlink:href="#m131e017de7" y="225.920321"/>
      </g>
     </g>
     <g id="text_1">
      <!-- 0 -->
      <g transform="translate(75.501827 240.518758)scale(0.1 -0.1)">
       <defs>
        <path d="M 2034 4250 
Q 1547 4250 1301 3770 
Q 1056 3291 1056 2328 
Q 1056 1369 1301 889 
Q 1547 409 2034 409 
Q 2525 409 2770 889 
Q 3016 1369 3016 2328 
Q 3016 3291 2770 3770 
Q 2525 4250 2034 4250 
z
M 2034 4750 
Q 2819 4750 3233 4129 
Q 3647 3509 3647 2328 
Q 3647 1150 3233 529 
Q 2819 -91 2034 -91 
Q 1250 -91 836 529 
Q 422 1150 422 2328 
Q 422 3509 836 4129 
Q 1250 4750 2034 4750 
z
" id="DejaVuSans-30" transform="scale(0.015625)"/>
       </defs>
       <use xlink:href="#DejaVuSans-30"/>
      </g>
     </g>
    </g>
    <g id="xtick_2">
     <g id="line2d_2">
      <g>
       <use style="stroke:#000000;stroke-width:0.8;" x="134.11247" xlink:href="#m131e017de7" y="225.920321"/>
      </g>
     </g>
     <g id="text_2">
      <!-- 2 -->
      <g transform="translate(130.93122 240.518758)scale(0.1 -0.1)">
       <defs>
        <path d="M 1228 531 
L 3431 531 
L 3431 0 
L 469 0 
L 469 531 
Q 828 903 1448 1529 
Q 2069 2156 2228 2338 
Q 2531 2678 2651 2914 
Q 2772 3150 2772 3378 
Q 2772 3750 2511 3984 
Q 2250 4219 1831 4219 
Q 1534 4219 1204 4116 
Q 875 4013 500 3803 
L 500 4441 
Q 881 4594 1212 4672 
Q 1544 4750 1819 4750 
Q 2544 4750 2975 4387 
Q 3406 4025 3406 3419 
Q 3406 3131 3298 2873 
Q 3191 2616 2906 2266 
Q 2828 2175 2409 1742 
Q 1991 1309 1228 531 
z
" id="DejaVuSans-32" transform="scale(0.015625)"/>
       </defs>
       <use xlink:href="#DejaVuSans-32"/>
      </g>
     </g>
    </g>
    <g id="xtick_3">
     <g id="line2d_3">
      <g>
       <use style="stroke:#000000;stroke-width:0.8;" x="189.541864" xlink:href="#m131e017de7" y="225.920321"/>
      </g>
     </g>
     <g id="text_3">
      <!-- 4 -->
      <g transform="translate(186.360614 240.518758)scale(0.1 -0.1)">
       <defs>
        <path d="M 2419 4116 
L 825 1625 
L 2419 1625 
L 2419 4116 
z
M 2253 4666 
L 3047 4666 
L 3047 1625 
L 3713 1625 
L 3713 1100 
L 3047 1100 
L 3047 0 
L 2419 0 
L 2419 1100 
L 313 1100 
L 313 1709 
L 2253 4666 
z
" id="DejaVuSans-34" transform="scale(0.015625)"/>
       </defs>
       <use xlink:href="#DejaVuSans-34"/>
      </g>
     </g>
    </g>
    <g id="xtick_4">
     <g id="line2d_4">
      <g>
       <use style="stroke:#000000;stroke-width:0.8;" x="244.971257" xlink:href="#m131e017de7" y="225.920321"/>
      </g>
     </g>
     <g id="text_4">
      <!-- 6 -->
      <g transform="translate(241.790007 240.518758)scale(0.1 -0.1)">
       <defs>
        <path d="M 2113 2584 
Q 1688 2584 1439 2293 
Q 1191 2003 1191 1497 
Q 1191 994 1439 701 
Q 1688 409 2113 409 
Q 2538 409 2786 701 
Q 3034 994 3034 1497 
Q 3034 2003 2786 2293 
Q 2538 2584 2113 2584 
z
M 3366 4563 
L 3366 3988 
Q 3128 4100 2886 4159 
Q 2644 4219 2406 4219 
Q 1781 4219 1451 3797 
Q 1122 3375 1075 2522 
Q 1259 2794 1537 2939 
Q 1816 3084 2150 3084 
Q 2853 3084 3261 2657 
Q 3669 2231 3669 1497 
Q 3669 778 3244 343 
Q 2819 -91 2113 -91 
Q 1303 -91 875 529 
Q 447 1150 447 2328 
Q 447 3434 972 4092 
Q 1497 4750 2381 4750 
Q 2619 4750 2861 4703 
Q 3103 4656 3366 4563 
z
" id="DejaVuSans-36" transform="scale(0.015625)"/>
       </defs>
       <use xlink:href="#DejaVuSans-36"/>
      </g>
     </g>
    </g>
    <g id="xtick_5">
     <g id="line2d_5">
      <g>
       <use style="stroke:#000000;stroke-width:0.8;" x="300.40065" xlink:href="#m131e017de7" y="225.920321"/>
      </g>
     </g>
     <g id="text_5">
      <!-- 8 -->
      <g transform="translate(297.2194 240.518758)scale(0.1 -0.1)">
       <defs>
        <path d="M 2034 2216 
Q 1584 2216 1326 1975 
Q 1069 1734 1069 1313 
Q 1069 891 1326 650 
Q 1584 409 2034 409 
Q 2484 409 2743 651 
Q 3003 894 3003 1313 
Q 3003 1734 2745 1975 
Q 2488 2216 2034 2216 
z
M 1403 2484 
Q 997 2584 770 2862 
Q 544 3141 544 3541 
Q 544 4100 942 4425 
Q 1341 4750 2034 4750 
Q 2731 4750 3128 4425 
Q 3525 4100 3525 3541 
Q 3525 3141 3298 2862 
Q 3072 2584 2669 2484 
Q 3125 2378 3379 2068 
Q 3634 1759 3634 1313 
Q 3634 634 3220 271 
Q 2806 -91 2034 -91 
Q 1263 -91 848 271 
Q 434 634 434 1313 
Q 434 1759 690 2068 
Q 947 2378 1403 2484 
z
M 1172 3481 
Q 1172 3119 1398 2916 
Q 1625 2713 2034 2713 
Q 2441 2713 2670 2916 
Q 2900 3119 2900 3481 
Q 2900 3844 2670 4047 
Q 2441 4250 2034 4250 
Q 1625 4250 1398 4047 
Q 1172 3844 1172 3481 
z
" id="DejaVuSans-38" transform="scale(0.015625)"/>
       </defs>
       <use xlink:href="#DejaVuSans-38"/>
      </g>
     </g>
    </g>
    <g id="xtick_6">
     <g id="line2d_6">
      <g>
       <use style="stroke:#000000;stroke-width:0.8;" x="355.830043" xlink:href="#m131e017de7" y="225.920321"/>
      </g>
     </g>
     <g id="text_6">
      <!-- 10 -->
      <g transform="translate(349.467543 240.518758)scale(0.1 -0.1)">
       <defs>
        <path d="M 794 531 
L 1825 531 
L 1825 4091 
L 703 3866 
L 703 4441 
L 1819 4666 
L 2450 4666 
L 2450 531 
L 3481 531 
L 3481 0 
L 794 0 
L 794 531 
z
" id="DejaVuSans-31" transform="scale(0.015625)"/>
       </defs>
       <use xlink:href="#DejaVuSans-31"/>
       <use x="63.623047" xlink:href="#DejaVuSans-30"/>
      </g>
     </g>
    </g>
    <g id="text_7">
     <!-- f(t) -->
     <g transform="translate(203.559375 254.196883)scale(0.1 -0.1)">
      <defs>
       <path d="M 2375 4863 
L 2375 4384 
L 1825 4384 
Q 1516 4384 1395 4259 
Q 1275 4134 1275 3809 
L 1275 3500 
L 2222 3500 
L 2222 3053 
L 1275 3053 
L 1275 0 
L 697 0 
L 697 3053 
L 147 3053 
L 147 3500 
L 697 3500 
L 697 3744 
Q 697 4328 969 4595 
Q 1241 4863 1831 4863 
L 2375 4863 
z
" id="DejaVuSans-66" transform="scale(0.015625)"/>
       <path d="M 1984 4856 
Q 1566 4138 1362 3434 
Q 1159 2731 1159 2009 
Q 1159 1288 1364 580 
Q 1569 -128 1984 -844 
L 1484 -844 
Q 1016 -109 783 600 
Q 550 1309 550 2009 
Q 550 2706 781 3412 
Q 1013 4119 1484 4856 
L 1984 4856 
z
" id="DejaVuSans-28" transform="scale(0.015625)"/>
       <path d="M 1172 4494 
L 1172 3500 
L 2356 3500 
L 2356 3053 
L 1172 3053 
L 1172 1153 
Q 1172 725 1289 603 
Q 1406 481 1766 481 
L 2356 481 
L 2356 0 
L 1766 0 
Q 1100 0 847 248 
Q 594 497 594 1153 
L 594 3053 
L 172 3053 
L 172 3500 
L 594 3500 
L 594 4494 
L 1172 4494 
z
" id="DejaVuSans-74" transform="scale(0.015625)"/>
       <path d="M 513 4856 
L 1013 4856 
Q 1481 4119 1714 3412 
Q 1947 2706 1947 2009 
Q 1947 1309 1714 600 
Q 1481 -109 1013 -844 
L 513 -844 
Q 928 -128 1133 580 
Q 1338 1288 1338 2009 
Q 1338 2731 1133 3434 
Q 928 4138 513 4856 
z
" id="DejaVuSans-29" transform="scale(0.015625)"/>
      </defs>
      <use xlink:href="#DejaVuSans-66"/>
      <use x="35.205078" xlink:href="#DejaVuSans-28"/>
      <use x="74.21875" xlink:href="#DejaVuSans-74"/>
      <use x="113.427734" xlink:href="#DejaVuSans-29"/>
     </g>
    </g>
   </g>
   <g id="matplotlib.axis_2">
    <g id="ytick_1">
     <g id="line2d_7">
      <defs>
       <path d="M 0 0 
L -3.5 0 
" id="m8f97561e80" style="stroke:#000000;stroke-width:0.8;"/>
      </defs>
      <g>
       <use style="stroke:#000000;stroke-width:0.8;" x="43.78125" xlink:href="#m8f97561e80" y="225.920321"/>
      </g>
     </g>
     <g id="text_8">
      <!-- 0.0 -->
      <g transform="translate(20.878125 229.719539)scale(0.1 -0.1)">
       <defs>
        <path d="M 684 794 
L 1344 794 
L 1344 0 
L 684 0 
L 684 794 
z
" id="DejaVuSans-2e" transform="scale(0.015625)"/>
       </defs>
       <use xlink:href="#DejaVuSans-30"/>
       <use x="63.623047" xlink:href="#DejaVuSans-2e"/>
       <use x="95.410156" xlink:href="#DejaVuSans-30"/>
      </g>
     </g>
    </g>
    <g id="ytick_2">
     <g id="line2d_8">
      <g>
       <use style="stroke:#000000;stroke-width:0.8;" x="43.78125" xlink:href="#m8f97561e80" y="195.217306"/>
      </g>
     </g>
     <g id="text_9">
      <!-- 0.5 -->
      <g transform="translate(20.878125 199.016525)scale(0.1 -0.1)">
       <defs>
        <path d="M 691 4666 
L 3169 4666 
L 3169 4134 
L 1269 4134 
L 1269 2991 
Q 1406 3038 1543 3061 
Q 1681 3084 1819 3084 
Q 2600 3084 3056 2656 
Q 3513 2228 3513 1497 
Q 3513 744 3044 326 
Q 2575 -91 1722 -91 
Q 1428 -91 1123 -41 
Q 819 9 494 109 
L 494 744 
Q 775 591 1075 516 
Q 1375 441 1709 441 
Q 2250 441 2565 725 
Q 2881 1009 2881 1497 
Q 2881 1984 2565 2268 
Q 2250 2553 1709 2553 
Q 1456 2553 1204 2497 
Q 953 2441 691 2322 
L 691 4666 
z
" id="DejaVuSans-35" transform="scale(0.015625)"/>
       </defs>
       <use xlink:href="#DejaVuSans-30"/>
       <use x="63.623047" xlink:href="#DejaVuSans-2e"/>
       <use x="95.410156" xlink:href="#DejaVuSans-35"/>
      </g>
     </g>
    </g>
    <g id="ytick_3">
     <g id="line2d_9">
      <g>
       <use style="stroke:#000000;stroke-width:0.8;" x="43.78125" xlink:href="#m8f97561e80" y="164.514292"/>
      </g>
     </g>
     <g id="text_10">
      <!-- 1.0 -->
      <g transform="translate(20.878125 168.31351)scale(0.1 -0.1)">
       <use xlink:href="#DejaVuSans-31"/>
       <use x="63.623047" xlink:href="#DejaVuSans-2e"/>
       <use x="95.410156" xlink:href="#DejaVuSans-30"/>
      </g>
     </g>
    </g>
    <g id="ytick_4">
     <g id="line2d_10">
      <g>
       <use style="stroke:#000000;stroke-width:0.8;" x="43.78125" xlink:href="#m8f97561e80" y="133.811277"/>
      </g>
     </g>
     <g id="text_11">
      <!-- 1.5 -->
      <g transform="translate(20.878125 137.610496)scale(0.1 -0.1)">
       <use xlink:href="#DejaVuSans-31"/>
       <use x="63.623047" xlink:href="#DejaVuSans-2e"/>
       <use x="95.410156" xlink:href="#DejaVuSans-35"/>
      </g>
     </g>
    </g>
    <g id="ytick_5">
     <g id="line2d_11">
      <g>
       <use style="stroke:#000000;stroke-width:0.8;" x="43.78125" xlink:href="#m8f97561e80" y="103.108262"/>
      </g>
     </g>
     <g id="text_12">
      <!-- 2.0 -->
      <g transform="translate(20.878125 106.907481)scale(0.1 -0.1)">
       <use xlink:href="#DejaVuSans-32"/>
       <use x="63.623047" xlink:href="#DejaVuSans-2e"/>
       <use x="95.410156" xlink:href="#DejaVuSans-30"/>
      </g>
     </g>
    </g>
    <g id="ytick_6">
     <g id="line2d_12">
      <g>
       <use style="stroke:#000000;stroke-width:0.8;" x="43.78125" xlink:href="#m8f97561e80" y="72.405248"/>
      </g>
     </g>
     <g id="text_13">
      <!-- 2.5 -->
      <g transform="translate(20.878125 76.204467)scale(0.1 -0.1)">
       <use xlink:href="#DejaVuSans-32"/>
       <use x="63.623047" xlink:href="#DejaVuSans-2e"/>
       <use x="95.410156" xlink:href="#DejaVuSans-35"/>
      </g>
     </g>
    </g>
    <g id="ytick_7">
     <g id="line2d_13">
      <g>
       <use style="stroke:#000000;stroke-width:0.8;" x="43.78125" xlink:href="#m8f97561e80" y="41.702233"/>
      </g>
     </g>
     <g id="text_14">
      <!-- 3.0 -->
      <g transform="translate(20.878125 45.501452)scale(0.1 -0.1)">
       <defs>
        <path d="M 2597 2516 
Q 3050 2419 3304 2112 
Q 3559 1806 3559 1356 
Q 3559 666 3084 287 
Q 2609 -91 1734 -91 
Q 1441 -91 1130 -33 
Q 819 25 488 141 
L 488 750 
Q 750 597 1062 519 
Q 1375 441 1716 441 
Q 2309 441 2620 675 
Q 2931 909 2931 1356 
Q 2931 1769 2642 2001 
Q 2353 2234 1838 2234 
L 1294 2234 
L 1294 2753 
L 1863 2753 
Q 2328 2753 2575 2939 
Q 2822 3125 2822 3475 
Q 2822 3834 2567 4026 
Q 2313 4219 1838 4219 
Q 1578 4219 1281 4162 
Q 984 4106 628 3988 
L 628 4550 
Q 988 4650 1302 4700 
Q 1616 4750 1894 4750 
Q 2613 4750 3031 4423 
Q 3450 4097 3450 3541 
Q 3450 3153 3228 2886 
Q 3006 2619 2597 2516 
z
" id="DejaVuSans-33" transform="scale(0.015625)"/>
       </defs>
       <use xlink:href="#DejaVuSans-33"/>
       <use x="63.623047" xlink:href="#DejaVuSans-2e"/>
       <use x="95.410156" xlink:href="#DejaVuSans-30"/>
      </g>
     </g>
    </g>
    <g id="ytick_8">
     <g id="line2d_14">
      <g>
       <use style="stroke:#000000;stroke-width:0.8;" x="43.78125" xlink:href="#m8f97561e80" y="10.999219"/>
      </g>
     </g>
     <g id="text_15">
      <!-- 3.5 -->
      <g transform="translate(20.878125 14.798437)scale(0.1 -0.1)">
       <use xlink:href="#DejaVuSans-33"/>
       <use x="63.623047" xlink:href="#DejaVuSans-2e"/>
       <use x="95.410156" xlink:href="#DejaVuSans-35"/>
      </g>
     </g>
    </g>
    <g id="text_16">
     <!-- Density -->
     <g transform="translate(14.798438 136.208914)rotate(-90)scale(0.1 -0.1)">
      <defs>
       <path d="M 1259 4147 
L 1259 519 
L 2022 519 
Q 2988 519 3436 956 
Q 3884 1394 3884 2338 
Q 3884 3275 3436 3711 
Q 2988 4147 2022 4147 
L 1259 4147 
z
M 628 4666 
L 1925 4666 
Q 3281 4666 3915 4102 
Q 4550 3538 4550 2338 
Q 4550 1131 3912 565 
Q 3275 0 1925 0 
L 628 0 
L 628 4666 
z
" id="DejaVuSans-44" transform="scale(0.015625)"/>
       <path d="M 3597 1894 
L 3597 1613 
L 953 1613 
Q 991 1019 1311 708 
Q 1631 397 2203 397 
Q 2534 397 2845 478 
Q 3156 559 3463 722 
L 3463 178 
Q 3153 47 2828 -22 
Q 2503 -91 2169 -91 
Q 1331 -91 842 396 
Q 353 884 353 1716 
Q 353 2575 817 3079 
Q 1281 3584 2069 3584 
Q 2775 3584 3186 3129 
Q 3597 2675 3597 1894 
z
M 3022 2063 
Q 3016 2534 2758 2815 
Q 2500 3097 2075 3097 
Q 1594 3097 1305 2825 
Q 1016 2553 972 2059 
L 3022 2063 
z
" id="DejaVuSans-65" transform="scale(0.015625)"/>
       <path d="M 3513 2113 
L 3513 0 
L 2938 0 
L 2938 2094 
Q 2938 2591 2744 2837 
Q 2550 3084 2163 3084 
Q 1697 3084 1428 2787 
Q 1159 2491 1159 1978 
L 1159 0 
L 581 0 
L 581 3500 
L 1159 3500 
L 1159 2956 
Q 1366 3272 1645 3428 
Q 1925 3584 2291 3584 
Q 2894 3584 3203 3211 
Q 3513 2838 3513 2113 
z
" id="DejaVuSans-6e" transform="scale(0.015625)"/>
       <path d="M 2834 3397 
L 2834 2853 
Q 2591 2978 2328 3040 
Q 2066 3103 1784 3103 
Q 1356 3103 1142 2972 
Q 928 2841 928 2578 
Q 928 2378 1081 2264 
Q 1234 2150 1697 2047 
L 1894 2003 
Q 2506 1872 2764 1633 
Q 3022 1394 3022 966 
Q 3022 478 2636 193 
Q 2250 -91 1575 -91 
Q 1294 -91 989 -36 
Q 684 19 347 128 
L 347 722 
Q 666 556 975 473 
Q 1284 391 1588 391 
Q 1994 391 2212 530 
Q 2431 669 2431 922 
Q 2431 1156 2273 1281 
Q 2116 1406 1581 1522 
L 1381 1569 
Q 847 1681 609 1914 
Q 372 2147 372 2553 
Q 372 3047 722 3315 
Q 1072 3584 1716 3584 
Q 2034 3584 2315 3537 
Q 2597 3491 2834 3397 
z
" id="DejaVuSans-73" transform="scale(0.015625)"/>
       <path d="M 603 3500 
L 1178 3500 
L 1178 0 
L 603 0 
L 603 3500 
z
M 603 4863 
L 1178 4863 
L 1178 4134 
L 603 4134 
L 603 4863 
z
" id="DejaVuSans-69" transform="scale(0.015625)"/>
       <path d="M 2059 -325 
Q 1816 -950 1584 -1140 
Q 1353 -1331 966 -1331 
L 506 -1331 
L 506 -850 
L 844 -850 
Q 1081 -850 1212 -737 
Q 1344 -625 1503 -206 
L 1606 56 
L 191 3500 
L 800 3500 
L 1894 763 
L 2988 3500 
L 3597 3500 
L 2059 -325 
z
" id="DejaVuSans-79" transform="scale(0.015625)"/>
      </defs>
      <use xlink:href="#DejaVuSans-44"/>
      <use x="77.001953" xlink:href="#DejaVuSans-65"/>
      <use x="138.525391" xlink:href="#DejaVuSans-6e"/>
      <use x="201.904297" xlink:href="#DejaVuSans-73"/>
      <use x="254.003906" xlink:href="#DejaVuSans-69"/>
      <use x="281.787109" xlink:href="#DejaVuSans-74"/>
      <use x="320.996094" xlink:href="#DejaVuSans-79"/>
     </g>
    </g>
   </g>
   <g id="line2d_15">
    <path clip-path="url(#pb3fb5d72b2)" d="M 58.999432 225.909364 
L 65.117294 225.787084 
L 68.176225 225.553496 
L 71.235156 225.049909 
L 72.764621 224.648686 
L 74.294087 224.123713 
L 75.823552 223.461817 
L 77.353018 222.656272 
L 78.882483 221.708103 
L 81.941414 219.427414 
L 85.000345 216.770009 
L 92.647673 209.851208 
L 95.706604 207.427153 
L 98.765535 205.30208 
L 101.824466 203.431715 
L 104.883397 201.758842 
L 107.942328 200.290049 
L 111.001259 199.11792 
L 112.530725 198.684369 
L 114.06019 198.372831 
L 115.589656 198.194337 
L 117.119121 198.155311 
L 118.648587 198.25692 
L 120.178052 198.494409 
L 123.236983 199.324885 
L 126.295914 200.480892 
L 137.002173 205.014622 
L 140.061104 206.677645 
L 143.120035 208.686229 
L 152.296828 215.222764 
L 155.355759 217.006652 
L 158.41469 218.502481 
L 161.473621 219.723934 
L 164.532552 220.676626 
L 167.591483 221.37571 
L 172.17988 222.087147 
L 190.533466 224.401032 
L 195.121862 224.614504 
L 201.239724 224.596426 
L 207.357586 224.568526 
L 211.945983 224.76813 
L 221.122776 225.339919 
L 227.240638 225.419681 
L 236.417431 225.515011 
L 250.18262 225.738431 
L 291.478189 225.840746 
L 308.30231 225.884521 
L 328.185361 225.904788 
L 352.65681 225.889987 
L 363.363068 225.91927 
L 363.363068 225.91927 
" style="fill:none;stroke:#1f77b4;stroke-linecap:square;stroke-width:1.5;"/>
   </g>
   <g id="line2d_16">
    <path clip-path="url(#pb3fb5d72b2)" d="M 59.541212 225.765317 
L 62.162243 225.382025 
L 63.472759 224.974933 
L 64.783274 224.323762 
L 66.09379 223.326851 
L 67.404306 221.8666 
L 68.714821 219.821006 
L 70.025337 217.082031 
L 71.335853 213.579258 
L 72.646368 209.305005 
L 73.956884 204.335202 
L 79.198947 182.073151 
L 80.509462 177.518072 
L 81.819978 173.976366 
L 83.130494 171.622125 
L 84.441009 170.515987 
L 85.751525 170.608104 
L 87.06204 171.757997 
L 88.372556 173.765038 
L 89.683072 176.401919 
L 92.304103 182.69252 
L 94.925134 189.194905 
L 97.546166 195.076768 
L 100.167197 200.028542 
L 102.788228 204.068754 
L 105.40926 207.352386 
L 108.030291 210.019244 
L 110.651322 212.128592 
L 113.272353 213.698883 
L 115.893385 214.792451 
L 118.514416 215.559625 
L 123.756479 216.969179 
L 126.37751 217.96875 
L 128.998541 219.237452 
L 135.55112 222.693176 
L 138.172151 223.689514 
L 140.793182 224.300608 
L 143.414213 224.560626 
L 146.035245 224.579897 
L 153.898339 224.410918 
L 157.829886 224.579726 
L 167.003495 225.121249 
L 174.866589 225.177021 
L 181.419167 225.335821 
L 190.592777 225.592983 
L 195.834839 225.4872 
L 205.008449 225.1702 
L 210.250512 225.253354 
L 223.355668 225.642011 
L 237.77134 225.793479 
L 249.565981 225.734642 
L 261.360622 225.571472 
L 292.812998 225.871327 
L 307.22867 225.852437 
L 320.333826 225.919139 
L 320.333826 225.919139 
" style="fill:none;stroke:#ff7f0e;stroke-linecap:square;stroke-width:1.5;"/>
   </g>
   <g id="line2d_17">
    <path clip-path="url(#pb3fb5d72b2)" d="M 64.36831 225.317204 
L 65.431034 224.764758 
L 66.493758 223.811631 
L 67.556482 222.254888 
L 68.619206 219.849974 
L 69.68193 216.339989 
L 70.744654 211.507266 
L 71.807378 205.242485 
L 72.870102 197.61686 
L 77.120998 162.832059 
L 78.183722 156.661539 
L 79.246446 152.773734 
L 80.30917 151.361647 
L 81.371894 152.272199 
L 82.434618 155.064035 
L 83.497343 159.12603 
L 86.685515 173.051651 
L 87.748239 177.001379 
L 88.810963 180.382594 
L 89.873687 183.241196 
L 90.936411 185.67139 
L 93.061859 189.652223 
L 96.250031 194.635542 
L 98.375479 198.035573 
L 100.500927 201.917336 
L 102.626375 206.321567 
L 105.814547 213.085103 
L 106.877271 215.08704 
L 107.939995 216.85097 
L 109.002719 218.337466 
L 110.065443 219.532256 
L 111.128167 220.445496 
L 112.190891 221.107336 
L 113.253616 221.561137 
L 115.379064 222.040457 
L 119.62996 222.405263 
L 123.880856 222.936496 
L 127.069028 223.334815 
L 130.2572 223.503773 
L 135.57082 223.660877 
L 148.323509 224.666373 
L 152.574405 225.011171 
L 155.762577 225.024548 
L 162.138921 224.825995 
L 165.327093 225.009811 
L 169.577989 225.290332 
L 192.957918 225.807888 
L 213.149675 225.626486 
L 217.400571 225.531619 
L 223.776915 225.688885 
L 235.46688 225.840342 
L 246.09412 225.918969 
L 257.784084 225.815863 
L 264.160429 225.798011 
L 275.850393 225.91874 
L 275.850393 225.91874 
" style="fill:none;stroke:#2ca02c;stroke-linecap:square;stroke-width:1.5;"/>
   </g>
   <g id="patch_144">
    <path d="M 43.78125 225.920321 
L 43.78125 8.480321 
" style="fill:none;stroke:#000000;stroke-linecap:square;stroke-linejoin:miter;stroke-width:0.8;"/>
   </g>
   <g id="patch_145">
    <path d="M 378.58125 225.920321 
L 378.58125 8.480321 
" style="fill:none;stroke:#000000;stroke-linecap:square;stroke-linejoin:miter;stroke-width:0.8;"/>
   </g>
   <g id="patch_146">
    <path d="M 43.78125 225.920321 
L 378.58125 225.920321 
" style="fill:none;stroke:#000000;stroke-linecap:square;stroke-linejoin:miter;stroke-width:0.8;"/>
   </g>
   <g id="patch_147">
    <path d="M 43.78125 8.480321 
L 378.58125 8.480321 
" style="fill:none;stroke:#000000;stroke-linecap:square;stroke-linejoin:miter;stroke-width:0.8;"/>
   </g>
  </g>
 </g>
 <defs>
  <clipPath id="pb3fb5d72b2">
   <rect height="217.44" width="334.8" x="43.78125" y="8.480321"/>
  </clipPath>
 </defs>
</svg>
