<?xml version="1.0" encoding="utf-8" standalone="no"?>
<!DOCTYPE svg PUBLIC "-//W3C//DTD SVG 1.1//EN"
  "http://www.w3.org/Graphics/SVG/1.1/DTD/svg11.dtd">
<!-- Created with matplotlib (https://matplotlib.org/) -->
<svg height="262.19625pt" version="1.1" viewBox="0 0 392.14375 262.19625" width="392.14375pt" xmlns="http://www.w3.org/2000/svg" xmlns:xlink="http://www.w3.org/1999/xlink">
 <metadata>
  <rdf:RDF xmlns:cc="http://creativecommons.org/ns#" xmlns:dc="http://purl.org/dc/elements/1.1/" xmlns:rdf="http://www.w3.org/1999/02/22-rdf-syntax-ns#">
   <cc:Work>
    <dc:type rdf:resource="http://purl.org/dc/dcmitype/StillImage"/>
    <dc:date>2021-02-05T10:26:16.564363</dc:date>
    <dc:format>image/svg+xml</dc:format>
    <dc:creator>
     <cc:Agent>
      <dc:title>Matplotlib v3.3.4, https://matplotlib.org/</dc:title>
     </cc:Agent>
    </dc:creator>
   </cc:Work>
  </rdf:RDF>
 </metadata>
 <defs>
  <style type="text/css">*{stroke-linecap:butt;stroke-linejoin:round;}</style>
 </defs>
 <g id="figure_1">
  <g id="patch_1">
   <path d="M 0 262.19625 
L 392.14375 262.19625 
L 392.14375 0 
L 0 0 
z
" style="fill:none;"/>
  </g>
  <g id="axes_1">
   <g id="patch_2">
    <path d="M 50.14375 224.64 
L 384.94375 224.64 
L 384.94375 7.2 
L 50.14375 7.2 
z
" style="fill:#ffffff;"/>
   </g>
   <g id="patch_3">
    <path clip-path="url(#p0cfadb2042)" d="M 80.24182 224.64 
L 83.164248 224.64 
L 83.164248 219.416853 
L 80.24182 219.416853 
z
" style="fill:#1f77b4;opacity:0.4;"/>
   </g>
   <g id="patch_4">
    <path clip-path="url(#p0cfadb2042)" d="M 83.164248 224.64 
L 86.086675 224.64 
L 86.086675 214.193707 
L 83.164248 214.193707 
z
" style="fill:#1f77b4;opacity:0.4;"/>
   </g>
   <g id="patch_5">
    <path clip-path="url(#p0cfadb2042)" d="M 86.086675 224.64 
L 89.009103 224.64 
L 89.009103 205.898121 
L 86.086675 205.898121 
z
" style="fill:#1f77b4;opacity:0.4;"/>
   </g>
   <g id="patch_6">
    <path clip-path="url(#p0cfadb2042)" d="M 89.009103 224.64 
L 91.931531 224.64 
L 91.931531 202.211194 
L 89.009103 202.211194 
z
" style="fill:#1f77b4;opacity:0.4;"/>
   </g>
   <g id="patch_7">
    <path clip-path="url(#p0cfadb2042)" d="M 91.931531 224.64 
L 94.853959 224.64 
L 94.853959 193.30112 
L 91.931531 193.30112 
z
" style="fill:#1f77b4;opacity:0.4;"/>
   </g>
   <g id="patch_8">
    <path clip-path="url(#p0cfadb2042)" d="M 94.853959 224.64 
L 97.776386 224.64 
L 97.776386 181.011363 
L 94.853959 181.011363 
z
" style="fill:#1f77b4;opacity:0.4;"/>
   </g>
   <g id="patch_9">
    <path clip-path="url(#p0cfadb2042)" d="M 97.776386 224.64 
L 100.698814 224.64 
L 100.698814 188.692461 
L 97.776386 188.692461 
z
" style="fill:#1f77b4;opacity:0.4;"/>
   </g>
   <g id="patch_10">
    <path clip-path="url(#p0cfadb2042)" d="M 100.698814 224.64 
L 103.621242 224.64 
L 103.621242 192.379388 
L 100.698814 192.379388 
z
" style="fill:#1f77b4;opacity:0.4;"/>
   </g>
   <g id="patch_11">
    <path clip-path="url(#p0cfadb2042)" d="M 103.621242 224.64 
L 106.54367 224.64 
L 106.54367 200.674974 
L 103.621242 200.674974 
z
" style="fill:#1f77b4;opacity:0.4;"/>
   </g>
   <g id="patch_12">
    <path clip-path="url(#p0cfadb2042)" d="M 106.54367 224.64 
L 109.466097 224.64 
L 109.466097 208.048828 
L 106.54367 208.048828 
z
" style="fill:#1f77b4;opacity:0.4;"/>
   </g>
   <g id="patch_13">
    <path clip-path="url(#p0cfadb2042)" d="M 109.466097 224.64 
L 112.388525 224.64 
L 112.388525 212.350243 
L 109.466097 212.350243 
z
" style="fill:#1f77b4;opacity:0.4;"/>
   </g>
   <g id="patch_14">
    <path clip-path="url(#p0cfadb2042)" d="M 112.388525 224.64 
L 115.310953 224.64 
L 115.310953 207.43434 
L 112.388525 207.43434 
z
" style="fill:#1f77b4;opacity:0.4;"/>
   </g>
   <g id="patch_15">
    <path clip-path="url(#p0cfadb2042)" d="M 115.310953 224.64 
L 118.233381 224.64 
L 118.233381 219.416853 
L 115.310953 219.416853 
z
" style="fill:#1f77b4;opacity:0.4;"/>
   </g>
   <g id="patch_16">
    <path clip-path="url(#p0cfadb2042)" d="M 118.233381 224.64 
L 121.155808 224.64 
L 121.155808 218.802365 
L 118.233381 218.802365 
z
" style="fill:#1f77b4;opacity:0.4;"/>
   </g>
   <g id="patch_17">
    <path clip-path="url(#p0cfadb2042)" d="M 121.155808 224.64 
L 124.078236 224.64 
L 124.078236 220.031341 
L 121.155808 220.031341 
z
" style="fill:#1f77b4;opacity:0.4;"/>
   </g>
   <g id="patch_18">
    <path clip-path="url(#p0cfadb2042)" d="M 124.078236 224.64 
L 127.000664 224.64 
L 127.000664 221.567561 
L 124.078236 221.567561 
z
" style="fill:#1f77b4;opacity:0.4;"/>
   </g>
   <g id="patch_19">
    <path clip-path="url(#p0cfadb2042)" d="M 127.000664 224.64 
L 129.923092 224.64 
L 129.923092 221.567561 
L 127.000664 221.567561 
z
" style="fill:#1f77b4;opacity:0.4;"/>
   </g>
   <g id="patch_20">
    <path clip-path="url(#p0cfadb2042)" d="M 129.923092 224.64 
L 132.845519 224.64 
L 132.845519 222.182049 
L 129.923092 222.182049 
z
" style="fill:#1f77b4;opacity:0.4;"/>
   </g>
   <g id="patch_21">
    <path clip-path="url(#p0cfadb2042)" d="M 132.845519 224.64 
L 135.767947 224.64 
L 135.767947 223.10378 
L 132.845519 223.10378 
z
" style="fill:#1f77b4;opacity:0.4;"/>
   </g>
   <g id="patch_22">
    <path clip-path="url(#p0cfadb2042)" d="M 135.767947 224.64 
L 138.690375 224.64 
L 138.690375 221.874805 
L 135.767947 221.874805 
z
" style="fill:#1f77b4;opacity:0.4;"/>
   </g>
   <g id="patch_23">
    <path clip-path="url(#p0cfadb2042)" d="M 138.690375 224.64 
L 141.612803 224.64 
L 141.612803 222.182049 
L 138.690375 222.182049 
z
" style="fill:#1f77b4;opacity:0.4;"/>
   </g>
   <g id="patch_24">
    <path clip-path="url(#p0cfadb2042)" d="M 141.612803 224.64 
L 144.53523 224.64 
L 144.53523 224.025512 
L 141.612803 224.025512 
z
" style="fill:#1f77b4;opacity:0.4;"/>
   </g>
   <g id="patch_25">
    <path clip-path="url(#p0cfadb2042)" d="M 144.53523 224.64 
L 147.457658 224.64 
L 147.457658 224.332756 
L 144.53523 224.332756 
z
" style="fill:#1f77b4;opacity:0.4;"/>
   </g>
   <g id="patch_26">
    <path clip-path="url(#p0cfadb2042)" d="M 147.457658 224.64 
L 150.380086 224.64 
L 150.380086 224.64 
L 147.457658 224.64 
z
" style="fill:#1f77b4;opacity:0.4;"/>
   </g>
   <g id="patch_27">
    <path clip-path="url(#p0cfadb2042)" d="M 150.380086 224.64 
L 153.302514 224.64 
L 153.302514 223.718268 
L 150.380086 223.718268 
z
" style="fill:#1f77b4;opacity:0.4;"/>
   </g>
   <g id="patch_28">
    <path clip-path="url(#p0cfadb2042)" d="M 153.302514 224.64 
L 156.224941 224.64 
L 156.224941 223.411024 
L 153.302514 223.411024 
z
" style="fill:#1f77b4;opacity:0.4;"/>
   </g>
   <g id="patch_29">
    <path clip-path="url(#p0cfadb2042)" d="M 156.224941 224.64 
L 159.147369 224.64 
L 159.147369 224.332756 
L 156.224941 224.332756 
z
" style="fill:#1f77b4;opacity:0.4;"/>
   </g>
   <g id="patch_30">
    <path clip-path="url(#p0cfadb2042)" d="M 159.147369 224.64 
L 162.069797 224.64 
L 162.069797 224.025512 
L 159.147369 224.025512 
z
" style="fill:#1f77b4;opacity:0.4;"/>
   </g>
   <g id="patch_31">
    <path clip-path="url(#p0cfadb2042)" d="M 162.069797 224.64 
L 164.992225 224.64 
L 164.992225 224.64 
L 162.069797 224.64 
z
" style="fill:#1f77b4;opacity:0.4;"/>
   </g>
   <g id="patch_32">
    <path clip-path="url(#p0cfadb2042)" d="M 164.992225 224.64 
L 167.914652 224.64 
L 167.914652 224.332756 
L 164.992225 224.332756 
z
" style="fill:#1f77b4;opacity:0.4;"/>
   </g>
   <g id="patch_33">
    <path clip-path="url(#p0cfadb2042)" d="M 167.914652 224.64 
L 170.83708 224.64 
L 170.83708 224.64 
L 167.914652 224.64 
z
" style="fill:#1f77b4;opacity:0.4;"/>
   </g>
   <g id="patch_34">
    <path clip-path="url(#p0cfadb2042)" d="M 170.83708 224.64 
L 173.759508 224.64 
L 173.759508 224.332756 
L 170.83708 224.332756 
z
" style="fill:#1f77b4;opacity:0.4;"/>
   </g>
   <g id="patch_35">
    <path clip-path="url(#p0cfadb2042)" d="M 173.759508 224.64 
L 176.681936 224.64 
L 176.681936 224.64 
L 173.759508 224.64 
z
" style="fill:#1f77b4;opacity:0.4;"/>
   </g>
   <g id="patch_36">
    <path clip-path="url(#p0cfadb2042)" d="M 176.681936 224.64 
L 179.604363 224.64 
L 179.604363 224.332756 
L 176.681936 224.332756 
z
" style="fill:#1f77b4;opacity:0.4;"/>
   </g>
   <g id="patch_37">
    <path clip-path="url(#p0cfadb2042)" d="M 179.604363 224.64 
L 182.526791 224.64 
L 182.526791 224.64 
L 179.604363 224.64 
z
" style="fill:#1f77b4;opacity:0.4;"/>
   </g>
   <g id="patch_38">
    <path clip-path="url(#p0cfadb2042)" d="M 182.526791 224.64 
L 185.449219 224.64 
L 185.449219 224.64 
L 182.526791 224.64 
z
" style="fill:#1f77b4;opacity:0.4;"/>
   </g>
   <g id="patch_39">
    <path clip-path="url(#p0cfadb2042)" d="M 185.449219 224.64 
L 188.371647 224.64 
L 188.371647 224.64 
L 185.449219 224.64 
z
" style="fill:#1f77b4;opacity:0.4;"/>
   </g>
   <g id="patch_40">
    <path clip-path="url(#p0cfadb2042)" d="M 188.371647 224.64 
L 191.294074 224.64 
L 191.294074 224.64 
L 188.371647 224.64 
z
" style="fill:#1f77b4;opacity:0.4;"/>
   </g>
   <g id="patch_41">
    <path clip-path="url(#p0cfadb2042)" d="M 191.294074 224.64 
L 194.216502 224.64 
L 194.216502 224.332756 
L 191.294074 224.332756 
z
" style="fill:#1f77b4;opacity:0.4;"/>
   </g>
   <g id="patch_42">
    <path clip-path="url(#p0cfadb2042)" d="M 194.216502 224.64 
L 197.13893 224.64 
L 197.13893 224.64 
L 194.216502 224.64 
z
" style="fill:#1f77b4;opacity:0.4;"/>
   </g>
   <g id="patch_43">
    <path clip-path="url(#p0cfadb2042)" d="M 197.13893 224.64 
L 200.061358 224.64 
L 200.061358 224.332756 
L 197.13893 224.332756 
z
" style="fill:#1f77b4;opacity:0.4;"/>
   </g>
   <g id="patch_44">
    <path clip-path="url(#p0cfadb2042)" d="M 200.061358 224.64 
L 202.983785 224.64 
L 202.983785 224.64 
L 200.061358 224.64 
z
" style="fill:#1f77b4;opacity:0.4;"/>
   </g>
   <g id="patch_45">
    <path clip-path="url(#p0cfadb2042)" d="M 202.983785 224.64 
L 205.906213 224.64 
L 205.906213 224.64 
L 202.983785 224.64 
z
" style="fill:#1f77b4;opacity:0.4;"/>
   </g>
   <g id="patch_46">
    <path clip-path="url(#p0cfadb2042)" d="M 205.906213 224.64 
L 208.828641 224.64 
L 208.828641 224.64 
L 205.906213 224.64 
z
" style="fill:#1f77b4;opacity:0.4;"/>
   </g>
   <g id="patch_47">
    <path clip-path="url(#p0cfadb2042)" d="M 208.828641 224.64 
L 211.751069 224.64 
L 211.751069 224.332756 
L 208.828641 224.332756 
z
" style="fill:#1f77b4;opacity:0.4;"/>
   </g>
   <g id="patch_48">
    <path clip-path="url(#p0cfadb2042)" d="M 211.751069 224.64 
L 214.673496 224.64 
L 214.673496 224.64 
L 211.751069 224.64 
z
" style="fill:#1f77b4;opacity:0.4;"/>
   </g>
   <g id="patch_49">
    <path clip-path="url(#p0cfadb2042)" d="M 214.673496 224.64 
L 217.595924 224.64 
L 217.595924 224.64 
L 214.673496 224.64 
z
" style="fill:#1f77b4;opacity:0.4;"/>
   </g>
   <g id="patch_50">
    <path clip-path="url(#p0cfadb2042)" d="M 217.595924 224.64 
L 220.518352 224.64 
L 220.518352 224.64 
L 217.595924 224.64 
z
" style="fill:#1f77b4;opacity:0.4;"/>
   </g>
   <g id="patch_51">
    <path clip-path="url(#p0cfadb2042)" d="M 220.518352 224.64 
L 223.44078 224.64 
L 223.44078 224.64 
L 220.518352 224.64 
z
" style="fill:#1f77b4;opacity:0.4;"/>
   </g>
   <g id="patch_52">
    <path clip-path="url(#p0cfadb2042)" d="M 223.44078 224.64 
L 226.363207 224.64 
L 226.363207 224.332756 
L 223.44078 224.332756 
z
" style="fill:#1f77b4;opacity:0.4;"/>
   </g>
   <g id="patch_53">
    <path clip-path="url(#p0cfadb2042)" d="M 78.653863 224.64 
L 84.209458 224.64 
L 84.209458 130.415244 
L 78.653863 130.415244 
z
" style="fill:#ff7f0e;opacity:0.4;"/>
   </g>
   <g id="patch_54">
    <path clip-path="url(#p0cfadb2042)" d="M 84.209458 224.64 
L 89.765054 224.64 
L 89.765054 181.325704 
L 84.209458 181.325704 
z
" style="fill:#ff7f0e;opacity:0.4;"/>
   </g>
   <g id="patch_55">
    <path clip-path="url(#p0cfadb2042)" d="M 89.765054 224.64 
L 95.320649 224.64 
L 95.320649 215.427631 
L 89.765054 215.427631 
z
" style="fill:#ff7f0e;opacity:0.4;"/>
   </g>
   <g id="patch_56">
    <path clip-path="url(#p0cfadb2042)" d="M 95.320649 224.64 
L 100.876245 224.64 
L 100.876245 222.377313 
L 95.320649 222.377313 
z
" style="fill:#ff7f0e;opacity:0.4;"/>
   </g>
   <g id="patch_57">
    <path clip-path="url(#p0cfadb2042)" d="M 100.876245 224.64 
L 106.43184 224.64 
L 106.43184 221.730831 
L 100.876245 221.730831 
z
" style="fill:#ff7f0e;opacity:0.4;"/>
   </g>
   <g id="patch_58">
    <path clip-path="url(#p0cfadb2042)" d="M 106.43184 224.64 
L 111.987436 224.64 
L 111.987436 222.862174 
L 106.43184 222.862174 
z
" style="fill:#ff7f0e;opacity:0.4;"/>
   </g>
   <g id="patch_59">
    <path clip-path="url(#p0cfadb2042)" d="M 111.987436 224.64 
L 117.543031 224.64 
L 117.543031 224.155138 
L 111.987436 224.155138 
z
" style="fill:#ff7f0e;opacity:0.4;"/>
   </g>
   <g id="patch_60">
    <path clip-path="url(#p0cfadb2042)" d="M 117.543031 224.64 
L 123.098627 224.64 
L 123.098627 223.023795 
L 117.543031 223.023795 
z
" style="fill:#ff7f0e;opacity:0.4;"/>
   </g>
   <g id="patch_61">
    <path clip-path="url(#p0cfadb2042)" d="M 123.098627 224.64 
L 128.654222 224.64 
L 128.654222 223.347036 
L 123.098627 223.347036 
z
" style="fill:#ff7f0e;opacity:0.4;"/>
   </g>
   <g id="patch_62">
    <path clip-path="url(#p0cfadb2042)" d="M 128.654222 224.64 
L 134.209818 224.64 
L 134.209818 223.993518 
L 128.654222 223.993518 
z
" style="fill:#ff7f0e;opacity:0.4;"/>
   </g>
   <g id="patch_63">
    <path clip-path="url(#p0cfadb2042)" d="M 134.209818 224.64 
L 139.765413 224.64 
L 139.765413 223.993518 
L 134.209818 223.993518 
z
" style="fill:#ff7f0e;opacity:0.4;"/>
   </g>
   <g id="patch_64">
    <path clip-path="url(#p0cfadb2042)" d="M 139.765413 224.64 
L 145.321009 224.64 
L 145.321009 224.155138 
L 139.765413 224.155138 
z
" style="fill:#ff7f0e;opacity:0.4;"/>
   </g>
   <g id="patch_65">
    <path clip-path="url(#p0cfadb2042)" d="M 145.321009 224.64 
L 150.876604 224.64 
L 150.876604 224.155138 
L 145.321009 224.155138 
z
" style="fill:#ff7f0e;opacity:0.4;"/>
   </g>
   <g id="patch_66">
    <path clip-path="url(#p0cfadb2042)" d="M 150.876604 224.64 
L 156.4322 224.64 
L 156.4322 223.993518 
L 150.876604 223.993518 
z
" style="fill:#ff7f0e;opacity:0.4;"/>
   </g>
   <g id="patch_67">
    <path clip-path="url(#p0cfadb2042)" d="M 156.4322 224.64 
L 161.987795 224.64 
L 161.987795 224.64 
L 156.4322 224.64 
z
" style="fill:#ff7f0e;opacity:0.4;"/>
   </g>
   <g id="patch_68">
    <path clip-path="url(#p0cfadb2042)" d="M 161.987795 224.64 
L 167.543391 224.64 
L 167.543391 224.155138 
L 161.987795 224.155138 
z
" style="fill:#ff7f0e;opacity:0.4;"/>
   </g>
   <g id="patch_69">
    <path clip-path="url(#p0cfadb2042)" d="M 167.543391 224.64 
L 173.098986 224.64 
L 173.098986 224.478379 
L 167.543391 224.478379 
z
" style="fill:#ff7f0e;opacity:0.4;"/>
   </g>
   <g id="patch_70">
    <path clip-path="url(#p0cfadb2042)" d="M 173.098986 224.64 
L 178.654582 224.64 
L 178.654582 224.64 
L 173.098986 224.64 
z
" style="fill:#ff7f0e;opacity:0.4;"/>
   </g>
   <g id="patch_71">
    <path clip-path="url(#p0cfadb2042)" d="M 178.654582 224.64 
L 184.210177 224.64 
L 184.210177 224.64 
L 178.654582 224.64 
z
" style="fill:#ff7f0e;opacity:0.4;"/>
   </g>
   <g id="patch_72">
    <path clip-path="url(#p0cfadb2042)" d="M 184.210177 224.64 
L 189.765773 224.64 
L 189.765773 224.478379 
L 184.210177 224.478379 
z
" style="fill:#ff7f0e;opacity:0.4;"/>
   </g>
   <g id="patch_73">
    <path clip-path="url(#p0cfadb2042)" d="M 189.765773 224.64 
L 195.321368 224.64 
L 195.321368 224.478379 
L 189.765773 224.478379 
z
" style="fill:#ff7f0e;opacity:0.4;"/>
   </g>
   <g id="patch_74">
    <path clip-path="url(#p0cfadb2042)" d="M 195.321368 224.64 
L 200.876964 224.64 
L 200.876964 224.64 
L 195.321368 224.64 
z
" style="fill:#ff7f0e;opacity:0.4;"/>
   </g>
   <g id="patch_75">
    <path clip-path="url(#p0cfadb2042)" d="M 200.876964 224.64 
L 206.432559 224.64 
L 206.432559 224.64 
L 200.876964 224.64 
z
" style="fill:#ff7f0e;opacity:0.4;"/>
   </g>
   <g id="patch_76">
    <path clip-path="url(#p0cfadb2042)" d="M 206.432559 224.64 
L 211.988155 224.64 
L 211.988155 224.64 
L 206.432559 224.64 
z
" style="fill:#ff7f0e;opacity:0.4;"/>
   </g>
   <g id="patch_77">
    <path clip-path="url(#p0cfadb2042)" d="M 211.988155 224.64 
L 217.54375 224.64 
L 217.54375 224.64 
L 211.988155 224.64 
z
" style="fill:#ff7f0e;opacity:0.4;"/>
   </g>
   <g id="patch_78">
    <path clip-path="url(#p0cfadb2042)" d="M 217.54375 224.64 
L 223.099345 224.64 
L 223.099345 224.64 
L 217.54375 224.64 
z
" style="fill:#ff7f0e;opacity:0.4;"/>
   </g>
   <g id="patch_79">
    <path clip-path="url(#p0cfadb2042)" d="M 223.099345 224.64 
L 228.654941 224.64 
L 228.654941 224.316759 
L 223.099345 224.316759 
z
" style="fill:#ff7f0e;opacity:0.4;"/>
   </g>
   <g id="patch_80">
    <path clip-path="url(#p0cfadb2042)" d="M 228.654941 224.64 
L 234.210536 224.64 
L 234.210536 224.64 
L 228.654941 224.64 
z
" style="fill:#ff7f0e;opacity:0.4;"/>
   </g>
   <g id="patch_81">
    <path clip-path="url(#p0cfadb2042)" d="M 234.210536 224.64 
L 239.766132 224.64 
L 239.766132 224.64 
L 234.210536 224.64 
z
" style="fill:#ff7f0e;opacity:0.4;"/>
   </g>
   <g id="patch_82">
    <path clip-path="url(#p0cfadb2042)" d="M 239.766132 224.64 
L 245.321727 224.64 
L 245.321727 224.64 
L 239.766132 224.64 
z
" style="fill:#ff7f0e;opacity:0.4;"/>
   </g>
   <g id="patch_83">
    <path clip-path="url(#p0cfadb2042)" d="M 245.321727 224.64 
L 250.877323 224.64 
L 250.877323 224.64 
L 245.321727 224.64 
z
" style="fill:#ff7f0e;opacity:0.4;"/>
   </g>
   <g id="patch_84">
    <path clip-path="url(#p0cfadb2042)" d="M 250.877323 224.64 
L 256.432918 224.64 
L 256.432918 224.64 
L 250.877323 224.64 
z
" style="fill:#ff7f0e;opacity:0.4;"/>
   </g>
   <g id="patch_85">
    <path clip-path="url(#p0cfadb2042)" d="M 256.432918 224.64 
L 261.988514 224.64 
L 261.988514 224.64 
L 256.432918 224.64 
z
" style="fill:#ff7f0e;opacity:0.4;"/>
   </g>
   <g id="patch_86">
    <path clip-path="url(#p0cfadb2042)" d="M 261.988514 224.64 
L 267.544109 224.64 
L 267.544109 224.64 
L 261.988514 224.64 
z
" style="fill:#ff7f0e;opacity:0.4;"/>
   </g>
   <g id="patch_87">
    <path clip-path="url(#p0cfadb2042)" d="M 267.544109 224.64 
L 273.099705 224.64 
L 273.099705 224.64 
L 267.544109 224.64 
z
" style="fill:#ff7f0e;opacity:0.4;"/>
   </g>
   <g id="patch_88">
    <path clip-path="url(#p0cfadb2042)" d="M 273.099705 224.64 
L 278.6553 224.64 
L 278.6553 224.478379 
L 273.099705 224.478379 
z
" style="fill:#ff7f0e;opacity:0.4;"/>
   </g>
   <g id="patch_89">
    <path clip-path="url(#p0cfadb2042)" d="M 278.6553 224.64 
L 284.210896 224.64 
L 284.210896 224.64 
L 278.6553 224.64 
z
" style="fill:#ff7f0e;opacity:0.4;"/>
   </g>
   <g id="patch_90">
    <path clip-path="url(#p0cfadb2042)" d="M 284.210896 224.64 
L 289.766491 224.64 
L 289.766491 224.64 
L 284.210896 224.64 
z
" style="fill:#ff7f0e;opacity:0.4;"/>
   </g>
   <g id="patch_91">
    <path clip-path="url(#p0cfadb2042)" d="M 289.766491 224.64 
L 295.322087 224.64 
L 295.322087 224.64 
L 289.766491 224.64 
z
" style="fill:#ff7f0e;opacity:0.4;"/>
   </g>
   <g id="patch_92">
    <path clip-path="url(#p0cfadb2042)" d="M 295.322087 224.64 
L 300.877682 224.64 
L 300.877682 224.64 
L 295.322087 224.64 
z
" style="fill:#ff7f0e;opacity:0.4;"/>
   </g>
   <g id="patch_93">
    <path clip-path="url(#p0cfadb2042)" d="M 300.877682 224.64 
L 306.433278 224.64 
L 306.433278 224.64 
L 300.877682 224.64 
z
" style="fill:#ff7f0e;opacity:0.4;"/>
   </g>
   <g id="patch_94">
    <path clip-path="url(#p0cfadb2042)" d="M 306.433278 224.64 
L 311.988873 224.64 
L 311.988873 224.64 
L 306.433278 224.64 
z
" style="fill:#ff7f0e;opacity:0.4;"/>
   </g>
   <g id="patch_95">
    <path clip-path="url(#p0cfadb2042)" d="M 311.988873 224.64 
L 317.544469 224.64 
L 317.544469 224.64 
L 311.988873 224.64 
z
" style="fill:#ff7f0e;opacity:0.4;"/>
   </g>
   <g id="patch_96">
    <path clip-path="url(#p0cfadb2042)" d="M 317.544469 224.64 
L 323.100064 224.64 
L 323.100064 224.64 
L 317.544469 224.64 
z
" style="fill:#ff7f0e;opacity:0.4;"/>
   </g>
   <g id="patch_97">
    <path clip-path="url(#p0cfadb2042)" d="M 323.100064 224.64 
L 328.65566 224.64 
L 328.65566 224.64 
L 323.100064 224.64 
z
" style="fill:#ff7f0e;opacity:0.4;"/>
   </g>
   <g id="patch_98">
    <path clip-path="url(#p0cfadb2042)" d="M 328.65566 224.64 
L 334.211255 224.64 
L 334.211255 224.64 
L 328.65566 224.64 
z
" style="fill:#ff7f0e;opacity:0.4;"/>
   </g>
   <g id="patch_99">
    <path clip-path="url(#p0cfadb2042)" d="M 334.211255 224.64 
L 339.766851 224.64 
L 339.766851 224.64 
L 334.211255 224.64 
z
" style="fill:#ff7f0e;opacity:0.4;"/>
   </g>
   <g id="patch_100">
    <path clip-path="url(#p0cfadb2042)" d="M 339.766851 224.64 
L 345.322446 224.64 
L 345.322446 224.64 
L 339.766851 224.64 
z
" style="fill:#ff7f0e;opacity:0.4;"/>
   </g>
   <g id="patch_101">
    <path clip-path="url(#p0cfadb2042)" d="M 345.322446 224.64 
L 350.878042 224.64 
L 350.878042 224.64 
L 345.322446 224.64 
z
" style="fill:#ff7f0e;opacity:0.4;"/>
   </g>
   <g id="patch_102">
    <path clip-path="url(#p0cfadb2042)" d="M 350.878042 224.64 
L 356.433637 224.64 
L 356.433637 224.478379 
L 350.878042 224.478379 
z
" style="fill:#ff7f0e;opacity:0.4;"/>
   </g>
   <g id="patch_103">
    <path clip-path="url(#p0cfadb2042)" d="M 78.653863 224.64 
L 81.151328 224.64 
L 81.151328 17.554286 
L 78.653863 17.554286 
z
" style="fill:#2ca02c;opacity:0.4;"/>
   </g>
   <g id="patch_104">
    <path clip-path="url(#p0cfadb2042)" d="M 81.151328 224.64 
L 83.648793 224.64 
L 83.648793 181.137619 
L 81.151328 181.137619 
z
" style="fill:#2ca02c;opacity:0.4;"/>
   </g>
   <g id="patch_105">
    <path clip-path="url(#p0cfadb2042)" d="M 83.648793 224.64 
L 86.146258 224.64 
L 86.146258 192.282857 
L 83.648793 192.282857 
z
" style="fill:#2ca02c;opacity:0.4;"/>
   </g>
   <g id="patch_106">
    <path clip-path="url(#p0cfadb2042)" d="M 86.146258 224.64 
L 88.643723 224.64 
L 88.643723 213.854286 
L 86.146258 213.854286 
z
" style="fill:#2ca02c;opacity:0.4;"/>
   </g>
   <g id="patch_107">
    <path clip-path="url(#p0cfadb2042)" d="M 88.643723 224.64 
L 91.141188 224.64 
L 91.141188 213.135238 
L 88.643723 213.135238 
z
" style="fill:#2ca02c;opacity:0.4;"/>
   </g>
   <g id="patch_108">
    <path clip-path="url(#p0cfadb2042)" d="M 91.141188 224.64 
L 93.638653 224.64 
L 93.638653 217.09 
L 91.141188 217.09 
z
" style="fill:#2ca02c;opacity:0.4;"/>
   </g>
   <g id="patch_109">
    <path clip-path="url(#p0cfadb2042)" d="M 93.638653 224.64 
L 96.136119 224.64 
L 96.136119 216.011429 
L 93.638653 216.011429 
z
" style="fill:#2ca02c;opacity:0.4;"/>
   </g>
   <g id="patch_110">
    <path clip-path="url(#p0cfadb2042)" d="M 96.136119 224.64 
L 98.633584 224.64 
L 98.633584 220.685238 
L 96.136119 220.685238 
z
" style="fill:#2ca02c;opacity:0.4;"/>
   </g>
   <g id="patch_111">
    <path clip-path="url(#p0cfadb2042)" d="M 98.633584 224.64 
L 101.131049 224.64 
L 101.131049 218.887619 
L 98.633584 218.887619 
z
" style="fill:#2ca02c;opacity:0.4;"/>
   </g>
   <g id="patch_112">
    <path clip-path="url(#p0cfadb2042)" d="M 101.131049 224.64 
L 103.628514 224.64 
L 103.628514 219.96619 
L 101.131049 219.96619 
z
" style="fill:#2ca02c;opacity:0.4;"/>
   </g>
   <g id="patch_113">
    <path clip-path="url(#p0cfadb2042)" d="M 103.628514 224.64 
L 106.125979 224.64 
L 106.125979 222.482857 
L 103.628514 222.482857 
z
" style="fill:#2ca02c;opacity:0.4;"/>
   </g>
   <g id="patch_114">
    <path clip-path="url(#p0cfadb2042)" d="M 106.125979 224.64 
L 108.623444 224.64 
L 108.623444 220.685238 
L 106.125979 220.685238 
z
" style="fill:#2ca02c;opacity:0.4;"/>
   </g>
   <g id="patch_115">
    <path clip-path="url(#p0cfadb2042)" d="M 108.623444 224.64 
L 111.120909 224.64 
L 111.120909 222.842381 
L 108.623444 222.842381 
z
" style="fill:#2ca02c;opacity:0.4;"/>
   </g>
   <g id="patch_116">
    <path clip-path="url(#p0cfadb2042)" d="M 111.120909 224.64 
L 113.618374 224.64 
L 113.618374 221.76381 
L 111.120909 221.76381 
z
" style="fill:#2ca02c;opacity:0.4;"/>
   </g>
   <g id="patch_117">
    <path clip-path="url(#p0cfadb2042)" d="M 113.618374 224.64 
L 116.115839 224.64 
L 116.115839 223.561429 
L 113.618374 223.561429 
z
" style="fill:#2ca02c;opacity:0.4;"/>
   </g>
   <g id="patch_118">
    <path clip-path="url(#p0cfadb2042)" d="M 116.115839 224.64 
L 118.613304 224.64 
L 118.613304 222.123333 
L 116.115839 222.123333 
z
" style="fill:#2ca02c;opacity:0.4;"/>
   </g>
   <g id="patch_119">
    <path clip-path="url(#p0cfadb2042)" d="M 118.613304 224.64 
L 121.110769 224.64 
L 121.110769 222.482857 
L 118.613304 222.482857 
z
" style="fill:#2ca02c;opacity:0.4;"/>
   </g>
   <g id="patch_120">
    <path clip-path="url(#p0cfadb2042)" d="M 121.110769 224.64 
L 123.608235 224.64 
L 123.608235 223.920952 
L 121.110769 223.920952 
z
" style="fill:#2ca02c;opacity:0.4;"/>
   </g>
   <g id="patch_121">
    <path clip-path="url(#p0cfadb2042)" d="M 123.608235 224.64 
L 126.1057 224.64 
L 126.1057 223.201905 
L 123.608235 223.201905 
z
" style="fill:#2ca02c;opacity:0.4;"/>
   </g>
   <g id="patch_122">
    <path clip-path="url(#p0cfadb2042)" d="M 126.1057 224.64 
L 128.603165 224.64 
L 128.603165 224.64 
L 126.1057 224.64 
z
" style="fill:#2ca02c;opacity:0.4;"/>
   </g>
   <g id="patch_123">
    <path clip-path="url(#p0cfadb2042)" d="M 128.603165 224.64 
L 131.10063 224.64 
L 131.10063 224.280476 
L 128.603165 224.280476 
z
" style="fill:#2ca02c;opacity:0.4;"/>
   </g>
   <g id="patch_124">
    <path clip-path="url(#p0cfadb2042)" d="M 131.10063 224.64 
L 133.598095 224.64 
L 133.598095 223.561429 
L 131.10063 223.561429 
z
" style="fill:#2ca02c;opacity:0.4;"/>
   </g>
   <g id="patch_125">
    <path clip-path="url(#p0cfadb2042)" d="M 133.598095 224.64 
L 136.09556 224.64 
L 136.09556 223.920952 
L 133.598095 223.920952 
z
" style="fill:#2ca02c;opacity:0.4;"/>
   </g>
   <g id="patch_126">
    <path clip-path="url(#p0cfadb2042)" d="M 136.09556 224.64 
L 138.593025 224.64 
L 138.593025 223.920952 
L 136.09556 223.920952 
z
" style="fill:#2ca02c;opacity:0.4;"/>
   </g>
   <g id="patch_127">
    <path clip-path="url(#p0cfadb2042)" d="M 138.593025 224.64 
L 141.09049 224.64 
L 141.09049 224.64 
L 138.593025 224.64 
z
" style="fill:#2ca02c;opacity:0.4;"/>
   </g>
   <g id="patch_128">
    <path clip-path="url(#p0cfadb2042)" d="M 141.09049 224.64 
L 143.587955 224.64 
L 143.587955 224.64 
L 141.09049 224.64 
z
" style="fill:#2ca02c;opacity:0.4;"/>
   </g>
   <g id="patch_129">
    <path clip-path="url(#p0cfadb2042)" d="M 143.587955 224.64 
L 146.08542 224.64 
L 146.08542 224.64 
L 143.587955 224.64 
z
" style="fill:#2ca02c;opacity:0.4;"/>
   </g>
   <g id="patch_130">
    <path clip-path="url(#p0cfadb2042)" d="M 146.08542 224.64 
L 148.582885 224.64 
L 148.582885 224.64 
L 146.08542 224.64 
z
" style="fill:#2ca02c;opacity:0.4;"/>
   </g>
   <g id="patch_131">
    <path clip-path="url(#p0cfadb2042)" d="M 148.582885 224.64 
L 151.080351 224.64 
L 151.080351 224.280476 
L 148.582885 224.280476 
z
" style="fill:#2ca02c;opacity:0.4;"/>
   </g>
   <g id="patch_132">
    <path clip-path="url(#p0cfadb2042)" d="M 151.080351 224.64 
L 153.577816 224.64 
L 153.577816 224.64 
L 151.080351 224.64 
z
" style="fill:#2ca02c;opacity:0.4;"/>
   </g>
   <g id="patch_133">
    <path clip-path="url(#p0cfadb2042)" d="M 153.577816 224.64 
L 156.075281 224.64 
L 156.075281 224.64 
L 153.577816 224.64 
z
" style="fill:#2ca02c;opacity:0.4;"/>
   </g>
   <g id="patch_134">
    <path clip-path="url(#p0cfadb2042)" d="M 156.075281 224.64 
L 158.572746 224.64 
L 158.572746 224.64 
L 156.075281 224.64 
z
" style="fill:#2ca02c;opacity:0.4;"/>
   </g>
   <g id="patch_135">
    <path clip-path="url(#p0cfadb2042)" d="M 158.572746 224.64 
L 161.070211 224.64 
L 161.070211 224.280476 
L 158.572746 224.280476 
z
" style="fill:#2ca02c;opacity:0.4;"/>
   </g>
   <g id="patch_136">
    <path clip-path="url(#p0cfadb2042)" d="M 161.070211 224.64 
L 163.567676 224.64 
L 163.567676 224.64 
L 161.070211 224.64 
z
" style="fill:#2ca02c;opacity:0.4;"/>
   </g>
   <g id="patch_137">
    <path clip-path="url(#p0cfadb2042)" d="M 163.567676 224.64 
L 166.065141 224.64 
L 166.065141 224.64 
L 163.567676 224.64 
z
" style="fill:#2ca02c;opacity:0.4;"/>
   </g>
   <g id="patch_138">
    <path clip-path="url(#p0cfadb2042)" d="M 166.065141 224.64 
L 168.562606 224.64 
L 168.562606 224.280476 
L 166.065141 224.280476 
z
" style="fill:#2ca02c;opacity:0.4;"/>
   </g>
   <g id="patch_139">
    <path clip-path="url(#p0cfadb2042)" d="M 168.562606 224.64 
L 171.060071 224.64 
L 171.060071 224.64 
L 168.562606 224.64 
z
" style="fill:#2ca02c;opacity:0.4;"/>
   </g>
   <g id="patch_140">
    <path clip-path="url(#p0cfadb2042)" d="M 171.060071 224.64 
L 173.557536 224.64 
L 173.557536 224.64 
L 171.060071 224.64 
z
" style="fill:#2ca02c;opacity:0.4;"/>
   </g>
   <g id="patch_141">
    <path clip-path="url(#p0cfadb2042)" d="M 173.557536 224.64 
L 176.055001 224.64 
L 176.055001 224.280476 
L 173.557536 224.280476 
z
" style="fill:#2ca02c;opacity:0.4;"/>
   </g>
   <g id="patch_142">
    <path clip-path="url(#p0cfadb2042)" d="M 176.055001 224.64 
L 178.552467 224.64 
L 178.552467 224.64 
L 176.055001 224.64 
z
" style="fill:#2ca02c;opacity:0.4;"/>
   </g>
   <g id="patch_143">
    <path clip-path="url(#p0cfadb2042)" d="M 178.552467 224.64 
L 181.049932 224.64 
L 181.049932 224.64 
L 178.552467 224.64 
z
" style="fill:#2ca02c;opacity:0.4;"/>
   </g>
   <g id="patch_144">
    <path clip-path="url(#p0cfadb2042)" d="M 181.049932 224.64 
L 183.547397 224.64 
L 183.547397 224.64 
L 181.049932 224.64 
z
" style="fill:#2ca02c;opacity:0.4;"/>
   </g>
   <g id="patch_145">
    <path clip-path="url(#p0cfadb2042)" d="M 183.547397 224.64 
L 186.044862 224.64 
L 186.044862 224.64 
L 183.547397 224.64 
z
" style="fill:#2ca02c;opacity:0.4;"/>
   </g>
   <g id="patch_146">
    <path clip-path="url(#p0cfadb2042)" d="M 186.044862 224.64 
L 188.542327 224.64 
L 188.542327 224.64 
L 186.044862 224.64 
z
" style="fill:#2ca02c;opacity:0.4;"/>
   </g>
   <g id="patch_147">
    <path clip-path="url(#p0cfadb2042)" d="M 188.542327 224.64 
L 191.039792 224.64 
L 191.039792 224.64 
L 188.542327 224.64 
z
" style="fill:#2ca02c;opacity:0.4;"/>
   </g>
   <g id="patch_148">
    <path clip-path="url(#p0cfadb2042)" d="M 191.039792 224.64 
L 193.537257 224.64 
L 193.537257 224.64 
L 191.039792 224.64 
z
" style="fill:#2ca02c;opacity:0.4;"/>
   </g>
   <g id="patch_149">
    <path clip-path="url(#p0cfadb2042)" d="M 193.537257 224.64 
L 196.034722 224.64 
L 196.034722 224.64 
L 193.537257 224.64 
z
" style="fill:#2ca02c;opacity:0.4;"/>
   </g>
   <g id="patch_150">
    <path clip-path="url(#p0cfadb2042)" d="M 196.034722 224.64 
L 198.532187 224.64 
L 198.532187 224.280476 
L 196.034722 224.280476 
z
" style="fill:#2ca02c;opacity:0.4;"/>
   </g>
   <g id="patch_151">
    <path clip-path="url(#p0cfadb2042)" d="M 198.532187 224.64 
L 201.029652 224.64 
L 201.029652 224.64 
L 198.532187 224.64 
z
" style="fill:#2ca02c;opacity:0.4;"/>
   </g>
   <g id="patch_152">
    <path clip-path="url(#p0cfadb2042)" d="M 201.029652 224.64 
L 203.527117 224.64 
L 203.527117 224.280476 
L 201.029652 224.280476 
z
" style="fill:#2ca02c;opacity:0.4;"/>
   </g>
   <g id="matplotlib.axis_1">
    <g id="xtick_1">
     <g id="line2d_1">
      <defs>
       <path d="M 0 0 
L 0 3.5 
" id="m7652483740" style="stroke:#000000;stroke-width:0.8;"/>
      </defs>
      <g>
       <use style="stroke:#000000;stroke-width:0.8;" x="78.653863" xlink:href="#m7652483740" y="224.64"/>
      </g>
     </g>
     <g id="text_1">
      <!-- 0 -->
      <g transform="translate(75.472613 239.238437)scale(0.1 -0.1)">
       <defs>
        <path d="M 31.78125 66.40625 
Q 24.171875 66.40625 20.328125 58.90625 
Q 16.5 51.421875 16.5 36.375 
Q 16.5 21.390625 20.328125 13.890625 
Q 24.171875 6.390625 31.78125 6.390625 
Q 39.453125 6.390625 43.28125 13.890625 
Q 47.125 21.390625 47.125 36.375 
Q 47.125 51.421875 43.28125 58.90625 
Q 39.453125 66.40625 31.78125 66.40625 
z
M 31.78125 74.21875 
Q 44.046875 74.21875 50.515625 64.515625 
Q 56.984375 54.828125 56.984375 36.375 
Q 56.984375 17.96875 50.515625 8.265625 
Q 44.046875 -1.421875 31.78125 -1.421875 
Q 19.53125 -1.421875 13.0625 8.265625 
Q 6.59375 17.96875 6.59375 36.375 
Q 6.59375 54.828125 13.0625 64.515625 
Q 19.53125 74.21875 31.78125 74.21875 
z
" id="DejaVuSans-48"/>
       </defs>
       <use xlink:href="#DejaVuSans-48"/>
      </g>
     </g>
    </g>
    <g id="xtick_2">
     <g id="line2d_2">
      <g>
       <use style="stroke:#000000;stroke-width:0.8;" x="121.104032" xlink:href="#m7652483740" y="224.64"/>
      </g>
     </g>
     <g id="text_2">
      <!-- 5 -->
      <g transform="translate(117.922782 239.238437)scale(0.1 -0.1)">
       <defs>
        <path d="M 10.796875 72.90625 
L 49.515625 72.90625 
L 49.515625 64.59375 
L 19.828125 64.59375 
L 19.828125 46.734375 
Q 21.96875 47.46875 24.109375 47.828125 
Q 26.265625 48.1875 28.421875 48.1875 
Q 40.625 48.1875 47.75 41.5 
Q 54.890625 34.8125 54.890625 23.390625 
Q 54.890625 11.625 47.5625 5.09375 
Q 40.234375 -1.421875 26.90625 -1.421875 
Q 22.3125 -1.421875 17.546875 -0.640625 
Q 12.796875 0.140625 7.71875 1.703125 
L 7.71875 11.625 
Q 12.109375 9.234375 16.796875 8.0625 
Q 21.484375 6.890625 26.703125 6.890625 
Q 35.15625 6.890625 40.078125 11.328125 
Q 45.015625 15.765625 45.015625 23.390625 
Q 45.015625 31 40.078125 35.4375 
Q 35.15625 39.890625 26.703125 39.890625 
Q 22.75 39.890625 18.8125 39.015625 
Q 14.890625 38.140625 10.796875 36.28125 
z
" id="DejaVuSans-53"/>
       </defs>
       <use xlink:href="#DejaVuSans-53"/>
      </g>
     </g>
    </g>
    <g id="xtick_3">
     <g id="line2d_3">
      <g>
       <use style="stroke:#000000;stroke-width:0.8;" x="163.5542" xlink:href="#m7652483740" y="224.64"/>
      </g>
     </g>
     <g id="text_3">
      <!-- 10 -->
      <g transform="translate(157.1917 239.238437)scale(0.1 -0.1)">
       <defs>
        <path d="M 12.40625 8.296875 
L 28.515625 8.296875 
L 28.515625 63.921875 
L 10.984375 60.40625 
L 10.984375 69.390625 
L 28.421875 72.90625 
L 38.28125 72.90625 
L 38.28125 8.296875 
L 54.390625 8.296875 
L 54.390625 0 
L 12.40625 0 
z
" id="DejaVuSans-49"/>
       </defs>
       <use xlink:href="#DejaVuSans-49"/>
       <use x="63.623047" xlink:href="#DejaVuSans-48"/>
      </g>
     </g>
    </g>
    <g id="xtick_4">
     <g id="line2d_4">
      <g>
       <use style="stroke:#000000;stroke-width:0.8;" x="206.004369" xlink:href="#m7652483740" y="224.64"/>
      </g>
     </g>
     <g id="text_4">
      <!-- 15 -->
      <g transform="translate(199.641869 239.238437)scale(0.1 -0.1)">
       <use xlink:href="#DejaVuSans-49"/>
       <use x="63.623047" xlink:href="#DejaVuSans-53"/>
      </g>
     </g>
    </g>
    <g id="xtick_5">
     <g id="line2d_5">
      <g>
       <use style="stroke:#000000;stroke-width:0.8;" x="248.454538" xlink:href="#m7652483740" y="224.64"/>
      </g>
     </g>
     <g id="text_5">
      <!-- 20 -->
      <g transform="translate(242.092038 239.238437)scale(0.1 -0.1)">
       <defs>
        <path d="M 19.1875 8.296875 
L 53.609375 8.296875 
L 53.609375 0 
L 7.328125 0 
L 7.328125 8.296875 
Q 12.9375 14.109375 22.625 23.890625 
Q 32.328125 33.6875 34.8125 36.53125 
Q 39.546875 41.84375 41.421875 45.53125 
Q 43.3125 49.21875 43.3125 52.78125 
Q 43.3125 58.59375 39.234375 62.25 
Q 35.15625 65.921875 28.609375 65.921875 
Q 23.96875 65.921875 18.8125 64.3125 
Q 13.671875 62.703125 7.8125 59.421875 
L 7.8125 69.390625 
Q 13.765625 71.78125 18.9375 73 
Q 24.125 74.21875 28.421875 74.21875 
Q 39.75 74.21875 46.484375 68.546875 
Q 53.21875 62.890625 53.21875 53.421875 
Q 53.21875 48.921875 51.53125 44.890625 
Q 49.859375 40.875 45.40625 35.40625 
Q 44.1875 33.984375 37.640625 27.21875 
Q 31.109375 20.453125 19.1875 8.296875 
z
" id="DejaVuSans-50"/>
       </defs>
       <use xlink:href="#DejaVuSans-50"/>
       <use x="63.623047" xlink:href="#DejaVuSans-48"/>
      </g>
     </g>
    </g>
    <g id="xtick_6">
     <g id="line2d_6">
      <g>
       <use style="stroke:#000000;stroke-width:0.8;" x="290.904706" xlink:href="#m7652483740" y="224.64"/>
      </g>
     </g>
     <g id="text_6">
      <!-- 25 -->
      <g transform="translate(284.542206 239.238437)scale(0.1 -0.1)">
       <use xlink:href="#DejaVuSans-50"/>
       <use x="63.623047" xlink:href="#DejaVuSans-53"/>
      </g>
     </g>
    </g>
    <g id="xtick_7">
     <g id="line2d_7">
      <g>
       <use style="stroke:#000000;stroke-width:0.8;" x="333.354875" xlink:href="#m7652483740" y="224.64"/>
      </g>
     </g>
     <g id="text_7">
      <!-- 30 -->
      <g transform="translate(326.992375 239.238437)scale(0.1 -0.1)">
       <defs>
        <path d="M 40.578125 39.3125 
Q 47.65625 37.796875 51.625 33 
Q 55.609375 28.21875 55.609375 21.1875 
Q 55.609375 10.40625 48.1875 4.484375 
Q 40.765625 -1.421875 27.09375 -1.421875 
Q 22.515625 -1.421875 17.65625 -0.515625 
Q 12.796875 0.390625 7.625 2.203125 
L 7.625 11.71875 
Q 11.71875 9.328125 16.59375 8.109375 
Q 21.484375 6.890625 26.8125 6.890625 
Q 36.078125 6.890625 40.9375 10.546875 
Q 45.796875 14.203125 45.796875 21.1875 
Q 45.796875 27.640625 41.28125 31.265625 
Q 36.765625 34.90625 28.71875 34.90625 
L 20.21875 34.90625 
L 20.21875 43.015625 
L 29.109375 43.015625 
Q 36.375 43.015625 40.234375 45.921875 
Q 44.09375 48.828125 44.09375 54.296875 
Q 44.09375 59.90625 40.109375 62.90625 
Q 36.140625 65.921875 28.71875 65.921875 
Q 24.65625 65.921875 20.015625 65.03125 
Q 15.375 64.15625 9.8125 62.3125 
L 9.8125 71.09375 
Q 15.4375 72.65625 20.34375 73.4375 
Q 25.25 74.21875 29.59375 74.21875 
Q 40.828125 74.21875 47.359375 69.109375 
Q 53.90625 64.015625 53.90625 55.328125 
Q 53.90625 49.265625 50.4375 45.09375 
Q 46.96875 40.921875 40.578125 39.3125 
z
" id="DejaVuSans-51"/>
       </defs>
       <use xlink:href="#DejaVuSans-51"/>
       <use x="63.623047" xlink:href="#DejaVuSans-48"/>
      </g>
     </g>
    </g>
    <g id="xtick_8">
     <g id="line2d_8">
      <g>
       <use style="stroke:#000000;stroke-width:0.8;" x="375.805044" xlink:href="#m7652483740" y="224.64"/>
      </g>
     </g>
     <g id="text_8">
      <!-- 35 -->
      <g transform="translate(369.442544 239.238437)scale(0.1 -0.1)">
       <use xlink:href="#DejaVuSans-51"/>
       <use x="63.623047" xlink:href="#DejaVuSans-53"/>
      </g>
     </g>
    </g>
    <g id="text_9">
     <!-- f(t) -->
     <g transform="translate(209.921875 252.916562)scale(0.1 -0.1)">
      <defs>
       <path d="M 37.109375 75.984375 
L 37.109375 68.5 
L 28.515625 68.5 
Q 23.6875 68.5 21.796875 66.546875 
Q 19.921875 64.59375 19.921875 59.515625 
L 19.921875 54.6875 
L 34.71875 54.6875 
L 34.71875 47.703125 
L 19.921875 47.703125 
L 19.921875 0 
L 10.890625 0 
L 10.890625 47.703125 
L 2.296875 47.703125 
L 2.296875 54.6875 
L 10.890625 54.6875 
L 10.890625 58.5 
Q 10.890625 67.625 15.140625 71.796875 
Q 19.390625 75.984375 28.609375 75.984375 
z
" id="DejaVuSans-102"/>
       <path d="M 31 75.875 
Q 24.46875 64.65625 21.28125 53.65625 
Q 18.109375 42.671875 18.109375 31.390625 
Q 18.109375 20.125 21.3125 9.0625 
Q 24.515625 -2 31 -13.1875 
L 23.1875 -13.1875 
Q 15.875 -1.703125 12.234375 9.375 
Q 8.59375 20.453125 8.59375 31.390625 
Q 8.59375 42.28125 12.203125 53.3125 
Q 15.828125 64.359375 23.1875 75.875 
z
" id="DejaVuSans-40"/>
       <path d="M 18.3125 70.21875 
L 18.3125 54.6875 
L 36.8125 54.6875 
L 36.8125 47.703125 
L 18.3125 47.703125 
L 18.3125 18.015625 
Q 18.3125 11.328125 20.140625 9.421875 
Q 21.96875 7.515625 27.59375 7.515625 
L 36.8125 7.515625 
L 36.8125 0 
L 27.59375 0 
Q 17.1875 0 13.234375 3.875 
Q 9.28125 7.765625 9.28125 18.015625 
L 9.28125 47.703125 
L 2.6875 47.703125 
L 2.6875 54.6875 
L 9.28125 54.6875 
L 9.28125 70.21875 
z
" id="DejaVuSans-116"/>
       <path d="M 8.015625 75.875 
L 15.828125 75.875 
Q 23.140625 64.359375 26.78125 53.3125 
Q 30.421875 42.28125 30.421875 31.390625 
Q 30.421875 20.453125 26.78125 9.375 
Q 23.140625 -1.703125 15.828125 -13.1875 
L 8.015625 -13.1875 
Q 14.5 -2 17.703125 9.0625 
Q 20.90625 20.125 20.90625 31.390625 
Q 20.90625 42.671875 17.703125 53.65625 
Q 14.5 64.65625 8.015625 75.875 
z
" id="DejaVuSans-41"/>
      </defs>
      <use xlink:href="#DejaVuSans-102"/>
      <use x="35.205078" xlink:href="#DejaVuSans-40"/>
      <use x="74.21875" xlink:href="#DejaVuSans-116"/>
      <use x="113.427734" xlink:href="#DejaVuSans-41"/>
     </g>
    </g>
   </g>
   <g id="matplotlib.axis_2">
    <g id="ytick_1">
     <g id="line2d_9">
      <defs>
       <path d="M 0 0 
L -3.5 0 
" id="mb14e44758f" style="stroke:#000000;stroke-width:0.8;"/>
      </defs>
      <g>
       <use style="stroke:#000000;stroke-width:0.8;" x="50.14375" xlink:href="#mb14e44758f" y="224.64"/>
      </g>
     </g>
     <g id="text_10">
      <!-- 0.00 -->
      <g transform="translate(20.878125 228.439219)scale(0.1 -0.1)">
       <defs>
        <path d="M 10.6875 12.40625 
L 21 12.40625 
L 21 0 
L 10.6875 0 
z
" id="DejaVuSans-46"/>
       </defs>
       <use xlink:href="#DejaVuSans-48"/>
       <use x="63.623047" xlink:href="#DejaVuSans-46"/>
       <use x="95.410156" xlink:href="#DejaVuSans-48"/>
       <use x="159.033203" xlink:href="#DejaVuSans-48"/>
      </g>
     </g>
    </g>
    <g id="ytick_2">
     <g id="line2d_10">
      <g>
       <use style="stroke:#000000;stroke-width:0.8;" x="50.14375" xlink:href="#mb14e44758f" y="198.20023"/>
      </g>
     </g>
     <g id="text_11">
      <!-- 0.25 -->
      <g transform="translate(20.878125 201.999449)scale(0.1 -0.1)">
       <use xlink:href="#DejaVuSans-48"/>
       <use x="63.623047" xlink:href="#DejaVuSans-46"/>
       <use x="95.410156" xlink:href="#DejaVuSans-50"/>
       <use x="159.033203" xlink:href="#DejaVuSans-53"/>
      </g>
     </g>
    </g>
    <g id="ytick_3">
     <g id="line2d_11">
      <g>
       <use style="stroke:#000000;stroke-width:0.8;" x="50.14375" xlink:href="#mb14e44758f" y="171.76046"/>
      </g>
     </g>
     <g id="text_12">
      <!-- 0.50 -->
      <g transform="translate(20.878125 175.559678)scale(0.1 -0.1)">
       <use xlink:href="#DejaVuSans-48"/>
       <use x="63.623047" xlink:href="#DejaVuSans-46"/>
       <use x="95.410156" xlink:href="#DejaVuSans-53"/>
       <use x="159.033203" xlink:href="#DejaVuSans-48"/>
      </g>
     </g>
    </g>
    <g id="ytick_4">
     <g id="line2d_12">
      <g>
       <use style="stroke:#000000;stroke-width:0.8;" x="50.14375" xlink:href="#mb14e44758f" y="145.32069"/>
      </g>
     </g>
     <g id="text_13">
      <!-- 0.75 -->
      <g transform="translate(20.878125 149.119908)scale(0.1 -0.1)">
       <defs>
        <path d="M 8.203125 72.90625 
L 55.078125 72.90625 
L 55.078125 68.703125 
L 28.609375 0 
L 18.3125 0 
L 43.21875 64.59375 
L 8.203125 64.59375 
z
" id="DejaVuSans-55"/>
       </defs>
       <use xlink:href="#DejaVuSans-48"/>
       <use x="63.623047" xlink:href="#DejaVuSans-46"/>
       <use x="95.410156" xlink:href="#DejaVuSans-55"/>
       <use x="159.033203" xlink:href="#DejaVuSans-53"/>
      </g>
     </g>
    </g>
    <g id="ytick_5">
     <g id="line2d_13">
      <g>
       <use style="stroke:#000000;stroke-width:0.8;" x="50.14375" xlink:href="#mb14e44758f" y="118.880919"/>
      </g>
     </g>
     <g id="text_14">
      <!-- 1.00 -->
      <g transform="translate(20.878125 122.680138)scale(0.1 -0.1)">
       <use xlink:href="#DejaVuSans-49"/>
       <use x="63.623047" xlink:href="#DejaVuSans-46"/>
       <use x="95.410156" xlink:href="#DejaVuSans-48"/>
       <use x="159.033203" xlink:href="#DejaVuSans-48"/>
      </g>
     </g>
    </g>
    <g id="ytick_6">
     <g id="line2d_14">
      <g>
       <use style="stroke:#000000;stroke-width:0.8;" x="50.14375" xlink:href="#mb14e44758f" y="92.441149"/>
      </g>
     </g>
     <g id="text_15">
      <!-- 1.25 -->
      <g transform="translate(20.878125 96.240368)scale(0.1 -0.1)">
       <use xlink:href="#DejaVuSans-49"/>
       <use x="63.623047" xlink:href="#DejaVuSans-46"/>
       <use x="95.410156" xlink:href="#DejaVuSans-50"/>
       <use x="159.033203" xlink:href="#DejaVuSans-53"/>
      </g>
     </g>
    </g>
    <g id="ytick_7">
     <g id="line2d_15">
      <g>
       <use style="stroke:#000000;stroke-width:0.8;" x="50.14375" xlink:href="#mb14e44758f" y="66.001379"/>
      </g>
     </g>
     <g id="text_16">
      <!-- 1.50 -->
      <g transform="translate(20.878125 69.800598)scale(0.1 -0.1)">
       <use xlink:href="#DejaVuSans-49"/>
       <use x="63.623047" xlink:href="#DejaVuSans-46"/>
       <use x="95.410156" xlink:href="#DejaVuSans-53"/>
       <use x="159.033203" xlink:href="#DejaVuSans-48"/>
      </g>
     </g>
    </g>
    <g id="ytick_8">
     <g id="line2d_16">
      <g>
       <use style="stroke:#000000;stroke-width:0.8;" x="50.14375" xlink:href="#mb14e44758f" y="39.561609"/>
      </g>
     </g>
     <g id="text_17">
      <!-- 1.75 -->
      <g transform="translate(20.878125 43.360828)scale(0.1 -0.1)">
       <use xlink:href="#DejaVuSans-49"/>
       <use x="63.623047" xlink:href="#DejaVuSans-46"/>
       <use x="95.410156" xlink:href="#DejaVuSans-55"/>
       <use x="159.033203" xlink:href="#DejaVuSans-53"/>
      </g>
     </g>
    </g>
    <g id="ytick_9">
     <g id="line2d_17">
      <g>
       <use style="stroke:#000000;stroke-width:0.8;" x="50.14375" xlink:href="#mb14e44758f" y="13.121839"/>
      </g>
     </g>
     <g id="text_18">
      <!-- 2.00 -->
      <g transform="translate(20.878125 16.921057)scale(0.1 -0.1)">
       <use xlink:href="#DejaVuSans-50"/>
       <use x="63.623047" xlink:href="#DejaVuSans-46"/>
       <use x="95.410156" xlink:href="#DejaVuSans-48"/>
       <use x="159.033203" xlink:href="#DejaVuSans-48"/>
      </g>
     </g>
    </g>
    <g id="text_19">
     <!-- Density -->
     <g transform="translate(14.798438 134.928594)rotate(-90)scale(0.1 -0.1)">
      <defs>
       <path d="M 19.671875 64.796875 
L 19.671875 8.109375 
L 31.59375 8.109375 
Q 46.6875 8.109375 53.6875 14.9375 
Q 60.6875 21.78125 60.6875 36.53125 
Q 60.6875 51.171875 53.6875 57.984375 
Q 46.6875 64.796875 31.59375 64.796875 
z
M 9.8125 72.90625 
L 30.078125 72.90625 
Q 51.265625 72.90625 61.171875 64.09375 
Q 71.09375 55.28125 71.09375 36.53125 
Q 71.09375 17.671875 61.125 8.828125 
Q 51.171875 0 30.078125 0 
L 9.8125 0 
z
" id="DejaVuSans-68"/>
       <path d="M 56.203125 29.59375 
L 56.203125 25.203125 
L 14.890625 25.203125 
Q 15.484375 15.921875 20.484375 11.0625 
Q 25.484375 6.203125 34.421875 6.203125 
Q 39.59375 6.203125 44.453125 7.46875 
Q 49.3125 8.734375 54.109375 11.28125 
L 54.109375 2.78125 
Q 49.265625 0.734375 44.1875 -0.34375 
Q 39.109375 -1.421875 33.890625 -1.421875 
Q 20.796875 -1.421875 13.15625 6.1875 
Q 5.515625 13.8125 5.515625 26.8125 
Q 5.515625 40.234375 12.765625 48.109375 
Q 20.015625 56 32.328125 56 
Q 43.359375 56 49.78125 48.890625 
Q 56.203125 41.796875 56.203125 29.59375 
z
M 47.21875 32.234375 
Q 47.125 39.59375 43.09375 43.984375 
Q 39.0625 48.390625 32.421875 48.390625 
Q 24.90625 48.390625 20.390625 44.140625 
Q 15.875 39.890625 15.1875 32.171875 
z
" id="DejaVuSans-101"/>
       <path d="M 54.890625 33.015625 
L 54.890625 0 
L 45.90625 0 
L 45.90625 32.71875 
Q 45.90625 40.484375 42.875 44.328125 
Q 39.84375 48.1875 33.796875 48.1875 
Q 26.515625 48.1875 22.3125 43.546875 
Q 18.109375 38.921875 18.109375 30.90625 
L 18.109375 0 
L 9.078125 0 
L 9.078125 54.6875 
L 18.109375 54.6875 
L 18.109375 46.1875 
Q 21.34375 51.125 25.703125 53.5625 
Q 30.078125 56 35.796875 56 
Q 45.21875 56 50.046875 50.171875 
Q 54.890625 44.34375 54.890625 33.015625 
z
" id="DejaVuSans-110"/>
       <path d="M 44.28125 53.078125 
L 44.28125 44.578125 
Q 40.484375 46.53125 36.375 47.5 
Q 32.28125 48.484375 27.875 48.484375 
Q 21.1875 48.484375 17.84375 46.4375 
Q 14.5 44.390625 14.5 40.28125 
Q 14.5 37.15625 16.890625 35.375 
Q 19.28125 33.59375 26.515625 31.984375 
L 29.59375 31.296875 
Q 39.15625 29.25 43.1875 25.515625 
Q 47.21875 21.78125 47.21875 15.09375 
Q 47.21875 7.46875 41.1875 3.015625 
Q 35.15625 -1.421875 24.609375 -1.421875 
Q 20.21875 -1.421875 15.453125 -0.5625 
Q 10.6875 0.296875 5.421875 2 
L 5.421875 11.28125 
Q 10.40625 8.6875 15.234375 7.390625 
Q 20.0625 6.109375 24.8125 6.109375 
Q 31.15625 6.109375 34.5625 8.28125 
Q 37.984375 10.453125 37.984375 14.40625 
Q 37.984375 18.0625 35.515625 20.015625 
Q 33.0625 21.96875 24.703125 23.78125 
L 21.578125 24.515625 
Q 13.234375 26.265625 9.515625 29.90625 
Q 5.8125 33.546875 5.8125 39.890625 
Q 5.8125 47.609375 11.28125 51.796875 
Q 16.75 56 26.8125 56 
Q 31.78125 56 36.171875 55.265625 
Q 40.578125 54.546875 44.28125 53.078125 
z
" id="DejaVuSans-115"/>
       <path d="M 9.421875 54.6875 
L 18.40625 54.6875 
L 18.40625 0 
L 9.421875 0 
z
M 9.421875 75.984375 
L 18.40625 75.984375 
L 18.40625 64.59375 
L 9.421875 64.59375 
z
" id="DejaVuSans-105"/>
       <path d="M 32.171875 -5.078125 
Q 28.375 -14.84375 24.75 -17.8125 
Q 21.140625 -20.796875 15.09375 -20.796875 
L 7.90625 -20.796875 
L 7.90625 -13.28125 
L 13.1875 -13.28125 
Q 16.890625 -13.28125 18.9375 -11.515625 
Q 21 -9.765625 23.484375 -3.21875 
L 25.09375 0.875 
L 2.984375 54.6875 
L 12.5 54.6875 
L 29.59375 11.921875 
L 46.6875 54.6875 
L 56.203125 54.6875 
z
" id="DejaVuSans-121"/>
      </defs>
      <use xlink:href="#DejaVuSans-68"/>
      <use x="77.001953" xlink:href="#DejaVuSans-101"/>
      <use x="138.525391" xlink:href="#DejaVuSans-110"/>
      <use x="201.904297" xlink:href="#DejaVuSans-115"/>
      <use x="254.003906" xlink:href="#DejaVuSans-105"/>
      <use x="281.787109" xlink:href="#DejaVuSans-116"/>
      <use x="320.996094" xlink:href="#DejaVuSans-121"/>
     </g>
    </g>
   </g>
   <g id="line2d_18">
    <path clip-path="url(#p0cfadb2042)" d="M 69.048687 224.632503 
L 72.435776 224.535568 
L 74.12932 224.339927 
L 75.822864 223.905307 
L 77.516409 223.084705 
L 78.363181 222.4857 
L 79.209953 221.743242 
L 80.903497 219.802606 
L 82.597041 217.262089 
L 84.290586 214.19065 
L 85.98413 210.696313 
L 88.524446 204.888495 
L 93.605079 192.820448 
L 94.451851 191.203394 
L 95.298623 189.88578 
L 96.145395 188.943145 
L 96.992167 188.433944 
L 97.83894 188.389433 
L 98.685712 188.807694 
L 99.532484 189.653417 
L 100.379256 190.86334 
L 102.0728 194.040767 
L 105.459889 201.116467 
L 107.153433 204.115887 
L 108.846977 206.58144 
L 112.234066 210.72742 
L 117.314698 216.90621 
L 119.008243 218.357575 
L 120.701787 219.366704 
L 122.395331 220.067912 
L 124.935648 220.82898 
L 128.322736 221.606444 
L 131.709825 222.148393 
L 135.096913 222.381658 
L 138.484002 222.645888 
L 141.024318 223.105376 
L 144.411406 223.792885 
L 146.951723 224.056554 
L 149.492039 224.047845 
L 154.572672 223.907531 
L 158.806533 224.134252 
L 164.733937 224.418076 
L 172.354886 224.488866 
L 237.55634 224.638933 
L 237.55634 224.638933 
" style="fill:none;stroke:#1f77b4;stroke-linecap:square;stroke-width:1.5;"/>
   </g>
   <g id="line2d_19">
    <path clip-path="url(#p0cfadb2042)" d="M 65.361932 224.465598 
L 66.891397 224.143212 
L 68.420863 223.373617 
L 69.950328 221.746683 
L 71.479794 218.704173 
L 73.009259 213.679647 
L 74.538725 206.373835 
L 76.06819 197.071705 
L 79.127121 177.241771 
L 80.656587 170.151251 
L 82.186052 166.892723 
L 83.715518 167.954967 
L 85.244983 172.870365 
L 86.774449 180.447466 
L 89.83338 197.730226 
L 91.362845 205.118703 
L 92.892311 210.922056 
L 94.421776 215.129869 
L 95.951242 217.977826 
L 97.480708 219.784225 
L 99.010173 220.853032 
L 100.539639 221.439055 
L 102.069104 221.745107 
L 108.186966 222.57568 
L 112.775363 223.378618 
L 115.834294 223.52117 
L 121.952156 223.44119 
L 134.18788 223.911573 
L 141.835207 224.067732 
L 154.070931 224.205939 
L 158.659328 224.382396 
L 209.13169 224.639773 
L 222.896879 224.540033 
L 229.014741 224.49343 
L 244.309396 224.639874 
L 369.725568 224.639102 
L 369.725568 224.639102 
" style="fill:none;stroke:#ff7f0e;stroke-linecap:square;stroke-width:1.5;"/>
   </g>
   <g id="line2d_20">
    <path clip-path="url(#p0cfadb2042)" d="M 69.422985 223.996927 
L 70.143261 223.36851 
L 70.863538 222.257981 
L 71.583814 220.411089 
L 72.304091 217.52372 
L 73.024367 213.286455 
L 73.744643 207.460643 
L 74.46492 199.976108 
L 75.905473 181.117688 
L 77.346026 161.848735 
L 78.066302 154.483531 
L 78.786578 149.762089 
L 79.506855 148.107955 
L 80.227131 149.494057 
L 80.947408 153.481628 
L 81.667684 159.355246 
L 84.54879 187.060769 
L 85.989343 197.592626 
L 86.709619 201.674655 
L 87.429896 205.045037 
L 88.150172 207.781399 
L 88.870449 209.965087 
L 89.590725 211.680538 
L 90.311001 213.01508 
L 91.031278 214.056214 
L 92.471831 215.577104 
L 94.63266 217.26521 
L 96.073213 218.206709 
L 97.513766 218.928764 
L 98.954319 219.400551 
L 103.275977 220.508046 
L 106.877359 221.619964 
L 109.758465 222.189464 
L 112.639571 222.539689 
L 115.520677 222.68092 
L 119.122059 222.809427 
L 122.003165 223.255011 
L 126.324823 223.900486 
L 129.205929 224.093429 
L 132.087035 224.012339 
L 134.96814 223.937279 
L 137.849246 224.139498 
L 142.170905 224.546294 
L 145.772287 224.586574 
L 152.975051 224.56178 
L 158.016986 224.54352 
L 164.499474 224.548149 
L 178.184727 224.581827 
L 185.387491 224.639706 
L 195.471361 224.538353 
L 202.674126 224.502868 
L 212.757996 224.638706 
L 212.757996 224.638706 
" style="fill:none;stroke:#2ca02c;stroke-linecap:square;stroke-width:1.5;"/>
   </g>
   <g id="patch_153">
    <path d="M 50.14375 224.64 
L 50.14375 7.2 
" style="fill:none;stroke:#000000;stroke-linecap:square;stroke-linejoin:miter;stroke-width:0.8;"/>
   </g>
   <g id="patch_154">
    <path d="M 384.94375 224.64 
L 384.94375 7.2 
" style="fill:none;stroke:#000000;stroke-linecap:square;stroke-linejoin:miter;stroke-width:0.8;"/>
   </g>
   <g id="patch_155">
    <path d="M 50.14375 224.64 
L 384.94375 224.64 
" style="fill:none;stroke:#000000;stroke-linecap:square;stroke-linejoin:miter;stroke-width:0.8;"/>
   </g>
   <g id="patch_156">
    <path d="M 50.14375 7.2 
L 384.94375 7.2 
" style="fill:none;stroke:#000000;stroke-linecap:square;stroke-linejoin:miter;stroke-width:0.8;"/>
   </g>
  </g>
 </g>
 <defs>
  <clipPath id="p0cfadb2042">
   <rect height="217.44" width="334.8" x="50.14375" y="7.2"/>
  </clipPath>
 </defs>
</svg>
