<?xml version="1.0" encoding="utf-8" standalone="no"?>
<!DOCTYPE svg PUBLIC "-//W3C//DTD SVG 1.1//EN"
  "http://www.w3.org/Graphics/SVG/1.1/DTD/svg11.dtd">
<!-- Created with matplotlib (https://matplotlib.org/) -->
<svg height="262.19625pt" version="1.1" viewBox="0 0 385.78125 262.19625" width="385.78125pt" xmlns="http://www.w3.org/2000/svg" xmlns:xlink="http://www.w3.org/1999/xlink">
 <metadata>
  <rdf:RDF xmlns:cc="http://creativecommons.org/ns#" xmlns:dc="http://purl.org/dc/elements/1.1/" xmlns:rdf="http://www.w3.org/1999/02/22-rdf-syntax-ns#">
   <cc:Work>
    <dc:type rdf:resource="http://purl.org/dc/dcmitype/StillImage"/>
    <dc:date>2021-01-20T09:18:33.972629</dc:date>
    <dc:format>image/svg+xml</dc:format>
    <dc:creator>
     <cc:Agent>
      <dc:title>Matplotlib v3.3.3, https://matplotlib.org/</dc:title>
     </cc:Agent>
    </dc:creator>
   </cc:Work>
  </rdf:RDF>
 </metadata>
 <defs>
  <style type="text/css">*{stroke-linecap:butt;stroke-linejoin:round;}</style>
 </defs>
 <g id="figure_1">
  <g id="patch_1">
   <path d="M 0 262.19625 
L 385.78125 262.19625 
L 385.78125 0 
L 0 0 
z
" style="fill:none;"/>
  </g>
  <g id="axes_1">
   <g id="patch_2">
    <path d="M 43.78125 224.64 
L 378.58125 224.64 
L 378.58125 7.2 
L 43.78125 7.2 
z
" style="fill:#ffffff;"/>
   </g>
   <g id="patch_3">
    <path clip-path="url(#p451c7aa905)" d="M 84.679701 224.64 
L 89.571511 224.64 
L 89.571511 220.583764 
L 84.679701 220.583764 
z
" style="fill:#1f77b4;opacity:0.4;"/>
   </g>
   <g id="patch_4">
    <path clip-path="url(#p451c7aa905)" d="M 89.571511 224.64 
L 94.463321 224.64 
L 94.463321 218.235417 
L 89.571511 218.235417 
z
" style="fill:#1f77b4;opacity:0.4;"/>
   </g>
   <g id="patch_5">
    <path clip-path="url(#p451c7aa905)" d="M 94.463321 224.64 
L 99.355131 224.64 
L 99.355131 214.179181 
L 94.463321 214.179181 
z
" style="fill:#1f77b4;opacity:0.4;"/>
   </g>
   <g id="patch_6">
    <path clip-path="url(#p451c7aa905)" d="M 99.355131 224.64 
L 104.246941 224.64 
L 104.246941 207.774598 
L 99.355131 207.774598 
z
" style="fill:#1f77b4;opacity:0.4;"/>
   </g>
   <g id="patch_7">
    <path clip-path="url(#p451c7aa905)" d="M 104.246941 224.64 
L 109.138752 224.64 
L 109.138752 205.42625 
L 104.246941 205.42625 
z
" style="fill:#1f77b4;opacity:0.4;"/>
   </g>
   <g id="patch_8">
    <path clip-path="url(#p451c7aa905)" d="M 109.138752 224.64 
L 114.030562 224.64 
L 114.030562 197.954237 
L 109.138752 197.954237 
z
" style="fill:#1f77b4;opacity:0.4;"/>
   </g>
   <g id="patch_9">
    <path clip-path="url(#p451c7aa905)" d="M 114.030562 224.64 
L 118.922372 224.64 
L 118.922372 196.246348 
L 114.030562 196.246348 
z
" style="fill:#1f77b4;opacity:0.4;"/>
   </g>
   <g id="patch_10">
    <path clip-path="url(#p451c7aa905)" d="M 118.922372 224.64 
L 123.814182 224.64 
L 123.814182 204.35882 
L 118.922372 204.35882 
z
" style="fill:#1f77b4;opacity:0.4;"/>
   </g>
   <g id="patch_11">
    <path clip-path="url(#p451c7aa905)" d="M 123.814182 224.64 
L 128.705992 224.64 
L 128.705992 206.707167 
L 123.814182 206.707167 
z
" style="fill:#1f77b4;opacity:0.4;"/>
   </g>
   <g id="patch_12">
    <path clip-path="url(#p451c7aa905)" d="M 128.705992 224.64 
L 133.597802 224.64 
L 133.597802 213.538722 
L 128.705992 213.538722 
z
" style="fill:#1f77b4;opacity:0.4;"/>
   </g>
   <g id="patch_13">
    <path clip-path="url(#p451c7aa905)" d="M 133.597802 224.64 
L 138.489612 224.64 
L 138.489612 215.673584 
L 133.597802 215.673584 
z
" style="fill:#1f77b4;opacity:0.4;"/>
   </g>
   <g id="patch_14">
    <path clip-path="url(#p451c7aa905)" d="M 138.489612 224.64 
L 143.381422 224.64 
L 143.381422 217.808445 
L 138.489612 217.808445 
z
" style="fill:#1f77b4;opacity:0.4;"/>
   </g>
   <g id="patch_15">
    <path clip-path="url(#p451c7aa905)" d="M 143.381422 224.64 
L 148.273232 224.64 
L 148.273232 214.819639 
L 143.381422 214.819639 
z
" style="fill:#1f77b4;opacity:0.4;"/>
   </g>
   <g id="patch_16">
    <path clip-path="url(#p451c7aa905)" d="M 148.273232 224.64 
L 153.165042 224.64 
L 153.165042 219.516333 
L 148.273232 219.516333 
z
" style="fill:#1f77b4;opacity:0.4;"/>
   </g>
   <g id="patch_17">
    <path clip-path="url(#p451c7aa905)" d="M 153.165042 224.64 
L 158.056852 224.64 
L 158.056852 220.79725 
L 153.165042 220.79725 
z
" style="fill:#1f77b4;opacity:0.4;"/>
   </g>
   <g id="patch_18">
    <path clip-path="url(#p451c7aa905)" d="M 158.056852 224.64 
L 162.948663 224.64 
L 162.948663 222.291653 
L 158.056852 222.291653 
z
" style="fill:#1f77b4;opacity:0.4;"/>
   </g>
   <g id="patch_19">
    <path clip-path="url(#p451c7aa905)" d="M 162.948663 224.64 
L 167.840473 224.64 
L 167.840473 222.718625 
L 162.948663 222.718625 
z
" style="fill:#1f77b4;opacity:0.4;"/>
   </g>
   <g id="patch_20">
    <path clip-path="url(#p451c7aa905)" d="M 167.840473 224.64 
L 172.732283 224.64 
L 172.732283 223.145597 
L 167.840473 223.145597 
z
" style="fill:#1f77b4;opacity:0.4;"/>
   </g>
   <g id="patch_21">
    <path clip-path="url(#p451c7aa905)" d="M 172.732283 224.64 
L 177.624093 224.64 
L 177.624093 222.718625 
L 172.732283 222.718625 
z
" style="fill:#1f77b4;opacity:0.4;"/>
   </g>
   <g id="patch_22">
    <path clip-path="url(#p451c7aa905)" d="M 177.624093 224.64 
L 182.515903 224.64 
L 182.515903 222.505139 
L 177.624093 222.505139 
z
" style="fill:#1f77b4;opacity:0.4;"/>
   </g>
   <g id="patch_23">
    <path clip-path="url(#p451c7aa905)" d="M 182.515903 224.64 
L 187.407713 224.64 
L 187.407713 223.145597 
L 182.515903 223.145597 
z
" style="fill:#1f77b4;opacity:0.4;"/>
   </g>
   <g id="patch_24">
    <path clip-path="url(#p451c7aa905)" d="M 187.407713 224.64 
L 192.299523 224.64 
L 192.299523 223.572569 
L 187.407713 223.572569 
z
" style="fill:#1f77b4;opacity:0.4;"/>
   </g>
   <g id="patch_25">
    <path clip-path="url(#p451c7aa905)" d="M 192.299523 224.64 
L 197.191333 224.64 
L 197.191333 223.572569 
L 192.299523 223.572569 
z
" style="fill:#1f77b4;opacity:0.4;"/>
   </g>
   <g id="patch_26">
    <path clip-path="url(#p451c7aa905)" d="M 197.191333 224.64 
L 202.083143 224.64 
L 202.083143 224.426514 
L 197.191333 224.426514 
z
" style="fill:#1f77b4;opacity:0.4;"/>
   </g>
   <g id="patch_27">
    <path clip-path="url(#p451c7aa905)" d="M 202.083143 224.64 
L 206.974953 224.64 
L 206.974953 223.786056 
L 202.083143 223.786056 
z
" style="fill:#1f77b4;opacity:0.4;"/>
   </g>
   <g id="patch_28">
    <path clip-path="url(#p451c7aa905)" d="M 206.974953 224.64 
L 211.866763 224.64 
L 211.866763 224.426514 
L 206.974953 224.426514 
z
" style="fill:#1f77b4;opacity:0.4;"/>
   </g>
   <g id="patch_29">
    <path clip-path="url(#p451c7aa905)" d="M 211.866763 224.64 
L 216.758573 224.64 
L 216.758573 224.213028 
L 211.866763 224.213028 
z
" style="fill:#1f77b4;opacity:0.4;"/>
   </g>
   <g id="patch_30">
    <path clip-path="url(#p451c7aa905)" d="M 216.758573 224.64 
L 221.650384 224.64 
L 221.650384 223.999542 
L 216.758573 223.999542 
z
" style="fill:#1f77b4;opacity:0.4;"/>
   </g>
   <g id="patch_31">
    <path clip-path="url(#p451c7aa905)" d="M 221.650384 224.64 
L 226.542194 224.64 
L 226.542194 224.426514 
L 221.650384 224.426514 
z
" style="fill:#1f77b4;opacity:0.4;"/>
   </g>
   <g id="patch_32">
    <path clip-path="url(#p451c7aa905)" d="M 226.542194 224.64 
L 231.434004 224.64 
L 231.434004 224.426514 
L 226.542194 224.426514 
z
" style="fill:#1f77b4;opacity:0.4;"/>
   </g>
   <g id="patch_33">
    <path clip-path="url(#p451c7aa905)" d="M 231.434004 224.64 
L 236.325814 224.64 
L 236.325814 224.426514 
L 231.434004 224.426514 
z
" style="fill:#1f77b4;opacity:0.4;"/>
   </g>
   <g id="patch_34">
    <path clip-path="url(#p451c7aa905)" d="M 236.325814 224.64 
L 241.217624 224.64 
L 241.217624 224.64 
L 236.325814 224.64 
z
" style="fill:#1f77b4;opacity:0.4;"/>
   </g>
   <g id="patch_35">
    <path clip-path="url(#p451c7aa905)" d="M 241.217624 224.64 
L 246.109434 224.64 
L 246.109434 224.213028 
L 241.217624 224.213028 
z
" style="fill:#1f77b4;opacity:0.4;"/>
   </g>
   <g id="patch_36">
    <path clip-path="url(#p451c7aa905)" d="M 246.109434 224.64 
L 251.001244 224.64 
L 251.001244 224.64 
L 246.109434 224.64 
z
" style="fill:#1f77b4;opacity:0.4;"/>
   </g>
   <g id="patch_37">
    <path clip-path="url(#p451c7aa905)" d="M 251.001244 224.64 
L 255.893054 224.64 
L 255.893054 224.64 
L 251.001244 224.64 
z
" style="fill:#1f77b4;opacity:0.4;"/>
   </g>
   <g id="patch_38">
    <path clip-path="url(#p451c7aa905)" d="M 255.893054 224.64 
L 260.784864 224.64 
L 260.784864 224.213028 
L 255.893054 224.213028 
z
" style="fill:#1f77b4;opacity:0.4;"/>
   </g>
   <g id="patch_39">
    <path clip-path="url(#p451c7aa905)" d="M 260.784864 224.64 
L 265.676674 224.64 
L 265.676674 224.426514 
L 260.784864 224.426514 
z
" style="fill:#1f77b4;opacity:0.4;"/>
   </g>
   <g id="patch_40">
    <path clip-path="url(#p451c7aa905)" d="M 81.670362 224.64 
L 86.850797 224.64 
L 86.850797 154.28445 
L 81.670362 154.28445 
z
" style="fill:#ff7f0e;opacity:0.4;"/>
   </g>
   <g id="patch_41">
    <path clip-path="url(#p451c7aa905)" d="M 86.850797 224.64 
L 92.031233 224.64 
L 92.031233 176.056368 
L 86.850797 176.056368 
z
" style="fill:#ff7f0e;opacity:0.4;"/>
   </g>
   <g id="patch_42">
    <path clip-path="url(#p451c7aa905)" d="M 92.031233 224.64 
L 97.211668 224.64 
L 97.211668 183.112082 
L 92.031233 183.112082 
z
" style="fill:#ff7f0e;opacity:0.4;"/>
   </g>
   <g id="patch_43">
    <path clip-path="url(#p451c7aa905)" d="M 97.211668 224.64 
L 102.392104 224.64 
L 102.392104 216.97951 
L 97.211668 216.97951 
z
" style="fill:#ff7f0e;opacity:0.4;"/>
   </g>
   <g id="patch_44">
    <path clip-path="url(#p451c7aa905)" d="M 102.392104 224.64 
L 107.572539 224.64 
L 107.572539 217.382694 
L 102.392104 217.382694 
z
" style="fill:#ff7f0e;opacity:0.4;"/>
   </g>
   <g id="patch_45">
    <path clip-path="url(#p451c7aa905)" d="M 107.572539 224.64 
L 112.752975 224.64 
L 112.752975 220.003388 
L 107.572539 220.003388 
z
" style="fill:#ff7f0e;opacity:0.4;"/>
   </g>
   <g id="patch_46">
    <path clip-path="url(#p451c7aa905)" d="M 112.752975 224.64 
L 117.933411 224.64 
L 117.933411 223.228857 
L 112.752975 223.228857 
z
" style="fill:#ff7f0e;opacity:0.4;"/>
   </g>
   <g id="patch_47">
    <path clip-path="url(#p451c7aa905)" d="M 117.933411 224.64 
L 123.113846 224.64 
L 123.113846 223.228857 
L 117.933411 223.228857 
z
" style="fill:#ff7f0e;opacity:0.4;"/>
   </g>
   <g id="patch_48">
    <path clip-path="url(#p451c7aa905)" d="M 123.113846 224.64 
L 128.294282 224.64 
L 128.294282 223.632041 
L 123.113846 223.632041 
z
" style="fill:#ff7f0e;opacity:0.4;"/>
   </g>
   <g id="patch_49">
    <path clip-path="url(#p451c7aa905)" d="M 128.294282 224.64 
L 133.474717 224.64 
L 133.474717 222.825674 
L 128.294282 222.825674 
z
" style="fill:#ff7f0e;opacity:0.4;"/>
   </g>
   <g id="patch_50">
    <path clip-path="url(#p451c7aa905)" d="M 133.474717 224.64 
L 138.655153 224.64 
L 138.655153 224.035225 
L 133.474717 224.035225 
z
" style="fill:#ff7f0e;opacity:0.4;"/>
   </g>
   <g id="patch_51">
    <path clip-path="url(#p451c7aa905)" d="M 138.655153 224.64 
L 143.835588 224.64 
L 143.835588 223.228857 
L 138.655153 223.228857 
z
" style="fill:#ff7f0e;opacity:0.4;"/>
   </g>
   <g id="patch_52">
    <path clip-path="url(#p451c7aa905)" d="M 143.835588 224.64 
L 149.016024 224.64 
L 149.016024 223.027265 
L 143.835588 223.027265 
z
" style="fill:#ff7f0e;opacity:0.4;"/>
   </g>
   <g id="patch_53">
    <path clip-path="url(#p451c7aa905)" d="M 149.016024 224.64 
L 154.196459 224.64 
L 154.196459 223.228857 
L 149.016024 223.228857 
z
" style="fill:#ff7f0e;opacity:0.4;"/>
   </g>
   <g id="patch_54">
    <path clip-path="url(#p451c7aa905)" d="M 154.196459 224.64 
L 159.376895 224.64 
L 159.376895 223.027265 
L 154.196459 223.027265 
z
" style="fill:#ff7f0e;opacity:0.4;"/>
   </g>
   <g id="patch_55">
    <path clip-path="url(#p451c7aa905)" d="M 159.376895 224.64 
L 164.55733 224.64 
L 164.55733 223.833633 
L 159.376895 223.833633 
z
" style="fill:#ff7f0e;opacity:0.4;"/>
   </g>
   <g id="patch_56">
    <path clip-path="url(#p451c7aa905)" d="M 164.55733 224.64 
L 169.737766 224.64 
L 169.737766 223.833633 
L 164.55733 223.833633 
z
" style="fill:#ff7f0e;opacity:0.4;"/>
   </g>
   <g id="patch_57">
    <path clip-path="url(#p451c7aa905)" d="M 169.737766 224.64 
L 174.918201 224.64 
L 174.918201 224.236816 
L 169.737766 224.236816 
z
" style="fill:#ff7f0e;opacity:0.4;"/>
   </g>
   <g id="patch_58">
    <path clip-path="url(#p451c7aa905)" d="M 174.918201 224.64 
L 180.098637 224.64 
L 180.098637 223.430449 
L 174.918201 223.430449 
z
" style="fill:#ff7f0e;opacity:0.4;"/>
   </g>
   <g id="patch_59">
    <path clip-path="url(#p451c7aa905)" d="M 180.098637 224.64 
L 185.279072 224.64 
L 185.279072 224.236816 
L 180.098637 224.236816 
z
" style="fill:#ff7f0e;opacity:0.4;"/>
   </g>
   <g id="patch_60">
    <path clip-path="url(#p451c7aa905)" d="M 185.279072 224.64 
L 190.459508 224.64 
L 190.459508 224.236816 
L 185.279072 224.236816 
z
" style="fill:#ff7f0e;opacity:0.4;"/>
   </g>
   <g id="patch_61">
    <path clip-path="url(#p451c7aa905)" d="M 190.459508 224.64 
L 195.639943 224.64 
L 195.639943 224.035225 
L 190.459508 224.035225 
z
" style="fill:#ff7f0e;opacity:0.4;"/>
   </g>
   <g id="patch_62">
    <path clip-path="url(#p451c7aa905)" d="M 195.639943 224.64 
L 200.820379 224.64 
L 200.820379 224.438408 
L 195.639943 224.438408 
z
" style="fill:#ff7f0e;opacity:0.4;"/>
   </g>
   <g id="patch_63">
    <path clip-path="url(#p451c7aa905)" d="M 200.820379 224.64 
L 206.000814 224.64 
L 206.000814 224.438408 
L 200.820379 224.438408 
z
" style="fill:#ff7f0e;opacity:0.4;"/>
   </g>
   <g id="patch_64">
    <path clip-path="url(#p451c7aa905)" d="M 206.000814 224.64 
L 211.18125 224.64 
L 211.18125 224.438408 
L 206.000814 224.438408 
z
" style="fill:#ff7f0e;opacity:0.4;"/>
   </g>
   <g id="patch_65">
    <path clip-path="url(#p451c7aa905)" d="M 211.18125 224.64 
L 216.361686 224.64 
L 216.361686 224.438408 
L 211.18125 224.438408 
z
" style="fill:#ff7f0e;opacity:0.4;"/>
   </g>
   <g id="patch_66">
    <path clip-path="url(#p451c7aa905)" d="M 216.361686 224.64 
L 221.542121 224.64 
L 221.542121 224.64 
L 216.361686 224.64 
z
" style="fill:#ff7f0e;opacity:0.4;"/>
   </g>
   <g id="patch_67">
    <path clip-path="url(#p451c7aa905)" d="M 221.542121 224.64 
L 226.722557 224.64 
L 226.722557 224.035225 
L 221.542121 224.035225 
z
" style="fill:#ff7f0e;opacity:0.4;"/>
   </g>
   <g id="patch_68">
    <path clip-path="url(#p451c7aa905)" d="M 226.722557 224.64 
L 231.902992 224.64 
L 231.902992 224.438408 
L 226.722557 224.438408 
z
" style="fill:#ff7f0e;opacity:0.4;"/>
   </g>
   <g id="patch_69">
    <path clip-path="url(#p451c7aa905)" d="M 231.902992 224.64 
L 237.083428 224.64 
L 237.083428 224.236816 
L 231.902992 224.236816 
z
" style="fill:#ff7f0e;opacity:0.4;"/>
   </g>
   <g id="patch_70">
    <path clip-path="url(#p451c7aa905)" d="M 237.083428 224.64 
L 242.263863 224.64 
L 242.263863 223.632041 
L 237.083428 223.632041 
z
" style="fill:#ff7f0e;opacity:0.4;"/>
   </g>
   <g id="patch_71">
    <path clip-path="url(#p451c7aa905)" d="M 242.263863 224.64 
L 247.444299 224.64 
L 247.444299 224.438408 
L 242.263863 224.438408 
z
" style="fill:#ff7f0e;opacity:0.4;"/>
   </g>
   <g id="patch_72">
    <path clip-path="url(#p451c7aa905)" d="M 247.444299 224.64 
L 252.624734 224.64 
L 252.624734 224.64 
L 247.444299 224.64 
z
" style="fill:#ff7f0e;opacity:0.4;"/>
   </g>
   <g id="patch_73">
    <path clip-path="url(#p451c7aa905)" d="M 252.624734 224.64 
L 257.80517 224.64 
L 257.80517 224.64 
L 252.624734 224.64 
z
" style="fill:#ff7f0e;opacity:0.4;"/>
   </g>
   <g id="patch_74">
    <path clip-path="url(#p451c7aa905)" d="M 257.80517 224.64 
L 262.985605 224.64 
L 262.985605 224.438408 
L 257.80517 224.438408 
z
" style="fill:#ff7f0e;opacity:0.4;"/>
   </g>
   <g id="patch_75">
    <path clip-path="url(#p451c7aa905)" d="M 262.985605 224.64 
L 268.166041 224.64 
L 268.166041 224.438408 
L 262.985605 224.438408 
z
" style="fill:#ff7f0e;opacity:0.4;"/>
   </g>
   <g id="patch_76">
    <path clip-path="url(#p451c7aa905)" d="M 268.166041 224.64 
L 273.346476 224.64 
L 273.346476 224.64 
L 268.166041 224.64 
z
" style="fill:#ff7f0e;opacity:0.4;"/>
   </g>
   <g id="patch_77">
    <path clip-path="url(#p451c7aa905)" d="M 273.346476 224.64 
L 278.526912 224.64 
L 278.526912 224.438408 
L 273.346476 224.438408 
z
" style="fill:#ff7f0e;opacity:0.4;"/>
   </g>
   <g id="patch_78">
    <path clip-path="url(#p451c7aa905)" d="M 278.526912 224.64 
L 283.707347 224.64 
L 283.707347 224.64 
L 278.526912 224.64 
z
" style="fill:#ff7f0e;opacity:0.4;"/>
   </g>
   <g id="patch_79">
    <path clip-path="url(#p451c7aa905)" d="M 283.707347 224.64 
L 288.887783 224.64 
L 288.887783 224.64 
L 283.707347 224.64 
z
" style="fill:#ff7f0e;opacity:0.4;"/>
   </g>
   <g id="patch_80">
    <path clip-path="url(#p451c7aa905)" d="M 288.887783 224.64 
L 294.068218 224.64 
L 294.068218 224.64 
L 288.887783 224.64 
z
" style="fill:#ff7f0e;opacity:0.4;"/>
   </g>
   <g id="patch_81">
    <path clip-path="url(#p451c7aa905)" d="M 294.068218 224.64 
L 299.248654 224.64 
L 299.248654 224.64 
L 294.068218 224.64 
z
" style="fill:#ff7f0e;opacity:0.4;"/>
   </g>
   <g id="patch_82">
    <path clip-path="url(#p451c7aa905)" d="M 299.248654 224.64 
L 304.429089 224.64 
L 304.429089 224.438408 
L 299.248654 224.438408 
z
" style="fill:#ff7f0e;opacity:0.4;"/>
   </g>
   <g id="patch_83">
    <path clip-path="url(#p451c7aa905)" d="M 304.429089 224.64 
L 309.609525 224.64 
L 309.609525 224.64 
L 304.429089 224.64 
z
" style="fill:#ff7f0e;opacity:0.4;"/>
   </g>
   <g id="patch_84">
    <path clip-path="url(#p451c7aa905)" d="M 309.609525 224.64 
L 314.789961 224.64 
L 314.789961 224.64 
L 309.609525 224.64 
z
" style="fill:#ff7f0e;opacity:0.4;"/>
   </g>
   <g id="patch_85">
    <path clip-path="url(#p451c7aa905)" d="M 314.789961 224.64 
L 319.970396 224.64 
L 319.970396 224.438408 
L 314.789961 224.438408 
z
" style="fill:#ff7f0e;opacity:0.4;"/>
   </g>
   <g id="patch_86">
    <path clip-path="url(#p451c7aa905)" d="M 319.970396 224.64 
L 325.150832 224.64 
L 325.150832 224.64 
L 319.970396 224.64 
z
" style="fill:#ff7f0e;opacity:0.4;"/>
   </g>
   <g id="patch_87">
    <path clip-path="url(#p451c7aa905)" d="M 325.150832 224.64 
L 330.331267 224.64 
L 330.331267 224.64 
L 325.150832 224.64 
z
" style="fill:#ff7f0e;opacity:0.4;"/>
   </g>
   <g id="patch_88">
    <path clip-path="url(#p451c7aa905)" d="M 330.331267 224.64 
L 335.511703 224.64 
L 335.511703 224.438408 
L 330.331267 224.438408 
z
" style="fill:#ff7f0e;opacity:0.4;"/>
   </g>
   <g id="patch_89">
    <path clip-path="url(#p451c7aa905)" d="M 335.511703 224.64 
L 340.692138 224.64 
L 340.692138 224.438408 
L 335.511703 224.438408 
z
" style="fill:#ff7f0e;opacity:0.4;"/>
   </g>
   <g id="patch_90">
    <path clip-path="url(#p451c7aa905)" d="M 81.670362 224.64 
L 84.388539 224.64 
L 84.388539 17.554286 
L 81.670362 17.554286 
z
" style="fill:#2ca02c;opacity:0.4;"/>
   </g>
   <g id="patch_91">
    <path clip-path="url(#p451c7aa905)" d="M 84.388539 224.64 
L 87.106717 224.64 
L 87.106717 194.672123 
L 84.388539 194.672123 
z
" style="fill:#2ca02c;opacity:0.4;"/>
   </g>
   <g id="patch_92">
    <path clip-path="url(#p451c7aa905)" d="M 87.106717 224.64 
L 89.824895 224.64 
L 89.824895 193.519512 
L 87.106717 193.519512 
z
" style="fill:#2ca02c;opacity:0.4;"/>
   </g>
   <g id="patch_93">
    <path clip-path="url(#p451c7aa905)" d="M 89.824895 224.64 
L 92.543072 224.64 
L 92.543072 201.587787 
L 89.824895 201.587787 
z
" style="fill:#2ca02c;opacity:0.4;"/>
   </g>
   <g id="patch_94">
    <path clip-path="url(#p451c7aa905)" d="M 92.543072 224.64 
L 95.26125 224.64 
L 95.26125 205.429822 
L 92.543072 205.429822 
z
" style="fill:#2ca02c;opacity:0.4;"/>
   </g>
   <g id="patch_95">
    <path clip-path="url(#p451c7aa905)" d="M 95.26125 224.64 
L 97.979427 224.64 
L 97.979427 214.650708 
L 95.26125 214.650708 
z
" style="fill:#2ca02c;opacity:0.4;"/>
   </g>
   <g id="patch_96">
    <path clip-path="url(#p451c7aa905)" d="M 97.979427 224.64 
L 100.697605 224.64 
L 100.697605 216.955929 
L 97.979427 216.955929 
z
" style="fill:#2ca02c;opacity:0.4;"/>
   </g>
   <g id="patch_97">
    <path clip-path="url(#p451c7aa905)" d="M 100.697605 224.64 
L 103.415783 224.64 
L 103.415783 220.413761 
L 100.697605 220.413761 
z
" style="fill:#2ca02c;opacity:0.4;"/>
   </g>
   <g id="patch_98">
    <path clip-path="url(#p451c7aa905)" d="M 103.415783 224.64 
L 106.13396 224.64 
L 106.13396 218.876947 
L 103.415783 218.876947 
z
" style="fill:#2ca02c;opacity:0.4;"/>
   </g>
   <g id="patch_99">
    <path clip-path="url(#p451c7aa905)" d="M 106.13396 224.64 
L 108.852138 224.64 
L 108.852138 220.029557 
L 106.13396 220.029557 
z
" style="fill:#2ca02c;opacity:0.4;"/>
   </g>
   <g id="patch_100">
    <path clip-path="url(#p451c7aa905)" d="M 108.852138 224.64 
L 111.570316 224.64 
L 111.570316 220.413761 
L 108.852138 220.413761 
z
" style="fill:#2ca02c;opacity:0.4;"/>
   </g>
   <g id="patch_101">
    <path clip-path="url(#p451c7aa905)" d="M 111.570316 224.64 
L 114.288493 224.64 
L 114.288493 221.566372 
L 111.570316 221.566372 
z
" style="fill:#2ca02c;opacity:0.4;"/>
   </g>
   <g id="patch_102">
    <path clip-path="url(#p451c7aa905)" d="M 114.288493 224.64 
L 117.006671 224.64 
L 117.006671 222.718982 
L 114.288493 222.718982 
z
" style="fill:#2ca02c;opacity:0.4;"/>
   </g>
   <g id="patch_103">
    <path clip-path="url(#p451c7aa905)" d="M 117.006671 224.64 
L 119.724848 224.64 
L 119.724848 221.950575 
L 117.006671 221.950575 
z
" style="fill:#2ca02c;opacity:0.4;"/>
   </g>
   <g id="patch_104">
    <path clip-path="url(#p451c7aa905)" d="M 119.724848 224.64 
L 122.443026 224.64 
L 122.443026 222.718982 
L 119.724848 222.718982 
z
" style="fill:#2ca02c;opacity:0.4;"/>
   </g>
   <g id="patch_105">
    <path clip-path="url(#p451c7aa905)" d="M 122.443026 224.64 
L 125.161204 224.64 
L 125.161204 223.487389 
L 122.443026 223.487389 
z
" style="fill:#2ca02c;opacity:0.4;"/>
   </g>
   <g id="patch_106">
    <path clip-path="url(#p451c7aa905)" d="M 125.161204 224.64 
L 127.879381 224.64 
L 127.879381 221.950575 
L 125.161204 221.950575 
z
" style="fill:#2ca02c;opacity:0.4;"/>
   </g>
   <g id="patch_107">
    <path clip-path="url(#p451c7aa905)" d="M 127.879381 224.64 
L 130.597559 224.64 
L 130.597559 222.334779 
L 127.879381 222.334779 
z
" style="fill:#2ca02c;opacity:0.4;"/>
   </g>
   <g id="patch_108">
    <path clip-path="url(#p451c7aa905)" d="M 130.597559 224.64 
L 133.315736 224.64 
L 133.315736 223.103186 
L 130.597559 223.103186 
z
" style="fill:#2ca02c;opacity:0.4;"/>
   </g>
   <g id="patch_109">
    <path clip-path="url(#p451c7aa905)" d="M 133.315736 224.64 
L 136.033914 224.64 
L 136.033914 222.718982 
L 133.315736 222.718982 
z
" style="fill:#2ca02c;opacity:0.4;"/>
   </g>
   <g id="patch_110">
    <path clip-path="url(#p451c7aa905)" d="M 136.033914 224.64 
L 138.752092 224.64 
L 138.752092 223.871593 
L 136.033914 223.871593 
z
" style="fill:#2ca02c;opacity:0.4;"/>
   </g>
   <g id="patch_111">
    <path clip-path="url(#p451c7aa905)" d="M 138.752092 224.64 
L 141.470269 224.64 
L 141.470269 224.64 
L 138.752092 224.64 
z
" style="fill:#2ca02c;opacity:0.4;"/>
   </g>
   <g id="patch_112">
    <path clip-path="url(#p451c7aa905)" d="M 141.470269 224.64 
L 144.188447 224.64 
L 144.188447 224.255796 
L 141.470269 224.255796 
z
" style="fill:#2ca02c;opacity:0.4;"/>
   </g>
   <g id="patch_113">
    <path clip-path="url(#p451c7aa905)" d="M 144.188447 224.64 
L 146.906624 224.64 
L 146.906624 222.334779 
L 144.188447 222.334779 
z
" style="fill:#2ca02c;opacity:0.4;"/>
   </g>
   <g id="patch_114">
    <path clip-path="url(#p451c7aa905)" d="M 146.906624 224.64 
L 149.624802 224.64 
L 149.624802 223.103186 
L 146.906624 223.103186 
z
" style="fill:#2ca02c;opacity:0.4;"/>
   </g>
   <g id="patch_115">
    <path clip-path="url(#p451c7aa905)" d="M 149.624802 224.64 
L 152.34298 224.64 
L 152.34298 221.950575 
L 149.624802 221.950575 
z
" style="fill:#2ca02c;opacity:0.4;"/>
   </g>
   <g id="patch_116">
    <path clip-path="url(#p451c7aa905)" d="M 152.34298 224.64 
L 155.061157 224.64 
L 155.061157 223.103186 
L 152.34298 223.103186 
z
" style="fill:#2ca02c;opacity:0.4;"/>
   </g>
   <g id="patch_117">
    <path clip-path="url(#p451c7aa905)" d="M 155.061157 224.64 
L 157.779335 224.64 
L 157.779335 224.64 
L 155.061157 224.64 
z
" style="fill:#2ca02c;opacity:0.4;"/>
   </g>
   <g id="patch_118">
    <path clip-path="url(#p451c7aa905)" d="M 157.779335 224.64 
L 160.497513 224.64 
L 160.497513 223.871593 
L 157.779335 223.871593 
z
" style="fill:#2ca02c;opacity:0.4;"/>
   </g>
   <g id="patch_119">
    <path clip-path="url(#p451c7aa905)" d="M 160.497513 224.64 
L 163.21569 224.64 
L 163.21569 224.255796 
L 160.497513 224.255796 
z
" style="fill:#2ca02c;opacity:0.4;"/>
   </g>
   <g id="patch_120">
    <path clip-path="url(#p451c7aa905)" d="M 163.21569 224.64 
L 165.933868 224.64 
L 165.933868 223.487389 
L 163.21569 223.487389 
z
" style="fill:#2ca02c;opacity:0.4;"/>
   </g>
   <g id="patch_121">
    <path clip-path="url(#p451c7aa905)" d="M 165.933868 224.64 
L 168.652045 224.64 
L 168.652045 223.871593 
L 165.933868 223.871593 
z
" style="fill:#2ca02c;opacity:0.4;"/>
   </g>
   <g id="patch_122">
    <path clip-path="url(#p451c7aa905)" d="M 168.652045 224.64 
L 171.370223 224.64 
L 171.370223 223.871593 
L 168.652045 223.871593 
z
" style="fill:#2ca02c;opacity:0.4;"/>
   </g>
   <g id="patch_123">
    <path clip-path="url(#p451c7aa905)" d="M 171.370223 224.64 
L 174.088401 224.64 
L 174.088401 224.255796 
L 171.370223 224.255796 
z
" style="fill:#2ca02c;opacity:0.4;"/>
   </g>
   <g id="patch_124">
    <path clip-path="url(#p451c7aa905)" d="M 174.088401 224.64 
L 176.806578 224.64 
L 176.806578 224.64 
L 174.088401 224.64 
z
" style="fill:#2ca02c;opacity:0.4;"/>
   </g>
   <g id="patch_125">
    <path clip-path="url(#p451c7aa905)" d="M 176.806578 224.64 
L 179.524756 224.64 
L 179.524756 223.871593 
L 176.806578 223.871593 
z
" style="fill:#2ca02c;opacity:0.4;"/>
   </g>
   <g id="patch_126">
    <path clip-path="url(#p451c7aa905)" d="M 179.524756 224.64 
L 182.242933 224.64 
L 182.242933 223.871593 
L 179.524756 223.871593 
z
" style="fill:#2ca02c;opacity:0.4;"/>
   </g>
   <g id="patch_127">
    <path clip-path="url(#p451c7aa905)" d="M 182.242933 224.64 
L 184.961111 224.64 
L 184.961111 223.871593 
L 182.242933 223.871593 
z
" style="fill:#2ca02c;opacity:0.4;"/>
   </g>
   <g id="patch_128">
    <path clip-path="url(#p451c7aa905)" d="M 184.961111 224.64 
L 187.679289 224.64 
L 187.679289 224.255796 
L 184.961111 224.255796 
z
" style="fill:#2ca02c;opacity:0.4;"/>
   </g>
   <g id="patch_129">
    <path clip-path="url(#p451c7aa905)" d="M 187.679289 224.64 
L 190.397466 224.64 
L 190.397466 224.64 
L 187.679289 224.64 
z
" style="fill:#2ca02c;opacity:0.4;"/>
   </g>
   <g id="patch_130">
    <path clip-path="url(#p451c7aa905)" d="M 190.397466 224.64 
L 193.115644 224.64 
L 193.115644 224.64 
L 190.397466 224.64 
z
" style="fill:#2ca02c;opacity:0.4;"/>
   </g>
   <g id="patch_131">
    <path clip-path="url(#p451c7aa905)" d="M 193.115644 224.64 
L 195.833821 224.64 
L 195.833821 224.64 
L 193.115644 224.64 
z
" style="fill:#2ca02c;opacity:0.4;"/>
   </g>
   <g id="patch_132">
    <path clip-path="url(#p451c7aa905)" d="M 195.833821 224.64 
L 198.551999 224.64 
L 198.551999 224.64 
L 195.833821 224.64 
z
" style="fill:#2ca02c;opacity:0.4;"/>
   </g>
   <g id="patch_133">
    <path clip-path="url(#p451c7aa905)" d="M 198.551999 224.64 
L 201.270177 224.64 
L 201.270177 224.255796 
L 198.551999 224.255796 
z
" style="fill:#2ca02c;opacity:0.4;"/>
   </g>
   <g id="patch_134">
    <path clip-path="url(#p451c7aa905)" d="M 201.270177 224.64 
L 203.988354 224.64 
L 203.988354 224.255796 
L 201.270177 224.255796 
z
" style="fill:#2ca02c;opacity:0.4;"/>
   </g>
   <g id="patch_135">
    <path clip-path="url(#p451c7aa905)" d="M 203.988354 224.64 
L 206.706532 224.64 
L 206.706532 224.64 
L 203.988354 224.64 
z
" style="fill:#2ca02c;opacity:0.4;"/>
   </g>
   <g id="patch_136">
    <path clip-path="url(#p451c7aa905)" d="M 206.706532 224.64 
L 209.424709 224.64 
L 209.424709 224.64 
L 206.706532 224.64 
z
" style="fill:#2ca02c;opacity:0.4;"/>
   </g>
   <g id="patch_137">
    <path clip-path="url(#p451c7aa905)" d="M 209.424709 224.64 
L 212.142887 224.64 
L 212.142887 224.64 
L 209.424709 224.64 
z
" style="fill:#2ca02c;opacity:0.4;"/>
   </g>
   <g id="patch_138">
    <path clip-path="url(#p451c7aa905)" d="M 212.142887 224.64 
L 214.861065 224.64 
L 214.861065 223.871593 
L 212.142887 223.871593 
z
" style="fill:#2ca02c;opacity:0.4;"/>
   </g>
   <g id="patch_139">
    <path clip-path="url(#p451c7aa905)" d="M 214.861065 224.64 
L 217.579242 224.64 
L 217.579242 224.255796 
L 214.861065 224.255796 
z
" style="fill:#2ca02c;opacity:0.4;"/>
   </g>
   <g id="matplotlib.axis_1">
    <g id="xtick_1">
     <g id="line2d_1">
      <defs>
       <path d="M 0 0 
L 0 3.5 
" id="ma8ddb1623d" style="stroke:#000000;stroke-width:0.8;"/>
      </defs>
      <g>
       <use style="stroke:#000000;stroke-width:0.8;" x="81.670362" xlink:href="#ma8ddb1623d" y="224.64"/>
      </g>
     </g>
     <g id="text_1">
      <!-- 0.0 -->
      <g transform="translate(73.718799 239.238437)scale(0.1 -0.1)">
       <defs>
        <path d="M 31.78125 66.40625 
Q 24.171875 66.40625 20.328125 58.90625 
Q 16.5 51.421875 16.5 36.375 
Q 16.5 21.390625 20.328125 13.890625 
Q 24.171875 6.390625 31.78125 6.390625 
Q 39.453125 6.390625 43.28125 13.890625 
Q 47.125 21.390625 47.125 36.375 
Q 47.125 51.421875 43.28125 58.90625 
Q 39.453125 66.40625 31.78125 66.40625 
z
M 31.78125 74.21875 
Q 44.046875 74.21875 50.515625 64.515625 
Q 56.984375 54.828125 56.984375 36.375 
Q 56.984375 17.96875 50.515625 8.265625 
Q 44.046875 -1.421875 31.78125 -1.421875 
Q 19.53125 -1.421875 13.0625 8.265625 
Q 6.59375 17.96875 6.59375 36.375 
Q 6.59375 54.828125 13.0625 64.515625 
Q 19.53125 74.21875 31.78125 74.21875 
z
" id="DejaVuSans-48"/>
        <path d="M 10.6875 12.40625 
L 21 12.40625 
L 21 0 
L 10.6875 0 
z
" id="DejaVuSans-46"/>
       </defs>
       <use xlink:href="#DejaVuSans-48"/>
       <use x="63.623047" xlink:href="#DejaVuSans-46"/>
       <use x="95.410156" xlink:href="#DejaVuSans-48"/>
      </g>
     </g>
    </g>
    <g id="xtick_2">
     <g id="line2d_2">
      <g>
       <use style="stroke:#000000;stroke-width:0.8;" x="120.297982" xlink:href="#ma8ddb1623d" y="224.64"/>
      </g>
     </g>
     <g id="text_2">
      <!-- 2.5 -->
      <g transform="translate(112.346419 239.238437)scale(0.1 -0.1)">
       <defs>
        <path d="M 19.1875 8.296875 
L 53.609375 8.296875 
L 53.609375 0 
L 7.328125 0 
L 7.328125 8.296875 
Q 12.9375 14.109375 22.625 23.890625 
Q 32.328125 33.6875 34.8125 36.53125 
Q 39.546875 41.84375 41.421875 45.53125 
Q 43.3125 49.21875 43.3125 52.78125 
Q 43.3125 58.59375 39.234375 62.25 
Q 35.15625 65.921875 28.609375 65.921875 
Q 23.96875 65.921875 18.8125 64.3125 
Q 13.671875 62.703125 7.8125 59.421875 
L 7.8125 69.390625 
Q 13.765625 71.78125 18.9375 73 
Q 24.125 74.21875 28.421875 74.21875 
Q 39.75 74.21875 46.484375 68.546875 
Q 53.21875 62.890625 53.21875 53.421875 
Q 53.21875 48.921875 51.53125 44.890625 
Q 49.859375 40.875 45.40625 35.40625 
Q 44.1875 33.984375 37.640625 27.21875 
Q 31.109375 20.453125 19.1875 8.296875 
z
" id="DejaVuSans-50"/>
        <path d="M 10.796875 72.90625 
L 49.515625 72.90625 
L 49.515625 64.59375 
L 19.828125 64.59375 
L 19.828125 46.734375 
Q 21.96875 47.46875 24.109375 47.828125 
Q 26.265625 48.1875 28.421875 48.1875 
Q 40.625 48.1875 47.75 41.5 
Q 54.890625 34.8125 54.890625 23.390625 
Q 54.890625 11.625 47.5625 5.09375 
Q 40.234375 -1.421875 26.90625 -1.421875 
Q 22.3125 -1.421875 17.546875 -0.640625 
Q 12.796875 0.140625 7.71875 1.703125 
L 7.71875 11.625 
Q 12.109375 9.234375 16.796875 8.0625 
Q 21.484375 6.890625 26.703125 6.890625 
Q 35.15625 6.890625 40.078125 11.328125 
Q 45.015625 15.765625 45.015625 23.390625 
Q 45.015625 31 40.078125 35.4375 
Q 35.15625 39.890625 26.703125 39.890625 
Q 22.75 39.890625 18.8125 39.015625 
Q 14.890625 38.140625 10.796875 36.28125 
z
" id="DejaVuSans-53"/>
       </defs>
       <use xlink:href="#DejaVuSans-50"/>
       <use x="63.623047" xlink:href="#DejaVuSans-46"/>
       <use x="95.410156" xlink:href="#DejaVuSans-53"/>
      </g>
     </g>
    </g>
    <g id="xtick_3">
     <g id="line2d_3">
      <g>
       <use style="stroke:#000000;stroke-width:0.8;" x="158.925601" xlink:href="#ma8ddb1623d" y="224.64"/>
      </g>
     </g>
     <g id="text_3">
      <!-- 5.0 -->
      <g transform="translate(150.974039 239.238437)scale(0.1 -0.1)">
       <use xlink:href="#DejaVuSans-53"/>
       <use x="63.623047" xlink:href="#DejaVuSans-46"/>
       <use x="95.410156" xlink:href="#DejaVuSans-48"/>
      </g>
     </g>
    </g>
    <g id="xtick_4">
     <g id="line2d_4">
      <g>
       <use style="stroke:#000000;stroke-width:0.8;" x="197.553221" xlink:href="#ma8ddb1623d" y="224.64"/>
      </g>
     </g>
     <g id="text_4">
      <!-- 7.5 -->
      <g transform="translate(189.601659 239.238437)scale(0.1 -0.1)">
       <defs>
        <path d="M 8.203125 72.90625 
L 55.078125 72.90625 
L 55.078125 68.703125 
L 28.609375 0 
L 18.3125 0 
L 43.21875 64.59375 
L 8.203125 64.59375 
z
" id="DejaVuSans-55"/>
       </defs>
       <use xlink:href="#DejaVuSans-55"/>
       <use x="63.623047" xlink:href="#DejaVuSans-46"/>
       <use x="95.410156" xlink:href="#DejaVuSans-53"/>
      </g>
     </g>
    </g>
    <g id="xtick_5">
     <g id="line2d_5">
      <g>
       <use style="stroke:#000000;stroke-width:0.8;" x="236.180841" xlink:href="#ma8ddb1623d" y="224.64"/>
      </g>
     </g>
     <g id="text_5">
      <!-- 10.0 -->
      <g transform="translate(225.048028 239.238437)scale(0.1 -0.1)">
       <defs>
        <path d="M 12.40625 8.296875 
L 28.515625 8.296875 
L 28.515625 63.921875 
L 10.984375 60.40625 
L 10.984375 69.390625 
L 28.421875 72.90625 
L 38.28125 72.90625 
L 38.28125 8.296875 
L 54.390625 8.296875 
L 54.390625 0 
L 12.40625 0 
z
" id="DejaVuSans-49"/>
       </defs>
       <use xlink:href="#DejaVuSans-49"/>
       <use x="63.623047" xlink:href="#DejaVuSans-48"/>
       <use x="127.246094" xlink:href="#DejaVuSans-46"/>
       <use x="159.033203" xlink:href="#DejaVuSans-48"/>
      </g>
     </g>
    </g>
    <g id="xtick_6">
     <g id="line2d_6">
      <g>
       <use style="stroke:#000000;stroke-width:0.8;" x="274.808461" xlink:href="#ma8ddb1623d" y="224.64"/>
      </g>
     </g>
     <g id="text_6">
      <!-- 12.5 -->
      <g transform="translate(263.675648 239.238437)scale(0.1 -0.1)">
       <use xlink:href="#DejaVuSans-49"/>
       <use x="63.623047" xlink:href="#DejaVuSans-50"/>
       <use x="127.246094" xlink:href="#DejaVuSans-46"/>
       <use x="159.033203" xlink:href="#DejaVuSans-53"/>
      </g>
     </g>
    </g>
    <g id="xtick_7">
     <g id="line2d_7">
      <g>
       <use style="stroke:#000000;stroke-width:0.8;" x="313.436081" xlink:href="#ma8ddb1623d" y="224.64"/>
      </g>
     </g>
     <g id="text_7">
      <!-- 15.0 -->
      <g transform="translate(302.303268 239.238437)scale(0.1 -0.1)">
       <use xlink:href="#DejaVuSans-49"/>
       <use x="63.623047" xlink:href="#DejaVuSans-53"/>
       <use x="127.246094" xlink:href="#DejaVuSans-46"/>
       <use x="159.033203" xlink:href="#DejaVuSans-48"/>
      </g>
     </g>
    </g>
    <g id="xtick_8">
     <g id="line2d_8">
      <g>
       <use style="stroke:#000000;stroke-width:0.8;" x="352.0637" xlink:href="#ma8ddb1623d" y="224.64"/>
      </g>
     </g>
     <g id="text_8">
      <!-- 17.5 -->
      <g transform="translate(340.930888 239.238437)scale(0.1 -0.1)">
       <use xlink:href="#DejaVuSans-49"/>
       <use x="63.623047" xlink:href="#DejaVuSans-55"/>
       <use x="127.246094" xlink:href="#DejaVuSans-46"/>
       <use x="159.033203" xlink:href="#DejaVuSans-53"/>
      </g>
     </g>
    </g>
    <g id="text_9">
     <!-- f(t) -->
     <g transform="translate(203.559375 252.916562)scale(0.1 -0.1)">
      <defs>
       <path d="M 37.109375 75.984375 
L 37.109375 68.5 
L 28.515625 68.5 
Q 23.6875 68.5 21.796875 66.546875 
Q 19.921875 64.59375 19.921875 59.515625 
L 19.921875 54.6875 
L 34.71875 54.6875 
L 34.71875 47.703125 
L 19.921875 47.703125 
L 19.921875 0 
L 10.890625 0 
L 10.890625 47.703125 
L 2.296875 47.703125 
L 2.296875 54.6875 
L 10.890625 54.6875 
L 10.890625 58.5 
Q 10.890625 67.625 15.140625 71.796875 
Q 19.390625 75.984375 28.609375 75.984375 
z
" id="DejaVuSans-102"/>
       <path d="M 31 75.875 
Q 24.46875 64.65625 21.28125 53.65625 
Q 18.109375 42.671875 18.109375 31.390625 
Q 18.109375 20.125 21.3125 9.0625 
Q 24.515625 -2 31 -13.1875 
L 23.1875 -13.1875 
Q 15.875 -1.703125 12.234375 9.375 
Q 8.59375 20.453125 8.59375 31.390625 
Q 8.59375 42.28125 12.203125 53.3125 
Q 15.828125 64.359375 23.1875 75.875 
z
" id="DejaVuSans-40"/>
       <path d="M 18.3125 70.21875 
L 18.3125 54.6875 
L 36.8125 54.6875 
L 36.8125 47.703125 
L 18.3125 47.703125 
L 18.3125 18.015625 
Q 18.3125 11.328125 20.140625 9.421875 
Q 21.96875 7.515625 27.59375 7.515625 
L 36.8125 7.515625 
L 36.8125 0 
L 27.59375 0 
Q 17.1875 0 13.234375 3.875 
Q 9.28125 7.765625 9.28125 18.015625 
L 9.28125 47.703125 
L 2.6875 47.703125 
L 2.6875 54.6875 
L 9.28125 54.6875 
L 9.28125 70.21875 
z
" id="DejaVuSans-116"/>
       <path d="M 8.015625 75.875 
L 15.828125 75.875 
Q 23.140625 64.359375 26.78125 53.3125 
Q 30.421875 42.28125 30.421875 31.390625 
Q 30.421875 20.453125 26.78125 9.375 
Q 23.140625 -1.703125 15.828125 -13.1875 
L 8.015625 -13.1875 
Q 14.5 -2 17.703125 9.0625 
Q 20.90625 20.125 20.90625 31.390625 
Q 20.90625 42.671875 17.703125 53.65625 
Q 14.5 64.65625 8.015625 75.875 
z
" id="DejaVuSans-41"/>
      </defs>
      <use xlink:href="#DejaVuSans-102"/>
      <use x="35.205078" xlink:href="#DejaVuSans-40"/>
      <use x="74.21875" xlink:href="#DejaVuSans-116"/>
      <use x="113.427734" xlink:href="#DejaVuSans-41"/>
     </g>
    </g>
   </g>
   <g id="matplotlib.axis_2">
    <g id="ytick_1">
     <g id="line2d_9">
      <defs>
       <path d="M 0 0 
L -3.5 0 
" id="m0a14ac2a45" style="stroke:#000000;stroke-width:0.8;"/>
      </defs>
      <g>
       <use style="stroke:#000000;stroke-width:0.8;" x="43.78125" xlink:href="#m0a14ac2a45" y="224.64"/>
      </g>
     </g>
     <g id="text_10">
      <!-- 0.0 -->
      <g transform="translate(20.878125 228.439219)scale(0.1 -0.1)">
       <use xlink:href="#DejaVuSans-48"/>
       <use x="63.623047" xlink:href="#DejaVuSans-46"/>
       <use x="95.410156" xlink:href="#DejaVuSans-48"/>
      </g>
     </g>
    </g>
    <g id="ytick_2">
     <g id="line2d_10">
      <g>
       <use style="stroke:#000000;stroke-width:0.8;" x="43.78125" xlink:href="#m0a14ac2a45" y="190.845092"/>
      </g>
     </g>
     <g id="text_11">
      <!-- 0.5 -->
      <g transform="translate(20.878125 194.644311)scale(0.1 -0.1)">
       <use xlink:href="#DejaVuSans-48"/>
       <use x="63.623047" xlink:href="#DejaVuSans-46"/>
       <use x="95.410156" xlink:href="#DejaVuSans-53"/>
      </g>
     </g>
    </g>
    <g id="ytick_3">
     <g id="line2d_11">
      <g>
       <use style="stroke:#000000;stroke-width:0.8;" x="43.78125" xlink:href="#m0a14ac2a45" y="157.050184"/>
      </g>
     </g>
     <g id="text_12">
      <!-- 1.0 -->
      <g transform="translate(20.878125 160.849402)scale(0.1 -0.1)">
       <use xlink:href="#DejaVuSans-49"/>
       <use x="63.623047" xlink:href="#DejaVuSans-46"/>
       <use x="95.410156" xlink:href="#DejaVuSans-48"/>
      </g>
     </g>
    </g>
    <g id="ytick_4">
     <g id="line2d_12">
      <g>
       <use style="stroke:#000000;stroke-width:0.8;" x="43.78125" xlink:href="#m0a14ac2a45" y="123.255275"/>
      </g>
     </g>
     <g id="text_13">
      <!-- 1.5 -->
      <g transform="translate(20.878125 127.054494)scale(0.1 -0.1)">
       <use xlink:href="#DejaVuSans-49"/>
       <use x="63.623047" xlink:href="#DejaVuSans-46"/>
       <use x="95.410156" xlink:href="#DejaVuSans-53"/>
      </g>
     </g>
    </g>
    <g id="ytick_5">
     <g id="line2d_13">
      <g>
       <use style="stroke:#000000;stroke-width:0.8;" x="43.78125" xlink:href="#m0a14ac2a45" y="89.460367"/>
      </g>
     </g>
     <g id="text_14">
      <!-- 2.0 -->
      <g transform="translate(20.878125 93.259586)scale(0.1 -0.1)">
       <use xlink:href="#DejaVuSans-50"/>
       <use x="63.623047" xlink:href="#DejaVuSans-46"/>
       <use x="95.410156" xlink:href="#DejaVuSans-48"/>
      </g>
     </g>
    </g>
    <g id="ytick_6">
     <g id="line2d_14">
      <g>
       <use style="stroke:#000000;stroke-width:0.8;" x="43.78125" xlink:href="#m0a14ac2a45" y="55.665459"/>
      </g>
     </g>
     <g id="text_15">
      <!-- 2.5 -->
      <g transform="translate(20.878125 59.464678)scale(0.1 -0.1)">
       <use xlink:href="#DejaVuSans-50"/>
       <use x="63.623047" xlink:href="#DejaVuSans-46"/>
       <use x="95.410156" xlink:href="#DejaVuSans-53"/>
      </g>
     </g>
    </g>
    <g id="ytick_7">
     <g id="line2d_15">
      <g>
       <use style="stroke:#000000;stroke-width:0.8;" x="43.78125" xlink:href="#m0a14ac2a45" y="21.870551"/>
      </g>
     </g>
     <g id="text_16">
      <!-- 3.0 -->
      <g transform="translate(20.878125 25.66977)scale(0.1 -0.1)">
       <defs>
        <path d="M 40.578125 39.3125 
Q 47.65625 37.796875 51.625 33 
Q 55.609375 28.21875 55.609375 21.1875 
Q 55.609375 10.40625 48.1875 4.484375 
Q 40.765625 -1.421875 27.09375 -1.421875 
Q 22.515625 -1.421875 17.65625 -0.515625 
Q 12.796875 0.390625 7.625 2.203125 
L 7.625 11.71875 
Q 11.71875 9.328125 16.59375 8.109375 
Q 21.484375 6.890625 26.8125 6.890625 
Q 36.078125 6.890625 40.9375 10.546875 
Q 45.796875 14.203125 45.796875 21.1875 
Q 45.796875 27.640625 41.28125 31.265625 
Q 36.765625 34.90625 28.71875 34.90625 
L 20.21875 34.90625 
L 20.21875 43.015625 
L 29.109375 43.015625 
Q 36.375 43.015625 40.234375 45.921875 
Q 44.09375 48.828125 44.09375 54.296875 
Q 44.09375 59.90625 40.109375 62.90625 
Q 36.140625 65.921875 28.71875 65.921875 
Q 24.65625 65.921875 20.015625 65.03125 
Q 15.375 64.15625 9.8125 62.3125 
L 9.8125 71.09375 
Q 15.4375 72.65625 20.34375 73.4375 
Q 25.25 74.21875 29.59375 74.21875 
Q 40.828125 74.21875 47.359375 69.109375 
Q 53.90625 64.015625 53.90625 55.328125 
Q 53.90625 49.265625 50.4375 45.09375 
Q 46.96875 40.921875 40.578125 39.3125 
z
" id="DejaVuSans-51"/>
       </defs>
       <use xlink:href="#DejaVuSans-51"/>
       <use x="63.623047" xlink:href="#DejaVuSans-46"/>
       <use x="95.410156" xlink:href="#DejaVuSans-48"/>
      </g>
     </g>
    </g>
    <g id="text_17">
     <!-- Density -->
     <g transform="translate(14.798438 134.928594)rotate(-90)scale(0.1 -0.1)">
      <defs>
       <path d="M 19.671875 64.796875 
L 19.671875 8.109375 
L 31.59375 8.109375 
Q 46.6875 8.109375 53.6875 14.9375 
Q 60.6875 21.78125 60.6875 36.53125 
Q 60.6875 51.171875 53.6875 57.984375 
Q 46.6875 64.796875 31.59375 64.796875 
z
M 9.8125 72.90625 
L 30.078125 72.90625 
Q 51.265625 72.90625 61.171875 64.09375 
Q 71.09375 55.28125 71.09375 36.53125 
Q 71.09375 17.671875 61.125 8.828125 
Q 51.171875 0 30.078125 0 
L 9.8125 0 
z
" id="DejaVuSans-68"/>
       <path d="M 56.203125 29.59375 
L 56.203125 25.203125 
L 14.890625 25.203125 
Q 15.484375 15.921875 20.484375 11.0625 
Q 25.484375 6.203125 34.421875 6.203125 
Q 39.59375 6.203125 44.453125 7.46875 
Q 49.3125 8.734375 54.109375 11.28125 
L 54.109375 2.78125 
Q 49.265625 0.734375 44.1875 -0.34375 
Q 39.109375 -1.421875 33.890625 -1.421875 
Q 20.796875 -1.421875 13.15625 6.1875 
Q 5.515625 13.8125 5.515625 26.8125 
Q 5.515625 40.234375 12.765625 48.109375 
Q 20.015625 56 32.328125 56 
Q 43.359375 56 49.78125 48.890625 
Q 56.203125 41.796875 56.203125 29.59375 
z
M 47.21875 32.234375 
Q 47.125 39.59375 43.09375 43.984375 
Q 39.0625 48.390625 32.421875 48.390625 
Q 24.90625 48.390625 20.390625 44.140625 
Q 15.875 39.890625 15.1875 32.171875 
z
" id="DejaVuSans-101"/>
       <path d="M 54.890625 33.015625 
L 54.890625 0 
L 45.90625 0 
L 45.90625 32.71875 
Q 45.90625 40.484375 42.875 44.328125 
Q 39.84375 48.1875 33.796875 48.1875 
Q 26.515625 48.1875 22.3125 43.546875 
Q 18.109375 38.921875 18.109375 30.90625 
L 18.109375 0 
L 9.078125 0 
L 9.078125 54.6875 
L 18.109375 54.6875 
L 18.109375 46.1875 
Q 21.34375 51.125 25.703125 53.5625 
Q 30.078125 56 35.796875 56 
Q 45.21875 56 50.046875 50.171875 
Q 54.890625 44.34375 54.890625 33.015625 
z
" id="DejaVuSans-110"/>
       <path d="M 44.28125 53.078125 
L 44.28125 44.578125 
Q 40.484375 46.53125 36.375 47.5 
Q 32.28125 48.484375 27.875 48.484375 
Q 21.1875 48.484375 17.84375 46.4375 
Q 14.5 44.390625 14.5 40.28125 
Q 14.5 37.15625 16.890625 35.375 
Q 19.28125 33.59375 26.515625 31.984375 
L 29.59375 31.296875 
Q 39.15625 29.25 43.1875 25.515625 
Q 47.21875 21.78125 47.21875 15.09375 
Q 47.21875 7.46875 41.1875 3.015625 
Q 35.15625 -1.421875 24.609375 -1.421875 
Q 20.21875 -1.421875 15.453125 -0.5625 
Q 10.6875 0.296875 5.421875 2 
L 5.421875 11.28125 
Q 10.40625 8.6875 15.234375 7.390625 
Q 20.0625 6.109375 24.8125 6.109375 
Q 31.15625 6.109375 34.5625 8.28125 
Q 37.984375 10.453125 37.984375 14.40625 
Q 37.984375 18.0625 35.515625 20.015625 
Q 33.0625 21.96875 24.703125 23.78125 
L 21.578125 24.515625 
Q 13.234375 26.265625 9.515625 29.90625 
Q 5.8125 33.546875 5.8125 39.890625 
Q 5.8125 47.609375 11.28125 51.796875 
Q 16.75 56 26.8125 56 
Q 31.78125 56 36.171875 55.265625 
Q 40.578125 54.546875 44.28125 53.078125 
z
" id="DejaVuSans-115"/>
       <path d="M 9.421875 54.6875 
L 18.40625 54.6875 
L 18.40625 0 
L 9.421875 0 
z
M 9.421875 75.984375 
L 18.40625 75.984375 
L 18.40625 64.59375 
L 9.421875 64.59375 
z
" id="DejaVuSans-105"/>
       <path d="M 32.171875 -5.078125 
Q 28.375 -14.84375 24.75 -17.8125 
Q 21.140625 -20.796875 15.09375 -20.796875 
L 7.90625 -20.796875 
L 7.90625 -13.28125 
L 13.1875 -13.28125 
Q 16.890625 -13.28125 18.9375 -11.515625 
Q 21 -9.765625 23.484375 -3.21875 
L 25.09375 0.875 
L 2.984375 54.6875 
L 12.5 54.6875 
L 29.59375 11.921875 
L 46.6875 54.6875 
L 56.203125 54.6875 
z
" id="DejaVuSans-121"/>
      </defs>
      <use xlink:href="#DejaVuSans-68"/>
      <use x="77.001953" xlink:href="#DejaVuSans-101"/>
      <use x="138.525391" xlink:href="#DejaVuSans-110"/>
      <use x="201.904297" xlink:href="#DejaVuSans-115"/>
      <use x="254.003906" xlink:href="#DejaVuSans-105"/>
      <use x="281.787109" xlink:href="#DejaVuSans-116"/>
      <use x="320.996094" xlink:href="#DejaVuSans-121"/>
     </g>
    </g>
   </g>
   <g id="line2d_16">
    <path clip-path="url(#p451c7aa905)" d="M 65.668892 224.633377 
L 72.272467 224.518259 
L 75.574255 224.272041 
L 77.775447 223.957223 
L 79.976639 223.479043 
L 82.177831 222.814764 
L 84.379023 221.957482 
L 86.580215 220.908994 
L 88.781406 219.668775 
L 90.982598 218.230403 
L 93.18379 216.591752 
L 96.485578 213.80783 
L 108.592133 203.058711 
L 110.793325 201.641493 
L 111.893921 201.121445 
L 112.994517 200.757962 
L 114.095113 200.568072 
L 115.195709 200.561165 
L 116.296305 200.73778 
L 117.396901 201.089571 
L 118.497497 201.600411 
L 120.698689 203.008072 
L 122.899881 204.757981 
L 129.503456 210.316228 
L 131.704648 211.874855 
L 133.90584 213.17368 
L 136.107032 214.212107 
L 139.40882 215.409869 
L 147.112991 217.945302 
L 152.615971 219.83289 
L 157.018355 221.067738 
L 160.320143 221.785907 
L 163.62193 222.310176 
L 166.923718 222.632277 
L 171.326102 222.799156 
L 183.432657 223.036785 
L 204.34398 224.070005 
L 214.249344 224.257514 
L 229.657687 224.393834 
L 240.663646 224.468381 
L 270.379737 224.556877 
L 283.586888 224.638668 
L 284.687484 224.639207 
L 284.687484 224.639207 
" style="fill:none;stroke:#1f77b4;stroke-linecap:square;stroke-width:1.5;"/>
   </g>
   <g id="line2d_17">
    <path clip-path="url(#p451c7aa905)" d="M 58.999432 224.524378 
L 62.058363 224.250438 
L 63.587828 223.964891 
L 65.117294 223.513602 
L 66.646759 222.830011 
L 68.176225 221.837831 
L 69.70569 220.45844 
L 71.235156 218.62237 
L 72.764621 216.283907 
L 74.294087 213.436556 
L 75.823552 210.12606 
L 78.882483 202.59272 
L 81.941414 195.129935 
L 83.47088 191.993795 
L 85.000345 189.532525 
L 86.529811 187.896133 
L 88.059276 187.168627 
L 89.588742 187.362939 
L 91.118208 188.42498 
L 92.647673 190.244804 
L 94.177139 192.672158 
L 95.706604 195.533808 
L 101.824466 207.946986 
L 103.353932 210.63776 
L 104.883397 213.014121 
L 106.412863 215.058714 
L 107.942328 216.779314 
L 109.471794 218.201112 
L 111.001259 219.359027 
L 112.530725 220.291243 
L 114.06019 221.034629 
L 115.589656 221.622168 
L 118.648587 222.437862 
L 121.707518 222.912957 
L 124.766449 223.171109 
L 129.354845 223.335632 
L 137.002173 223.36632 
L 153.826293 223.288107 
L 161.473621 223.572205 
L 170.650414 223.873873 
L 216.534379 224.414672 
L 241.005827 224.229751 
L 263.94781 224.513915 
L 323.596965 224.573475 
L 360.304137 224.638056 
L 363.363068 224.639379 
L 363.363068 224.639379 
" style="fill:none;stroke:#ff7f0e;stroke-linecap:square;stroke-width:1.5;"/>
   </g>
   <g id="line2d_18">
    <path clip-path="url(#p451c7aa905)" d="M 66.92657 224.172799 
L 67.757708 223.871334 
L 68.588846 223.41047 
L 69.419984 222.727802 
L 70.251122 221.748336 
L 71.08226 220.387759 
L 71.913398 218.558895 
L 72.744536 216.181589 
L 73.575674 213.195621 
L 74.406812 209.575349 
L 76.069088 200.58447 
L 79.39364 180.049225 
L 80.224778 175.836596 
L 81.055916 172.513749 
L 81.887054 170.261825 
L 82.718192 169.178791 
L 83.54933 169.270369 
L 84.380468 170.453654 
L 85.211606 172.572372 
L 86.042744 175.420537 
L 87.705021 182.396974 
L 90.198435 193.172866 
L 91.860711 199.255518 
L 93.522987 204.210225 
L 95.185263 208.186001 
L 96.847539 211.378157 
L 98.509815 213.924931 
L 100.172091 215.912304 
L 101.834367 217.413189 
L 103.496643 218.512209 
L 105.158919 219.306221 
L 107.652333 220.133076 
L 110.976885 220.930242 
L 115.963713 221.905871 
L 119.288265 222.339409 
L 122.612817 222.551695 
L 131.755335 222.927591 
L 139.235577 223.586677 
L 141.728991 223.534421 
L 150.040371 223.0428 
L 153.364923 223.337587 
L 158.351751 223.859972 
L 161.676303 223.948504 
L 169.987683 223.995205 
L 176.636787 224.120636 
L 183.285891 224.122054 
L 196.5841 224.516759 
L 215.700274 224.412418 
L 232.323034 224.638978 
L 232.323034 224.638978 
" style="fill:none;stroke:#2ca02c;stroke-linecap:square;stroke-width:1.5;"/>
   </g>
   <g id="patch_140">
    <path d="M 43.78125 224.64 
L 43.78125 7.2 
" style="fill:none;stroke:#000000;stroke-linecap:square;stroke-linejoin:miter;stroke-width:0.8;"/>
   </g>
   <g id="patch_141">
    <path d="M 378.58125 224.64 
L 378.58125 7.2 
" style="fill:none;stroke:#000000;stroke-linecap:square;stroke-linejoin:miter;stroke-width:0.8;"/>
   </g>
   <g id="patch_142">
    <path d="M 43.78125 224.64 
L 378.58125 224.64 
" style="fill:none;stroke:#000000;stroke-linecap:square;stroke-linejoin:miter;stroke-width:0.8;"/>
   </g>
   <g id="patch_143">
    <path d="M 43.78125 7.2 
L 378.58125 7.2 
" style="fill:none;stroke:#000000;stroke-linecap:square;stroke-linejoin:miter;stroke-width:0.8;"/>
   </g>
  </g>
 </g>
 <defs>
  <clipPath id="p451c7aa905">
   <rect height="217.44" width="334.8" x="43.78125" y="7.2"/>
  </clipPath>
 </defs>
</svg>
