<?xml version="1.0" encoding="utf-8" standalone="no"?>
<!DOCTYPE svg PUBLIC "-//W3C//DTD SVG 1.1//EN"
  "http://www.w3.org/Graphics/SVG/1.1/DTD/svg11.dtd">
<svg height="310.86825pt" version="1.1" viewBox="0 0 414.46375 310.86825" width="414.46375pt" xmlns="http://www.w3.org/2000/svg" xmlns:xlink="http://www.w3.org/1999/xlink">
 <metadata>
  <rdf:RDF xmlns:cc="http://creativecommons.org/ns#" xmlns:dc="http://purl.org/dc/elements/1.1/" xmlns:rdf="http://www.w3.org/1999/02/22-rdf-syntax-ns#">
   <cc:Work>
    <dc:type rdf:resource="http://purl.org/dc/dcmitype/StillImage"/>
    <dc:date>2021-05-04T13:30:03.364164</dc:date>
    <dc:format>image/svg+xml</dc:format>
    <dc:creator>
     <cc:Agent>
      <dc:title>Matplotlib v3.4.1, https://matplotlib.org/</dc:title>
     </cc:Agent>
    </dc:creator>
   </cc:Work>
  </rdf:RDF>
 </metadata>
 <defs>
  <style type="text/css">*{stroke-linecap:butt;stroke-linejoin:round;}</style>
 </defs>
 <g id="figure_1">
  <g id="patch_1">
   <path d="M 0 310.86825 
L 414.46375 310.86825 
L 414.46375 0 
L 0 0 
z
" style="fill:#ffffff;"/>
  </g>
  <g id="axes_1">
   <g id="patch_2">
    <path d="M 50.14375 273.312 
L 407.26375 273.312 
L 407.26375 7.2 
L 50.14375 7.2 
z
" style="fill:#ffffff;"/>
   </g>
   <g id="patch_3">
    <path clip-path="url(#p67609613c9)" d="M 87.112846 273.312 
L 91.557666 273.312 
L 91.557666 263.799668 
L 87.112846 263.799668 
z
" style="fill:#1f77b4;opacity:0.4;"/>
   </g>
   <g id="patch_4">
    <path clip-path="url(#p67609613c9)" d="M 91.557666 273.312 
L 96.002485 273.312 
L 96.002485 258.890078 
L 91.557666 258.890078 
z
" style="fill:#1f77b4;opacity:0.4;"/>
   </g>
   <g id="patch_5">
    <path clip-path="url(#p67609613c9)" d="M 96.002485 273.312 
L 100.447304 273.312 
L 100.447304 246.922951 
L 96.002485 246.922951 
z
" style="fill:#1f77b4;opacity:0.4;"/>
   </g>
   <g id="patch_6">
    <path clip-path="url(#p67609613c9)" d="M 100.447304 273.312 
L 104.892124 273.312 
L 104.892124 241.706511 
L 100.447304 241.706511 
z
" style="fill:#1f77b4;opacity:0.4;"/>
   </g>
   <g id="patch_7">
    <path clip-path="url(#p67609613c9)" d="M 104.892124 273.312 
L 109.336943 273.312 
L 109.336943 226.977739 
L 104.892124 226.977739 
z
" style="fill:#1f77b4;opacity:0.4;"/>
   </g>
   <g id="patch_8">
    <path clip-path="url(#p67609613c9)" d="M 109.336943 273.312 
L 113.781762 273.312 
L 113.781762 238.331167 
L 109.336943 238.331167 
z
" style="fill:#1f77b4;opacity:0.4;"/>
   </g>
   <g id="patch_9">
    <path clip-path="url(#p67609613c9)" d="M 113.781762 273.312 
L 118.226582 273.312 
L 118.226582 244.775005 
L 113.781762 244.775005 
z
" style="fill:#1f77b4;opacity:0.4;"/>
   </g>
   <g id="patch_10">
    <path clip-path="url(#p67609613c9)" d="M 118.226582 273.312 
L 122.671401 273.312 
L 122.671401 252.75309 
L 118.226582 252.75309 
z
" style="fill:#1f77b4;opacity:0.4;"/>
   </g>
   <g id="patch_11">
    <path clip-path="url(#p67609613c9)" d="M 122.671401 273.312 
L 127.11622 273.312 
L 127.11622 255.514734 
L 122.671401 255.514734 
z
" style="fill:#1f77b4;opacity:0.4;"/>
   </g>
   <g id="patch_12">
    <path clip-path="url(#p67609613c9)" d="M 127.11622 273.312 
L 131.561039 273.312 
L 131.561039 259.810626 
L 127.11622 259.810626 
z
" style="fill:#1f77b4;opacity:0.4;"/>
   </g>
   <g id="patch_13">
    <path clip-path="url(#p67609613c9)" d="M 131.561039 273.312 
L 136.005859 273.312 
L 136.005859 261.038024 
L 131.561039 261.038024 
z
" style="fill:#1f77b4;opacity:0.4;"/>
   </g>
   <g id="patch_14">
    <path clip-path="url(#p67609613c9)" d="M 136.005859 273.312 
L 140.450678 273.312 
L 140.450678 261.958572 
L 136.005859 261.958572 
z
" style="fill:#1f77b4;opacity:0.4;"/>
   </g>
   <g id="patch_15">
    <path clip-path="url(#p67609613c9)" d="M 140.450678 273.312 
L 144.895497 273.312 
L 144.895497 265.027066 
L 140.450678 265.027066 
z
" style="fill:#1f77b4;opacity:0.4;"/>
   </g>
   <g id="patch_16">
    <path clip-path="url(#p67609613c9)" d="M 144.895497 273.312 
L 149.340317 273.312 
L 149.340317 268.402409 
L 144.895497 268.402409 
z
" style="fill:#1f77b4;opacity:0.4;"/>
   </g>
   <g id="patch_17">
    <path clip-path="url(#p67609613c9)" d="M 149.340317 273.312 
L 153.785136 273.312 
L 153.785136 267.481861 
L 149.340317 267.481861 
z
" style="fill:#1f77b4;opacity:0.4;"/>
   </g>
   <g id="patch_18">
    <path clip-path="url(#p67609613c9)" d="M 153.785136 273.312 
L 158.229955 273.312 
L 158.229955 270.243506 
L 153.785136 270.243506 
z
" style="fill:#1f77b4;opacity:0.4;"/>
   </g>
   <g id="patch_19">
    <path clip-path="url(#p67609613c9)" d="M 158.229955 273.312 
L 162.674775 273.312 
L 162.674775 267.481861 
L 158.229955 267.481861 
z
" style="fill:#1f77b4;opacity:0.4;"/>
   </g>
   <g id="patch_20">
    <path clip-path="url(#p67609613c9)" d="M 162.674775 273.312 
L 167.119594 273.312 
L 167.119594 270.550355 
L 162.674775 270.550355 
z
" style="fill:#1f77b4;opacity:0.4;"/>
   </g>
   <g id="patch_21">
    <path clip-path="url(#p67609613c9)" d="M 167.119594 273.312 
L 171.564413 273.312 
L 171.564413 271.777753 
L 167.119594 271.777753 
z
" style="fill:#1f77b4;opacity:0.4;"/>
   </g>
   <g id="patch_22">
    <path clip-path="url(#p67609613c9)" d="M 171.564413 273.312 
L 176.009233 273.312 
L 176.009233 272.084602 
L 171.564413 272.084602 
z
" style="fill:#1f77b4;opacity:0.4;"/>
   </g>
   <g id="patch_23">
    <path clip-path="url(#p67609613c9)" d="M 176.009233 273.312 
L 180.454052 273.312 
L 180.454052 271.470904 
L 176.009233 271.470904 
z
" style="fill:#1f77b4;opacity:0.4;"/>
   </g>
   <g id="patch_24">
    <path clip-path="url(#p67609613c9)" d="M 180.454052 273.312 
L 184.898871 273.312 
L 184.898871 272.698301 
L 180.454052 272.698301 
z
" style="fill:#1f77b4;opacity:0.4;"/>
   </g>
   <g id="patch_25">
    <path clip-path="url(#p67609613c9)" d="M 184.898871 273.312 
L 189.34369 273.312 
L 189.34369 272.391452 
L 184.898871 272.391452 
z
" style="fill:#1f77b4;opacity:0.4;"/>
   </g>
   <g id="patch_26">
    <path clip-path="url(#p67609613c9)" d="M 189.34369 273.312 
L 193.78851 273.312 
L 193.78851 272.391452 
L 189.34369 272.391452 
z
" style="fill:#1f77b4;opacity:0.4;"/>
   </g>
   <g id="patch_27">
    <path clip-path="url(#p67609613c9)" d="M 193.78851 273.312 
L 198.233329 273.312 
L 198.233329 273.312 
L 193.78851 273.312 
z
" style="fill:#1f77b4;opacity:0.4;"/>
   </g>
   <g id="patch_28">
    <path clip-path="url(#p67609613c9)" d="M 198.233329 273.312 
L 202.678148 273.312 
L 202.678148 272.698301 
L 198.233329 272.698301 
z
" style="fill:#1f77b4;opacity:0.4;"/>
   </g>
   <g id="patch_29">
    <path clip-path="url(#p67609613c9)" d="M 202.678148 273.312 
L 207.122968 273.312 
L 207.122968 273.005151 
L 202.678148 273.005151 
z
" style="fill:#1f77b4;opacity:0.4;"/>
   </g>
   <g id="patch_30">
    <path clip-path="url(#p67609613c9)" d="M 207.122968 273.312 
L 211.567787 273.312 
L 211.567787 273.312 
L 207.122968 273.312 
z
" style="fill:#1f77b4;opacity:0.4;"/>
   </g>
   <g id="patch_31">
    <path clip-path="url(#p67609613c9)" d="M 211.567787 273.312 
L 216.012606 273.312 
L 216.012606 272.698301 
L 211.567787 272.698301 
z
" style="fill:#1f77b4;opacity:0.4;"/>
   </g>
   <g id="patch_32">
    <path clip-path="url(#p67609613c9)" d="M 216.012606 273.312 
L 220.457426 273.312 
L 220.457426 273.312 
L 216.012606 273.312 
z
" style="fill:#1f77b4;opacity:0.4;"/>
   </g>
   <g id="patch_33">
    <path clip-path="url(#p67609613c9)" d="M 220.457426 273.312 
L 224.902245 273.312 
L 224.902245 273.312 
L 220.457426 273.312 
z
" style="fill:#1f77b4;opacity:0.4;"/>
   </g>
   <g id="patch_34">
    <path clip-path="url(#p67609613c9)" d="M 224.902245 273.312 
L 229.347064 273.312 
L 229.347064 273.005151 
L 224.902245 273.005151 
z
" style="fill:#1f77b4;opacity:0.4;"/>
   </g>
   <g id="patch_35">
    <path clip-path="url(#p67609613c9)" d="M 85.914065 273.312 
L 91.625652 273.312 
L 91.625652 159.168688 
L 85.914065 159.168688 
z
" style="fill:#ff7f0e;opacity:0.4;"/>
   </g>
   <g id="patch_36">
    <path clip-path="url(#p67609613c9)" d="M 91.625652 273.312 
L 97.33724 273.312 
L 97.33724 210.986886 
L 91.625652 210.986886 
z
" style="fill:#ff7f0e;opacity:0.4;"/>
   </g>
   <g id="patch_37">
    <path clip-path="url(#p67609613c9)" d="M 97.33724 273.312 
L 103.048827 273.312 
L 103.048827 253.492136 
L 97.33724 253.492136 
z
" style="fill:#ff7f0e;opacity:0.4;"/>
   </g>
   <g id="patch_38">
    <path clip-path="url(#p67609613c9)" d="M 103.048827 273.312 
L 108.760414 273.312 
L 108.760414 266.148194 
L 103.048827 266.148194 
z
" style="fill:#ff7f0e;opacity:0.4;"/>
   </g>
   <g id="patch_39">
    <path clip-path="url(#p67609613c9)" d="M 108.760414 273.312 
L 114.472002 273.312 
L 114.472002 267.342162 
L 108.760414 267.342162 
z
" style="fill:#ff7f0e;opacity:0.4;"/>
   </g>
   <g id="patch_40">
    <path clip-path="url(#p67609613c9)" d="M 114.472002 273.312 
L 120.183589 273.312 
L 120.183589 268.297336 
L 114.472002 268.297336 
z
" style="fill:#ff7f0e;opacity:0.4;"/>
   </g>
   <g id="patch_41">
    <path clip-path="url(#p67609613c9)" d="M 120.183589 273.312 
L 125.895177 273.312 
L 125.895177 269.013716 
L 120.183589 269.013716 
z
" style="fill:#ff7f0e;opacity:0.4;"/>
   </g>
   <g id="patch_42">
    <path clip-path="url(#p67609613c9)" d="M 125.895177 273.312 
L 131.606764 273.312 
L 131.606764 270.924065 
L 125.895177 270.924065 
z
" style="fill:#ff7f0e;opacity:0.4;"/>
   </g>
   <g id="patch_43">
    <path clip-path="url(#p67609613c9)" d="M 131.606764 273.312 
L 137.318351 273.312 
L 137.318351 270.446478 
L 131.606764 270.446478 
z
" style="fill:#ff7f0e;opacity:0.4;"/>
   </g>
   <g id="patch_44">
    <path clip-path="url(#p67609613c9)" d="M 137.318351 273.312 
L 143.029939 273.312 
L 143.029939 271.640445 
L 137.318351 271.640445 
z
" style="fill:#ff7f0e;opacity:0.4;"/>
   </g>
   <g id="patch_45">
    <path clip-path="url(#p67609613c9)" d="M 143.029939 273.312 
L 148.741526 273.312 
L 148.741526 271.640445 
L 143.029939 271.640445 
z
" style="fill:#ff7f0e;opacity:0.4;"/>
   </g>
   <g id="patch_46">
    <path clip-path="url(#p67609613c9)" d="M 148.741526 273.312 
L 154.453114 273.312 
L 154.453114 272.118032 
L 148.741526 272.118032 
z
" style="fill:#ff7f0e;opacity:0.4;"/>
   </g>
   <g id="patch_47">
    <path clip-path="url(#p67609613c9)" d="M 154.453114 273.312 
L 160.164701 273.312 
L 160.164701 272.356826 
L 154.453114 272.356826 
z
" style="fill:#ff7f0e;opacity:0.4;"/>
   </g>
   <g id="patch_48">
    <path clip-path="url(#p67609613c9)" d="M 160.164701 273.312 
L 165.876288 273.312 
L 165.876288 271.879239 
L 160.164701 271.879239 
z
" style="fill:#ff7f0e;opacity:0.4;"/>
   </g>
   <g id="patch_49">
    <path clip-path="url(#p67609613c9)" d="M 165.876288 273.312 
L 171.587876 273.312 
L 171.587876 272.595619 
L 165.876288 272.595619 
z
" style="fill:#ff7f0e;opacity:0.4;"/>
   </g>
   <g id="patch_50">
    <path clip-path="url(#p67609613c9)" d="M 171.587876 273.312 
L 177.299463 273.312 
L 177.299463 271.879239 
L 171.587876 271.879239 
z
" style="fill:#ff7f0e;opacity:0.4;"/>
   </g>
   <g id="patch_51">
    <path clip-path="url(#p67609613c9)" d="M 177.299463 273.312 
L 183.011051 273.312 
L 183.011051 272.834413 
L 177.299463 272.834413 
z
" style="fill:#ff7f0e;opacity:0.4;"/>
   </g>
   <g id="patch_52">
    <path clip-path="url(#p67609613c9)" d="M 183.011051 273.312 
L 188.722638 273.312 
L 188.722638 273.073206 
L 183.011051 273.073206 
z
" style="fill:#ff7f0e;opacity:0.4;"/>
   </g>
   <g id="patch_53">
    <path clip-path="url(#p67609613c9)" d="M 188.722638 273.312 
L 194.434226 273.312 
L 194.434226 272.356826 
L 188.722638 272.356826 
z
" style="fill:#ff7f0e;opacity:0.4;"/>
   </g>
   <g id="patch_54">
    <path clip-path="url(#p67609613c9)" d="M 194.434226 273.312 
L 200.145813 273.312 
L 200.145813 272.356826 
L 194.434226 272.356826 
z
" style="fill:#ff7f0e;opacity:0.4;"/>
   </g>
   <g id="patch_55">
    <path clip-path="url(#p67609613c9)" d="M 200.145813 273.312 
L 205.8574 273.312 
L 205.8574 273.073206 
L 200.145813 273.073206 
z
" style="fill:#ff7f0e;opacity:0.4;"/>
   </g>
   <g id="patch_56">
    <path clip-path="url(#p67609613c9)" d="M 205.8574 273.312 
L 211.568988 273.312 
L 211.568988 273.073206 
L 205.8574 273.073206 
z
" style="fill:#ff7f0e;opacity:0.4;"/>
   </g>
   <g id="patch_57">
    <path clip-path="url(#p67609613c9)" d="M 211.568988 273.312 
L 217.280575 273.312 
L 217.280575 272.834413 
L 211.568988 272.834413 
z
" style="fill:#ff7f0e;opacity:0.4;"/>
   </g>
   <g id="patch_58">
    <path clip-path="url(#p67609613c9)" d="M 217.280575 273.312 
L 222.992163 273.312 
L 222.992163 273.073206 
L 217.280575 273.073206 
z
" style="fill:#ff7f0e;opacity:0.4;"/>
   </g>
   <g id="patch_59">
    <path clip-path="url(#p67609613c9)" d="M 222.992163 273.312 
L 228.70375 273.312 
L 228.70375 272.834413 
L 222.992163 272.834413 
z
" style="fill:#ff7f0e;opacity:0.4;"/>
   </g>
   <g id="patch_60">
    <path clip-path="url(#p67609613c9)" d="M 228.70375 273.312 
L 234.415337 273.312 
L 234.415337 273.312 
L 228.70375 273.312 
z
" style="fill:#ff7f0e;opacity:0.4;"/>
   </g>
   <g id="patch_61">
    <path clip-path="url(#p67609613c9)" d="M 234.415337 273.312 
L 240.126925 273.312 
L 240.126925 272.834413 
L 234.415337 272.834413 
z
" style="fill:#ff7f0e;opacity:0.4;"/>
   </g>
   <g id="patch_62">
    <path clip-path="url(#p67609613c9)" d="M 240.126925 273.312 
L 245.838512 273.312 
L 245.838512 273.312 
L 240.126925 273.312 
z
" style="fill:#ff7f0e;opacity:0.4;"/>
   </g>
   <g id="patch_63">
    <path clip-path="url(#p67609613c9)" d="M 245.838512 273.312 
L 251.5501 273.312 
L 251.5501 273.312 
L 245.838512 273.312 
z
" style="fill:#ff7f0e;opacity:0.4;"/>
   </g>
   <g id="patch_64">
    <path clip-path="url(#p67609613c9)" d="M 251.5501 273.312 
L 257.261687 273.312 
L 257.261687 273.312 
L 251.5501 273.312 
z
" style="fill:#ff7f0e;opacity:0.4;"/>
   </g>
   <g id="patch_65">
    <path clip-path="url(#p67609613c9)" d="M 257.261687 273.312 
L 262.973274 273.312 
L 262.973274 273.312 
L 257.261687 273.312 
z
" style="fill:#ff7f0e;opacity:0.4;"/>
   </g>
   <g id="patch_66">
    <path clip-path="url(#p67609613c9)" d="M 262.973274 273.312 
L 268.684862 273.312 
L 268.684862 273.312 
L 262.973274 273.312 
z
" style="fill:#ff7f0e;opacity:0.4;"/>
   </g>
   <g id="patch_67">
    <path clip-path="url(#p67609613c9)" d="M 268.684862 273.312 
L 274.396449 273.312 
L 274.396449 273.312 
L 268.684862 273.312 
z
" style="fill:#ff7f0e;opacity:0.4;"/>
   </g>
   <g id="patch_68">
    <path clip-path="url(#p67609613c9)" d="M 274.396449 273.312 
L 280.108037 273.312 
L 280.108037 273.312 
L 274.396449 273.312 
z
" style="fill:#ff7f0e;opacity:0.4;"/>
   </g>
   <g id="patch_69">
    <path clip-path="url(#p67609613c9)" d="M 280.108037 273.312 
L 285.819624 273.312 
L 285.819624 273.312 
L 280.108037 273.312 
z
" style="fill:#ff7f0e;opacity:0.4;"/>
   </g>
   <g id="patch_70">
    <path clip-path="url(#p67609613c9)" d="M 285.819624 273.312 
L 291.531212 273.312 
L 291.531212 273.073206 
L 285.819624 273.073206 
z
" style="fill:#ff7f0e;opacity:0.4;"/>
   </g>
   <g id="patch_71">
    <path clip-path="url(#p67609613c9)" d="M 291.531212 273.312 
L 297.242799 273.312 
L 297.242799 273.073206 
L 291.531212 273.073206 
z
" style="fill:#ff7f0e;opacity:0.4;"/>
   </g>
   <g id="patch_72">
    <path clip-path="url(#p67609613c9)" d="M 297.242799 273.312 
L 302.954386 273.312 
L 302.954386 273.312 
L 297.242799 273.312 
z
" style="fill:#ff7f0e;opacity:0.4;"/>
   </g>
   <g id="patch_73">
    <path clip-path="url(#p67609613c9)" d="M 302.954386 273.312 
L 308.665974 273.312 
L 308.665974 273.312 
L 302.954386 273.312 
z
" style="fill:#ff7f0e;opacity:0.4;"/>
   </g>
   <g id="patch_74">
    <path clip-path="url(#p67609613c9)" d="M 308.665974 273.312 
L 314.377561 273.312 
L 314.377561 273.312 
L 308.665974 273.312 
z
" style="fill:#ff7f0e;opacity:0.4;"/>
   </g>
   <g id="patch_75">
    <path clip-path="url(#p67609613c9)" d="M 314.377561 273.312 
L 320.089149 273.312 
L 320.089149 273.312 
L 314.377561 273.312 
z
" style="fill:#ff7f0e;opacity:0.4;"/>
   </g>
   <g id="patch_76">
    <path clip-path="url(#p67609613c9)" d="M 320.089149 273.312 
L 325.800736 273.312 
L 325.800736 273.312 
L 320.089149 273.312 
z
" style="fill:#ff7f0e;opacity:0.4;"/>
   </g>
   <g id="patch_77">
    <path clip-path="url(#p67609613c9)" d="M 325.800736 273.312 
L 331.512323 273.312 
L 331.512323 273.312 
L 325.800736 273.312 
z
" style="fill:#ff7f0e;opacity:0.4;"/>
   </g>
   <g id="patch_78">
    <path clip-path="url(#p67609613c9)" d="M 331.512323 273.312 
L 337.223911 273.312 
L 337.223911 273.312 
L 331.512323 273.312 
z
" style="fill:#ff7f0e;opacity:0.4;"/>
   </g>
   <g id="patch_79">
    <path clip-path="url(#p67609613c9)" d="M 337.223911 273.312 
L 342.935498 273.312 
L 342.935498 273.312 
L 337.223911 273.312 
z
" style="fill:#ff7f0e;opacity:0.4;"/>
   </g>
   <g id="patch_80">
    <path clip-path="url(#p67609613c9)" d="M 342.935498 273.312 
L 348.647086 273.312 
L 348.647086 273.073206 
L 342.935498 273.073206 
z
" style="fill:#ff7f0e;opacity:0.4;"/>
   </g>
   <g id="patch_81">
    <path clip-path="url(#p67609613c9)" d="M 348.647086 273.312 
L 354.358673 273.312 
L 354.358673 273.312 
L 348.647086 273.312 
z
" style="fill:#ff7f0e;opacity:0.4;"/>
   </g>
   <g id="patch_82">
    <path clip-path="url(#p67609613c9)" d="M 354.358673 273.312 
L 360.07026 273.312 
L 360.07026 273.312 
L 354.358673 273.312 
z
" style="fill:#ff7f0e;opacity:0.4;"/>
   </g>
   <g id="patch_83">
    <path clip-path="url(#p67609613c9)" d="M 360.07026 273.312 
L 365.781848 273.312 
L 365.781848 273.312 
L 360.07026 273.312 
z
" style="fill:#ff7f0e;opacity:0.4;"/>
   </g>
   <g id="patch_84">
    <path clip-path="url(#p67609613c9)" d="M 365.781848 273.312 
L 371.493435 273.312 
L 371.493435 273.073206 
L 365.781848 273.073206 
z
" style="fill:#ff7f0e;opacity:0.4;"/>
   </g>
   <g id="patch_85">
    <path clip-path="url(#p67609613c9)" d="M 85.914065 273.312 
L 88.448756 273.312 
L 88.448756 19.872 
L 85.914065 19.872 
z
" style="fill:#2ca02c;opacity:0.4;"/>
   </g>
   <g id="patch_86">
    <path clip-path="url(#p67609613c9)" d="M 88.448756 273.312 
L 90.983448 273.312 
L 90.983448 218.426904 
L 88.448756 218.426904 
z
" style="fill:#2ca02c;opacity:0.4;"/>
   </g>
   <g id="patch_87">
    <path clip-path="url(#p67609613c9)" d="M 90.983448 273.312 
L 93.51814 273.312 
L 93.51814 227.57442 
L 90.983448 227.57442 
z
" style="fill:#2ca02c;opacity:0.4;"/>
   </g>
   <g id="patch_88">
    <path clip-path="url(#p67609613c9)" d="M 93.51814 273.312 
L 96.052832 273.312 
L 96.052832 239.412382 
L 93.51814 239.412382 
z
" style="fill:#2ca02c;opacity:0.4;"/>
   </g>
   <g id="patch_89">
    <path clip-path="url(#p67609613c9)" d="M 96.052832 273.312 
L 98.587523 273.312 
L 98.587523 257.169325 
L 96.052832 257.169325 
z
" style="fill:#2ca02c;opacity:0.4;"/>
   </g>
   <g id="patch_90">
    <path clip-path="url(#p67609613c9)" d="M 98.587523 273.312 
L 101.122215 273.312 
L 101.122215 260.935949 
L 98.587523 260.935949 
z
" style="fill:#2ca02c;opacity:0.4;"/>
   </g>
   <g id="patch_91">
    <path clip-path="url(#p67609613c9)" d="M 101.122215 273.312 
L 103.656907 273.312 
L 103.656907 254.478879 
L 101.122215 254.478879 
z
" style="fill:#2ca02c;opacity:0.4;"/>
   </g>
   <g id="patch_92">
    <path clip-path="url(#p67609613c9)" d="M 103.656907 273.312 
L 106.191599 273.312 
L 106.191599 264.702573 
L 103.656907 264.702573 
z
" style="fill:#2ca02c;opacity:0.4;"/>
   </g>
   <g id="patch_93">
    <path clip-path="url(#p67609613c9)" d="M 106.191599 273.312 
L 108.72629 273.312 
L 108.72629 265.240662 
L 106.191599 265.240662 
z
" style="fill:#2ca02c;opacity:0.4;"/>
   </g>
   <g id="patch_94">
    <path clip-path="url(#p67609613c9)" d="M 108.72629 273.312 
L 111.260982 273.312 
L 111.260982 264.702573 
L 108.72629 264.702573 
z
" style="fill:#2ca02c;opacity:0.4;"/>
   </g>
   <g id="patch_95">
    <path clip-path="url(#p67609613c9)" d="M 111.260982 273.312 
L 113.795674 273.312 
L 113.795674 263.088306 
L 111.260982 263.088306 
z
" style="fill:#2ca02c;opacity:0.4;"/>
   </g>
   <g id="patch_96">
    <path clip-path="url(#p67609613c9)" d="M 113.795674 273.312 
L 116.330366 273.312 
L 116.330366 264.164484 
L 113.795674 264.164484 
z
" style="fill:#2ca02c;opacity:0.4;"/>
   </g>
   <g id="patch_97">
    <path clip-path="url(#p67609613c9)" d="M 116.330366 273.312 
L 118.865057 273.312 
L 118.865057 265.778752 
L 116.330366 265.778752 
z
" style="fill:#2ca02c;opacity:0.4;"/>
   </g>
   <g id="patch_98">
    <path clip-path="url(#p67609613c9)" d="M 118.865057 273.312 
L 121.399749 273.312 
L 121.399749 268.469197 
L 118.865057 268.469197 
z
" style="fill:#2ca02c;opacity:0.4;"/>
   </g>
   <g id="patch_99">
    <path clip-path="url(#p67609613c9)" d="M 121.399749 273.312 
L 123.934441 273.312 
L 123.934441 267.393019 
L 121.399749 267.393019 
z
" style="fill:#2ca02c;opacity:0.4;"/>
   </g>
   <g id="patch_100">
    <path clip-path="url(#p67609613c9)" d="M 123.934441 273.312 
L 126.469132 273.312 
L 126.469132 265.778752 
L 123.934441 265.778752 
z
" style="fill:#2ca02c;opacity:0.4;"/>
   </g>
   <g id="patch_101">
    <path clip-path="url(#p67609613c9)" d="M 126.469132 273.312 
L 129.003824 273.312 
L 129.003824 266.316841 
L 126.469132 266.316841 
z
" style="fill:#2ca02c;opacity:0.4;"/>
   </g>
   <g id="patch_102">
    <path clip-path="url(#p67609613c9)" d="M 129.003824 273.312 
L 131.538516 273.312 
L 131.538516 268.469197 
L 129.003824 268.469197 
z
" style="fill:#2ca02c;opacity:0.4;"/>
   </g>
   <g id="patch_103">
    <path clip-path="url(#p67609613c9)" d="M 131.538516 273.312 
L 134.073208 273.312 
L 134.073208 270.621554 
L 131.538516 270.621554 
z
" style="fill:#2ca02c;opacity:0.4;"/>
   </g>
   <g id="patch_104">
    <path clip-path="url(#p67609613c9)" d="M 134.073208 273.312 
L 136.607899 273.312 
L 136.607899 272.773911 
L 134.073208 272.773911 
z
" style="fill:#2ca02c;opacity:0.4;"/>
   </g>
   <g id="patch_105">
    <path clip-path="url(#p67609613c9)" d="M 136.607899 273.312 
L 139.142591 273.312 
L 139.142591 270.621554 
L 136.607899 270.621554 
z
" style="fill:#2ca02c;opacity:0.4;"/>
   </g>
   <g id="patch_106">
    <path clip-path="url(#p67609613c9)" d="M 139.142591 273.312 
L 141.677283 273.312 
L 141.677283 269.545376 
L 139.142591 269.545376 
z
" style="fill:#2ca02c;opacity:0.4;"/>
   </g>
   <g id="patch_107">
    <path clip-path="url(#p67609613c9)" d="M 141.677283 273.312 
L 144.211975 273.312 
L 144.211975 272.773911 
L 141.677283 272.773911 
z
" style="fill:#2ca02c;opacity:0.4;"/>
   </g>
   <g id="patch_108">
    <path clip-path="url(#p67609613c9)" d="M 144.211975 273.312 
L 146.746666 273.312 
L 146.746666 271.159643 
L 144.211975 271.159643 
z
" style="fill:#2ca02c;opacity:0.4;"/>
   </g>
   <g id="patch_109">
    <path clip-path="url(#p67609613c9)" d="M 146.746666 273.312 
L 149.281358 273.312 
L 149.281358 272.235822 
L 146.746666 272.235822 
z
" style="fill:#2ca02c;opacity:0.4;"/>
   </g>
   <g id="patch_110">
    <path clip-path="url(#p67609613c9)" d="M 149.281358 273.312 
L 151.81605 273.312 
L 151.81605 271.159643 
L 149.281358 271.159643 
z
" style="fill:#2ca02c;opacity:0.4;"/>
   </g>
   <g id="patch_111">
    <path clip-path="url(#p67609613c9)" d="M 151.81605 273.312 
L 154.350742 273.312 
L 154.350742 271.697732 
L 151.81605 271.697732 
z
" style="fill:#2ca02c;opacity:0.4;"/>
   </g>
   <g id="patch_112">
    <path clip-path="url(#p67609613c9)" d="M 154.350742 273.312 
L 156.885433 273.312 
L 156.885433 273.312 
L 154.350742 273.312 
z
" style="fill:#2ca02c;opacity:0.4;"/>
   </g>
   <g id="patch_113">
    <path clip-path="url(#p67609613c9)" d="M 156.885433 273.312 
L 159.420125 273.312 
L 159.420125 272.773911 
L 156.885433 272.773911 
z
" style="fill:#2ca02c;opacity:0.4;"/>
   </g>
   <g id="patch_114">
    <path clip-path="url(#p67609613c9)" d="M 159.420125 273.312 
L 161.954817 273.312 
L 161.954817 273.312 
L 159.420125 273.312 
z
" style="fill:#2ca02c;opacity:0.4;"/>
   </g>
   <g id="patch_115">
    <path clip-path="url(#p67609613c9)" d="M 161.954817 273.312 
L 164.489508 273.312 
L 164.489508 272.773911 
L 161.954817 272.773911 
z
" style="fill:#2ca02c;opacity:0.4;"/>
   </g>
   <g id="patch_116">
    <path clip-path="url(#p67609613c9)" d="M 164.489508 273.312 
L 167.0242 273.312 
L 167.0242 273.312 
L 164.489508 273.312 
z
" style="fill:#2ca02c;opacity:0.4;"/>
   </g>
   <g id="patch_117">
    <path clip-path="url(#p67609613c9)" d="M 167.0242 273.312 
L 169.558892 273.312 
L 169.558892 273.312 
L 167.0242 273.312 
z
" style="fill:#2ca02c;opacity:0.4;"/>
   </g>
   <g id="patch_118">
    <path clip-path="url(#p67609613c9)" d="M 169.558892 273.312 
L 172.093584 273.312 
L 172.093584 273.312 
L 169.558892 273.312 
z
" style="fill:#2ca02c;opacity:0.4;"/>
   </g>
   <g id="patch_119">
    <path clip-path="url(#p67609613c9)" d="M 172.093584 273.312 
L 174.628275 273.312 
L 174.628275 273.312 
L 172.093584 273.312 
z
" style="fill:#2ca02c;opacity:0.4;"/>
   </g>
   <g id="patch_120">
    <path clip-path="url(#p67609613c9)" d="M 174.628275 273.312 
L 177.162967 273.312 
L 177.162967 272.773911 
L 174.628275 272.773911 
z
" style="fill:#2ca02c;opacity:0.4;"/>
   </g>
   <g id="patch_121">
    <path clip-path="url(#p67609613c9)" d="M 177.162967 273.312 
L 179.697659 273.312 
L 179.697659 273.312 
L 177.162967 273.312 
z
" style="fill:#2ca02c;opacity:0.4;"/>
   </g>
   <g id="patch_122">
    <path clip-path="url(#p67609613c9)" d="M 179.697659 273.312 
L 182.232351 273.312 
L 182.232351 273.312 
L 179.697659 273.312 
z
" style="fill:#2ca02c;opacity:0.4;"/>
   </g>
   <g id="patch_123">
    <path clip-path="url(#p67609613c9)" d="M 182.232351 273.312 
L 184.767042 273.312 
L 184.767042 273.312 
L 182.232351 273.312 
z
" style="fill:#2ca02c;opacity:0.4;"/>
   </g>
   <g id="patch_124">
    <path clip-path="url(#p67609613c9)" d="M 184.767042 273.312 
L 187.301734 273.312 
L 187.301734 272.773911 
L 184.767042 272.773911 
z
" style="fill:#2ca02c;opacity:0.4;"/>
   </g>
   <g id="patch_125">
    <path clip-path="url(#p67609613c9)" d="M 187.301734 273.312 
L 189.836426 273.312 
L 189.836426 273.312 
L 187.301734 273.312 
z
" style="fill:#2ca02c;opacity:0.4;"/>
   </g>
   <g id="patch_126">
    <path clip-path="url(#p67609613c9)" d="M 189.836426 273.312 
L 192.371117 273.312 
L 192.371117 273.312 
L 189.836426 273.312 
z
" style="fill:#2ca02c;opacity:0.4;"/>
   </g>
   <g id="patch_127">
    <path clip-path="url(#p67609613c9)" d="M 192.371117 273.312 
L 194.905809 273.312 
L 194.905809 273.312 
L 192.371117 273.312 
z
" style="fill:#2ca02c;opacity:0.4;"/>
   </g>
   <g id="patch_128">
    <path clip-path="url(#p67609613c9)" d="M 194.905809 273.312 
L 197.440501 273.312 
L 197.440501 273.312 
L 194.905809 273.312 
z
" style="fill:#2ca02c;opacity:0.4;"/>
   </g>
   <g id="patch_129">
    <path clip-path="url(#p67609613c9)" d="M 197.440501 273.312 
L 199.975193 273.312 
L 199.975193 273.312 
L 197.440501 273.312 
z
" style="fill:#2ca02c;opacity:0.4;"/>
   </g>
   <g id="patch_130">
    <path clip-path="url(#p67609613c9)" d="M 199.975193 273.312 
L 202.509884 273.312 
L 202.509884 272.773911 
L 199.975193 272.773911 
z
" style="fill:#2ca02c;opacity:0.4;"/>
   </g>
   <g id="patch_131">
    <path clip-path="url(#p67609613c9)" d="M 202.509884 273.312 
L 205.044576 273.312 
L 205.044576 273.312 
L 202.509884 273.312 
z
" style="fill:#2ca02c;opacity:0.4;"/>
   </g>
   <g id="patch_132">
    <path clip-path="url(#p67609613c9)" d="M 205.044576 273.312 
L 207.579268 273.312 
L 207.579268 273.312 
L 205.044576 273.312 
z
" style="fill:#2ca02c;opacity:0.4;"/>
   </g>
   <g id="patch_133">
    <path clip-path="url(#p67609613c9)" d="M 207.579268 273.312 
L 210.11396 273.312 
L 210.11396 273.312 
L 207.579268 273.312 
z
" style="fill:#2ca02c;opacity:0.4;"/>
   </g>
   <g id="patch_134">
    <path clip-path="url(#p67609613c9)" d="M 210.11396 273.312 
L 212.648651 273.312 
L 212.648651 272.773911 
L 210.11396 272.773911 
z
" style="fill:#2ca02c;opacity:0.4;"/>
   </g>
   <g id="matplotlib.axis_1">
    <g id="xtick_1">
     <g id="line2d_1">
      <defs>
       <path d="M 0 0 
L 0 3.5 
" id="mb326132c7f" style="stroke:#000000;stroke-width:0.8;"/>
      </defs>
      <g>
       <use style="stroke:#000000;stroke-width:0.8;" x="85.914065" xlink:href="#mb326132c7f" y="273.312"/>
      </g>
     </g>
     <g id="text_1">
      <!-- 0 -->
      <g transform="translate(82.732815 287.910437)scale(0.1 -0.1)">
       <defs>
        <path d="M 2034 4250 
Q 1547 4250 1301 3770 
Q 1056 3291 1056 2328 
Q 1056 1369 1301 889 
Q 1547 409 2034 409 
Q 2525 409 2770 889 
Q 3016 1369 3016 2328 
Q 3016 3291 2770 3770 
Q 2525 4250 2034 4250 
z
M 2034 4750 
Q 2819 4750 3233 4129 
Q 3647 3509 3647 2328 
Q 3647 1150 3233 529 
Q 2819 -91 2034 -91 
Q 1250 -91 836 529 
Q 422 1150 422 2328 
Q 422 3509 836 4129 
Q 1250 4750 2034 4750 
z
" id="DejaVuSans-30" transform="scale(0.015625)"/>
       </defs>
       <use xlink:href="#DejaVuSans-30"/>
      </g>
     </g>
    </g>
    <g id="xtick_2">
     <g id="line2d_2">
      <g>
       <use style="stroke:#000000;stroke-width:0.8;" x="136.337091" xlink:href="#mb326132c7f" y="273.312"/>
      </g>
     </g>
     <g id="text_2">
      <!-- 5 -->
      <g transform="translate(133.155841 287.910437)scale(0.1 -0.1)">
       <defs>
        <path d="M 691 4666 
L 3169 4666 
L 3169 4134 
L 1269 4134 
L 1269 2991 
Q 1406 3038 1543 3061 
Q 1681 3084 1819 3084 
Q 2600 3084 3056 2656 
Q 3513 2228 3513 1497 
Q 3513 744 3044 326 
Q 2575 -91 1722 -91 
Q 1428 -91 1123 -41 
Q 819 9 494 109 
L 494 744 
Q 775 591 1075 516 
Q 1375 441 1709 441 
Q 2250 441 2565 725 
Q 2881 1009 2881 1497 
Q 2881 1984 2565 2268 
Q 2250 2553 1709 2553 
Q 1456 2553 1204 2497 
Q 953 2441 691 2322 
L 691 4666 
z
" id="DejaVuSans-35" transform="scale(0.015625)"/>
       </defs>
       <use xlink:href="#DejaVuSans-35"/>
      </g>
     </g>
    </g>
    <g id="xtick_3">
     <g id="line2d_3">
      <g>
       <use style="stroke:#000000;stroke-width:0.8;" x="186.760118" xlink:href="#mb326132c7f" y="273.312"/>
      </g>
     </g>
     <g id="text_3">
      <!-- 10 -->
      <g transform="translate(180.397618 287.910437)scale(0.1 -0.1)">
       <defs>
        <path d="M 794 531 
L 1825 531 
L 1825 4091 
L 703 3866 
L 703 4441 
L 1819 4666 
L 2450 4666 
L 2450 531 
L 3481 531 
L 3481 0 
L 794 0 
L 794 531 
z
" id="DejaVuSans-31" transform="scale(0.015625)"/>
       </defs>
       <use xlink:href="#DejaVuSans-31"/>
       <use x="63.623047" xlink:href="#DejaVuSans-30"/>
      </g>
     </g>
    </g>
    <g id="xtick_4">
     <g id="line2d_4">
      <g>
       <use style="stroke:#000000;stroke-width:0.8;" x="237.183145" xlink:href="#mb326132c7f" y="273.312"/>
      </g>
     </g>
     <g id="text_4">
      <!-- 15 -->
      <g transform="translate(230.820645 287.910437)scale(0.1 -0.1)">
       <use xlink:href="#DejaVuSans-31"/>
       <use x="63.623047" xlink:href="#DejaVuSans-35"/>
      </g>
     </g>
    </g>
    <g id="xtick_5">
     <g id="line2d_5">
      <g>
       <use style="stroke:#000000;stroke-width:0.8;" x="287.606172" xlink:href="#mb326132c7f" y="273.312"/>
      </g>
     </g>
     <g id="text_5">
      <!-- 20 -->
      <g transform="translate(281.243672 287.910437)scale(0.1 -0.1)">
       <defs>
        <path d="M 1228 531 
L 3431 531 
L 3431 0 
L 469 0 
L 469 531 
Q 828 903 1448 1529 
Q 2069 2156 2228 2338 
Q 2531 2678 2651 2914 
Q 2772 3150 2772 3378 
Q 2772 3750 2511 3984 
Q 2250 4219 1831 4219 
Q 1534 4219 1204 4116 
Q 875 4013 500 3803 
L 500 4441 
Q 881 4594 1212 4672 
Q 1544 4750 1819 4750 
Q 2544 4750 2975 4387 
Q 3406 4025 3406 3419 
Q 3406 3131 3298 2873 
Q 3191 2616 2906 2266 
Q 2828 2175 2409 1742 
Q 1991 1309 1228 531 
z
" id="DejaVuSans-32" transform="scale(0.015625)"/>
       </defs>
       <use xlink:href="#DejaVuSans-32"/>
       <use x="63.623047" xlink:href="#DejaVuSans-30"/>
      </g>
     </g>
    </g>
    <g id="xtick_6">
     <g id="line2d_6">
      <g>
       <use style="stroke:#000000;stroke-width:0.8;" x="338.029198" xlink:href="#mb326132c7f" y="273.312"/>
      </g>
     </g>
     <g id="text_6">
      <!-- 25 -->
      <g transform="translate(331.666698 287.910437)scale(0.1 -0.1)">
       <use xlink:href="#DejaVuSans-32"/>
       <use x="63.623047" xlink:href="#DejaVuSans-35"/>
      </g>
     </g>
    </g>
    <g id="xtick_7">
     <g id="line2d_7">
      <g>
       <use style="stroke:#000000;stroke-width:0.8;" x="388.452225" xlink:href="#mb326132c7f" y="273.312"/>
      </g>
     </g>
     <g id="text_7">
      <!-- 30 -->
      <g transform="translate(382.089725 287.910437)scale(0.1 -0.1)">
       <defs>
        <path d="M 2597 2516 
Q 3050 2419 3304 2112 
Q 3559 1806 3559 1356 
Q 3559 666 3084 287 
Q 2609 -91 1734 -91 
Q 1441 -91 1130 -33 
Q 819 25 488 141 
L 488 750 
Q 750 597 1062 519 
Q 1375 441 1716 441 
Q 2309 441 2620 675 
Q 2931 909 2931 1356 
Q 2931 1769 2642 2001 
Q 2353 2234 1838 2234 
L 1294 2234 
L 1294 2753 
L 1863 2753 
Q 2328 2753 2575 2939 
Q 2822 3125 2822 3475 
Q 2822 3834 2567 4026 
Q 2313 4219 1838 4219 
Q 1578 4219 1281 4162 
Q 984 4106 628 3988 
L 628 4550 
Q 988 4650 1302 4700 
Q 1616 4750 1894 4750 
Q 2613 4750 3031 4423 
Q 3450 4097 3450 3541 
Q 3450 3153 3228 2886 
Q 3006 2619 2597 2516 
z
" id="DejaVuSans-33" transform="scale(0.015625)"/>
       </defs>
       <use xlink:href="#DejaVuSans-33"/>
       <use x="63.623047" xlink:href="#DejaVuSans-30"/>
      </g>
     </g>
    </g>
    <g id="text_8">
     <!-- f(t) -->
     <g transform="translate(221.081875 301.588562)scale(0.1 -0.1)">
      <defs>
       <path d="M 2375 4863 
L 2375 4384 
L 1825 4384 
Q 1516 4384 1395 4259 
Q 1275 4134 1275 3809 
L 1275 3500 
L 2222 3500 
L 2222 3053 
L 1275 3053 
L 1275 0 
L 697 0 
L 697 3053 
L 147 3053 
L 147 3500 
L 697 3500 
L 697 3744 
Q 697 4328 969 4595 
Q 1241 4863 1831 4863 
L 2375 4863 
z
" id="DejaVuSans-66" transform="scale(0.015625)"/>
       <path d="M 1984 4856 
Q 1566 4138 1362 3434 
Q 1159 2731 1159 2009 
Q 1159 1288 1364 580 
Q 1569 -128 1984 -844 
L 1484 -844 
Q 1016 -109 783 600 
Q 550 1309 550 2009 
Q 550 2706 781 3412 
Q 1013 4119 1484 4856 
L 1984 4856 
z
" id="DejaVuSans-28" transform="scale(0.015625)"/>
       <path d="M 1172 4494 
L 1172 3500 
L 2356 3500 
L 2356 3053 
L 1172 3053 
L 1172 1153 
Q 1172 725 1289 603 
Q 1406 481 1766 481 
L 2356 481 
L 2356 0 
L 1766 0 
Q 1100 0 847 248 
Q 594 497 594 1153 
L 594 3053 
L 172 3053 
L 172 3500 
L 594 3500 
L 594 4494 
L 1172 4494 
z
" id="DejaVuSans-74" transform="scale(0.015625)"/>
       <path d="M 513 4856 
L 1013 4856 
Q 1481 4119 1714 3412 
Q 1947 2706 1947 2009 
Q 1947 1309 1714 600 
Q 1481 -109 1013 -844 
L 513 -844 
Q 928 -128 1133 580 
Q 1338 1288 1338 2009 
Q 1338 2731 1133 3434 
Q 928 4138 513 4856 
z
" id="DejaVuSans-29" transform="scale(0.015625)"/>
      </defs>
      <use xlink:href="#DejaVuSans-66"/>
      <use x="35.205078" xlink:href="#DejaVuSans-28"/>
      <use x="74.21875" xlink:href="#DejaVuSans-74"/>
      <use x="113.427734" xlink:href="#DejaVuSans-29"/>
     </g>
    </g>
   </g>
   <g id="matplotlib.axis_2">
    <g id="ytick_1">
     <g id="line2d_8">
      <defs>
       <path d="M 0 0 
L -3.5 0 
" id="m78853f9f1d" style="stroke:#000000;stroke-width:0.8;"/>
      </defs>
      <g>
       <use style="stroke:#000000;stroke-width:0.8;" x="50.14375" xlink:href="#m78853f9f1d" y="273.312"/>
      </g>
     </g>
     <g id="text_9">
      <!-- 0.00 -->
      <g transform="translate(20.878125 277.111219)scale(0.1 -0.1)">
       <defs>
        <path d="M 684 794 
L 1344 794 
L 1344 0 
L 684 0 
L 684 794 
z
" id="DejaVuSans-2e" transform="scale(0.015625)"/>
       </defs>
       <use xlink:href="#DejaVuSans-30"/>
       <use x="63.623047" xlink:href="#DejaVuSans-2e"/>
       <use x="95.410156" xlink:href="#DejaVuSans-30"/>
       <use x="159.033203" xlink:href="#DejaVuSans-30"/>
      </g>
     </g>
    </g>
    <g id="ytick_2">
     <g id="line2d_9">
      <g>
       <use style="stroke:#000000;stroke-width:0.8;" x="50.14375" xlink:href="#m78853f9f1d" y="239.500806"/>
      </g>
     </g>
     <g id="text_10">
      <!-- 0.25 -->
      <g transform="translate(20.878125 243.300025)scale(0.1 -0.1)">
       <use xlink:href="#DejaVuSans-30"/>
       <use x="63.623047" xlink:href="#DejaVuSans-2e"/>
       <use x="95.410156" xlink:href="#DejaVuSans-32"/>
       <use x="159.033203" xlink:href="#DejaVuSans-35"/>
      </g>
     </g>
    </g>
    <g id="ytick_3">
     <g id="line2d_10">
      <g>
       <use style="stroke:#000000;stroke-width:0.8;" x="50.14375" xlink:href="#m78853f9f1d" y="205.689613"/>
      </g>
     </g>
     <g id="text_11">
      <!-- 0.50 -->
      <g transform="translate(20.878125 209.488831)scale(0.1 -0.1)">
       <use xlink:href="#DejaVuSans-30"/>
       <use x="63.623047" xlink:href="#DejaVuSans-2e"/>
       <use x="95.410156" xlink:href="#DejaVuSans-35"/>
       <use x="159.033203" xlink:href="#DejaVuSans-30"/>
      </g>
     </g>
    </g>
    <g id="ytick_4">
     <g id="line2d_11">
      <g>
       <use style="stroke:#000000;stroke-width:0.8;" x="50.14375" xlink:href="#m78853f9f1d" y="171.878419"/>
      </g>
     </g>
     <g id="text_12">
      <!-- 0.75 -->
      <g transform="translate(20.878125 175.677638)scale(0.1 -0.1)">
       <defs>
        <path d="M 525 4666 
L 3525 4666 
L 3525 4397 
L 1831 0 
L 1172 0 
L 2766 4134 
L 525 4134 
L 525 4666 
z
" id="DejaVuSans-37" transform="scale(0.015625)"/>
       </defs>
       <use xlink:href="#DejaVuSans-30"/>
       <use x="63.623047" xlink:href="#DejaVuSans-2e"/>
       <use x="95.410156" xlink:href="#DejaVuSans-37"/>
       <use x="159.033203" xlink:href="#DejaVuSans-35"/>
      </g>
     </g>
    </g>
    <g id="ytick_5">
     <g id="line2d_12">
      <g>
       <use style="stroke:#000000;stroke-width:0.8;" x="50.14375" xlink:href="#m78853f9f1d" y="138.067225"/>
      </g>
     </g>
     <g id="text_13">
      <!-- 1.00 -->
      <g transform="translate(20.878125 141.866444)scale(0.1 -0.1)">
       <use xlink:href="#DejaVuSans-31"/>
       <use x="63.623047" xlink:href="#DejaVuSans-2e"/>
       <use x="95.410156" xlink:href="#DejaVuSans-30"/>
       <use x="159.033203" xlink:href="#DejaVuSans-30"/>
      </g>
     </g>
    </g>
    <g id="ytick_6">
     <g id="line2d_13">
      <g>
       <use style="stroke:#000000;stroke-width:0.8;" x="50.14375" xlink:href="#m78853f9f1d" y="104.256032"/>
      </g>
     </g>
     <g id="text_14">
      <!-- 1.25 -->
      <g transform="translate(20.878125 108.055251)scale(0.1 -0.1)">
       <use xlink:href="#DejaVuSans-31"/>
       <use x="63.623047" xlink:href="#DejaVuSans-2e"/>
       <use x="95.410156" xlink:href="#DejaVuSans-32"/>
       <use x="159.033203" xlink:href="#DejaVuSans-35"/>
      </g>
     </g>
    </g>
    <g id="ytick_7">
     <g id="line2d_14">
      <g>
       <use style="stroke:#000000;stroke-width:0.8;" x="50.14375" xlink:href="#m78853f9f1d" y="70.444838"/>
      </g>
     </g>
     <g id="text_15">
      <!-- 1.50 -->
      <g transform="translate(20.878125 74.244057)scale(0.1 -0.1)">
       <use xlink:href="#DejaVuSans-31"/>
       <use x="63.623047" xlink:href="#DejaVuSans-2e"/>
       <use x="95.410156" xlink:href="#DejaVuSans-35"/>
       <use x="159.033203" xlink:href="#DejaVuSans-30"/>
      </g>
     </g>
    </g>
    <g id="ytick_8">
     <g id="line2d_15">
      <g>
       <use style="stroke:#000000;stroke-width:0.8;" x="50.14375" xlink:href="#m78853f9f1d" y="36.633645"/>
      </g>
     </g>
     <g id="text_16">
      <!-- 1.75 -->
      <g transform="translate(20.878125 40.432863)scale(0.1 -0.1)">
       <use xlink:href="#DejaVuSans-31"/>
       <use x="63.623047" xlink:href="#DejaVuSans-2e"/>
       <use x="95.410156" xlink:href="#DejaVuSans-37"/>
       <use x="159.033203" xlink:href="#DejaVuSans-35"/>
      </g>
     </g>
    </g>
    <g id="text_17">
     <!-- Density -->
     <g transform="translate(14.798438 159.264594)rotate(-90)scale(0.1 -0.1)">
      <defs>
       <path d="M 1259 4147 
L 1259 519 
L 2022 519 
Q 2988 519 3436 956 
Q 3884 1394 3884 2338 
Q 3884 3275 3436 3711 
Q 2988 4147 2022 4147 
L 1259 4147 
z
M 628 4666 
L 1925 4666 
Q 3281 4666 3915 4102 
Q 4550 3538 4550 2338 
Q 4550 1131 3912 565 
Q 3275 0 1925 0 
L 628 0 
L 628 4666 
z
" id="DejaVuSans-44" transform="scale(0.015625)"/>
       <path d="M 3597 1894 
L 3597 1613 
L 953 1613 
Q 991 1019 1311 708 
Q 1631 397 2203 397 
Q 2534 397 2845 478 
Q 3156 559 3463 722 
L 3463 178 
Q 3153 47 2828 -22 
Q 2503 -91 2169 -91 
Q 1331 -91 842 396 
Q 353 884 353 1716 
Q 353 2575 817 3079 
Q 1281 3584 2069 3584 
Q 2775 3584 3186 3129 
Q 3597 2675 3597 1894 
z
M 3022 2063 
Q 3016 2534 2758 2815 
Q 2500 3097 2075 3097 
Q 1594 3097 1305 2825 
Q 1016 2553 972 2059 
L 3022 2063 
z
" id="DejaVuSans-65" transform="scale(0.015625)"/>
       <path d="M 3513 2113 
L 3513 0 
L 2938 0 
L 2938 2094 
Q 2938 2591 2744 2837 
Q 2550 3084 2163 3084 
Q 1697 3084 1428 2787 
Q 1159 2491 1159 1978 
L 1159 0 
L 581 0 
L 581 3500 
L 1159 3500 
L 1159 2956 
Q 1366 3272 1645 3428 
Q 1925 3584 2291 3584 
Q 2894 3584 3203 3211 
Q 3513 2838 3513 2113 
z
" id="DejaVuSans-6e" transform="scale(0.015625)"/>
       <path d="M 2834 3397 
L 2834 2853 
Q 2591 2978 2328 3040 
Q 2066 3103 1784 3103 
Q 1356 3103 1142 2972 
Q 928 2841 928 2578 
Q 928 2378 1081 2264 
Q 1234 2150 1697 2047 
L 1894 2003 
Q 2506 1872 2764 1633 
Q 3022 1394 3022 966 
Q 3022 478 2636 193 
Q 2250 -91 1575 -91 
Q 1294 -91 989 -36 
Q 684 19 347 128 
L 347 722 
Q 666 556 975 473 
Q 1284 391 1588 391 
Q 1994 391 2212 530 
Q 2431 669 2431 922 
Q 2431 1156 2273 1281 
Q 2116 1406 1581 1522 
L 1381 1569 
Q 847 1681 609 1914 
Q 372 2147 372 2553 
Q 372 3047 722 3315 
Q 1072 3584 1716 3584 
Q 2034 3584 2315 3537 
Q 2597 3491 2834 3397 
z
" id="DejaVuSans-73" transform="scale(0.015625)"/>
       <path d="M 603 3500 
L 1178 3500 
L 1178 0 
L 603 0 
L 603 3500 
z
M 603 4863 
L 1178 4863 
L 1178 4134 
L 603 4134 
L 603 4863 
z
" id="DejaVuSans-69" transform="scale(0.015625)"/>
       <path d="M 2059 -325 
Q 1816 -950 1584 -1140 
Q 1353 -1331 966 -1331 
L 506 -1331 
L 506 -850 
L 844 -850 
Q 1081 -850 1212 -737 
Q 1344 -625 1503 -206 
L 1606 56 
L 191 3500 
L 800 3500 
L 1894 763 
L 2988 3500 
L 3597 3500 
L 2059 -325 
z
" id="DejaVuSans-79" transform="scale(0.015625)"/>
      </defs>
      <use xlink:href="#DejaVuSans-44"/>
      <use x="77.001953" xlink:href="#DejaVuSans-65"/>
      <use x="138.525391" xlink:href="#DejaVuSans-6e"/>
      <use x="201.904297" xlink:href="#DejaVuSans-73"/>
      <use x="254.003906" xlink:href="#DejaVuSans-69"/>
      <use x="281.787109" xlink:href="#DejaVuSans-74"/>
      <use x="320.996094" xlink:href="#DejaVuSans-79"/>
     </g>
    </g>
   </g>
   <g id="line2d_16">
    <path clip-path="url(#p67609613c9)" d="M 71.592313 273.299819 
L 75.945963 273.169166 
L 78.558154 272.844593 
L 80.299614 272.392963 
L 82.041074 271.653534 
L 83.782534 270.548794 
L 85.523994 269.030952 
L 87.265454 267.093732 
L 89.006914 264.768829 
L 90.748375 262.111158 
L 93.360565 257.642196 
L 102.067866 241.963634 
L 103.809326 239.568343 
L 104.680056 238.60157 
L 105.550786 237.824002 
L 106.421516 237.259573 
L 107.292246 236.927196 
L 108.162976 236.838351 
L 109.033706 236.995263 
L 109.904436 237.390039 
L 110.775166 238.004946 
L 111.645896 238.813784 
L 113.387356 240.880052 
L 115.999547 244.564594 
L 118.611737 248.24104 
L 121.223927 251.466583 
L 122.965387 253.310943 
L 125.577578 255.680925 
L 128.189768 257.682162 
L 130.801958 259.371483 
L 133.414148 260.766083 
L 136.897069 262.30836 
L 142.992179 264.976292 
L 147.345829 266.877016 
L 149.95802 267.798066 
L 152.57021 268.465693 
L 155.1824 268.87356 
L 163.018971 269.756486 
L 167.372621 270.710636 
L 170.855541 271.395447 
L 174.338462 271.796407 
L 180.433572 272.12773 
L 194.365253 272.738911 
L 207.426205 273.039604 
L 220.487156 273.217379 
L 230.065186 273.207027 
L 244.867598 273.310832 
L 244.867598 273.310832 
" style="fill:none;stroke:#1f77b4;stroke-linecap:square;stroke-width:1.5;"/>
   </g>
   <g id="line2d_17">
    <path clip-path="url(#p67609613c9)" d="M 66.376477 273.135581 
L 68.007907 272.927373 
L 69.639337 272.521495 
L 71.270767 271.779771 
L 72.902197 270.509736 
L 74.533627 268.473578 
L 76.165057 265.42003 
L 77.796486 261.142537 
L 79.427916 255.556912 
L 81.059346 248.779064 
L 85.953636 226.083649 
L 87.585066 220.179989 
L 89.216496 216.319438 
L 90.847925 214.915469 
L 92.479355 216.038667 
L 94.110785 219.421137 
L 95.742215 224.534494 
L 99.005075 237.279747 
L 100.636505 243.657964 
L 102.267935 249.426238 
L 103.899364 254.339224 
L 105.530794 258.309568 
L 107.162224 261.370612 
L 108.793654 263.633192 
L 110.425084 265.246285 
L 112.056514 266.366454 
L 113.687944 267.137276 
L 115.319374 267.677871 
L 118.582233 268.402543 
L 126.739383 269.72026 
L 133.265102 270.573042 
L 143.053681 271.60399 
L 147.947971 271.955987 
L 152.842261 272.095877 
L 172.419419 272.337541 
L 187.102288 272.678795 
L 195.259438 272.604546 
L 218.099456 272.972844 
L 270.305212 273.311398 
L 286.619511 273.208873 
L 296.40809 273.17123 
L 317.616678 273.311773 
L 391.031023 273.311072 
L 391.031023 273.311072 
" style="fill:none;stroke:#ff7f0e;stroke-linecap:square;stroke-width:1.5;"/>
   </g>
   <g id="line2d_18">
    <path clip-path="url(#p67609613c9)" d="M 74.150771 272.663792 
L 74.905852 272.170997 
L 75.660934 271.375418 
L 76.416015 270.142392 
L 77.171096 268.308806 
L 77.926177 265.694301 
L 78.681259 262.122512 
L 79.43634 257.452194 
L 80.191421 251.615084 
L 81.701584 236.75163 
L 83.966828 211.354051 
L 84.721909 204.111161 
L 85.47699 198.379666 
L 86.232071 194.544094 
L 86.987153 192.801391 
L 87.742234 193.140336 
L 88.497315 195.357457 
L 89.252397 199.103899 
L 90.762559 209.455755 
L 93.027803 226.357783 
L 94.537965 235.891464 
L 96.048128 243.449912 
L 97.558291 249.175425 
L 99.068453 253.371019 
L 100.578616 256.400134 
L 102.088778 258.638302 
L 103.598941 260.38313 
L 105.109103 261.782975 
L 106.619266 262.856416 
L 108.129428 263.586442 
L 109.639591 264.010795 
L 115.680241 265.176203 
L 119.455648 266.391923 
L 120.96581 266.684087 
L 123.231054 266.873184 
L 125.496298 267.066383 
L 127.00646 267.381781 
L 128.516623 267.898838 
L 130.781867 268.947985 
L 133.047111 270.003251 
L 134.557273 270.530988 
L 136.067436 270.862452 
L 138.33268 271.072825 
L 143.618248 271.418921 
L 148.148736 271.76392 
L 152.679224 272.102475 
L 160.230037 272.946384 
L 167.025768 273.202465 
L 172.311337 273.194963 
L 179.86215 273.198039 
L 224.411945 273.310458 
L 224.411945 273.310458 
" style="fill:none;stroke:#2ca02c;stroke-linecap:square;stroke-width:1.5;"/>
   </g>
   <g id="patch_135">
    <path d="M 50.14375 273.312 
L 50.14375 7.2 
" style="fill:none;stroke:#000000;stroke-linecap:square;stroke-linejoin:miter;stroke-width:0.8;"/>
   </g>
   <g id="patch_136">
    <path d="M 407.26375 273.312 
L 407.26375 7.2 
" style="fill:none;stroke:#000000;stroke-linecap:square;stroke-linejoin:miter;stroke-width:0.8;"/>
   </g>
   <g id="patch_137">
    <path d="M 50.14375 273.312 
L 407.26375 273.312 
" style="fill:none;stroke:#000000;stroke-linecap:square;stroke-linejoin:miter;stroke-width:0.8;"/>
   </g>
   <g id="patch_138">
    <path d="M 50.14375 7.2 
L 407.26375 7.2 
" style="fill:none;stroke:#000000;stroke-linecap:square;stroke-linejoin:miter;stroke-width:0.8;"/>
   </g>
  </g>
 </g>
 <defs>
  <clipPath id="p67609613c9">
   <rect height="266.112" width="357.12" x="50.14375" y="7.2"/>
  </clipPath>
 </defs>
</svg>
