<?xml version="1.0" encoding="utf-8" standalone="no"?>
<!DOCTYPE svg PUBLIC "-//W3C//DTD SVG 1.1//EN"
  "http://www.w3.org/Graphics/SVG/1.1/DTD/svg11.dtd">
<svg height="262.19625pt" version="1.1" viewBox="0 0 389.15702 262.19625" width="389.15702pt" xmlns="http://www.w3.org/2000/svg" xmlns:xlink="http://www.w3.org/1999/xlink">
 <metadata>
  <rdf:RDF xmlns:cc="http://creativecommons.org/ns#" xmlns:dc="http://purl.org/dc/elements/1.1/" xmlns:rdf="http://www.w3.org/1999/02/22-rdf-syntax-ns#">
   <cc:Work>
    <dc:type rdf:resource="http://purl.org/dc/dcmitype/StillImage"/>
    <dc:date>2021-06-09T13:54:34.407479</dc:date>
    <dc:format>image/svg+xml</dc:format>
    <dc:creator>
     <cc:Agent>
      <dc:title>Matplotlib v3.4.2, https://matplotlib.org/</dc:title>
     </cc:Agent>
    </dc:creator>
   </cc:Work>
  </rdf:RDF>
 </metadata>
 <defs>
  <style type="text/css">*{stroke-linecap:butt;stroke-linejoin:round;}</style>
 </defs>
 <g id="figure_1">
  <g id="patch_1">
   <path d="M 0 262.19625 
L 389.15702 262.19625 
L 389.15702 0 
L 0 0 
z
" style="fill:none;"/>
  </g>
  <g id="axes_1">
   <g id="patch_2">
    <path d="M 43.78125 224.64 
L 378.58125 224.64 
L 378.58125 7.2 
L 43.78125 7.2 
z
" style="fill:#ffffff;"/>
   </g>
   <g id="patch_3">
    <path clip-path="url(#p4eb2fb388c)" d="M 77.717621 224.64 
L 82.665018 224.64 
L 82.665018 218.651434 
L 77.717621 218.651434 
z
" style="fill:#1f77b4;opacity:0.4;"/>
   </g>
   <g id="patch_4">
    <path clip-path="url(#p4eb2fb388c)" d="M 82.665018 224.64 
L 87.612415 224.64 
L 87.612415 214.160009 
L 82.665018 214.160009 
z
" style="fill:#1f77b4;opacity:0.4;"/>
   </g>
   <g id="patch_5">
    <path clip-path="url(#p4eb2fb388c)" d="M 87.612415 224.64 
L 92.559812 224.64 
L 92.559812 209.24083 
L 87.612415 209.24083 
z
" style="fill:#1f77b4;opacity:0.4;"/>
   </g>
   <g id="patch_6">
    <path clip-path="url(#p4eb2fb388c)" d="M 92.559812 224.64 
L 97.507208 224.64 
L 97.507208 211.593481 
L 92.559812 211.593481 
z
" style="fill:#1f77b4;opacity:0.4;"/>
   </g>
   <g id="patch_7">
    <path clip-path="url(#p4eb2fb388c)" d="M 97.507208 224.64 
L 102.454605 224.64 
L 102.454605 204.535528 
L 97.507208 204.535528 
z
" style="fill:#1f77b4;opacity:0.4;"/>
   </g>
   <g id="patch_8">
    <path clip-path="url(#p4eb2fb388c)" d="M 102.454605 224.64 
L 107.402002 224.64 
L 107.402002 198.760839 
L 102.454605 198.760839 
z
" style="fill:#1f77b4;opacity:0.4;"/>
   </g>
   <g id="patch_9">
    <path clip-path="url(#p4eb2fb388c)" d="M 107.402002 224.64 
L 112.349399 224.64 
L 112.349399 201.11349 
L 107.402002 201.11349 
z
" style="fill:#1f77b4;opacity:0.4;"/>
   </g>
   <g id="patch_10">
    <path clip-path="url(#p4eb2fb388c)" d="M 112.349399 224.64 
L 117.296796 224.64 
L 117.296796 201.327367 
L 112.349399 201.327367 
z
" style="fill:#1f77b4;opacity:0.4;"/>
   </g>
   <g id="patch_11">
    <path clip-path="url(#p4eb2fb388c)" d="M 117.296796 224.64 
L 122.244192 224.64 
L 122.244192 210.737971 
L 117.296796 210.737971 
z
" style="fill:#1f77b4;opacity:0.4;"/>
   </g>
   <g id="patch_12">
    <path clip-path="url(#p4eb2fb388c)" d="M 122.244192 224.64 
L 127.191589 224.64 
L 127.191589 208.171443 
L 122.244192 208.171443 
z
" style="fill:#1f77b4;opacity:0.4;"/>
   </g>
   <g id="patch_13">
    <path clip-path="url(#p4eb2fb388c)" d="M 127.191589 224.64 
L 132.138986 224.64 
L 132.138986 211.379603 
L 127.191589 211.379603 
z
" style="fill:#1f77b4;opacity:0.4;"/>
   </g>
   <g id="patch_14">
    <path clip-path="url(#p4eb2fb388c)" d="M 132.138986 224.64 
L 137.086383 224.64 
L 137.086383 218.223679 
L 132.138986 218.223679 
z
" style="fill:#1f77b4;opacity:0.4;"/>
   </g>
   <g id="patch_15">
    <path clip-path="url(#p4eb2fb388c)" d="M 137.086383 224.64 
L 142.03378 224.64 
L 142.03378 219.293066 
L 137.086383 219.293066 
z
" style="fill:#1f77b4;opacity:0.4;"/>
   </g>
   <g id="patch_16">
    <path clip-path="url(#p4eb2fb388c)" d="M 142.03378 224.64 
L 146.981176 224.64 
L 146.981176 218.651434 
L 142.03378 218.651434 
z
" style="fill:#1f77b4;opacity:0.4;"/>
   </g>
   <g id="patch_17">
    <path clip-path="url(#p4eb2fb388c)" d="M 146.981176 224.64 
L 151.928573 224.64 
L 151.928573 222.715104 
L 146.981176 222.715104 
z
" style="fill:#1f77b4;opacity:0.4;"/>
   </g>
   <g id="patch_18">
    <path clip-path="url(#p4eb2fb388c)" d="M 151.928573 224.64 
L 156.87597 224.64 
L 156.87597 221.859594 
L 151.928573 221.859594 
z
" style="fill:#1f77b4;opacity:0.4;"/>
   </g>
   <g id="patch_19">
    <path clip-path="url(#p4eb2fb388c)" d="M 156.87597 224.64 
L 161.823367 224.64 
L 161.823367 221.43184 
L 156.87597 221.43184 
z
" style="fill:#1f77b4;opacity:0.4;"/>
   </g>
   <g id="patch_20">
    <path clip-path="url(#p4eb2fb388c)" d="M 161.823367 224.64 
L 166.770764 224.64 
L 166.770764 223.356736 
L 161.823367 223.356736 
z
" style="fill:#1f77b4;opacity:0.4;"/>
   </g>
   <g id="patch_21">
    <path clip-path="url(#p4eb2fb388c)" d="M 166.770764 224.64 
L 171.71816 224.64 
L 171.71816 223.142858 
L 166.770764 223.142858 
z
" style="fill:#1f77b4;opacity:0.4;"/>
   </g>
   <g id="patch_22">
    <path clip-path="url(#p4eb2fb388c)" d="M 171.71816 224.64 
L 176.665557 224.64 
L 176.665557 224.212245 
L 171.71816 224.212245 
z
" style="fill:#1f77b4;opacity:0.4;"/>
   </g>
   <g id="patch_23">
    <path clip-path="url(#p4eb2fb388c)" d="M 176.665557 224.64 
L 181.612954 224.64 
L 181.612954 223.570613 
L 176.665557 223.570613 
z
" style="fill:#1f77b4;opacity:0.4;"/>
   </g>
   <g id="patch_24">
    <path clip-path="url(#p4eb2fb388c)" d="M 181.612954 224.64 
L 186.560351 224.64 
L 186.560351 224.64 
L 181.612954 224.64 
z
" style="fill:#1f77b4;opacity:0.4;"/>
   </g>
   <g id="patch_25">
    <path clip-path="url(#p4eb2fb388c)" d="M 186.560351 224.64 
L 191.507748 224.64 
L 191.507748 223.784491 
L 186.560351 223.784491 
z
" style="fill:#1f77b4;opacity:0.4;"/>
   </g>
   <g id="patch_26">
    <path clip-path="url(#p4eb2fb388c)" d="M 191.507748 224.64 
L 196.455144 224.64 
L 196.455144 224.212245 
L 191.507748 224.212245 
z
" style="fill:#1f77b4;opacity:0.4;"/>
   </g>
   <g id="patch_27">
    <path clip-path="url(#p4eb2fb388c)" d="M 196.455144 224.64 
L 201.402541 224.64 
L 201.402541 224.212245 
L 196.455144 224.212245 
z
" style="fill:#1f77b4;opacity:0.4;"/>
   </g>
   <g id="patch_28">
    <path clip-path="url(#p4eb2fb388c)" d="M 201.402541 224.64 
L 206.349938 224.64 
L 206.349938 224.426123 
L 201.402541 224.426123 
z
" style="fill:#1f77b4;opacity:0.4;"/>
   </g>
   <g id="patch_29">
    <path clip-path="url(#p4eb2fb388c)" d="M 206.349938 224.64 
L 211.297335 224.64 
L 211.297335 224.64 
L 206.349938 224.64 
z
" style="fill:#1f77b4;opacity:0.4;"/>
   </g>
   <g id="patch_30">
    <path clip-path="url(#p4eb2fb388c)" d="M 211.297335 224.64 
L 216.244732 224.64 
L 216.244732 224.426123 
L 211.297335 224.426123 
z
" style="fill:#1f77b4;opacity:0.4;"/>
   </g>
   <g id="patch_31">
    <path clip-path="url(#p4eb2fb388c)" d="M 216.244732 224.64 
L 221.192128 224.64 
L 221.192128 224.64 
L 216.244732 224.64 
z
" style="fill:#1f77b4;opacity:0.4;"/>
   </g>
   <g id="patch_32">
    <path clip-path="url(#p4eb2fb388c)" d="M 221.192128 224.64 
L 226.139525 224.64 
L 226.139525 224.64 
L 221.192128 224.64 
z
" style="fill:#1f77b4;opacity:0.4;"/>
   </g>
   <g id="patch_33">
    <path clip-path="url(#p4eb2fb388c)" d="M 226.139525 224.64 
L 231.086922 224.64 
L 231.086922 224.212245 
L 226.139525 224.212245 
z
" style="fill:#1f77b4;opacity:0.4;"/>
   </g>
   <g id="patch_34">
    <path clip-path="url(#p4eb2fb388c)" d="M 77.349212 224.64 
L 82.702493 224.64 
L 82.702493 160.20244 
L 77.349212 160.20244 
z
" style="fill:#ff7f0e;opacity:0.4;"/>
   </g>
   <g id="patch_35">
    <path clip-path="url(#p4eb2fb388c)" d="M 82.702493 224.64 
L 88.055775 224.64 
L 88.055775 182.933481 
L 82.702493 182.933481 
z
" style="fill:#ff7f0e;opacity:0.4;"/>
   </g>
   <g id="patch_36">
    <path clip-path="url(#p4eb2fb388c)" d="M 88.055775 224.64 
L 93.409057 224.64 
L 93.409057 198.746379 
L 88.055775 198.746379 
z
" style="fill:#ff7f0e;opacity:0.4;"/>
   </g>
   <g id="patch_37">
    <path clip-path="url(#p4eb2fb388c)" d="M 93.409057 224.64 
L 98.762338 224.64 
L 98.762338 202.304281 
L 93.409057 202.304281 
z
" style="fill:#ff7f0e;opacity:0.4;"/>
   </g>
   <g id="patch_38">
    <path clip-path="url(#p4eb2fb388c)" d="M 98.762338 224.64 
L 104.11562 224.64 
L 104.11562 215.745245 
L 98.762338 215.745245 
z
" style="fill:#ff7f0e;opacity:0.4;"/>
   </g>
   <g id="patch_39">
    <path clip-path="url(#p4eb2fb388c)" d="M 104.11562 224.64 
L 109.468901 224.64 
L 109.468901 214.559277 
L 104.11562 214.559277 
z
" style="fill:#ff7f0e;opacity:0.4;"/>
   </g>
   <g id="patch_40">
    <path clip-path="url(#p4eb2fb388c)" d="M 109.468901 224.64 
L 114.822183 224.64 
L 114.822183 215.745245 
L 109.468901 215.745245 
z
" style="fill:#ff7f0e;opacity:0.4;"/>
   </g>
   <g id="patch_41">
    <path clip-path="url(#p4eb2fb388c)" d="M 114.822183 224.64 
L 120.175464 224.64 
L 120.175464 219.698469 
L 114.822183 219.698469 
z
" style="fill:#ff7f0e;opacity:0.4;"/>
   </g>
   <g id="patch_42">
    <path clip-path="url(#p4eb2fb388c)" d="M 120.175464 224.64 
L 125.528746 224.64 
L 125.528746 224.047016 
L 120.175464 224.047016 
z
" style="fill:#ff7f0e;opacity:0.4;"/>
   </g>
   <g id="patch_43">
    <path clip-path="url(#p4eb2fb388c)" d="M 125.528746 224.64 
L 130.882027 224.64 
L 130.882027 224.244678 
L 125.528746 224.244678 
z
" style="fill:#ff7f0e;opacity:0.4;"/>
   </g>
   <g id="patch_44">
    <path clip-path="url(#p4eb2fb388c)" d="M 130.882027 224.64 
L 136.235309 224.64 
L 136.235309 223.651694 
L 130.882027 223.651694 
z
" style="fill:#ff7f0e;opacity:0.4;"/>
   </g>
   <g id="patch_45">
    <path clip-path="url(#p4eb2fb388c)" d="M 136.235309 224.64 
L 141.58859 224.64 
L 141.58859 223.849355 
L 136.235309 223.849355 
z
" style="fill:#ff7f0e;opacity:0.4;"/>
   </g>
   <g id="patch_46">
    <path clip-path="url(#p4eb2fb388c)" d="M 141.58859 224.64 
L 146.941872 224.64 
L 146.941872 224.244678 
L 141.58859 224.244678 
z
" style="fill:#ff7f0e;opacity:0.4;"/>
   </g>
   <g id="patch_47">
    <path clip-path="url(#p4eb2fb388c)" d="M 146.941872 224.64 
L 152.295153 224.64 
L 152.295153 223.651694 
L 146.941872 223.651694 
z
" style="fill:#ff7f0e;opacity:0.4;"/>
   </g>
   <g id="patch_48">
    <path clip-path="url(#p4eb2fb388c)" d="M 152.295153 224.64 
L 157.648435 224.64 
L 157.648435 224.244678 
L 152.295153 224.244678 
z
" style="fill:#ff7f0e;opacity:0.4;"/>
   </g>
   <g id="patch_49">
    <path clip-path="url(#p4eb2fb388c)" d="M 157.648435 224.64 
L 163.001716 224.64 
L 163.001716 224.047016 
L 157.648435 224.047016 
z
" style="fill:#ff7f0e;opacity:0.4;"/>
   </g>
   <g id="patch_50">
    <path clip-path="url(#p4eb2fb388c)" d="M 163.001716 224.64 
L 168.354998 224.64 
L 168.354998 223.849355 
L 163.001716 223.849355 
z
" style="fill:#ff7f0e;opacity:0.4;"/>
   </g>
   <g id="patch_51">
    <path clip-path="url(#p4eb2fb388c)" d="M 168.354998 224.64 
L 173.708279 224.64 
L 173.708279 223.849355 
L 168.354998 223.849355 
z
" style="fill:#ff7f0e;opacity:0.4;"/>
   </g>
   <g id="patch_52">
    <path clip-path="url(#p4eb2fb388c)" d="M 173.708279 224.64 
L 179.061561 224.64 
L 179.061561 224.442339 
L 173.708279 224.442339 
z
" style="fill:#ff7f0e;opacity:0.4;"/>
   </g>
   <g id="patch_53">
    <path clip-path="url(#p4eb2fb388c)" d="M 179.061561 224.64 
L 184.414842 224.64 
L 184.414842 224.64 
L 179.061561 224.64 
z
" style="fill:#ff7f0e;opacity:0.4;"/>
   </g>
   <g id="patch_54">
    <path clip-path="url(#p4eb2fb388c)" d="M 184.414842 224.64 
L 189.768124 224.64 
L 189.768124 224.244678 
L 184.414842 224.244678 
z
" style="fill:#ff7f0e;opacity:0.4;"/>
   </g>
   <g id="patch_55">
    <path clip-path="url(#p4eb2fb388c)" d="M 189.768124 224.64 
L 195.121405 224.64 
L 195.121405 223.849355 
L 189.768124 223.849355 
z
" style="fill:#ff7f0e;opacity:0.4;"/>
   </g>
   <g id="patch_56">
    <path clip-path="url(#p4eb2fb388c)" d="M 195.121405 224.64 
L 200.474687 224.64 
L 200.474687 224.64 
L 195.121405 224.64 
z
" style="fill:#ff7f0e;opacity:0.4;"/>
   </g>
   <g id="patch_57">
    <path clip-path="url(#p4eb2fb388c)" d="M 200.474687 224.64 
L 205.827968 224.64 
L 205.827968 224.244678 
L 200.474687 224.244678 
z
" style="fill:#ff7f0e;opacity:0.4;"/>
   </g>
   <g id="patch_58">
    <path clip-path="url(#p4eb2fb388c)" d="M 205.827968 224.64 
L 211.18125 224.64 
L 211.18125 224.442339 
L 205.827968 224.442339 
z
" style="fill:#ff7f0e;opacity:0.4;"/>
   </g>
   <g id="patch_59">
    <path clip-path="url(#p4eb2fb388c)" d="M 211.18125 224.64 
L 216.534532 224.64 
L 216.534532 224.64 
L 211.18125 224.64 
z
" style="fill:#ff7f0e;opacity:0.4;"/>
   </g>
   <g id="patch_60">
    <path clip-path="url(#p4eb2fb388c)" d="M 216.534532 224.64 
L 221.887813 224.64 
L 221.887813 224.244678 
L 216.534532 224.244678 
z
" style="fill:#ff7f0e;opacity:0.4;"/>
   </g>
   <g id="patch_61">
    <path clip-path="url(#p4eb2fb388c)" d="M 221.887813 224.64 
L 227.241095 224.64 
L 227.241095 224.442339 
L 221.887813 224.442339 
z
" style="fill:#ff7f0e;opacity:0.4;"/>
   </g>
   <g id="patch_62">
    <path clip-path="url(#p4eb2fb388c)" d="M 227.241095 224.64 
L 232.594376 224.64 
L 232.594376 224.442339 
L 227.241095 224.442339 
z
" style="fill:#ff7f0e;opacity:0.4;"/>
   </g>
   <g id="patch_63">
    <path clip-path="url(#p4eb2fb388c)" d="M 232.594376 224.64 
L 237.947658 224.64 
L 237.947658 224.442339 
L 232.594376 224.442339 
z
" style="fill:#ff7f0e;opacity:0.4;"/>
   </g>
   <g id="patch_64">
    <path clip-path="url(#p4eb2fb388c)" d="M 237.947658 224.64 
L 243.300939 224.64 
L 243.300939 224.64 
L 237.947658 224.64 
z
" style="fill:#ff7f0e;opacity:0.4;"/>
   </g>
   <g id="patch_65">
    <path clip-path="url(#p4eb2fb388c)" d="M 243.300939 224.64 
L 248.654221 224.64 
L 248.654221 224.64 
L 243.300939 224.64 
z
" style="fill:#ff7f0e;opacity:0.4;"/>
   </g>
   <g id="patch_66">
    <path clip-path="url(#p4eb2fb388c)" d="M 248.654221 224.64 
L 254.007502 224.64 
L 254.007502 224.64 
L 248.654221 224.64 
z
" style="fill:#ff7f0e;opacity:0.4;"/>
   </g>
   <g id="patch_67">
    <path clip-path="url(#p4eb2fb388c)" d="M 254.007502 224.64 
L 259.360784 224.64 
L 259.360784 224.64 
L 254.007502 224.64 
z
" style="fill:#ff7f0e;opacity:0.4;"/>
   </g>
   <g id="patch_68">
    <path clip-path="url(#p4eb2fb388c)" d="M 259.360784 224.64 
L 264.714065 224.64 
L 264.714065 224.64 
L 259.360784 224.64 
z
" style="fill:#ff7f0e;opacity:0.4;"/>
   </g>
   <g id="patch_69">
    <path clip-path="url(#p4eb2fb388c)" d="M 264.714065 224.64 
L 270.067347 224.64 
L 270.067347 224.442339 
L 264.714065 224.442339 
z
" style="fill:#ff7f0e;opacity:0.4;"/>
   </g>
   <g id="patch_70">
    <path clip-path="url(#p4eb2fb388c)" d="M 270.067347 224.64 
L 275.420628 224.64 
L 275.420628 224.64 
L 270.067347 224.64 
z
" style="fill:#ff7f0e;opacity:0.4;"/>
   </g>
   <g id="patch_71">
    <path clip-path="url(#p4eb2fb388c)" d="M 275.420628 224.64 
L 280.77391 224.64 
L 280.77391 224.442339 
L 275.420628 224.442339 
z
" style="fill:#ff7f0e;opacity:0.4;"/>
   </g>
   <g id="patch_72">
    <path clip-path="url(#p4eb2fb388c)" d="M 280.77391 224.64 
L 286.127191 224.64 
L 286.127191 224.64 
L 280.77391 224.64 
z
" style="fill:#ff7f0e;opacity:0.4;"/>
   </g>
   <g id="patch_73">
    <path clip-path="url(#p4eb2fb388c)" d="M 286.127191 224.64 
L 291.480473 224.64 
L 291.480473 224.64 
L 286.127191 224.64 
z
" style="fill:#ff7f0e;opacity:0.4;"/>
   </g>
   <g id="patch_74">
    <path clip-path="url(#p4eb2fb388c)" d="M 291.480473 224.64 
L 296.833754 224.64 
L 296.833754 224.64 
L 291.480473 224.64 
z
" style="fill:#ff7f0e;opacity:0.4;"/>
   </g>
   <g id="patch_75">
    <path clip-path="url(#p4eb2fb388c)" d="M 296.833754 224.64 
L 302.187036 224.64 
L 302.187036 224.64 
L 296.833754 224.64 
z
" style="fill:#ff7f0e;opacity:0.4;"/>
   </g>
   <g id="patch_76">
    <path clip-path="url(#p4eb2fb388c)" d="M 302.187036 224.64 
L 307.540317 224.64 
L 307.540317 224.442339 
L 302.187036 224.442339 
z
" style="fill:#ff7f0e;opacity:0.4;"/>
   </g>
   <g id="patch_77">
    <path clip-path="url(#p4eb2fb388c)" d="M 307.540317 224.64 
L 312.893599 224.64 
L 312.893599 224.64 
L 307.540317 224.64 
z
" style="fill:#ff7f0e;opacity:0.4;"/>
   </g>
   <g id="patch_78">
    <path clip-path="url(#p4eb2fb388c)" d="M 312.893599 224.64 
L 318.24688 224.64 
L 318.24688 224.64 
L 312.893599 224.64 
z
" style="fill:#ff7f0e;opacity:0.4;"/>
   </g>
   <g id="patch_79">
    <path clip-path="url(#p4eb2fb388c)" d="M 318.24688 224.64 
L 323.600162 224.64 
L 323.600162 224.64 
L 318.24688 224.64 
z
" style="fill:#ff7f0e;opacity:0.4;"/>
   </g>
   <g id="patch_80">
    <path clip-path="url(#p4eb2fb388c)" d="M 323.600162 224.64 
L 328.953443 224.64 
L 328.953443 224.64 
L 323.600162 224.64 
z
" style="fill:#ff7f0e;opacity:0.4;"/>
   </g>
   <g id="patch_81">
    <path clip-path="url(#p4eb2fb388c)" d="M 328.953443 224.64 
L 334.306725 224.64 
L 334.306725 224.64 
L 328.953443 224.64 
z
" style="fill:#ff7f0e;opacity:0.4;"/>
   </g>
   <g id="patch_82">
    <path clip-path="url(#p4eb2fb388c)" d="M 334.306725 224.64 
L 339.660007 224.64 
L 339.660007 224.64 
L 334.306725 224.64 
z
" style="fill:#ff7f0e;opacity:0.4;"/>
   </g>
   <g id="patch_83">
    <path clip-path="url(#p4eb2fb388c)" d="M 339.660007 224.64 
L 345.013288 224.64 
L 345.013288 224.442339 
L 339.660007 224.442339 
z
" style="fill:#ff7f0e;opacity:0.4;"/>
   </g>
   <g id="patch_84">
    <path clip-path="url(#p4eb2fb388c)" d="M 77.349212 224.64 
L 79.74053 224.64 
L 79.74053 17.554286 
L 77.349212 17.554286 
z
" style="fill:#2ca02c;opacity:0.4;"/>
   </g>
   <g id="patch_85">
    <path clip-path="url(#p4eb2fb388c)" d="M 79.74053 224.64 
L 82.131847 224.64 
L 82.131847 194.550623 
L 79.74053 194.550623 
z
" style="fill:#2ca02c;opacity:0.4;"/>
   </g>
   <g id="patch_86">
    <path clip-path="url(#p4eb2fb388c)" d="M 82.131847 224.64 
L 84.523165 224.64 
L 84.523165 192.780659 
L 82.131847 192.780659 
z
" style="fill:#2ca02c;opacity:0.4;"/>
   </g>
   <g id="patch_87">
    <path clip-path="url(#p4eb2fb388c)" d="M 84.523165 224.64 
L 86.914483 224.64 
L 86.914483 189.240733 
L 84.523165 189.240733 
z
" style="fill:#2ca02c;opacity:0.4;"/>
   </g>
   <g id="patch_88">
    <path clip-path="url(#p4eb2fb388c)" d="M 86.914483 224.64 
L 89.305801 224.64 
L 89.305801 200.745495 
L 86.914483 200.745495 
z
" style="fill:#2ca02c;opacity:0.4;"/>
   </g>
   <g id="patch_89">
    <path clip-path="url(#p4eb2fb388c)" d="M 89.305801 224.64 
L 91.697118 224.64 
L 91.697118 198.975531 
L 89.305801 198.975531 
z
" style="fill:#2ca02c;opacity:0.4;"/>
   </g>
   <g id="patch_90">
    <path clip-path="url(#p4eb2fb388c)" d="M 91.697118 224.64 
L 94.088436 224.64 
L 94.088436 197.205568 
L 91.697118 197.205568 
z
" style="fill:#2ca02c;opacity:0.4;"/>
   </g>
   <g id="patch_91">
    <path clip-path="url(#p4eb2fb388c)" d="M 94.088436 224.64 
L 96.479754 224.64 
L 96.479754 209.152821 
L 94.088436 209.152821 
z
" style="fill:#2ca02c;opacity:0.4;"/>
   </g>
   <g id="patch_92">
    <path clip-path="url(#p4eb2fb388c)" d="M 96.479754 224.64 
L 98.871072 224.64 
L 98.871072 215.790183 
L 96.479754 215.790183 
z
" style="fill:#2ca02c;opacity:0.4;"/>
   </g>
   <g id="patch_93">
    <path clip-path="url(#p4eb2fb388c)" d="M 98.871072 224.64 
L 101.262389 224.64 
L 101.262389 222.870037 
L 98.871072 222.870037 
z
" style="fill:#2ca02c;opacity:0.4;"/>
   </g>
   <g id="patch_94">
    <path clip-path="url(#p4eb2fb388c)" d="M 101.262389 224.64 
L 103.653707 224.64 
L 103.653707 220.657582 
L 101.262389 220.657582 
z
" style="fill:#2ca02c;opacity:0.4;"/>
   </g>
   <g id="patch_95">
    <path clip-path="url(#p4eb2fb388c)" d="M 103.653707 224.64 
L 106.045025 224.64 
L 106.045025 220.657582 
L 103.653707 220.657582 
z
" style="fill:#2ca02c;opacity:0.4;"/>
   </g>
   <g id="patch_96">
    <path clip-path="url(#p4eb2fb388c)" d="M 106.045025 224.64 
L 108.436342 224.64 
L 108.436342 221.100073 
L 106.045025 221.100073 
z
" style="fill:#2ca02c;opacity:0.4;"/>
   </g>
   <g id="patch_97">
    <path clip-path="url(#p4eb2fb388c)" d="M 108.436342 224.64 
L 110.82766 224.64 
L 110.82766 221.985055 
L 108.436342 221.985055 
z
" style="fill:#2ca02c;opacity:0.4;"/>
   </g>
   <g id="patch_98">
    <path clip-path="url(#p4eb2fb388c)" d="M 110.82766 224.64 
L 113.218978 224.64 
L 113.218978 223.312527 
L 110.82766 223.312527 
z
" style="fill:#2ca02c;opacity:0.4;"/>
   </g>
   <g id="patch_99">
    <path clip-path="url(#p4eb2fb388c)" d="M 113.218978 224.64 
L 115.610296 224.64 
L 115.610296 222.870037 
L 113.218978 222.870037 
z
" style="fill:#2ca02c;opacity:0.4;"/>
   </g>
   <g id="patch_100">
    <path clip-path="url(#p4eb2fb388c)" d="M 115.610296 224.64 
L 118.001613 224.64 
L 118.001613 222.870037 
L 115.610296 222.870037 
z
" style="fill:#2ca02c;opacity:0.4;"/>
   </g>
   <g id="patch_101">
    <path clip-path="url(#p4eb2fb388c)" d="M 118.001613 224.64 
L 120.392931 224.64 
L 120.392931 221.985055 
L 118.001613 221.985055 
z
" style="fill:#2ca02c;opacity:0.4;"/>
   </g>
   <g id="patch_102">
    <path clip-path="url(#p4eb2fb388c)" d="M 120.392931 224.64 
L 122.784249 224.64 
L 122.784249 223.755018 
L 120.392931 223.755018 
z
" style="fill:#2ca02c;opacity:0.4;"/>
   </g>
   <g id="patch_103">
    <path clip-path="url(#p4eb2fb388c)" d="M 122.784249 224.64 
L 125.175567 224.64 
L 125.175567 222.870037 
L 122.784249 222.870037 
z
" style="fill:#2ca02c;opacity:0.4;"/>
   </g>
   <g id="patch_104">
    <path clip-path="url(#p4eb2fb388c)" d="M 125.175567 224.64 
L 127.566884 224.64 
L 127.566884 223.312527 
L 125.175567 223.312527 
z
" style="fill:#2ca02c;opacity:0.4;"/>
   </g>
   <g id="patch_105">
    <path clip-path="url(#p4eb2fb388c)" d="M 127.566884 224.64 
L 129.958202 224.64 
L 129.958202 223.755018 
L 127.566884 223.755018 
z
" style="fill:#2ca02c;opacity:0.4;"/>
   </g>
   <g id="patch_106">
    <path clip-path="url(#p4eb2fb388c)" d="M 129.958202 224.64 
L 132.34952 224.64 
L 132.34952 224.197509 
L 129.958202 224.197509 
z
" style="fill:#2ca02c;opacity:0.4;"/>
   </g>
   <g id="patch_107">
    <path clip-path="url(#p4eb2fb388c)" d="M 132.34952 224.64 
L 134.740837 224.64 
L 134.740837 224.64 
L 132.34952 224.64 
z
" style="fill:#2ca02c;opacity:0.4;"/>
   </g>
   <g id="patch_108">
    <path clip-path="url(#p4eb2fb388c)" d="M 134.740837 224.64 
L 137.132155 224.64 
L 137.132155 223.755018 
L 134.740837 223.755018 
z
" style="fill:#2ca02c;opacity:0.4;"/>
   </g>
   <g id="patch_109">
    <path clip-path="url(#p4eb2fb388c)" d="M 137.132155 224.64 
L 139.523473 224.64 
L 139.523473 222.870037 
L 137.132155 222.870037 
z
" style="fill:#2ca02c;opacity:0.4;"/>
   </g>
   <g id="patch_110">
    <path clip-path="url(#p4eb2fb388c)" d="M 139.523473 224.64 
L 141.914791 224.64 
L 141.914791 223.755018 
L 139.523473 223.755018 
z
" style="fill:#2ca02c;opacity:0.4;"/>
   </g>
   <g id="patch_111">
    <path clip-path="url(#p4eb2fb388c)" d="M 141.914791 224.64 
L 144.306108 224.64 
L 144.306108 224.197509 
L 141.914791 224.197509 
z
" style="fill:#2ca02c;opacity:0.4;"/>
   </g>
   <g id="patch_112">
    <path clip-path="url(#p4eb2fb388c)" d="M 144.306108 224.64 
L 146.697426 224.64 
L 146.697426 224.64 
L 144.306108 224.64 
z
" style="fill:#2ca02c;opacity:0.4;"/>
   </g>
   <g id="patch_113">
    <path clip-path="url(#p4eb2fb388c)" d="M 146.697426 224.64 
L 149.088744 224.64 
L 149.088744 224.64 
L 146.697426 224.64 
z
" style="fill:#2ca02c;opacity:0.4;"/>
   </g>
   <g id="patch_114">
    <path clip-path="url(#p4eb2fb388c)" d="M 149.088744 224.64 
L 151.480062 224.64 
L 151.480062 224.197509 
L 149.088744 224.197509 
z
" style="fill:#2ca02c;opacity:0.4;"/>
   </g>
   <g id="patch_115">
    <path clip-path="url(#p4eb2fb388c)" d="M 151.480062 224.64 
L 153.871379 224.64 
L 153.871379 224.197509 
L 151.480062 224.197509 
z
" style="fill:#2ca02c;opacity:0.4;"/>
   </g>
   <g id="patch_116">
    <path clip-path="url(#p4eb2fb388c)" d="M 153.871379 224.64 
L 156.262697 224.64 
L 156.262697 224.197509 
L 153.871379 224.197509 
z
" style="fill:#2ca02c;opacity:0.4;"/>
   </g>
   <g id="patch_117">
    <path clip-path="url(#p4eb2fb388c)" d="M 156.262697 224.64 
L 158.654015 224.64 
L 158.654015 224.197509 
L 156.262697 224.197509 
z
" style="fill:#2ca02c;opacity:0.4;"/>
   </g>
   <g id="patch_118">
    <path clip-path="url(#p4eb2fb388c)" d="M 158.654015 224.64 
L 161.045333 224.64 
L 161.045333 224.197509 
L 158.654015 224.197509 
z
" style="fill:#2ca02c;opacity:0.4;"/>
   </g>
   <g id="patch_119">
    <path clip-path="url(#p4eb2fb388c)" d="M 161.045333 224.64 
L 163.43665 224.64 
L 163.43665 224.64 
L 161.045333 224.64 
z
" style="fill:#2ca02c;opacity:0.4;"/>
   </g>
   <g id="patch_120">
    <path clip-path="url(#p4eb2fb388c)" d="M 163.43665 224.64 
L 165.827968 224.64 
L 165.827968 223.755018 
L 163.43665 223.755018 
z
" style="fill:#2ca02c;opacity:0.4;"/>
   </g>
   <g id="patch_121">
    <path clip-path="url(#p4eb2fb388c)" d="M 165.827968 224.64 
L 168.219286 224.64 
L 168.219286 224.64 
L 165.827968 224.64 
z
" style="fill:#2ca02c;opacity:0.4;"/>
   </g>
   <g id="patch_122">
    <path clip-path="url(#p4eb2fb388c)" d="M 168.219286 224.64 
L 170.610603 224.64 
L 170.610603 224.64 
L 168.219286 224.64 
z
" style="fill:#2ca02c;opacity:0.4;"/>
   </g>
   <g id="patch_123">
    <path clip-path="url(#p4eb2fb388c)" d="M 170.610603 224.64 
L 173.001921 224.64 
L 173.001921 224.64 
L 170.610603 224.64 
z
" style="fill:#2ca02c;opacity:0.4;"/>
   </g>
   <g id="patch_124">
    <path clip-path="url(#p4eb2fb388c)" d="M 173.001921 224.64 
L 175.393239 224.64 
L 175.393239 224.64 
L 173.001921 224.64 
z
" style="fill:#2ca02c;opacity:0.4;"/>
   </g>
   <g id="patch_125">
    <path clip-path="url(#p4eb2fb388c)" d="M 175.393239 224.64 
L 177.784557 224.64 
L 177.784557 224.197509 
L 175.393239 224.197509 
z
" style="fill:#2ca02c;opacity:0.4;"/>
   </g>
   <g id="patch_126">
    <path clip-path="url(#p4eb2fb388c)" d="M 177.784557 224.64 
L 180.175874 224.64 
L 180.175874 224.64 
L 177.784557 224.64 
z
" style="fill:#2ca02c;opacity:0.4;"/>
   </g>
   <g id="patch_127">
    <path clip-path="url(#p4eb2fb388c)" d="M 180.175874 224.64 
L 182.567192 224.64 
L 182.567192 224.64 
L 180.175874 224.64 
z
" style="fill:#2ca02c;opacity:0.4;"/>
   </g>
   <g id="patch_128">
    <path clip-path="url(#p4eb2fb388c)" d="M 182.567192 224.64 
L 184.95851 224.64 
L 184.95851 224.64 
L 182.567192 224.64 
z
" style="fill:#2ca02c;opacity:0.4;"/>
   </g>
   <g id="patch_129">
    <path clip-path="url(#p4eb2fb388c)" d="M 184.95851 224.64 
L 187.349828 224.64 
L 187.349828 224.64 
L 184.95851 224.64 
z
" style="fill:#2ca02c;opacity:0.4;"/>
   </g>
   <g id="patch_130">
    <path clip-path="url(#p4eb2fb388c)" d="M 187.349828 224.64 
L 189.741145 224.64 
L 189.741145 224.64 
L 187.349828 224.64 
z
" style="fill:#2ca02c;opacity:0.4;"/>
   </g>
   <g id="patch_131">
    <path clip-path="url(#p4eb2fb388c)" d="M 189.741145 224.64 
L 192.132463 224.64 
L 192.132463 224.197509 
L 189.741145 224.197509 
z
" style="fill:#2ca02c;opacity:0.4;"/>
   </g>
   <g id="matplotlib.axis_1">
    <g id="xtick_1">
     <g id="line2d_1">
      <defs>
       <path d="M 0 0 
L 0 3.5 
" id="mf567b2675c" style="stroke:#000000;stroke-width:0.8;"/>
      </defs>
      <g>
       <use style="stroke:#000000;stroke-width:0.8;" x="77.349212" xlink:href="#mf567b2675c" y="224.64"/>
      </g>
     </g>
     <g id="text_1">
      <!-- 0 -->
      <g transform="translate(74.167962 239.238437)scale(0.1 -0.1)">
       <defs>
        <path d="M 2034 4250 
Q 1547 4250 1301 3770 
Q 1056 3291 1056 2328 
Q 1056 1369 1301 889 
Q 1547 409 2034 409 
Q 2525 409 2770 889 
Q 3016 1369 3016 2328 
Q 3016 3291 2770 3770 
Q 2525 4250 2034 4250 
z
M 2034 4750 
Q 2819 4750 3233 4129 
Q 3647 3509 3647 2328 
Q 3647 1150 3233 529 
Q 2819 -91 2034 -91 
Q 1250 -91 836 529 
Q 422 1150 422 2328 
Q 422 3509 836 4129 
Q 1250 4750 2034 4750 
z
" id="DejaVuSans-30" transform="scale(0.015625)"/>
       </defs>
       <use xlink:href="#DejaVuSans-30"/>
      </g>
     </g>
    </g>
    <g id="xtick_2">
     <g id="line2d_2">
      <g>
       <use style="stroke:#000000;stroke-width:0.8;" x="119.955685" xlink:href="#mf567b2675c" y="224.64"/>
      </g>
     </g>
     <g id="text_2">
      <!-- 2 -->
      <g transform="translate(116.774435 239.238437)scale(0.1 -0.1)">
       <defs>
        <path d="M 1228 531 
L 3431 531 
L 3431 0 
L 469 0 
L 469 531 
Q 828 903 1448 1529 
Q 2069 2156 2228 2338 
Q 2531 2678 2651 2914 
Q 2772 3150 2772 3378 
Q 2772 3750 2511 3984 
Q 2250 4219 1831 4219 
Q 1534 4219 1204 4116 
Q 875 4013 500 3803 
L 500 4441 
Q 881 4594 1212 4672 
Q 1544 4750 1819 4750 
Q 2544 4750 2975 4387 
Q 3406 4025 3406 3419 
Q 3406 3131 3298 2873 
Q 3191 2616 2906 2266 
Q 2828 2175 2409 1742 
Q 1991 1309 1228 531 
z
" id="DejaVuSans-32" transform="scale(0.015625)"/>
       </defs>
       <use xlink:href="#DejaVuSans-32"/>
      </g>
     </g>
    </g>
    <g id="xtick_3">
     <g id="line2d_3">
      <g>
       <use style="stroke:#000000;stroke-width:0.8;" x="162.562157" xlink:href="#mf567b2675c" y="224.64"/>
      </g>
     </g>
     <g id="text_3">
      <!-- 4 -->
      <g transform="translate(159.380907 239.238437)scale(0.1 -0.1)">
       <defs>
        <path d="M 2419 4116 
L 825 1625 
L 2419 1625 
L 2419 4116 
z
M 2253 4666 
L 3047 4666 
L 3047 1625 
L 3713 1625 
L 3713 1100 
L 3047 1100 
L 3047 0 
L 2419 0 
L 2419 1100 
L 313 1100 
L 313 1709 
L 2253 4666 
z
" id="DejaVuSans-34" transform="scale(0.015625)"/>
       </defs>
       <use xlink:href="#DejaVuSans-34"/>
      </g>
     </g>
    </g>
    <g id="xtick_4">
     <g id="line2d_4">
      <g>
       <use style="stroke:#000000;stroke-width:0.8;" x="205.16863" xlink:href="#mf567b2675c" y="224.64"/>
      </g>
     </g>
     <g id="text_4">
      <!-- 6 -->
      <g transform="translate(201.98738 239.238437)scale(0.1 -0.1)">
       <defs>
        <path d="M 2113 2584 
Q 1688 2584 1439 2293 
Q 1191 2003 1191 1497 
Q 1191 994 1439 701 
Q 1688 409 2113 409 
Q 2538 409 2786 701 
Q 3034 994 3034 1497 
Q 3034 2003 2786 2293 
Q 2538 2584 2113 2584 
z
M 3366 4563 
L 3366 3988 
Q 3128 4100 2886 4159 
Q 2644 4219 2406 4219 
Q 1781 4219 1451 3797 
Q 1122 3375 1075 2522 
Q 1259 2794 1537 2939 
Q 1816 3084 2150 3084 
Q 2853 3084 3261 2657 
Q 3669 2231 3669 1497 
Q 3669 778 3244 343 
Q 2819 -91 2113 -91 
Q 1303 -91 875 529 
Q 447 1150 447 2328 
Q 447 3434 972 4092 
Q 1497 4750 2381 4750 
Q 2619 4750 2861 4703 
Q 3103 4656 3366 4563 
z
" id="DejaVuSans-36" transform="scale(0.015625)"/>
       </defs>
       <use xlink:href="#DejaVuSans-36"/>
      </g>
     </g>
    </g>
    <g id="xtick_5">
     <g id="line2d_5">
      <g>
       <use style="stroke:#000000;stroke-width:0.8;" x="247.775102" xlink:href="#mf567b2675c" y="224.64"/>
      </g>
     </g>
     <g id="text_5">
      <!-- 8 -->
      <g transform="translate(244.593852 239.238437)scale(0.1 -0.1)">
       <defs>
        <path d="M 2034 2216 
Q 1584 2216 1326 1975 
Q 1069 1734 1069 1313 
Q 1069 891 1326 650 
Q 1584 409 2034 409 
Q 2484 409 2743 651 
Q 3003 894 3003 1313 
Q 3003 1734 2745 1975 
Q 2488 2216 2034 2216 
z
M 1403 2484 
Q 997 2584 770 2862 
Q 544 3141 544 3541 
Q 544 4100 942 4425 
Q 1341 4750 2034 4750 
Q 2731 4750 3128 4425 
Q 3525 4100 3525 3541 
Q 3525 3141 3298 2862 
Q 3072 2584 2669 2484 
Q 3125 2378 3379 2068 
Q 3634 1759 3634 1313 
Q 3634 634 3220 271 
Q 2806 -91 2034 -91 
Q 1263 -91 848 271 
Q 434 634 434 1313 
Q 434 1759 690 2068 
Q 947 2378 1403 2484 
z
M 1172 3481 
Q 1172 3119 1398 2916 
Q 1625 2713 2034 2713 
Q 2441 2713 2670 2916 
Q 2900 3119 2900 3481 
Q 2900 3844 2670 4047 
Q 2441 4250 2034 4250 
Q 1625 4250 1398 4047 
Q 1172 3844 1172 3481 
z
" id="DejaVuSans-38" transform="scale(0.015625)"/>
       </defs>
       <use xlink:href="#DejaVuSans-38"/>
      </g>
     </g>
    </g>
    <g id="xtick_6">
     <g id="line2d_6">
      <g>
       <use style="stroke:#000000;stroke-width:0.8;" x="290.381575" xlink:href="#mf567b2675c" y="224.64"/>
      </g>
     </g>
     <g id="text_6">
      <!-- 10 -->
      <g transform="translate(284.019075 239.238437)scale(0.1 -0.1)">
       <defs>
        <path d="M 794 531 
L 1825 531 
L 1825 4091 
L 703 3866 
L 703 4441 
L 1819 4666 
L 2450 4666 
L 2450 531 
L 3481 531 
L 3481 0 
L 794 0 
L 794 531 
z
" id="DejaVuSans-31" transform="scale(0.015625)"/>
       </defs>
       <use xlink:href="#DejaVuSans-31"/>
       <use x="63.623047" xlink:href="#DejaVuSans-30"/>
      </g>
     </g>
    </g>
    <g id="xtick_7">
     <g id="line2d_7">
      <g>
       <use style="stroke:#000000;stroke-width:0.8;" x="332.988048" xlink:href="#mf567b2675c" y="224.64"/>
      </g>
     </g>
     <g id="text_7">
      <!-- 12 -->
      <g transform="translate(326.625548 239.238437)scale(0.1 -0.1)">
       <use xlink:href="#DejaVuSans-31"/>
       <use x="63.623047" xlink:href="#DejaVuSans-32"/>
      </g>
     </g>
    </g>
    <g id="xtick_8">
     <g id="line2d_8">
      <g>
       <use style="stroke:#000000;stroke-width:0.8;" x="375.59452" xlink:href="#mf567b2675c" y="224.64"/>
      </g>
     </g>
     <g id="text_8">
      <!-- 14 -->
      <g transform="translate(369.23202 239.238437)scale(0.1 -0.1)">
       <use xlink:href="#DejaVuSans-31"/>
       <use x="63.623047" xlink:href="#DejaVuSans-34"/>
      </g>
     </g>
    </g>
    <g id="text_9">
     <!-- f(t) -->
     <g transform="translate(203.559375 252.916562)scale(0.1 -0.1)">
      <defs>
       <path d="M 2375 4863 
L 2375 4384 
L 1825 4384 
Q 1516 4384 1395 4259 
Q 1275 4134 1275 3809 
L 1275 3500 
L 2222 3500 
L 2222 3053 
L 1275 3053 
L 1275 0 
L 697 0 
L 697 3053 
L 147 3053 
L 147 3500 
L 697 3500 
L 697 3744 
Q 697 4328 969 4595 
Q 1241 4863 1831 4863 
L 2375 4863 
z
" id="DejaVuSans-66" transform="scale(0.015625)"/>
       <path d="M 1984 4856 
Q 1566 4138 1362 3434 
Q 1159 2731 1159 2009 
Q 1159 1288 1364 580 
Q 1569 -128 1984 -844 
L 1484 -844 
Q 1016 -109 783 600 
Q 550 1309 550 2009 
Q 550 2706 781 3412 
Q 1013 4119 1484 4856 
L 1984 4856 
z
" id="DejaVuSans-28" transform="scale(0.015625)"/>
       <path d="M 1172 4494 
L 1172 3500 
L 2356 3500 
L 2356 3053 
L 1172 3053 
L 1172 1153 
Q 1172 725 1289 603 
Q 1406 481 1766 481 
L 2356 481 
L 2356 0 
L 1766 0 
Q 1100 0 847 248 
Q 594 497 594 1153 
L 594 3053 
L 172 3053 
L 172 3500 
L 594 3500 
L 594 4494 
L 1172 4494 
z
" id="DejaVuSans-74" transform="scale(0.015625)"/>
       <path d="M 513 4856 
L 1013 4856 
Q 1481 4119 1714 3412 
Q 1947 2706 1947 2009 
Q 1947 1309 1714 600 
Q 1481 -109 1013 -844 
L 513 -844 
Q 928 -128 1133 580 
Q 1338 1288 1338 2009 
Q 1338 2731 1133 3434 
Q 928 4138 513 4856 
z
" id="DejaVuSans-29" transform="scale(0.015625)"/>
      </defs>
      <use xlink:href="#DejaVuSans-66"/>
      <use x="35.205078" xlink:href="#DejaVuSans-28"/>
      <use x="74.21875" xlink:href="#DejaVuSans-74"/>
      <use x="113.427734" xlink:href="#DejaVuSans-29"/>
     </g>
    </g>
   </g>
   <g id="matplotlib.axis_2">
    <g id="ytick_1">
     <g id="line2d_9">
      <defs>
       <path d="M 0 0 
L -3.5 0 
" id="mc24ed971b4" style="stroke:#000000;stroke-width:0.8;"/>
      </defs>
      <g>
       <use style="stroke:#000000;stroke-width:0.8;" x="43.78125" xlink:href="#mc24ed971b4" y="224.64"/>
      </g>
     </g>
     <g id="text_10">
      <!-- 0.0 -->
      <g transform="translate(20.878125 228.439219)scale(0.1 -0.1)">
       <defs>
        <path d="M 684 794 
L 1344 794 
L 1344 0 
L 684 0 
L 684 794 
z
" id="DejaVuSans-2e" transform="scale(0.015625)"/>
       </defs>
       <use xlink:href="#DejaVuSans-30"/>
       <use x="63.623047" xlink:href="#DejaVuSans-2e"/>
       <use x="95.410156" xlink:href="#DejaVuSans-30"/>
      </g>
     </g>
    </g>
    <g id="ytick_2">
     <g id="line2d_10">
      <g>
       <use style="stroke:#000000;stroke-width:0.8;" x="43.78125" xlink:href="#mc24ed971b4" y="199.804896"/>
      </g>
     </g>
     <g id="text_11">
      <!-- 0.5 -->
      <g transform="translate(20.878125 203.604114)scale(0.1 -0.1)">
       <defs>
        <path d="M 691 4666 
L 3169 4666 
L 3169 4134 
L 1269 4134 
L 1269 2991 
Q 1406 3038 1543 3061 
Q 1681 3084 1819 3084 
Q 2600 3084 3056 2656 
Q 3513 2228 3513 1497 
Q 3513 744 3044 326 
Q 2575 -91 1722 -91 
Q 1428 -91 1123 -41 
Q 819 9 494 109 
L 494 744 
Q 775 591 1075 516 
Q 1375 441 1709 441 
Q 2250 441 2565 725 
Q 2881 1009 2881 1497 
Q 2881 1984 2565 2268 
Q 2250 2553 1709 2553 
Q 1456 2553 1204 2497 
Q 953 2441 691 2322 
L 691 4666 
z
" id="DejaVuSans-35" transform="scale(0.015625)"/>
       </defs>
       <use xlink:href="#DejaVuSans-30"/>
       <use x="63.623047" xlink:href="#DejaVuSans-2e"/>
       <use x="95.410156" xlink:href="#DejaVuSans-35"/>
      </g>
     </g>
    </g>
    <g id="ytick_3">
     <g id="line2d_11">
      <g>
       <use style="stroke:#000000;stroke-width:0.8;" x="43.78125" xlink:href="#mc24ed971b4" y="174.969791"/>
      </g>
     </g>
     <g id="text_12">
      <!-- 1.0 -->
      <g transform="translate(20.878125 178.76901)scale(0.1 -0.1)">
       <use xlink:href="#DejaVuSans-31"/>
       <use x="63.623047" xlink:href="#DejaVuSans-2e"/>
       <use x="95.410156" xlink:href="#DejaVuSans-30"/>
      </g>
     </g>
    </g>
    <g id="ytick_4">
     <g id="line2d_12">
      <g>
       <use style="stroke:#000000;stroke-width:0.8;" x="43.78125" xlink:href="#mc24ed971b4" y="150.134687"/>
      </g>
     </g>
     <g id="text_13">
      <!-- 1.5 -->
      <g transform="translate(20.878125 153.933905)scale(0.1 -0.1)">
       <use xlink:href="#DejaVuSans-31"/>
       <use x="63.623047" xlink:href="#DejaVuSans-2e"/>
       <use x="95.410156" xlink:href="#DejaVuSans-35"/>
      </g>
     </g>
    </g>
    <g id="ytick_5">
     <g id="line2d_13">
      <g>
       <use style="stroke:#000000;stroke-width:0.8;" x="43.78125" xlink:href="#mc24ed971b4" y="125.299582"/>
      </g>
     </g>
     <g id="text_14">
      <!-- 2.0 -->
      <g transform="translate(20.878125 129.098801)scale(0.1 -0.1)">
       <use xlink:href="#DejaVuSans-32"/>
       <use x="63.623047" xlink:href="#DejaVuSans-2e"/>
       <use x="95.410156" xlink:href="#DejaVuSans-30"/>
      </g>
     </g>
    </g>
    <g id="ytick_6">
     <g id="line2d_14">
      <g>
       <use style="stroke:#000000;stroke-width:0.8;" x="43.78125" xlink:href="#mc24ed971b4" y="100.464478"/>
      </g>
     </g>
     <g id="text_15">
      <!-- 2.5 -->
      <g transform="translate(20.878125 104.263697)scale(0.1 -0.1)">
       <use xlink:href="#DejaVuSans-32"/>
       <use x="63.623047" xlink:href="#DejaVuSans-2e"/>
       <use x="95.410156" xlink:href="#DejaVuSans-35"/>
      </g>
     </g>
    </g>
    <g id="ytick_7">
     <g id="line2d_15">
      <g>
       <use style="stroke:#000000;stroke-width:0.8;" x="43.78125" xlink:href="#mc24ed971b4" y="75.629373"/>
      </g>
     </g>
     <g id="text_16">
      <!-- 3.0 -->
      <g transform="translate(20.878125 79.428592)scale(0.1 -0.1)">
       <defs>
        <path d="M 2597 2516 
Q 3050 2419 3304 2112 
Q 3559 1806 3559 1356 
Q 3559 666 3084 287 
Q 2609 -91 1734 -91 
Q 1441 -91 1130 -33 
Q 819 25 488 141 
L 488 750 
Q 750 597 1062 519 
Q 1375 441 1716 441 
Q 2309 441 2620 675 
Q 2931 909 2931 1356 
Q 2931 1769 2642 2001 
Q 2353 2234 1838 2234 
L 1294 2234 
L 1294 2753 
L 1863 2753 
Q 2328 2753 2575 2939 
Q 2822 3125 2822 3475 
Q 2822 3834 2567 4026 
Q 2313 4219 1838 4219 
Q 1578 4219 1281 4162 
Q 984 4106 628 3988 
L 628 4550 
Q 988 4650 1302 4700 
Q 1616 4750 1894 4750 
Q 2613 4750 3031 4423 
Q 3450 4097 3450 3541 
Q 3450 3153 3228 2886 
Q 3006 2619 2597 2516 
z
" id="DejaVuSans-33" transform="scale(0.015625)"/>
       </defs>
       <use xlink:href="#DejaVuSans-33"/>
       <use x="63.623047" xlink:href="#DejaVuSans-2e"/>
       <use x="95.410156" xlink:href="#DejaVuSans-30"/>
      </g>
     </g>
    </g>
    <g id="ytick_8">
     <g id="line2d_16">
      <g>
       <use style="stroke:#000000;stroke-width:0.8;" x="43.78125" xlink:href="#mc24ed971b4" y="50.794269"/>
      </g>
     </g>
     <g id="text_17">
      <!-- 3.5 -->
      <g transform="translate(20.878125 54.593488)scale(0.1 -0.1)">
       <use xlink:href="#DejaVuSans-33"/>
       <use x="63.623047" xlink:href="#DejaVuSans-2e"/>
       <use x="95.410156" xlink:href="#DejaVuSans-35"/>
      </g>
     </g>
    </g>
    <g id="ytick_9">
     <g id="line2d_17">
      <g>
       <use style="stroke:#000000;stroke-width:0.8;" x="43.78125" xlink:href="#mc24ed971b4" y="25.959164"/>
      </g>
     </g>
     <g id="text_18">
      <!-- 4.0 -->
      <g transform="translate(20.878125 29.758383)scale(0.1 -0.1)">
       <use xlink:href="#DejaVuSans-34"/>
       <use x="63.623047" xlink:href="#DejaVuSans-2e"/>
       <use x="95.410156" xlink:href="#DejaVuSans-30"/>
      </g>
     </g>
    </g>
    <g id="text_19">
     <!-- Density -->
     <g transform="translate(14.798438 134.928594)rotate(-90)scale(0.1 -0.1)">
      <defs>
       <path d="M 1259 4147 
L 1259 519 
L 2022 519 
Q 2988 519 3436 956 
Q 3884 1394 3884 2338 
Q 3884 3275 3436 3711 
Q 2988 4147 2022 4147 
L 1259 4147 
z
M 628 4666 
L 1925 4666 
Q 3281 4666 3915 4102 
Q 4550 3538 4550 2338 
Q 4550 1131 3912 565 
Q 3275 0 1925 0 
L 628 0 
L 628 4666 
z
" id="DejaVuSans-44" transform="scale(0.015625)"/>
       <path d="M 3597 1894 
L 3597 1613 
L 953 1613 
Q 991 1019 1311 708 
Q 1631 397 2203 397 
Q 2534 397 2845 478 
Q 3156 559 3463 722 
L 3463 178 
Q 3153 47 2828 -22 
Q 2503 -91 2169 -91 
Q 1331 -91 842 396 
Q 353 884 353 1716 
Q 353 2575 817 3079 
Q 1281 3584 2069 3584 
Q 2775 3584 3186 3129 
Q 3597 2675 3597 1894 
z
M 3022 2063 
Q 3016 2534 2758 2815 
Q 2500 3097 2075 3097 
Q 1594 3097 1305 2825 
Q 1016 2553 972 2059 
L 3022 2063 
z
" id="DejaVuSans-65" transform="scale(0.015625)"/>
       <path d="M 3513 2113 
L 3513 0 
L 2938 0 
L 2938 2094 
Q 2938 2591 2744 2837 
Q 2550 3084 2163 3084 
Q 1697 3084 1428 2787 
Q 1159 2491 1159 1978 
L 1159 0 
L 581 0 
L 581 3500 
L 1159 3500 
L 1159 2956 
Q 1366 3272 1645 3428 
Q 1925 3584 2291 3584 
Q 2894 3584 3203 3211 
Q 3513 2838 3513 2113 
z
" id="DejaVuSans-6e" transform="scale(0.015625)"/>
       <path d="M 2834 3397 
L 2834 2853 
Q 2591 2978 2328 3040 
Q 2066 3103 1784 3103 
Q 1356 3103 1142 2972 
Q 928 2841 928 2578 
Q 928 2378 1081 2264 
Q 1234 2150 1697 2047 
L 1894 2003 
Q 2506 1872 2764 1633 
Q 3022 1394 3022 966 
Q 3022 478 2636 193 
Q 2250 -91 1575 -91 
Q 1294 -91 989 -36 
Q 684 19 347 128 
L 347 722 
Q 666 556 975 473 
Q 1284 391 1588 391 
Q 1994 391 2212 530 
Q 2431 669 2431 922 
Q 2431 1156 2273 1281 
Q 2116 1406 1581 1522 
L 1381 1569 
Q 847 1681 609 1914 
Q 372 2147 372 2553 
Q 372 3047 722 3315 
Q 1072 3584 1716 3584 
Q 2034 3584 2315 3537 
Q 2597 3491 2834 3397 
z
" id="DejaVuSans-73" transform="scale(0.015625)"/>
       <path d="M 603 3500 
L 1178 3500 
L 1178 0 
L 603 0 
L 603 3500 
z
M 603 4863 
L 1178 4863 
L 1178 4134 
L 603 4134 
L 603 4863 
z
" id="DejaVuSans-69" transform="scale(0.015625)"/>
       <path d="M 2059 -325 
Q 1816 -950 1584 -1140 
Q 1353 -1331 966 -1331 
L 506 -1331 
L 506 -850 
L 844 -850 
Q 1081 -850 1212 -737 
Q 1344 -625 1503 -206 
L 1606 56 
L 191 3500 
L 800 3500 
L 1894 763 
L 2988 3500 
L 3597 3500 
L 2059 -325 
z
" id="DejaVuSans-79" transform="scale(0.015625)"/>
      </defs>
      <use xlink:href="#DejaVuSans-44"/>
      <use x="77.001953" xlink:href="#DejaVuSans-65"/>
      <use x="138.525391" xlink:href="#DejaVuSans-6e"/>
      <use x="201.904297" xlink:href="#DejaVuSans-73"/>
      <use x="254.003906" xlink:href="#DejaVuSans-69"/>
      <use x="281.787109" xlink:href="#DejaVuSans-74"/>
      <use x="320.996094" xlink:href="#DejaVuSans-79"/>
     </g>
    </g>
   </g>
   <g id="line2d_18">
    <path clip-path="url(#p4eb2fb388c)" d="M 61.406064 224.633233 
L 67.013875 224.502021 
L 69.817781 224.198105 
L 71.687051 223.788307 
L 73.556322 223.140874 
L 75.425592 222.217246 
L 77.294863 221.022372 
L 80.098769 218.857094 
L 84.771945 215.100031 
L 87.575851 213.170416 
L 95.987568 207.813861 
L 102.530015 202.935141 
L 104.399285 201.976255 
L 106.268556 201.405377 
L 108.137826 201.25786 
L 110.007097 201.531401 
L 111.876367 202.195535 
L 113.745638 203.184793 
L 116.549544 205.025489 
L 120.288085 207.440846 
L 124.026626 209.459867 
L 126.830532 211.020839 
L 129.634437 212.839378 
L 135.242249 216.629108 
L 137.111519 217.629099 
L 138.98079 218.431414 
L 141.784696 219.34658 
L 146.457872 220.537554 
L 150.196413 221.267349 
L 153.934954 221.683412 
L 159.542765 222.200254 
L 169.823753 223.412304 
L 176.3662 223.864375 
L 182.908647 224.070603 
L 224.967233 224.520376 
L 233.378951 224.519813 
L 247.39848 224.63899 
L 247.39848 224.63899 
" style="fill:none;stroke:#1f77b4;stroke-linecap:square;stroke-width:1.5;"/>
   </g>
   <g id="line2d_19">
    <path clip-path="url(#p4eb2fb388c)" d="M 58.999432 224.542713 
L 62.058363 224.202247 
L 63.587828 223.789302 
L 65.117294 223.079503 
L 66.646759 221.936246 
L 68.176225 220.211937 
L 69.70569 217.779004 
L 71.235156 214.572014 
L 72.764621 210.630569 
L 75.823552 201.368216 
L 77.353018 196.751526 
L 78.882483 192.701627 
L 80.411949 189.585491 
L 81.941414 187.642609 
L 83.47088 186.947111 
L 85.000345 187.411383 
L 86.529811 188.82566 
L 88.059276 190.917339 
L 91.118208 196.070219 
L 94.177139 201.263662 
L 97.23607 205.789967 
L 98.765535 207.732943 
L 100.295001 209.449062 
L 101.824466 210.935373 
L 103.353932 212.198667 
L 104.883397 213.260098 
L 107.942328 214.937414 
L 114.06019 217.871457 
L 121.707518 221.853189 
L 123.236983 222.45688 
L 124.766449 222.941063 
L 127.82538 223.554169 
L 130.884311 223.800116 
L 138.531638 223.928017 
L 147.708431 223.999512 
L 170.650414 224.036182 
L 182.886138 224.347185 
L 199.710259 224.306791 
L 213.475448 224.446705 
L 233.3585 224.493544 
L 257.829948 224.623268 
L 283.830862 224.586369 
L 299.125517 224.610589 
L 314.420172 224.605845 
L 334.303224 224.625097 
L 355.715741 224.625068 
L 363.363068 224.639233 
L 363.363068 224.639233 
" style="fill:none;stroke:#ff7f0e;stroke-linecap:square;stroke-width:1.5;"/>
   </g>
   <g id="line2d_20">
    <path clip-path="url(#p4eb2fb388c)" d="M 67.392747 224.039058 
L 68.069612 223.549883 
L 68.746477 222.742133 
L 69.423343 221.468635 
L 70.100208 219.553038 
L 70.777073 216.806484 
L 71.453938 213.057351 
L 72.130804 208.19266 
L 73.484534 195.234217 
L 76.191995 165.815252 
L 76.86886 160.906982 
L 77.545725 157.943478 
L 78.222591 157.082665 
L 78.899456 158.226645 
L 79.576321 161.049351 
L 80.930052 169.732855 
L 82.283782 179.04298 
L 82.960647 183.000945 
L 83.637512 186.2777 
L 84.314378 188.870981 
L 84.991243 190.863653 
L 85.668108 192.382517 
L 87.021839 194.529915 
L 90.406165 198.784735 
L 91.759895 200.949626 
L 93.113626 203.592725 
L 95.144221 208.31707 
L 97.174817 213.203909 
L 98.528548 216.001844 
L 99.882278 218.137865 
L 100.559143 218.929992 
L 101.236009 219.548031 
L 102.589739 220.352311 
L 103.943469 220.781862 
L 112.742717 222.654831 
L 115.450178 222.781795 
L 120.8651 222.921814 
L 125.603157 223.339018 
L 131.694944 224.036189 
L 133.72554 224.002456 
L 139.140461 223.681805 
L 141.847922 223.970436 
L 145.232249 224.320287 
L 148.616575 224.363449 
L 160.123284 224.229053 
L 165.538206 224.378256 
L 170.953127 224.59004 
L 191.259084 224.517117 
L 196.674006 224.59013 
L 202.088928 224.638587 
L 202.088928 224.638587 
" style="fill:none;stroke:#2ca02c;stroke-linecap:square;stroke-width:1.5;"/>
   </g>
   <g id="patch_132">
    <path d="M 43.78125 224.64 
L 43.78125 7.2 
" style="fill:none;stroke:#000000;stroke-linecap:square;stroke-linejoin:miter;stroke-width:0.8;"/>
   </g>
   <g id="patch_133">
    <path d="M 378.58125 224.64 
L 378.58125 7.2 
" style="fill:none;stroke:#000000;stroke-linecap:square;stroke-linejoin:miter;stroke-width:0.8;"/>
   </g>
   <g id="patch_134">
    <path d="M 43.78125 224.64 
L 378.58125 224.64 
" style="fill:none;stroke:#000000;stroke-linecap:square;stroke-linejoin:miter;stroke-width:0.8;"/>
   </g>
   <g id="patch_135">
    <path d="M 43.78125 7.2 
L 378.58125 7.2 
" style="fill:none;stroke:#000000;stroke-linecap:square;stroke-linejoin:miter;stroke-width:0.8;"/>
   </g>
  </g>
 </g>
 <defs>
  <clipPath id="p4eb2fb388c">
   <rect height="217.44" width="334.8" x="43.78125" y="7.2"/>
  </clipPath>
 </defs>
</svg>
