<?xml version="1.0" encoding="utf-8" standalone="no"?>
<!DOCTYPE svg PUBLIC "-//W3C//DTD SVG 1.1//EN"
  "http://www.w3.org/Graphics/SVG/1.1/DTD/svg11.dtd">
<!-- Created with matplotlib (https://matplotlib.org/) -->
<svg height="262.19625pt" version="1.1" viewBox="0 0 392.14375 262.19625" width="392.14375pt" xmlns="http://www.w3.org/2000/svg" xmlns:xlink="http://www.w3.org/1999/xlink">
 <metadata>
  <rdf:RDF xmlns:cc="http://creativecommons.org/ns#" xmlns:dc="http://purl.org/dc/elements/1.1/" xmlns:rdf="http://www.w3.org/1999/02/22-rdf-syntax-ns#">
   <cc:Work>
    <dc:type rdf:resource="http://purl.org/dc/dcmitype/StillImage"/>
    <dc:date>2021-02-23T09:25:47.654038</dc:date>
    <dc:format>image/svg+xml</dc:format>
    <dc:creator>
     <cc:Agent>
      <dc:title>Matplotlib v3.3.4, https://matplotlib.org/</dc:title>
     </cc:Agent>
    </dc:creator>
   </cc:Work>
  </rdf:RDF>
 </metadata>
 <defs>
  <style type="text/css">*{stroke-linecap:butt;stroke-linejoin:round;}</style>
 </defs>
 <g id="figure_1">
  <g id="patch_1">
   <path d="M 0 262.19625 
L 392.14375 262.19625 
L 392.14375 0 
L 0 0 
z
" style="fill:none;"/>
  </g>
  <g id="axes_1">
   <g id="patch_2">
    <path d="M 50.14375 224.64 
L 384.94375 224.64 
L 384.94375 7.2 
L 50.14375 7.2 
z
" style="fill:#ffffff;"/>
   </g>
   <g id="patch_3">
    <path clip-path="url(#pe4fc726d59)" d="M 87.363735 224.64 
L 92.042607 224.64 
L 92.042607 219.263024 
L 87.363735 219.263024 
z
" style="fill:#1f77b4;opacity:0.4;"/>
   </g>
   <g id="patch_4">
    <path clip-path="url(#pe4fc726d59)" d="M 92.042607 224.64 
L 96.721479 224.64 
L 96.721479 213.569755 
L 92.042607 213.569755 
z
" style="fill:#1f77b4;opacity:0.4;"/>
   </g>
   <g id="patch_5">
    <path clip-path="url(#pe4fc726d59)" d="M 96.721479 224.64 
L 101.400352 224.64 
L 101.400352 206.611315 
L 96.721479 206.611315 
z
" style="fill:#1f77b4;opacity:0.4;"/>
   </g>
   <g id="patch_6">
    <path clip-path="url(#pe4fc726d59)" d="M 101.400352 224.64 
L 106.079224 224.64 
L 106.079224 199.020289 
L 101.400352 199.020289 
z
" style="fill:#1f77b4;opacity:0.4;"/>
   </g>
   <g id="patch_7">
    <path clip-path="url(#pe4fc726d59)" d="M 106.079224 224.64 
L 110.758096 224.64 
L 110.758096 189.215215 
L 106.079224 189.215215 
z
" style="fill:#1f77b4;opacity:0.4;"/>
   </g>
   <g id="patch_8">
    <path clip-path="url(#pe4fc726d59)" d="M 110.758096 224.64 
L 115.436969 224.64 
L 115.436969 177.512384 
L 110.758096 177.512384 
z
" style="fill:#1f77b4;opacity:0.4;"/>
   </g>
   <g id="patch_9">
    <path clip-path="url(#pe4fc726d59)" d="M 115.436969 224.64 
L 120.115841 224.64 
L 120.115841 186.368581 
L 115.436969 186.368581 
z
" style="fill:#1f77b4;opacity:0.4;"/>
   </g>
   <g id="patch_10">
    <path clip-path="url(#pe4fc726d59)" d="M 120.115841 224.64 
L 124.794713 224.64 
L 124.794713 194.592191 
L 120.115841 194.592191 
z
" style="fill:#1f77b4;opacity:0.4;"/>
   </g>
   <g id="patch_11">
    <path clip-path="url(#pe4fc726d59)" d="M 124.794713 224.64 
L 129.473586 224.64 
L 129.473586 204.080973 
L 124.794713 204.080973 
z
" style="fill:#1f77b4;opacity:0.4;"/>
   </g>
   <g id="patch_12">
    <path clip-path="url(#pe4fc726d59)" d="M 129.473586 224.64 
L 134.152458 224.64 
L 134.152458 208.825364 
L 129.473586 208.825364 
z
" style="fill:#1f77b4;opacity:0.4;"/>
   </g>
   <g id="patch_13">
    <path clip-path="url(#pe4fc726d59)" d="M 134.152458 224.64 
L 138.83133 224.64 
L 138.83133 204.713558 
L 134.152458 204.713558 
z
" style="fill:#1f77b4;opacity:0.4;"/>
   </g>
   <g id="patch_14">
    <path clip-path="url(#pe4fc726d59)" d="M 138.83133 224.64 
L 143.510203 224.64 
L 143.510203 216.416389 
L 138.83133 216.416389 
z
" style="fill:#1f77b4;opacity:0.4;"/>
   </g>
   <g id="patch_15">
    <path clip-path="url(#pe4fc726d59)" d="M 143.510203 224.64 
L 148.189075 224.64 
L 148.189075 218.314146 
L 143.510203 218.314146 
z
" style="fill:#1f77b4;opacity:0.4;"/>
   </g>
   <g id="patch_16">
    <path clip-path="url(#pe4fc726d59)" d="M 148.189075 224.64 
L 152.867947 224.64 
L 152.867947 217.68156 
L 148.189075 217.68156 
z
" style="fill:#1f77b4;opacity:0.4;"/>
   </g>
   <g id="patch_17">
    <path clip-path="url(#pe4fc726d59)" d="M 152.867947 224.64 
L 157.54682 224.64 
L 157.54682 218.946731 
L 152.867947 218.946731 
z
" style="fill:#1f77b4;opacity:0.4;"/>
   </g>
   <g id="patch_18">
    <path clip-path="url(#pe4fc726d59)" d="M 157.54682 224.64 
L 162.225692 224.64 
L 162.225692 220.211902 
L 157.54682 220.211902 
z
" style="fill:#1f77b4;opacity:0.4;"/>
   </g>
   <g id="patch_19">
    <path clip-path="url(#pe4fc726d59)" d="M 162.225692 224.64 
L 166.904564 224.64 
L 166.904564 222.109658 
L 162.225692 222.109658 
z
" style="fill:#1f77b4;opacity:0.4;"/>
   </g>
   <g id="patch_20">
    <path clip-path="url(#pe4fc726d59)" d="M 166.904564 224.64 
L 171.583437 224.64 
L 171.583437 222.742244 
L 166.904564 222.742244 
z
" style="fill:#1f77b4;opacity:0.4;"/>
   </g>
   <g id="patch_21">
    <path clip-path="url(#pe4fc726d59)" d="M 171.583437 224.64 
L 176.262309 224.64 
L 176.262309 223.374829 
L 171.583437 223.374829 
z
" style="fill:#1f77b4;opacity:0.4;"/>
   </g>
   <g id="patch_22">
    <path clip-path="url(#pe4fc726d59)" d="M 176.262309 224.64 
L 180.941181 224.64 
L 180.941181 222.425951 
L 176.262309 222.425951 
z
" style="fill:#1f77b4;opacity:0.4;"/>
   </g>
   <g id="patch_23">
    <path clip-path="url(#pe4fc726d59)" d="M 180.941181 224.64 
L 185.620054 224.64 
L 185.620054 223.691122 
L 180.941181 223.691122 
z
" style="fill:#1f77b4;opacity:0.4;"/>
   </g>
   <g id="patch_24">
    <path clip-path="url(#pe4fc726d59)" d="M 185.620054 224.64 
L 190.298926 224.64 
L 190.298926 224.007415 
L 185.620054 224.007415 
z
" style="fill:#1f77b4;opacity:0.4;"/>
   </g>
   <g id="patch_25">
    <path clip-path="url(#pe4fc726d59)" d="M 190.298926 224.64 
L 194.977798 224.64 
L 194.977798 223.691122 
L 190.298926 223.691122 
z
" style="fill:#1f77b4;opacity:0.4;"/>
   </g>
   <g id="patch_26">
    <path clip-path="url(#pe4fc726d59)" d="M 194.977798 224.64 
L 199.656671 224.64 
L 199.656671 223.058536 
L 194.977798 223.058536 
z
" style="fill:#1f77b4;opacity:0.4;"/>
   </g>
   <g id="patch_27">
    <path clip-path="url(#pe4fc726d59)" d="M 199.656671 224.64 
L 204.335543 224.64 
L 204.335543 223.691122 
L 199.656671 223.691122 
z
" style="fill:#1f77b4;opacity:0.4;"/>
   </g>
   <g id="patch_28">
    <path clip-path="url(#pe4fc726d59)" d="M 204.335543 224.64 
L 209.014415 224.64 
L 209.014415 223.691122 
L 204.335543 223.691122 
z
" style="fill:#1f77b4;opacity:0.4;"/>
   </g>
   <g id="patch_29">
    <path clip-path="url(#pe4fc726d59)" d="M 209.014415 224.64 
L 213.693288 224.64 
L 213.693288 224.007415 
L 209.014415 224.007415 
z
" style="fill:#1f77b4;opacity:0.4;"/>
   </g>
   <g id="patch_30">
    <path clip-path="url(#pe4fc726d59)" d="M 213.693288 224.64 
L 218.37216 224.64 
L 218.37216 224.007415 
L 213.693288 224.007415 
z
" style="fill:#1f77b4;opacity:0.4;"/>
   </g>
   <g id="patch_31">
    <path clip-path="url(#pe4fc726d59)" d="M 218.37216 224.64 
L 223.051032 224.64 
L 223.051032 224.64 
L 218.37216 224.64 
z
" style="fill:#1f77b4;opacity:0.4;"/>
   </g>
   <g id="patch_32">
    <path clip-path="url(#pe4fc726d59)" d="M 223.051032 224.64 
L 227.729905 224.64 
L 227.729905 224.64 
L 223.051032 224.64 
z
" style="fill:#1f77b4;opacity:0.4;"/>
   </g>
   <g id="patch_33">
    <path clip-path="url(#pe4fc726d59)" d="M 227.729905 224.64 
L 232.408777 224.64 
L 232.408777 224.323707 
L 227.729905 224.323707 
z
" style="fill:#1f77b4;opacity:0.4;"/>
   </g>
   <g id="patch_34">
    <path clip-path="url(#pe4fc726d59)" d="M 232.408777 224.64 
L 237.087649 224.64 
L 237.087649 224.64 
L 232.408777 224.64 
z
" style="fill:#1f77b4;opacity:0.4;"/>
   </g>
   <g id="patch_35">
    <path clip-path="url(#pe4fc726d59)" d="M 237.087649 224.64 
L 241.766522 224.64 
L 241.766522 224.64 
L 237.087649 224.64 
z
" style="fill:#1f77b4;opacity:0.4;"/>
   </g>
   <g id="patch_36">
    <path clip-path="url(#pe4fc726d59)" d="M 241.766522 224.64 
L 246.445394 224.64 
L 246.445394 224.64 
L 241.766522 224.64 
z
" style="fill:#1f77b4;opacity:0.4;"/>
   </g>
   <g id="patch_37">
    <path clip-path="url(#pe4fc726d59)" d="M 246.445394 224.64 
L 251.124266 224.64 
L 251.124266 224.007415 
L 246.445394 224.007415 
z
" style="fill:#1f77b4;opacity:0.4;"/>
   </g>
   <g id="patch_38">
    <path clip-path="url(#pe4fc726d59)" d="M 251.124266 224.64 
L 255.803139 224.64 
L 255.803139 224.64 
L 251.124266 224.64 
z
" style="fill:#1f77b4;opacity:0.4;"/>
   </g>
   <g id="patch_39">
    <path clip-path="url(#pe4fc726d59)" d="M 255.803139 224.64 
L 260.482011 224.64 
L 260.482011 224.64 
L 255.803139 224.64 
z
" style="fill:#1f77b4;opacity:0.4;"/>
   </g>
   <g id="patch_40">
    <path clip-path="url(#pe4fc726d59)" d="M 260.482011 224.64 
L 265.160883 224.64 
L 265.160883 224.007415 
L 260.482011 224.007415 
z
" style="fill:#1f77b4;opacity:0.4;"/>
   </g>
   <g id="patch_41">
    <path clip-path="url(#pe4fc726d59)" d="M 265.160883 224.64 
L 269.839756 224.64 
L 269.839756 224.323707 
L 265.160883 224.323707 
z
" style="fill:#1f77b4;opacity:0.4;"/>
   </g>
   <g id="patch_42">
    <path clip-path="url(#pe4fc726d59)" d="M 269.839756 224.64 
L 274.518628 224.64 
L 274.518628 224.64 
L 269.839756 224.64 
z
" style="fill:#1f77b4;opacity:0.4;"/>
   </g>
   <g id="patch_43">
    <path clip-path="url(#pe4fc726d59)" d="M 274.518628 224.64 
L 279.1975 224.64 
L 279.1975 224.64 
L 274.518628 224.64 
z
" style="fill:#1f77b4;opacity:0.4;"/>
   </g>
   <g id="patch_44">
    <path clip-path="url(#pe4fc726d59)" d="M 279.1975 224.64 
L 283.876373 224.64 
L 283.876373 224.64 
L 279.1975 224.64 
z
" style="fill:#1f77b4;opacity:0.4;"/>
   </g>
   <g id="patch_45">
    <path clip-path="url(#pe4fc726d59)" d="M 283.876373 224.64 
L 288.555245 224.64 
L 288.555245 224.64 
L 283.876373 224.64 
z
" style="fill:#1f77b4;opacity:0.4;"/>
   </g>
   <g id="patch_46">
    <path clip-path="url(#pe4fc726d59)" d="M 288.555245 224.64 
L 293.234117 224.64 
L 293.234117 224.64 
L 288.555245 224.64 
z
" style="fill:#1f77b4;opacity:0.4;"/>
   </g>
   <g id="patch_47">
    <path clip-path="url(#pe4fc726d59)" d="M 293.234117 224.64 
L 297.91299 224.64 
L 297.91299 224.64 
L 293.234117 224.64 
z
" style="fill:#1f77b4;opacity:0.4;"/>
   </g>
   <g id="patch_48">
    <path clip-path="url(#pe4fc726d59)" d="M 297.91299 224.64 
L 302.591862 224.64 
L 302.591862 224.64 
L 297.91299 224.64 
z
" style="fill:#1f77b4;opacity:0.4;"/>
   </g>
   <g id="patch_49">
    <path clip-path="url(#pe4fc726d59)" d="M 302.591862 224.64 
L 307.270734 224.64 
L 307.270734 224.64 
L 302.591862 224.64 
z
" style="fill:#1f77b4;opacity:0.4;"/>
   </g>
   <g id="patch_50">
    <path clip-path="url(#pe4fc726d59)" d="M 307.270734 224.64 
L 311.949607 224.64 
L 311.949607 224.64 
L 307.270734 224.64 
z
" style="fill:#1f77b4;opacity:0.4;"/>
   </g>
   <g id="patch_51">
    <path clip-path="url(#pe4fc726d59)" d="M 311.949607 224.64 
L 316.628479 224.64 
L 316.628479 224.64 
L 311.949607 224.64 
z
" style="fill:#1f77b4;opacity:0.4;"/>
   </g>
   <g id="patch_52">
    <path clip-path="url(#pe4fc726d59)" d="M 316.628479 224.64 
L 321.307351 224.64 
L 321.307351 224.323707 
L 316.628479 224.323707 
z
" style="fill:#1f77b4;opacity:0.4;"/>
   </g>
   <g id="patch_53">
    <path clip-path="url(#pe4fc726d59)" d="M 85.191186 224.64 
L 90.485289 224.64 
L 90.485289 110.86877 
L 85.191186 110.86877 
z
" style="fill:#ff7f0e;opacity:0.4;"/>
   </g>
   <g id="patch_54">
    <path clip-path="url(#pe4fc726d59)" d="M 90.485289 224.64 
L 95.779391 224.64 
L 95.779391 152.240126 
L 90.485289 152.240126 
z
" style="fill:#ff7f0e;opacity:0.4;"/>
   </g>
   <g id="patch_55">
    <path clip-path="url(#pe4fc726d59)" d="M 95.779391 224.64 
L 101.073494 224.64 
L 101.073494 180.473282 
L 95.779391 180.473282 
z
" style="fill:#ff7f0e;opacity:0.4;"/>
   </g>
   <g id="patch_56">
    <path clip-path="url(#pe4fc726d59)" d="M 101.073494 224.64 
L 106.367596 224.64 
L 106.367596 213.458552 
L 101.073494 213.458552 
z
" style="fill:#ff7f0e;opacity:0.4;"/>
   </g>
   <g id="patch_57">
    <path clip-path="url(#pe4fc726d59)" d="M 106.367596 224.64 
L 111.661699 224.64 
L 111.661699 217.372059 
L 106.367596 217.372059 
z
" style="fill:#ff7f0e;opacity:0.4;"/>
   </g>
   <g id="patch_58">
    <path clip-path="url(#pe4fc726d59)" d="M 111.661699 224.64 
L 116.955801 224.64 
L 116.955801 219.887885 
L 111.661699 219.887885 
z
" style="fill:#ff7f0e;opacity:0.4;"/>
   </g>
   <g id="patch_59">
    <path clip-path="url(#pe4fc726d59)" d="M 116.955801 224.64 
L 122.249904 224.64 
L 122.249904 221.844638 
L 116.955801 221.844638 
z
" style="fill:#ff7f0e;opacity:0.4;"/>
   </g>
   <g id="patch_60">
    <path clip-path="url(#pe4fc726d59)" d="M 122.249904 224.64 
L 127.544007 224.64 
L 127.544007 222.683247 
L 122.249904 222.683247 
z
" style="fill:#ff7f0e;opacity:0.4;"/>
   </g>
   <g id="patch_61">
    <path clip-path="url(#pe4fc726d59)" d="M 127.544007 224.64 
L 132.838109 224.64 
L 132.838109 222.962783 
L 127.544007 222.962783 
z
" style="fill:#ff7f0e;opacity:0.4;"/>
   </g>
   <g id="patch_62">
    <path clip-path="url(#pe4fc726d59)" d="M 132.838109 224.64 
L 138.132212 224.64 
L 138.132212 223.242319 
L 132.838109 223.242319 
z
" style="fill:#ff7f0e;opacity:0.4;"/>
   </g>
   <g id="patch_63">
    <path clip-path="url(#pe4fc726d59)" d="M 138.132212 224.64 
L 143.426314 224.64 
L 143.426314 222.124174 
L 138.132212 222.124174 
z
" style="fill:#ff7f0e;opacity:0.4;"/>
   </g>
   <g id="patch_64">
    <path clip-path="url(#pe4fc726d59)" d="M 143.426314 224.64 
L 148.720417 224.64 
L 148.720417 224.360464 
L 143.426314 224.360464 
z
" style="fill:#ff7f0e;opacity:0.4;"/>
   </g>
   <g id="patch_65">
    <path clip-path="url(#pe4fc726d59)" d="M 148.720417 224.64 
L 154.014519 224.64 
L 154.014519 223.521855 
L 148.720417 223.521855 
z
" style="fill:#ff7f0e;opacity:0.4;"/>
   </g>
   <g id="patch_66">
    <path clip-path="url(#pe4fc726d59)" d="M 154.014519 224.64 
L 159.308622 224.64 
L 159.308622 223.242319 
L 154.014519 223.242319 
z
" style="fill:#ff7f0e;opacity:0.4;"/>
   </g>
   <g id="patch_67">
    <path clip-path="url(#pe4fc726d59)" d="M 159.308622 224.64 
L 164.602724 224.64 
L 164.602724 223.242319 
L 159.308622 223.242319 
z
" style="fill:#ff7f0e;opacity:0.4;"/>
   </g>
   <g id="patch_68">
    <path clip-path="url(#pe4fc726d59)" d="M 164.602724 224.64 
L 169.896827 224.64 
L 169.896827 223.242319 
L 164.602724 223.242319 
z
" style="fill:#ff7f0e;opacity:0.4;"/>
   </g>
   <g id="patch_69">
    <path clip-path="url(#pe4fc726d59)" d="M 169.896827 224.64 
L 175.19093 224.64 
L 175.19093 223.801391 
L 169.896827 223.801391 
z
" style="fill:#ff7f0e;opacity:0.4;"/>
   </g>
   <g id="patch_70">
    <path clip-path="url(#pe4fc726d59)" d="M 175.19093 224.64 
L 180.485032 224.64 
L 180.485032 223.242319 
L 175.19093 223.242319 
z
" style="fill:#ff7f0e;opacity:0.4;"/>
   </g>
   <g id="patch_71">
    <path clip-path="url(#pe4fc726d59)" d="M 180.485032 224.64 
L 185.779135 224.64 
L 185.779135 224.080928 
L 180.485032 224.080928 
z
" style="fill:#ff7f0e;opacity:0.4;"/>
   </g>
   <g id="patch_72">
    <path clip-path="url(#pe4fc726d59)" d="M 185.779135 224.64 
L 191.073237 224.64 
L 191.073237 223.801391 
L 185.779135 223.801391 
z
" style="fill:#ff7f0e;opacity:0.4;"/>
   </g>
   <g id="patch_73">
    <path clip-path="url(#pe4fc726d59)" d="M 191.073237 224.64 
L 196.36734 224.64 
L 196.36734 223.521855 
L 191.073237 223.521855 
z
" style="fill:#ff7f0e;opacity:0.4;"/>
   </g>
   <g id="patch_74">
    <path clip-path="url(#pe4fc726d59)" d="M 196.36734 224.64 
L 201.661442 224.64 
L 201.661442 224.080928 
L 196.36734 224.080928 
z
" style="fill:#ff7f0e;opacity:0.4;"/>
   </g>
   <g id="patch_75">
    <path clip-path="url(#pe4fc726d59)" d="M 201.661442 224.64 
L 206.955545 224.64 
L 206.955545 223.801391 
L 201.661442 223.801391 
z
" style="fill:#ff7f0e;opacity:0.4;"/>
   </g>
   <g id="patch_76">
    <path clip-path="url(#pe4fc726d59)" d="M 206.955545 224.64 
L 212.249647 224.64 
L 212.249647 223.801391 
L 206.955545 223.801391 
z
" style="fill:#ff7f0e;opacity:0.4;"/>
   </g>
   <g id="patch_77">
    <path clip-path="url(#pe4fc726d59)" d="M 212.249647 224.64 
L 217.54375 224.64 
L 217.54375 224.360464 
L 212.249647 224.360464 
z
" style="fill:#ff7f0e;opacity:0.4;"/>
   </g>
   <g id="patch_78">
    <path clip-path="url(#pe4fc726d59)" d="M 217.54375 224.64 
L 222.837853 224.64 
L 222.837853 224.360464 
L 217.54375 224.360464 
z
" style="fill:#ff7f0e;opacity:0.4;"/>
   </g>
   <g id="patch_79">
    <path clip-path="url(#pe4fc726d59)" d="M 222.837853 224.64 
L 228.131955 224.64 
L 228.131955 224.64 
L 222.837853 224.64 
z
" style="fill:#ff7f0e;opacity:0.4;"/>
   </g>
   <g id="patch_80">
    <path clip-path="url(#pe4fc726d59)" d="M 228.131955 224.64 
L 233.426058 224.64 
L 233.426058 224.360464 
L 228.131955 224.360464 
z
" style="fill:#ff7f0e;opacity:0.4;"/>
   </g>
   <g id="patch_81">
    <path clip-path="url(#pe4fc726d59)" d="M 233.426058 224.64 
L 238.72016 224.64 
L 238.72016 224.64 
L 233.426058 224.64 
z
" style="fill:#ff7f0e;opacity:0.4;"/>
   </g>
   <g id="patch_82">
    <path clip-path="url(#pe4fc726d59)" d="M 238.72016 224.64 
L 244.014263 224.64 
L 244.014263 224.360464 
L 238.72016 224.360464 
z
" style="fill:#ff7f0e;opacity:0.4;"/>
   </g>
   <g id="patch_83">
    <path clip-path="url(#pe4fc726d59)" d="M 244.014263 224.64 
L 249.308365 224.64 
L 249.308365 224.360464 
L 244.014263 224.360464 
z
" style="fill:#ff7f0e;opacity:0.4;"/>
   </g>
   <g id="patch_84">
    <path clip-path="url(#pe4fc726d59)" d="M 249.308365 224.64 
L 254.602468 224.64 
L 254.602468 224.64 
L 249.308365 224.64 
z
" style="fill:#ff7f0e;opacity:0.4;"/>
   </g>
   <g id="patch_85">
    <path clip-path="url(#pe4fc726d59)" d="M 254.602468 224.64 
L 259.89657 224.64 
L 259.89657 224.360464 
L 254.602468 224.360464 
z
" style="fill:#ff7f0e;opacity:0.4;"/>
   </g>
   <g id="patch_86">
    <path clip-path="url(#pe4fc726d59)" d="M 259.89657 224.64 
L 265.190673 224.64 
L 265.190673 224.360464 
L 259.89657 224.360464 
z
" style="fill:#ff7f0e;opacity:0.4;"/>
   </g>
   <g id="patch_87">
    <path clip-path="url(#pe4fc726d59)" d="M 265.190673 224.64 
L 270.484776 224.64 
L 270.484776 224.64 
L 265.190673 224.64 
z
" style="fill:#ff7f0e;opacity:0.4;"/>
   </g>
   <g id="patch_88">
    <path clip-path="url(#pe4fc726d59)" d="M 270.484776 224.64 
L 275.778878 224.64 
L 275.778878 224.360464 
L 270.484776 224.360464 
z
" style="fill:#ff7f0e;opacity:0.4;"/>
   </g>
   <g id="patch_89">
    <path clip-path="url(#pe4fc726d59)" d="M 275.778878 224.64 
L 281.072981 224.64 
L 281.072981 224.360464 
L 275.778878 224.360464 
z
" style="fill:#ff7f0e;opacity:0.4;"/>
   </g>
   <g id="patch_90">
    <path clip-path="url(#pe4fc726d59)" d="M 281.072981 224.64 
L 286.367083 224.64 
L 286.367083 224.360464 
L 281.072981 224.360464 
z
" style="fill:#ff7f0e;opacity:0.4;"/>
   </g>
   <g id="patch_91">
    <path clip-path="url(#pe4fc726d59)" d="M 286.367083 224.64 
L 291.661186 224.64 
L 291.661186 224.64 
L 286.367083 224.64 
z
" style="fill:#ff7f0e;opacity:0.4;"/>
   </g>
   <g id="patch_92">
    <path clip-path="url(#pe4fc726d59)" d="M 291.661186 224.64 
L 296.955288 224.64 
L 296.955288 224.64 
L 291.661186 224.64 
z
" style="fill:#ff7f0e;opacity:0.4;"/>
   </g>
   <g id="patch_93">
    <path clip-path="url(#pe4fc726d59)" d="M 296.955288 224.64 
L 302.249391 224.64 
L 302.249391 224.64 
L 296.955288 224.64 
z
" style="fill:#ff7f0e;opacity:0.4;"/>
   </g>
   <g id="patch_94">
    <path clip-path="url(#pe4fc726d59)" d="M 302.249391 224.64 
L 307.543493 224.64 
L 307.543493 224.64 
L 302.249391 224.64 
z
" style="fill:#ff7f0e;opacity:0.4;"/>
   </g>
   <g id="patch_95">
    <path clip-path="url(#pe4fc726d59)" d="M 307.543493 224.64 
L 312.837596 224.64 
L 312.837596 224.64 
L 307.543493 224.64 
z
" style="fill:#ff7f0e;opacity:0.4;"/>
   </g>
   <g id="patch_96">
    <path clip-path="url(#pe4fc726d59)" d="M 312.837596 224.64 
L 318.131699 224.64 
L 318.131699 224.64 
L 312.837596 224.64 
z
" style="fill:#ff7f0e;opacity:0.4;"/>
   </g>
   <g id="patch_97">
    <path clip-path="url(#pe4fc726d59)" d="M 318.131699 224.64 
L 323.425801 224.64 
L 323.425801 224.64 
L 318.131699 224.64 
z
" style="fill:#ff7f0e;opacity:0.4;"/>
   </g>
   <g id="patch_98">
    <path clip-path="url(#pe4fc726d59)" d="M 323.425801 224.64 
L 328.719904 224.64 
L 328.719904 224.64 
L 323.425801 224.64 
z
" style="fill:#ff7f0e;opacity:0.4;"/>
   </g>
   <g id="patch_99">
    <path clip-path="url(#pe4fc726d59)" d="M 328.719904 224.64 
L 334.014006 224.64 
L 334.014006 224.64 
L 328.719904 224.64 
z
" style="fill:#ff7f0e;opacity:0.4;"/>
   </g>
   <g id="patch_100">
    <path clip-path="url(#pe4fc726d59)" d="M 334.014006 224.64 
L 339.308109 224.64 
L 339.308109 224.64 
L 334.014006 224.64 
z
" style="fill:#ff7f0e;opacity:0.4;"/>
   </g>
   <g id="patch_101">
    <path clip-path="url(#pe4fc726d59)" d="M 339.308109 224.64 
L 344.602211 224.64 
L 344.602211 224.64 
L 339.308109 224.64 
z
" style="fill:#ff7f0e;opacity:0.4;"/>
   </g>
   <g id="patch_102">
    <path clip-path="url(#pe4fc726d59)" d="M 344.602211 224.64 
L 349.896314 224.64 
L 349.896314 224.360464 
L 344.602211 224.360464 
z
" style="fill:#ff7f0e;opacity:0.4;"/>
   </g>
   <g id="patch_103">
    <path clip-path="url(#pe4fc726d59)" d="M 85.191186 224.64 
L 89.307446 224.64 
L 89.307446 17.554286 
L 85.191186 17.554286 
z
" style="fill:#2ca02c;opacity:0.4;"/>
   </g>
   <g id="patch_104">
    <path clip-path="url(#pe4fc726d59)" d="M 89.307446 224.64 
L 93.423705 224.64 
L 93.423705 174.66619 
L 89.307446 174.66619 
z
" style="fill:#2ca02c;opacity:0.4;"/>
   </g>
   <g id="patch_105">
    <path clip-path="url(#pe4fc726d59)" d="M 93.423705 224.64 
L 97.539964 224.64 
L 97.539964 191.204286 
L 93.423705 191.204286 
z
" style="fill:#2ca02c;opacity:0.4;"/>
   </g>
   <g id="patch_106">
    <path clip-path="url(#pe4fc726d59)" d="M 97.539964 224.64 
L 101.656224 224.64 
L 101.656224 214.932857 
L 97.539964 214.932857 
z
" style="fill:#2ca02c;opacity:0.4;"/>
   </g>
   <g id="patch_107">
    <path clip-path="url(#pe4fc726d59)" d="M 101.656224 224.64 
L 105.772483 224.64 
L 105.772483 216.730476 
L 101.656224 216.730476 
z
" style="fill:#2ca02c;opacity:0.4;"/>
   </g>
   <g id="patch_108">
    <path clip-path="url(#pe4fc726d59)" d="M 105.772483 224.64 
L 109.888743 224.64 
L 109.888743 217.09 
L 105.772483 217.09 
z
" style="fill:#2ca02c;opacity:0.4;"/>
   </g>
   <g id="patch_109">
    <path clip-path="url(#pe4fc726d59)" d="M 109.888743 224.64 
L 114.005002 224.64 
L 114.005002 216.730476 
L 109.888743 216.730476 
z
" style="fill:#2ca02c;opacity:0.4;"/>
   </g>
   <g id="patch_110">
    <path clip-path="url(#pe4fc726d59)" d="M 114.005002 224.64 
L 118.121262 224.64 
L 118.121262 218.528095 
L 114.005002 218.528095 
z
" style="fill:#2ca02c;opacity:0.4;"/>
   </g>
   <g id="patch_111">
    <path clip-path="url(#pe4fc726d59)" d="M 118.121262 224.64 
L 122.237521 224.64 
L 122.237521 220.685238 
L 118.121262 220.685238 
z
" style="fill:#2ca02c;opacity:0.4;"/>
   </g>
   <g id="patch_112">
    <path clip-path="url(#pe4fc726d59)" d="M 122.237521 224.64 
L 126.35378 224.64 
L 126.35378 219.247143 
L 122.237521 219.247143 
z
" style="fill:#2ca02c;opacity:0.4;"/>
   </g>
   <g id="patch_113">
    <path clip-path="url(#pe4fc726d59)" d="M 126.35378 224.64 
L 130.47004 224.64 
L 130.47004 221.76381 
L 126.35378 221.76381 
z
" style="fill:#2ca02c;opacity:0.4;"/>
   </g>
   <g id="patch_114">
    <path clip-path="url(#pe4fc726d59)" d="M 130.47004 224.64 
L 134.586299 224.64 
L 134.586299 221.404286 
L 130.47004 221.404286 
z
" style="fill:#2ca02c;opacity:0.4;"/>
   </g>
   <g id="patch_115">
    <path clip-path="url(#pe4fc726d59)" d="M 134.586299 224.64 
L 138.702559 224.64 
L 138.702559 222.482857 
L 134.586299 222.482857 
z
" style="fill:#2ca02c;opacity:0.4;"/>
   </g>
   <g id="patch_116">
    <path clip-path="url(#pe4fc726d59)" d="M 138.702559 224.64 
L 142.818818 224.64 
L 142.818818 223.920952 
L 138.702559 223.920952 
z
" style="fill:#2ca02c;opacity:0.4;"/>
   </g>
   <g id="patch_117">
    <path clip-path="url(#pe4fc726d59)" d="M 142.818818 224.64 
L 146.935078 224.64 
L 146.935078 222.842381 
L 142.818818 222.842381 
z
" style="fill:#2ca02c;opacity:0.4;"/>
   </g>
   <g id="patch_118">
    <path clip-path="url(#pe4fc726d59)" d="M 146.935078 224.64 
L 151.051337 224.64 
L 151.051337 222.842381 
L 146.935078 222.842381 
z
" style="fill:#2ca02c;opacity:0.4;"/>
   </g>
   <g id="patch_119">
    <path clip-path="url(#pe4fc726d59)" d="M 151.051337 224.64 
L 155.167596 224.64 
L 155.167596 223.920952 
L 151.051337 223.920952 
z
" style="fill:#2ca02c;opacity:0.4;"/>
   </g>
   <g id="patch_120">
    <path clip-path="url(#pe4fc726d59)" d="M 155.167596 224.64 
L 159.283856 224.64 
L 159.283856 223.201905 
L 155.167596 223.201905 
z
" style="fill:#2ca02c;opacity:0.4;"/>
   </g>
   <g id="patch_121">
    <path clip-path="url(#pe4fc726d59)" d="M 159.283856 224.64 
L 163.400115 224.64 
L 163.400115 224.64 
L 159.283856 224.64 
z
" style="fill:#2ca02c;opacity:0.4;"/>
   </g>
   <g id="patch_122">
    <path clip-path="url(#pe4fc726d59)" d="M 163.400115 224.64 
L 167.516375 224.64 
L 167.516375 223.920952 
L 163.400115 223.920952 
z
" style="fill:#2ca02c;opacity:0.4;"/>
   </g>
   <g id="patch_123">
    <path clip-path="url(#pe4fc726d59)" d="M 167.516375 224.64 
L 171.632634 224.64 
L 171.632634 224.64 
L 167.516375 224.64 
z
" style="fill:#2ca02c;opacity:0.4;"/>
   </g>
   <g id="patch_124">
    <path clip-path="url(#pe4fc726d59)" d="M 171.632634 224.64 
L 175.748894 224.64 
L 175.748894 224.64 
L 171.632634 224.64 
z
" style="fill:#2ca02c;opacity:0.4;"/>
   </g>
   <g id="patch_125">
    <path clip-path="url(#pe4fc726d59)" d="M 175.748894 224.64 
L 179.865153 224.64 
L 179.865153 223.920952 
L 175.748894 223.920952 
z
" style="fill:#2ca02c;opacity:0.4;"/>
   </g>
   <g id="patch_126">
    <path clip-path="url(#pe4fc726d59)" d="M 179.865153 224.64 
L 183.981412 224.64 
L 183.981412 223.561429 
L 179.865153 223.561429 
z
" style="fill:#2ca02c;opacity:0.4;"/>
   </g>
   <g id="patch_127">
    <path clip-path="url(#pe4fc726d59)" d="M 183.981412 224.64 
L 188.097672 224.64 
L 188.097672 224.280476 
L 183.981412 224.280476 
z
" style="fill:#2ca02c;opacity:0.4;"/>
   </g>
   <g id="patch_128">
    <path clip-path="url(#pe4fc726d59)" d="M 188.097672 224.64 
L 192.213931 224.64 
L 192.213931 223.920952 
L 188.097672 223.920952 
z
" style="fill:#2ca02c;opacity:0.4;"/>
   </g>
   <g id="patch_129">
    <path clip-path="url(#pe4fc726d59)" d="M 192.213931 224.64 
L 196.330191 224.64 
L 196.330191 223.920952 
L 192.213931 223.920952 
z
" style="fill:#2ca02c;opacity:0.4;"/>
   </g>
   <g id="patch_130">
    <path clip-path="url(#pe4fc726d59)" d="M 196.330191 224.64 
L 200.44645 224.64 
L 200.44645 224.64 
L 196.330191 224.64 
z
" style="fill:#2ca02c;opacity:0.4;"/>
   </g>
   <g id="patch_131">
    <path clip-path="url(#pe4fc726d59)" d="M 200.44645 224.64 
L 204.562709 224.64 
L 204.562709 224.64 
L 200.44645 224.64 
z
" style="fill:#2ca02c;opacity:0.4;"/>
   </g>
   <g id="patch_132">
    <path clip-path="url(#pe4fc726d59)" d="M 204.562709 224.64 
L 208.678969 224.64 
L 208.678969 224.64 
L 204.562709 224.64 
z
" style="fill:#2ca02c;opacity:0.4;"/>
   </g>
   <g id="patch_133">
    <path clip-path="url(#pe4fc726d59)" d="M 208.678969 224.64 
L 212.795228 224.64 
L 212.795228 224.64 
L 208.678969 224.64 
z
" style="fill:#2ca02c;opacity:0.4;"/>
   </g>
   <g id="patch_134">
    <path clip-path="url(#pe4fc726d59)" d="M 212.795228 224.64 
L 216.911488 224.64 
L 216.911488 224.64 
L 212.795228 224.64 
z
" style="fill:#2ca02c;opacity:0.4;"/>
   </g>
   <g id="patch_135">
    <path clip-path="url(#pe4fc726d59)" d="M 216.911488 224.64 
L 221.027747 224.64 
L 221.027747 224.64 
L 216.911488 224.64 
z
" style="fill:#2ca02c;opacity:0.4;"/>
   </g>
   <g id="patch_136">
    <path clip-path="url(#pe4fc726d59)" d="M 221.027747 224.64 
L 225.144007 224.64 
L 225.144007 224.280476 
L 221.027747 224.280476 
z
" style="fill:#2ca02c;opacity:0.4;"/>
   </g>
   <g id="patch_137">
    <path clip-path="url(#pe4fc726d59)" d="M 225.144007 224.64 
L 229.260266 224.64 
L 229.260266 224.64 
L 225.144007 224.64 
z
" style="fill:#2ca02c;opacity:0.4;"/>
   </g>
   <g id="patch_138">
    <path clip-path="url(#pe4fc726d59)" d="M 229.260266 224.64 
L 233.376525 224.64 
L 233.376525 224.64 
L 229.260266 224.64 
z
" style="fill:#2ca02c;opacity:0.4;"/>
   </g>
   <g id="patch_139">
    <path clip-path="url(#pe4fc726d59)" d="M 233.376525 224.64 
L 237.492785 224.64 
L 237.492785 224.280476 
L 233.376525 224.280476 
z
" style="fill:#2ca02c;opacity:0.4;"/>
   </g>
   <g id="patch_140">
    <path clip-path="url(#pe4fc726d59)" d="M 237.492785 224.64 
L 241.609044 224.64 
L 241.609044 224.280476 
L 237.492785 224.280476 
z
" style="fill:#2ca02c;opacity:0.4;"/>
   </g>
   <g id="patch_141">
    <path clip-path="url(#pe4fc726d59)" d="M 241.609044 224.64 
L 245.725304 224.64 
L 245.725304 224.64 
L 241.609044 224.64 
z
" style="fill:#2ca02c;opacity:0.4;"/>
   </g>
   <g id="patch_142">
    <path clip-path="url(#pe4fc726d59)" d="M 245.725304 224.64 
L 249.841563 224.64 
L 249.841563 224.64 
L 245.725304 224.64 
z
" style="fill:#2ca02c;opacity:0.4;"/>
   </g>
   <g id="patch_143">
    <path clip-path="url(#pe4fc726d59)" d="M 249.841563 224.64 
L 253.957823 224.64 
L 253.957823 224.64 
L 249.841563 224.64 
z
" style="fill:#2ca02c;opacity:0.4;"/>
   </g>
   <g id="patch_144">
    <path clip-path="url(#pe4fc726d59)" d="M 253.957823 224.64 
L 258.074082 224.64 
L 258.074082 224.64 
L 253.957823 224.64 
z
" style="fill:#2ca02c;opacity:0.4;"/>
   </g>
   <g id="patch_145">
    <path clip-path="url(#pe4fc726d59)" d="M 258.074082 224.64 
L 262.190341 224.64 
L 262.190341 224.64 
L 258.074082 224.64 
z
" style="fill:#2ca02c;opacity:0.4;"/>
   </g>
   <g id="patch_146">
    <path clip-path="url(#pe4fc726d59)" d="M 262.190341 224.64 
L 266.306601 224.64 
L 266.306601 224.64 
L 262.190341 224.64 
z
" style="fill:#2ca02c;opacity:0.4;"/>
   </g>
   <g id="patch_147">
    <path clip-path="url(#pe4fc726d59)" d="M 266.306601 224.64 
L 270.42286 224.64 
L 270.42286 224.64 
L 266.306601 224.64 
z
" style="fill:#2ca02c;opacity:0.4;"/>
   </g>
   <g id="patch_148">
    <path clip-path="url(#pe4fc726d59)" d="M 270.42286 224.64 
L 274.53912 224.64 
L 274.53912 224.64 
L 270.42286 224.64 
z
" style="fill:#2ca02c;opacity:0.4;"/>
   </g>
   <g id="patch_149">
    <path clip-path="url(#pe4fc726d59)" d="M 274.53912 224.64 
L 278.655379 224.64 
L 278.655379 224.64 
L 274.53912 224.64 
z
" style="fill:#2ca02c;opacity:0.4;"/>
   </g>
   <g id="patch_150">
    <path clip-path="url(#pe4fc726d59)" d="M 278.655379 224.64 
L 282.771639 224.64 
L 282.771639 224.64 
L 278.655379 224.64 
z
" style="fill:#2ca02c;opacity:0.4;"/>
   </g>
   <g id="patch_151">
    <path clip-path="url(#pe4fc726d59)" d="M 282.771639 224.64 
L 286.887898 224.64 
L 286.887898 224.64 
L 282.771639 224.64 
z
" style="fill:#2ca02c;opacity:0.4;"/>
   </g>
   <g id="patch_152">
    <path clip-path="url(#pe4fc726d59)" d="M 286.887898 224.64 
L 291.004157 224.64 
L 291.004157 224.280476 
L 286.887898 224.280476 
z
" style="fill:#2ca02c;opacity:0.4;"/>
   </g>
   <g id="matplotlib.axis_1">
    <g id="xtick_1">
     <g id="line2d_1">
      <defs>
       <path d="M 0 0 
L 0 3.5 
" id="m0db49883e0" style="stroke:#000000;stroke-width:0.8;"/>
      </defs>
      <g>
       <use style="stroke:#000000;stroke-width:0.8;" x="85.191186" xlink:href="#m0db49883e0" y="224.64"/>
      </g>
     </g>
     <g id="text_1">
      <!-- 0 -->
      <g transform="translate(82.009936 239.238437)scale(0.1 -0.1)">
       <defs>
        <path d="M 31.78125 66.40625 
Q 24.171875 66.40625 20.328125 58.90625 
Q 16.5 51.421875 16.5 36.375 
Q 16.5 21.390625 20.328125 13.890625 
Q 24.171875 6.390625 31.78125 6.390625 
Q 39.453125 6.390625 43.28125 13.890625 
Q 47.125 21.390625 47.125 36.375 
Q 47.125 51.421875 43.28125 58.90625 
Q 39.453125 66.40625 31.78125 66.40625 
z
M 31.78125 74.21875 
Q 44.046875 74.21875 50.515625 64.515625 
Q 56.984375 54.828125 56.984375 36.375 
Q 56.984375 17.96875 50.515625 8.265625 
Q 44.046875 -1.421875 31.78125 -1.421875 
Q 19.53125 -1.421875 13.0625 8.265625 
Q 6.59375 17.96875 6.59375 36.375 
Q 6.59375 54.828125 13.0625 64.515625 
Q 19.53125 74.21875 31.78125 74.21875 
z
" id="DejaVuSans-48"/>
       </defs>
       <use xlink:href="#DejaVuSans-48"/>
      </g>
     </g>
    </g>
    <g id="xtick_2">
     <g id="line2d_2">
      <g>
       <use style="stroke:#000000;stroke-width:0.8;" x="151.637494" xlink:href="#m0db49883e0" y="224.64"/>
      </g>
     </g>
     <g id="text_2">
      <!-- 5 -->
      <g transform="translate(148.456244 239.238437)scale(0.1 -0.1)">
       <defs>
        <path d="M 10.796875 72.90625 
L 49.515625 72.90625 
L 49.515625 64.59375 
L 19.828125 64.59375 
L 19.828125 46.734375 
Q 21.96875 47.46875 24.109375 47.828125 
Q 26.265625 48.1875 28.421875 48.1875 
Q 40.625 48.1875 47.75 41.5 
Q 54.890625 34.8125 54.890625 23.390625 
Q 54.890625 11.625 47.5625 5.09375 
Q 40.234375 -1.421875 26.90625 -1.421875 
Q 22.3125 -1.421875 17.546875 -0.640625 
Q 12.796875 0.140625 7.71875 1.703125 
L 7.71875 11.625 
Q 12.109375 9.234375 16.796875 8.0625 
Q 21.484375 6.890625 26.703125 6.890625 
Q 35.15625 6.890625 40.078125 11.328125 
Q 45.015625 15.765625 45.015625 23.390625 
Q 45.015625 31 40.078125 35.4375 
Q 35.15625 39.890625 26.703125 39.890625 
Q 22.75 39.890625 18.8125 39.015625 
Q 14.890625 38.140625 10.796875 36.28125 
z
" id="DejaVuSans-53"/>
       </defs>
       <use xlink:href="#DejaVuSans-53"/>
      </g>
     </g>
    </g>
    <g id="xtick_3">
     <g id="line2d_3">
      <g>
       <use style="stroke:#000000;stroke-width:0.8;" x="218.083803" xlink:href="#m0db49883e0" y="224.64"/>
      </g>
     </g>
     <g id="text_3">
      <!-- 10 -->
      <g transform="translate(211.721303 239.238437)scale(0.1 -0.1)">
       <defs>
        <path d="M 12.40625 8.296875 
L 28.515625 8.296875 
L 28.515625 63.921875 
L 10.984375 60.40625 
L 10.984375 69.390625 
L 28.421875 72.90625 
L 38.28125 72.90625 
L 38.28125 8.296875 
L 54.390625 8.296875 
L 54.390625 0 
L 12.40625 0 
z
" id="DejaVuSans-49"/>
       </defs>
       <use xlink:href="#DejaVuSans-49"/>
       <use x="63.623047" xlink:href="#DejaVuSans-48"/>
      </g>
     </g>
    </g>
    <g id="xtick_4">
     <g id="line2d_4">
      <g>
       <use style="stroke:#000000;stroke-width:0.8;" x="284.530111" xlink:href="#m0db49883e0" y="224.64"/>
      </g>
     </g>
     <g id="text_4">
      <!-- 15 -->
      <g transform="translate(278.167611 239.238437)scale(0.1 -0.1)">
       <use xlink:href="#DejaVuSans-49"/>
       <use x="63.623047" xlink:href="#DejaVuSans-53"/>
      </g>
     </g>
    </g>
    <g id="xtick_5">
     <g id="line2d_5">
      <g>
       <use style="stroke:#000000;stroke-width:0.8;" x="350.976419" xlink:href="#m0db49883e0" y="224.64"/>
      </g>
     </g>
     <g id="text_5">
      <!-- 20 -->
      <g transform="translate(344.613919 239.238437)scale(0.1 -0.1)">
       <defs>
        <path d="M 19.1875 8.296875 
L 53.609375 8.296875 
L 53.609375 0 
L 7.328125 0 
L 7.328125 8.296875 
Q 12.9375 14.109375 22.625 23.890625 
Q 32.328125 33.6875 34.8125 36.53125 
Q 39.546875 41.84375 41.421875 45.53125 
Q 43.3125 49.21875 43.3125 52.78125 
Q 43.3125 58.59375 39.234375 62.25 
Q 35.15625 65.921875 28.609375 65.921875 
Q 23.96875 65.921875 18.8125 64.3125 
Q 13.671875 62.703125 7.8125 59.421875 
L 7.8125 69.390625 
Q 13.765625 71.78125 18.9375 73 
Q 24.125 74.21875 28.421875 74.21875 
Q 39.75 74.21875 46.484375 68.546875 
Q 53.21875 62.890625 53.21875 53.421875 
Q 53.21875 48.921875 51.53125 44.890625 
Q 49.859375 40.875 45.40625 35.40625 
Q 44.1875 33.984375 37.640625 27.21875 
Q 31.109375 20.453125 19.1875 8.296875 
z
" id="DejaVuSans-50"/>
       </defs>
       <use xlink:href="#DejaVuSans-50"/>
       <use x="63.623047" xlink:href="#DejaVuSans-48"/>
      </g>
     </g>
    </g>
    <g id="text_6">
     <!-- f(t) -->
     <g transform="translate(209.921875 252.916562)scale(0.1 -0.1)">
      <defs>
       <path d="M 37.109375 75.984375 
L 37.109375 68.5 
L 28.515625 68.5 
Q 23.6875 68.5 21.796875 66.546875 
Q 19.921875 64.59375 19.921875 59.515625 
L 19.921875 54.6875 
L 34.71875 54.6875 
L 34.71875 47.703125 
L 19.921875 47.703125 
L 19.921875 0 
L 10.890625 0 
L 10.890625 47.703125 
L 2.296875 47.703125 
L 2.296875 54.6875 
L 10.890625 54.6875 
L 10.890625 58.5 
Q 10.890625 67.625 15.140625 71.796875 
Q 19.390625 75.984375 28.609375 75.984375 
z
" id="DejaVuSans-102"/>
       <path d="M 31 75.875 
Q 24.46875 64.65625 21.28125 53.65625 
Q 18.109375 42.671875 18.109375 31.390625 
Q 18.109375 20.125 21.3125 9.0625 
Q 24.515625 -2 31 -13.1875 
L 23.1875 -13.1875 
Q 15.875 -1.703125 12.234375 9.375 
Q 8.59375 20.453125 8.59375 31.390625 
Q 8.59375 42.28125 12.203125 53.3125 
Q 15.828125 64.359375 23.1875 75.875 
z
" id="DejaVuSans-40"/>
       <path d="M 18.3125 70.21875 
L 18.3125 54.6875 
L 36.8125 54.6875 
L 36.8125 47.703125 
L 18.3125 47.703125 
L 18.3125 18.015625 
Q 18.3125 11.328125 20.140625 9.421875 
Q 21.96875 7.515625 27.59375 7.515625 
L 36.8125 7.515625 
L 36.8125 0 
L 27.59375 0 
Q 17.1875 0 13.234375 3.875 
Q 9.28125 7.765625 9.28125 18.015625 
L 9.28125 47.703125 
L 2.6875 47.703125 
L 2.6875 54.6875 
L 9.28125 54.6875 
L 9.28125 70.21875 
z
" id="DejaVuSans-116"/>
       <path d="M 8.015625 75.875 
L 15.828125 75.875 
Q 23.140625 64.359375 26.78125 53.3125 
Q 30.421875 42.28125 30.421875 31.390625 
Q 30.421875 20.453125 26.78125 9.375 
Q 23.140625 -1.703125 15.828125 -13.1875 
L 8.015625 -13.1875 
Q 14.5 -2 17.703125 9.0625 
Q 20.90625 20.125 20.90625 31.390625 
Q 20.90625 42.671875 17.703125 53.65625 
Q 14.5 64.65625 8.015625 75.875 
z
" id="DejaVuSans-41"/>
      </defs>
      <use xlink:href="#DejaVuSans-102"/>
      <use x="35.205078" xlink:href="#DejaVuSans-40"/>
      <use x="74.21875" xlink:href="#DejaVuSans-116"/>
      <use x="113.427734" xlink:href="#DejaVuSans-41"/>
     </g>
    </g>
   </g>
   <g id="matplotlib.axis_2">
    <g id="ytick_1">
     <g id="line2d_6">
      <defs>
       <path d="M 0 0 
L -3.5 0 
" id="md866d2963e" style="stroke:#000000;stroke-width:0.8;"/>
      </defs>
      <g>
       <use style="stroke:#000000;stroke-width:0.8;" x="50.14375" xlink:href="#md866d2963e" y="224.64"/>
      </g>
     </g>
     <g id="text_7">
      <!-- 0.00 -->
      <g transform="translate(20.878125 228.439219)scale(0.1 -0.1)">
       <defs>
        <path d="M 10.6875 12.40625 
L 21 12.40625 
L 21 0 
L 10.6875 0 
z
" id="DejaVuSans-46"/>
       </defs>
       <use xlink:href="#DejaVuSans-48"/>
       <use x="63.623047" xlink:href="#DejaVuSans-46"/>
       <use x="95.410156" xlink:href="#DejaVuSans-48"/>
       <use x="159.033203" xlink:href="#DejaVuSans-48"/>
      </g>
     </g>
    </g>
    <g id="ytick_2">
     <g id="line2d_7">
      <g>
       <use style="stroke:#000000;stroke-width:0.8;" x="50.14375" xlink:href="#md866d2963e" y="196.799979"/>
      </g>
     </g>
     <g id="text_8">
      <!-- 0.25 -->
      <g transform="translate(20.878125 200.599198)scale(0.1 -0.1)">
       <use xlink:href="#DejaVuSans-48"/>
       <use x="63.623047" xlink:href="#DejaVuSans-46"/>
       <use x="95.410156" xlink:href="#DejaVuSans-50"/>
       <use x="159.033203" xlink:href="#DejaVuSans-53"/>
      </g>
     </g>
    </g>
    <g id="ytick_3">
     <g id="line2d_8">
      <g>
       <use style="stroke:#000000;stroke-width:0.8;" x="50.14375" xlink:href="#md866d2963e" y="168.959959"/>
      </g>
     </g>
     <g id="text_9">
      <!-- 0.50 -->
      <g transform="translate(20.878125 172.759178)scale(0.1 -0.1)">
       <use xlink:href="#DejaVuSans-48"/>
       <use x="63.623047" xlink:href="#DejaVuSans-46"/>
       <use x="95.410156" xlink:href="#DejaVuSans-53"/>
       <use x="159.033203" xlink:href="#DejaVuSans-48"/>
      </g>
     </g>
    </g>
    <g id="ytick_4">
     <g id="line2d_9">
      <g>
       <use style="stroke:#000000;stroke-width:0.8;" x="50.14375" xlink:href="#md866d2963e" y="141.119938"/>
      </g>
     </g>
     <g id="text_10">
      <!-- 0.75 -->
      <g transform="translate(20.878125 144.919157)scale(0.1 -0.1)">
       <defs>
        <path d="M 8.203125 72.90625 
L 55.078125 72.90625 
L 55.078125 68.703125 
L 28.609375 0 
L 18.3125 0 
L 43.21875 64.59375 
L 8.203125 64.59375 
z
" id="DejaVuSans-55"/>
       </defs>
       <use xlink:href="#DejaVuSans-48"/>
       <use x="63.623047" xlink:href="#DejaVuSans-46"/>
       <use x="95.410156" xlink:href="#DejaVuSans-55"/>
       <use x="159.033203" xlink:href="#DejaVuSans-53"/>
      </g>
     </g>
    </g>
    <g id="ytick_5">
     <g id="line2d_10">
      <g>
       <use style="stroke:#000000;stroke-width:0.8;" x="50.14375" xlink:href="#md866d2963e" y="113.279918"/>
      </g>
     </g>
     <g id="text_11">
      <!-- 1.00 -->
      <g transform="translate(20.878125 117.079137)scale(0.1 -0.1)">
       <use xlink:href="#DejaVuSans-49"/>
       <use x="63.623047" xlink:href="#DejaVuSans-46"/>
       <use x="95.410156" xlink:href="#DejaVuSans-48"/>
       <use x="159.033203" xlink:href="#DejaVuSans-48"/>
      </g>
     </g>
    </g>
    <g id="ytick_6">
     <g id="line2d_11">
      <g>
       <use style="stroke:#000000;stroke-width:0.8;" x="50.14375" xlink:href="#md866d2963e" y="85.439897"/>
      </g>
     </g>
     <g id="text_12">
      <!-- 1.25 -->
      <g transform="translate(20.878125 89.239116)scale(0.1 -0.1)">
       <use xlink:href="#DejaVuSans-49"/>
       <use x="63.623047" xlink:href="#DejaVuSans-46"/>
       <use x="95.410156" xlink:href="#DejaVuSans-50"/>
       <use x="159.033203" xlink:href="#DejaVuSans-53"/>
      </g>
     </g>
    </g>
    <g id="ytick_7">
     <g id="line2d_12">
      <g>
       <use style="stroke:#000000;stroke-width:0.8;" x="50.14375" xlink:href="#md866d2963e" y="57.599877"/>
      </g>
     </g>
     <g id="text_13">
      <!-- 1.50 -->
      <g transform="translate(20.878125 61.399095)scale(0.1 -0.1)">
       <use xlink:href="#DejaVuSans-49"/>
       <use x="63.623047" xlink:href="#DejaVuSans-46"/>
       <use x="95.410156" xlink:href="#DejaVuSans-53"/>
       <use x="159.033203" xlink:href="#DejaVuSans-48"/>
      </g>
     </g>
    </g>
    <g id="ytick_8">
     <g id="line2d_13">
      <g>
       <use style="stroke:#000000;stroke-width:0.8;" x="50.14375" xlink:href="#md866d2963e" y="29.759856"/>
      </g>
     </g>
     <g id="text_14">
      <!-- 1.75 -->
      <g transform="translate(20.878125 33.559075)scale(0.1 -0.1)">
       <use xlink:href="#DejaVuSans-49"/>
       <use x="63.623047" xlink:href="#DejaVuSans-46"/>
       <use x="95.410156" xlink:href="#DejaVuSans-55"/>
       <use x="159.033203" xlink:href="#DejaVuSans-53"/>
      </g>
     </g>
    </g>
    <g id="text_15">
     <!-- Density -->
     <g transform="translate(14.798438 134.928594)rotate(-90)scale(0.1 -0.1)">
      <defs>
       <path d="M 19.671875 64.796875 
L 19.671875 8.109375 
L 31.59375 8.109375 
Q 46.6875 8.109375 53.6875 14.9375 
Q 60.6875 21.78125 60.6875 36.53125 
Q 60.6875 51.171875 53.6875 57.984375 
Q 46.6875 64.796875 31.59375 64.796875 
z
M 9.8125 72.90625 
L 30.078125 72.90625 
Q 51.265625 72.90625 61.171875 64.09375 
Q 71.09375 55.28125 71.09375 36.53125 
Q 71.09375 17.671875 61.125 8.828125 
Q 51.171875 0 30.078125 0 
L 9.8125 0 
z
" id="DejaVuSans-68"/>
       <path d="M 56.203125 29.59375 
L 56.203125 25.203125 
L 14.890625 25.203125 
Q 15.484375 15.921875 20.484375 11.0625 
Q 25.484375 6.203125 34.421875 6.203125 
Q 39.59375 6.203125 44.453125 7.46875 
Q 49.3125 8.734375 54.109375 11.28125 
L 54.109375 2.78125 
Q 49.265625 0.734375 44.1875 -0.34375 
Q 39.109375 -1.421875 33.890625 -1.421875 
Q 20.796875 -1.421875 13.15625 6.1875 
Q 5.515625 13.8125 5.515625 26.8125 
Q 5.515625 40.234375 12.765625 48.109375 
Q 20.015625 56 32.328125 56 
Q 43.359375 56 49.78125 48.890625 
Q 56.203125 41.796875 56.203125 29.59375 
z
M 47.21875 32.234375 
Q 47.125 39.59375 43.09375 43.984375 
Q 39.0625 48.390625 32.421875 48.390625 
Q 24.90625 48.390625 20.390625 44.140625 
Q 15.875 39.890625 15.1875 32.171875 
z
" id="DejaVuSans-101"/>
       <path d="M 54.890625 33.015625 
L 54.890625 0 
L 45.90625 0 
L 45.90625 32.71875 
Q 45.90625 40.484375 42.875 44.328125 
Q 39.84375 48.1875 33.796875 48.1875 
Q 26.515625 48.1875 22.3125 43.546875 
Q 18.109375 38.921875 18.109375 30.90625 
L 18.109375 0 
L 9.078125 0 
L 9.078125 54.6875 
L 18.109375 54.6875 
L 18.109375 46.1875 
Q 21.34375 51.125 25.703125 53.5625 
Q 30.078125 56 35.796875 56 
Q 45.21875 56 50.046875 50.171875 
Q 54.890625 44.34375 54.890625 33.015625 
z
" id="DejaVuSans-110"/>
       <path d="M 44.28125 53.078125 
L 44.28125 44.578125 
Q 40.484375 46.53125 36.375 47.5 
Q 32.28125 48.484375 27.875 48.484375 
Q 21.1875 48.484375 17.84375 46.4375 
Q 14.5 44.390625 14.5 40.28125 
Q 14.5 37.15625 16.890625 35.375 
Q 19.28125 33.59375 26.515625 31.984375 
L 29.59375 31.296875 
Q 39.15625 29.25 43.1875 25.515625 
Q 47.21875 21.78125 47.21875 15.09375 
Q 47.21875 7.46875 41.1875 3.015625 
Q 35.15625 -1.421875 24.609375 -1.421875 
Q 20.21875 -1.421875 15.453125 -0.5625 
Q 10.6875 0.296875 5.421875 2 
L 5.421875 11.28125 
Q 10.40625 8.6875 15.234375 7.390625 
Q 20.0625 6.109375 24.8125 6.109375 
Q 31.15625 6.109375 34.5625 8.28125 
Q 37.984375 10.453125 37.984375 14.40625 
Q 37.984375 18.0625 35.515625 20.015625 
Q 33.0625 21.96875 24.703125 23.78125 
L 21.578125 24.515625 
Q 13.234375 26.265625 9.515625 29.90625 
Q 5.8125 33.546875 5.8125 39.890625 
Q 5.8125 47.609375 11.28125 51.796875 
Q 16.75 56 26.8125 56 
Q 31.78125 56 36.171875 55.265625 
Q 40.578125 54.546875 44.28125 53.078125 
z
" id="DejaVuSans-115"/>
       <path d="M 9.421875 54.6875 
L 18.40625 54.6875 
L 18.40625 0 
L 9.421875 0 
z
M 9.421875 75.984375 
L 18.40625 75.984375 
L 18.40625 64.59375 
L 9.421875 64.59375 
z
" id="DejaVuSans-105"/>
       <path d="M 32.171875 -5.078125 
Q 28.375 -14.84375 24.75 -17.8125 
Q 21.140625 -20.796875 15.09375 -20.796875 
L 7.90625 -20.796875 
L 7.90625 -13.28125 
L 13.1875 -13.28125 
Q 16.890625 -13.28125 18.9375 -11.515625 
Q 21 -9.765625 23.484375 -3.21875 
L 25.09375 0.875 
L 2.984375 54.6875 
L 12.5 54.6875 
L 29.59375 11.921875 
L 46.6875 54.6875 
L 56.203125 54.6875 
z
" id="DejaVuSans-121"/>
      </defs>
      <use xlink:href="#DejaVuSans-68"/>
      <use x="77.001953" xlink:href="#DejaVuSans-101"/>
      <use x="138.525391" xlink:href="#DejaVuSans-110"/>
      <use x="201.904297" xlink:href="#DejaVuSans-115"/>
      <use x="254.003906" xlink:href="#DejaVuSans-105"/>
      <use x="281.787109" xlink:href="#DejaVuSans-116"/>
      <use x="320.996094" xlink:href="#DejaVuSans-121"/>
     </g>
    </g>
   </g>
   <g id="line2d_14">
    <path clip-path="url(#pe4fc726d59)" d="M 69.263753 224.633535 
L 74.693775 224.54443 
L 77.408786 224.355746 
L 80.123796 223.920583 
L 81.481302 223.559281 
L 82.838807 223.074064 
L 84.196313 222.447184 
L 85.553818 221.665909 
L 86.911324 220.723495 
L 88.268829 219.618916 
L 89.626334 218.355481 
L 92.341345 215.375573 
L 95.056356 211.833677 
L 97.771367 207.790051 
L 101.843883 201.056756 
L 105.9164 194.300248 
L 107.273905 192.283868 
L 108.63141 190.50018 
L 109.988916 189.02467 
L 111.346421 187.928585 
L 112.703927 187.270199 
L 114.061432 187.086057 
L 115.418938 187.384339 
L 116.776443 188.14213 
L 118.133948 189.307437 
L 119.491454 190.805512 
L 122.206465 194.442022 
L 126.278981 200.209406 
L 128.993992 203.538134 
L 131.709003 206.222218 
L 134.424014 208.371224 
L 141.211541 213.07022 
L 143.926552 214.84321 
L 146.641562 216.317069 
L 149.356573 217.423495 
L 153.42909 218.657218 
L 162.931628 221.20293 
L 167.004144 222.046972 
L 171.07666 222.627294 
L 175.149176 222.950965 
L 188.724231 223.586774 
L 195.511758 223.570828 
L 202.299285 223.626365 
L 214.516834 224.123484 
L 225.376877 224.49826 
L 238.951931 224.533052 
L 267.459545 224.388003 
L 282.392105 224.635758 
L 314.972235 224.583614 
L 325.832279 224.566134 
L 339.407333 224.638913 
L 339.407333 224.638913 
" style="fill:none;stroke:#1f77b4;stroke-linecap:square;stroke-width:1.5;"/>
   </g>
   <g id="line2d_15">
    <path clip-path="url(#pe4fc726d59)" d="M 65.361932 224.452092 
L 66.891397 224.256219 
L 68.420863 223.894491 
L 69.950328 223.262088 
L 71.479794 222.215719 
L 73.009259 220.577812 
L 74.538725 218.153528 
L 76.06819 214.763035 
L 77.597656 210.286958 
L 79.127121 204.716806 
L 80.656587 198.196853 
L 85.244983 176.802946 
L 86.774449 170.870824 
L 88.303914 166.435477 
L 89.83338 163.854874 
L 91.362845 163.287713 
L 92.892311 164.684816 
L 94.421776 167.815436 
L 95.951242 172.317227 
L 97.480708 177.756109 
L 102.069104 195.426806 
L 103.59857 200.646351 
L 105.128035 205.193009 
L 106.657501 209.003834 
L 108.186966 212.091561 
L 109.716432 214.523044 
L 111.245897 216.396365 
L 112.775363 217.820441 
L 114.304828 218.899584 
L 115.834294 219.723842 
L 117.363759 220.364672 
L 120.42269 221.290304 
L 123.481621 221.924289 
L 126.540552 222.371449 
L 131.128949 222.794864 
L 137.246811 223.079427 
L 151.012 223.498537 
L 167.836121 223.450099 
L 178.54238 223.599889 
L 212.190621 224.127066 
L 227.485276 224.493544 
L 253.486189 224.458218 
L 281.016569 224.435769 
L 296.311224 224.617329 
L 319.253206 224.639998 
L 369.725568 224.639008 
L 369.725568 224.639008 
" style="fill:none;stroke:#ff7f0e;stroke-linecap:square;stroke-width:1.5;"/>
   </g>
   <g id="line2d_16">
    <path clip-path="url(#pe4fc726d59)" d="M 70.798429 223.967556 
L 71.977316 223.266614 
L 73.156202 221.996802 
L 74.335089 219.845365 
L 75.513976 216.440578 
L 76.692863 211.416172 
L 77.87175 204.518307 
L 79.050637 195.736613 
L 81.408411 174.310422 
L 82.587297 163.49167 
L 83.766184 154.180713 
L 84.945071 147.472774 
L 86.123958 144.084688 
L 87.302845 144.199541 
L 88.481732 147.464137 
L 89.660619 153.131397 
L 92.018392 168.054842 
L 94.376166 183.002484 
L 95.555053 189.530679 
L 96.73394 195.274791 
L 97.912827 200.224117 
L 99.091713 204.394475 
L 100.2706 207.813258 
L 101.449487 210.522309 
L 102.628374 212.584998 
L 103.807261 214.088277 
L 104.986148 215.137116 
L 106.165035 215.843711 
L 107.343922 216.315666 
L 109.701695 216.91033 
L 113.238356 217.725379 
L 121.490564 219.950406 
L 126.206111 220.665099 
L 130.921659 221.44563 
L 139.173867 222.970872 
L 141.531641 223.186176 
L 145.068301 223.245177 
L 149.783849 223.27834 
L 155.678283 223.60838 
L 165.109378 224.247509 
L 171.003812 224.368065 
L 175.71936 224.207111 
L 181.613794 223.954459 
L 187.508228 224.013296 
L 194.58155 224.191232 
L 204.012644 224.605281 
L 214.622626 224.628764 
L 242.915911 224.528997 
L 251.168119 224.636506 
L 285.355838 224.578464 
L 293.608046 224.533794 
L 305.396915 224.638633 
L 305.396915 224.638633 
" style="fill:none;stroke:#2ca02c;stroke-linecap:square;stroke-width:1.5;"/>
   </g>
   <g id="patch_153">
    <path d="M 50.14375 224.64 
L 50.14375 7.2 
" style="fill:none;stroke:#000000;stroke-linecap:square;stroke-linejoin:miter;stroke-width:0.8;"/>
   </g>
   <g id="patch_154">
    <path d="M 384.94375 224.64 
L 384.94375 7.2 
" style="fill:none;stroke:#000000;stroke-linecap:square;stroke-linejoin:miter;stroke-width:0.8;"/>
   </g>
   <g id="patch_155">
    <path d="M 50.14375 224.64 
L 384.94375 224.64 
" style="fill:none;stroke:#000000;stroke-linecap:square;stroke-linejoin:miter;stroke-width:0.8;"/>
   </g>
   <g id="patch_156">
    <path d="M 50.14375 7.2 
L 384.94375 7.2 
" style="fill:none;stroke:#000000;stroke-linecap:square;stroke-linejoin:miter;stroke-width:0.8;"/>
   </g>
  </g>
 </g>
 <defs>
  <clipPath id="pe4fc726d59">
   <rect height="217.44" width="334.8" x="50.14375" y="7.2"/>
  </clipPath>
 </defs>
</svg>
