<?xml version="1.0" encoding="utf-8" standalone="no"?>
<!DOCTYPE svg PUBLIC "-//W3C//DTD SVG 1.1//EN"
  "http://www.w3.org/Graphics/SVG/1.1/DTD/svg11.dtd">
<!-- Created with matplotlib (https://matplotlib.org/) -->
<svg height="262.19625pt" version="1.1" viewBox="0 0 385.78125 262.19625" width="385.78125pt" xmlns="http://www.w3.org/2000/svg" xmlns:xlink="http://www.w3.org/1999/xlink">
 <metadata>
  <rdf:RDF xmlns:cc="http://creativecommons.org/ns#" xmlns:dc="http://purl.org/dc/elements/1.1/" xmlns:rdf="http://www.w3.org/1999/02/22-rdf-syntax-ns#">
   <cc:Work>
    <dc:type rdf:resource="http://purl.org/dc/dcmitype/StillImage"/>
    <dc:date>2021-01-20T11:27:23.675848</dc:date>
    <dc:format>image/svg+xml</dc:format>
    <dc:creator>
     <cc:Agent>
      <dc:title>Matplotlib v3.3.3, https://matplotlib.org/</dc:title>
     </cc:Agent>
    </dc:creator>
   </cc:Work>
  </rdf:RDF>
 </metadata>
 <defs>
  <style type="text/css">*{stroke-linecap:butt;stroke-linejoin:round;}</style>
 </defs>
 <g id="figure_1">
  <g id="patch_1">
   <path d="M 0 262.19625 
L 385.78125 262.19625 
L 385.78125 0 
L 0 0 
z
" style="fill:none;"/>
  </g>
  <g id="axes_1">
   <g id="patch_2">
    <path d="M 43.78125 224.64 
L 378.58125 224.64 
L 378.58125 7.2 
L 43.78125 7.2 
z
" style="fill:#ffffff;"/>
   </g>
   <g id="patch_3">
    <path clip-path="url(#pe504cf818c)" d="M 80.990629 224.64 
L 84.814723 224.64 
L 84.814723 220.787981 
L 80.990629 220.787981 
z
" style="fill:#1f77b4;opacity:0.4;"/>
   </g>
   <g id="patch_4">
    <path clip-path="url(#pe504cf818c)" d="M 84.814723 224.64 
L 88.638817 224.64 
L 88.638817 218.990372 
L 84.814723 218.990372 
z
" style="fill:#1f77b4;opacity:0.4;"/>
   </g>
   <g id="patch_5">
    <path clip-path="url(#pe504cf818c)" d="M 88.638817 224.64 
L 92.462911 224.64 
L 92.462911 215.908756 
L 88.638817 215.908756 
z
" style="fill:#1f77b4;opacity:0.4;"/>
   </g>
   <g id="patch_6">
    <path clip-path="url(#pe504cf818c)" d="M 92.462911 224.64 
L 96.287005 224.64 
L 96.287005 211.543134 
L 92.462911 211.543134 
z
" style="fill:#1f77b4;opacity:0.4;"/>
   </g>
   <g id="patch_7">
    <path clip-path="url(#pe504cf818c)" d="M 96.287005 224.64 
L 100.111099 224.64 
L 100.111099 207.177512 
L 96.287005 207.177512 
z
" style="fill:#1f77b4;opacity:0.4;"/>
   </g>
   <g id="patch_8">
    <path clip-path="url(#pe504cf818c)" d="M 100.111099 224.64 
L 103.935193 224.64 
L 103.935193 203.839095 
L 100.111099 203.839095 
z
" style="fill:#1f77b4;opacity:0.4;"/>
   </g>
   <g id="patch_9">
    <path clip-path="url(#pe504cf818c)" d="M 103.935193 224.64 
L 107.759287 224.64 
L 107.759287 193.567043 
L 103.935193 193.567043 
z
" style="fill:#1f77b4;opacity:0.4;"/>
   </g>
   <g id="patch_10">
    <path clip-path="url(#pe504cf818c)" d="M 107.759287 224.64 
L 111.58338 224.64 
L 111.58338 190.742229 
L 107.759287 190.742229 
z
" style="fill:#1f77b4;opacity:0.4;"/>
   </g>
   <g id="patch_11">
    <path clip-path="url(#pe504cf818c)" d="M 111.58338 224.64 
L 115.407474 224.64 
L 115.407474 199.730274 
L 111.58338 199.730274 
z
" style="fill:#1f77b4;opacity:0.4;"/>
   </g>
   <g id="patch_12">
    <path clip-path="url(#pe504cf818c)" d="M 115.407474 224.64 
L 119.231568 224.64 
L 119.231568 203.839095 
L 115.407474 203.839095 
z
" style="fill:#1f77b4;opacity:0.4;"/>
   </g>
   <g id="patch_13">
    <path clip-path="url(#pe504cf818c)" d="M 119.231568 224.64 
L 123.055662 224.64 
L 123.055662 208.71832 
L 119.231568 208.71832 
z
" style="fill:#1f77b4;opacity:0.4;"/>
   </g>
   <g id="patch_14">
    <path clip-path="url(#pe504cf818c)" d="M 123.055662 224.64 
L 126.879756 224.64 
L 126.879756 212.82714 
L 123.055662 212.82714 
z
" style="fill:#1f77b4;opacity:0.4;"/>
   </g>
   <g id="patch_15">
    <path clip-path="url(#pe504cf818c)" d="M 126.879756 224.64 
L 130.70385 224.64 
L 130.70385 217.449564 
L 126.879756 217.449564 
z
" style="fill:#1f77b4;opacity:0.4;"/>
   </g>
   <g id="patch_16">
    <path clip-path="url(#pe504cf818c)" d="M 130.70385 224.64 
L 134.527944 224.64 
L 134.527944 213.083942 
L 130.70385 213.083942 
z
" style="fill:#1f77b4;opacity:0.4;"/>
   </g>
   <g id="patch_17">
    <path clip-path="url(#pe504cf818c)" d="M 134.527944 224.64 
L 138.352038 224.64 
L 138.352038 222.071987 
L 134.527944 222.071987 
z
" style="fill:#1f77b4;opacity:0.4;"/>
   </g>
   <g id="patch_18">
    <path clip-path="url(#pe504cf818c)" d="M 138.352038 224.64 
L 142.176132 224.64 
L 142.176132 222.071987 
L 138.352038 222.071987 
z
" style="fill:#1f77b4;opacity:0.4;"/>
   </g>
   <g id="patch_19">
    <path clip-path="url(#pe504cf818c)" d="M 142.176132 224.64 
L 146.000226 224.64 
L 146.000226 221.301583 
L 142.176132 221.301583 
z
" style="fill:#1f77b4;opacity:0.4;"/>
   </g>
   <g id="patch_20">
    <path clip-path="url(#pe504cf818c)" d="M 146.000226 224.64 
L 149.82432 224.64 
L 149.82432 221.815186 
L 146.000226 221.815186 
z
" style="fill:#1f77b4;opacity:0.4;"/>
   </g>
   <g id="patch_21">
    <path clip-path="url(#pe504cf818c)" d="M 149.82432 224.64 
L 153.648414 224.64 
L 153.648414 222.328788 
L 149.82432 222.328788 
z
" style="fill:#1f77b4;opacity:0.4;"/>
   </g>
   <g id="patch_22">
    <path clip-path="url(#pe504cf818c)" d="M 153.648414 224.64 
L 157.472508 224.64 
L 157.472508 221.558384 
L 153.648414 221.558384 
z
" style="fill:#1f77b4;opacity:0.4;"/>
   </g>
   <g id="patch_23">
    <path clip-path="url(#pe504cf818c)" d="M 157.472508 224.64 
L 161.296602 224.64 
L 161.296602 222.328788 
L 157.472508 222.328788 
z
" style="fill:#1f77b4;opacity:0.4;"/>
   </g>
   <g id="patch_24">
    <path clip-path="url(#pe504cf818c)" d="M 161.296602 224.64 
L 165.120696 224.64 
L 165.120696 222.842391 
L 161.296602 222.842391 
z
" style="fill:#1f77b4;opacity:0.4;"/>
   </g>
   <g id="patch_25">
    <path clip-path="url(#pe504cf818c)" d="M 165.120696 224.64 
L 168.944789 224.64 
L 168.944789 223.869596 
L 165.120696 223.869596 
z
" style="fill:#1f77b4;opacity:0.4;"/>
   </g>
   <g id="patch_26">
    <path clip-path="url(#pe504cf818c)" d="M 168.944789 224.64 
L 172.768883 224.64 
L 172.768883 223.869596 
L 168.944789 223.869596 
z
" style="fill:#1f77b4;opacity:0.4;"/>
   </g>
   <g id="patch_27">
    <path clip-path="url(#pe504cf818c)" d="M 172.768883 224.64 
L 176.592977 224.64 
L 176.592977 223.869596 
L 172.768883 223.869596 
z
" style="fill:#1f77b4;opacity:0.4;"/>
   </g>
   <g id="patch_28">
    <path clip-path="url(#pe504cf818c)" d="M 176.592977 224.64 
L 180.417071 224.64 
L 180.417071 224.126397 
L 176.592977 224.126397 
z
" style="fill:#1f77b4;opacity:0.4;"/>
   </g>
   <g id="patch_29">
    <path clip-path="url(#pe504cf818c)" d="M 180.417071 224.64 
L 184.241165 224.64 
L 184.241165 224.126397 
L 180.417071 224.126397 
z
" style="fill:#1f77b4;opacity:0.4;"/>
   </g>
   <g id="patch_30">
    <path clip-path="url(#pe504cf818c)" d="M 184.241165 224.64 
L 188.065259 224.64 
L 188.065259 223.869596 
L 184.241165 223.869596 
z
" style="fill:#1f77b4;opacity:0.4;"/>
   </g>
   <g id="patch_31">
    <path clip-path="url(#pe504cf818c)" d="M 188.065259 224.64 
L 191.889353 224.64 
L 191.889353 223.869596 
L 188.065259 223.869596 
z
" style="fill:#1f77b4;opacity:0.4;"/>
   </g>
   <g id="patch_32">
    <path clip-path="url(#pe504cf818c)" d="M 191.889353 224.64 
L 195.713447 224.64 
L 195.713447 223.612795 
L 191.889353 223.612795 
z
" style="fill:#1f77b4;opacity:0.4;"/>
   </g>
   <g id="patch_33">
    <path clip-path="url(#pe504cf818c)" d="M 195.713447 224.64 
L 199.537541 224.64 
L 199.537541 224.64 
L 195.713447 224.64 
z
" style="fill:#1f77b4;opacity:0.4;"/>
   </g>
   <g id="patch_34">
    <path clip-path="url(#pe504cf818c)" d="M 199.537541 224.64 
L 203.361635 224.64 
L 203.361635 224.126397 
L 199.537541 224.126397 
z
" style="fill:#1f77b4;opacity:0.4;"/>
   </g>
   <g id="patch_35">
    <path clip-path="url(#pe504cf818c)" d="M 203.361635 224.64 
L 207.185729 224.64 
L 207.185729 223.612795 
L 203.361635 223.612795 
z
" style="fill:#1f77b4;opacity:0.4;"/>
   </g>
   <g id="patch_36">
    <path clip-path="url(#pe504cf818c)" d="M 207.185729 224.64 
L 211.009823 224.64 
L 211.009823 224.64 
L 207.185729 224.64 
z
" style="fill:#1f77b4;opacity:0.4;"/>
   </g>
   <g id="patch_37">
    <path clip-path="url(#pe504cf818c)" d="M 211.009823 224.64 
L 214.833917 224.64 
L 214.833917 224.383199 
L 211.009823 224.383199 
z
" style="fill:#1f77b4;opacity:0.4;"/>
   </g>
   <g id="patch_38">
    <path clip-path="url(#pe504cf818c)" d="M 214.833917 224.64 
L 218.658011 224.64 
L 218.658011 224.383199 
L 214.833917 224.383199 
z
" style="fill:#1f77b4;opacity:0.4;"/>
   </g>
   <g id="patch_39">
    <path clip-path="url(#pe504cf818c)" d="M 218.658011 224.64 
L 222.482105 224.64 
L 222.482105 224.383199 
L 218.658011 224.383199 
z
" style="fill:#1f77b4;opacity:0.4;"/>
   </g>
   <g id="patch_40">
    <path clip-path="url(#pe504cf818c)" d="M 222.482105 224.64 
L 226.306198 224.64 
L 226.306198 224.126397 
L 222.482105 224.126397 
z
" style="fill:#1f77b4;opacity:0.4;"/>
   </g>
   <g id="patch_41">
    <path clip-path="url(#pe504cf818c)" d="M 226.306198 224.64 
L 230.130292 224.64 
L 230.130292 224.383199 
L 226.306198 224.383199 
z
" style="fill:#1f77b4;opacity:0.4;"/>
   </g>
   <g id="patch_42">
    <path clip-path="url(#pe504cf818c)" d="M 230.130292 224.64 
L 233.954386 224.64 
L 233.954386 224.64 
L 230.130292 224.64 
z
" style="fill:#1f77b4;opacity:0.4;"/>
   </g>
   <g id="patch_43">
    <path clip-path="url(#pe504cf818c)" d="M 233.954386 224.64 
L 237.77848 224.64 
L 237.77848 224.64 
L 233.954386 224.64 
z
" style="fill:#1f77b4;opacity:0.4;"/>
   </g>
   <g id="patch_44">
    <path clip-path="url(#pe504cf818c)" d="M 237.77848 224.64 
L 241.602574 224.64 
L 241.602574 224.64 
L 237.77848 224.64 
z
" style="fill:#1f77b4;opacity:0.4;"/>
   </g>
   <g id="patch_45">
    <path clip-path="url(#pe504cf818c)" d="M 241.602574 224.64 
L 245.426668 224.64 
L 245.426668 224.64 
L 241.602574 224.64 
z
" style="fill:#1f77b4;opacity:0.4;"/>
   </g>
   <g id="patch_46">
    <path clip-path="url(#pe504cf818c)" d="M 245.426668 224.64 
L 249.250762 224.64 
L 249.250762 224.383199 
L 245.426668 224.383199 
z
" style="fill:#1f77b4;opacity:0.4;"/>
   </g>
   <g id="patch_47">
    <path clip-path="url(#pe504cf818c)" d="M 79.286333 224.64 
L 84.56213 224.64 
L 84.56213 154.279404 
L 79.286333 154.279404 
z
" style="fill:#ff7f0e;opacity:0.4;"/>
   </g>
   <g id="patch_48">
    <path clip-path="url(#pe504cf818c)" d="M 84.56213 224.64 
L 89.837927 224.64 
L 89.837927 173.265596 
L 84.56213 173.265596 
z
" style="fill:#ff7f0e;opacity:0.4;"/>
   </g>
   <g id="patch_49">
    <path clip-path="url(#pe504cf818c)" d="M 89.837927 224.64 
L 95.113723 224.64 
L 95.113723 195.043876 
L 89.837927 195.043876 
z
" style="fill:#ff7f0e;opacity:0.4;"/>
   </g>
   <g id="patch_50">
    <path clip-path="url(#pe504cf818c)" d="M 95.113723 224.64 
L 100.38952 224.64 
L 100.38952 215.333043 
L 95.113723 215.333043 
z
" style="fill:#ff7f0e;opacity:0.4;"/>
   </g>
   <g id="patch_51">
    <path clip-path="url(#pe504cf818c)" d="M 100.38952 224.64 
L 105.665317 224.64 
L 105.665317 219.055826 
L 100.38952 219.055826 
z
" style="fill:#ff7f0e;opacity:0.4;"/>
   </g>
   <g id="patch_52">
    <path clip-path="url(#pe504cf818c)" d="M 105.665317 224.64 
L 110.941113 224.64 
L 110.941113 223.337026 
L 105.665317 223.337026 
z
" style="fill:#ff7f0e;opacity:0.4;"/>
   </g>
   <g id="patch_53">
    <path clip-path="url(#pe504cf818c)" d="M 110.941113 224.64 
L 116.21691 224.64 
L 116.21691 222.778609 
L 110.941113 222.778609 
z
" style="fill:#ff7f0e;opacity:0.4;"/>
   </g>
   <g id="patch_54">
    <path clip-path="url(#pe504cf818c)" d="M 116.21691 224.64 
L 121.492707 224.64 
L 121.492707 223.150887 
L 116.21691 223.150887 
z
" style="fill:#ff7f0e;opacity:0.4;"/>
   </g>
   <g id="patch_55">
    <path clip-path="url(#pe504cf818c)" d="M 121.492707 224.64 
L 126.768503 224.64 
L 126.768503 222.964748 
L 121.492707 222.964748 
z
" style="fill:#ff7f0e;opacity:0.4;"/>
   </g>
   <g id="patch_56">
    <path clip-path="url(#pe504cf818c)" d="M 126.768503 224.64 
L 132.0443 224.64 
L 132.0443 223.523165 
L 126.768503 223.523165 
z
" style="fill:#ff7f0e;opacity:0.4;"/>
   </g>
   <g id="patch_57">
    <path clip-path="url(#pe504cf818c)" d="M 132.0443 224.64 
L 137.320097 224.64 
L 137.320097 223.709304 
L 132.0443 223.709304 
z
" style="fill:#ff7f0e;opacity:0.4;"/>
   </g>
   <g id="patch_58">
    <path clip-path="url(#pe504cf818c)" d="M 137.320097 224.64 
L 142.595893 224.64 
L 142.595893 223.337026 
L 137.320097 223.337026 
z
" style="fill:#ff7f0e;opacity:0.4;"/>
   </g>
   <g id="patch_59">
    <path clip-path="url(#pe504cf818c)" d="M 142.595893 224.64 
L 147.87169 224.64 
L 147.87169 223.709304 
L 142.595893 223.709304 
z
" style="fill:#ff7f0e;opacity:0.4;"/>
   </g>
   <g id="patch_60">
    <path clip-path="url(#pe504cf818c)" d="M 147.87169 224.64 
L 153.147487 224.64 
L 153.147487 223.895443 
L 147.87169 223.895443 
z
" style="fill:#ff7f0e;opacity:0.4;"/>
   </g>
   <g id="patch_61">
    <path clip-path="url(#pe504cf818c)" d="M 153.147487 224.64 
L 158.423283 224.64 
L 158.423283 223.337026 
L 153.147487 223.337026 
z
" style="fill:#ff7f0e;opacity:0.4;"/>
   </g>
   <g id="patch_62">
    <path clip-path="url(#pe504cf818c)" d="M 158.423283 224.64 
L 163.69908 224.64 
L 163.69908 223.709304 
L 158.423283 223.709304 
z
" style="fill:#ff7f0e;opacity:0.4;"/>
   </g>
   <g id="patch_63">
    <path clip-path="url(#pe504cf818c)" d="M 163.69908 224.64 
L 168.974877 224.64 
L 168.974877 223.709304 
L 163.69908 223.709304 
z
" style="fill:#ff7f0e;opacity:0.4;"/>
   </g>
   <g id="patch_64">
    <path clip-path="url(#pe504cf818c)" d="M 168.974877 224.64 
L 174.250673 224.64 
L 174.250673 224.267722 
L 168.974877 224.267722 
z
" style="fill:#ff7f0e;opacity:0.4;"/>
   </g>
   <g id="patch_65">
    <path clip-path="url(#pe504cf818c)" d="M 174.250673 224.64 
L 179.52647 224.64 
L 179.52647 224.267722 
L 174.250673 224.267722 
z
" style="fill:#ff7f0e;opacity:0.4;"/>
   </g>
   <g id="patch_66">
    <path clip-path="url(#pe504cf818c)" d="M 179.52647 224.64 
L 184.802267 224.64 
L 184.802267 224.64 
L 179.52647 224.64 
z
" style="fill:#ff7f0e;opacity:0.4;"/>
   </g>
   <g id="patch_67">
    <path clip-path="url(#pe504cf818c)" d="M 184.802267 224.64 
L 190.078063 224.64 
L 190.078063 224.081583 
L 184.802267 224.081583 
z
" style="fill:#ff7f0e;opacity:0.4;"/>
   </g>
   <g id="patch_68">
    <path clip-path="url(#pe504cf818c)" d="M 190.078063 224.64 
L 195.35386 224.64 
L 195.35386 224.453861 
L 190.078063 224.453861 
z
" style="fill:#ff7f0e;opacity:0.4;"/>
   </g>
   <g id="patch_69">
    <path clip-path="url(#pe504cf818c)" d="M 195.35386 224.64 
L 200.629657 224.64 
L 200.629657 224.267722 
L 195.35386 224.267722 
z
" style="fill:#ff7f0e;opacity:0.4;"/>
   </g>
   <g id="patch_70">
    <path clip-path="url(#pe504cf818c)" d="M 200.629657 224.64 
L 205.905453 224.64 
L 205.905453 223.895443 
L 200.629657 223.895443 
z
" style="fill:#ff7f0e;opacity:0.4;"/>
   </g>
   <g id="patch_71">
    <path clip-path="url(#pe504cf818c)" d="M 205.905453 224.64 
L 211.18125 224.64 
L 211.18125 224.453861 
L 205.905453 224.453861 
z
" style="fill:#ff7f0e;opacity:0.4;"/>
   </g>
   <g id="patch_72">
    <path clip-path="url(#pe504cf818c)" d="M 211.18125 224.64 
L 216.457047 224.64 
L 216.457047 224.64 
L 211.18125 224.64 
z
" style="fill:#ff7f0e;opacity:0.4;"/>
   </g>
   <g id="patch_73">
    <path clip-path="url(#pe504cf818c)" d="M 216.457047 224.64 
L 221.732843 224.64 
L 221.732843 224.453861 
L 216.457047 224.453861 
z
" style="fill:#ff7f0e;opacity:0.4;"/>
   </g>
   <g id="patch_74">
    <path clip-path="url(#pe504cf818c)" d="M 221.732843 224.64 
L 227.00864 224.64 
L 227.00864 224.081583 
L 221.732843 224.081583 
z
" style="fill:#ff7f0e;opacity:0.4;"/>
   </g>
   <g id="patch_75">
    <path clip-path="url(#pe504cf818c)" d="M 227.00864 224.64 
L 232.284437 224.64 
L 232.284437 224.64 
L 227.00864 224.64 
z
" style="fill:#ff7f0e;opacity:0.4;"/>
   </g>
   <g id="patch_76">
    <path clip-path="url(#pe504cf818c)" d="M 232.284437 224.64 
L 237.560233 224.64 
L 237.560233 224.453861 
L 232.284437 224.453861 
z
" style="fill:#ff7f0e;opacity:0.4;"/>
   </g>
   <g id="patch_77">
    <path clip-path="url(#pe504cf818c)" d="M 237.560233 224.64 
L 242.83603 224.64 
L 242.83603 224.453861 
L 237.560233 224.453861 
z
" style="fill:#ff7f0e;opacity:0.4;"/>
   </g>
   <g id="patch_78">
    <path clip-path="url(#pe504cf818c)" d="M 242.83603 224.64 
L 248.111827 224.64 
L 248.111827 224.267722 
L 242.83603 224.267722 
z
" style="fill:#ff7f0e;opacity:0.4;"/>
   </g>
   <g id="patch_79">
    <path clip-path="url(#pe504cf818c)" d="M 248.111827 224.64 
L 253.387623 224.64 
L 253.387623 224.453861 
L 248.111827 224.453861 
z
" style="fill:#ff7f0e;opacity:0.4;"/>
   </g>
   <g id="patch_80">
    <path clip-path="url(#pe504cf818c)" d="M 253.387623 224.64 
L 258.66342 224.64 
L 258.66342 224.081583 
L 253.387623 224.081583 
z
" style="fill:#ff7f0e;opacity:0.4;"/>
   </g>
   <g id="patch_81">
    <path clip-path="url(#pe504cf818c)" d="M 258.66342 224.64 
L 263.939217 224.64 
L 263.939217 224.64 
L 258.66342 224.64 
z
" style="fill:#ff7f0e;opacity:0.4;"/>
   </g>
   <g id="patch_82">
    <path clip-path="url(#pe504cf818c)" d="M 263.939217 224.64 
L 269.215013 224.64 
L 269.215013 224.64 
L 263.939217 224.64 
z
" style="fill:#ff7f0e;opacity:0.4;"/>
   </g>
   <g id="patch_83">
    <path clip-path="url(#pe504cf818c)" d="M 269.215013 224.64 
L 274.49081 224.64 
L 274.49081 224.453861 
L 269.215013 224.453861 
z
" style="fill:#ff7f0e;opacity:0.4;"/>
   </g>
   <g id="patch_84">
    <path clip-path="url(#pe504cf818c)" d="M 274.49081 224.64 
L 279.766607 224.64 
L 279.766607 224.64 
L 274.49081 224.64 
z
" style="fill:#ff7f0e;opacity:0.4;"/>
   </g>
   <g id="patch_85">
    <path clip-path="url(#pe504cf818c)" d="M 279.766607 224.64 
L 285.042403 224.64 
L 285.042403 224.64 
L 279.766607 224.64 
z
" style="fill:#ff7f0e;opacity:0.4;"/>
   </g>
   <g id="patch_86">
    <path clip-path="url(#pe504cf818c)" d="M 285.042403 224.64 
L 290.3182 224.64 
L 290.3182 224.64 
L 285.042403 224.64 
z
" style="fill:#ff7f0e;opacity:0.4;"/>
   </g>
   <g id="patch_87">
    <path clip-path="url(#pe504cf818c)" d="M 290.3182 224.64 
L 295.593997 224.64 
L 295.593997 224.64 
L 290.3182 224.64 
z
" style="fill:#ff7f0e;opacity:0.4;"/>
   </g>
   <g id="patch_88">
    <path clip-path="url(#pe504cf818c)" d="M 295.593997 224.64 
L 300.869793 224.64 
L 300.869793 224.64 
L 295.593997 224.64 
z
" style="fill:#ff7f0e;opacity:0.4;"/>
   </g>
   <g id="patch_89">
    <path clip-path="url(#pe504cf818c)" d="M 300.869793 224.64 
L 306.14559 224.64 
L 306.14559 224.64 
L 300.869793 224.64 
z
" style="fill:#ff7f0e;opacity:0.4;"/>
   </g>
   <g id="patch_90">
    <path clip-path="url(#pe504cf818c)" d="M 306.14559 224.64 
L 311.421387 224.64 
L 311.421387 224.64 
L 306.14559 224.64 
z
" style="fill:#ff7f0e;opacity:0.4;"/>
   </g>
   <g id="patch_91">
    <path clip-path="url(#pe504cf818c)" d="M 311.421387 224.64 
L 316.697183 224.64 
L 316.697183 224.64 
L 311.421387 224.64 
z
" style="fill:#ff7f0e;opacity:0.4;"/>
   </g>
   <g id="patch_92">
    <path clip-path="url(#pe504cf818c)" d="M 316.697183 224.64 
L 321.97298 224.64 
L 321.97298 224.64 
L 316.697183 224.64 
z
" style="fill:#ff7f0e;opacity:0.4;"/>
   </g>
   <g id="patch_93">
    <path clip-path="url(#pe504cf818c)" d="M 321.97298 224.64 
L 327.248777 224.64 
L 327.248777 224.64 
L 321.97298 224.64 
z
" style="fill:#ff7f0e;opacity:0.4;"/>
   </g>
   <g id="patch_94">
    <path clip-path="url(#pe504cf818c)" d="M 327.248777 224.64 
L 332.524573 224.64 
L 332.524573 224.64 
L 327.248777 224.64 
z
" style="fill:#ff7f0e;opacity:0.4;"/>
   </g>
   <g id="patch_95">
    <path clip-path="url(#pe504cf818c)" d="M 332.524573 224.64 
L 337.80037 224.64 
L 337.80037 224.64 
L 332.524573 224.64 
z
" style="fill:#ff7f0e;opacity:0.4;"/>
   </g>
   <g id="patch_96">
    <path clip-path="url(#pe504cf818c)" d="M 337.80037 224.64 
L 343.076167 224.64 
L 343.076167 224.453861 
L 337.80037 224.453861 
z
" style="fill:#ff7f0e;opacity:0.4;"/>
   </g>
   <g id="patch_97">
    <path clip-path="url(#pe504cf818c)" d="M 79.286333 224.64 
L 81.956166 224.64 
L 81.956166 17.554286 
L 79.286333 17.554286 
z
" style="fill:#2ca02c;opacity:0.4;"/>
   </g>
   <g id="patch_98">
    <path clip-path="url(#pe504cf818c)" d="M 81.956166 224.64 
L 84.625998 224.64 
L 84.625998 187.857457 
L 81.956166 187.857457 
z
" style="fill:#2ca02c;opacity:0.4;"/>
   </g>
   <g id="patch_99">
    <path clip-path="url(#pe504cf818c)" d="M 84.625998 224.64 
L 87.295831 224.64 
L 87.295831 194.846141 
L 84.625998 194.846141 
z
" style="fill:#2ca02c;opacity:0.4;"/>
   </g>
   <g id="patch_100">
    <path clip-path="url(#pe504cf818c)" d="M 87.295831 224.64 
L 89.965663 224.64 
L 89.965663 201.466998 
L 87.295831 201.466998 
z
" style="fill:#2ca02c;opacity:0.4;"/>
   </g>
   <g id="patch_101">
    <path clip-path="url(#pe504cf818c)" d="M 89.965663 224.64 
L 92.635496 224.64 
L 92.635496 211.76611 
L 89.965663 211.76611 
z
" style="fill:#2ca02c;opacity:0.4;"/>
   </g>
   <g id="patch_102">
    <path clip-path="url(#pe504cf818c)" d="M 92.635496 224.64 
L 95.305328 224.64 
L 95.305328 218.754793 
L 92.635496 218.754793 
z
" style="fill:#2ca02c;opacity:0.4;"/>
   </g>
   <g id="patch_103">
    <path clip-path="url(#pe504cf818c)" d="M 95.305328 224.64 
L 97.975161 224.64 
L 97.975161 221.697397 
L 95.305328 221.697397 
z
" style="fill:#2ca02c;opacity:0.4;"/>
   </g>
   <g id="patch_104">
    <path clip-path="url(#pe504cf818c)" d="M 97.975161 224.64 
L 100.644993 224.64 
L 100.644993 218.019142 
L 97.975161 218.019142 
z
" style="fill:#2ca02c;opacity:0.4;"/>
   </g>
   <g id="patch_105">
    <path clip-path="url(#pe504cf818c)" d="M 100.644993 224.64 
L 103.314826 224.64 
L 103.314826 220.961746 
L 100.644993 220.961746 
z
" style="fill:#2ca02c;opacity:0.4;"/>
   </g>
   <g id="patch_106">
    <path clip-path="url(#pe504cf818c)" d="M 103.314826 224.64 
L 105.984658 224.64 
L 105.984658 219.490444 
L 103.314826 219.490444 
z
" style="fill:#2ca02c;opacity:0.4;"/>
   </g>
   <g id="patch_107">
    <path clip-path="url(#pe504cf818c)" d="M 105.984658 224.64 
L 108.654491 224.64 
L 108.654491 221.329571 
L 105.984658 221.329571 
z
" style="fill:#2ca02c;opacity:0.4;"/>
   </g>
   <g id="patch_108">
    <path clip-path="url(#pe504cf818c)" d="M 108.654491 224.64 
L 111.324323 224.64 
L 111.324323 219.122619 
L 108.654491 219.122619 
z
" style="fill:#2ca02c;opacity:0.4;"/>
   </g>
   <g id="patch_109">
    <path clip-path="url(#pe504cf818c)" d="M 111.324323 224.64 
L 113.994156 224.64 
L 113.994156 222.065222 
L 111.324323 222.065222 
z
" style="fill:#2ca02c;opacity:0.4;"/>
   </g>
   <g id="patch_110">
    <path clip-path="url(#pe504cf818c)" d="M 113.994156 224.64 
L 116.663988 224.64 
L 116.663988 222.800873 
L 113.994156 222.800873 
z
" style="fill:#2ca02c;opacity:0.4;"/>
   </g>
   <g id="patch_111">
    <path clip-path="url(#pe504cf818c)" d="M 116.663988 224.64 
L 119.333821 224.64 
L 119.333821 223.168698 
L 116.663988 223.168698 
z
" style="fill:#2ca02c;opacity:0.4;"/>
   </g>
   <g id="patch_112">
    <path clip-path="url(#pe504cf818c)" d="M 119.333821 224.64 
L 122.003653 224.64 
L 122.003653 223.536524 
L 119.333821 223.536524 
z
" style="fill:#2ca02c;opacity:0.4;"/>
   </g>
   <g id="patch_113">
    <path clip-path="url(#pe504cf818c)" d="M 122.003653 224.64 
L 124.673486 224.64 
L 124.673486 222.433047 
L 122.003653 222.433047 
z
" style="fill:#2ca02c;opacity:0.4;"/>
   </g>
   <g id="patch_114">
    <path clip-path="url(#pe504cf818c)" d="M 124.673486 224.64 
L 127.343318 224.64 
L 127.343318 222.065222 
L 124.673486 222.065222 
z
" style="fill:#2ca02c;opacity:0.4;"/>
   </g>
   <g id="patch_115">
    <path clip-path="url(#pe504cf818c)" d="M 127.343318 224.64 
L 130.013151 224.64 
L 130.013151 223.536524 
L 127.343318 223.536524 
z
" style="fill:#2ca02c;opacity:0.4;"/>
   </g>
   <g id="patch_116">
    <path clip-path="url(#pe504cf818c)" d="M 130.013151 224.64 
L 132.682983 224.64 
L 132.682983 223.904349 
L 130.013151 223.904349 
z
" style="fill:#2ca02c;opacity:0.4;"/>
   </g>
   <g id="patch_117">
    <path clip-path="url(#pe504cf818c)" d="M 132.682983 224.64 
L 135.352816 224.64 
L 135.352816 224.272175 
L 132.682983 224.272175 
z
" style="fill:#2ca02c;opacity:0.4;"/>
   </g>
   <g id="patch_118">
    <path clip-path="url(#pe504cf818c)" d="M 135.352816 224.64 
L 138.022648 224.64 
L 138.022648 223.904349 
L 135.352816 223.904349 
z
" style="fill:#2ca02c;opacity:0.4;"/>
   </g>
   <g id="patch_119">
    <path clip-path="url(#pe504cf818c)" d="M 138.022648 224.64 
L 140.692481 224.64 
L 140.692481 223.904349 
L 138.022648 223.904349 
z
" style="fill:#2ca02c;opacity:0.4;"/>
   </g>
   <g id="patch_120">
    <path clip-path="url(#pe504cf818c)" d="M 140.692481 224.64 
L 143.362313 224.64 
L 143.362313 223.904349 
L 140.692481 223.904349 
z
" style="fill:#2ca02c;opacity:0.4;"/>
   </g>
   <g id="patch_121">
    <path clip-path="url(#pe504cf818c)" d="M 143.362313 224.64 
L 146.032146 224.64 
L 146.032146 223.904349 
L 143.362313 223.904349 
z
" style="fill:#2ca02c;opacity:0.4;"/>
   </g>
   <g id="patch_122">
    <path clip-path="url(#pe504cf818c)" d="M 146.032146 224.64 
L 148.701978 224.64 
L 148.701978 224.272175 
L 146.032146 224.272175 
z
" style="fill:#2ca02c;opacity:0.4;"/>
   </g>
   <g id="patch_123">
    <path clip-path="url(#pe504cf818c)" d="M 148.701978 224.64 
L 151.371811 224.64 
L 151.371811 223.904349 
L 148.701978 223.904349 
z
" style="fill:#2ca02c;opacity:0.4;"/>
   </g>
   <g id="patch_124">
    <path clip-path="url(#pe504cf818c)" d="M 151.371811 224.64 
L 154.041643 224.64 
L 154.041643 222.800873 
L 151.371811 222.800873 
z
" style="fill:#2ca02c;opacity:0.4;"/>
   </g>
   <g id="patch_125">
    <path clip-path="url(#pe504cf818c)" d="M 154.041643 224.64 
L 156.711476 224.64 
L 156.711476 223.536524 
L 154.041643 223.536524 
z
" style="fill:#2ca02c;opacity:0.4;"/>
   </g>
   <g id="patch_126">
    <path clip-path="url(#pe504cf818c)" d="M 156.711476 224.64 
L 159.381308 224.64 
L 159.381308 224.272175 
L 156.711476 224.272175 
z
" style="fill:#2ca02c;opacity:0.4;"/>
   </g>
   <g id="patch_127">
    <path clip-path="url(#pe504cf818c)" d="M 159.381308 224.64 
L 162.051141 224.64 
L 162.051141 224.272175 
L 159.381308 224.272175 
z
" style="fill:#2ca02c;opacity:0.4;"/>
   </g>
   <g id="patch_128">
    <path clip-path="url(#pe504cf818c)" d="M 162.051141 224.64 
L 164.720973 224.64 
L 164.720973 224.64 
L 162.051141 224.64 
z
" style="fill:#2ca02c;opacity:0.4;"/>
   </g>
   <g id="patch_129">
    <path clip-path="url(#pe504cf818c)" d="M 164.720973 224.64 
L 167.390806 224.64 
L 167.390806 224.272175 
L 164.720973 224.272175 
z
" style="fill:#2ca02c;opacity:0.4;"/>
   </g>
   <g id="patch_130">
    <path clip-path="url(#pe504cf818c)" d="M 167.390806 224.64 
L 170.060638 224.64 
L 170.060638 224.64 
L 167.390806 224.64 
z
" style="fill:#2ca02c;opacity:0.4;"/>
   </g>
   <g id="patch_131">
    <path clip-path="url(#pe504cf818c)" d="M 170.060638 224.64 
L 172.730471 224.64 
L 172.730471 223.536524 
L 170.060638 223.536524 
z
" style="fill:#2ca02c;opacity:0.4;"/>
   </g>
   <g id="patch_132">
    <path clip-path="url(#pe504cf818c)" d="M 172.730471 224.64 
L 175.400303 224.64 
L 175.400303 224.272175 
L 172.730471 224.272175 
z
" style="fill:#2ca02c;opacity:0.4;"/>
   </g>
   <g id="patch_133">
    <path clip-path="url(#pe504cf818c)" d="M 175.400303 224.64 
L 178.070136 224.64 
L 178.070136 224.272175 
L 175.400303 224.272175 
z
" style="fill:#2ca02c;opacity:0.4;"/>
   </g>
   <g id="patch_134">
    <path clip-path="url(#pe504cf818c)" d="M 178.070136 224.64 
L 180.739968 224.64 
L 180.739968 224.64 
L 178.070136 224.64 
z
" style="fill:#2ca02c;opacity:0.4;"/>
   </g>
   <g id="patch_135">
    <path clip-path="url(#pe504cf818c)" d="M 180.739968 224.64 
L 183.409801 224.64 
L 183.409801 224.272175 
L 180.739968 224.272175 
z
" style="fill:#2ca02c;opacity:0.4;"/>
   </g>
   <g id="patch_136">
    <path clip-path="url(#pe504cf818c)" d="M 183.409801 224.64 
L 186.079633 224.64 
L 186.079633 224.64 
L 183.409801 224.64 
z
" style="fill:#2ca02c;opacity:0.4;"/>
   </g>
   <g id="patch_137">
    <path clip-path="url(#pe504cf818c)" d="M 186.079633 224.64 
L 188.749466 224.64 
L 188.749466 224.64 
L 186.079633 224.64 
z
" style="fill:#2ca02c;opacity:0.4;"/>
   </g>
   <g id="patch_138">
    <path clip-path="url(#pe504cf818c)" d="M 188.749466 224.64 
L 191.419298 224.64 
L 191.419298 224.64 
L 188.749466 224.64 
z
" style="fill:#2ca02c;opacity:0.4;"/>
   </g>
   <g id="patch_139">
    <path clip-path="url(#pe504cf818c)" d="M 191.419298 224.64 
L 194.089131 224.64 
L 194.089131 224.64 
L 191.419298 224.64 
z
" style="fill:#2ca02c;opacity:0.4;"/>
   </g>
   <g id="patch_140">
    <path clip-path="url(#pe504cf818c)" d="M 194.089131 224.64 
L 196.758963 224.64 
L 196.758963 224.64 
L 194.089131 224.64 
z
" style="fill:#2ca02c;opacity:0.4;"/>
   </g>
   <g id="patch_141">
    <path clip-path="url(#pe504cf818c)" d="M 196.758963 224.64 
L 199.428796 224.64 
L 199.428796 224.64 
L 196.758963 224.64 
z
" style="fill:#2ca02c;opacity:0.4;"/>
   </g>
   <g id="patch_142">
    <path clip-path="url(#pe504cf818c)" d="M 199.428796 224.64 
L 202.098628 224.64 
L 202.098628 224.64 
L 199.428796 224.64 
z
" style="fill:#2ca02c;opacity:0.4;"/>
   </g>
   <g id="patch_143">
    <path clip-path="url(#pe504cf818c)" d="M 202.098628 224.64 
L 204.768461 224.64 
L 204.768461 224.64 
L 202.098628 224.64 
z
" style="fill:#2ca02c;opacity:0.4;"/>
   </g>
   <g id="patch_144">
    <path clip-path="url(#pe504cf818c)" d="M 204.768461 224.64 
L 207.438293 224.64 
L 207.438293 224.272175 
L 204.768461 224.272175 
z
" style="fill:#2ca02c;opacity:0.4;"/>
   </g>
   <g id="patch_145">
    <path clip-path="url(#pe504cf818c)" d="M 207.438293 224.64 
L 210.108126 224.64 
L 210.108126 224.64 
L 207.438293 224.64 
z
" style="fill:#2ca02c;opacity:0.4;"/>
   </g>
   <g id="patch_146">
    <path clip-path="url(#pe504cf818c)" d="M 210.108126 224.64 
L 212.777958 224.64 
L 212.777958 224.272175 
L 210.108126 224.272175 
z
" style="fill:#2ca02c;opacity:0.4;"/>
   </g>
   <g id="matplotlib.axis_1">
    <g id="xtick_1">
     <g id="line2d_1">
      <defs>
       <path d="M 0 0 
L 0 3.5 
" id="mb6089f658a" style="stroke:#000000;stroke-width:0.8;"/>
      </defs>
      <g>
       <use style="stroke:#000000;stroke-width:0.8;" x="79.286333" xlink:href="#mb6089f658a" y="224.64"/>
      </g>
     </g>
     <g id="text_1">
      <!-- 0 -->
      <g transform="translate(76.105083 239.238437)scale(0.1 -0.1)">
       <defs>
        <path d="M 31.78125 66.40625 
Q 24.171875 66.40625 20.328125 58.90625 
Q 16.5 51.421875 16.5 36.375 
Q 16.5 21.390625 20.328125 13.890625 
Q 24.171875 6.390625 31.78125 6.390625 
Q 39.453125 6.390625 43.28125 13.890625 
Q 47.125 21.390625 47.125 36.375 
Q 47.125 51.421875 43.28125 58.90625 
Q 39.453125 66.40625 31.78125 66.40625 
z
M 31.78125 74.21875 
Q 44.046875 74.21875 50.515625 64.515625 
Q 56.984375 54.828125 56.984375 36.375 
Q 56.984375 17.96875 50.515625 8.265625 
Q 44.046875 -1.421875 31.78125 -1.421875 
Q 19.53125 -1.421875 13.0625 8.265625 
Q 6.59375 17.96875 6.59375 36.375 
Q 6.59375 54.828125 13.0625 64.515625 
Q 19.53125 74.21875 31.78125 74.21875 
z
" id="DejaVuSans-48"/>
       </defs>
       <use xlink:href="#DejaVuSans-48"/>
      </g>
     </g>
    </g>
    <g id="xtick_2">
     <g id="line2d_2">
      <g>
       <use style="stroke:#000000;stroke-width:0.8;" x="144.392463" xlink:href="#mb6089f658a" y="224.64"/>
      </g>
     </g>
     <g id="text_2">
      <!-- 5 -->
      <g transform="translate(141.211213 239.238437)scale(0.1 -0.1)">
       <defs>
        <path d="M 10.796875 72.90625 
L 49.515625 72.90625 
L 49.515625 64.59375 
L 19.828125 64.59375 
L 19.828125 46.734375 
Q 21.96875 47.46875 24.109375 47.828125 
Q 26.265625 48.1875 28.421875 48.1875 
Q 40.625 48.1875 47.75 41.5 
Q 54.890625 34.8125 54.890625 23.390625 
Q 54.890625 11.625 47.5625 5.09375 
Q 40.234375 -1.421875 26.90625 -1.421875 
Q 22.3125 -1.421875 17.546875 -0.640625 
Q 12.796875 0.140625 7.71875 1.703125 
L 7.71875 11.625 
Q 12.109375 9.234375 16.796875 8.0625 
Q 21.484375 6.890625 26.703125 6.890625 
Q 35.15625 6.890625 40.078125 11.328125 
Q 45.015625 15.765625 45.015625 23.390625 
Q 45.015625 31 40.078125 35.4375 
Q 35.15625 39.890625 26.703125 39.890625 
Q 22.75 39.890625 18.8125 39.015625 
Q 14.890625 38.140625 10.796875 36.28125 
z
" id="DejaVuSans-53"/>
       </defs>
       <use xlink:href="#DejaVuSans-53"/>
      </g>
     </g>
    </g>
    <g id="xtick_3">
     <g id="line2d_3">
      <g>
       <use style="stroke:#000000;stroke-width:0.8;" x="209.498593" xlink:href="#mb6089f658a" y="224.64"/>
      </g>
     </g>
     <g id="text_3">
      <!-- 10 -->
      <g transform="translate(203.136093 239.238437)scale(0.1 -0.1)">
       <defs>
        <path d="M 12.40625 8.296875 
L 28.515625 8.296875 
L 28.515625 63.921875 
L 10.984375 60.40625 
L 10.984375 69.390625 
L 28.421875 72.90625 
L 38.28125 72.90625 
L 38.28125 8.296875 
L 54.390625 8.296875 
L 54.390625 0 
L 12.40625 0 
z
" id="DejaVuSans-49"/>
       </defs>
       <use xlink:href="#DejaVuSans-49"/>
       <use x="63.623047" xlink:href="#DejaVuSans-48"/>
      </g>
     </g>
    </g>
    <g id="xtick_4">
     <g id="line2d_4">
      <g>
       <use style="stroke:#000000;stroke-width:0.8;" x="274.604722" xlink:href="#mb6089f658a" y="224.64"/>
      </g>
     </g>
     <g id="text_4">
      <!-- 15 -->
      <g transform="translate(268.242222 239.238437)scale(0.1 -0.1)">
       <use xlink:href="#DejaVuSans-49"/>
       <use x="63.623047" xlink:href="#DejaVuSans-53"/>
      </g>
     </g>
    </g>
    <g id="xtick_5">
     <g id="line2d_5">
      <g>
       <use style="stroke:#000000;stroke-width:0.8;" x="339.710852" xlink:href="#mb6089f658a" y="224.64"/>
      </g>
     </g>
     <g id="text_5">
      <!-- 20 -->
      <g transform="translate(333.348352 239.238437)scale(0.1 -0.1)">
       <defs>
        <path d="M 19.1875 8.296875 
L 53.609375 8.296875 
L 53.609375 0 
L 7.328125 0 
L 7.328125 8.296875 
Q 12.9375 14.109375 22.625 23.890625 
Q 32.328125 33.6875 34.8125 36.53125 
Q 39.546875 41.84375 41.421875 45.53125 
Q 43.3125 49.21875 43.3125 52.78125 
Q 43.3125 58.59375 39.234375 62.25 
Q 35.15625 65.921875 28.609375 65.921875 
Q 23.96875 65.921875 18.8125 64.3125 
Q 13.671875 62.703125 7.8125 59.421875 
L 7.8125 69.390625 
Q 13.765625 71.78125 18.9375 73 
Q 24.125 74.21875 28.421875 74.21875 
Q 39.75 74.21875 46.484375 68.546875 
Q 53.21875 62.890625 53.21875 53.421875 
Q 53.21875 48.921875 51.53125 44.890625 
Q 49.859375 40.875 45.40625 35.40625 
Q 44.1875 33.984375 37.640625 27.21875 
Q 31.109375 20.453125 19.1875 8.296875 
z
" id="DejaVuSans-50"/>
       </defs>
       <use xlink:href="#DejaVuSans-50"/>
       <use x="63.623047" xlink:href="#DejaVuSans-48"/>
      </g>
     </g>
    </g>
    <g id="text_6">
     <!-- f(t) -->
     <g transform="translate(203.559375 252.916562)scale(0.1 -0.1)">
      <defs>
       <path d="M 37.109375 75.984375 
L 37.109375 68.5 
L 28.515625 68.5 
Q 23.6875 68.5 21.796875 66.546875 
Q 19.921875 64.59375 19.921875 59.515625 
L 19.921875 54.6875 
L 34.71875 54.6875 
L 34.71875 47.703125 
L 19.921875 47.703125 
L 19.921875 0 
L 10.890625 0 
L 10.890625 47.703125 
L 2.296875 47.703125 
L 2.296875 54.6875 
L 10.890625 54.6875 
L 10.890625 58.5 
Q 10.890625 67.625 15.140625 71.796875 
Q 19.390625 75.984375 28.609375 75.984375 
z
" id="DejaVuSans-102"/>
       <path d="M 31 75.875 
Q 24.46875 64.65625 21.28125 53.65625 
Q 18.109375 42.671875 18.109375 31.390625 
Q 18.109375 20.125 21.3125 9.0625 
Q 24.515625 -2 31 -13.1875 
L 23.1875 -13.1875 
Q 15.875 -1.703125 12.234375 9.375 
Q 8.59375 20.453125 8.59375 31.390625 
Q 8.59375 42.28125 12.203125 53.3125 
Q 15.828125 64.359375 23.1875 75.875 
z
" id="DejaVuSans-40"/>
       <path d="M 18.3125 70.21875 
L 18.3125 54.6875 
L 36.8125 54.6875 
L 36.8125 47.703125 
L 18.3125 47.703125 
L 18.3125 18.015625 
Q 18.3125 11.328125 20.140625 9.421875 
Q 21.96875 7.515625 27.59375 7.515625 
L 36.8125 7.515625 
L 36.8125 0 
L 27.59375 0 
Q 17.1875 0 13.234375 3.875 
Q 9.28125 7.765625 9.28125 18.015625 
L 9.28125 47.703125 
L 2.6875 47.703125 
L 2.6875 54.6875 
L 9.28125 54.6875 
L 9.28125 70.21875 
z
" id="DejaVuSans-116"/>
       <path d="M 8.015625 75.875 
L 15.828125 75.875 
Q 23.140625 64.359375 26.78125 53.3125 
Q 30.421875 42.28125 30.421875 31.390625 
Q 30.421875 20.453125 26.78125 9.375 
Q 23.140625 -1.703125 15.828125 -13.1875 
L 8.015625 -13.1875 
Q 14.5 -2 17.703125 9.0625 
Q 20.90625 20.125 20.90625 31.390625 
Q 20.90625 42.671875 17.703125 53.65625 
Q 14.5 64.65625 8.015625 75.875 
z
" id="DejaVuSans-41"/>
      </defs>
      <use xlink:href="#DejaVuSans-102"/>
      <use x="35.205078" xlink:href="#DejaVuSans-40"/>
      <use x="74.21875" xlink:href="#DejaVuSans-116"/>
      <use x="113.427734" xlink:href="#DejaVuSans-41"/>
     </g>
    </g>
   </g>
   <g id="matplotlib.axis_2">
    <g id="ytick_1">
     <g id="line2d_6">
      <defs>
       <path d="M 0 0 
L -3.5 0 
" id="m42cb0e10cf" style="stroke:#000000;stroke-width:0.8;"/>
      </defs>
      <g>
       <use style="stroke:#000000;stroke-width:0.8;" x="43.78125" xlink:href="#m42cb0e10cf" y="224.64"/>
      </g>
     </g>
     <g id="text_7">
      <!-- 0.0 -->
      <g transform="translate(20.878125 228.439219)scale(0.1 -0.1)">
       <defs>
        <path d="M 10.6875 12.40625 
L 21 12.40625 
L 21 0 
L 10.6875 0 
z
" id="DejaVuSans-46"/>
       </defs>
       <use xlink:href="#DejaVuSans-48"/>
       <use x="63.623047" xlink:href="#DejaVuSans-46"/>
       <use x="95.410156" xlink:href="#DejaVuSans-48"/>
      </g>
     </g>
    </g>
    <g id="ytick_2">
     <g id="line2d_7">
      <g>
       <use style="stroke:#000000;stroke-width:0.8;" x="43.78125" xlink:href="#m42cb0e10cf" y="186.931098"/>
      </g>
     </g>
     <g id="text_8">
      <!-- 0.5 -->
      <g transform="translate(20.878125 190.730316)scale(0.1 -0.1)">
       <use xlink:href="#DejaVuSans-48"/>
       <use x="63.623047" xlink:href="#DejaVuSans-46"/>
       <use x="95.410156" xlink:href="#DejaVuSans-53"/>
      </g>
     </g>
    </g>
    <g id="ytick_3">
     <g id="line2d_8">
      <g>
       <use style="stroke:#000000;stroke-width:0.8;" x="43.78125" xlink:href="#m42cb0e10cf" y="149.222195"/>
      </g>
     </g>
     <g id="text_9">
      <!-- 1.0 -->
      <g transform="translate(20.878125 153.021414)scale(0.1 -0.1)">
       <use xlink:href="#DejaVuSans-49"/>
       <use x="63.623047" xlink:href="#DejaVuSans-46"/>
       <use x="95.410156" xlink:href="#DejaVuSans-48"/>
      </g>
     </g>
    </g>
    <g id="ytick_4">
     <g id="line2d_9">
      <g>
       <use style="stroke:#000000;stroke-width:0.8;" x="43.78125" xlink:href="#m42cb0e10cf" y="111.513293"/>
      </g>
     </g>
     <g id="text_10">
      <!-- 1.5 -->
      <g transform="translate(20.878125 115.312512)scale(0.1 -0.1)">
       <use xlink:href="#DejaVuSans-49"/>
       <use x="63.623047" xlink:href="#DejaVuSans-46"/>
       <use x="95.410156" xlink:href="#DejaVuSans-53"/>
      </g>
     </g>
    </g>
    <g id="ytick_5">
     <g id="line2d_10">
      <g>
       <use style="stroke:#000000;stroke-width:0.8;" x="43.78125" xlink:href="#m42cb0e10cf" y="73.804391"/>
      </g>
     </g>
     <g id="text_11">
      <!-- 2.0 -->
      <g transform="translate(20.878125 77.603609)scale(0.1 -0.1)">
       <use xlink:href="#DejaVuSans-50"/>
       <use x="63.623047" xlink:href="#DejaVuSans-46"/>
       <use x="95.410156" xlink:href="#DejaVuSans-48"/>
      </g>
     </g>
    </g>
    <g id="ytick_6">
     <g id="line2d_11">
      <g>
       <use style="stroke:#000000;stroke-width:0.8;" x="43.78125" xlink:href="#m42cb0e10cf" y="36.095488"/>
      </g>
     </g>
     <g id="text_12">
      <!-- 2.5 -->
      <g transform="translate(20.878125 39.894707)scale(0.1 -0.1)">
       <use xlink:href="#DejaVuSans-50"/>
       <use x="63.623047" xlink:href="#DejaVuSans-46"/>
       <use x="95.410156" xlink:href="#DejaVuSans-53"/>
      </g>
     </g>
    </g>
    <g id="text_13">
     <!-- Density -->
     <g transform="translate(14.798438 134.928594)rotate(-90)scale(0.1 -0.1)">
      <defs>
       <path d="M 19.671875 64.796875 
L 19.671875 8.109375 
L 31.59375 8.109375 
Q 46.6875 8.109375 53.6875 14.9375 
Q 60.6875 21.78125 60.6875 36.53125 
Q 60.6875 51.171875 53.6875 57.984375 
Q 46.6875 64.796875 31.59375 64.796875 
z
M 9.8125 72.90625 
L 30.078125 72.90625 
Q 51.265625 72.90625 61.171875 64.09375 
Q 71.09375 55.28125 71.09375 36.53125 
Q 71.09375 17.671875 61.125 8.828125 
Q 51.171875 0 30.078125 0 
L 9.8125 0 
z
" id="DejaVuSans-68"/>
       <path d="M 56.203125 29.59375 
L 56.203125 25.203125 
L 14.890625 25.203125 
Q 15.484375 15.921875 20.484375 11.0625 
Q 25.484375 6.203125 34.421875 6.203125 
Q 39.59375 6.203125 44.453125 7.46875 
Q 49.3125 8.734375 54.109375 11.28125 
L 54.109375 2.78125 
Q 49.265625 0.734375 44.1875 -0.34375 
Q 39.109375 -1.421875 33.890625 -1.421875 
Q 20.796875 -1.421875 13.15625 6.1875 
Q 5.515625 13.8125 5.515625 26.8125 
Q 5.515625 40.234375 12.765625 48.109375 
Q 20.015625 56 32.328125 56 
Q 43.359375 56 49.78125 48.890625 
Q 56.203125 41.796875 56.203125 29.59375 
z
M 47.21875 32.234375 
Q 47.125 39.59375 43.09375 43.984375 
Q 39.0625 48.390625 32.421875 48.390625 
Q 24.90625 48.390625 20.390625 44.140625 
Q 15.875 39.890625 15.1875 32.171875 
z
" id="DejaVuSans-101"/>
       <path d="M 54.890625 33.015625 
L 54.890625 0 
L 45.90625 0 
L 45.90625 32.71875 
Q 45.90625 40.484375 42.875 44.328125 
Q 39.84375 48.1875 33.796875 48.1875 
Q 26.515625 48.1875 22.3125 43.546875 
Q 18.109375 38.921875 18.109375 30.90625 
L 18.109375 0 
L 9.078125 0 
L 9.078125 54.6875 
L 18.109375 54.6875 
L 18.109375 46.1875 
Q 21.34375 51.125 25.703125 53.5625 
Q 30.078125 56 35.796875 56 
Q 45.21875 56 50.046875 50.171875 
Q 54.890625 44.34375 54.890625 33.015625 
z
" id="DejaVuSans-110"/>
       <path d="M 44.28125 53.078125 
L 44.28125 44.578125 
Q 40.484375 46.53125 36.375 47.5 
Q 32.28125 48.484375 27.875 48.484375 
Q 21.1875 48.484375 17.84375 46.4375 
Q 14.5 44.390625 14.5 40.28125 
Q 14.5 37.15625 16.890625 35.375 
Q 19.28125 33.59375 26.515625 31.984375 
L 29.59375 31.296875 
Q 39.15625 29.25 43.1875 25.515625 
Q 47.21875 21.78125 47.21875 15.09375 
Q 47.21875 7.46875 41.1875 3.015625 
Q 35.15625 -1.421875 24.609375 -1.421875 
Q 20.21875 -1.421875 15.453125 -0.5625 
Q 10.6875 0.296875 5.421875 2 
L 5.421875 11.28125 
Q 10.40625 8.6875 15.234375 7.390625 
Q 20.0625 6.109375 24.8125 6.109375 
Q 31.15625 6.109375 34.5625 8.28125 
Q 37.984375 10.453125 37.984375 14.40625 
Q 37.984375 18.0625 35.515625 20.015625 
Q 33.0625 21.96875 24.703125 23.78125 
L 21.578125 24.515625 
Q 13.234375 26.265625 9.515625 29.90625 
Q 5.8125 33.546875 5.8125 39.890625 
Q 5.8125 47.609375 11.28125 51.796875 
Q 16.75 56 26.8125 56 
Q 31.78125 56 36.171875 55.265625 
Q 40.578125 54.546875 44.28125 53.078125 
z
" id="DejaVuSans-115"/>
       <path d="M 9.421875 54.6875 
L 18.40625 54.6875 
L 18.40625 0 
L 9.421875 0 
z
M 9.421875 75.984375 
L 18.40625 75.984375 
L 18.40625 64.59375 
L 9.421875 64.59375 
z
" id="DejaVuSans-105"/>
       <path d="M 32.171875 -5.078125 
Q 28.375 -14.84375 24.75 -17.8125 
Q 21.140625 -20.796875 15.09375 -20.796875 
L 7.90625 -20.796875 
L 7.90625 -13.28125 
L 13.1875 -13.28125 
Q 16.890625 -13.28125 18.9375 -11.515625 
Q 21 -9.765625 23.484375 -3.21875 
L 25.09375 0.875 
L 2.984375 54.6875 
L 12.5 54.6875 
L 29.59375 11.921875 
L 46.6875 54.6875 
L 56.203125 54.6875 
z
" id="DejaVuSans-121"/>
      </defs>
      <use xlink:href="#DejaVuSans-68"/>
      <use x="77.001953" xlink:href="#DejaVuSans-101"/>
      <use x="138.525391" xlink:href="#DejaVuSans-110"/>
      <use x="201.904297" xlink:href="#DejaVuSans-115"/>
      <use x="254.003906" xlink:href="#DejaVuSans-105"/>
      <use x="281.787109" xlink:href="#DejaVuSans-116"/>
      <use x="320.996094" xlink:href="#DejaVuSans-121"/>
     </g>
    </g>
   </g>
   <g id="line2d_12">
    <path clip-path="url(#pe504cf818c)" d="M 64.427969 224.634005 
L 70.499892 224.513543 
L 73.535854 224.242197 
L 75.559828 223.888429 
L 77.583802 223.346684 
L 79.607777 222.593459 
L 81.631751 221.628161 
L 83.655726 220.465444 
L 85.6797 219.120654 
L 88.715662 216.773513 
L 91.751623 214.026608 
L 94.787585 210.881432 
L 97.823546 207.345679 
L 102.883482 201.103983 
L 104.907457 199.058242 
L 105.919444 198.283544 
L 106.931431 197.720914 
L 107.943418 197.394354 
L 108.955406 197.315794 
L 109.967393 197.484001 
L 110.97938 197.885108 
L 111.991367 198.494576 
L 114.015342 200.205424 
L 116.039316 202.327371 
L 121.099252 207.882163 
L 124.135214 210.772537 
L 127.171175 213.235858 
L 131.219124 216.116748 
L 134.255086 218.102343 
L 136.27906 219.266766 
L 138.303035 220.215583 
L 140.327009 220.908709 
L 142.350983 221.361657 
L 145.386945 221.713184 
L 149.434894 221.869693 
L 155.506817 222.072091 
L 159.554766 222.46092 
L 169.674638 223.658728 
L 174.734574 223.933037 
L 180.806497 224.010509 
L 193.962331 224.015421 
L 215.214062 224.355291 
L 230.39387 224.487711 
L 239.501755 224.613738 
L 265.813422 224.639212 
L 265.813422 224.639212 
" style="fill:none;stroke:#1f77b4;stroke-linecap:square;stroke-width:1.5;"/>
   </g>
   <g id="line2d_13">
    <path clip-path="url(#pe504cf818c)" d="M 58.999432 224.527247 
L 62.058363 224.202359 
L 63.587828 223.837087 
L 65.117294 223.23449 
L 66.646759 222.291285 
L 68.176225 220.891097 
L 69.70569 218.92078 
L 71.235156 216.294592 
L 72.764621 212.982707 
L 74.294087 209.037569 
L 77.353018 199.947751 
L 78.882483 195.373865 
L 80.411949 191.246081 
L 81.941414 187.906228 
L 83.47088 185.629976 
L 85.000345 184.587963 
L 86.529811 184.82569 
L 88.059276 186.264553 
L 89.588742 188.721537 
L 91.118208 191.941824 
L 94.177139 199.523943 
L 97.23607 206.932559 
L 98.765535 210.134742 
L 100.295001 212.895576 
L 101.824466 215.203373 
L 103.353932 217.083733 
L 104.883397 218.583852 
L 106.412863 219.759512 
L 107.942328 220.666299 
L 109.471794 221.355019 
L 111.001259 221.87016 
L 114.06019 222.526766 
L 117.119121 222.87455 
L 121.707518 223.140127 
L 132.413776 223.485715 
L 146.178966 223.653935 
L 163.003086 223.740973 
L 184.415604 224.380389 
L 208.887052 224.343612 
L 218.063845 224.406181 
L 230.299569 224.428921 
L 242.535293 224.424055 
L 257.829948 224.40227 
L 286.889793 224.63069 
L 331.244292 224.627464 
L 358.774672 224.636085 
L 363.363068 224.639356 
L 363.363068 224.639356 
" style="fill:none;stroke:#ff7f0e;stroke-linecap:square;stroke-width:1.5;"/>
   </g>
   <g id="line2d_14">
    <path clip-path="url(#pe504cf818c)" d="M 67.01832 224.09487 
L 67.812429 223.677224 
L 68.606538 223.00164 
L 69.400647 221.953486 
L 70.194755 220.394696 
L 70.988864 218.174208 
L 71.782973 215.147236 
L 72.577082 211.203061 
L 73.371191 206.298227 
L 74.959408 193.954961 
L 77.341735 173.593708 
L 78.135843 168.107756 
L 78.929952 164.018169 
L 79.724061 161.613587 
L 80.51817 161.008463 
L 81.312279 162.132287 
L 82.106387 164.751879 
L 82.900496 168.520173 
L 84.488714 177.920247 
L 86.076931 187.543879 
L 87.665149 195.827245 
L 89.253367 202.43573 
L 90.841584 207.626572 
L 92.429802 211.693189 
L 94.018019 214.78374 
L 94.812128 215.986016 
L 95.606237 216.973946 
L 96.400346 217.764114 
L 97.194455 218.378411 
L 98.782672 219.186159 
L 100.37089 219.619709 
L 102.753216 219.968016 
L 108.311978 220.692159 
L 111.488413 221.351641 
L 116.253066 222.477135 
L 118.635392 222.774085 
L 121.811827 222.852991 
L 124.988263 222.929124 
L 128.164698 223.262661 
L 132.929351 223.834665 
L 136.105786 223.984772 
L 141.664547 223.953677 
L 149.605635 223.72488 
L 153.576179 223.675141 
L 156.752615 223.875053 
L 162.311376 224.273623 
L 166.28192 224.277702 
L 172.634791 224.202884 
L 184.546423 224.554236 
L 192.487511 224.637831 
L 204.399143 224.542982 
L 213.134339 224.520145 
L 225.045971 224.638933 
L 225.045971 224.638933 
" style="fill:none;stroke:#2ca02c;stroke-linecap:square;stroke-width:1.5;"/>
   </g>
   <g id="patch_147">
    <path d="M 43.78125 224.64 
L 43.78125 7.2 
" style="fill:none;stroke:#000000;stroke-linecap:square;stroke-linejoin:miter;stroke-width:0.8;"/>
   </g>
   <g id="patch_148">
    <path d="M 378.58125 224.64 
L 378.58125 7.2 
" style="fill:none;stroke:#000000;stroke-linecap:square;stroke-linejoin:miter;stroke-width:0.8;"/>
   </g>
   <g id="patch_149">
    <path d="M 43.78125 224.64 
L 378.58125 224.64 
" style="fill:none;stroke:#000000;stroke-linecap:square;stroke-linejoin:miter;stroke-width:0.8;"/>
   </g>
   <g id="patch_150">
    <path d="M 43.78125 7.2 
L 378.58125 7.2 
" style="fill:none;stroke:#000000;stroke-linecap:square;stroke-linejoin:miter;stroke-width:0.8;"/>
   </g>
  </g>
 </g>
 <defs>
  <clipPath id="pe504cf818c">
   <rect height="217.44" width="334.8" x="43.78125" y="7.2"/>
  </clipPath>
 </defs>
</svg>
