<?xml version="1.0" encoding="utf-8" standalone="no"?>
<!DOCTYPE svg PUBLIC "-//W3C//DTD SVG 1.1//EN"
  "http://www.w3.org/Graphics/SVG/1.1/DTD/svg11.dtd">
<!-- Created with matplotlib (https://matplotlib.org/) -->
<svg height="262.19625pt" version="1.1" viewBox="0 0 392.14375 262.19625" width="392.14375pt" xmlns="http://www.w3.org/2000/svg" xmlns:xlink="http://www.w3.org/1999/xlink">
 <metadata>
  <rdf:RDF xmlns:cc="http://creativecommons.org/ns#" xmlns:dc="http://purl.org/dc/elements/1.1/" xmlns:rdf="http://www.w3.org/1999/02/22-rdf-syntax-ns#">
   <cc:Work>
    <dc:type rdf:resource="http://purl.org/dc/dcmitype/StillImage"/>
    <dc:date>2021-02-09T20:57:14.726105</dc:date>
    <dc:format>image/svg+xml</dc:format>
    <dc:creator>
     <cc:Agent>
      <dc:title>Matplotlib v3.3.4, https://matplotlib.org/</dc:title>
     </cc:Agent>
    </dc:creator>
   </cc:Work>
  </rdf:RDF>
 </metadata>
 <defs>
  <style type="text/css">*{stroke-linecap:butt;stroke-linejoin:round;}</style>
 </defs>
 <g id="figure_1">
  <g id="patch_1">
   <path d="M 0 262.19625 
L 392.14375 262.19625 
L 392.14375 0 
L 0 0 
z
" style="fill:none;"/>
  </g>
  <g id="axes_1">
   <g id="patch_2">
    <path d="M 50.14375 224.64 
L 384.94375 224.64 
L 384.94375 7.2 
L 50.14375 7.2 
z
" style="fill:#ffffff;"/>
   </g>
   <g id="patch_3">
    <path clip-path="url(#pdc2eead987)" d="M 81.457119 224.64 
L 84.891 224.64 
L 84.891 219.997855 
L 81.457119 219.997855 
z
" style="fill:#1f77b4;opacity:0.4;"/>
   </g>
   <g id="patch_4">
    <path clip-path="url(#pdc2eead987)" d="M 84.891 224.64 
L 88.324881 224.64 
L 88.324881 214.117805 
L 84.891 214.117805 
z
" style="fill:#1f77b4;opacity:0.4;"/>
   </g>
   <g id="patch_5">
    <path clip-path="url(#pdc2eead987)" d="M 88.324881 224.64 
L 91.758762 224.64 
L 91.758762 209.166184 
L 88.324881 209.166184 
z
" style="fill:#1f77b4;opacity:0.4;"/>
   </g>
   <g id="patch_6">
    <path clip-path="url(#pdc2eead987)" d="M 91.758762 224.64 
L 95.192643 224.64 
L 95.192643 196.477654 
L 91.758762 196.477654 
z
" style="fill:#1f77b4;opacity:0.4;"/>
   </g>
   <g id="patch_7">
    <path clip-path="url(#pdc2eead987)" d="M 95.192643 224.64 
L 98.626524 224.64 
L 98.626524 185.645983 
L 95.192643 185.645983 
z
" style="fill:#1f77b4;opacity:0.4;"/>
   </g>
   <g id="patch_8">
    <path clip-path="url(#pdc2eead987)" d="M 98.626524 224.64 
L 102.060405 224.64 
L 102.060405 164.911069 
L 98.626524 164.911069 
z
" style="fill:#1f77b4;opacity:0.4;"/>
   </g>
   <g id="patch_9">
    <path clip-path="url(#pdc2eead987)" d="M 102.060405 224.64 
L 105.494286 224.64 
L 105.494286 193.692367 
L 102.060405 193.692367 
z
" style="fill:#1f77b4;opacity:0.4;"/>
   </g>
   <g id="patch_10">
    <path clip-path="url(#pdc2eead987)" d="M 105.494286 224.64 
L 108.928167 224.64 
L 108.928167 198.953465 
L 105.494286 198.953465 
z
" style="fill:#1f77b4;opacity:0.4;"/>
   </g>
   <g id="patch_11">
    <path clip-path="url(#pdc2eead987)" d="M 108.928167 224.64 
L 112.362048 224.64 
L 112.362048 200.19137 
L 108.928167 200.19137 
z
" style="fill:#1f77b4;opacity:0.4;"/>
   </g>
   <g id="patch_12">
    <path clip-path="url(#pdc2eead987)" d="M 112.362048 224.64 
L 115.795929 224.64 
L 115.795929 209.166184 
L 112.362048 209.166184 
z
" style="fill:#1f77b4;opacity:0.4;"/>
   </g>
   <g id="patch_13">
    <path clip-path="url(#pdc2eead987)" d="M 115.795929 224.64 
L 119.22981 224.64 
L 119.22981 208.237755 
L 115.795929 208.237755 
z
" style="fill:#1f77b4;opacity:0.4;"/>
   </g>
   <g id="patch_14">
    <path clip-path="url(#pdc2eead987)" d="M 119.22981 224.64 
L 122.663691 224.64 
L 122.663691 217.522044 
L 119.22981 217.522044 
z
" style="fill:#1f77b4;opacity:0.4;"/>
   </g>
   <g id="patch_15">
    <path clip-path="url(#pdc2eead987)" d="M 122.663691 224.64 
L 126.097572 224.64 
L 126.097572 217.522044 
L 122.663691 217.522044 
z
" style="fill:#1f77b4;opacity:0.4;"/>
   </g>
   <g id="patch_16">
    <path clip-path="url(#pdc2eead987)" d="M 126.097572 224.64 
L 129.531453 224.64 
L 129.531453 220.616808 
L 126.097572 220.616808 
z
" style="fill:#1f77b4;opacity:0.4;"/>
   </g>
   <g id="patch_17">
    <path clip-path="url(#pdc2eead987)" d="M 129.531453 224.64 
L 132.965334 224.64 
L 132.965334 220.616808 
L 129.531453 220.616808 
z
" style="fill:#1f77b4;opacity:0.4;"/>
   </g>
   <g id="patch_18">
    <path clip-path="url(#pdc2eead987)" d="M 132.965334 224.64 
L 136.399215 224.64 
L 136.399215 221.545237 
L 132.965334 221.545237 
z
" style="fill:#1f77b4;opacity:0.4;"/>
   </g>
   <g id="patch_19">
    <path clip-path="url(#pdc2eead987)" d="M 136.399215 224.64 
L 139.833096 224.64 
L 139.833096 221.23576 
L 136.399215 221.23576 
z
" style="fill:#1f77b4;opacity:0.4;"/>
   </g>
   <g id="patch_20">
    <path clip-path="url(#pdc2eead987)" d="M 139.833096 224.64 
L 143.266977 224.64 
L 143.266977 222.473666 
L 139.833096 222.473666 
z
" style="fill:#1f77b4;opacity:0.4;"/>
   </g>
   <g id="patch_21">
    <path clip-path="url(#pdc2eead987)" d="M 143.266977 224.64 
L 146.700858 224.64 
L 146.700858 222.164189 
L 143.266977 222.164189 
z
" style="fill:#1f77b4;opacity:0.4;"/>
   </g>
   <g id="patch_22">
    <path clip-path="url(#pdc2eead987)" d="M 146.700858 224.64 
L 150.134739 224.64 
L 150.134739 223.711571 
L 146.700858 223.711571 
z
" style="fill:#1f77b4;opacity:0.4;"/>
   </g>
   <g id="patch_23">
    <path clip-path="url(#pdc2eead987)" d="M 150.134739 224.64 
L 153.56862 224.64 
L 153.56862 224.021047 
L 150.134739 224.021047 
z
" style="fill:#1f77b4;opacity:0.4;"/>
   </g>
   <g id="patch_24">
    <path clip-path="url(#pdc2eead987)" d="M 153.56862 224.64 
L 157.002501 224.64 
L 157.002501 224.021047 
L 153.56862 224.021047 
z
" style="fill:#1f77b4;opacity:0.4;"/>
   </g>
   <g id="patch_25">
    <path clip-path="url(#pdc2eead987)" d="M 157.002501 224.64 
L 160.436382 224.64 
L 160.436382 224.021047 
L 157.002501 224.021047 
z
" style="fill:#1f77b4;opacity:0.4;"/>
   </g>
   <g id="patch_26">
    <path clip-path="url(#pdc2eead987)" d="M 160.436382 224.64 
L 163.870263 224.64 
L 163.870263 224.021047 
L 160.436382 224.021047 
z
" style="fill:#1f77b4;opacity:0.4;"/>
   </g>
   <g id="patch_27">
    <path clip-path="url(#pdc2eead987)" d="M 163.870263 224.64 
L 167.304144 224.64 
L 167.304144 224.021047 
L 163.870263 224.021047 
z
" style="fill:#1f77b4;opacity:0.4;"/>
   </g>
   <g id="patch_28">
    <path clip-path="url(#pdc2eead987)" d="M 167.304144 224.64 
L 170.738025 224.64 
L 170.738025 224.64 
L 167.304144 224.64 
z
" style="fill:#1f77b4;opacity:0.4;"/>
   </g>
   <g id="patch_29">
    <path clip-path="url(#pdc2eead987)" d="M 170.738025 224.64 
L 174.171906 224.64 
L 174.171906 224.64 
L 170.738025 224.64 
z
" style="fill:#1f77b4;opacity:0.4;"/>
   </g>
   <g id="patch_30">
    <path clip-path="url(#pdc2eead987)" d="M 174.171906 224.64 
L 177.605787 224.64 
L 177.605787 224.64 
L 174.171906 224.64 
z
" style="fill:#1f77b4;opacity:0.4;"/>
   </g>
   <g id="patch_31">
    <path clip-path="url(#pdc2eead987)" d="M 177.605787 224.64 
L 181.039668 224.64 
L 181.039668 224.64 
L 177.605787 224.64 
z
" style="fill:#1f77b4;opacity:0.4;"/>
   </g>
   <g id="patch_32">
    <path clip-path="url(#pdc2eead987)" d="M 181.039668 224.64 
L 184.473549 224.64 
L 184.473549 224.64 
L 181.039668 224.64 
z
" style="fill:#1f77b4;opacity:0.4;"/>
   </g>
   <g id="patch_33">
    <path clip-path="url(#pdc2eead987)" d="M 184.473549 224.64 
L 187.90743 224.64 
L 187.90743 224.021047 
L 184.473549 224.021047 
z
" style="fill:#1f77b4;opacity:0.4;"/>
   </g>
   <g id="patch_34">
    <path clip-path="url(#pdc2eead987)" d="M 187.90743 224.64 
L 191.341311 224.64 
L 191.341311 224.330524 
L 187.90743 224.330524 
z
" style="fill:#1f77b4;opacity:0.4;"/>
   </g>
   <g id="patch_35">
    <path clip-path="url(#pdc2eead987)" d="M 191.341311 224.64 
L 194.775192 224.64 
L 194.775192 224.64 
L 191.341311 224.64 
z
" style="fill:#1f77b4;opacity:0.4;"/>
   </g>
   <g id="patch_36">
    <path clip-path="url(#pdc2eead987)" d="M 194.775192 224.64 
L 198.209074 224.64 
L 198.209074 224.64 
L 194.775192 224.64 
z
" style="fill:#1f77b4;opacity:0.4;"/>
   </g>
   <g id="patch_37">
    <path clip-path="url(#pdc2eead987)" d="M 198.209074 224.64 
L 201.642955 224.64 
L 201.642955 224.64 
L 198.209074 224.64 
z
" style="fill:#1f77b4;opacity:0.4;"/>
   </g>
   <g id="patch_38">
    <path clip-path="url(#pdc2eead987)" d="M 201.642955 224.64 
L 205.076836 224.64 
L 205.076836 224.64 
L 201.642955 224.64 
z
" style="fill:#1f77b4;opacity:0.4;"/>
   </g>
   <g id="patch_39">
    <path clip-path="url(#pdc2eead987)" d="M 205.076836 224.64 
L 208.510717 224.64 
L 208.510717 224.64 
L 205.076836 224.64 
z
" style="fill:#1f77b4;opacity:0.4;"/>
   </g>
   <g id="patch_40">
    <path clip-path="url(#pdc2eead987)" d="M 208.510717 224.64 
L 211.944598 224.64 
L 211.944598 224.64 
L 208.510717 224.64 
z
" style="fill:#1f77b4;opacity:0.4;"/>
   </g>
   <g id="patch_41">
    <path clip-path="url(#pdc2eead987)" d="M 211.944598 224.64 
L 215.378479 224.64 
L 215.378479 224.64 
L 211.944598 224.64 
z
" style="fill:#1f77b4;opacity:0.4;"/>
   </g>
   <g id="patch_42">
    <path clip-path="url(#pdc2eead987)" d="M 215.378479 224.64 
L 218.81236 224.64 
L 218.81236 224.64 
L 215.378479 224.64 
z
" style="fill:#1f77b4;opacity:0.4;"/>
   </g>
   <g id="patch_43">
    <path clip-path="url(#pdc2eead987)" d="M 218.81236 224.64 
L 222.246241 224.64 
L 222.246241 224.330524 
L 218.81236 224.330524 
z
" style="fill:#1f77b4;opacity:0.4;"/>
   </g>
   <g id="patch_44">
    <path clip-path="url(#pdc2eead987)" d="M 222.246241 224.64 
L 225.680122 224.64 
L 225.680122 224.64 
L 222.246241 224.64 
z
" style="fill:#1f77b4;opacity:0.4;"/>
   </g>
   <g id="patch_45">
    <path clip-path="url(#pdc2eead987)" d="M 225.680122 224.64 
L 229.114003 224.64 
L 229.114003 224.64 
L 225.680122 224.64 
z
" style="fill:#1f77b4;opacity:0.4;"/>
   </g>
   <g id="patch_46">
    <path clip-path="url(#pdc2eead987)" d="M 229.114003 224.64 
L 232.547884 224.64 
L 232.547884 224.64 
L 229.114003 224.64 
z
" style="fill:#1f77b4;opacity:0.4;"/>
   </g>
   <g id="patch_47">
    <path clip-path="url(#pdc2eead987)" d="M 232.547884 224.64 
L 235.981765 224.64 
L 235.981765 224.64 
L 232.547884 224.64 
z
" style="fill:#1f77b4;opacity:0.4;"/>
   </g>
   <g id="patch_48">
    <path clip-path="url(#pdc2eead987)" d="M 235.981765 224.64 
L 239.415646 224.64 
L 239.415646 224.64 
L 235.981765 224.64 
z
" style="fill:#1f77b4;opacity:0.4;"/>
   </g>
   <g id="patch_49">
    <path clip-path="url(#pdc2eead987)" d="M 239.415646 224.64 
L 242.849527 224.64 
L 242.849527 224.64 
L 239.415646 224.64 
z
" style="fill:#1f77b4;opacity:0.4;"/>
   </g>
   <g id="patch_50">
    <path clip-path="url(#pdc2eead987)" d="M 242.849527 224.64 
L 246.283408 224.64 
L 246.283408 224.64 
L 242.849527 224.64 
z
" style="fill:#1f77b4;opacity:0.4;"/>
   </g>
   <g id="patch_51">
    <path clip-path="url(#pdc2eead987)" d="M 246.283408 224.64 
L 249.717289 224.64 
L 249.717289 224.64 
L 246.283408 224.64 
z
" style="fill:#1f77b4;opacity:0.4;"/>
   </g>
   <g id="patch_52">
    <path clip-path="url(#pdc2eead987)" d="M 249.717289 224.64 
L 253.15117 224.64 
L 253.15117 224.330524 
L 249.717289 224.330524 
z
" style="fill:#1f77b4;opacity:0.4;"/>
   </g>
   <g id="patch_53">
    <path clip-path="url(#pdc2eead987)" d="M 80.673284 224.64 
L 86.148103 224.64 
L 86.148103 125.062709 
L 80.673284 125.062709 
z
" style="fill:#ff7f0e;opacity:0.4;"/>
   </g>
   <g id="patch_54">
    <path clip-path="url(#pdc2eead987)" d="M 86.148103 224.64 
L 91.622922 224.64 
L 91.622922 167.572313 
L 86.148103 167.572313 
z
" style="fill:#ff7f0e;opacity:0.4;"/>
   </g>
   <g id="patch_55">
    <path clip-path="url(#pdc2eead987)" d="M 91.622922 224.64 
L 97.09774 224.64 
L 97.09774 209.305485 
L 91.622922 209.305485 
z
" style="fill:#ff7f0e;opacity:0.4;"/>
   </g>
   <g id="patch_56">
    <path clip-path="url(#pdc2eead987)" d="M 97.09774 224.64 
L 102.572559 224.64 
L 102.572559 219.010874 
L 97.09774 219.010874 
z
" style="fill:#ff7f0e;opacity:0.4;"/>
   </g>
   <g id="patch_57">
    <path clip-path="url(#pdc2eead987)" d="M 102.572559 224.64 
L 108.047378 224.64 
L 108.047378 222.89303 
L 102.572559 222.89303 
z
" style="fill:#ff7f0e;opacity:0.4;"/>
   </g>
   <g id="patch_58">
    <path clip-path="url(#pdc2eead987)" d="M 108.047378 224.64 
L 113.522196 224.64 
L 113.522196 223.281246 
L 108.047378 223.281246 
z
" style="fill:#ff7f0e;opacity:0.4;"/>
   </g>
   <g id="patch_59">
    <path clip-path="url(#pdc2eead987)" d="M 113.522196 224.64 
L 118.997015 224.64 
L 118.997015 222.89303 
L 113.522196 222.89303 
z
" style="fill:#ff7f0e;opacity:0.4;"/>
   </g>
   <g id="patch_60">
    <path clip-path="url(#pdc2eead987)" d="M 118.997015 224.64 
L 124.471833 224.64 
L 124.471833 223.087138 
L 118.997015 223.087138 
z
" style="fill:#ff7f0e;opacity:0.4;"/>
   </g>
   <g id="patch_61">
    <path clip-path="url(#pdc2eead987)" d="M 124.471833 224.64 
L 129.946652 224.64 
L 129.946652 222.698922 
L 124.471833 222.698922 
z
" style="fill:#ff7f0e;opacity:0.4;"/>
   </g>
   <g id="patch_62">
    <path clip-path="url(#pdc2eead987)" d="M 129.946652 224.64 
L 135.421471 224.64 
L 135.421471 223.281246 
L 129.946652 223.281246 
z
" style="fill:#ff7f0e;opacity:0.4;"/>
   </g>
   <g id="patch_63">
    <path clip-path="url(#pdc2eead987)" d="M 135.421471 224.64 
L 140.896289 224.64 
L 140.896289 223.669461 
L 135.421471 223.669461 
z
" style="fill:#ff7f0e;opacity:0.4;"/>
   </g>
   <g id="patch_64">
    <path clip-path="url(#pdc2eead987)" d="M 140.896289 224.64 
L 146.371108 224.64 
L 146.371108 224.057677 
L 140.896289 224.057677 
z
" style="fill:#ff7f0e;opacity:0.4;"/>
   </g>
   <g id="patch_65">
    <path clip-path="url(#pdc2eead987)" d="M 146.371108 224.64 
L 151.845927 224.64 
L 151.845927 224.445892 
L 146.371108 224.445892 
z
" style="fill:#ff7f0e;opacity:0.4;"/>
   </g>
   <g id="patch_66">
    <path clip-path="url(#pdc2eead987)" d="M 151.845927 224.64 
L 157.320745 224.64 
L 157.320745 223.863569 
L 151.845927 223.863569 
z
" style="fill:#ff7f0e;opacity:0.4;"/>
   </g>
   <g id="patch_67">
    <path clip-path="url(#pdc2eead987)" d="M 157.320745 224.64 
L 162.795564 224.64 
L 162.795564 224.057677 
L 157.320745 224.057677 
z
" style="fill:#ff7f0e;opacity:0.4;"/>
   </g>
   <g id="patch_68">
    <path clip-path="url(#pdc2eead987)" d="M 162.795564 224.64 
L 168.270382 224.64 
L 168.270382 224.251784 
L 162.795564 224.251784 
z
" style="fill:#ff7f0e;opacity:0.4;"/>
   </g>
   <g id="patch_69">
    <path clip-path="url(#pdc2eead987)" d="M 168.270382 224.64 
L 173.745201 224.64 
L 173.745201 223.669461 
L 168.270382 223.669461 
z
" style="fill:#ff7f0e;opacity:0.4;"/>
   </g>
   <g id="patch_70">
    <path clip-path="url(#pdc2eead987)" d="M 173.745201 224.64 
L 179.22002 224.64 
L 179.22002 224.445892 
L 173.745201 224.445892 
z
" style="fill:#ff7f0e;opacity:0.4;"/>
   </g>
   <g id="patch_71">
    <path clip-path="url(#pdc2eead987)" d="M 179.22002 224.64 
L 184.694838 224.64 
L 184.694838 224.057677 
L 179.22002 224.057677 
z
" style="fill:#ff7f0e;opacity:0.4;"/>
   </g>
   <g id="patch_72">
    <path clip-path="url(#pdc2eead987)" d="M 184.694838 224.64 
L 190.169657 224.64 
L 190.169657 224.64 
L 184.694838 224.64 
z
" style="fill:#ff7f0e;opacity:0.4;"/>
   </g>
   <g id="patch_73">
    <path clip-path="url(#pdc2eead987)" d="M 190.169657 224.64 
L 195.644476 224.64 
L 195.644476 224.251784 
L 190.169657 224.251784 
z
" style="fill:#ff7f0e;opacity:0.4;"/>
   </g>
   <g id="patch_74">
    <path clip-path="url(#pdc2eead987)" d="M 195.644476 224.64 
L 201.119294 224.64 
L 201.119294 224.445892 
L 195.644476 224.445892 
z
" style="fill:#ff7f0e;opacity:0.4;"/>
   </g>
   <g id="patch_75">
    <path clip-path="url(#pdc2eead987)" d="M 201.119294 224.64 
L 206.594113 224.64 
L 206.594113 224.64 
L 201.119294 224.64 
z
" style="fill:#ff7f0e;opacity:0.4;"/>
   </g>
   <g id="patch_76">
    <path clip-path="url(#pdc2eead987)" d="M 206.594113 224.64 
L 212.068931 224.64 
L 212.068931 224.64 
L 206.594113 224.64 
z
" style="fill:#ff7f0e;opacity:0.4;"/>
   </g>
   <g id="patch_77">
    <path clip-path="url(#pdc2eead987)" d="M 212.068931 224.64 
L 217.54375 224.64 
L 217.54375 224.64 
L 212.068931 224.64 
z
" style="fill:#ff7f0e;opacity:0.4;"/>
   </g>
   <g id="patch_78">
    <path clip-path="url(#pdc2eead987)" d="M 217.54375 224.64 
L 223.018569 224.64 
L 223.018569 224.251784 
L 217.54375 224.251784 
z
" style="fill:#ff7f0e;opacity:0.4;"/>
   </g>
   <g id="patch_79">
    <path clip-path="url(#pdc2eead987)" d="M 223.018569 224.64 
L 228.493387 224.64 
L 228.493387 224.64 
L 223.018569 224.64 
z
" style="fill:#ff7f0e;opacity:0.4;"/>
   </g>
   <g id="patch_80">
    <path clip-path="url(#pdc2eead987)" d="M 228.493387 224.64 
L 233.968206 224.64 
L 233.968206 224.64 
L 228.493387 224.64 
z
" style="fill:#ff7f0e;opacity:0.4;"/>
   </g>
   <g id="patch_81">
    <path clip-path="url(#pdc2eead987)" d="M 233.968206 224.64 
L 239.443024 224.64 
L 239.443024 224.445892 
L 233.968206 224.445892 
z
" style="fill:#ff7f0e;opacity:0.4;"/>
   </g>
   <g id="patch_82">
    <path clip-path="url(#pdc2eead987)" d="M 239.443024 224.64 
L 244.917843 224.64 
L 244.917843 224.64 
L 239.443024 224.64 
z
" style="fill:#ff7f0e;opacity:0.4;"/>
   </g>
   <g id="patch_83">
    <path clip-path="url(#pdc2eead987)" d="M 244.917843 224.64 
L 250.392662 224.64 
L 250.392662 224.64 
L 244.917843 224.64 
z
" style="fill:#ff7f0e;opacity:0.4;"/>
   </g>
   <g id="patch_84">
    <path clip-path="url(#pdc2eead987)" d="M 250.392662 224.64 
L 255.86748 224.64 
L 255.86748 224.64 
L 250.392662 224.64 
z
" style="fill:#ff7f0e;opacity:0.4;"/>
   </g>
   <g id="patch_85">
    <path clip-path="url(#pdc2eead987)" d="M 255.86748 224.64 
L 261.342299 224.64 
L 261.342299 224.64 
L 255.86748 224.64 
z
" style="fill:#ff7f0e;opacity:0.4;"/>
   </g>
   <g id="patch_86">
    <path clip-path="url(#pdc2eead987)" d="M 261.342299 224.64 
L 266.817118 224.64 
L 266.817118 224.64 
L 261.342299 224.64 
z
" style="fill:#ff7f0e;opacity:0.4;"/>
   </g>
   <g id="patch_87">
    <path clip-path="url(#pdc2eead987)" d="M 266.817118 224.64 
L 272.291936 224.64 
L 272.291936 224.64 
L 266.817118 224.64 
z
" style="fill:#ff7f0e;opacity:0.4;"/>
   </g>
   <g id="patch_88">
    <path clip-path="url(#pdc2eead987)" d="M 272.291936 224.64 
L 277.766755 224.64 
L 277.766755 224.64 
L 272.291936 224.64 
z
" style="fill:#ff7f0e;opacity:0.4;"/>
   </g>
   <g id="patch_89">
    <path clip-path="url(#pdc2eead987)" d="M 277.766755 224.64 
L 283.241573 224.64 
L 283.241573 224.64 
L 277.766755 224.64 
z
" style="fill:#ff7f0e;opacity:0.4;"/>
   </g>
   <g id="patch_90">
    <path clip-path="url(#pdc2eead987)" d="M 283.241573 224.64 
L 288.716392 224.64 
L 288.716392 224.64 
L 283.241573 224.64 
z
" style="fill:#ff7f0e;opacity:0.4;"/>
   </g>
   <g id="patch_91">
    <path clip-path="url(#pdc2eead987)" d="M 288.716392 224.64 
L 294.191211 224.64 
L 294.191211 224.64 
L 288.716392 224.64 
z
" style="fill:#ff7f0e;opacity:0.4;"/>
   </g>
   <g id="patch_92">
    <path clip-path="url(#pdc2eead987)" d="M 294.191211 224.64 
L 299.666029 224.64 
L 299.666029 224.64 
L 294.191211 224.64 
z
" style="fill:#ff7f0e;opacity:0.4;"/>
   </g>
   <g id="patch_93">
    <path clip-path="url(#pdc2eead987)" d="M 299.666029 224.64 
L 305.140848 224.64 
L 305.140848 224.64 
L 299.666029 224.64 
z
" style="fill:#ff7f0e;opacity:0.4;"/>
   </g>
   <g id="patch_94">
    <path clip-path="url(#pdc2eead987)" d="M 305.140848 224.64 
L 310.615667 224.64 
L 310.615667 224.445892 
L 305.140848 224.445892 
z
" style="fill:#ff7f0e;opacity:0.4;"/>
   </g>
   <g id="patch_95">
    <path clip-path="url(#pdc2eead987)" d="M 310.615667 224.64 
L 316.090485 224.64 
L 316.090485 224.64 
L 310.615667 224.64 
z
" style="fill:#ff7f0e;opacity:0.4;"/>
   </g>
   <g id="patch_96">
    <path clip-path="url(#pdc2eead987)" d="M 316.090485 224.64 
L 321.565304 224.64 
L 321.565304 224.64 
L 316.090485 224.64 
z
" style="fill:#ff7f0e;opacity:0.4;"/>
   </g>
   <g id="patch_97">
    <path clip-path="url(#pdc2eead987)" d="M 321.565304 224.64 
L 327.040122 224.64 
L 327.040122 224.64 
L 321.565304 224.64 
z
" style="fill:#ff7f0e;opacity:0.4;"/>
   </g>
   <g id="patch_98">
    <path clip-path="url(#pdc2eead987)" d="M 327.040122 224.64 
L 332.514941 224.64 
L 332.514941 224.64 
L 327.040122 224.64 
z
" style="fill:#ff7f0e;opacity:0.4;"/>
   </g>
   <g id="patch_99">
    <path clip-path="url(#pdc2eead987)" d="M 332.514941 224.64 
L 337.98976 224.64 
L 337.98976 224.64 
L 332.514941 224.64 
z
" style="fill:#ff7f0e;opacity:0.4;"/>
   </g>
   <g id="patch_100">
    <path clip-path="url(#pdc2eead987)" d="M 337.98976 224.64 
L 343.464578 224.64 
L 343.464578 224.64 
L 337.98976 224.64 
z
" style="fill:#ff7f0e;opacity:0.4;"/>
   </g>
   <g id="patch_101">
    <path clip-path="url(#pdc2eead987)" d="M 343.464578 224.64 
L 348.939397 224.64 
L 348.939397 224.64 
L 343.464578 224.64 
z
" style="fill:#ff7f0e;opacity:0.4;"/>
   </g>
   <g id="patch_102">
    <path clip-path="url(#pdc2eead987)" d="M 348.939397 224.64 
L 354.414216 224.64 
L 354.414216 224.445892 
L 348.939397 224.445892 
z
" style="fill:#ff7f0e;opacity:0.4;"/>
   </g>
   <g id="patch_103">
    <path clip-path="url(#pdc2eead987)" d="M 80.673284 224.64 
L 83.880606 224.64 
L 83.880606 17.554286 
L 80.673284 17.554286 
z
" style="fill:#2ca02c;opacity:0.4;"/>
   </g>
   <g id="patch_104">
    <path clip-path="url(#pdc2eead987)" d="M 83.880606 224.64 
L 87.087928 224.64 
L 87.087928 179.578149 
L 83.880606 179.578149 
z
" style="fill:#2ca02c;opacity:0.4;"/>
   </g>
   <g id="patch_105">
    <path clip-path="url(#pdc2eead987)" d="M 87.087928 224.64 
L 90.29525 224.64 
L 90.29525 203.434423 
L 87.087928 203.434423 
z
" style="fill:#2ca02c;opacity:0.4;"/>
   </g>
   <g id="patch_106">
    <path clip-path="url(#pdc2eead987)" d="M 90.29525 224.64 
L 93.502572 224.64 
L 93.502572 214.037211 
L 90.29525 214.037211 
z
" style="fill:#2ca02c;opacity:0.4;"/>
   </g>
   <g id="patch_107">
    <path clip-path="url(#pdc2eead987)" d="M 93.502572 224.64 
L 96.709894 224.64 
L 96.709894 215.36256 
L 93.502572 215.36256 
z
" style="fill:#2ca02c;opacity:0.4;"/>
   </g>
   <g id="patch_108">
    <path clip-path="url(#pdc2eead987)" d="M 96.709894 224.64 
L 99.917216 224.64 
L 99.917216 217.68192 
L 96.709894 217.68192 
z
" style="fill:#2ca02c;opacity:0.4;"/>
   </g>
   <g id="patch_109">
    <path clip-path="url(#pdc2eead987)" d="M 99.917216 224.64 
L 103.124538 224.64 
L 103.124538 220.332617 
L 99.917216 220.332617 
z
" style="fill:#2ca02c;opacity:0.4;"/>
   </g>
   <g id="patch_110">
    <path clip-path="url(#pdc2eead987)" d="M 103.124538 224.64 
L 106.33186 224.64 
L 106.33186 220.663954 
L 103.124538 220.663954 
z
" style="fill:#2ca02c;opacity:0.4;"/>
   </g>
   <g id="patch_111">
    <path clip-path="url(#pdc2eead987)" d="M 106.33186 224.64 
L 109.539182 224.64 
L 109.539182 220.332617 
L 106.33186 220.332617 
z
" style="fill:#2ca02c;opacity:0.4;"/>
   </g>
   <g id="patch_112">
    <path clip-path="url(#pdc2eead987)" d="M 109.539182 224.64 
L 112.746504 224.64 
L 112.746504 221.326629 
L 109.539182 221.326629 
z
" style="fill:#2ca02c;opacity:0.4;"/>
   </g>
   <g id="patch_113">
    <path clip-path="url(#pdc2eead987)" d="M 112.746504 224.64 
L 115.953826 224.64 
L 115.953826 221.326629 
L 112.746504 221.326629 
z
" style="fill:#2ca02c;opacity:0.4;"/>
   </g>
   <g id="patch_114">
    <path clip-path="url(#pdc2eead987)" d="M 115.953826 224.64 
L 119.161148 224.64 
L 119.161148 221.326629 
L 115.953826 221.326629 
z
" style="fill:#2ca02c;opacity:0.4;"/>
   </g>
   <g id="patch_115">
    <path clip-path="url(#pdc2eead987)" d="M 119.161148 224.64 
L 122.36847 224.64 
L 122.36847 223.314651 
L 119.161148 223.314651 
z
" style="fill:#2ca02c;opacity:0.4;"/>
   </g>
   <g id="patch_116">
    <path clip-path="url(#pdc2eead987)" d="M 122.36847 224.64 
L 125.575792 224.64 
L 125.575792 222.983314 
L 122.36847 222.983314 
z
" style="fill:#2ca02c;opacity:0.4;"/>
   </g>
   <g id="patch_117">
    <path clip-path="url(#pdc2eead987)" d="M 125.575792 224.64 
L 128.783114 224.64 
L 128.783114 222.983314 
L 125.575792 222.983314 
z
" style="fill:#2ca02c;opacity:0.4;"/>
   </g>
   <g id="patch_118">
    <path clip-path="url(#pdc2eead987)" d="M 128.783114 224.64 
L 131.990436 224.64 
L 131.990436 224.308663 
L 128.783114 224.308663 
z
" style="fill:#2ca02c;opacity:0.4;"/>
   </g>
   <g id="patch_119">
    <path clip-path="url(#pdc2eead987)" d="M 131.990436 224.64 
L 135.197757 224.64 
L 135.197757 224.308663 
L 131.990436 224.308663 
z
" style="fill:#2ca02c;opacity:0.4;"/>
   </g>
   <g id="patch_120">
    <path clip-path="url(#pdc2eead987)" d="M 135.197757 224.64 
L 138.405079 224.64 
L 138.405079 224.308663 
L 135.197757 224.308663 
z
" style="fill:#2ca02c;opacity:0.4;"/>
   </g>
   <g id="patch_121">
    <path clip-path="url(#pdc2eead987)" d="M 138.405079 224.64 
L 141.612401 224.64 
L 141.612401 224.64 
L 138.405079 224.64 
z
" style="fill:#2ca02c;opacity:0.4;"/>
   </g>
   <g id="patch_122">
    <path clip-path="url(#pdc2eead987)" d="M 141.612401 224.64 
L 144.819723 224.64 
L 144.819723 223.977326 
L 141.612401 223.977326 
z
" style="fill:#2ca02c;opacity:0.4;"/>
   </g>
   <g id="patch_123">
    <path clip-path="url(#pdc2eead987)" d="M 144.819723 224.64 
L 148.027045 224.64 
L 148.027045 224.64 
L 144.819723 224.64 
z
" style="fill:#2ca02c;opacity:0.4;"/>
   </g>
   <g id="patch_124">
    <path clip-path="url(#pdc2eead987)" d="M 148.027045 224.64 
L 151.234367 224.64 
L 151.234367 224.308663 
L 148.027045 224.308663 
z
" style="fill:#2ca02c;opacity:0.4;"/>
   </g>
   <g id="patch_125">
    <path clip-path="url(#pdc2eead987)" d="M 151.234367 224.64 
L 154.441689 224.64 
L 154.441689 224.64 
L 151.234367 224.64 
z
" style="fill:#2ca02c;opacity:0.4;"/>
   </g>
   <g id="patch_126">
    <path clip-path="url(#pdc2eead987)" d="M 154.441689 224.64 
L 157.649011 224.64 
L 157.649011 223.977326 
L 154.441689 223.977326 
z
" style="fill:#2ca02c;opacity:0.4;"/>
   </g>
   <g id="patch_127">
    <path clip-path="url(#pdc2eead987)" d="M 157.649011 224.64 
L 160.856333 224.64 
L 160.856333 224.64 
L 157.649011 224.64 
z
" style="fill:#2ca02c;opacity:0.4;"/>
   </g>
   <g id="patch_128">
    <path clip-path="url(#pdc2eead987)" d="M 160.856333 224.64 
L 164.063655 224.64 
L 164.063655 224.64 
L 160.856333 224.64 
z
" style="fill:#2ca02c;opacity:0.4;"/>
   </g>
   <g id="patch_129">
    <path clip-path="url(#pdc2eead987)" d="M 164.063655 224.64 
L 167.270977 224.64 
L 167.270977 224.64 
L 164.063655 224.64 
z
" style="fill:#2ca02c;opacity:0.4;"/>
   </g>
   <g id="patch_130">
    <path clip-path="url(#pdc2eead987)" d="M 167.270977 224.64 
L 170.478299 224.64 
L 170.478299 224.308663 
L 167.270977 224.308663 
z
" style="fill:#2ca02c;opacity:0.4;"/>
   </g>
   <g id="patch_131">
    <path clip-path="url(#pdc2eead987)" d="M 170.478299 224.64 
L 173.685621 224.64 
L 173.685621 224.308663 
L 170.478299 224.308663 
z
" style="fill:#2ca02c;opacity:0.4;"/>
   </g>
   <g id="patch_132">
    <path clip-path="url(#pdc2eead987)" d="M 173.685621 224.64 
L 176.892943 224.64 
L 176.892943 224.64 
L 173.685621 224.64 
z
" style="fill:#2ca02c;opacity:0.4;"/>
   </g>
   <g id="patch_133">
    <path clip-path="url(#pdc2eead987)" d="M 176.892943 224.64 
L 180.100265 224.64 
L 180.100265 224.64 
L 176.892943 224.64 
z
" style="fill:#2ca02c;opacity:0.4;"/>
   </g>
   <g id="patch_134">
    <path clip-path="url(#pdc2eead987)" d="M 180.100265 224.64 
L 183.307587 224.64 
L 183.307587 224.64 
L 180.100265 224.64 
z
" style="fill:#2ca02c;opacity:0.4;"/>
   </g>
   <g id="patch_135">
    <path clip-path="url(#pdc2eead987)" d="M 183.307587 224.64 
L 186.514909 224.64 
L 186.514909 224.64 
L 183.307587 224.64 
z
" style="fill:#2ca02c;opacity:0.4;"/>
   </g>
   <g id="patch_136">
    <path clip-path="url(#pdc2eead987)" d="M 186.514909 224.64 
L 189.722231 224.64 
L 189.722231 224.64 
L 186.514909 224.64 
z
" style="fill:#2ca02c;opacity:0.4;"/>
   </g>
   <g id="patch_137">
    <path clip-path="url(#pdc2eead987)" d="M 189.722231 224.64 
L 192.929553 224.64 
L 192.929553 224.64 
L 189.722231 224.64 
z
" style="fill:#2ca02c;opacity:0.4;"/>
   </g>
   <g id="patch_138">
    <path clip-path="url(#pdc2eead987)" d="M 192.929553 224.64 
L 196.136874 224.64 
L 196.136874 224.64 
L 192.929553 224.64 
z
" style="fill:#2ca02c;opacity:0.4;"/>
   </g>
   <g id="patch_139">
    <path clip-path="url(#pdc2eead987)" d="M 196.136874 224.64 
L 199.344196 224.64 
L 199.344196 224.64 
L 196.136874 224.64 
z
" style="fill:#2ca02c;opacity:0.4;"/>
   </g>
   <g id="patch_140">
    <path clip-path="url(#pdc2eead987)" d="M 199.344196 224.64 
L 202.551518 224.64 
L 202.551518 224.308663 
L 199.344196 224.308663 
z
" style="fill:#2ca02c;opacity:0.4;"/>
   </g>
   <g id="patch_141">
    <path clip-path="url(#pdc2eead987)" d="M 202.551518 224.64 
L 205.75884 224.64 
L 205.75884 224.64 
L 202.551518 224.64 
z
" style="fill:#2ca02c;opacity:0.4;"/>
   </g>
   <g id="patch_142">
    <path clip-path="url(#pdc2eead987)" d="M 205.75884 224.64 
L 208.966162 224.64 
L 208.966162 224.64 
L 205.75884 224.64 
z
" style="fill:#2ca02c;opacity:0.4;"/>
   </g>
   <g id="patch_143">
    <path clip-path="url(#pdc2eead987)" d="M 208.966162 224.64 
L 212.173484 224.64 
L 212.173484 224.64 
L 208.966162 224.64 
z
" style="fill:#2ca02c;opacity:0.4;"/>
   </g>
   <g id="patch_144">
    <path clip-path="url(#pdc2eead987)" d="M 212.173484 224.64 
L 215.380806 224.64 
L 215.380806 224.64 
L 212.173484 224.64 
z
" style="fill:#2ca02c;opacity:0.4;"/>
   </g>
   <g id="patch_145">
    <path clip-path="url(#pdc2eead987)" d="M 215.380806 224.64 
L 218.588128 224.64 
L 218.588128 224.64 
L 215.380806 224.64 
z
" style="fill:#2ca02c;opacity:0.4;"/>
   </g>
   <g id="patch_146">
    <path clip-path="url(#pdc2eead987)" d="M 218.588128 224.64 
L 221.79545 224.64 
L 221.79545 224.64 
L 218.588128 224.64 
z
" style="fill:#2ca02c;opacity:0.4;"/>
   </g>
   <g id="patch_147">
    <path clip-path="url(#pdc2eead987)" d="M 221.79545 224.64 
L 225.002772 224.64 
L 225.002772 224.64 
L 221.79545 224.64 
z
" style="fill:#2ca02c;opacity:0.4;"/>
   </g>
   <g id="patch_148">
    <path clip-path="url(#pdc2eead987)" d="M 225.002772 224.64 
L 228.210094 224.64 
L 228.210094 224.64 
L 225.002772 224.64 
z
" style="fill:#2ca02c;opacity:0.4;"/>
   </g>
   <g id="patch_149">
    <path clip-path="url(#pdc2eead987)" d="M 228.210094 224.64 
L 231.417416 224.64 
L 231.417416 224.64 
L 228.210094 224.64 
z
" style="fill:#2ca02c;opacity:0.4;"/>
   </g>
   <g id="patch_150">
    <path clip-path="url(#pdc2eead987)" d="M 231.417416 224.64 
L 234.624738 224.64 
L 234.624738 224.64 
L 231.417416 224.64 
z
" style="fill:#2ca02c;opacity:0.4;"/>
   </g>
   <g id="patch_151">
    <path clip-path="url(#pdc2eead987)" d="M 234.624738 224.64 
L 237.83206 224.64 
L 237.83206 224.64 
L 234.624738 224.64 
z
" style="fill:#2ca02c;opacity:0.4;"/>
   </g>
   <g id="patch_152">
    <path clip-path="url(#pdc2eead987)" d="M 237.83206 224.64 
L 241.039382 224.64 
L 241.039382 224.308663 
L 237.83206 224.308663 
z
" style="fill:#2ca02c;opacity:0.4;"/>
   </g>
   <g id="matplotlib.axis_1">
    <g id="xtick_1">
     <g id="line2d_1">
      <defs>
       <path d="M 0 0 
L 0 3.5 
" id="m94e2df2b09" style="stroke:#000000;stroke-width:0.8;"/>
      </defs>
      <g>
       <use style="stroke:#000000;stroke-width:0.8;" x="80.673284" xlink:href="#m94e2df2b09" y="224.64"/>
      </g>
     </g>
     <g id="text_1">
      <!-- 0 -->
      <g transform="translate(77.492034 239.238437)scale(0.1 -0.1)">
       <defs>
        <path d="M 31.78125 66.40625 
Q 24.171875 66.40625 20.328125 58.90625 
Q 16.5 51.421875 16.5 36.375 
Q 16.5 21.390625 20.328125 13.890625 
Q 24.171875 6.390625 31.78125 6.390625 
Q 39.453125 6.390625 43.28125 13.890625 
Q 47.125 21.390625 47.125 36.375 
Q 47.125 51.421875 43.28125 58.90625 
Q 39.453125 66.40625 31.78125 66.40625 
z
M 31.78125 74.21875 
Q 44.046875 74.21875 50.515625 64.515625 
Q 56.984375 54.828125 56.984375 36.375 
Q 56.984375 17.96875 50.515625 8.265625 
Q 44.046875 -1.421875 31.78125 -1.421875 
Q 19.53125 -1.421875 13.0625 8.265625 
Q 6.59375 17.96875 6.59375 36.375 
Q 6.59375 54.828125 13.0625 64.515625 
Q 19.53125 74.21875 31.78125 74.21875 
z
" id="DejaVuSans-48"/>
       </defs>
       <use xlink:href="#DejaVuSans-48"/>
      </g>
     </g>
    </g>
    <g id="xtick_2">
     <g id="line2d_2">
      <g>
       <use style="stroke:#000000;stroke-width:0.8;" x="126.303312" xlink:href="#m94e2df2b09" y="224.64"/>
      </g>
     </g>
     <g id="text_2">
      <!-- 5 -->
      <g transform="translate(123.122062 239.238437)scale(0.1 -0.1)">
       <defs>
        <path d="M 10.796875 72.90625 
L 49.515625 72.90625 
L 49.515625 64.59375 
L 19.828125 64.59375 
L 19.828125 46.734375 
Q 21.96875 47.46875 24.109375 47.828125 
Q 26.265625 48.1875 28.421875 48.1875 
Q 40.625 48.1875 47.75 41.5 
Q 54.890625 34.8125 54.890625 23.390625 
Q 54.890625 11.625 47.5625 5.09375 
Q 40.234375 -1.421875 26.90625 -1.421875 
Q 22.3125 -1.421875 17.546875 -0.640625 
Q 12.796875 0.140625 7.71875 1.703125 
L 7.71875 11.625 
Q 12.109375 9.234375 16.796875 8.0625 
Q 21.484375 6.890625 26.703125 6.890625 
Q 35.15625 6.890625 40.078125 11.328125 
Q 45.015625 15.765625 45.015625 23.390625 
Q 45.015625 31 40.078125 35.4375 
Q 35.15625 39.890625 26.703125 39.890625 
Q 22.75 39.890625 18.8125 39.015625 
Q 14.890625 38.140625 10.796875 36.28125 
z
" id="DejaVuSans-53"/>
       </defs>
       <use xlink:href="#DejaVuSans-53"/>
      </g>
     </g>
    </g>
    <g id="xtick_3">
     <g id="line2d_3">
      <g>
       <use style="stroke:#000000;stroke-width:0.8;" x="171.93334" xlink:href="#m94e2df2b09" y="224.64"/>
      </g>
     </g>
     <g id="text_3">
      <!-- 10 -->
      <g transform="translate(165.57084 239.238437)scale(0.1 -0.1)">
       <defs>
        <path d="M 12.40625 8.296875 
L 28.515625 8.296875 
L 28.515625 63.921875 
L 10.984375 60.40625 
L 10.984375 69.390625 
L 28.421875 72.90625 
L 38.28125 72.90625 
L 38.28125 8.296875 
L 54.390625 8.296875 
L 54.390625 0 
L 12.40625 0 
z
" id="DejaVuSans-49"/>
       </defs>
       <use xlink:href="#DejaVuSans-49"/>
       <use x="63.623047" xlink:href="#DejaVuSans-48"/>
      </g>
     </g>
    </g>
    <g id="xtick_4">
     <g id="line2d_4">
      <g>
       <use style="stroke:#000000;stroke-width:0.8;" x="217.563369" xlink:href="#m94e2df2b09" y="224.64"/>
      </g>
     </g>
     <g id="text_4">
      <!-- 15 -->
      <g transform="translate(211.200869 239.238437)scale(0.1 -0.1)">
       <use xlink:href="#DejaVuSans-49"/>
       <use x="63.623047" xlink:href="#DejaVuSans-53"/>
      </g>
     </g>
    </g>
    <g id="xtick_5">
     <g id="line2d_5">
      <g>
       <use style="stroke:#000000;stroke-width:0.8;" x="263.193397" xlink:href="#m94e2df2b09" y="224.64"/>
      </g>
     </g>
     <g id="text_5">
      <!-- 20 -->
      <g transform="translate(256.830897 239.238437)scale(0.1 -0.1)">
       <defs>
        <path d="M 19.1875 8.296875 
L 53.609375 8.296875 
L 53.609375 0 
L 7.328125 0 
L 7.328125 8.296875 
Q 12.9375 14.109375 22.625 23.890625 
Q 32.328125 33.6875 34.8125 36.53125 
Q 39.546875 41.84375 41.421875 45.53125 
Q 43.3125 49.21875 43.3125 52.78125 
Q 43.3125 58.59375 39.234375 62.25 
Q 35.15625 65.921875 28.609375 65.921875 
Q 23.96875 65.921875 18.8125 64.3125 
Q 13.671875 62.703125 7.8125 59.421875 
L 7.8125 69.390625 
Q 13.765625 71.78125 18.9375 73 
Q 24.125 74.21875 28.421875 74.21875 
Q 39.75 74.21875 46.484375 68.546875 
Q 53.21875 62.890625 53.21875 53.421875 
Q 53.21875 48.921875 51.53125 44.890625 
Q 49.859375 40.875 45.40625 35.40625 
Q 44.1875 33.984375 37.640625 27.21875 
Q 31.109375 20.453125 19.1875 8.296875 
z
" id="DejaVuSans-50"/>
       </defs>
       <use xlink:href="#DejaVuSans-50"/>
       <use x="63.623047" xlink:href="#DejaVuSans-48"/>
      </g>
     </g>
    </g>
    <g id="xtick_6">
     <g id="line2d_6">
      <g>
       <use style="stroke:#000000;stroke-width:0.8;" x="308.823425" xlink:href="#m94e2df2b09" y="224.64"/>
      </g>
     </g>
     <g id="text_6">
      <!-- 25 -->
      <g transform="translate(302.460925 239.238437)scale(0.1 -0.1)">
       <use xlink:href="#DejaVuSans-50"/>
       <use x="63.623047" xlink:href="#DejaVuSans-53"/>
      </g>
     </g>
    </g>
    <g id="xtick_7">
     <g id="line2d_7">
      <g>
       <use style="stroke:#000000;stroke-width:0.8;" x="354.453453" xlink:href="#m94e2df2b09" y="224.64"/>
      </g>
     </g>
     <g id="text_7">
      <!-- 30 -->
      <g transform="translate(348.090953 239.238437)scale(0.1 -0.1)">
       <defs>
        <path d="M 40.578125 39.3125 
Q 47.65625 37.796875 51.625 33 
Q 55.609375 28.21875 55.609375 21.1875 
Q 55.609375 10.40625 48.1875 4.484375 
Q 40.765625 -1.421875 27.09375 -1.421875 
Q 22.515625 -1.421875 17.65625 -0.515625 
Q 12.796875 0.390625 7.625 2.203125 
L 7.625 11.71875 
Q 11.71875 9.328125 16.59375 8.109375 
Q 21.484375 6.890625 26.8125 6.890625 
Q 36.078125 6.890625 40.9375 10.546875 
Q 45.796875 14.203125 45.796875 21.1875 
Q 45.796875 27.640625 41.28125 31.265625 
Q 36.765625 34.90625 28.71875 34.90625 
L 20.21875 34.90625 
L 20.21875 43.015625 
L 29.109375 43.015625 
Q 36.375 43.015625 40.234375 45.921875 
Q 44.09375 48.828125 44.09375 54.296875 
Q 44.09375 59.90625 40.109375 62.90625 
Q 36.140625 65.921875 28.71875 65.921875 
Q 24.65625 65.921875 20.015625 65.03125 
Q 15.375 64.15625 9.8125 62.3125 
L 9.8125 71.09375 
Q 15.4375 72.65625 20.34375 73.4375 
Q 25.25 74.21875 29.59375 74.21875 
Q 40.828125 74.21875 47.359375 69.109375 
Q 53.90625 64.015625 53.90625 55.328125 
Q 53.90625 49.265625 50.4375 45.09375 
Q 46.96875 40.921875 40.578125 39.3125 
z
" id="DejaVuSans-51"/>
       </defs>
       <use xlink:href="#DejaVuSans-51"/>
       <use x="63.623047" xlink:href="#DejaVuSans-48"/>
      </g>
     </g>
    </g>
    <g id="text_8">
     <!-- f(t) -->
     <g transform="translate(209.921875 252.916562)scale(0.1 -0.1)">
      <defs>
       <path d="M 37.109375 75.984375 
L 37.109375 68.5 
L 28.515625 68.5 
Q 23.6875 68.5 21.796875 66.546875 
Q 19.921875 64.59375 19.921875 59.515625 
L 19.921875 54.6875 
L 34.71875 54.6875 
L 34.71875 47.703125 
L 19.921875 47.703125 
L 19.921875 0 
L 10.890625 0 
L 10.890625 47.703125 
L 2.296875 47.703125 
L 2.296875 54.6875 
L 10.890625 54.6875 
L 10.890625 58.5 
Q 10.890625 67.625 15.140625 71.796875 
Q 19.390625 75.984375 28.609375 75.984375 
z
" id="DejaVuSans-102"/>
       <path d="M 31 75.875 
Q 24.46875 64.65625 21.28125 53.65625 
Q 18.109375 42.671875 18.109375 31.390625 
Q 18.109375 20.125 21.3125 9.0625 
Q 24.515625 -2 31 -13.1875 
L 23.1875 -13.1875 
Q 15.875 -1.703125 12.234375 9.375 
Q 8.59375 20.453125 8.59375 31.390625 
Q 8.59375 42.28125 12.203125 53.3125 
Q 15.828125 64.359375 23.1875 75.875 
z
" id="DejaVuSans-40"/>
       <path d="M 18.3125 70.21875 
L 18.3125 54.6875 
L 36.8125 54.6875 
L 36.8125 47.703125 
L 18.3125 47.703125 
L 18.3125 18.015625 
Q 18.3125 11.328125 20.140625 9.421875 
Q 21.96875 7.515625 27.59375 7.515625 
L 36.8125 7.515625 
L 36.8125 0 
L 27.59375 0 
Q 17.1875 0 13.234375 3.875 
Q 9.28125 7.765625 9.28125 18.015625 
L 9.28125 47.703125 
L 2.6875 47.703125 
L 2.6875 54.6875 
L 9.28125 54.6875 
L 9.28125 70.21875 
z
" id="DejaVuSans-116"/>
       <path d="M 8.015625 75.875 
L 15.828125 75.875 
Q 23.140625 64.359375 26.78125 53.3125 
Q 30.421875 42.28125 30.421875 31.390625 
Q 30.421875 20.453125 26.78125 9.375 
Q 23.140625 -1.703125 15.828125 -13.1875 
L 8.015625 -13.1875 
Q 14.5 -2 17.703125 9.0625 
Q 20.90625 20.125 20.90625 31.390625 
Q 20.90625 42.671875 17.703125 53.65625 
Q 14.5 64.65625 8.015625 75.875 
z
" id="DejaVuSans-41"/>
      </defs>
      <use xlink:href="#DejaVuSans-102"/>
      <use x="35.205078" xlink:href="#DejaVuSans-40"/>
      <use x="74.21875" xlink:href="#DejaVuSans-116"/>
      <use x="113.427734" xlink:href="#DejaVuSans-41"/>
     </g>
    </g>
   </g>
   <g id="matplotlib.axis_2">
    <g id="ytick_1">
     <g id="line2d_8">
      <defs>
       <path d="M 0 0 
L -3.5 0 
" id="m2fb29cc78d" style="stroke:#000000;stroke-width:0.8;"/>
      </defs>
      <g>
       <use style="stroke:#000000;stroke-width:0.8;" x="50.14375" xlink:href="#m2fb29cc78d" y="224.64"/>
      </g>
     </g>
     <g id="text_9">
      <!-- 0.00 -->
      <g transform="translate(20.878125 228.439219)scale(0.1 -0.1)">
       <defs>
        <path d="M 10.6875 12.40625 
L 21 12.40625 
L 21 0 
L 10.6875 0 
z
" id="DejaVuSans-46"/>
       </defs>
       <use xlink:href="#DejaVuSans-48"/>
       <use x="63.623047" xlink:href="#DejaVuSans-46"/>
       <use x="95.410156" xlink:href="#DejaVuSans-48"/>
       <use x="159.033203" xlink:href="#DejaVuSans-48"/>
      </g>
     </g>
    </g>
    <g id="ytick_2">
     <g id="line2d_9">
      <g>
       <use style="stroke:#000000;stroke-width:0.8;" x="50.14375" xlink:href="#m2fb29cc78d" y="195.528006"/>
      </g>
     </g>
     <g id="text_10">
      <!-- 0.25 -->
      <g transform="translate(20.878125 199.327225)scale(0.1 -0.1)">
       <use xlink:href="#DejaVuSans-48"/>
       <use x="63.623047" xlink:href="#DejaVuSans-46"/>
       <use x="95.410156" xlink:href="#DejaVuSans-50"/>
       <use x="159.033203" xlink:href="#DejaVuSans-53"/>
      </g>
     </g>
    </g>
    <g id="ytick_3">
     <g id="line2d_10">
      <g>
       <use style="stroke:#000000;stroke-width:0.8;" x="50.14375" xlink:href="#m2fb29cc78d" y="166.416012"/>
      </g>
     </g>
     <g id="text_11">
      <!-- 0.50 -->
      <g transform="translate(20.878125 170.21523)scale(0.1 -0.1)">
       <use xlink:href="#DejaVuSans-48"/>
       <use x="63.623047" xlink:href="#DejaVuSans-46"/>
       <use x="95.410156" xlink:href="#DejaVuSans-53"/>
       <use x="159.033203" xlink:href="#DejaVuSans-48"/>
      </g>
     </g>
    </g>
    <g id="ytick_4">
     <g id="line2d_11">
      <g>
       <use style="stroke:#000000;stroke-width:0.8;" x="50.14375" xlink:href="#m2fb29cc78d" y="137.304017"/>
      </g>
     </g>
     <g id="text_12">
      <!-- 0.75 -->
      <g transform="translate(20.878125 141.103236)scale(0.1 -0.1)">
       <defs>
        <path d="M 8.203125 72.90625 
L 55.078125 72.90625 
L 55.078125 68.703125 
L 28.609375 0 
L 18.3125 0 
L 43.21875 64.59375 
L 8.203125 64.59375 
z
" id="DejaVuSans-55"/>
       </defs>
       <use xlink:href="#DejaVuSans-48"/>
       <use x="63.623047" xlink:href="#DejaVuSans-46"/>
       <use x="95.410156" xlink:href="#DejaVuSans-55"/>
       <use x="159.033203" xlink:href="#DejaVuSans-53"/>
      </g>
     </g>
    </g>
    <g id="ytick_5">
     <g id="line2d_12">
      <g>
       <use style="stroke:#000000;stroke-width:0.8;" x="50.14375" xlink:href="#m2fb29cc78d" y="108.192023"/>
      </g>
     </g>
     <g id="text_13">
      <!-- 1.00 -->
      <g transform="translate(20.878125 111.991242)scale(0.1 -0.1)">
       <use xlink:href="#DejaVuSans-49"/>
       <use x="63.623047" xlink:href="#DejaVuSans-46"/>
       <use x="95.410156" xlink:href="#DejaVuSans-48"/>
       <use x="159.033203" xlink:href="#DejaVuSans-48"/>
      </g>
     </g>
    </g>
    <g id="ytick_6">
     <g id="line2d_13">
      <g>
       <use style="stroke:#000000;stroke-width:0.8;" x="50.14375" xlink:href="#m2fb29cc78d" y="79.080029"/>
      </g>
     </g>
     <g id="text_14">
      <!-- 1.25 -->
      <g transform="translate(20.878125 82.879248)scale(0.1 -0.1)">
       <use xlink:href="#DejaVuSans-49"/>
       <use x="63.623047" xlink:href="#DejaVuSans-46"/>
       <use x="95.410156" xlink:href="#DejaVuSans-50"/>
       <use x="159.033203" xlink:href="#DejaVuSans-53"/>
      </g>
     </g>
    </g>
    <g id="ytick_7">
     <g id="line2d_14">
      <g>
       <use style="stroke:#000000;stroke-width:0.8;" x="50.14375" xlink:href="#m2fb29cc78d" y="49.968035"/>
      </g>
     </g>
     <g id="text_15">
      <!-- 1.50 -->
      <g transform="translate(20.878125 53.767253)scale(0.1 -0.1)">
       <use xlink:href="#DejaVuSans-49"/>
       <use x="63.623047" xlink:href="#DejaVuSans-46"/>
       <use x="95.410156" xlink:href="#DejaVuSans-53"/>
       <use x="159.033203" xlink:href="#DejaVuSans-48"/>
      </g>
     </g>
    </g>
    <g id="ytick_8">
     <g id="line2d_15">
      <g>
       <use style="stroke:#000000;stroke-width:0.8;" x="50.14375" xlink:href="#m2fb29cc78d" y="20.85604"/>
      </g>
     </g>
     <g id="text_16">
      <!-- 1.75 -->
      <g transform="translate(20.878125 24.655259)scale(0.1 -0.1)">
       <use xlink:href="#DejaVuSans-49"/>
       <use x="63.623047" xlink:href="#DejaVuSans-46"/>
       <use x="95.410156" xlink:href="#DejaVuSans-55"/>
       <use x="159.033203" xlink:href="#DejaVuSans-53"/>
      </g>
     </g>
    </g>
    <g id="text_17">
     <!-- Density -->
     <g transform="translate(14.798438 134.928594)rotate(-90)scale(0.1 -0.1)">
      <defs>
       <path d="M 19.671875 64.796875 
L 19.671875 8.109375 
L 31.59375 8.109375 
Q 46.6875 8.109375 53.6875 14.9375 
Q 60.6875 21.78125 60.6875 36.53125 
Q 60.6875 51.171875 53.6875 57.984375 
Q 46.6875 64.796875 31.59375 64.796875 
z
M 9.8125 72.90625 
L 30.078125 72.90625 
Q 51.265625 72.90625 61.171875 64.09375 
Q 71.09375 55.28125 71.09375 36.53125 
Q 71.09375 17.671875 61.125 8.828125 
Q 51.171875 0 30.078125 0 
L 9.8125 0 
z
" id="DejaVuSans-68"/>
       <path d="M 56.203125 29.59375 
L 56.203125 25.203125 
L 14.890625 25.203125 
Q 15.484375 15.921875 20.484375 11.0625 
Q 25.484375 6.203125 34.421875 6.203125 
Q 39.59375 6.203125 44.453125 7.46875 
Q 49.3125 8.734375 54.109375 11.28125 
L 54.109375 2.78125 
Q 49.265625 0.734375 44.1875 -0.34375 
Q 39.109375 -1.421875 33.890625 -1.421875 
Q 20.796875 -1.421875 13.15625 6.1875 
Q 5.515625 13.8125 5.515625 26.8125 
Q 5.515625 40.234375 12.765625 48.109375 
Q 20.015625 56 32.328125 56 
Q 43.359375 56 49.78125 48.890625 
Q 56.203125 41.796875 56.203125 29.59375 
z
M 47.21875 32.234375 
Q 47.125 39.59375 43.09375 43.984375 
Q 39.0625 48.390625 32.421875 48.390625 
Q 24.90625 48.390625 20.390625 44.140625 
Q 15.875 39.890625 15.1875 32.171875 
z
" id="DejaVuSans-101"/>
       <path d="M 54.890625 33.015625 
L 54.890625 0 
L 45.90625 0 
L 45.90625 32.71875 
Q 45.90625 40.484375 42.875 44.328125 
Q 39.84375 48.1875 33.796875 48.1875 
Q 26.515625 48.1875 22.3125 43.546875 
Q 18.109375 38.921875 18.109375 30.90625 
L 18.109375 0 
L 9.078125 0 
L 9.078125 54.6875 
L 18.109375 54.6875 
L 18.109375 46.1875 
Q 21.34375 51.125 25.703125 53.5625 
Q 30.078125 56 35.796875 56 
Q 45.21875 56 50.046875 50.171875 
Q 54.890625 44.34375 54.890625 33.015625 
z
" id="DejaVuSans-110"/>
       <path d="M 44.28125 53.078125 
L 44.28125 44.578125 
Q 40.484375 46.53125 36.375 47.5 
Q 32.28125 48.484375 27.875 48.484375 
Q 21.1875 48.484375 17.84375 46.4375 
Q 14.5 44.390625 14.5 40.28125 
Q 14.5 37.15625 16.890625 35.375 
Q 19.28125 33.59375 26.515625 31.984375 
L 29.59375 31.296875 
Q 39.15625 29.25 43.1875 25.515625 
Q 47.21875 21.78125 47.21875 15.09375 
Q 47.21875 7.46875 41.1875 3.015625 
Q 35.15625 -1.421875 24.609375 -1.421875 
Q 20.21875 -1.421875 15.453125 -0.5625 
Q 10.6875 0.296875 5.421875 2 
L 5.421875 11.28125 
Q 10.40625 8.6875 15.234375 7.390625 
Q 20.0625 6.109375 24.8125 6.109375 
Q 31.15625 6.109375 34.5625 8.28125 
Q 37.984375 10.453125 37.984375 14.40625 
Q 37.984375 18.0625 35.515625 20.015625 
Q 33.0625 21.96875 24.703125 23.78125 
L 21.578125 24.515625 
Q 13.234375 26.265625 9.515625 29.90625 
Q 5.8125 33.546875 5.8125 39.890625 
Q 5.8125 47.609375 11.28125 51.796875 
Q 16.75 56 26.8125 56 
Q 31.78125 56 36.171875 55.265625 
Q 40.578125 54.546875 44.28125 53.078125 
z
" id="DejaVuSans-115"/>
       <path d="M 9.421875 54.6875 
L 18.40625 54.6875 
L 18.40625 0 
L 9.421875 0 
z
M 9.421875 75.984375 
L 18.40625 75.984375 
L 18.40625 64.59375 
L 9.421875 64.59375 
z
" id="DejaVuSans-105"/>
       <path d="M 32.171875 -5.078125 
Q 28.375 -14.84375 24.75 -17.8125 
Q 21.140625 -20.796875 15.09375 -20.796875 
L 7.90625 -20.796875 
L 7.90625 -13.28125 
L 13.1875 -13.28125 
Q 16.890625 -13.28125 18.9375 -11.515625 
Q 21 -9.765625 23.484375 -3.21875 
L 25.09375 0.875 
L 2.984375 54.6875 
L 12.5 54.6875 
L 29.59375 11.921875 
L 46.6875 54.6875 
L 56.203125 54.6875 
z
" id="DejaVuSans-121"/>
      </defs>
      <use xlink:href="#DejaVuSans-68"/>
      <use x="77.001953" xlink:href="#DejaVuSans-101"/>
      <use x="138.525391" xlink:href="#DejaVuSans-110"/>
      <use x="201.904297" xlink:href="#DejaVuSans-115"/>
      <use x="254.003906" xlink:href="#DejaVuSans-105"/>
      <use x="281.787109" xlink:href="#DejaVuSans-116"/>
      <use x="320.996094" xlink:href="#DejaVuSans-121"/>
     </g>
    </g>
   </g>
   <g id="line2d_16">
    <path clip-path="url(#pdc2eead987)" d="M 69.944225 224.636014 
L 73.858192 224.553645 
L 75.815175 224.348324 
L 77.772159 223.83413 
L 78.75065 223.392124 
L 79.729142 222.791216 
L 80.707634 222.012091 
L 81.686125 221.044834 
L 82.664617 219.889281 
L 84.6216 217.044663 
L 86.578583 213.537533 
L 88.535567 209.34563 
L 90.49255 204.397001 
L 92.449533 198.754613 
L 95.385008 189.93373 
L 96.3635 187.330654 
L 97.341992 185.154053 
L 98.320483 183.572814 
L 99.298975 182.728659 
L 100.277466 182.701879 
L 101.255958 183.484102 
L 102.23445 184.970008 
L 103.212941 186.974337 
L 107.126908 196.000737 
L 109.083891 199.540605 
L 111.040875 202.485737 
L 113.97635 206.368791 
L 120.825791 214.740455 
L 122.782774 216.66937 
L 124.739758 218.153176 
L 126.696741 219.250364 
L 128.653724 220.048449 
L 130.610708 220.630253 
L 133.546182 221.240114 
L 136.481657 221.579271 
L 142.352607 222.035386 
L 145.288082 222.616596 
L 149.202049 223.489092 
L 152.137524 223.878731 
L 156.05149 224.041299 
L 167.79339 224.282311 
L 173.66434 224.588255 
L 178.556798 224.588744 
L 189.320206 224.4017 
L 196.169648 224.622214 
L 210.847023 224.632601 
L 229.438364 224.635375 
L 249.008197 224.578315 
L 255.857638 224.55385 
L 264.664063 224.638773 
L 264.664063 224.638773 
" style="fill:none;stroke:#1f77b4;stroke-linecap:square;stroke-width:1.5;"/>
   </g>
   <g id="line2d_17">
    <path clip-path="url(#pdc2eead987)" d="M 65.361932 224.479848 
L 66.891397 224.237076 
L 68.420863 223.707289 
L 69.950328 222.651648 
L 71.479794 220.732308 
L 73.009259 217.551261 
L 74.538725 212.752837 
L 76.06819 206.181341 
L 77.597656 198.044177 
L 80.656587 180.10408 
L 82.186052 172.589216 
L 83.715518 167.561471 
L 85.244983 165.712536 
L 86.774449 167.163451 
L 88.303914 171.481307 
L 89.83338 177.840592 
L 94.421776 199.762614 
L 95.951242 205.72256 
L 97.480708 210.521888 
L 99.010173 214.20521 
L 100.539639 216.932106 
L 102.069104 218.901675 
L 103.59857 220.302141 
L 105.128035 221.286783 
L 106.657501 221.969563 
L 108.186966 222.431719 
L 109.716432 222.731943 
L 112.775363 223.017809 
L 117.363759 223.092618 
L 129.599483 223.11906 
L 146.423604 224.048123 
L 154.070931 224.078492 
L 170.895052 224.107477 
L 180.071845 224.277986 
L 192.307569 224.395796 
L 210.661155 224.593602 
L 227.485276 224.555413 
L 256.54512 224.639977 
L 369.725568 224.639077 
L 369.725568 224.639077 
" style="fill:none;stroke:#ff7f0e;stroke-linecap:square;stroke-width:1.5;"/>
   </g>
   <g id="line2d_18">
    <path clip-path="url(#pdc2eead987)" d="M 71.150828 223.875441 
L 72.05239 222.904952 
L 72.953953 221.003147 
L 73.855516 217.596518 
L 74.757079 212.031247 
L 75.658642 203.76562 
L 76.560205 192.656533 
L 79.264893 151.495432 
L 80.166456 141.248466 
L 81.068019 135.751335 
L 81.969582 135.638922 
L 82.871145 140.410714 
L 83.772708 148.700193 
L 86.477396 178.776408 
L 87.378959 187.092001 
L 88.280522 194.000731 
L 89.182085 199.596187 
L 90.083648 204.045407 
L 90.985211 207.522178 
L 91.886774 210.191877 
L 92.788336 212.214028 
L 93.689899 213.741153 
L 94.591462 214.910214 
L 95.493025 215.832834 
L 97.296151 217.238225 
L 99.099276 218.322547 
L 101.803965 219.605922 
L 103.607091 220.234073 
L 105.410217 220.623687 
L 107.213342 220.790878 
L 111.721157 221.044331 
L 115.327408 221.625627 
L 121.638348 222.675705 
L 128.850851 223.684231 
L 132.457103 224.125743 
L 136.063354 224.289425 
L 154.094612 224.376053 
L 157.700863 224.429568 
L 162.208677 224.577353 
L 178.436809 224.596296 
L 186.550875 224.63996 
L 198.271192 224.547137 
L 202.779007 224.526303 
L 211.794635 224.639598 
L 237.939958 224.557081 
L 242.447773 224.518956 
L 250.561839 224.638516 
L 250.561839 224.638516 
" style="fill:none;stroke:#2ca02c;stroke-linecap:square;stroke-width:1.5;"/>
   </g>
   <g id="patch_153">
    <path d="M 50.14375 224.64 
L 50.14375 7.2 
" style="fill:none;stroke:#000000;stroke-linecap:square;stroke-linejoin:miter;stroke-width:0.8;"/>
   </g>
   <g id="patch_154">
    <path d="M 384.94375 224.64 
L 384.94375 7.2 
" style="fill:none;stroke:#000000;stroke-linecap:square;stroke-linejoin:miter;stroke-width:0.8;"/>
   </g>
   <g id="patch_155">
    <path d="M 50.14375 224.64 
L 384.94375 224.64 
" style="fill:none;stroke:#000000;stroke-linecap:square;stroke-linejoin:miter;stroke-width:0.8;"/>
   </g>
   <g id="patch_156">
    <path d="M 50.14375 7.2 
L 384.94375 7.2 
" style="fill:none;stroke:#000000;stroke-linecap:square;stroke-linejoin:miter;stroke-width:0.8;"/>
   </g>
  </g>
 </g>
 <defs>
  <clipPath id="pdc2eead987">
   <rect height="217.44" width="334.8" x="50.14375" y="7.2"/>
  </clipPath>
 </defs>
</svg>
