<?xml version="1.0" encoding="utf-8" standalone="no"?>
<!DOCTYPE svg PUBLIC "-//W3C//DTD SVG 1.1//EN"
  "http://www.w3.org/Graphics/SVG/1.1/DTD/svg11.dtd">
<svg height="263.355476pt" version="1.1" viewBox="0 0 385.78125 263.355476" width="385.78125pt" xmlns="http://www.w3.org/2000/svg" xmlns:xlink="http://www.w3.org/1999/xlink">
 <metadata>
  <rdf:RDF xmlns:cc="http://creativecommons.org/ns#" xmlns:dc="http://purl.org/dc/elements/1.1/" xmlns:rdf="http://www.w3.org/1999/02/22-rdf-syntax-ns#">
   <cc:Work>
    <dc:type rdf:resource="http://purl.org/dc/dcmitype/StillImage"/>
    <dc:date>2021-06-03T16:15:42.315086</dc:date>
    <dc:format>image/svg+xml</dc:format>
    <dc:creator>
     <cc:Agent>
      <dc:title>Matplotlib v3.4.2, https://matplotlib.org/</dc:title>
     </cc:Agent>
    </dc:creator>
   </cc:Work>
  </rdf:RDF>
 </metadata>
 <defs>
  <style type="text/css">*{stroke-linecap:butt;stroke-linejoin:round;}</style>
 </defs>
 <g id="figure_1">
  <g id="patch_1">
   <path d="M 0 263.355476 
L 385.78125 263.355476 
L 385.78125 0 
L 0 0 
z
" style="fill:none;"/>
  </g>
  <g id="axes_1">
   <g id="patch_2">
    <path d="M 43.78125 225.799226 
L 378.58125 225.799226 
L 378.58125 8.359226 
L 43.78125 8.359226 
z
" style="fill:#ffffff;"/>
   </g>
   <g id="patch_3">
    <path clip-path="url(#p9196c6abaa)" d="M 76.095058 225.799226 
L 80.676303 225.799226 
L 80.676303 218.859501 
L 76.095058 218.859501 
z
" style="fill:#1f77b4;opacity:0.4;"/>
   </g>
   <g id="patch_4">
    <path clip-path="url(#p9196c6abaa)" d="M 80.676303 225.799226 
L 85.257548 225.799226 
L 85.257548 214.464342 
L 80.676303 214.464342 
z
" style="fill:#1f77b4;opacity:0.4;"/>
   </g>
   <g id="patch_5">
    <path clip-path="url(#p9196c6abaa)" d="M 85.257548 225.799226 
L 89.838793 225.799226 
L 89.838793 210.069183 
L 85.257548 210.069183 
z
" style="fill:#1f77b4;opacity:0.4;"/>
   </g>
   <g id="patch_6">
    <path clip-path="url(#p9196c6abaa)" d="M 89.838793 225.799226 
L 94.420037 225.799226 
L 94.420037 204.517403 
L 89.838793 204.517403 
z
" style="fill:#1f77b4;opacity:0.4;"/>
   </g>
   <g id="patch_7">
    <path clip-path="url(#p9196c6abaa)" d="M 94.420037 225.799226 
L 99.001282 225.799226 
L 99.001282 205.442699 
L 94.420037 205.442699 
z
" style="fill:#1f77b4;opacity:0.4;"/>
   </g>
   <g id="patch_8">
    <path clip-path="url(#p9196c6abaa)" d="M 99.001282 225.799226 
L 103.582527 225.799226 
L 103.582527 198.734298 
L 99.001282 198.734298 
z
" style="fill:#1f77b4;opacity:0.4;"/>
   </g>
   <g id="patch_9">
    <path clip-path="url(#p9196c6abaa)" d="M 103.582527 225.799226 
L 108.163772 225.799226 
L 108.163772 202.435485 
L 103.582527 202.435485 
z
" style="fill:#1f77b4;opacity:0.4;"/>
   </g>
   <g id="patch_10">
    <path clip-path="url(#p9196c6abaa)" d="M 108.163772 225.799226 
L 112.745016 225.799226 
L 112.745016 201.972837 
L 108.163772 201.972837 
z
" style="fill:#1f77b4;opacity:0.4;"/>
   </g>
   <g id="patch_11">
    <path clip-path="url(#p9196c6abaa)" d="M 112.745016 225.799226 
L 117.326261 225.799226 
L 117.326261 207.061968 
L 112.745016 207.061968 
z
" style="fill:#1f77b4;opacity:0.4;"/>
   </g>
   <g id="patch_12">
    <path clip-path="url(#p9196c6abaa)" d="M 117.326261 225.799226 
L 121.907506 225.799226 
L 121.907506 210.994479 
L 117.326261 210.994479 
z
" style="fill:#1f77b4;opacity:0.4;"/>
   </g>
   <g id="patch_13">
    <path clip-path="url(#p9196c6abaa)" d="M 121.907506 225.799226 
L 126.488751 225.799226 
L 126.488751 210.531831 
L 121.907506 210.531831 
z
" style="fill:#1f77b4;opacity:0.4;"/>
   </g>
   <g id="patch_14">
    <path clip-path="url(#p9196c6abaa)" d="M 126.488751 225.799226 
L 131.069995 225.799226 
L 131.069995 217.240232 
L 126.488751 217.240232 
z
" style="fill:#1f77b4;opacity:0.4;"/>
   </g>
   <g id="patch_15">
    <path clip-path="url(#p9196c6abaa)" d="M 131.069995 225.799226 
L 135.65124 225.799226 
L 135.65124 220.247446 
L 131.069995 220.247446 
z
" style="fill:#1f77b4;opacity:0.4;"/>
   </g>
   <g id="patch_16">
    <path clip-path="url(#p9196c6abaa)" d="M 135.65124 225.799226 
L 140.232485 225.799226 
L 140.232485 221.866715 
L 135.65124 221.866715 
z
" style="fill:#1f77b4;opacity:0.4;"/>
   </g>
   <g id="patch_17">
    <path clip-path="url(#p9196c6abaa)" d="M 140.232485 225.799226 
L 144.81373 225.799226 
L 144.81373 223.25466 
L 140.232485 223.25466 
z
" style="fill:#1f77b4;opacity:0.4;"/>
   </g>
   <g id="patch_18">
    <path clip-path="url(#p9196c6abaa)" d="M 144.81373 225.799226 
L 149.394974 225.799226 
L 149.394974 222.560688 
L 144.81373 222.560688 
z
" style="fill:#1f77b4;opacity:0.4;"/>
   </g>
   <g id="patch_19">
    <path clip-path="url(#p9196c6abaa)" d="M 149.394974 225.799226 
L 153.976219 225.799226 
L 153.976219 224.179957 
L 149.394974 224.179957 
z
" style="fill:#1f77b4;opacity:0.4;"/>
   </g>
   <g id="patch_20">
    <path clip-path="url(#p9196c6abaa)" d="M 153.976219 225.799226 
L 158.557464 225.799226 
L 158.557464 224.411281 
L 153.976219 224.411281 
z
" style="fill:#1f77b4;opacity:0.4;"/>
   </g>
   <g id="patch_21">
    <path clip-path="url(#p9196c6abaa)" d="M 158.557464 225.799226 
L 163.138709 225.799226 
L 163.138709 224.642605 
L 158.557464 224.642605 
z
" style="fill:#1f77b4;opacity:0.4;"/>
   </g>
   <g id="patch_22">
    <path clip-path="url(#p9196c6abaa)" d="M 163.138709 225.799226 
L 167.719953 225.799226 
L 167.719953 223.948633 
L 163.138709 223.948633 
z
" style="fill:#1f77b4;opacity:0.4;"/>
   </g>
   <g id="patch_23">
    <path clip-path="url(#p9196c6abaa)" d="M 167.719953 225.799226 
L 172.301198 225.799226 
L 172.301198 225.105254 
L 167.719953 225.105254 
z
" style="fill:#1f77b4;opacity:0.4;"/>
   </g>
   <g id="patch_24">
    <path clip-path="url(#p9196c6abaa)" d="M 172.301198 225.799226 
L 176.882443 225.799226 
L 176.882443 225.567902 
L 172.301198 225.567902 
z
" style="fill:#1f77b4;opacity:0.4;"/>
   </g>
   <g id="patch_25">
    <path clip-path="url(#p9196c6abaa)" d="M 176.882443 225.799226 
L 181.463688 225.799226 
L 181.463688 225.567902 
L 176.882443 225.567902 
z
" style="fill:#1f77b4;opacity:0.4;"/>
   </g>
   <g id="patch_26">
    <path clip-path="url(#p9196c6abaa)" d="M 181.463688 225.799226 
L 186.044932 225.799226 
L 186.044932 225.567902 
L 181.463688 225.567902 
z
" style="fill:#1f77b4;opacity:0.4;"/>
   </g>
   <g id="patch_27">
    <path clip-path="url(#p9196c6abaa)" d="M 186.044932 225.799226 
L 190.626177 225.799226 
L 190.626177 225.567902 
L 186.044932 225.567902 
z
" style="fill:#1f77b4;opacity:0.4;"/>
   </g>
   <g id="patch_28">
    <path clip-path="url(#p9196c6abaa)" d="M 190.626177 225.799226 
L 195.207422 225.799226 
L 195.207422 225.105254 
L 190.626177 225.105254 
z
" style="fill:#1f77b4;opacity:0.4;"/>
   </g>
   <g id="patch_29">
    <path clip-path="url(#p9196c6abaa)" d="M 195.207422 225.799226 
L 199.788666 225.799226 
L 199.788666 225.799226 
L 195.207422 225.799226 
z
" style="fill:#1f77b4;opacity:0.4;"/>
   </g>
   <g id="patch_30">
    <path clip-path="url(#p9196c6abaa)" d="M 199.788666 225.799226 
L 204.369911 225.799226 
L 204.369911 225.799226 
L 199.788666 225.799226 
z
" style="fill:#1f77b4;opacity:0.4;"/>
   </g>
   <g id="patch_31">
    <path clip-path="url(#p9196c6abaa)" d="M 204.369911 225.799226 
L 208.951156 225.799226 
L 208.951156 225.799226 
L 204.369911 225.799226 
z
" style="fill:#1f77b4;opacity:0.4;"/>
   </g>
   <g id="patch_32">
    <path clip-path="url(#p9196c6abaa)" d="M 208.951156 225.799226 
L 213.532401 225.799226 
L 213.532401 225.567902 
L 208.951156 225.567902 
z
" style="fill:#1f77b4;opacity:0.4;"/>
   </g>
   <g id="patch_33">
    <path clip-path="url(#p9196c6abaa)" d="M 213.532401 225.799226 
L 218.113645 225.799226 
L 218.113645 225.567902 
L 213.532401 225.567902 
z
" style="fill:#1f77b4;opacity:0.4;"/>
   </g>
   <g id="patch_34">
    <path clip-path="url(#p9196c6abaa)" d="M 75.096047 225.799226 
L 80.539456 225.799226 
L 80.539456 147.340969 
L 75.096047 147.340969 
z
" style="fill:#ff7f0e;opacity:0.4;"/>
   </g>
   <g id="patch_35">
    <path clip-path="url(#p9196c6abaa)" d="M 80.539456 225.799226 
L 85.982864 225.799226 
L 85.982864 188.030239 
L 80.539456 188.030239 
z
" style="fill:#ff7f0e;opacity:0.4;"/>
   </g>
   <g id="patch_36">
    <path clip-path="url(#p9196c6abaa)" d="M 85.982864 225.799226 
L 91.426272 225.799226 
L 91.426272 196.985772 
L 85.982864 196.985772 
z
" style="fill:#ff7f0e;opacity:0.4;"/>
   </g>
   <g id="patch_37">
    <path clip-path="url(#p9196c6abaa)" d="M 91.426272 225.799226 
L 96.86968 225.799226 
L 96.86968 210.808443 
L 91.426272 210.808443 
z
" style="fill:#ff7f0e;opacity:0.4;"/>
   </g>
   <g id="patch_38">
    <path clip-path="url(#p9196c6abaa)" d="M 96.86968 225.799226 
L 102.313088 225.799226 
L 102.313088 217.233064 
L 96.86968 217.233064 
z
" style="fill:#ff7f0e;opacity:0.4;"/>
   </g>
   <g id="patch_39">
    <path clip-path="url(#p9196c6abaa)" d="M 102.313088 225.799226 
L 107.756496 225.799226 
L 107.756496 218.985234 
L 102.313088 218.985234 
z
" style="fill:#ff7f0e;opacity:0.4;"/>
   </g>
   <g id="patch_40">
    <path clip-path="url(#p9196c6abaa)" d="M 107.756496 225.799226 
L 113.199904 225.799226 
L 113.199904 218.206492 
L 107.756496 218.206492 
z
" style="fill:#ff7f0e;opacity:0.4;"/>
   </g>
   <g id="patch_41">
    <path clip-path="url(#p9196c6abaa)" d="M 113.199904 225.799226 
L 118.643312 225.799226 
L 118.643312 223.463 
L 113.199904 223.463 
z
" style="fill:#ff7f0e;opacity:0.4;"/>
   </g>
   <g id="patch_42">
    <path clip-path="url(#p9196c6abaa)" d="M 118.643312 225.799226 
L 124.08672 225.799226 
L 124.08672 224.825799 
L 118.643312 224.825799 
z
" style="fill:#ff7f0e;opacity:0.4;"/>
   </g>
   <g id="patch_43">
    <path clip-path="url(#p9196c6abaa)" d="M 124.08672 225.799226 
L 129.530128 225.799226 
L 129.530128 224.241742 
L 124.08672 224.241742 
z
" style="fill:#ff7f0e;opacity:0.4;"/>
   </g>
   <g id="patch_44">
    <path clip-path="url(#p9196c6abaa)" d="M 129.530128 225.799226 
L 134.973537 225.799226 
L 134.973537 225.409855 
L 129.530128 225.409855 
z
" style="fill:#ff7f0e;opacity:0.4;"/>
   </g>
   <g id="patch_45">
    <path clip-path="url(#p9196c6abaa)" d="M 134.973537 225.799226 
L 140.416945 225.799226 
L 140.416945 225.020484 
L 134.973537 225.020484 
z
" style="fill:#ff7f0e;opacity:0.4;"/>
   </g>
   <g id="patch_46">
    <path clip-path="url(#p9196c6abaa)" d="M 140.416945 225.799226 
L 145.860353 225.799226 
L 145.860353 225.21517 
L 140.416945 225.21517 
z
" style="fill:#ff7f0e;opacity:0.4;"/>
   </g>
   <g id="patch_47">
    <path clip-path="url(#p9196c6abaa)" d="M 145.860353 225.799226 
L 151.303761 225.799226 
L 151.303761 225.020484 
L 145.860353 225.020484 
z
" style="fill:#ff7f0e;opacity:0.4;"/>
   </g>
   <g id="patch_48">
    <path clip-path="url(#p9196c6abaa)" d="M 151.303761 225.799226 
L 156.747169 225.799226 
L 156.747169 225.409855 
L 151.303761 225.409855 
z
" style="fill:#ff7f0e;opacity:0.4;"/>
   </g>
   <g id="patch_49">
    <path clip-path="url(#p9196c6abaa)" d="M 156.747169 225.799226 
L 162.190577 225.799226 
L 162.190577 225.604541 
L 156.747169 225.604541 
z
" style="fill:#ff7f0e;opacity:0.4;"/>
   </g>
   <g id="patch_50">
    <path clip-path="url(#p9196c6abaa)" d="M 162.190577 225.799226 
L 167.633985 225.799226 
L 167.633985 225.020484 
L 162.190577 225.020484 
z
" style="fill:#ff7f0e;opacity:0.4;"/>
   </g>
   <g id="patch_51">
    <path clip-path="url(#p9196c6abaa)" d="M 167.633985 225.799226 
L 173.077393 225.799226 
L 173.077393 225.799226 
L 167.633985 225.799226 
z
" style="fill:#ff7f0e;opacity:0.4;"/>
   </g>
   <g id="patch_52">
    <path clip-path="url(#p9196c6abaa)" d="M 173.077393 225.799226 
L 178.520801 225.799226 
L 178.520801 225.21517 
L 173.077393 225.21517 
z
" style="fill:#ff7f0e;opacity:0.4;"/>
   </g>
   <g id="patch_53">
    <path clip-path="url(#p9196c6abaa)" d="M 178.520801 225.799226 
L 183.964209 225.799226 
L 183.964209 225.409855 
L 178.520801 225.409855 
z
" style="fill:#ff7f0e;opacity:0.4;"/>
   </g>
   <g id="patch_54">
    <path clip-path="url(#p9196c6abaa)" d="M 183.964209 225.799226 
L 189.407618 225.799226 
L 189.407618 225.604541 
L 183.964209 225.604541 
z
" style="fill:#ff7f0e;opacity:0.4;"/>
   </g>
   <g id="patch_55">
    <path clip-path="url(#p9196c6abaa)" d="M 189.407618 225.799226 
L 194.851026 225.799226 
L 194.851026 225.409855 
L 189.407618 225.409855 
z
" style="fill:#ff7f0e;opacity:0.4;"/>
   </g>
   <g id="patch_56">
    <path clip-path="url(#p9196c6abaa)" d="M 194.851026 225.799226 
L 200.294434 225.799226 
L 200.294434 225.799226 
L 194.851026 225.799226 
z
" style="fill:#ff7f0e;opacity:0.4;"/>
   </g>
   <g id="patch_57">
    <path clip-path="url(#p9196c6abaa)" d="M 200.294434 225.799226 
L 205.737842 225.799226 
L 205.737842 225.799226 
L 200.294434 225.799226 
z
" style="fill:#ff7f0e;opacity:0.4;"/>
   </g>
   <g id="patch_58">
    <path clip-path="url(#p9196c6abaa)" d="M 205.737842 225.799226 
L 211.18125 225.799226 
L 211.18125 225.604541 
L 205.737842 225.604541 
z
" style="fill:#ff7f0e;opacity:0.4;"/>
   </g>
   <g id="patch_59">
    <path clip-path="url(#p9196c6abaa)" d="M 211.18125 225.799226 
L 216.624658 225.799226 
L 216.624658 225.604541 
L 211.18125 225.604541 
z
" style="fill:#ff7f0e;opacity:0.4;"/>
   </g>
   <g id="patch_60">
    <path clip-path="url(#p9196c6abaa)" d="M 216.624658 225.799226 
L 222.068066 225.799226 
L 222.068066 225.604541 
L 216.624658 225.604541 
z
" style="fill:#ff7f0e;opacity:0.4;"/>
   </g>
   <g id="patch_61">
    <path clip-path="url(#p9196c6abaa)" d="M 222.068066 225.799226 
L 227.511474 225.799226 
L 227.511474 225.604541 
L 222.068066 225.604541 
z
" style="fill:#ff7f0e;opacity:0.4;"/>
   </g>
   <g id="patch_62">
    <path clip-path="url(#p9196c6abaa)" d="M 227.511474 225.799226 
L 232.954882 225.799226 
L 232.954882 225.604541 
L 227.511474 225.604541 
z
" style="fill:#ff7f0e;opacity:0.4;"/>
   </g>
   <g id="patch_63">
    <path clip-path="url(#p9196c6abaa)" d="M 232.954882 225.799226 
L 238.398291 225.799226 
L 238.398291 225.799226 
L 232.954882 225.799226 
z
" style="fill:#ff7f0e;opacity:0.4;"/>
   </g>
   <g id="patch_64">
    <path clip-path="url(#p9196c6abaa)" d="M 238.398291 225.799226 
L 243.841699 225.799226 
L 243.841699 225.799226 
L 238.398291 225.799226 
z
" style="fill:#ff7f0e;opacity:0.4;"/>
   </g>
   <g id="patch_65">
    <path clip-path="url(#p9196c6abaa)" d="M 243.841699 225.799226 
L 249.285107 225.799226 
L 249.285107 225.799226 
L 243.841699 225.799226 
z
" style="fill:#ff7f0e;opacity:0.4;"/>
   </g>
   <g id="patch_66">
    <path clip-path="url(#p9196c6abaa)" d="M 249.285107 225.799226 
L 254.728515 225.799226 
L 254.728515 225.799226 
L 249.285107 225.799226 
z
" style="fill:#ff7f0e;opacity:0.4;"/>
   </g>
   <g id="patch_67">
    <path clip-path="url(#p9196c6abaa)" d="M 254.728515 225.799226 
L 260.171923 225.799226 
L 260.171923 225.799226 
L 254.728515 225.799226 
z
" style="fill:#ff7f0e;opacity:0.4;"/>
   </g>
   <g id="patch_68">
    <path clip-path="url(#p9196c6abaa)" d="M 260.171923 225.799226 
L 265.615331 225.799226 
L 265.615331 225.799226 
L 260.171923 225.799226 
z
" style="fill:#ff7f0e;opacity:0.4;"/>
   </g>
   <g id="patch_69">
    <path clip-path="url(#p9196c6abaa)" d="M 265.615331 225.799226 
L 271.058739 225.799226 
L 271.058739 225.799226 
L 265.615331 225.799226 
z
" style="fill:#ff7f0e;opacity:0.4;"/>
   </g>
   <g id="patch_70">
    <path clip-path="url(#p9196c6abaa)" d="M 271.058739 225.799226 
L 276.502147 225.799226 
L 276.502147 225.799226 
L 271.058739 225.799226 
z
" style="fill:#ff7f0e;opacity:0.4;"/>
   </g>
   <g id="patch_71">
    <path clip-path="url(#p9196c6abaa)" d="M 276.502147 225.799226 
L 281.945555 225.799226 
L 281.945555 225.799226 
L 276.502147 225.799226 
z
" style="fill:#ff7f0e;opacity:0.4;"/>
   </g>
   <g id="patch_72">
    <path clip-path="url(#p9196c6abaa)" d="M 281.945555 225.799226 
L 287.388963 225.799226 
L 287.388963 225.799226 
L 281.945555 225.799226 
z
" style="fill:#ff7f0e;opacity:0.4;"/>
   </g>
   <g id="patch_73">
    <path clip-path="url(#p9196c6abaa)" d="M 287.388963 225.799226 
L 292.832372 225.799226 
L 292.832372 225.604541 
L 287.388963 225.604541 
z
" style="fill:#ff7f0e;opacity:0.4;"/>
   </g>
   <g id="patch_74">
    <path clip-path="url(#p9196c6abaa)" d="M 292.832372 225.799226 
L 298.27578 225.799226 
L 298.27578 225.799226 
L 292.832372 225.799226 
z
" style="fill:#ff7f0e;opacity:0.4;"/>
   </g>
   <g id="patch_75">
    <path clip-path="url(#p9196c6abaa)" d="M 298.27578 225.799226 
L 303.719188 225.799226 
L 303.719188 225.799226 
L 298.27578 225.799226 
z
" style="fill:#ff7f0e;opacity:0.4;"/>
   </g>
   <g id="patch_76">
    <path clip-path="url(#p9196c6abaa)" d="M 303.719188 225.799226 
L 309.162596 225.799226 
L 309.162596 225.799226 
L 303.719188 225.799226 
z
" style="fill:#ff7f0e;opacity:0.4;"/>
   </g>
   <g id="patch_77">
    <path clip-path="url(#p9196c6abaa)" d="M 309.162596 225.799226 
L 314.606004 225.799226 
L 314.606004 225.799226 
L 309.162596 225.799226 
z
" style="fill:#ff7f0e;opacity:0.4;"/>
   </g>
   <g id="patch_78">
    <path clip-path="url(#p9196c6abaa)" d="M 314.606004 225.799226 
L 320.049412 225.799226 
L 320.049412 225.799226 
L 314.606004 225.799226 
z
" style="fill:#ff7f0e;opacity:0.4;"/>
   </g>
   <g id="patch_79">
    <path clip-path="url(#p9196c6abaa)" d="M 320.049412 225.799226 
L 325.49282 225.799226 
L 325.49282 225.799226 
L 320.049412 225.799226 
z
" style="fill:#ff7f0e;opacity:0.4;"/>
   </g>
   <g id="patch_80">
    <path clip-path="url(#p9196c6abaa)" d="M 325.49282 225.799226 
L 330.936228 225.799226 
L 330.936228 225.799226 
L 325.49282 225.799226 
z
" style="fill:#ff7f0e;opacity:0.4;"/>
   </g>
   <g id="patch_81">
    <path clip-path="url(#p9196c6abaa)" d="M 330.936228 225.799226 
L 336.379636 225.799226 
L 336.379636 225.799226 
L 330.936228 225.799226 
z
" style="fill:#ff7f0e;opacity:0.4;"/>
   </g>
   <g id="patch_82">
    <path clip-path="url(#p9196c6abaa)" d="M 336.379636 225.799226 
L 341.823044 225.799226 
L 341.823044 225.799226 
L 336.379636 225.799226 
z
" style="fill:#ff7f0e;opacity:0.4;"/>
   </g>
   <g id="patch_83">
    <path clip-path="url(#p9196c6abaa)" d="M 341.823044 225.799226 
L 347.266453 225.799226 
L 347.266453 225.604541 
L 341.823044 225.604541 
z
" style="fill:#ff7f0e;opacity:0.4;"/>
   </g>
   <g id="patch_84">
    <path clip-path="url(#p9196c6abaa)" d="M 75.096047 225.799226 
L 77.322142 225.799226 
L 77.322142 18.713512 
L 75.096047 18.713512 
z
" style="fill:#2ca02c;opacity:0.4;"/>
   </g>
   <g id="patch_85">
    <path clip-path="url(#p9196c6abaa)" d="M 77.322142 225.799226 
L 79.548237 225.799226 
L 79.548237 186.762379 
L 77.322142 186.762379 
z
" style="fill:#2ca02c;opacity:0.4;"/>
   </g>
   <g id="patch_86">
    <path clip-path="url(#p9196c6abaa)" d="M 79.548237 225.799226 
L 81.774331 225.799226 
L 81.774331 188.190556 
L 79.548237 188.190556 
z
" style="fill:#2ca02c;opacity:0.4;"/>
   </g>
   <g id="patch_87">
    <path clip-path="url(#p9196c6abaa)" d="M 81.774331 225.799226 
L 84.000426 225.799226 
L 84.000426 192.951147 
L 81.774331 192.951147 
z
" style="fill:#2ca02c;opacity:0.4;"/>
   </g>
   <g id="patch_88">
    <path clip-path="url(#p9196c6abaa)" d="M 84.000426 225.799226 
L 86.226521 225.799226 
L 86.226521 190.570852 
L 84.000426 190.570852 
z
" style="fill:#2ca02c;opacity:0.4;"/>
   </g>
   <g id="patch_89">
    <path clip-path="url(#p9196c6abaa)" d="M 86.226521 225.799226 
L 88.452615 225.799226 
L 88.452615 191.999029 
L 86.226521 191.999029 
z
" style="fill:#2ca02c;opacity:0.4;"/>
   </g>
   <g id="patch_90">
    <path clip-path="url(#p9196c6abaa)" d="M 88.452615 225.799226 
L 90.67871 225.799226 
L 90.67871 206.280803 
L 88.452615 206.280803 
z
" style="fill:#2ca02c;opacity:0.4;"/>
   </g>
   <g id="patch_91">
    <path clip-path="url(#p9196c6abaa)" d="M 90.67871 225.799226 
L 92.904804 225.799226 
L 92.904804 207.232921 
L 90.67871 207.232921 
z
" style="fill:#2ca02c;opacity:0.4;"/>
   </g>
   <g id="patch_92">
    <path clip-path="url(#p9196c6abaa)" d="M 92.904804 225.799226 
L 95.130899 225.799226 
L 95.130899 217.230162 
L 92.904804 217.230162 
z
" style="fill:#2ca02c;opacity:0.4;"/>
   </g>
   <g id="patch_93">
    <path clip-path="url(#p9196c6abaa)" d="M 95.130899 225.799226 
L 97.356994 225.799226 
L 97.356994 219.134399 
L 95.130899 219.134399 
z
" style="fill:#2ca02c;opacity:0.4;"/>
   </g>
   <g id="patch_94">
    <path clip-path="url(#p9196c6abaa)" d="M 97.356994 225.799226 
L 99.583088 225.799226 
L 99.583088 221.990753 
L 97.356994 221.990753 
z
" style="fill:#2ca02c;opacity:0.4;"/>
   </g>
   <g id="patch_95">
    <path clip-path="url(#p9196c6abaa)" d="M 99.583088 225.799226 
L 101.809183 225.799226 
L 101.809183 221.990753 
L 99.583088 221.990753 
z
" style="fill:#2ca02c;opacity:0.4;"/>
   </g>
   <g id="patch_96">
    <path clip-path="url(#p9196c6abaa)" d="M 101.809183 225.799226 
L 104.035278 225.799226 
L 104.035278 222.466812 
L 101.809183 222.466812 
z
" style="fill:#2ca02c;opacity:0.4;"/>
   </g>
   <g id="patch_97">
    <path clip-path="url(#p9196c6abaa)" d="M 104.035278 225.799226 
L 106.261372 225.799226 
L 106.261372 223.89499 
L 104.035278 223.89499 
z
" style="fill:#2ca02c;opacity:0.4;"/>
   </g>
   <g id="patch_98">
    <path clip-path="url(#p9196c6abaa)" d="M 106.261372 225.799226 
L 108.487467 225.799226 
L 108.487467 223.89499 
L 106.261372 223.89499 
z
" style="fill:#2ca02c;opacity:0.4;"/>
   </g>
   <g id="patch_99">
    <path clip-path="url(#p9196c6abaa)" d="M 108.487467 225.799226 
L 110.713561 225.799226 
L 110.713561 222.942872 
L 108.487467 222.942872 
z
" style="fill:#2ca02c;opacity:0.4;"/>
   </g>
   <g id="patch_100">
    <path clip-path="url(#p9196c6abaa)" d="M 110.713561 225.799226 
L 112.939656 225.799226 
L 112.939656 224.371049 
L 110.713561 224.371049 
z
" style="fill:#2ca02c;opacity:0.4;"/>
   </g>
   <g id="patch_101">
    <path clip-path="url(#p9196c6abaa)" d="M 112.939656 225.799226 
L 115.165751 225.799226 
L 115.165751 224.847108 
L 112.939656 224.847108 
z
" style="fill:#2ca02c;opacity:0.4;"/>
   </g>
   <g id="patch_102">
    <path clip-path="url(#p9196c6abaa)" d="M 115.165751 225.799226 
L 117.391845 225.799226 
L 117.391845 223.418931 
L 115.165751 223.418931 
z
" style="fill:#2ca02c;opacity:0.4;"/>
   </g>
   <g id="patch_103">
    <path clip-path="url(#p9196c6abaa)" d="M 117.391845 225.799226 
L 119.61794 225.799226 
L 119.61794 225.323167 
L 117.391845 225.323167 
z
" style="fill:#2ca02c;opacity:0.4;"/>
   </g>
   <g id="patch_104">
    <path clip-path="url(#p9196c6abaa)" d="M 119.61794 225.799226 
L 121.844035 225.799226 
L 121.844035 224.847108 
L 119.61794 224.847108 
z
" style="fill:#2ca02c;opacity:0.4;"/>
   </g>
   <g id="patch_105">
    <path clip-path="url(#p9196c6abaa)" d="M 121.844035 225.799226 
L 124.070129 225.799226 
L 124.070129 225.323167 
L 121.844035 225.323167 
z
" style="fill:#2ca02c;opacity:0.4;"/>
   </g>
   <g id="patch_106">
    <path clip-path="url(#p9196c6abaa)" d="M 124.070129 225.799226 
L 126.296224 225.799226 
L 126.296224 223.418931 
L 124.070129 223.418931 
z
" style="fill:#2ca02c;opacity:0.4;"/>
   </g>
   <g id="patch_107">
    <path clip-path="url(#p9196c6abaa)" d="M 126.296224 225.799226 
L 128.522319 225.799226 
L 128.522319 224.371049 
L 126.296224 224.371049 
z
" style="fill:#2ca02c;opacity:0.4;"/>
   </g>
   <g id="patch_108">
    <path clip-path="url(#p9196c6abaa)" d="M 128.522319 225.799226 
L 130.748413 225.799226 
L 130.748413 224.371049 
L 128.522319 224.371049 
z
" style="fill:#2ca02c;opacity:0.4;"/>
   </g>
   <g id="patch_109">
    <path clip-path="url(#p9196c6abaa)" d="M 130.748413 225.799226 
L 132.974508 225.799226 
L 132.974508 225.323167 
L 130.748413 225.323167 
z
" style="fill:#2ca02c;opacity:0.4;"/>
   </g>
   <g id="patch_110">
    <path clip-path="url(#p9196c6abaa)" d="M 132.974508 225.799226 
L 135.200602 225.799226 
L 135.200602 225.323167 
L 132.974508 225.323167 
z
" style="fill:#2ca02c;opacity:0.4;"/>
   </g>
   <g id="patch_111">
    <path clip-path="url(#p9196c6abaa)" d="M 135.200602 225.799226 
L 137.426697 225.799226 
L 137.426697 225.799226 
L 135.200602 225.799226 
z
" style="fill:#2ca02c;opacity:0.4;"/>
   </g>
   <g id="patch_112">
    <path clip-path="url(#p9196c6abaa)" d="M 137.426697 225.799226 
L 139.652792 225.799226 
L 139.652792 225.323167 
L 137.426697 225.323167 
z
" style="fill:#2ca02c;opacity:0.4;"/>
   </g>
   <g id="patch_113">
    <path clip-path="url(#p9196c6abaa)" d="M 139.652792 225.799226 
L 141.878886 225.799226 
L 141.878886 225.323167 
L 139.652792 225.323167 
z
" style="fill:#2ca02c;opacity:0.4;"/>
   </g>
   <g id="patch_114">
    <path clip-path="url(#p9196c6abaa)" d="M 141.878886 225.799226 
L 144.104981 225.799226 
L 144.104981 225.323167 
L 141.878886 225.323167 
z
" style="fill:#2ca02c;opacity:0.4;"/>
   </g>
   <g id="patch_115">
    <path clip-path="url(#p9196c6abaa)" d="M 144.104981 225.799226 
L 146.331076 225.799226 
L 146.331076 224.371049 
L 144.104981 224.371049 
z
" style="fill:#2ca02c;opacity:0.4;"/>
   </g>
   <g id="patch_116">
    <path clip-path="url(#p9196c6abaa)" d="M 146.331076 225.799226 
L 148.55717 225.799226 
L 148.55717 225.323167 
L 146.331076 225.323167 
z
" style="fill:#2ca02c;opacity:0.4;"/>
   </g>
   <g id="patch_117">
    <path clip-path="url(#p9196c6abaa)" d="M 148.55717 225.799226 
L 150.783265 225.799226 
L 150.783265 225.799226 
L 148.55717 225.799226 
z
" style="fill:#2ca02c;opacity:0.4;"/>
   </g>
   <g id="patch_118">
    <path clip-path="url(#p9196c6abaa)" d="M 150.783265 225.799226 
L 153.009359 225.799226 
L 153.009359 224.847108 
L 150.783265 224.847108 
z
" style="fill:#2ca02c;opacity:0.4;"/>
   </g>
   <g id="patch_119">
    <path clip-path="url(#p9196c6abaa)" d="M 153.009359 225.799226 
L 155.235454 225.799226 
L 155.235454 225.323167 
L 153.009359 225.323167 
z
" style="fill:#2ca02c;opacity:0.4;"/>
   </g>
   <g id="patch_120">
    <path clip-path="url(#p9196c6abaa)" d="M 155.235454 225.799226 
L 157.461549 225.799226 
L 157.461549 225.323167 
L 155.235454 225.323167 
z
" style="fill:#2ca02c;opacity:0.4;"/>
   </g>
   <g id="patch_121">
    <path clip-path="url(#p9196c6abaa)" d="M 157.461549 225.799226 
L 159.687643 225.799226 
L 159.687643 225.799226 
L 157.461549 225.799226 
z
" style="fill:#2ca02c;opacity:0.4;"/>
   </g>
   <g id="patch_122">
    <path clip-path="url(#p9196c6abaa)" d="M 159.687643 225.799226 
L 161.913738 225.799226 
L 161.913738 225.799226 
L 159.687643 225.799226 
z
" style="fill:#2ca02c;opacity:0.4;"/>
   </g>
   <g id="patch_123">
    <path clip-path="url(#p9196c6abaa)" d="M 161.913738 225.799226 
L 164.139833 225.799226 
L 164.139833 225.799226 
L 161.913738 225.799226 
z
" style="fill:#2ca02c;opacity:0.4;"/>
   </g>
   <g id="patch_124">
    <path clip-path="url(#p9196c6abaa)" d="M 164.139833 225.799226 
L 166.365927 225.799226 
L 166.365927 225.799226 
L 164.139833 225.799226 
z
" style="fill:#2ca02c;opacity:0.4;"/>
   </g>
   <g id="patch_125">
    <path clip-path="url(#p9196c6abaa)" d="M 166.365927 225.799226 
L 168.592022 225.799226 
L 168.592022 224.371049 
L 166.365927 224.371049 
z
" style="fill:#2ca02c;opacity:0.4;"/>
   </g>
   <g id="matplotlib.axis_1">
    <g id="xtick_1">
     <g id="line2d_1">
      <defs>
       <path d="M 0 0 
L 0 3.5 
" id="mfc431b7ba2" style="stroke:#000000;stroke-width:0.8;"/>
      </defs>
      <g>
       <use style="stroke:#000000;stroke-width:0.8;" x="75.096047" xlink:href="#mfc431b7ba2" y="225.799226"/>
      </g>
     </g>
     <g id="text_1">
      <!-- 0 -->
      <g transform="translate(71.914797 240.397664)scale(0.1 -0.1)">
       <defs>
        <path d="M 2034 4250 
Q 1547 4250 1301 3770 
Q 1056 3291 1056 2328 
Q 1056 1369 1301 889 
Q 1547 409 2034 409 
Q 2525 409 2770 889 
Q 3016 1369 3016 2328 
Q 3016 3291 2770 3770 
Q 2525 4250 2034 4250 
z
M 2034 4750 
Q 2819 4750 3233 4129 
Q 3647 3509 3647 2328 
Q 3647 1150 3233 529 
Q 2819 -91 2034 -91 
Q 1250 -91 836 529 
Q 422 1150 422 2328 
Q 422 3509 836 4129 
Q 1250 4750 2034 4750 
z
" id="DejaVuSans-30" transform="scale(0.015625)"/>
       </defs>
       <use xlink:href="#DejaVuSans-30"/>
      </g>
     </g>
    </g>
    <g id="xtick_2">
     <g id="line2d_2">
      <g>
       <use style="stroke:#000000;stroke-width:0.8;" x="114.565418" xlink:href="#mfc431b7ba2" y="225.799226"/>
      </g>
     </g>
     <g id="text_2">
      <!-- 2 -->
      <g transform="translate(111.384168 240.397664)scale(0.1 -0.1)">
       <defs>
        <path d="M 1228 531 
L 3431 531 
L 3431 0 
L 469 0 
L 469 531 
Q 828 903 1448 1529 
Q 2069 2156 2228 2338 
Q 2531 2678 2651 2914 
Q 2772 3150 2772 3378 
Q 2772 3750 2511 3984 
Q 2250 4219 1831 4219 
Q 1534 4219 1204 4116 
Q 875 4013 500 3803 
L 500 4441 
Q 881 4594 1212 4672 
Q 1544 4750 1819 4750 
Q 2544 4750 2975 4387 
Q 3406 4025 3406 3419 
Q 3406 3131 3298 2873 
Q 3191 2616 2906 2266 
Q 2828 2175 2409 1742 
Q 1991 1309 1228 531 
z
" id="DejaVuSans-32" transform="scale(0.015625)"/>
       </defs>
       <use xlink:href="#DejaVuSans-32"/>
      </g>
     </g>
    </g>
    <g id="xtick_3">
     <g id="line2d_3">
      <g>
       <use style="stroke:#000000;stroke-width:0.8;" x="154.034788" xlink:href="#mfc431b7ba2" y="225.799226"/>
      </g>
     </g>
     <g id="text_3">
      <!-- 4 -->
      <g transform="translate(150.853538 240.397664)scale(0.1 -0.1)">
       <defs>
        <path d="M 2419 4116 
L 825 1625 
L 2419 1625 
L 2419 4116 
z
M 2253 4666 
L 3047 4666 
L 3047 1625 
L 3713 1625 
L 3713 1100 
L 3047 1100 
L 3047 0 
L 2419 0 
L 2419 1100 
L 313 1100 
L 313 1709 
L 2253 4666 
z
" id="DejaVuSans-34" transform="scale(0.015625)"/>
       </defs>
       <use xlink:href="#DejaVuSans-34"/>
      </g>
     </g>
    </g>
    <g id="xtick_4">
     <g id="line2d_4">
      <g>
       <use style="stroke:#000000;stroke-width:0.8;" x="193.504159" xlink:href="#mfc431b7ba2" y="225.799226"/>
      </g>
     </g>
     <g id="text_4">
      <!-- 6 -->
      <g transform="translate(190.322909 240.397664)scale(0.1 -0.1)">
       <defs>
        <path d="M 2113 2584 
Q 1688 2584 1439 2293 
Q 1191 2003 1191 1497 
Q 1191 994 1439 701 
Q 1688 409 2113 409 
Q 2538 409 2786 701 
Q 3034 994 3034 1497 
Q 3034 2003 2786 2293 
Q 2538 2584 2113 2584 
z
M 3366 4563 
L 3366 3988 
Q 3128 4100 2886 4159 
Q 2644 4219 2406 4219 
Q 1781 4219 1451 3797 
Q 1122 3375 1075 2522 
Q 1259 2794 1537 2939 
Q 1816 3084 2150 3084 
Q 2853 3084 3261 2657 
Q 3669 2231 3669 1497 
Q 3669 778 3244 343 
Q 2819 -91 2113 -91 
Q 1303 -91 875 529 
Q 447 1150 447 2328 
Q 447 3434 972 4092 
Q 1497 4750 2381 4750 
Q 2619 4750 2861 4703 
Q 3103 4656 3366 4563 
z
" id="DejaVuSans-36" transform="scale(0.015625)"/>
       </defs>
       <use xlink:href="#DejaVuSans-36"/>
      </g>
     </g>
    </g>
    <g id="xtick_5">
     <g id="line2d_5">
      <g>
       <use style="stroke:#000000;stroke-width:0.8;" x="232.973529" xlink:href="#mfc431b7ba2" y="225.799226"/>
      </g>
     </g>
     <g id="text_5">
      <!-- 8 -->
      <g transform="translate(229.792279 240.397664)scale(0.1 -0.1)">
       <defs>
        <path d="M 2034 2216 
Q 1584 2216 1326 1975 
Q 1069 1734 1069 1313 
Q 1069 891 1326 650 
Q 1584 409 2034 409 
Q 2484 409 2743 651 
Q 3003 894 3003 1313 
Q 3003 1734 2745 1975 
Q 2488 2216 2034 2216 
z
M 1403 2484 
Q 997 2584 770 2862 
Q 544 3141 544 3541 
Q 544 4100 942 4425 
Q 1341 4750 2034 4750 
Q 2731 4750 3128 4425 
Q 3525 4100 3525 3541 
Q 3525 3141 3298 2862 
Q 3072 2584 2669 2484 
Q 3125 2378 3379 2068 
Q 3634 1759 3634 1313 
Q 3634 634 3220 271 
Q 2806 -91 2034 -91 
Q 1263 -91 848 271 
Q 434 634 434 1313 
Q 434 1759 690 2068 
Q 947 2378 1403 2484 
z
M 1172 3481 
Q 1172 3119 1398 2916 
Q 1625 2713 2034 2713 
Q 2441 2713 2670 2916 
Q 2900 3119 2900 3481 
Q 2900 3844 2670 4047 
Q 2441 4250 2034 4250 
Q 1625 4250 1398 4047 
Q 1172 3844 1172 3481 
z
" id="DejaVuSans-38" transform="scale(0.015625)"/>
       </defs>
       <use xlink:href="#DejaVuSans-38"/>
      </g>
     </g>
    </g>
    <g id="xtick_6">
     <g id="line2d_6">
      <g>
       <use style="stroke:#000000;stroke-width:0.8;" x="272.4429" xlink:href="#mfc431b7ba2" y="225.799226"/>
      </g>
     </g>
     <g id="text_6">
      <!-- 10 -->
      <g transform="translate(266.0804 240.397664)scale(0.1 -0.1)">
       <defs>
        <path d="M 794 531 
L 1825 531 
L 1825 4091 
L 703 3866 
L 703 4441 
L 1819 4666 
L 2450 4666 
L 2450 531 
L 3481 531 
L 3481 0 
L 794 0 
L 794 531 
z
" id="DejaVuSans-31" transform="scale(0.015625)"/>
       </defs>
       <use xlink:href="#DejaVuSans-31"/>
       <use x="63.623047" xlink:href="#DejaVuSans-30"/>
      </g>
     </g>
    </g>
    <g id="xtick_7">
     <g id="line2d_7">
      <g>
       <use style="stroke:#000000;stroke-width:0.8;" x="311.912271" xlink:href="#mfc431b7ba2" y="225.799226"/>
      </g>
     </g>
     <g id="text_7">
      <!-- 12 -->
      <g transform="translate(305.549771 240.397664)scale(0.1 -0.1)">
       <use xlink:href="#DejaVuSans-31"/>
       <use x="63.623047" xlink:href="#DejaVuSans-32"/>
      </g>
     </g>
    </g>
    <g id="xtick_8">
     <g id="line2d_8">
      <g>
       <use style="stroke:#000000;stroke-width:0.8;" x="351.381641" xlink:href="#mfc431b7ba2" y="225.799226"/>
      </g>
     </g>
     <g id="text_8">
      <!-- 14 -->
      <g transform="translate(345.019141 240.397664)scale(0.1 -0.1)">
       <use xlink:href="#DejaVuSans-31"/>
       <use x="63.623047" xlink:href="#DejaVuSans-34"/>
      </g>
     </g>
    </g>
    <g id="text_9">
     <!-- f(t) -->
     <g transform="translate(203.559375 254.075789)scale(0.1 -0.1)">
      <defs>
       <path d="M 2375 4863 
L 2375 4384 
L 1825 4384 
Q 1516 4384 1395 4259 
Q 1275 4134 1275 3809 
L 1275 3500 
L 2222 3500 
L 2222 3053 
L 1275 3053 
L 1275 0 
L 697 0 
L 697 3053 
L 147 3053 
L 147 3500 
L 697 3500 
L 697 3744 
Q 697 4328 969 4595 
Q 1241 4863 1831 4863 
L 2375 4863 
z
" id="DejaVuSans-66" transform="scale(0.015625)"/>
       <path d="M 1984 4856 
Q 1566 4138 1362 3434 
Q 1159 2731 1159 2009 
Q 1159 1288 1364 580 
Q 1569 -128 1984 -844 
L 1484 -844 
Q 1016 -109 783 600 
Q 550 1309 550 2009 
Q 550 2706 781 3412 
Q 1013 4119 1484 4856 
L 1984 4856 
z
" id="DejaVuSans-28" transform="scale(0.015625)"/>
       <path d="M 1172 4494 
L 1172 3500 
L 2356 3500 
L 2356 3053 
L 1172 3053 
L 1172 1153 
Q 1172 725 1289 603 
Q 1406 481 1766 481 
L 2356 481 
L 2356 0 
L 1766 0 
Q 1100 0 847 248 
Q 594 497 594 1153 
L 594 3053 
L 172 3053 
L 172 3500 
L 594 3500 
L 594 4494 
L 1172 4494 
z
" id="DejaVuSans-74" transform="scale(0.015625)"/>
       <path d="M 513 4856 
L 1013 4856 
Q 1481 4119 1714 3412 
Q 1947 2706 1947 2009 
Q 1947 1309 1714 600 
Q 1481 -109 1013 -844 
L 513 -844 
Q 928 -128 1133 580 
Q 1338 1288 1338 2009 
Q 1338 2731 1133 3434 
Q 928 4138 513 4856 
z
" id="DejaVuSans-29" transform="scale(0.015625)"/>
      </defs>
      <use xlink:href="#DejaVuSans-66"/>
      <use x="35.205078" xlink:href="#DejaVuSans-28"/>
      <use x="74.21875" xlink:href="#DejaVuSans-74"/>
      <use x="113.427734" xlink:href="#DejaVuSans-29"/>
     </g>
    </g>
   </g>
   <g id="matplotlib.axis_2">
    <g id="ytick_1">
     <g id="line2d_9">
      <defs>
       <path d="M 0 0 
L -3.5 0 
" id="mf8aa3c4ba2" style="stroke:#000000;stroke-width:0.8;"/>
      </defs>
      <g>
       <use style="stroke:#000000;stroke-width:0.8;" x="43.78125" xlink:href="#mf8aa3c4ba2" y="225.799226"/>
      </g>
     </g>
     <g id="text_10">
      <!-- 0.0 -->
      <g transform="translate(20.878125 229.598445)scale(0.1 -0.1)">
       <defs>
        <path d="M 684 794 
L 1344 794 
L 1344 0 
L 684 0 
L 684 794 
z
" id="DejaVuSans-2e" transform="scale(0.015625)"/>
       </defs>
       <use xlink:href="#DejaVuSans-30"/>
       <use x="63.623047" xlink:href="#DejaVuSans-2e"/>
       <use x="95.410156" xlink:href="#DejaVuSans-30"/>
      </g>
     </g>
    </g>
    <g id="ytick_2">
     <g id="line2d_10">
      <g>
       <use style="stroke:#000000;stroke-width:0.8;" x="43.78125" xlink:href="#mf8aa3c4ba2" y="198.949225"/>
      </g>
     </g>
     <g id="text_11">
      <!-- 0.5 -->
      <g transform="translate(20.878125 202.748444)scale(0.1 -0.1)">
       <defs>
        <path d="M 691 4666 
L 3169 4666 
L 3169 4134 
L 1269 4134 
L 1269 2991 
Q 1406 3038 1543 3061 
Q 1681 3084 1819 3084 
Q 2600 3084 3056 2656 
Q 3513 2228 3513 1497 
Q 3513 744 3044 326 
Q 2575 -91 1722 -91 
Q 1428 -91 1123 -41 
Q 819 9 494 109 
L 494 744 
Q 775 591 1075 516 
Q 1375 441 1709 441 
Q 2250 441 2565 725 
Q 2881 1009 2881 1497 
Q 2881 1984 2565 2268 
Q 2250 2553 1709 2553 
Q 1456 2553 1204 2497 
Q 953 2441 691 2322 
L 691 4666 
z
" id="DejaVuSans-35" transform="scale(0.015625)"/>
       </defs>
       <use xlink:href="#DejaVuSans-30"/>
       <use x="63.623047" xlink:href="#DejaVuSans-2e"/>
       <use x="95.410156" xlink:href="#DejaVuSans-35"/>
      </g>
     </g>
    </g>
    <g id="ytick_3">
     <g id="line2d_11">
      <g>
       <use style="stroke:#000000;stroke-width:0.8;" x="43.78125" xlink:href="#mf8aa3c4ba2" y="172.099224"/>
      </g>
     </g>
     <g id="text_12">
      <!-- 1.0 -->
      <g transform="translate(20.878125 175.898443)scale(0.1 -0.1)">
       <use xlink:href="#DejaVuSans-31"/>
       <use x="63.623047" xlink:href="#DejaVuSans-2e"/>
       <use x="95.410156" xlink:href="#DejaVuSans-30"/>
      </g>
     </g>
    </g>
    <g id="ytick_4">
     <g id="line2d_12">
      <g>
       <use style="stroke:#000000;stroke-width:0.8;" x="43.78125" xlink:href="#mf8aa3c4ba2" y="145.249223"/>
      </g>
     </g>
     <g id="text_13">
      <!-- 1.5 -->
      <g transform="translate(20.878125 149.048442)scale(0.1 -0.1)">
       <use xlink:href="#DejaVuSans-31"/>
       <use x="63.623047" xlink:href="#DejaVuSans-2e"/>
       <use x="95.410156" xlink:href="#DejaVuSans-35"/>
      </g>
     </g>
    </g>
    <g id="ytick_5">
     <g id="line2d_13">
      <g>
       <use style="stroke:#000000;stroke-width:0.8;" x="43.78125" xlink:href="#mf8aa3c4ba2" y="118.399222"/>
      </g>
     </g>
     <g id="text_14">
      <!-- 2.0 -->
      <g transform="translate(20.878125 122.198441)scale(0.1 -0.1)">
       <use xlink:href="#DejaVuSans-32"/>
       <use x="63.623047" xlink:href="#DejaVuSans-2e"/>
       <use x="95.410156" xlink:href="#DejaVuSans-30"/>
      </g>
     </g>
    </g>
    <g id="ytick_6">
     <g id="line2d_14">
      <g>
       <use style="stroke:#000000;stroke-width:0.8;" x="43.78125" xlink:href="#mf8aa3c4ba2" y="91.549222"/>
      </g>
     </g>
     <g id="text_15">
      <!-- 2.5 -->
      <g transform="translate(20.878125 95.34844)scale(0.1 -0.1)">
       <use xlink:href="#DejaVuSans-32"/>
       <use x="63.623047" xlink:href="#DejaVuSans-2e"/>
       <use x="95.410156" xlink:href="#DejaVuSans-35"/>
      </g>
     </g>
    </g>
    <g id="ytick_7">
     <g id="line2d_15">
      <g>
       <use style="stroke:#000000;stroke-width:0.8;" x="43.78125" xlink:href="#mf8aa3c4ba2" y="64.699221"/>
      </g>
     </g>
     <g id="text_16">
      <!-- 3.0 -->
      <g transform="translate(20.878125 68.498439)scale(0.1 -0.1)">
       <defs>
        <path d="M 2597 2516 
Q 3050 2419 3304 2112 
Q 3559 1806 3559 1356 
Q 3559 666 3084 287 
Q 2609 -91 1734 -91 
Q 1441 -91 1130 -33 
Q 819 25 488 141 
L 488 750 
Q 750 597 1062 519 
Q 1375 441 1716 441 
Q 2309 441 2620 675 
Q 2931 909 2931 1356 
Q 2931 1769 2642 2001 
Q 2353 2234 1838 2234 
L 1294 2234 
L 1294 2753 
L 1863 2753 
Q 2328 2753 2575 2939 
Q 2822 3125 2822 3475 
Q 2822 3834 2567 4026 
Q 2313 4219 1838 4219 
Q 1578 4219 1281 4162 
Q 984 4106 628 3988 
L 628 4550 
Q 988 4650 1302 4700 
Q 1616 4750 1894 4750 
Q 2613 4750 3031 4423 
Q 3450 4097 3450 3541 
Q 3450 3153 3228 2886 
Q 3006 2619 2597 2516 
z
" id="DejaVuSans-33" transform="scale(0.015625)"/>
       </defs>
       <use xlink:href="#DejaVuSans-33"/>
       <use x="63.623047" xlink:href="#DejaVuSans-2e"/>
       <use x="95.410156" xlink:href="#DejaVuSans-30"/>
      </g>
     </g>
    </g>
    <g id="ytick_8">
     <g id="line2d_16">
      <g>
       <use style="stroke:#000000;stroke-width:0.8;" x="43.78125" xlink:href="#mf8aa3c4ba2" y="37.84922"/>
      </g>
     </g>
     <g id="text_17">
      <!-- 3.5 -->
      <g transform="translate(20.878125 41.648438)scale(0.1 -0.1)">
       <use xlink:href="#DejaVuSans-33"/>
       <use x="63.623047" xlink:href="#DejaVuSans-2e"/>
       <use x="95.410156" xlink:href="#DejaVuSans-35"/>
      </g>
     </g>
    </g>
    <g id="ytick_9">
     <g id="line2d_17">
      <g>
       <use style="stroke:#000000;stroke-width:0.8;" x="43.78125" xlink:href="#mf8aa3c4ba2" y="10.999219"/>
      </g>
     </g>
     <g id="text_18">
      <!-- 4.0 -->
      <g transform="translate(20.878125 14.798438)scale(0.1 -0.1)">
       <use xlink:href="#DejaVuSans-34"/>
       <use x="63.623047" xlink:href="#DejaVuSans-2e"/>
       <use x="95.410156" xlink:href="#DejaVuSans-30"/>
      </g>
     </g>
    </g>
    <g id="text_19">
     <!-- Density -->
     <g transform="translate(14.798438 136.08782)rotate(-90)scale(0.1 -0.1)">
      <defs>
       <path d="M 1259 4147 
L 1259 519 
L 2022 519 
Q 2988 519 3436 956 
Q 3884 1394 3884 2338 
Q 3884 3275 3436 3711 
Q 2988 4147 2022 4147 
L 1259 4147 
z
M 628 4666 
L 1925 4666 
Q 3281 4666 3915 4102 
Q 4550 3538 4550 2338 
Q 4550 1131 3912 565 
Q 3275 0 1925 0 
L 628 0 
L 628 4666 
z
" id="DejaVuSans-44" transform="scale(0.015625)"/>
       <path d="M 3597 1894 
L 3597 1613 
L 953 1613 
Q 991 1019 1311 708 
Q 1631 397 2203 397 
Q 2534 397 2845 478 
Q 3156 559 3463 722 
L 3463 178 
Q 3153 47 2828 -22 
Q 2503 -91 2169 -91 
Q 1331 -91 842 396 
Q 353 884 353 1716 
Q 353 2575 817 3079 
Q 1281 3584 2069 3584 
Q 2775 3584 3186 3129 
Q 3597 2675 3597 1894 
z
M 3022 2063 
Q 3016 2534 2758 2815 
Q 2500 3097 2075 3097 
Q 1594 3097 1305 2825 
Q 1016 2553 972 2059 
L 3022 2063 
z
" id="DejaVuSans-65" transform="scale(0.015625)"/>
       <path d="M 3513 2113 
L 3513 0 
L 2938 0 
L 2938 2094 
Q 2938 2591 2744 2837 
Q 2550 3084 2163 3084 
Q 1697 3084 1428 2787 
Q 1159 2491 1159 1978 
L 1159 0 
L 581 0 
L 581 3500 
L 1159 3500 
L 1159 2956 
Q 1366 3272 1645 3428 
Q 1925 3584 2291 3584 
Q 2894 3584 3203 3211 
Q 3513 2838 3513 2113 
z
" id="DejaVuSans-6e" transform="scale(0.015625)"/>
       <path d="M 2834 3397 
L 2834 2853 
Q 2591 2978 2328 3040 
Q 2066 3103 1784 3103 
Q 1356 3103 1142 2972 
Q 928 2841 928 2578 
Q 928 2378 1081 2264 
Q 1234 2150 1697 2047 
L 1894 2003 
Q 2506 1872 2764 1633 
Q 3022 1394 3022 966 
Q 3022 478 2636 193 
Q 2250 -91 1575 -91 
Q 1294 -91 989 -36 
Q 684 19 347 128 
L 347 722 
Q 666 556 975 473 
Q 1284 391 1588 391 
Q 1994 391 2212 530 
Q 2431 669 2431 922 
Q 2431 1156 2273 1281 
Q 2116 1406 1581 1522 
L 1381 1569 
Q 847 1681 609 1914 
Q 372 2147 372 2553 
Q 372 3047 722 3315 
Q 1072 3584 1716 3584 
Q 2034 3584 2315 3537 
Q 2597 3491 2834 3397 
z
" id="DejaVuSans-73" transform="scale(0.015625)"/>
       <path d="M 603 3500 
L 1178 3500 
L 1178 0 
L 603 0 
L 603 3500 
z
M 603 4863 
L 1178 4863 
L 1178 4134 
L 603 4134 
L 603 4863 
z
" id="DejaVuSans-69" transform="scale(0.015625)"/>
       <path d="M 2059 -325 
Q 1816 -950 1584 -1140 
Q 1353 -1331 966 -1331 
L 506 -1331 
L 506 -850 
L 844 -850 
Q 1081 -850 1212 -737 
Q 1344 -625 1503 -206 
L 1606 56 
L 191 3500 
L 800 3500 
L 1894 763 
L 2988 3500 
L 3597 3500 
L 2059 -325 
z
" id="DejaVuSans-79" transform="scale(0.015625)"/>
      </defs>
      <use xlink:href="#DejaVuSans-44"/>
      <use x="77.001953" xlink:href="#DejaVuSans-65"/>
      <use x="138.525391" xlink:href="#DejaVuSans-6e"/>
      <use x="201.904297" xlink:href="#DejaVuSans-73"/>
      <use x="254.003906" xlink:href="#DejaVuSans-69"/>
      <use x="281.787109" xlink:href="#DejaVuSans-74"/>
      <use x="320.996094" xlink:href="#DejaVuSans-79"/>
     </g>
    </g>
   </g>
   <g id="line2d_18">
    <path clip-path="url(#p9196c6abaa)" d="M 61.385169 225.789413 
L 65.692665 225.677613 
L 68.277163 225.398568 
L 70.000162 225.015507 
L 71.723161 224.401773 
L 73.446159 223.512072 
L 75.169158 222.335678 
L 76.892157 220.902431 
L 79.476655 218.410186 
L 87.230149 210.578654 
L 89.814647 208.308785 
L 92.399145 206.296718 
L 94.983643 204.548976 
L 97.568141 203.082327 
L 99.291139 202.310826 
L 101.014138 201.775192 
L 102.737137 201.537248 
L 104.460135 201.622533 
L 106.183134 202.002943 
L 107.906133 202.61095 
L 110.49063 203.797328 
L 113.075128 205.200272 
L 116.521126 207.356369 
L 120.828622 210.393947 
L 125.997618 214.367068 
L 130.305115 217.621116 
L 132.889613 219.26329 
L 135.474111 220.557489 
L 138.058609 221.502499 
L 140.643107 222.158965 
L 144.089104 222.740827 
L 155.288596 224.165787 
L 158.734593 224.437337 
L 163.903589 224.567853 
L 168.211085 224.754961 
L 179.410577 225.532143 
L 186.302571 225.487252 
L 194.056065 225.503244 
L 206.978555 225.707857 
L 220.762544 225.719011 
L 232.823535 225.798267 
L 232.823535 225.798267 
" style="fill:none;stroke:#1f77b4;stroke-linecap:square;stroke-width:1.5;"/>
   </g>
   <g id="line2d_19">
    <path clip-path="url(#p9196c6abaa)" d="M 58.999432 225.675911 
L 60.528897 225.500446 
L 62.058363 225.128524 
L 63.587828 224.403438 
L 65.117294 223.104328 
L 66.646759 220.96772 
L 68.176225 217.747194 
L 69.70569 213.308746 
L 71.235156 207.735679 
L 75.823552 189.10366 
L 77.353018 184.664474 
L 78.882483 182.097372 
L 80.411949 181.534188 
L 81.941414 182.755648 
L 83.47088 185.305876 
L 85.000345 188.654468 
L 89.588742 199.546956 
L 91.118208 202.815692 
L 92.647673 205.805367 
L 94.177139 208.498186 
L 95.706604 210.870846 
L 97.23607 212.896823 
L 98.765535 214.558069 
L 100.295001 215.85775 
L 101.824466 216.8288 
L 103.353932 217.535568 
L 106.412863 218.523144 
L 109.471794 219.537634 
L 112.530725 220.889974 
L 115.589656 222.328357 
L 118.648587 223.440205 
L 121.707518 224.088205 
L 124.766449 224.434791 
L 132.413776 224.981794 
L 138.531638 225.135083 
L 173.709345 225.450576 
L 192.062931 225.55767 
L 202.76919 225.740947 
L 231.829034 225.690688 
L 256.300483 225.799222 
L 363.363068 225.798351 
L 363.363068 225.798351 
" style="fill:none;stroke:#ff7f0e;stroke-linecap:square;stroke-width:1.5;"/>
   </g>
   <g id="line2d_20">
    <path clip-path="url(#p9196c6abaa)" d="M 65.428322 225.233199 
L 65.995314 224.849684 
L 66.562306 224.254149 
L 67.129298 223.360445 
L 67.69629 222.064873 
L 68.263282 220.251477 
L 68.830274 217.802292 
L 69.397266 214.612793 
L 69.964258 210.611639 
L 71.098243 200.182875 
L 74.500195 163.834929 
L 75.067187 160.409238 
L 75.634179 158.423028 
L 76.201171 157.902451 
L 76.768164 158.74477 
L 77.335156 160.73857 
L 78.46914 167.006502 
L 80.170116 177.669309 
L 81.3041 183.328229 
L 82.438084 187.364513 
L 83.572069 190.175122 
L 85.273045 193.361457 
L 86.974021 196.576509 
L 88.674997 200.41588 
L 90.942966 206.343346 
L 93.210934 212.191328 
L 94.344918 214.707396 
L 95.478902 216.819025 
L 96.612887 218.500162 
L 97.746871 219.782089 
L 98.880855 220.736318 
L 100.014839 221.450183 
L 101.715815 222.237307 
L 103.983784 222.96854 
L 106.251752 223.390742 
L 117.024602 224.549861 
L 120.993547 224.637329 
L 128.364444 224.542583 
L 136.869325 225.368425 
L 140.83827 225.306879 
L 145.941198 225.149407 
L 163.517953 225.612524 
L 168.620882 225.42328 
L 173.156819 225.695219 
L 177.125763 225.792197 
L 178.259748 225.796742 
L 178.259748 225.796742 
" style="fill:none;stroke:#2ca02c;stroke-linecap:square;stroke-width:1.5;"/>
   </g>
   <g id="patch_126">
    <path d="M 43.78125 225.799226 
L 43.78125 8.359226 
" style="fill:none;stroke:#000000;stroke-linecap:square;stroke-linejoin:miter;stroke-width:0.8;"/>
   </g>
   <g id="patch_127">
    <path d="M 378.58125 225.799226 
L 378.58125 8.359226 
" style="fill:none;stroke:#000000;stroke-linecap:square;stroke-linejoin:miter;stroke-width:0.8;"/>
   </g>
   <g id="patch_128">
    <path d="M 43.78125 225.799226 
L 378.58125 225.799226 
" style="fill:none;stroke:#000000;stroke-linecap:square;stroke-linejoin:miter;stroke-width:0.8;"/>
   </g>
   <g id="patch_129">
    <path d="M 43.78125 8.359226 
L 378.58125 8.359226 
" style="fill:none;stroke:#000000;stroke-linecap:square;stroke-linejoin:miter;stroke-width:0.8;"/>
   </g>
  </g>
 </g>
 <defs>
  <clipPath id="p9196c6abaa">
   <rect height="217.44" width="334.8" x="43.78125" y="8.359226"/>
  </clipPath>
 </defs>
</svg>
