<?xml version="1.0" encoding="utf-8" standalone="no"?>
<!DOCTYPE svg PUBLIC "-//W3C//DTD SVG 1.1//EN"
  "http://www.w3.org/Graphics/SVG/1.1/DTD/svg11.dtd">
<!-- Created with matplotlib (https://matplotlib.org/) -->
<svg height="262.19625pt" version="1.1" viewBox="0 0 390.716873 262.19625" width="390.716873pt" xmlns="http://www.w3.org/2000/svg" xmlns:xlink="http://www.w3.org/1999/xlink">
 <metadata>
  <rdf:RDF xmlns:cc="http://creativecommons.org/ns#" xmlns:dc="http://purl.org/dc/elements/1.1/" xmlns:rdf="http://www.w3.org/1999/02/22-rdf-syntax-ns#">
   <cc:Work>
    <dc:type rdf:resource="http://purl.org/dc/dcmitype/StillImage"/>
    <dc:date>2021-02-09T13:49:29.808980</dc:date>
    <dc:format>image/svg+xml</dc:format>
    <dc:creator>
     <cc:Agent>
      <dc:title>Matplotlib v3.3.4, https://matplotlib.org/</dc:title>
     </cc:Agent>
    </dc:creator>
   </cc:Work>
  </rdf:RDF>
 </metadata>
 <defs>
  <style type="text/css">*{stroke-linecap:butt;stroke-linejoin:round;}</style>
 </defs>
 <g id="figure_1">
  <g id="patch_1">
   <path d="M 0 262.19625 
L 390.716873 262.19625 
L 390.716873 0 
L 0 0 
z
" style="fill:none;"/>
  </g>
  <g id="axes_1">
   <g id="patch_2">
    <path d="M 43.78125 224.64 
L 378.58125 224.64 
L 378.58125 7.2 
L 43.78125 7.2 
z
" style="fill:#ffffff;"/>
   </g>
   <g id="patch_3">
    <path clip-path="url(#pce978fa954)" d="M 77.819605 224.64 
L 81.839352 224.64 
L 81.839352 220.731389 
L 77.819605 220.731389 
z
" style="fill:#1f77b4;opacity:0.4;"/>
   </g>
   <g id="patch_4">
    <path clip-path="url(#pce978fa954)" d="M 81.839352 224.64 
L 85.8591 224.64 
L 85.8591 218.532795 
L 81.839352 218.532795 
z
" style="fill:#1f77b4;opacity:0.4;"/>
   </g>
   <g id="patch_5">
    <path clip-path="url(#pce978fa954)" d="M 85.8591 224.64 
L 89.878847 224.64 
L 89.878847 214.624184 
L 85.8591 214.624184 
z
" style="fill:#1f77b4;opacity:0.4;"/>
   </g>
   <g id="patch_6">
    <path clip-path="url(#pce978fa954)" d="M 89.878847 224.64 
L 93.898595 224.64 
L 93.898595 206.806962 
L 89.878847 206.806962 
z
" style="fill:#1f77b4;opacity:0.4;"/>
   </g>
   <g id="patch_7">
    <path clip-path="url(#pce978fa954)" d="M 93.898595 224.64 
L 97.918342 224.64 
L 97.918342 200.455468 
L 93.898595 200.455468 
z
" style="fill:#1f77b4;opacity:0.4;"/>
   </g>
   <g id="patch_8">
    <path clip-path="url(#pce978fa954)" d="M 97.918342 224.64 
L 101.93809 224.64 
L 101.93809 192.882534 
L 97.918342 192.882534 
z
" style="fill:#1f77b4;opacity:0.4;"/>
   </g>
   <g id="patch_9">
    <path clip-path="url(#pce978fa954)" d="M 101.93809 224.64 
L 105.957837 224.64 
L 105.957837 193.615399 
L 101.93809 193.615399 
z
" style="fill:#1f77b4;opacity:0.4;"/>
   </g>
   <g id="patch_10">
    <path clip-path="url(#pce978fa954)" d="M 105.957837 224.64 
L 109.977585 224.64 
L 109.977585 197.52401 
L 105.957837 197.52401 
z
" style="fill:#1f77b4;opacity:0.4;"/>
   </g>
   <g id="patch_11">
    <path clip-path="url(#pce978fa954)" d="M 109.977585 224.64 
L 113.997333 224.64 
L 113.997333 208.516979 
L 109.977585 208.516979 
z
" style="fill:#1f77b4;opacity:0.4;"/>
   </g>
   <g id="patch_12">
    <path clip-path="url(#pce978fa954)" d="M 113.997333 224.64 
L 118.01708 224.64 
L 118.01708 209.73842 
L 113.997333 209.73842 
z
" style="fill:#1f77b4;opacity:0.4;"/>
   </g>
   <g id="patch_13">
    <path clip-path="url(#pce978fa954)" d="M 118.01708 224.64 
L 122.036828 224.64 
L 122.036828 213.891319 
L 118.01708 213.891319 
z
" style="fill:#1f77b4;opacity:0.4;"/>
   </g>
   <g id="patch_14">
    <path clip-path="url(#pce978fa954)" d="M 122.036828 224.64 
L 126.056575 224.64 
L 126.056575 210.959861 
L 122.036828 210.959861 
z
" style="fill:#1f77b4;opacity:0.4;"/>
   </g>
   <g id="patch_15">
    <path clip-path="url(#pce978fa954)" d="M 126.056575 224.64 
L 130.076323 224.64 
L 130.076323 218.532795 
L 126.056575 218.532795 
z
" style="fill:#1f77b4;opacity:0.4;"/>
   </g>
   <g id="patch_16">
    <path clip-path="url(#pce978fa954)" d="M 130.076323 224.64 
L 134.09607 224.64 
L 134.09607 221.464253 
L 130.076323 221.464253 
z
" style="fill:#1f77b4;opacity:0.4;"/>
   </g>
   <g id="patch_17">
    <path clip-path="url(#pce978fa954)" d="M 134.09607 224.64 
L 138.115818 224.64 
L 138.115818 220.975677 
L 134.09607 220.975677 
z
" style="fill:#1f77b4;opacity:0.4;"/>
   </g>
   <g id="patch_18">
    <path clip-path="url(#pce978fa954)" d="M 138.115818 224.64 
L 142.135565 224.64 
L 142.135565 220.731389 
L 138.115818 220.731389 
z
" style="fill:#1f77b4;opacity:0.4;"/>
   </g>
   <g id="patch_19">
    <path clip-path="url(#pce978fa954)" d="M 142.135565 224.64 
L 146.155313 224.64 
L 146.155313 221.95283 
L 142.135565 221.95283 
z
" style="fill:#1f77b4;opacity:0.4;"/>
   </g>
   <g id="patch_20">
    <path clip-path="url(#pce978fa954)" d="M 146.155313 224.64 
L 150.17506 224.64 
L 150.17506 222.929983 
L 146.155313 222.929983 
z
" style="fill:#1f77b4;opacity:0.4;"/>
   </g>
   <g id="patch_21">
    <path clip-path="url(#pce978fa954)" d="M 150.17506 224.64 
L 154.194808 224.64 
L 154.194808 222.197118 
L 150.17506 222.197118 
z
" style="fill:#1f77b4;opacity:0.4;"/>
   </g>
   <g id="patch_22">
    <path clip-path="url(#pce978fa954)" d="M 154.194808 224.64 
L 158.214555 224.64 
L 158.214555 223.907135 
L 154.194808 223.907135 
z
" style="fill:#1f77b4;opacity:0.4;"/>
   </g>
   <g id="patch_23">
    <path clip-path="url(#pce978fa954)" d="M 158.214555 224.64 
L 162.234303 224.64 
L 162.234303 223.418559 
L 158.214555 223.418559 
z
" style="fill:#1f77b4;opacity:0.4;"/>
   </g>
   <g id="patch_24">
    <path clip-path="url(#pce978fa954)" d="M 162.234303 224.64 
L 166.25405 224.64 
L 166.25405 222.685694 
L 162.234303 222.685694 
z
" style="fill:#1f77b4;opacity:0.4;"/>
   </g>
   <g id="patch_25">
    <path clip-path="url(#pce978fa954)" d="M 166.25405 224.64 
L 170.273798 224.64 
L 170.273798 223.418559 
L 166.25405 223.418559 
z
" style="fill:#1f77b4;opacity:0.4;"/>
   </g>
   <g id="patch_26">
    <path clip-path="url(#pce978fa954)" d="M 170.273798 224.64 
L 174.293545 224.64 
L 174.293545 223.418559 
L 170.273798 223.418559 
z
" style="fill:#1f77b4;opacity:0.4;"/>
   </g>
   <g id="patch_27">
    <path clip-path="url(#pce978fa954)" d="M 174.293545 224.64 
L 178.313293 224.64 
L 178.313293 224.151424 
L 174.293545 224.151424 
z
" style="fill:#1f77b4;opacity:0.4;"/>
   </g>
   <g id="patch_28">
    <path clip-path="url(#pce978fa954)" d="M 178.313293 224.64 
L 182.333041 224.64 
L 182.333041 224.64 
L 178.313293 224.64 
z
" style="fill:#1f77b4;opacity:0.4;"/>
   </g>
   <g id="patch_29">
    <path clip-path="url(#pce978fa954)" d="M 182.333041 224.64 
L 186.352788 224.64 
L 186.352788 223.174271 
L 182.333041 223.174271 
z
" style="fill:#1f77b4;opacity:0.4;"/>
   </g>
   <g id="patch_30">
    <path clip-path="url(#pce978fa954)" d="M 186.352788 224.64 
L 190.372536 224.64 
L 190.372536 224.395712 
L 186.352788 224.395712 
z
" style="fill:#1f77b4;opacity:0.4;"/>
   </g>
   <g id="patch_31">
    <path clip-path="url(#pce978fa954)" d="M 190.372536 224.64 
L 194.392283 224.64 
L 194.392283 224.151424 
L 190.372536 224.151424 
z
" style="fill:#1f77b4;opacity:0.4;"/>
   </g>
   <g id="patch_32">
    <path clip-path="url(#pce978fa954)" d="M 194.392283 224.64 
L 198.412031 224.64 
L 198.412031 223.418559 
L 194.392283 223.418559 
z
" style="fill:#1f77b4;opacity:0.4;"/>
   </g>
   <g id="patch_33">
    <path clip-path="url(#pce978fa954)" d="M 198.412031 224.64 
L 202.431778 224.64 
L 202.431778 223.662847 
L 198.412031 223.662847 
z
" style="fill:#1f77b4;opacity:0.4;"/>
   </g>
   <g id="patch_34">
    <path clip-path="url(#pce978fa954)" d="M 202.431778 224.64 
L 206.451526 224.64 
L 206.451526 223.907135 
L 202.431778 223.907135 
z
" style="fill:#1f77b4;opacity:0.4;"/>
   </g>
   <g id="patch_35">
    <path clip-path="url(#pce978fa954)" d="M 206.451526 224.64 
L 210.471273 224.64 
L 210.471273 224.395712 
L 206.451526 224.395712 
z
" style="fill:#1f77b4;opacity:0.4;"/>
   </g>
   <g id="patch_36">
    <path clip-path="url(#pce978fa954)" d="M 210.471273 224.64 
L 214.491021 224.64 
L 214.491021 224.395712 
L 210.471273 224.395712 
z
" style="fill:#1f77b4;opacity:0.4;"/>
   </g>
   <g id="patch_37">
    <path clip-path="url(#pce978fa954)" d="M 214.491021 224.64 
L 218.510768 224.64 
L 218.510768 223.907135 
L 214.491021 223.907135 
z
" style="fill:#1f77b4;opacity:0.4;"/>
   </g>
   <g id="patch_38">
    <path clip-path="url(#pce978fa954)" d="M 76.791446 224.64 
L 82.167038 224.64 
L 82.167038 149.561295 
L 76.791446 149.561295 
z
" style="fill:#ff7f0e;opacity:0.4;"/>
   </g>
   <g id="patch_39">
    <path clip-path="url(#pce978fa954)" d="M 82.167038 224.64 
L 87.54263 224.64 
L 87.54263 168.924659 
L 82.167038 168.924659 
z
" style="fill:#ff7f0e;opacity:0.4;"/>
   </g>
   <g id="patch_40">
    <path clip-path="url(#pce978fa954)" d="M 87.54263 224.64 
L 92.918222 224.64 
L 92.918222 201.257824 
L 87.54263 201.257824 
z
" style="fill:#ff7f0e;opacity:0.4;"/>
   </g>
   <g id="patch_41">
    <path clip-path="url(#pce978fa954)" d="M 92.918222 224.64 
L 98.293814 224.64 
L 98.293814 216.054357 
L 92.918222 216.054357 
z
" style="fill:#ff7f0e;opacity:0.4;"/>
   </g>
   <g id="patch_42">
    <path clip-path="url(#pce978fa954)" d="M 98.293814 224.64 
L 103.669406 224.64 
L 103.669406 221.351882 
L 98.293814 221.351882 
z
" style="fill:#ff7f0e;opacity:0.4;"/>
   </g>
   <g id="patch_43">
    <path clip-path="url(#pce978fa954)" d="M 103.669406 224.64 
L 109.044999 224.64 
L 109.044999 222.813268 
L 103.669406 222.813268 
z
" style="fill:#ff7f0e;opacity:0.4;"/>
   </g>
   <g id="patch_44">
    <path clip-path="url(#pce978fa954)" d="M 109.044999 224.64 
L 114.420591 224.64 
L 114.420591 223.726634 
L 109.044999 223.726634 
z
" style="fill:#ff7f0e;opacity:0.4;"/>
   </g>
   <g id="patch_45">
    <path clip-path="url(#pce978fa954)" d="M 114.420591 224.64 
L 119.796183 224.64 
L 119.796183 221.899901 
L 114.420591 221.899901 
z
" style="fill:#ff7f0e;opacity:0.4;"/>
   </g>
   <g id="patch_46">
    <path clip-path="url(#pce978fa954)" d="M 119.796183 224.64 
L 125.171775 224.64 
L 125.171775 223.178614 
L 119.796183 223.178614 
z
" style="fill:#ff7f0e;opacity:0.4;"/>
   </g>
   <g id="patch_47">
    <path clip-path="url(#pce978fa954)" d="M 125.171775 224.64 
L 130.547367 224.64 
L 130.547367 224.09198 
L 125.171775 224.09198 
z
" style="fill:#ff7f0e;opacity:0.4;"/>
   </g>
   <g id="patch_48">
    <path clip-path="url(#pce978fa954)" d="M 130.547367 224.64 
L 135.92296 224.64 
L 135.92296 223.361287 
L 130.547367 223.361287 
z
" style="fill:#ff7f0e;opacity:0.4;"/>
   </g>
   <g id="patch_49">
    <path clip-path="url(#pce978fa954)" d="M 135.92296 224.64 
L 141.298552 224.64 
L 141.298552 223.909307 
L 135.92296 223.909307 
z
" style="fill:#ff7f0e;opacity:0.4;"/>
   </g>
   <g id="patch_50">
    <path clip-path="url(#pce978fa954)" d="M 141.298552 224.64 
L 146.674144 224.64 
L 146.674144 223.909307 
L 141.298552 223.909307 
z
" style="fill:#ff7f0e;opacity:0.4;"/>
   </g>
   <g id="patch_51">
    <path clip-path="url(#pce978fa954)" d="M 146.674144 224.64 
L 152.049736 224.64 
L 152.049736 224.09198 
L 146.674144 224.09198 
z
" style="fill:#ff7f0e;opacity:0.4;"/>
   </g>
   <g id="patch_52">
    <path clip-path="url(#pce978fa954)" d="M 152.049736 224.64 
L 157.425328 224.64 
L 157.425328 223.909307 
L 152.049736 223.909307 
z
" style="fill:#ff7f0e;opacity:0.4;"/>
   </g>
   <g id="patch_53">
    <path clip-path="url(#pce978fa954)" d="M 157.425328 224.64 
L 162.80092 224.64 
L 162.80092 224.274654 
L 157.425328 224.274654 
z
" style="fill:#ff7f0e;opacity:0.4;"/>
   </g>
   <g id="patch_54">
    <path clip-path="url(#pce978fa954)" d="M 162.80092 224.64 
L 168.176513 224.64 
L 168.176513 224.64 
L 162.80092 224.64 
z
" style="fill:#ff7f0e;opacity:0.4;"/>
   </g>
   <g id="patch_55">
    <path clip-path="url(#pce978fa954)" d="M 168.176513 224.64 
L 173.552105 224.64 
L 173.552105 223.909307 
L 168.176513 223.909307 
z
" style="fill:#ff7f0e;opacity:0.4;"/>
   </g>
   <g id="patch_56">
    <path clip-path="url(#pce978fa954)" d="M 173.552105 224.64 
L 178.927697 224.64 
L 178.927697 224.09198 
L 173.552105 224.09198 
z
" style="fill:#ff7f0e;opacity:0.4;"/>
   </g>
   <g id="patch_57">
    <path clip-path="url(#pce978fa954)" d="M 178.927697 224.64 
L 184.303289 224.64 
L 184.303289 224.64 
L 178.927697 224.64 
z
" style="fill:#ff7f0e;opacity:0.4;"/>
   </g>
   <g id="patch_58">
    <path clip-path="url(#pce978fa954)" d="M 184.303289 224.64 
L 189.678881 224.64 
L 189.678881 224.09198 
L 184.303289 224.09198 
z
" style="fill:#ff7f0e;opacity:0.4;"/>
   </g>
   <g id="patch_59">
    <path clip-path="url(#pce978fa954)" d="M 189.678881 224.64 
L 195.054473 224.64 
L 195.054473 223.909307 
L 189.678881 223.909307 
z
" style="fill:#ff7f0e;opacity:0.4;"/>
   </g>
   <g id="patch_60">
    <path clip-path="url(#pce978fa954)" d="M 195.054473 224.64 
L 200.430066 224.64 
L 200.430066 224.274654 
L 195.054473 224.274654 
z
" style="fill:#ff7f0e;opacity:0.4;"/>
   </g>
   <g id="patch_61">
    <path clip-path="url(#pce978fa954)" d="M 200.430066 224.64 
L 205.805658 224.64 
L 205.805658 224.457327 
L 200.430066 224.457327 
z
" style="fill:#ff7f0e;opacity:0.4;"/>
   </g>
   <g id="patch_62">
    <path clip-path="url(#pce978fa954)" d="M 205.805658 224.64 
L 211.18125 224.64 
L 211.18125 224.64 
L 205.805658 224.64 
z
" style="fill:#ff7f0e;opacity:0.4;"/>
   </g>
   <g id="patch_63">
    <path clip-path="url(#pce978fa954)" d="M 211.18125 224.64 
L 216.556842 224.64 
L 216.556842 224.274654 
L 211.18125 224.274654 
z
" style="fill:#ff7f0e;opacity:0.4;"/>
   </g>
   <g id="patch_64">
    <path clip-path="url(#pce978fa954)" d="M 216.556842 224.64 
L 221.932434 224.64 
L 221.932434 224.274654 
L 216.556842 224.274654 
z
" style="fill:#ff7f0e;opacity:0.4;"/>
   </g>
   <g id="patch_65">
    <path clip-path="url(#pce978fa954)" d="M 221.932434 224.64 
L 227.308027 224.64 
L 227.308027 224.64 
L 221.932434 224.64 
z
" style="fill:#ff7f0e;opacity:0.4;"/>
   </g>
   <g id="patch_66">
    <path clip-path="url(#pce978fa954)" d="M 227.308027 224.64 
L 232.683619 224.64 
L 232.683619 224.64 
L 227.308027 224.64 
z
" style="fill:#ff7f0e;opacity:0.4;"/>
   </g>
   <g id="patch_67">
    <path clip-path="url(#pce978fa954)" d="M 232.683619 224.64 
L 238.059211 224.64 
L 238.059211 224.457327 
L 232.683619 224.457327 
z
" style="fill:#ff7f0e;opacity:0.4;"/>
   </g>
   <g id="patch_68">
    <path clip-path="url(#pce978fa954)" d="M 238.059211 224.64 
L 243.434803 224.64 
L 243.434803 224.457327 
L 238.059211 224.457327 
z
" style="fill:#ff7f0e;opacity:0.4;"/>
   </g>
   <g id="patch_69">
    <path clip-path="url(#pce978fa954)" d="M 243.434803 224.64 
L 248.810395 224.64 
L 248.810395 224.64 
L 243.434803 224.64 
z
" style="fill:#ff7f0e;opacity:0.4;"/>
   </g>
   <g id="patch_70">
    <path clip-path="url(#pce978fa954)" d="M 248.810395 224.64 
L 254.185987 224.64 
L 254.185987 224.64 
L 248.810395 224.64 
z
" style="fill:#ff7f0e;opacity:0.4;"/>
   </g>
   <g id="patch_71">
    <path clip-path="url(#pce978fa954)" d="M 254.185987 224.64 
L 259.56158 224.64 
L 259.56158 224.64 
L 254.185987 224.64 
z
" style="fill:#ff7f0e;opacity:0.4;"/>
   </g>
   <g id="patch_72">
    <path clip-path="url(#pce978fa954)" d="M 259.56158 224.64 
L 264.937172 224.64 
L 264.937172 224.64 
L 259.56158 224.64 
z
" style="fill:#ff7f0e;opacity:0.4;"/>
   </g>
   <g id="patch_73">
    <path clip-path="url(#pce978fa954)" d="M 264.937172 224.64 
L 270.312764 224.64 
L 270.312764 224.457327 
L 264.937172 224.457327 
z
" style="fill:#ff7f0e;opacity:0.4;"/>
   </g>
   <g id="patch_74">
    <path clip-path="url(#pce978fa954)" d="M 270.312764 224.64 
L 275.688356 224.64 
L 275.688356 224.457327 
L 270.312764 224.457327 
z
" style="fill:#ff7f0e;opacity:0.4;"/>
   </g>
   <g id="patch_75">
    <path clip-path="url(#pce978fa954)" d="M 275.688356 224.64 
L 281.063948 224.64 
L 281.063948 224.64 
L 275.688356 224.64 
z
" style="fill:#ff7f0e;opacity:0.4;"/>
   </g>
   <g id="patch_76">
    <path clip-path="url(#pce978fa954)" d="M 281.063948 224.64 
L 286.43954 224.64 
L 286.43954 224.64 
L 281.063948 224.64 
z
" style="fill:#ff7f0e;opacity:0.4;"/>
   </g>
   <g id="patch_77">
    <path clip-path="url(#pce978fa954)" d="M 286.43954 224.64 
L 291.815133 224.64 
L 291.815133 224.64 
L 286.43954 224.64 
z
" style="fill:#ff7f0e;opacity:0.4;"/>
   </g>
   <g id="patch_78">
    <path clip-path="url(#pce978fa954)" d="M 291.815133 224.64 
L 297.190725 224.64 
L 297.190725 224.64 
L 291.815133 224.64 
z
" style="fill:#ff7f0e;opacity:0.4;"/>
   </g>
   <g id="patch_79">
    <path clip-path="url(#pce978fa954)" d="M 297.190725 224.64 
L 302.566317 224.64 
L 302.566317 224.64 
L 297.190725 224.64 
z
" style="fill:#ff7f0e;opacity:0.4;"/>
   </g>
   <g id="patch_80">
    <path clip-path="url(#pce978fa954)" d="M 302.566317 224.64 
L 307.941909 224.64 
L 307.941909 224.64 
L 302.566317 224.64 
z
" style="fill:#ff7f0e;opacity:0.4;"/>
   </g>
   <g id="patch_81">
    <path clip-path="url(#pce978fa954)" d="M 307.941909 224.64 
L 313.317501 224.64 
L 313.317501 224.64 
L 307.941909 224.64 
z
" style="fill:#ff7f0e;opacity:0.4;"/>
   </g>
   <g id="patch_82">
    <path clip-path="url(#pce978fa954)" d="M 313.317501 224.64 
L 318.693094 224.64 
L 318.693094 224.64 
L 313.317501 224.64 
z
" style="fill:#ff7f0e;opacity:0.4;"/>
   </g>
   <g id="patch_83">
    <path clip-path="url(#pce978fa954)" d="M 318.693094 224.64 
L 324.068686 224.64 
L 324.068686 224.64 
L 318.693094 224.64 
z
" style="fill:#ff7f0e;opacity:0.4;"/>
   </g>
   <g id="patch_84">
    <path clip-path="url(#pce978fa954)" d="M 324.068686 224.64 
L 329.444278 224.64 
L 329.444278 224.64 
L 324.068686 224.64 
z
" style="fill:#ff7f0e;opacity:0.4;"/>
   </g>
   <g id="patch_85">
    <path clip-path="url(#pce978fa954)" d="M 329.444278 224.64 
L 334.81987 224.64 
L 334.81987 224.64 
L 329.444278 224.64 
z
" style="fill:#ff7f0e;opacity:0.4;"/>
   </g>
   <g id="patch_86">
    <path clip-path="url(#pce978fa954)" d="M 334.81987 224.64 
L 340.195462 224.64 
L 340.195462 224.64 
L 334.81987 224.64 
z
" style="fill:#ff7f0e;opacity:0.4;"/>
   </g>
   <g id="patch_87">
    <path clip-path="url(#pce978fa954)" d="M 340.195462 224.64 
L 345.571054 224.64 
L 345.571054 224.457327 
L 340.195462 224.457327 
z
" style="fill:#ff7f0e;opacity:0.4;"/>
   </g>
   <g id="patch_88">
    <path clip-path="url(#pce978fa954)" d="M 76.791446 224.64 
L 79.437418 224.64 
L 79.437418 17.554286 
L 76.791446 17.554286 
z
" style="fill:#2ca02c;opacity:0.4;"/>
   </g>
   <g id="patch_89">
    <path clip-path="url(#pce978fa954)" d="M 79.437418 224.64 
L 82.083391 224.64 
L 82.083391 190.496836 
L 79.437418 190.496836 
z
" style="fill:#2ca02c;opacity:0.4;"/>
   </g>
   <g id="patch_90">
    <path clip-path="url(#pce978fa954)" d="M 82.083391 224.64 
L 84.729363 224.64 
L 84.729363 192.352442 
L 82.083391 192.352442 
z
" style="fill:#2ca02c;opacity:0.4;"/>
   </g>
   <g id="patch_91">
    <path clip-path="url(#pce978fa954)" d="M 84.729363 224.64 
L 87.375335 224.64 
L 87.375335 203.486083 
L 84.729363 203.486083 
z
" style="fill:#2ca02c;opacity:0.4;"/>
   </g>
   <g id="patch_92">
    <path clip-path="url(#pce978fa954)" d="M 87.375335 224.64 
L 90.021308 224.64 
L 90.021308 213.877481 
L 87.375335 213.877481 
z
" style="fill:#2ca02c;opacity:0.4;"/>
   </g>
   <g id="patch_93">
    <path clip-path="url(#pce978fa954)" d="M 90.021308 224.64 
L 92.66728 224.64 
L 92.66728 216.846452 
L 90.021308 216.846452 
z
" style="fill:#2ca02c;opacity:0.4;"/>
   </g>
   <g id="patch_94">
    <path clip-path="url(#pce978fa954)" d="M 92.66728 224.64 
L 95.313253 224.64 
L 95.313253 217.588694 
L 92.66728 217.588694 
z
" style="fill:#2ca02c;opacity:0.4;"/>
   </g>
   <g id="patch_95">
    <path clip-path="url(#pce978fa954)" d="M 95.313253 224.64 
L 97.959225 224.64 
L 97.959225 220.557665 
L 95.313253 220.557665 
z
" style="fill:#2ca02c;opacity:0.4;"/>
   </g>
   <g id="patch_96">
    <path clip-path="url(#pce978fa954)" d="M 97.959225 224.64 
L 100.605198 224.64 
L 100.605198 222.042151 
L 97.959225 222.042151 
z
" style="fill:#2ca02c;opacity:0.4;"/>
   </g>
   <g id="patch_97">
    <path clip-path="url(#pce978fa954)" d="M 100.605198 224.64 
L 103.25117 224.64 
L 103.25117 221.299908 
L 100.605198 221.299908 
z
" style="fill:#2ca02c;opacity:0.4;"/>
   </g>
   <g id="patch_98">
    <path clip-path="url(#pce978fa954)" d="M 103.25117 224.64 
L 105.897143 224.64 
L 105.897143 221.299908 
L 103.25117 221.299908 
z
" style="fill:#2ca02c;opacity:0.4;"/>
   </g>
   <g id="patch_99">
    <path clip-path="url(#pce978fa954)" d="M 105.897143 224.64 
L 108.543115 224.64 
L 108.543115 220.557665 
L 105.897143 220.557665 
z
" style="fill:#2ca02c;opacity:0.4;"/>
   </g>
   <g id="patch_100">
    <path clip-path="url(#pce978fa954)" d="M 108.543115 224.64 
L 111.189088 224.64 
L 111.189088 221.299908 
L 108.543115 221.299908 
z
" style="fill:#2ca02c;opacity:0.4;"/>
   </g>
   <g id="patch_101">
    <path clip-path="url(#pce978fa954)" d="M 111.189088 224.64 
L 113.83506 224.64 
L 113.83506 222.413272 
L 111.189088 222.413272 
z
" style="fill:#2ca02c;opacity:0.4;"/>
   </g>
   <g id="patch_102">
    <path clip-path="url(#pce978fa954)" d="M 113.83506 224.64 
L 116.481033 224.64 
L 116.481033 220.557665 
L 113.83506 220.557665 
z
" style="fill:#2ca02c;opacity:0.4;"/>
   </g>
   <g id="patch_103">
    <path clip-path="url(#pce978fa954)" d="M 116.481033 224.64 
L 119.127005 224.64 
L 119.127005 223.526636 
L 116.481033 223.526636 
z
" style="fill:#2ca02c;opacity:0.4;"/>
   </g>
   <g id="patch_104">
    <path clip-path="url(#pce978fa954)" d="M 119.127005 224.64 
L 121.772978 224.64 
L 121.772978 222.413272 
L 119.127005 222.413272 
z
" style="fill:#2ca02c;opacity:0.4;"/>
   </g>
   <g id="patch_105">
    <path clip-path="url(#pce978fa954)" d="M 121.772978 224.64 
L 124.41895 224.64 
L 124.41895 222.784393 
L 121.772978 222.784393 
z
" style="fill:#2ca02c;opacity:0.4;"/>
   </g>
   <g id="patch_106">
    <path clip-path="url(#pce978fa954)" d="M 124.41895 224.64 
L 127.064923 224.64 
L 127.064923 223.526636 
L 124.41895 223.526636 
z
" style="fill:#2ca02c;opacity:0.4;"/>
   </g>
   <g id="patch_107">
    <path clip-path="url(#pce978fa954)" d="M 127.064923 224.64 
L 129.710895 224.64 
L 129.710895 222.784393 
L 127.064923 222.784393 
z
" style="fill:#2ca02c;opacity:0.4;"/>
   </g>
   <g id="patch_108">
    <path clip-path="url(#pce978fa954)" d="M 129.710895 224.64 
L 132.356867 224.64 
L 132.356867 224.268879 
L 129.710895 224.268879 
z
" style="fill:#2ca02c;opacity:0.4;"/>
   </g>
   <g id="patch_109">
    <path clip-path="url(#pce978fa954)" d="M 132.356867 224.64 
L 135.00284 224.64 
L 135.00284 222.784393 
L 132.356867 222.784393 
z
" style="fill:#2ca02c;opacity:0.4;"/>
   </g>
   <g id="patch_110">
    <path clip-path="url(#pce978fa954)" d="M 135.00284 224.64 
L 137.648812 224.64 
L 137.648812 223.526636 
L 135.00284 223.526636 
z
" style="fill:#2ca02c;opacity:0.4;"/>
   </g>
   <g id="patch_111">
    <path clip-path="url(#pce978fa954)" d="M 137.648812 224.64 
L 140.294785 224.64 
L 140.294785 222.413272 
L 137.648812 222.413272 
z
" style="fill:#2ca02c;opacity:0.4;"/>
   </g>
   <g id="patch_112">
    <path clip-path="url(#pce978fa954)" d="M 140.294785 224.64 
L 142.940757 224.64 
L 142.940757 224.64 
L 140.294785 224.64 
z
" style="fill:#2ca02c;opacity:0.4;"/>
   </g>
   <g id="patch_113">
    <path clip-path="url(#pce978fa954)" d="M 142.940757 224.64 
L 145.58673 224.64 
L 145.58673 223.897757 
L 142.940757 223.897757 
z
" style="fill:#2ca02c;opacity:0.4;"/>
   </g>
   <g id="patch_114">
    <path clip-path="url(#pce978fa954)" d="M 145.58673 224.64 
L 148.232702 224.64 
L 148.232702 222.784393 
L 145.58673 222.784393 
z
" style="fill:#2ca02c;opacity:0.4;"/>
   </g>
   <g id="patch_115">
    <path clip-path="url(#pce978fa954)" d="M 148.232702 224.64 
L 150.878675 224.64 
L 150.878675 224.64 
L 148.232702 224.64 
z
" style="fill:#2ca02c;opacity:0.4;"/>
   </g>
   <g id="patch_116">
    <path clip-path="url(#pce978fa954)" d="M 150.878675 224.64 
L 153.524647 224.64 
L 153.524647 223.526636 
L 150.878675 223.526636 
z
" style="fill:#2ca02c;opacity:0.4;"/>
   </g>
   <g id="patch_117">
    <path clip-path="url(#pce978fa954)" d="M 153.524647 224.64 
L 156.17062 224.64 
L 156.17062 223.897757 
L 153.524647 223.897757 
z
" style="fill:#2ca02c;opacity:0.4;"/>
   </g>
   <g id="patch_118">
    <path clip-path="url(#pce978fa954)" d="M 156.17062 224.64 
L 158.816592 224.64 
L 158.816592 224.64 
L 156.17062 224.64 
z
" style="fill:#2ca02c;opacity:0.4;"/>
   </g>
   <g id="patch_119">
    <path clip-path="url(#pce978fa954)" d="M 158.816592 224.64 
L 161.462565 224.64 
L 161.462565 223.526636 
L 158.816592 223.526636 
z
" style="fill:#2ca02c;opacity:0.4;"/>
   </g>
   <g id="patch_120">
    <path clip-path="url(#pce978fa954)" d="M 161.462565 224.64 
L 164.108537 224.64 
L 164.108537 223.526636 
L 161.462565 223.526636 
z
" style="fill:#2ca02c;opacity:0.4;"/>
   </g>
   <g id="patch_121">
    <path clip-path="url(#pce978fa954)" d="M 164.108537 224.64 
L 166.75451 224.64 
L 166.75451 224.268879 
L 164.108537 224.268879 
z
" style="fill:#2ca02c;opacity:0.4;"/>
   </g>
   <g id="patch_122">
    <path clip-path="url(#pce978fa954)" d="M 166.75451 224.64 
L 169.400482 224.64 
L 169.400482 224.268879 
L 166.75451 224.268879 
z
" style="fill:#2ca02c;opacity:0.4;"/>
   </g>
   <g id="patch_123">
    <path clip-path="url(#pce978fa954)" d="M 169.400482 224.64 
L 172.046455 224.64 
L 172.046455 224.64 
L 169.400482 224.64 
z
" style="fill:#2ca02c;opacity:0.4;"/>
   </g>
   <g id="patch_124">
    <path clip-path="url(#pce978fa954)" d="M 172.046455 224.64 
L 174.692427 224.64 
L 174.692427 223.897757 
L 172.046455 223.897757 
z
" style="fill:#2ca02c;opacity:0.4;"/>
   </g>
   <g id="patch_125">
    <path clip-path="url(#pce978fa954)" d="M 174.692427 224.64 
L 177.3384 224.64 
L 177.3384 224.268879 
L 174.692427 224.268879 
z
" style="fill:#2ca02c;opacity:0.4;"/>
   </g>
   <g id="patch_126">
    <path clip-path="url(#pce978fa954)" d="M 177.3384 224.64 
L 179.984372 224.64 
L 179.984372 224.64 
L 177.3384 224.64 
z
" style="fill:#2ca02c;opacity:0.4;"/>
   </g>
   <g id="patch_127">
    <path clip-path="url(#pce978fa954)" d="M 179.984372 224.64 
L 182.630344 224.64 
L 182.630344 223.897757 
L 179.984372 223.897757 
z
" style="fill:#2ca02c;opacity:0.4;"/>
   </g>
   <g id="patch_128">
    <path clip-path="url(#pce978fa954)" d="M 182.630344 224.64 
L 185.276317 224.64 
L 185.276317 224.64 
L 182.630344 224.64 
z
" style="fill:#2ca02c;opacity:0.4;"/>
   </g>
   <g id="patch_129">
    <path clip-path="url(#pce978fa954)" d="M 185.276317 224.64 
L 187.922289 224.64 
L 187.922289 224.64 
L 185.276317 224.64 
z
" style="fill:#2ca02c;opacity:0.4;"/>
   </g>
   <g id="patch_130">
    <path clip-path="url(#pce978fa954)" d="M 187.922289 224.64 
L 190.568262 224.64 
L 190.568262 224.64 
L 187.922289 224.64 
z
" style="fill:#2ca02c;opacity:0.4;"/>
   </g>
   <g id="patch_131">
    <path clip-path="url(#pce978fa954)" d="M 190.568262 224.64 
L 193.214234 224.64 
L 193.214234 224.64 
L 190.568262 224.64 
z
" style="fill:#2ca02c;opacity:0.4;"/>
   </g>
   <g id="patch_132">
    <path clip-path="url(#pce978fa954)" d="M 193.214234 224.64 
L 195.860207 224.64 
L 195.860207 224.64 
L 193.214234 224.64 
z
" style="fill:#2ca02c;opacity:0.4;"/>
   </g>
   <g id="patch_133">
    <path clip-path="url(#pce978fa954)" d="M 195.860207 224.64 
L 198.506179 224.64 
L 198.506179 224.268879 
L 195.860207 224.268879 
z
" style="fill:#2ca02c;opacity:0.4;"/>
   </g>
   <g id="patch_134">
    <path clip-path="url(#pce978fa954)" d="M 198.506179 224.64 
L 201.152152 224.64 
L 201.152152 224.64 
L 198.506179 224.64 
z
" style="fill:#2ca02c;opacity:0.4;"/>
   </g>
   <g id="patch_135">
    <path clip-path="url(#pce978fa954)" d="M 201.152152 224.64 
L 203.798124 224.64 
L 203.798124 224.64 
L 201.152152 224.64 
z
" style="fill:#2ca02c;opacity:0.4;"/>
   </g>
   <g id="patch_136">
    <path clip-path="url(#pce978fa954)" d="M 203.798124 224.64 
L 206.444097 224.64 
L 206.444097 224.64 
L 203.798124 224.64 
z
" style="fill:#2ca02c;opacity:0.4;"/>
   </g>
   <g id="patch_137">
    <path clip-path="url(#pce978fa954)" d="M 206.444097 224.64 
L 209.090069 224.64 
L 209.090069 224.268879 
L 206.444097 224.268879 
z
" style="fill:#2ca02c;opacity:0.4;"/>
   </g>
   <g id="matplotlib.axis_1">
    <g id="xtick_1">
     <g id="line2d_1">
      <defs>
       <path d="M 0 0 
L 0 3.5 
" id="mfe66a45ab6" style="stroke:#000000;stroke-width:0.8;"/>
      </defs>
      <g>
       <use style="stroke:#000000;stroke-width:0.8;" x="76.791446" xlink:href="#mfe66a45ab6" y="224.64"/>
      </g>
     </g>
     <g id="text_1">
      <!-- 0 -->
      <g transform="translate(73.610196 239.238437)scale(0.1 -0.1)">
       <defs>
        <path d="M 31.78125 66.40625 
Q 24.171875 66.40625 20.328125 58.90625 
Q 16.5 51.421875 16.5 36.375 
Q 16.5 21.390625 20.328125 13.890625 
Q 24.171875 6.390625 31.78125 6.390625 
Q 39.453125 6.390625 43.28125 13.890625 
Q 47.125 21.390625 47.125 36.375 
Q 47.125 51.421875 43.28125 58.90625 
Q 39.453125 66.40625 31.78125 66.40625 
z
M 31.78125 74.21875 
Q 44.046875 74.21875 50.515625 64.515625 
Q 56.984375 54.828125 56.984375 36.375 
Q 56.984375 17.96875 50.515625 8.265625 
Q 44.046875 -1.421875 31.78125 -1.421875 
Q 19.53125 -1.421875 13.0625 8.265625 
Q 6.59375 17.96875 6.59375 36.375 
Q 6.59375 54.828125 13.0625 64.515625 
Q 19.53125 74.21875 31.78125 74.21875 
z
" id="DejaVuSans-48"/>
       </defs>
       <use xlink:href="#DejaVuSans-48"/>
      </g>
     </g>
    </g>
    <g id="xtick_2">
     <g id="line2d_2">
      <g>
       <use style="stroke:#000000;stroke-width:0.8;" x="136.864031" xlink:href="#mfe66a45ab6" y="224.64"/>
      </g>
     </g>
     <g id="text_2">
      <!-- 5 -->
      <g transform="translate(133.682781 239.238437)scale(0.1 -0.1)">
       <defs>
        <path d="M 10.796875 72.90625 
L 49.515625 72.90625 
L 49.515625 64.59375 
L 19.828125 64.59375 
L 19.828125 46.734375 
Q 21.96875 47.46875 24.109375 47.828125 
Q 26.265625 48.1875 28.421875 48.1875 
Q 40.625 48.1875 47.75 41.5 
Q 54.890625 34.8125 54.890625 23.390625 
Q 54.890625 11.625 47.5625 5.09375 
Q 40.234375 -1.421875 26.90625 -1.421875 
Q 22.3125 -1.421875 17.546875 -0.640625 
Q 12.796875 0.140625 7.71875 1.703125 
L 7.71875 11.625 
Q 12.109375 9.234375 16.796875 8.0625 
Q 21.484375 6.890625 26.703125 6.890625 
Q 35.15625 6.890625 40.078125 11.328125 
Q 45.015625 15.765625 45.015625 23.390625 
Q 45.015625 31 40.078125 35.4375 
Q 35.15625 39.890625 26.703125 39.890625 
Q 22.75 39.890625 18.8125 39.015625 
Q 14.890625 38.140625 10.796875 36.28125 
z
" id="DejaVuSans-53"/>
       </defs>
       <use xlink:href="#DejaVuSans-53"/>
      </g>
     </g>
    </g>
    <g id="xtick_3">
     <g id="line2d_3">
      <g>
       <use style="stroke:#000000;stroke-width:0.8;" x="196.936616" xlink:href="#mfe66a45ab6" y="224.64"/>
      </g>
     </g>
     <g id="text_3">
      <!-- 10 -->
      <g transform="translate(190.574116 239.238437)scale(0.1 -0.1)">
       <defs>
        <path d="M 12.40625 8.296875 
L 28.515625 8.296875 
L 28.515625 63.921875 
L 10.984375 60.40625 
L 10.984375 69.390625 
L 28.421875 72.90625 
L 38.28125 72.90625 
L 38.28125 8.296875 
L 54.390625 8.296875 
L 54.390625 0 
L 12.40625 0 
z
" id="DejaVuSans-49"/>
       </defs>
       <use xlink:href="#DejaVuSans-49"/>
       <use x="63.623047" xlink:href="#DejaVuSans-48"/>
      </g>
     </g>
    </g>
    <g id="xtick_4">
     <g id="line2d_4">
      <g>
       <use style="stroke:#000000;stroke-width:0.8;" x="257.009202" xlink:href="#mfe66a45ab6" y="224.64"/>
      </g>
     </g>
     <g id="text_4">
      <!-- 15 -->
      <g transform="translate(250.646702 239.238437)scale(0.1 -0.1)">
       <use xlink:href="#DejaVuSans-49"/>
       <use x="63.623047" xlink:href="#DejaVuSans-53"/>
      </g>
     </g>
    </g>
    <g id="xtick_5">
     <g id="line2d_5">
      <g>
       <use style="stroke:#000000;stroke-width:0.8;" x="317.081787" xlink:href="#mfe66a45ab6" y="224.64"/>
      </g>
     </g>
     <g id="text_5">
      <!-- 20 -->
      <g transform="translate(310.719287 239.238437)scale(0.1 -0.1)">
       <defs>
        <path d="M 19.1875 8.296875 
L 53.609375 8.296875 
L 53.609375 0 
L 7.328125 0 
L 7.328125 8.296875 
Q 12.9375 14.109375 22.625 23.890625 
Q 32.328125 33.6875 34.8125 36.53125 
Q 39.546875 41.84375 41.421875 45.53125 
Q 43.3125 49.21875 43.3125 52.78125 
Q 43.3125 58.59375 39.234375 62.25 
Q 35.15625 65.921875 28.609375 65.921875 
Q 23.96875 65.921875 18.8125 64.3125 
Q 13.671875 62.703125 7.8125 59.421875 
L 7.8125 69.390625 
Q 13.765625 71.78125 18.9375 73 
Q 24.125 74.21875 28.421875 74.21875 
Q 39.75 74.21875 46.484375 68.546875 
Q 53.21875 62.890625 53.21875 53.421875 
Q 53.21875 48.921875 51.53125 44.890625 
Q 49.859375 40.875 45.40625 35.40625 
Q 44.1875 33.984375 37.640625 27.21875 
Q 31.109375 20.453125 19.1875 8.296875 
z
" id="DejaVuSans-50"/>
       </defs>
       <use xlink:href="#DejaVuSans-50"/>
       <use x="63.623047" xlink:href="#DejaVuSans-48"/>
      </g>
     </g>
    </g>
    <g id="xtick_6">
     <g id="line2d_6">
      <g>
       <use style="stroke:#000000;stroke-width:0.8;" x="377.154373" xlink:href="#mfe66a45ab6" y="224.64"/>
      </g>
     </g>
     <g id="text_6">
      <!-- 25 -->
      <g transform="translate(370.791873 239.238437)scale(0.1 -0.1)">
       <use xlink:href="#DejaVuSans-50"/>
       <use x="63.623047" xlink:href="#DejaVuSans-53"/>
      </g>
     </g>
    </g>
    <g id="text_7">
     <!-- f(t) -->
     <g transform="translate(203.559375 252.916562)scale(0.1 -0.1)">
      <defs>
       <path d="M 37.109375 75.984375 
L 37.109375 68.5 
L 28.515625 68.5 
Q 23.6875 68.5 21.796875 66.546875 
Q 19.921875 64.59375 19.921875 59.515625 
L 19.921875 54.6875 
L 34.71875 54.6875 
L 34.71875 47.703125 
L 19.921875 47.703125 
L 19.921875 0 
L 10.890625 0 
L 10.890625 47.703125 
L 2.296875 47.703125 
L 2.296875 54.6875 
L 10.890625 54.6875 
L 10.890625 58.5 
Q 10.890625 67.625 15.140625 71.796875 
Q 19.390625 75.984375 28.609375 75.984375 
z
" id="DejaVuSans-102"/>
       <path d="M 31 75.875 
Q 24.46875 64.65625 21.28125 53.65625 
Q 18.109375 42.671875 18.109375 31.390625 
Q 18.109375 20.125 21.3125 9.0625 
Q 24.515625 -2 31 -13.1875 
L 23.1875 -13.1875 
Q 15.875 -1.703125 12.234375 9.375 
Q 8.59375 20.453125 8.59375 31.390625 
Q 8.59375 42.28125 12.203125 53.3125 
Q 15.828125 64.359375 23.1875 75.875 
z
" id="DejaVuSans-40"/>
       <path d="M 18.3125 70.21875 
L 18.3125 54.6875 
L 36.8125 54.6875 
L 36.8125 47.703125 
L 18.3125 47.703125 
L 18.3125 18.015625 
Q 18.3125 11.328125 20.140625 9.421875 
Q 21.96875 7.515625 27.59375 7.515625 
L 36.8125 7.515625 
L 36.8125 0 
L 27.59375 0 
Q 17.1875 0 13.234375 3.875 
Q 9.28125 7.765625 9.28125 18.015625 
L 9.28125 47.703125 
L 2.6875 47.703125 
L 2.6875 54.6875 
L 9.28125 54.6875 
L 9.28125 70.21875 
z
" id="DejaVuSans-116"/>
       <path d="M 8.015625 75.875 
L 15.828125 75.875 
Q 23.140625 64.359375 26.78125 53.3125 
Q 30.421875 42.28125 30.421875 31.390625 
Q 30.421875 20.453125 26.78125 9.375 
Q 23.140625 -1.703125 15.828125 -13.1875 
L 8.015625 -13.1875 
Q 14.5 -2 17.703125 9.0625 
Q 20.90625 20.125 20.90625 31.390625 
Q 20.90625 42.671875 17.703125 53.65625 
Q 14.5 64.65625 8.015625 75.875 
z
" id="DejaVuSans-41"/>
      </defs>
      <use xlink:href="#DejaVuSans-102"/>
      <use x="35.205078" xlink:href="#DejaVuSans-40"/>
      <use x="74.21875" xlink:href="#DejaVuSans-116"/>
      <use x="113.427734" xlink:href="#DejaVuSans-41"/>
     </g>
    </g>
   </g>
   <g id="matplotlib.axis_2">
    <g id="ytick_1">
     <g id="line2d_7">
      <defs>
       <path d="M 0 0 
L -3.5 0 
" id="m4d7c2f93bd" style="stroke:#000000;stroke-width:0.8;"/>
      </defs>
      <g>
       <use style="stroke:#000000;stroke-width:0.8;" x="43.78125" xlink:href="#m4d7c2f93bd" y="224.64"/>
      </g>
     </g>
     <g id="text_8">
      <!-- 0.0 -->
      <g transform="translate(20.878125 228.439219)scale(0.1 -0.1)">
       <defs>
        <path d="M 10.6875 12.40625 
L 21 12.40625 
L 21 0 
L 10.6875 0 
z
" id="DejaVuSans-46"/>
       </defs>
       <use xlink:href="#DejaVuSans-48"/>
       <use x="63.623047" xlink:href="#DejaVuSans-46"/>
       <use x="95.410156" xlink:href="#DejaVuSans-48"/>
      </g>
     </g>
    </g>
    <g id="ytick_2">
     <g id="line2d_8">
      <g>
       <use style="stroke:#000000;stroke-width:0.8;" x="43.78125" xlink:href="#m4d7c2f93bd" y="183.773735"/>
      </g>
     </g>
     <g id="text_9">
      <!-- 0.5 -->
      <g transform="translate(20.878125 187.572954)scale(0.1 -0.1)">
       <use xlink:href="#DejaVuSans-48"/>
       <use x="63.623047" xlink:href="#DejaVuSans-46"/>
       <use x="95.410156" xlink:href="#DejaVuSans-53"/>
      </g>
     </g>
    </g>
    <g id="ytick_3">
     <g id="line2d_9">
      <g>
       <use style="stroke:#000000;stroke-width:0.8;" x="43.78125" xlink:href="#m4d7c2f93bd" y="142.90747"/>
      </g>
     </g>
     <g id="text_10">
      <!-- 1.0 -->
      <g transform="translate(20.878125 146.706689)scale(0.1 -0.1)">
       <use xlink:href="#DejaVuSans-49"/>
       <use x="63.623047" xlink:href="#DejaVuSans-46"/>
       <use x="95.410156" xlink:href="#DejaVuSans-48"/>
      </g>
     </g>
    </g>
    <g id="ytick_4">
     <g id="line2d_10">
      <g>
       <use style="stroke:#000000;stroke-width:0.8;" x="43.78125" xlink:href="#m4d7c2f93bd" y="102.041205"/>
      </g>
     </g>
     <g id="text_11">
      <!-- 1.5 -->
      <g transform="translate(20.878125 105.840423)scale(0.1 -0.1)">
       <use xlink:href="#DejaVuSans-49"/>
       <use x="63.623047" xlink:href="#DejaVuSans-46"/>
       <use x="95.410156" xlink:href="#DejaVuSans-53"/>
      </g>
     </g>
    </g>
    <g id="ytick_5">
     <g id="line2d_11">
      <g>
       <use style="stroke:#000000;stroke-width:0.8;" x="43.78125" xlink:href="#m4d7c2f93bd" y="61.17494"/>
      </g>
     </g>
     <g id="text_12">
      <!-- 2.0 -->
      <g transform="translate(20.878125 64.974158)scale(0.1 -0.1)">
       <use xlink:href="#DejaVuSans-50"/>
       <use x="63.623047" xlink:href="#DejaVuSans-46"/>
       <use x="95.410156" xlink:href="#DejaVuSans-48"/>
      </g>
     </g>
    </g>
    <g id="ytick_6">
     <g id="line2d_12">
      <g>
       <use style="stroke:#000000;stroke-width:0.8;" x="43.78125" xlink:href="#m4d7c2f93bd" y="20.308674"/>
      </g>
     </g>
     <g id="text_13">
      <!-- 2.5 -->
      <g transform="translate(20.878125 24.107893)scale(0.1 -0.1)">
       <use xlink:href="#DejaVuSans-50"/>
       <use x="63.623047" xlink:href="#DejaVuSans-46"/>
       <use x="95.410156" xlink:href="#DejaVuSans-53"/>
      </g>
     </g>
    </g>
    <g id="text_14">
     <!-- Density -->
     <g transform="translate(14.798438 134.928594)rotate(-90)scale(0.1 -0.1)">
      <defs>
       <path d="M 19.671875 64.796875 
L 19.671875 8.109375 
L 31.59375 8.109375 
Q 46.6875 8.109375 53.6875 14.9375 
Q 60.6875 21.78125 60.6875 36.53125 
Q 60.6875 51.171875 53.6875 57.984375 
Q 46.6875 64.796875 31.59375 64.796875 
z
M 9.8125 72.90625 
L 30.078125 72.90625 
Q 51.265625 72.90625 61.171875 64.09375 
Q 71.09375 55.28125 71.09375 36.53125 
Q 71.09375 17.671875 61.125 8.828125 
Q 51.171875 0 30.078125 0 
L 9.8125 0 
z
" id="DejaVuSans-68"/>
       <path d="M 56.203125 29.59375 
L 56.203125 25.203125 
L 14.890625 25.203125 
Q 15.484375 15.921875 20.484375 11.0625 
Q 25.484375 6.203125 34.421875 6.203125 
Q 39.59375 6.203125 44.453125 7.46875 
Q 49.3125 8.734375 54.109375 11.28125 
L 54.109375 2.78125 
Q 49.265625 0.734375 44.1875 -0.34375 
Q 39.109375 -1.421875 33.890625 -1.421875 
Q 20.796875 -1.421875 13.15625 6.1875 
Q 5.515625 13.8125 5.515625 26.8125 
Q 5.515625 40.234375 12.765625 48.109375 
Q 20.015625 56 32.328125 56 
Q 43.359375 56 49.78125 48.890625 
Q 56.203125 41.796875 56.203125 29.59375 
z
M 47.21875 32.234375 
Q 47.125 39.59375 43.09375 43.984375 
Q 39.0625 48.390625 32.421875 48.390625 
Q 24.90625 48.390625 20.390625 44.140625 
Q 15.875 39.890625 15.1875 32.171875 
z
" id="DejaVuSans-101"/>
       <path d="M 54.890625 33.015625 
L 54.890625 0 
L 45.90625 0 
L 45.90625 32.71875 
Q 45.90625 40.484375 42.875 44.328125 
Q 39.84375 48.1875 33.796875 48.1875 
Q 26.515625 48.1875 22.3125 43.546875 
Q 18.109375 38.921875 18.109375 30.90625 
L 18.109375 0 
L 9.078125 0 
L 9.078125 54.6875 
L 18.109375 54.6875 
L 18.109375 46.1875 
Q 21.34375 51.125 25.703125 53.5625 
Q 30.078125 56 35.796875 56 
Q 45.21875 56 50.046875 50.171875 
Q 54.890625 44.34375 54.890625 33.015625 
z
" id="DejaVuSans-110"/>
       <path d="M 44.28125 53.078125 
L 44.28125 44.578125 
Q 40.484375 46.53125 36.375 47.5 
Q 32.28125 48.484375 27.875 48.484375 
Q 21.1875 48.484375 17.84375 46.4375 
Q 14.5 44.390625 14.5 40.28125 
Q 14.5 37.15625 16.890625 35.375 
Q 19.28125 33.59375 26.515625 31.984375 
L 29.59375 31.296875 
Q 39.15625 29.25 43.1875 25.515625 
Q 47.21875 21.78125 47.21875 15.09375 
Q 47.21875 7.46875 41.1875 3.015625 
Q 35.15625 -1.421875 24.609375 -1.421875 
Q 20.21875 -1.421875 15.453125 -0.5625 
Q 10.6875 0.296875 5.421875 2 
L 5.421875 11.28125 
Q 10.40625 8.6875 15.234375 7.390625 
Q 20.0625 6.109375 24.8125 6.109375 
Q 31.15625 6.109375 34.5625 8.28125 
Q 37.984375 10.453125 37.984375 14.40625 
Q 37.984375 18.0625 35.515625 20.015625 
Q 33.0625 21.96875 24.703125 23.78125 
L 21.578125 24.515625 
Q 13.234375 26.265625 9.515625 29.90625 
Q 5.8125 33.546875 5.8125 39.890625 
Q 5.8125 47.609375 11.28125 51.796875 
Q 16.75 56 26.8125 56 
Q 31.78125 56 36.171875 55.265625 
Q 40.578125 54.546875 44.28125 53.078125 
z
" id="DejaVuSans-115"/>
       <path d="M 9.421875 54.6875 
L 18.40625 54.6875 
L 18.40625 0 
L 9.421875 0 
z
M 9.421875 75.984375 
L 18.40625 75.984375 
L 18.40625 64.59375 
L 9.421875 64.59375 
z
" id="DejaVuSans-105"/>
       <path d="M 32.171875 -5.078125 
Q 28.375 -14.84375 24.75 -17.8125 
Q 21.140625 -20.796875 15.09375 -20.796875 
L 7.90625 -20.796875 
L 7.90625 -13.28125 
L 13.1875 -13.28125 
Q 16.890625 -13.28125 18.9375 -11.515625 
Q 21 -9.765625 23.484375 -3.21875 
L 25.09375 0.875 
L 2.984375 54.6875 
L 12.5 54.6875 
L 29.59375 11.921875 
L 46.6875 54.6875 
L 56.203125 54.6875 
z
" id="DejaVuSans-121"/>
      </defs>
      <use xlink:href="#DejaVuSans-68"/>
      <use x="77.001953" xlink:href="#DejaVuSans-101"/>
      <use x="138.525391" xlink:href="#DejaVuSans-110"/>
      <use x="201.904297" xlink:href="#DejaVuSans-115"/>
      <use x="254.003906" xlink:href="#DejaVuSans-105"/>
      <use x="281.787109" xlink:href="#DejaVuSans-116"/>
      <use x="320.996094" xlink:href="#DejaVuSans-121"/>
     </g>
    </g>
   </g>
   <g id="line2d_13">
    <path clip-path="url(#pce978fa954)" d="M 60.920356 224.636121 
L 67.058183 224.541769 
L 69.688681 224.351139 
L 72.319178 223.925472 
L 74.072843 223.445461 
L 75.826508 222.770359 
L 77.580173 221.882176 
L 79.333838 220.776265 
L 81.087503 219.454992 
L 82.841168 217.920284 
L 84.594833 216.171766 
L 87.22533 213.160697 
L 89.855827 209.766802 
L 95.993655 201.636348 
L 97.74732 199.726342 
L 99.500985 198.263971 
L 100.377817 197.751417 
L 101.254649 197.408079 
L 102.131482 197.24657 
L 103.008314 197.273797 
L 103.885147 197.489953 
L 104.761979 197.88805 
L 105.638812 198.454095 
L 107.392477 200.004256 
L 109.146142 201.929974 
L 113.530304 206.942057 
L 115.283969 208.626115 
L 117.037634 210.048262 
L 119.668131 211.785638 
L 126.682791 215.994621 
L 130.190121 218.202219 
L 131.943786 219.131872 
L 133.697451 219.873599 
L 135.451116 220.426929 
L 138.081613 220.990964 
L 143.342608 221.755273 
L 150.357268 222.61009 
L 155.618263 223.059866 
L 160.002425 223.215288 
L 167.893917 223.395463 
L 180.169572 223.943997 
L 188.937896 223.938406 
L 200.336718 223.815585 
L 220.503865 224.439836 
L 231.025855 224.628602 
L 235.410017 224.63866 
L 235.410017 224.63866 
" style="fill:none;stroke:#1f77b4;stroke-linecap:square;stroke-width:1.5;"/>
   </g>
   <g id="line2d_14">
    <path clip-path="url(#pce978fa954)" d="M 58.999432 224.505278 
L 60.528897 224.343481 
L 62.058363 224.026688 
L 63.587828 223.447099 
L 65.117294 222.456528 
L 66.646759 220.875573 
L 68.176225 218.520524 
L 69.70569 215.248642 
L 71.235156 211.01418 
L 72.764621 205.918928 
L 77.353018 188.937036 
L 78.882483 184.385348 
L 80.411949 181.197966 
L 81.941414 179.667549 
L 83.47088 179.887352 
L 85.000345 181.750793 
L 86.529811 184.983503 
L 88.059276 189.197107 
L 92.647673 203.474192 
L 94.177139 207.63721 
L 95.706604 211.187412 
L 97.23607 214.095617 
L 98.765535 216.406319 
L 100.295001 218.203462 
L 101.824466 219.58121 
L 103.353932 220.625287 
L 104.883397 221.405299 
L 106.412863 221.974952 
L 107.942328 222.376101 
L 111.001259 222.807991 
L 114.06019 222.943838 
L 121.707518 223.139286 
L 133.943242 223.690286 
L 150.767362 224.04274 
L 166.062017 224.222766 
L 176.768276 224.235584 
L 184.415604 224.243845 
L 193.592397 224.146938 
L 213.475448 224.42346 
L 221.122776 224.436422 
L 233.3585 224.521367 
L 244.064758 224.576562 
L 256.300483 224.617467 
L 279.242465 224.584374 
L 300.654982 224.639994 
L 363.363068 224.639266 
L 363.363068 224.639266 
" style="fill:none;stroke:#ff7f0e;stroke-linecap:square;stroke-width:1.5;"/>
   </g>
   <g id="line2d_15">
    <path clip-path="url(#pce978fa954)" d="M 63.42816 224.150365 
L 64.227282 223.809951 
L 65.026403 223.276702 
L 65.825525 222.470472 
L 66.624647 221.294482 
L 67.423768 219.640477 
L 68.22289 217.398775 
L 69.022011 214.473435 
L 69.821133 210.801555 
L 70.620255 206.374253 
L 72.218498 195.594181 
L 74.615862 178.03754 
L 75.414984 173.131289 
L 76.214106 169.258725 
L 77.013227 166.663962 
L 77.812349 165.482367 
L 78.61147 165.726338 
L 79.410592 167.289823 
L 80.209713 169.96991 
L 81.008835 173.500375 
L 82.607078 181.958446 
L 85.004443 194.595597 
L 86.602686 201.468077 
L 88.200929 206.85273 
L 89.799172 210.944677 
L 91.397416 214.004179 
L 92.995659 216.260499 
L 94.593902 217.901437 
L 96.192145 219.077161 
L 97.790388 219.900472 
L 99.388631 220.452725 
L 100.986875 220.798235 
L 103.384239 221.061907 
L 112.973698 221.737039 
L 118.567549 222.441805 
L 123.362279 222.992843 
L 128.157008 223.294478 
L 132.951738 223.322224 
L 137.746467 223.381038 
L 145.737683 223.717946 
L 151.331534 223.842388 
L 156.925385 223.9928 
L 164.916601 224.059106 
L 172.907817 224.255733 
L 182.497276 224.41485 
L 191.287613 224.594918 
L 215.26126 224.606273 
L 222.453354 224.639023 
L 222.453354 224.639023 
" style="fill:none;stroke:#2ca02c;stroke-linecap:square;stroke-width:1.5;"/>
   </g>
   <g id="patch_138">
    <path d="M 43.78125 224.64 
L 43.78125 7.2 
" style="fill:none;stroke:#000000;stroke-linecap:square;stroke-linejoin:miter;stroke-width:0.8;"/>
   </g>
   <g id="patch_139">
    <path d="M 378.58125 224.64 
L 378.58125 7.2 
" style="fill:none;stroke:#000000;stroke-linecap:square;stroke-linejoin:miter;stroke-width:0.8;"/>
   </g>
   <g id="patch_140">
    <path d="M 43.78125 224.64 
L 378.58125 224.64 
" style="fill:none;stroke:#000000;stroke-linecap:square;stroke-linejoin:miter;stroke-width:0.8;"/>
   </g>
   <g id="patch_141">
    <path d="M 43.78125 7.2 
L 378.58125 7.2 
" style="fill:none;stroke:#000000;stroke-linecap:square;stroke-linejoin:miter;stroke-width:0.8;"/>
   </g>
  </g>
 </g>
 <defs>
  <clipPath id="pce978fa954">
   <rect height="217.44" width="334.8" x="43.78125" y="7.2"/>
  </clipPath>
 </defs>
</svg>
