<?xml version="1.0" encoding="utf-8" standalone="no"?>
<!DOCTYPE svg PUBLIC "-//W3C//DTD SVG 1.1//EN"
  "http://www.w3.org/Graphics/SVG/1.1/DTD/svg11.dtd">
<!-- Created with matplotlib (https://matplotlib.org/) -->
<svg height="262.19625pt" version="1.1" viewBox="0 0 385.78125 262.19625" width="385.78125pt" xmlns="http://www.w3.org/2000/svg" xmlns:xlink="http://www.w3.org/1999/xlink">
 <metadata>
  <rdf:RDF xmlns:cc="http://creativecommons.org/ns#" xmlns:dc="http://purl.org/dc/elements/1.1/" xmlns:rdf="http://www.w3.org/1999/02/22-rdf-syntax-ns#">
   <cc:Work>
    <dc:type rdf:resource="http://purl.org/dc/dcmitype/StillImage"/>
    <dc:date>2021-02-09T13:43:27.491898</dc:date>
    <dc:format>image/svg+xml</dc:format>
    <dc:creator>
     <cc:Agent>
      <dc:title>Matplotlib v3.3.4, https://matplotlib.org/</dc:title>
     </cc:Agent>
    </dc:creator>
   </cc:Work>
  </rdf:RDF>
 </metadata>
 <defs>
  <style type="text/css">*{stroke-linecap:butt;stroke-linejoin:round;}</style>
 </defs>
 <g id="figure_1">
  <g id="patch_1">
   <path d="M 0 262.19625 
L 385.78125 262.19625 
L 385.78125 0 
L 0 0 
z
" style="fill:none;"/>
  </g>
  <g id="axes_1">
   <g id="patch_2">
    <path d="M 43.78125 224.64 
L 378.58125 224.64 
L 378.58125 7.2 
L 43.78125 7.2 
z
" style="fill:#ffffff;"/>
   </g>
   <g id="patch_3">
    <path clip-path="url(#p552e7b441a)" d="M 76.748863 224.64 
L 79.774591 224.64 
L 79.774591 219.415603 
L 76.748863 219.415603 
z
" style="fill:#1f77b4;opacity:0.4;"/>
   </g>
   <g id="patch_4">
    <path clip-path="url(#p552e7b441a)" d="M 79.774591 224.64 
L 82.800318 224.64 
L 82.800318 216.957064 
L 79.774591 216.957064 
z
" style="fill:#1f77b4;opacity:0.4;"/>
   </g>
   <g id="patch_5">
    <path clip-path="url(#p552e7b441a)" d="M 82.800318 224.64 
L 85.826046 224.64 
L 85.826046 209.581445 
L 82.800318 209.581445 
z
" style="fill:#1f77b4;opacity:0.4;"/>
   </g>
   <g id="patch_6">
    <path clip-path="url(#p552e7b441a)" d="M 85.826046 224.64 
L 88.851773 224.64 
L 88.851773 205.586318 
L 85.826046 205.586318 
z
" style="fill:#1f77b4;opacity:0.4;"/>
   </g>
   <g id="patch_7">
    <path clip-path="url(#p552e7b441a)" d="M 88.851773 224.64 
L 91.877501 224.64 
L 91.877501 197.903382 
L 88.851773 197.903382 
z
" style="fill:#1f77b4;opacity:0.4;"/>
   </g>
   <g id="patch_8">
    <path clip-path="url(#p552e7b441a)" d="M 91.877501 224.64 
L 94.903228 224.64 
L 94.903228 199.747287 
L 91.877501 199.747287 
z
" style="fill:#1f77b4;opacity:0.4;"/>
   </g>
   <g id="patch_9">
    <path clip-path="url(#p552e7b441a)" d="M 94.903228 224.64 
L 97.928956 224.64 
L 97.928956 176.698478 
L 94.903228 176.698478 
z
" style="fill:#1f77b4;opacity:0.4;"/>
   </g>
   <g id="patch_10">
    <path clip-path="url(#p552e7b441a)" d="M 97.928956 224.64 
L 100.954683 224.64 
L 100.954683 191.142398 
L 97.928956 191.142398 
z
" style="fill:#1f77b4;opacity:0.4;"/>
   </g>
   <g id="patch_11">
    <path clip-path="url(#p552e7b441a)" d="M 100.954683 224.64 
L 103.980411 224.64 
L 103.980411 193.908255 
L 100.954683 193.908255 
z
" style="fill:#1f77b4;opacity:0.4;"/>
   </g>
   <g id="patch_12">
    <path clip-path="url(#p552e7b441a)" d="M 103.980411 224.64 
L 107.006138 224.64 
L 107.006138 206.508271 
L 103.980411 206.508271 
z
" style="fill:#1f77b4;opacity:0.4;"/>
   </g>
   <g id="patch_13">
    <path clip-path="url(#p552e7b441a)" d="M 107.006138 224.64 
L 110.031866 224.64 
L 110.031866 211.732667 
L 107.006138 211.732667 
z
" style="fill:#1f77b4;opacity:0.4;"/>
   </g>
   <g id="patch_14">
    <path clip-path="url(#p552e7b441a)" d="M 110.031866 224.64 
L 113.057594 224.64 
L 113.057594 212.961937 
L 110.031866 212.961937 
z
" style="fill:#1f77b4;opacity:0.4;"/>
   </g>
   <g id="patch_15">
    <path clip-path="url(#p552e7b441a)" d="M 113.057594 224.64 
L 116.083321 224.64 
L 116.083321 208.352175 
L 113.057594 208.352175 
z
" style="fill:#1f77b4;opacity:0.4;"/>
   </g>
   <g id="patch_16">
    <path clip-path="url(#p552e7b441a)" d="M 116.083321 224.64 
L 119.109049 224.64 
L 119.109049 218.800968 
L 116.083321 218.800968 
z
" style="fill:#1f77b4;opacity:0.4;"/>
   </g>
   <g id="patch_17">
    <path clip-path="url(#p552e7b441a)" d="M 119.109049 224.64 
L 122.134776 224.64 
L 122.134776 221.874143 
L 119.109049 221.874143 
z
" style="fill:#1f77b4;opacity:0.4;"/>
   </g>
   <g id="patch_18">
    <path clip-path="url(#p552e7b441a)" d="M 122.134776 224.64 
L 125.160504 224.64 
L 125.160504 220.644873 
L 122.134776 220.644873 
z
" style="fill:#1f77b4;opacity:0.4;"/>
   </g>
   <g id="patch_19">
    <path clip-path="url(#p552e7b441a)" d="M 125.160504 224.64 
L 128.186231 224.64 
L 128.186231 221.874143 
L 125.160504 221.874143 
z
" style="fill:#1f77b4;opacity:0.4;"/>
   </g>
   <g id="patch_20">
    <path clip-path="url(#p552e7b441a)" d="M 128.186231 224.64 
L 131.211959 224.64 
L 131.211959 221.259508 
L 128.186231 221.259508 
z
" style="fill:#1f77b4;opacity:0.4;"/>
   </g>
   <g id="patch_21">
    <path clip-path="url(#p552e7b441a)" d="M 131.211959 224.64 
L 134.237686 224.64 
L 134.237686 221.259508 
L 131.211959 221.259508 
z
" style="fill:#1f77b4;opacity:0.4;"/>
   </g>
   <g id="patch_22">
    <path clip-path="url(#p552e7b441a)" d="M 134.237686 224.64 
L 137.263414 224.64 
L 137.263414 221.566826 
L 134.237686 221.566826 
z
" style="fill:#1f77b4;opacity:0.4;"/>
   </g>
   <g id="patch_23">
    <path clip-path="url(#p552e7b441a)" d="M 137.263414 224.64 
L 140.289141 224.64 
L 140.289141 220.644873 
L 137.263414 220.644873 
z
" style="fill:#1f77b4;opacity:0.4;"/>
   </g>
   <g id="patch_24">
    <path clip-path="url(#p552e7b441a)" d="M 140.289141 224.64 
L 143.314869 224.64 
L 143.314869 223.718048 
L 140.289141 223.718048 
z
" style="fill:#1f77b4;opacity:0.4;"/>
   </g>
   <g id="patch_25">
    <path clip-path="url(#p552e7b441a)" d="M 143.314869 224.64 
L 146.340596 224.64 
L 146.340596 223.718048 
L 143.314869 223.718048 
z
" style="fill:#1f77b4;opacity:0.4;"/>
   </g>
   <g id="patch_26">
    <path clip-path="url(#p552e7b441a)" d="M 146.340596 224.64 
L 149.366324 224.64 
L 149.366324 223.103413 
L 146.340596 223.103413 
z
" style="fill:#1f77b4;opacity:0.4;"/>
   </g>
   <g id="patch_27">
    <path clip-path="url(#p552e7b441a)" d="M 149.366324 224.64 
L 152.392052 224.64 
L 152.392052 223.41073 
L 149.366324 223.41073 
z
" style="fill:#1f77b4;opacity:0.4;"/>
   </g>
   <g id="patch_28">
    <path clip-path="url(#p552e7b441a)" d="M 152.392052 224.64 
L 155.417779 224.64 
L 155.417779 224.332683 
L 152.392052 224.332683 
z
" style="fill:#1f77b4;opacity:0.4;"/>
   </g>
   <g id="patch_29">
    <path clip-path="url(#p552e7b441a)" d="M 155.417779 224.64 
L 158.443507 224.64 
L 158.443507 224.332683 
L 155.417779 224.332683 
z
" style="fill:#1f77b4;opacity:0.4;"/>
   </g>
   <g id="patch_30">
    <path clip-path="url(#p552e7b441a)" d="M 158.443507 224.64 
L 161.469234 224.64 
L 161.469234 224.025365 
L 158.443507 224.025365 
z
" style="fill:#1f77b4;opacity:0.4;"/>
   </g>
   <g id="patch_31">
    <path clip-path="url(#p552e7b441a)" d="M 161.469234 224.64 
L 164.494962 224.64 
L 164.494962 224.332683 
L 161.469234 224.332683 
z
" style="fill:#1f77b4;opacity:0.4;"/>
   </g>
   <g id="patch_32">
    <path clip-path="url(#p552e7b441a)" d="M 164.494962 224.64 
L 167.520689 224.64 
L 167.520689 224.64 
L 164.494962 224.64 
z
" style="fill:#1f77b4;opacity:0.4;"/>
   </g>
   <g id="patch_33">
    <path clip-path="url(#p552e7b441a)" d="M 167.520689 224.64 
L 170.546417 224.64 
L 170.546417 224.332683 
L 167.520689 224.332683 
z
" style="fill:#1f77b4;opacity:0.4;"/>
   </g>
   <g id="patch_34">
    <path clip-path="url(#p552e7b441a)" d="M 170.546417 224.64 
L 173.572144 224.64 
L 173.572144 223.718048 
L 170.546417 223.718048 
z
" style="fill:#1f77b4;opacity:0.4;"/>
   </g>
   <g id="patch_35">
    <path clip-path="url(#p552e7b441a)" d="M 173.572144 224.64 
L 176.597872 224.64 
L 176.597872 224.64 
L 173.572144 224.64 
z
" style="fill:#1f77b4;opacity:0.4;"/>
   </g>
   <g id="patch_36">
    <path clip-path="url(#p552e7b441a)" d="M 176.597872 224.64 
L 179.623599 224.64 
L 179.623599 224.64 
L 176.597872 224.64 
z
" style="fill:#1f77b4;opacity:0.4;"/>
   </g>
   <g id="patch_37">
    <path clip-path="url(#p552e7b441a)" d="M 179.623599 224.64 
L 182.649327 224.64 
L 182.649327 224.332683 
L 179.623599 224.332683 
z
" style="fill:#1f77b4;opacity:0.4;"/>
   </g>
   <g id="patch_38">
    <path clip-path="url(#p552e7b441a)" d="M 182.649327 224.64 
L 185.675054 224.64 
L 185.675054 224.64 
L 182.649327 224.64 
z
" style="fill:#1f77b4;opacity:0.4;"/>
   </g>
   <g id="patch_39">
    <path clip-path="url(#p552e7b441a)" d="M 185.675054 224.64 
L 188.700782 224.64 
L 188.700782 224.64 
L 185.675054 224.64 
z
" style="fill:#1f77b4;opacity:0.4;"/>
   </g>
   <g id="patch_40">
    <path clip-path="url(#p552e7b441a)" d="M 188.700782 224.64 
L 191.726509 224.64 
L 191.726509 224.64 
L 188.700782 224.64 
z
" style="fill:#1f77b4;opacity:0.4;"/>
   </g>
   <g id="patch_41">
    <path clip-path="url(#p552e7b441a)" d="M 191.726509 224.64 
L 194.752237 224.64 
L 194.752237 224.332683 
L 191.726509 224.332683 
z
" style="fill:#1f77b4;opacity:0.4;"/>
   </g>
   <g id="patch_42">
    <path clip-path="url(#p552e7b441a)" d="M 194.752237 224.64 
L 197.777965 224.64 
L 197.777965 224.64 
L 194.752237 224.64 
z
" style="fill:#1f77b4;opacity:0.4;"/>
   </g>
   <g id="patch_43">
    <path clip-path="url(#p552e7b441a)" d="M 197.777965 224.64 
L 200.803692 224.64 
L 200.803692 224.64 
L 197.777965 224.64 
z
" style="fill:#1f77b4;opacity:0.4;"/>
   </g>
   <g id="patch_44">
    <path clip-path="url(#p552e7b441a)" d="M 200.803692 224.64 
L 203.82942 224.64 
L 203.82942 224.64 
L 200.803692 224.64 
z
" style="fill:#1f77b4;opacity:0.4;"/>
   </g>
   <g id="patch_45">
    <path clip-path="url(#p552e7b441a)" d="M 203.82942 224.64 
L 206.855147 224.64 
L 206.855147 224.64 
L 203.82942 224.64 
z
" style="fill:#1f77b4;opacity:0.4;"/>
   </g>
   <g id="patch_46">
    <path clip-path="url(#p552e7b441a)" d="M 206.855147 224.64 
L 209.880875 224.64 
L 209.880875 224.64 
L 206.855147 224.64 
z
" style="fill:#1f77b4;opacity:0.4;"/>
   </g>
   <g id="patch_47">
    <path clip-path="url(#p552e7b441a)" d="M 209.880875 224.64 
L 212.906602 224.64 
L 212.906602 224.64 
L 209.880875 224.64 
z
" style="fill:#1f77b4;opacity:0.4;"/>
   </g>
   <g id="patch_48">
    <path clip-path="url(#p552e7b441a)" d="M 212.906602 224.64 
L 215.93233 224.64 
L 215.93233 224.64 
L 212.906602 224.64 
z
" style="fill:#1f77b4;opacity:0.4;"/>
   </g>
   <g id="patch_49">
    <path clip-path="url(#p552e7b441a)" d="M 215.93233 224.64 
L 218.958057 224.64 
L 218.958057 224.332683 
L 215.93233 224.332683 
z
" style="fill:#1f77b4;opacity:0.4;"/>
   </g>
   <g id="patch_50">
    <path clip-path="url(#p552e7b441a)" d="M 75.435352 224.64 
L 80.865188 224.64 
L 80.865188 138.67255 
L 75.435352 138.67255 
z
" style="fill:#ff7f0e;opacity:0.4;"/>
   </g>
   <g id="patch_51">
    <path clip-path="url(#p552e7b441a)" d="M 80.865188 224.64 
L 86.295024 224.64 
L 86.295024 171.552531 
L 80.865188 171.552531 
z
" style="fill:#ff7f0e;opacity:0.4;"/>
   </g>
   <g id="patch_52">
    <path clip-path="url(#p552e7b441a)" d="M 86.295024 224.64 
L 91.72486 224.64 
L 91.72486 212.310007 
L 86.295024 212.310007 
z
" style="fill:#ff7f0e;opacity:0.4;"/>
   </g>
   <g id="patch_53">
    <path clip-path="url(#p552e7b441a)" d="M 91.72486 224.64 
L 97.154696 224.64 
L 97.154696 221.215002 
L 91.72486 221.215002 
z
" style="fill:#ff7f0e;opacity:0.4;"/>
   </g>
   <g id="patch_54">
    <path clip-path="url(#p552e7b441a)" d="M 97.154696 224.64 
L 102.584532 224.64 
L 102.584532 222.585001 
L 97.154696 222.585001 
z
" style="fill:#ff7f0e;opacity:0.4;"/>
   </g>
   <g id="patch_55">
    <path clip-path="url(#p552e7b441a)" d="M 102.584532 224.64 
L 108.014368 224.64 
L 108.014368 222.927501 
L 102.584532 222.927501 
z
" style="fill:#ff7f0e;opacity:0.4;"/>
   </g>
   <g id="patch_56">
    <path clip-path="url(#p552e7b441a)" d="M 108.014368 224.64 
L 113.444203 224.64 
L 113.444203 222.413751 
L 108.014368 222.413751 
z
" style="fill:#ff7f0e;opacity:0.4;"/>
   </g>
   <g id="patch_57">
    <path clip-path="url(#p552e7b441a)" d="M 113.444203 224.64 
L 118.874039 224.64 
L 118.874039 223.441251 
L 113.444203 223.441251 
z
" style="fill:#ff7f0e;opacity:0.4;"/>
   </g>
   <g id="patch_58">
    <path clip-path="url(#p552e7b441a)" d="M 118.874039 224.64 
L 124.303875 224.64 
L 124.303875 223.612501 
L 118.874039 223.612501 
z
" style="fill:#ff7f0e;opacity:0.4;"/>
   </g>
   <g id="patch_59">
    <path clip-path="url(#p552e7b441a)" d="M 124.303875 224.64 
L 129.733711 224.64 
L 129.733711 223.612501 
L 124.303875 223.612501 
z
" style="fill:#ff7f0e;opacity:0.4;"/>
   </g>
   <g id="patch_60">
    <path clip-path="url(#p552e7b441a)" d="M 129.733711 224.64 
L 135.163547 224.64 
L 135.163547 223.78375 
L 129.733711 223.78375 
z
" style="fill:#ff7f0e;opacity:0.4;"/>
   </g>
   <g id="patch_61">
    <path clip-path="url(#p552e7b441a)" d="M 135.163547 224.64 
L 140.593383 224.64 
L 140.593383 224.12625 
L 135.163547 224.12625 
z
" style="fill:#ff7f0e;opacity:0.4;"/>
   </g>
   <g id="patch_62">
    <path clip-path="url(#p552e7b441a)" d="M 140.593383 224.64 
L 146.023219 224.64 
L 146.023219 223.955 
L 140.593383 223.955 
z
" style="fill:#ff7f0e;opacity:0.4;"/>
   </g>
   <g id="patch_63">
    <path clip-path="url(#p552e7b441a)" d="M 146.023219 224.64 
L 151.453055 224.64 
L 151.453055 224.46875 
L 146.023219 224.46875 
z
" style="fill:#ff7f0e;opacity:0.4;"/>
   </g>
   <g id="patch_64">
    <path clip-path="url(#p552e7b441a)" d="M 151.453055 224.64 
L 156.882891 224.64 
L 156.882891 224.12625 
L 151.453055 224.12625 
z
" style="fill:#ff7f0e;opacity:0.4;"/>
   </g>
   <g id="patch_65">
    <path clip-path="url(#p552e7b441a)" d="M 156.882891 224.64 
L 162.312727 224.64 
L 162.312727 223.78375 
L 156.882891 223.78375 
z
" style="fill:#ff7f0e;opacity:0.4;"/>
   </g>
   <g id="patch_66">
    <path clip-path="url(#p552e7b441a)" d="M 162.312727 224.64 
L 167.742563 224.64 
L 167.742563 224.12625 
L 162.312727 224.12625 
z
" style="fill:#ff7f0e;opacity:0.4;"/>
   </g>
   <g id="patch_67">
    <path clip-path="url(#p552e7b441a)" d="M 167.742563 224.64 
L 173.172399 224.64 
L 173.172399 224.12625 
L 167.742563 224.12625 
z
" style="fill:#ff7f0e;opacity:0.4;"/>
   </g>
   <g id="patch_68">
    <path clip-path="url(#p552e7b441a)" d="M 173.172399 224.64 
L 178.602234 224.64 
L 178.602234 224.46875 
L 173.172399 224.46875 
z
" style="fill:#ff7f0e;opacity:0.4;"/>
   </g>
   <g id="patch_69">
    <path clip-path="url(#p552e7b441a)" d="M 178.602234 224.64 
L 184.03207 224.64 
L 184.03207 224.2975 
L 178.602234 224.2975 
z
" style="fill:#ff7f0e;opacity:0.4;"/>
   </g>
   <g id="patch_70">
    <path clip-path="url(#p552e7b441a)" d="M 184.03207 224.64 
L 189.461906 224.64 
L 189.461906 224.46875 
L 184.03207 224.46875 
z
" style="fill:#ff7f0e;opacity:0.4;"/>
   </g>
   <g id="patch_71">
    <path clip-path="url(#p552e7b441a)" d="M 189.461906 224.64 
L 194.891742 224.64 
L 194.891742 224.64 
L 189.461906 224.64 
z
" style="fill:#ff7f0e;opacity:0.4;"/>
   </g>
   <g id="patch_72">
    <path clip-path="url(#p552e7b441a)" d="M 194.891742 224.64 
L 200.321578 224.64 
L 200.321578 223.955 
L 194.891742 223.955 
z
" style="fill:#ff7f0e;opacity:0.4;"/>
   </g>
   <g id="patch_73">
    <path clip-path="url(#p552e7b441a)" d="M 200.321578 224.64 
L 205.751414 224.64 
L 205.751414 224.2975 
L 200.321578 224.2975 
z
" style="fill:#ff7f0e;opacity:0.4;"/>
   </g>
   <g id="patch_74">
    <path clip-path="url(#p552e7b441a)" d="M 205.751414 224.64 
L 211.18125 224.64 
L 211.18125 224.46875 
L 205.751414 224.46875 
z
" style="fill:#ff7f0e;opacity:0.4;"/>
   </g>
   <g id="patch_75">
    <path clip-path="url(#p552e7b441a)" d="M 211.18125 224.64 
L 216.611086 224.64 
L 216.611086 224.64 
L 211.18125 224.64 
z
" style="fill:#ff7f0e;opacity:0.4;"/>
   </g>
   <g id="patch_76">
    <path clip-path="url(#p552e7b441a)" d="M 216.611086 224.64 
L 222.040922 224.64 
L 222.040922 224.46875 
L 216.611086 224.46875 
z
" style="fill:#ff7f0e;opacity:0.4;"/>
   </g>
   <g id="patch_77">
    <path clip-path="url(#p552e7b441a)" d="M 222.040922 224.64 
L 227.470758 224.64 
L 227.470758 224.64 
L 222.040922 224.64 
z
" style="fill:#ff7f0e;opacity:0.4;"/>
   </g>
   <g id="patch_78">
    <path clip-path="url(#p552e7b441a)" d="M 227.470758 224.64 
L 232.900594 224.64 
L 232.900594 224.64 
L 227.470758 224.64 
z
" style="fill:#ff7f0e;opacity:0.4;"/>
   </g>
   <g id="patch_79">
    <path clip-path="url(#p552e7b441a)" d="M 232.900594 224.64 
L 238.33043 224.64 
L 238.33043 224.46875 
L 232.900594 224.46875 
z
" style="fill:#ff7f0e;opacity:0.4;"/>
   </g>
   <g id="patch_80">
    <path clip-path="url(#p552e7b441a)" d="M 238.33043 224.64 
L 243.760266 224.64 
L 243.760266 224.64 
L 238.33043 224.64 
z
" style="fill:#ff7f0e;opacity:0.4;"/>
   </g>
   <g id="patch_81">
    <path clip-path="url(#p552e7b441a)" d="M 243.760266 224.64 
L 249.190101 224.64 
L 249.190101 224.64 
L 243.760266 224.64 
z
" style="fill:#ff7f0e;opacity:0.4;"/>
   </g>
   <g id="patch_82">
    <path clip-path="url(#p552e7b441a)" d="M 249.190101 224.64 
L 254.619937 224.64 
L 254.619937 224.64 
L 249.190101 224.64 
z
" style="fill:#ff7f0e;opacity:0.4;"/>
   </g>
   <g id="patch_83">
    <path clip-path="url(#p552e7b441a)" d="M 254.619937 224.64 
L 260.049773 224.64 
L 260.049773 224.64 
L 254.619937 224.64 
z
" style="fill:#ff7f0e;opacity:0.4;"/>
   </g>
   <g id="patch_84">
    <path clip-path="url(#p552e7b441a)" d="M 260.049773 224.64 
L 265.479609 224.64 
L 265.479609 224.64 
L 260.049773 224.64 
z
" style="fill:#ff7f0e;opacity:0.4;"/>
   </g>
   <g id="patch_85">
    <path clip-path="url(#p552e7b441a)" d="M 265.479609 224.64 
L 270.909445 224.64 
L 270.909445 224.64 
L 265.479609 224.64 
z
" style="fill:#ff7f0e;opacity:0.4;"/>
   </g>
   <g id="patch_86">
    <path clip-path="url(#p552e7b441a)" d="M 270.909445 224.64 
L 276.339281 224.64 
L 276.339281 224.64 
L 270.909445 224.64 
z
" style="fill:#ff7f0e;opacity:0.4;"/>
   </g>
   <g id="patch_87">
    <path clip-path="url(#p552e7b441a)" d="M 276.339281 224.64 
L 281.769117 224.64 
L 281.769117 224.64 
L 276.339281 224.64 
z
" style="fill:#ff7f0e;opacity:0.4;"/>
   </g>
   <g id="patch_88">
    <path clip-path="url(#p552e7b441a)" d="M 281.769117 224.64 
L 287.198953 224.64 
L 287.198953 224.64 
L 281.769117 224.64 
z
" style="fill:#ff7f0e;opacity:0.4;"/>
   </g>
   <g id="patch_89">
    <path clip-path="url(#p552e7b441a)" d="M 287.198953 224.64 
L 292.628789 224.64 
L 292.628789 224.46875 
L 287.198953 224.46875 
z
" style="fill:#ff7f0e;opacity:0.4;"/>
   </g>
   <g id="patch_90">
    <path clip-path="url(#p552e7b441a)" d="M 292.628789 224.64 
L 298.058625 224.64 
L 298.058625 224.64 
L 292.628789 224.64 
z
" style="fill:#ff7f0e;opacity:0.4;"/>
   </g>
   <g id="patch_91">
    <path clip-path="url(#p552e7b441a)" d="M 298.058625 224.64 
L 303.488461 224.64 
L 303.488461 224.64 
L 298.058625 224.64 
z
" style="fill:#ff7f0e;opacity:0.4;"/>
   </g>
   <g id="patch_92">
    <path clip-path="url(#p552e7b441a)" d="M 303.488461 224.64 
L 308.918297 224.64 
L 308.918297 224.64 
L 303.488461 224.64 
z
" style="fill:#ff7f0e;opacity:0.4;"/>
   </g>
   <g id="patch_93">
    <path clip-path="url(#p552e7b441a)" d="M 308.918297 224.64 
L 314.348132 224.64 
L 314.348132 224.64 
L 308.918297 224.64 
z
" style="fill:#ff7f0e;opacity:0.4;"/>
   </g>
   <g id="patch_94">
    <path clip-path="url(#p552e7b441a)" d="M 314.348132 224.64 
L 319.777968 224.64 
L 319.777968 224.64 
L 314.348132 224.64 
z
" style="fill:#ff7f0e;opacity:0.4;"/>
   </g>
   <g id="patch_95">
    <path clip-path="url(#p552e7b441a)" d="M 319.777968 224.64 
L 325.207804 224.64 
L 325.207804 224.64 
L 319.777968 224.64 
z
" style="fill:#ff7f0e;opacity:0.4;"/>
   </g>
   <g id="patch_96">
    <path clip-path="url(#p552e7b441a)" d="M 325.207804 224.64 
L 330.63764 224.64 
L 330.63764 224.64 
L 325.207804 224.64 
z
" style="fill:#ff7f0e;opacity:0.4;"/>
   </g>
   <g id="patch_97">
    <path clip-path="url(#p552e7b441a)" d="M 330.63764 224.64 
L 336.067476 224.64 
L 336.067476 224.64 
L 330.63764 224.64 
z
" style="fill:#ff7f0e;opacity:0.4;"/>
   </g>
   <g id="patch_98">
    <path clip-path="url(#p552e7b441a)" d="M 336.067476 224.64 
L 341.497312 224.64 
L 341.497312 224.64 
L 336.067476 224.64 
z
" style="fill:#ff7f0e;opacity:0.4;"/>
   </g>
   <g id="patch_99">
    <path clip-path="url(#p552e7b441a)" d="M 341.497312 224.64 
L 346.927148 224.64 
L 346.927148 224.46875 
L 341.497312 224.46875 
z
" style="fill:#ff7f0e;opacity:0.4;"/>
   </g>
   <g id="patch_100">
    <path clip-path="url(#p552e7b441a)" d="M 75.435352 224.64 
L 78.021714 224.64 
L 78.021714 17.554286 
L 75.435352 17.554286 
z
" style="fill:#2ca02c;opacity:0.4;"/>
   </g>
   <g id="patch_101">
    <path clip-path="url(#p552e7b441a)" d="M 78.021714 224.64 
L 80.608077 224.64 
L 80.608077 183.294762 
L 78.021714 183.294762 
z
" style="fill:#2ca02c;opacity:0.4;"/>
   </g>
   <g id="patch_102">
    <path clip-path="url(#p552e7b441a)" d="M 80.608077 224.64 
L 83.194439 224.64 
L 83.194439 187.968571 
L 80.608077 187.968571 
z
" style="fill:#2ca02c;opacity:0.4;"/>
   </g>
   <g id="patch_103">
    <path clip-path="url(#p552e7b441a)" d="M 83.194439 224.64 
L 85.780802 224.64 
L 85.780802 208.461429 
L 83.194439 208.461429 
z
" style="fill:#2ca02c;opacity:0.4;"/>
   </g>
   <g id="patch_104">
    <path clip-path="url(#p552e7b441a)" d="M 85.780802 224.64 
L 88.367164 224.64 
L 88.367164 218.168571 
L 85.780802 218.168571 
z
" style="fill:#2ca02c;opacity:0.4;"/>
   </g>
   <g id="patch_105">
    <path clip-path="url(#p552e7b441a)" d="M 88.367164 224.64 
L 90.953526 224.64 
L 90.953526 216.730476 
L 88.367164 216.730476 
z
" style="fill:#2ca02c;opacity:0.4;"/>
   </g>
   <g id="patch_106">
    <path clip-path="url(#p552e7b441a)" d="M 90.953526 224.64 
L 93.539889 224.64 
L 93.539889 220.325714 
L 90.953526 220.325714 
z
" style="fill:#2ca02c;opacity:0.4;"/>
   </g>
   <g id="patch_107">
    <path clip-path="url(#p552e7b441a)" d="M 93.539889 224.64 
L 96.126251 224.64 
L 96.126251 218.528095 
L 93.539889 218.528095 
z
" style="fill:#2ca02c;opacity:0.4;"/>
   </g>
   <g id="patch_108">
    <path clip-path="url(#p552e7b441a)" d="M 96.126251 224.64 
L 98.712614 224.64 
L 98.712614 219.247143 
L 96.126251 219.247143 
z
" style="fill:#2ca02c;opacity:0.4;"/>
   </g>
   <g id="patch_109">
    <path clip-path="url(#p552e7b441a)" d="M 98.712614 224.64 
L 101.298976 224.64 
L 101.298976 221.404286 
L 98.712614 221.404286 
z
" style="fill:#2ca02c;opacity:0.4;"/>
   </g>
   <g id="patch_110">
    <path clip-path="url(#p552e7b441a)" d="M 101.298976 224.64 
L 103.885339 224.64 
L 103.885339 223.561429 
L 101.298976 223.561429 
z
" style="fill:#2ca02c;opacity:0.4;"/>
   </g>
   <g id="patch_111">
    <path clip-path="url(#p552e7b441a)" d="M 103.885339 224.64 
L 106.471701 224.64 
L 106.471701 219.96619 
L 103.885339 219.96619 
z
" style="fill:#2ca02c;opacity:0.4;"/>
   </g>
   <g id="patch_112">
    <path clip-path="url(#p552e7b441a)" d="M 106.471701 224.64 
L 109.058063 224.64 
L 109.058063 222.123333 
L 106.471701 222.123333 
z
" style="fill:#2ca02c;opacity:0.4;"/>
   </g>
   <g id="patch_113">
    <path clip-path="url(#p552e7b441a)" d="M 109.058063 224.64 
L 111.644426 224.64 
L 111.644426 221.76381 
L 109.058063 221.76381 
z
" style="fill:#2ca02c;opacity:0.4;"/>
   </g>
   <g id="patch_114">
    <path clip-path="url(#p552e7b441a)" d="M 111.644426 224.64 
L 114.230788 224.64 
L 114.230788 222.842381 
L 111.644426 222.842381 
z
" style="fill:#2ca02c;opacity:0.4;"/>
   </g>
   <g id="patch_115">
    <path clip-path="url(#p552e7b441a)" d="M 114.230788 224.64 
L 116.817151 224.64 
L 116.817151 223.201905 
L 114.230788 223.201905 
z
" style="fill:#2ca02c;opacity:0.4;"/>
   </g>
   <g id="patch_116">
    <path clip-path="url(#p552e7b441a)" d="M 116.817151 224.64 
L 119.403513 224.64 
L 119.403513 222.842381 
L 116.817151 222.842381 
z
" style="fill:#2ca02c;opacity:0.4;"/>
   </g>
   <g id="patch_117">
    <path clip-path="url(#p552e7b441a)" d="M 119.403513 224.64 
L 121.989875 224.64 
L 121.989875 222.123333 
L 119.403513 222.123333 
z
" style="fill:#2ca02c;opacity:0.4;"/>
   </g>
   <g id="patch_118">
    <path clip-path="url(#p552e7b441a)" d="M 121.989875 224.64 
L 124.576238 224.64 
L 124.576238 223.920952 
L 121.989875 223.920952 
z
" style="fill:#2ca02c;opacity:0.4;"/>
   </g>
   <g id="patch_119">
    <path clip-path="url(#p552e7b441a)" d="M 124.576238 224.64 
L 127.1626 224.64 
L 127.1626 223.920952 
L 124.576238 223.920952 
z
" style="fill:#2ca02c;opacity:0.4;"/>
   </g>
   <g id="patch_120">
    <path clip-path="url(#p552e7b441a)" d="M 127.1626 224.64 
L 129.748963 224.64 
L 129.748963 223.920952 
L 127.1626 223.920952 
z
" style="fill:#2ca02c;opacity:0.4;"/>
   </g>
   <g id="patch_121">
    <path clip-path="url(#p552e7b441a)" d="M 129.748963 224.64 
L 132.335325 224.64 
L 132.335325 224.280476 
L 129.748963 224.280476 
z
" style="fill:#2ca02c;opacity:0.4;"/>
   </g>
   <g id="patch_122">
    <path clip-path="url(#p552e7b441a)" d="M 132.335325 224.64 
L 134.921687 224.64 
L 134.921687 223.201905 
L 132.335325 223.201905 
z
" style="fill:#2ca02c;opacity:0.4;"/>
   </g>
   <g id="patch_123">
    <path clip-path="url(#p552e7b441a)" d="M 134.921687 224.64 
L 137.50805 224.64 
L 137.50805 224.280476 
L 134.921687 224.280476 
z
" style="fill:#2ca02c;opacity:0.4;"/>
   </g>
   <g id="patch_124">
    <path clip-path="url(#p552e7b441a)" d="M 137.50805 224.64 
L 140.094412 224.64 
L 140.094412 224.280476 
L 137.50805 224.280476 
z
" style="fill:#2ca02c;opacity:0.4;"/>
   </g>
   <g id="patch_125">
    <path clip-path="url(#p552e7b441a)" d="M 140.094412 224.64 
L 142.680775 224.64 
L 142.680775 224.64 
L 140.094412 224.64 
z
" style="fill:#2ca02c;opacity:0.4;"/>
   </g>
   <g id="patch_126">
    <path clip-path="url(#p552e7b441a)" d="M 142.680775 224.64 
L 145.267137 224.64 
L 145.267137 224.64 
L 142.680775 224.64 
z
" style="fill:#2ca02c;opacity:0.4;"/>
   </g>
   <g id="patch_127">
    <path clip-path="url(#p552e7b441a)" d="M 145.267137 224.64 
L 147.853499 224.64 
L 147.853499 224.64 
L 145.267137 224.64 
z
" style="fill:#2ca02c;opacity:0.4;"/>
   </g>
   <g id="patch_128">
    <path clip-path="url(#p552e7b441a)" d="M 147.853499 224.64 
L 150.439862 224.64 
L 150.439862 224.64 
L 147.853499 224.64 
z
" style="fill:#2ca02c;opacity:0.4;"/>
   </g>
   <g id="patch_129">
    <path clip-path="url(#p552e7b441a)" d="M 150.439862 224.64 
L 153.026224 224.64 
L 153.026224 224.280476 
L 150.439862 224.280476 
z
" style="fill:#2ca02c;opacity:0.4;"/>
   </g>
   <g id="patch_130">
    <path clip-path="url(#p552e7b441a)" d="M 153.026224 224.64 
L 155.612587 224.64 
L 155.612587 223.920952 
L 153.026224 223.920952 
z
" style="fill:#2ca02c;opacity:0.4;"/>
   </g>
   <g id="patch_131">
    <path clip-path="url(#p552e7b441a)" d="M 155.612587 224.64 
L 158.198949 224.64 
L 158.198949 224.64 
L 155.612587 224.64 
z
" style="fill:#2ca02c;opacity:0.4;"/>
   </g>
   <g id="patch_132">
    <path clip-path="url(#p552e7b441a)" d="M 158.198949 224.64 
L 160.785311 224.64 
L 160.785311 224.64 
L 158.198949 224.64 
z
" style="fill:#2ca02c;opacity:0.4;"/>
   </g>
   <g id="patch_133">
    <path clip-path="url(#p552e7b441a)" d="M 160.785311 224.64 
L 163.371674 224.64 
L 163.371674 224.64 
L 160.785311 224.64 
z
" style="fill:#2ca02c;opacity:0.4;"/>
   </g>
   <g id="patch_134">
    <path clip-path="url(#p552e7b441a)" d="M 163.371674 224.64 
L 165.958036 224.64 
L 165.958036 224.64 
L 163.371674 224.64 
z
" style="fill:#2ca02c;opacity:0.4;"/>
   </g>
   <g id="patch_135">
    <path clip-path="url(#p552e7b441a)" d="M 165.958036 224.64 
L 168.544399 224.64 
L 168.544399 224.64 
L 165.958036 224.64 
z
" style="fill:#2ca02c;opacity:0.4;"/>
   </g>
   <g id="patch_136">
    <path clip-path="url(#p552e7b441a)" d="M 168.544399 224.64 
L 171.130761 224.64 
L 171.130761 224.64 
L 168.544399 224.64 
z
" style="fill:#2ca02c;opacity:0.4;"/>
   </g>
   <g id="patch_137">
    <path clip-path="url(#p552e7b441a)" d="M 171.130761 224.64 
L 173.717123 224.64 
L 173.717123 224.64 
L 171.130761 224.64 
z
" style="fill:#2ca02c;opacity:0.4;"/>
   </g>
   <g id="patch_138">
    <path clip-path="url(#p552e7b441a)" d="M 173.717123 224.64 
L 176.303486 224.64 
L 176.303486 224.64 
L 173.717123 224.64 
z
" style="fill:#2ca02c;opacity:0.4;"/>
   </g>
   <g id="patch_139">
    <path clip-path="url(#p552e7b441a)" d="M 176.303486 224.64 
L 178.889848 224.64 
L 178.889848 224.64 
L 176.303486 224.64 
z
" style="fill:#2ca02c;opacity:0.4;"/>
   </g>
   <g id="patch_140">
    <path clip-path="url(#p552e7b441a)" d="M 178.889848 224.64 
L 181.476211 224.64 
L 181.476211 224.64 
L 178.889848 224.64 
z
" style="fill:#2ca02c;opacity:0.4;"/>
   </g>
   <g id="patch_141">
    <path clip-path="url(#p552e7b441a)" d="M 181.476211 224.64 
L 184.062573 224.64 
L 184.062573 224.64 
L 181.476211 224.64 
z
" style="fill:#2ca02c;opacity:0.4;"/>
   </g>
   <g id="patch_142">
    <path clip-path="url(#p552e7b441a)" d="M 184.062573 224.64 
L 186.648935 224.64 
L 186.648935 224.64 
L 184.062573 224.64 
z
" style="fill:#2ca02c;opacity:0.4;"/>
   </g>
   <g id="patch_143">
    <path clip-path="url(#p552e7b441a)" d="M 186.648935 224.64 
L 189.235298 224.64 
L 189.235298 224.64 
L 186.648935 224.64 
z
" style="fill:#2ca02c;opacity:0.4;"/>
   </g>
   <g id="patch_144">
    <path clip-path="url(#p552e7b441a)" d="M 189.235298 224.64 
L 191.82166 224.64 
L 191.82166 224.64 
L 189.235298 224.64 
z
" style="fill:#2ca02c;opacity:0.4;"/>
   </g>
   <g id="patch_145">
    <path clip-path="url(#p552e7b441a)" d="M 191.82166 224.64 
L 194.408023 224.64 
L 194.408023 224.64 
L 191.82166 224.64 
z
" style="fill:#2ca02c;opacity:0.4;"/>
   </g>
   <g id="patch_146">
    <path clip-path="url(#p552e7b441a)" d="M 194.408023 224.64 
L 196.994385 224.64 
L 196.994385 224.64 
L 194.408023 224.64 
z
" style="fill:#2ca02c;opacity:0.4;"/>
   </g>
   <g id="patch_147">
    <path clip-path="url(#p552e7b441a)" d="M 196.994385 224.64 
L 199.580747 224.64 
L 199.580747 224.64 
L 196.994385 224.64 
z
" style="fill:#2ca02c;opacity:0.4;"/>
   </g>
   <g id="patch_148">
    <path clip-path="url(#p552e7b441a)" d="M 199.580747 224.64 
L 202.16711 224.64 
L 202.16711 224.64 
L 199.580747 224.64 
z
" style="fill:#2ca02c;opacity:0.4;"/>
   </g>
   <g id="patch_149">
    <path clip-path="url(#p552e7b441a)" d="M 202.16711 224.64 
L 204.753472 224.64 
L 204.753472 224.280476 
L 202.16711 224.280476 
z
" style="fill:#2ca02c;opacity:0.4;"/>
   </g>
   <g id="matplotlib.axis_1">
    <g id="xtick_1">
     <g id="line2d_1">
      <defs>
       <path d="M 0 0 
L 0 3.5 
" id="mb9e470aaff" style="stroke:#000000;stroke-width:0.8;"/>
      </defs>
      <g>
       <use style="stroke:#000000;stroke-width:0.8;" x="75.435352" xlink:href="#mb9e470aaff" y="224.64"/>
      </g>
     </g>
     <g id="text_1">
      <!-- 0 -->
      <g transform="translate(72.254102 239.238437)scale(0.1 -0.1)">
       <defs>
        <path d="M 31.78125 66.40625 
Q 24.171875 66.40625 20.328125 58.90625 
Q 16.5 51.421875 16.5 36.375 
Q 16.5 21.390625 20.328125 13.890625 
Q 24.171875 6.390625 31.78125 6.390625 
Q 39.453125 6.390625 43.28125 13.890625 
Q 47.125 21.390625 47.125 36.375 
Q 47.125 51.421875 43.28125 58.90625 
Q 39.453125 66.40625 31.78125 66.40625 
z
M 31.78125 74.21875 
Q 44.046875 74.21875 50.515625 64.515625 
Q 56.984375 54.828125 56.984375 36.375 
Q 56.984375 17.96875 50.515625 8.265625 
Q 44.046875 -1.421875 31.78125 -1.421875 
Q 19.53125 -1.421875 13.0625 8.265625 
Q 6.59375 17.96875 6.59375 36.375 
Q 6.59375 54.828125 13.0625 64.515625 
Q 19.53125 74.21875 31.78125 74.21875 
z
" id="DejaVuSans-48"/>
       </defs>
       <use xlink:href="#DejaVuSans-48"/>
      </g>
     </g>
    </g>
    <g id="xtick_2">
     <g id="line2d_2">
      <g>
       <use style="stroke:#000000;stroke-width:0.8;" x="124.200822" xlink:href="#mb9e470aaff" y="224.64"/>
      </g>
     </g>
     <g id="text_2">
      <!-- 5 -->
      <g transform="translate(121.019572 239.238437)scale(0.1 -0.1)">
       <defs>
        <path d="M 10.796875 72.90625 
L 49.515625 72.90625 
L 49.515625 64.59375 
L 19.828125 64.59375 
L 19.828125 46.734375 
Q 21.96875 47.46875 24.109375 47.828125 
Q 26.265625 48.1875 28.421875 48.1875 
Q 40.625 48.1875 47.75 41.5 
Q 54.890625 34.8125 54.890625 23.390625 
Q 54.890625 11.625 47.5625 5.09375 
Q 40.234375 -1.421875 26.90625 -1.421875 
Q 22.3125 -1.421875 17.546875 -0.640625 
Q 12.796875 0.140625 7.71875 1.703125 
L 7.71875 11.625 
Q 12.109375 9.234375 16.796875 8.0625 
Q 21.484375 6.890625 26.703125 6.890625 
Q 35.15625 6.890625 40.078125 11.328125 
Q 45.015625 15.765625 45.015625 23.390625 
Q 45.015625 31 40.078125 35.4375 
Q 35.15625 39.890625 26.703125 39.890625 
Q 22.75 39.890625 18.8125 39.015625 
Q 14.890625 38.140625 10.796875 36.28125 
z
" id="DejaVuSans-53"/>
       </defs>
       <use xlink:href="#DejaVuSans-53"/>
      </g>
     </g>
    </g>
    <g id="xtick_3">
     <g id="line2d_3">
      <g>
       <use style="stroke:#000000;stroke-width:0.8;" x="172.966293" xlink:href="#mb9e470aaff" y="224.64"/>
      </g>
     </g>
     <g id="text_3">
      <!-- 10 -->
      <g transform="translate(166.603793 239.238437)scale(0.1 -0.1)">
       <defs>
        <path d="M 12.40625 8.296875 
L 28.515625 8.296875 
L 28.515625 63.921875 
L 10.984375 60.40625 
L 10.984375 69.390625 
L 28.421875 72.90625 
L 38.28125 72.90625 
L 38.28125 8.296875 
L 54.390625 8.296875 
L 54.390625 0 
L 12.40625 0 
z
" id="DejaVuSans-49"/>
       </defs>
       <use xlink:href="#DejaVuSans-49"/>
       <use x="63.623047" xlink:href="#DejaVuSans-48"/>
      </g>
     </g>
    </g>
    <g id="xtick_4">
     <g id="line2d_4">
      <g>
       <use style="stroke:#000000;stroke-width:0.8;" x="221.731763" xlink:href="#mb9e470aaff" y="224.64"/>
      </g>
     </g>
     <g id="text_4">
      <!-- 15 -->
      <g transform="translate(215.369263 239.238437)scale(0.1 -0.1)">
       <use xlink:href="#DejaVuSans-49"/>
       <use x="63.623047" xlink:href="#DejaVuSans-53"/>
      </g>
     </g>
    </g>
    <g id="xtick_5">
     <g id="line2d_5">
      <g>
       <use style="stroke:#000000;stroke-width:0.8;" x="270.497234" xlink:href="#mb9e470aaff" y="224.64"/>
      </g>
     </g>
     <g id="text_5">
      <!-- 20 -->
      <g transform="translate(264.134734 239.238437)scale(0.1 -0.1)">
       <defs>
        <path d="M 19.1875 8.296875 
L 53.609375 8.296875 
L 53.609375 0 
L 7.328125 0 
L 7.328125 8.296875 
Q 12.9375 14.109375 22.625 23.890625 
Q 32.328125 33.6875 34.8125 36.53125 
Q 39.546875 41.84375 41.421875 45.53125 
Q 43.3125 49.21875 43.3125 52.78125 
Q 43.3125 58.59375 39.234375 62.25 
Q 35.15625 65.921875 28.609375 65.921875 
Q 23.96875 65.921875 18.8125 64.3125 
Q 13.671875 62.703125 7.8125 59.421875 
L 7.8125 69.390625 
Q 13.765625 71.78125 18.9375 73 
Q 24.125 74.21875 28.421875 74.21875 
Q 39.75 74.21875 46.484375 68.546875 
Q 53.21875 62.890625 53.21875 53.421875 
Q 53.21875 48.921875 51.53125 44.890625 
Q 49.859375 40.875 45.40625 35.40625 
Q 44.1875 33.984375 37.640625 27.21875 
Q 31.109375 20.453125 19.1875 8.296875 
z
" id="DejaVuSans-50"/>
       </defs>
       <use xlink:href="#DejaVuSans-50"/>
       <use x="63.623047" xlink:href="#DejaVuSans-48"/>
      </g>
     </g>
    </g>
    <g id="xtick_6">
     <g id="line2d_6">
      <g>
       <use style="stroke:#000000;stroke-width:0.8;" x="319.262704" xlink:href="#mb9e470aaff" y="224.64"/>
      </g>
     </g>
     <g id="text_6">
      <!-- 25 -->
      <g transform="translate(312.900204 239.238437)scale(0.1 -0.1)">
       <use xlink:href="#DejaVuSans-50"/>
       <use x="63.623047" xlink:href="#DejaVuSans-53"/>
      </g>
     </g>
    </g>
    <g id="xtick_7">
     <g id="line2d_7">
      <g>
       <use style="stroke:#000000;stroke-width:0.8;" x="368.028175" xlink:href="#mb9e470aaff" y="224.64"/>
      </g>
     </g>
     <g id="text_7">
      <!-- 30 -->
      <g transform="translate(361.665675 239.238437)scale(0.1 -0.1)">
       <defs>
        <path d="M 40.578125 39.3125 
Q 47.65625 37.796875 51.625 33 
Q 55.609375 28.21875 55.609375 21.1875 
Q 55.609375 10.40625 48.1875 4.484375 
Q 40.765625 -1.421875 27.09375 -1.421875 
Q 22.515625 -1.421875 17.65625 -0.515625 
Q 12.796875 0.390625 7.625 2.203125 
L 7.625 11.71875 
Q 11.71875 9.328125 16.59375 8.109375 
Q 21.484375 6.890625 26.8125 6.890625 
Q 36.078125 6.890625 40.9375 10.546875 
Q 45.796875 14.203125 45.796875 21.1875 
Q 45.796875 27.640625 41.28125 31.265625 
Q 36.765625 34.90625 28.71875 34.90625 
L 20.21875 34.90625 
L 20.21875 43.015625 
L 29.109375 43.015625 
Q 36.375 43.015625 40.234375 45.921875 
Q 44.09375 48.828125 44.09375 54.296875 
Q 44.09375 59.90625 40.109375 62.90625 
Q 36.140625 65.921875 28.71875 65.921875 
Q 24.65625 65.921875 20.015625 65.03125 
Q 15.375 64.15625 9.8125 62.3125 
L 9.8125 71.09375 
Q 15.4375 72.65625 20.34375 73.4375 
Q 25.25 74.21875 29.59375 74.21875 
Q 40.828125 74.21875 47.359375 69.109375 
Q 53.90625 64.015625 53.90625 55.328125 
Q 53.90625 49.265625 50.4375 45.09375 
Q 46.96875 40.921875 40.578125 39.3125 
z
" id="DejaVuSans-51"/>
       </defs>
       <use xlink:href="#DejaVuSans-51"/>
       <use x="63.623047" xlink:href="#DejaVuSans-48"/>
      </g>
     </g>
    </g>
    <g id="text_8">
     <!-- f(t) -->
     <g transform="translate(203.559375 252.916562)scale(0.1 -0.1)">
      <defs>
       <path d="M 37.109375 75.984375 
L 37.109375 68.5 
L 28.515625 68.5 
Q 23.6875 68.5 21.796875 66.546875 
Q 19.921875 64.59375 19.921875 59.515625 
L 19.921875 54.6875 
L 34.71875 54.6875 
L 34.71875 47.703125 
L 19.921875 47.703125 
L 19.921875 0 
L 10.890625 0 
L 10.890625 47.703125 
L 2.296875 47.703125 
L 2.296875 54.6875 
L 10.890625 54.6875 
L 10.890625 58.5 
Q 10.890625 67.625 15.140625 71.796875 
Q 19.390625 75.984375 28.609375 75.984375 
z
" id="DejaVuSans-102"/>
       <path d="M 31 75.875 
Q 24.46875 64.65625 21.28125 53.65625 
Q 18.109375 42.671875 18.109375 31.390625 
Q 18.109375 20.125 21.3125 9.0625 
Q 24.515625 -2 31 -13.1875 
L 23.1875 -13.1875 
Q 15.875 -1.703125 12.234375 9.375 
Q 8.59375 20.453125 8.59375 31.390625 
Q 8.59375 42.28125 12.203125 53.3125 
Q 15.828125 64.359375 23.1875 75.875 
z
" id="DejaVuSans-40"/>
       <path d="M 18.3125 70.21875 
L 18.3125 54.6875 
L 36.8125 54.6875 
L 36.8125 47.703125 
L 18.3125 47.703125 
L 18.3125 18.015625 
Q 18.3125 11.328125 20.140625 9.421875 
Q 21.96875 7.515625 27.59375 7.515625 
L 36.8125 7.515625 
L 36.8125 0 
L 27.59375 0 
Q 17.1875 0 13.234375 3.875 
Q 9.28125 7.765625 9.28125 18.015625 
L 9.28125 47.703125 
L 2.6875 47.703125 
L 2.6875 54.6875 
L 9.28125 54.6875 
L 9.28125 70.21875 
z
" id="DejaVuSans-116"/>
       <path d="M 8.015625 75.875 
L 15.828125 75.875 
Q 23.140625 64.359375 26.78125 53.3125 
Q 30.421875 42.28125 30.421875 31.390625 
Q 30.421875 20.453125 26.78125 9.375 
Q 23.140625 -1.703125 15.828125 -13.1875 
L 8.015625 -13.1875 
Q 14.5 -2 17.703125 9.0625 
Q 20.90625 20.125 20.90625 31.390625 
Q 20.90625 42.671875 17.703125 53.65625 
Q 14.5 64.65625 8.015625 75.875 
z
" id="DejaVuSans-41"/>
      </defs>
      <use xlink:href="#DejaVuSans-102"/>
      <use x="35.205078" xlink:href="#DejaVuSans-40"/>
      <use x="74.21875" xlink:href="#DejaVuSans-116"/>
      <use x="113.427734" xlink:href="#DejaVuSans-41"/>
     </g>
    </g>
   </g>
   <g id="matplotlib.axis_2">
    <g id="ytick_1">
     <g id="line2d_8">
      <defs>
       <path d="M 0 0 
L -3.5 0 
" id="mc5633fbe03" style="stroke:#000000;stroke-width:0.8;"/>
      </defs>
      <g>
       <use style="stroke:#000000;stroke-width:0.8;" x="43.78125" xlink:href="#mc5633fbe03" y="224.64"/>
      </g>
     </g>
     <g id="text_9">
      <!-- 0.0 -->
      <g transform="translate(20.878125 228.439219)scale(0.1 -0.1)">
       <defs>
        <path d="M 10.6875 12.40625 
L 21 12.40625 
L 21 0 
L 10.6875 0 
z
" id="DejaVuSans-46"/>
       </defs>
       <use xlink:href="#DejaVuSans-48"/>
       <use x="63.623047" xlink:href="#DejaVuSans-46"/>
       <use x="95.410156" xlink:href="#DejaVuSans-48"/>
      </g>
     </g>
    </g>
    <g id="ytick_2">
     <g id="line2d_9">
      <g>
       <use style="stroke:#000000;stroke-width:0.8;" x="43.78125" xlink:href="#mc5633fbe03" y="176.970058"/>
      </g>
     </g>
     <g id="text_10">
      <!-- 0.5 -->
      <g transform="translate(20.878125 180.769276)scale(0.1 -0.1)">
       <use xlink:href="#DejaVuSans-48"/>
       <use x="63.623047" xlink:href="#DejaVuSans-46"/>
       <use x="95.410156" xlink:href="#DejaVuSans-53"/>
      </g>
     </g>
    </g>
    <g id="ytick_3">
     <g id="line2d_10">
      <g>
       <use style="stroke:#000000;stroke-width:0.8;" x="43.78125" xlink:href="#mc5633fbe03" y="129.300115"/>
      </g>
     </g>
     <g id="text_11">
      <!-- 1.0 -->
      <g transform="translate(20.878125 133.099334)scale(0.1 -0.1)">
       <use xlink:href="#DejaVuSans-49"/>
       <use x="63.623047" xlink:href="#DejaVuSans-46"/>
       <use x="95.410156" xlink:href="#DejaVuSans-48"/>
      </g>
     </g>
    </g>
    <g id="ytick_4">
     <g id="line2d_11">
      <g>
       <use style="stroke:#000000;stroke-width:0.8;" x="43.78125" xlink:href="#mc5633fbe03" y="81.630173"/>
      </g>
     </g>
     <g id="text_12">
      <!-- 1.5 -->
      <g transform="translate(20.878125 85.429392)scale(0.1 -0.1)">
       <use xlink:href="#DejaVuSans-49"/>
       <use x="63.623047" xlink:href="#DejaVuSans-46"/>
       <use x="95.410156" xlink:href="#DejaVuSans-53"/>
      </g>
     </g>
    </g>
    <g id="ytick_5">
     <g id="line2d_12">
      <g>
       <use style="stroke:#000000;stroke-width:0.8;" x="43.78125" xlink:href="#mc5633fbe03" y="33.960231"/>
      </g>
     </g>
     <g id="text_13">
      <!-- 2.0 -->
      <g transform="translate(20.878125 37.75945)scale(0.1 -0.1)">
       <use xlink:href="#DejaVuSans-50"/>
       <use x="63.623047" xlink:href="#DejaVuSans-46"/>
       <use x="95.410156" xlink:href="#DejaVuSans-48"/>
      </g>
     </g>
    </g>
    <g id="text_14">
     <!-- Density -->
     <g transform="translate(14.798438 134.928594)rotate(-90)scale(0.1 -0.1)">
      <defs>
       <path d="M 19.671875 64.796875 
L 19.671875 8.109375 
L 31.59375 8.109375 
Q 46.6875 8.109375 53.6875 14.9375 
Q 60.6875 21.78125 60.6875 36.53125 
Q 60.6875 51.171875 53.6875 57.984375 
Q 46.6875 64.796875 31.59375 64.796875 
z
M 9.8125 72.90625 
L 30.078125 72.90625 
Q 51.265625 72.90625 61.171875 64.09375 
Q 71.09375 55.28125 71.09375 36.53125 
Q 71.09375 17.671875 61.125 8.828125 
Q 51.171875 0 30.078125 0 
L 9.8125 0 
z
" id="DejaVuSans-68"/>
       <path d="M 56.203125 29.59375 
L 56.203125 25.203125 
L 14.890625 25.203125 
Q 15.484375 15.921875 20.484375 11.0625 
Q 25.484375 6.203125 34.421875 6.203125 
Q 39.59375 6.203125 44.453125 7.46875 
Q 49.3125 8.734375 54.109375 11.28125 
L 54.109375 2.78125 
Q 49.265625 0.734375 44.1875 -0.34375 
Q 39.109375 -1.421875 33.890625 -1.421875 
Q 20.796875 -1.421875 13.15625 6.1875 
Q 5.515625 13.8125 5.515625 26.8125 
Q 5.515625 40.234375 12.765625 48.109375 
Q 20.015625 56 32.328125 56 
Q 43.359375 56 49.78125 48.890625 
Q 56.203125 41.796875 56.203125 29.59375 
z
M 47.21875 32.234375 
Q 47.125 39.59375 43.09375 43.984375 
Q 39.0625 48.390625 32.421875 48.390625 
Q 24.90625 48.390625 20.390625 44.140625 
Q 15.875 39.890625 15.1875 32.171875 
z
" id="DejaVuSans-101"/>
       <path d="M 54.890625 33.015625 
L 54.890625 0 
L 45.90625 0 
L 45.90625 32.71875 
Q 45.90625 40.484375 42.875 44.328125 
Q 39.84375 48.1875 33.796875 48.1875 
Q 26.515625 48.1875 22.3125 43.546875 
Q 18.109375 38.921875 18.109375 30.90625 
L 18.109375 0 
L 9.078125 0 
L 9.078125 54.6875 
L 18.109375 54.6875 
L 18.109375 46.1875 
Q 21.34375 51.125 25.703125 53.5625 
Q 30.078125 56 35.796875 56 
Q 45.21875 56 50.046875 50.171875 
Q 54.890625 44.34375 54.890625 33.015625 
z
" id="DejaVuSans-110"/>
       <path d="M 44.28125 53.078125 
L 44.28125 44.578125 
Q 40.484375 46.53125 36.375 47.5 
Q 32.28125 48.484375 27.875 48.484375 
Q 21.1875 48.484375 17.84375 46.4375 
Q 14.5 44.390625 14.5 40.28125 
Q 14.5 37.15625 16.890625 35.375 
Q 19.28125 33.59375 26.515625 31.984375 
L 29.59375 31.296875 
Q 39.15625 29.25 43.1875 25.515625 
Q 47.21875 21.78125 47.21875 15.09375 
Q 47.21875 7.46875 41.1875 3.015625 
Q 35.15625 -1.421875 24.609375 -1.421875 
Q 20.21875 -1.421875 15.453125 -0.5625 
Q 10.6875 0.296875 5.421875 2 
L 5.421875 11.28125 
Q 10.40625 8.6875 15.234375 7.390625 
Q 20.0625 6.109375 24.8125 6.109375 
Q 31.15625 6.109375 34.5625 8.28125 
Q 37.984375 10.453125 37.984375 14.40625 
Q 37.984375 18.0625 35.515625 20.015625 
Q 33.0625 21.96875 24.703125 23.78125 
L 21.578125 24.515625 
Q 13.234375 26.265625 9.515625 29.90625 
Q 5.8125 33.546875 5.8125 39.890625 
Q 5.8125 47.609375 11.28125 51.796875 
Q 16.75 56 26.8125 56 
Q 31.78125 56 36.171875 55.265625 
Q 40.578125 54.546875 44.28125 53.078125 
z
" id="DejaVuSans-115"/>
       <path d="M 9.421875 54.6875 
L 18.40625 54.6875 
L 18.40625 0 
L 9.421875 0 
z
M 9.421875 75.984375 
L 18.40625 75.984375 
L 18.40625 64.59375 
L 9.421875 64.59375 
z
" id="DejaVuSans-105"/>
       <path d="M 32.171875 -5.078125 
Q 28.375 -14.84375 24.75 -17.8125 
Q 21.140625 -20.796875 15.09375 -20.796875 
L 7.90625 -20.796875 
L 7.90625 -13.28125 
L 13.1875 -13.28125 
Q 16.890625 -13.28125 18.9375 -11.515625 
Q 21 -9.765625 23.484375 -3.21875 
L 25.09375 0.875 
L 2.984375 54.6875 
L 12.5 54.6875 
L 29.59375 11.921875 
L 46.6875 54.6875 
L 56.203125 54.6875 
z
" id="DejaVuSans-121"/>
      </defs>
      <use xlink:href="#DejaVuSans-68"/>
      <use x="77.001953" xlink:href="#DejaVuSans-101"/>
      <use x="138.525391" xlink:href="#DejaVuSans-110"/>
      <use x="201.904297" xlink:href="#DejaVuSans-115"/>
      <use x="254.003906" xlink:href="#DejaVuSans-105"/>
      <use x="281.787109" xlink:href="#DejaVuSans-116"/>
      <use x="320.996094" xlink:href="#DejaVuSans-121"/>
     </g>
    </g>
   </g>
   <g id="line2d_13">
    <path clip-path="url(#p552e7b441a)" d="M 64.908138 224.632598 
L 69.076245 224.498508 
L 70.743488 224.285191 
L 72.41073 223.863124 
L 74.077973 223.136067 
L 75.745216 222.026966 
L 77.412458 220.49711 
L 79.079701 218.547388 
L 80.746944 216.210883 
L 83.247808 212.12182 
L 86.582293 206.026438 
L 92.417642 195.031511 
L 94.084885 192.477775 
L 94.918506 191.520879 
L 95.752127 190.852956 
L 96.585749 190.517989 
L 97.41937 190.541601 
L 98.252991 190.92747 
L 99.086613 191.657353 
L 99.920234 192.694292 
L 101.587477 195.479274 
L 107.422826 206.649325 
L 109.090069 208.852688 
L 110.757311 210.496704 
L 114.925418 214.013796 
L 119.927146 219.021966 
L 121.594388 220.102486 
L 123.261631 220.750931 
L 124.928874 221.094827 
L 127.429738 221.319598 
L 131.597844 221.385816 
L 134.93233 221.437398 
L 137.433194 221.712117 
L 139.934058 222.254496 
L 143.268543 223.023891 
L 145.769407 223.356726 
L 152.438378 223.765663 
L 160.774591 224.279935 
L 165.776319 224.377851 
L 173.278911 224.315023 
L 181.615124 224.534448 
L 191.61858 224.551516 
L 199.121172 224.608881 
L 210.79187 224.628941 
L 226.630675 224.625794 
L 230.798782 224.638956 
L 230.798782 224.638956 
" style="fill:none;stroke:#1f77b4;stroke-linecap:square;stroke-width:1.5;"/>
   </g>
   <g id="line2d_14">
    <path clip-path="url(#p552e7b441a)" d="M 58.999432 224.494962 
L 60.528897 224.297795 
L 62.058363 223.88917 
L 63.587828 223.106921 
L 65.117294 221.7244 
L 66.646759 219.470303 
L 68.176225 216.083821 
L 69.70569 211.404102 
L 71.235156 205.473217 
L 75.823552 184.762297 
L 77.353018 179.451397 
L 78.882483 176.216177 
L 80.411949 175.455621 
L 81.941414 177.177161 
L 83.47088 181.019859 
L 85.000345 186.362324 
L 89.588742 204.396849 
L 91.118208 209.326402 
L 92.647673 213.311283 
L 94.177139 216.362158 
L 95.706604 218.586727 
L 97.23607 220.137057 
L 98.765535 221.171603 
L 100.295001 221.833119 
L 101.824466 222.23872 
L 104.883397 222.613949 
L 129.354845 223.768723 
L 138.531638 223.963219 
L 147.708431 224.151517 
L 170.650414 224.219087 
L 185.945069 224.439814 
L 192.062931 224.432336 
L 202.76919 224.318354 
L 234.887965 224.572423 
L 265.477276 224.639995 
L 363.363068 224.639248 
L 363.363068 224.639248 
" style="fill:none;stroke:#ff7f0e;stroke-linecap:square;stroke-width:1.5;"/>
   </g>
   <g id="line2d_15">
    <path clip-path="url(#p552e7b441a)" d="M 66.440151 223.964854 
L 67.180395 223.256235 
L 67.920639 221.969053 
L 68.660883 219.783918 
L 69.401127 216.321879 
L 70.14137 211.212006 
L 70.881614 204.203354 
L 71.621858 195.301546 
L 74.582833 153.978299 
L 75.323077 147.704909 
L 76.063321 144.892586 
L 76.803565 145.644169 
L 77.543809 149.492109 
L 78.284053 155.566627 
L 81.245028 184.14045 
L 82.725516 194.755056 
L 84.206003 202.776401 
L 85.686491 208.823102 
L 86.426735 211.172052 
L 87.166979 213.093375 
L 87.907222 214.620595 
L 88.647466 215.803581 
L 89.38771 216.7018 
L 90.127954 217.375241 
L 91.608441 218.252077 
L 93.088929 218.75625 
L 96.790148 219.765615 
L 101.231611 221.362353 
L 102.712099 221.595091 
L 105.673074 221.675752 
L 107.893806 221.799191 
L 110.854781 222.247523 
L 113.815756 222.694516 
L 116.036488 222.760356 
L 118.997463 222.824614 
L 121.218195 223.130342 
L 124.919414 223.722598 
L 127.880389 223.934029 
L 130.841364 223.953397 
L 134.542583 223.920808 
L 137.503559 224.15609 
L 141.945022 224.544246 
L 145.646241 224.616668 
L 149.34746 224.49764 
L 153.788923 224.295271 
L 156.749898 224.420817 
L 161.191361 224.619041 
L 171.554775 224.64 
L 202.645016 224.543381 
L 207.086479 224.548594 
L 213.748673 224.638626 
L 213.748673 224.638626 
" style="fill:none;stroke:#2ca02c;stroke-linecap:square;stroke-width:1.5;"/>
   </g>
   <g id="patch_150">
    <path d="M 43.78125 224.64 
L 43.78125 7.2 
" style="fill:none;stroke:#000000;stroke-linecap:square;stroke-linejoin:miter;stroke-width:0.8;"/>
   </g>
   <g id="patch_151">
    <path d="M 378.58125 224.64 
L 378.58125 7.2 
" style="fill:none;stroke:#000000;stroke-linecap:square;stroke-linejoin:miter;stroke-width:0.8;"/>
   </g>
   <g id="patch_152">
    <path d="M 43.78125 224.64 
L 378.58125 224.64 
" style="fill:none;stroke:#000000;stroke-linecap:square;stroke-linejoin:miter;stroke-width:0.8;"/>
   </g>
   <g id="patch_153">
    <path d="M 43.78125 7.2 
L 378.58125 7.2 
" style="fill:none;stroke:#000000;stroke-linecap:square;stroke-linejoin:miter;stroke-width:0.8;"/>
   </g>
  </g>
 </g>
 <defs>
  <clipPath id="p552e7b441a">
   <rect height="217.44" width="334.8" x="43.78125" y="7.2"/>
  </clipPath>
 </defs>
</svg>
