<?xml version="1.0" encoding="utf-8" standalone="no"?>
<!DOCTYPE svg PUBLIC "-//W3C//DTD SVG 1.1//EN"
  "http://www.w3.org/Graphics/SVG/1.1/DTD/svg11.dtd">
<!-- Created with matplotlib (https://matplotlib.org/) -->
<svg height="262.19625pt" version="1.1" viewBox="0 0 385.78125 262.19625" width="385.78125pt" xmlns="http://www.w3.org/2000/svg" xmlns:xlink="http://www.w3.org/1999/xlink">
 <metadata>
  <rdf:RDF xmlns:cc="http://creativecommons.org/ns#" xmlns:dc="http://purl.org/dc/elements/1.1/" xmlns:rdf="http://www.w3.org/1999/02/22-rdf-syntax-ns#">
   <cc:Work>
    <dc:type rdf:resource="http://purl.org/dc/dcmitype/StillImage"/>
    <dc:date>2021-01-26T08:36:34.794155</dc:date>
    <dc:format>image/svg+xml</dc:format>
    <dc:creator>
     <cc:Agent>
      <dc:title>Matplotlib v3.3.3, https://matplotlib.org/</dc:title>
     </cc:Agent>
    </dc:creator>
   </cc:Work>
  </rdf:RDF>
 </metadata>
 <defs>
  <style type="text/css">*{stroke-linecap:butt;stroke-linejoin:round;}</style>
 </defs>
 <g id="figure_1">
  <g id="patch_1">
   <path d="M 0 262.19625 
L 385.78125 262.19625 
L 385.78125 0 
L 0 0 
z
" style="fill:none;"/>
  </g>
  <g id="axes_1">
   <g id="patch_2">
    <path d="M 43.78125 224.64 
L 378.58125 224.64 
L 378.58125 7.2 
L 43.78125 7.2 
z
" style="fill:#ffffff;"/>
   </g>
   <g id="patch_3">
    <path clip-path="url(#pe074b1ab92)" d="M 82.302085 224.64 
L 88.499028 224.64 
L 88.499028 220.116576 
L 82.302085 220.116576 
z
" style="fill:#1f77b4;opacity:0.4;"/>
   </g>
   <g id="patch_4">
    <path clip-path="url(#pe074b1ab92)" d="M 88.499028 224.64 
L 94.695971 224.64 
L 94.695971 218.82417 
L 88.499028 218.82417 
z
" style="fill:#1f77b4;opacity:0.4;"/>
   </g>
   <g id="patch_5">
    <path clip-path="url(#pe074b1ab92)" d="M 94.695971 224.64 
L 100.892914 224.64 
L 100.892914 215.16235 
L 94.695971 215.16235 
z
" style="fill:#1f77b4;opacity:0.4;"/>
   </g>
   <g id="patch_6">
    <path clip-path="url(#pe074b1ab92)" d="M 100.892914 224.64 
L 107.089857 224.64 
L 107.089857 208.484915 
L 100.892914 208.484915 
z
" style="fill:#1f77b4;opacity:0.4;"/>
   </g>
   <g id="patch_7">
    <path clip-path="url(#pe074b1ab92)" d="M 107.089857 224.64 
L 113.2868 224.64 
L 113.2868 204.607695 
L 107.089857 204.607695 
z
" style="fill:#1f77b4;opacity:0.4;"/>
   </g>
   <g id="patch_8">
    <path clip-path="url(#pe074b1ab92)" d="M 113.2868 224.64 
L 119.483744 224.64 
L 119.483744 199.007266 
L 113.2868 199.007266 
z
" style="fill:#1f77b4;opacity:0.4;"/>
   </g>
   <g id="patch_9">
    <path clip-path="url(#pe074b1ab92)" d="M 119.483744 224.64 
L 125.680687 224.64 
L 125.680687 195.560848 
L 119.483744 195.560848 
z
" style="fill:#1f77b4;opacity:0.4;"/>
   </g>
   <g id="patch_10">
    <path clip-path="url(#pe074b1ab92)" d="M 125.680687 224.64 
L 131.87763 224.64 
L 131.87763 202.022882 
L 125.680687 202.022882 
z
" style="fill:#1f77b4;opacity:0.4;"/>
   </g>
   <g id="patch_11">
    <path clip-path="url(#pe074b1ab92)" d="M 131.87763 224.64 
L 138.074573 224.64 
L 138.074573 208.484915 
L 131.87763 208.484915 
z
" style="fill:#1f77b4;opacity:0.4;"/>
   </g>
   <g id="patch_12">
    <path clip-path="url(#pe074b1ab92)" d="M 138.074573 224.64 
L 144.271516 224.64 
L 144.271516 212.362136 
L 138.074573 212.362136 
z
" style="fill:#1f77b4;opacity:0.4;"/>
   </g>
   <g id="patch_13">
    <path clip-path="url(#pe074b1ab92)" d="M 144.271516 224.64 
L 150.468459 224.64 
L 150.468459 213.008339 
L 144.271516 213.008339 
z
" style="fill:#1f77b4;opacity:0.4;"/>
   </g>
   <g id="patch_14">
    <path clip-path="url(#pe074b1ab92)" d="M 150.468459 224.64 
L 156.665403 224.64 
L 156.665403 209.992723 
L 150.468459 209.992723 
z
" style="fill:#1f77b4;opacity:0.4;"/>
   </g>
   <g id="patch_15">
    <path clip-path="url(#pe074b1ab92)" d="M 156.665403 224.64 
L 162.862346 224.64 
L 162.862346 220.331977 
L 156.665403 220.331977 
z
" style="fill:#1f77b4;opacity:0.4;"/>
   </g>
   <g id="patch_16">
    <path clip-path="url(#pe074b1ab92)" d="M 162.862346 224.64 
L 169.059289 224.64 
L 169.059289 220.547379 
L 162.862346 220.547379 
z
" style="fill:#1f77b4;opacity:0.4;"/>
   </g>
   <g id="patch_17">
    <path clip-path="url(#pe074b1ab92)" d="M 169.059289 224.64 
L 175.256232 224.64 
L 175.256232 221.839785 
L 169.059289 221.839785 
z
" style="fill:#1f77b4;opacity:0.4;"/>
   </g>
   <g id="patch_18">
    <path clip-path="url(#pe074b1ab92)" d="M 175.256232 224.64 
L 181.453175 224.64 
L 181.453175 222.270588 
L 175.256232 222.270588 
z
" style="fill:#1f77b4;opacity:0.4;"/>
   </g>
   <g id="patch_19">
    <path clip-path="url(#pe074b1ab92)" d="M 181.453175 224.64 
L 187.650118 224.64 
L 187.650118 221.624384 
L 181.453175 221.624384 
z
" style="fill:#1f77b4;opacity:0.4;"/>
   </g>
   <g id="patch_20">
    <path clip-path="url(#pe074b1ab92)" d="M 187.650118 224.64 
L 193.847061 224.64 
L 193.847061 222.485989 
L 187.650118 222.485989 
z
" style="fill:#1f77b4;opacity:0.4;"/>
   </g>
   <g id="patch_21">
    <path clip-path="url(#pe074b1ab92)" d="M 193.847061 224.64 
L 200.044005 224.64 
L 200.044005 223.347593 
L 193.847061 223.347593 
z
" style="fill:#1f77b4;opacity:0.4;"/>
   </g>
   <g id="patch_22">
    <path clip-path="url(#pe074b1ab92)" d="M 200.044005 224.64 
L 206.240948 224.64 
L 206.240948 223.993797 
L 200.044005 223.993797 
z
" style="fill:#1f77b4;opacity:0.4;"/>
   </g>
   <g id="patch_23">
    <path clip-path="url(#pe074b1ab92)" d="M 206.240948 224.64 
L 212.437891 224.64 
L 212.437891 223.562994 
L 206.240948 223.562994 
z
" style="fill:#1f77b4;opacity:0.4;"/>
   </g>
   <g id="patch_24">
    <path clip-path="url(#pe074b1ab92)" d="M 212.437891 224.64 
L 218.634834 224.64 
L 218.634834 223.778395 
L 212.437891 223.778395 
z
" style="fill:#1f77b4;opacity:0.4;"/>
   </g>
   <g id="patch_25">
    <path clip-path="url(#pe074b1ab92)" d="M 218.634834 224.64 
L 224.831777 224.64 
L 224.831777 223.778395 
L 218.634834 223.778395 
z
" style="fill:#1f77b4;opacity:0.4;"/>
   </g>
   <g id="patch_26">
    <path clip-path="url(#pe074b1ab92)" d="M 224.831777 224.64 
L 231.02872 224.64 
L 231.02872 224.209198 
L 224.831777 224.209198 
z
" style="fill:#1f77b4;opacity:0.4;"/>
   </g>
   <g id="patch_27">
    <path clip-path="url(#pe074b1ab92)" d="M 231.02872 224.64 
L 237.225664 224.64 
L 237.225664 224.209198 
L 231.02872 224.209198 
z
" style="fill:#1f77b4;opacity:0.4;"/>
   </g>
   <g id="patch_28">
    <path clip-path="url(#pe074b1ab92)" d="M 237.225664 224.64 
L 243.422607 224.64 
L 243.422607 223.993797 
L 237.225664 223.993797 
z
" style="fill:#1f77b4;opacity:0.4;"/>
   </g>
   <g id="patch_29">
    <path clip-path="url(#pe074b1ab92)" d="M 243.422607 224.64 
L 249.61955 224.64 
L 249.61955 223.778395 
L 243.422607 223.778395 
z
" style="fill:#1f77b4;opacity:0.4;"/>
   </g>
   <g id="patch_30">
    <path clip-path="url(#pe074b1ab92)" d="M 249.61955 224.64 
L 255.816493 224.64 
L 255.816493 224.209198 
L 249.61955 224.209198 
z
" style="fill:#1f77b4;opacity:0.4;"/>
   </g>
   <g id="patch_31">
    <path clip-path="url(#pe074b1ab92)" d="M 255.816493 224.64 
L 262.013436 224.64 
L 262.013436 224.64 
L 255.816493 224.64 
z
" style="fill:#1f77b4;opacity:0.4;"/>
   </g>
   <g id="patch_32">
    <path clip-path="url(#pe074b1ab92)" d="M 262.013436 224.64 
L 268.210379 224.64 
L 268.210379 224.424599 
L 262.013436 224.424599 
z
" style="fill:#1f77b4;opacity:0.4;"/>
   </g>
   <g id="patch_33">
    <path clip-path="url(#pe074b1ab92)" d="M 268.210379 224.64 
L 274.407322 224.64 
L 274.407322 224.64 
L 268.210379 224.64 
z
" style="fill:#1f77b4;opacity:0.4;"/>
   </g>
   <g id="patch_34">
    <path clip-path="url(#pe074b1ab92)" d="M 274.407322 224.64 
L 280.604266 224.64 
L 280.604266 224.209198 
L 274.407322 224.209198 
z
" style="fill:#1f77b4;opacity:0.4;"/>
   </g>
   <g id="patch_35">
    <path clip-path="url(#pe074b1ab92)" d="M 280.604266 224.64 
L 286.801209 224.64 
L 286.801209 224.64 
L 280.604266 224.64 
z
" style="fill:#1f77b4;opacity:0.4;"/>
   </g>
   <g id="patch_36">
    <path clip-path="url(#pe074b1ab92)" d="M 286.801209 224.64 
L 292.998152 224.64 
L 292.998152 224.64 
L 286.801209 224.64 
z
" style="fill:#1f77b4;opacity:0.4;"/>
   </g>
   <g id="patch_37">
    <path clip-path="url(#pe074b1ab92)" d="M 292.998152 224.64 
L 299.195095 224.64 
L 299.195095 224.64 
L 292.998152 224.64 
z
" style="fill:#1f77b4;opacity:0.4;"/>
   </g>
   <g id="patch_38">
    <path clip-path="url(#pe074b1ab92)" d="M 299.195095 224.64 
L 305.392038 224.64 
L 305.392038 224.64 
L 299.195095 224.64 
z
" style="fill:#1f77b4;opacity:0.4;"/>
   </g>
   <g id="patch_39">
    <path clip-path="url(#pe074b1ab92)" d="M 305.392038 224.64 
L 311.588981 224.64 
L 311.588981 224.64 
L 305.392038 224.64 
z
" style="fill:#1f77b4;opacity:0.4;"/>
   </g>
   <g id="patch_40">
    <path clip-path="url(#pe074b1ab92)" d="M 311.588981 224.64 
L 317.785925 224.64 
L 317.785925 224.424599 
L 311.588981 224.424599 
z
" style="fill:#1f77b4;opacity:0.4;"/>
   </g>
   <g id="patch_41">
    <path clip-path="url(#pe074b1ab92)" d="M 317.785925 224.64 
L 323.982868 224.64 
L 323.982868 224.424599 
L 317.785925 224.424599 
z
" style="fill:#1f77b4;opacity:0.4;"/>
   </g>
   <g id="patch_42">
    <path clip-path="url(#pe074b1ab92)" d="M 80.931615 224.64 
L 86.1416 224.64 
L 86.1416 145.984815 
L 80.931615 145.984815 
z
" style="fill:#ff7f0e;opacity:0.4;"/>
   </g>
   <g id="patch_43">
    <path clip-path="url(#pe074b1ab92)" d="M 86.1416 224.64 
L 91.351586 224.64 
L 91.351586 173.911249 
L 86.1416 173.911249 
z
" style="fill:#ff7f0e;opacity:0.4;"/>
   </g>
   <g id="patch_44">
    <path clip-path="url(#pe074b1ab92)" d="M 91.351586 224.64 
L 96.561571 224.64 
L 96.561571 171.349191 
L 91.351586 171.349191 
z
" style="fill:#ff7f0e;opacity:0.4;"/>
   </g>
   <g id="patch_45">
    <path clip-path="url(#pe074b1ab92)" d="M 96.561571 224.64 
L 101.771556 224.64 
L 101.771556 195.944949 
L 96.561571 195.944949 
z
" style="fill:#ff7f0e;opacity:0.4;"/>
   </g>
   <g id="patch_46">
    <path clip-path="url(#pe074b1ab92)" d="M 101.771556 224.64 
L 106.981542 224.64 
L 106.981542 213.879356 
L 101.771556 213.879356 
z
" style="fill:#ff7f0e;opacity:0.4;"/>
   </g>
   <g id="patch_47">
    <path clip-path="url(#pe074b1ab92)" d="M 106.981542 224.64 
L 112.191527 224.64 
L 112.191527 214.904179 
L 106.981542 214.904179 
z
" style="fill:#ff7f0e;opacity:0.4;"/>
   </g>
   <g id="patch_48">
    <path clip-path="url(#pe074b1ab92)" d="M 112.191527 224.64 
L 117.401513 224.64 
L 117.401513 221.053119 
L 112.191527 221.053119 
z
" style="fill:#ff7f0e;opacity:0.4;"/>
   </g>
   <g id="patch_49">
    <path clip-path="url(#pe074b1ab92)" d="M 117.401513 224.64 
L 122.611498 224.64 
L 122.611498 222.846559 
L 117.401513 222.846559 
z
" style="fill:#ff7f0e;opacity:0.4;"/>
   </g>
   <g id="patch_50">
    <path clip-path="url(#pe074b1ab92)" d="M 122.611498 224.64 
L 127.821483 224.64 
L 127.821483 222.846559 
L 122.611498 222.846559 
z
" style="fill:#ff7f0e;opacity:0.4;"/>
   </g>
   <g id="patch_51">
    <path clip-path="url(#pe074b1ab92)" d="M 127.821483 224.64 
L 133.031469 224.64 
L 133.031469 223.615177 
L 127.821483 223.615177 
z
" style="fill:#ff7f0e;opacity:0.4;"/>
   </g>
   <g id="patch_52">
    <path clip-path="url(#pe074b1ab92)" d="M 133.031469 224.64 
L 138.241454 224.64 
L 138.241454 223.102765 
L 133.031469 223.102765 
z
" style="fill:#ff7f0e;opacity:0.4;"/>
   </g>
   <g id="patch_53">
    <path clip-path="url(#pe074b1ab92)" d="M 138.241454 224.64 
L 143.45144 224.64 
L 143.45144 223.615177 
L 138.241454 223.615177 
z
" style="fill:#ff7f0e;opacity:0.4;"/>
   </g>
   <g id="patch_54">
    <path clip-path="url(#pe074b1ab92)" d="M 143.45144 224.64 
L 148.661425 224.64 
L 148.661425 222.077942 
L 143.45144 222.077942 
z
" style="fill:#ff7f0e;opacity:0.4;"/>
   </g>
   <g id="patch_55">
    <path clip-path="url(#pe074b1ab92)" d="M 148.661425 224.64 
L 153.871411 224.64 
L 153.871411 223.871383 
L 148.661425 223.871383 
z
" style="fill:#ff7f0e;opacity:0.4;"/>
   </g>
   <g id="patch_56">
    <path clip-path="url(#pe074b1ab92)" d="M 153.871411 224.64 
L 159.081396 224.64 
L 159.081396 224.127588 
L 153.871411 224.127588 
z
" style="fill:#ff7f0e;opacity:0.4;"/>
   </g>
   <g id="patch_57">
    <path clip-path="url(#pe074b1ab92)" d="M 159.081396 224.64 
L 164.291381 224.64 
L 164.291381 223.871383 
L 159.081396 223.871383 
z
" style="fill:#ff7f0e;opacity:0.4;"/>
   </g>
   <g id="patch_58">
    <path clip-path="url(#pe074b1ab92)" d="M 164.291381 224.64 
L 169.501367 224.64 
L 169.501367 223.615177 
L 164.291381 223.615177 
z
" style="fill:#ff7f0e;opacity:0.4;"/>
   </g>
   <g id="patch_59">
    <path clip-path="url(#pe074b1ab92)" d="M 169.501367 224.64 
L 174.711352 224.64 
L 174.711352 223.871383 
L 169.501367 223.871383 
z
" style="fill:#ff7f0e;opacity:0.4;"/>
   </g>
   <g id="patch_60">
    <path clip-path="url(#pe074b1ab92)" d="M 174.711352 224.64 
L 179.921338 224.64 
L 179.921338 224.64 
L 174.711352 224.64 
z
" style="fill:#ff7f0e;opacity:0.4;"/>
   </g>
   <g id="patch_61">
    <path clip-path="url(#pe074b1ab92)" d="M 179.921338 224.64 
L 185.131323 224.64 
L 185.131323 224.383794 
L 179.921338 224.383794 
z
" style="fill:#ff7f0e;opacity:0.4;"/>
   </g>
   <g id="patch_62">
    <path clip-path="url(#pe074b1ab92)" d="M 185.131323 224.64 
L 190.341308 224.64 
L 190.341308 223.871383 
L 185.131323 223.871383 
z
" style="fill:#ff7f0e;opacity:0.4;"/>
   </g>
   <g id="patch_63">
    <path clip-path="url(#pe074b1ab92)" d="M 190.341308 224.64 
L 195.551294 224.64 
L 195.551294 224.383794 
L 190.341308 224.383794 
z
" style="fill:#ff7f0e;opacity:0.4;"/>
   </g>
   <g id="patch_64">
    <path clip-path="url(#pe074b1ab92)" d="M 195.551294 224.64 
L 200.761279 224.64 
L 200.761279 224.127588 
L 195.551294 224.127588 
z
" style="fill:#ff7f0e;opacity:0.4;"/>
   </g>
   <g id="patch_65">
    <path clip-path="url(#pe074b1ab92)" d="M 200.761279 224.64 
L 205.971265 224.64 
L 205.971265 224.383794 
L 200.761279 224.383794 
z
" style="fill:#ff7f0e;opacity:0.4;"/>
   </g>
   <g id="patch_66">
    <path clip-path="url(#pe074b1ab92)" d="M 205.971265 224.64 
L 211.18125 224.64 
L 211.18125 224.127588 
L 205.971265 224.127588 
z
" style="fill:#ff7f0e;opacity:0.4;"/>
   </g>
   <g id="patch_67">
    <path clip-path="url(#pe074b1ab92)" d="M 211.18125 224.64 
L 216.391235 224.64 
L 216.391235 224.383794 
L 211.18125 224.383794 
z
" style="fill:#ff7f0e;opacity:0.4;"/>
   </g>
   <g id="patch_68">
    <path clip-path="url(#pe074b1ab92)" d="M 216.391235 224.64 
L 221.601221 224.64 
L 221.601221 224.383794 
L 216.391235 224.383794 
z
" style="fill:#ff7f0e;opacity:0.4;"/>
   </g>
   <g id="patch_69">
    <path clip-path="url(#pe074b1ab92)" d="M 221.601221 224.64 
L 226.811206 224.64 
L 226.811206 224.383794 
L 221.601221 224.383794 
z
" style="fill:#ff7f0e;opacity:0.4;"/>
   </g>
   <g id="patch_70">
    <path clip-path="url(#pe074b1ab92)" d="M 226.811206 224.64 
L 232.021192 224.64 
L 232.021192 223.871383 
L 226.811206 223.871383 
z
" style="fill:#ff7f0e;opacity:0.4;"/>
   </g>
   <g id="patch_71">
    <path clip-path="url(#pe074b1ab92)" d="M 232.021192 224.64 
L 237.231177 224.64 
L 237.231177 224.64 
L 232.021192 224.64 
z
" style="fill:#ff7f0e;opacity:0.4;"/>
   </g>
   <g id="patch_72">
    <path clip-path="url(#pe074b1ab92)" d="M 237.231177 224.64 
L 242.441162 224.64 
L 242.441162 224.64 
L 237.231177 224.64 
z
" style="fill:#ff7f0e;opacity:0.4;"/>
   </g>
   <g id="patch_73">
    <path clip-path="url(#pe074b1ab92)" d="M 242.441162 224.64 
L 247.651148 224.64 
L 247.651148 224.127588 
L 242.441162 224.127588 
z
" style="fill:#ff7f0e;opacity:0.4;"/>
   </g>
   <g id="patch_74">
    <path clip-path="url(#pe074b1ab92)" d="M 247.651148 224.64 
L 252.861133 224.64 
L 252.861133 224.383794 
L 247.651148 224.383794 
z
" style="fill:#ff7f0e;opacity:0.4;"/>
   </g>
   <g id="patch_75">
    <path clip-path="url(#pe074b1ab92)" d="M 252.861133 224.64 
L 258.071119 224.64 
L 258.071119 224.64 
L 252.861133 224.64 
z
" style="fill:#ff7f0e;opacity:0.4;"/>
   </g>
   <g id="patch_76">
    <path clip-path="url(#pe074b1ab92)" d="M 258.071119 224.64 
L 263.281104 224.64 
L 263.281104 224.127588 
L 258.071119 224.127588 
z
" style="fill:#ff7f0e;opacity:0.4;"/>
   </g>
   <g id="patch_77">
    <path clip-path="url(#pe074b1ab92)" d="M 263.281104 224.64 
L 268.491089 224.64 
L 268.491089 224.64 
L 263.281104 224.64 
z
" style="fill:#ff7f0e;opacity:0.4;"/>
   </g>
   <g id="patch_78">
    <path clip-path="url(#pe074b1ab92)" d="M 268.491089 224.64 
L 273.701075 224.64 
L 273.701075 224.383794 
L 268.491089 224.383794 
z
" style="fill:#ff7f0e;opacity:0.4;"/>
   </g>
   <g id="patch_79">
    <path clip-path="url(#pe074b1ab92)" d="M 273.701075 224.64 
L 278.91106 224.64 
L 278.91106 224.64 
L 273.701075 224.64 
z
" style="fill:#ff7f0e;opacity:0.4;"/>
   </g>
   <g id="patch_80">
    <path clip-path="url(#pe074b1ab92)" d="M 278.91106 224.64 
L 284.121046 224.64 
L 284.121046 224.383794 
L 278.91106 224.383794 
z
" style="fill:#ff7f0e;opacity:0.4;"/>
   </g>
   <g id="patch_81">
    <path clip-path="url(#pe074b1ab92)" d="M 284.121046 224.64 
L 289.331031 224.64 
L 289.331031 224.64 
L 284.121046 224.64 
z
" style="fill:#ff7f0e;opacity:0.4;"/>
   </g>
   <g id="patch_82">
    <path clip-path="url(#pe074b1ab92)" d="M 289.331031 224.64 
L 294.541017 224.64 
L 294.541017 224.64 
L 289.331031 224.64 
z
" style="fill:#ff7f0e;opacity:0.4;"/>
   </g>
   <g id="patch_83">
    <path clip-path="url(#pe074b1ab92)" d="M 294.541017 224.64 
L 299.751002 224.64 
L 299.751002 224.383794 
L 294.541017 224.383794 
z
" style="fill:#ff7f0e;opacity:0.4;"/>
   </g>
   <g id="patch_84">
    <path clip-path="url(#pe074b1ab92)" d="M 299.751002 224.64 
L 304.960987 224.64 
L 304.960987 224.64 
L 299.751002 224.64 
z
" style="fill:#ff7f0e;opacity:0.4;"/>
   </g>
   <g id="patch_85">
    <path clip-path="url(#pe074b1ab92)" d="M 304.960987 224.64 
L 310.170973 224.64 
L 310.170973 224.64 
L 304.960987 224.64 
z
" style="fill:#ff7f0e;opacity:0.4;"/>
   </g>
   <g id="patch_86">
    <path clip-path="url(#pe074b1ab92)" d="M 310.170973 224.64 
L 315.380958 224.64 
L 315.380958 224.64 
L 310.170973 224.64 
z
" style="fill:#ff7f0e;opacity:0.4;"/>
   </g>
   <g id="patch_87">
    <path clip-path="url(#pe074b1ab92)" d="M 315.380958 224.64 
L 320.590944 224.64 
L 320.590944 224.64 
L 315.380958 224.64 
z
" style="fill:#ff7f0e;opacity:0.4;"/>
   </g>
   <g id="patch_88">
    <path clip-path="url(#pe074b1ab92)" d="M 320.590944 224.64 
L 325.800929 224.64 
L 325.800929 224.383794 
L 320.590944 224.383794 
z
" style="fill:#ff7f0e;opacity:0.4;"/>
   </g>
   <g id="patch_89">
    <path clip-path="url(#pe074b1ab92)" d="M 325.800929 224.64 
L 331.010914 224.64 
L 331.010914 224.127588 
L 325.800929 224.127588 
z
" style="fill:#ff7f0e;opacity:0.4;"/>
   </g>
   <g id="patch_90">
    <path clip-path="url(#pe074b1ab92)" d="M 331.010914 224.64 
L 336.2209 224.64 
L 336.2209 224.64 
L 331.010914 224.64 
z
" style="fill:#ff7f0e;opacity:0.4;"/>
   </g>
   <g id="patch_91">
    <path clip-path="url(#pe074b1ab92)" d="M 336.2209 224.64 
L 341.430885 224.64 
L 341.430885 224.383794 
L 336.2209 224.383794 
z
" style="fill:#ff7f0e;opacity:0.4;"/>
   </g>
   <g id="patch_92">
    <path clip-path="url(#pe074b1ab92)" d="M 80.931615 224.64 
L 84.367215 224.64 
L 84.367215 17.554286 
L 80.931615 17.554286 
z
" style="fill:#2ca02c;opacity:0.4;"/>
   </g>
   <g id="patch_93">
    <path clip-path="url(#pe074b1ab92)" d="M 84.367215 224.64 
L 87.802814 224.64 
L 87.802814 187.34126 
L 84.367215 187.34126 
z
" style="fill:#2ca02c;opacity:0.4;"/>
   </g>
   <g id="patch_94">
    <path clip-path="url(#pe074b1ab92)" d="M 87.802814 224.64 
L 91.238414 224.64 
L 91.238414 191.226545 
L 87.802814 191.226545 
z
" style="fill:#2ca02c;opacity:0.4;"/>
   </g>
   <g id="patch_95">
    <path clip-path="url(#pe074b1ab92)" d="M 91.238414 224.64 
L 94.674014 224.64 
L 94.674014 196.665945 
L 91.238414 196.665945 
z
" style="fill:#2ca02c;opacity:0.4;"/>
   </g>
   <g id="patch_96">
    <path clip-path="url(#pe074b1ab92)" d="M 94.674014 224.64 
L 98.109613 224.64 
L 98.109613 211.430029 
L 94.674014 211.430029 
z
" style="fill:#2ca02c;opacity:0.4;"/>
   </g>
   <g id="patch_97">
    <path clip-path="url(#pe074b1ab92)" d="M 98.109613 224.64 
L 101.545213 224.64 
L 101.545213 217.257958 
L 98.109613 217.257958 
z
" style="fill:#2ca02c;opacity:0.4;"/>
   </g>
   <g id="patch_98">
    <path clip-path="url(#pe074b1ab92)" d="M 101.545213 224.64 
L 104.980813 224.64 
L 104.980813 219.589129 
L 101.545213 219.589129 
z
" style="fill:#2ca02c;opacity:0.4;"/>
   </g>
   <g id="patch_99">
    <path clip-path="url(#pe074b1ab92)" d="M 104.980813 224.64 
L 108.416412 224.64 
L 108.416412 219.2006 
L 104.980813 219.2006 
z
" style="fill:#2ca02c;opacity:0.4;"/>
   </g>
   <g id="patch_100">
    <path clip-path="url(#pe074b1ab92)" d="M 108.416412 224.64 
L 111.852012 224.64 
L 111.852012 220.754715 
L 108.416412 220.754715 
z
" style="fill:#2ca02c;opacity:0.4;"/>
   </g>
   <g id="patch_101">
    <path clip-path="url(#pe074b1ab92)" d="M 111.852012 224.64 
L 115.287612 224.64 
L 115.287612 221.143243 
L 111.852012 221.143243 
z
" style="fill:#2ca02c;opacity:0.4;"/>
   </g>
   <g id="patch_102">
    <path clip-path="url(#pe074b1ab92)" d="M 115.287612 224.64 
L 118.723211 224.64 
L 118.723211 220.366186 
L 115.287612 220.366186 
z
" style="fill:#2ca02c;opacity:0.4;"/>
   </g>
   <g id="patch_103">
    <path clip-path="url(#pe074b1ab92)" d="M 118.723211 224.64 
L 122.158811 224.64 
L 122.158811 219.589129 
L 118.723211 219.589129 
z
" style="fill:#2ca02c;opacity:0.4;"/>
   </g>
   <g id="patch_104">
    <path clip-path="url(#pe074b1ab92)" d="M 122.158811 224.64 
L 125.594411 224.64 
L 125.594411 220.754715 
L 122.158811 220.754715 
z
" style="fill:#2ca02c;opacity:0.4;"/>
   </g>
   <g id="patch_105">
    <path clip-path="url(#pe074b1ab92)" d="M 125.594411 224.64 
L 129.03001 224.64 
L 129.03001 222.308829 
L 125.594411 222.308829 
z
" style="fill:#2ca02c;opacity:0.4;"/>
   </g>
   <g id="patch_106">
    <path clip-path="url(#pe074b1ab92)" d="M 129.03001 224.64 
L 132.46561 224.64 
L 132.46561 222.308829 
L 129.03001 222.308829 
z
" style="fill:#2ca02c;opacity:0.4;"/>
   </g>
   <g id="patch_107">
    <path clip-path="url(#pe074b1ab92)" d="M 132.46561 224.64 
L 135.90121 224.64 
L 135.90121 221.531772 
L 132.46561 221.531772 
z
" style="fill:#2ca02c;opacity:0.4;"/>
   </g>
   <g id="patch_108">
    <path clip-path="url(#pe074b1ab92)" d="M 135.90121 224.64 
L 139.336809 224.64 
L 139.336809 221.9203 
L 135.90121 221.9203 
z
" style="fill:#2ca02c;opacity:0.4;"/>
   </g>
   <g id="patch_109">
    <path clip-path="url(#pe074b1ab92)" d="M 139.336809 224.64 
L 142.772409 224.64 
L 142.772409 222.308829 
L 139.336809 222.308829 
z
" style="fill:#2ca02c;opacity:0.4;"/>
   </g>
   <g id="patch_110">
    <path clip-path="url(#pe074b1ab92)" d="M 142.772409 224.64 
L 146.208009 224.64 
L 146.208009 222.308829 
L 142.772409 222.308829 
z
" style="fill:#2ca02c;opacity:0.4;"/>
   </g>
   <g id="patch_111">
    <path clip-path="url(#pe074b1ab92)" d="M 146.208009 224.64 
L 149.643609 224.64 
L 149.643609 223.085886 
L 146.208009 223.085886 
z
" style="fill:#2ca02c;opacity:0.4;"/>
   </g>
   <g id="patch_112">
    <path clip-path="url(#pe074b1ab92)" d="M 149.643609 224.64 
L 153.079208 224.64 
L 153.079208 223.474414 
L 149.643609 223.474414 
z
" style="fill:#2ca02c;opacity:0.4;"/>
   </g>
   <g id="patch_113">
    <path clip-path="url(#pe074b1ab92)" d="M 153.079208 224.64 
L 156.514808 224.64 
L 156.514808 223.474414 
L 153.079208 223.474414 
z
" style="fill:#2ca02c;opacity:0.4;"/>
   </g>
   <g id="patch_114">
    <path clip-path="url(#pe074b1ab92)" d="M 156.514808 224.64 
L 159.950408 224.64 
L 159.950408 223.474414 
L 156.514808 223.474414 
z
" style="fill:#2ca02c;opacity:0.4;"/>
   </g>
   <g id="patch_115">
    <path clip-path="url(#pe074b1ab92)" d="M 159.950408 224.64 
L 163.386007 224.64 
L 163.386007 224.251471 
L 159.950408 224.251471 
z
" style="fill:#2ca02c;opacity:0.4;"/>
   </g>
   <g id="patch_116">
    <path clip-path="url(#pe074b1ab92)" d="M 163.386007 224.64 
L 166.821607 224.64 
L 166.821607 224.251471 
L 163.386007 224.251471 
z
" style="fill:#2ca02c;opacity:0.4;"/>
   </g>
   <g id="patch_117">
    <path clip-path="url(#pe074b1ab92)" d="M 166.821607 224.64 
L 170.257207 224.64 
L 170.257207 223.085886 
L 166.821607 223.085886 
z
" style="fill:#2ca02c;opacity:0.4;"/>
   </g>
   <g id="patch_118">
    <path clip-path="url(#pe074b1ab92)" d="M 170.257207 224.64 
L 173.692806 224.64 
L 173.692806 224.64 
L 170.257207 224.64 
z
" style="fill:#2ca02c;opacity:0.4;"/>
   </g>
   <g id="patch_119">
    <path clip-path="url(#pe074b1ab92)" d="M 173.692806 224.64 
L 177.128406 224.64 
L 177.128406 224.251471 
L 173.692806 224.251471 
z
" style="fill:#2ca02c;opacity:0.4;"/>
   </g>
   <g id="patch_120">
    <path clip-path="url(#pe074b1ab92)" d="M 177.128406 224.64 
L 180.564006 224.64 
L 180.564006 222.308829 
L 177.128406 222.308829 
z
" style="fill:#2ca02c;opacity:0.4;"/>
   </g>
   <g id="patch_121">
    <path clip-path="url(#pe074b1ab92)" d="M 180.564006 224.64 
L 183.999605 224.64 
L 183.999605 223.862943 
L 180.564006 223.862943 
z
" style="fill:#2ca02c;opacity:0.4;"/>
   </g>
   <g id="patch_122">
    <path clip-path="url(#pe074b1ab92)" d="M 183.999605 224.64 
L 187.435205 224.64 
L 187.435205 224.64 
L 183.999605 224.64 
z
" style="fill:#2ca02c;opacity:0.4;"/>
   </g>
   <g id="patch_123">
    <path clip-path="url(#pe074b1ab92)" d="M 187.435205 224.64 
L 190.870805 224.64 
L 190.870805 223.862943 
L 187.435205 223.862943 
z
" style="fill:#2ca02c;opacity:0.4;"/>
   </g>
   <g id="patch_124">
    <path clip-path="url(#pe074b1ab92)" d="M 190.870805 224.64 
L 194.306404 224.64 
L 194.306404 224.251471 
L 190.870805 224.251471 
z
" style="fill:#2ca02c;opacity:0.4;"/>
   </g>
   <g id="patch_125">
    <path clip-path="url(#pe074b1ab92)" d="M 194.306404 224.64 
L 197.742004 224.64 
L 197.742004 224.64 
L 194.306404 224.64 
z
" style="fill:#2ca02c;opacity:0.4;"/>
   </g>
   <g id="patch_126">
    <path clip-path="url(#pe074b1ab92)" d="M 197.742004 224.64 
L 201.177604 224.64 
L 201.177604 224.64 
L 197.742004 224.64 
z
" style="fill:#2ca02c;opacity:0.4;"/>
   </g>
   <g id="patch_127">
    <path clip-path="url(#pe074b1ab92)" d="M 201.177604 224.64 
L 204.613204 224.64 
L 204.613204 223.862943 
L 201.177604 223.862943 
z
" style="fill:#2ca02c;opacity:0.4;"/>
   </g>
   <g id="patch_128">
    <path clip-path="url(#pe074b1ab92)" d="M 204.613204 224.64 
L 208.048803 224.64 
L 208.048803 224.64 
L 204.613204 224.64 
z
" style="fill:#2ca02c;opacity:0.4;"/>
   </g>
   <g id="patch_129">
    <path clip-path="url(#pe074b1ab92)" d="M 208.048803 224.64 
L 211.484403 224.64 
L 211.484403 224.251471 
L 208.048803 224.251471 
z
" style="fill:#2ca02c;opacity:0.4;"/>
   </g>
   <g id="patch_130">
    <path clip-path="url(#pe074b1ab92)" d="M 211.484403 224.64 
L 214.920003 224.64 
L 214.920003 224.64 
L 211.484403 224.64 
z
" style="fill:#2ca02c;opacity:0.4;"/>
   </g>
   <g id="patch_131">
    <path clip-path="url(#pe074b1ab92)" d="M 214.920003 224.64 
L 218.355602 224.64 
L 218.355602 223.862943 
L 214.920003 223.862943 
z
" style="fill:#2ca02c;opacity:0.4;"/>
   </g>
   <g id="patch_132">
    <path clip-path="url(#pe074b1ab92)" d="M 218.355602 224.64 
L 221.791202 224.64 
L 221.791202 223.862943 
L 218.355602 223.862943 
z
" style="fill:#2ca02c;opacity:0.4;"/>
   </g>
   <g id="patch_133">
    <path clip-path="url(#pe074b1ab92)" d="M 221.791202 224.64 
L 225.226802 224.64 
L 225.226802 224.64 
L 221.791202 224.64 
z
" style="fill:#2ca02c;opacity:0.4;"/>
   </g>
   <g id="patch_134">
    <path clip-path="url(#pe074b1ab92)" d="M 225.226802 224.64 
L 228.662401 224.64 
L 228.662401 224.64 
L 225.226802 224.64 
z
" style="fill:#2ca02c;opacity:0.4;"/>
   </g>
   <g id="patch_135">
    <path clip-path="url(#pe074b1ab92)" d="M 228.662401 224.64 
L 232.098001 224.64 
L 232.098001 224.64 
L 228.662401 224.64 
z
" style="fill:#2ca02c;opacity:0.4;"/>
   </g>
   <g id="patch_136">
    <path clip-path="url(#pe074b1ab92)" d="M 232.098001 224.64 
L 235.533601 224.64 
L 235.533601 224.64 
L 232.098001 224.64 
z
" style="fill:#2ca02c;opacity:0.4;"/>
   </g>
   <g id="patch_137">
    <path clip-path="url(#pe074b1ab92)" d="M 235.533601 224.64 
L 238.9692 224.64 
L 238.9692 224.64 
L 235.533601 224.64 
z
" style="fill:#2ca02c;opacity:0.4;"/>
   </g>
   <g id="patch_138">
    <path clip-path="url(#pe074b1ab92)" d="M 238.9692 224.64 
L 242.4048 224.64 
L 242.4048 224.64 
L 238.9692 224.64 
z
" style="fill:#2ca02c;opacity:0.4;"/>
   </g>
   <g id="patch_139">
    <path clip-path="url(#pe074b1ab92)" d="M 242.4048 224.64 
L 245.8404 224.64 
L 245.8404 224.251471 
L 242.4048 224.251471 
z
" style="fill:#2ca02c;opacity:0.4;"/>
   </g>
   <g id="patch_140">
    <path clip-path="url(#pe074b1ab92)" d="M 245.8404 224.64 
L 249.275999 224.64 
L 249.275999 224.251471 
L 245.8404 224.251471 
z
" style="fill:#2ca02c;opacity:0.4;"/>
   </g>
   <g id="patch_141">
    <path clip-path="url(#pe074b1ab92)" d="M 249.275999 224.64 
L 252.711599 224.64 
L 252.711599 224.251471 
L 249.275999 224.251471 
z
" style="fill:#2ca02c;opacity:0.4;"/>
   </g>
   <g id="matplotlib.axis_1">
    <g id="xtick_1">
     <g id="line2d_1">
      <defs>
       <path d="M 0 0 
L 0 3.5 
" id="m991e1e764a" style="stroke:#000000;stroke-width:0.8;"/>
      </defs>
      <g>
       <use style="stroke:#000000;stroke-width:0.8;" x="80.931615" xlink:href="#m991e1e764a" y="224.64"/>
      </g>
     </g>
     <g id="text_1">
      <!-- 0.0 -->
      <g transform="translate(72.980052 239.238437)scale(0.1 -0.1)">
       <defs>
        <path d="M 31.78125 66.40625 
Q 24.171875 66.40625 20.328125 58.90625 
Q 16.5 51.421875 16.5 36.375 
Q 16.5 21.390625 20.328125 13.890625 
Q 24.171875 6.390625 31.78125 6.390625 
Q 39.453125 6.390625 43.28125 13.890625 
Q 47.125 21.390625 47.125 36.375 
Q 47.125 51.421875 43.28125 58.90625 
Q 39.453125 66.40625 31.78125 66.40625 
z
M 31.78125 74.21875 
Q 44.046875 74.21875 50.515625 64.515625 
Q 56.984375 54.828125 56.984375 36.375 
Q 56.984375 17.96875 50.515625 8.265625 
Q 44.046875 -1.421875 31.78125 -1.421875 
Q 19.53125 -1.421875 13.0625 8.265625 
Q 6.59375 17.96875 6.59375 36.375 
Q 6.59375 54.828125 13.0625 64.515625 
Q 19.53125 74.21875 31.78125 74.21875 
z
" id="DejaVuSans-48"/>
        <path d="M 10.6875 12.40625 
L 21 12.40625 
L 21 0 
L 10.6875 0 
z
" id="DejaVuSans-46"/>
       </defs>
       <use xlink:href="#DejaVuSans-48"/>
       <use x="63.623047" xlink:href="#DejaVuSans-46"/>
       <use x="95.410156" xlink:href="#DejaVuSans-48"/>
      </g>
     </g>
    </g>
    <g id="xtick_2">
     <g id="line2d_2">
      <g>
       <use style="stroke:#000000;stroke-width:0.8;" x="126.205785" xlink:href="#m991e1e764a" y="224.64"/>
      </g>
     </g>
     <g id="text_2">
      <!-- 2.5 -->
      <g transform="translate(118.254222 239.238437)scale(0.1 -0.1)">
       <defs>
        <path d="M 19.1875 8.296875 
L 53.609375 8.296875 
L 53.609375 0 
L 7.328125 0 
L 7.328125 8.296875 
Q 12.9375 14.109375 22.625 23.890625 
Q 32.328125 33.6875 34.8125 36.53125 
Q 39.546875 41.84375 41.421875 45.53125 
Q 43.3125 49.21875 43.3125 52.78125 
Q 43.3125 58.59375 39.234375 62.25 
Q 35.15625 65.921875 28.609375 65.921875 
Q 23.96875 65.921875 18.8125 64.3125 
Q 13.671875 62.703125 7.8125 59.421875 
L 7.8125 69.390625 
Q 13.765625 71.78125 18.9375 73 
Q 24.125 74.21875 28.421875 74.21875 
Q 39.75 74.21875 46.484375 68.546875 
Q 53.21875 62.890625 53.21875 53.421875 
Q 53.21875 48.921875 51.53125 44.890625 
Q 49.859375 40.875 45.40625 35.40625 
Q 44.1875 33.984375 37.640625 27.21875 
Q 31.109375 20.453125 19.1875 8.296875 
z
" id="DejaVuSans-50"/>
        <path d="M 10.796875 72.90625 
L 49.515625 72.90625 
L 49.515625 64.59375 
L 19.828125 64.59375 
L 19.828125 46.734375 
Q 21.96875 47.46875 24.109375 47.828125 
Q 26.265625 48.1875 28.421875 48.1875 
Q 40.625 48.1875 47.75 41.5 
Q 54.890625 34.8125 54.890625 23.390625 
Q 54.890625 11.625 47.5625 5.09375 
Q 40.234375 -1.421875 26.90625 -1.421875 
Q 22.3125 -1.421875 17.546875 -0.640625 
Q 12.796875 0.140625 7.71875 1.703125 
L 7.71875 11.625 
Q 12.109375 9.234375 16.796875 8.0625 
Q 21.484375 6.890625 26.703125 6.890625 
Q 35.15625 6.890625 40.078125 11.328125 
Q 45.015625 15.765625 45.015625 23.390625 
Q 45.015625 31 40.078125 35.4375 
Q 35.15625 39.890625 26.703125 39.890625 
Q 22.75 39.890625 18.8125 39.015625 
Q 14.890625 38.140625 10.796875 36.28125 
z
" id="DejaVuSans-53"/>
       </defs>
       <use xlink:href="#DejaVuSans-50"/>
       <use x="63.623047" xlink:href="#DejaVuSans-46"/>
       <use x="95.410156" xlink:href="#DejaVuSans-53"/>
      </g>
     </g>
    </g>
    <g id="xtick_3">
     <g id="line2d_3">
      <g>
       <use style="stroke:#000000;stroke-width:0.8;" x="171.479954" xlink:href="#m991e1e764a" y="224.64"/>
      </g>
     </g>
     <g id="text_3">
      <!-- 5.0 -->
      <g transform="translate(163.528392 239.238437)scale(0.1 -0.1)">
       <use xlink:href="#DejaVuSans-53"/>
       <use x="63.623047" xlink:href="#DejaVuSans-46"/>
       <use x="95.410156" xlink:href="#DejaVuSans-48"/>
      </g>
     </g>
    </g>
    <g id="xtick_4">
     <g id="line2d_4">
      <g>
       <use style="stroke:#000000;stroke-width:0.8;" x="216.754124" xlink:href="#m991e1e764a" y="224.64"/>
      </g>
     </g>
     <g id="text_4">
      <!-- 7.5 -->
      <g transform="translate(208.802562 239.238437)scale(0.1 -0.1)">
       <defs>
        <path d="M 8.203125 72.90625 
L 55.078125 72.90625 
L 55.078125 68.703125 
L 28.609375 0 
L 18.3125 0 
L 43.21875 64.59375 
L 8.203125 64.59375 
z
" id="DejaVuSans-55"/>
       </defs>
       <use xlink:href="#DejaVuSans-55"/>
       <use x="63.623047" xlink:href="#DejaVuSans-46"/>
       <use x="95.410156" xlink:href="#DejaVuSans-53"/>
      </g>
     </g>
    </g>
    <g id="xtick_5">
     <g id="line2d_5">
      <g>
       <use style="stroke:#000000;stroke-width:0.8;" x="262.028294" xlink:href="#m991e1e764a" y="224.64"/>
      </g>
     </g>
     <g id="text_5">
      <!-- 10.0 -->
      <g transform="translate(250.895481 239.238437)scale(0.1 -0.1)">
       <defs>
        <path d="M 12.40625 8.296875 
L 28.515625 8.296875 
L 28.515625 63.921875 
L 10.984375 60.40625 
L 10.984375 69.390625 
L 28.421875 72.90625 
L 38.28125 72.90625 
L 38.28125 8.296875 
L 54.390625 8.296875 
L 54.390625 0 
L 12.40625 0 
z
" id="DejaVuSans-49"/>
       </defs>
       <use xlink:href="#DejaVuSans-49"/>
       <use x="63.623047" xlink:href="#DejaVuSans-48"/>
       <use x="127.246094" xlink:href="#DejaVuSans-46"/>
       <use x="159.033203" xlink:href="#DejaVuSans-48"/>
      </g>
     </g>
    </g>
    <g id="xtick_6">
     <g id="line2d_6">
      <g>
       <use style="stroke:#000000;stroke-width:0.8;" x="307.302464" xlink:href="#m991e1e764a" y="224.64"/>
      </g>
     </g>
     <g id="text_6">
      <!-- 12.5 -->
      <g transform="translate(296.169651 239.238437)scale(0.1 -0.1)">
       <use xlink:href="#DejaVuSans-49"/>
       <use x="63.623047" xlink:href="#DejaVuSans-50"/>
       <use x="127.246094" xlink:href="#DejaVuSans-46"/>
       <use x="159.033203" xlink:href="#DejaVuSans-53"/>
      </g>
     </g>
    </g>
    <g id="xtick_7">
     <g id="line2d_7">
      <g>
       <use style="stroke:#000000;stroke-width:0.8;" x="352.576633" xlink:href="#m991e1e764a" y="224.64"/>
      </g>
     </g>
     <g id="text_7">
      <!-- 15.0 -->
      <g transform="translate(341.443821 239.238437)scale(0.1 -0.1)">
       <use xlink:href="#DejaVuSans-49"/>
       <use x="63.623047" xlink:href="#DejaVuSans-53"/>
       <use x="127.246094" xlink:href="#DejaVuSans-46"/>
       <use x="159.033203" xlink:href="#DejaVuSans-48"/>
      </g>
     </g>
    </g>
    <g id="text_8">
     <!-- f(t) -->
     <g transform="translate(203.559375 252.916562)scale(0.1 -0.1)">
      <defs>
       <path d="M 37.109375 75.984375 
L 37.109375 68.5 
L 28.515625 68.5 
Q 23.6875 68.5 21.796875 66.546875 
Q 19.921875 64.59375 19.921875 59.515625 
L 19.921875 54.6875 
L 34.71875 54.6875 
L 34.71875 47.703125 
L 19.921875 47.703125 
L 19.921875 0 
L 10.890625 0 
L 10.890625 47.703125 
L 2.296875 47.703125 
L 2.296875 54.6875 
L 10.890625 54.6875 
L 10.890625 58.5 
Q 10.890625 67.625 15.140625 71.796875 
Q 19.390625 75.984375 28.609375 75.984375 
z
" id="DejaVuSans-102"/>
       <path d="M 31 75.875 
Q 24.46875 64.65625 21.28125 53.65625 
Q 18.109375 42.671875 18.109375 31.390625 
Q 18.109375 20.125 21.3125 9.0625 
Q 24.515625 -2 31 -13.1875 
L 23.1875 -13.1875 
Q 15.875 -1.703125 12.234375 9.375 
Q 8.59375 20.453125 8.59375 31.390625 
Q 8.59375 42.28125 12.203125 53.3125 
Q 15.828125 64.359375 23.1875 75.875 
z
" id="DejaVuSans-40"/>
       <path d="M 18.3125 70.21875 
L 18.3125 54.6875 
L 36.8125 54.6875 
L 36.8125 47.703125 
L 18.3125 47.703125 
L 18.3125 18.015625 
Q 18.3125 11.328125 20.140625 9.421875 
Q 21.96875 7.515625 27.59375 7.515625 
L 36.8125 7.515625 
L 36.8125 0 
L 27.59375 0 
Q 17.1875 0 13.234375 3.875 
Q 9.28125 7.765625 9.28125 18.015625 
L 9.28125 47.703125 
L 2.6875 47.703125 
L 2.6875 54.6875 
L 9.28125 54.6875 
L 9.28125 70.21875 
z
" id="DejaVuSans-116"/>
       <path d="M 8.015625 75.875 
L 15.828125 75.875 
Q 23.140625 64.359375 26.78125 53.3125 
Q 30.421875 42.28125 30.421875 31.390625 
Q 30.421875 20.453125 26.78125 9.375 
Q 23.140625 -1.703125 15.828125 -13.1875 
L 8.015625 -13.1875 
Q 14.5 -2 17.703125 9.0625 
Q 20.90625 20.125 20.90625 31.390625 
Q 20.90625 42.671875 17.703125 53.65625 
Q 14.5 64.65625 8.015625 75.875 
z
" id="DejaVuSans-41"/>
      </defs>
      <use xlink:href="#DejaVuSans-102"/>
      <use x="35.205078" xlink:href="#DejaVuSans-40"/>
      <use x="74.21875" xlink:href="#DejaVuSans-116"/>
      <use x="113.427734" xlink:href="#DejaVuSans-41"/>
     </g>
    </g>
   </g>
   <g id="matplotlib.axis_2">
    <g id="ytick_1">
     <g id="line2d_8">
      <defs>
       <path d="M 0 0 
L -3.5 0 
" id="maafc3f7d3e" style="stroke:#000000;stroke-width:0.8;"/>
      </defs>
      <g>
       <use style="stroke:#000000;stroke-width:0.8;" x="43.78125" xlink:href="#maafc3f7d3e" y="224.64"/>
      </g>
     </g>
     <g id="text_9">
      <!-- 0.0 -->
      <g transform="translate(20.878125 228.439219)scale(0.1 -0.1)">
       <use xlink:href="#DejaVuSans-48"/>
       <use x="63.623047" xlink:href="#DejaVuSans-46"/>
       <use x="95.410156" xlink:href="#DejaVuSans-48"/>
      </g>
     </g>
    </g>
    <g id="ytick_2">
     <g id="line2d_9">
      <g>
       <use style="stroke:#000000;stroke-width:0.8;" x="43.78125" xlink:href="#maafc3f7d3e" y="187.785968"/>
      </g>
     </g>
     <g id="text_10">
      <!-- 0.5 -->
      <g transform="translate(20.878125 191.585187)scale(0.1 -0.1)">
       <use xlink:href="#DejaVuSans-48"/>
       <use x="63.623047" xlink:href="#DejaVuSans-46"/>
       <use x="95.410156" xlink:href="#DejaVuSans-53"/>
      </g>
     </g>
    </g>
    <g id="ytick_3">
     <g id="line2d_10">
      <g>
       <use style="stroke:#000000;stroke-width:0.8;" x="43.78125" xlink:href="#maafc3f7d3e" y="150.931937"/>
      </g>
     </g>
     <g id="text_11">
      <!-- 1.0 -->
      <g transform="translate(20.878125 154.731156)scale(0.1 -0.1)">
       <use xlink:href="#DejaVuSans-49"/>
       <use x="63.623047" xlink:href="#DejaVuSans-46"/>
       <use x="95.410156" xlink:href="#DejaVuSans-48"/>
      </g>
     </g>
    </g>
    <g id="ytick_4">
     <g id="line2d_11">
      <g>
       <use style="stroke:#000000;stroke-width:0.8;" x="43.78125" xlink:href="#maafc3f7d3e" y="114.077905"/>
      </g>
     </g>
     <g id="text_12">
      <!-- 1.5 -->
      <g transform="translate(20.878125 117.877124)scale(0.1 -0.1)">
       <use xlink:href="#DejaVuSans-49"/>
       <use x="63.623047" xlink:href="#DejaVuSans-46"/>
       <use x="95.410156" xlink:href="#DejaVuSans-53"/>
      </g>
     </g>
    </g>
    <g id="ytick_5">
     <g id="line2d_12">
      <g>
       <use style="stroke:#000000;stroke-width:0.8;" x="43.78125" xlink:href="#maafc3f7d3e" y="77.223874"/>
      </g>
     </g>
     <g id="text_13">
      <!-- 2.0 -->
      <g transform="translate(20.878125 81.023092)scale(0.1 -0.1)">
       <use xlink:href="#DejaVuSans-50"/>
       <use x="63.623047" xlink:href="#DejaVuSans-46"/>
       <use x="95.410156" xlink:href="#DejaVuSans-48"/>
      </g>
     </g>
    </g>
    <g id="ytick_6">
     <g id="line2d_13">
      <g>
       <use style="stroke:#000000;stroke-width:0.8;" x="43.78125" xlink:href="#maafc3f7d3e" y="40.369842"/>
      </g>
     </g>
     <g id="text_14">
      <!-- 2.5 -->
      <g transform="translate(20.878125 44.169061)scale(0.1 -0.1)">
       <use xlink:href="#DejaVuSans-50"/>
       <use x="63.623047" xlink:href="#DejaVuSans-46"/>
       <use x="95.410156" xlink:href="#DejaVuSans-53"/>
      </g>
     </g>
    </g>
    <g id="text_15">
     <!-- Density -->
     <g transform="translate(14.798438 134.928594)rotate(-90)scale(0.1 -0.1)">
      <defs>
       <path d="M 19.671875 64.796875 
L 19.671875 8.109375 
L 31.59375 8.109375 
Q 46.6875 8.109375 53.6875 14.9375 
Q 60.6875 21.78125 60.6875 36.53125 
Q 60.6875 51.171875 53.6875 57.984375 
Q 46.6875 64.796875 31.59375 64.796875 
z
M 9.8125 72.90625 
L 30.078125 72.90625 
Q 51.265625 72.90625 61.171875 64.09375 
Q 71.09375 55.28125 71.09375 36.53125 
Q 71.09375 17.671875 61.125 8.828125 
Q 51.171875 0 30.078125 0 
L 9.8125 0 
z
" id="DejaVuSans-68"/>
       <path d="M 56.203125 29.59375 
L 56.203125 25.203125 
L 14.890625 25.203125 
Q 15.484375 15.921875 20.484375 11.0625 
Q 25.484375 6.203125 34.421875 6.203125 
Q 39.59375 6.203125 44.453125 7.46875 
Q 49.3125 8.734375 54.109375 11.28125 
L 54.109375 2.78125 
Q 49.265625 0.734375 44.1875 -0.34375 
Q 39.109375 -1.421875 33.890625 -1.421875 
Q 20.796875 -1.421875 13.15625 6.1875 
Q 5.515625 13.8125 5.515625 26.8125 
Q 5.515625 40.234375 12.765625 48.109375 
Q 20.015625 56 32.328125 56 
Q 43.359375 56 49.78125 48.890625 
Q 56.203125 41.796875 56.203125 29.59375 
z
M 47.21875 32.234375 
Q 47.125 39.59375 43.09375 43.984375 
Q 39.0625 48.390625 32.421875 48.390625 
Q 24.90625 48.390625 20.390625 44.140625 
Q 15.875 39.890625 15.1875 32.171875 
z
" id="DejaVuSans-101"/>
       <path d="M 54.890625 33.015625 
L 54.890625 0 
L 45.90625 0 
L 45.90625 32.71875 
Q 45.90625 40.484375 42.875 44.328125 
Q 39.84375 48.1875 33.796875 48.1875 
Q 26.515625 48.1875 22.3125 43.546875 
Q 18.109375 38.921875 18.109375 30.90625 
L 18.109375 0 
L 9.078125 0 
L 9.078125 54.6875 
L 18.109375 54.6875 
L 18.109375 46.1875 
Q 21.34375 51.125 25.703125 53.5625 
Q 30.078125 56 35.796875 56 
Q 45.21875 56 50.046875 50.171875 
Q 54.890625 44.34375 54.890625 33.015625 
z
" id="DejaVuSans-110"/>
       <path d="M 44.28125 53.078125 
L 44.28125 44.578125 
Q 40.484375 46.53125 36.375 47.5 
Q 32.28125 48.484375 27.875 48.484375 
Q 21.1875 48.484375 17.84375 46.4375 
Q 14.5 44.390625 14.5 40.28125 
Q 14.5 37.15625 16.890625 35.375 
Q 19.28125 33.59375 26.515625 31.984375 
L 29.59375 31.296875 
Q 39.15625 29.25 43.1875 25.515625 
Q 47.21875 21.78125 47.21875 15.09375 
Q 47.21875 7.46875 41.1875 3.015625 
Q 35.15625 -1.421875 24.609375 -1.421875 
Q 20.21875 -1.421875 15.453125 -0.5625 
Q 10.6875 0.296875 5.421875 2 
L 5.421875 11.28125 
Q 10.40625 8.6875 15.234375 7.390625 
Q 20.0625 6.109375 24.8125 6.109375 
Q 31.15625 6.109375 34.5625 8.28125 
Q 37.984375 10.453125 37.984375 14.40625 
Q 37.984375 18.0625 35.515625 20.015625 
Q 33.0625 21.96875 24.703125 23.78125 
L 21.578125 24.515625 
Q 13.234375 26.265625 9.515625 29.90625 
Q 5.8125 33.546875 5.8125 39.890625 
Q 5.8125 47.609375 11.28125 51.796875 
Q 16.75 56 26.8125 56 
Q 31.78125 56 36.171875 55.265625 
Q 40.578125 54.546875 44.28125 53.078125 
z
" id="DejaVuSans-115"/>
       <path d="M 9.421875 54.6875 
L 18.40625 54.6875 
L 18.40625 0 
L 9.421875 0 
z
M 9.421875 75.984375 
L 18.40625 75.984375 
L 18.40625 64.59375 
L 9.421875 64.59375 
z
" id="DejaVuSans-105"/>
       <path d="M 32.171875 -5.078125 
Q 28.375 -14.84375 24.75 -17.8125 
Q 21.140625 -20.796875 15.09375 -20.796875 
L 7.90625 -20.796875 
L 7.90625 -13.28125 
L 13.1875 -13.28125 
Q 16.890625 -13.28125 18.9375 -11.515625 
Q 21 -9.765625 23.484375 -3.21875 
L 25.09375 0.875 
L 2.984375 54.6875 
L 12.5 54.6875 
L 29.59375 11.921875 
L 46.6875 54.6875 
L 56.203125 54.6875 
z
" id="DejaVuSans-121"/>
      </defs>
      <use xlink:href="#DejaVuSans-68"/>
      <use x="77.001953" xlink:href="#DejaVuSans-101"/>
      <use x="138.525391" xlink:href="#DejaVuSans-110"/>
      <use x="201.904297" xlink:href="#DejaVuSans-115"/>
      <use x="254.003906" xlink:href="#DejaVuSans-105"/>
      <use x="281.787109" xlink:href="#DejaVuSans-116"/>
      <use x="320.996094" xlink:href="#DejaVuSans-121"/>
     </g>
    </g>
   </g>
   <g id="line2d_14">
    <path clip-path="url(#pe074b1ab92)" d="M 59.685361 224.633728 
L 68.336042 224.493575 
L 72.661382 224.175838 
L 75.544942 223.769947 
L 78.428502 223.165424 
L 81.312062 222.350775 
L 84.195622 221.335301 
L 87.079182 220.133438 
L 89.962742 218.749015 
L 92.846302 217.172149 
L 95.729862 215.39183 
L 100.055203 212.366402 
L 107.264103 206.836353 
L 111.589443 203.649746 
L 114.473003 201.816392 
L 115.914783 201.060307 
L 117.356563 200.45182 
L 118.798343 200.020735 
L 120.240123 199.791993 
L 121.681903 199.782103 
L 123.123683 199.996416 
L 124.565463 200.427736 
L 126.007244 201.056457 
L 127.449024 201.852115 
L 130.332584 203.784607 
L 134.657924 206.881846 
L 137.541484 208.654162 
L 140.425044 210.023371 
L 143.308604 211.024164 
L 150.517504 213.110298 
L 153.401064 214.252672 
L 157.726405 216.354095 
L 162.051745 218.448937 
L 164.935305 219.589089 
L 167.818865 220.458929 
L 170.702425 221.081449 
L 173.585985 221.50718 
L 177.911325 221.892083 
L 192.329126 222.829634 
L 199.538026 223.448371 
L 203.863366 223.632805 
L 212.514046 223.675218 
L 219.722947 223.8033 
L 231.257187 224.083972 
L 252.883888 224.229908 
L 261.534568 224.474836 
L 273.068809 224.486729 
L 286.044829 224.556924 
L 301.90441 224.619128 
L 330.740011 224.586301 
L 346.599591 224.639208 
L 346.599591 224.639208 
" style="fill:none;stroke:#1f77b4;stroke-linecap:square;stroke-width:1.5;"/>
   </g>
   <g id="line2d_15">
    <path clip-path="url(#pe074b1ab92)" d="M 58.999432 224.516337 
L 62.058363 224.204322 
L 63.587828 223.870737 
L 65.117294 223.335428 
L 66.646759 222.514246 
L 68.176225 221.310296 
L 69.70569 219.623824 
L 71.235156 217.367569 
L 72.764621 214.486053 
L 74.294087 210.975384 
L 75.823552 206.898812 
L 78.882483 197.662828 
L 81.941414 188.559157 
L 83.47088 184.717684 
L 85.000345 181.652635 
L 86.529811 179.516625 
L 88.059276 178.389384 
L 89.588742 178.279776 
L 91.118208 179.135521 
L 92.647673 180.856292 
L 94.177139 183.306662 
L 95.706604 186.327394 
L 98.765535 193.383839 
L 101.824466 200.661172 
L 103.353932 204.026871 
L 104.883397 207.084381 
L 106.412863 209.786929 
L 107.942328 212.123245 
L 109.471794 214.109799 
L 111.001259 215.780696 
L 112.530725 217.177745 
L 114.06019 218.342667 
L 115.589656 219.312456 
L 117.119121 220.117752 
L 120.178052 221.329855 
L 123.236983 222.134393 
L 126.295914 222.651973 
L 129.354845 222.973549 
L 133.943242 223.209269 
L 140.061104 223.252258 
L 147.708431 223.330938 
L 166.062017 223.8448 
L 181.356673 224.25424 
L 210.416517 224.27999 
L 262.418345 224.434912 
L 317.479103 224.54533 
L 331.244292 224.430522 
L 363.363068 224.639188 
L 363.363068 224.639188 
" style="fill:none;stroke:#ff7f0e;stroke-linecap:square;stroke-width:1.5;"/>
   </g>
   <g id="line2d_16">
    <path clip-path="url(#pe074b1ab92)" d="M 63.458191 224.141558 
L 64.49702 223.79819 
L 65.535848 223.2621 
L 66.574676 222.453963 
L 67.613505 221.2782 
L 68.652333 219.628067 
L 69.691161 217.395454 
L 70.72999 214.485615 
L 71.768818 210.835867 
L 72.807646 206.435874 
L 74.885303 195.708261 
L 78.001788 178.095215 
L 79.040616 173.091556 
L 80.079444 169.068366 
L 81.118273 166.267639 
L 82.157101 164.82857 
L 83.195929 164.773554 
L 84.234757 166.01197 
L 85.273586 168.360215 
L 86.312414 171.573117 
L 88.390071 179.518184 
L 91.506555 191.887882 
L 93.584212 198.946909 
L 95.661869 204.733032 
L 97.739525 209.324574 
L 98.778354 211.215727 
L 99.817182 212.859813 
L 100.85601 214.273546 
L 101.894838 215.474413 
L 102.933667 216.481275 
L 103.972495 217.314432 
L 106.050152 218.544803 
L 108.127808 219.331626 
L 110.205465 219.816861 
L 113.32195 220.204313 
L 125.787889 221.224501 
L 130.982031 221.720852 
L 150.719768 223.198125 
L 156.952738 223.677758 
L 162.14688 223.880357 
L 168.379849 223.894494 
L 180.845789 223.788811 
L 198.50587 224.365076 
L 209.932981 224.29649 
L 219.282436 224.267682 
L 234.86486 224.595617 
L 253.56377 224.480774 
L 267.068538 224.635403 
L 270.185022 224.638957 
L 270.185022 224.638957 
" style="fill:none;stroke:#2ca02c;stroke-linecap:square;stroke-width:1.5;"/>
   </g>
   <g id="patch_142">
    <path d="M 43.78125 224.64 
L 43.78125 7.2 
" style="fill:none;stroke:#000000;stroke-linecap:square;stroke-linejoin:miter;stroke-width:0.8;"/>
   </g>
   <g id="patch_143">
    <path d="M 378.58125 224.64 
L 378.58125 7.2 
" style="fill:none;stroke:#000000;stroke-linecap:square;stroke-linejoin:miter;stroke-width:0.8;"/>
   </g>
   <g id="patch_144">
    <path d="M 43.78125 224.64 
L 378.58125 224.64 
" style="fill:none;stroke:#000000;stroke-linecap:square;stroke-linejoin:miter;stroke-width:0.8;"/>
   </g>
   <g id="patch_145">
    <path d="M 43.78125 7.2 
L 378.58125 7.2 
" style="fill:none;stroke:#000000;stroke-linecap:square;stroke-linejoin:miter;stroke-width:0.8;"/>
   </g>
  </g>
 </g>
 <defs>
  <clipPath id="pe074b1ab92">
   <rect height="217.44" width="334.8" x="43.78125" y="7.2"/>
  </clipPath>
 </defs>
</svg>
