<svg baseProfile="full" height="200" version="1.1" width="200" xmlns="http://www.w3.org/2000/svg" xmlns:ev="http://www.w3.org/2001/xml-events" xmlns:xlink="http://www.w3.org/1999/xlink"><defs><style type="text/css"><![CDATA[.background path {fill: #808080; fill-opacity: 0}.background path:nth-child(odd) {fill-opacity: .1}.axes {font-size: 14px}.x-axis .tick .lab {font-weight: bold; dominant-baseline: hanging}.axes, .tree {font-size: 14px; text-anchor: middle}.axes line, .edge {stroke: black; fill: none}.axes .ax-skip {stroke-dasharray: 4}.y-axis .grid {stroke: #FAFAFA}.node > .sym {fill: black; stroke: none}.site > .sym {stroke: black}.mut text {fill: red; font-style: italic}.mut.extra text {fill: hotpink}.mut line {fill: none; stroke: none}.mut .sym {fill: none; stroke: red}.mut.extra .sym {stroke: hotpink}.node .mut .sym {stroke-width: 1.5px}.tree text, .tree-sequence text {dominant-baseline: central}.plotbox .lab.lft {text-anchor: end}.plotbox .lab.rgt {text-anchor: start}.node.p0 > .sym {fill: red }.node.p1 > .sym {fill: blue }]]></style></defs><g class="tree-sequence"><g class="background"><path d="M20,0 l160,0 l0,138.2 l0,25 l0,5 l-160,0 l0,-5 l0,-25 l0,-138.2z" /></g><g class="axes"><g class="x-axis"><g class="title" transform="translate(100 200)"><text class="lab" text-anchor="middle" transform="translate(0 -11)">Genome position</text></g><line class="ax-line" x1="20" x2="180" y1="163.2" y2="163.2" /><g class="ticks"><g class="tick" transform="translate(20 163.2)"><line x1="0" x2="0" y1="0" y2="5" /><g transform="translate(0 6)"><text class="lab">0</text></g></g><g class="tick" transform="translate(180 163.2)"><line x1="0" x2="0" y1="0" y2="5" /><g transform="translate(0 6)"><text class="lab">1000</text></g></g></g></g></g><g class="plotbox trees"><g class="tree t0" transform="translate(20 0)"><g class="plotbox"><g class="c2 node n6 p1 root" transform="translate(98.75 26.8)"><g class="a6 i1 leaf node n3 p1 sample" transform="translate(26.25 94.6)"><path class="edge" d="M 0 0 V -94.6 H -26.25" /><rect class="sym" height="6" width="6" x="-3" y="-3" /><text class="lab" transform="translate(0 11)">3</text></g><g class="a6 c2 node n5 p1" transform="translate(-26.25 40.7739)"><g class="a5 i0 leaf node n1 p0 sample" transform="translate(22.5 53.8261)"><path class="edge" d="M 0 0 V -53.8261 H -22.5" /><rect class="sym" height="6" width="6" x="-3" y="-3" /><text class="lab" transform="translate(0 11)">1</text></g><g class="a5 c2 node n4 p0" transform="translate(-22.5 28.0095)"><g class="a4 i0 leaf node n0 p0 sample" transform="translate(-15 25.8166)"><path class="edge" d="M 0 0 V -25.8166 H 15" /><rect class="sym" height="6" width="6" x="-3" y="-3" /><text class="lab" transform="translate(0 11)">0</text></g><g class="a4 i1 leaf node n2 p1 sample" transform="translate(15 25.8166)"><path class="edge" d="M 0 0 V -25.8166 H -15" /><rect class="sym" height="6" width="6" x="-3" y="-3" /><text class="lab" transform="translate(0 11)">2</text></g><path class="edge" d="M 0 0 V -28.0095 H 22.5" /><circle class="sym" cx="0" cy="0" r="3" /><text class="lab lft" transform="translate(-3 -7.0)">4</text></g><path class="edge" d="M 0 0 V -40.7739 H 26.25" /><circle class="sym" cx="0" cy="0" r="3" /><text class="lab lft" transform="translate(-3 -7.0)">5</text></g><circle class="sym" cx="0" cy="0" r="3" /><text class="lab" transform="translate(0 -11)">6</text></g></g></g></g></g></svg>