<svg baseProfile="full" height="200" version="1.1" width="200" xmlns="http://www.w3.org/2000/svg" xmlns:ev="http://www.w3.org/2001/xml-events" xmlns:xlink="http://www.w3.org/1999/xlink"><defs><style type="text/css"><![CDATA[.background path {fill: #808080; fill-opacity: 0}.background path:nth-child(odd) {fill-opacity: .1}.axes {font-size: 14px}.x-axis .tick .lab {font-weight: bold; dominant-baseline: hanging}.axes, .tree {font-size: 14px; text-anchor: middle}.axes line, .edge {stroke: black; fill: none}.axes .ax-skip {stroke-dasharray: 4}.y-axis .grid {stroke: #FAFAFA}.node > .sym {fill: black; stroke: none}.site > .sym {stroke: black}.mut text {fill: red; font-style: italic}.mut.extra text {fill: hotpink}.mut line {fill: none; stroke: none}.mut .sym {fill: none; stroke: red}.mut.extra .sym {stroke: hotpink}.node .mut .sym {stroke-width: 1.5px}.tree text, .tree-sequence text {dominant-baseline: central}.plotbox .lab.lft {text-anchor: end}.plotbox .lab.rgt {text-anchor: start}.n0>.sym {fill: red }.n1>.sym {fill: green }.n2>.sym {fill: blue }]]></style></defs><g class="tree t0"><g class="axes"><g class="x-axis"><g class="title" transform="translate(100 200)"><text class="lab" text-anchor="middle" transform="translate(0 -11)">32 instances embedded in big_tree</text></g></g></g><g class="plotbox"><g class="c2 node n4 root" transform="translate(113.333 26.8)"><g class="a4 leaf node n1 sample" transform="translate(40 141.4)"><path class="edge" d="M 0 0 V -141.4 H -40" /><rect class="sym" height="6" width="6" x="-3" y="-3" /><text class="lab" transform="translate(0 11)" /></g><g class="a4 c2 node n3" transform="translate(-40 70.7)"><g class="a3 leaf node n0 sample" transform="translate(-26.6667 70.7)"><path class="edge" d="M 0 0 V -70.7 H 26.6667" /><rect class="sym" height="6" width="6" x="-3" y="-3" /><text class="lab" transform="translate(0 11)" /></g><g class="a3 leaf node n2 sample" transform="translate(26.6667 70.7)"><path class="edge" d="M 0 0 V -70.7 H -26.6667" /><rect class="sym" height="6" width="6" x="-3" y="-3" /><text class="lab" transform="translate(0 11)" /></g><path class="edge" d="M 0 0 V -70.7 H 40" /><circle class="sym" cx="0" cy="0" r="3" /><text class="lab lft" transform="translate(-3 -7.0)" /></g><circle class="sym" cx="0" cy="0" r="3" /><text class="lab" transform="translate(0 -11)" /></g></g></g></svg>