<svg xmlns="http://www.w3.org/2000/svg" xmlns:ev="http://www.w3.org/2001/xml-events" xmlns:xlink="http://www.w3.org/1999/xlink" baseProfile="full" height="200" version="1.1" width="400"><defs><style type="text/css"><![CDATA[.axis {font-weight: bold}.tree, .axis {font-size: 14px; text-anchor:middle}.edge {stroke: black; fill: none}.node > .sym {fill: black; stroke: none}.tree text {dominant-baseline: middle}.tree .lab.lft {text-anchor: end}.tree .lab.rgt {text-anchor: start}.mut {fill: red; font-style: italic}]]></style></defs><g class="tree-sequence"><g class="background"><polygon fill="#F1F1F1" points="20,185 20,180 20,160 20,0 200.0,0 200.0,160 200.0,180 200.0,185"/></g><g class="trees"><g class="treebox t0" transform="translate(20 30)"><g class="tree t0"><g class="node n17 p0 root" transform="translate(62.7273 30.0)"><g class="a17 node n15 p0" transform="translate(0.0 32.0)"><g class="a15 node n13 p0" transform="translate(-27.2727 16.0)"><g class="a13 leaf node n0 p0 sample" transform="translate(-10.9091 32.0)"><path class="edge" d="M 0 0 V -32.0 H 10.9091"/><circle class="sym" cx="0" cy="0" r="3"/><text class="lab" transform="translate(0 12)">0</text></g><g class="a13 node n11 p0" transform="translate(10.9091 16.0)"><g class="a11 leaf node n4 p0 sample" transform="translate(-7.27273 16.0)"><path class="edge" d="M 0 0 V -16.0 H 7.27273"/><circle class="sym" cx="0" cy="0" r="3"/><text class="lab" transform="translate(0 12)">4</text></g><g class="a11 leaf node n9 p0 sample" transform="translate(7.27273 16.0)"><path class="edge" d="M 0 0 V -16.0 H -7.27273"/><circle class="sym" cx="0" cy="0" r="3"/><text class="lab" transform="translate(0 12)">9</text></g><path class="edge" d="M 0 0 V -16.0 H -10.9091"/><circle class="sym" cx="0" cy="0" r="3"/><text class="lab rgt" transform="translate(3 -6)">11</text></g><path class="edge" d="M 0 0 V -16.0 H 27.2727"/><circle class="sym" cx="0" cy="0" r="3"/><text class="lab lft" transform="translate(-3 -6)">13</text></g><g class="a15 node n14 p0" transform="translate(27.2727 16.0)"><g class="a14 leaf node n1 p0 sample" transform="translate(-21.8182 32.0)"><path class="edge" d="M 0 0 V -32.0 H 21.8182"/><circle class="sym" cx="0" cy="0" r="3"/><text class="lab" transform="translate(0 12)">1</text></g><g class="a14 leaf node n8 p0 sample" transform="translate(21.8182 32.0)"><path class="edge" d="M 0 0 V -32.0 H -21.8182"/><circle class="sym" cx="0" cy="0" r="3"/><text class="lab" transform="translate(0 12)">8</text></g><g class="a14 node n12 p0" transform="translate(0.0 16.0)"><g class="a12 leaf node n5 p0 sample" transform="translate(-7.27273 16.0)"><path class="edge" d="M 0 0 V -16.0 H 7.27273"/><circle class="sym" cx="0" cy="0" r="3"/><text class="lab" transform="translate(0 12)">5</text></g><g class="a12 leaf node n7 p0 sample" transform="translate(7.27273 16.0)"><path class="edge" d="M 0 0 V -16.0 H -7.27273"/><circle class="sym" cx="0" cy="0" r="3"/><text class="lab" transform="translate(0 12)">7</text></g><path class="edge" d="M 0 0 V -16.0 H 0.0"/><circle class="sym" cx="0" cy="0" r="3"/><text class="lab rgt" transform="translate(3 -6)">12</text></g><path class="edge" d="M 0 0 V -16.0 H -27.2727"/><circle class="sym" cx="0" cy="0" r="3"/><text class="lab rgt" transform="translate(3 -6)">14</text></g><path class="edge" d="M 0 0 V -32.0 H 0.0"/><circle class="sym" cx="0" cy="0" r="3"/><text class="lab lft" transform="translate(-3 -6)">15</text></g><circle class="sym" cx="0" cy="0" r="3"/><text class="lab" transform="translate(0 -10)">17</text></g><g class="node n18 p0 root" transform="translate(140.909 30.0)"><g class="a18 node n10 p0" transform="translate(0.0 64.0)"><g class="a10 leaf node n2 p0 sample" transform="translate(-14.5455 16.0)"><path class="edge" d="M 0 0 V -16.0 H 14.5455"/><circle class="sym" cx="0" cy="0" r="3"/><text class="lab" transform="translate(0 12)">2</text></g><g class="a10 leaf node n3 p0 sample" transform="translate(0.0 16.0)"><path class="edge" d="M 0 0 V -16.0 H 0.0"/><circle class="sym" cx="0" cy="0" r="3"/><text class="lab" transform="translate(0 12)">3</text></g><g class="a10 leaf node n6 p0 sample" transform="translate(14.5455 16.0)"><path class="edge" d="M 0 0 V -16.0 H -14.5455"/><circle class="sym" cx="0" cy="0" r="3"/><text class="lab" transform="translate(0 12)">6</text></g><path class="edge" d="M 0 0 V -64.0 H 0.0"/><circle class="sym" cx="0" cy="0" r="3"/><text class="lab lft" transform="translate(-3 -6)">10</text></g><circle class="sym" cx="0" cy="0" r="3"/><text class="lab" transform="translate(0 -10)">18</text></g></g></g><g class="treebox t1" transform="translate(200.0 30)"><g class="tree t1"><g class="node n17 p0 root" transform="translate(60.9091 30.0)"><g class="a17 node n11 p0" transform="translate(0.0 64.0)"><g class="a11 leaf node n4 p0 sample" transform="translate(-7.27273 16.0)"><path class="edge" d="M 0 0 V -16.0 H 7.27273"/><circle class="sym" cx="0" cy="0" r="3"/><text class="lab" transform="translate(0 12)">4</text></g><g class="a11 leaf node n9 p0 sample" transform="translate(36.3636 16.0)"><path class="edge" d="M 0 0 V -16.0 H -36.3636"/><circle class="sym" cx="0" cy="0" r="3"/><text class="lab" transform="translate(0 12)">9</text></g><g class="a11 leaf node n0 p0 sample" transform="translate(-36.3636 16.0)"><path class="edge" d="M 0 0 V -16.0 H 36.3636"/><circle class="sym" cx="0" cy="0" r="3"/><text class="lab" transform="translate(0 12)">0</text></g><g class="a11 leaf node n3 p0 sample" transform="translate(-21.8182 16.0)"><path class="edge" d="M 0 0 V -16.0 H 21.8182"/><circle class="sym" cx="0" cy="0" r="3"/><text class="lab" transform="translate(0 12)">3</text></g><g class="a11 leaf node n6 p0 sample" transform="translate(7.27273 16.0)"><path class="edge" d="M 0 0 V -16.0 H -7.27273"/><circle class="sym" cx="0" cy="0" r="3"/><text class="lab" transform="translate(0 12)">6</text></g><g class="a11 leaf node n8 p0 sample" transform="translate(21.8182 16.0)"><path class="edge" d="M 0 0 V -16.0 H -21.8182"/><circle class="sym" cx="0" cy="0" r="3"/><text class="lab" transform="translate(0 12)">8</text></g><path class="edge" d="M 0 0 V -64.0 H 0.0"/><circle class="sym" cx="0" cy="0" r="3"/><text class="lab lft" transform="translate(-3 -6)">11</text></g><circle class="sym" cx="0" cy="0" r="3"/><text class="lab" transform="translate(0 -10)">17</text></g><g class="node n19 p0 root" transform="translate(111.818 30.0)"><g class="a19 leaf node n1 p0 sample" transform="translate(0.0 80.0)"><path class="edge" d="M 0 0 V -80.0 H 0.0"/><circle class="sym" cx="0" cy="0" r="3"/><text class="lab" transform="translate(0 12)">1</text></g><circle class="sym" cx="0" cy="0" r="3"/><text class="lab" transform="translate(0 -10)">19</text></g><g class="node n16 p0 root" transform="translate(133.636 30.0)"><g class="a16 leaf node n5 p0 sample" transform="translate(-7.27273 80.0)"><path class="edge" d="M 0 0 V -80.0 H 7.27273"/><circle class="sym" cx="0" cy="0" r="3"/><text class="lab" transform="translate(0 12)">5</text></g><g class="a16 leaf node n7 p0 sample" transform="translate(7.27273 80.0)"><path class="edge" d="M 0 0 V -80.0 H -7.27273"/><circle class="sym" cx="0" cy="0" r="3"/><text class="lab" transform="translate(0 12)">7</text></g><circle class="sym" cx="0" cy="0" r="3"/><text class="lab" transform="translate(0 -10)">16</text></g><g class="node n18 p0 root" transform="translate(155.455 30.0)"><g class="a18 leaf node n2 p0 sample" transform="translate(0.0 80.0)"><path class="edge" d="M 0 0 V -80.0 H 0.0"/><circle class="sym" cx="0" cy="0" r="3"/><text class="lab" transform="translate(0 12)">2</text></g><circle class="sym" cx="0" cy="0" r="3"/><text class="lab" transform="translate(0 -10)">18</text></g></g></g></g><g class="axis"><line stroke="black" x1="20" x2="380" y1="180" y2="180"/><line stroke="black" x1="20" x2="20" y1="180" y2="185"/><g transform="translate(20, 200)"><text font-size="14" font-weight="bold" text-anchor="middle">0</text></g><line stroke="black" x1="200.0" x2="200.0" y1="180" y2="185"/><g transform="translate(200.0, 200)"><text font-size="14" font-weight="bold" text-anchor="middle">1</text></g><line stroke="black" x1="380.0" x2="380.0" y1="180" y2="185"/><g transform="translate(380.0, 200)"><text font-size="14" font-weight="bold" text-anchor="middle">2</text></g></g></g></svg>