<svg xmlns="http://www.w3.org/2000/svg" xmlns:ev="http://www.w3.org/2001/xml-events" xmlns:xlink="http://www.w3.org/1999/xlink" baseProfile="full" height="200" version="1.1" width="400"><defs><style type="text/css"><![CDATA[.axis {font-weight: bold}.tree, .axis {font-size: 14px; text-anchor:middle}.edge {stroke: black; fill: none}.node > .sym {fill: black; stroke: none}.tree text {dominant-baseline: middle}.tree .lab.lft {text-anchor: end}.tree .lab.rgt {text-anchor: start}.mut {fill: red; font-style: italic}]]></style></defs><g class="tree-sequence"><g class="background"><polygon fill="#F1F1F1" points="20,185 20,180 20,160 20,0 200.0,0 200.0,160 200.0,180 200.0,185"/></g><g class="trees"><g class="treebox t0" transform="translate(20 30)"><g class="tree t0"><g class="node n0 p0 root" transform="translate(62.7273 30.0)"><g class="a0 node n25" transform="translate(0.0 32.0)"><g class="a25 node n23" transform="translate(-27.2727 16.0)"><g class="a23 leaf node n10 sample" transform="translate(-10.9091 32.0)"><path class="edge" d="M 0 0 V -32.0 H 10.9091"/><circle class="sym" cx="0" cy="0" r="3"/><text class="lab" transform="translate(0 12)">10</text></g><g class="a23 node n21" transform="translate(10.9091 16.0)"><g class="a21 leaf node n14 sample" transform="translate(-7.27273 16.0)"><path class="edge" d="M 0 0 V -16.0 H 7.27273"/><circle class="sym" cx="0" cy="0" r="3"/><text class="lab" transform="translate(0 12)">14</text></g><g class="a21 leaf node n19 sample" transform="translate(7.27273 16.0)"><path class="edge" d="M 0 0 V -16.0 H -7.27273"/><circle class="sym" cx="0" cy="0" r="3"/><text class="lab" transform="translate(0 12)">19</text></g><path class="edge" d="M 0 0 V -16.0 H -10.9091"/><circle class="sym" cx="0" cy="0" r="3"/><text class="lab rgt" transform="translate(3 -6)">21</text></g><path class="edge" d="M 0 0 V -16.0 H 27.2727"/><circle class="sym" cx="0" cy="0" r="3"/><text class="lab lft" transform="translate(-3 -6)">23</text></g><g class="a25 node n24" transform="translate(27.2727 16.0)"><g class="a24 leaf node n11 sample" transform="translate(-21.8182 32.0)"><path class="edge" d="M 0 0 V -32.0 H 21.8182"/><circle class="sym" cx="0" cy="0" r="3"/><text class="lab" transform="translate(0 12)">11</text></g><g class="a24 leaf node n18 sample" transform="translate(21.8182 32.0)"><path class="edge" d="M 0 0 V -32.0 H -21.8182"/><circle class="sym" cx="0" cy="0" r="3"/><text class="lab" transform="translate(0 12)">18</text></g><g class="a24 node n22" transform="translate(0.0 16.0)"><g class="a22 leaf node n15 sample" transform="translate(-7.27273 16.0)"><path class="edge" d="M 0 0 V -16.0 H 7.27273"/><circle class="sym" cx="0" cy="0" r="3"/><text class="lab" transform="translate(0 12)">15</text></g><g class="a22 leaf node n17 sample" transform="translate(7.27273 16.0)"><path class="edge" d="M 0 0 V -16.0 H -7.27273"/><circle class="sym" cx="0" cy="0" r="3"/><text class="lab" transform="translate(0 12)">17</text></g><path class="edge" d="M 0 0 V -16.0 H 0.0"/><circle class="sym" cx="0" cy="0" r="3"/><text class="lab rgt" transform="translate(3 -6)">22</text></g><path class="edge" d="M 0 0 V -16.0 H -27.2727"/><circle class="sym" cx="0" cy="0" r="3"/><text class="lab rgt" transform="translate(3 -6)">24</text></g><path class="edge" d="M 0 0 V -32.0 H 0.0"/><circle class="sym" cx="0" cy="0" r="3"/><text class="lab lft" transform="translate(-3 -6)">25</text></g><circle class="sym" cx="0" cy="0" r="3"/><text class="lab" transform="translate(0 -10)">0</text></g><g class="node n7 p0 root" transform="translate(140.909 30.0)"><g class="a7 node n20" transform="translate(0.0 64.0)"><g class="a20 leaf node n12 sample" transform="translate(-14.5455 16.0)"><path class="edge" d="M 0 0 V -16.0 H 14.5455"/><circle class="sym" cx="0" cy="0" r="3"/><text class="lab" transform="translate(0 12)">12</text></g><g class="a20 leaf node n13 sample" transform="translate(0.0 16.0)"><path class="edge" d="M 0 0 V -16.0 H 0.0"/><circle class="sym" cx="0" cy="0" r="3"/><text class="lab" transform="translate(0 12)">13</text></g><g class="a20 leaf node n16 sample" transform="translate(14.5455 16.0)"><path class="edge" d="M 0 0 V -16.0 H -14.5455"/><circle class="sym" cx="0" cy="0" r="3"/><text class="lab" transform="translate(0 12)">16</text></g><path class="edge" d="M 0 0 V -64.0 H 0.0"/><circle class="sym" cx="0" cy="0" r="3"/><text class="lab lft" transform="translate(-3 -6)">20</text></g><circle class="sym" cx="0" cy="0" r="3"/><text class="lab" transform="translate(0 -10)">7</text></g></g></g><g class="treebox t1" transform="translate(200.0 30)"><g class="tree t1"><g class="node n0 p0 root" transform="translate(60.9091 30.0)"><g class="a0 node n21" transform="translate(0.0 64.0)"><g class="a21 leaf node n14 sample" transform="translate(-7.27273 16.0)"><path class="edge" d="M 0 0 V -16.0 H 7.27273"/><circle class="sym" cx="0" cy="0" r="3"/><text class="lab" transform="translate(0 12)">14</text></g><g class="a21 leaf node n19 sample" transform="translate(36.3636 16.0)"><path class="edge" d="M 0 0 V -16.0 H -36.3636"/><circle class="sym" cx="0" cy="0" r="3"/><text class="lab" transform="translate(0 12)">19</text></g><g class="a21 leaf node n10 sample" transform="translate(-36.3636 16.0)"><path class="edge" d="M 0 0 V -16.0 H 36.3636"/><circle class="sym" cx="0" cy="0" r="3"/><text class="lab" transform="translate(0 12)">10</text></g><g class="a21 leaf node n13 sample" transform="translate(-21.8182 16.0)"><path class="edge" d="M 0 0 V -16.0 H 21.8182"/><circle class="sym" cx="0" cy="0" r="3"/><text class="lab" transform="translate(0 12)">13</text></g><g class="a21 leaf node n16 sample" transform="translate(7.27273 16.0)"><path class="edge" d="M 0 0 V -16.0 H -7.27273"/><circle class="sym" cx="0" cy="0" r="3"/><text class="lab" transform="translate(0 12)">16</text></g><g class="a21 leaf node n18 sample" transform="translate(21.8182 16.0)"><path class="edge" d="M 0 0 V -16.0 H -21.8182"/><circle class="sym" cx="0" cy="0" r="3"/><text class="lab" transform="translate(0 12)">18</text></g><path class="edge" d="M 0 0 V -64.0 H 0.0"/><circle class="sym" cx="0" cy="0" r="3"/><text class="lab lft" transform="translate(-3 -6)">21</text></g><circle class="sym" cx="0" cy="0" r="3"/><text class="lab" transform="translate(0 -10)">0</text></g><g class="node n8 p0 root" transform="translate(111.818 30.0)"><g class="a8 leaf node n11 sample" transform="translate(0.0 80.0)"><path class="edge" d="M 0 0 V -80.0 H 0.0"/><circle class="sym" cx="0" cy="0" r="3"/><text class="lab" transform="translate(0 12)">11</text></g><circle class="sym" cx="0" cy="0" r="3"/><text class="lab" transform="translate(0 -10)">8</text></g><g class="node n4 p0 root" transform="translate(133.636 30.0)"><g class="a4 leaf node n15 sample" transform="translate(-7.27273 80.0)"><path class="edge" d="M 0 0 V -80.0 H 7.27273"/><circle class="sym" cx="0" cy="0" r="3"/><text class="lab" transform="translate(0 12)">15</text></g><g class="a4 leaf node n17 sample" transform="translate(7.27273 80.0)"><path class="edge" d="M 0 0 V -80.0 H -7.27273"/><circle class="sym" cx="0" cy="0" r="3"/><text class="lab" transform="translate(0 12)">17</text></g><circle class="sym" cx="0" cy="0" r="3"/><text class="lab" transform="translate(0 -10)">4</text></g><g class="node n7 p0 root" transform="translate(155.455 30.0)"><g class="a7 leaf node n12 sample" transform="translate(0.0 80.0)"><path class="edge" d="M 0 0 V -80.0 H 0.0"/><circle class="sym" cx="0" cy="0" r="3"/><text class="lab" transform="translate(0 12)">12</text></g><circle class="sym" cx="0" cy="0" r="3"/><text class="lab" transform="translate(0 -10)">7</text></g></g></g></g><g class="axis"><line stroke="black" x1="20" x2="380" y1="180" y2="180"/><line stroke="black" x1="20" x2="20" y1="180" y2="185"/><g transform="translate(20, 200)"><text font-size="14" font-weight="bold" text-anchor="middle">0</text></g><line stroke="black" x1="200.0" x2="200.0" y1="180" y2="185"/><g transform="translate(200.0, 200)"><text font-size="14" font-weight="bold" text-anchor="middle">1</text></g><line stroke="black" x1="380.0" x2="380.0" y1="180" y2="185"/><g transform="translate(380.0, 200)"><text font-size="14" font-weight="bold" text-anchor="middle">2</text></g></g></g></svg>