<svg xmlns="http://www.w3.org/2000/svg" xmlns:ev="http://www.w3.org/2001/xml-events" xmlns:xlink="http://www.w3.org/1999/xlink" baseProfile="full" height="200" version="1.1" width="400"><defs><style type="text/css"><![CDATA[.axis {font-weight: bold}.tree, .axis {font-size: 14px; text-anchor:middle}.edge {stroke: black; fill: none}.node > .sym {fill: black; stroke: none}.tree text {dominant-baseline: middle}.tree .lab.lft {text-anchor: end}.tree .lab.rgt {text-anchor: start}.mut {fill: red; font-style: italic}]]></style></defs><g class="tree-sequence"><g class="background"><polygon fill="#F1F1F1" points="20,185 20,180 20,160 20,0 200.0,0 200.0,160 200.0,180 200.0,185"/></g><g class="trees"><g class="treebox t0" transform="translate(20 30)"><g class="tree t0"><g class="node n26 p0 root" transform="translate(101.818 65.4385)"><g class="a26 node n0 p0" transform="translate(-39.0909 5.17088)"><g class="a0 node n25" transform="translate(0.0 15.7563)"><g class="a25 node n23" transform="translate(-27.2727 7.87813)"><g class="a23 leaf node n10 sample" transform="translate(-10.9091 15.7563)"><path class="edge" d="M 0 0 V -15.7563 H 10.9091"/><circle class="sym" cx="0" cy="0" r="3"/><text class="lab" transform="translate(0 12)">10</text></g><g class="a23 node n21" transform="translate(10.9091 7.87813)"><g class="a21 leaf node n14 sample" transform="translate(-7.27273 7.87813)"><path class="edge" d="M 0 0 V -7.87813 H 7.27273"/><circle class="sym" cx="0" cy="0" r="3"/><text class="lab" transform="translate(0 12)">14</text></g><g class="a21 leaf node n19 sample" transform="translate(7.27273 7.87813)"><path class="edge" d="M 0 0 V -7.87813 H -7.27273"/><circle class="sym" cx="0" cy="0" r="3"/><text class="lab" transform="translate(0 12)">19</text></g><path class="edge" d="M 0 0 V -7.87813 H -10.9091"/><circle class="sym" cx="0" cy="0" r="3"/><text class="lab rgt" transform="translate(3 -6)">21</text></g><path class="edge" d="M 0 0 V -7.87813 H 27.2727"/><circle class="sym" cx="0" cy="0" r="3"/><text class="lab lft" transform="translate(-3 -6)">23</text></g><g class="a25 node n24" transform="translate(27.2727 7.87813)"><g class="a24 leaf node n11 sample" transform="translate(-21.8182 15.7563)"><path class="edge" d="M 0 0 V -15.7563 H 21.8182"/><circle class="sym" cx="0" cy="0" r="3"/><text class="lab" transform="translate(0 12)">11</text></g><g class="a24 leaf node n18 sample" transform="translate(21.8182 15.7563)"><path class="edge" d="M 0 0 V -15.7563 H -21.8182"/><circle class="sym" cx="0" cy="0" r="3"/><text class="lab" transform="translate(0 12)">18</text></g><g class="a24 node n22" transform="translate(0.0 7.87813)"><g class="a22 leaf node n15 sample" transform="translate(-7.27273 7.87813)"><path class="edge" d="M 0 0 V -7.87813 H 7.27273"/><circle class="sym" cx="0" cy="0" r="3"/><text class="lab" transform="translate(0 12)">15</text></g><g class="a22 leaf node n17 sample" transform="translate(7.27273 7.87813)"><path class="edge" d="M 0 0 V -7.87813 H -7.27273"/><circle class="sym" cx="0" cy="0" r="3"/><text class="lab" transform="translate(0 12)">17</text></g><path class="edge" d="M 0 0 V -7.87813 H 0.0"/><circle class="sym" cx="0" cy="0" r="3"/><text class="lab rgt" transform="translate(3 -6)">22</text></g><path class="edge" d="M 0 0 V -7.87813 H -27.2727"/><circle class="sym" cx="0" cy="0" r="3"/><text class="lab rgt" transform="translate(3 -6)">24</text></g><path class="edge" d="M 0 0 V -15.7563 H 0.0"/><circle class="sym" cx="0" cy="0" r="3"/><text class="lab lft" transform="translate(-3 -6)">25</text></g><path class="edge" d="M 0 0 V -5.17088 H 39.0909"/><circle class="sym" cx="0" cy="0" r="3"/><text class="lab lft" transform="translate(-3 -6)">0</text></g><g class="a26 node n7 p0" transform="translate(39.0909 5.17088)"><g class="a7 node n20" transform="translate(0.0 31.5125)"><g class="a20 leaf node n12 sample" transform="translate(-14.5455 7.87813)"><path class="edge" d="M 0 0 V -7.87813 H 14.5455"/><circle class="sym" cx="0" cy="0" r="3"/><text class="lab" transform="translate(0 12)">12</text></g><g class="a20 leaf node n13 sample" transform="translate(0.0 7.87813)"><path class="edge" d="M 0 0 V -7.87813 H 0.0"/><circle class="sym" cx="0" cy="0" r="3"/><text class="lab" transform="translate(0 12)">13</text></g><g class="a20 leaf node n16 sample" transform="translate(14.5455 7.87813)"><path class="edge" d="M 0 0 V -7.87813 H -14.5455"/><circle class="sym" cx="0" cy="0" r="3"/><text class="lab" transform="translate(0 12)">16</text></g><path class="edge" d="M 0 0 V -31.5125 H 0.0"/><circle class="sym" cx="0" cy="0" r="3"/><text class="lab lft" transform="translate(-3 -6)">20</text></g><path class="edge" d="M 0 0 V -5.17088 H -39.0909"/><circle class="sym" cx="0" cy="0" r="3"/><text class="lab rgt" transform="translate(3 -6)">7</text></g><circle class="sym" cx="0" cy="0" r="3"/><text class="lab" transform="translate(0 -10)">26</text></g></g></g><g class="treebox t1" transform="translate(200.0 30)"><g class="tree t1"><g class="node n29 p0 root" transform="translate(135.455 30.0)"><g class="a29 node n7 p0" transform="translate(20.0 40.6094)"><g class="a7 leaf node n12 sample" transform="translate(0.0 39.3906)"><path class="edge" d="M 0 0 V -39.3906 H 0.0"/><circle class="sym" cx="0" cy="0" r="3"/><text class="lab" transform="translate(0 12)">12</text></g><path class="edge" d="M 0 0 V -40.6094 H -20.0"/><circle class="sym" cx="0" cy="0" r="3"/><text class="lab rgt" transform="translate(3 -6)">7</text></g><g class="a29 node n28 p0" transform="translate(-20.0 7.14849)"><g class="a28 node n8 p0" transform="translate(25.4545 33.4609)"><g class="a8 leaf node n11 sample" transform="translate(0.0 39.3906)"><path class="edge" d="M 0 0 V -39.3906 H 0.0"/><circle class="sym" cx="0" cy="0" r="3"/><text class="lab" transform="translate(0 12)">11</text></g><path class="edge" d="M 0 0 V -33.4609 H -25.4545"/><circle class="sym" cx="0" cy="0" r="3"/><text class="lab rgt" transform="translate(3 -6)">8</text></g><g class="a28 node n27 p0" transform="translate(-25.4545 20.3063)"><g class="a27 node n0 p0" transform="translate(-29.0909 13.1546)"><g class="a0 node n21" transform="translate(0.0 31.5125)"><g class="a21 leaf node n14 sample" transform="translate(-7.27273 7.87813)"><path class="edge" d="M 0 0 V -7.87813 H 7.27273"/><circle class="sym" cx="0" cy="0" r="3"/><text class="lab" transform="translate(0 12)">14</text></g><g class="a21 leaf node n19 sample" transform="translate(36.3636 7.87813)"><path class="edge" d="M 0 0 V -7.87813 H -36.3636"/><circle class="sym" cx="0" cy="0" r="3"/><text class="lab" transform="translate(0 12)">19</text></g><g class="a21 leaf node n10 sample" transform="translate(-36.3636 7.87813)"><path class="edge" d="M 0 0 V -7.87813 H 36.3636"/><circle class="sym" cx="0" cy="0" r="3"/><text class="lab" transform="translate(0 12)">10</text></g><g class="a21 leaf node n13 sample" transform="translate(-21.8182 7.87813)"><path class="edge" d="M 0 0 V -7.87813 H 21.8182"/><circle class="sym" cx="0" cy="0" r="3"/><text class="lab" transform="translate(0 12)">13</text></g><g class="a21 leaf node n16 sample" transform="translate(7.27273 7.87813)"><path class="edge" d="M 0 0 V -7.87813 H -7.27273"/><circle class="sym" cx="0" cy="0" r="3"/><text class="lab" transform="translate(0 12)">16</text></g><g class="a21 leaf node n18 sample" transform="translate(21.8182 7.87813)"><path class="edge" d="M 0 0 V -7.87813 H -21.8182"/><circle class="sym" cx="0" cy="0" r="3"/><text class="lab" transform="translate(0 12)">18</text></g><path class="edge" d="M 0 0 V -31.5125 H 0.0"/><circle class="sym" cx="0" cy="0" r="3"/><text class="lab lft" transform="translate(-3 -6)">21</text></g><path class="edge" d="M 0 0 V -13.1546 H 29.0909"/><circle class="sym" cx="0" cy="0" r="3"/><text class="lab lft" transform="translate(-3 -6)">0</text></g><g class="a27 node n4 p0" transform="translate(29.0909 13.1546)"><g class="a4 leaf node n15 sample" transform="translate(-7.27273 39.3906)"><path class="edge" d="M 0 0 V -39.3906 H 7.27273"/><circle class="sym" cx="0" cy="0" r="3"/><text class="lab" transform="translate(0 12)">15</text></g><g class="a4 leaf node n17 sample" transform="translate(7.27273 39.3906)"><path class="edge" d="M 0 0 V -39.3906 H -7.27273"/><circle class="sym" cx="0" cy="0" r="3"/><text class="lab" transform="translate(0 12)">17</text></g><path class="edge" d="M 0 0 V -13.1546 H -29.0909"/><circle class="sym" cx="0" cy="0" r="3"/><text class="lab rgt" transform="translate(3 -6)">4</text></g><path class="edge" d="M 0 0 V -20.3063 H 25.4545"/><circle class="sym" cx="0" cy="0" r="3"/><text class="lab lft" transform="translate(-3 -6)">27</text></g><path class="edge" d="M 0 0 V -7.14849 H 20.0"/><circle class="sym" cx="0" cy="0" r="3"/><text class="lab lft" transform="translate(-3 -6)">28</text></g><circle class="sym" cx="0" cy="0" r="3"/><text class="lab" transform="translate(0 -10)">29</text></g></g></g></g><g class="axis"><line stroke="black" x1="20" x2="380" y1="180" y2="180"/><line stroke="black" x1="20" x2="20" y1="180" y2="185"/><g transform="translate(20, 200)"><text font-size="14" font-weight="bold" text-anchor="middle">0</text></g><line stroke="black" x1="200.0" x2="200.0" y1="180" y2="185"/><g transform="translate(200.0, 200)"><text font-size="14" font-weight="bold" text-anchor="middle">1</text></g><line stroke="black" x1="380.0" x2="380.0" y1="180" y2="185"/><g transform="translate(380.0, 200)"><text font-size="14" font-weight="bold" text-anchor="middle">2</text></g></g></g></svg>