<svg baseProfile="full" class="lft_tree" height="200" version="1.1" width="400.0" xmlns="http://www.w3.org/2000/svg" xmlns:ev="http://www.w3.org/2001/xml-events" xmlns:xlink="http://www.w3.org/1999/xlink"><g class="tangle_lines"><line stroke="blue" x1="30.0" y1="183.2" x2="30.0" y2="216.8" /><line stroke="blue" x1="50.0" y1="183.2" x2="50.0" y2="216.8" /><line stroke="blue" x1="70.0" y1="109.44864531111027" x2="70.0" y2="280.8114721041232" /><line stroke="blue" x1="90.0" y1="164.76216132777756" x2="150.0" y2="232.8028680260308" /><line stroke="blue" x1="110.0" y1="183.2" x2="90.0" y2="216.8" /><line stroke="blue" x1="130.0" y1="183.2" x2="110.0" y2="216.8" /><line stroke="blue" x1="150.0" y1="146.32432265555514" x2="130.0" y2="248.8057360520616" /><line stroke="blue" x1="170.0" y1="183.2" x2="170.0" y2="216.8" /></g><svg baseProfile="full" class="rgt_tree" height="200" version="1.1" width="200.0" x="200.0" xmlns="http://www.w3.org/2000/svg" xmlns:ev="http://www.w3.org/2001/xml-events" xmlns:xlink="http://www.w3.org/1999/xlink"><defs><style type="text/css"><![CDATA[.background path {fill: #808080; fill-opacity: 0}.background path:nth-child(odd) {fill-opacity: .1}.x-regions rect {fill: yellow; stroke: black; opacity: 0.5}.axes {font-size: 14px}.x-axis .tick .lab {font-weight: bold; dominant-baseline: hanging}.axes, .tree {font-size: 14px; text-anchor: middle}.axes line, .edge {stroke: black; fill: none}.axes .ax-skip {stroke-dasharray: 4}.y-axis .grid {stroke: #FAFAFA}.node > .sym {fill: black; stroke: none}.site > .sym {stroke: black}.mut text {fill: red; font-style: italic}.mut.extra text {fill: hotpink}.mut line {fill: none; stroke: none}.mut .sym {fill: none; stroke: red}.mut.extra .sym {stroke: hotpink}.node .mut .sym {stroke-width: 1.5px}.tree text, .tree-sequence text {dominant-baseline: central}.plotbox .lab.lft {text-anchor: end}.plotbox .lab.rgt {text-anchor: start}.polytomy line {stroke: black; stroke-dasharray: 1px, 1px}.polytomy text {paint-order:stroke;stroke-width:0.3em;stroke:white}.lft_tree > g.tree, .lft_tree > g.tangle_lines {transform: translate(0, 200px) rotate(-90deg);}.lft_tree > g.tree .node > .lab {text-anchor: start; transform: rotate(90deg) translate(4px);}.lft_tree > .title {transform: translate(100.0px);}.rgt_tree > g.tree {transform: translate(200.0px, 0) rotate(90deg);}.rgt_tree > g.tree .node > .lab {text-anchor: end; transform: rotate(-90deg) translate(4px);}.rgt_tree > .title {transform: translate(100.0px);}.lft_tree .axes .y-axis .title text {transform: translate(11px) rotate(90deg);}.rgt_tree .axes .y-axis .title text {transform: translate(-11px) rotate(-90deg);}.rgt_tree .axes .y-axis .ticks .lab {text-anchor: end; transform: rotate(180deg);}]]></style></defs><g class="tree t8"><g class="plotbox"><g class="c2 node n18 p3 root" transform="translate(96.25 43.6)"><g class="a18 c2 node n14 p3" transform="translate(-41.25 58.1422)"><g class="a14 i0 leaf m101 m102 node n1 p0 s100 s101 sample" transform="translate(15 34.4521)"><path class="edge e14" d="M 0 0 V -34.4521 H -15"/><g class="mut m101 s100 unknown_time" transform="translate(0 -22.9681)"><line x1="0" x2="0" y1="0" y2="22.9681"/><path class="sym" d="M -3,-3 l 6,6 M -3,3 l 6,-6"/><text class="lab rgt" transform="translate(5 0)"/></g><g class="mut m102 s101 unknown_time" transform="translate(0 -11.484)"><line x1="0" x2="0" y1="0" y2="11.484"/><path class="sym" d="M -3,-3 l 6,6 M -3,3 l 6,-6"/><text class="lab rgt" transform="translate(5 0)"/></g><rect class="sym" height="6" width="6" x="-3" y="-3"/><text class="lab" transform="translate(0 11)">1</text></g><g class="a14 c2 node n11 p3" transform="translate(-15 25.6887)"><g class="a11 i0 leaf node n0 p0 sample" transform="translate(-10 40.7691)"><path class="edge e6" d="M 0 0 V -40.7691 H 10"/><rect class="sym" height="6" width="6" x="-3" y="-3"/><text class="lab" transform="translate(0 11)">0</text></g><g class="a11 i2 leaf m100 node n4 p1 s99 sample" transform="translate(10 24.7663)"><path class="edge e7" d="M 0 0 V -24.7663 H -10"/><g class="mut m100 s99 unknown_time" transform="translate(0 -12.3831)"><line x1="0" x2="0" y1="0" y2="12.3831"/><path class="sym" d="M -3,-3 l 6,6 M -3,3 l 6,-6"/><text class="lab rgt" transform="translate(5 0)"/></g><rect class="sym" height="6" width="6" x="-3" y="-3"/><text class="lab" transform="translate(0 11)">4</text></g><path class="edge e15" d="M 0 0 V -25.6887 H 15"/><circle class="sym" cx="0" cy="0" r="3"/><text class="lab lft" transform="translate(-3 -7)"/></g><path class="edge e25" d="M 0 0 V -58.1422 H 41.25"/><circle class="sym" cx="0" cy="0" r="3"/><text class="lab lft" transform="translate(-3 -7)"/></g><g class="a18 c2 node n16 p3" transform="translate(41.25 36.0861)"><g class="a16 c2 node n10 p3" transform="translate(22.5 54.5077)"><g class="a10 i3 leaf node n6 p2 sample" transform="translate(-10 34.0062)"><path class="edge e4" d="M 0 0 V -34.0062 H 10"/><rect class="sym" height="6" width="6" x="-3" y="-3"/><text class="lab" transform="translate(0 11)">6</text></g><g class="a10 i3 leaf node n7 p2 sample" transform="translate(10 34.0062)"><path class="edge e5" d="M 0 0 V -34.0062 H -10"/><rect class="sym" height="6" width="6" x="-3" y="-3"/><text class="lab" transform="translate(0 11)">7</text></g><path class="edge e20" d="M 0 0 V -54.5077 H -22.5"/><circle class="sym" cx="0" cy="0" r="3"/><text class="lab rgt" transform="translate(3 -7)"/></g><g class="a16 c2 node n15 p3" transform="translate(-22.5 11.4221)"><g class="a15 i2 leaf node n5 p1 sample" transform="translate(15 13.0803)"><path class="edge e16" d="M 0 0 V -13.0803 H -15"/><rect class="sym" height="6" width="6" x="-3" y="-3"/><text class="lab" transform="translate(0 11)">5</text></g><g class="a15 c2 node n8 p0" transform="translate(-15 76.004)"><g class="a8 i1 leaf node n2 p0 sample" transform="translate(-10 1.08782)"><path class="edge e0" d="M 0 0 V -1.08782 H 10"/><rect class="sym" height="6" width="6" x="-3" y="-3"/><text class="lab" transform="translate(0 11)">2</text></g><g class="a8 i1 leaf node n3 p0 sample" transform="translate(10 1.08782)"><path class="edge e1" d="M 0 0 V -1.08782 H -10"/><rect class="sym" height="6" width="6" x="-3" y="-3"/><text class="lab" transform="translate(0 11)">3</text></g><path class="edge e17" d="M 0 0 V -76.004 H 15"/><circle class="sym" cx="0" cy="0" r="3"/><text class="lab lft" transform="translate(-3 -7)"/></g><path class="edge e21" d="M 0 0 V -11.4221 H 22.5"/><circle class="sym" cx="0" cy="0" r="3"/><text class="lab lft" transform="translate(-3 -7)"/></g><path class="edge e26" d="M 0 0 V -36.0861 H -41.25"/><circle class="sym" cx="0" cy="0" r="3"/><text class="lab rgt" transform="translate(3 -7)"/></g><circle class="sym" cx="0" cy="0" r="3"/><text class="lab" transform="translate(0 -11)"/></g></g></g><g class="title" transform="translate(100 0)"><text dominant-baseline="hanging" text-anchor="middle">Tree 8</text></g></svg><defs><style type="text/css"><![CDATA[.background path {fill: #808080; fill-opacity: 0}.background path:nth-child(odd) {fill-opacity: .1}.x-regions rect {fill: yellow; stroke: black; opacity: 0.5}.axes {font-size: 14px}.x-axis .tick .lab {font-weight: bold; dominant-baseline: hanging}.axes, .tree {font-size: 14px; text-anchor: middle}.axes line, .edge {stroke: black; fill: none}.axes .ax-skip {stroke-dasharray: 4}.y-axis .grid {stroke: #FAFAFA}.node > .sym {fill: black; stroke: none}.site > .sym {stroke: black}.mut text {fill: red; font-style: italic}.mut.extra text {fill: hotpink}.mut line {fill: none; stroke: none}.mut .sym {fill: none; stroke: red}.mut.extra .sym {stroke: hotpink}.node .mut .sym {stroke-width: 1.5px}.tree text, .tree-sequence text {dominant-baseline: central}.plotbox .lab.lft {text-anchor: end}.plotbox .lab.rgt {text-anchor: start}.polytomy line {stroke: black; stroke-dasharray: 1px, 1px}.polytomy text {paint-order:stroke;stroke-width:0.3em;stroke:white}]]></style></defs><g class="tree t0"><g class="plotbox"><g class="c2 node n17 p3 root" transform="translate(101.875 43.6)"><g class="a17 c2 m5 node n13 p3 s5" transform="translate(46.875 52.9978)"><g class="a13 i0 leaf m6 node n7 p0 s6 sample" transform="translate(21.25 71.6022)"><path class="edge e11" d="M 0 0 V -71.6022 H -21.25"/><g class="mut m6 s6 unknown_time" transform="translate(0 -35.8011)"><line x1="0" x2="0" y1="0" y2="35.8011"/><path class="sym" d="M -3,-3 l 6,6 M -3,3 l 6,-6"/><text class="lab rgt" transform="translate(5 0)"/></g><rect class="sym" height="6" width="6" x="-3" y="-3"/><text class="lab" transform="translate(0 11)">0</text></g><g class="a13 c2 node n12 p3" transform="translate(-21.25 18.5327)"><g class="a12 i0 leaf m3 node n6 p0 s3 sample" transform="translate(22.5 16.1937)"><path class="edge e8" d="M 0 0 V -16.1937 H -22.5"/><g class="mut m3 s3 unknown_time" transform="translate(0 -8.09687)"><line x1="0" x2="0" y1="0" y2="8.09687"/><path class="sym" d="M -3,-3 l 6,6 M -3,3 l 6,-6"/><text class="lab rgt" transform="translate(5 0)"/></g><rect class="sym" height="6" width="6" x="-3" y="-3"/><text class="lab" transform="translate(0 11)">1</text></g><g class="a12 c2 node n9 p3" transform="translate(-22.5 14.8483)"><g class="a9 i2 leaf node n3 p1 sample" transform="translate(-15 19.7833)"><path class="edge e2" d="M 0 0 V -19.7833 H 15"/><rect class="sym" height="6" width="6" x="-3" y="-3"/><text class="lab" transform="translate(0 11)">4</text></g><g class="a9 c2 m1 m4 m7 node n8 p0 s1 s4 s7" transform="translate(15 36.9678)"><g class="a8 i1 leaf node n4 p0 sample" transform="translate(-10 1.25334)"><path class="edge e0" d="M 0 0 V -1.25334 H 10"/><rect class="sym" height="6" width="6" x="-3" y="-3"/><text class="lab" transform="translate(0 11)">3</text></g><g class="a8 i1 leaf node n5 p0 sample" transform="translate(10 1.25334)"><path class="edge e1" d="M 0 0 V -1.25334 H -10"/><rect class="sym" height="6" width="6" x="-3" y="-3"/><text class="lab" transform="translate(0 11)">2</text></g><path class="edge e3" d="M 0 0 V -36.9678 H -15"/><g class="mut m1 s1 unknown_time" transform="translate(0 -27.7258)"><line x1="0" x2="0" y1="0" y2="27.7258"/><path class="sym" d="M -3,-3 l 6,6 M -3,3 l 6,-6"/><text class="lab rgt" transform="translate(5 0)"/></g><g class="mut m4 s4 unknown_time" transform="translate(0 -18.4839)"><line x1="0" x2="0" y1="0" y2="18.4839"/><path class="sym" d="M -3,-3 l 6,6 M -3,3 l 6,-6"/><text class="lab rgt" transform="translate(5 0)"/></g><g class="mut m7 s7 unknown_time" transform="translate(0 -9.24194)"><line x1="0" x2="0" y1="0" y2="9.24194"/><path class="sym" d="M -3,-3 l 6,6 M -3,3 l 6,-6"/><text class="lab rgt" transform="translate(5 0)"/></g><circle class="sym" cx="0" cy="0" r="3"/><text class="lab rgt" transform="translate(3 -7)"/></g><path class="edge e9" d="M 0 0 V -14.8483 H 22.5"/><circle class="sym" cx="0" cy="0" r="3"/><text class="lab lft" transform="translate(-3 -7)"/></g><path class="edge e12" d="M 0 0 V -18.5327 H 21.25"/><circle class="sym" cx="0" cy="0" r="3"/><text class="lab lft" transform="translate(-3 -7)"/></g><path class="edge e22" d="M 0 0 V -52.9978 H -46.875"/><g class="mut m5 s5 unknown_time" transform="translate(0 -26.4989)"><line x1="0" x2="0" y1="0" y2="26.4989"/><path class="sym" d="M -3,-3 l 6,6 M -3,3 l 6,-6"/><text class="lab rgt" transform="translate(5 0)"/></g><circle class="sym" cx="0" cy="0" r="3"/><text class="lab rgt" transform="translate(3 -7)"/></g><g class="a17 c2 m8 node n16 p3 s8" transform="translate(-46.875 22.618)"><g class="a16 i2 leaf node n2 p1 sample" transform="translate(15 28.2306)"><path class="edge e19" d="M 0 0 V -28.2306 H -15"/><rect class="sym" height="6" width="6" x="-3" y="-3"/><text class="lab" transform="translate(0 11)">5</text></g><g class="a16 c2 m0 node n10 p3 s0" transform="translate(-15 62.8015)"><g class="a10 i3 leaf m2 node n0 p2 s2 sample" transform="translate(-10 39.1805)"><path class="edge e4" d="M 0 0 V -39.1805 H 10"/><g class="mut m2 s2 unknown_time" transform="translate(0 -19.5903)"><line x1="0" x2="0" y1="0" y2="19.5903"/><path class="sym" d="M -3,-3 l 6,6 M -3,3 l 6,-6"/><text class="lab lft" transform="translate(-5 0)"/></g><rect class="sym" height="6" width="6" x="-3" y="-3"/><text class="lab" transform="translate(0 11)">7</text></g><g class="a10 i3 leaf node n1 p2 sample" transform="translate(10 39.1805)"><path class="edge e5" d="M 0 0 V -39.1805 H -10"/><rect class="sym" height="6" width="6" x="-3" y="-3"/><text class="lab" transform="translate(0 11)">6</text></g><path class="edge e20" d="M 0 0 V -62.8015 H 15"/><g class="mut m0 s0 unknown_time" transform="translate(0 -31.4007)"><line x1="0" x2="0" y1="0" y2="31.4007"/><path class="sym" d="M -3,-3 l 6,6 M -3,3 l 6,-6"/><text class="lab lft" transform="translate(-5 0)"/></g><circle class="sym" cx="0" cy="0" r="3"/><text class="lab lft" transform="translate(-3 -7)"/></g><path class="edge e24" d="M 0 0 V -22.618 H 46.875"/><g class="mut m8 s8 unknown_time" transform="translate(0 -11.309)"><line x1="0" x2="0" y1="0" y2="11.309"/><path class="sym" d="M -3,-3 l 6,6 M -3,3 l 6,-6"/><text class="lab lft" transform="translate(-5 0)"/></g><circle class="sym" cx="0" cy="0" r="3"/><text class="lab lft" transform="translate(-3 -7)"/></g><circle class="sym" cx="0" cy="0" r="3"/><text class="lab" transform="translate(0 -11)"/></g></g></g><g class="title" transform="translate(100 0)"><text dominant-baseline="hanging" text-anchor="middle">Tree 0</text></g></svg>