<svg baseProfile="full" height="300" version="1.1" width="800" xmlns="http://www.w3.org/2000/svg" xmlns:ev="http://www.w3.org/2001/xml-events" xmlns:xlink="http://www.w3.org/1999/xlink"><defs><style type="text/css"><![CDATA[.background path {fill: #808080; fill-opacity: 0}.background path:nth-child(odd) {fill-opacity: .1}.axes {font-size: 14px}.x-axis .tick .lab {font-weight: bold; dominant-baseline: hanging}.axes, .tree {font-size: 14px; text-anchor: middle}.axes line, .edge {stroke: black; fill: none}.axes .ax-skip {stroke-dasharray: 4}.y-axis .grid {stroke: #FAFAFA}.node > .sym {fill: black; stroke: none}.site > .sym {stroke: black}.mut text {fill: red; font-style: italic}.mut.extra text {fill: hotpink}.mut line {fill: none; stroke: none}.mut .sym {fill: none; stroke: red}.mut.extra .sym {stroke: hotpink}.node .mut .sym {stroke-width: 1.5px}.tree text, .tree-sequence text {dominant-baseline: central}.plotbox .lab.lft {text-anchor: end}.plotbox .lab.rgt {text-anchor: start}.node > .lab {text-anchor: start; transform: rotate(90deg) translate(6px); font-size: 8px}.n4 > .node {display: none}.n4 > .sym {clip-path: polygon(50% 50%, 75% 75%, 25% 75%); transform: scale(8.0, 8.0)}.n4 > .lab {transform: rotate(90deg) translate(14px); font-size: 16px}]]></style></defs><g class="tree-sequence"><g class="axes"><g class="x-axis"><g class="title" transform="translate(400 300)"><text class="lab" text-anchor="middle" transform="translate(0 -11)">Genome position</text></g><line class="ax-line" x1="20" x2="780" y1="263.2" y2="263.2" /><g class="ticks"><g class="tick" transform="translate(20 263.2)"><line x1="0" x2="0" y1="-5" y2="5" /><g transform="translate(0 6)"><text class="lab">0</text></g></g><g class="tick" transform="translate(115 263.2)"><line x1="0" x2="0" y1="-5" y2="5" /><g transform="translate(0 6)"><text class="lab">9855</text></g></g><g class="tick" transform="translate(210 263.2)"><line x1="0" x2="0" y1="-5" y2="5" /><g transform="translate(0 6)"><text class="lab">13901</text></g></g><g class="tick" transform="translate(305 263.2)"><line x1="0" x2="0" y1="-5" y2="5" /><g transform="translate(0 6)"><text class="lab">21285</text></g></g><g class="tick" transform="translate(400 263.2)"><line x1="0" x2="0" y1="-5" y2="5" /><g transform="translate(0 6)"><text class="lab">23424</text></g></g><g class="tick" transform="translate(495 263.2)"><line x1="0" x2="0" y1="-5" y2="5" /><g transform="translate(0 6)"><text class="lab">25213</text></g></g><g class="tick" transform="translate(590 263.2)"><line x1="0" x2="0" y1="-5" y2="5" /><g transform="translate(0 6)"><text class="lab">30463</text></g></g><g class="tick" transform="translate(685 263.2)"><line x1="0" x2="0" y1="-5" y2="5" /><g transform="translate(0 6)"><text class="lab">46237</text></g></g><g class="tick" transform="translate(780 263.2)"><line x1="0" x2="0" y1="-5" y2="5" /><g transform="translate(0 6)"><text class="lab">50000</text></g></g></g></g></g><g class="plotbox trees"><g class="tree t0" transform="translate(20 0)"><g class="plotbox"><g class="c2 node n6 p1 root" transform="translate(38.9062 63.7065)"><g class="a6 i0 leaf node n0 p0 sample" transform="translate(-12.0312 157.694)"><path class="edge" d="M 0 0 V -157.694 H 12.0312" /><rect class="sym" height="6" width="6" x="-3" y="-3" /><text class="lab" transform="translate(0 11)">Nd. 0</text></g><g class="a6 c2 node n5 p1" transform="translate(12.0312 6.23425)"><g class="a5 i0 leaf node n1 p0 sample" transform="translate(-10.3125 151.459)"><path class="edge" d="M 0 0 V -151.459 H 10.3125" /><rect class="sym" height="6" width="6" x="-3" y="-3" /><text class="lab" transform="translate(0 11)">Nd. 1</text></g><g class="a5 c2 node n4 p0" transform="translate(10.3125 77.4216)"><g class="a4 i1 leaf node n2 p0 sample" transform="translate(-6.875 74.0377)"><path class="edge" d="M 0 0 V -74.0377 H 6.875" /><rect class="sym" height="6" width="6" x="-3" y="-3" /><text class="lab" transform="translate(0 11)" /></g><g class="a4 i1 leaf node n3 p0 sample" transform="translate(6.875 74.0377)"><path class="edge" d="M 0 0 V -74.0377 H -6.875" /><rect class="sym" height="6" width="6" x="-3" y="-3" /><text class="lab" transform="translate(0 11)" /></g><path class="edge" d="M 0 0 V -77.4216 H -10.3125" /><circle class="sym" cx="0" cy="0" r="3" /><text class="lab rgt" transform="translate(3 -7.0)">Two samples</text></g><path class="edge" d="M 0 0 V -6.23425 H -12.0312" /><circle class="sym" cx="0" cy="0" r="3" /><text class="lab rgt" transform="translate(3 -7.0)" /></g><circle class="sym" cx="0" cy="0" r="3" /><text class="lab" transform="translate(0 -11)" /></g></g></g><g class="tree t1" transform="translate(115 0)"><g class="plotbox"><g class="c2 node n8 p1 root" transform="translate(47.5 52.1736)"><g class="a8 c2 node n4 p0" transform="translate(13.75 95.1887)"><g class="a4 i1 leaf node n2 p0 sample" transform="translate(-6.875 74.0377)"><path class="edge" d="M 0 0 V -74.0377 H 6.875" /><rect class="sym" height="6" width="6" x="-3" y="-3" /><text class="lab" transform="translate(0 11)" /></g><g class="a4 i1 leaf node n3 p0 sample" transform="translate(6.875 74.0377)"><path class="edge" d="M 0 0 V -74.0377 H -6.875" /><rect class="sym" height="6" width="6" x="-3" y="-3" /><text class="lab" transform="translate(0 11)" /></g><path class="edge" d="M 0 0 V -95.1887 H -13.75" /><circle class="sym" cx="0" cy="0" r="3" /><text class="lab rgt" transform="translate(3 -7.0)">Two samples</text></g><g class="a8 c2 node n6 p1" transform="translate(-13.75 11.5329)"><g class="a6 i0 leaf node n0 p0 sample" transform="translate(-6.875 157.694)"><path class="edge" d="M 0 0 V -157.694 H 6.875" /><rect class="sym" height="6" width="6" x="-3" y="-3" /><text class="lab" transform="translate(0 11)">Nd. 0</text></g><g class="a6 i0 leaf node n1 p0 sample" transform="translate(6.875 157.694)"><path class="edge" d="M 0 0 V -157.694 H -6.875" /><rect class="sym" height="6" width="6" x="-3" y="-3" /><text class="lab" transform="translate(0 11)">Nd. 1</text></g><path class="edge" d="M 0 0 V -11.5329 H 13.75" /><circle class="sym" cx="0" cy="0" r="3" /><text class="lab lft" transform="translate(-3 -7.0)" /></g><circle class="sym" cx="0" cy="0" r="3" /><text class="lab" transform="translate(0 -11)" /></g></g></g><g class="tree t2" transform="translate(210 0)"><g class="plotbox"><g class="c2 node n8 p1 root" transform="translate(47.5 52.1736)"><g class="a8 c2 node n4 p0" transform="translate(13.75 95.1887)"><g class="a4 i1 leaf node n2 p0 sample" transform="translate(-6.875 74.0377)"><path class="edge" d="M 0 0 V -74.0377 H 6.875" /><rect class="sym" height="6" width="6" x="-3" y="-3" /><text class="lab" transform="translate(0 11)" /></g><g class="a4 i1 leaf node n3 p0 sample" transform="translate(6.875 74.0377)"><path class="edge" d="M 0 0 V -74.0377 H -6.875" /><rect class="sym" height="6" width="6" x="-3" y="-3" /><text class="lab" transform="translate(0 11)" /></g><path class="edge" d="M 0 0 V -95.1887 H -13.75" /><circle class="sym" cx="0" cy="0" r="3" /><text class="lab rgt" transform="translate(3 -7.0)">Two samples</text></g><g class="a8 c2 node n7 p1" transform="translate(-13.75 10.1365)"><g class="a7 i0 leaf node n0 p0 sample" transform="translate(-6.875 159.09)"><path class="edge" d="M 0 0 V -159.09 H 6.875" /><rect class="sym" height="6" width="6" x="-3" y="-3" /><text class="lab" transform="translate(0 11)">Nd. 0</text></g><g class="a7 i0 leaf node n1 p0 sample" transform="translate(6.875 159.09)"><path class="edge" d="M 0 0 V -159.09 H -6.875" /><rect class="sym" height="6" width="6" x="-3" y="-3" /><text class="lab" transform="translate(0 11)">Nd. 1</text></g><path class="edge" d="M 0 0 V -10.1365 H 13.75" /><circle class="sym" cx="0" cy="0" r="3" /><text class="lab lft" transform="translate(-3 -7.0)" /></g><circle class="sym" cx="0" cy="0" r="3" /><text class="lab" transform="translate(0 -11)" /></g></g></g><g class="tree t3" transform="translate(305 0)"><g class="plotbox"><g class="c2 node n10 p1 root" transform="translate(47.5 39.5201)"><g class="a10 c2 node n4 p0" transform="translate(13.75 107.842)"><g class="a4 i1 leaf node n2 p0 sample" transform="translate(-6.875 74.0377)"><path class="edge" d="M 0 0 V -74.0377 H 6.875" /><rect class="sym" height="6" width="6" x="-3" y="-3" /><text class="lab" transform="translate(0 11)" /></g><g class="a4 i1 leaf node n3 p0 sample" transform="translate(6.875 74.0377)"><path class="edge" d="M 0 0 V -74.0377 H -6.875" /><rect class="sym" height="6" width="6" x="-3" y="-3" /><text class="lab" transform="translate(0 11)" /></g><path class="edge" d="M 0 0 V -107.842 H -13.75" /><circle class="sym" cx="0" cy="0" r="3" /><text class="lab rgt" transform="translate(3 -7.0)">Two samples</text></g><g class="a10 c2 node n7 p1" transform="translate(-13.75 22.79)"><g class="a7 i0 leaf node n0 p0 sample" transform="translate(-6.875 159.09)"><path class="edge" d="M 0 0 V -159.09 H 6.875" /><rect class="sym" height="6" width="6" x="-3" y="-3" /><text class="lab" transform="translate(0 11)">Nd. 0</text></g><g class="a7 i0 leaf node n1 p0 sample" transform="translate(6.875 159.09)"><path class="edge" d="M 0 0 V -159.09 H -6.875" /><rect class="sym" height="6" width="6" x="-3" y="-3" /><text class="lab" transform="translate(0 11)">Nd. 1</text></g><path class="edge" d="M 0 0 V -22.79 H 13.75" /><circle class="sym" cx="0" cy="0" r="3" /><text class="lab lft" transform="translate(-3 -7.0)" /></g><circle class="sym" cx="0" cy="0" r="3" /><text class="lab" transform="translate(0 -11)" /></g></g></g><g class="tree t4" transform="translate(400 0)"><g class="plotbox"><g class="c2 node n13 p1 root" transform="translate(47.5 26.8)"><g class="a13 c2 node n4 p0" transform="translate(13.75 120.562)"><g class="a4 i1 leaf node n2 p0 sample" transform="translate(-6.875 74.0377)"><path class="edge" d="M 0 0 V -74.0377 H 6.875" /><rect class="sym" height="6" width="6" x="-3" y="-3" /><text class="lab" transform="translate(0 11)" /></g><g class="a4 i1 leaf node n3 p0 sample" transform="translate(6.875 74.0377)"><path class="edge" d="M 0 0 V -74.0377 H -6.875" /><rect class="sym" height="6" width="6" x="-3" y="-3" /><text class="lab" transform="translate(0 11)" /></g><path class="edge" d="M 0 0 V -120.562 H -13.75" /><circle class="sym" cx="0" cy="0" r="3" /><text class="lab rgt" transform="translate(3 -7.0)">Two samples</text></g><g class="a13 c2 node n7 p1" transform="translate(-13.75 35.5101)"><g class="a7 i0 leaf node n0 p0 sample" transform="translate(-6.875 159.09)"><path class="edge" d="M 0 0 V -159.09 H 6.875" /><rect class="sym" height="6" width="6" x="-3" y="-3" /><text class="lab" transform="translate(0 11)">Nd. 0</text></g><g class="a7 i0 leaf node n1 p0 sample" transform="translate(6.875 159.09)"><path class="edge" d="M 0 0 V -159.09 H -6.875" /><rect class="sym" height="6" width="6" x="-3" y="-3" /><text class="lab" transform="translate(0 11)">Nd. 1</text></g><path class="edge" d="M 0 0 V -35.5101 H 13.75" /><circle class="sym" cx="0" cy="0" r="3" /><text class="lab lft" transform="translate(-3 -7.0)" /></g><circle class="sym" cx="0" cy="0" r="3" /><text class="lab" transform="translate(0 -11)" /></g></g></g><g class="tree t5" transform="translate(495 0)"><g class="plotbox"><g class="c2 node n12 p1 root" transform="translate(47.5 27.3235)"><g class="a12 c2 node n4 p0" transform="translate(13.75 120.039)"><g class="a4 i1 leaf node n2 p0 sample" transform="translate(-6.875 74.0377)"><path class="edge" d="M 0 0 V -74.0377 H 6.875" /><rect class="sym" height="6" width="6" x="-3" y="-3" /><text class="lab" transform="translate(0 11)" /></g><g class="a4 i1 leaf node n3 p0 sample" transform="translate(6.875 74.0377)"><path class="edge" d="M 0 0 V -74.0377 H -6.875" /><rect class="sym" height="6" width="6" x="-3" y="-3" /><text class="lab" transform="translate(0 11)" /></g><path class="edge" d="M 0 0 V -120.039 H -13.75" /><circle class="sym" cx="0" cy="0" r="3" /><text class="lab rgt" transform="translate(3 -7.0)">Two samples</text></g><g class="a12 c2 node n7 p1" transform="translate(-13.75 34.9866)"><g class="a7 i0 leaf node n0 p0 sample" transform="translate(-6.875 159.09)"><path class="edge" d="M 0 0 V -159.09 H 6.875" /><rect class="sym" height="6" width="6" x="-3" y="-3" /><text class="lab" transform="translate(0 11)">Nd. 0</text></g><g class="a7 i0 leaf node n1 p0 sample" transform="translate(6.875 159.09)"><path class="edge" d="M 0 0 V -159.09 H -6.875" /><rect class="sym" height="6" width="6" x="-3" y="-3" /><text class="lab" transform="translate(0 11)">Nd. 1</text></g><path class="edge" d="M 0 0 V -34.9866 H 13.75" /><circle class="sym" cx="0" cy="0" r="3" /><text class="lab lft" transform="translate(-3 -7.0)" /></g><circle class="sym" cx="0" cy="0" r="3" /><text class="lab" transform="translate(0 -11)" /></g></g></g><g class="tree t6" transform="translate(590 0)"><g class="plotbox"><g class="c2 node n11 p1 root" transform="translate(47.5 30.0999)"><g class="a11 c2 node n4 p0" transform="translate(13.75 117.262)"><g class="a4 i1 leaf node n2 p0 sample" transform="translate(-6.875 74.0377)"><path class="edge" d="M 0 0 V -74.0377 H 6.875" /><rect class="sym" height="6" width="6" x="-3" y="-3" /><text class="lab" transform="translate(0 11)" /></g><g class="a4 i1 leaf node n3 p0 sample" transform="translate(6.875 74.0377)"><path class="edge" d="M 0 0 V -74.0377 H -6.875" /><rect class="sym" height="6" width="6" x="-3" y="-3" /><text class="lab" transform="translate(0 11)" /></g><path class="edge" d="M 0 0 V -117.262 H -13.75" /><circle class="sym" cx="0" cy="0" r="3" /><text class="lab rgt" transform="translate(3 -7.0)">Two samples</text></g><g class="a11 c2 node n7 p1" transform="translate(-13.75 32.2103)"><g class="a7 i0 leaf node n0 p0 sample" transform="translate(-6.875 159.09)"><path class="edge" d="M 0 0 V -159.09 H 6.875" /><rect class="sym" height="6" width="6" x="-3" y="-3" /><text class="lab" transform="translate(0 11)">Nd. 0</text></g><g class="a7 i0 leaf node n1 p0 sample" transform="translate(6.875 159.09)"><path class="edge" d="M 0 0 V -159.09 H -6.875" /><rect class="sym" height="6" width="6" x="-3" y="-3" /><text class="lab" transform="translate(0 11)">Nd. 1</text></g><path class="edge" d="M 0 0 V -32.2103 H 13.75" /><circle class="sym" cx="0" cy="0" r="3" /><text class="lab lft" transform="translate(-3 -7.0)" /></g><circle class="sym" cx="0" cy="0" r="3" /><text class="lab" transform="translate(0 -11)" /></g></g></g><g class="tree t7" transform="translate(685 0)"><g class="plotbox"><g class="c2 node n9 p1 root" transform="translate(47.5 49.2246)"><g class="a9 c2 node n4 p0" transform="translate(13.75 98.1376)"><g class="a4 i1 leaf node n2 p0 sample" transform="translate(-6.875 74.0377)"><path class="edge" d="M 0 0 V -74.0377 H 6.875" /><rect class="sym" height="6" width="6" x="-3" y="-3" /><text class="lab" transform="translate(0 11)" /></g><g class="a4 i1 leaf node n3 p0 sample" transform="translate(6.875 74.0377)"><path class="edge" d="M 0 0 V -74.0377 H -6.875" /><rect class="sym" height="6" width="6" x="-3" y="-3" /><text class="lab" transform="translate(0 11)" /></g><path class="edge" d="M 0 0 V -98.1376 H -13.75" /><circle class="sym" cx="0" cy="0" r="3" /><text class="lab rgt" transform="translate(3 -7.0)">Two samples</text></g><g class="a9 c2 node n7 p1" transform="translate(-13.75 13.0855)"><g class="a7 i0 leaf node n0 p0 sample" transform="translate(-6.875 159.09)"><path class="edge" d="M 0 0 V -159.09 H 6.875" /><rect class="sym" height="6" width="6" x="-3" y="-3" /><text class="lab" transform="translate(0 11)">Nd. 0</text></g><g class="a7 i0 leaf node n1 p0 sample" transform="translate(6.875 159.09)"><path class="edge" d="M 0 0 V -159.09 H -6.875" /><rect class="sym" height="6" width="6" x="-3" y="-3" /><text class="lab" transform="translate(0 11)">Nd. 1</text></g><path class="edge" d="M 0 0 V -13.0855 H 13.75" /><circle class="sym" cx="0" cy="0" r="3" /><text class="lab lft" transform="translate(-3 -7.0)" /></g><circle class="sym" cx="0" cy="0" r="3" /><text class="lab" transform="translate(0 -11)" /></g></g></g></g></g></svg>