<svg baseProfile="full" height="250" id="svg1" version="1.1" width="500" xmlns="http://www.w3.org/2000/svg" xmlns:ev="http://www.w3.org/2001/xml-events" xmlns:xlink="http://www.w3.org/1999/xlink"><defs><style type="text/css"><![CDATA[.background path {fill: #808080; fill-opacity: 0}.background path:nth-child(odd) {fill-opacity: .1}.x-regions rect {fill: yellow; stroke: black; opacity: 0.5}.axes {font-size: 14px}.x-axis .tick .lab {font-weight: bold; dominant-baseline: hanging}.axes, .tree {font-size: 14px; text-anchor: middle}.axes line, .edge {stroke: black; fill: none}.axes .ax-skip {stroke-dasharray: 4}.y-axis .grid {stroke: #FAFAFA}.node > .sym {fill: black; stroke: none}.site > .sym {stroke: black}.mut text {fill: red; font-style: italic}.mut.extra text {fill: hotpink}.mut line {fill: none; stroke: none}.mut .sym {fill: none; stroke: red}.mut.extra .sym {stroke: hotpink}.node .mut .sym {stroke-width: 1.5px}.tree text, .tree-sequence text {dominant-baseline: central}.plotbox .lab.lft {text-anchor: end}.plotbox .lab.rgt {text-anchor: start}.polytomy line {stroke: black; stroke-dasharray: 1px, 1px}.polytomy text {paint-order:stroke;stroke-width:0.3em;stroke:white}#svg1 .tree:not(.t2) .node.a10.n0 > .edge,#svg1 .tree:not(.t2) .node.a10.n3 > .edge,#svg1 .tree:not(.t2) .node.a11.n6 > .edge,#svg1 .tree:not(.t2) .node.a11.n8 > .edge,#svg1 .tree:not(.t2) .node.a12.n5 > .edge,#svg1 .tree:not(.t2) .node.a12.n11 > .edge,#svg1 .tree:not(.t2) .node.a15.n7 > .edge,#svg1 .tree:not(.t2) .node.a15.n9 > .edge,#svg1 .tree:not(.t2) .node.a16.n12 > .edge,#svg1 .tree:not(.t2) .node.a17.n4 > .edge,#svg1 .tree:not(.t2) .node.a17.n10 > .edge,#svg1 .tree:not(.t2) .node.a18.n1 > .edge,#svg1 .tree:not(.t2) .node.a18.n17 > .edge,#svg1 .tree:not(.t2) .node.a19.n18 > .edge,#svg1 .tree:not(.t2) .node.a20.n16 > .edge,#svg1 .tree:not(.t2) .node.a22.n15 > .edge,#svg1 .tree:not(.t2) .node.a23.n19 > .edge,#svg1 .tree:not(.t2) .node.a23.n20 > .edge,#svg1 .tree:not(.t2) .node.a24.n22 > .edge,#svg1 .tree:not(.t2) .node.a24.n23 > .edge{stroke:#00DD00; stroke-width: 2px}.node:not(.sample) > .sym, .node:not(.sample) > .lab {visibility: hidden;}.mut {font-size: 12px} .y-axis .tick .lab {font-size: 85%}]]></style></defs><g class="tree-sequence"><g class="background"><path d="M20,0 l230,0 l0,188.2 l107.64,25 l0,5 l-337.64,0 l0,-5 l0,-25 l0,-188.2z"/><path d="M250,0 l230,0 l0,188.2 l0,25 l0,5 l-122.36,0 l0,-5 l-107.64,-25 l0,-188.2z"/></g><g class="axes"><g class="x-axis"><g class="title" transform="translate(250 250)"><text class="lab" text-anchor="middle" transform="translate(0 -11)">Genome position</text></g><line class="ax-line" x1="20" x2="480" y1="213.2" y2="213.2"/><g class="ticks"><g class="tick" transform="translate(20 213.2)"><line x1="0" x2="0" y1="0" y2="5"/><g transform="translate(0 6)"><text class="lab">0</text></g></g><g class="tick" transform="translate(357.64 213.2)"><line x1="0" x2="0" y1="0" y2="5"/><g transform="translate(0 6)"><text class="lab">367</text></g></g></g></g></g><g class="plotbox trees"><g class="tree t-1" transform="translate(20 0)"><g class="plotbox"><g class="c2 node n24 p0 root" transform="translate(152.109 26.8)"><g class="a24 c1 node n22 p0" transform="translate(38.8906 62.6671)"><g class="a22 c2 node n15 p0" transform="translate(0.0 69.8113)"><g class="a15 i3 leaf node n7 p2 sample" transform="translate(-9.5 12.1216)"><path class="edge e8" d="M 0 0 V -12.1216 H 9.5"/><rect class="sym" height="6" width="6" x="-3" y="-3"/><text class="lab" transform="translate(0 11)">i</text></g><g class="a15 i4 leaf node n9 p2 sample" transform="translate(9.5 12.1216)"><path class="edge e9" d="M 0 0 V -12.1216 H -9.5"/><rect class="sym" height="6" width="6" x="-3" y="-3"/><text class="lab" transform="translate(0 11)">j</text></g><path class="edge e19" d="M 0 0 V -69.8113 H 0.0"/><circle class="sym" cx="0" cy="0" r="3"/><text class="lab lft" transform="translate(-3 -7)">p</text></g><path class="edge e22" d="M 0 0 V -62.6671 H -38.8906"/><circle class="sym" cx="0" cy="0" r="3"/><text class="lab rgt" transform="translate(3 -7)">w</text></g><g class="a24 c2 node n23 p0" transform="translate(-38.8906 44.2523)"><g class="a23 c2 node n19 p0" transform="translate(-25.5312 40.5412)"><g class="a19 c1 node n13 p0" transform="translate(17.8125 47.9219)"><g class="a13 i1 leaf node n2 p1 sample" transform="translate(0.0 11.8846)"><path class="edge e6" d="M 0 0 V -11.8846 H 0.0"/><rect class="sym" height="6" width="6" x="-3" y="-3"/><text class="lab" transform="translate(0 11)">e</text></g><path class="edge e16" d="M 0 0 V -47.9219 H -17.8125"/><circle class="sym" cx="0" cy="0" r="3"/><text class="lab rgt" transform="translate(3 -7)">n</text></g><g class="a19 c2 node n18 p0" transform="translate(-17.8125 20.3741)"><g class="a18 i0 leaf node n1 p1 sample" transform="translate(16.625 39.4324)"><path class="edge e14" d="M 0 0 V -39.4324 H -16.625"/><rect class="sym" height="6" width="6" x="-3" y="-3"/><text class="lab" transform="translate(0 11)">d</text></g><g class="a18 c2 node n17 p0" transform="translate(-16.625 20.727)"><g class="a17 i2 leaf node n4 p2 sample" transform="translate(14.25 18.7054)"><path class="edge e12" d="M 0 0 V -18.7054 H -14.25"/><rect class="sym" height="6" width="6" x="-3" y="-3"/><text class="lab" transform="translate(0 11)">c</text></g><g class="a17 c2 node n10 p1" transform="translate(-14.25 15.7375)"><g class="a10 i0 leaf node n0 p1 sample" transform="translate(-9.5 2.96787)"><path class="edge e0" d="M 0 0 V -2.96787 H 9.5"/><rect class="sym" height="6" width="6" x="-3" y="-3"/><text class="lab" transform="translate(0 11)">a</text></g><g class="a10 i1 leaf node n3 p1 sample" transform="translate(9.5 2.96787)"><path class="edge e1" d="M 0 0 V -2.96787 H -9.5"/><rect class="sym" height="6" width="6" x="-3" y="-3"/><text class="lab" transform="translate(0 11)">b</text></g><path class="edge e13" d="M 0 0 V -15.7375 H 14.25"/><circle class="sym" cx="0" cy="0" r="3"/><text class="lab lft" transform="translate(-3 -7)">k</text></g><path class="edge e15" d="M 0 0 V -20.727 H 16.625"/><circle class="sym" cx="0" cy="0" r="3"/><text class="lab lft" transform="translate(-3 -7)">r</text></g><path class="edge e17" d="M 0 0 V -20.3741 H 17.8125"/><circle class="sym" cx="0" cy="0" r="3"/><text class="lab lft" transform="translate(-3 -7)">s</text></g><path class="edge e20" d="M 0 0 V -40.5412 H 25.5312"/><circle class="sym" cx="0" cy="0" r="3"/><text class="lab lft" transform="translate(-3 -7)">t</text></g><g class="a23 c1 node n20 p0" transform="translate(25.5312 33.5188)"><g class="a20 c1 node n16 p0" transform="translate(0.0 51.0034)"><g class="a16 c2 node n12 p0" transform="translate(0.0 4.1582)"><g class="a12 i2 leaf node n5 p2 sample" transform="translate(-14.25 11.6673)"><path class="edge e4" d="M 0 0 V -11.6673 H 14.25"/><rect class="sym" height="6" width="6" x="-3" y="-3"/><text class="lab" transform="translate(0 11)">f</text></g><g class="a12 c2 node n11 p2" transform="translate(14.25 7.0161)"><g class="a11 i3 leaf node n6 p2 sample" transform="translate(-9.5 4.65121)"><path class="edge e2" d="M 0 0 V -4.65121 H 9.5"/><rect class="sym" height="6" width="6" x="-3" y="-3"/><text class="lab" transform="translate(0 11)">g</text></g><g class="a11 i4 leaf node n8 p2 sample" transform="translate(9.5 4.65121)"><path class="edge e3" d="M 0 0 V -4.65121 H -9.5"/><rect class="sym" height="6" width="6" x="-3" y="-3"/><text class="lab" transform="translate(0 11)">h</text></g><path class="edge e5" d="M 0 0 V -7.0161 H -14.25"/><circle class="sym" cx="0" cy="0" r="3"/><text class="lab rgt" transform="translate(3 -7)">l</text></g><path class="edge e10" d="M 0 0 V -4.1582 H 0.0"/><circle class="sym" cx="0" cy="0" r="3"/><text class="lab lft" transform="translate(-3 -7)">m</text></g><path class="edge e18" d="M 0 0 V -51.0034 H 0.0"/><circle class="sym" cx="0" cy="0" r="3"/><text class="lab lft" transform="translate(-3 -7)">q</text></g><path class="edge e21" d="M 0 0 V -33.5188 H -25.5312"/><circle class="sym" cx="0" cy="0" r="3"/><text class="lab rgt" transform="translate(3 -7)">u</text></g><path class="edge e23" d="M 0 0 V -44.2523 H 38.8906"/><circle class="sym" cx="0" cy="0" r="3"/><text class="lab lft" transform="translate(-3 -7)">x</text></g><circle class="sym" cx="0" cy="0" r="3"/><text class="lab" transform="translate(0 -11)">y</text></g></g></g><g class="tree t0" transform="translate(250 0)"><g class="plotbox"><g class="c2 node n24 p0 root" transform="translate(143.5 26.8)"><g class="a24 c1 node n22 p0" transform="translate(47.5 62.6671)"><g class="a22 c2 node n15 p0" transform="translate(0.0 69.8113)"><g class="a15 i3 leaf node n7 p2 sample" transform="translate(-9.5 12.1216)"><path class="edge e8" d="M 0 0 V -12.1216 H 9.5"/><rect class="sym" height="6" width="6" x="-3" y="-3"/><text class="lab" transform="translate(0 11)">i</text></g><g class="a15 i4 leaf node n9 p2 sample" transform="translate(9.5 12.1216)"><path class="edge e9" d="M 0 0 V -12.1216 H -9.5"/><rect class="sym" height="6" width="6" x="-3" y="-3"/><text class="lab" transform="translate(0 11)">j</text></g><path class="edge e19" d="M 0 0 V -69.8113 H 0.0"/><circle class="sym" cx="0" cy="0" r="3"/><text class="lab lft" transform="translate(-3 -7)">p</text></g><path class="edge e22" d="M 0 0 V -62.6671 H -47.5"/><circle class="sym" cx="0" cy="0" r="3"/><text class="lab rgt" transform="translate(3 -7)">w</text></g><g class="a24 c2 node n23 p0" transform="translate(-47.5 44.2523)"><g class="a23 c1 node n19 p0" transform="translate(-26.125 40.5412)"><g class="a19 c2 node n18 p0" transform="translate(0.0 20.3741)"><g class="a18 i0 leaf node n1 p1 sample" transform="translate(16.625 39.4324)"><path class="edge e14" d="M 0 0 V -39.4324 H -16.625"/><rect class="sym" height="6" width="6" x="-3" y="-3"/><text class="lab" transform="translate(0 11)">d</text></g><g class="a18 c2 node n17 p0" transform="translate(-16.625 20.727)"><g class="a17 i2 leaf node n4 p2 sample" transform="translate(14.25 18.7054)"><path class="edge e12" d="M 0 0 V -18.7054 H -14.25"/><rect class="sym" height="6" width="6" x="-3" y="-3"/><text class="lab" transform="translate(0 11)">c</text></g><g class="a17 c2 node n10 p1" transform="translate(-14.25 15.7375)"><g class="a10 i0 leaf node n0 p1 sample" transform="translate(-9.5 2.96787)"><path class="edge e0" d="M 0 0 V -2.96787 H 9.5"/><rect class="sym" height="6" width="6" x="-3" y="-3"/><text class="lab" transform="translate(0 11)">a</text></g><g class="a10 i1 leaf node n3 p1 sample" transform="translate(9.5 2.96787)"><path class="edge e1" d="M 0 0 V -2.96787 H -9.5"/><rect class="sym" height="6" width="6" x="-3" y="-3"/><text class="lab" transform="translate(0 11)">b</text></g><path class="edge e13" d="M 0 0 V -15.7375 H 14.25"/><circle class="sym" cx="0" cy="0" r="3"/><text class="lab lft" transform="translate(-3 -7)">k</text></g><path class="edge e15" d="M 0 0 V -20.727 H 16.625"/><circle class="sym" cx="0" cy="0" r="3"/><text class="lab lft" transform="translate(-3 -7)">r</text></g><path class="edge e17" d="M 0 0 V -20.3741 H 0.0"/><circle class="sym" cx="0" cy="0" r="3"/><text class="lab lft" transform="translate(-3 -7)">s</text></g><path class="edge e20" d="M 0 0 V -40.5412 H 26.125"/><circle class="sym" cx="0" cy="0" r="3"/><text class="lab lft" transform="translate(-3 -7)">t</text></g><g class="a23 c1 node n20 p0" transform="translate(26.125 33.5188)"><g class="a20 c2 node n16 p0" transform="translate(0.0 51.0034)"><g class="a16 c2 node n12 p0" transform="translate(16.625 4.1582)"><g class="a12 i2 leaf node n5 p2 sample" transform="translate(-14.25 11.6673)"><path class="edge e4" d="M 0 0 V -11.6673 H 14.25"/><rect class="sym" height="6" width="6" x="-3" y="-3"/><text class="lab" transform="translate(0 11)">f</text></g><g class="a12 c2 node n11 p2" transform="translate(14.25 7.0161)"><g class="a11 i3 leaf node n6 p2 sample" transform="translate(-9.5 4.65121)"><path class="edge e2" d="M 0 0 V -4.65121 H 9.5"/><rect class="sym" height="6" width="6" x="-3" y="-3"/><text class="lab" transform="translate(0 11)">g</text></g><g class="a11 i4 leaf node n8 p2 sample" transform="translate(9.5 4.65121)"><path class="edge e3" d="M 0 0 V -4.65121 H -9.5"/><rect class="sym" height="6" width="6" x="-3" y="-3"/><text class="lab" transform="translate(0 11)">h</text></g><path class="edge e5" d="M 0 0 V -7.0161 H -14.25"/><circle class="sym" cx="0" cy="0" r="3"/><text class="lab rgt" transform="translate(3 -7)">l</text></g><path class="edge e10" d="M 0 0 V -4.1582 H -16.625"/><circle class="sym" cx="0" cy="0" r="3"/><text class="lab rgt" transform="translate(3 -7)">m</text></g><g class="a16 c1 node n14 p0" transform="translate(-16.625 3.94089)"><g class="a14 i1 leaf node n2 p1 sample" transform="translate(0.0 11.8846)"><path class="edge e7" d="M 0 0 V -11.8846 H 0.0"/><rect class="sym" height="6" width="6" x="-3" y="-3"/><text class="lab" transform="translate(0 11)">e</text></g><path class="edge e11" d="M 0 0 V -3.94089 H 16.625"/><circle class="sym" cx="0" cy="0" r="3"/><text class="lab lft" transform="translate(-3 -7)">o</text></g><path class="edge e18" d="M 0 0 V -51.0034 H 0.0"/><circle class="sym" cx="0" cy="0" r="3"/><text class="lab lft" transform="translate(-3 -7)">q</text></g><path class="edge e21" d="M 0 0 V -33.5188 H -26.125"/><circle class="sym" cx="0" cy="0" r="3"/><text class="lab rgt" transform="translate(3 -7)">u</text></g><path class="edge e23" d="M 0 0 V -44.2523 H 47.5"/><circle class="sym" cx="0" cy="0" r="3"/><text class="lab lft" transform="translate(-3 -7)">x</text></g><circle class="sym" cx="0" cy="0" r="3"/><text class="lab" transform="translate(0 -11)">y</text></g></g></g></g></g></svg>