<svg baseProfile="full" height="200" version="1.1" width="800" xmlns="http://www.w3.org/2000/svg" xmlns:ev="http://www.w3.org/2001/xml-events" xmlns:xlink="http://www.w3.org/1999/xlink"><text text-anchor="middle" y="15" x="120.0">0 trees</text><text text-anchor="middle" y="15" x="310.0">0 trees</text><text text-anchor="middle" y="15" x="500.0">1188 trees</text><text text-anchor="middle" y="15" x="690.0">396 trees</text><defs><style type="text/css"><![CDATA[.background path {fill: #808080; fill-opacity: 0}.background path:nth-child(odd) {fill-opacity: .1}.x-regions rect {fill: yellow; stroke: black; opacity: 0.5}.axes {font-size: 14px}.x-axis .tick .lab {font-weight: bold; dominant-baseline: hanging}.axes, .tree {font-size: 14px; text-anchor: middle}.axes line, .edge {stroke: black; fill: none}.axes .ax-skip {stroke-dasharray: 4}.y-axis .grid {stroke: #FAFAFA}.node > .sym {fill: black; stroke: none}.site > .sym {stroke: black}.mut text {fill: red; font-style: italic}.mut.extra text {fill: hotpink}.mut line {fill: none; stroke: none}.mut .sym {fill: none; stroke: red}.mut.extra .sym {stroke: hotpink}.node .mut .sym {stroke-width: 1.5px}.tree text, .tree-sequence text {dominant-baseline: central}.plotbox .lab.lft {text-anchor: end}.plotbox .lab.rgt {text-anchor: start}.polytomy line {stroke: black; stroke-dasharray: 1px, 1px}.polytomy text {paint-order:stroke;stroke-width:0.3em;stroke:white}.leaf.n0 > .sym {fill: green; stroke: grey}.leaf.n1 > .sym {fill: yellow; stroke: grey}.leaf.n2 > .sym {fill: magenta; stroke: grey}]]></style></defs><g class="tree-sequence"><g class="plotbox trees"><g class="tree t0" transform="translate(20 16.8)"><g class="plotbox"><g class="c3 node n3 root" transform="translate(95 84.1)"><g class="a3 leaf node n0 sample" transform="translate(-50 57.3)"><path class="edge e0" d="M 0 0 V -57.3 H 50"/><rect class="sym" height="6" width="6" x="-3" y="-3"/><text class="lab" transform="translate(0 11)">Han</text></g><g class="a3 leaf node n1 sample" transform="translate(0.0 57.3)"><path class="edge e1" d="M 0 0 V -57.3 H 0.0"/><rect class="sym" height="6" width="6" x="-3" y="-3"/><text class="lab" transform="translate(0 11)">San</text></g><g class="a3 leaf node n2 sample" transform="translate(50 57.3)"><path class="edge e2" d="M 0 0 V -57.3 H -50"/><rect class="sym" height="6" width="6" x="-3" y="-3"/><text class="lab" transform="translate(0 11)">Denisovan</text></g><circle class="sym" cx="0" cy="0" r="3"/><text class="lab" transform="translate(0 -11)"/></g></g></g><g class="tree t1" transform="translate(210 16.8)"><g class="plotbox"><g class="c2 node n5 root" transform="translate(82.5 26.8)"><g class="a5 leaf node n0 sample" transform="translate(-37.5 114.6)"><path class="edge e9" d="M 0 0 V -114.6 H 37.5"/><rect class="sym" height="6" width="6" x="-3" y="-3"/><text class="lab" transform="translate(0 11)">Han</text></g><g class="a5 c2 node n4" transform="translate(37.5 57.3)"><g class="a4 leaf node n1 sample" transform="translate(-25 57.3)"><path class="edge e3" d="M 0 0 V -57.3 H 25"/><rect class="sym" height="6" width="6" x="-3" y="-3"/><text class="lab" transform="translate(0 11)">San</text></g><g class="a4 leaf node n2 sample" transform="translate(25 57.3)"><path class="edge e4" d="M 0 0 V -57.3 H -25"/><rect class="sym" height="6" width="6" x="-3" y="-3"/><text class="lab" transform="translate(0 11)">Denisovan</text></g><path class="edge e10" d="M 0 0 V -57.3 H -37.5"/><circle class="sym" cx="0" cy="0" r="3"/><text class="lab rgt" transform="translate(3 -7)"/></g><circle class="sym" cx="0" cy="0" r="3"/><text class="lab" transform="translate(0 -11)"/></g></g></g><g class="tree t2" transform="translate(400 16.8)"><g class="plotbox"><g class="c2 node n7 root" transform="translate(107.5 26.8)"><g class="a7 leaf node n1 sample" transform="translate(37.5 114.6)"><path class="edge e11" d="M 0 0 V -114.6 H -37.5"/><rect class="sym" height="6" width="6" x="-3" y="-3"/><text class="lab" transform="translate(0 11)">San</text></g><g class="a7 c2 node n6" transform="translate(-37.5 57.3)"><g class="a6 leaf node n0 sample" transform="translate(-25 57.3)"><path class="edge e5" d="M 0 0 V -57.3 H 25"/><rect class="sym" height="6" width="6" x="-3" y="-3"/><text class="lab" transform="translate(0 11)">Han</text></g><g class="a6 leaf node n2 sample" transform="translate(25 57.3)"><path class="edge e6" d="M 0 0 V -57.3 H -25"/><rect class="sym" height="6" width="6" x="-3" y="-3"/><text class="lab" transform="translate(0 11)">Denisovan</text></g><path class="edge e12" d="M 0 0 V -57.3 H 37.5"/><circle class="sym" cx="0" cy="0" r="3"/><text class="lab lft" transform="translate(-3 -7)"/></g><circle class="sym" cx="0" cy="0" r="3"/><text class="lab" transform="translate(0 -11)"/></g></g></g><g class="tree t3" transform="translate(590 16.8)"><g class="plotbox"><g class="c2 node n9 root" transform="translate(107.5 26.8)"><g class="a9 leaf node n2 sample" transform="translate(37.5 114.6)"><path class="edge e13" d="M 0 0 V -114.6 H -37.5"/><rect class="sym" height="6" width="6" x="-3" y="-3"/><text class="lab" transform="translate(0 11)">Denisovan</text></g><g class="a9 c2 node n8" transform="translate(-37.5 57.3)"><g class="a8 leaf node n0 sample" transform="translate(-25 57.3)"><path class="edge e7" d="M 0 0 V -57.3 H 25"/><rect class="sym" height="6" width="6" x="-3" y="-3"/><text class="lab" transform="translate(0 11)">Han</text></g><g class="a8 leaf node n1 sample" transform="translate(25 57.3)"><path class="edge e8" d="M 0 0 V -57.3 H -25"/><rect class="sym" height="6" width="6" x="-3" y="-3"/><text class="lab" transform="translate(0 11)">San</text></g><path class="edge e14" d="M 0 0 V -57.3 H 37.5"/><circle class="sym" cx="0" cy="0" r="3"/><text class="lab lft" transform="translate(-3 -7)"/></g><circle class="sym" cx="0" cy="0" r="3"/><text class="lab" transform="translate(0 -11)"/></g></g></g></g></g><g class="title" transform="translate(400 0)"><text dominant-baseline="hanging" text-anchor="middle"/></g></svg>