<svg xmlns="http://www.w3.org/2000/svg" xmlns:ev="http://www.w3.org/2001/xml-events" xmlns:xlink="http://www.w3.org/1999/xlink" baseProfile="full" height="200" version="1.1" width="200"><defs><style type="text/css"><![CDATA[.background path {fill: #808080; fill-opacity:0}.background path:nth-child(odd) {fill-opacity:.1}.axes {font-size: 14px}.x-axis .tick .lab {font-weight: bold}.axes, .tree {font-size: 14px; text-anchor:middle}.y-axis line.grid {stroke: #FAFAFA}.y-axis > .lab text {transform: translateX(0.8em) rotate(-90deg)}.x-axis .tick g {transform: translateY(0.9em)}.x-axis > .lab text {transform: translateY(-0.8em)}.axes line, .edge {stroke:black; fill:none}.node > .sym {fill: black; stroke: none}.site > .sym {stroke: black}.mut text {fill: red; font-style: italic}.mut.extra text {fill: hotpink}.mut line {fill: none; stroke: none}.mut .sym {fill: none; stroke: red}.mut.extra .sym {stroke: hotpink}.node .mut .sym {stroke-width: 1.5px}.tree text, .tree-sequence text {dominant-baseline: central}.plotbox .lab.lft {text-anchor: end}.plotbox .lab.rgt {text-anchor: start}]]></style></defs><g class="tree t0"><g class="plotbox"><g class="node n6 p1 root" transform="translate(125 26.8)"><g class="a6 i1 leaf node n3 p1 sample" transform="translate(35 141.4)"><path class="edge" d="M 0 0 V -141.4 H -35"/><rect class="sym" height="6" style="fill:blue;" width="6" x="-3" y="-3"/><text class="lab" transform="translate(0 11)">3</text></g><g class="a6 node n5 p1" transform="translate(-35 60.9453)"><g class="a5 i0 leaf node n1 p0 sample" transform="translate(30 80.4547)"><path class="edge" d="M 0 0 V -80.4547 H -30"/><rect class="sym" height="6" style="fill:red;" width="6" x="-3" y="-3"/><text class="lab" transform="translate(0 11)">1</text></g><g class="a5 node n4 p0" transform="translate(-30 41.8662)"><g class="a4 i0 leaf node n0 p0 sample" transform="translate(-20 38.5885)"><path class="edge" d="M 0 0 V -38.5885 H 20"/><rect class="sym" height="6" style="fill:red;" width="6" x="-3" y="-3"/><text class="lab" transform="translate(0 11)">0</text></g><g class="a4 i1 leaf node n2 p1 sample" transform="translate(20 38.5885)"><path class="edge" d="M 0 0 V -38.5885 H -20"/><rect class="sym" height="6" style="fill:blue;" width="6" x="-3" y="-3"/><text class="lab" transform="translate(0 11)">2</text></g><path class="edge" d="M 0 0 V -41.8662 H 30"/><circle class="sym" cx="0" cy="0" r="3" style="fill:red;"/><text class="lab lft" transform="translate(-3 -7.0)">4</text></g><path class="edge" d="M 0 0 V -60.9453 H 35"/><circle class="sym" cx="0" cy="0" r="3" style="fill:blue;"/><text class="lab lft" transform="translate(-3 -7.0)">5</text></g><circle class="sym" cx="0" cy="0" r="3" style="fill:blue;"/><text class="lab" transform="translate(0 -11)">6</text></g></g></g></svg>