<svg xmlns="http://www.w3.org/2000/svg" xmlns:ev="http://www.w3.org/2001/xml-events" xmlns:xlink="http://www.w3.org/1999/xlink" baseProfile="full" height="200" version="1.1" width="200"><defs><style type="text/css"><![CDATA[.axis {font-weight: bold}.tree, .axis {font-size: 14px; text-anchor:middle}.edge {stroke: black; fill: none}.node > .sym {fill: black; stroke: none}.tree text {dominant-baseline: middle}.tree .lab.lft {text-anchor: end}.tree .lab.rgt {text-anchor: start}.mut {fill: red; font-style: italic}]]></style></defs><g class="tree t1"><g class="node n23 p0 root" transform="translate(145.108 30.0)"><g class="a23 node n19 p0" transform="translate(24.1226 114.678)"><g class="a19 i0 leaf node n1 p0 sample" transform="translate(-6.92308 25.3221)"><path class="edge" d="M 0 0 V -25.3221 H 6.92308"/><circle class="sym" cx="0" cy="0" r="3" style="fill:red;"/><text class="lab" transform="translate(0 12)">1</text></g><g class="a19 i5 leaf node n11 p1 sample" transform="translate(6.92308 25.3221)"><path class="edge" d="M 0 0 V -25.3221 H -6.92308"/><circle class="sym" cx="0" cy="0" r="3" style="fill:blue;"/><text class="lab" transform="translate(0 12)">11</text></g><path class="edge" d="M 0 0 V -114.678 H -24.1226"/><circle class="sym" cx="0" cy="0" r="3" style="fill:red;"/><text class="lab rgt" transform="translate(3 -6)">19</text></g><g class="a23 node n22 p0" transform="translate(-24.1226 29.0282)"><g class="a22 i1 leaf node n3 p0 sample" transform="translate(27.476 110.972)"><path class="edge" d="M 0 0 V -110.972 H -27.476"/><circle class="sym" cx="0" cy="0" r="3" style="fill:red;"/><text class="lab" transform="translate(0 12)">3</text></g><g class="a22 node n21 p0" transform="translate(-27.476 34.0529)"><g class="a21 node n13 p1" transform="translate(30.7212 69.1531)"><g class="a13 i3 leaf node n6 p1 sample" transform="translate(10.3846 7.76584)"><path class="edge" d="M 0 0 V -7.76584 H -10.3846"/><circle class="sym" cx="0" cy="0" r="3" style="fill:blue;"/><text class="lab" transform="translate(0 12)">6</text></g><g class="a13 node n12 p1" transform="translate(-10.3846 1.07799)"><g class="a12 i2 leaf node n4 p0 sample" transform="translate(-6.92308 6.68785)"><path class="edge" d="M 0 0 V -6.68785 H 6.92308"/><circle class="sym" cx="0" cy="0" r="3" style="fill:red;"/><text class="lab" transform="translate(0 12)">4</text></g><g class="a12 i5 leaf node n10 p1 sample" transform="translate(6.92308 6.68785)"><path class="edge" d="M 0 0 V -6.68785 H -6.92308"/><circle class="sym" cx="0" cy="0" r="3" style="fill:blue;"/><text class="lab" transform="translate(0 12)">10</text></g><path class="edge" d="M 0 0 V -1.07799 H 10.3846"/><circle class="sym" cx="0" cy="0" r="3" style="fill:blue;"/><text class="lab lft" transform="translate(-3 -6)">12</text></g><path class="edge" d="M 0 0 V -69.1531 H -30.7212"/><circle class="sym" cx="0" cy="0" r="3" style="fill:blue;"/><text class="lab rgt" transform="translate(3 -6)">13</text></g><g class="a21 node n20 p0" transform="translate(-30.7212 27.2412)"><g class="a20 node n17 p1" transform="translate(23.3654 30.7393)"><g class="a17 i4 leaf node n9 p1 sample" transform="translate(6.92308 18.9384)"><path class="edge" d="M 0 0 V -18.9384 H -6.92308"/><circle class="sym" cx="0" cy="0" r="3" style="fill:blue;"/><text class="lab" transform="translate(0 12)">9</text></g><g class="a17 i2 leaf node n5 p0 sample" transform="translate(-6.92308 18.9384)"><path class="edge" d="M 0 0 V -18.9384 H 6.92308"/><circle class="sym" cx="0" cy="0" r="3" style="fill:red;"/><text class="lab" transform="translate(0 12)">5</text></g><path class="edge" d="M 0 0 V -30.7393 H -23.3654"/><circle class="sym" cx="0" cy="0" r="3" style="fill:blue;"/><text class="lab rgt" transform="translate(3 -6)">17</text></g><g class="a20 node n18 p1" transform="translate(-23.3654 27.2437)"><g class="a18 i0 leaf node n0 p0 sample" transform="translate(-15.5769 22.434)"><path class="edge" d="M 0 0 V -22.434 H 15.5769"/><circle class="sym" cx="0" cy="0" r="3" style="fill:red;"/><text class="lab" transform="translate(0 12)">0</text></g><g class="a18 node n15 p1" transform="translate(15.5769 7.1289)"><g class="a15 i3 leaf node n7 p1 sample" transform="translate(10.3846 15.3051)"><path class="edge" d="M 0 0 V -15.3051 H -10.3846"/><circle class="sym" cx="0" cy="0" r="3" style="fill:blue;"/><text class="lab" transform="translate(0 12)">7</text></g><g class="a15 node n14 p1" transform="translate(-10.3846 6.5535)"><g class="a14 i1 leaf node n2 p0 sample" transform="translate(-6.92308 8.7516)"><path class="edge" d="M 0 0 V -8.7516 H 6.92308"/><circle class="sym" cx="0" cy="0" r="3" style="fill:red;"/><text class="lab" transform="translate(0 12)">2</text></g><g class="a14 i4 leaf node n8 p1 sample" transform="translate(6.92308 8.7516)"><path class="edge" d="M 0 0 V -8.7516 H -6.92308"/><circle class="sym" cx="0" cy="0" r="3" style="fill:blue;"/><text class="lab" transform="translate(0 12)">8</text></g><path class="edge" d="M 0 0 V -6.5535 H 10.3846"/><circle class="sym" cx="0" cy="0" r="3" style="fill:blue;"/><text class="lab lft" transform="translate(-3 -6)">14</text></g><path class="edge" d="M 0 0 V -7.1289 H -15.5769"/><circle class="sym" cx="0" cy="0" r="3" style="fill:blue;"/><text class="lab rgt" transform="translate(3 -6)">15</text></g><path class="edge" d="M 0 0 V -27.2437 H 23.3654"/><circle class="sym" cx="0" cy="0" r="3" style="fill:blue;"/><text class="lab lft" transform="translate(-3 -6)">18</text></g><path class="edge" d="M 0 0 V -27.2412 H 30.7212"/><circle class="sym" cx="0" cy="0" r="3" style="fill:red;"/><text class="lab lft" transform="translate(-3 -6)">20</text></g><path class="edge" d="M 0 0 V -34.0529 H 27.476"/><circle class="sym" cx="0" cy="0" r="3" style="fill:red;"/><text class="lab lft" transform="translate(-3 -6)">21</text></g><path class="edge" d="M 0 0 V -29.0282 H 24.1226"/><circle class="sym" cx="0" cy="0" r="3" style="fill:red;"/><text class="lab lft" transform="translate(-3 -6)">22</text></g><circle class="sym" cx="0" cy="0" r="3" style="fill:red;"/><text class="lab" transform="translate(0 -10)">23</text></g></g></svg>