<svg xmlns="http://www.w3.org/2000/svg" xmlns:ev="http://www.w3.org/2001/xml-events" xmlns:xlink="http://www.w3.org/1999/xlink" baseProfile="full" height="200" version="1.1" width="200"><defs><style type="text/css"><![CDATA[.axis {font-weight: bold}.tree, .axis {font-size: 14px; text-anchor:middle}.edge {stroke: black; fill: none}.node > .sym {fill: black; stroke: none}.tree text {dominant-baseline: middle}.tree .lab.lft {text-anchor: end}.tree .lab.rgt {text-anchor: start}.mut {fill: red; font-style: italic}]]></style></defs><g class="tree t1"><g class="node n23 p1 root" transform="translate(119.471 30.0)"><g class="a23 node n22 p1" transform="translate(-35.9135 80.5252)"><g class="a22 node n16 p1" transform="translate(26.8269 47.0841)"><g class="a16 i5 leaf node n10 p1 sample" transform="translate(10.3846 12.3907)"><path class="edge" d="M 0 0 V -12.3907 H -10.3846"/><circle class="sym" cx="0" cy="0" r="3" style="fill:blue;"/><text class="lab" transform="translate(0 12)">10</text></g><g class="a16 node n12 p1" transform="translate(-10.3846 10.7353)"><g class="a12 i1 leaf node n2 p0 sample" transform="translate(-6.92308 1.65541)"><path class="edge" d="M 0 0 V -1.65541 H 6.92308"/><circle class="sym" cx="0" cy="0" r="3" style="fill:red;"/><text class="lab" transform="translate(0 12)">2</text></g><g class="a12 i3 leaf node n7 p1 sample" transform="translate(6.92308 1.65541)"><path class="edge" d="M 0 0 V -1.65541 H -6.92308"/><circle class="sym" cx="0" cy="0" r="3" style="fill:blue;"/><text class="lab" transform="translate(0 12)">7</text></g><path class="edge" d="M 0 0 V -10.7353 H 10.3846"/><circle class="sym" cx="0" cy="0" r="3" style="fill:blue;"/><text class="lab lft" transform="translate(-3 -6)">12</text></g><path class="edge" d="M 0 0 V -47.0841 H -26.8269"/><circle class="sym" cx="0" cy="0" r="3" style="fill:blue;"/><text class="lab rgt" transform="translate(3 -6)">16</text></g><g class="a22 node n21 p1" transform="translate(-26.8269 1.28148)"><g class="a21 node n13 p1" transform="translate(15.5769 51.1922)"><g class="a13 i2 leaf node n5 p0 sample" transform="translate(-6.92308 7.0011)"><path class="edge" d="M 0 0 V -7.0011 H 6.92308"/><circle class="sym" cx="0" cy="0" r="3" style="fill:red;"/><text class="lab" transform="translate(0 12)">5</text></g><g class="a13 i5 leaf node n11 p1 sample" transform="translate(6.92308 7.0011)"><path class="edge" d="M 0 0 V -7.0011 H -6.92308"/><circle class="sym" cx="0" cy="0" r="3" style="fill:blue;"/><text class="lab" transform="translate(0 12)">11</text></g><path class="edge" d="M 0 0 V -51.1922 H -15.5769"/><circle class="sym" cx="0" cy="0" r="3" style="fill:blue;"/><text class="lab rgt" transform="translate(3 -6)">13</text></g><g class="a21 node n20 p1" transform="translate(-15.5769 6.19046)"><g class="a20 i1 leaf node n3 p0 sample" transform="translate(10.3846 52.0028)"><path class="edge" d="M 0 0 V -52.0028 H -10.3846"/><circle class="sym" cx="0" cy="0" r="3" style="fill:red;"/><text class="lab" transform="translate(0 12)">3</text></g><g class="a20 node n15 p1" transform="translate(-10.3846 40.5017)"><g class="a15 i0 leaf node n0 p0 sample" transform="translate(-6.92308 11.5011)"><path class="edge" d="M 0 0 V -11.5011 H 6.92308"/><circle class="sym" cx="0" cy="0" r="3" style="fill:red;"/><text class="lab" transform="translate(0 12)">0</text></g><g class="a15 i4 leaf node n9 p1 sample" transform="translate(6.92308 11.5011)"><path class="edge" d="M 0 0 V -11.5011 H -6.92308"/><circle class="sym" cx="0" cy="0" r="3" style="fill:blue;"/><text class="lab" transform="translate(0 12)">9</text></g><path class="edge" d="M 0 0 V -40.5017 H 10.3846"/><circle class="sym" cx="0" cy="0" r="3" style="fill:blue;"/><text class="lab lft" transform="translate(-3 -6)">15</text></g><path class="edge" d="M 0 0 V -6.19046 H 15.5769"/><circle class="sym" cx="0" cy="0" r="3" style="fill:blue;"/><text class="lab lft" transform="translate(-3 -6)">20</text></g><path class="edge" d="M 0 0 V -1.28148 H 26.8269"/><circle class="sym" cx="0" cy="0" r="3" style="fill:blue;"/><text class="lab lft" transform="translate(-3 -6)">21</text></g><path class="edge" d="M 0 0 V -80.5252 H 35.9135"/><circle class="sym" cx="0" cy="0" r="3" style="fill:blue;"/><text class="lab lft" transform="translate(-3 -6)">22</text></g><g class="a23 node n18 p1" transform="translate(35.9135 109.417)"><g class="a18 node n14 p1" transform="translate(-13.8462 23.1382)"><g class="a14 i0 leaf node n1 p0 sample" transform="translate(-6.92308 7.4444)"><path class="edge" d="M 0 0 V -7.4444 H 6.92308"/><circle class="sym" cx="0" cy="0" r="3" style="fill:red;"/><text class="lab" transform="translate(0 12)">1</text></g><g class="a14 i4 leaf node n8 p1 sample" transform="translate(6.92308 7.4444)"><path class="edge" d="M 0 0 V -7.4444 H -6.92308"/><circle class="sym" cx="0" cy="0" r="3" style="fill:blue;"/><text class="lab" transform="translate(0 12)">8</text></g><path class="edge" d="M 0 0 V -23.1382 H 13.8462"/><circle class="sym" cx="0" cy="0" r="3" style="fill:blue;"/><text class="lab lft" transform="translate(-3 -6)">14</text></g><g class="a18 node n17 p1" transform="translate(13.8462 0.941983)"><g class="a17 i2 leaf node n4 p0 sample" transform="translate(-6.92308 29.6407)"><path class="edge" d="M 0 0 V -29.6407 H 6.92308"/><circle class="sym" cx="0" cy="0" r="3" style="fill:red;"/><text class="lab" transform="translate(0 12)">4</text></g><g class="a17 i3 leaf node n6 p1 sample" transform="translate(6.92308 29.6407)"><path class="edge" d="M 0 0 V -29.6407 H -6.92308"/><circle class="sym" cx="0" cy="0" r="3" style="fill:blue;"/><text class="lab" transform="translate(0 12)">6</text></g><path class="edge" d="M 0 0 V -0.941983 H -13.8462"/><circle class="sym" cx="0" cy="0" r="3" style="fill:blue;"/><text class="lab rgt" transform="translate(3 -6)">17</text></g><path class="edge" d="M 0 0 V -109.417 H -35.9135"/><circle class="sym" cx="0" cy="0" r="3" style="fill:blue;"/><text class="lab rgt" transform="translate(3 -6)">18</text></g><circle class="sym" cx="0" cy="0" r="3" style="fill:blue;"/><text class="lab" transform="translate(0 -10)">23</text></g></g></svg>