<svg baseProfile="full" height="300" version="1.1" width="800" xmlns="http://www.w3.org/2000/svg" xmlns:ev="http://www.w3.org/2001/xml-events" xmlns:xlink="http://www.w3.org/1999/xlink"><defs><style type="text/css"><![CDATA[.background path {fill: #808080; fill-opacity: 0}.background path:nth-child(odd) {fill-opacity: .1}.x-regions rect {fill: yellow; stroke: black; opacity: 0.5}.axes {font-size: 14px}.x-axis .tick .lab {font-weight: bold; dominant-baseline: hanging}.axes, .tree {font-size: 14px; text-anchor: middle}.axes line, .edge {stroke: black; fill: none}.axes .ax-skip {stroke-dasharray: 4}.y-axis .grid {stroke: #FAFAFA}.node > .sym {fill: black; stroke: none}.site > .sym {stroke: black}.mut text {fill: red; font-style: italic}.mut.extra text {fill: hotpink}.mut line {fill: none; stroke: none}.mut .sym {fill: none; stroke: red}.mut.extra .sym {stroke: hotpink}.node .mut .sym {stroke-width: 1.5px}.tree text, .tree-sequence text {dominant-baseline: central}.plotbox .lab.lft {text-anchor: end}.plotbox .lab.rgt {text-anchor: start}.polytomy line {stroke: black; stroke-dasharray: 1px, 1px}.polytomy text {paint-order:stroke;stroke-width:0.3em;stroke:white}]]></style></defs><g class="tree t0"><g class="plotbox"><g class="c2 node n15 p0 root" transform="translate(332.708 26.8)"><g class="a15 i0 leaf node n0 p0 sample" transform="translate(-249.375 241.4)"><path class="edge e22" d="M 0 0 V -241.4 H 249.375"/><rect class="sym" height="6" width="6" x="-3" y="-3"/><text class="lab" transform="translate(0 11)">id:0 (old id:14)</text></g><g class="a15 c2 node n12 p0" transform="translate(249.375 187.298)"><g class="a12 i1 leaf node n2 p0 sample" transform="translate(134.583 54.1016)"><path class="edge e14" d="M 0 0 V -54.1016 H -134.583"/><rect class="sym" height="6" width="6" x="-3" y="-3"/><text class="lab" transform="translate(0 11)">id:2 (old id:16)</text></g><g class="a12 c2 node n10 p0" transform="translate(-134.583 37.6302)"><g class="a10 i2 leaf node n5 p0 sample" transform="translate(142.5 16.4715)"><path class="edge e8" d="M 0 0 V -16.4715 H -142.5"/><rect class="sym" height="6" width="6" x="-3" y="-3"/><text class="lab" transform="translate(0 11)">id:5 (old id:19)</text></g><g class="a10 c2 node n8 p0" transform="translate(-142.5 7.89258)"><g class="a8 i0 leaf node n1 p0 sample" transform="translate(-95 8.57888)"><path class="edge e4" d="M 0 0 V -8.57888 H 95"/><rect class="sym" height="6" width="6" x="-3" y="-3"/><text class="lab" transform="translate(0 11)">id:1 (old id:15)</text></g><g class="a8 c2 node n6 p0" transform="translate(95 3.85644)"><g class="a6 i1 leaf node n3 p0 sample" transform="translate(-63.3333 4.72244)"><path class="edge e0" d="M 0 0 V -4.72244 H 63.3333"/><rect class="sym" height="6" width="6" x="-3" y="-3"/><text class="lab" transform="translate(0 11)">id:3 (old id:17)</text></g><g class="a6 i2 leaf node n4 p0 sample" transform="translate(63.3333 4.72244)"><path class="edge e1" d="M 0 0 V -4.72244 H -63.3333"/><rect class="sym" height="6" width="6" x="-3" y="-3"/><text class="lab" transform="translate(0 11)">id:4 (old id:18)</text></g><path class="edge e5" d="M 0 0 V -3.85644 H -95"/><circle class="sym" cx="0" cy="0" r="3"/><text class="lab rgt" transform="translate(3 -7)">id:6 (old id:31)</text></g><path class="edge e10" d="M 0 0 V -7.89258 H 142.5"/><circle class="sym" cx="0" cy="0" r="3"/><text class="lab lft" transform="translate(-3 -7)">id:8 (old id:44)</text></g><path class="edge e16" d="M 0 0 V -37.6302 H 134.583"/><circle class="sym" cx="0" cy="0" r="3"/><text class="lab lft" transform="translate(-3 -7)">id:10 (old id:54)</text></g><path class="edge e23" d="M 0 0 V -187.298 H -249.375"/><circle class="sym" cx="0" cy="0" r="3"/><text class="lab rgt" transform="translate(3 -7)">id:12 (old id:81)</text></g><circle class="sym" cx="0" cy="0" r="3"/><text class="lab" transform="translate(0 -11)">id:15 (old id:134)</text></g></g></g></svg>