<svg baseProfile="full" height="200" version="1.1" width="1200" xmlns="http://www.w3.org/2000/svg" xmlns:ev="http://www.w3.org/2001/xml-events" xmlns:xlink="http://www.w3.org/1999/xlink"><defs><style type="text/css"><![CDATA[.background path {fill: #808080; fill-opacity: 0}.background path:nth-child(odd) {fill-opacity: .1}.x-regions rect {fill: yellow; stroke: black; opacity: 0.5}.axes {font-size: 14px}.x-axis .tick .lab {font-weight: bold; dominant-baseline: hanging}.axes, .tree {font-size: 14px; text-anchor: middle}.axes line, .edge {stroke: black; fill: none}.axes .ax-skip {stroke-dasharray: 4}.y-axis .grid {stroke: #FAFAFA}.node > .sym {fill: black; stroke: none}.site > .sym {stroke: black}.mut text {fill: red; font-style: italic}.mut.extra text {fill: hotpink}.mut line {fill: none; stroke: none}.mut .sym {fill: none; stroke: red}.mut.extra .sym {stroke: hotpink}.node .mut .sym {stroke-width: 1.5px}.tree text, .tree-sequence text {dominant-baseline: central}.plotbox .lab.lft {text-anchor: end}.plotbox .lab.rgt {text-anchor: start}.polytomy line {stroke: black; stroke-dasharray: 1px, 1px}.polytomy text {paint-order:stroke;stroke-width:0.3em;stroke:white}]]></style></defs><g class="tree-sequence"><g class="background"><path d="M20,16.8 l193.333,0 l0,121.4 l-143.801,25 l0,5 l-49.532,0 l0,-5 l0,-25 l0,-121.4z"/><path d="M213.333,16.8 l193.333,0 l0,121.4 l-116.735,25 l0,5 l-220.4,0 l0,-5 l143.801,-25 l0,-121.4z"/><path d="M406.667,16.8 l193.333,0 l0,121.4 l-102.892,25 l0,5 l-207.176,0 l0,-5 l116.735,-25 l0,-121.4z"/><path d="M600,16.8 l193.333,0 l0,121.4 l-206.093,25 l0,5 l-90.132,0 l0,-5 l102.892,-25 l0,-121.4z"/><path d="M793.333,16.8 l193.333,0 l0,121.4 l-386.435,25 l0,5 l-12.992,0 l0,-5 l206.093,-25 l0,-121.4z"/><path d="M986.667,16.8 l193.333,0 l0,121.4 l0,25 l0,5 l-579.768,0 l0,-5 l386.435,-25 l0,-121.4z"/></g><g class="axes"><g class="x-axis"><g class="title" transform="translate(600 200)"><text class="lab" text-anchor="middle" transform="translate(0 -11)">Genome position</text></g><line class="ax-line" x1="20" x2="1180" y1="163.2" y2="163.2"/><g class="ticks"><g class="tick" transform="translate(20 163.2)"><line x1="0" x2="0" y1="0" y2="5"/><g transform="translate(0 6)"><text class="lab">0</text></g></g><g class="tick" transform="translate(69.532 163.2)"><line x1="0" x2="0" y1="0" y2="5"/><g transform="translate(0 6)"><text class="lab">427</text></g></g><g class="tick" transform="translate(289.932 163.2)"><line x1="0" x2="0" y1="0" y2="5"/><g transform="translate(0 6)"><text class="lab">2327</text></g></g><g class="tick" transform="translate(497.108 163.2)"><line x1="0" x2="0" y1="0" y2="5"/><g transform="translate(0 6)"><text class="lab">4113</text></g></g><g class="tick" transform="translate(587.24 163.2)"><line x1="0" x2="0" y1="0" y2="5"/><g transform="translate(0 6)"><text class="lab">4890</text></g></g><g class="tick" transform="translate(600.232 163.2)"><line x1="0" x2="0" y1="0" y2="5"/><g transform="translate(0 6)"><text class="lab">5002</text></g></g><g class="tick" transform="translate(1180 163.2)"><line x1="0" x2="0" y1="0" y2="5"/><g transform="translate(0 6)"><text class="lab">10000</text></g></g></g><g class="site s0" transform="translate(204.788 163.2)"><line class="sym" x1="0" x2="0" y1="0" y2="-10"/><g class="mut m0"><polyline class="sym" points="2.5,-6.5 0,-1.5 -2.5,-6.5"/></g></g><g class="site s1" transform="translate(245.156 163.2)"><line class="sym" x1="0" x2="0" y1="0" y2="-10"/><g class="mut m1"><polyline class="sym" points="2.5,-6.5 0,-1.5 -2.5,-6.5"/></g></g><g class="site s2" transform="translate(304.664 163.2)"><line class="sym" x1="0" x2="0" y1="0" y2="-10"/><g class="mut m2"><polyline class="sym" points="2.5,-6.5 0,-1.5 -2.5,-6.5"/></g></g><g class="site s3" transform="translate(364.172 163.2)"><line class="sym" x1="0" x2="0" y1="0" y2="-10"/><g class="mut m3"><polyline class="sym" points="2.5,-6.5 0,-1.5 -2.5,-6.5"/></g></g><g class="site s4" transform="translate(378.208 163.2)"><line class="sym" x1="0" x2="0" y1="0" y2="-10"/><g class="mut m4"><polyline class="sym" points="2.5,-6.5 0,-1.5 -2.5,-6.5"/></g></g><g class="site s5" transform="translate(431.684 163.2)"><line class="sym" x1="0" x2="0" y1="0" y2="-10"/><g class="mut m5"><polyline class="sym" points="2.5,-6.5 0,-1.5 -2.5,-6.5"/></g></g><g class="site s6" transform="translate(510.912 163.2)"><line class="sym" x1="0" x2="0" y1="0" y2="-10"/><g class="mut m6"><polyline class="sym" points="2.5,-6.5 0,-1.5 -2.5,-6.5"/></g></g><g class="site s7" transform="translate(562.3 163.2)"><line class="sym" x1="0" x2="0" y1="0" y2="-10"/><g class="mut m7"><polyline class="sym" points="2.5,-6.5 0,-1.5 -2.5,-6.5"/></g></g><g class="site s8" transform="translate(946.724 163.2)"><line class="sym" x1="0" x2="0" y1="0" y2="-10"/><g class="mut m8"><polyline class="sym" points="2.5,-6.5 0,-1.5 -2.5,-6.5"/></g></g><g class="site s9" transform="translate(968.996 163.2)"><line class="sym" x1="0" x2="0" y1="0" y2="-10"/><g class="mut m9"><polyline class="sym" points="2.5,-6.5 0,-1.5 -2.5,-6.5"/></g></g><g class="site s10" transform="translate(1143.81 163.2)"><line class="sym" x1="0" x2="0" y1="0" y2="-10"/><g class="mut m10"><polyline class="sym" points="2.5,-6.5 0,-1.5 -2.5,-6.5"/></g></g></g></g><g class="plotbox trees"><g class="tree t0" transform="translate(20 16.8)"><g class="plotbox"><g class="c2 node n14 p0 root" transform="translate(123.819 37.3152)"><g class="a14 c1 node n11 p0" transform="translate(36.7361 40.2579)"><g class="a11 i0 leaf node n1 p0 sample" transform="translate(0.0 27.0269)"><path class="edge e10" d="M 0 0 V -27.0269 H 0.0"/><rect class="sym" height="6" width="6" x="-3" y="-3"/><text class="lab" transform="translate(0 11)">1</text></g><path class="edge e16" d="M 0 0 V -40.2579 H -36.7361"/><circle class="sym" cx="0" cy="0" r="3"/><text class="lab rgt" transform="translate(3 -7)">11</text></g><g class="a14 c1 node n13 p0" transform="translate(-36.7361 5.73351)"><g class="a13 c2 node n12 p0" transform="translate(0.0 20.6456)"><g class="a12 c2 node n6 p0" transform="translate(35.1389 36.9787)"><g class="a6 i1 leaf node n2 p0 sample" transform="translate(-12.7778 3.927)"><path class="edge e0" d="M 0 0 V -3.927 H 12.7778"/><rect class="sym" height="6" width="6" x="-3" y="-3"/><text class="lab" transform="translate(0 11)">2</text></g><g class="a6 i2 leaf node n5 p0 sample" transform="translate(12.7778 3.927)"><path class="edge e1" d="M 0 0 V -3.927 H -12.7778"/><rect class="sym" height="6" width="6" x="-3" y="-3"/><text class="lab" transform="translate(0 11)">5</text></g><path class="edge e12" d="M 0 0 V -36.9787 H -35.1389"/><circle class="sym" cx="0" cy="0" r="3"/><text class="lab rgt" transform="translate(3 -7)">6</text></g><g class="a12 c1 node n10 p0" transform="translate(-35.1389 18.9412)"><g class="a10 c1 node n9 p0" transform="translate(0.0 0.688294)"><g class="a9 c2 node n8 p0" transform="translate(0.0 7.18452)"><g class="a8 i0 leaf node n0 p0 sample" transform="translate(-19.1667 14.0917)"><path class="edge e4" d="M 0 0 V -14.0917 H 19.1667"/><rect class="sym" height="6" width="6" x="-3" y="-3"/><text class="lab" transform="translate(0 11)">0</text></g><g class="a8 c2 node n7 p0" transform="translate(19.1667 9.69105)"><g class="a7 i1 leaf node n3 p0 sample" transform="translate(-12.7778 4.40062)"><path class="edge e2" d="M 0 0 V -4.40062 H 12.7778"/><rect class="sym" height="6" width="6" x="-3" y="-3"/><text class="lab" transform="translate(0 11)">3</text></g><g class="a7 i2 leaf node n4 p0 sample" transform="translate(12.7778 4.40062)"><path class="edge e3" d="M 0 0 V -4.40062 H -12.7778"/><rect class="sym" height="6" width="6" x="-3" y="-3"/><text class="lab" transform="translate(0 11)">4</text></g><path class="edge e5" d="M 0 0 V -9.69105 H -19.1667"/><circle class="sym" cx="0" cy="0" r="3"/><text class="lab rgt" transform="translate(3 -7)">7</text></g><path class="edge e7" d="M 0 0 V -7.18452 H 0.0"/><circle class="sym" cx="0" cy="0" r="3"/><text class="lab lft" transform="translate(-3 -7)">8</text></g><path class="edge e9" d="M 0 0 V -0.688294 H 0.0"/><circle class="sym" cx="0" cy="0" r="3"/><text class="lab lft" transform="translate(-3 -7)">9</text></g><path class="edge e13" d="M 0 0 V -18.9412 H 35.1389"/><circle class="sym" cx="0" cy="0" r="3"/><text class="lab lft" transform="translate(-3 -7)">10</text></g><path class="edge e15" d="M 0 0 V -20.6456 H 0.0"/><circle class="sym" cx="0" cy="0" r="3"/><text class="lab lft" transform="translate(-3 -7)">12</text></g><path class="edge e17" d="M 0 0 V -5.73351 H 36.7361"/><circle class="sym" cx="0" cy="0" r="3"/><text class="lab lft" transform="translate(-3 -7)">13</text></g><circle class="sym" cx="0" cy="0" r="3"/><text class="lab" transform="translate(0 -11)">14</text></g></g></g><g class="tree t1" transform="translate(213.333 16.8)"><g class="plotbox"><g class="c2 node n15 p0 root" transform="translate(123.819 26.8)"><g class="a15 c1 node n11 p0" transform="translate(36.7361 50.7731)"><g class="a11 i0 leaf node n1 p0 sample" transform="translate(0.0 27.0269)"><path class="edge e10" d="M 0 0 V -27.0269 H 0.0"/><rect class="sym" height="6" width="6" x="-3" y="-3"/><text class="lab" transform="translate(0 11)">1</text></g><path class="edge e18" d="M 0 0 V -50.7731 H -36.7361"/><circle class="sym" cx="0" cy="0" r="3"/><text class="lab rgt" transform="translate(3 -7)">11</text></g><g class="a15 c1 node n14 p0" transform="translate(-36.7361 10.5152)"><g class="a14 c1 node n13 p0" transform="translate(0.0 5.73351)"><g class="a13 c2 m0 node n12 p0 s0" transform="translate(0.0 20.6456)"><g class="a12 c2 m1 node n6 p0 s1" transform="translate(35.1389 36.9787)"><g class="a6 i1 leaf node n2 p0 sample" transform="translate(-12.7778 3.927)"><path class="edge e0" d="M 0 0 V -3.927 H 12.7778"/><rect class="sym" height="6" width="6" x="-3" y="-3"/><text class="lab" transform="translate(0 11)">2</text></g><g class="a6 i2 leaf node n5 p0 sample" transform="translate(12.7778 3.927)"><path class="edge e1" d="M 0 0 V -3.927 H -12.7778"/><rect class="sym" height="6" width="6" x="-3" y="-3"/><text class="lab" transform="translate(0 11)">5</text></g><path class="edge e12" d="M 0 0 V -36.9787 H -35.1389"/><g class="mut m1 s1" transform="translate(0 -33.4483)"><line x1="0" x2="0" y1="0" y2="33.4483"/><path class="sym" d="M -3,-3 l 6,6 M -3,3 l 6,-6"/><text class="lab rgt" transform="translate(5 0)">1</text></g><circle class="sym" cx="0" cy="0" r="3"/><text class="lab rgt" transform="translate(3 -7)">6</text></g><g class="a12 c1 node n10 p0" transform="translate(-35.1389 18.9412)"><g class="a10 c1 node n9 p0" transform="translate(0.0 0.688294)"><g class="a9 c2 node n8 p0" transform="translate(0.0 7.18452)"><g class="a8 i0 leaf node n0 p0 sample" transform="translate(-19.1667 14.0917)"><path class="edge e4" d="M 0 0 V -14.0917 H 19.1667"/><rect class="sym" height="6" width="6" x="-3" y="-3"/><text class="lab" transform="translate(0 11)">0</text></g><g class="a8 c2 node n7 p0" transform="translate(19.1667 9.69105)"><g class="a7 i1 leaf node n3 p0 sample" transform="translate(-12.7778 4.40062)"><path class="edge e2" d="M 0 0 V -4.40062 H 12.7778"/><rect class="sym" height="6" width="6" x="-3" y="-3"/><text class="lab" transform="translate(0 11)">3</text></g><g class="a7 i2 leaf node n4 p0 sample" transform="translate(12.7778 4.40062)"><path class="edge e3" d="M 0 0 V -4.40062 H -12.7778"/><rect class="sym" height="6" width="6" x="-3" y="-3"/><text class="lab" transform="translate(0 11)">4</text></g><path class="edge e5" d="M 0 0 V -9.69105 H -19.1667"/><circle class="sym" cx="0" cy="0" r="3"/><text class="lab rgt" transform="translate(3 -7)">7</text></g><path class="edge e7" d="M 0 0 V -7.18452 H 0.0"/><circle class="sym" cx="0" cy="0" r="3"/><text class="lab lft" transform="translate(-3 -7)">8</text></g><path class="edge e9" d="M 0 0 V -0.688294 H 0.0"/><circle class="sym" cx="0" cy="0" r="3"/><text class="lab lft" transform="translate(-3 -7)">9</text></g><path class="edge e13" d="M 0 0 V -18.9412 H 35.1389"/><circle class="sym" cx="0" cy="0" r="3"/><text class="lab lft" transform="translate(-3 -7)">10</text></g><path class="edge e15" d="M 0 0 V -20.6456 H 0.0"/><g class="mut m0 s0" transform="translate(0 -13.0559)"><line x1="0" x2="0" y1="0" y2="13.0559"/><path class="sym" d="M -3,-3 l 6,6 M -3,3 l 6,-6"/><text class="lab lft" transform="translate(-5 0)">0</text></g><circle class="sym" cx="0" cy="0" r="3"/><text class="lab lft" transform="translate(-3 -7)">12</text></g><path class="edge e17" d="M 0 0 V -5.73351 H 0.0"/><circle class="sym" cx="0" cy="0" r="3"/><text class="lab lft" transform="translate(-3 -7)">13</text></g><path class="edge e19" d="M 0 0 V -10.5152 H 36.7361"/><circle class="sym" cx="0" cy="0" r="3"/><text class="lab lft" transform="translate(-3 -7)">14</text></g><circle class="sym" cx="0" cy="0" r="3"/><text class="lab" transform="translate(0 -11)">15</text></g></g></g><g class="tree t2" transform="translate(406.667 16.8)"><g class="plotbox"><g class="c2 node n15 p0 root" transform="translate(123.819 26.8)"><g class="a15 c1 m3 m5 node n11 p0 s3 s5" transform="translate(36.7361 50.7731)"><g class="a11 i0 leaf node n1 p0 sample" transform="translate(0.0 27.0269)"><path class="edge e10" d="M 0 0 V -27.0269 H 0.0"/><rect class="sym" height="6" width="6" x="-3" y="-3"/><text class="lab" transform="translate(0 11)">1</text></g><path class="edge e18" d="M 0 0 V -50.7731 H -36.7361"/><g class="mut m3 s3" transform="translate(0 -43.0956)"><line x1="0" x2="0" y1="0" y2="43.0956"/><path class="sym" d="M -3,-3 l 6,6 M -3,3 l 6,-6"/><text class="lab rgt" transform="translate(5 0)">3</text></g><g class="mut m5 s5" transform="translate(0 -34.2115)"><line x1="0" x2="0" y1="0" y2="34.2115"/><path class="sym" d="M -3,-3 l 6,6 M -3,3 l 6,-6"/><text class="lab rgt" transform="translate(5 0)">5</text></g><circle class="sym" cx="0" cy="0" r="3"/><text class="lab rgt" transform="translate(3 -7)">11</text></g><g class="a15 c1 node n14 p0" transform="translate(-36.7361 10.5152)"><g class="a14 c1 node n13 p0" transform="translate(0.0 5.73351)"><g class="a13 c2 node n12 p0" transform="translate(0.0 20.6456)"><g class="a12 c2 m2 m4 node n6 p0 s2 s4" transform="translate(35.1389 36.9787)"><g class="a6 i1 leaf node n2 p0 sample" transform="translate(-12.7778 3.927)"><path class="edge e0" d="M 0 0 V -3.927 H 12.7778"/><rect class="sym" height="6" width="6" x="-3" y="-3"/><text class="lab" transform="translate(0 11)">2</text></g><g class="a6 i2 leaf node n5 p0 sample" transform="translate(12.7778 3.927)"><path class="edge e1" d="M 0 0 V -3.927 H -12.7778"/><rect class="sym" height="6" width="6" x="-3" y="-3"/><text class="lab" transform="translate(0 11)">5</text></g><path class="edge e12" d="M 0 0 V -36.9787 H -35.1389"/><g class="mut m4 s4" transform="translate(0 -29.7607)"><line x1="0" x2="0" y1="0" y2="29.7607"/><path class="sym" d="M -3,-3 l 6,6 M -3,3 l 6,-6"/><text class="lab rgt" transform="translate(5 0)">4</text></g><g class="mut m2 s2" transform="translate(0 -2.36088)"><line x1="0" x2="0" y1="0" y2="2.36088"/><path class="sym" d="M -3,-3 l 6,6 M -3,3 l 6,-6"/><text class="lab rgt" transform="translate(5 0)">2</text></g><circle class="sym" cx="0" cy="0" r="3"/><text class="lab rgt" transform="translate(3 -7)">6</text></g><g class="a12 c1 node n10 p0" transform="translate(-35.1389 18.9412)"><g class="a10 c2 node n9 p0" transform="translate(0.0 0.688294)"><g class="a9 c1 node n8 p0" transform="translate(-19.1667 7.18452)"><g class="a8 i0 leaf node n0 p0 sample" transform="translate(0.0 14.0917)"><path class="edge e4" d="M 0 0 V -14.0917 H 0.0"/><rect class="sym" height="6" width="6" x="-3" y="-3"/><text class="lab" transform="translate(0 11)">0</text></g><path class="edge e7" d="M 0 0 V -7.18452 H 19.1667"/><circle class="sym" cx="0" cy="0" r="3"/><text class="lab lft" transform="translate(-3 -7)">8</text></g><g class="a9 c2 node n7 p0" transform="translate(19.1667 16.8756)"><g class="a7 i1 leaf node n3 p0 sample" transform="translate(-12.7778 4.40062)"><path class="edge e2" d="M 0 0 V -4.40062 H 12.7778"/><rect class="sym" height="6" width="6" x="-3" y="-3"/><text class="lab" transform="translate(0 11)">3</text></g><g class="a7 i2 leaf node n4 p0 sample" transform="translate(12.7778 4.40062)"><path class="edge e3" d="M 0 0 V -4.40062 H -12.7778"/><rect class="sym" height="6" width="6" x="-3" y="-3"/><text class="lab" transform="translate(0 11)">4</text></g><path class="edge e6" d="M 0 0 V -16.8756 H -19.1667"/><circle class="sym" cx="0" cy="0" r="3"/><text class="lab rgt" transform="translate(3 -7)">7</text></g><path class="edge e9" d="M 0 0 V -0.688294 H 0.0"/><circle class="sym" cx="0" cy="0" r="3"/><text class="lab lft" transform="translate(-3 -7)">9</text></g><path class="edge e13" d="M 0 0 V -18.9412 H 35.1389"/><circle class="sym" cx="0" cy="0" r="3"/><text class="lab lft" transform="translate(-3 -7)">10</text></g><path class="edge e15" d="M 0 0 V -20.6456 H 0.0"/><circle class="sym" cx="0" cy="0" r="3"/><text class="lab lft" transform="translate(-3 -7)">12</text></g><path class="edge e17" d="M 0 0 V -5.73351 H 0.0"/><circle class="sym" cx="0" cy="0" r="3"/><text class="lab lft" transform="translate(-3 -7)">13</text></g><path class="edge e19" d="M 0 0 V -10.5152 H 36.7361"/><circle class="sym" cx="0" cy="0" r="3"/><text class="lab lft" transform="translate(-3 -7)">14</text></g><circle class="sym" cx="0" cy="0" r="3"/><text class="lab" transform="translate(0 -11)">15</text></g></g></g><g class="tree t3" transform="translate(600 16.8)"><g class="plotbox"><g class="c2 node n15 p0 root" transform="translate(131.806 26.8)"><g class="a15 c1 node n11 p0" transform="translate(28.75 50.7731)"><g class="a11 i0 leaf node n1 p0 sample" transform="translate(0.0 27.0269)"><path class="edge e10" d="M 0 0 V -27.0269 H 0.0"/><rect class="sym" height="6" width="6" x="-3" y="-3"/><text class="lab" transform="translate(0 11)">1</text></g><path class="edge e18" d="M 0 0 V -50.7731 H -28.75"/><circle class="sym" cx="0" cy="0" r="3"/><text class="lab rgt" transform="translate(3 -7)">11</text></g><g class="a15 c1 node n14 p0" transform="translate(-28.75 10.5152)"><g class="a14 c2 node n13 p0" transform="translate(0.0 5.73351)"><g class="a13 c2 node n12 p0" transform="translate(-31.9444 20.6456)"><g class="a12 c2 node n6 p0" transform="translate(25.5556 36.9787)"><g class="a6 i1 leaf m7 node n2 p0 s7 sample" transform="translate(-12.7778 3.927)"><path class="edge e0" d="M 0 0 V -3.927 H 12.7778"/><g class="mut m7 s7" transform="translate(0 -0.27644)"><line x1="0" x2="0" y1="0" y2="0.27644"/><path class="sym" d="M -3,-3 l 6,6 M -3,3 l 6,-6"/><text class="lab lft" transform="translate(-5 0)">7</text></g><rect class="sym" height="6" width="6" x="-3" y="-3"/><text class="lab" transform="translate(0 11)">2</text></g><g class="a6 i2 leaf node n5 p0 sample" transform="translate(12.7778 3.927)"><path class="edge e1" d="M 0 0 V -3.927 H -12.7778"/><rect class="sym" height="6" width="6" x="-3" y="-3"/><text class="lab" transform="translate(0 11)">5</text></g><path class="edge e12" d="M 0 0 V -36.9787 H -25.5556"/><circle class="sym" cx="0" cy="0" r="3"/><text class="lab rgt" transform="translate(3 -7)">6</text></g><g class="a12 c1 node n10 p0" transform="translate(-25.5556 18.9412)"><g class="a10 c2 node n9 p0" transform="translate(0.0 0.688294)"><g class="a9 c1 node n8 p0" transform="translate(-12.7778 7.18452)"><g class="a8 i0 leaf node n0 p0 sample" transform="translate(0.0 14.0917)"><path class="edge e4" d="M 0 0 V -14.0917 H 0.0"/><rect class="sym" height="6" width="6" x="-3" y="-3"/><text class="lab" transform="translate(0 11)">0</text></g><path class="edge e7" d="M 0 0 V -7.18452 H 12.7778"/><circle class="sym" cx="0" cy="0" r="3"/><text class="lab lft" transform="translate(-3 -7)">8</text></g><g class="a9 c1 node n7 p0" transform="translate(12.7778 16.8756)"><g class="a7 i1 leaf node n3 p0 sample" transform="translate(0.0 4.40062)"><path class="edge e2" d="M 0 0 V -4.40062 H 0.0"/><rect class="sym" height="6" width="6" x="-3" y="-3"/><text class="lab" transform="translate(0 11)">3</text></g><path class="edge e6" d="M 0 0 V -16.8756 H -12.7778"/><circle class="sym" cx="0" cy="0" r="3"/><text class="lab rgt" transform="translate(3 -7)">7</text></g><path class="edge e9" d="M 0 0 V -0.688294 H 0.0"/><circle class="sym" cx="0" cy="0" r="3"/><text class="lab lft" transform="translate(-3 -7)">9</text></g><path class="edge e13" d="M 0 0 V -18.9412 H 25.5556"/><circle class="sym" cx="0" cy="0" r="3"/><text class="lab lft" transform="translate(-3 -7)">10</text></g><path class="edge e15" d="M 0 0 V -20.6456 H 31.9444"/><circle class="sym" cx="0" cy="0" r="3"/><text class="lab lft" transform="translate(-3 -7)">12</text></g><g class="a13 i2 leaf m6 node n4 p0 s6 sample" transform="translate(31.9444 61.5513)"><path class="edge e14" d="M 0 0 V -61.5513 H -31.9444"/><g class="mut m6 s6" transform="translate(0 -50.5677)"><line x1="0" x2="0" y1="0" y2="50.5677"/><path class="sym" d="M -3,-3 l 6,6 M -3,3 l 6,-6"/><text class="lab rgt" transform="translate(5 0)">6</text></g><rect class="sym" height="6" width="6" x="-3" y="-3"/><text class="lab" transform="translate(0 11)">4</text></g><path class="edge e17" d="M 0 0 V -5.73351 H 0.0"/><circle class="sym" cx="0" cy="0" r="3"/><text class="lab lft" transform="translate(-3 -7)">13</text></g><path class="edge e19" d="M 0 0 V -10.5152 H 28.75"/><circle class="sym" cx="0" cy="0" r="3"/><text class="lab lft" transform="translate(-3 -7)">14</text></g><circle class="sym" cx="0" cy="0" r="3"/><text class="lab" transform="translate(0 -11)">15</text></g></g></g><g class="tree t4" transform="translate(793.333 16.8)"><g class="plotbox"><g class="c2 node n15 p0 root" transform="translate(91.875 26.8)"><g class="a15 c2 node n11 p0" transform="translate(-46.3194 50.7731)"><g class="a11 i0 leaf node n1 p0 sample" transform="translate(12.7778 27.0269)"><path class="edge e10" d="M 0 0 V -27.0269 H -12.7778"/><rect class="sym" height="6" width="6" x="-3" y="-3"/><text class="lab" transform="translate(0 11)">1</text></g><g class="a11 c1 node n8 p0" transform="translate(-12.7778 12.9352)"><g class="a8 i0 leaf node n0 p0 sample" transform="translate(0.0 14.0917)"><path class="edge e4" d="M 0 0 V -14.0917 H 0.0"/><rect class="sym" height="6" width="6" x="-3" y="-3"/><text class="lab" transform="translate(0 11)">0</text></g><path class="edge e11" d="M 0 0 V -12.9352 H 12.7778"/><circle class="sym" cx="0" cy="0" r="3"/><text class="lab lft" transform="translate(-3 -7)">8</text></g><path class="edge e18" d="M 0 0 V -50.7731 H 46.3194"/><circle class="sym" cx="0" cy="0" r="3"/><text class="lab lft" transform="translate(-3 -7)">11</text></g><g class="a15 c1 node n14 p0" transform="translate(46.3194 10.5152)"><g class="a14 c2 node n13 p0" transform="translate(0.0 5.73351)"><g class="a13 c2 node n12 p0" transform="translate(-22.3611 20.6456)"><g class="a12 c2 node n6 p0" transform="translate(-19.1667 36.9787)"><g class="a6 i1 leaf node n2 p0 sample" transform="translate(-12.7778 3.927)"><path class="edge e0" d="M 0 0 V -3.927 H 12.7778"/><rect class="sym" height="6" width="6" x="-3" y="-3"/><text class="lab" transform="translate(0 11)">2</text></g><g class="a6 i2 leaf node n5 p0 sample" transform="translate(12.7778 3.927)"><path class="edge e1" d="M 0 0 V -3.927 H -12.7778"/><rect class="sym" height="6" width="6" x="-3" y="-3"/><text class="lab" transform="translate(0 11)">5</text></g><path class="edge e12" d="M 0 0 V -36.9787 H 19.1667"/><circle class="sym" cx="0" cy="0" r="3"/><text class="lab lft" transform="translate(-3 -7)">6</text></g><g class="a12 c1 node n10 p0" transform="translate(19.1667 18.9412)"><g class="a10 c1 node n9 p0" transform="translate(0.0 0.688294)"><g class="a9 c1 node n7 p0" transform="translate(0.0 16.8756)"><g class="a7 i1 leaf node n3 p0 sample" transform="translate(0.0 4.40062)"><path class="edge e2" d="M 0 0 V -4.40062 H 0.0"/><rect class="sym" height="6" width="6" x="-3" y="-3"/><text class="lab" transform="translate(0 11)">3</text></g><path class="edge e6" d="M 0 0 V -16.8756 H 0.0"/><circle class="sym" cx="0" cy="0" r="3"/><text class="lab lft" transform="translate(-3 -7)">7</text></g><path class="edge e9" d="M 0 0 V -0.688294 H 0.0"/><circle class="sym" cx="0" cy="0" r="3"/><text class="lab lft" transform="translate(-3 -7)">9</text></g><path class="edge e13" d="M 0 0 V -18.9412 H -19.1667"/><circle class="sym" cx="0" cy="0" r="3"/><text class="lab rgt" transform="translate(3 -7)">10</text></g><path class="edge e15" d="M 0 0 V -20.6456 H 22.3611"/><circle class="sym" cx="0" cy="0" r="3"/><text class="lab lft" transform="translate(-3 -7)">12</text></g><g class="a13 i2 leaf node n4 p0 sample" transform="translate(22.3611 61.5513)"><path class="edge e14" d="M 0 0 V -61.5513 H -22.3611"/><rect class="sym" height="6" width="6" x="-3" y="-3"/><text class="lab" transform="translate(0 11)">4</text></g><path class="edge e17" d="M 0 0 V -5.73351 H 0.0"/><circle class="sym" cx="0" cy="0" r="3"/><text class="lab lft" transform="translate(-3 -7)">13</text></g><path class="edge e19" d="M 0 0 V -10.5152 H -46.3194"/><circle class="sym" cx="0" cy="0" r="3"/><text class="lab rgt" transform="translate(3 -7)">14</text></g><circle class="sym" cx="0" cy="0" r="3"/><text class="lab" transform="translate(0 -11)">15</text></g></g></g><g class="tree t5" transform="translate(986.667 16.8)"><g class="plotbox"><g class="c2 node n15 p0 root" transform="translate(83.8889 26.8)"><g class="a15 c2 m9 node n11 p0 s9" transform="translate(-38.3333 50.7731)"><g class="a11 i0 leaf m8 node n1 p0 s8 sample" transform="translate(12.7778 27.0269)"><path class="edge e10" d="M 0 0 V -27.0269 H -12.7778"/><g class="mut m8 s8" transform="translate(0 -19.4841)"><line x1="0" x2="0" y1="0" y2="19.4841"/><path class="sym" d="M -3,-3 l 6,6 M -3,3 l 6,-6"/><text class="lab rgt" transform="translate(5 0)">8</text></g><rect class="sym" height="6" width="6" x="-3" y="-3"/><text class="lab" transform="translate(0 11)">1</text></g><g class="a11 c1 node n8 p0" transform="translate(-12.7778 12.9352)"><g class="a8 i0 leaf node n0 p0 sample" transform="translate(0.0 14.0917)"><path class="edge e4" d="M 0 0 V -14.0917 H 0.0"/><rect class="sym" height="6" width="6" x="-3" y="-3"/><text class="lab" transform="translate(0 11)">0</text></g><path class="edge e11" d="M 0 0 V -12.9352 H 12.7778"/><circle class="sym" cx="0" cy="0" r="3"/><text class="lab lft" transform="translate(-3 -7)">8</text></g><path class="edge e18" d="M 0 0 V -50.7731 H 38.3333"/><g class="mut m9 s9" transform="translate(0 -43.1875)"><line x1="0" x2="0" y1="0" y2="43.1875"/><path class="sym" d="M -3,-3 l 6,6 M -3,3 l 6,-6"/><text class="lab lft" transform="translate(-5 0)">9</text></g><circle class="sym" cx="0" cy="0" r="3"/><text class="lab lft" transform="translate(-3 -7)">11</text></g><g class="a15 c1 node n14 p0" transform="translate(38.3333 10.5152)"><g class="a14 c1 node n13 p0" transform="translate(0.0 5.73351)"><g class="a13 c2 node n12 p0" transform="translate(0.0 20.6456)"><g class="a12 c2 node n6 p0" transform="translate(-25.5556 36.9787)"><g class="a6 i1 leaf node n2 p0 sample" transform="translate(-12.7778 3.927)"><path class="edge e0" d="M 0 0 V -3.927 H 12.7778"/><rect class="sym" height="6" width="6" x="-3" y="-3"/><text class="lab" transform="translate(0 11)">2</text></g><g class="a6 i2 leaf node n5 p0 sample" transform="translate(12.7778 3.927)"><path class="edge e1" d="M 0 0 V -3.927 H -12.7778"/><rect class="sym" height="6" width="6" x="-3" y="-3"/><text class="lab" transform="translate(0 11)">5</text></g><path class="edge e12" d="M 0 0 V -36.9787 H 25.5556"/><circle class="sym" cx="0" cy="0" r="3"/><text class="lab lft" transform="translate(-3 -7)">6</text></g><g class="a12 c2 node n10 p0" transform="translate(25.5556 18.9412)"><g class="a10 c1 node n9 p0" transform="translate(-12.7778 0.688294)"><g class="a9 c1 node n7 p0" transform="translate(0.0 16.8756)"><g class="a7 i1 leaf node n3 p0 sample" transform="translate(0.0 4.40062)"><path class="edge e2" d="M 0 0 V -4.40062 H 0.0"/><rect class="sym" height="6" width="6" x="-3" y="-3"/><text class="lab" transform="translate(0 11)">3</text></g><path class="edge e6" d="M 0 0 V -16.8756 H 0.0"/><circle class="sym" cx="0" cy="0" r="3"/><text class="lab lft" transform="translate(-3 -7)">7</text></g><path class="edge e9" d="M 0 0 V -0.688294 H 12.7778"/><circle class="sym" cx="0" cy="0" r="3"/><text class="lab lft" transform="translate(-3 -7)">9</text></g><g class="a10 i2 leaf m10 node n4 p0 s10 sample" transform="translate(12.7778 21.9645)"><path class="edge e8" d="M 0 0 V -21.9645 H -12.7778"/><g class="mut m10 s10" transform="translate(0 -7.46179)"><line x1="0" x2="0" y1="0" y2="7.46179"/><path class="sym" d="M -3,-3 l 6,6 M -3,3 l 6,-6"/><text class="lab rgt" transform="translate(5 0)">10</text></g><rect class="sym" height="6" width="6" x="-3" y="-3"/><text class="lab" transform="translate(0 11)">4</text></g><path class="edge e13" d="M 0 0 V -18.9412 H -25.5556"/><circle class="sym" cx="0" cy="0" r="3"/><text class="lab rgt" transform="translate(3 -7)">10</text></g><path class="edge e15" d="M 0 0 V -20.6456 H 0.0"/><circle class="sym" cx="0" cy="0" r="3"/><text class="lab lft" transform="translate(-3 -7)">12</text></g><path class="edge e17" d="M 0 0 V -5.73351 H 0.0"/><circle class="sym" cx="0" cy="0" r="3"/><text class="lab lft" transform="translate(-3 -7)">13</text></g><path class="edge e19" d="M 0 0 V -10.5152 H -38.3333"/><circle class="sym" cx="0" cy="0" r="3"/><text class="lab rgt" transform="translate(3 -7)">14</text></g><circle class="sym" cx="0" cy="0" r="3"/><text class="lab" transform="translate(0 -11)">15</text></g></g></g></g></g><g class="title" transform="translate(600 0)"><text dominant-baseline="hanging" text-anchor="middle">ARG simplified to samples [14 15 16 17 18 19], leaving part-coalescent nodes: this has 20 edges</text></g></svg>