<svg baseProfile="full" height="200" version="1.1" width="200" xmlns="http://www.w3.org/2000/svg" xmlns:ev="http://www.w3.org/2001/xml-events" xmlns:xlink="http://www.w3.org/1999/xlink"><defs><style type="text/css"><![CDATA[.background path {fill: #808080; fill-opacity: 0}.background path:nth-child(odd) {fill-opacity: .1}.axes {font-size: 14px}.x-axis .tick .lab {font-weight: bold; dominant-baseline: hanging}.axes, .tree {font-size: 14px; text-anchor: middle}.axes line, .edge {stroke: black; fill: none}.axes .ax-skip {stroke-dasharray: 4}.y-axis .grid {stroke: #FAFAFA}.node > .sym {fill: black; stroke: none}.site > .sym {stroke: black}.mut text {fill: red; font-style: italic}.mut.extra text {fill: hotpink}.mut line {fill: none; stroke: none}.mut .sym {fill: none; stroke: red}.mut.extra .sym {stroke: hotpink}.node .mut .sym {stroke-width: 1.5px}.tree text, .tree-sequence text {dominant-baseline: central}.plotbox .lab.lft {text-anchor: end}.plotbox .lab.rgt {text-anchor: start}.node.sample.p0 > .sym {fill: red}.node.sample.p1 > .sym {fill: green}.node.sample.p2 > .sym {fill: blue}]]></style></defs><g class="tree t0"><g class="axes"><g class="x-axis"><g class="title" transform="translate(100 200)"><text class="lab" text-anchor="middle" transform="translate(0 -11)">big_tree</text></g></g></g><g class="plotbox"><g class="c2 node n22 p4 root" transform="translate(110.417 26.8)"><g class="a22 c2 node n19 p4" transform="translate(-42.0833 38.5636)"><g class="a19 i1 leaf node n3 p0 sample" transform="translate(25 102.836)"><path class="edge" d="M 0 0 V -102.836 H -25" /><rect class="sym" height="6" width="6" x="-3" y="-3" /><text class="lab" transform="translate(0 11)" /></g><g class="a19 c2 node n18 p3" transform="translate(-25 12.8545)"><g class="a18 i0 leaf node n0 p0 sample" transform="translate(-16.6667 89.9818)"><path class="edge" d="M 0 0 V -89.9818 H 16.6667" /><rect class="sym" height="6" width="6" x="-3" y="-3" /><text class="lab" transform="translate(0 11)" /></g><g class="a18 c2 node n15 p1" transform="translate(16.6667 38.5636)"><g class="a15 c2 node n13 p1" transform="translate(-13.3333 25.7091)"><g class="a13 i2 leaf node n4 p1 sample" transform="translate(-6.66667 25.7091)"><path class="edge" d="M 0 0 V -25.7091 H 6.66667" /><rect class="sym" height="6" width="6" x="-3" y="-3" /><text class="lab" transform="translate(0 11)" /></g><g class="a13 i3 leaf node n7 p1 sample" transform="translate(6.66667 25.7091)"><path class="edge" d="M 0 0 V -25.7091 H -6.66667" /><rect class="sym" height="6" width="6" x="-3" y="-3" /><text class="lab" transform="translate(0 11)" /></g><path class="edge" d="M 0 0 V -25.7091 H 13.3333" /><circle class="sym" cx="0" cy="0" r="3" /><text class="lab lft" transform="translate(-3 -7.0)" /></g><g class="a15 c2 node n14 p1" transform="translate(13.3333 12.8545)"><g class="a14 i2 leaf node n5 p1 sample" transform="translate(-6.66667 38.5636)"><path class="edge" d="M 0 0 V -38.5636 H 6.66667" /><rect class="sym" height="6" width="6" x="-3" y="-3" /><text class="lab" transform="translate(0 11)" /></g><g class="a14 i3 leaf node n6 p1 sample" transform="translate(6.66667 38.5636)"><path class="edge" d="M 0 0 V -38.5636 H -6.66667" /><rect class="sym" height="6" width="6" x="-3" y="-3" /><text class="lab" transform="translate(0 11)" /></g><path class="edge" d="M 0 0 V -12.8545 H -13.3333" /><circle class="sym" cx="0" cy="0" r="3" /><text class="lab rgt" transform="translate(3 -7.0)" /></g><path class="edge" d="M 0 0 V -38.5636 H -16.6667" /><circle class="sym" cx="0" cy="0" r="3" /><text class="lab rgt" transform="translate(3 -7.0)" /></g><path class="edge" d="M 0 0 V -12.8545 H 25" /><circle class="sym" cx="0" cy="0" r="3" /><text class="lab lft" transform="translate(-3 -7.0)" /></g><path class="edge" d="M 0 0 V -38.5636 H 42.0833" /><circle class="sym" cx="0" cy="0" r="3" /><text class="lab lft" transform="translate(-3 -7.0)" /></g><g class="a22 c2 node n21 p4" transform="translate(42.0833 12.8545)"><g class="a21 i5 leaf node n10 p2 sample" transform="translate(20.8333 128.545)"><path class="edge" d="M 0 0 V -128.545 H -20.8333" /><rect class="sym" height="6" width="6" x="-3" y="-3" /><text class="lab" transform="translate(0 11)" /></g><g class="a21 c2 node n20 p4" transform="translate(-20.8333 12.8545)"><g class="a20 c2 node n16 p2" transform="translate(18.3333 51.4182)"><g class="a16 i5 leaf node n11 p2 sample" transform="translate(10 64.2727)"><path class="edge" d="M 0 0 V -64.2727 H -10" /><rect class="sym" height="6" width="6" x="-3" y="-3" /><text class="lab" transform="translate(0 11)" /></g><g class="a16 c2 node n12 p2" transform="translate(-10 51.4182)"><g class="a12 i4 leaf node n8 p2 sample" transform="translate(-6.66667 12.8545)"><path class="edge" d="M 0 0 V -12.8545 H 6.66667" /><rect class="sym" height="6" width="6" x="-3" y="-3" /><text class="lab" transform="translate(0 11)" /></g><g class="a12 i4 leaf node n9 p2 sample" transform="translate(6.66667 12.8545)"><path class="edge" d="M 0 0 V -12.8545 H -6.66667" /><rect class="sym" height="6" width="6" x="-3" y="-3" /><text class="lab" transform="translate(0 11)" /></g><path class="edge" d="M 0 0 V -51.4182 H 10" /><circle class="sym" cx="0" cy="0" r="3" /><text class="lab lft" transform="translate(-3 -7.0)" /></g><path class="edge" d="M 0 0 V -51.4182 H -18.3333" /><circle class="sym" cx="0" cy="0" r="3" /><text class="lab rgt" transform="translate(3 -7.0)" /></g><g class="a20 c2 node n17 p0" transform="translate(-18.3333 38.5636)"><g class="a17 i0 leaf node n1 p0 sample" transform="translate(-6.66667 77.1273)"><path class="edge" d="M 0 0 V -77.1273 H 6.66667" /><rect class="sym" height="6" width="6" x="-3" y="-3" /><text class="lab" transform="translate(0 11)" /></g><g class="a17 i1 leaf node n2 p0 sample" transform="translate(6.66667 77.1273)"><path class="edge" d="M 0 0 V -77.1273 H -6.66667" /><rect class="sym" height="6" width="6" x="-3" y="-3" /><text class="lab" transform="translate(0 11)" /></g><path class="edge" d="M 0 0 V -38.5636 H 18.3333" /><circle class="sym" cx="0" cy="0" r="3" /><text class="lab lft" transform="translate(-3 -7.0)" /></g><path class="edge" d="M 0 0 V -12.8545 H 20.8333" /><circle class="sym" cx="0" cy="0" r="3" /><text class="lab lft" transform="translate(-3 -7.0)" /></g><path class="edge" d="M 0 0 V -12.8545 H -42.0833" /><circle class="sym" cx="0" cy="0" r="3" /><text class="lab rgt" transform="translate(3 -7.0)" /></g><circle class="sym" cx="0" cy="0" r="3" /><text class="lab" transform="translate(0 -11)" /></g></g></g></svg>