<svg baseProfile="full" height="200" version="1.1" width="200" xmlns="http://www.w3.org/2000/svg" xmlns:ev="http://www.w3.org/2001/xml-events" xmlns:xlink="http://www.w3.org/1999/xlink"><defs><style type="text/css"><![CDATA[.background path {fill: #808080; fill-opacity: 0}.background path:nth-child(odd) {fill-opacity: .1}.x-regions rect {fill: yellow; stroke: black; opacity: 0.5}.axes {font-size: 14px}.x-axis .tick .lab {font-weight: bold; dominant-baseline: hanging}.axes, .tree {font-size: 14px; text-anchor: middle}.axes line, .edge {stroke: black; fill: none}.axes .ax-skip {stroke-dasharray: 4}.y-axis .grid {stroke: #FAFAFA}.node > .sym {fill: black; stroke: none}.site > .sym {stroke: black}.mut text {fill: red; font-style: italic}.mut.extra text {fill: hotpink}.mut line {fill: none; stroke: none}.mut .sym {fill: none; stroke: red}.mut.extra .sym {stroke: hotpink}.node .mut .sym {stroke-width: 1.5px}.tree text, .tree-sequence text {dominant-baseline: central}.plotbox .lab.lft {text-anchor: end}.plotbox .lab.rgt {text-anchor: start}.polytomy line {stroke: black; stroke-dasharray: 1px, 1px}.polytomy text {paint-order:stroke;stroke-width:0.3em;stroke:white}]]></style></defs><g class="tree t2"><g class="plotbox"><g class="c2 node n17 p3 root" transform="translate(88.125 43.6)"><g class="a17 c2 node n16 p3" transform="translate(48.125 22.618)"><g class="a16 c2 node n10 p3" transform="translate(23.75 62.8015)"><g class="a10 i3 leaf node n6 p2 sample" transform="translate(-10 39.1805)"><path class="edge e4" d="M 0 0 V -39.1805 H 10"/><rect class="sym" height="6" width="6" x="-3" y="-3"/><text class="lab" transform="translate(0 11)">6</text></g><g class="a10 i3 leaf node n7 p2 sample" transform="translate(10 39.1805)"><path class="edge e5" d="M 0 0 V -39.1805 H -10"/><rect class="sym" height="6" width="6" x="-3" y="-3"/><text class="lab" transform="translate(0 11)">7</text></g><path class="edge e20" d="M 0 0 V -62.8015 H -23.75"/><circle class="sym" cx="0" cy="0" r="3"/><text class="lab rgt" transform="translate(3 -7)">10</text></g><g class="a16 c2 node n15 p3" transform="translate(-23.75 13.16)"><g class="a15 i2 leaf node n5 p1 sample" transform="translate(17.5 88.822)"><path class="edge e16" d="M 0 0 V -88.822 H -17.5"/><rect class="sym" height="6" width="6" x="-3" y="-3"/><text class="lab" transform="translate(0 11)">5</text></g><g class="a15 c2 node n9 p3" transform="translate(-17.5 50.6008)"><g class="a9 i2 leaf node n4 p1 sample" transform="translate(15 38.2211)"><path class="edge e2" d="M 0 0 V -38.2211 H -15"/><rect class="sym" height="6" width="6" x="-3" y="-3"/><text class="lab" transform="translate(0 11)">4</text></g><g class="a9 c2 node n8 p0" transform="translate(-15 36.9678)"><g class="a8 i1 leaf node n2 p0 sample" transform="translate(-10 1.25334)"><path class="edge e0" d="M 0 0 V -1.25334 H 10"/><rect class="sym" height="6" width="6" x="-3" y="-3"/><text class="lab" transform="translate(0 11)">2</text></g><g class="a8 i1 leaf node n3 p0 sample" transform="translate(10 1.25334)"><path class="edge e1" d="M 0 0 V -1.25334 H -10"/><rect class="sym" height="6" width="6" x="-3" y="-3"/><text class="lab" transform="translate(0 11)">3</text></g><path class="edge e3" d="M 0 0 V -36.9678 H 15"/><circle class="sym" cx="0" cy="0" r="3"/><text class="lab lft" transform="translate(-3 -7)">8</text></g><path class="edge e18" d="M 0 0 V -50.6008 H 17.5"/><circle class="sym" cx="0" cy="0" r="3"/><text class="lab lft" transform="translate(-3 -7)">9</text></g><path class="edge e21" d="M 0 0 V -13.16 H 23.75"/><circle class="sym" cx="0" cy="0" r="3"/><text class="lab lft" transform="translate(-3 -7)">15</text></g><path class="edge e24" d="M 0 0 V -22.618 H -48.125"/><circle class="sym" cx="0" cy="0" r="3"/><text class="lab rgt" transform="translate(3 -7)">16</text></g><g class="a17 c2 node n14 p3" transform="translate(-48.125 48.0301)"><g class="a14 i0 leaf node n0 p0 sample" transform="translate(-10 76.5699)"><path class="edge e13" d="M 0 0 V -76.5699 H 10"/><rect class="sym" height="6" width="6" x="-3" y="-3"/><text class="lab" transform="translate(0 11)">0</text></g><g class="a14 i0 leaf node n1 p0 sample" transform="translate(10 76.5699)"><path class="edge e14" d="M 0 0 V -76.5699 H -10"/><rect class="sym" height="6" width="6" x="-3" y="-3"/><text class="lab" transform="translate(0 11)">1</text></g><path class="edge e23" d="M 0 0 V -48.0301 H 48.125"/><circle class="sym" cx="0" cy="0" r="3"/><text class="lab lft" transform="translate(-3 -7)">14</text></g><circle class="sym" cx="0" cy="0" r="3"/><text class="lab" transform="translate(0 -11)">17</text></g></g></g><g class="title" transform="translate(100 0)"><text dominant-baseline="hanging" text-anchor="middle">A plot of the third tree</text></g></svg>