<svg baseProfile="full" height="400" version="1.1" width="1000" xmlns="http://www.w3.org/2000/svg" xmlns:ev="http://www.w3.org/2001/xml-events" xmlns:xlink="http://www.w3.org/1999/xlink"><defs><style type="text/css"><![CDATA[.background path {fill: #808080; fill-opacity: 0}.background path:nth-child(odd) {fill-opacity: .1}.axes {font-size: 14px}.x-axis .tick .lab {font-weight: bold; dominant-baseline: hanging}.axes, .tree {font-size: 14px; text-anchor: middle}.axes line, .edge {stroke: black; fill: none}.axes .ax-skip {stroke-dasharray: 4}.y-axis .grid {stroke: #FAFAFA}.node > .sym {fill: black; stroke: none}.site > .sym {stroke: black}.mut text {fill: red; font-style: italic}.mut.extra text {fill: hotpink}.mut line {fill: none; stroke: none}.mut .sym {fill: none; stroke: red}.mut.extra .sym {stroke: hotpink}.node .mut .sym {stroke-width: 1.5px}.tree text, .tree-sequence text {dominant-baseline: central}.plotbox .lab.lft {text-anchor: end}.plotbox .lab.rgt {text-anchor: start}.node > .lab {font-size: 9px}.leaf > .lab {text-anchor: start; transform: rotate(90deg) translate(5px); font-size: 12px}.n48 > .sym {clip-path: polygon(50% 50%, 100% 100%, 0% 100%);transform: scale(1.4, 4.0)}.n48 > .lab {transform: rotate(90deg) translate(15px); font-size: 13px}.n64 > .sym {clip-path: polygon(50% 50%, 100% 100%, 0% 100%);transform: scale(2.2, 4.0)}.n64 > .lab {transform: rotate(90deg) translate(15px); font-size: 13px}.n66 > .sym {clip-path: polygon(50% 50%, 100% 100%, 0% 100%);transform: scale(2.0, 4.0)}.n66 > .lab {transform: rotate(90deg) translate(15px); font-size: 13px}.n70 > .sym {clip-path: polygon(50% 50%, 100% 100%, 0% 100%);transform: scale(2.2, 4.0)}.n70 > .lab {transform: rotate(90deg) translate(15px); font-size: 13px}.n72 > .sym {clip-path: polygon(50% 50%, 100% 100%, 0% 100%);transform: scale(3.0, 4.0)}.n72 > .lab {transform: rotate(90deg) translate(15px); font-size: 13px}.n74 > .sym {clip-path: polygon(50% 50%, 100% 100%, 0% 100%);transform: scale(1.6, 4.0)}.n74 > .lab {transform: rotate(90deg) translate(15px); font-size: 13px}]]></style></defs><g class="tree-sequence"><g class="background"><path d="M56.8,0 l184.64,0 l0,338.2 l18.5993,25 l0,5 l-203.239,0 l0,-5 l0,-25 l0,-338.2z" /><path d="M241.44,0 l184.64,0 l0,338.2 l-116.115,25 l0,5 l-49.9253,0 l0,-5 l-18.599,-25 l0,-338.2z" /><path d="M426.08,0 l184.64,0 l0,338.2 l-156.115,25 l0,5 l-144.64,0 l0,-5 l116.115,-25 l0,-338.2z" /><path d="M610.72,0 l184.64,0 l0,338.2 l-250.339,25 l0,5 l-90.416,0 l0,-5 l156.115,-25 l0,-338.2z" /><path d="M795.36,0 l184.64,0 l0,338.2 l1.13687e-13,25 l0,5 l-434.979,0 l0,-5 l250.339,-25 l0,-338.2z" /></g><g class="axes"><g class="x-axis"><g class="title" transform="translate(518.4 400)"><text class="lab" text-anchor="middle" transform="translate(0 -11)">Genome position</text></g><line class="ax-line" x1="56.8" x2="309.965" y1="363.2" y2="363.2" /><line class="ax-skip" x1="309.965" x2="454.605" y1="363.2" y2="363.2" /><line class="ax-line" x1="454.605" x2="980" y1="363.2" y2="363.2" /><g class="ticks"><g class="tick" transform="translate(56.8 363.2)"><line x1="0" x2="0" y1="0" y2="5" /><g transform="translate(0 6)"><text class="lab">0</text></g></g><g class="tick" transform="translate(260.039 363.2)"><line x1="0" x2="0" y1="0" y2="5" /><g transform="translate(0 6)"><text class="lab">1034</text></g></g><g class="tick" transform="translate(309.965 363.2)"><line x1="0" x2="0" y1="0" y2="5" /><g transform="translate(0 6)"><text class="lab">1288</text></g></g><g class="tick" transform="translate(454.605 363.2)"><line x1="0" x2="0" y1="0" y2="5" /><g transform="translate(0 6)"><text class="lab">7327</text></g></g><g class="tick" transform="translate(545.021 363.2)"><line x1="0" x2="0" y1="0" y2="5" /><g transform="translate(0 6)"><text class="lab">7787</text></g></g><g class="tick" transform="translate(980 363.2)"><line x1="0" x2="0" y1="0" y2="5" /><g transform="translate(0 6)"><text class="lab">10000</text></g></g></g></g><g class="y-axis"><g class="title" transform="translate(0 165.7)"><text class="lab" text-anchor="middle" transform="translate(11) rotate(-90)">Time (generations)</text></g><line class="ax-line" x1="56.8" x2="56.8" y1="321.4" y2="10" /><g class="ticks"><g class="tick" transform="translate(56.8 321.4)"><line x1="0" x2="-5" y1="0" y2="0" /><g transform="translate(-6 0)"><text class="lab" text-anchor="end">0</text></g></g><g class="tick" transform="translate(56.8 287.234)"><line x1="0" x2="-5" y1="0" y2="0" /><g transform="translate(-6 0)"><text class="lab" text-anchor="end">1</text></g></g><g class="tick" transform="translate(56.8 203.204)"><line x1="0" x2="-5" y1="0" y2="0" /><g transform="translate(-6 0)"><text class="lab" text-anchor="end">10</text></g></g><g class="tick" transform="translate(56.8 93.9129)"><line x1="0" x2="-5" y1="0" y2="0" /><g transform="translate(-6 0)"><text class="lab" text-anchor="end">100</text></g></g></g></g></g><g class="plotbox trees"><g class="tree t0" transform="translate(56.8 0)"><g class="plotbox"><g class="c2 node n84 p0 root" transform="translate(125.655 43.4279)"><g class="a84 leaf node n74 p0 sample" transform="translate(29.945 72.3763)"><path class="edge" d="M 0 0 V -72.3763 H -29.945" /><rect class="sym" height="6" width="6" x="-3" y="-3" /><text class="lab" transform="translate(0 11)">4 samples</text></g><g class="a84 c2 node n79 p0" transform="translate(-29.945 38.3625)"><g class="a79 c2 node n77 p0" transform="translate(32.77 23.6074)"><g class="a77 i9 leaf node n18 p0 sample" transform="translate(-9.04 216.002)"><path class="edge" d="M 0 0 V -216.002 H 9.04" /><rect class="sym" height="6" width="6" x="-3" y="-3" /><text class="lab" transform="translate(0 11)">S18</text></g><g class="a77 leaf node n48 p0 sample" transform="translate(9.04 166.024)"><path class="edge" d="M 0 0 V -166.024 H -9.04" /><rect class="sym" height="6" width="6" x="-3" y="-3" /><text class="lab" transform="translate(0 11)">3 samples</text></g><path class="edge" d="M 0 0 V -23.6074 H -32.77" /><circle class="sym" cx="0" cy="0" r="3" /><text class="lab rgt" transform="translate(3 -7.0)">77</text></g><g class="a79 c2 node n78 p0" transform="translate(-32.77 21.8981)"><g class="a78 c2 node n69 p0" transform="translate(-24.86 35.6633)"><g class="a69 i5 leaf node n11 p0 sample" transform="translate(-9.04 182.048)"><path class="edge" d="M 0 0 V -182.048 H 9.04" /><rect class="sym" height="6" width="6" x="-3" y="-3" /><text class="lab" transform="translate(0 11)">S11</text></g><g class="a69 leaf node n66 p0 sample" transform="translate(9.04 19.8151)"><path class="edge" d="M 0 0 V -19.8151 H -9.04" /><rect class="sym" height="6" width="6" x="-3" y="-3" /><text class="lab" transform="translate(0 11)">6 samples</text></g><path class="edge" d="M 0 0 V -35.6633 H 24.86" /><circle class="sym" cx="0" cy="0" r="3" /><text class="lab lft" transform="translate(-3 -7.0)">69</text></g><g class="a78 c2 node n75 p0" transform="translate(24.86 8.2755)"><g class="a75 c2 node n71 p0" transform="translate(-13.56 21.7146)"><g class="a71 leaf node n64 p0 sample" transform="translate(-9.04 34.7381)"><path class="edge" d="M 0 0 V -34.7381 H 9.04" /><rect class="sym" height="6" width="6" x="-3" y="-3" /><text class="lab" transform="translate(0 11)">7 samples</text></g><g class="a71 leaf node n70 p0 sample" transform="translate(9.04 0.356683)"><path class="edge" d="M 0 0 V -0.356683 H -9.04" /><rect class="sym" height="6" width="6" x="-3" y="-3" /><text class="lab" transform="translate(0 11)">7 samples</text></g><path class="edge" d="M 0 0 V -21.7146 H 13.56" /><circle class="sym" cx="0" cy="0" r="3" /><text class="lab lft" transform="translate(-3 -7.0)">71</text></g><g class="a75 leaf node n72 p0 sample" transform="translate(13.56 20.8428)"><path class="edge" d="M 0 0 V -20.8428 H -13.56" /><rect class="sym" height="6" width="6" x="-3" y="-3" /><text class="lab" transform="translate(0 11)">11 samples</text></g><path class="edge" d="M 0 0 V -8.2755 H -24.86" /><circle class="sym" cx="0" cy="0" r="3" /><text class="lab rgt" transform="translate(3 -7.0)">75</text></g><path class="edge" d="M 0 0 V -21.8981 H 32.77" /><circle class="sym" cx="0" cy="0" r="3" /><text class="lab lft" transform="translate(-3 -7.0)">78</text></g><path class="edge" d="M 0 0 V -38.3625 H 29.945" /><circle class="sym" cx="0" cy="0" r="3" /><text class="lab lft" transform="translate(-3 -7.0)">79</text></g><circle class="sym" cx="0" cy="0" r="3" /><text class="lab" transform="translate(0 -11)">84</text></g></g></g><g class="tree t1" transform="translate(241.44 0)"><g class="plotbox"><g class="c2 node n84 p0 root" transform="translate(114.92 43.4279)"><g class="a84 c2 node n79 p0" transform="translate(-31.64 38.3625)"><g class="a79 c2 node n77 p0" transform="translate(27.12 23.6074)"><g class="a77 i9 leaf node n18 p0 sample" transform="translate(-9.04 216.002)"><path class="edge" d="M 0 0 V -216.002 H 9.04" /><rect class="sym" height="6" width="6" x="-3" y="-3" /><text class="lab" transform="translate(0 11)">S18</text></g><g class="a77 leaf node n48 p0 sample" transform="translate(9.04 166.024)"><path class="edge" d="M 0 0 V -166.024 H -9.04" /><rect class="sym" height="6" width="6" x="-3" y="-3" /><text class="lab" transform="translate(0 11)">3 samples</text></g><path class="edge" d="M 0 0 V -23.6074 H -27.12" /><circle class="sym" cx="0" cy="0" r="3" /><text class="lab rgt" transform="translate(3 -7.0)">77</text></g><g class="a79 c2 node n78 p0" transform="translate(-27.12 21.8981)"><g class="a78 c2 node n69 p0" transform="translate(-18.08 35.6633)"><g class="a69 i5 leaf node n11 p0 sample" transform="translate(-9.04 182.048)"><path class="edge" d="M 0 0 V -182.048 H 9.04" /><rect class="sym" height="6" width="6" x="-3" y="-3" /><text class="lab" transform="translate(0 11)">S11</text></g><g class="a69 leaf node n66 p0 sample" transform="translate(9.04 19.8151)"><path class="edge" d="M 0 0 V -19.8151 H -9.04" /><rect class="sym" height="6" width="6" x="-3" y="-3" /><text class="lab" transform="translate(0 11)">6 samples</text></g><path class="edge" d="M 0 0 V -35.6633 H 18.08" /><circle class="sym" cx="0" cy="0" r="3" /><text class="lab lft" transform="translate(-3 -7.0)">69</text></g><g class="a78 c2 node n75 p0" transform="translate(18.08 8.2755)"><g class="a75 leaf node n72 p0 sample" transform="translate(9.04 20.8428)"><path class="edge" d="M 0 0 V -20.8428 H -9.04" /><rect class="sym" height="6" width="6" x="-3" y="-3" /><text class="lab" transform="translate(0 11)">11 samples</text></g><g class="a75 leaf node n64 p0 sample" transform="translate(-9.04 56.4527)"><path class="edge" d="M 0 0 V -56.4527 H 9.04" /><rect class="sym" height="6" width="6" x="-3" y="-3" /><text class="lab" transform="translate(0 11)">7 samples</text></g><path class="edge" d="M 0 0 V -8.2755 H -18.08" /><circle class="sym" cx="0" cy="0" r="3" /><text class="lab rgt" transform="translate(3 -7.0)">75</text></g><path class="edge" d="M 0 0 V -21.8981 H 27.12" /><circle class="sym" cx="0" cy="0" r="3" /><text class="lab lft" transform="translate(-3 -7.0)">78</text></g><path class="edge" d="M 0 0 V -38.3625 H 31.64" /><circle class="sym" cx="0" cy="0" r="3" /><text class="lab lft" transform="translate(-3 -7.0)">79</text></g><g class="a84 c2 node n76 p0" transform="translate(31.64 63.9795)"><g class="a76 leaf node n70 p0 sample" transform="translate(-9.04 26.6279)"><path class="edge" d="M 0 0 V -26.6279 H 9.04" /><rect class="sym" height="6" width="6" x="-3" y="-3" /><text class="lab" transform="translate(0 11)">7 samples</text></g><g class="a76 leaf node n74 p0 sample" transform="translate(9.04 8.3968)"><path class="edge" d="M 0 0 V -8.3968 H -9.04" /><rect class="sym" height="6" width="6" x="-3" y="-3" /><text class="lab" transform="translate(0 11)">4 samples</text></g><path class="edge" d="M 0 0 V -63.9795 H -31.64" /><circle class="sym" cx="0" cy="0" r="3" /><text class="lab rgt" transform="translate(3 -7.0)">76</text></g><circle class="sym" cx="0" cy="0" r="3" /><text class="lab" transform="translate(0 -11)">84</text></g></g></g><g class="skipped" transform="translate(426.08 0)"><g class="plotbox"><g transform="translate(92.32 168.2)"><text text-anchor="middle">6 trees</text></g><g transform="translate(92.32 185)"><text text-anchor="middle">skipped</text></g></g></g><g class="tree t8" transform="translate(610.72 0)"><g class="plotbox"><g class="c2 node n87 p0 root" transform="translate(128.763 26.8)"><g class="a87 leaf node n48 p0 sample" transform="translate(26.8375 244.622)"><path class="edge" d="M 0 0 V -244.622 H -26.8375" /><rect class="sym" height="6" width="6" x="-3" y="-3" /><text class="lab" transform="translate(0 11)">3 samples</text></g><g class="a87 c2 node n83 p0" transform="translate(-26.8375 19.3457)"><g class="a83 c2 node n76 p0" transform="translate(26.555 61.2617)"><g class="a76 leaf node n70 p0 sample" transform="translate(-9.04 26.6279)"><path class="edge" d="M 0 0 V -26.6279 H 9.04" /><rect class="sym" height="6" width="6" x="-3" y="-3" /><text class="lab" transform="translate(0 11)">7 samples</text></g><g class="a76 leaf node n74 p0 sample" transform="translate(9.04 8.3968)"><path class="edge" d="M 0 0 V -8.3968 H -9.04" /><rect class="sym" height="6" width="6" x="-3" y="-3" /><text class="lab" transform="translate(0 11)">4 samples</text></g><path class="edge" d="M 0 0 V -61.2617 H -26.555" /><circle class="sym" cx="0" cy="0" r="3" /><text class="lab rgt" transform="translate(3 -7.0)">76</text></g><g class="a83 c2 node n79 p0" transform="translate(-26.555 35.6447)"><g class="a79 c2 node n78 p0" transform="translate(-25.99 21.8981)"><g class="a78 c2 node n75 p0" transform="translate(20.34 8.2755)"><g class="a75 leaf node n72 p0 sample" transform="translate(13.56 20.8428)"><path class="edge" d="M 0 0 V -20.8428 H -13.56" /><rect class="sym" height="6" width="6" x="-3" y="-3" /><text class="lab" transform="translate(0 11)">11 samples</text></g><g class="a75 c2 node n73 p0" transform="translate(-13.56 13.0154)"><g class="a73 leaf node n64 p0 sample" transform="translate(-9.04 43.4372)"><path class="edge" d="M 0 0 V -43.4372 H 9.04" /><rect class="sym" height="6" width="6" x="-3" y="-3" /><text class="lab" transform="translate(0 11)">7 samples</text></g><g class="a73 leaf node n66 p0 sample" transform="translate(9.04 34.1875)"><path class="edge" d="M 0 0 V -34.1875 H -9.04" /><rect class="sym" height="6" width="6" x="-3" y="-3" /><text class="lab" transform="translate(0 11)">6 samples</text></g><path class="edge" d="M 0 0 V -13.0154 H 13.56" /><circle class="sym" cx="0" cy="0" r="3" /><text class="lab lft" transform="translate(-3 -7.0)">73</text></g><path class="edge" d="M 0 0 V -8.2755 H -20.34" /><circle class="sym" cx="0" cy="0" r="3" /><text class="lab rgt" transform="translate(3 -7.0)">75</text></g><g class="a78 i5 leaf node n11 p0 sample" transform="translate(-20.34 217.711)"><path class="edge" d="M 0 0 V -217.711 H 20.34" /><rect class="sym" height="6" width="6" x="-3" y="-3" /><text class="lab" transform="translate(0 11)">S11</text></g><path class="edge" d="M 0 0 V -21.8981 H 25.99" /><circle class="sym" cx="0" cy="0" r="3" /><text class="lab lft" transform="translate(-3 -7.0)">78</text></g><g class="a79 i9 leaf node n18 p0 sample" transform="translate(25.99 239.61)"><path class="edge" d="M 0 0 V -239.61 H -25.99" /><rect class="sym" height="6" width="6" x="-3" y="-3" /><text class="lab" transform="translate(0 11)">S18</text></g><path class="edge" d="M 0 0 V -35.6447 H 26.555" /><circle class="sym" cx="0" cy="0" r="3" /><text class="lab lft" transform="translate(-3 -7.0)">79</text></g><path class="edge" d="M 0 0 V -19.3457 H 26.8375" /><circle class="sym" cx="0" cy="0" r="3" /><text class="lab lft" transform="translate(-3 -7.0)">83</text></g><circle class="sym" cx="0" cy="0" r="3" /><text class="lab" transform="translate(0 -11)">87</text></g></g></g><g class="tree t9" transform="translate(795.36 0)"><g class="plotbox"><g class="c2 node n87 p0 root" transform="translate(128.763 26.8)"><g class="a87 leaf node n48 p0 sample" transform="translate(26.8375 244.622)"><path class="edge" d="M 0 0 V -244.622 H -26.8375" /><rect class="sym" height="6" width="6" x="-3" y="-3" /><text class="lab" transform="translate(0 11)">3 samples</text></g><g class="a87 c2 node n82 p0" transform="translate(-26.8375 20.9272)"><g class="a82 c2 node n76 p0" transform="translate(26.555 59.6802)"><g class="a76 leaf node n70 p0 sample" transform="translate(-9.04 26.6279)"><path class="edge" d="M 0 0 V -26.6279 H 9.04" /><rect class="sym" height="6" width="6" x="-3" y="-3" /><text class="lab" transform="translate(0 11)">7 samples</text></g><g class="a76 leaf node n74 p0 sample" transform="translate(9.04 8.3968)"><path class="edge" d="M 0 0 V -8.3968 H -9.04" /><rect class="sym" height="6" width="6" x="-3" y="-3" /><text class="lab" transform="translate(0 11)">4 samples</text></g><path class="edge" d="M 0 0 V -59.6802 H -26.555" /><circle class="sym" cx="0" cy="0" r="3" /><text class="lab rgt" transform="translate(3 -7.0)">76</text></g><g class="a82 c2 node n79 p0" transform="translate(-26.555 34.0632)"><g class="a79 c2 node n78 p0" transform="translate(-25.99 21.8981)"><g class="a78 c2 node n75 p0" transform="translate(20.34 8.2755)"><g class="a75 leaf node n72 p0 sample" transform="translate(13.56 20.8428)"><path class="edge" d="M 0 0 V -20.8428 H -13.56" /><rect class="sym" height="6" width="6" x="-3" y="-3" /><text class="lab" transform="translate(0 11)">11 samples</text></g><g class="a75 c2 node n73 p0" transform="translate(-13.56 13.0154)"><g class="a73 leaf node n64 p0 sample" transform="translate(-9.04 43.4372)"><path class="edge" d="M 0 0 V -43.4372 H 9.04" /><rect class="sym" height="6" width="6" x="-3" y="-3" /><text class="lab" transform="translate(0 11)">7 samples</text></g><g class="a73 leaf node n66 p0 sample" transform="translate(9.04 34.1875)"><path class="edge" d="M 0 0 V -34.1875 H -9.04" /><rect class="sym" height="6" width="6" x="-3" y="-3" /><text class="lab" transform="translate(0 11)">6 samples</text></g><path class="edge" d="M 0 0 V -13.0154 H 13.56" /><circle class="sym" cx="0" cy="0" r="3" /><text class="lab lft" transform="translate(-3 -7.0)">73</text></g><path class="edge" d="M 0 0 V -8.2755 H -20.34" /><circle class="sym" cx="0" cy="0" r="3" /><text class="lab rgt" transform="translate(3 -7.0)">75</text></g><g class="a78 i5 leaf node n11 p0 sample" transform="translate(-20.34 217.711)"><path class="edge" d="M 0 0 V -217.711 H 20.34" /><rect class="sym" height="6" width="6" x="-3" y="-3" /><text class="lab" transform="translate(0 11)">S11</text></g><path class="edge" d="M 0 0 V -21.8981 H 25.99" /><circle class="sym" cx="0" cy="0" r="3" /><text class="lab lft" transform="translate(-3 -7.0)">78</text></g><g class="a79 i9 leaf node n18 p0 sample" transform="translate(25.99 239.61)"><path class="edge" d="M 0 0 V -239.61 H -25.99" /><rect class="sym" height="6" width="6" x="-3" y="-3" /><text class="lab" transform="translate(0 11)">S18</text></g><path class="edge" d="M 0 0 V -34.0632 H 26.555" /><circle class="sym" cx="0" cy="0" r="3" /><text class="lab lft" transform="translate(-3 -7.0)">79</text></g><path class="edge" d="M 0 0 V -20.9272 H 26.8375" /><circle class="sym" cx="0" cy="0" r="3" /><text class="lab lft" transform="translate(-3 -7.0)">82</text></g><circle class="sym" cx="0" cy="0" r="3" /><text class="lab" transform="translate(0 -11)">87</text></g></g></g></g></g></svg>