<svg baseProfile="full" height="200" version="1.1" width="600" xmlns="http://www.w3.org/2000/svg" xmlns:ev="http://www.w3.org/2001/xml-events" xmlns:xlink="http://www.w3.org/1999/xlink"><defs><style type="text/css"><![CDATA[.background path {fill: #808080; fill-opacity: 0}.background path:nth-child(odd) {fill-opacity: .1}.x-regions rect {fill: yellow; stroke: black; opacity: 0.5}.axes {font-size: 14px}.x-axis .tick .lab {font-weight: bold; dominant-baseline: hanging}.axes, .tree {font-size: 14px; text-anchor: middle}.axes line, .edge {stroke: black; fill: none}.axes .ax-skip {stroke-dasharray: 4}.y-axis .grid {stroke: #FAFAFA}.node > .sym {fill: black; stroke: none}.site > .sym {stroke: black}.mut text {fill: red; font-style: italic}.mut.extra text {fill: hotpink}.mut line {fill: none; stroke: none}.mut .sym {fill: none; stroke: red}.mut.extra .sym {stroke: hotpink}.node .mut .sym {stroke-width: 1.5px}.tree text, .tree-sequence text {dominant-baseline: central}.plotbox .lab.lft {text-anchor: end}.plotbox .lab.rgt {text-anchor: start}.polytomy line {stroke: black; stroke-dasharray: 1px, 1px}.polytomy text {paint-order:stroke;stroke-width:0.3em;stroke:white}]]></style></defs><g class="tree-sequence"><g class="background"><path d="M56.8,16.8 l174.4,0 l0,121.4 l-142.328,25 l0,5 l-32.0722,0 l0,-5 l0,-25 l0,-121.4z"/><path d="M231.2,16.8 l174.4,0 l0,121.4 l-62.1387,25 l0,5 l-254.589,0 l0,-5 l142.328,-25 l0,-121.4z"/><path d="M405.6,16.8 l174.4,0 l0,121.4 l0,25 l0,5 l-236.539,0 l0,-5 l62.139,-25 l0,-121.4z"/></g><g class="axes"><g class="x-axis"><g class="title" transform="translate(318.4 200)"><text class="lab" text-anchor="middle" transform="translate(0 -11)">Genome position</text></g><line class="ax-line" x1="56.8" x2="580" y1="163.2" y2="163.2"/><g class="ticks"><g class="tick" transform="translate(56.8 163.2)"><line x1="0" x2="0" y1="0" y2="5"/><g transform="translate(0 6)"><text class="lab">0</text></g></g><g class="tick" transform="translate(88.8722 163.2)"><line x1="0" x2="0" y1="0" y2="5"/><g transform="translate(0 6)"><text class="lab">613</text></g></g><g class="tick" transform="translate(343.461 163.2)"><line x1="0" x2="0" y1="0" y2="5"/><g transform="translate(0 6)"><text class="lab">5479</text></g></g></g><g class="site s0" transform="translate(213.865 163.2)"><line class="sym" x1="0" x2="0" y1="0" y2="-10"/><g class="mut m0"><polyline class="sym" points="2.5,-6.5 0,-1.5 -2.5,-6.5"/></g></g><g class="site s1" transform="translate(288.421 163.2)"><line class="sym" x1="0" x2="0" y1="0" y2="-10"/><g class="mut m1"><polyline class="sym" points="2.5,-6.5 0,-1.5 -2.5,-6.5"/></g></g><g class="site s2" transform="translate(358.686 163.2)"><line class="sym" x1="0" x2="0" y1="0" y2="-10"/><g class="mut m2"><polyline class="sym" points="2.5,-6.5 0,-1.5 -2.5,-6.5"/></g></g><g class="site s3" transform="translate(397.351 163.2)"><line class="sym" x1="0" x2="0" y1="0" y2="-10"/><g class="mut m3"><polyline class="sym" points="2.5,-6.5 0,-1.5 -2.5,-6.5"/></g></g></g><g class="y-axis"><g class="title" transform="translate(0 74.1)"><text class="lab" text-anchor="middle" transform="translate(11) rotate(-90)">Time ago (generations)</text></g><line class="ax-line" x1="56.8" x2="56.8" y1="121.4" y2="26.8"/><g class="ticks"><g class="tick" transform="translate(56.8 121.4)"><line x1="0" x2="-5" y1="0" y2="0"/><g transform="translate(-6 0)"><text class="lab" text-anchor="end">0</text></g></g><g class="tick" transform="translate(56.8 102.515)"><line x1="0" x2="-5" y1="0" y2="0"/><g transform="translate(-6 0)"><text class="lab" text-anchor="end">2000</text></g></g><g class="tick" transform="translate(56.8 83.6292)"><line x1="0" x2="-5" y1="0" y2="0"/><g transform="translate(-6 0)"><text class="lab" text-anchor="end">4000</text></g></g><g class="tick" transform="translate(56.8 64.7438)"><line x1="0" x2="-5" y1="0" y2="0"/><g transform="translate(-6 0)"><text class="lab" text-anchor="end">6000</text></g></g><g class="tick" transform="translate(56.8 45.8584)"><line x1="0" x2="-5" y1="0" y2="0"/><g transform="translate(-6 0)"><text class="lab" text-anchor="end">8000</text></g></g></g></g></g><g class="plotbox trees"><g class="tree t-1" transform="translate(56.8 16.8)"><g class="plotbox"><g class="c2 node n1016 p0 root" transform="translate(85.94 26.8)"><g class="a1016 c2 node n323 p0" transform="translate(-39.06 57.3288)"><g class="a323 c2 node n12 p0" transform="translate(13.44 20.034)"><g class="a12 i1 leaf node n2 p0 sample" transform="translate(-6.72 0.437197)"><path class="edge e0" d="M 0 0 V -0.437197 H 6.72"/><rect class="sym" height="6" width="6" x="-3" y="-3"/><text class="lab" transform="translate(0 11)">2</text></g><g class="a12 i2 leaf node n4 p0 sample" transform="translate(6.72 0.437197)"><path class="edge e1" d="M 0 0 V -0.437197 H -6.72"/><rect class="sym" height="6" width="6" x="-3" y="-3"/><text class="lab" transform="translate(0 11)">4</text></g><path class="edge e14" d="M 0 0 V -20.034 H -13.44"/><circle class="sym" cx="0" cy="0" r="3"/><text class="lab rgt" transform="translate(3 -7)"/></g><g class="a323 c2 node n42 p0" transform="translate(-13.44 19.2865)"><g class="a42 i0 leaf node n0 p0 sample" transform="translate(-6.72 1.18468)"><path class="edge e2" d="M 0 0 V -1.18468 H 6.72"/><rect class="sym" height="6" width="6" x="-3" y="-3"/><text class="lab" transform="translate(0 11)">0</text></g><g class="a42 i3 leaf node n6 p0 sample" transform="translate(6.72 1.18468)"><path class="edge e3" d="M 0 0 V -1.18468 H -6.72"/><rect class="sym" height="6" width="6" x="-3" y="-3"/><text class="lab" transform="translate(0 11)">6</text></g><path class="edge e15" d="M 0 0 V -19.2865 H 13.44"/><circle class="sym" cx="0" cy="0" r="3"/><text class="lab lft" transform="translate(-3 -7)"/></g><path class="edge e22" d="M 0 0 V -57.3288 H 39.06"/><circle class="sym" cx="0" cy="0" r="3"/><text class="lab lft" transform="translate(-3 -7)"/></g><g class="a1016 c2 node n896 p0" transform="translate(39.06 12.9426)"><g class="a896 i1 leaf node n3 p0 sample" transform="translate(22.68 64.8574)"><path class="edge e18" d="M 0 0 V -64.8574 H -22.68"/><rect class="sym" height="6" width="6" x="-3" y="-3"/><text class="lab" transform="translate(0 11)">3</text></g><g class="a896 c2 node n276 p0" transform="translate(-22.68 47.5552)"><g class="a276 c2 node n115 p0" transform="translate(15.12 10.4109)"><g class="a115 i2 leaf node n5 p0 sample" transform="translate(-10.08 6.89142)"><path class="edge e6" d="M 0 0 V -6.89142 H 10.08"/><rect class="sym" height="6" width="6" x="-3" y="-3"/><text class="lab" transform="translate(0 11)">5</text></g><g class="a115 c2 node n74 p0" transform="translate(10.08 2.73648)"><g class="a74 i3 leaf node n7 p0 sample" transform="translate(-6.72 4.15494)"><path class="edge e4" d="M 0 0 V -4.15494 H 6.72"/><rect class="sym" height="6" width="6" x="-3" y="-3"/><text class="lab" transform="translate(0 11)">7</text></g><g class="a74 i4 leaf node n8 p0 sample" transform="translate(6.72 4.15494)"><path class="edge e5" d="M 0 0 V -4.15494 H -6.72"/><rect class="sym" height="6" width="6" x="-3" y="-3"/><text class="lab" transform="translate(0 11)">8</text></g><path class="edge e7" d="M 0 0 V -2.73648 H -10.08"/><circle class="sym" cx="0" cy="0" r="3"/><text class="lab rgt" transform="translate(3 -7)"/></g><path class="edge e10" d="M 0 0 V -10.4109 H -15.12"/><circle class="sym" cx="0" cy="0" r="3"/><text class="lab rgt" transform="translate(3 -7)"/></g><g class="a276 c2 node n201 p0" transform="translate(-15.12 4.70936)"><g class="a201 i0 leaf node n1 p0 sample" transform="translate(-6.72 12.5929)"><path class="edge e8" d="M 0 0 V -12.5929 H 6.72"/><rect class="sym" height="6" width="6" x="-3" y="-3"/><text class="lab" transform="translate(0 11)">1</text></g><g class="a201 i4 leaf node n9 p0 sample" transform="translate(6.72 12.5929)"><path class="edge e9" d="M 0 0 V -12.5929 H -6.72"/><rect class="sym" height="6" width="6" x="-3" y="-3"/><text class="lab" transform="translate(0 11)">9</text></g><path class="edge e11" d="M 0 0 V -4.70936 H 15.12"/><circle class="sym" cx="0" cy="0" r="3"/><text class="lab lft" transform="translate(-3 -7)"/></g><path class="edge e19" d="M 0 0 V -47.5552 H 22.68"/><circle class="sym" cx="0" cy="0" r="3"/><text class="lab lft" transform="translate(-3 -7)"/></g><path class="edge e24" d="M 0 0 V -12.9426 H -39.06"/><circle class="sym" cx="0" cy="0" r="3"/><text class="lab rgt" transform="translate(3 -7)"/></g><circle class="sym" cx="0" cy="0" r="3"/><text class="lab" transform="translate(0 -11)"/></g></g></g><g class="tree t0" transform="translate(231.2 16.8)"><g class="plotbox"><g class="c2 node n1016 p0 root" transform="translate(85.94 26.8)"><g class="a1016 c2 node n323 p0" transform="translate(-39.06 57.3288)"><g class="a323 c2 node n12 p0" transform="translate(13.44 20.034)"><g class="a12 i1 leaf node n2 p0 sample" transform="translate(-6.72 0.437197)"><path class="edge e0" d="M 0 0 V -0.437197 H 6.72"/><rect class="sym" height="6" width="6" x="-3" y="-3"/><text class="lab" transform="translate(0 11)">2</text></g><g class="a12 i2 leaf node n4 p0 sample" transform="translate(6.72 0.437197)"><path class="edge e1" d="M 0 0 V -0.437197 H -6.72"/><rect class="sym" height="6" width="6" x="-3" y="-3"/><text class="lab" transform="translate(0 11)">4</text></g><path class="edge e14" d="M 0 0 V -20.034 H -13.44"/><circle class="sym" cx="0" cy="0" r="3"/><text class="lab rgt" transform="translate(3 -7)"/></g><g class="a323 c2 node n42 p0" transform="translate(-13.44 19.2865)"><g class="a42 i0 leaf node n0 p0 sample" transform="translate(-6.72 1.18468)"><path class="edge e2" d="M 0 0 V -1.18468 H 6.72"/><rect class="sym" height="6" width="6" x="-3" y="-3"/><text class="lab" transform="translate(0 11)">0</text></g><g class="a42 i3 leaf node n6 p0 sample" transform="translate(6.72 1.18468)"><path class="edge e3" d="M 0 0 V -1.18468 H -6.72"/><rect class="sym" height="6" width="6" x="-3" y="-3"/><text class="lab" transform="translate(0 11)">6</text></g><path class="edge e15" d="M 0 0 V -19.2865 H 13.44"/><circle class="sym" cx="0" cy="0" r="3"/><text class="lab lft" transform="translate(-3 -7)"/></g><path class="edge e22" d="M 0 0 V -57.3288 H 39.06"/><circle class="sym" cx="0" cy="0" r="3"/><text class="lab lft" transform="translate(-3 -7)"/></g><g class="a1016 c2 m0 m1 node n293 p0 s0 s1" transform="translate(39.06 59.5266)"><g class="a293 i1 leaf node n3 p0 sample" transform="translate(22.68 18.2734)"><path class="edge e12" d="M 0 0 V -18.2734 H -22.68"/><rect class="sym" height="6" width="6" x="-3" y="-3"/><text class="lab" transform="translate(0 11)">3</text></g><g class="a293 c2 node n276 p0" transform="translate(-22.68 0.971104)"><g class="a276 c2 node n115 p0" transform="translate(15.12 10.4109)"><g class="a115 i2 leaf node n5 p0 sample" transform="translate(-10.08 6.89142)"><path class="edge e6" d="M 0 0 V -6.89142 H 10.08"/><rect class="sym" height="6" width="6" x="-3" y="-3"/><text class="lab" transform="translate(0 11)">5</text></g><g class="a115 c2 node n74 p0" transform="translate(10.08 2.73648)"><g class="a74 i3 leaf node n7 p0 sample" transform="translate(-6.72 4.15494)"><path class="edge e4" d="M 0 0 V -4.15494 H 6.72"/><rect class="sym" height="6" width="6" x="-3" y="-3"/><text class="lab" transform="translate(0 11)">7</text></g><g class="a74 i4 leaf node n8 p0 sample" transform="translate(6.72 4.15494)"><path class="edge e5" d="M 0 0 V -4.15494 H -6.72"/><rect class="sym" height="6" width="6" x="-3" y="-3"/><text class="lab" transform="translate(0 11)">8</text></g><path class="edge e7" d="M 0 0 V -2.73648 H -10.08"/><circle class="sym" cx="0" cy="0" r="3"/><text class="lab rgt" transform="translate(3 -7)"/></g><path class="edge e10" d="M 0 0 V -10.4109 H -15.12"/><circle class="sym" cx="0" cy="0" r="3"/><text class="lab rgt" transform="translate(3 -7)"/></g><g class="a276 c2 node n201 p0" transform="translate(-15.12 4.70936)"><g class="a201 i0 leaf node n1 p0 sample" transform="translate(-6.72 12.5929)"><path class="edge e8" d="M 0 0 V -12.5929 H 6.72"/><rect class="sym" height="6" width="6" x="-3" y="-3"/><text class="lab" transform="translate(0 11)">1</text></g><g class="a201 i4 leaf node n9 p0 sample" transform="translate(6.72 12.5929)"><path class="edge e9" d="M 0 0 V -12.5929 H -6.72"/><rect class="sym" height="6" width="6" x="-3" y="-3"/><text class="lab" transform="translate(0 11)">9</text></g><path class="edge e11" d="M 0 0 V -4.70936 H 15.12"/><circle class="sym" cx="0" cy="0" r="3"/><text class="lab lft" transform="translate(-3 -7)"/></g><path class="edge e13" d="M 0 0 V -0.971104 H 22.68"/><circle class="sym" cx="0" cy="0" r="3"/><text class="lab lft" transform="translate(-3 -7)"/></g><path class="edge e21" d="M 0 0 V -59.5266 H -39.06"/><g class="mut m0 s0" transform="translate(0 -49.8631)"><line x1="0" x2="0" y1="0" y2="49.8631"/><path class="sym" d="M -3,-3 l 6,6 M -3,3 l 6,-6"/><text class="lab rgt" transform="translate(5 0)">0</text></g><g class="mut m1 s1" transform="translate(0 -2.93147)"><line x1="0" x2="0" y1="0" y2="2.93147"/><path class="sym" d="M -3,-3 l 6,6 M -3,3 l 6,-6"/><text class="lab rgt" transform="translate(5 0)">1</text></g><circle class="sym" cx="0" cy="0" r="3"/><text class="lab rgt" transform="translate(3 -7)"/></g><circle class="sym" cx="0" cy="0" r="3"/><text class="lab" transform="translate(0 -11)"/></g></g></g><g class="tree t1" transform="translate(405.6 16.8)"><g class="plotbox"><g class="c2 node n1016 p0 root" transform="translate(103.37 26.8)"><g class="a1016 c2 m2 node n12 p0 s2" transform="translate(37.59 77.3628)"><g class="a12 i1 leaf node n2 p0 sample" transform="translate(-6.72 0.437197)"><path class="edge e0" d="M 0 0 V -0.437197 H 6.72"/><rect class="sym" height="6" width="6" x="-3" y="-3"/><text class="lab" transform="translate(0 11)">2</text></g><g class="a12 i2 leaf node n4 p0 sample" transform="translate(6.72 0.437197)"><path class="edge e1" d="M 0 0 V -0.437197 H -6.72"/><rect class="sym" height="6" width="6" x="-3" y="-3"/><text class="lab" transform="translate(0 11)">4</text></g><path class="edge e20" d="M 0 0 V -77.3628 H -37.59"/><g class="mut m2 s2" transform="translate(0 -38.102)"><line x1="0" x2="0" y1="0" y2="38.102"/><path class="sym" d="M -3,-3 l 6,6 M -3,3 l 6,-6"/><text class="lab rgt" transform="translate(5 0)">2</text></g><circle class="sym" cx="0" cy="0" r="3"/><text class="lab rgt" transform="translate(3 -7)"/></g><g class="a1016 c2 node n470 p0" transform="translate(-37.59 47.5221)"><g class="a470 c2 node n42 p0" transform="translate(-32.34 29.0932)"><g class="a42 i0 leaf node n0 p0 sample" transform="translate(-6.72 1.18468)"><path class="edge e2" d="M 0 0 V -1.18468 H 6.72"/><rect class="sym" height="6" width="6" x="-3" y="-3"/><text class="lab" transform="translate(0 11)">0</text></g><g class="a42 i3 leaf node n6 p0 sample" transform="translate(6.72 1.18468)"><path class="edge e3" d="M 0 0 V -1.18468 H -6.72"/><rect class="sym" height="6" width="6" x="-3" y="-3"/><text class="lab" transform="translate(0 11)">6</text></g><path class="edge e16" d="M 0 0 V -29.0932 H 32.34"/><circle class="sym" cx="0" cy="0" r="3"/><text class="lab lft" transform="translate(-3 -7)"/></g><g class="a470 c2 node n293 p0" transform="translate(32.34 12.0045)"><g class="a293 i1 leaf node n3 p0 sample" transform="translate(22.68 18.2734)"><path class="edge e12" d="M 0 0 V -18.2734 H -22.68"/><rect class="sym" height="6" width="6" x="-3" y="-3"/><text class="lab" transform="translate(0 11)">3</text></g><g class="a293 c2 node n276 p0" transform="translate(-22.68 0.971104)"><g class="a276 c2 node n115 p0" transform="translate(15.12 10.4109)"><g class="a115 i2 leaf node n5 p0 sample" transform="translate(-10.08 6.89142)"><path class="edge e6" d="M 0 0 V -6.89142 H 10.08"/><rect class="sym" height="6" width="6" x="-3" y="-3"/><text class="lab" transform="translate(0 11)">5</text></g><g class="a115 c2 node n74 p0" transform="translate(10.08 2.73648)"><g class="a74 i3 leaf node n7 p0 sample" transform="translate(-6.72 4.15494)"><path class="edge e4" d="M 0 0 V -4.15494 H 6.72"/><rect class="sym" height="6" width="6" x="-3" y="-3"/><text class="lab" transform="translate(0 11)">7</text></g><g class="a74 i4 leaf node n8 p0 sample" transform="translate(6.72 4.15494)"><path class="edge e5" d="M 0 0 V -4.15494 H -6.72"/><rect class="sym" height="6" width="6" x="-3" y="-3"/><text class="lab" transform="translate(0 11)">8</text></g><path class="edge e7" d="M 0 0 V -2.73648 H -10.08"/><circle class="sym" cx="0" cy="0" r="3"/><text class="lab rgt" transform="translate(3 -7)"/></g><path class="edge e10" d="M 0 0 V -10.4109 H -15.12"/><circle class="sym" cx="0" cy="0" r="3"/><text class="lab rgt" transform="translate(3 -7)"/></g><g class="a276 c2 node n201 p0" transform="translate(-15.12 4.70936)"><g class="a201 i0 leaf node n1 p0 sample" transform="translate(-6.72 12.5929)"><path class="edge e8" d="M 0 0 V -12.5929 H 6.72"/><rect class="sym" height="6" width="6" x="-3" y="-3"/><text class="lab" transform="translate(0 11)">1</text></g><g class="a201 i4 leaf m3 node n9 p0 s3 sample" transform="translate(6.72 12.5929)"><path class="edge e9" d="M 0 0 V -12.5929 H -6.72"/><g class="mut m3 s3" transform="translate(0 -4.86563)"><line x1="0" x2="0" y1="0" y2="4.86563"/><path class="sym" d="M -3,-3 l 6,6 M -3,3 l 6,-6"/><text class="lab rgt" transform="translate(5 0)">3</text></g><rect class="sym" height="6" width="6" x="-3" y="-3"/><text class="lab" transform="translate(0 11)">9</text></g><path class="edge e11" d="M 0 0 V -4.70936 H 15.12"/><circle class="sym" cx="0" cy="0" r="3"/><text class="lab lft" transform="translate(-3 -7)"/></g><path class="edge e13" d="M 0 0 V -0.971104 H 22.68"/><circle class="sym" cx="0" cy="0" r="3"/><text class="lab lft" transform="translate(-3 -7)"/></g><path class="edge e17" d="M 0 0 V -12.0045 H -32.34"/><circle class="sym" cx="0" cy="0" r="3"/><text class="lab rgt" transform="translate(3 -7)"/></g><path class="edge e23" d="M 0 0 V -47.5221 H 37.59"/><circle class="sym" cx="0" cy="0" r="3"/><text class="lab lft" transform="translate(-3 -7)"/></g><circle class="sym" cx="0" cy="0" r="3"/><text class="lab" transform="translate(0 -11)"/></g></g></g></g></g><g class="title" transform="translate(300 0)"><text dominant-baseline="hanging" text-anchor="middle">Genealogy of the first 10 samples for the first 10kb of the genome</text></g></svg>