<svg baseProfile="full" height="200" version="1.1" width="200" xmlns="http://www.w3.org/2000/svg" xmlns:ev="http://www.w3.org/2001/xml-events" xmlns:xlink="http://www.w3.org/1999/xlink"><defs><style type="text/css"><![CDATA[.background path {fill: #808080; fill-opacity: 0}.background path:nth-child(odd) {fill-opacity: .1}.axes {font-size: 14px}.x-axis .tick .lab {font-weight: bold; dominant-baseline: hanging}.axes, .tree {font-size: 14px; text-anchor: middle}.axes line, .edge {stroke: black; fill: none}.axes .ax-skip {stroke-dasharray: 4}.y-axis .grid {stroke: #FAFAFA}.node > .sym {fill: black; stroke: none}.site > .sym {stroke: black}.mut text {fill: red; font-style: italic}.mut.extra text {fill: hotpink}.mut line {fill: none; stroke: none}.mut .sym {fill: none; stroke: red}.mut.extra .sym {stroke: hotpink}.node .mut .sym {stroke-width: 1.5px}.tree text, .tree-sequence text {dominant-baseline: central}.plotbox .lab.lft {text-anchor: end}.plotbox .lab.rgt {text-anchor: start}]]></style></defs><g class="tree t0"><g class="plotbox"><g class="c2 node n0 root" transform="translate(76 26.8)"><g class="a0 leaf m0 m11 m12 m17 m18 m2 m22 m23 m25 m28 m33 m35 m40 m43 m48 m9 node n1 s0 s11 s12 s17 s2 s21 s22 s24 s27 s31 s33 s37 s40 s45 s9 sample" transform="translate(-40 141.4)"><path class="edge" d="M 0 0 V -141.4 H 40" /><g class="mut m22 s21" transform="translate(0 -127.435)"><line x1="0" x2="0" y1="0" y2="127.435" /><path class="sym" d="M -3,-3 l 6,6 M -3,3 l 6,-6" /><text class="lab lft" transform="translate(-5 0)">22</text></g><g class="mut m48 s45" transform="translate(0 -122.487)"><line x1="0" x2="0" y1="0" y2="122.487" /><path class="sym" d="M -3,-3 l 6,6 M -3,3 l 6,-6" /><text class="lab lft" transform="translate(-5 0)">48</text></g><g class="mut m9 s9" transform="translate(0 -117.179)"><line x1="0" x2="0" y1="0" y2="117.179" /><path class="sym" d="M -3,-3 l 6,6 M -3,3 l 6,-6" /><text class="lab lft" transform="translate(-5 0)">9</text></g><g class="mut m23 s22" transform="translate(0 -103.238)"><line x1="0" x2="0" y1="0" y2="103.238" /><path class="sym" d="M -3,-3 l 6,6 M -3,3 l 6,-6" /><text class="lab lft" transform="translate(-5 0)">23</text></g><g class="mut m25 s24" transform="translate(0 -86.5872)"><line x1="0" x2="0" y1="0" y2="86.5872" /><path class="sym" d="M -3,-3 l 6,6 M -3,3 l 6,-6" /><text class="lab lft" transform="translate(-5 0)">25</text></g><g class="mut m2 s2" transform="translate(0 -86.2261)"><line x1="0" x2="0" y1="0" y2="86.2261" /><path class="sym" d="M -3,-3 l 6,6 M -3,3 l 6,-6" /><text class="lab lft" transform="translate(-5 0)">2</text></g><g class="mut m12 s12" transform="translate(0 -81.9828)"><line x1="0" x2="0" y1="0" y2="81.9828" /><path class="sym" d="M -3,-3 l 6,6 M -3,3 l 6,-6" /><text class="lab lft" transform="translate(-5 0)">12</text></g><g class="mut m35 s33" transform="translate(0 -76.3377)"><line x1="0" x2="0" y1="0" y2="76.3377" /><path class="sym" d="M -3,-3 l 6,6 M -3,3 l 6,-6" /><text class="lab lft" transform="translate(-5 0)">35</text></g><g class="mut m11 s11" transform="translate(0 -67.7386)"><line x1="0" x2="0" y1="0" y2="67.7386" /><path class="sym" d="M -3,-3 l 6,6 M -3,3 l 6,-6" /><text class="lab lft" transform="translate(-5 0)">11</text></g><g class="mut m28 s27" transform="translate(0 -61.9573)"><line x1="0" x2="0" y1="0" y2="61.9573" /><path class="sym" d="M -3,-3 l 6,6 M -3,3 l 6,-6" /><text class="lab lft" transform="translate(-5 0)">28</text></g><g class="mut m17 s17" transform="translate(0 -55.5125)"><line x1="0" x2="0" y1="0" y2="55.5125" /><path class="sym" d="M -3,-3 l 6,6 M -3,3 l 6,-6" /><text class="lab lft" transform="translate(-5 0)">17</text></g><g class="mut m43 s40" transform="translate(0 -24.1698)"><line x1="0" x2="0" y1="0" y2="24.1698" /><path class="sym" d="M -3,-3 l 6,6 M -3,3 l 6,-6" /><text class="lab lft" transform="translate(-5 0)">43</text></g><g class="mut m0 s0" transform="translate(0 -16.5197)"><line x1="0" x2="0" y1="0" y2="16.5197" /><path class="sym" d="M -3,-3 l 6,6 M -3,3 l 6,-6" /><text class="lab lft" transform="translate(-5 0)">0</text></g><g class="mut m18 s17" transform="translate(0 -15.9474)"><line x1="0" x2="0" y1="0" y2="15.9474" /><path class="sym" d="M -3,-3 l 6,6 M -3,3 l 6,-6" /><text class="lab lft" transform="translate(-5 0)">18</text></g><g class="mut m33 s31" transform="translate(0 -15.3672)"><line x1="0" x2="0" y1="0" y2="15.3672" /><path class="sym" d="M -3,-3 l 6,6 M -3,3 l 6,-6" /><text class="lab lft" transform="translate(-5 0)">33</text></g><g class="mut m40 s37" transform="translate(0 -2.89926)"><line x1="0" x2="0" y1="0" y2="2.89926" /><path class="sym" d="M -3,-3 l 6,6 M -3,3 l 6,-6" /><text class="lab lft" transform="translate(-5 0)">40</text></g><rect class="sym" height="6" width="6" x="-3" y="-3" /><text class="lab" transform="translate(0 11)">1</text></g><g class="a0 c2 m3 m30 m37 m39 m8 node n2 s29 s3 s35 s37 s8" transform="translate(40 70.7)"><g class="a2 c2 m29 m31 m45 node n3 s28 s30 s42" transform="translate(-32 47.1333)"><g class="a3 leaf m13 m34 m46 node n5 s13 s32 s43 sample" transform="translate(-16 23.5667)"><path class="edge" d="M 0 0 V -23.5667 H 16" /><g class="mut m46 s43" transform="translate(0 -11.274)"><line x1="0" x2="0" y1="0" y2="11.274" /><path class="sym" d="M -3,-3 l 6,6 M -3,3 l 6,-6" /><text class="lab lft" transform="translate(-5 0)">46</text></g><g class="mut m13 s13" transform="translate(0 -9.17206)"><line x1="0" x2="0" y1="0" y2="9.17206" /><path class="sym" d="M -3,-3 l 6,6 M -3,3 l 6,-6" /><text class="lab lft" transform="translate(-5 0)">13</text></g><g class="mut m34 s32" transform="translate(0 -5.62899)"><line x1="0" x2="0" y1="0" y2="5.62899" /><path class="sym" d="M -3,-3 l 6,6 M -3,3 l 6,-6" /><text class="lab lft" transform="translate(-5 0)">34</text></g><rect class="sym" height="6" width="6" x="-3" y="-3" /><text class="lab" transform="translate(0 11)">5</text></g><g class="a3 leaf m15 m16 m27 m42 m44 m6 node n6 s15 s16 s26 s39 s41 s6 sample" transform="translate(16 23.5667)"><path class="edge" d="M 0 0 V -23.5667 H -16" /><g class="mut m27 s26" transform="translate(0 -17.949)"><line x1="0" x2="0" y1="0" y2="17.949" /><path class="sym" d="M -3,-3 l 6,6 M -3,3 l 6,-6" /><text class="lab rgt" transform="translate(5 0)">27</text></g><g class="mut m44 s41" transform="translate(0 -12.1921)"><line x1="0" x2="0" y1="0" y2="12.1921" /><path class="sym" d="M -3,-3 l 6,6 M -3,3 l 6,-6" /><text class="lab rgt" transform="translate(5 0)">44</text></g><g class="mut m15 s15" transform="translate(0 -8.49987)"><line x1="0" x2="0" y1="0" y2="8.49987" /><path class="sym" d="M -3,-3 l 6,6 M -3,3 l 6,-6" /><text class="lab rgt" transform="translate(5 0)">15</text></g><g class="mut m16 s16" transform="translate(0 -8.09801)"><line x1="0" x2="0" y1="0" y2="8.09801" /><path class="sym" d="M -3,-3 l 6,6 M -3,3 l 6,-6" /><text class="lab rgt" transform="translate(5 0)">16</text></g><g class="mut m42 s39" transform="translate(0 -6.38127)"><line x1="0" x2="0" y1="0" y2="6.38127" /><path class="sym" d="M -3,-3 l 6,6 M -3,3 l 6,-6" /><text class="lab rgt" transform="translate(5 0)">42</text></g><g class="mut m6 s6" transform="translate(0 -5.00305)"><line x1="0" x2="0" y1="0" y2="5.00305" /><path class="sym" d="M -3,-3 l 6,6 M -3,3 l 6,-6" /><text class="lab rgt" transform="translate(5 0)">6</text></g><rect class="sym" height="6" width="6" x="-3" y="-3" /><text class="lab" transform="translate(0 11)">6</text></g><path class="edge" d="M 0 0 V -47.1333 H 32" /><g class="mut m31 s30" transform="translate(0 -43.5201)"><line x1="0" x2="0" y1="0" y2="43.5201" /><path class="sym" d="M -3,-3 l 6,6 M -3,3 l 6,-6" /><text class="lab lft" transform="translate(-5 0)">31</text></g><g class="mut m45 s42" transform="translate(0 -37.7685)"><line x1="0" x2="0" y1="0" y2="37.7685" /><path class="sym" d="M -3,-3 l 6,6 M -3,3 l 6,-6" /><text class="lab lft" transform="translate(-5 0)">45</text></g><g class="mut m29 s28" transform="translate(0 -23.1123)"><line x1="0" x2="0" y1="0" y2="23.1123" /><path class="sym" d="M -3,-3 l 6,6 M -3,3 l 6,-6" /><text class="lab lft" transform="translate(-5 0)">29</text></g><circle class="sym" cx="0" cy="0" r="3" /><text class="lab lft" transform="translate(-3 -7.0)">3</text></g><g class="a2 c2 m1 m10 m20 m5 node n4 s1 s10 s19 s5" transform="translate(32 23.5667)"><g class="a4 leaf m19 m21 m24 m41 m47 node n7 s18 s20 s23 s38 s44 sample" transform="translate(-16 47.1333)"><path class="edge" d="M 0 0 V -47.1333 H 16" /><g class="mut m21 s20" transform="translate(0 -37.444)"><line x1="0" x2="0" y1="0" y2="37.444" /><path class="sym" d="M -3,-3 l 6,6 M -3,3 l 6,-6" /><text class="lab lft" transform="translate(-5 0)">21</text></g><g class="mut m24 s23" transform="translate(0 -24.2251)"><line x1="0" x2="0" y1="0" y2="24.2251" /><path class="sym" d="M -3,-3 l 6,6 M -3,3 l 6,-6" /><text class="lab lft" transform="translate(-5 0)">24</text></g><g class="mut m41 s38" transform="translate(0 -21.3653)"><line x1="0" x2="0" y1="0" y2="21.3653" /><path class="sym" d="M -3,-3 l 6,6 M -3,3 l 6,-6" /><text class="lab lft" transform="translate(-5 0)">41</text></g><g class="mut m19 s18" transform="translate(0 -12.0261)"><line x1="0" x2="0" y1="0" y2="12.0261" /><path class="sym" d="M -3,-3 l 6,6 M -3,3 l 6,-6" /><text class="lab lft" transform="translate(-5 0)">19</text></g><g class="mut m47 s44" transform="translate(0 -5.3721)"><line x1="0" x2="0" y1="0" y2="5.3721" /><path class="sym" d="M -3,-3 l 6,6 M -3,3 l 6,-6" /><text class="lab lft" transform="translate(-5 0)">47</text></g><rect class="sym" height="6" width="6" x="-3" y="-3" /><text class="lab" transform="translate(0 11)">7</text></g><g class="a4 leaf m14 m26 m32 m36 m38 m4 m7 node n8 s14 s25 s31 s34 s36 s4 s7 sample" transform="translate(16 47.1333)"><path class="edge" d="M 0 0 V -47.1333 H -16" /><g class="mut m4 s4" transform="translate(0 -43.9923)"><line x1="0" x2="0" y1="0" y2="43.9923" /><path class="sym" d="M -3,-3 l 6,6 M -3,3 l 6,-6" /><text class="lab rgt" transform="translate(5 0)">4</text></g><g class="mut m32 s31" transform="translate(0 -42.9908)"><line x1="0" x2="0" y1="0" y2="42.9908" /><path class="sym" d="M -3,-3 l 6,6 M -3,3 l 6,-6" /><text class="lab rgt" transform="translate(5 0)">32</text></g><g class="mut m36 s34" transform="translate(0 -18.3134)"><line x1="0" x2="0" y1="0" y2="18.3134" /><path class="sym" d="M -3,-3 l 6,6 M -3,3 l 6,-6" /><text class="lab rgt" transform="translate(5 0)">36</text></g><g class="mut m38 s36" transform="translate(0 -17.7199)"><line x1="0" x2="0" y1="0" y2="17.7199" /><path class="sym" d="M -3,-3 l 6,6 M -3,3 l 6,-6" /><text class="lab rgt" transform="translate(5 0)">38</text></g><g class="mut m14 s14" transform="translate(0 -16.6868)"><line x1="0" x2="0" y1="0" y2="16.6868" /><path class="sym" d="M -3,-3 l 6,6 M -3,3 l 6,-6" /><text class="lab rgt" transform="translate(5 0)">14</text></g><g class="mut m26 s25" transform="translate(0 -14.9868)"><line x1="0" x2="0" y1="0" y2="14.9868" /><path class="sym" d="M -3,-3 l 6,6 M -3,3 l 6,-6" /><text class="lab rgt" transform="translate(5 0)">26</text></g><g class="mut m7 s7" transform="translate(0 -2.03216)"><line x1="0" x2="0" y1="0" y2="2.03216" /><path class="sym" d="M -3,-3 l 6,6 M -3,3 l 6,-6" /><text class="lab rgt" transform="translate(5 0)">7</text></g><rect class="sym" height="6" width="6" x="-3" y="-3" /><text class="lab" transform="translate(0 11)">8</text></g><path class="edge" d="M 0 0 V -23.5667 H -32" /><g class="mut m10 s10" transform="translate(0 -21.4894)"><line x1="0" x2="0" y1="0" y2="21.4894" /><path class="sym" d="M -3,-3 l 6,6 M -3,3 l 6,-6" /><text class="lab rgt" transform="translate(5 0)">10</text></g><g class="mut m1 s1" transform="translate(0 -21.3432)"><line x1="0" x2="0" y1="0" y2="21.3432" /><path class="sym" d="M -3,-3 l 6,6 M -3,3 l 6,-6" /><text class="lab rgt" transform="translate(5 0)">1</text></g><g class="mut m5 s5" transform="translate(0 -12.0083)"><line x1="0" x2="0" y1="0" y2="12.0083" /><path class="sym" d="M -3,-3 l 6,6 M -3,3 l 6,-6" /><text class="lab rgt" transform="translate(5 0)">5</text></g><g class="mut m20 s19" transform="translate(0 -11.8786)"><line x1="0" x2="0" y1="0" y2="11.8786" /><path class="sym" d="M -3,-3 l 6,6 M -3,3 l 6,-6" /><text class="lab rgt" transform="translate(5 0)">20</text></g><circle class="sym" cx="0" cy="0" r="3" /><text class="lab rgt" transform="translate(3 -7.0)">4</text></g><path class="edge" d="M 0 0 V -70.7 H -40" /><g class="mut m37 s35" transform="translate(0 -69.562)"><line x1="0" x2="0" y1="0" y2="69.562" /><path class="sym" d="M -3,-3 l 6,6 M -3,3 l 6,-6" /><text class="lab rgt" transform="translate(5 0)">37</text></g><g class="mut m3 s3" transform="translate(0 -65.7142)"><line x1="0" x2="0" y1="0" y2="65.7142" /><path class="sym" d="M -3,-3 l 6,6 M -3,3 l 6,-6" /><text class="lab rgt" transform="translate(5 0)">3</text></g><g class="mut m39 s37" transform="translate(0 -51.7297)"><line x1="0" x2="0" y1="0" y2="51.7297" /><path class="sym" d="M -3,-3 l 6,6 M -3,3 l 6,-6" /><text class="lab rgt" transform="translate(5 0)">39</text></g><g class="mut m30 s29" transform="translate(0 -43.5841)"><line x1="0" x2="0" y1="0" y2="43.5841" /><path class="sym" d="M -3,-3 l 6,6 M -3,3 l 6,-6" /><text class="lab rgt" transform="translate(5 0)">30</text></g><g class="mut m8 s8" transform="translate(0 -17.3833)"><line x1="0" x2="0" y1="0" y2="17.3833" /><path class="sym" d="M -3,-3 l 6,6 M -3,3 l 6,-6" /><text class="lab rgt" transform="translate(5 0)">8</text></g><circle class="sym" cx="0" cy="0" r="3" /><text class="lab rgt" transform="translate(3 -7.0)">2</text></g><circle class="sym" cx="0" cy="0" r="3" /><text class="lab" transform="translate(0 -11)">0</text></g></g></g></svg>