<svg baseProfile="full" height="200" version="1.1" width="200" xmlns="http://www.w3.org/2000/svg" xmlns:ev="http://www.w3.org/2001/xml-events" xmlns:xlink="http://www.w3.org/1999/xlink"><defs><style type="text/css"><![CDATA[.background path {fill: #808080; fill-opacity: 0}.background path:nth-child(odd) {fill-opacity: .1}.axes {font-size: 14px}.x-axis .tick .lab {font-weight: bold; dominant-baseline: hanging}.axes, .tree {font-size: 14px; text-anchor: middle}.axes line, .edge {stroke: black; fill: none}.axes .ax-skip {stroke-dasharray: 4}.y-axis .grid {stroke: #FAFAFA}.node > .sym {fill: black; stroke: none}.site > .sym {stroke: black}.mut text {fill: red; font-style: italic}.mut.extra text {fill: hotpink}.mut line {fill: none; stroke: none}.mut .sym {fill: none; stroke: red}.mut.extra .sym {stroke: hotpink}.node .mut .sym {stroke-width: 1.5px}.tree text, .tree-sequence text {dominant-baseline: central}.plotbox .lab.lft {text-anchor: end}.plotbox .lab.rgt {text-anchor: start}]]></style></defs><g class="tree t0"><g class="axes"><g class="y-axis"><g class="title" transform="translate(0 89.1)"><text class="lab" text-anchor="middle" transform="translate(11) rotate(-90)">Time</text></g><line class="ax-line" x1="56.8" x2="56.8" y1="168.2" y2="10" /><g class="ticks"><g class="tick" transform="translate(56.8 26.8)"><line x1="0" x2="-5" y1="0" y2="0" /><g transform="translate(-6 0)"><text class="lab" text-anchor="end">6</text></g></g><g class="tick" transform="translate(56.8 168.2)"><line x1="0" x2="-5" y1="0" y2="0" /><g transform="translate(-6 0)"><text class="lab" text-anchor="end">0</text></g></g><g class="tick" transform="translate(56.8 97.5)"><line x1="0" x2="-5" y1="0" y2="0" /><g transform="translate(-6 0)"><text class="lab" text-anchor="end">3</text></g></g><g class="tick" transform="translate(56.8 144.633)"><line x1="0" x2="-5" y1="0" y2="0" /><g transform="translate(-6 0)"><text class="lab" text-anchor="end">1</text></g></g><g class="tick" transform="translate(56.8 121.067)"><line x1="0" x2="-5" y1="0" y2="0" /><g transform="translate(-6 0)"><text class="lab" text-anchor="end">2</text></g></g></g></g></g><g class="plotbox"><g class="c2 node n0 root" transform="translate(99.92 26.8)"><g class="a0 leaf node n1 sample" transform="translate(-30.8 141.4)"><path class="edge" d="M 0 0 V -141.4 H 30.8" /><rect class="sym" height="6" width="6" x="-3" y="-3" /><text class="lab" transform="translate(0 11)">1</text></g><g class="a0 c2 node n2" transform="translate(30.8 70.7)"><g class="a2 c2 node n3" transform="translate(-24.64 47.1333)"><g class="a3 leaf node n5 sample" transform="translate(-12.32 23.5667)"><path class="edge" d="M 0 0 V -23.5667 H 12.32" /><rect class="sym" height="6" width="6" x="-3" y="-3" /><text class="lab" transform="translate(0 11)">5</text></g><g class="a3 leaf node n6 sample" transform="translate(12.32 23.5667)"><path class="edge" d="M 0 0 V -23.5667 H -12.32" /><rect class="sym" height="6" width="6" x="-3" y="-3" /><text class="lab" transform="translate(0 11)">6</text></g><path class="edge" d="M 0 0 V -47.1333 H 24.64" /><circle class="sym" cx="0" cy="0" r="3" /><text class="lab lft" transform="translate(-3 -7.0)">3</text></g><g class="a2 c2 node n4" transform="translate(24.64 23.5667)"><g class="a4 leaf node n7 sample" transform="translate(-12.32 47.1333)"><path class="edge" d="M 0 0 V -47.1333 H 12.32" /><rect class="sym" height="6" width="6" x="-3" y="-3" /><text class="lab" transform="translate(0 11)">7</text></g><g class="a4 leaf node n8 sample" transform="translate(12.32 47.1333)"><path class="edge" d="M 0 0 V -47.1333 H -12.32" /><rect class="sym" height="6" width="6" x="-3" y="-3" /><text class="lab" transform="translate(0 11)">8</text></g><path class="edge" d="M 0 0 V -23.5667 H -24.64" /><circle class="sym" cx="0" cy="0" r="3" /><text class="lab rgt" transform="translate(3 -7.0)">4</text></g><path class="edge" d="M 0 0 V -70.7 H -30.8" /><circle class="sym" cx="0" cy="0" r="3" /><text class="lab rgt" transform="translate(3 -7.0)">2</text></g><circle class="sym" cx="0" cy="0" r="3" /><text class="lab" transform="translate(0 -11)">0</text></g></g></g></svg>