<svg baseProfile="full" height="200" version="1.1" width="800" xmlns="http://www.w3.org/2000/svg" xmlns:ev="http://www.w3.org/2001/xml-events" xmlns:xlink="http://www.w3.org/1999/xlink"><defs><style type="text/css"><![CDATA[.background path {fill: #808080; fill-opacity: 0}.background path:nth-child(odd) {fill-opacity: .1}.axes {font-size: 14px}.x-axis .tick .lab {font-weight: bold; dominant-baseline: hanging}.axes, .tree {font-size: 14px; text-anchor: middle}.axes line, .edge {stroke: black; fill: none}.axes .ax-skip {stroke-dasharray: 4}.y-axis .grid {stroke: #FAFAFA}.node > .sym {fill: black; stroke: none}.site > .sym {stroke: black}.mut text {fill: red; font-style: italic}.mut.extra text {fill: hotpink}.mut line {fill: none; stroke: none}.mut .sym {fill: none; stroke: red}.mut.extra .sym {stroke: hotpink}.node .mut .sym {stroke-width: 1.5px}.tree text, .tree-sequence text {dominant-baseline: central}.plotbox .lab.lft {text-anchor: end}.plotbox .lab.rgt {text-anchor: start}]]></style></defs><g class="tree-sequence"><g class="background"><path d="M20,0 l190,0 l0,138.2 l-89.528,25 l0,5 l-100.472,0 l0,-5 l0,-25 l0,-138.2z" /><path d="M210,0 l190,0 l0,138.2 l93.632,25 l0,5 l-373.16,0 l0,-5 l89.528,-25 l0,-138.2z" /><path d="M400,0 l190,0 l0,138.2 l106.552,25 l0,5 l-202.92,0 l0,-5 l-93.632,-25 l0,-138.2z" /><path d="M590,0 l190,0 l0,138.2 l0,25 l0,5 l-83.448,0 l0,-5 l-106.552,-25 l0,-138.2z" /></g><g class="axes"><g class="x-axis"><g class="title" transform="translate(400 200)"><text class="lab" text-anchor="middle" transform="translate(0 -11)">Genome position</text></g><line class="ax-line" x1="20" x2="780" y1="163.2" y2="163.2" /><g class="ticks"><g class="tick" transform="translate(20 163.2)"><line x1="0" x2="0" y1="0" y2="5" /><g transform="translate(0 6)"><text class="lab">0</text></g></g><g class="tick" transform="translate(120.472 163.2)"><line x1="0" x2="0" y1="0" y2="5" /><g transform="translate(0 6)"><text class="lab">661</text></g></g><g class="tick" transform="translate(493.632 163.2)"><line x1="0" x2="0" y1="0" y2="5" /><g transform="translate(0 6)"><text class="lab">3116</text></g></g><g class="tick" transform="translate(696.552 163.2)"><line x1="0" x2="0" y1="0" y2="5" /><g transform="translate(0 6)"><text class="lab">4451</text></g></g></g><g class="site s0" transform="translate(67.12 163.2)"><line class="sym" x1="0" x2="0" y1="0" y2="-10" /><g class="mut m0"><polyline class="sym" points="2.5,-6.5 0,-1.5 -2.5,-6.5" /></g></g><g class="site s1" transform="translate(155.28 163.2)"><line class="sym" x1="0" x2="0" y1="0" y2="-10" /><g class="mut m1"><polyline class="sym" points="2.5,-6.5 0,-1.5 -2.5,-6.5" /></g></g><g class="site s2" transform="translate(179.904 163.2)"><line class="sym" x1="0" x2="0" y1="0" y2="-10" /><g class="mut m2"><polyline class="sym" points="2.5,-6.5 0,-1.5 -2.5,-6.5" /></g></g><g class="site s3" transform="translate(229 163.2)"><line class="sym" x1="0" x2="0" y1="0" y2="-10" /><g class="mut m3"><polyline class="sym" points="2.5,-6.5 0,-1.5 -2.5,-6.5" /></g></g><g class="site s4" transform="translate(311.536 163.2)"><line class="sym" x1="0" x2="0" y1="0" y2="-10" /><g class="mut m4"><polyline class="sym" points="2.5,-6.5 0,-1.5 -2.5,-6.5" /></g></g><g class="site s5" transform="translate(767.992 163.2)"><line class="sym" x1="0" x2="0" y1="0" y2="-10" /><g class="mut m5"><polyline class="sym" points="2.5,-6.5 0,-1.5 -2.5,-6.5" /></g></g></g></g><g class="plotbox trees"><g class="tree t-1" transform="translate(20 0)"><g class="plotbox"><g class="c2 node n4406 p0 root" transform="translate(119.609 26.8)"><g class="a4406 c2 node n903 p0" transform="translate(-31.6406 86.5067)"><g class="a903 c2 node n46 p0" transform="translate(22.0312 7.90332)"><g class="a46 i2 leaf node n4 p0 sample" transform="translate(-7.5 0.190024)"><path class="edge" d="M 0 0 V -0.190024 H 7.5" /><rect class="sym" height="6" width="6" x="-3" y="-3" /><text class="lab" transform="translate(0 11)">4</text></g><g class="a46 i4 leaf node n9 p0 sample" transform="translate(7.5 0.190024)"><path class="edge" d="M 0 0 V -0.190024 H -7.5" /><rect class="sym" height="6" width="6" x="-3" y="-3" /><text class="lab" transform="translate(0 11)">9</text></g><path class="edge" d="M 0 0 V -7.90332 H -22.0312" /><circle class="sym" cx="0" cy="0" r="3" /><text class="lab rgt" transform="translate(3 -7.0)">46</text></g><g class="a903 c2 node n529 p0" transform="translate(-22.0312 3.044)"><g class="a529 i0 leaf node n1 p0 sample" transform="translate(21.5625 5.04934)"><path class="edge" d="M 0 0 V -5.04934 H -21.5625" /><rect class="sym" height="6" width="6" x="-3" y="-3" /><text class="lab" transform="translate(0 11)">1</text></g><g class="a529 c2 node n421 p0" transform="translate(-21.5625 0.903606)"><g class="a421 i0 leaf node n0 p0 sample" transform="translate(-16.875 4.14573)"><path class="edge" d="M 0 0 V -4.14573 H 16.875" /><rect class="sym" height="6" width="6" x="-3" y="-3" /><text class="lab" transform="translate(0 11)">0</text></g><g class="a421 c2 node n58 p0" transform="translate(16.875 3.73753)"><g class="a58 i4 leaf node n8 p0 sample" transform="translate(11.25 0.408205)"><path class="edge" d="M 0 0 V -0.408205 H -11.25" /><rect class="sym" height="6" width="6" x="-3" y="-3" /><text class="lab" transform="translate(0 11)">8</text></g><g class="a58 c2 node n51 p0" transform="translate(-11.25 0.195891)"><g class="a51 i2 leaf node n5 p0 sample" transform="translate(-7.5 0.212314)"><path class="edge" d="M 0 0 V -0.212314 H 7.5" /><rect class="sym" height="6" width="6" x="-3" y="-3" /><text class="lab" transform="translate(0 11)">5</text></g><g class="a51 i3 leaf node n7 p0 sample" transform="translate(7.5 0.212314)"><path class="edge" d="M 0 0 V -0.212314 H -7.5" /><rect class="sym" height="6" width="6" x="-3" y="-3" /><text class="lab" transform="translate(0 11)">7</text></g><path class="edge" d="M 0 0 V -0.195891 H 11.25" /><circle class="sym" cx="0" cy="0" r="3" /><text class="lab lft" transform="translate(-3 -7.0)">51</text></g><path class="edge" d="M 0 0 V -3.73753 H -16.875" /><circle class="sym" cx="0" cy="0" r="3" /><text class="lab rgt" transform="translate(3 -7.0)">58</text></g><path class="edge" d="M 0 0 V -0.903606 H 21.5625" /><circle class="sym" cx="0" cy="0" r="3" /><text class="lab lft" transform="translate(-3 -7.0)">421</text></g><path class="edge" d="M 0 0 V -3.044 H 22.0312" /><circle class="sym" cx="0" cy="0" r="3" /><text class="lab lft" transform="translate(-3 -7.0)">529</text></g><path class="edge" d="M 0 0 V -86.5067 H 31.6406" /><circle class="sym" cx="0" cy="0" r="3" /><text class="lab lft" transform="translate(-3 -7.0)">903</text></g><g class="a4406 c2 m0 node n1290 p0 s0" transform="translate(31.6406 82.8297)"><g class="a1290 i3 leaf node n6 p0 sample" transform="translate(11.25 11.7703)"><path class="edge" d="M 0 0 V -11.7703 H -11.25" /><rect class="sym" height="6" width="6" x="-3" y="-3" /><text class="lab" transform="translate(0 11)">6</text></g><g class="a1290 c2 node n233 p0" transform="translate(-11.25 9.29623)"><g class="a233 i1 leaf node n2 p0 sample" transform="translate(-7.5 2.47403)"><path class="edge" d="M 0 0 V -2.47403 H 7.5" /><rect class="sym" height="6" width="6" x="-3" y="-3" /><text class="lab" transform="translate(0 11)">2</text></g><g class="a233 i1 leaf node n3 p0 sample" transform="translate(7.5 2.47403)"><path class="edge" d="M 0 0 V -2.47403 H -7.5" /><rect class="sym" height="6" width="6" x="-3" y="-3" /><text class="lab" transform="translate(0 11)">3</text></g><path class="edge" d="M 0 0 V -9.29623 H 11.25" /><circle class="sym" cx="0" cy="0" r="3" /><text class="lab lft" transform="translate(-3 -7.0)">233</text></g><path class="edge" d="M 0 0 V -82.8297 H -31.6406" /><g class="mut m0 s0" transform="translate(0 -61.1937)"><line x1="0" x2="0" y1="0" y2="61.1937" /><path class="sym" d="M -3,-3 l 6,6 M -3,3 l 6,-6" /><text class="lab rgt" transform="translate(5 0)">0</text></g><circle class="sym" cx="0" cy="0" r="3" /><text class="lab rgt" transform="translate(3 -7.0)">1290</text></g><circle class="sym" cx="0" cy="0" r="3" /><text class="lab" transform="translate(0 -11)">4406</text></g></g></g><g class="tree t0" transform="translate(210 0)"><g class="plotbox"><g class="c2 node n4198 p0 root" transform="translate(119.609 41.7525)"><g class="a4198 c2 m1 node n903 p0 s1" transform="translate(-31.6406 71.5542)"><g class="a903 c2 node n46 p0" transform="translate(22.0312 7.90332)"><g class="a46 i2 leaf node n4 p0 sample" transform="translate(-7.5 0.190024)"><path class="edge" d="M 0 0 V -0.190024 H 7.5" /><rect class="sym" height="6" width="6" x="-3" y="-3" /><text class="lab" transform="translate(0 11)">4</text></g><g class="a46 i4 leaf node n9 p0 sample" transform="translate(7.5 0.190024)"><path class="edge" d="M 0 0 V -0.190024 H -7.5" /><rect class="sym" height="6" width="6" x="-3" y="-3" /><text class="lab" transform="translate(0 11)">9</text></g><path class="edge" d="M 0 0 V -7.90332 H -22.0312" /><circle class="sym" cx="0" cy="0" r="3" /><text class="lab rgt" transform="translate(3 -7.0)">46</text></g><g class="a903 c2 node n529 p0" transform="translate(-22.0312 3.044)"><g class="a529 i0 leaf node n1 p0 sample" transform="translate(21.5625 5.04934)"><path class="edge" d="M 0 0 V -5.04934 H -21.5625" /><rect class="sym" height="6" width="6" x="-3" y="-3" /><text class="lab" transform="translate(0 11)">1</text></g><g class="a529 c2 node n421 p0" transform="translate(-21.5625 0.903606)"><g class="a421 i0 leaf node n0 p0 sample" transform="translate(-16.875 4.14573)"><path class="edge" d="M 0 0 V -4.14573 H 16.875" /><rect class="sym" height="6" width="6" x="-3" y="-3" /><text class="lab" transform="translate(0 11)">0</text></g><g class="a421 c2 node n58 p0" transform="translate(16.875 3.73753)"><g class="a58 i4 leaf node n8 p0 sample" transform="translate(11.25 0.408205)"><path class="edge" d="M 0 0 V -0.408205 H -11.25" /><rect class="sym" height="6" width="6" x="-3" y="-3" /><text class="lab" transform="translate(0 11)">8</text></g><g class="a58 c2 node n51 p0" transform="translate(-11.25 0.195891)"><g class="a51 i2 leaf node n5 p0 sample" transform="translate(-7.5 0.212314)"><path class="edge" d="M 0 0 V -0.212314 H 7.5" /><rect class="sym" height="6" width="6" x="-3" y="-3" /><text class="lab" transform="translate(0 11)">5</text></g><g class="a51 i3 leaf node n7 p0 sample" transform="translate(7.5 0.212314)"><path class="edge" d="M 0 0 V -0.212314 H -7.5" /><rect class="sym" height="6" width="6" x="-3" y="-3" /><text class="lab" transform="translate(0 11)">7</text></g><path class="edge" d="M 0 0 V -0.195891 H 11.25" /><circle class="sym" cx="0" cy="0" r="3" /><text class="lab lft" transform="translate(-3 -7.0)">51</text></g><path class="edge" d="M 0 0 V -3.73753 H -16.875" /><circle class="sym" cx="0" cy="0" r="3" /><text class="lab rgt" transform="translate(3 -7.0)">58</text></g><path class="edge" d="M 0 0 V -0.903606 H 21.5625" /><circle class="sym" cx="0" cy="0" r="3" /><text class="lab lft" transform="translate(-3 -7.0)">421</text></g><path class="edge" d="M 0 0 V -3.044 H 22.0312" /><circle class="sym" cx="0" cy="0" r="3" /><text class="lab lft" transform="translate(-3 -7.0)">529</text></g><path class="edge" d="M 0 0 V -71.5542 H 31.6406" /><g class="mut m1 s1" transform="translate(0 -7.79646)"><line x1="0" x2="0" y1="0" y2="7.79646" /><path class="sym" d="M -3,-3 l 6,6 M -3,3 l 6,-6" /><text class="lab lft" transform="translate(-5 0)">1</text></g><circle class="sym" cx="0" cy="0" r="3" /><text class="lab lft" transform="translate(-3 -7.0)">903</text></g><g class="a4198 c2 m2 m3 m4 node n1290 p0 s2 s3 s4" transform="translate(31.6406 67.8773)"><g class="a1290 i3 leaf node n6 p0 sample" transform="translate(11.25 11.7703)"><path class="edge" d="M 0 0 V -11.7703 H -11.25" /><rect class="sym" height="6" width="6" x="-3" y="-3" /><text class="lab" transform="translate(0 11)">6</text></g><g class="a1290 c2 node n233 p0" transform="translate(-11.25 9.29623)"><g class="a233 i1 leaf node n2 p0 sample" transform="translate(-7.5 2.47403)"><path class="edge" d="M 0 0 V -2.47403 H 7.5" /><rect class="sym" height="6" width="6" x="-3" y="-3" /><text class="lab" transform="translate(0 11)">2</text></g><g class="a233 i1 leaf node n3 p0 sample" transform="translate(7.5 2.47403)"><path class="edge" d="M 0 0 V -2.47403 H -7.5" /><rect class="sym" height="6" width="6" x="-3" y="-3" /><text class="lab" transform="translate(0 11)">3</text></g><path class="edge" d="M 0 0 V -9.29623 H 11.25" /><circle class="sym" cx="0" cy="0" r="3" /><text class="lab lft" transform="translate(-3 -7.0)">233</text></g><path class="edge" d="M 0 0 V -67.8773 H -31.6406" /><g class="mut m2 s2" transform="translate(0 -40.676)"><line x1="0" x2="0" y1="0" y2="40.676" /><path class="sym" d="M -3,-3 l 6,6 M -3,3 l 6,-6" /><text class="lab rgt" transform="translate(5 0)">2</text></g><g class="mut m3 s3" transform="translate(0 -33.1012)"><line x1="0" x2="0" y1="0" y2="33.1012" /><path class="sym" d="M -3,-3 l 6,6 M -3,3 l 6,-6" /><text class="lab rgt" transform="translate(5 0)">3</text></g><g class="mut m4 s4" transform="translate(0 -21.2057)"><line x1="0" x2="0" y1="0" y2="21.2057" /><path class="sym" d="M -3,-3 l 6,6 M -3,3 l 6,-6" /><text class="lab rgt" transform="translate(5 0)">4</text></g><circle class="sym" cx="0" cy="0" r="3" /><text class="lab rgt" transform="translate(3 -7.0)">1290</text></g><circle class="sym" cx="0" cy="0" r="3" /><text class="lab" transform="translate(0 -11)">4198</text></g></g></g><g class="tree t1" transform="translate(400 0)"><g class="plotbox"><g class="c2 node n2913 p0 root" transform="translate(119.609 84.813)"><g class="a2913 c2 node n903 p0" transform="translate(-31.6406 28.4937)"><g class="a903 c2 node n46 p0" transform="translate(22.0312 7.90332)"><g class="a46 i2 leaf node n4 p0 sample" transform="translate(-7.5 0.190024)"><path class="edge" d="M 0 0 V -0.190024 H 7.5" /><rect class="sym" height="6" width="6" x="-3" y="-3" /><text class="lab" transform="translate(0 11)">4</text></g><g class="a46 i4 leaf node n9 p0 sample" transform="translate(7.5 0.190024)"><path class="edge" d="M 0 0 V -0.190024 H -7.5" /><rect class="sym" height="6" width="6" x="-3" y="-3" /><text class="lab" transform="translate(0 11)">9</text></g><path class="edge" d="M 0 0 V -7.90332 H -22.0312" /><circle class="sym" cx="0" cy="0" r="3" /><text class="lab rgt" transform="translate(3 -7.0)">46</text></g><g class="a903 c2 node n529 p0" transform="translate(-22.0312 3.044)"><g class="a529 i0 leaf node n1 p0 sample" transform="translate(21.5625 5.04934)"><path class="edge" d="M 0 0 V -5.04934 H -21.5625" /><rect class="sym" height="6" width="6" x="-3" y="-3" /><text class="lab" transform="translate(0 11)">1</text></g><g class="a529 c2 node n421 p0" transform="translate(-21.5625 0.903606)"><g class="a421 i0 leaf node n0 p0 sample" transform="translate(-16.875 4.14573)"><path class="edge" d="M 0 0 V -4.14573 H 16.875" /><rect class="sym" height="6" width="6" x="-3" y="-3" /><text class="lab" transform="translate(0 11)">0</text></g><g class="a421 c2 node n58 p0" transform="translate(16.875 3.73753)"><g class="a58 i4 leaf node n8 p0 sample" transform="translate(11.25 0.408205)"><path class="edge" d="M 0 0 V -0.408205 H -11.25" /><rect class="sym" height="6" width="6" x="-3" y="-3" /><text class="lab" transform="translate(0 11)">8</text></g><g class="a58 c2 node n51 p0" transform="translate(-11.25 0.195891)"><g class="a51 i2 leaf node n5 p0 sample" transform="translate(-7.5 0.212314)"><path class="edge" d="M 0 0 V -0.212314 H 7.5" /><rect class="sym" height="6" width="6" x="-3" y="-3" /><text class="lab" transform="translate(0 11)">5</text></g><g class="a51 i3 leaf node n7 p0 sample" transform="translate(7.5 0.212314)"><path class="edge" d="M 0 0 V -0.212314 H -7.5" /><rect class="sym" height="6" width="6" x="-3" y="-3" /><text class="lab" transform="translate(0 11)">7</text></g><path class="edge" d="M 0 0 V -0.195891 H 11.25" /><circle class="sym" cx="0" cy="0" r="3" /><text class="lab lft" transform="translate(-3 -7.0)">51</text></g><path class="edge" d="M 0 0 V -3.73753 H -16.875" /><circle class="sym" cx="0" cy="0" r="3" /><text class="lab rgt" transform="translate(3 -7.0)">58</text></g><path class="edge" d="M 0 0 V -0.903606 H 21.5625" /><circle class="sym" cx="0" cy="0" r="3" /><text class="lab lft" transform="translate(-3 -7.0)">421</text></g><path class="edge" d="M 0 0 V -3.044 H 22.0312" /><circle class="sym" cx="0" cy="0" r="3" /><text class="lab lft" transform="translate(-3 -7.0)">529</text></g><path class="edge" d="M 0 0 V -28.4937 H 31.6406" /><circle class="sym" cx="0" cy="0" r="3" /><text class="lab lft" transform="translate(-3 -7.0)">903</text></g><g class="a2913 c2 node n1290 p0" transform="translate(31.6406 24.8168)"><g class="a1290 i3 leaf node n6 p0 sample" transform="translate(11.25 11.7703)"><path class="edge" d="M 0 0 V -11.7703 H -11.25" /><rect class="sym" height="6" width="6" x="-3" y="-3" /><text class="lab" transform="translate(0 11)">6</text></g><g class="a1290 c2 node n233 p0" transform="translate(-11.25 9.29623)"><g class="a233 i1 leaf node n2 p0 sample" transform="translate(-7.5 2.47403)"><path class="edge" d="M 0 0 V -2.47403 H 7.5" /><rect class="sym" height="6" width="6" x="-3" y="-3" /><text class="lab" transform="translate(0 11)">2</text></g><g class="a233 i1 leaf node n3 p0 sample" transform="translate(7.5 2.47403)"><path class="edge" d="M 0 0 V -2.47403 H -7.5" /><rect class="sym" height="6" width="6" x="-3" y="-3" /><text class="lab" transform="translate(0 11)">3</text></g><path class="edge" d="M 0 0 V -9.29623 H 11.25" /><circle class="sym" cx="0" cy="0" r="3" /><text class="lab lft" transform="translate(-3 -7.0)">233</text></g><path class="edge" d="M 0 0 V -24.8168 H -31.6406" /><circle class="sym" cx="0" cy="0" r="3" /><text class="lab rgt" transform="translate(3 -7.0)">1290</text></g><circle class="sym" cx="0" cy="0" r="3" /><text class="lab" transform="translate(0 -11)">2913</text></g></g></g><g class="tree t2" transform="translate(590 0)"><g class="plotbox"><g class="c2 node n4293 p0 root" transform="translate(119.609 35.5362)"><g class="a4293 c2 node n903 p0" transform="translate(-31.6406 77.7704)"><g class="a903 c2 node n46 p0" transform="translate(22.0312 7.90332)"><g class="a46 i2 leaf node n4 p0 sample" transform="translate(-7.5 0.190024)"><path class="edge" d="M 0 0 V -0.190024 H 7.5" /><rect class="sym" height="6" width="6" x="-3" y="-3" /><text class="lab" transform="translate(0 11)">4</text></g><g class="a46 i4 leaf node n9 p0 sample" transform="translate(7.5 0.190024)"><path class="edge" d="M 0 0 V -0.190024 H -7.5" /><rect class="sym" height="6" width="6" x="-3" y="-3" /><text class="lab" transform="translate(0 11)">9</text></g><path class="edge" d="M 0 0 V -7.90332 H -22.0312" /><circle class="sym" cx="0" cy="0" r="3" /><text class="lab rgt" transform="translate(3 -7.0)">46</text></g><g class="a903 c2 node n529 p0" transform="translate(-22.0312 3.044)"><g class="a529 i0 leaf node n1 p0 sample" transform="translate(21.5625 5.04934)"><path class="edge" d="M 0 0 V -5.04934 H -21.5625" /><rect class="sym" height="6" width="6" x="-3" y="-3" /><text class="lab" transform="translate(0 11)">1</text></g><g class="a529 c2 node n421 p0" transform="translate(-21.5625 0.903606)"><g class="a421 i0 leaf node n0 p0 sample" transform="translate(-16.875 4.14573)"><path class="edge" d="M 0 0 V -4.14573 H 16.875" /><rect class="sym" height="6" width="6" x="-3" y="-3" /><text class="lab" transform="translate(0 11)">0</text></g><g class="a421 c2 node n58 p0" transform="translate(16.875 3.73753)"><g class="a58 i4 leaf node n8 p0 sample" transform="translate(11.25 0.408205)"><path class="edge" d="M 0 0 V -0.408205 H -11.25" /><rect class="sym" height="6" width="6" x="-3" y="-3" /><text class="lab" transform="translate(0 11)">8</text></g><g class="a58 c2 node n51 p0" transform="translate(-11.25 0.195891)"><g class="a51 i2 leaf node n5 p0 sample" transform="translate(-7.5 0.212314)"><path class="edge" d="M 0 0 V -0.212314 H 7.5" /><rect class="sym" height="6" width="6" x="-3" y="-3" /><text class="lab" transform="translate(0 11)">5</text></g><g class="a51 i3 leaf node n7 p0 sample" transform="translate(7.5 0.212314)"><path class="edge" d="M 0 0 V -0.212314 H -7.5" /><rect class="sym" height="6" width="6" x="-3" y="-3" /><text class="lab" transform="translate(0 11)">7</text></g><path class="edge" d="M 0 0 V -0.195891 H 11.25" /><circle class="sym" cx="0" cy="0" r="3" /><text class="lab lft" transform="translate(-3 -7.0)">51</text></g><path class="edge" d="M 0 0 V -3.73753 H -16.875" /><circle class="sym" cx="0" cy="0" r="3" /><text class="lab rgt" transform="translate(3 -7.0)">58</text></g><path class="edge" d="M 0 0 V -0.903606 H 21.5625" /><circle class="sym" cx="0" cy="0" r="3" /><text class="lab lft" transform="translate(-3 -7.0)">421</text></g><path class="edge" d="M 0 0 V -3.044 H 22.0312" /><circle class="sym" cx="0" cy="0" r="3" /><text class="lab lft" transform="translate(-3 -7.0)">529</text></g><path class="edge" d="M 0 0 V -77.7704 H 31.6406" /><circle class="sym" cx="0" cy="0" r="3" /><text class="lab lft" transform="translate(-3 -7.0)">903</text></g><g class="a4293 c2 m5 node n1290 p0 s5" transform="translate(31.6406 74.0935)"><g class="a1290 i3 leaf node n6 p0 sample" transform="translate(11.25 11.7703)"><path class="edge" d="M 0 0 V -11.7703 H -11.25" /><rect class="sym" height="6" width="6" x="-3" y="-3" /><text class="lab" transform="translate(0 11)">6</text></g><g class="a1290 c2 node n233 p0" transform="translate(-11.25 9.29623)"><g class="a233 i1 leaf node n2 p0 sample" transform="translate(-7.5 2.47403)"><path class="edge" d="M 0 0 V -2.47403 H 7.5" /><rect class="sym" height="6" width="6" x="-3" y="-3" /><text class="lab" transform="translate(0 11)">2</text></g><g class="a233 i1 leaf node n3 p0 sample" transform="translate(7.5 2.47403)"><path class="edge" d="M 0 0 V -2.47403 H -7.5" /><rect class="sym" height="6" width="6" x="-3" y="-3" /><text class="lab" transform="translate(0 11)">3</text></g><path class="edge" d="M 0 0 V -9.29623 H 11.25" /><circle class="sym" cx="0" cy="0" r="3" /><text class="lab lft" transform="translate(-3 -7.0)">233</text></g><path class="edge" d="M 0 0 V -74.0935 H -31.6406" /><g class="mut m5 s5" transform="translate(0 -70.9484)"><line x1="0" x2="0" y1="0" y2="70.9484" /><path class="sym" d="M -3,-3 l 6,6 M -3,3 l 6,-6" /><text class="lab rgt" transform="translate(5 0)">5</text></g><circle class="sym" cx="0" cy="0" r="3" /><text class="lab rgt" transform="translate(3 -7.0)">1290</text></g><circle class="sym" cx="0" cy="0" r="3" /><text class="lab" transform="translate(0 -11)">4293</text></g></g></g></g></g></svg>