<svg baseProfile="full" height="200" version="1.1" width="1000" xmlns="http://www.w3.org/2000/svg" xmlns:ev="http://www.w3.org/2001/xml-events" xmlns:xlink="http://www.w3.org/1999/xlink"><defs><style type="text/css"><![CDATA[.background path {fill: #808080; fill-opacity: 0}.background path:nth-child(odd) {fill-opacity: .1}.axes {font-size: 14px}.x-axis .tick .lab {font-weight: bold; dominant-baseline: hanging}.axes, .tree {font-size: 14px; text-anchor: middle}.axes line, .edge {stroke: black; fill: none}.axes .ax-skip {stroke-dasharray: 4}.y-axis .grid {stroke: #FAFAFA}.node > .sym {fill: black; stroke: none}.site > .sym {stroke: black}.mut text {fill: red; font-style: italic}.mut.extra text {fill: hotpink}.mut line {fill: none; stroke: none}.mut .sym {fill: none; stroke: red}.mut.extra .sym {stroke: hotpink}.node .mut .sym {stroke-width: 1.5px}.tree text, .tree-sequence text {dominant-baseline: central}.plotbox .lab.lft {text-anchor: end}.plotbox .lab.rgt {text-anchor: start}]]></style></defs><g class="tree t5382"><g class="plotbox"><g class="c2 node n226 p0 root" transform="translate(800.188 26.8)"><g class="a226 c2 node n225 p0" transform="translate(-131.812 0.249586)"><g class="a225 c2 node n207 p0" transform="translate(191.625 17.7782)"><g class="a207 i4 leaf node n8 p0 sample" transform="translate(-12 123.372)"><path class="edge" d="M 0 0 V -123.372 H 12" /><rect class="sym" height="6" width="6" x="-3" y="-3" /><text class="lab" transform="translate(0 11)">8</text></g><g class="a207 i10 leaf node n21 p0 sample" transform="translate(12 123.372)"><path class="edge" d="M 0 0 V -123.372 H -12" /><rect class="sym" height="6" width="6" x="-3" y="-3" /><text class="lab" transform="translate(0 11)">21</text></g><path class="edge" d="M 0 0 V -17.7782 H -191.625" /><circle class="sym" cx="0" cy="0" r="3" /><text class="lab rgt" transform="translate(3 -7.0)">207</text></g><g class="a225 c2 node n222 p0" transform="translate(-191.625 3.76299)"><g class="a222 c2 node n220 p0" transform="translate(190.875 7.79476)"><g class="a220 c2 node n219 p0" transform="translate(-97.875 0.844752)"><g class="a219 i1 leaf node n2 p0 sample" transform="translate(-57.75 128.748)"><path class="edge" d="M 0 0 V -128.748 H 57.75" /><rect class="sym" height="6" width="6" x="-3" y="-3" /><text class="lab" transform="translate(0 11)">2</text></g><g class="a219 c2 node n217 p0" transform="translate(57.75 1.36312)"><g class="a217 c2 node n213 p0" transform="translate(55.5 1.55511)"><g class="a213 c2 node n179 p0" transform="translate(-21 12.1913)"><g class="a179 i12 leaf node n25 p0 sample" transform="translate(18 113.638)"><path class="edge" d="M 0 0 V -113.638 H -18" /><rect class="sym" height="6" width="6" x="-3" y="-3" /><text class="lab" transform="translate(0 11)">25</text></g><g class="a179 c2 node n119 p0" transform="translate(-18 13.3624)"><g class="a119 i13 leaf node n26 p0 sample" transform="translate(12 100.276)"><path class="edge" d="M 0 0 V -100.276 H -12" /><rect class="sym" height="6" width="6" x="-3" y="-3" /><text class="lab" transform="translate(0 11)">26</text></g><g class="a119 i9 leaf node n18 p0 sample" transform="translate(-12 100.276)"><path class="edge" d="M 0 0 V -100.276 H 12" /><rect class="sym" height="6" width="6" x="-3" y="-3" /><text class="lab" transform="translate(0 11)">18</text></g><path class="edge" d="M 0 0 V -13.3624 H 18" /><circle class="sym" cx="0" cy="0" r="3" /><text class="lab lft" transform="translate(-3 -7.0)">119</text></g><path class="edge" d="M 0 0 V -12.1913 H 21" /><circle class="sym" cx="0" cy="0" r="3" /><text class="lab lft" transform="translate(-3 -7.0)">179</text></g><g class="a213 i19 leaf node n38 p0 sample" transform="translate(21 125.83)"><path class="edge" d="M 0 0 V -125.83 H -21" /><rect class="sym" height="6" width="6" x="-3" y="-3" /><text class="lab" transform="translate(0 11)">38</text></g><path class="edge" d="M 0 0 V -1.55511 H -55.5" /><circle class="sym" cx="0" cy="0" r="3" /><text class="lab rgt" transform="translate(3 -7.0)">213</text></g><g class="a217 c2 node n197 p0" transform="translate(-55.5 7.94835)"><g class="a197 c2 node n51 p0" transform="translate(-24 61.7053)"><g class="a51 i3 leaf node n7 p0 sample" transform="translate(-12 57.7311)"><path class="edge" d="M 0 0 V -57.7311 H 12" /><rect class="sym" height="6" width="6" x="-3" y="-3" /><text class="lab" transform="translate(0 11)">7</text></g><g class="a51 i19 leaf node n39 p0 sample" transform="translate(12 57.7311)"><path class="edge" d="M 0 0 V -57.7311 H -12" /><rect class="sym" height="6" width="6" x="-3" y="-3" /><text class="lab" transform="translate(0 11)">39</text></g><path class="edge" d="M 0 0 V -61.7053 H 24" /><circle class="sym" cx="0" cy="0" r="3" /><text class="lab lft" transform="translate(-3 -7.0)">51</text></g><g class="a197 c2 node n49 p0" transform="translate(24 66.2938)"><g class="a49 i7 leaf node n15 p0 sample" transform="translate(-12 53.1426)"><path class="edge" d="M 0 0 V -53.1426 H 12" /><rect class="sym" height="6" width="6" x="-3" y="-3" /><text class="lab" transform="translate(0 11)">15</text></g><g class="a49 i18 leaf node n37 p0 sample" transform="translate(12 53.1426)"><path class="edge" d="M 0 0 V -53.1426 H -12" /><rect class="sym" height="6" width="6" x="-3" y="-3" /><text class="lab" transform="translate(0 11)">37</text></g><path class="edge" d="M 0 0 V -66.2938 H -24" /><circle class="sym" cx="0" cy="0" r="3" /><text class="lab rgt" transform="translate(3 -7.0)">49</text></g><path class="edge" d="M 0 0 V -7.94835 H 55.5" /><circle class="sym" cx="0" cy="0" r="3" /><text class="lab lft" transform="translate(-3 -7.0)">197</text></g><path class="edge" d="M 0 0 V -1.36312 H -57.75" /><circle class="sym" cx="0" cy="0" r="3" /><text class="lab rgt" transform="translate(3 -7.0)">217</text></g><path class="edge" d="M 0 0 V -0.844752 H 97.875" /><circle class="sym" cx="0" cy="0" r="3" /><text class="lab lft" transform="translate(-3 -7.0)">219</text></g><g class="a220 c2 node n216 p0" transform="translate(97.875 2.24627)"><g class="a216 i6 leaf node n13 p0 sample" transform="translate(-37.5 127.346)"><path class="edge" d="M 0 0 V -127.346 H 37.5" /><rect class="sym" height="6" width="6" x="-3" y="-3" /><text class="lab" transform="translate(0 11)">13</text></g><g class="a216 c2 node n211 p0" transform="translate(37.5 3.26382)"><g class="a211 i17 leaf node n35 p0 sample" transform="translate(21 124.083)"><path class="edge" d="M 0 0 V -124.083 H -21" /><rect class="sym" height="6" width="6" x="-3" y="-3" /><text class="lab" transform="translate(0 11)">35</text></g><g class="a211 c2 node n192 p0" transform="translate(-21 6.64282)"><g class="a192 i16 leaf node n32 p0 sample" transform="translate(18 117.44)"><path class="edge" d="M 0 0 V -117.44 H -18" /><rect class="sym" height="6" width="6" x="-3" y="-3" /><text class="lab" transform="translate(0 11)">32</text></g><g class="a192 c2 node n113 p0" transform="translate(-18 18.1046)"><g class="a113 i13 leaf node n27 p0 sample" transform="translate(-12 99.3352)"><path class="edge" d="M 0 0 V -99.3352 H 12" /><rect class="sym" height="6" width="6" x="-3" y="-3" /><text class="lab" transform="translate(0 11)">27</text></g><g class="a113 i18 leaf node n36 p0 sample" transform="translate(12 99.3352)"><path class="edge" d="M 0 0 V -99.3352 H -12" /><rect class="sym" height="6" width="6" x="-3" y="-3" /><text class="lab" transform="translate(0 11)">36</text></g><path class="edge" d="M 0 0 V -18.1046 H 18" /><circle class="sym" cx="0" cy="0" r="3" /><text class="lab lft" transform="translate(-3 -7.0)">113</text></g><path class="edge" d="M 0 0 V -6.64282 H 21" /><circle class="sym" cx="0" cy="0" r="3" /><text class="lab lft" transform="translate(-3 -7.0)">192</text></g><path class="edge" d="M 0 0 V -3.26382 H -37.5" /><circle class="sym" cx="0" cy="0" r="3" /><text class="lab rgt" transform="translate(3 -7.0)">211</text></g><path class="edge" d="M 0 0 V -2.24627 H -97.875" /><circle class="sym" cx="0" cy="0" r="3" /><text class="lab rgt" transform="translate(3 -7.0)">216</text></g><path class="edge" d="M 0 0 V -7.79476 H -190.875" /><circle class="sym" cx="0" cy="0" r="3" /><text class="lab rgt" transform="translate(3 -7.0)">220</text></g><g class="a222 c2 node n221 p0" transform="translate(-190.875 0.748758)"><g class="a221 c2 node n215 p0" transform="translate(-100.125 9.44587)"><g class="a215 c2 node n204 p0" transform="translate(78.75 5.68288)"><g class="a204 c2 node n194 p0" transform="translate(-31.5 2.97583)"><g class="a194 c2 node n177 p0" transform="translate(27 5.49089)"><g class="a177 i15 leaf node n31 p0 sample" transform="translate(-12 113.043)"><path class="edge" d="M 0 0 V -113.043 H 12" /><rect class="sym" height="6" width="6" x="-3" y="-3" /><text class="lab" transform="translate(0 11)">31</text></g><g class="a177 i17 leaf node n34 p0 sample" transform="translate(12 113.043)"><path class="edge" d="M 0 0 V -113.043 H -12" /><rect class="sym" height="6" width="6" x="-3" y="-3" /><text class="lab" transform="translate(0 11)">34</text></g><path class="edge" d="M 0 0 V -5.49089 H -27" /><circle class="sym" cx="0" cy="0" r="3" /><text class="lab rgt" transform="translate(3 -7.0)">177</text></g><g class="a194 c2 node n180 p0" transform="translate(-27 4.70373)"><g class="a180 i16 leaf node n33 p0 sample" transform="translate(18 113.83)"><path class="edge" d="M 0 0 V -113.83 H -18" /><rect class="sym" height="6" width="6" x="-3" y="-3" /><text class="lab" transform="translate(0 11)">33</text></g><g class="a180 c2 node n112 p0" transform="translate(-18 14.5336)"><g class="a112 i8 leaf node n16 p0 sample" transform="translate(-12 99.2968)"><path class="edge" d="M 0 0 V -99.2968 H 12" /><rect class="sym" height="6" width="6" x="-3" y="-3" /><text class="lab" transform="translate(0 11)">16</text></g><g class="a112 i12 leaf node n24 p0 sample" transform="translate(12 99.2968)"><path class="edge" d="M 0 0 V -99.2968 H -12" /><rect class="sym" height="6" width="6" x="-3" y="-3" /><text class="lab" transform="translate(0 11)">24</text></g><path class="edge" d="M 0 0 V -14.5336 H 18" /><circle class="sym" cx="0" cy="0" r="3" /><text class="lab lft" transform="translate(-3 -7.0)">112</text></g><path class="edge" d="M 0 0 V -4.70373 H 27" /><circle class="sym" cx="0" cy="0" r="3" /><text class="lab lft" transform="translate(-3 -7.0)">180</text></g><path class="edge" d="M 0 0 V -2.97583 H 31.5" /><circle class="sym" cx="0" cy="0" r="3" /><text class="lab lft" transform="translate(-3 -7.0)">194</text></g><g class="a204 i14 leaf node n28 p0 sample" transform="translate(31.5 121.51)"><path class="edge" d="M 0 0 V -121.51 H -31.5" /><rect class="sym" height="6" width="6" x="-3" y="-3" /><text class="lab" transform="translate(0 11)">28</text></g><path class="edge" d="M 0 0 V -5.68288 H -78.75" /><circle class="sym" cx="0" cy="0" r="3" /><text class="lab rgt" transform="translate(3 -7.0)">204</text></g><g class="a215 c2 node n201 p0" transform="translate(-78.75 6.47003)"><g class="a201 i11 leaf node n22 p0 sample" transform="translate(45 120.723)"><path class="edge" d="M 0 0 V -120.723 H -45" /><rect class="sym" height="6" width="6" x="-3" y="-3" /><text class="lab" transform="translate(0 11)">22</text></g><g class="a201 c2 node n198 p0" transform="translate(-45 1.26713)"><g class="a198 i0 leaf node n0 p0 sample" transform="translate(-30 119.456)"><path class="edge" d="M 0 0 V -119.456 H 30" /><rect class="sym" height="6" width="6" x="-3" y="-3" /><text class="lab" transform="translate(0 11)">0</text></g><g class="a198 c2 node n195 p0" transform="translate(30 0.844752)"><g class="a195 c2 node n184 p0" transform="translate(24 3.83978)"><g class="a184 i5 leaf node n11 p0 sample" transform="translate(-12 114.771)"><path class="edge" d="M 0 0 V -114.771 H 12" /><rect class="sym" height="6" width="6" x="-3" y="-3" /><text class="lab" transform="translate(0 11)">11</text></g><g class="a184 i6 leaf node n12 p0 sample" transform="translate(12 114.771)"><path class="edge" d="M 0 0 V -114.771 H -12" /><rect class="sym" height="6" width="6" x="-3" y="-3" /><text class="lab" transform="translate(0 11)">12</text></g><path class="edge" d="M 0 0 V -3.83978 H -24" /><circle class="sym" cx="0" cy="0" r="3" /><text class="lab rgt" transform="translate(3 -7.0)">184</text></g><g class="a195 c2 node n191 p0" transform="translate(-24 1.53591)"><g class="a191 i9 leaf node n19 p0 sample" transform="translate(12 117.075)"><path class="edge" d="M 0 0 V -117.075 H -12" /><rect class="sym" height="6" width="6" x="-3" y="-3" /><text class="lab" transform="translate(0 11)">19</text></g><g class="a191 i3 leaf m6520 node n6 p0 s6515 sample" transform="translate(-12 117.075)"><path class="edge" d="M 0 0 V -117.075 H 12" /><g class="mut m6520 s6515" transform="translate(0 -80.038)"><line x1="0" x2="0" y1="0" y2="80.038" /><path class="sym" d="M -3,-3 l 6,6 M -3,3 l 6,-6" /><text class="lab lft" transform="translate(-5 0)">6520</text></g><rect class="sym" height="6" width="6" x="-3" y="-3" /><text class="lab" transform="translate(0 11)">6</text></g><path class="edge" d="M 0 0 V -1.53591 H 24" /><circle class="sym" cx="0" cy="0" r="3" /><text class="lab lft" transform="translate(-3 -7.0)">191</text></g><path class="edge" d="M 0 0 V -0.844752 H -30" /><circle class="sym" cx="0" cy="0" r="3" /><text class="lab rgt" transform="translate(3 -7.0)">195</text></g><path class="edge" d="M 0 0 V -1.26713 H 45" /><circle class="sym" cx="0" cy="0" r="3" /><text class="lab lft" transform="translate(-3 -7.0)">198</text></g><path class="edge" d="M 0 0 V -6.47003 H 78.75" /><circle class="sym" cx="0" cy="0" r="3" /><text class="lab lft" transform="translate(-3 -7.0)">201</text></g><path class="edge" d="M 0 0 V -9.44587 H 100.125" /><circle class="sym" cx="0" cy="0" r="3" /><text class="lab lft" transform="translate(-3 -7.0)">215</text></g><g class="a221 c2 node n218 p0" transform="translate(100.125 8.96589)"><g class="a218 c2 node n172 p0" transform="translate(-36 16.799)"><g class="a172 i15 leaf node n30 p0 sample" transform="translate(18 110.874)"><path class="edge" d="M 0 0 V -110.874 H -18" /><rect class="sym" height="6" width="6" x="-3" y="-3" /><text class="lab" transform="translate(0 11)">30</text></g><g class="a172 c2 node n158 p0" transform="translate(-18 3.07183)"><g class="a158 i1 leaf node n3 p0 sample" transform="translate(-12 107.802)"><path class="edge" d="M 0 0 V -107.802 H 12" /><rect class="sym" height="6" width="6" x="-3" y="-3" /><text class="lab" transform="translate(0 11)">3</text></g><g class="a158 i2 leaf node n5 p0 sample" transform="translate(12 107.802)"><path class="edge" d="M 0 0 V -107.802 H -12" /><rect class="sym" height="6" width="6" x="-3" y="-3" /><text class="lab" transform="translate(0 11)">5</text></g><path class="edge" d="M 0 0 V -3.07183 H 18" /><circle class="sym" cx="0" cy="0" r="3" /><text class="lab lft" transform="translate(-3 -7.0)">158</text></g><path class="edge" d="M 0 0 V -16.799 H 36" /><circle class="sym" cx="0" cy="0" r="3" /><text class="lab lft" transform="translate(-3 -7.0)">172</text></g><g class="a218 c2 node n196 p0" transform="translate(36 8.7931)"><g class="a196 i4 leaf node n9 p0 sample" transform="translate(-30 118.88)"><path class="edge" d="M 0 0 V -118.88 H 30" /><rect class="sym" height="6" width="6" x="-3" y="-3" /><text class="lab" transform="translate(0 11)">9</text></g><g class="a196 c2 node n154 p0" transform="translate(30 11.6537)"><g class="a154 c2 node n141 p0" transform="translate(24 2.01589)"><g class="a141 i8 leaf node n17 p0 sample" transform="translate(-12 105.21)"><path class="edge" d="M 0 0 V -105.21 H 12" /><rect class="sym" height="6" width="6" x="-3" y="-3" /><text class="lab" transform="translate(0 11)">17</text></g><g class="a141 i14 leaf node n29 p0 sample" transform="translate(12 105.21)"><path class="edge" d="M 0 0 V -105.21 H -12" /><rect class="sym" height="6" width="6" x="-3" y="-3" /><text class="lab" transform="translate(0 11)">29</text></g><path class="edge" d="M 0 0 V -2.01589 H -24" /><circle class="sym" cx="0" cy="0" r="3" /><text class="lab rgt" transform="translate(3 -7.0)">141</text></g><g class="a154 c2 node n58 p0" transform="translate(-24 35.4028)"><g class="a58 i7 leaf node n14 p0 sample" transform="translate(-12 71.8231)"><path class="edge" d="M 0 0 V -71.8231 H 12" /><rect class="sym" height="6" width="6" x="-3" y="-3" /><text class="lab" transform="translate(0 11)">14</text></g><g class="a58 i10 leaf node n20 p0 sample" transform="translate(12 71.8231)"><path class="edge" d="M 0 0 V -71.8231 H -12" /><rect class="sym" height="6" width="6" x="-3" y="-3" /><text class="lab" transform="translate(0 11)">20</text></g><path class="edge" d="M 0 0 V -35.4028 H 24" /><circle class="sym" cx="0" cy="0" r="3" /><text class="lab lft" transform="translate(-3 -7.0)">58</text></g><path class="edge" d="M 0 0 V -11.6537 H -30" /><circle class="sym" cx="0" cy="0" r="3" /><text class="lab rgt" transform="translate(3 -7.0)">154</text></g><path class="edge" d="M 0 0 V -8.7931 H -36" /><circle class="sym" cx="0" cy="0" r="3" /><text class="lab rgt" transform="translate(3 -7.0)">196</text></g><path class="edge" d="M 0 0 V -8.96589 H -100.125" /><circle class="sym" cx="0" cy="0" r="3" /><text class="lab rgt" transform="translate(3 -7.0)">218</text></g><path class="edge" d="M 0 0 V -0.748758 H 190.875" /><circle class="sym" cx="0" cy="0" r="3" /><text class="lab lft" transform="translate(-3 -7.0)">221</text></g><path class="edge" d="M 0 0 V -3.76299 H 191.625" /><circle class="sym" cx="0" cy="0" r="3" /><text class="lab lft" transform="translate(-3 -7.0)">222</text></g><path class="edge" d="M 0 0 V -0.249586 H 131.812" /><circle class="sym" cx="0" cy="0" r="3" /><text class="lab lft" transform="translate(-3 -7.0)">225</text></g><g class="a226 c2 node n202 p0" transform="translate(131.812 20.5236)"><g class="a202 c2 node n190 p0" transform="translate(24 4.16616)"><g class="a190 i2 leaf node n4 p0 sample" transform="translate(-12 116.71)"><path class="edge" d="M 0 0 V -116.71 H 12" /><rect class="sym" height="6" width="6" x="-3" y="-3" /><text class="lab" transform="translate(0 11)">4</text></g><g class="a190 i11 leaf node n23 p0 sample" transform="translate(12 116.71)"><path class="edge" d="M 0 0 V -116.71 H -12" /><rect class="sym" height="6" width="6" x="-3" y="-3" /><text class="lab" transform="translate(0 11)">23</text></g><path class="edge" d="M 0 0 V -4.16616 H -24" /><circle class="sym" cx="0" cy="0" r="3" /><text class="lab rgt" transform="translate(3 -7.0)">190</text></g><g class="a202 c2 node n116 p0" transform="translate(-24 20.9844)"><g class="a116 i0 leaf m6519 node n1 p0 s6514 sample" transform="translate(-12 99.8919)"><path class="edge" d="M 0 0 V -99.8919 H 12" /><g class="mut m6519 s6514" transform="translate(0 -31.4106)"><line x1="0" x2="0" y1="0" y2="31.4106" /><path class="sym" d="M -3,-3 l 6,6 M -3,3 l 6,-6" /><text class="lab lft" transform="translate(-5 0)">6519</text></g><rect class="sym" height="6" width="6" x="-3" y="-3" /><text class="lab" transform="translate(0 11)">1</text></g><g class="a116 i5 leaf node n10 p0 sample" transform="translate(12 99.8919)"><path class="edge" d="M 0 0 V -99.8919 H -12" /><rect class="sym" height="6" width="6" x="-3" y="-3" /><text class="lab" transform="translate(0 11)">10</text></g><path class="edge" d="M 0 0 V -20.9844 H 24" /><circle class="sym" cx="0" cy="0" r="3" /><text class="lab lft" transform="translate(-3 -7.0)">116</text></g><path class="edge" d="M 0 0 V -20.5236 H -131.812" /><circle class="sym" cx="0" cy="0" r="3" /><text class="lab rgt" transform="translate(3 -7.0)">202</text></g><circle class="sym" cx="0" cy="0" r="3" /><text class="lab" transform="translate(0 -11)">226</text></g></g></g></svg>