<svg xmlns="http://www.w3.org/2000/svg" xmlns:ev="http://www.w3.org/2001/xml-events" xmlns:xlink="http://www.w3.org/1999/xlink" baseProfile="full" height="200" version="1.1" width="200"><defs><style type="text/css"><![CDATA[.background path {fill: #808080; fill-opacity:0}.background path:nth-child(odd) {fill-opacity:.1}.axes {font-size: 14px}.x-axis .tick .lab {font-weight: bold}.axes, .tree {font-size: 14px; text-anchor:middle}.y-axis line.grid {stroke: #FAFAFA}.y-axis > .lab text {transform: translateX(0.8em) rotate(-90deg)}.x-axis .tick g {transform: translateY(0.9em)}.x-axis > .lab text {transform: translateY(-0.8em)}.axes line, .edge {stroke:black; fill:none}.node > .sym {fill: black; stroke: none}.site > .sym {stroke: black}.mut text {fill: red; font-style: italic}.mut.extra text {fill: hotpink}.mut line {fill: none; stroke: none}.mut .sym {fill: none; stroke: red}.mut.extra .sym {stroke: hotpink}.node .mut .sym {stroke-width: 1.5px}.tree text, .tree-sequence text {dominant-baseline: central}.plotbox .lab.lft {text-anchor: end}.plotbox .lab.rgt {text-anchor: start}]]></style></defs><g class="tree t0"><g class="plotbox"><g class="node n8 p1 root" transform="translate(112 26.8)"><g class="a8 m10 m12 m4 m8 node n6 p1 s10 s12 s4 s8" transform="translate(-36 69.8606)"><g class="a6 leaf m2 m7 node n1 p0 s2 s7 sample" transform="translate(24 71.5394)"><path class="edge" d="M 0 0 V -71.5394 H -24"/><g class="mut m2 s2" transform="translate(0 -40.1989)"><line x1="0" x2="0" y1="0" y2="40.1989"/><path class="sym" d="M -3,-3 l 6,6 M -3,3 l 6,-6" style="fill:red;"/><text class="lab rgt" transform="translate(5 0)">2</text></g><g class="mut m7 s7" transform="translate(0 -10.8796)"><line x1="0" x2="0" y1="0" y2="10.8796"/><path class="sym" d="M -3,-3 l 6,6 M -3,3 l 6,-6" style="fill:green;"/><text class="lab rgt" transform="translate(5 0)">7</text></g><rect class="sym" height="6" style="fill:red;" width="6" x="-3" y="-3"/><text class="lab" transform="translate(0 11)">1</text></g><g class="a6 m3 node n5 p1 s3" transform="translate(-24 67.4189)"><g class="a5 leaf node n0 p0 sample" transform="translate(-16 4.12056)"><path class="edge" d="M 0 0 V -4.12056 H 16"/><rect class="sym" height="6" style="fill:red;" width="6" x="-3" y="-3"/><text class="lab" transform="translate(0 11)">0</text></g><g class="a5 leaf node n3 p1 sample" transform="translate(16 4.12056)"><path class="edge" d="M 0 0 V -4.12056 H -16"/><rect class="sym" height="6" style="fill:blue;" width="6" x="-3" y="-3"/><text class="lab" transform="translate(0 11)">3</text></g><path class="edge" d="M 0 0 V -67.4189 H 24"/><g class="mut m3 s3" transform="translate(0 -32.7248)"><line x1="0" x2="0" y1="0" y2="32.7248"/><path class="sym" d="M -3,-3 l 6,6 M -3,3 l 6,-6" style="fill:blue;"/><text class="lab lft" transform="translate(-5 0)">3</text></g><circle class="sym" cx="0" cy="0" r="3" style="fill:blue;"/><text class="lab lft" transform="translate(-3 -7.0)">5</text></g><path class="edge" d="M 0 0 V -69.8606 H 36"/><g class="mut m10 s10" transform="translate(0 -67.6355)"><line x1="0" x2="0" y1="0" y2="67.6355"/><path class="sym" d="M -3,-3 l 6,6 M -3,3 l 6,-6" style="fill:blue;"/><text class="lab lft" transform="translate(-5 0)">10</text></g><g class="mut m8 s8" transform="translate(0 -49.7277)"><line x1="0" x2="0" y1="0" y2="49.7277"/><path class="sym" d="M -3,-3 l 6,6 M -3,3 l 6,-6" style="fill:blue;"/><text class="lab lft" transform="translate(-5 0)">8</text></g><g class="mut m12 s12" transform="translate(0 -9.7783)"><line x1="0" x2="0" y1="0" y2="9.7783"/><path class="sym" d="M -3,-3 l 6,6 M -3,3 l 6,-6" style="fill:blue;"/><text class="lab lft" transform="translate(-5 0)">12</text></g><g class="mut m4 s4" transform="translate(0 -4.83272)"><line x1="0" x2="0" y1="0" y2="4.83272"/><path class="sym" d="M -3,-3 l 6,6 M -3,3 l 6,-6" style="fill:blue;"/><text class="lab lft" transform="translate(-5 0)">4</text></g><circle class="sym" cx="0" cy="0" r="3" style="fill:blue;"/><text class="lab lft" transform="translate(-3 -7.0)">6</text></g><g class="a8 m1 m5 node n7 p1 s1 s5" transform="translate(36 66.5711)"><g class="a7 leaf m6 node n2 p0 s6 sample" transform="translate(-16 74.8289)"><path class="edge" d="M 0 0 V -74.8289 H 16"/><g class="mut m6 s6" transform="translate(0 -35.2208)"><line x1="0" x2="0" y1="0" y2="35.2208"/><path class="sym" d="M -3,-3 l 6,6 M -3,3 l 6,-6" style="fill:red;"/><text class="lab lft" transform="translate(-5 0)">6</text></g><rect class="sym" height="6" style="fill:red;" width="6" x="-3" y="-3"/><text class="lab" transform="translate(0 11)">2</text></g><g class="a7 leaf m0 m11 m9 node n4 p2 s0 s11 s9 sample" transform="translate(16 74.8289)"><path class="edge" d="M 0 0 V -74.8289 H -16"/><g class="mut m9 s9" transform="translate(0 -64.0529)"><line x1="0" x2="0" y1="0" y2="64.0529"/><path class="sym" d="M -3,-3 l 6,6 M -3,3 l 6,-6" style="fill:green;"/><text class="lab rgt" transform="translate(5 0)">9</text></g><g class="mut m0 s0" transform="translate(0 -55.7639)"><line x1="0" x2="0" y1="0" y2="55.7639"/><path class="sym" d="M -3,-3 l 6,6 M -3,3 l 6,-6" style="fill:green;"/><text class="lab rgt" transform="translate(5 0)">0</text></g><g class="mut m11 s11" transform="translate(0 -6.44489)"><line x1="0" x2="0" y1="0" y2="6.44489"/><path class="sym" d="M -3,-3 l 6,6 M -3,3 l 6,-6" style="fill:green;"/><text class="lab rgt" transform="translate(5 0)">11</text></g><rect class="sym" height="6" style="fill:green;" width="6" x="-3" y="-3"/><text class="lab" transform="translate(0 11)">4</text></g><path class="edge" d="M 0 0 V -66.5711 H -36"/><g class="mut m5 s5" transform="translate(0 -55.4384)"><line x1="0" x2="0" y1="0" y2="55.4384"/><path class="sym" d="M -3,-3 l 6,6 M -3,3 l 6,-6" style="fill:red;"/><text class="lab rgt" transform="translate(5 0)">5</text></g><g class="mut m1 s1" transform="translate(0 -27.4599)"><line x1="0" x2="0" y1="0" y2="27.4599"/><path class="sym" d="M -3,-3 l 6,6 M -3,3 l 6,-6" style="fill:red;"/><text class="lab rgt" transform="translate(5 0)">1</text></g><circle class="sym" cx="0" cy="0" r="3" style="fill:blue;"/><text class="lab rgt" transform="translate(3 -7.0)">7</text></g><circle class="sym" cx="0" cy="0" r="3" style="fill:blue;"/><text class="lab" transform="translate(0 -11)">8</text></g></g></g></svg>