<svg xmlns="http://www.w3.org/2000/svg" xmlns:ev="http://www.w3.org/2001/xml-events" xmlns:xlink="http://www.w3.org/1999/xlink" baseProfile="full" height="200" version="1.1" width="200"><defs><style type="text/css"><![CDATA[.axis {font-weight: bold}.tree, .axis {font-size: 14px; text-anchor:middle}.edge {stroke: black; fill: none}.node > .sym {fill: black; stroke: none}.tree text {dominant-baseline: middle}.tree .lab.lft {text-anchor: end}.tree .lab.rgt {text-anchor: start}.mut {fill: red; font-style: italic}]]></style></defs><g class="tree t0"><g class="node n8 p1 root" transform="translate(111.25 30.0)"><g class="a8 m10 m12 m4 m8 node n6 p1 s10 s12 s4 s8" transform="translate(-33.75 69.1689)"><g class="a6 leaf m2 m7 node n1 p0 s2 s7 sample" transform="translate(22.5 70.8311)"><path class="edge" d="M 0 0 V -70.8311 H -22.5"/><circle class="sym" cx="0" cy="0" r="3" style="fill:red;"/><text class="lab" transform="translate(0 12)">1</text><g class="mut m7 s7" transform="translate(0 -23.6104)"><rect class="sym" height="6" style="fill:green;" transform="translate(-3 -3)" width="6" x="0" y="0"/><text class="lab rgt" transform="translate(5 0)">7</text></g><g class="mut m2 s2" transform="translate(0 -47.2207)"><rect class="sym" height="6" style="fill:red;" transform="translate(-3 -3)" width="6" x="0" y="0"/><text class="lab rgt" transform="translate(5 0)">2</text></g></g><g class="a6 m3 node n5 p1 s3" transform="translate(-22.5 66.7513)"><g class="a5 leaf node n0 p0 sample" transform="translate(-15.0 4.07976)"><path class="edge" d="M 0 0 V -4.07976 H 15.0"/><circle class="sym" cx="0" cy="0" r="3" style="fill:red;"/><text class="lab" transform="translate(0 12)">0</text></g><g class="a5 leaf node n3 p1 sample" transform="translate(15.0 4.07976)"><path class="edge" d="M 0 0 V -4.07976 H -15.0"/><circle class="sym" cx="0" cy="0" r="3" style="fill:blue;"/><text class="lab" transform="translate(0 12)">3</text></g><path class="edge" d="M 0 0 V -66.7513 H 22.5"/><circle class="sym" cx="0" cy="0" r="3" style="fill:blue;"/><text class="lab lft" transform="translate(-3 -6)">5</text><g class="mut m3 s3" transform="translate(0 -33.3757)"><rect class="sym" height="6" style="fill:blue;" transform="translate(-3 -3)" width="6" x="0" y="0"/><text class="lab lft" transform="translate(-5 0)">3</text></g></g><path class="edge" d="M 0 0 V -69.1689 H 33.75"/><circle class="sym" cx="0" cy="0" r="3" style="fill:blue;"/><text class="lab lft" transform="translate(-3 -6)">6</text><g class="mut m12 s12" transform="translate(0 -13.8338)"><rect class="sym" height="6" style="fill:blue;" transform="translate(-3 -3)" width="6" x="0" y="0"/><text class="lab lft" transform="translate(-5 0)">12</text></g><g class="mut m10 s10" transform="translate(0 -27.6676)"><rect class="sym" height="6" style="fill:blue;" transform="translate(-3 -3)" width="6" x="0" y="0"/><text class="lab lft" transform="translate(-5 0)">10</text></g><g class="mut m8 s8" transform="translate(0 -41.5013)"><rect class="sym" height="6" style="fill:blue;" transform="translate(-3 -3)" width="6" x="0" y="0"/><text class="lab lft" transform="translate(-5 0)">8</text></g><g class="mut m4 s4" transform="translate(0 -55.3351)"><rect class="sym" height="6" style="fill:blue;" transform="translate(-3 -3)" width="6" x="0" y="0"/><text class="lab lft" transform="translate(-5 0)">4</text></g></g><g class="a8 m1 m5 node n7 p1 s1 s5" transform="translate(33.75 65.912)"><g class="a7 leaf m6 node n2 p0 s6 sample" transform="translate(-15.0 74.088)"><path class="edge" d="M 0 0 V -74.088 H 15.0"/><circle class="sym" cx="0" cy="0" r="3" style="fill:red;"/><text class="lab" transform="translate(0 12)">2</text><g class="mut m6 s6" transform="translate(0 -37.044)"><rect class="sym" height="6" style="fill:red;" transform="translate(-3 -3)" width="6" x="0" y="0"/><text class="lab lft" transform="translate(-5 0)">6</text></g></g><g class="a7 leaf m0 m11 m9 node n4 p2 s0 s11 s9 sample" transform="translate(15.0 74.088)"><path class="edge" d="M 0 0 V -74.088 H -15.0"/><circle class="sym" cx="0" cy="0" r="3" style="fill:green;"/><text class="lab" transform="translate(0 12)">4</text><g class="mut m11 s11" transform="translate(0 -18.522)"><rect class="sym" height="6" style="fill:green;" transform="translate(-3 -3)" width="6" x="0" y="0"/><text class="lab rgt" transform="translate(5 0)">11</text></g><g class="mut m9 s9" transform="translate(0 -37.044)"><rect class="sym" height="6" style="fill:green;" transform="translate(-3 -3)" width="6" x="0" y="0"/><text class="lab rgt" transform="translate(5 0)">9</text></g><g class="mut m0 s0" transform="translate(0 -55.566)"><rect class="sym" height="6" style="fill:green;" transform="translate(-3 -3)" width="6" x="0" y="0"/><text class="lab rgt" transform="translate(5 0)">0</text></g></g><path class="edge" d="M 0 0 V -65.912 H -33.75"/><circle class="sym" cx="0" cy="0" r="3" style="fill:blue;"/><text class="lab rgt" transform="translate(3 -6)">7</text><g class="mut m5 s5" transform="translate(0 -21.9707)"><rect class="sym" height="6" style="fill:red;" transform="translate(-3 -3)" width="6" x="0" y="0"/><text class="lab rgt" transform="translate(5 0)">5</text></g><g class="mut m1 s1" transform="translate(0 -43.9414)"><rect class="sym" height="6" style="fill:red;" transform="translate(-3 -3)" width="6" x="0" y="0"/><text class="lab rgt" transform="translate(5 0)">1</text></g></g><circle class="sym" cx="0" cy="0" r="3" style="fill:blue;"/><text class="lab" transform="translate(0 -10)">8</text></g></g></svg>