<svg baseProfile="full" height="200" version="1.1" width="200" xmlns="http://www.w3.org/2000/svg" xmlns:ev="http://www.w3.org/2001/xml-events" xmlns:xlink="http://www.w3.org/1999/xlink"><defs><style type="text/css"><![CDATA[.background path {fill: #808080; fill-opacity: 0}.background path:nth-child(odd) {fill-opacity: .1}.axes {font-size: 14px}.x-axis .tick .lab {font-weight: bold; dominant-baseline: hanging}.axes, .tree {font-size: 14px; text-anchor: middle}.axes line, .edge {stroke: black; fill: none}.axes .ax-skip {stroke-dasharray: 4}.y-axis .grid {stroke: #FAFAFA}.node > .sym {fill: black; stroke: none}.site > .sym {stroke: black}.mut text {fill: red; font-style: italic}.mut.extra text {fill: hotpink}.mut line {fill: none; stroke: none}.mut .sym {fill: none; stroke: red}.mut.extra .sym {stroke: hotpink}.node .mut .sym {stroke-width: 1.5px}.tree text, .tree-sequence text {dominant-baseline: central}.plotbox .lab.lft {text-anchor: end}.plotbox .lab.rgt {text-anchor: start}]]></style></defs><g class="tree t0"><g class="plotbox"><g class="c2 node n0 root" transform="translate(76 26.8)"><g class="a0 leaf node n1 sample" transform="translate(-40 141.4)"><path class="edge" d="M 0 0 V -141.4 H 40" /><rect class="sym" height="6" width="6" x="-3" y="-3" /><text class="lab" transform="translate(0 11)">A</text></g><g class="a0 c2 node n2" transform="translate(40 70.7)"><g class="a2 c2 node n3" transform="translate(-32 47.1333)"><g class="a3 leaf node n5 sample" transform="translate(-16 23.5667)"><path class="edge" d="M 0 0 V -23.5667 H 16" /><rect class="sym" height="6" width="6" x="-3" y="-3" /><text class="lab" transform="translate(0 11)">B</text></g><g class="a3 leaf node n6 sample" transform="translate(16 23.5667)"><path class="edge" d="M 0 0 V -23.5667 H -16" /><rect class="sym" height="6" width="6" x="-3" y="-3" /><text class="lab" transform="translate(0 11)">C</text></g><path class="edge" d="M 0 0 V -47.1333 H 32" /><circle class="sym" cx="0" cy="0" r="3" /><text class="lab lft" transform="translate(-3 -7.0)" /></g><g class="a2 c2 node n4" transform="translate(32 23.5667)"><g class="a4 leaf node n7 sample" transform="translate(-16 47.1333)"><path class="edge" d="M 0 0 V -47.1333 H 16" /><rect class="sym" height="6" width="6" x="-3" y="-3" /><text class="lab" transform="translate(0 11)">D</text></g><g class="a4 leaf node n8 sample" transform="translate(16 47.1333)"><path class="edge" d="M 0 0 V -47.1333 H -16" /><rect class="sym" height="6" width="6" x="-3" y="-3" /><text class="lab" transform="translate(0 11)">E</text></g><path class="edge" d="M 0 0 V -23.5667 H -32" /><circle class="sym" cx="0" cy="0" r="3" /><text class="lab rgt" transform="translate(3 -7.0)" /></g><path class="edge" d="M 0 0 V -70.7 H -40" /><circle class="sym" cx="0" cy="0" r="3" /><text class="lab rgt" transform="translate(3 -7.0)" /></g><circle class="sym" cx="0" cy="0" r="3" /><text class="lab" transform="translate(0 -11)" /></g></g></g></svg>