<svg baseProfile="full" height="200" version="1.1" width="200" xmlns="http://www.w3.org/2000/svg" xmlns:ev="http://www.w3.org/2001/xml-events" xmlns:xlink="http://www.w3.org/1999/xlink"><defs><style type="text/css"><![CDATA[.background path {fill: #808080; fill-opacity: 0}.background path:nth-child(odd) {fill-opacity: .1}.axes {font-size: 14px}.x-axis .tick .lab {font-weight: bold; dominant-baseline: hanging}.axes, .tree {font-size: 14px; text-anchor: middle}.axes line, .edge {stroke: black; fill: none}.y-axis .grid {stroke: #FAFAFA}.node > .sym {fill: black; stroke: none}.site > .sym {stroke: black}.mut text {fill: red; font-style: italic}.mut.extra text {fill: hotpink}.mut line {fill: none; stroke: none}.mut .sym {fill: none; stroke: red}.mut.extra .sym {stroke: hotpink}.node .mut .sym {stroke-width: 1.5px}.tree text, .tree-sequence text {dominant-baseline: central}.plotbox .lab.lft {text-anchor: end}.plotbox .lab.rgt {text-anchor: start}]]></style></defs><g class="tree t0"><g class="plotbox"><g class="c2 node n0 root" transform="translate(76 26.8)"><g class="a0 leaf m4 m7 node n1 s4 s7 sample" transform="translate(-40 141.4)"><path class="edge" d="M 0 0 V -141.4 H 40" /><g class="mut m7 s7" transform="translate(0 -107.694)"><line x1="0" x2="0" y1="0" y2="107.694" /><path class="sym" d="M -3,-3 l 6,6 M -3,3 l 6,-6" /><text class="lab lft" transform="translate(-5 0)">7</text></g><g class="mut m4 s4" transform="translate(0 -67.5951)"><line x1="0" x2="0" y1="0" y2="67.5951" /><path class="sym" d="M -3,-3 l 6,6 M -3,3 l 6,-6" /><text class="lab lft" transform="translate(-5 0)">4</text></g><rect class="sym" height="6" width="6" x="-3" y="-3" /><text class="lab" transform="translate(0 11)">1</text></g><g class="a0 c2 m8 node n2 s8" transform="translate(40 70.7)"><g class="a2 c2 node n3" transform="translate(-32 47.1333)"><g class="a3 leaf m0 node n5 s0 sample" transform="translate(-16 23.5667)"><path class="edge" d="M 0 0 V -23.5667 H 16" /><g class="mut m0 s0" transform="translate(0 -18.1463)"><line x1="0" x2="0" y1="0" y2="18.1463" /><path class="sym" d="M -3,-3 l 6,6 M -3,3 l 6,-6" /><text class="lab lft" transform="translate(-5 0)">0</text></g><rect class="sym" height="6" width="6" x="-3" y="-3" /><text class="lab" transform="translate(0 11)">5</text></g><g class="a3 leaf m2 node n6 s2 sample" transform="translate(16 23.5667)"><path class="edge" d="M 0 0 V -23.5667 H -16" /><g class="mut m2 s2" transform="translate(0 -9.17206)"><line x1="0" x2="0" y1="0" y2="9.17206" /><path class="sym" d="M -3,-3 l 6,6 M -3,3 l 6,-6" /><text class="lab rgt" transform="translate(5 0)">2</text></g><rect class="sym" height="6" width="6" x="-3" y="-3" /><text class="lab" transform="translate(0 11)">6</text></g><path class="edge" d="M 0 0 V -47.1333 H 32" /><circle class="sym" cx="0" cy="0" r="3" /><text class="lab lft" transform="translate(-3 -7.0)">3</text></g><g class="a2 c2 node n4" transform="translate(32 23.5667)"><g class="a4 leaf m6 node n7 s6 sample" transform="translate(-16 47.1333)"><path class="edge" d="M 0 0 V -47.1333 H 16" /><g class="mut m6 s6" transform="translate(0 -13.9074)"><line x1="0" x2="0" y1="0" y2="13.9074" /><path class="sym" d="M -3,-3 l 6,6 M -3,3 l 6,-6" /><text class="lab lft" transform="translate(-5 0)">6</text></g><rect class="sym" height="6" width="6" x="-3" y="-3" /><text class="lab" transform="translate(0 11)">7</text></g><g class="a4 leaf m1 m3 m5 node n8 s1 s3 s5 sample" transform="translate(16 47.1333)"><path class="edge" d="M 0 0 V -47.1333 H -16" /><g class="mut m1 s1" transform="translate(0 -45.5218)"><line x1="0" x2="0" y1="0" y2="45.5218" /><path class="sym" d="M -3,-3 l 6,6 M -3,3 l 6,-6" /><text class="lab rgt" transform="translate(5 0)">1</text></g><g class="mut m5 s5" transform="translate(0 -15.8034)"><line x1="0" x2="0" y1="0" y2="15.8034" /><path class="sym" d="M -3,-3 l 6,6 M -3,3 l 6,-6" /><text class="lab rgt" transform="translate(5 0)">5</text></g><g class="mut m3 s3" transform="translate(0 -5.55118)"><line x1="0" x2="0" y1="0" y2="5.55118" /><path class="sym" d="M -3,-3 l 6,6 M -3,3 l 6,-6" /><text class="lab rgt" transform="translate(5 0)">3</text></g><rect class="sym" height="6" width="6" x="-3" y="-3" /><text class="lab" transform="translate(0 11)">8</text></g><path class="edge" d="M 0 0 V -23.5667 H -32" /><circle class="sym" cx="0" cy="0" r="3" /><text class="lab rgt" transform="translate(3 -7.0)">4</text></g><path class="edge" d="M 0 0 V -70.7 H -40" /><g class="mut m8 s8" transform="translate(0 -19.4704)"><line x1="0" x2="0" y1="0" y2="19.4704" /><path class="sym" d="M -3,-3 l 6,6 M -3,3 l 6,-6" /><text class="lab rgt" transform="translate(5 0)">8</text></g><circle class="sym" cx="0" cy="0" r="3" /><text class="lab rgt" transform="translate(3 -7.0)">2</text></g><circle class="sym" cx="0" cy="0" r="3" /><text class="lab" transform="translate(0 -11)">0</text></g></g></g></svg>