<svg baseProfile="full" height="520" version="1.1" width="800" xmlns="http://www.w3.org/2000/svg" xmlns:ev="http://www.w3.org/2001/xml-events" xmlns:xlink="http://www.w3.org/1999/xlink"><defs><style type="text/css"><![CDATA[.background path {fill: #808080; fill-opacity: 0}.background path:nth-child(odd) {fill-opacity: .1}.axes {font-size: 14px}.x-axis .tick .lab {font-weight: bold; dominant-baseline: hanging}.axes, .tree {font-size: 14px; text-anchor: middle}.axes line, .edge {stroke: black; fill: none}.axes .ax-skip {stroke-dasharray: 4}.y-axis .grid {stroke: #FAFAFA}.node > .sym {fill: black; stroke: none}.site > .sym {stroke: black}.mut text {fill: red; font-style: italic}.mut.extra text {fill: hotpink}.mut line {fill: none; stroke: none}.mut .sym {fill: none; stroke: red}.mut.extra .sym {stroke: hotpink}.node .mut .sym {stroke-width: 1.5px}.tree text, .tree-sequence text {dominant-baseline: central}.plotbox .lab.lft {text-anchor: end}.plotbox .lab.rgt {text-anchor: start}.leaf.p0 > .sym {fill: yellow}.leaf.p1 > .sym {fill: cyan}.leaf.p2 > .sym {fill: green}.leaf.p3 > .sym {fill: red}.leaf > .lab {text-anchor: start; transform: rotate(90deg) translate(6px)}.leaf > .sym {stroke: black}]]></style></defs><g class="tree t8"><g class="axes"><g class="y-axis"><g class="title" transform="translate(0 239.1)"><text class="lab" text-anchor="middle" transform="translate(11) rotate(-90)">Time (generations)</text></g><line class="ax-line" x1="56.8" x2="56.8" y1="468.2" y2="10" /><g class="ticks"><g class="tick" transform="translate(56.8 468.2)"><line x1="0" x2="-5" y1="0" y2="0" /><g transform="translate(-6 0)"><text class="lab" text-anchor="end">0</text></g></g><g class="tick" transform="translate(56.8 151.258)"><line x1="0" x2="-5" y1="0" y2="0" /><g transform="translate(-6 0)"><text class="lab" text-anchor="end">10000</text></g></g><g class="tick" transform="translate(56.8 -165.684)"><line x1="0" x2="-5" y1="0" y2="0" /><g transform="translate(-6 0)"><text class="lab" text-anchor="end">20000</text></g></g></g></g></g><g class="plotbox"><g class="c2 node n79 p0 root" transform="translate(507.211 26.8)"><g class="a79 c2 node n74 p0" transform="translate(235.358 218.731)"><g class="a74 c2 node n72 p0" transform="translate(-26.1313 21.1631)"><g class="a72 i14 leaf node n29 p3 sample" transform="translate(29.6625 201.506)"><path class="edge" d="M 0 0 V -201.506 H -29.6625" /><rect class="sym" height="6" width="6" x="-3" y="-3" /><text class="lab" transform="translate(0 11)">Admix</text></g><g class="a72 c2 node n68 p0" transform="translate(-29.6625 63.7273)"><g class="a68 c2 node n40 p0" transform="translate(-25.425 113.059)"><g class="a40 i1 leaf node n3 p0 sample" transform="translate(16.95 24.72)"><path class="edge" d="M 0 0 V -24.72 H -16.95" /><rect class="sym" height="6" width="6" x="-3" y="-3" /><text class="lab" transform="translate(0 11)">Afr</text></g><g class="a40 c2 node n39 p0" transform="translate(-16.95 1.52699)"><g class="a39 i0 leaf node n1 p0 sample" transform="translate(-11.3 23.193)"><path class="edge" d="M 0 0 V -23.193 H 11.3" /><rect class="sym" height="6" width="6" x="-3" y="-3" /><text class="lab" transform="translate(0 11)">Afr</text></g><g class="a39 i3 leaf node n7 p0 sample" transform="translate(11.3 23.193)"><path class="edge" d="M 0 0 V -23.193 H -11.3" /><rect class="sym" height="6" width="6" x="-3" y="-3" /><text class="lab" transform="translate(0 11)">Afr</text></g><path class="edge" d="M 0 0 V -1.52699 H 16.95" /><circle class="sym" cx="0" cy="0" r="3" /><text class="lab lft" transform="translate(-3 -7.0)" /></g><path class="edge" d="M 0 0 V -113.059 H 25.425" /><circle class="sym" cx="0" cy="0" r="3" /><text class="lab lft" transform="translate(-3 -7.0)" /></g><g class="a68 c2 m24 node n44 p0 s24" transform="translate(25.425 111.102)"><g class="a44 i2 leaf node n4 p0 sample" transform="translate(-11.3 26.6771)"><path class="edge" d="M 0 0 V -26.6771 H 11.3" /><rect class="sym" height="6" width="6" x="-3" y="-3" /><text class="lab" transform="translate(0 11)">Afr</text></g><g class="a44 i3 leaf node n6 p0 sample" transform="translate(11.3 26.6771)"><path class="edge" d="M 0 0 V -26.6771 H -11.3" /><rect class="sym" height="6" width="6" x="-3" y="-3" /><text class="lab" transform="translate(0 11)">Afr</text></g><path class="edge" d="M 0 0 V -111.102 H -25.425" /><g class="mut m24 s24" transform="translate(0 -5.10479)"><line x1="0" x2="0" y1="0" y2="5.10479" /><path class="sym" d="M -3,-3 l 6,6 M -3,3 l 6,-6" /><text class="lab rgt" transform="translate(5 0)">24</text></g><circle class="sym" cx="0" cy="0" r="3" /><text class="lab rgt" transform="translate(3 -7.0)" /></g><path class="edge" d="M 0 0 V -63.7273 H 29.6625" /><circle class="sym" cx="0" cy="0" r="3" /><text class="lab lft" transform="translate(-3 -7.0)" /></g><path class="edge" d="M 0 0 V -21.1631 H 26.1313" /><circle class="sym" cx="0" cy="0" r="3" /><text class="lab lft" transform="translate(-3 -7.0)" /></g><g class="a74 i15 leaf node n31 p3 sample" transform="translate(26.1313 222.669)"><path class="edge" d="M 0 0 V -222.669 H -26.1313" /><rect class="sym" height="6" width="6" x="-3" y="-3" /><text class="lab" transform="translate(0 11)">Admix</text></g><path class="edge" d="M 0 0 V -218.731 H -235.358" /><circle class="sym" cx="0" cy="0" r="3" /><text class="lab rgt" transform="translate(3 -7.0)" /></g><g class="a79 c2 node n78 p0" transform="translate(-235.358 55.2707)"><g class="a78 c2 node n67 p0" transform="translate(-183.978 249.106)"><g class="a67 c2 node n66 p0" transform="translate(19.775 20.429)"><g class="a66 i1 leaf node n2 p0 sample" transform="translate(-16.95 116.594)"><path class="edge" d="M 0 0 V -116.594 H 16.95" /><rect class="sym" height="6" width="6" x="-3" y="-3" /><text class="lab" transform="translate(0 11)">Afr</text></g><g class="a66 c2 node n57 p1" transform="translate(16.95 76.3328)"><g class="a57 i12 leaf node n24 p3 sample" transform="translate(-11.3 40.2613)"><path class="edge" d="M 0 0 V -40.2613 H 11.3" /><rect class="sym" height="6" width="6" x="-3" y="-3" /><text class="lab" transform="translate(0 11)">Admix</text></g><g class="a57 i13 leaf node n26 p3 sample" transform="translate(11.3 40.2613)"><path class="edge" d="M 0 0 V -40.2613 H -11.3" /><rect class="sym" height="6" width="6" x="-3" y="-3" /><text class="lab" transform="translate(0 11)">Admix</text></g><path class="edge" d="M 0 0 V -76.3328 H -16.95" /><circle class="sym" cx="0" cy="0" r="3" /><text class="lab rgt" transform="translate(3 -7.0)" /></g><path class="edge" d="M 0 0 V -20.429 H -19.775" /><circle class="sym" cx="0" cy="0" r="3" /><text class="lab rgt" transform="translate(3 -7.0)" /></g><g class="a67 i0 leaf node n0 p0 sample" transform="translate(-19.775 137.023)"><path class="edge" d="M 0 0 V -137.023 H 19.775" /><rect class="sym" height="6" width="6" x="-3" y="-3" /><text class="lab" transform="translate(0 11)">Afr</text></g><path class="edge" d="M 0 0 V -249.106 H 183.978" /><circle class="sym" cx="0" cy="0" r="3" /><text class="lab lft" transform="translate(-3 -7.0)" /></g><g class="a78 c2 m23 node n69 p0 s23" transform="translate(183.978 247.614)"><g class="a69 c2 node n58 p1" transform="translate(-126.066 86.3655)"><g class="a58 c2 node n35 p2" transform="translate(66.0344 36.7869)"><g class="a35 i9 leaf node n18 p2 sample" transform="translate(-11.3 15.363)"><path class="edge" d="M 0 0 V -15.363 H 11.3" /><rect class="sym" height="6" width="6" x="-3" y="-3" /><text class="lab" transform="translate(0 11)">Asia</text></g><g class="a35 i14 leaf node n28 p3 sample" transform="translate(11.3 15.363)"><path class="edge" d="M 0 0 V -15.363 H -11.3" /><rect class="sym" height="6" width="6" x="-3" y="-3" /><text class="lab" transform="translate(0 11)">Admix</text></g><path class="edge" d="M 0 0 V -36.7869 H -66.0344" /><circle class="sym" cx="0" cy="0" r="3" /><text class="lab rgt" transform="translate(3 -7.0)" /></g><g class="a58 c2 node n54 p1" transform="translate(-66.0344 14.2295)"><g class="a54 c2 m25 node n45 p2 s25" transform="translate(72.7438 9.64731)"><g class="a45 i10 leaf node n21 p2 sample" transform="translate(25.425 28.2731)"><path class="edge" d="M 0 0 V -28.2731 H -25.425" /><rect class="sym" height="6" width="6" x="-3" y="-3" /><text class="lab" transform="translate(0 11)">Asia</text></g><g class="a45 c2 node n38 p2" transform="translate(-25.425 5.70599)"><g class="a38 i4 leaf node n9 p1 sample" transform="translate(-16.95 22.5671)"><path class="edge" d="M 0 0 V -22.5671 H 16.95" /><rect class="sym" height="6" width="6" x="-3" y="-3" /><text class="lab" transform="translate(0 11)">Eur</text></g><g class="a38 c2 node n36 p2" transform="translate(16.95 4.36799)"><g class="a36 i8 leaf node n16 p2 sample" transform="translate(-11.3 18.1991)"><path class="edge" d="M 0 0 V -18.1991 H 11.3" /><rect class="sym" height="6" width="6" x="-3" y="-3" /><text class="lab" transform="translate(0 11)">Asia</text></g><g class="a36 i13 leaf node n27 p3 sample" transform="translate(11.3 18.1991)"><path class="edge" d="M 0 0 V -18.1991 H -11.3" /><rect class="sym" height="6" width="6" x="-3" y="-3" /><text class="lab" transform="translate(0 11)">Admix</text></g><path class="edge" d="M 0 0 V -4.36799 H -16.95" /><circle class="sym" cx="0" cy="0" r="3" /><text class="lab rgt" transform="translate(3 -7.0)" /></g><path class="edge" d="M 0 0 V -5.70599 H 25.425" /><circle class="sym" cx="0" cy="0" r="3" /><text class="lab lft" transform="translate(-3 -7.0)" /></g><path class="edge" d="M 0 0 V -9.64731 H -72.7438" /><g class="mut m25 s25" transform="translate(0 -5.90192)"><line x1="0" x2="0" y1="0" y2="5.90192" /><path class="sym" d="M -3,-3 l 6,6 M -3,3 l 6,-6" /><text class="lab rgt" transform="translate(5 0)">25</text></g><circle class="sym" cx="0" cy="0" r="3" /><text class="lab rgt" transform="translate(3 -7.0)" /></g><g class="a54 c2 node n52 p1" transform="translate(-72.7438 1.54195)"><g class="a52 i2 leaf node n5 p0 sample" transform="translate(-32.4875 36.3785)"><path class="edge" d="M 0 0 V -36.3785 H 32.4875" /><rect class="sym" height="6" width="6" x="-3" y="-3" /><text class="lab" transform="translate(0 11)">Afr</text></g><g class="a52 c2 node n46 p2" transform="translate(32.4875 7.52769)"><g class="a46 c2 node n33 p1" transform="translate(-31.075 17.9752)"><g class="a33 i4 leaf node n8 p1 sample" transform="translate(-11.3 10.8756)"><path class="edge" d="M 0 0 V -10.8756 H 11.3" /><rect class="sym" height="6" width="6" x="-3" y="-3" /><text class="lab" transform="translate(0 11)">Eur</text></g><g class="a33 i5 leaf node n11 p1 sample" transform="translate(11.3 10.8756)"><path class="edge" d="M 0 0 V -10.8756 H -11.3" /><rect class="sym" height="6" width="6" x="-3" y="-3" /><text class="lab" transform="translate(0 11)">Eur</text></g><path class="edge" d="M 0 0 V -17.9752 H 31.075" /><circle class="sym" cx="0" cy="0" r="3" /><text class="lab lft" transform="translate(-3 -7.0)" /></g><g class="a46 c2 node n37 p2" transform="translate(31.075 8.82448)"><g class="a37 i11 leaf node n23 p2 sample" transform="translate(16.95 20.0263)"><path class="edge" d="M 0 0 V -20.0263 H -16.95" /><rect class="sym" height="6" width="6" x="-3" y="-3" /><text class="lab" transform="translate(0 11)">Asia</text></g><g class="a37 c2 node n34 p2" transform="translate(-16.95 7.27892)"><g class="a34 i10 leaf node n20 p2 sample" transform="translate(-11.3 12.7474)"><path class="edge" d="M 0 0 V -12.7474 H 11.3" /><rect class="sym" height="6" width="6" x="-3" y="-3" /><text class="lab" transform="translate(0 11)">Asia</text></g><g class="a34 i11 leaf node n22 p2 sample" transform="translate(11.3 12.7474)"><path class="edge" d="M 0 0 V -12.7474 H -11.3" /><rect class="sym" height="6" width="6" x="-3" y="-3" /><text class="lab" transform="translate(0 11)">Asia</text></g><path class="edge" d="M 0 0 V -7.27892 H 16.95" /><circle class="sym" cx="0" cy="0" r="3" /><text class="lab lft" transform="translate(-3 -7.0)" /></g><path class="edge" d="M 0 0 V -8.82448 H -31.075" /><circle class="sym" cx="0" cy="0" r="3" /><text class="lab rgt" transform="translate(3 -7.0)" /></g><path class="edge" d="M 0 0 V -7.52769 H -32.4875" /><circle class="sym" cx="0" cy="0" r="3" /><text class="lab rgt" transform="translate(3 -7.0)" /></g><path class="edge" d="M 0 0 V -1.54195 H 72.7438" /><circle class="sym" cx="0" cy="0" r="3" /><text class="lab lft" transform="translate(-3 -7.0)" /></g><path class="edge" d="M 0 0 V -14.2295 H 66.0344" /><circle class="sym" cx="0" cy="0" r="3" /><text class="lab lft" transform="translate(-3 -7.0)" /></g><path class="edge" d="M 0 0 V -86.3655 H 126.066" /><circle class="sym" cx="0" cy="0" r="3" /><text class="lab lft" transform="translate(-3 -7.0)" /></g><g class="a69 c2 node n55 p1" transform="translate(126.066 99.611)"><g class="a55 i7 leaf node n15 p1 sample" transform="translate(28.6031 38.9044)"><path class="edge" d="M 0 0 V -38.9044 H -28.6031" /><rect class="sym" height="6" width="6" x="-3" y="-3" /><text class="lab" transform="translate(0 11)">Eur</text></g><g class="a55 c2 node n53 p1" transform="translate(-28.6031 1.48939)"><g class="a53 i12 leaf node n25 p3 sample" transform="translate(34.6062 37.415)"><path class="edge" d="M 0 0 V -37.415 H -34.6062" /><rect class="sym" height="6" width="6" x="-3" y="-3" /><text class="lab" transform="translate(0 11)">Admix</text></g><g class="a53 c2 node n51 p1" transform="translate(-34.6063 2.54786)"><g class="a51 i15 leaf node n30 p3 sample" transform="translate(46.6125 34.8672)"><path class="edge" d="M 0 0 V -34.8672 H -46.6125" /><rect class="sym" height="6" width="6" x="-3" y="-3" /><text class="lab" transform="translate(0 11)">Admix</text></g><g class="a51 c2 node n50 p1" transform="translate(-46.6125 1.58404)"><g class="a50 i5 leaf node n10 p1 sample" transform="translate(-42.375 33.2831)"><path class="edge" d="M 0 0 V -33.2831 H 42.375" /><rect class="sym" height="6" width="6" x="-3" y="-3" /><text class="lab" transform="translate(0 11)">Eur</text></g><g class="a50 c2 node n49 p1" transform="translate(42.375 3.91347)"><g class="a49 i6 leaf node n13 p1 sample" transform="translate(28.25 29.3697)"><path class="edge" d="M 0 0 V -29.3697 H -28.25" /><rect class="sym" height="6" width="6" x="-3" y="-3" /><text class="lab" transform="translate(0 11)">Eur</text></g><g class="a49 c2 node n48 p1" transform="translate(-28.25 0.11838)"><g class="a48 c2 node n32 p1" transform="translate(-22.6 19.5563)"><g class="a32 i6 leaf node n12 p1 sample" transform="translate(-11.3 9.69502)"><path class="edge" d="M 0 0 V -9.69502 H 11.3" /><rect class="sym" height="6" width="6" x="-3" y="-3" /><text class="lab" transform="translate(0 11)">Eur</text></g><g class="a32 i7 leaf node n14 p1 sample" transform="translate(11.3 9.69502)"><path class="edge" d="M 0 0 V -9.69502 H -11.3" /><rect class="sym" height="6" width="6" x="-3" y="-3" /><text class="lab" transform="translate(0 11)">Eur</text></g><path class="edge" d="M 0 0 V -19.5563 H 22.6" /><circle class="sym" cx="0" cy="0" r="3" /><text class="lab lft" transform="translate(-3 -7.0)" /></g><g class="a48 c2 node n42 p2" transform="translate(22.6 2.78169)"><g class="a42 i8 leaf node n17 p2 sample" transform="translate(-11.3 26.4696)"><path class="edge" d="M 0 0 V -26.4696 H 11.3" /><rect class="sym" height="6" width="6" x="-3" y="-3" /><text class="lab" transform="translate(0 11)">Asia</text></g><g class="a42 i9 leaf node n19 p2 sample" transform="translate(11.3 26.4696)"><path class="edge" d="M 0 0 V -26.4696 H -11.3" /><rect class="sym" height="6" width="6" x="-3" y="-3" /><text class="lab" transform="translate(0 11)">Asia</text></g><path class="edge" d="M 0 0 V -2.78169 H -22.6" /><circle class="sym" cx="0" cy="0" r="3" /><text class="lab rgt" transform="translate(3 -7.0)" /></g><path class="edge" d="M 0 0 V -0.11838 H 28.25" /><circle class="sym" cx="0" cy="0" r="3" /><text class="lab lft" transform="translate(-3 -7.0)" /></g><path class="edge" d="M 0 0 V -3.91347 H -42.375" /><circle class="sym" cx="0" cy="0" r="3" /><text class="lab rgt" transform="translate(3 -7.0)" /></g><path class="edge" d="M 0 0 V -1.58404 H 46.6125" /><circle class="sym" cx="0" cy="0" r="3" /><text class="lab lft" transform="translate(-3 -7.0)" /></g><path class="edge" d="M 0 0 V -2.54786 H 34.6063" /><circle class="sym" cx="0" cy="0" r="3" /><text class="lab lft" transform="translate(-3 -7.0)" /></g><path class="edge" d="M 0 0 V -1.48939 H 28.6031" /><circle class="sym" cx="0" cy="0" r="3" /><text class="lab lft" transform="translate(-3 -7.0)" /></g><path class="edge" d="M 0 0 V -99.611 H -126.066" /><circle class="sym" cx="0" cy="0" r="3" /><text class="lab rgt" transform="translate(3 -7.0)" /></g><path class="edge" d="M 0 0 V -247.614 H -183.978" /><g class="mut m23 s23" transform="translate(0 -63.6269)"><line x1="0" x2="0" y1="0" y2="63.6269" /><path class="sym" d="M -3,-3 l 6,6 M -3,3 l 6,-6" /><text class="lab rgt" transform="translate(5 0)">23</text></g><circle class="sym" cx="0" cy="0" r="3" /><text class="lab rgt" transform="translate(3 -7.0)" /></g><path class="edge" d="M 0 0 V -55.2707 H 235.358" /><circle class="sym" cx="0" cy="0" r="3" /><text class="lab lft" transform="translate(-3 -7.0)" /></g><circle class="sym" cx="0" cy="0" r="3" /><text class="lab" transform="translate(0 -11)" /></g></g></g></svg>