<svg baseProfile="full" height="200" version="1.1" width="600" xmlns="http://www.w3.org/2000/svg" xmlns:ev="http://www.w3.org/2001/xml-events" xmlns:xlink="http://www.w3.org/1999/xlink"><defs><style type="text/css"><![CDATA[.background path {fill: #808080; fill-opacity: 0}.background path:nth-child(odd) {fill-opacity: .1}.axes {font-size: 14px}.x-axis .tick .lab {font-weight: bold; dominant-baseline: hanging}.axes, .tree {font-size: 14px; text-anchor: middle}.axes line, .edge {stroke: black; fill: none}.axes .ax-skip {stroke-dasharray: 4}.y-axis .grid {stroke: #FAFAFA}.node > .sym {fill: black; stroke: none}.site > .sym {stroke: black}.mut text {fill: red; font-style: italic}.mut.extra text {fill: hotpink}.mut line {fill: none; stroke: none}.mut .sym {fill: none; stroke: red}.mut.extra .sym {stroke: hotpink}.node .mut .sym {stroke-width: 1.5px}.tree text, .tree-sequence text {dominant-baseline: central}.plotbox .lab.lft {text-anchor: end}.plotbox .lab.rgt {text-anchor: start}.mut, .site {display: none}]]></style></defs><g class="tree-sequence"><g class="background"><path d="M56.8,0 l174.4,0 l0,138.2 l-13.7776,25 l0,5 l-160.622,0 l0,-5 l0,-25 l0,-138.2z" /><path d="M231.2,0 l174.4,0 l0,138.2 l-52.1456,25 l0,5 l-136.032,0 l0,-5 l13.778,-25 l0,-138.2z" /><path d="M405.6,0 l174.4,0 l0,138.2 l0,25 l0,5 l-226.546,0 l0,-5 l52.146,-25 l0,-138.2z" /></g><g class="axes"><g class="x-axis"><g class="title" transform="translate(318.4 200)"><text class="lab" text-anchor="middle" transform="translate(0 -11)">Genome position</text></g><line class="ax-line" x1="56.8" x2="580" y1="163.2" y2="163.2" /><g class="ticks"><g class="tick" transform="translate(56.8 163.2)"><line x1="0" x2="0" y1="0" y2="5" /><g transform="translate(0 6)"><text class="lab">0</text></g></g><g class="tick" transform="translate(217.422 163.2)"><line x1="0" x2="0" y1="0" y2="5" /><g transform="translate(0 6)"><text class="lab">307</text></g></g><g class="tick" transform="translate(353.454 163.2)"><line x1="0" x2="0" y1="0" y2="5" /><g transform="translate(0 6)"><text class="lab">567</text></g></g><g class="tick" transform="translate(580 163.2)"><line x1="0" x2="0" y1="0" y2="5" /><g transform="translate(0 6)"><text class="lab">1000</text></g></g></g><g class="site s0" transform="translate(449.723 163.2)"><line class="sym" x1="0" x2="0" y1="0" y2="-10" /><g class="mut m0"><polyline class="sym" points="2.5,-6.5 0,-1.5 -2.5,-6.5" /></g></g></g><g class="y-axis"><g class="title" transform="translate(0 65.7)"><text class="lab" text-anchor="middle" transform="translate(11) rotate(-90)">Time (generations)</text></g><line class="ax-line" x1="56.8" x2="56.8" y1="121.4" y2="10" /><g class="ticks"><g class="tick" transform="translate(56.8 121.4)"><line class="grid" x1="0" x2="523.2" y1="0" y2="0" /><line x1="0" x2="-5" y1="0" y2="0" /><g transform="translate(-6 0)"><text class="lab" text-anchor="end">0</text></g></g><g class="tick" transform="translate(56.8 100.933)"><line class="grid" x1="0" x2="523.2" y1="0" y2="0" /><line x1="0" x2="-5" y1="0" y2="0" /><g transform="translate(-6 0)"><text class="lab" text-anchor="end">3</text></g></g><g class="tick" transform="translate(56.8 85.9974)"><line class="grid" x1="0" x2="523.2" y1="0" y2="0" /><line x1="0" x2="-5" y1="0" y2="0" /><g transform="translate(-6 0)"><text class="lab" text-anchor="end">10</text></g></g><g class="tick" transform="translate(56.8 70.7006)"><line class="grid" x1="0" x2="523.2" y1="0" y2="0" /><line x1="0" x2="-5" y1="0" y2="0" /><g transform="translate(-6 0)"><text class="lab" text-anchor="end">30</text></g></g><g class="tick" transform="translate(56.8 53.2623)"><line class="grid" x1="0" x2="523.2" y1="0" y2="0" /><line x1="0" x2="-5" y1="0" y2="0" /><g transform="translate(-6 0)"><text class="lab" text-anchor="end">100</text></g></g><g class="tick" transform="translate(56.8 37.1402)"><line class="grid" x1="0" x2="523.2" y1="0" y2="0" /><line x1="0" x2="-5" y1="0" y2="0" /><g transform="translate(-6 0)"><text class="lab" text-anchor="end">300</text></g></g><g class="tick" transform="translate(56.8 19.3991)"><line class="grid" x1="0" x2="523.2" y1="0" y2="0" /><line x1="0" x2="-5" y1="0" y2="0" /><g transform="translate(-6 0)"><text class="lab" text-anchor="end">1000</text></g></g></g></g></g><g class="plotbox trees"><g class="tree t0" transform="translate(56.8 0)"><g class="plotbox"><g class="c2 node n11 p0 root" transform="translate(94.2 26.8)"><g class="a11 c2 node n7 p0" transform="translate(37.8 39.4313)"><g class="a7 i0 leaf node n1 p0 sample" transform="translate(-11.2 55.1687)"><path class="edge" d="M 0 0 V -55.1687 H 11.2" /><rect class="sym" height="6" width="6" x="-3" y="-3" /><text class="lab" transform="translate(0 11)">1</text></g><g class="a7 i2 leaf node n4 p0 sample" transform="translate(11.2 55.1687)"><path class="edge" d="M 0 0 V -55.1687 H -11.2" /><rect class="sym" height="6" width="6" x="-3" y="-3" /><text class="lab" transform="translate(0 11)">4</text></g><path class="edge" d="M 0 0 V -39.4313 H -37.8" /><circle class="sym" cx="0" cy="0" r="3" /><text class="lab rgt" transform="translate(3 -7.0)">7</text></g><g class="a11 c2 node n10 p0" transform="translate(-37.8 8.49131)"><g class="a10 i0 leaf node n0 p0 sample" transform="translate(-25.2 86.1087)"><path class="edge" d="M 0 0 V -86.1087 H 25.2" /><rect class="sym" height="6" width="6" x="-3" y="-3" /><text class="lab" transform="translate(0 11)">0</text></g><g class="a10 c2 node n8 p0" transform="translate(25.2 22.6576)"><g class="a8 i1 leaf node n3 p0 sample" transform="translate(16.8 63.4511)"><path class="edge" d="M 0 0 V -63.4511 H -16.8" /><rect class="sym" height="6" width="6" x="-3" y="-3" /><text class="lab" transform="translate(0 11)">3</text></g><g class="a8 c2 node n6 p0" transform="translate(-16.8 22.7955)"><g class="a6 i1 leaf node n2 p0 sample" transform="translate(-11.2 40.6556)"><path class="edge" d="M 0 0 V -40.6556 H 11.2" /><rect class="sym" height="6" width="6" x="-3" y="-3" /><text class="lab" transform="translate(0 11)">2</text></g><g class="a6 i2 leaf node n5 p0 sample" transform="translate(11.2 40.6556)"><path class="edge" d="M 0 0 V -40.6556 H -11.2" /><rect class="sym" height="6" width="6" x="-3" y="-3" /><text class="lab" transform="translate(0 11)">5</text></g><path class="edge" d="M 0 0 V -22.7955 H 16.8" /><circle class="sym" cx="0" cy="0" r="3" /><text class="lab lft" transform="translate(-3 -7.0)">6</text></g><path class="edge" d="M 0 0 V -22.6576 H -25.2" /><circle class="sym" cx="0" cy="0" r="3" /><text class="lab rgt" transform="translate(3 -7.0)">8</text></g><path class="edge" d="M 0 0 V -8.49131 H 37.8" /><circle class="sym" cx="0" cy="0" r="3" /><text class="lab lft" transform="translate(-3 -7.0)">10</text></g><circle class="sym" cx="0" cy="0" r="3" /><text class="lab" transform="translate(0 -11)">11</text></g></g></g><g class="tree t1" transform="translate(231.2 0)"><g class="plotbox"><g class="c2 node n10 p0 root" transform="translate(87.2 35.2913)"><g class="a10 c2 node n8 p0" transform="translate(39.2 22.6576)"><g class="a8 i1 leaf node n3 p0 sample" transform="translate(16.8 63.4511)"><path class="edge" d="M 0 0 V -63.4511 H -16.8" /><rect class="sym" height="6" width="6" x="-3" y="-3" /><text class="lab" transform="translate(0 11)">3</text></g><g class="a8 c2 node n6 p0" transform="translate(-16.8 22.7955)"><g class="a6 i1 leaf node n2 p0 sample" transform="translate(-11.2 40.6556)"><path class="edge" d="M 0 0 V -40.6556 H 11.2" /><rect class="sym" height="6" width="6" x="-3" y="-3" /><text class="lab" transform="translate(0 11)">2</text></g><g class="a6 i2 leaf node n5 p0 sample" transform="translate(11.2 40.6556)"><path class="edge" d="M 0 0 V -40.6556 H -11.2" /><rect class="sym" height="6" width="6" x="-3" y="-3" /><text class="lab" transform="translate(0 11)">5</text></g><path class="edge" d="M 0 0 V -22.7955 H 16.8" /><circle class="sym" cx="0" cy="0" r="3" /><text class="lab lft" transform="translate(-3 -7.0)">6</text></g><path class="edge" d="M 0 0 V -22.6576 H -39.2" /><circle class="sym" cx="0" cy="0" r="3" /><text class="lab rgt" transform="translate(3 -7.0)">8</text></g><g class="a10 c2 node n9 p0" transform="translate(-39.2 1.98569)"><g class="a9 i0 leaf node n0 p0 sample" transform="translate(-16.8 84.123)"><path class="edge" d="M 0 0 V -84.123 H 16.8" /><rect class="sym" height="6" width="6" x="-3" y="-3" /><text class="lab" transform="translate(0 11)">0</text></g><g class="a9 c2 node n7 p0" transform="translate(16.8 28.9543)"><g class="a7 i0 leaf node n1 p0 sample" transform="translate(-11.2 55.1687)"><path class="edge" d="M 0 0 V -55.1687 H 11.2" /><rect class="sym" height="6" width="6" x="-3" y="-3" /><text class="lab" transform="translate(0 11)">1</text></g><g class="a7 i2 leaf node n4 p0 sample" transform="translate(11.2 55.1687)"><path class="edge" d="M 0 0 V -55.1687 H -11.2" /><rect class="sym" height="6" width="6" x="-3" y="-3" /><text class="lab" transform="translate(0 11)">4</text></g><path class="edge" d="M 0 0 V -28.9543 H -16.8" /><circle class="sym" cx="0" cy="0" r="3" /><text class="lab rgt" transform="translate(3 -7.0)">7</text></g><path class="edge" d="M 0 0 V -1.98569 H 39.2" /><circle class="sym" cx="0" cy="0" r="3" /><text class="lab lft" transform="translate(-3 -7.0)">9</text></g><circle class="sym" cx="0" cy="0" r="3" /><text class="lab" transform="translate(0 -11)">10</text></g></g></g><g class="tree t2" transform="translate(405.6 0)"><g class="plotbox"><g class="c2 node n11 p0 root" transform="translate(87.2 26.8)"><g class="a11 c2 m0 node n8 p0 s0" transform="translate(39.2 31.1489)"><g class="a8 i1 leaf node n3 p0 sample" transform="translate(16.8 63.4511)"><path class="edge" d="M 0 0 V -63.4511 H -16.8" /><rect class="sym" height="6" width="6" x="-3" y="-3" /><text class="lab" transform="translate(0 11)">3</text></g><g class="a8 c2 node n6 p0" transform="translate(-16.8 22.7955)"><g class="a6 i1 leaf node n2 p0 sample" transform="translate(-11.2 40.6556)"><path class="edge" d="M 0 0 V -40.6556 H 11.2" /><rect class="sym" height="6" width="6" x="-3" y="-3" /><text class="lab" transform="translate(0 11)">2</text></g><g class="a6 i2 leaf node n5 p0 sample" transform="translate(11.2 40.6556)"><path class="edge" d="M 0 0 V -40.6556 H -11.2" /><rect class="sym" height="6" width="6" x="-3" y="-3" /><text class="lab" transform="translate(0 11)">5</text></g><path class="edge" d="M 0 0 V -22.7955 H 16.8" /><circle class="sym" cx="0" cy="0" r="3" /><text class="lab lft" transform="translate(-3 -7.0)">6</text></g><path class="edge" d="M 0 0 V -31.1489 H -39.2" /><g class="mut m0 s0 unknown_time" transform="translate(0 -22.6051)"><line x1="0" x2="0" y1="0" y2="22.6051" /><path class="sym" d="M -3,-3 l 6,6 M -3,3 l 6,-6" /><text class="lab rgt" transform="translate(5 0)">0</text></g><circle class="sym" cx="0" cy="0" r="3" /><text class="lab rgt" transform="translate(3 -7.0)">8</text></g><g class="a11 c2 node n9 p0" transform="translate(-39.2 10.477)"><g class="a9 i0 leaf node n0 p0 sample" transform="translate(-16.8 84.123)"><path class="edge" d="M 0 0 V -84.123 H 16.8" /><rect class="sym" height="6" width="6" x="-3" y="-3" /><text class="lab" transform="translate(0 11)">0</text></g><g class="a9 c2 node n7 p0" transform="translate(16.8 28.9543)"><g class="a7 i0 leaf node n1 p0 sample" transform="translate(-11.2 55.1687)"><path class="edge" d="M 0 0 V -55.1687 H 11.2" /><rect class="sym" height="6" width="6" x="-3" y="-3" /><text class="lab" transform="translate(0 11)">1</text></g><g class="a7 i2 leaf node n4 p0 sample" transform="translate(11.2 55.1687)"><path class="edge" d="M 0 0 V -55.1687 H -11.2" /><rect class="sym" height="6" width="6" x="-3" y="-3" /><text class="lab" transform="translate(0 11)">4</text></g><path class="edge" d="M 0 0 V -28.9543 H -16.8" /><circle class="sym" cx="0" cy="0" r="3" /><text class="lab rgt" transform="translate(3 -7.0)">7</text></g><path class="edge" d="M 0 0 V -10.477 H 39.2" /><circle class="sym" cx="0" cy="0" r="3" /><text class="lab lft" transform="translate(-3 -7.0)">9</text></g><circle class="sym" cx="0" cy="0" r="3" /><text class="lab" transform="translate(0 -11)">11</text></g></g></g></g></g></svg>