<svg baseProfile="full" height="200" version="1.1" width="200" xmlns="http://www.w3.org/2000/svg" xmlns:ev="http://www.w3.org/2001/xml-events" xmlns:xlink="http://www.w3.org/1999/xlink"><defs><style type="text/css"><![CDATA[.background path {fill: #808080; fill-opacity: 0}.background path:nth-child(odd) {fill-opacity: .1}.axes {font-size: 14px}.x-axis .tick .lab {font-weight: bold; dominant-baseline: hanging}.axes, .tree {font-size: 14px; text-anchor: middle}.axes line, .edge {stroke: black; fill: none}.axes .ax-skip {stroke-dasharray: 4}.y-axis .grid {stroke: #FAFAFA}.node > .sym {fill: black; stroke: none}.site > .sym {stroke: black}.mut text {fill: red; font-style: italic}.mut.extra text {fill: hotpink}.mut line {fill: none; stroke: none}.mut .sym {fill: none; stroke: red}.mut.extra .sym {stroke: hotpink}.node .mut .sym {stroke-width: 1.5px}.tree text, .tree-sequence text {dominant-baseline: central}.plotbox .lab.lft {text-anchor: end}.plotbox .lab.rgt {text-anchor: start}]]></style></defs><g class="tree t2"><g class="plotbox"><g class="c2 node n17 p3 root" transform="translate(88.125 26.8)"><g class="a17 c2 node n16 p3" transform="translate(48.125 25.6676)"><g class="a16 c2 node n10 p3" transform="translate(23.75 71.2691)"><g class="a10 i3 leaf node n6 p2 sample" transform="translate(-10 44.4633)"><path class="edge" d="M 0 0 V -44.4633 H 10" /><rect class="sym" height="6" width="6" x="-3" y="-3" /><text class="lab" transform="translate(0 11)">6</text></g><g class="a10 i3 leaf node n7 p2 sample" transform="translate(10 44.4633)"><path class="edge" d="M 0 0 V -44.4633 H -10" /><rect class="sym" height="6" width="6" x="-3" y="-3" /><text class="lab" transform="translate(0 11)">7</text></g><path class="edge" d="M 0 0 V -71.2691 H -23.75" /><circle class="sym" cx="0" cy="0" r="3" /><text class="lab rgt" transform="translate(3 -7.0)">10</text></g><g class="a16 c2 node n15 p3" transform="translate(-23.75 14.9344)"><g class="a15 i2 leaf node n5 p1 sample" transform="translate(17.5 100.798)"><path class="edge" d="M 0 0 V -100.798 H -17.5" /><rect class="sym" height="6" width="6" x="-3" y="-3" /><text class="lab" transform="translate(0 11)">5</text></g><g class="a15 c2 node n9 p3" transform="translate(-17.5 57.4234)"><g class="a9 i2 leaf node n4 p1 sample" transform="translate(15 43.3745)"><path class="edge" d="M 0 0 V -43.3745 H -15" /><rect class="sym" height="6" width="6" x="-3" y="-3" /><text class="lab" transform="translate(0 11)">4</text></g><g class="a9 c2 node n8 p0" transform="translate(-15 41.9522)"><g class="a8 i1 leaf node n2 p0 sample" transform="translate(-10 1.42233)"><path class="edge" d="M 0 0 V -1.42233 H 10" /><rect class="sym" height="6" width="6" x="-3" y="-3" /><text class="lab" transform="translate(0 11)">2</text></g><g class="a8 i1 leaf node n3 p0 sample" transform="translate(10 1.42233)"><path class="edge" d="M 0 0 V -1.42233 H -10" /><rect class="sym" height="6" width="6" x="-3" y="-3" /><text class="lab" transform="translate(0 11)">3</text></g><path class="edge" d="M 0 0 V -41.9522 H 15" /><circle class="sym" cx="0" cy="0" r="3" /><text class="lab lft" transform="translate(-3 -7.0)">8</text></g><path class="edge" d="M 0 0 V -57.4234 H 17.5" /><circle class="sym" cx="0" cy="0" r="3" /><text class="lab lft" transform="translate(-3 -7.0)">9</text></g><path class="edge" d="M 0 0 V -14.9344 H 23.75" /><circle class="sym" cx="0" cy="0" r="3" /><text class="lab lft" transform="translate(-3 -7.0)">15</text></g><path class="edge" d="M 0 0 V -25.6676 H -48.125" /><circle class="sym" cx="0" cy="0" r="3" /><text class="lab rgt" transform="translate(3 -7.0)">16</text></g><g class="a17 c2 node n14 p3" transform="translate(-48.125 54.506)"><g class="a14 i0 leaf node n0 p0 sample" transform="translate(-10 86.894)"><path class="edge" d="M 0 0 V -86.894 H 10" /><rect class="sym" height="6" width="6" x="-3" y="-3" /><text class="lab" transform="translate(0 11)">0</text></g><g class="a14 i0 leaf node n1 p0 sample" transform="translate(10 86.894)"><path class="edge" d="M 0 0 V -86.894 H -10" /><rect class="sym" height="6" width="6" x="-3" y="-3" /><text class="lab" transform="translate(0 11)">1</text></g><path class="edge" d="M 0 0 V -54.506 H 48.125" /><circle class="sym" cx="0" cy="0" r="3" /><text class="lab lft" transform="translate(-3 -7.0)">14</text></g><circle class="sym" cx="0" cy="0" r="3" /><text class="lab" transform="translate(0 -11)">17</text></g></g></g></svg>