<svg xmlns="http://www.w3.org/2000/svg" xmlns:ev="http://www.w3.org/2001/xml-events" xmlns:xlink="http://www.w3.org/1999/xlink" baseProfile="full" height="200" version="1.1" width="400"><defs><style type="text/css"><![CDATA[.background path {fill: #808080; fill-opacity:0}.background path:nth-child(odd) {fill-opacity:.1}.axes {font-size: 14px}.x-axis .tick .lab {font-weight: bold}.axes, .tree {font-size: 14px; text-anchor:middle}.y-axis line.grid {stroke: #FAFAFA}.y-axis > .lab text {transform: translateX(0.8em) rotate(-90deg)}.x-axis .tick g {transform: translateY(0.9em)}.x-axis > .lab text {transform: translateY(-0.8em)}.axes line, .edge {stroke:black; fill:none}.node > .sym {fill: black; stroke: none}.site > .sym {stroke: black}.mut text {fill: red; font-style: italic}.mut.extra text {fill: hotpink}.mut line {fill: none; stroke: none}.mut .sym {fill: none; stroke: red}.mut.extra .sym {stroke: hotpink}.node .mut .sym {stroke-width: 1.5px}.tree text, .tree-sequence text {dominant-baseline: central}.plotbox .lab.lft {text-anchor: end}.plotbox .lab.rgt {text-anchor: start}.leaf .sym {fill: blue} .sample > .sym {fill: green}]]></style></defs><g class="tree-sequence"><g class="axes"><g class="x-axis"><g class="lab" transform="translate(218.4,200)"><text text-anchor="middle">Genome position</text></g><line x1="56.8" x2="380" y1="163.2" y2="163.2"/><g class="tick" transform="translate(56.8 163.2)"><line x1="0" x2="0" y1="-5" y2="5"/><g class="lab" transform="translate(0,5)"><text>0</text></g></g><g class="tick" transform="translate(218.4 163.2)"><line x1="0" x2="0" y1="-5" y2="5"/><g class="lab" transform="translate(0,5)"><text>6</text></g></g><g class="tick" transform="translate(380 163.2)"><line x1="0" x2="0" y1="-5" y2="5"/><g class="lab" transform="translate(0,5)"><text>10</text></g></g></g><g class="y-axis"><g class="lab" transform="translate(0,65.7)"><text text-anchor="middle">Node time</text></g><line x1="56.8" x2="56.8" y1="121.4" y2="10"/><g class="tick" transform="translate(56.8 121.4)"><line class="grid" x1="0" x2="323.2" y1="0" y2="0"/><line x1="0" x2="-5" y1="0" y2="0"/><g class="lab" transform="translate(-5,0)"><text text-anchor="end">0.00</text></g></g><g class="tick" transform="translate(56.8 105.633)"><line class="grid" x1="0" x2="323.2" y1="0" y2="0"/><line x1="0" x2="-5" y1="0" y2="0"/><g class="lab" transform="translate(-5,0)"><text text-anchor="end">0.11</text></g></g><g class="tick" transform="translate(56.8 89.8667)"><line class="grid" x1="0" x2="323.2" y1="0" y2="0"/><line x1="0" x2="-5" y1="0" y2="0"/><g class="lab" transform="translate(-5,0)"><text text-anchor="end">1.11</text></g></g><g class="tick" transform="translate(56.8 74.1)"><line class="grid" x1="0" x2="323.2" y1="0" y2="0"/><line x1="0" x2="-5" y1="0" y2="0"/><g class="lab" transform="translate(-5,0)"><text text-anchor="end">1.75</text></g></g><g class="tick" transform="translate(56.8 58.3333)"><line class="grid" x1="0" x2="323.2" y1="0" y2="0"/><line x1="0" x2="-5" y1="0" y2="0"/><g class="lab" transform="translate(-5,0)"><text text-anchor="end">5.31</text></g></g><g class="tick" transform="translate(56.8 42.5667)"><line class="grid" x1="0" x2="323.2" y1="0" y2="0"/><line x1="0" x2="-5" y1="0" y2="0"/><g class="lab" transform="translate(-5,0)"><text text-anchor="end">6.57</text></g></g><g class="tick" transform="translate(56.8 26.8)"><line class="grid" x1="0" x2="323.2" y1="0" y2="0"/><line x1="0" x2="-5" y1="0" y2="0"/><g class="lab" transform="translate(-5,0)"><text text-anchor="end">9.08</text></g></g></g></g><g class="plotbox trees"><g class="tree t0" transform="translate(56.8 0)"><g class="plotbox"><g class="node n9 p0 root" transform="translate(60.5333 26.8)"><g class="a9 node n4 p0" transform="translate(-20.2667 78.8333)"><g class="a4 leaf node n0 p0" transform="translate(-10.1333 15.7667)"><path class="edge" d="M 0 0 V -15.7667 H 10.1333"/><circle class="sym" cx="0" cy="0" r="3"/><text class="lab" transform="translate(0 11)">0</text></g><g class="a4 leaf node n1 p0" transform="translate(10.1333 15.7667)"><path class="edge" d="M 0 0 V -15.7667 H -10.1333"/><circle class="sym" cx="0" cy="0" r="3"/><text class="lab" transform="translate(0 11)">1</text></g><path class="edge" d="M 0 0 V -78.8333 H 20.2667"/><circle class="sym" cx="0" cy="0" r="3"/><text class="lab lft" transform="translate(-3 -7.0)">4</text></g><g class="a9 node n5 p0" transform="translate(20.2667 63.0667)"><g class="a5 leaf node n2 p0 sample" transform="translate(-10.1333 31.5333)"><path class="edge" d="M 0 0 V -31.5333 H 10.1333"/><rect class="sym" height="6" width="6" x="-3" y="-3"/><text class="lab" transform="translate(0 11)">2</text></g><g class="a5 leaf node n3 p0 sample" transform="translate(10.1333 31.5333)"><path class="edge" d="M 0 0 V -31.5333 H -10.1333"/><rect class="sym" height="6" width="6" x="-3" y="-3"/><text class="lab" transform="translate(0 11)">3</text></g><path class="edge" d="M 0 0 V -63.0667 H -20.2667"/><circle class="sym" cx="0" cy="0" r="3"/><text class="lab rgt" transform="translate(3 -7.0)">5</text></g><circle class="sym" cx="0" cy="0" r="3"/><text class="lab" transform="translate(0 -11)">9</text></g><g class="leaf node n7 p0 root sample" transform="translate(111.2 58.3333)"><rect class="sym" height="6" width="6" x="-3" y="-3"/><text class="lab" transform="translate(0 11)">7</text></g><g class="leaf node n8 p0 root sample" transform="translate(131.467 42.5667)"><rect class="sym" height="6" width="6" x="-3" y="-3"/><text class="lab" transform="translate(0 11)">8</text></g></g></g><g class="tree t1" transform="translate(218.4 0)"><g class="plotbox"><g class="node n7 p0 root sample" transform="translate(68.64 58.3333)"><g class="a7 node n4 p0" transform="translate(-24.32 47.3)"><g class="a4 leaf node n0 p0" transform="translate(-12.16 15.7667)"><path class="edge" d="M 0 0 V -15.7667 H 12.16"/><circle class="sym" cx="0" cy="0" r="3"/><text class="lab" transform="translate(0 11)">0</text></g><g class="a4 leaf node n1 p0" transform="translate(12.16 15.7667)"><path class="edge" d="M 0 0 V -15.7667 H -12.16"/><circle class="sym" cx="0" cy="0" r="3"/><text class="lab" transform="translate(0 11)">1</text></g><path class="edge" d="M 0 0 V -47.3 H 24.32"/><circle class="sym" cx="0" cy="0" r="3"/><text class="lab lft" transform="translate(-3 -7.0)">4</text></g><g class="a7 node n5 p0" transform="translate(24.32 31.5333)"><g class="a5 leaf node n2 p0 sample" transform="translate(-12.16 31.5333)"><path class="edge" d="M 0 0 V -31.5333 H 12.16"/><rect class="sym" height="6" width="6" x="-3" y="-3"/><text class="lab" transform="translate(0 11)">2</text></g><g class="a5 leaf node n3 p0 sample" transform="translate(12.16 31.5333)"><path class="edge" d="M 0 0 V -31.5333 H -12.16"/><rect class="sym" height="6" width="6" x="-3" y="-3"/><text class="lab" transform="translate(0 11)">3</text></g><path class="edge" d="M 0 0 V -31.5333 H -24.32"/><circle class="sym" cx="0" cy="0" r="3"/><text class="lab rgt" transform="translate(3 -7.0)">5</text></g><rect class="sym" height="6" width="6" x="-3" y="-3"/><text class="lab" transform="translate(0 -11)">7</text></g><g class="leaf node n8 p0 root sample" transform="translate(129.44 42.5667)"><rect class="sym" height="6" width="6" x="-3" y="-3"/><text class="lab" transform="translate(0 11)">8</text></g></g></g></g></g></svg>