<svg baseProfile="full" height="300" version="1.1" width="200" xmlns="http://www.w3.org/2000/svg" xmlns:ev="http://www.w3.org/2001/xml-events" xmlns:xlink="http://www.w3.org/1999/xlink"><defs><style type="text/css"><![CDATA[.background path {fill: #808080; fill-opacity: 0}.background path:nth-child(odd) {fill-opacity: .1}.axes {font-size: 14px}.x-axis .tick .lab {font-weight: bold; dominant-baseline: hanging}.axes, .tree {font-size: 14px; text-anchor: middle}.axes line, .edge {stroke: black; fill: none}.axes .ax-skip {stroke-dasharray: 4}.y-axis .grid {stroke: #FAFAFA}.node > .sym {fill: black; stroke: none}.site > .sym {stroke: black}.mut text {fill: red; font-style: italic}.mut.extra text {fill: hotpink}.mut line {fill: none; stroke: none}.mut .sym {fill: none; stroke: red}.mut.extra .sym {stroke: hotpink}.node .mut .sym {stroke-width: 1.5px}.tree text, .tree-sequence text {dominant-baseline: central}.plotbox .lab.lft {text-anchor: end}.plotbox .lab.rgt {text-anchor: start}]]></style></defs><g class="tree t2"><g class="plotbox"><g class="c2 node n17 p3 root" transform="translate(88.125 26.8)"><g class="a17 c2 node n16 p3" transform="translate(48.125 43.8202)"><g class="a16 c2 m22 node n10 p3 s21" transform="translate(23.75 121.672)"><g class="a10 i3 leaf m15 node n6 p2 s14 sample" transform="translate(-10 75.9083)"><path class="edge" d="M 0 0 V -75.9083 H 10" /><g class="mut m15 s14" transform="translate(0 -26.4517)"><line x1="0" x2="0" y1="0" y2="26.4517" /><path class="sym" d="M -3,-3 l 6,6 M -3,3 l 6,-6" /><text class="lab lft" transform="translate(-5 0)">15</text></g><rect class="sym" height="6" width="6" x="-3" y="-3" /><text class="lab" transform="translate(0 11)">6</text></g><g class="a10 i3 leaf m16 m17 node n7 p2 s15 s16 sample" transform="translate(10 75.9083)"><path class="edge" d="M 0 0 V -75.9083 H -10" /><g class="mut m17 s16" transform="translate(0 -73.6898)"><line x1="0" x2="0" y1="0" y2="73.6898" /><path class="sym" d="M -3,-3 l 6,6 M -3,3 l 6,-6" /><text class="lab rgt" transform="translate(5 0)">17</text></g><g class="mut m16 s15" transform="translate(0 -30.5303)"><line x1="0" x2="0" y1="0" y2="30.5303" /><path class="sym" d="M -3,-3 l 6,6 M -3,3 l 6,-6" /><text class="lab rgt" transform="translate(5 0)">16</text></g><rect class="sym" height="6" width="6" x="-3" y="-3" /><text class="lab" transform="translate(0 11)">7</text></g><path class="edge" d="M 0 0 V -121.672 H -23.75" /><g class="mut m22 s21" transform="translate(0 -40.2849)"><line x1="0" x2="0" y1="0" y2="40.2849" /><path class="sym" d="M -3,-3 l 6,6 M -3,3 l 6,-6" /><text class="lab rgt" transform="translate(5 0)">22</text></g><circle class="sym" cx="0" cy="0" r="3" /><text class="lab rgt" transform="translate(3 -7.0)">10</text></g><g class="a16 c2 m20 node n15 p3 s19" transform="translate(-23.75 25.4962)"><g class="a15 i2 leaf node n5 p1 sample" transform="translate(17.5 172.084)"><path class="edge" d="M 0 0 V -172.084 H -17.5" /><rect class="sym" height="6" width="6" x="-3" y="-3" /><text class="lab" transform="translate(0 11)">5</text></g><g class="a15 c2 m19 node n9 p3 s18" transform="translate(-17.5 98.0341)"><g class="a9 i2 leaf node n4 p1 sample" transform="translate(15 74.0496)"><path class="edge" d="M 0 0 V -74.0496 H -15" /><rect class="sym" height="6" width="6" x="-3" y="-3" /><text class="lab" transform="translate(0 11)">4</text></g><g class="a9 c2 m18 m24 node n8 p0 s17 s23" transform="translate(-15 71.6213)"><g class="a8 i1 leaf node n2 p0 sample" transform="translate(-10 2.42821)"><path class="edge" d="M 0 0 V -2.42821 H 10" /><rect class="sym" height="6" width="6" x="-3" y="-3" /><text class="lab" transform="translate(0 11)">2</text></g><g class="a8 i1 leaf node n3 p0 sample" transform="translate(10 2.42821)"><path class="edge" d="M 0 0 V -2.42821 H -10" /><rect class="sym" height="6" width="6" x="-3" y="-3" /><text class="lab" transform="translate(0 11)">3</text></g><path class="edge" d="M 0 0 V -71.6213 H 15" /><g class="mut m18 s17" transform="translate(0 -63.2258)"><line x1="0" x2="0" y1="0" y2="63.2258" /><path class="sym" d="M -3,-3 l 6,6 M -3,3 l 6,-6" /><text class="lab lft" transform="translate(-5 0)">18</text></g><g class="mut m24 s23" transform="translate(0 -50.8461)"><line x1="0" x2="0" y1="0" y2="50.8461" /><path class="sym" d="M -3,-3 l 6,6 M -3,3 l 6,-6" /><text class="lab lft" transform="translate(-5 0)">24</text></g><circle class="sym" cx="0" cy="0" r="3" /><text class="lab lft" transform="translate(-3 -7.0)">8</text></g><path class="edge" d="M 0 0 V -98.0341 H 17.5" /><g class="mut m19 s18" transform="translate(0 -29.9506)"><line x1="0" x2="0" y1="0" y2="29.9506" /><path class="sym" d="M -3,-3 l 6,6 M -3,3 l 6,-6" /><text class="lab lft" transform="translate(-5 0)">19</text></g><circle class="sym" cx="0" cy="0" r="3" /><text class="lab lft" transform="translate(-3 -7.0)">9</text></g><path class="edge" d="M 0 0 V -25.4962 H 23.75" /><g class="mut m20 s19" transform="translate(0 -23.8471)"><line x1="0" x2="0" y1="0" y2="23.8471" /><path class="sym" d="M -3,-3 l 6,6 M -3,3 l 6,-6" /><text class="lab lft" transform="translate(-5 0)">20</text></g><circle class="sym" cx="0" cy="0" r="3" /><text class="lab lft" transform="translate(-3 -7.0)">15</text></g><path class="edge" d="M 0 0 V -43.8202 H -48.125" /><circle class="sym" cx="0" cy="0" r="3" /><text class="lab rgt" transform="translate(3 -7.0)">16</text></g><g class="a17 c2 node n14 p3" transform="translate(-48.125 93.0534)"><g class="a14 i0 leaf m21 node n0 p0 s20 sample" transform="translate(-10 148.347)"><path class="edge" d="M 0 0 V -148.347 H 10" /><g class="mut m21 s20" transform="translate(0 -62.0951)"><line x1="0" x2="0" y1="0" y2="62.0951" /><path class="sym" d="M -3,-3 l 6,6 M -3,3 l 6,-6" /><text class="lab lft" transform="translate(-5 0)">21</text></g><rect class="sym" height="6" width="6" x="-3" y="-3" /><text class="lab" transform="translate(0 11)">0</text></g><g class="a14 i0 leaf m14 m23 node n1 p0 s14 s22 sample" transform="translate(10 148.347)"><path class="edge" d="M 0 0 V -148.347 H -10" /><g class="mut m14 s14" transform="translate(0 -44.2696)"><line x1="0" x2="0" y1="0" y2="44.2696" /><path class="sym" d="M -3,-3 l 6,6 M -3,3 l 6,-6" /><text class="lab rgt" transform="translate(5 0)">14</text></g><g class="mut m23 s22" transform="translate(0 -7.88598)"><line x1="0" x2="0" y1="0" y2="7.88598" /><path class="sym" d="M -3,-3 l 6,6 M -3,3 l 6,-6" /><text class="lab rgt" transform="translate(5 0)">23</text></g><rect class="sym" height="6" width="6" x="-3" y="-3" /><text class="lab" transform="translate(0 11)">1</text></g><path class="edge" d="M 0 0 V -93.0534 H 48.125" /><circle class="sym" cx="0" cy="0" r="3" /><text class="lab lft" transform="translate(-3 -7.0)">14</text></g><circle class="sym" cx="0" cy="0" r="3" /><text class="lab" transform="translate(0 -11)">17</text></g></g></g></svg>