<svg xmlns="http://www.w3.org/2000/svg" xmlns:ev="http://www.w3.org/2001/xml-events" xmlns:xlink="http://www.w3.org/1999/xlink" baseProfile="full" height="200" version="1.1" width="400"><defs><style type="text/css"><![CDATA[.background path {fill: #808080; fill-opacity:0}.background path:nth-child(odd) {fill-opacity:.1}.axes {font-size: 14px}.x-axis .tick .lab {font-weight: bold}.axes, .tree {font-size: 14px; text-anchor:middle}.y-axis line.grid {stroke: #FAFAFA}.y-axis > .lab text {transform: translateX(0.8em) rotate(-90deg)}.x-axis .tick g {transform: translateY(0.9em)}.x-axis > .lab text {transform: translateY(-0.8em)}.axes line, .edge {stroke:black; fill:none}.node > .sym {fill: black; stroke: none}.site > .sym {stroke: black}.mut text {fill: red; font-style: italic}.mut.extra text {fill: hotpink}.mut line {fill: none; stroke: none}.mut .sym {fill: none; stroke: red}.mut.extra .sym {stroke: hotpink}.node .mut .sym {stroke-width: 1.5px}.tree text, .tree-sequence text {dominant-baseline: central}.plotbox .lab.lft {text-anchor: end}.plotbox .lab.rgt {text-anchor: start}.edge {stroke: grey}.mut .sym{stroke:pink} .mut text{fill:pink}.mut.m2 .sym, .m2>line, .m2>.node .edge{stroke:blue} .mut.m2 .lab{fill:blue}.mut.m3 .sym, .m3>line, .m3>.node .edge{stroke:cyan} .mut.m3 .lab{fill:cyan}.mut.m4 .sym, .m4>line, .m4>.node .edge{stroke:red} .mut.m4 .lab{fill:red}.node:not(.leaf) > .sym, .node:not(.leaf) > .lab {visibility: hidden}]]></style></defs><g class="tree-sequence"><g class="background"><path d="M20,0 l180,0 l0,138.2 l-108,25 l0,5 l-72,0 l0,-5 l0,-25 l0,-138.2z"/><path d="M200,0 l180,0 l0,138.2 l0,25 l0,5 l-288,0 l0,-5 l108,-25 l0,-138.2z"/></g><g class="axes"><g class="x-axis"><g class="lab" transform="translate(200,200)"><text text-anchor="middle">Genome position</text></g><line x1="20" x2="380" y1="163.2" y2="163.2"/><g class="tick" transform="translate(20 163.2)"><line x1="0" x2="0" y1="0" y2="5"/><g class="lab" transform="translate(0,5)"><text>0</text></g></g><g class="tick" transform="translate(92 163.2)"><line x1="0" x2="0" y1="0" y2="5"/><g class="lab" transform="translate(0,5)"><text>6</text></g></g><g class="site s0" transform="translate(68 163.2)"><line class="sym" x1="0" x2="0" y1="0" y2="-10"/><g class="mut m2"><polyline class="sym" points="2.5,-6.5 0,-1.5 -2.5,-6.5"/></g><g class="mut m1"><polyline class="sym" points="2.5,-10.5 0,-5.5 -2.5,-10.5"/></g><g class="mut m0"><polyline class="sym" points="2.5,-14.5 0,-9.5 -2.5,-14.5"/></g></g><g class="site s1" transform="translate(92 163.2)"><line class="sym" x1="0" x2="0" y1="0" y2="-10"/><g class="mut m4"><polyline class="sym" points="2.5,-6.5 0,-1.5 -2.5,-6.5"/></g><g class="mut m3"><polyline class="sym" points="2.5,-10.5 0,-5.5 -2.5,-10.5"/></g></g></g></g><g class="plotbox trees"><g class="tree t0" transform="translate(20 0)"><g class="plotbox"><g class="m0 m1 node n9 p0 root s0" transform="translate(90 23.925)"><g class="a9 node n4 p0" transform="translate(-35 69.625)"><g class="a4 leaf node n0 p0 sample" transform="translate(-17.5 13.925)"><path class="edge" d="M 0 0 V -13.925 H 17.5"/><rect class="sym" height="6" width="6" x="-3" y="-3"/><text class="lab" transform="translate(0 11)">0</text></g><g class="a4 leaf node n1 p0 sample" transform="translate(17.5 27.85)"><path class="edge" d="M 0 0 V -27.85 H -17.5"/><rect class="sym" height="6" width="6" x="-3" y="-3"/><text class="lab" transform="translate(0 11)">1</text></g><path class="edge" d="M 0 0 V -69.625 H 35"/><circle class="sym" cx="0" cy="0" r="3"/><text class="lab lft" transform="translate(-3 -7.0)">4</text></g><g class="a9 m2 node n5 p0 s0" transform="translate(35 55.7)"><g class="a5 leaf node n2 p0 sample" transform="translate(-17.5 41.775)"><path class="edge" d="M 0 0 V -41.775 H 17.5"/><rect class="sym" height="6" width="6" x="-3" y="-3"/><text class="lab" transform="translate(0 11)">2</text></g><g class="a5 leaf node n3 p0 sample" transform="translate(17.5 41.775)"><path class="edge" d="M 0 0 V -41.775 H -17.5"/><rect class="sym" height="6" width="6" x="-3" y="-3"/><text class="lab" transform="translate(0 11)">3</text></g><path class="edge" d="M 0 0 V -55.7 H -35"/><g class="mut m2 s0" transform="translate(0 -27.85)"><line x1="0" x2="0" y1="0" y2="27.85"/><path class="sym" d="M -3,-3 l 6,6 M -3,3 l 6,-6"/><text class="lab rgt" transform="translate(5 0)">2</text></g><circle class="sym" cx="0" cy="0" r="3"/><text class="lab rgt" transform="translate(3 -7.0)">5</text></g><path class="edge" d="M 0 0 V -13.925 H 0"/><g class="mut m0 s0" transform="translate(0 -9.28333)"><line x1="0" x2="0" y1="0" y2="9.28333"/><path class="sym" d="M -3,-3 l 6,6 M -3,3 l 6,-6"/><text class="lab rgt" transform="translate(5 0)">0</text></g><g class="mut m1 s0" transform="translate(0 -4.64167)"><line x1="0" x2="0" y1="0" y2="4.64167"/><path class="sym" d="M -3,-3 l 6,6 M -3,3 l 6,-6"/><text class="lab rgt" transform="translate(5 0)">1</text></g><circle class="sym" cx="0" cy="0" r="3"/><text class="lab rgt" transform="translate(3 -7.0)">9</text></g></g></g><g class="tree t1" transform="translate(200 0)"><g class="plotbox"><g class="node n7 p0 root" transform="translate(90 51.775)"><g class="a7 m3 m4 node n4 p0 s1" transform="translate(-35 41.775)"><g class="a4 leaf node n0 p0 sample" transform="translate(-17.5 13.925)"><path class="edge" d="M 0 0 V -13.925 H 17.5"/><rect class="sym" height="6" width="6" x="-3" y="-3"/><text class="lab" transform="translate(0 11)">0</text></g><g class="a4 leaf node n1 p0 sample" transform="translate(17.5 27.85)"><path class="edge" d="M 0 0 V -27.85 H -17.5"/><rect class="sym" height="6" width="6" x="-3" y="-3"/><text class="lab" transform="translate(0 11)">1</text></g><path class="edge" d="M 0 0 V -41.775 H 35"/><g class="mut m3 s1" transform="translate(0 -27.85)"><line x1="0" x2="0" y1="0" y2="27.85"/><path class="sym" d="M -3,-3 l 6,6 M -3,3 l 6,-6"/><text class="lab lft" transform="translate(-5 0)">3</text></g><g class="mut m4 s1" transform="translate(0 -13.925)"><line x1="0" x2="0" y1="0" y2="13.925"/><path class="sym" d="M -3,-3 l 6,6 M -3,3 l 6,-6"/><text class="lab lft" transform="translate(-5 0)">4</text></g><circle class="sym" cx="0" cy="0" r="3"/><text class="lab lft" transform="translate(-3 -7.0)">4</text></g><g class="a7 node n5 p0" transform="translate(35 27.85)"><g class="a5 leaf node n2 p0 sample" transform="translate(-17.5 41.775)"><path class="edge" d="M 0 0 V -41.775 H 17.5"/><rect class="sym" height="6" width="6" x="-3" y="-3"/><text class="lab" transform="translate(0 11)">2</text></g><g class="a5 leaf node n3 p0 sample" transform="translate(17.5 41.775)"><path class="edge" d="M 0 0 V -41.775 H -17.5"/><rect class="sym" height="6" width="6" x="-3" y="-3"/><text class="lab" transform="translate(0 11)">3</text></g><path class="edge" d="M 0 0 V -27.85 H -35"/><circle class="sym" cx="0" cy="0" r="3"/><text class="lab rgt" transform="translate(3 -7.0)">5</text></g><path class="edge" d="M 0 0 V -13.925 H 0"/><circle class="sym" cx="0" cy="0" r="3"/><text class="lab rgt" transform="translate(3 -7.0)">7</text></g></g></g></g></g></svg>