<svg baseProfile="full" height="300" version="1.1" width="200" xmlns="http://www.w3.org/2000/svg" xmlns:ev="http://www.w3.org/2001/xml-events" xmlns:xlink="http://www.w3.org/1999/xlink"><defs><style type="text/css"><![CDATA[.background path {fill: #808080; fill-opacity: 0}.background path:nth-child(odd) {fill-opacity: .1}.axes {font-size: 14px}.x-axis .tick .lab {font-weight: bold; dominant-baseline: hanging}.axes, .tree {font-size: 14px; text-anchor: middle}.axes line, .edge {stroke: black; fill: none}.axes .ax-skip {stroke-dasharray: 4}.y-axis .grid {stroke: #FAFAFA}.node > .sym {fill: black; stroke: none}.site > .sym {stroke: black}.mut text {fill: red; font-style: italic}.mut.extra text {fill: hotpink}.mut line {fill: none; stroke: none}.mut .sym {fill: none; stroke: red}.mut.extra .sym {stroke: hotpink}.node .mut .sym {stroke-width: 1.5px}.tree text, .tree-sequence text {dominant-baseline: central}.plotbox .lab.lft {text-anchor: end}.plotbox .lab.rgt {text-anchor: start}]]></style></defs><g class="tree t2"><g class="plotbox"><g class="c2 node n17 p3 root" transform="translate(88.125 26.8)"><g class="a17 c2 m8 node n16 p3 s8" transform="translate(48.125 43.8202)"><g class="a16 c2 m0 m22 m30 m40 m44 m53 m76 m84 node n10 p3 s0 s21 s29 s39 s43 s52 s75 s83" transform="translate(23.75 121.672)"><g class="a10 i3 leaf m12 m15 m29 m61 m74 node n6 p2 s12 s14 s28 s60 s73 sample" transform="translate(-10 75.9083)"><path class="edge" d="M 0 0 V -75.9083 H 10" /><g class="mut m61 s60 extra" transform="translate(0 -58.0898)"><line x1="0" x2="0" y1="0" y2="58.0898" /><path class="sym" d="M -3,-3 l 6,6 M -3,3 l 6,-6" /><text class="lab lft" transform="translate(-5 0)">61</text></g><g class="mut m74 s73 extra" transform="translate(0 -35.2949)"><line x1="0" x2="0" y1="0" y2="35.2949" /><path class="sym" d="M -3,-3 l 6,6 M -3,3 l 6,-6" /><text class="lab lft" transform="translate(-5 0)">74</text></g><g class="mut m15 s14" transform="translate(0 -26.4517)"><line x1="0" x2="0" y1="0" y2="26.4517" /><path class="sym" d="M -3,-3 l 6,6 M -3,3 l 6,-6" /><text class="lab lft" transform="translate(-5 0)">15</text></g><g class="mut m29 s28 extra" transform="translate(0 -19.7766)"><line x1="0" x2="0" y1="0" y2="19.7766" /><path class="sym" d="M -3,-3 l 6,6 M -3,3 l 6,-6" /><text class="lab lft" transform="translate(-5 0)">29</text></g><g class="mut m12 s12 extra" transform="translate(0 -0.427784)"><line x1="0" x2="0" y1="0" y2="0.427784" /><path class="sym" d="M -3,-3 l 6,6 M -3,3 l 6,-6" /><text class="lab lft" transform="translate(-5 0)">12</text></g><rect class="sym" height="6" width="6" x="-3" y="-3" /><text class="lab" transform="translate(0 11)">6</text></g><g class="a10 i3 leaf m16 m17 m2 m64 m94 m96 node n7 p2 s15 s16 s2 s63 s93 s95 sample" transform="translate(10 75.9083)"><path class="edge" d="M 0 0 V -75.9083 H -10" /><g class="mut m17 s16" transform="translate(0 -73.6898)"><line x1="0" x2="0" y1="0" y2="73.6898" /><path class="sym" d="M -3,-3 l 6,6 M -3,3 l 6,-6" /><text class="lab rgt" transform="translate(5 0)">17</text></g><g class="mut m94 s93 extra" transform="translate(0 -71.1763)"><line x1="0" x2="0" y1="0" y2="71.1763" /><path class="sym" d="M -3,-3 l 6,6 M -3,3 l 6,-6" /><text class="lab rgt" transform="translate(5 0)">94</text></g><g class="mut m96 s95 extra" transform="translate(0 -49.8762)"><line x1="0" x2="0" y1="0" y2="49.8762" /><path class="sym" d="M -3,-3 l 6,6 M -3,3 l 6,-6" /><text class="lab rgt" transform="translate(5 0)">96</text></g><g class="mut m2 s2 extra" transform="translate(0 -33.5563)"><line x1="0" x2="0" y1="0" y2="33.5563" /><path class="sym" d="M -3,-3 l 6,6 M -3,3 l 6,-6" /><text class="lab rgt" transform="translate(5 0)">2</text></g><g class="mut m16 s15" transform="translate(0 -30.5303)"><line x1="0" x2="0" y1="0" y2="30.5303" /><path class="sym" d="M -3,-3 l 6,6 M -3,3 l 6,-6" /><text class="lab rgt" transform="translate(5 0)">16</text></g><g class="mut m64 s63 extra" transform="translate(0 -2.05408)"><line x1="0" x2="0" y1="0" y2="2.05408" /><path class="sym" d="M -3,-3 l 6,6 M -3,3 l 6,-6" /><text class="lab rgt" transform="translate(5 0)">64</text></g><rect class="sym" height="6" width="6" x="-3" y="-3" /><text class="lab" transform="translate(0 11)">7</text></g><path class="edge" d="M 0 0 V -121.672 H -23.75" /><g class="mut m0 s0 extra" transform="translate(0 -104.481)"><line x1="0" x2="0" y1="0" y2="104.481" /><path class="sym" d="M -3,-3 l 6,6 M -3,3 l 6,-6" /><text class="lab rgt" transform="translate(5 0)">0</text></g><g class="mut m76 s75 extra" transform="translate(0 -91.6189)"><line x1="0" x2="0" y1="0" y2="91.6189" /><path class="sym" d="M -3,-3 l 6,6 M -3,3 l 6,-6" /><text class="lab rgt" transform="translate(5 0)">76</text></g><g class="mut m40 s39 extra" transform="translate(0 -91.0484)"><line x1="0" x2="0" y1="0" y2="91.0484" /><path class="sym" d="M -3,-3 l 6,6 M -3,3 l 6,-6" /><text class="lab rgt" transform="translate(5 0)">40</text></g><g class="mut m53 s52 extra" transform="translate(0 -88.8026)"><line x1="0" x2="0" y1="0" y2="88.8026" /><path class="sym" d="M -3,-3 l 6,6 M -3,3 l 6,-6" /><text class="lab rgt" transform="translate(5 0)">53</text></g><g class="mut m30 s29 extra" transform="translate(0 -81.5107)"><line x1="0" x2="0" y1="0" y2="81.5107" /><path class="sym" d="M -3,-3 l 6,6 M -3,3 l 6,-6" /><text class="lab rgt" transform="translate(5 0)">30</text></g><g class="mut m22 s21" transform="translate(0 -40.2849)"><line x1="0" x2="0" y1="0" y2="40.2849" /><path class="sym" d="M -3,-3 l 6,6 M -3,3 l 6,-6" /><text class="lab rgt" transform="translate(5 0)">22</text></g><g class="mut m84 s83 extra" transform="translate(0 -35.5849)"><line x1="0" x2="0" y1="0" y2="35.5849" /><path class="sym" d="M -3,-3 l 6,6 M -3,3 l 6,-6" /><text class="lab rgt" transform="translate(5 0)">84</text></g><g class="mut m44 s43 extra" transform="translate(0 -19.4568)"><line x1="0" x2="0" y1="0" y2="19.4568" /><path class="sym" d="M -3,-3 l 6,6 M -3,3 l 6,-6" /><text class="lab rgt" transform="translate(5 0)">44</text></g><circle class="sym" cx="0" cy="0" r="3" /><text class="lab rgt" transform="translate(3 -7.0)">10</text></g><g class="a16 c2 m20 m73 m83 node n15 p3 s19 s72 s82" transform="translate(-23.75 25.4962)"><g class="a15 i2 leaf m25 m32 m34 m48 m51 m52 m63 node n5 p1 s24 s31 s33 s47 s50 s51 s62 sample" transform="translate(17.5 172.084)"><path class="edge" d="M 0 0 V -172.084 H -17.5" /><g class="mut m63 s62 extra" transform="translate(0 -122.564)"><line x1="0" x2="0" y1="0" y2="122.564" /><path class="sym" d="M -3,-3 l 6,6 M -3,3 l 6,-6" /><text class="lab rgt" transform="translate(5 0)">63</text></g><g class="mut m25 s24 extra" transform="translate(0 -90.7617)"><line x1="0" x2="0" y1="0" y2="90.7617" /><path class="sym" d="M -3,-3 l 6,6 M -3,3 l 6,-6" /><text class="lab rgt" transform="translate(5 0)">25</text></g><g class="mut m52 s51 extra" transform="translate(0 -48.6147)"><line x1="0" x2="0" y1="0" y2="48.6147" /><path class="sym" d="M -3,-3 l 6,6 M -3,3 l 6,-6" /><text class="lab rgt" transform="translate(5 0)">52</text></g><g class="mut m34 s33 extra" transform="translate(0 -41.3483)"><line x1="0" x2="0" y1="0" y2="41.3483" /><path class="sym" d="M -3,-3 l 6,6 M -3,3 l 6,-6" /><text class="lab rgt" transform="translate(5 0)">34</text></g><g class="mut m32 s31 extra" transform="translate(0 -38.3061)"><line x1="0" x2="0" y1="0" y2="38.3061" /><path class="sym" d="M -3,-3 l 6,6 M -3,3 l 6,-6" /><text class="lab rgt" transform="translate(5 0)">32</text></g><g class="mut m48 s47 extra" transform="translate(0 -23.4469)"><line x1="0" x2="0" y1="0" y2="23.4469" /><path class="sym" d="M -3,-3 l 6,6 M -3,3 l 6,-6" /><text class="lab rgt" transform="translate(5 0)">48</text></g><g class="mut m51 s50 extra" transform="translate(0 -19.9357)"><line x1="0" x2="0" y1="0" y2="19.9357" /><path class="sym" d="M -3,-3 l 6,6 M -3,3 l 6,-6" /><text class="lab rgt" transform="translate(5 0)">51</text></g><rect class="sym" height="6" width="6" x="-3" y="-3" /><text class="lab" transform="translate(0 11)">5</text></g><g class="a15 c2 m11 m19 m47 node n9 p3 s11 s18 s46" transform="translate(-17.5 98.0341)"><g class="a9 i2 leaf m13 m75 node n4 p1 s13 s74 sample" transform="translate(15 74.0496)"><path class="edge" d="M 0 0 V -74.0496 H -15" /><g class="mut m13 s13 extra" transform="translate(0 -18.6936)"><line x1="0" x2="0" y1="0" y2="18.6936" /><path class="sym" d="M -3,-3 l 6,6 M -3,3 l 6,-6" /><text class="lab rgt" transform="translate(5 0)">13</text></g><g class="mut m75 s74 extra" transform="translate(0 -9.78495)"><line x1="0" x2="0" y1="0" y2="9.78495" /><path class="sym" d="M -3,-3 l 6,6 M -3,3 l 6,-6" /><text class="lab rgt" transform="translate(5 0)">75</text></g><rect class="sym" height="6" width="6" x="-3" y="-3" /><text class="lab" transform="translate(0 11)">4</text></g><g class="a9 c2 m1 m18 m24 m27 m4 m7 node n8 p0 s1 s17 s23 s26 s4 s7" transform="translate(-15 71.6213)"><g class="a8 i1 leaf node n2 p0 sample" transform="translate(-10 2.42821)"><path class="edge" d="M 0 0 V -2.42821 H 10" /><rect class="sym" height="6" width="6" x="-3" y="-3" /><text class="lab" transform="translate(0 11)">2</text></g><g class="a8 i1 leaf m10 node n3 p0 s10 sample" transform="translate(10 2.42821)"><path class="edge" d="M 0 0 V -2.42821 H -10" /><g class="mut m10 s10 extra" transform="translate(0 -0.0990792)"><line x1="0" x2="0" y1="0" y2="0.0990792" /><path class="sym" d="M -3,-3 l 6,6 M -3,3 l 6,-6" /><text class="lab rgt" transform="translate(5 0)">10</text></g><rect class="sym" height="6" width="6" x="-3" y="-3" /><text class="lab" transform="translate(0 11)">3</text></g><path class="edge" d="M 0 0 V -71.6213 H 15" /><g class="mut m18 s17" transform="translate(0 -63.2258)"><line x1="0" x2="0" y1="0" y2="63.2258" /><path class="sym" d="M -3,-3 l 6,6 M -3,3 l 6,-6" /><text class="lab lft" transform="translate(-5 0)">18</text></g><g class="mut m27 s26 extra" transform="translate(0 -59.3918)"><line x1="0" x2="0" y1="0" y2="59.3918" /><path class="sym" d="M -3,-3 l 6,6 M -3,3 l 6,-6" /><text class="lab lft" transform="translate(-5 0)">27</text></g><g class="mut m24 s23" transform="translate(0 -50.8461)"><line x1="0" x2="0" y1="0" y2="50.8461" /><path class="sym" d="M -3,-3 l 6,6 M -3,3 l 6,-6" /><text class="lab lft" transform="translate(-5 0)">24</text></g><g class="mut m1 s1 extra" transform="translate(0 -25.6298)"><line x1="0" x2="0" y1="0" y2="25.6298" /><path class="sym" d="M -3,-3 l 6,6 M -3,3 l 6,-6" /><text class="lab lft" transform="translate(-5 0)">1</text></g><g class="mut m7 s7 extra" transform="translate(0 -16.5422)"><line x1="0" x2="0" y1="0" y2="16.5422" /><path class="sym" d="M -3,-3 l 6,6 M -3,3 l 6,-6" /><text class="lab lft" transform="translate(-5 0)">7</text></g><g class="mut m4 s4 extra" transform="translate(0 -15.8913)"><line x1="0" x2="0" y1="0" y2="15.8913" /><path class="sym" d="M -3,-3 l 6,6 M -3,3 l 6,-6" /><text class="lab lft" transform="translate(-5 0)">4</text></g><circle class="sym" cx="0" cy="0" r="3" /><text class="lab lft" transform="translate(-3 -7.0)">8</text></g><path class="edge" d="M 0 0 V -98.0341 H 17.5" /><g class="mut m47 s46 extra" transform="translate(0 -95.0466)"><line x1="0" x2="0" y1="0" y2="95.0466" /><path class="sym" d="M -3,-3 l 6,6 M -3,3 l 6,-6" /><text class="lab lft" transform="translate(-5 0)">47</text></g><g class="mut m19 s18" transform="translate(0 -29.9506)"><line x1="0" x2="0" y1="0" y2="29.9506" /><path class="sym" d="M -3,-3 l 6,6 M -3,3 l 6,-6" /><text class="lab lft" transform="translate(-5 0)">19</text></g><g class="mut m11 s11 extra" transform="translate(0 -18.8519)"><line x1="0" x2="0" y1="0" y2="18.8519" /><path class="sym" d="M -3,-3 l 6,6 M -3,3 l 6,-6" /><text class="lab lft" transform="translate(-5 0)">11</text></g><circle class="sym" cx="0" cy="0" r="3" /><text class="lab lft" transform="translate(-3 -7.0)">9</text></g><path class="edge" d="M 0 0 V -25.4962 H 23.75" /><g class="mut m83 s82 extra" transform="translate(0 -24.6277)"><line x1="0" x2="0" y1="0" y2="24.6277" /><path class="sym" d="M -3,-3 l 6,6 M -3,3 l 6,-6" /><text class="lab lft" transform="translate(-5 0)">83</text></g><g class="mut m20 s19" transform="translate(0 -23.8471)"><line x1="0" x2="0" y1="0" y2="23.8471" /><path class="sym" d="M -3,-3 l 6,6 M -3,3 l 6,-6" /><text class="lab lft" transform="translate(-5 0)">20</text></g><g class="mut m73 s72 extra" transform="translate(0 -0.587886)"><line x1="0" x2="0" y1="0" y2="0.587886" /><path class="sym" d="M -3,-3 l 6,6 M -3,3 l 6,-6" /><text class="lab lft" transform="translate(-5 0)">73</text></g><circle class="sym" cx="0" cy="0" r="3" /><text class="lab lft" transform="translate(-3 -7.0)">15</text></g><path class="edge" d="M 0 0 V -43.8202 H -48.125" /><g class="mut m8 s8 extra" transform="translate(0 -24.3902)"><line x1="0" x2="0" y1="0" y2="24.3902" /><path class="sym" d="M -3,-3 l 6,6 M -3,3 l 6,-6" /><text class="lab rgt" transform="translate(5 0)">8</text></g><circle class="sym" cx="0" cy="0" r="3" /><text class="lab rgt" transform="translate(3 -7.0)">16</text></g><g class="a17 c2 node n14 p3" transform="translate(-48.125 93.0534)"><g class="a14 i0 leaf m21 m50 m67 m77 node n0 p0 s20 s49 s66 s76 sample" transform="translate(-10 148.347)"><path class="edge" d="M 0 0 V -148.347 H 10" /><g class="mut m67 s66 extra" transform="translate(0 -79.3729)"><line x1="0" x2="0" y1="0" y2="79.3729" /><path class="sym" d="M -3,-3 l 6,6 M -3,3 l 6,-6" /><text class="lab lft" transform="translate(-5 0)">67</text></g><g class="mut m21 s20" transform="translate(0 -62.0951)"><line x1="0" x2="0" y1="0" y2="62.0951" /><path class="sym" d="M -3,-3 l 6,6 M -3,3 l 6,-6" /><text class="lab lft" transform="translate(-5 0)">21</text></g><g class="mut m77 s76 extra" transform="translate(0 -51.6622)"><line x1="0" x2="0" y1="0" y2="51.6622" /><path class="sym" d="M -3,-3 l 6,6 M -3,3 l 6,-6" /><text class="lab lft" transform="translate(-5 0)">77</text></g><g class="mut m50 s49 extra" transform="translate(0 -47.1918)"><line x1="0" x2="0" y1="0" y2="47.1918" /><path class="sym" d="M -3,-3 l 6,6 M -3,3 l 6,-6" /><text class="lab lft" transform="translate(-5 0)">50</text></g><rect class="sym" height="6" width="6" x="-3" y="-3" /><text class="lab" transform="translate(0 11)">0</text></g><g class="a14 i0 leaf m101 m102 m14 m23 m28 m43 m45 m80 m81 node n1 p0 s100 s101 s14 s22 s27 s42 s44 s79 s80 sample" transform="translate(10 148.347)"><path class="edge" d="M 0 0 V -148.347 H -10" /><g class="mut m45 s44 extra" transform="translate(0 -119.594)"><line x1="0" x2="0" y1="0" y2="119.594" /><path class="sym" d="M -3,-3 l 6,6 M -3,3 l 6,-6" /><text class="lab rgt" transform="translate(5 0)">45</text></g><g class="mut m102 s101 extra" transform="translate(0 -106.271)"><line x1="0" x2="0" y1="0" y2="106.271" /><path class="sym" d="M -3,-3 l 6,6 M -3,3 l 6,-6" /><text class="lab rgt" transform="translate(5 0)">102</text></g><g class="mut m101 s100 extra" transform="translate(0 -71.0316)"><line x1="0" x2="0" y1="0" y2="71.0316" /><path class="sym" d="M -3,-3 l 6,6 M -3,3 l 6,-6" /><text class="lab rgt" transform="translate(5 0)">101</text></g><g class="mut m81 s80 extra" transform="translate(0 -44.6455)"><line x1="0" x2="0" y1="0" y2="44.6455" /><path class="sym" d="M -3,-3 l 6,6 M -3,3 l 6,-6" /><text class="lab rgt" transform="translate(5 0)">81</text></g><g class="mut m14 s14" transform="translate(0 -44.2696)"><line x1="0" x2="0" y1="0" y2="44.2696" /><path class="sym" d="M -3,-3 l 6,6 M -3,3 l 6,-6" /><text class="lab rgt" transform="translate(5 0)">14</text></g><g class="mut m80 s79 extra" transform="translate(0 -25.7419)"><line x1="0" x2="0" y1="0" y2="25.7419" /><path class="sym" d="M -3,-3 l 6,6 M -3,3 l 6,-6" /><text class="lab rgt" transform="translate(5 0)">80</text></g><g class="mut m28 s27 extra" transform="translate(0 -21.2677)"><line x1="0" x2="0" y1="0" y2="21.2677" /><path class="sym" d="M -3,-3 l 6,6 M -3,3 l 6,-6" /><text class="lab rgt" transform="translate(5 0)">28</text></g><g class="mut m43 s42 extra" transform="translate(0 -9.67307)"><line x1="0" x2="0" y1="0" y2="9.67307" /><path class="sym" d="M -3,-3 l 6,6 M -3,3 l 6,-6" /><text class="lab rgt" transform="translate(5 0)">43</text></g><g class="mut m23 s22" transform="translate(0 -7.88598)"><line x1="0" x2="0" y1="0" y2="7.88598" /><path class="sym" d="M -3,-3 l 6,6 M -3,3 l 6,-6" /><text class="lab rgt" transform="translate(5 0)">23</text></g><rect class="sym" height="6" width="6" x="-3" y="-3" /><text class="lab" transform="translate(0 11)">1</text></g><path class="edge" d="M 0 0 V -93.0534 H 48.125" /><circle class="sym" cx="0" cy="0" r="3" /><text class="lab lft" transform="translate(-3 -7.0)">14</text></g><circle class="sym" cx="0" cy="0" r="3" /><text class="lab" transform="translate(0 -11)">17</text></g></g></g></svg>