<svg baseProfile="full" height="200" version="1.1" width="400" xmlns="http://www.w3.org/2000/svg" xmlns:ev="http://www.w3.org/2001/xml-events" xmlns:xlink="http://www.w3.org/1999/xlink"><defs><style type="text/css"><![CDATA[.background path {fill: #808080; fill-opacity: 0}.background path:nth-child(odd) {fill-opacity: .1}.axes {font-size: 14px}.x-axis .tick .lab {font-weight: bold; dominant-baseline: hanging}.axes, .tree {font-size: 14px; text-anchor: middle}.axes line, .edge {stroke: black; fill: none}.axes .ax-skip {stroke-dasharray: 4}.y-axis .grid {stroke: #FAFAFA}.node > .sym {fill: black; stroke: none}.site > .sym {stroke: black}.mut text {fill: red; font-style: italic}.mut.extra text {fill: hotpink}.mut line {fill: none; stroke: none}.mut .sym {fill: none; stroke: red}.mut.extra .sym {stroke: hotpink}.node .mut .sym {stroke-width: 1.5px}.tree text, .tree-sequence text {dominant-baseline: central}.plotbox .lab.lft {text-anchor: end}.plotbox .lab.rgt {text-anchor: start}.leaf .sym {fill: blue} .sample > .sym {fill: green}]]></style></defs><g class="tree-sequence"><g class="axes"><g class="x-axis"><g class="title" transform="translate(218.4 200)"><text class="lab" text-anchor="middle" transform="translate(0 -11)">Genome position</text></g><line class="ax-line" x1="56.8" x2="380" y1="163.2" y2="163.2" /><g class="ticks"><g class="tick" transform="translate(56.8 163.2)"><line x1="0" x2="0" y1="-5" y2="5" /><g transform="translate(0 6)"><text class="lab">0</text></g></g><g class="tick" transform="translate(218.4 163.2)"><line x1="0" x2="0" y1="-5" y2="5" /><g transform="translate(0 6)"><text class="lab">6</text></g></g></g></g><g class="y-axis"><g class="title" transform="translate(0 65.7)"><text class="lab" text-anchor="middle" transform="translate(11) rotate(-90)">Node time</text></g><line class="ax-line" x1="56.8" x2="56.8" y1="121.4" y2="10" /><g class="ticks"><g class="tick" transform="translate(56.8 121.4)"><line class="grid" x1="0" x2="323.2" y1="0" y2="0" /><line x1="0" x2="-5" y1="0" y2="0" /><g transform="translate(-6 0)"><text class="lab" text-anchor="end">0.00</text></g></g><g class="tick" transform="translate(56.8 102.48)"><line class="grid" x1="0" x2="323.2" y1="0" y2="0" /><line x1="0" x2="-5" y1="0" y2="0" /><g transform="translate(-6 0)"><text class="lab" text-anchor="end">0.11</text></g></g><g class="tick" transform="translate(56.8 83.56)"><line class="grid" x1="0" x2="323.2" y1="0" y2="0" /><line x1="0" x2="-5" y1="0" y2="0" /><g transform="translate(-6 0)"><text class="lab" text-anchor="end">1.11</text></g></g><g class="tick" transform="translate(56.8 64.64)"><line class="grid" x1="0" x2="323.2" y1="0" y2="0" /><line x1="0" x2="-5" y1="0" y2="0" /><g transform="translate(-6 0)"><text class="lab" text-anchor="end">5.31</text></g></g><g class="tick" transform="translate(56.8 45.72)"><line class="grid" x1="0" x2="323.2" y1="0" y2="0" /><line x1="0" x2="-5" y1="0" y2="0" /><g transform="translate(-6 0)"><text class="lab" text-anchor="end">6.57</text></g></g><g class="tick" transform="translate(56.8 26.8)"><line class="grid" x1="0" x2="323.2" y1="0" y2="0" /><line x1="0" x2="-5" y1="0" y2="0" /><g transform="translate(-6 0)"><text class="lab" text-anchor="end">9.08</text></g></g></g></g></g><g class="plotbox trees"><g class="tree t-1" transform="translate(56.8 0)"><g class="plotbox"><g class="leaf node n7 p0 root sample" transform="translate(30.1333 64.64)"><rect class="sym" height="6" width="6" x="-3" y="-3" /><text class="lab" transform="translate(0 11)">7</text></g><g class="leaf node n8 p0 root sample" transform="translate(50.4 45.72)"><rect class="sym" height="6" width="6" x="-3" y="-3" /><text class="lab" transform="translate(0 11)">8</text></g><g class="c2 node n9 p0 root" transform="translate(101.067 26.8)"><g class="a9 c2 node n4 p0" transform="translate(-20.2667 75.68)"><g class="a4 leaf node n0 p0" transform="translate(-10.1333 18.92)"><path class="edge" d="M 0 0 V -18.92 H 10.1333" /><circle class="sym" cx="0" cy="0" r="3" /><text class="lab" transform="translate(0 11)">0</text></g><g class="a4 leaf node n1 p0" transform="translate(10.1333 18.92)"><path class="edge" d="M 0 0 V -18.92 H -10.1333" /><circle class="sym" cx="0" cy="0" r="3" /><text class="lab" transform="translate(0 11)">1</text></g><path class="edge" d="M 0 0 V -75.68 H 20.2667" /><circle class="sym" cx="0" cy="0" r="3" /><text class="lab lft" transform="translate(-3 -7.0)">4</text></g><g class="a9 c2 node n5 p0" transform="translate(20.2667 56.76)"><g class="a5 leaf node n2 p0 sample" transform="translate(-10.1333 37.84)"><path class="edge" d="M 0 0 V -37.84 H 10.1333" /><rect class="sym" height="6" width="6" x="-3" y="-3" /><text class="lab" transform="translate(0 11)">2</text></g><g class="a5 leaf node n3 p0 sample" transform="translate(10.1333 37.84)"><path class="edge" d="M 0 0 V -37.84 H -10.1333" /><rect class="sym" height="6" width="6" x="-3" y="-3" /><text class="lab" transform="translate(0 11)">3</text></g><path class="edge" d="M 0 0 V -56.76 H -20.2667" /><circle class="sym" cx="0" cy="0" r="3" /><text class="lab rgt" transform="translate(3 -7.0)">5</text></g><circle class="sym" cx="0" cy="0" r="3" /><text class="lab" transform="translate(0 -11)">9</text></g></g></g><g class="tree t0" transform="translate(218.4 0)"><g class="plotbox"><g class="c2 node n7 p0 root sample" transform="translate(68.64 64.64)"><g class="a7 c2 node n4 p0" transform="translate(-24.32 37.84)"><g class="a4 leaf node n0 p0" transform="translate(-12.16 18.92)"><path class="edge" d="M 0 0 V -18.92 H 12.16" /><circle class="sym" cx="0" cy="0" r="3" /><text class="lab" transform="translate(0 11)">0</text></g><g class="a4 leaf node n1 p0" transform="translate(12.16 18.92)"><path class="edge" d="M 0 0 V -18.92 H -12.16" /><circle class="sym" cx="0" cy="0" r="3" /><text class="lab" transform="translate(0 11)">1</text></g><path class="edge" d="M 0 0 V -37.84 H 24.32" /><circle class="sym" cx="0" cy="0" r="3" /><text class="lab lft" transform="translate(-3 -7.0)">4</text></g><g class="a7 c2 node n5 p0" transform="translate(24.32 18.92)"><g class="a5 leaf node n2 p0 sample" transform="translate(-12.16 37.84)"><path class="edge" d="M 0 0 V -37.84 H 12.16" /><rect class="sym" height="6" width="6" x="-3" y="-3" /><text class="lab" transform="translate(0 11)">2</text></g><g class="a5 leaf node n3 p0 sample" transform="translate(12.16 37.84)"><path class="edge" d="M 0 0 V -37.84 H -12.16" /><rect class="sym" height="6" width="6" x="-3" y="-3" /><text class="lab" transform="translate(0 11)">3</text></g><path class="edge" d="M 0 0 V -18.92 H -24.32" /><circle class="sym" cx="0" cy="0" r="3" /><text class="lab rgt" transform="translate(3 -7.0)">5</text></g><rect class="sym" height="6" width="6" x="-3" y="-3" /><text class="lab" transform="translate(0 -11)">7</text></g><g class="leaf node n8 p0 root sample" transform="translate(129.44 45.72)"><rect class="sym" height="6" width="6" x="-3" y="-3" /><text class="lab" transform="translate(0 11)">8</text></g></g></g></g></g></svg>