<svg baseProfile="full" height="200" id="myUID" version="1.1" width="600" xmlns="http://www.w3.org/2000/svg" xmlns:ev="http://www.w3.org/2001/xml-events" xmlns:xlink="http://www.w3.org/1999/xlink"><defs><style type="text/css"><![CDATA[.background path {fill: #808080; fill-opacity: 0}.background path:nth-child(odd) {fill-opacity: .1}.axes {font-size: 14px}.x-axis .tick .lab {font-weight: bold; dominant-baseline: hanging}.axes, .tree {font-size: 14px; text-anchor: middle}.axes line, .edge {stroke: black; fill: none}.axes .ax-skip {stroke-dasharray: 4}.y-axis .grid {stroke: #FAFAFA}.node > .sym {fill: black; stroke: none}.site > .sym {stroke: black}.mut text {fill: red; font-style: italic}.mut.extra text {fill: hotpink}.mut line {fill: none; stroke: none}.mut .sym {fill: none; stroke: red}.mut.extra .sym {stroke: hotpink}.node .mut .sym {stroke-width: 1.5px}.tree text, .tree-sequence text {dominant-baseline: central}.plotbox .lab.lft {text-anchor: end}.plotbox .lab.rgt {text-anchor: start}#myUID .background * {fill: #00FF00}]]></style></defs><g class="tree-sequence"><g class="background"><path d="M20,0 l186.667,0 l0,138.2 l85.2133,25 l0,5 l-271.88,0 l0,-5 l0,-25 l0,-138.2z" /><path d="M206.667,0 l186.667,0 l0,138.2 l125.123,25 l0,5 l-226.576,0 l0,-5 l-85.213,-25 l0,-138.2z" /><path d="M393.333,0 l186.667,0 l0,138.2 l0,25 l0,5 l-61.544,0 l0,-5 l-125.123,-25 l0,-138.2z" /></g><g class="axes"><g class="x-axis"><g class="title" transform="translate(300 200)"><text class="lab" text-anchor="middle" transform="translate(0 -11)">Genome position</text></g><line class="ax-line" x1="20" x2="580" y1="163.2" y2="163.2" /><g class="ticks"><g class="tick" transform="translate(291.88 163.2)"><line x1="0" x2="0" y1="0" y2="5" /><g transform="translate(0 6)"><text class="lab">9855</text></g></g><g class="tick" transform="translate(518.456 163.2)"><line x1="0" x2="0" y1="0" y2="5" /><g transform="translate(0 6)"><text class="lab">13901</text></g></g></g></g></g><g class="plotbox trees"><g class="tree t0" transform="translate(20 0)"><g class="plotbox"><g class="c2 node n17 p3 root" transform="translate(91.6146 26.8)"><g class="a17 c2 node n13 p3" transform="translate(-42.9687 40.2375)"><g class="a13 i0 leaf node n0 p0 sample" transform="translate(-19.4792 54.3625)"><path class="edge" d="M 0 0 V -54.3625 H 19.4792" /><rect class="sym" height="6" width="6" x="-3" y="-3" /><text class="lab" transform="translate(0 11)">0</text></g><g class="a13 c2 node n12 p3" transform="translate(19.4792 14.0706)"><g class="a12 i0 leaf node n1 p0 sample" transform="translate(-20.625 40.2919)"><path class="edge" d="M 0 0 V -40.2919 H 20.625" /><rect class="sym" height="6" width="6" x="-3" y="-3" /><text class="lab" transform="translate(0 11)">1</text></g><g class="a12 c2 node n9 p3" transform="translate(20.625 11.2733)"><g class="a9 i2 leaf node n4 p1 sample" transform="translate(13.75 29.0186)"><path class="edge" d="M 0 0 V -29.0186 H -13.75" /><rect class="sym" height="6" width="6" x="-3" y="-3" /><text class="lab" transform="translate(0 11)">4</text></g><g class="a9 c2 node n8 p0" transform="translate(-13.75 28.067)"><g class="a8 i1 leaf node n2 p0 sample" transform="translate(-9.16667 0.95157)"><path class="edge" d="M 0 0 V -0.95157 H 9.16667" /><rect class="sym" height="6" width="6" x="-3" y="-3" /><text class="lab" transform="translate(0 11)">2</text></g><g class="a8 i1 leaf node n3 p0 sample" transform="translate(9.16667 0.95157)"><path class="edge" d="M 0 0 V -0.95157 H -9.16667" /><rect class="sym" height="6" width="6" x="-3" y="-3" /><text class="lab" transform="translate(0 11)">3</text></g><path class="edge" d="M 0 0 V -28.067 H 13.75" /><circle class="sym" cx="0" cy="0" r="3" /><text class="lab lft" transform="translate(-3 -7.0)">8</text></g><path class="edge" d="M 0 0 V -11.2733 H -20.625" /><circle class="sym" cx="0" cy="0" r="3" /><text class="lab rgt" transform="translate(3 -7.0)">9</text></g><path class="edge" d="M 0 0 V -14.0706 H -19.4792" /><circle class="sym" cx="0" cy="0" r="3" /><text class="lab rgt" transform="translate(3 -7.0)">12</text></g><path class="edge" d="M 0 0 V -40.2375 H 42.9687" /><circle class="sym" cx="0" cy="0" r="3" /><text class="lab lft" transform="translate(-3 -7.0)">13</text></g><g class="a17 c2 node n16 p3" transform="translate(42.9688 17.1723)"><g class="a16 i2 leaf node n5 p1 sample" transform="translate(-13.75 77.4277)"><path class="edge" d="M 0 0 V -77.4277 H 13.75" /><rect class="sym" height="6" width="6" x="-3" y="-3" /><text class="lab" transform="translate(0 11)">5</text></g><g class="a16 c2 node n10 p3" transform="translate(13.75 47.6807)"><g class="a10 i3 leaf node n6 p2 sample" transform="translate(-9.16667 29.747)"><path class="edge" d="M 0 0 V -29.747 H 9.16667" /><rect class="sym" height="6" width="6" x="-3" y="-3" /><text class="lab" transform="translate(0 11)">6</text></g><g class="a10 i3 leaf node n7 p2 sample" transform="translate(9.16667 29.747)"><path class="edge" d="M 0 0 V -29.747 H -9.16667" /><rect class="sym" height="6" width="6" x="-3" y="-3" /><text class="lab" transform="translate(0 11)">7</text></g><path class="edge" d="M 0 0 V -47.6807 H -13.75" /><circle class="sym" cx="0" cy="0" r="3" /><text class="lab rgt" transform="translate(3 -7.0)">10</text></g><path class="edge" d="M 0 0 V -17.1723 H -42.9688" /><circle class="sym" cx="0" cy="0" r="3" /><text class="lab rgt" transform="translate(3 -7.0)">16</text></g><circle class="sym" cx="0" cy="0" r="3" /><text class="lab" transform="translate(0 -11)">17</text></g></g></g><g class="tree t1" transform="translate(206.667 0)"><g class="plotbox"><g class="c2 node n17 p3 root" transform="translate(82.4479 26.8)"><g class="a17 c2 node n13 p3" transform="translate(-44.1146 40.2375)"><g class="a13 i0 leaf node n0 p0 sample" transform="translate(-9.16667 54.3625)"><path class="edge" d="M 0 0 V -54.3625 H 9.16667" /><rect class="sym" height="6" width="6" x="-3" y="-3" /><text class="lab" transform="translate(0 11)">0</text></g><g class="a13 i0 leaf node n1 p0 sample" transform="translate(9.16667 54.3625)"><path class="edge" d="M 0 0 V -54.3625 H -9.16667" /><rect class="sym" height="6" width="6" x="-3" y="-3" /><text class="lab" transform="translate(0 11)">1</text></g><path class="edge" d="M 0 0 V -40.2375 H 44.1146" /><circle class="sym" cx="0" cy="0" r="3" /><text class="lab lft" transform="translate(-3 -7.0)">13</text></g><g class="a17 c2 node n16 p3" transform="translate(44.1146 17.1723)"><g class="a16 c2 node n10 p3" transform="translate(21.7708 47.6807)"><g class="a10 i3 leaf node n6 p2 sample" transform="translate(-9.16667 29.747)"><path class="edge" d="M 0 0 V -29.747 H 9.16667" /><rect class="sym" height="6" width="6" x="-3" y="-3" /><text class="lab" transform="translate(0 11)">6</text></g><g class="a10 i3 leaf node n7 p2 sample" transform="translate(9.16667 29.747)"><path class="edge" d="M 0 0 V -29.747 H -9.16667" /><rect class="sym" height="6" width="6" x="-3" y="-3" /><text class="lab" transform="translate(0 11)">7</text></g><path class="edge" d="M 0 0 V -47.6807 H -21.7708" /><circle class="sym" cx="0" cy="0" r="3" /><text class="lab rgt" transform="translate(3 -7.0)">10</text></g><g class="a16 c2 node n15 p3" transform="translate(-21.7708 9.99148)"><g class="a15 i2 leaf node n5 p1 sample" transform="translate(16.0417 67.4362)"><path class="edge" d="M 0 0 V -67.4362 H -16.0417" /><rect class="sym" height="6" width="6" x="-3" y="-3" /><text class="lab" transform="translate(0 11)">5</text></g><g class="a15 c2 node n9 p3" transform="translate(-16.0417 38.4177)"><g class="a9 i2 leaf node n4 p1 sample" transform="translate(13.75 29.0186)"><path class="edge" d="M 0 0 V -29.0186 H -13.75" /><rect class="sym" height="6" width="6" x="-3" y="-3" /><text class="lab" transform="translate(0 11)">4</text></g><g class="a9 c2 node n8 p0" transform="translate(-13.75 28.067)"><g class="a8 i1 leaf node n2 p0 sample" transform="translate(-9.16667 0.95157)"><path class="edge" d="M 0 0 V -0.95157 H 9.16667" /><rect class="sym" height="6" width="6" x="-3" y="-3" /><text class="lab" transform="translate(0 11)">2</text></g><g class="a8 i1 leaf node n3 p0 sample" transform="translate(9.16667 0.95157)"><path class="edge" d="M 0 0 V -0.95157 H -9.16667" /><rect class="sym" height="6" width="6" x="-3" y="-3" /><text class="lab" transform="translate(0 11)">3</text></g><path class="edge" d="M 0 0 V -28.067 H 13.75" /><circle class="sym" cx="0" cy="0" r="3" /><text class="lab lft" transform="translate(-3 -7.0)">8</text></g><path class="edge" d="M 0 0 V -38.4177 H 16.0417" /><circle class="sym" cx="0" cy="0" r="3" /><text class="lab lft" transform="translate(-3 -7.0)">9</text></g><path class="edge" d="M 0 0 V -9.99148 H 21.7708" /><circle class="sym" cx="0" cy="0" r="3" /><text class="lab lft" transform="translate(-3 -7.0)">15</text></g><path class="edge" d="M 0 0 V -17.1723 H -44.1146" /><circle class="sym" cx="0" cy="0" r="3" /><text class="lab rgt" transform="translate(3 -7.0)">16</text></g><circle class="sym" cx="0" cy="0" r="3" /><text class="lab" transform="translate(0 -11)">17</text></g></g></g><g class="tree t2" transform="translate(393.333 0)"><g class="plotbox"><g class="c2 node n17 p3 root" transform="translate(82.4479 26.8)"><g class="a17 c2 node n16 p3" transform="translate(44.1146 17.1723)"><g class="a16 c2 node n10 p3" transform="translate(21.7708 47.6807)"><g class="a10 i3 leaf node n6 p2 sample" transform="translate(-9.16667 29.747)"><path class="edge" d="M 0 0 V -29.747 H 9.16667" /><rect class="sym" height="6" width="6" x="-3" y="-3" /><text class="lab" transform="translate(0 11)">6</text></g><g class="a10 i3 leaf node n7 p2 sample" transform="translate(9.16667 29.747)"><path class="edge" d="M 0 0 V -29.747 H -9.16667" /><rect class="sym" height="6" width="6" x="-3" y="-3" /><text class="lab" transform="translate(0 11)">7</text></g><path class="edge" d="M 0 0 V -47.6807 H -21.7708" /><circle class="sym" cx="0" cy="0" r="3" /><text class="lab rgt" transform="translate(3 -7.0)">10</text></g><g class="a16 c2 node n15 p3" transform="translate(-21.7708 9.99148)"><g class="a15 i2 leaf node n5 p1 sample" transform="translate(16.0417 67.4362)"><path class="edge" d="M 0 0 V -67.4362 H -16.0417" /><rect class="sym" height="6" width="6" x="-3" y="-3" /><text class="lab" transform="translate(0 11)">5</text></g><g class="a15 c2 node n9 p3" transform="translate(-16.0417 38.4177)"><g class="a9 i2 leaf node n4 p1 sample" transform="translate(13.75 29.0186)"><path class="edge" d="M 0 0 V -29.0186 H -13.75" /><rect class="sym" height="6" width="6" x="-3" y="-3" /><text class="lab" transform="translate(0 11)">4</text></g><g class="a9 c2 node n8 p0" transform="translate(-13.75 28.067)"><g class="a8 i1 leaf node n2 p0 sample" transform="translate(-9.16667 0.95157)"><path class="edge" d="M 0 0 V -0.95157 H 9.16667" /><rect class="sym" height="6" width="6" x="-3" y="-3" /><text class="lab" transform="translate(0 11)">2</text></g><g class="a8 i1 leaf node n3 p0 sample" transform="translate(9.16667 0.95157)"><path class="edge" d="M 0 0 V -0.95157 H -9.16667" /><rect class="sym" height="6" width="6" x="-3" y="-3" /><text class="lab" transform="translate(0 11)">3</text></g><path class="edge" d="M 0 0 V -28.067 H 13.75" /><circle class="sym" cx="0" cy="0" r="3" /><text class="lab lft" transform="translate(-3 -7.0)">8</text></g><path class="edge" d="M 0 0 V -38.4177 H 16.0417" /><circle class="sym" cx="0" cy="0" r="3" /><text class="lab lft" transform="translate(-3 -7.0)">9</text></g><path class="edge" d="M 0 0 V -9.99148 H 21.7708" /><circle class="sym" cx="0" cy="0" r="3" /><text class="lab lft" transform="translate(-3 -7.0)">15</text></g><path class="edge" d="M 0 0 V -17.1723 H -44.1146" /><circle class="sym" cx="0" cy="0" r="3" /><text class="lab rgt" transform="translate(3 -7.0)">16</text></g><g class="a17 c2 node n14 p3" transform="translate(-44.1146 36.4658)"><g class="a14 i0 leaf node n0 p0 sample" transform="translate(-9.16667 58.1342)"><path class="edge" d="M 0 0 V -58.1342 H 9.16667" /><rect class="sym" height="6" width="6" x="-3" y="-3" /><text class="lab" transform="translate(0 11)">0</text></g><g class="a14 i0 leaf node n1 p0 sample" transform="translate(9.16667 58.1342)"><path class="edge" d="M 0 0 V -58.1342 H -9.16667" /><rect class="sym" height="6" width="6" x="-3" y="-3" /><text class="lab" transform="translate(0 11)">1</text></g><path class="edge" d="M 0 0 V -36.4658 H 44.1146" /><circle class="sym" cx="0" cy="0" r="3" /><text class="lab lft" transform="translate(-3 -7.0)">14</text></g><circle class="sym" cx="0" cy="0" r="3" /><text class="lab" transform="translate(0 -11)">17</text></g></g></g></g></g></svg>