<svg baseProfile="full" height="250" version="1.1" width="800" xmlns="http://www.w3.org/2000/svg" xmlns:ev="http://www.w3.org/2001/xml-events" xmlns:xlink="http://www.w3.org/1999/xlink"><defs><style type="text/css"><![CDATA[.background path {fill: #808080; fill-opacity: 0}.background path:nth-child(odd) {fill-opacity: .1}.axes {font-size: 14px}.x-axis .tick .lab {font-weight: bold; dominant-baseline: hanging}.axes, .tree {font-size: 14px; text-anchor: middle}.axes line, .edge {stroke: black; fill: none}.axes .ax-skip {stroke-dasharray: 4}.y-axis .grid {stroke: #FAFAFA}.node > .sym {fill: black; stroke: none}.site > .sym {stroke: black}.mut text {fill: red; font-style: italic}.mut.extra text {fill: hotpink}.mut line {fill: none; stroke: none}.mut .sym {fill: none; stroke: red}.mut.extra .sym {stroke: hotpink}.node .mut .sym {stroke-width: 1.5px}.tree text, .tree-sequence text {dominant-baseline: central}.plotbox .lab.lft {text-anchor: end}.plotbox .lab.rgt {text-anchor: start}]]></style></defs><g class="tree-sequence"><g class="background"><path d="M56.8,0 l90.4,0 l0,188.2 l52.1427,25 l0,5 l-142.543,0 l0,-5 l0,-25 l0,-188.2z" /><path d="M147.2,0 l90.4,0 l0,188.2 l20.2641,25 l0,5 l-58.5213,0 l0,-5 l-52.143,-25 l0,-188.2z" /><path d="M237.6,0 l90.4,0 l0,188.2 l36.6662,25 l0,5 l-106.802,0 l0,-5 l-20.264,-25 l0,-188.2z" /><path d="M328,0 l90.4,0 l0,188.2 l-22.7953,25 l0,5 l-30.9385,0 l0,-5 l-36.666,-25 l0,-188.2z" /><path d="M418.4,0 l90.4,0 l0,188.2 l-87.3192,25 l0,5 l-25.8761,0 l0,-5 l22.795,-25 l0,-188.2z" /><path d="M508.8,0 l90.4,0 l0,188.2 l-101.783,25 l0,5 l-75.936,0 l0,-5 l87.319,-25 l0,-188.2z" /><path d="M599.2,0 l90.4,0 l0,188.2 l35.972,25 l0,5 l-228.155,0 l0,-5 l101.783,-25 l0,-188.2z" /><path d="M689.6,0 l90.4,0 l0,188.2 l0,25 l0,5 l-54.428,0 l0,-5 l-35.972,-25 l0,-188.2z" /></g><g class="axes"><g class="x-axis"><g class="title" transform="translate(418.4 250)"><text class="lab" text-anchor="middle" transform="translate(0 -11)">Genome position</text></g><line class="ax-line" x1="56.8" x2="780" y1="213.2" y2="213.2" /><g class="ticks"><g class="tick" transform="translate(56.8 213.2)"><line x1="0" x2="0" y1="0" y2="5" /><g transform="translate(0 6)"><text class="lab">0</text></g></g><g class="tick" transform="translate(199.343 213.2)"><line x1="0" x2="0" y1="0" y2="5" /><g transform="translate(0 6)"><text class="lab">9855</text></g></g><g class="tick" transform="translate(257.864 213.2)"><line x1="0" x2="0" y1="0" y2="5" /><g transform="translate(0 6)"><text class="lab">13901</text></g></g><g class="tick" transform="translate(364.666 213.2)"><line x1="0" x2="0" y1="0" y2="5" /><g transform="translate(0 6)"><text class="lab">21285</text></g></g><g class="tick" transform="translate(395.605 213.2)"><line x1="0" x2="0" y1="0" y2="5" /><g transform="translate(0 6)"><text class="lab">23424</text></g></g><g class="tick" transform="translate(421.481 213.2)"><line x1="0" x2="0" y1="0" y2="5" /><g transform="translate(0 6)"><text class="lab">25213</text></g></g><g class="tick" transform="translate(497.417 213.2)"><line x1="0" x2="0" y1="0" y2="5" /><g transform="translate(0 6)"><text class="lab">30463</text></g></g><g class="tick" transform="translate(725.572 213.2)"><line x1="0" x2="0" y1="0" y2="5" /><g transform="translate(0 6)"><text class="lab">46237</text></g></g><g class="tick" transform="translate(780 213.2)"><line x1="0" x2="0" y1="0" y2="5" /><g transform="translate(0 6)"><text class="lab">50000</text></g></g></g></g><g class="y-axis"><g class="title" transform="translate(0 90.7)"><text class="lab" text-anchor="middle" transform="translate(11) rotate(-90)">Time (generations)</text></g><line class="ax-line" x1="56.8" x2="56.8" y1="171.4" y2="10" /><g class="ticks"><g class="tick" transform="translate(56.8 171.4)"><line x1="0" x2="-5" y1="0" y2="0" /><g transform="translate(-6 0)"><text class="lab" text-anchor="end">0.00</text></g></g><g class="tick" transform="translate(56.8 170.97)"><line x1="0" x2="-5" y1="0" y2="0" /><g transform="translate(-6 0)"><text class="lab" text-anchor="end">33.99</text></g></g><g class="tick" transform="translate(56.8 153.191)"><line x1="0" x2="-5" y1="0" y2="0" /><g transform="translate(-6 0)"><text class="lab" text-anchor="end">1439.14</text></g></g><g class="tick" transform="translate(56.8 146.832)"><line x1="0" x2="-5" y1="0" y2="0" /><g transform="translate(-6 0)"><text class="lab" text-anchor="end">1941.72</text></g></g><g class="tick" transform="translate(56.8 145.128)"><line x1="0" x2="-5" y1="0" y2="0" /><g transform="translate(-6 0)"><text class="lab" text-anchor="end">2076.43</text></g></g><g class="tick" transform="translate(56.8 128.648)"><line x1="0" x2="-5" y1="0" y2="0" /><g transform="translate(-6 0)"><text class="lab" text-anchor="end">3378.92</text></g></g><g class="tick" transform="translate(56.8 122.143)"><line x1="0" x2="-5" y1="0" y2="0" /><g transform="translate(-6 0)"><text class="lab" text-anchor="end">3893.05</text></g></g><g class="tick" transform="translate(56.8 92.8979)"><line x1="0" x2="-5" y1="0" y2="0" /><g transform="translate(-6 0)"><text class="lab" text-anchor="end">6204.42</text></g></g><g class="tick" transform="translate(56.8 47.9905)"><line x1="0" x2="-5" y1="0" y2="0" /><g transform="translate(-6 0)"><text class="lab" text-anchor="end">9753.69</text></g></g><g class="tick" transform="translate(56.8 30.3901)"><line x1="0" x2="-5" y1="0" y2="0" /><g transform="translate(-6 0)"><text class="lab" text-anchor="end">11144.74</text></g></g><g class="tick" transform="translate(56.8 26.8)"><line x1="0" x2="-5" y1="0" y2="0" /><g transform="translate(-6 0)"><text class="lab" text-anchor="end">11428.48</text></g></g></g></g></g><g class="plotbox trees"><g class="tree t0" transform="translate(56.8 0)"><g class="plotbox"><g class="c2 node n6 p1 root" transform="translate(37.325 146.832)"><g class="a6 i0 leaf node n0 p0 sample" transform="translate(-11.025 24.5678)"><path class="edge" d="M 0 0 V -24.5678 H 11.025" /><rect class="sym" height="6" width="6" x="-3" y="-3" /><text class="lab" transform="translate(0 11)">0</text></g><g class="a6 c2 node n5 p1" transform="translate(11.025 6.35886)"><g class="a5 i0 leaf node n1 p0 sample" transform="translate(-9.45 18.2089)"><path class="edge" d="M 0 0 V -18.2089 H 9.45" /><rect class="sym" height="6" width="6" x="-3" y="-3" /><text class="lab" transform="translate(0 11)">1</text></g><g class="a5 c2 node n4 p0" transform="translate(9.45 17.7789)"><g class="a4 i1 leaf node n2 p0 sample" transform="translate(-6.3 0.430039)"><path class="edge" d="M 0 0 V -0.430039 H 6.3" /><rect class="sym" height="6" width="6" x="-3" y="-3" /><text class="lab" transform="translate(0 11)">2</text></g><g class="a4 i1 leaf node n3 p0 sample" transform="translate(6.3 0.430039)"><path class="edge" d="M 0 0 V -0.430039 H -6.3" /><rect class="sym" height="6" width="6" x="-3" y="-3" /><text class="lab" transform="translate(0 11)">3</text></g><path class="edge" d="M 0 0 V -17.7789 H -9.45" /><circle class="sym" cx="0" cy="0" r="3" /><text class="lab rgt" transform="translate(3 -7.0)">4</text></g><path class="edge" d="M 0 0 V -6.35886 H -11.025" /><circle class="sym" cx="0" cy="0" r="3" /><text class="lab rgt" transform="translate(3 -7.0)">5</text></g><circle class="sym" cx="0" cy="0" r="3" /><text class="lab" transform="translate(0 -11)">6</text></g></g></g><g class="tree t1" transform="translate(147.2 0)"><g class="plotbox"><g class="c2 node n8 p1 root" transform="translate(45.2 128.648)"><g class="a8 c2 node n4 p0" transform="translate(12.6 42.3221)"><g class="a4 i1 leaf node n2 p0 sample" transform="translate(-6.3 0.430039)"><path class="edge" d="M 0 0 V -0.430039 H 6.3" /><rect class="sym" height="6" width="6" x="-3" y="-3" /><text class="lab" transform="translate(0 11)">2</text></g><g class="a4 i1 leaf node n3 p0 sample" transform="translate(6.3 0.430039)"><path class="edge" d="M 0 0 V -0.430039 H -6.3" /><rect class="sym" height="6" width="6" x="-3" y="-3" /><text class="lab" transform="translate(0 11)">3</text></g><path class="edge" d="M 0 0 V -42.3221 H -12.6" /><circle class="sym" cx="0" cy="0" r="3" /><text class="lab rgt" transform="translate(3 -7.0)">4</text></g><g class="a8 c2 node n6 p1" transform="translate(-12.6 18.1844)"><g class="a6 i0 leaf node n0 p0 sample" transform="translate(-6.3 24.5678)"><path class="edge" d="M 0 0 V -24.5678 H 6.3" /><rect class="sym" height="6" width="6" x="-3" y="-3" /><text class="lab" transform="translate(0 11)">0</text></g><g class="a6 i0 leaf node n1 p0 sample" transform="translate(6.3 24.5678)"><path class="edge" d="M 0 0 V -24.5678 H -6.3" /><rect class="sym" height="6" width="6" x="-3" y="-3" /><text class="lab" transform="translate(0 11)">1</text></g><path class="edge" d="M 0 0 V -18.1844 H 12.6" /><circle class="sym" cx="0" cy="0" r="3" /><text class="lab lft" transform="translate(-3 -7.0)">6</text></g><circle class="sym" cx="0" cy="0" r="3" /><text class="lab" transform="translate(0 -11)">8</text></g></g></g><g class="tree t2" transform="translate(237.6 0)"><g class="plotbox"><g class="c2 node n8 p1 root" transform="translate(45.2 128.648)"><g class="a8 c2 node n4 p0" transform="translate(12.6 42.3221)"><g class="a4 i1 leaf node n2 p0 sample" transform="translate(-6.3 0.430039)"><path class="edge" d="M 0 0 V -0.430039 H 6.3" /><rect class="sym" height="6" width="6" x="-3" y="-3" /><text class="lab" transform="translate(0 11)">2</text></g><g class="a4 i1 leaf node n3 p0 sample" transform="translate(6.3 0.430039)"><path class="edge" d="M 0 0 V -0.430039 H -6.3" /><rect class="sym" height="6" width="6" x="-3" y="-3" /><text class="lab" transform="translate(0 11)">3</text></g><path class="edge" d="M 0 0 V -42.3221 H -12.6" /><circle class="sym" cx="0" cy="0" r="3" /><text class="lab rgt" transform="translate(3 -7.0)">4</text></g><g class="a8 c2 node n7 p1" transform="translate(-12.6 16.4798)"><g class="a7 i0 leaf node n0 p0 sample" transform="translate(-6.3 26.2723)"><path class="edge" d="M 0 0 V -26.2723 H 6.3" /><rect class="sym" height="6" width="6" x="-3" y="-3" /><text class="lab" transform="translate(0 11)">0</text></g><g class="a7 i0 leaf node n1 p0 sample" transform="translate(6.3 26.2723)"><path class="edge" d="M 0 0 V -26.2723 H -6.3" /><rect class="sym" height="6" width="6" x="-3" y="-3" /><text class="lab" transform="translate(0 11)">1</text></g><path class="edge" d="M 0 0 V -16.4798 H 12.6" /><circle class="sym" cx="0" cy="0" r="3" /><text class="lab lft" transform="translate(-3 -7.0)">7</text></g><circle class="sym" cx="0" cy="0" r="3" /><text class="lab" transform="translate(0 -11)">8</text></g></g></g><g class="tree t3" transform="translate(328 0)"><g class="plotbox"><g class="c2 node n10 p1 root" transform="translate(45.2 92.8979)"><g class="a10 c2 node n4 p0" transform="translate(12.6 78.072)"><g class="a4 i1 leaf node n2 p0 sample" transform="translate(-6.3 0.430039)"><path class="edge" d="M 0 0 V -0.430039 H 6.3" /><rect class="sym" height="6" width="6" x="-3" y="-3" /><text class="lab" transform="translate(0 11)">2</text></g><g class="a4 i1 leaf node n3 p0 sample" transform="translate(6.3 0.430039)"><path class="edge" d="M 0 0 V -0.430039 H -6.3" /><rect class="sym" height="6" width="6" x="-3" y="-3" /><text class="lab" transform="translate(0 11)">3</text></g><path class="edge" d="M 0 0 V -78.072 H -12.6" /><circle class="sym" cx="0" cy="0" r="3" /><text class="lab rgt" transform="translate(3 -7.0)">4</text></g><g class="a10 c2 node n7 p1" transform="translate(-12.6 52.2298)"><g class="a7 i0 leaf node n0 p0 sample" transform="translate(-6.3 26.2723)"><path class="edge" d="M 0 0 V -26.2723 H 6.3" /><rect class="sym" height="6" width="6" x="-3" y="-3" /><text class="lab" transform="translate(0 11)">0</text></g><g class="a7 i0 leaf node n1 p0 sample" transform="translate(6.3 26.2723)"><path class="edge" d="M 0 0 V -26.2723 H -6.3" /><rect class="sym" height="6" width="6" x="-3" y="-3" /><text class="lab" transform="translate(0 11)">1</text></g><path class="edge" d="M 0 0 V -52.2298 H 12.6" /><circle class="sym" cx="0" cy="0" r="3" /><text class="lab lft" transform="translate(-3 -7.0)">7</text></g><circle class="sym" cx="0" cy="0" r="3" /><text class="lab" transform="translate(0 -11)">10</text></g></g></g><g class="tree t4" transform="translate(418.4 0)"><g class="plotbox"><g class="c2 node n13 p1 root" transform="translate(45.2 26.8)"><g class="a13 c2 node n4 p0" transform="translate(12.6 144.17)"><g class="a4 i1 leaf node n2 p0 sample" transform="translate(-6.3 0.430039)"><path class="edge" d="M 0 0 V -0.430039 H 6.3" /><rect class="sym" height="6" width="6" x="-3" y="-3" /><text class="lab" transform="translate(0 11)">2</text></g><g class="a4 i1 leaf node n3 p0 sample" transform="translate(6.3 0.430039)"><path class="edge" d="M 0 0 V -0.430039 H -6.3" /><rect class="sym" height="6" width="6" x="-3" y="-3" /><text class="lab" transform="translate(0 11)">3</text></g><path class="edge" d="M 0 0 V -144.17 H -12.6" /><circle class="sym" cx="0" cy="0" r="3" /><text class="lab rgt" transform="translate(3 -7.0)">4</text></g><g class="a13 c2 node n7 p1" transform="translate(-12.6 118.328)"><g class="a7 i0 leaf node n0 p0 sample" transform="translate(-6.3 26.2723)"><path class="edge" d="M 0 0 V -26.2723 H 6.3" /><rect class="sym" height="6" width="6" x="-3" y="-3" /><text class="lab" transform="translate(0 11)">0</text></g><g class="a7 i0 leaf node n1 p0 sample" transform="translate(6.3 26.2723)"><path class="edge" d="M 0 0 V -26.2723 H -6.3" /><rect class="sym" height="6" width="6" x="-3" y="-3" /><text class="lab" transform="translate(0 11)">1</text></g><path class="edge" d="M 0 0 V -118.328 H 12.6" /><circle class="sym" cx="0" cy="0" r="3" /><text class="lab lft" transform="translate(-3 -7.0)">7</text></g><circle class="sym" cx="0" cy="0" r="3" /><text class="lab" transform="translate(0 -11)">13</text></g></g></g><g class="tree t5" transform="translate(508.8 0)"><g class="plotbox"><g class="c2 node n12 p1 root" transform="translate(45.2 30.3901)"><g class="a12 c2 node n4 p0" transform="translate(12.6 140.58)"><g class="a4 i1 leaf node n2 p0 sample" transform="translate(-6.3 0.430039)"><path class="edge" d="M 0 0 V -0.430039 H 6.3" /><rect class="sym" height="6" width="6" x="-3" y="-3" /><text class="lab" transform="translate(0 11)">2</text></g><g class="a4 i1 leaf node n3 p0 sample" transform="translate(6.3 0.430039)"><path class="edge" d="M 0 0 V -0.430039 H -6.3" /><rect class="sym" height="6" width="6" x="-3" y="-3" /><text class="lab" transform="translate(0 11)">3</text></g><path class="edge" d="M 0 0 V -140.58 H -12.6" /><circle class="sym" cx="0" cy="0" r="3" /><text class="lab rgt" transform="translate(3 -7.0)">4</text></g><g class="a12 c2 node n7 p1" transform="translate(-12.6 114.738)"><g class="a7 i0 leaf node n0 p0 sample" transform="translate(-6.3 26.2723)"><path class="edge" d="M 0 0 V -26.2723 H 6.3" /><rect class="sym" height="6" width="6" x="-3" y="-3" /><text class="lab" transform="translate(0 11)">0</text></g><g class="a7 i0 leaf node n1 p0 sample" transform="translate(6.3 26.2723)"><path class="edge" d="M 0 0 V -26.2723 H -6.3" /><rect class="sym" height="6" width="6" x="-3" y="-3" /><text class="lab" transform="translate(0 11)">1</text></g><path class="edge" d="M 0 0 V -114.738 H 12.6" /><circle class="sym" cx="0" cy="0" r="3" /><text class="lab lft" transform="translate(-3 -7.0)">7</text></g><circle class="sym" cx="0" cy="0" r="3" /><text class="lab" transform="translate(0 -11)">12</text></g></g></g><g class="tree t6" transform="translate(599.2 0)"><g class="plotbox"><g class="c2 node n11 p1 root" transform="translate(45.2 47.9905)"><g class="a11 c2 node n4 p0" transform="translate(12.6 122.98)"><g class="a4 i1 leaf node n2 p0 sample" transform="translate(-6.3 0.430039)"><path class="edge" d="M 0 0 V -0.430039 H 6.3" /><rect class="sym" height="6" width="6" x="-3" y="-3" /><text class="lab" transform="translate(0 11)">2</text></g><g class="a4 i1 leaf node n3 p0 sample" transform="translate(6.3 0.430039)"><path class="edge" d="M 0 0 V -0.430039 H -6.3" /><rect class="sym" height="6" width="6" x="-3" y="-3" /><text class="lab" transform="translate(0 11)">3</text></g><path class="edge" d="M 0 0 V -122.98 H -12.6" /><circle class="sym" cx="0" cy="0" r="3" /><text class="lab rgt" transform="translate(3 -7.0)">4</text></g><g class="a11 c2 node n7 p1" transform="translate(-12.6 97.1372)"><g class="a7 i0 leaf node n0 p0 sample" transform="translate(-6.3 26.2723)"><path class="edge" d="M 0 0 V -26.2723 H 6.3" /><rect class="sym" height="6" width="6" x="-3" y="-3" /><text class="lab" transform="translate(0 11)">0</text></g><g class="a7 i0 leaf node n1 p0 sample" transform="translate(6.3 26.2723)"><path class="edge" d="M 0 0 V -26.2723 H -6.3" /><rect class="sym" height="6" width="6" x="-3" y="-3" /><text class="lab" transform="translate(0 11)">1</text></g><path class="edge" d="M 0 0 V -97.1372 H 12.6" /><circle class="sym" cx="0" cy="0" r="3" /><text class="lab lft" transform="translate(-3 -7.0)">7</text></g><circle class="sym" cx="0" cy="0" r="3" /><text class="lab" transform="translate(0 -11)">11</text></g></g></g><g class="tree t7" transform="translate(689.6 0)"><g class="plotbox"><g class="c2 node n9 p1 root" transform="translate(45.2 122.143)"><g class="a9 c2 node n4 p0" transform="translate(12.6 48.8272)"><g class="a4 i1 leaf node n2 p0 sample" transform="translate(-6.3 0.430039)"><path class="edge" d="M 0 0 V -0.430039 H 6.3" /><rect class="sym" height="6" width="6" x="-3" y="-3" /><text class="lab" transform="translate(0 11)">2</text></g><g class="a4 i1 leaf node n3 p0 sample" transform="translate(6.3 0.430039)"><path class="edge" d="M 0 0 V -0.430039 H -6.3" /><rect class="sym" height="6" width="6" x="-3" y="-3" /><text class="lab" transform="translate(0 11)">3</text></g><path class="edge" d="M 0 0 V -48.8272 H -12.6" /><circle class="sym" cx="0" cy="0" r="3" /><text class="lab rgt" transform="translate(3 -7.0)">4</text></g><g class="a9 c2 node n7 p1" transform="translate(-12.6 22.9849)"><g class="a7 i0 leaf node n0 p0 sample" transform="translate(-6.3 26.2723)"><path class="edge" d="M 0 0 V -26.2723 H 6.3" /><rect class="sym" height="6" width="6" x="-3" y="-3" /><text class="lab" transform="translate(0 11)">0</text></g><g class="a7 i0 leaf node n1 p0 sample" transform="translate(6.3 26.2723)"><path class="edge" d="M 0 0 V -26.2723 H -6.3" /><rect class="sym" height="6" width="6" x="-3" y="-3" /><text class="lab" transform="translate(0 11)">1</text></g><path class="edge" d="M 0 0 V -22.9849 H 12.6" /><circle class="sym" cx="0" cy="0" r="3" /><text class="lab lft" transform="translate(-3 -7.0)">7</text></g><circle class="sym" cx="0" cy="0" r="3" /><text class="lab" transform="translate(0 -11)">9</text></g></g></g></g></g></svg>