<svg xmlns="http://www.w3.org/2000/svg" xmlns:ev="http://www.w3.org/2001/xml-events" xmlns:xlink="http://www.w3.org/1999/xlink" baseProfile="full" height="250" id="svg2" version="1.1" width="800"><defs><style type="text/css"><![CDATA[.background path {fill: #808080; fill-opacity:0}.background path:nth-child(odd) {fill-opacity:.1}.axes {font-size: 14px}.x-axis .tick .lab {font-weight: bold}.axes, .tree {font-size: 14px; text-anchor:middle}.y-axis line.grid {stroke: #FAFAFA}.y-axis > .lab text {transform: translateX(0.8em) rotate(-90deg)}.x-axis .tick g {transform: translateY(0.9em)}.x-axis > .lab text {transform: translateY(-0.8em)}.axes line, .edge {stroke:black; fill:none}.node > .sym {fill: black; stroke: none}.site > .sym {stroke: black}.mut text {fill: red; font-style: italic}.mut.extra text {fill: hotpink}.mut line {fill: none; stroke: none}.mut .sym {fill: none; stroke: red}.mut.extra .sym {stroke: hotpink}.node .mut .sym {stroke-width: 1.5px}.tree text, .tree-sequence text {dominant-baseline: central}.plotbox .lab.lft {text-anchor: end}.plotbox .lab.rgt {text-anchor: start}.y-axis .tick .lab {font-size: 85%}#svg2 .node > .sym {visibility: visible;}.p1 > .sym {fill: #ff7f0e}.p1 > .sym {fill: #ff7f0e}.p1 > .sym {fill: #ff7f0e}.p1 > .sym {fill: #ff7f0e}.p2 > .sym {fill: #2ca02c}.p2 > .sym {fill: #2ca02c}.p2 > .sym {fill: #2ca02c}.p2 > .sym {fill: #2ca02c}.p2 > .sym {fill: #2ca02c}.p2 > .sym {fill: #2ca02c}.p2 > .sym {fill: #2ca02c}.p1 > .sym {fill: #ff7f0e}.p0 > .sym {fill: #1f77b4}.p0 > .sym {fill: #1f77b4}.p0 > .sym {fill: #1f77b4}.p0 > .sym {fill: #1f77b4}.p0 > .sym {fill: #1f77b4}.p0 > .sym {fill: #1f77b4}.p0 > .sym {fill: #1f77b4}.p0 > .sym {fill: #1f77b4}.p0 > .sym {fill: #1f77b4}]]></style></defs><g class="tree-sequence"><g class="background"><path d="M56.8,0 l241.067,0 l0,188.2 l178.389,25 l0,5 l-419.456,0 l0,-5 l0,-25 l0,-188.2z"/><path d="M297.867,0 l241.067,0 l0,188.2 l120.292,25 l0,5 l-182.97,0 l0,-5 l-178.389,-25 l0,-188.2z"/><path d="M538.933,0 l241.067,0 l0,188.2 l0,25 l0,5 l-120.774,0 l0,-5 l-120.292,-25 l0,-188.2z"/></g><g class="axes"><g class="x-axis"><g class="lab" transform="translate(418.4,250)"><text text-anchor="middle">Genome position</text></g><line x1="56.8" x2="780" y1="213.2" y2="213.2"/><g class="tick" transform="translate(56.8 213.2)"><line x1="0" x2="0" y1="0" y2="5"/><g class="lab" transform="translate(0,5)"><text>0</text></g></g><g class="tick" transform="translate(476.256 213.2)"><line x1="0" x2="0" y1="0" y2="5"/><g class="lab" transform="translate(0,5)"><text>580</text></g></g><g class="tick" transform="translate(659.226 213.2)"><line x1="0" x2="0" y1="0" y2="5"/><g class="lab" transform="translate(0,5)"><text>833</text></g></g><g class="tick" transform="translate(780 213.2)"><line x1="0" x2="0" y1="0" y2="5"/><g class="lab" transform="translate(0,5)"><text>1000</text></g></g><g class="site s0" transform="translate(249.894 213.2)"><line class="sym" x1="0" x2="0" y1="0" y2="-10"/><g class="mut m0"><polyline class="sym" points="2.5,-6.5 0,-1.5 -2.5,-6.5"/></g></g><g class="site s1" transform="translate(261.466 213.2)"><line class="sym" x1="0" x2="0" y1="0" y2="-10"/><g class="mut m1"><polyline class="sym" points="2.5,-6.5 0,-1.5 -2.5,-6.5"/></g></g><g class="site s2" transform="translate(274.483 213.2)"><line class="sym" x1="0" x2="0" y1="0" y2="-10"/><g class="mut m2"><polyline class="sym" points="2.5,-6.5 0,-1.5 -2.5,-6.5"/></g></g><g class="site s3" transform="translate(298.349 213.2)"><line class="sym" x1="0" x2="0" y1="0" y2="-10"/><g class="mut m3"><polyline class="sym" points="2.5,-6.5 0,-1.5 -2.5,-6.5"/></g></g><g class="site s4" transform="translate(341.018 213.2)"><line class="sym" x1="0" x2="0" y1="0" y2="-10"/><g class="mut m4"><polyline class="sym" points="2.5,-6.5 0,-1.5 -2.5,-6.5"/></g></g><g class="site s5" transform="translate(529.773 213.2)"><line class="sym" x1="0" x2="0" y1="0" y2="-10"/><g class="mut m5"><polyline class="sym" points="2.5,-6.5 0,-1.5 -2.5,-6.5"/></g></g><g class="site s6" transform="translate(562.317 213.2)"><line class="sym" x1="0" x2="0" y1="0" y2="-10"/><g class="mut m6"><polyline class="sym" points="2.5,-6.5 0,-1.5 -2.5,-6.5"/></g></g><g class="site s7" transform="translate(578.227 213.2)"><line class="sym" x1="0" x2="0" y1="0" y2="-10"/><g class="mut m7"><polyline class="sym" points="2.5,-6.5 0,-1.5 -2.5,-6.5"/></g></g><g class="site s8" transform="translate(641.869 213.2)"><line class="sym" x1="0" x2="0" y1="0" y2="-10"/><g class="mut m8"><polyline class="sym" points="2.5,-6.5 0,-1.5 -2.5,-6.5"/></g></g><g class="site s9" transform="translate(776.384 213.2)"><line class="sym" x1="0" x2="0" y1="0" y2="-10"/><g class="mut m9"><polyline class="sym" points="2.5,-6.5 0,-1.5 -2.5,-6.5"/></g></g></g><g class="y-axis"><g class="lab" transform="translate(0,90.7)"><text text-anchor="middle">Time ago (generations)</text></g><line x1="56.8" x2="56.8" y1="171.4" y2="10"/><g class="tick" transform="translate(56.8 171.4)"><line x1="0" x2="-5" y1="0" y2="0"/><g class="lab" transform="translate(-5,0)"><text text-anchor="end">0.00</text></g></g><g class="tick" transform="translate(56.8 120.617)"><line x1="0" x2="-5" y1="0" y2="0"/><g class="lab" transform="translate(-5,0)"><text text-anchor="end">5000.00</text></g></g><g class="tick" transform="translate(56.8 69.8336)"><line x1="0" x2="-5" y1="0" y2="0"/><g class="lab" transform="translate(-5,0)"><text text-anchor="end">10000.00</text></g></g><g class="tick" transform="translate(56.8 19.0505)"><line x1="0" x2="-5" y1="0" y2="0"/><g class="lab" transform="translate(-5,0)"><text text-anchor="end">15000.00</text></g></g><g class="tick" transform="translate(56.8 -31.7327)"><line x1="0" x2="-5" y1="0" y2="0"/><g class="lab" transform="translate(-5,0)"><text text-anchor="end">20000.00</text></g></g></g></g><g class="plotbox trees"><g class="tree t0" transform="translate(56.8 0)"><g class="plotbox"><g class="node n20 p0 root" transform="translate(136.556 26.8)"><g class="a20 m0 m4 node n17 p0 s0 s4" transform="translate(-59.3775 83.2923)"><g class="a17 i0 leaf node n0 p1 sample" transform="translate(-47.125 61.3077)"><path class="edge" d="M 0 0 V -61.3077 H 47.125"/><rect class="sym" height="6" width="6" x="-3" y="-3"/><text class="lab" transform="translate(0 11)">a</text></g><g class="a17 node n16 p0" transform="translate(47.125 21.8208)"><g class="a16 i4 leaf node n9 p2 sample" transform="translate(26.39 39.4868)"><path class="edge" d="M 0 0 V -39.4868 H -26.39"/><rect class="sym" height="6" width="6" x="-3" y="-3"/><text class="lab" transform="translate(0 11)">g</text></g><g class="a16 node n15 p0" transform="translate(-26.39 5.85307)"><g class="a15 m3 node n10 p2 s3" transform="translate(22.62 30.3954)"><g class="a10 i3 leaf node n7 p2 sample" transform="translate(-10.0533 3.23842)"><path class="edge" d="M 0 0 V -3.23842 H 10.0533"/><rect class="sym" height="6" width="6" x="-3" y="-3"/><text class="lab" transform="translate(0 11)">e</text></g><g class="a10 i4 leaf node n8 p2 sample" transform="translate(10.0533 3.23842)"><path class="edge" d="M 0 0 V -3.23842 H -10.0533"/><rect class="sym" height="6" width="6" x="-3" y="-3"/><text class="lab" transform="translate(0 11)">f</text></g><path class="edge" d="M 0 0 V -30.3954 H -22.62"/><g class="mut m3 s3" transform="translate(0 -12.8542)"><line x1="0" x2="0" y1="0" y2="12.8542"/><path class="sym" d="M -3,-3 l 6,6 M -3,3 l 6,-6"/><text class="lab rgt" transform="translate(5 0)"/></g><circle class="sym" cx="0" cy="0" r="3"/><text class="lab rgt" transform="translate(3 -7.0)">k</text></g><g class="a15 node n12 p0" transform="translate(-22.62 1.82594)"><g class="a12 i2 leaf node n4 p2 sample" transform="translate(15.08 31.8078)"><path class="edge" d="M 0 0 V -31.8078 H -15.08"/><rect class="sym" height="6" width="6" x="-3" y="-3"/><text class="lab" transform="translate(0 11)">d</text></g><g class="a12 node n11 p1" transform="translate(-15.08 24.6436)"><g class="a11 i0 leaf node n1 p1 sample" transform="translate(-10.0533 7.1642)"><path class="edge" d="M 0 0 V -7.1642 H 10.0533"/><rect class="sym" height="6" width="6" x="-3" y="-3"/><text class="lab" transform="translate(0 11)">b</text></g><g class="a11 i1 leaf node n3 p1 sample" transform="translate(10.0533 7.1642)"><path class="edge" d="M 0 0 V -7.1642 H -10.0533"/><rect class="sym" height="6" width="6" x="-3" y="-3"/><text class="lab" transform="translate(0 11)">c</text></g><path class="edge" d="M 0 0 V -24.6436 H 15.08"/><circle class="sym" cx="0" cy="0" r="3"/><text class="lab lft" transform="translate(-3 -7.0)">l</text></g><path class="edge" d="M 0 0 V -1.82594 H 22.62"/><circle class="sym" cx="0" cy="0" r="3"/><text class="lab lft" transform="translate(-3 -7.0)">m</text></g><path class="edge" d="M 0 0 V -5.85307 H 26.39"/><circle class="sym" cx="0" cy="0" r="3"/><text class="lab lft" transform="translate(-3 -7.0)">p</text></g><path class="edge" d="M 0 0 V -21.8208 H -47.125"/><circle class="sym" cx="0" cy="0" r="3"/><text class="lab rgt" transform="translate(3 -7.0)">q</text></g><path class="edge" d="M 0 0 V -83.2923 H 59.3775"/><g class="mut m4 s4" transform="translate(0 -44.6946)"><line x1="0" x2="0" y1="0" y2="44.6946"/><path class="sym" d="M -3,-3 l 6,6 M -3,3 l 6,-6"/><text class="lab lft" transform="translate(-5 0)"/></g><g class="mut m0 s0" transform="translate(0 -13.8206)"><line x1="0" x2="0" y1="0" y2="13.8206"/><path class="sym" d="M -3,-3 l 6,6 M -3,3 l 6,-6"/><text class="lab lft" transform="translate(-5 0)"/></g><circle class="sym" cx="0" cy="0" r="3"/><text class="lab lft" transform="translate(-3 -7.0)">r</text></g><g class="a20 m1 node n19 p0 s1" transform="translate(59.3775 10.6982)"><g class="a19 i3 leaf node n6 p2 sample" transform="translate(15.08 133.902)"><path class="edge" d="M 0 0 V -133.902 H -15.08"/><rect class="sym" height="6" width="6" x="-3" y="-3"/><text class="lab" transform="translate(0 11)">j</text></g><g class="a19 m2 node n13 p0 s2" transform="translate(-15.08 101.263)"><g class="a13 i1 leaf node n2 p1 sample" transform="translate(-10.0533 32.6389)"><path class="edge" d="M 0 0 V -32.6389 H 10.0533"/><rect class="sym" height="6" width="6" x="-3" y="-3"/><text class="lab" transform="translate(0 11)">h</text></g><g class="a13 i2 leaf node n5 p2 sample" transform="translate(10.0533 32.6389)"><path class="edge" d="M 0 0 V -32.6389 H -10.0533"/><rect class="sym" height="6" width="6" x="-3" y="-3"/><text class="lab" transform="translate(0 11)">i</text></g><path class="edge" d="M 0 0 V -101.263 H 15.08"/><g class="mut m2 s2" transform="translate(0 -82.1311)"><line x1="0" x2="0" y1="0" y2="82.1311"/><path class="sym" d="M -3,-3 l 6,6 M -3,3 l 6,-6"/><text class="lab lft" transform="translate(-5 0)"/></g><circle class="sym" cx="0" cy="0" r="3"/><text class="lab lft" transform="translate(-3 -7.0)">n</text></g><path class="edge" d="M 0 0 V -10.6982 H -59.3775"/><g class="mut m1 s1" transform="translate(0 -6.40233)"><line x1="0" x2="0" y1="0" y2="6.40233"/><path class="sym" d="M -3,-3 l 6,6 M -3,3 l 6,-6"/><text class="lab rgt" transform="translate(5 0)"/></g><circle class="sym" cx="0" cy="0" r="3"/><text class="lab rgt" transform="translate(3 -7.0)">t</text></g><circle class="sym" cx="0" cy="0" r="3"/><text class="lab" transform="translate(0 -11)">u</text></g></g></g><g class="tree t1" transform="translate(297.867 0)"><g class="plotbox"><g class="node n20 p0 root" transform="translate(105.925 26.8)"><g class="a20 node n19 p0" transform="translate(75.8713 10.6982)"><g class="a19 i3 leaf m6 node n6 p2 s6 sample" transform="translate(29.2175 133.902)"><path class="edge" d="M 0 0 V -133.902 H -29.2175"/><g class="mut m6 s6" transform="translate(0 -54.5985)"><line x1="0" x2="0" y1="0" y2="54.5985"/><path class="sym" d="M -3,-3 l 6,6 M -3,3 l 6,-6"/><text class="lab rgt" transform="translate(5 0)"/></g><rect class="sym" height="6" width="6" x="-3" y="-3"/><text class="lab" transform="translate(0 11)">j</text></g><g class="a19 m8 node n18 p0 s8" transform="translate(-29.2175 71.2396)"><g class="a18 node n13 p0" transform="translate(28.275 30.0232)"><g class="a13 i1 leaf node n2 p1 sample" transform="translate(-10.0533 32.6389)"><path class="edge" d="M 0 0 V -32.6389 H 10.0533"/><rect class="sym" height="6" width="6" x="-3" y="-3"/><text class="lab" transform="translate(0 11)">h</text></g><g class="a13 i2 leaf m5 node n5 p2 s5 sample" transform="translate(10.0533 32.6389)"><path class="edge" d="M 0 0 V -32.6389 H -10.0533"/><g class="mut m5 s5" transform="translate(0 -24.1193)"><line x1="0" x2="0" y1="0" y2="24.1193"/><path class="sym" d="M -3,-3 l 6,6 M -3,3 l 6,-6"/><text class="lab rgt" transform="translate(5 0)"/></g><rect class="sym" height="6" width="6" x="-3" y="-3"/><text class="lab" transform="translate(0 11)">i</text></g><path class="edge" d="M 0 0 V -30.0232 H -28.275"/><circle class="sym" cx="0" cy="0" r="3"/><text class="lab rgt" transform="translate(3 -7.0)">n</text></g><g class="a18 node n16 p0" transform="translate(-28.275 23.1753)"><g class="a16 i4 leaf node n9 p2 sample" transform="translate(26.39 39.4868)"><path class="edge" d="M 0 0 V -39.4868 H -26.39"/><rect class="sym" height="6" width="6" x="-3" y="-3"/><text class="lab" transform="translate(0 11)">g</text></g><g class="a16 node n15 p0" transform="translate(-26.39 5.85307)"><g class="a15 node n10 p2" transform="translate(22.62 30.3954)"><g class="a10 i3 leaf node n7 p2 sample" transform="translate(-10.0533 3.23842)"><path class="edge" d="M 0 0 V -3.23842 H 10.0533"/><rect class="sym" height="6" width="6" x="-3" y="-3"/><text class="lab" transform="translate(0 11)">e</text></g><g class="a10 i4 leaf node n8 p2 sample" transform="translate(10.0533 3.23842)"><path class="edge" d="M 0 0 V -3.23842 H -10.0533"/><rect class="sym" height="6" width="6" x="-3" y="-3"/><text class="lab" transform="translate(0 11)">f</text></g><path class="edge" d="M 0 0 V -30.3954 H -22.62"/><circle class="sym" cx="0" cy="0" r="3"/><text class="lab rgt" transform="translate(3 -7.0)">k</text></g><g class="a15 node n12 p0" transform="translate(-22.62 1.82594)"><g class="a12 i2 leaf node n4 p2 sample" transform="translate(15.08 31.8078)"><path class="edge" d="M 0 0 V -31.8078 H -15.08"/><rect class="sym" height="6" width="6" x="-3" y="-3"/><text class="lab" transform="translate(0 11)">d</text></g><g class="a12 node n11 p1" transform="translate(-15.08 24.6436)"><g class="a11 i0 leaf node n1 p1 sample" transform="translate(-10.0533 7.1642)"><path class="edge" d="M 0 0 V -7.1642 H 10.0533"/><rect class="sym" height="6" width="6" x="-3" y="-3"/><text class="lab" transform="translate(0 11)">b</text></g><g class="a11 i1 leaf node n3 p1 sample" transform="translate(10.0533 7.1642)"><path class="edge" d="M 0 0 V -7.1642 H -10.0533"/><rect class="sym" height="6" width="6" x="-3" y="-3"/><text class="lab" transform="translate(0 11)">c</text></g><path class="edge" d="M 0 0 V -24.6436 H 15.08"/><circle class="sym" cx="0" cy="0" r="3"/><text class="lab lft" transform="translate(-3 -7.0)">l</text></g><path class="edge" d="M 0 0 V -1.82594 H 22.62"/><circle class="sym" cx="0" cy="0" r="3"/><text class="lab lft" transform="translate(-3 -7.0)">m</text></g><path class="edge" d="M 0 0 V -5.85307 H 26.39"/><circle class="sym" cx="0" cy="0" r="3"/><text class="lab lft" transform="translate(-3 -7.0)">p</text></g><path class="edge" d="M 0 0 V -23.1753 H 28.275"/><circle class="sym" cx="0" cy="0" r="3"/><text class="lab lft" transform="translate(-3 -7.0)">q</text></g><path class="edge" d="M 0 0 V -71.2396 H 29.2175"/><g class="mut m8 s8" transform="translate(0 -52.4459)"><line x1="0" x2="0" y1="0" y2="52.4459"/><path class="sym" d="M -3,-3 l 6,6 M -3,3 l 6,-6"/><text class="lab lft" transform="translate(-5 0)"/></g><circle class="sym" cx="0" cy="0" r="3"/><text class="lab lft" transform="translate(-3 -7.0)">s</text></g><path class="edge" d="M 0 0 V -10.6982 H -75.8713"/><circle class="sym" cx="0" cy="0" r="3"/><text class="lab rgt" transform="translate(3 -7.0)">t</text></g><g class="a20 i0 leaf m7 node n0 p1 s7 sample" transform="translate(-75.8713 144.6)"><path class="edge" d="M 0 0 V -144.6 H 75.8713"/><g class="mut m7 s7" transform="translate(0 -117.905)"><line x1="0" x2="0" y1="0" y2="117.905"/><path class="sym" d="M -3,-3 l 6,6 M -3,3 l 6,-6"/><text class="lab lft" transform="translate(-5 0)"/></g><rect class="sym" height="6" width="6" x="-3" y="-3"/><text class="lab" transform="translate(0 11)">a</text></g><circle class="sym" cx="0" cy="0" r="3"/><text class="lab" transform="translate(0 -11)">u</text></g></g></g><g class="tree t2" transform="translate(538.933 0)"><g class="plotbox"><g class="node n20 p0 root" transform="translate(105.925 26.8)"><g class="a20 node n19 p0" transform="translate(75.8713 10.6982)"><g class="a19 i3 leaf node n6 p2 sample" transform="translate(29.2175 133.902)"><path class="edge" d="M 0 0 V -133.902 H -29.2175"/><rect class="sym" height="6" width="6" x="-3" y="-3"/><text class="lab" transform="translate(0 11)">j</text></g><g class="a19 m9 node n18 p0 s9" transform="translate(-29.2175 71.2396)"><g class="a18 node n16 p0" transform="translate(-28.275 23.1753)"><g class="a16 i4 leaf node n9 p2 sample" transform="translate(26.39 39.4868)"><path class="edge" d="M 0 0 V -39.4868 H -26.39"/><rect class="sym" height="6" width="6" x="-3" y="-3"/><text class="lab" transform="translate(0 11)">g</text></g><g class="a16 node n15 p0" transform="translate(-26.39 5.85307)"><g class="a15 node n10 p2" transform="translate(22.62 30.3954)"><g class="a10 i3 leaf node n7 p2 sample" transform="translate(-10.0533 3.23842)"><path class="edge" d="M 0 0 V -3.23842 H 10.0533"/><rect class="sym" height="6" width="6" x="-3" y="-3"/><text class="lab" transform="translate(0 11)">e</text></g><g class="a10 i4 leaf node n8 p2 sample" transform="translate(10.0533 3.23842)"><path class="edge" d="M 0 0 V -3.23842 H -10.0533"/><rect class="sym" height="6" width="6" x="-3" y="-3"/><text class="lab" transform="translate(0 11)">f</text></g><path class="edge" d="M 0 0 V -30.3954 H -22.62"/><circle class="sym" cx="0" cy="0" r="3"/><text class="lab rgt" transform="translate(3 -7.0)">k</text></g><g class="a15 node n12 p0" transform="translate(-22.62 1.82594)"><g class="a12 i2 leaf node n4 p2 sample" transform="translate(15.08 31.8078)"><path class="edge" d="M 0 0 V -31.8078 H -15.08"/><rect class="sym" height="6" width="6" x="-3" y="-3"/><text class="lab" transform="translate(0 11)">d</text></g><g class="a12 node n11 p1" transform="translate(-15.08 24.6436)"><g class="a11 i0 leaf node n1 p1 sample" transform="translate(-10.0533 7.1642)"><path class="edge" d="M 0 0 V -7.1642 H 10.0533"/><rect class="sym" height="6" width="6" x="-3" y="-3"/><text class="lab" transform="translate(0 11)">b</text></g><g class="a11 i1 leaf node n3 p1 sample" transform="translate(10.0533 7.1642)"><path class="edge" d="M 0 0 V -7.1642 H -10.0533"/><rect class="sym" height="6" width="6" x="-3" y="-3"/><text class="lab" transform="translate(0 11)">c</text></g><path class="edge" d="M 0 0 V -24.6436 H 15.08"/><circle class="sym" cx="0" cy="0" r="3"/><text class="lab lft" transform="translate(-3 -7.0)">l</text></g><path class="edge" d="M 0 0 V -1.82594 H 22.62"/><circle class="sym" cx="0" cy="0" r="3"/><text class="lab lft" transform="translate(-3 -7.0)">m</text></g><path class="edge" d="M 0 0 V -5.85307 H 26.39"/><circle class="sym" cx="0" cy="0" r="3"/><text class="lab lft" transform="translate(-3 -7.0)">p</text></g><path class="edge" d="M 0 0 V -23.1753 H 28.275"/><circle class="sym" cx="0" cy="0" r="3"/><text class="lab lft" transform="translate(-3 -7.0)">q</text></g><g class="a18 node n14 p0" transform="translate(28.275 29.9698)"><g class="a14 i1 leaf node n2 p1 sample" transform="translate(-10.0533 32.6924)"><path class="edge" d="M 0 0 V -32.6924 H 10.0533"/><rect class="sym" height="6" width="6" x="-3" y="-3"/><text class="lab" transform="translate(0 11)">h</text></g><g class="a14 i2 leaf node n5 p2 sample" transform="translate(10.0533 32.6924)"><path class="edge" d="M 0 0 V -32.6924 H -10.0533"/><rect class="sym" height="6" width="6" x="-3" y="-3"/><text class="lab" transform="translate(0 11)">i</text></g><path class="edge" d="M 0 0 V -29.9698 H -28.275"/><circle class="sym" cx="0" cy="0" r="3"/><text class="lab rgt" transform="translate(3 -7.0)">o</text></g><path class="edge" d="M 0 0 V -71.2396 H 29.2175"/><g class="mut m9 s9" transform="translate(0 -40.9097)"><line x1="0" x2="0" y1="0" y2="40.9097"/><path class="sym" d="M -3,-3 l 6,6 M -3,3 l 6,-6"/><text class="lab lft" transform="translate(-5 0)"/></g><circle class="sym" cx="0" cy="0" r="3"/><text class="lab lft" transform="translate(-3 -7.0)">s</text></g><path class="edge" d="M 0 0 V -10.6982 H -75.8713"/><circle class="sym" cx="0" cy="0" r="3"/><text class="lab rgt" transform="translate(3 -7.0)">t</text></g><g class="a20 i0 leaf node n0 p1 sample" transform="translate(-75.8713 144.6)"><path class="edge" d="M 0 0 V -144.6 H 75.8713"/><rect class="sym" height="6" width="6" x="-3" y="-3"/><text class="lab" transform="translate(0 11)">a</text></g><circle class="sym" cx="0" cy="0" r="3"/><text class="lab" transform="translate(0 -11)">u</text></g></g></g></g></g></svg>