<svg xmlns="http://www.w3.org/2000/svg" xmlns:ev="http://www.w3.org/2001/xml-events" xmlns:xlink="http://www.w3.org/1999/xlink" baseProfile="full" height="250" id="svg1" version="1.1" width="500"><defs><style type="text/css"><![CDATA[.background path {fill: #808080; fill-opacity:0}.background path:nth-child(odd) {fill-opacity:.1}.axes {font-size: 14px}.x-axis .tick .lab {font-weight: bold}.axes, .tree {font-size: 14px; text-anchor:middle}.y-axis line.grid {stroke: #FAFAFA}.y-axis > .lab text {transform: translateX(0.8em) rotate(-90deg)}.x-axis .tick g {transform: translateY(0.9em)}.x-axis > .lab text {transform: translateY(-0.8em)}.axes line, .edge {stroke:black; fill:none}.node > .sym {fill: black; stroke: none}.site > .sym {stroke: black}.mut text {fill: red; font-style: italic}.mut.extra text {fill: hotpink}.mut line {fill: none; stroke: none}.mut .sym {fill: none; stroke: red}.mut.extra .sym {stroke: hotpink}.node .mut .sym {stroke-width: 1.5px}.tree text, .tree-sequence text {dominant-baseline: central}.plotbox .lab.lft {text-anchor: end}.plotbox .lab.rgt {text-anchor: start}#svg1 .tree:not(.t2) .node.a10.n4 > .edge,#svg1 .tree:not(.t2) .node.a10.n8 > .edge,#svg1 .tree:not(.t2) .node.a11.n6 > .edge,#svg1 .tree:not(.t2) .node.a11.n7 > .edge,#svg1 .tree:not(.t2) .node.a12.n0 > .edge,#svg1 .tree:not(.t2) .node.a12.n9 > .edge,#svg1 .tree:not(.t2) .node.a13.n2 > .edge,#svg1 .tree:not(.t2) .node.a13.n11 > .edge,#svg1 .tree:not(.t2) .node.a14.n3 > .edge,#svg1 .tree:not(.t2) .node.a14.n5 > .edge,#svg1 .tree:not(.t2) .node.a15.n10 > .edge,#svg1 .tree:not(.t2) .node.a15.n13 > .edge,#svg1 .tree:not(.t2) .node.a16.n1 > .edge,#svg1 .tree:not(.t2) .node.a16.n12 > .edge{stroke:#00DD00; stroke-width: 2px}.node:not(.sample) > .sym, .node:not(.sample) > .lab {visibility: hidden;}.mut {font-size: 12px}]]></style></defs><g class="tree-sequence"><g class="background"><path d="M20,0 l230,0 l0,188.2 l135.444,25 l0,5 l-365.444,0 l0,-5 l0,-25 l0,-188.2z"/><path d="M250,0 l230,0 l0,188.2 l0,25 l0,5 l-94.5556,0 l0,-5 l-135.444,-25 l0,-188.2z"/></g><g class="axes"><g class="x-axis"><g class="lab" transform="translate(250,250)"><text text-anchor="middle">Genome position</text></g><line x1="20" x2="480" y1="213.2" y2="213.2"/><g class="tick" transform="translate(20 213.2)"><line x1="0" x2="0" y1="0" y2="5"/><g class="lab" transform="translate(0,5)"><text>0</text></g></g><g class="tick" transform="translate(385.444 213.2)"><line x1="0" x2="0" y1="0" y2="5"/><g class="lab" transform="translate(0,5)"><text>715</text></g></g></g></g><g class="plotbox trees"><g class="tree t0" transform="translate(20 0)"><g class="plotbox"><g class="node n20 p0 root" transform="translate(106.094 26.8)"><g class="a20 node n16 p0" transform="translate(-52.8438 122.304)"><g class="a16 i0 leaf node n1 p0 sample" transform="translate(14.25 22.2956)"><path class="edge" d="M 0 0 V -22.2956 H -14.25"/><rect class="sym" height="6" width="6" x="-3" y="-3"/><text class="lab" transform="translate(0 11)">c</text></g><g class="a16 node n12 p0" transform="translate(-14.25 18.8572)"><g class="a12 i0 leaf node n0 p0 sample" transform="translate(-9.5 3.43841)"><path class="edge" d="M 0 0 V -3.43841 H 9.5"/><rect class="sym" height="6" width="6" x="-3" y="-3"/><text class="lab" transform="translate(0 11)">a</text></g><g class="a12 i4 leaf node n9 p0 sample" transform="translate(9.5 3.43841)"><path class="edge" d="M 0 0 V -3.43841 H -9.5"/><rect class="sym" height="6" width="6" x="-3" y="-3"/><text class="lab" transform="translate(0 11)">b</text></g><path class="edge" d="M 0 0 V -18.8572 H 14.25"/><circle class="sym" cx="0" cy="0" r="3"/><text class="lab lft" transform="translate(-3 -7.0)">m</text></g><path class="edge" d="M 0 0 V -122.304 H 52.8438"/><circle class="sym" cx="0" cy="0" r="3"/><text class="lab lft" transform="translate(-3 -7.0)">q</text></g><g class="a20 node n18 p0" transform="translate(52.8438 111.605)"><g class="a18 node n14 p0" transform="translate(32.0625 18.7879)"><g class="a14 i1 leaf node n3 p0 sample" transform="translate(-9.5 14.2073)"><path class="edge" d="M 0 0 V -14.2073 H 9.5"/><rect class="sym" height="6" width="6" x="-3" y="-3"/><text class="lab" transform="translate(0 11)">i</text></g><g class="a14 i2 leaf node n5 p0 sample" transform="translate(9.5 14.2073)"><path class="edge" d="M 0 0 V -14.2073 H -9.5"/><rect class="sym" height="6" width="6" x="-3" y="-3"/><text class="lab" transform="translate(0 11)">j</text></g><path class="edge" d="M 0 0 V -18.7879 H -32.0625"/><circle class="sym" cx="0" cy="0" r="3"/><text class="lab rgt" transform="translate(3 -7.0)">o</text></g><g class="a18 node n15 p0" transform="translate(-32.0625 12.7291)"><g class="a15 node n10 p0" transform="translate(26.125 17.2992)"><g class="a10 i2 leaf node n4 p0 sample" transform="translate(-9.5 2.96696)"><path class="edge" d="M 0 0 V -2.96696 H 9.5"/><rect class="sym" height="6" width="6" x="-3" y="-3"/><text class="lab" transform="translate(0 11)">g</text></g><g class="a10 i4 leaf node n8 p0 sample" transform="translate(9.5 2.96696)"><path class="edge" d="M 0 0 V -2.96696 H -9.5"/><rect class="sym" height="6" width="6" x="-3" y="-3"/><text class="lab" transform="translate(0 11)">h</text></g><path class="edge" d="M 0 0 V -17.2992 H -26.125"/><circle class="sym" cx="0" cy="0" r="3"/><text class="lab rgt" transform="translate(3 -7.0)">k</text></g><g class="a15 node n13 p0" transform="translate(-26.125 13.533)"><g class="a13 i1 leaf node n2 p0 sample" transform="translate(-14.25 6.7332)"><path class="edge" d="M 0 0 V -6.7332 H 14.25"/><rect class="sym" height="6" width="6" x="-3" y="-3"/><text class="lab" transform="translate(0 11)">d</text></g><g class="a13 node n11 p0" transform="translate(14.25 3.33445)"><g class="a11 i3 leaf node n6 p0 sample" transform="translate(-9.5 3.39875)"><path class="edge" d="M 0 0 V -3.39875 H 9.5"/><rect class="sym" height="6" width="6" x="-3" y="-3"/><text class="lab" transform="translate(0 11)">e</text></g><g class="a11 i3 leaf node n7 p0 sample" transform="translate(9.5 3.39875)"><path class="edge" d="M 0 0 V -3.39875 H -9.5"/><rect class="sym" height="6" width="6" x="-3" y="-3"/><text class="lab" transform="translate(0 11)">f</text></g><path class="edge" d="M 0 0 V -3.33445 H -14.25"/><circle class="sym" cx="0" cy="0" r="3"/><text class="lab rgt" transform="translate(3 -7.0)">l</text></g><path class="edge" d="M 0 0 V -13.533 H 26.125"/><circle class="sym" cx="0" cy="0" r="3"/><text class="lab lft" transform="translate(-3 -7.0)">n</text></g><path class="edge" d="M 0 0 V -12.7291 H 32.0625"/><circle class="sym" cx="0" cy="0" r="3"/><text class="lab lft" transform="translate(-3 -7.0)">p</text></g><path class="edge" d="M 0 0 V -111.605 H -52.8438"/><circle class="sym" cx="0" cy="0" r="3"/><text class="lab rgt" transform="translate(3 -7.0)">s</text></g><circle class="sym" cx="0" cy="0" r="3"/><text class="lab" transform="translate(0 -11)">u</text></g></g></g><g class="tree t1" transform="translate(250 0)"><g class="plotbox"><g class="node n20 p0 root" transform="translate(140.531 26.8)"><g class="a20 node n14 p0" transform="translate(50.4688 130.393)"><g class="a14 i1 leaf node n3 p0 sample" transform="translate(-9.5 14.2073)"><path class="edge" d="M 0 0 V -14.2073 H 9.5"/><rect class="sym" height="6" width="6" x="-3" y="-3"/><text class="lab" transform="translate(0 11)">i</text></g><g class="a14 i2 leaf node n5 p0 sample" transform="translate(9.5 14.2073)"><path class="edge" d="M 0 0 V -14.2073 H -9.5"/><rect class="sym" height="6" width="6" x="-3" y="-3"/><text class="lab" transform="translate(0 11)">j</text></g><path class="edge" d="M 0 0 V -130.393 H -50.4688"/><circle class="sym" cx="0" cy="0" r="3"/><text class="lab rgt" transform="translate(3 -7.0)">o</text></g><g class="a20 node n17 p0" transform="translate(-50.4688 114.164)"><g class="a17 node n15 p0" transform="translate(36.8125 10.1699)"><g class="a15 node n10 p0" transform="translate(26.125 17.2992)"><g class="a10 i2 leaf node n4 p0 sample" transform="translate(-9.5 2.96696)"><path class="edge" d="M 0 0 V -2.96696 H 9.5"/><rect class="sym" height="6" width="6" x="-3" y="-3"/><text class="lab" transform="translate(0 11)">g</text></g><g class="a10 i4 leaf node n8 p0 sample" transform="translate(9.5 2.96696)"><path class="edge" d="M 0 0 V -2.96696 H -9.5"/><rect class="sym" height="6" width="6" x="-3" y="-3"/><text class="lab" transform="translate(0 11)">h</text></g><path class="edge" d="M 0 0 V -17.2992 H -26.125"/><circle class="sym" cx="0" cy="0" r="3"/><text class="lab rgt" transform="translate(3 -7.0)">k</text></g><g class="a15 node n13 p0" transform="translate(-26.125 13.533)"><g class="a13 i1 leaf node n2 p0 sample" transform="translate(-14.25 6.7332)"><path class="edge" d="M 0 0 V -6.7332 H 14.25"/><rect class="sym" height="6" width="6" x="-3" y="-3"/><text class="lab" transform="translate(0 11)">d</text></g><g class="a13 node n11 p0" transform="translate(14.25 3.33445)"><g class="a11 i3 leaf node n6 p0 sample" transform="translate(-9.5 3.39875)"><path class="edge" d="M 0 0 V -3.39875 H 9.5"/><rect class="sym" height="6" width="6" x="-3" y="-3"/><text class="lab" transform="translate(0 11)">e</text></g><g class="a11 i3 leaf node n7 p0 sample" transform="translate(9.5 3.39875)"><path class="edge" d="M 0 0 V -3.39875 H -9.5"/><rect class="sym" height="6" width="6" x="-3" y="-3"/><text class="lab" transform="translate(0 11)">f</text></g><path class="edge" d="M 0 0 V -3.33445 H -14.25"/><circle class="sym" cx="0" cy="0" r="3"/><text class="lab rgt" transform="translate(3 -7.0)">l</text></g><path class="edge" d="M 0 0 V -13.533 H 26.125"/><circle class="sym" cx="0" cy="0" r="3"/><text class="lab lft" transform="translate(-3 -7.0)">n</text></g><path class="edge" d="M 0 0 V -10.1699 H -36.8125"/><circle class="sym" cx="0" cy="0" r="3"/><text class="lab rgt" transform="translate(3 -7.0)">p</text></g><g class="a17 node n16 p0" transform="translate(-36.8125 8.14044)"><g class="a16 i0 leaf node n1 p0 sample" transform="translate(14.25 22.2956)"><path class="edge" d="M 0 0 V -22.2956 H -14.25"/><rect class="sym" height="6" width="6" x="-3" y="-3"/><text class="lab" transform="translate(0 11)">c</text></g><g class="a16 node n12 p0" transform="translate(-14.25 18.8572)"><g class="a12 i0 leaf node n0 p0 sample" transform="translate(-9.5 3.43841)"><path class="edge" d="M 0 0 V -3.43841 H 9.5"/><rect class="sym" height="6" width="6" x="-3" y="-3"/><text class="lab" transform="translate(0 11)">a</text></g><g class="a12 i4 leaf node n9 p0 sample" transform="translate(9.5 3.43841)"><path class="edge" d="M 0 0 V -3.43841 H -9.5"/><rect class="sym" height="6" width="6" x="-3" y="-3"/><text class="lab" transform="translate(0 11)">b</text></g><path class="edge" d="M 0 0 V -18.8572 H 14.25"/><circle class="sym" cx="0" cy="0" r="3"/><text class="lab lft" transform="translate(-3 -7.0)">m</text></g><path class="edge" d="M 0 0 V -8.14044 H 36.8125"/><circle class="sym" cx="0" cy="0" r="3"/><text class="lab lft" transform="translate(-3 -7.0)">q</text></g><path class="edge" d="M 0 0 V -114.164 H 50.4688"/><circle class="sym" cx="0" cy="0" r="3"/><text class="lab lft" transform="translate(-3 -7.0)">r</text></g><circle class="sym" cx="0" cy="0" r="3"/><text class="lab" transform="translate(0 -11)">u</text></g></g></g></g></g></svg>