<svg xmlns="http://www.w3.org/2000/svg" xmlns:ev="http://www.w3.org/2001/xml-events" xmlns:xlink="http://www.w3.org/1999/xlink" baseProfile="full" height="250" id="svg1" version="1.1" width="500"><defs><style type="text/css"><![CDATA[.background path {fill: #808080; fill-opacity:0}.background path:nth-child(odd) {fill-opacity:.1}.axes {font-size: 14px}.x-axis .tick .lab {font-weight: bold}.axes, .tree {font-size: 14px; text-anchor:middle}.y-axis line.grid {stroke: #FAFAFA}.y-axis > .lab text {transform: translateX(0.8em) rotate(-90deg)}.x-axis .tick g {transform: translateY(0.9em)}.x-axis > .lab text {transform: translateY(-0.8em)}.axes line, .edge {stroke:black; fill:none}.node > .sym {fill: black; stroke: none}.site > .sym {stroke: black}.mut text {fill: red; font-style: italic}.mut.extra text {fill: hotpink}.mut line {fill: none; stroke: none}.mut .sym {fill: none; stroke: red}.mut.extra .sym {stroke: hotpink}.node .mut .sym {stroke-width: 1.5px}.tree text, .tree-sequence text {dominant-baseline: central}.plotbox .lab.lft {text-anchor: end}.plotbox .lab.rgt {text-anchor: start}#svg1 .tree:not(.t2) .node.a10.n4 > .edge,#svg1 .tree:not(.t2) .node.a10.n8 > .edge,#svg1 .tree:not(.t2) .node.a11.n6 > .edge,#svg1 .tree:not(.t2) .node.a11.n7 > .edge,#svg1 .tree:not(.t2) .node.a12.n0 > .edge,#svg1 .tree:not(.t2) .node.a12.n9 > .edge,#svg1 .tree:not(.t2) .node.a13.n2 > .edge,#svg1 .tree:not(.t2) .node.a13.n11 > .edge,#svg1 .tree:not(.t2) .node.a14.n3 > .edge,#svg1 .tree:not(.t2) .node.a14.n5 > .edge,#svg1 .tree:not(.t2) .node.a15.n10 > .edge,#svg1 .tree:not(.t2) .node.a15.n13 > .edge,#svg1 .tree:not(.t2) .node.a16.n1 > .edge,#svg1 .tree:not(.t2) .node.a16.n12 > .edge{stroke:#00DD00; stroke-width: 2px}.node:not(.sample) > .sym, .node:not(.sample) > .lab {visibility: hidden;}.mut {font-size: 12px}]]></style></defs><g class="tree-sequence"><g class="background"><path d="M56.8,0 l211.6,0 l0,188.2 l124.609,25 l0,5 l-336.209,0 l0,-5 l0,-25 l0,-188.2z"/><path d="M268.4,0 l211.6,0 l0,188.2 l0,25 l0,5 l-86.9911,0 l0,-5 l-124.609,-25 l0,-188.2z"/></g><g class="axes"><g class="x-axis"><g class="lab" transform="translate(268.4,250)"><text text-anchor="middle">Genome position</text></g><line x1="56.8" x2="480" y1="213.2" y2="213.2"/><g class="tick" transform="translate(56.8 213.2)"><line x1="0" x2="0" y1="0" y2="5"/><g class="lab" transform="translate(0,5)"><text>0</text></g></g><g class="tick" transform="translate(393.009 213.2)"><line x1="0" x2="0" y1="0" y2="5"/><g class="lab" transform="translate(0,5)"><text>715</text></g></g></g><g class="y-axis"><g class="lab" transform="translate(0,90.7)"><text text-anchor="middle">Time ago</text></g><line x1="56.8" x2="56.8" y1="171.4" y2="10"/><g class="tick" transform="translate(56.8 171.4)"><line x1="0" x2="-5" y1="0" y2="0"/><g class="lab" transform="translate(-5,0)"><text text-anchor="end">0.00</text></g></g><g class="tick" transform="translate(56.8 133.493)"><line x1="0" x2="-5" y1="0" y2="0"/><g class="lab" transform="translate(-5,0)"><text text-anchor="end">2.00</text></g></g><g class="tick" transform="translate(56.8 109.577)"><line x1="0" x2="-5" y1="0" y2="0"/><g class="lab" transform="translate(-5,0)"><text text-anchor="end">5.00</text></g></g><g class="tick" transform="translate(56.8 88.6623)"><line x1="0" x2="-5" y1="0" y2="0"/><g class="lab" transform="translate(-5,0)"><text text-anchor="end">10.00</text></g></g><g class="tick" transform="translate(56.8 66.3509)"><line x1="0" x2="-5" y1="0" y2="0"/><g class="lab" transform="translate(-5,0)"><text text-anchor="end">20.00</text></g></g><g class="tick" transform="translate(56.8 35.7351)"><line x1="0" x2="-5" y1="0" y2="0"/><g class="lab" transform="translate(-5,0)"><text text-anchor="end">50.00</text></g></g><g class="tick" transform="translate(56.8 12.1585)"><line x1="0" x2="-5" y1="0" y2="0"/><g class="lab" transform="translate(-5,0)"><text text-anchor="end">100.00</text></g></g></g></g><g class="plotbox trees"><g class="tree t0" transform="translate(56.8 0)"><g class="plotbox"><g class="node n20 p0 root" transform="translate(97.7562 26.8)"><g class="a20 node n16 p0" transform="translate(-47.7263 61.7567)"><g class="a16 i0 leaf node n1 p0 sample" transform="translate(12.87 82.8433)"><path class="edge" d="M 0 0 V -82.8433 H -12.87"/><rect class="sym" height="6" width="6" x="-3" y="-3"/><text class="lab" transform="translate(0 11)">c</text></g><g class="a16 node n12 p0" transform="translate(-12.87 50.5794)"><g class="a12 i0 leaf node n0 p0 sample" transform="translate(-8.58 32.2639)"><path class="edge" d="M 0 0 V -32.2639 H 8.58"/><rect class="sym" height="6" width="6" x="-3" y="-3"/><text class="lab" transform="translate(0 11)">a</text></g><g class="a12 i4 leaf node n9 p0 sample" transform="translate(8.58 32.2639)"><path class="edge" d="M 0 0 V -32.2639 H -8.58"/><rect class="sym" height="6" width="6" x="-3" y="-3"/><text class="lab" transform="translate(0 11)">b</text></g><path class="edge" d="M 0 0 V -50.5794 H 12.87"/><circle class="sym" cx="0" cy="0" r="3"/><text class="lab lft" transform="translate(-3 -7.0)">m</text></g><path class="edge" d="M 0 0 V -61.7567 H 47.7263"/><circle class="sym" cx="0" cy="0" r="3"/><text class="lab lft" transform="translate(-3 -7.0)">q</text></g><g class="a20 node n18 p0" transform="translate(47.7262 49.2612)"><g class="a18 node n14 p0" transform="translate(28.9575 26.3083)"><g class="a14 i1 leaf node n3 p0 sample" transform="translate(-8.58 69.0304)"><path class="edge" d="M 0 0 V -69.0304 H 8.58"/><rect class="sym" height="6" width="6" x="-3" y="-3"/><text class="lab" transform="translate(0 11)">i</text></g><g class="a14 i2 leaf node n5 p0 sample" transform="translate(8.58 69.0304)"><path class="edge" d="M 0 0 V -69.0304 H -8.58"/><rect class="sym" height="6" width="6" x="-3" y="-3"/><text class="lab" transform="translate(0 11)">j</text></g><path class="edge" d="M 0 0 V -26.3083 H -28.9575"/><circle class="sym" cx="0" cy="0" r="3"/><text class="lab rgt" transform="translate(3 -7.0)">o</text></g><g class="a18 node n15 p0" transform="translate(-28.9575 15.4767)"><g class="a15 node n10 p0" transform="translate(23.595 50.5987)"><g class="a10 i2 leaf node n4 p0 sample" transform="translate(-8.58 29.2634)"><path class="edge" d="M 0 0 V -29.2634 H 8.58"/><rect class="sym" height="6" width="6" x="-3" y="-3"/><text class="lab" transform="translate(0 11)">g</text></g><g class="a10 i4 leaf node n8 p0 sample" transform="translate(8.58 29.2634)"><path class="edge" d="M 0 0 V -29.2634 H -8.58"/><rect class="sym" height="6" width="6" x="-3" y="-3"/><text class="lab" transform="translate(0 11)">h</text></g><path class="edge" d="M 0 0 V -50.5987 H -23.595"/><circle class="sym" cx="0" cy="0" r="3"/><text class="lab rgt" transform="translate(3 -7.0)">k</text></g><g class="a15 node n13 p0" transform="translate(-23.595 31.7699)"><g class="a13 i1 leaf node n2 p0 sample" transform="translate(-12.87 48.0922)"><path class="edge" d="M 0 0 V -48.0922 H 12.87"/><rect class="sym" height="6" width="6" x="-3" y="-3"/><text class="lab" transform="translate(0 11)">d</text></g><g class="a13 node n11 p0" transform="translate(12.87 16.0709)"><g class="a11 i3 leaf node n6 p0 sample" transform="translate(-8.58 32.0213)"><path class="edge" d="M 0 0 V -32.0213 H 8.58"/><rect class="sym" height="6" width="6" x="-3" y="-3"/><text class="lab" transform="translate(0 11)">e</text></g><g class="a11 i3 leaf node n7 p0 sample" transform="translate(8.58 32.0213)"><path class="edge" d="M 0 0 V -32.0213 H -8.58"/><rect class="sym" height="6" width="6" x="-3" y="-3"/><text class="lab" transform="translate(0 11)">f</text></g><path class="edge" d="M 0 0 V -16.0709 H -12.87"/><circle class="sym" cx="0" cy="0" r="3"/><text class="lab rgt" transform="translate(3 -7.0)">l</text></g><path class="edge" d="M 0 0 V -31.7699 H 23.595"/><circle class="sym" cx="0" cy="0" r="3"/><text class="lab lft" transform="translate(-3 -7.0)">n</text></g><path class="edge" d="M 0 0 V -15.4767 H 28.9575"/><circle class="sym" cx="0" cy="0" r="3"/><text class="lab lft" transform="translate(-3 -7.0)">p</text></g><path class="edge" d="M 0 0 V -49.2612 H -47.7262"/><circle class="sym" cx="0" cy="0" r="3"/><text class="lab rgt" transform="translate(3 -7.0)">s</text></g><circle class="sym" cx="0" cy="0" r="3"/><text class="lab" transform="translate(0 -11)">u</text></g></g></g><g class="tree t1" transform="translate(268.4 0)"><g class="plotbox"><g class="node n20 p0 root" transform="translate(128.859 26.8)"><g class="a20 node n14 p0" transform="translate(45.5813 75.5696)"><g class="a14 i1 leaf node n3 p0 sample" transform="translate(-8.58 69.0304)"><path class="edge" d="M 0 0 V -69.0304 H 8.58"/><rect class="sym" height="6" width="6" x="-3" y="-3"/><text class="lab" transform="translate(0 11)">i</text></g><g class="a14 i2 leaf node n5 p0 sample" transform="translate(8.58 69.0304)"><path class="edge" d="M 0 0 V -69.0304 H -8.58"/><rect class="sym" height="6" width="6" x="-3" y="-3"/><text class="lab" transform="translate(0 11)">j</text></g><path class="edge" d="M 0 0 V -75.5696 H -45.5813"/><circle class="sym" cx="0" cy="0" r="3"/><text class="lab rgt" transform="translate(3 -7.0)">o</text></g><g class="a20 node n17 p0" transform="translate(-45.5812 51.8643)"><g class="a17 node n15 p0" transform="translate(33.2475 12.8736)"><g class="a15 node n10 p0" transform="translate(23.595 50.5987)"><g class="a10 i2 leaf node n4 p0 sample" transform="translate(-8.58 29.2634)"><path class="edge" d="M 0 0 V -29.2634 H 8.58"/><rect class="sym" height="6" width="6" x="-3" y="-3"/><text class="lab" transform="translate(0 11)">g</text></g><g class="a10 i4 leaf node n8 p0 sample" transform="translate(8.58 29.2634)"><path class="edge" d="M 0 0 V -29.2634 H -8.58"/><rect class="sym" height="6" width="6" x="-3" y="-3"/><text class="lab" transform="translate(0 11)">h</text></g><path class="edge" d="M 0 0 V -50.5987 H -23.595"/><circle class="sym" cx="0" cy="0" r="3"/><text class="lab rgt" transform="translate(3 -7.0)">k</text></g><g class="a15 node n13 p0" transform="translate(-23.595 31.7699)"><g class="a13 i1 leaf node n2 p0 sample" transform="translate(-12.87 48.0922)"><path class="edge" d="M 0 0 V -48.0922 H 12.87"/><rect class="sym" height="6" width="6" x="-3" y="-3"/><text class="lab" transform="translate(0 11)">d</text></g><g class="a13 node n11 p0" transform="translate(12.87 16.0709)"><g class="a11 i3 leaf node n6 p0 sample" transform="translate(-8.58 32.0213)"><path class="edge" d="M 0 0 V -32.0213 H 8.58"/><rect class="sym" height="6" width="6" x="-3" y="-3"/><text class="lab" transform="translate(0 11)">e</text></g><g class="a11 i3 leaf node n7 p0 sample" transform="translate(8.58 32.0213)"><path class="edge" d="M 0 0 V -32.0213 H -8.58"/><rect class="sym" height="6" width="6" x="-3" y="-3"/><text class="lab" transform="translate(0 11)">f</text></g><path class="edge" d="M 0 0 V -16.0709 H -12.87"/><circle class="sym" cx="0" cy="0" r="3"/><text class="lab rgt" transform="translate(3 -7.0)">l</text></g><path class="edge" d="M 0 0 V -31.7699 H 23.595"/><circle class="sym" cx="0" cy="0" r="3"/><text class="lab lft" transform="translate(-3 -7.0)">n</text></g><path class="edge" d="M 0 0 V -12.8736 H -33.2475"/><circle class="sym" cx="0" cy="0" r="3"/><text class="lab rgt" transform="translate(3 -7.0)">p</text></g><g class="a17 node n16 p0" transform="translate(-33.2475 9.89234)"><g class="a16 i0 leaf node n1 p0 sample" transform="translate(12.87 82.8433)"><path class="edge" d="M 0 0 V -82.8433 H -12.87"/><rect class="sym" height="6" width="6" x="-3" y="-3"/><text class="lab" transform="translate(0 11)">c</text></g><g class="a16 node n12 p0" transform="translate(-12.87 50.5794)"><g class="a12 i0 leaf node n0 p0 sample" transform="translate(-8.58 32.2639)"><path class="edge" d="M 0 0 V -32.2639 H 8.58"/><rect class="sym" height="6" width="6" x="-3" y="-3"/><text class="lab" transform="translate(0 11)">a</text></g><g class="a12 i4 leaf node n9 p0 sample" transform="translate(8.58 32.2639)"><path class="edge" d="M 0 0 V -32.2639 H -8.58"/><rect class="sym" height="6" width="6" x="-3" y="-3"/><text class="lab" transform="translate(0 11)">b</text></g><path class="edge" d="M 0 0 V -50.5794 H 12.87"/><circle class="sym" cx="0" cy="0" r="3"/><text class="lab lft" transform="translate(-3 -7.0)">m</text></g><path class="edge" d="M 0 0 V -9.89234 H 33.2475"/><circle class="sym" cx="0" cy="0" r="3"/><text class="lab lft" transform="translate(-3 -7.0)">q</text></g><path class="edge" d="M 0 0 V -51.8643 H 45.5812"/><circle class="sym" cx="0" cy="0" r="3"/><text class="lab lft" transform="translate(-3 -7.0)">r</text></g><circle class="sym" cx="0" cy="0" r="3"/><text class="lab" transform="translate(0 -11)">u</text></g></g></g></g></g></svg>