<svg xmlns="http://www.w3.org/2000/svg" xmlns:ev="http://www.w3.org/2001/xml-events" xmlns:xlink="http://www.w3.org/1999/xlink" baseProfile="full" height="250" id="svg1" version="1.1" width="500"><defs><style type="text/css"><![CDATA[.background path {fill: #808080; fill-opacity:0}.background path:nth-child(odd) {fill-opacity:.1}.axes {font-size: 14px}.x-axis .tick .lab {font-weight: bold}.axes, .tree {font-size: 14px; text-anchor:middle}.y-axis line.grid {stroke: #FAFAFA}.y-axis > .lab text {transform: translateX(0.8em) rotate(-90deg)}.x-axis .tick g {transform: translateY(0.9em)}.x-axis > .lab text {transform: translateY(-0.8em)}.axes line, .edge {stroke:black; fill:none}.node > .sym {fill: black; stroke: none}.site > .sym {stroke: black}.mut text {fill: red; font-style: italic}.mut.extra text {fill: hotpink}.mut line {fill: none; stroke: none}.mut .sym {fill: none; stroke: red}.mut.extra .sym {stroke: hotpink}.node .mut .sym {stroke-width: 1.5px}.tree text, .tree-sequence text {dominant-baseline: central}.plotbox .lab.lft {text-anchor: end}.plotbox .lab.rgt {text-anchor: start}#svg1 .tree:not(.t2) .node.a10.n7 > .edge,#svg1 .tree:not(.t2) .node.a10.n8 > .edge,#svg1 .tree:not(.t2) .node.a11.n1 > .edge,#svg1 .tree:not(.t2) .node.a11.n3 > .edge,#svg1 .tree:not(.t2) .node.a12.n4 > .edge,#svg1 .tree:not(.t2) .node.a12.n11 > .edge,#svg1 .tree:not(.t2) .node.a13.n2 > .edge,#svg1 .tree:not(.t2) .node.a13.n5 > .edge,#svg1 .tree:not(.t2) .node.a15.n10 > .edge,#svg1 .tree:not(.t2) .node.a15.n12 > .edge,#svg1 .tree:not(.t2) .node.a16.n9 > .edge,#svg1 .tree:not(.t2) .node.a16.n15 > .edge,#svg1 .tree:not(.t2) .node.a19.n6 > .edge,#svg1 .tree:not(.t2) .node.a20.n19 > .edge{stroke:#00DD00; stroke-width: 2px}.node:not(.sample) > .sym, .node:not(.sample) > .lab {visibility: hidden;}.mut {font-size: 12px} .y-axis .tick .lab {font-size: 85%}]]></style></defs><g class="tree-sequence"><g class="background"><path d="M20,0 l230,0 l0,188.2 l103.5,25 l0,5 l-333.5,0 l0,-5 l0,-25 l0,-188.2z"/><path d="M250,0 l230,0 l0,188.2 l0,25 l0,5 l-126.5,0 l0,-5 l-103.5,-25 l0,-188.2z"/></g><g class="axes"><g class="x-axis"><g class="lab" transform="translate(250,250)"><text text-anchor="middle">Genome position</text></g><line x1="20" x2="480" y1="213.2" y2="213.2"/><g class="tick" transform="translate(20 213.2)"><line x1="0" x2="0" y1="0" y2="5"/><g class="lab" transform="translate(0,5)"><text>0</text></g></g><g class="tick" transform="translate(353.5 213.2)"><line x1="0" x2="0" y1="0" y2="5"/><g class="lab" transform="translate(0,5)"><text>580</text></g></g></g></g><g class="plotbox trees"><g class="tree t0" transform="translate(20 0)"><g class="plotbox"><g class="node n20 p0 root" transform="translate(130.141 26.8)"><g class="a20 node n17 p0" transform="translate(-56.1094 83.2923)"><g class="a17 i0 leaf node n0 p1 sample" transform="translate(-44.5312 61.3077)"><path class="edge" d="M 0 0 V -61.3077 H 44.5312"/><rect class="sym" height="6" width="6" x="-3" y="-3"/><text class="lab" transform="translate(0 11)">a</text></g><g class="a17 node n16 p0" transform="translate(44.5312 21.8208)"><g class="a16 i4 leaf node n9 p2 sample" transform="translate(24.9375 39.4868)"><path class="edge" d="M 0 0 V -39.4868 H -24.9375"/><rect class="sym" height="6" width="6" x="-3" y="-3"/><text class="lab" transform="translate(0 11)">g</text></g><g class="a16 node n15 p0" transform="translate(-24.9375 5.85307)"><g class="a15 node n10 p2" transform="translate(21.375 30.3954)"><g class="a10 i3 leaf node n7 p2 sample" transform="translate(-9.5 3.23842)"><path class="edge" d="M 0 0 V -3.23842 H 9.5"/><rect class="sym" height="6" width="6" x="-3" y="-3"/><text class="lab" transform="translate(0 11)">e</text></g><g class="a10 i4 leaf node n8 p2 sample" transform="translate(9.5 3.23842)"><path class="edge" d="M 0 0 V -3.23842 H -9.5"/><rect class="sym" height="6" width="6" x="-3" y="-3"/><text class="lab" transform="translate(0 11)">f</text></g><path class="edge" d="M 0 0 V -30.3954 H -21.375"/><circle class="sym" cx="0" cy="0" r="3"/><text class="lab rgt" transform="translate(3 -7.0)">k</text></g><g class="a15 node n12 p0" transform="translate(-21.375 1.82594)"><g class="a12 i2 leaf node n4 p2 sample" transform="translate(14.25 31.8078)"><path class="edge" d="M 0 0 V -31.8078 H -14.25"/><rect class="sym" height="6" width="6" x="-3" y="-3"/><text class="lab" transform="translate(0 11)">d</text></g><g class="a12 node n11 p1" transform="translate(-14.25 24.6436)"><g class="a11 i0 leaf node n1 p1 sample" transform="translate(-9.5 7.1642)"><path class="edge" d="M 0 0 V -7.1642 H 9.5"/><rect class="sym" height="6" width="6" x="-3" y="-3"/><text class="lab" transform="translate(0 11)">b</text></g><g class="a11 i1 leaf node n3 p1 sample" transform="translate(9.5 7.1642)"><path class="edge" d="M 0 0 V -7.1642 H -9.5"/><rect class="sym" height="6" width="6" x="-3" y="-3"/><text class="lab" transform="translate(0 11)">c</text></g><path class="edge" d="M 0 0 V -24.6436 H 14.25"/><circle class="sym" cx="0" cy="0" r="3"/><text class="lab lft" transform="translate(-3 -7.0)">l</text></g><path class="edge" d="M 0 0 V -1.82594 H 21.375"/><circle class="sym" cx="0" cy="0" r="3"/><text class="lab lft" transform="translate(-3 -7.0)">m</text></g><path class="edge" d="M 0 0 V -5.85307 H 24.9375"/><circle class="sym" cx="0" cy="0" r="3"/><text class="lab lft" transform="translate(-3 -7.0)">p</text></g><path class="edge" d="M 0 0 V -21.8208 H -44.5312"/><circle class="sym" cx="0" cy="0" r="3"/><text class="lab rgt" transform="translate(3 -7.0)">q</text></g><path class="edge" d="M 0 0 V -83.2923 H 56.1094"/><circle class="sym" cx="0" cy="0" r="3"/><text class="lab lft" transform="translate(-3 -7.0)">r</text></g><g class="a20 node n19 p0" transform="translate(56.1094 10.6982)"><g class="a19 i3 leaf node n6 p2 sample" transform="translate(14.25 133.902)"><path class="edge" d="M 0 0 V -133.902 H -14.25"/><rect class="sym" height="6" width="6" x="-3" y="-3"/><text class="lab" transform="translate(0 11)">j</text></g><g class="a19 node n13 p0" transform="translate(-14.25 101.263)"><g class="a13 i1 leaf node n2 p1 sample" transform="translate(-9.5 32.6389)"><path class="edge" d="M 0 0 V -32.6389 H 9.5"/><rect class="sym" height="6" width="6" x="-3" y="-3"/><text class="lab" transform="translate(0 11)">h</text></g><g class="a13 i2 leaf node n5 p2 sample" transform="translate(9.5 32.6389)"><path class="edge" d="M 0 0 V -32.6389 H -9.5"/><rect class="sym" height="6" width="6" x="-3" y="-3"/><text class="lab" transform="translate(0 11)">i</text></g><path class="edge" d="M 0 0 V -101.263 H 14.25"/><circle class="sym" cx="0" cy="0" r="3"/><text class="lab lft" transform="translate(-3 -7.0)">n</text></g><path class="edge" d="M 0 0 V -10.6982 H -56.1094"/><circle class="sym" cx="0" cy="0" r="3"/><text class="lab rgt" transform="translate(3 -7.0)">t</text></g><circle class="sym" cx="0" cy="0" r="3"/><text class="lab" transform="translate(0 -11)">u</text></g></g></g><g class="tree t1" transform="translate(250 0)"><g class="plotbox"><g class="node n20 p0 root" transform="translate(101.195 26.8)"><g class="a20 node n19 p0" transform="translate(71.6953 10.6982)"><g class="a19 i3 leaf node n6 p2 sample" transform="translate(27.6094 133.902)"><path class="edge" d="M 0 0 V -133.902 H -27.6094"/><rect class="sym" height="6" width="6" x="-3" y="-3"/><text class="lab" transform="translate(0 11)">j</text></g><g class="a19 node n18 p0" transform="translate(-27.6094 71.2396)"><g class="a18 node n13 p0" transform="translate(26.7188 30.0232)"><g class="a13 i1 leaf node n2 p1 sample" transform="translate(-9.5 32.6389)"><path class="edge" d="M 0 0 V -32.6389 H 9.5"/><rect class="sym" height="6" width="6" x="-3" y="-3"/><text class="lab" transform="translate(0 11)">h</text></g><g class="a13 i2 leaf node n5 p2 sample" transform="translate(9.5 32.6389)"><path class="edge" d="M 0 0 V -32.6389 H -9.5"/><rect class="sym" height="6" width="6" x="-3" y="-3"/><text class="lab" transform="translate(0 11)">i</text></g><path class="edge" d="M 0 0 V -30.0232 H -26.7188"/><circle class="sym" cx="0" cy="0" r="3"/><text class="lab rgt" transform="translate(3 -7.0)">n</text></g><g class="a18 node n16 p0" transform="translate(-26.7188 23.1753)"><g class="a16 i4 leaf node n9 p2 sample" transform="translate(24.9375 39.4868)"><path class="edge" d="M 0 0 V -39.4868 H -24.9375"/><rect class="sym" height="6" width="6" x="-3" y="-3"/><text class="lab" transform="translate(0 11)">g</text></g><g class="a16 node n15 p0" transform="translate(-24.9375 5.85307)"><g class="a15 node n10 p2" transform="translate(21.375 30.3954)"><g class="a10 i3 leaf node n7 p2 sample" transform="translate(-9.5 3.23842)"><path class="edge" d="M 0 0 V -3.23842 H 9.5"/><rect class="sym" height="6" width="6" x="-3" y="-3"/><text class="lab" transform="translate(0 11)">e</text></g><g class="a10 i4 leaf node n8 p2 sample" transform="translate(9.5 3.23842)"><path class="edge" d="M 0 0 V -3.23842 H -9.5"/><rect class="sym" height="6" width="6" x="-3" y="-3"/><text class="lab" transform="translate(0 11)">f</text></g><path class="edge" d="M 0 0 V -30.3954 H -21.375"/><circle class="sym" cx="0" cy="0" r="3"/><text class="lab rgt" transform="translate(3 -7.0)">k</text></g><g class="a15 node n12 p0" transform="translate(-21.375 1.82594)"><g class="a12 i2 leaf node n4 p2 sample" transform="translate(14.25 31.8078)"><path class="edge" d="M 0 0 V -31.8078 H -14.25"/><rect class="sym" height="6" width="6" x="-3" y="-3"/><text class="lab" transform="translate(0 11)">d</text></g><g class="a12 node n11 p1" transform="translate(-14.25 24.6436)"><g class="a11 i0 leaf node n1 p1 sample" transform="translate(-9.5 7.1642)"><path class="edge" d="M 0 0 V -7.1642 H 9.5"/><rect class="sym" height="6" width="6" x="-3" y="-3"/><text class="lab" transform="translate(0 11)">b</text></g><g class="a11 i1 leaf node n3 p1 sample" transform="translate(9.5 7.1642)"><path class="edge" d="M 0 0 V -7.1642 H -9.5"/><rect class="sym" height="6" width="6" x="-3" y="-3"/><text class="lab" transform="translate(0 11)">c</text></g><path class="edge" d="M 0 0 V -24.6436 H 14.25"/><circle class="sym" cx="0" cy="0" r="3"/><text class="lab lft" transform="translate(-3 -7.0)">l</text></g><path class="edge" d="M 0 0 V -1.82594 H 21.375"/><circle class="sym" cx="0" cy="0" r="3"/><text class="lab lft" transform="translate(-3 -7.0)">m</text></g><path class="edge" d="M 0 0 V -5.85307 H 24.9375"/><circle class="sym" cx="0" cy="0" r="3"/><text class="lab lft" transform="translate(-3 -7.0)">p</text></g><path class="edge" d="M 0 0 V -23.1753 H 26.7188"/><circle class="sym" cx="0" cy="0" r="3"/><text class="lab lft" transform="translate(-3 -7.0)">q</text></g><path class="edge" d="M 0 0 V -71.2396 H 27.6094"/><circle class="sym" cx="0" cy="0" r="3"/><text class="lab lft" transform="translate(-3 -7.0)">s</text></g><path class="edge" d="M 0 0 V -10.6982 H -71.6953"/><circle class="sym" cx="0" cy="0" r="3"/><text class="lab rgt" transform="translate(3 -7.0)">t</text></g><g class="a20 i0 leaf node n0 p1 sample" transform="translate(-71.6953 144.6)"><path class="edge" d="M 0 0 V -144.6 H 71.6953"/><rect class="sym" height="6" width="6" x="-3" y="-3"/><text class="lab" transform="translate(0 11)">a</text></g><circle class="sym" cx="0" cy="0" r="3"/><text class="lab" transform="translate(0 -11)">u</text></g></g></g></g></g></svg>