<svg xmlns="http://www.w3.org/2000/svg" xmlns:ev="http://www.w3.org/2001/xml-events" xmlns:xlink="http://www.w3.org/1999/xlink" baseProfile="full" height="250" version="1.1" width="800"><defs><style type="text/css"><![CDATA[.axis {font-weight: bold}.tree, .axis {font-size: 14px; text-anchor:middle}.edge {stroke: black; fill: none}.node > .sym {fill: black; stroke: none}.tree text {dominant-baseline: middle}.tree .lab.lft {text-anchor: end}.tree .lab.rgt {text-anchor: start}.mut {fill: red; font-style: italic}.node:not(.sample) > .sym {visibility: hidden;}]]></style></defs><g class="tree-sequence"><g class="background"><polygon fill="#F1F1F1" points="20,235 20,230 20,210 20,0 273.333,0 273.333,210 563.4,230 563.4,235"/><polygon fill="#F1F1F1" points="728.32,235 728.32,230 526.667,210 526.667,0 780.0,0 780.0,210 780.0,230 780.0,235"/></g><g class="trees"><g class="treebox t0" transform="translate(20 30)"><g class="tree t0"><g class="node n20 p0 root" transform="translate(116.723 30.0)"><g class="a20 m2 m4 node n16 p0 s2 s4" transform="translate(-58.9962 109.956)"><g class="a16 i0 leaf node n1 p0 sample" transform="translate(15.9091 20.0445)"><path class="edge" d="M 0 0 V -20.0445 H -15.9091"/><circle class="sym" cx="0" cy="0" r="3"/><text class="lab" transform="translate(0 12)">c</text></g><g class="a16 node n12 p0" transform="translate(-15.9091 16.9532)"><g class="a12 i0 leaf node n0 p0 sample" transform="translate(-10.6061 3.09124)"><path class="edge" d="M 0 0 V -3.09124 H 10.6061"/><circle class="sym" cx="0" cy="0" r="3"/><text class="lab" transform="translate(0 12)">a</text></g><g class="a12 i4 leaf node n9 p0 sample" transform="translate(10.6061 3.09124)"><path class="edge" d="M 0 0 V -3.09124 H -10.6061"/><circle class="sym" cx="0" cy="0" r="3"/><text class="lab" transform="translate(0 12)">b</text></g><path class="edge" d="M 0 0 V -16.9532 H 15.9091"/><circle class="sym" cx="0" cy="0" r="3"/><text class="lab lft" transform="translate(-3 -6)"/></g><path class="edge" d="M 0 0 V -109.956 H 58.9962"/><circle class="sym" cx="0" cy="0" r="3"/><text class="lab lft" transform="translate(-3 -6)"/><g class="mut m4 s4" transform="translate(0 -36.6518)"><rect class="sym" height="6" transform="translate(-3 -3)" width="6" x="0" y="0"/><text class="lab lft" transform="translate(-5 0)">399 (C→G)</text></g><g class="mut m2 s2" transform="translate(0 -73.3037)"><rect class="sym" height="6" transform="translate(-3 -3)" width="6" x="0" y="0"/><text class="lab lft" transform="translate(-5 0)">185 (C→T)</text></g></g><g class="a20 m1 m3 m5 m6 node n18 p0 s1 s3 s5 s6" transform="translate(58.9962 100.336)"><g class="a18 m0 node n14 p0 s0" transform="translate(35.7955 16.8909)"><g class="a14 i1 leaf node n3 p0 sample" transform="translate(-10.6061 12.7728)"><path class="edge" d="M 0 0 V -12.7728 H 10.6061"/><circle class="sym" cx="0" cy="0" r="3"/><text class="lab" transform="translate(0 12)">i</text></g><g class="a14 i2 leaf node n5 p0 sample" transform="translate(10.6061 12.7728)"><path class="edge" d="M 0 0 V -12.7728 H -10.6061"/><circle class="sym" cx="0" cy="0" r="3"/><text class="lab" transform="translate(0 12)">j</text></g><path class="edge" d="M 0 0 V -16.8909 H -35.7955"/><circle class="sym" cx="0" cy="0" r="3"/><text class="lab rgt" transform="translate(3 -6)"/><g class="mut m0 s0" transform="translate(0 -8.44547)"><rect class="sym" height="6" transform="translate(-3 -3)" width="6" x="0" y="0"/><text class="lab rgt" transform="translate(5 0)">103 (A→T)</text></g></g><g class="a18 node n15 p0" transform="translate(-35.7955 11.4438)"><g class="a15 node n10 p0" transform="translate(29.1667 15.5525)"><g class="a10 i2 leaf node n4 p0 sample" transform="translate(-10.6061 2.66739)"><path class="edge" d="M 0 0 V -2.66739 H 10.6061"/><circle class="sym" cx="0" cy="0" r="3"/><text class="lab" transform="translate(0 12)">g</text></g><g class="a10 i4 leaf node n8 p0 sample" transform="translate(10.6061 2.66739)"><path class="edge" d="M 0 0 V -2.66739 H -10.6061"/><circle class="sym" cx="0" cy="0" r="3"/><text class="lab" transform="translate(0 12)">h</text></g><path class="edge" d="M 0 0 V -15.5525 H -29.1667"/><circle class="sym" cx="0" cy="0" r="3"/><text class="lab rgt" transform="translate(3 -6)"/></g><g class="a15 node n13 p0" transform="translate(-29.1667 12.1666)"><g class="a13 i1 leaf node n2 p0 sample" transform="translate(-15.9091 6.05336)"><path class="edge" d="M 0 0 V -6.05336 H 15.9091"/><circle class="sym" cx="0" cy="0" r="3"/><text class="lab" transform="translate(0 12)">d</text></g><g class="a13 node n11 p0" transform="translate(15.9091 2.99778)"><g class="a11 i3 leaf node n6 p0 sample" transform="translate(-10.6061 3.05558)"><path class="edge" d="M 0 0 V -3.05558 H 10.6061"/><circle class="sym" cx="0" cy="0" r="3"/><text class="lab" transform="translate(0 12)">e</text></g><g class="a11 i3 leaf node n7 p0 sample" transform="translate(10.6061 3.05558)"><path class="edge" d="M 0 0 V -3.05558 H -10.6061"/><circle class="sym" cx="0" cy="0" r="3"/><text class="lab" transform="translate(0 12)">f</text></g><path class="edge" d="M 0 0 V -2.99778 H -15.9091"/><circle class="sym" cx="0" cy="0" r="3"/><text class="lab rgt" transform="translate(3 -6)"/></g><path class="edge" d="M 0 0 V -12.1666 H 29.1667"/><circle class="sym" cx="0" cy="0" r="3"/><text class="lab lft" transform="translate(-3 -6)"/></g><path class="edge" d="M 0 0 V -11.4438 H 35.7955"/><circle class="sym" cx="0" cy="0" r="3"/><text class="lab lft" transform="translate(-3 -6)"/></g><path class="edge" d="M 0 0 V -100.336 H -58.9962"/><circle class="sym" cx="0" cy="0" r="3"/><text class="lab rgt" transform="translate(3 -6)"/><g class="mut m6 s6" transform="translate(0 -20.0672)"><rect class="sym" height="6" transform="translate(-3 -3)" width="6" x="0" y="0"/><text class="lab rgt" transform="translate(5 0)">584 (C→G)</text></g><g class="mut m5 s5" transform="translate(0 -40.1345)"><rect class="sym" height="6" transform="translate(-3 -3)" width="6" x="0" y="0"/><text class="lab rgt" transform="translate(5 0)">541 (C→A)</text></g><g class="mut m3 s3" transform="translate(0 -60.2017)"><rect class="sym" height="6" transform="translate(-3 -3)" width="6" x="0" y="0"/><text class="lab rgt" transform="translate(5 0)">325 (T→G)</text></g><g class="mut m1 s1" transform="translate(0 -80.269)"><rect class="sym" height="6" transform="translate(-3 -3)" width="6" x="0" y="0"/><text class="lab rgt" transform="translate(5 0)">184 (A→T)</text></g></g><circle class="sym" cx="0" cy="0" r="3"/><text class="lab" transform="translate(0 -10)"/></g></g></g><g class="treebox t1" transform="translate(273.333 30)"><g class="tree t1"><g class="node n20 p0 root" transform="translate(155.17 30.0)"><g class="a20 m8 node n14 p0 s8" transform="translate(56.3447 117.227)"><g class="a14 i1 leaf m9 node n3 p0 s9 sample" transform="translate(-10.6061 12.7728)"><path class="edge" d="M 0 0 V -12.7728 H 10.6061"/><circle class="sym" cx="0" cy="0" r="3"/><text class="lab" transform="translate(0 12)">i</text><g class="mut m9 s9" transform="translate(0 -6.38642)"><rect class="sym" height="6" transform="translate(-3 -3)" width="6" x="0" y="0"/><text class="lab lft" transform="translate(-5 0)">835 (A→C)</text></g></g><g class="a14 i2 leaf node n5 p0 sample" transform="translate(10.6061 12.7728)"><path class="edge" d="M 0 0 V -12.7728 H -10.6061"/><circle class="sym" cx="0" cy="0" r="3"/><text class="lab" transform="translate(0 12)">j</text></g><path class="edge" d="M 0 0 V -117.227 H -56.3447"/><circle class="sym" cx="0" cy="0" r="3"/><text class="lab rgt" transform="translate(3 -6)"/><g class="mut m8 s8" transform="translate(0 -58.6136)"><rect class="sym" height="6" transform="translate(-3 -3)" width="6" x="0" y="0"/><text class="lab rgt" transform="translate(5 0)">821 (G→C)</text></g></g><g class="a20 m7 node n17 p0 s7" transform="translate(-56.3447 102.637)"><g class="a17 node n15 p0" transform="translate(41.0985 9.14307)"><g class="a15 node n10 p0" transform="translate(29.1667 15.5525)"><g class="a10 i2 leaf node n4 p0 sample" transform="translate(-10.6061 2.66739)"><path class="edge" d="M 0 0 V -2.66739 H 10.6061"/><circle class="sym" cx="0" cy="0" r="3"/><text class="lab" transform="translate(0 12)">g</text></g><g class="a10 i4 leaf node n8 p0 sample" transform="translate(10.6061 2.66739)"><path class="edge" d="M 0 0 V -2.66739 H -10.6061"/><circle class="sym" cx="0" cy="0" r="3"/><text class="lab" transform="translate(0 12)">h</text></g><path class="edge" d="M 0 0 V -15.5525 H -29.1667"/><circle class="sym" cx="0" cy="0" r="3"/><text class="lab rgt" transform="translate(3 -6)"/></g><g class="a15 node n13 p0" transform="translate(-29.1667 12.1666)"><g class="a13 i1 leaf node n2 p0 sample" transform="translate(-15.9091 6.05336)"><path class="edge" d="M 0 0 V -6.05336 H 15.9091"/><circle class="sym" cx="0" cy="0" r="3"/><text class="lab" transform="translate(0 12)">d</text></g><g class="a13 node n11 p0" transform="translate(15.9091 2.99778)"><g class="a11 i3 leaf node n6 p0 sample" transform="translate(-10.6061 3.05558)"><path class="edge" d="M 0 0 V -3.05558 H 10.6061"/><circle class="sym" cx="0" cy="0" r="3"/><text class="lab" transform="translate(0 12)">e</text></g><g class="a11 i3 leaf node n7 p0 sample" transform="translate(10.6061 3.05558)"><path class="edge" d="M 0 0 V -3.05558 H -10.6061"/><circle class="sym" cx="0" cy="0" r="3"/><text class="lab" transform="translate(0 12)">f</text></g><path class="edge" d="M 0 0 V -2.99778 H -15.9091"/><circle class="sym" cx="0" cy="0" r="3"/><text class="lab rgt" transform="translate(3 -6)"/></g><path class="edge" d="M 0 0 V -12.1666 H 29.1667"/><circle class="sym" cx="0" cy="0" r="3"/><text class="lab lft" transform="translate(-3 -6)"/></g><path class="edge" d="M 0 0 V -9.14307 H -41.0985"/><circle class="sym" cx="0" cy="0" r="3"/><text class="lab rgt" transform="translate(3 -6)"/></g><g class="a17 node n16 p0" transform="translate(-41.0985 7.31852)"><g class="a16 i0 leaf node n1 p0 sample" transform="translate(15.9091 20.0445)"><path class="edge" d="M 0 0 V -20.0445 H -15.9091"/><circle class="sym" cx="0" cy="0" r="3"/><text class="lab" transform="translate(0 12)">c</text></g><g class="a16 node n12 p0" transform="translate(-15.9091 16.9532)"><g class="a12 i0 leaf node n0 p0 sample" transform="translate(-10.6061 3.09124)"><path class="edge" d="M 0 0 V -3.09124 H 10.6061"/><circle class="sym" cx="0" cy="0" r="3"/><text class="lab" transform="translate(0 12)">a</text></g><g class="a12 i4 leaf node n9 p0 sample" transform="translate(10.6061 3.09124)"><path class="edge" d="M 0 0 V -3.09124 H -10.6061"/><circle class="sym" cx="0" cy="0" r="3"/><text class="lab" transform="translate(0 12)">b</text></g><path class="edge" d="M 0 0 V -16.9532 H 15.9091"/><circle class="sym" cx="0" cy="0" r="3"/><text class="lab lft" transform="translate(-3 -6)"/></g><path class="edge" d="M 0 0 V -7.31852 H 41.0985"/><circle class="sym" cx="0" cy="0" r="3"/><text class="lab lft" transform="translate(-3 -6)"/></g><path class="edge" d="M 0 0 V -102.637 H 56.3447"/><circle class="sym" cx="0" cy="0" r="3"/><text class="lab lft" transform="translate(-3 -6)"/><g class="mut m7 s7" transform="translate(0 -51.3185)"><rect class="sym" height="6" transform="translate(-3 -3)" width="6" x="0" y="0"/><text class="lab lft" transform="translate(-5 0)">776 (T→C)</text></g></g><circle class="sym" cx="0" cy="0" r="3"/><text class="lab" transform="translate(0 -10)"/></g></g></g><g class="treebox t2" transform="translate(526.667 30)"><g class="tree t2"><g class="node n20 p0 root" transform="translate(185.994 30.0)"><g class="a20 i2 leaf node n5 p0 sample" transform="translate(36.1269 130.0)"><path class="edge" d="M 0 0 V -130.0 H -36.1269"/><circle class="sym" cx="0" cy="0" r="3"/><text class="lab" transform="translate(0 12)">j</text></g><g class="a20 m10 node n19 p0 s10" transform="translate(-36.1269 94.1793)"><g class="a19 i1 leaf node n3 p0 sample" transform="translate(51.0417 35.8207)"><path class="edge" d="M 0 0 V -35.8207 H -51.0417"/><circle class="sym" cx="0" cy="0" r="3"/><text class="lab" transform="translate(0 12)">i</text></g><g class="a19 node n17 p0" transform="translate(-51.0417 8.4577)"><g class="a17 node n15 p0" transform="translate(41.0985 9.14307)"><g class="a15 node n10 p0" transform="translate(29.1667 15.5525)"><g class="a10 i2 leaf node n4 p0 sample" transform="translate(-10.6061 2.66739)"><path class="edge" d="M 0 0 V -2.66739 H 10.6061"/><circle class="sym" cx="0" cy="0" r="3"/><text class="lab" transform="translate(0 12)">g</text></g><g class="a10 i4 leaf node n8 p0 sample" transform="translate(10.6061 2.66739)"><path class="edge" d="M 0 0 V -2.66739 H -10.6061"/><circle class="sym" cx="0" cy="0" r="3"/><text class="lab" transform="translate(0 12)">h</text></g><path class="edge" d="M 0 0 V -15.5525 H -29.1667"/><circle class="sym" cx="0" cy="0" r="3"/><text class="lab rgt" transform="translate(3 -6)"/></g><g class="a15 node n13 p0" transform="translate(-29.1667 12.1666)"><g class="a13 i1 leaf node n2 p0 sample" transform="translate(-15.9091 6.05336)"><path class="edge" d="M 0 0 V -6.05336 H 15.9091"/><circle class="sym" cx="0" cy="0" r="3"/><text class="lab" transform="translate(0 12)">d</text></g><g class="a13 node n11 p0" transform="translate(15.9091 2.99778)"><g class="a11 i3 leaf node n6 p0 sample" transform="translate(-10.6061 3.05558)"><path class="edge" d="M 0 0 V -3.05558 H 10.6061"/><circle class="sym" cx="0" cy="0" r="3"/><text class="lab" transform="translate(0 12)">e</text></g><g class="a11 i3 leaf node n7 p0 sample" transform="translate(10.6061 3.05558)"><path class="edge" d="M 0 0 V -3.05558 H -10.6061"/><circle class="sym" cx="0" cy="0" r="3"/><text class="lab" transform="translate(0 12)">f</text></g><path class="edge" d="M 0 0 V -2.99778 H -15.9091"/><circle class="sym" cx="0" cy="0" r="3"/><text class="lab rgt" transform="translate(3 -6)"/></g><path class="edge" d="M 0 0 V -12.1666 H 29.1667"/><circle class="sym" cx="0" cy="0" r="3"/><text class="lab lft" transform="translate(-3 -6)"/></g><path class="edge" d="M 0 0 V -9.14307 H -41.0985"/><circle class="sym" cx="0" cy="0" r="3"/><text class="lab rgt" transform="translate(3 -6)"/></g><g class="a17 node n16 p0" transform="translate(-41.0985 7.31852)"><g class="a16 i0 leaf node n1 p0 sample" transform="translate(15.9091 20.0445)"><path class="edge" d="M 0 0 V -20.0445 H -15.9091"/><circle class="sym" cx="0" cy="0" r="3"/><text class="lab" transform="translate(0 12)">c</text></g><g class="a16 node n12 p0" transform="translate(-15.9091 16.9532)"><g class="a12 i0 leaf node n0 p0 sample" transform="translate(-10.6061 3.09124)"><path class="edge" d="M 0 0 V -3.09124 H 10.6061"/><circle class="sym" cx="0" cy="0" r="3"/><text class="lab" transform="translate(0 12)">a</text></g><g class="a12 i4 leaf node n9 p0 sample" transform="translate(10.6061 3.09124)"><path class="edge" d="M 0 0 V -3.09124 H -10.6061"/><circle class="sym" cx="0" cy="0" r="3"/><text class="lab" transform="translate(0 12)">b</text></g><path class="edge" d="M 0 0 V -16.9532 H 15.9091"/><circle class="sym" cx="0" cy="0" r="3"/><text class="lab lft" transform="translate(-3 -6)"/></g><path class="edge" d="M 0 0 V -7.31852 H 41.0985"/><circle class="sym" cx="0" cy="0" r="3"/><text class="lab lft" transform="translate(-3 -6)"/></g><path class="edge" d="M 0 0 V -8.4577 H 51.0417"/><circle class="sym" cx="0" cy="0" r="3"/><text class="lab lft" transform="translate(-3 -6)"/></g><path class="edge" d="M 0 0 V -94.1793 H 36.1269"/><circle class="sym" cx="0" cy="0" r="3"/><text class="lab lft" transform="translate(-3 -6)"/><g class="mut m10 s10" transform="translate(0 -47.0896)"><rect class="sym" height="6" transform="translate(-3 -3)" width="6" x="0" y="0"/><text class="lab lft" transform="translate(-5 0)">980 (C→G)</text></g></g><circle class="sym" cx="0" cy="0" r="3"/><text class="lab" transform="translate(0 -10)"/></g></g></g></g><g class="axis"><line stroke="black" x1="20" x2="780" y1="230" y2="230"/><line stroke="black" x1="20" x2="20" y1="230" y2="235"/><g transform="translate(20, 250)"><text font-size="14" font-weight="bold" text-anchor="middle">0</text></g><line stroke="black" x1="563.4" x2="563.4" y1="230" y2="235"/><g transform="translate(563.4, 250)"><text font-size="14" font-weight="bold" text-anchor="middle">715</text></g><line stroke="black" x1="728.32" x2="728.32" y1="230" y2="235"/><g transform="translate(728.32, 250)"><text font-size="14" font-weight="bold" text-anchor="middle">932</text></g><line stroke="black" x1="780.0" x2="780.0" y1="230" y2="235"/><g transform="translate(780.0, 250)"><text font-size="14" font-weight="bold" text-anchor="middle">1000</text></g></g></g></svg>