<svg baseProfile="full" height="250" id="svg1" version="1.1" width="500" xmlns="http://www.w3.org/2000/svg" xmlns:ev="http://www.w3.org/2001/xml-events" xmlns:xlink="http://www.w3.org/1999/xlink"><defs><style type="text/css"><![CDATA[.background path {fill: #808080; fill-opacity: 0}.background path:nth-child(odd) {fill-opacity: .1}.axes {font-size: 14px}.x-axis .tick .lab {font-weight: bold; dominant-baseline: hanging}.axes, .tree {font-size: 14px; text-anchor: middle}.axes line, .edge {stroke: black; fill: none}.axes .ax-skip {stroke-dasharray: 4}.y-axis .grid {stroke: #FAFAFA}.node > .sym {fill: black; stroke: none}.site > .sym {stroke: black}.mut text {fill: red; font-style: italic}.mut.extra text {fill: hotpink}.mut line {fill: none; stroke: none}.mut .sym {fill: none; stroke: red}.mut.extra .sym {stroke: hotpink}.node .mut .sym {stroke-width: 1.5px}.tree text, .tree-sequence text {dominant-baseline: central}.plotbox .lab.lft {text-anchor: end}.plotbox .lab.rgt {text-anchor: start}#svg1 .tree:not(.t2) .node.a10.n8 > .edge,#svg1 .tree:not(.t2) .node.a10.n9 > .edge,#svg1 .tree:not(.t2) .node.a11.n4 > .edge,#svg1 .tree:not(.t2) .node.a11.n10 > .edge,#svg1 .tree:not(.t2) .node.a12.n2 > .edge,#svg1 .tree:not(.t2) .node.a12.n3 > .edge,#svg1 .tree:not(.t2) .node.a13.n1 > .edge,#svg1 .tree:not(.t2) .node.a13.n7 > .edge,#svg1 .tree:not(.t2) .node.a14.n6 > .edge,#svg1 .tree:not(.t2) .node.a14.n13 > .edge,#svg1 .tree:not(.t2) .node.a15.n11 > .edge,#svg1 .tree:not(.t2) .node.a15.n12 > .edge,#svg1 .tree:not(.t2) .node.a20.n14 > .edge,#svg1 .tree:not(.t2) .node.a20.n19 > .edge{stroke:#00DD00; stroke-width: 2px}.node:not(.sample) > .sym, .node:not(.sample) > .lab {visibility: hidden;}.mut {font-size: 12px} .y-axis .tick .lab {font-size: 85%}]]></style></defs><g class="tree-sequence"><g class="background"><path d="M20,0 l230,0 l0,188.2 l-56.12,25 l0,5 l-173.88,0 l0,-5 l0,-25 l0,-188.2z" /><path d="M250,0 l230,0 l0,188.2 l0,25 l0,5 l-286.12,0 l0,-5 l56.12,-25 l0,-188.2z" /></g><g class="axes"><g class="x-axis"><g class="title" transform="translate(250 250)"><text class="lab" text-anchor="middle" transform="translate(0 -11)">Genome position</text></g><line class="ax-line" x1="20" x2="480" y1="213.2" y2="213.2" /><g class="ticks"><g class="tick" transform="translate(20 213.2)"><line x1="0" x2="0" y1="0" y2="5" /><g transform="translate(0 6)"><text class="lab">0</text></g></g><g class="tick" transform="translate(193.88 213.2)"><line x1="0" x2="0" y1="0" y2="5" /><g transform="translate(0 6)"><text class="lab">189</text></g></g></g></g></g><g class="plotbox trees"><g class="tree t-1" transform="translate(20 0)"><g class="plotbox"><g class="c2 node n20 p0 root" transform="translate(142.609 26.8)"><g class="a20 c2 node n14 p0" transform="translate(43.6406 121.107)"><g class="a14 i3 leaf node n6 p2 sample" transform="translate(14.25 23.4927)"><path class="edge" d="M 0 0 V -23.4927 H -14.25" /><rect class="sym" height="6" width="6" x="-3" y="-3" /><text class="lab" transform="translate(0 11)">j</text></g><g class="a14 c2 node n13 p0" transform="translate(-14.25 13.0082)"><g class="a13 i0 leaf node n1 p1 sample" transform="translate(-9.5 10.4845)"><path class="edge" d="M 0 0 V -10.4845 H 9.5" /><rect class="sym" height="6" width="6" x="-3" y="-3" /><text class="lab" transform="translate(0 11)">h</text></g><g class="a13 i3 leaf node n7 p2 sample" transform="translate(9.5 10.4845)"><path class="edge" d="M 0 0 V -10.4845 H -9.5" /><rect class="sym" height="6" width="6" x="-3" y="-3" /><text class="lab" transform="translate(0 11)">i</text></g><path class="edge" d="M 0 0 V -13.0082 H 14.25" /><circle class="sym" cx="0" cy="0" r="3" /><text class="lab lft" transform="translate(-3 -7.0)">n</text></g><path class="edge" d="M 0 0 V -121.107 H -43.6406" /><circle class="sym" cx="0" cy="0" r="3" /><text class="lab rgt" transform="translate(3 -7.0)">o</text></g><g class="a20 c2 node n19 p0" transform="translate(-43.6406 56.0698)"><g class="a19 i2 leaf node n5 p2 sample" transform="translate(44.5312 88.5302)"><path class="edge" d="M 0 0 V -88.5302 H -44.5312" /><rect class="sym" height="6" width="6" x="-3" y="-3" /><text class="lab" transform="translate(0 11)">g</text></g><g class="a19 c2 node n17 p0" transform="translate(-44.5312 16.8039)"><g class="a17 i0 leaf node n0 p1 sample" transform="translate(-24.9375 71.7263)"><path class="edge" d="M 0 0 V -71.7263 H 24.9375" /><rect class="sym" height="6" width="6" x="-3" y="-3" /><text class="lab" transform="translate(0 11)">a</text></g><g class="a17 c2 node n15 p0" transform="translate(24.9375 48.119)"><g class="a15 c2 node n11 p2" transform="translate(21.375 20.3069)"><g class="a11 i2 leaf node n4 p2 sample" transform="translate(-14.25 3.30029)"><path class="edge" d="M 0 0 V -3.30029 H 14.25" /><rect class="sym" height="6" width="6" x="-3" y="-3" /><text class="lab" transform="translate(0 11)">d</text></g><g class="a11 c2 node n10 p2" transform="translate(14.25 0.5326)"><g class="a10 i4 leaf node n8 p2 sample" transform="translate(-9.5 2.76769)"><path class="edge" d="M 0 0 V -2.76769 H 9.5" /><rect class="sym" height="6" width="6" x="-3" y="-3" /><text class="lab" transform="translate(0 11)">e</text></g><g class="a10 i4 leaf node n9 p2 sample" transform="translate(9.5 2.76769)"><path class="edge" d="M 0 0 V -2.76769 H -9.5" /><rect class="sym" height="6" width="6" x="-3" y="-3" /><text class="lab" transform="translate(0 11)">f</text></g><path class="edge" d="M 0 0 V -0.5326 H -14.25" /><circle class="sym" cx="0" cy="0" r="3" /><text class="lab rgt" transform="translate(3 -7.0)">k</text></g><path class="edge" d="M 0 0 V -20.3069 H -21.375" /><circle class="sym" cx="0" cy="0" r="3" /><text class="lab rgt" transform="translate(3 -7.0)">l</text></g><g class="a15 c2 node n12 p0" transform="translate(-21.375 14.4347)"><g class="a12 i1 leaf node n2 p1 sample" transform="translate(-9.5 9.17257)"><path class="edge" d="M 0 0 V -9.17257 H 9.5" /><rect class="sym" height="6" width="6" x="-3" y="-3" /><text class="lab" transform="translate(0 11)">b</text></g><g class="a12 i1 leaf node n3 p1 sample" transform="translate(9.5 9.17257)"><path class="edge" d="M 0 0 V -9.17257 H -9.5" /><rect class="sym" height="6" width="6" x="-3" y="-3" /><text class="lab" transform="translate(0 11)">c</text></g><path class="edge" d="M 0 0 V -14.4347 H 21.375" /><circle class="sym" cx="0" cy="0" r="3" /><text class="lab lft" transform="translate(-3 -7.0)">m</text></g><path class="edge" d="M 0 0 V -48.119 H -24.9375" /><circle class="sym" cx="0" cy="0" r="3" /><text class="lab rgt" transform="translate(3 -7.0)">p</text></g><path class="edge" d="M 0 0 V -16.8039 H 44.5312" /><circle class="sym" cx="0" cy="0" r="3" /><text class="lab lft" transform="translate(-3 -7.0)">r</text></g><path class="edge" d="M 0 0 V -56.0698 H 43.6406" /><circle class="sym" cx="0" cy="0" r="3" /><text class="lab lft" transform="translate(-3 -7.0)">t</text></g><circle class="sym" cx="0" cy="0" r="3" /><text class="lab" transform="translate(0 -11)">u</text></g></g></g><g class="tree t0" transform="translate(250 0)"><g class="plotbox"><g class="c2 node n20 p0 root" transform="translate(128.359 26.8)"><g class="a20 c2 node n14 p0" transform="translate(57.8906 121.107)"><g class="a14 i3 leaf node n6 p2 sample" transform="translate(14.25 23.4927)"><path class="edge" d="M 0 0 V -23.4927 H -14.25" /><rect class="sym" height="6" width="6" x="-3" y="-3" /><text class="lab" transform="translate(0 11)">j</text></g><g class="a14 c2 node n13 p0" transform="translate(-14.25 13.0082)"><g class="a13 i0 leaf node n1 p1 sample" transform="translate(-9.5 10.4845)"><path class="edge" d="M 0 0 V -10.4845 H 9.5" /><rect class="sym" height="6" width="6" x="-3" y="-3" /><text class="lab" transform="translate(0 11)">h</text></g><g class="a13 i3 leaf node n7 p2 sample" transform="translate(9.5 10.4845)"><path class="edge" d="M 0 0 V -10.4845 H -9.5" /><rect class="sym" height="6" width="6" x="-3" y="-3" /><text class="lab" transform="translate(0 11)">i</text></g><path class="edge" d="M 0 0 V -13.0082 H 14.25" /><circle class="sym" cx="0" cy="0" r="3" /><text class="lab lft" transform="translate(-3 -7.0)">n</text></g><path class="edge" d="M 0 0 V -121.107 H -57.8906" /><circle class="sym" cx="0" cy="0" r="3" /><text class="lab rgt" transform="translate(3 -7.0)">o</text></g><g class="a20 c2 node n19 p0" transform="translate(-57.8906 56.0698)"><g class="a19 i0 leaf node n0 p1 sample" transform="translate(-40.9688 88.5302)"><path class="edge" d="M 0 0 V -88.5302 H 40.9688" /><rect class="sym" height="6" width="6" x="-3" y="-3" /><text class="lab" transform="translate(0 11)">a</text></g><g class="a19 c2 node n18 p0" transform="translate(40.9688 13.8521)"><g class="a18 i2 leaf node n5 p2 sample" transform="translate(32.0625 74.678)"><path class="edge" d="M 0 0 V -74.678 H -32.0625" /><rect class="sym" height="6" width="6" x="-3" y="-3" /><text class="lab" transform="translate(0 11)">g</text></g><g class="a18 c2 node n15 p0" transform="translate(-32.0625 51.0708)"><g class="a15 c2 node n11 p2" transform="translate(21.375 20.3069)"><g class="a11 i2 leaf node n4 p2 sample" transform="translate(-14.25 3.30029)"><path class="edge" d="M 0 0 V -3.30029 H 14.25" /><rect class="sym" height="6" width="6" x="-3" y="-3" /><text class="lab" transform="translate(0 11)">d</text></g><g class="a11 c2 node n10 p2" transform="translate(14.25 0.5326)"><g class="a10 i4 leaf node n8 p2 sample" transform="translate(-9.5 2.76769)"><path class="edge" d="M 0 0 V -2.76769 H 9.5" /><rect class="sym" height="6" width="6" x="-3" y="-3" /><text class="lab" transform="translate(0 11)">e</text></g><g class="a10 i4 leaf node n9 p2 sample" transform="translate(9.5 2.76769)"><path class="edge" d="M 0 0 V -2.76769 H -9.5" /><rect class="sym" height="6" width="6" x="-3" y="-3" /><text class="lab" transform="translate(0 11)">f</text></g><path class="edge" d="M 0 0 V -0.5326 H -14.25" /><circle class="sym" cx="0" cy="0" r="3" /><text class="lab rgt" transform="translate(3 -7.0)">k</text></g><path class="edge" d="M 0 0 V -20.3069 H -21.375" /><circle class="sym" cx="0" cy="0" r="3" /><text class="lab rgt" transform="translate(3 -7.0)">l</text></g><g class="a15 c2 node n12 p0" transform="translate(-21.375 14.4347)"><g class="a12 i1 leaf node n2 p1 sample" transform="translate(-9.5 9.17257)"><path class="edge" d="M 0 0 V -9.17257 H 9.5" /><rect class="sym" height="6" width="6" x="-3" y="-3" /><text class="lab" transform="translate(0 11)">b</text></g><g class="a12 i1 leaf node n3 p1 sample" transform="translate(9.5 9.17257)"><path class="edge" d="M 0 0 V -9.17257 H -9.5" /><rect class="sym" height="6" width="6" x="-3" y="-3" /><text class="lab" transform="translate(0 11)">c</text></g><path class="edge" d="M 0 0 V -14.4347 H 21.375" /><circle class="sym" cx="0" cy="0" r="3" /><text class="lab lft" transform="translate(-3 -7.0)">m</text></g><path class="edge" d="M 0 0 V -51.0708 H 32.0625" /><circle class="sym" cx="0" cy="0" r="3" /><text class="lab lft" transform="translate(-3 -7.0)">p</text></g><path class="edge" d="M 0 0 V -13.8521 H -40.9688" /><circle class="sym" cx="0" cy="0" r="3" /><text class="lab rgt" transform="translate(3 -7.0)">s</text></g><path class="edge" d="M 0 0 V -56.0698 H 57.8906" /><circle class="sym" cx="0" cy="0" r="3" /><text class="lab lft" transform="translate(-3 -7.0)">t</text></g><circle class="sym" cx="0" cy="0" r="3" /><text class="lab" transform="translate(0 -11)">u</text></g></g></g></g></g></svg>