<svg xmlns="http://www.w3.org/2000/svg" xmlns:ev="http://www.w3.org/2001/xml-events" xmlns:xlink="http://www.w3.org/1999/xlink" baseProfile="full" height="250" version="1.1" width="800"><defs><style type="text/css"><![CDATA[.background path {fill: #808080; fill-opacity:0}.background path:nth-child(odd) {fill-opacity:.1}.axes {font-size: 14px}.x-axis .tick .lab {font-weight: bold}.axes, .tree {font-size: 14px; text-anchor:middle}.y-axis line.grid {stroke: #FAFAFA}.y-axis > .lab text {transform: translateX(0.8em) rotate(-90deg)}.x-axis .tick g {transform: translateY(0.9em)}.x-axis > .lab text {transform: translateY(-0.8em)}.axes line, .edge {stroke:black; fill:none}.node > .sym {fill: black; stroke: none}.site > .sym {stroke: black}.mut text {fill: red; font-style: italic}.mut.extra text {fill: hotpink}.mut line {fill: none; stroke: none}.mut .sym {fill: none; stroke: red}.mut.extra .sym {stroke: hotpink}.node .mut .sym {stroke-width: 1.5px}.tree text, .tree-sequence text {dominant-baseline: central}.plotbox .lab.lft {text-anchor: end}.plotbox .lab.rgt {text-anchor: start}.node:not(.sample) > .sym {visibility: hidden;}]]></style></defs><g class="tree-sequence"><g class="background"><path d="M20,0 l253.333,0 l0,188.2 l290.067,25 l0,5 l-543.4,0 l0,-5 l0,-25 l0,-188.2z"/><path d="M273.333,0 l253.333,0 l0,188.2 l201.653,25 l0,5 l-164.92,0 l0,-5 l-290.067,-25 l0,-188.2z"/><path d="M526.667,0 l253.333,0 l0,188.2 l0,25 l0,5 l-51.68,0 l0,-5 l-201.653,-25 l0,-188.2z"/></g><g class="axes"><g class="x-axis"><g class="lab" transform="translate(400,250)"><text text-anchor="middle">Genome position</text></g><line x1="20" x2="780" y1="213.2" y2="213.2"/><g class="tick" transform="translate(20 213.2)"><line x1="0" x2="0" y1="0" y2="5"/><g class="lab" transform="translate(0,5)"><text>0</text></g></g><g class="tick" transform="translate(563.4 213.2)"><line x1="0" x2="0" y1="0" y2="5"/><g class="lab" transform="translate(0,5)"><text>715</text></g></g><g class="tick" transform="translate(728.32 213.2)"><line x1="0" x2="0" y1="0" y2="5"/><g class="lab" transform="translate(0,5)"><text>932</text></g></g><g class="tick" transform="translate(780 213.2)"><line x1="0" x2="0" y1="0" y2="5"/><g class="lab" transform="translate(0,5)"><text>1000</text></g></g><g class="site s0" transform="translate(98.28 213.2)"><line class="sym" x1="0" x2="0" y1="0" y2="-10"/><g class="mut m0"><polyline class="sym" points="2.5,-6.5 0,-1.5 -2.5,-6.5"/></g></g><g class="site s1" transform="translate(159.84 213.2)"><line class="sym" x1="0" x2="0" y1="0" y2="-10"/><g class="mut m1"><polyline class="sym" points="2.5,-6.5 0,-1.5 -2.5,-6.5"/></g></g><g class="site s2" transform="translate(160.6 213.2)"><line class="sym" x1="0" x2="0" y1="0" y2="-10"/><g class="mut m2"><polyline class="sym" points="2.5,-6.5 0,-1.5 -2.5,-6.5"/></g></g><g class="site s3" transform="translate(267 213.2)"><line class="sym" x1="0" x2="0" y1="0" y2="-10"/><g class="mut m3"><polyline class="sym" points="2.5,-6.5 0,-1.5 -2.5,-6.5"/></g></g><g class="site s4" transform="translate(323.24 213.2)"><line class="sym" x1="0" x2="0" y1="0" y2="-10"/><g class="mut m4"><polyline class="sym" points="2.5,-6.5 0,-1.5 -2.5,-6.5"/></g></g><g class="site s5" transform="translate(431.16 213.2)"><line class="sym" x1="0" x2="0" y1="0" y2="-10"/><g class="mut m5"><polyline class="sym" points="2.5,-6.5 0,-1.5 -2.5,-6.5"/></g></g><g class="site s6" transform="translate(463.84 213.2)"><line class="sym" x1="0" x2="0" y1="0" y2="-10"/><g class="mut m6"><polyline class="sym" points="2.5,-6.5 0,-1.5 -2.5,-6.5"/></g></g><g class="site s7" transform="translate(609.76 213.2)"><line class="sym" x1="0" x2="0" y1="0" y2="-10"/><g class="mut m7"><polyline class="sym" points="2.5,-6.5 0,-1.5 -2.5,-6.5"/></g></g><g class="site s8" transform="translate(643.96 213.2)"><line class="sym" x1="0" x2="0" y1="0" y2="-10"/><g class="mut m8"><polyline class="sym" points="2.5,-6.5 0,-1.5 -2.5,-6.5"/></g></g><g class="site s9" transform="translate(654.6 213.2)"><line class="sym" x1="0" x2="0" y1="0" y2="-10"/><g class="mut m9"><polyline class="sym" points="2.5,-6.5 0,-1.5 -2.5,-6.5"/></g></g><g class="site s10" transform="translate(764.8 213.2)"><line class="sym" x1="0" x2="0" y1="0" y2="-10"/><g class="mut m10"><polyline class="sym" points="2.5,-6.5 0,-1.5 -2.5,-6.5"/></g></g></g></g><g class="plotbox trees"><g class="tree t0" transform="translate(20 0)"><g class="plotbox"><g class="node n20 p0 root" transform="translate(116.667 26.8)"><g class="a20 m2 m4 node n16 p0 s2 s4" transform="translate(-59.3333 122.304)"><g class="a16 i0 leaf node n1 p0 sample" transform="translate(16 22.2956)"><path class="edge" d="M 0 0 V -22.2956 H -16"/><rect class="sym" height="6" width="6" x="-3" y="-3"/><text class="lab" transform="translate(0 11)">c</text></g><g class="a16 node n12 p0" transform="translate(-16 18.8572)"><g class="a12 i0 leaf node n0 p0 sample" transform="translate(-10.6667 3.43841)"><path class="edge" d="M 0 0 V -3.43841 H 10.6667"/><rect class="sym" height="6" width="6" x="-3" y="-3"/><text class="lab" transform="translate(0 11)">a</text></g><g class="a12 i4 leaf node n9 p0 sample" transform="translate(10.6667 3.43841)"><path class="edge" d="M 0 0 V -3.43841 H -10.6667"/><rect class="sym" height="6" width="6" x="-3" y="-3"/><text class="lab" transform="translate(0 11)">b</text></g><path class="edge" d="M 0 0 V -18.8572 H 16"/><circle class="sym" cx="0" cy="0" r="3"/><text class="lab lft" transform="translate(-3 -7.0)"/></g><path class="edge" d="M 0 0 V -122.304 H 59.3333"/><g class="mut m4 s4" transform="translate(0 -119.081)"><line x1="0" x2="0" y1="0" y2="119.081"/><path class="sym" d="M -3,-3 l 6,6 M -3,3 l 6,-6"/><text class="lab lft" transform="translate(-5 0)">399 (C→G)</text></g><g class="mut m2 s2" transform="translate(0 -49.2105)"><line x1="0" x2="0" y1="0" y2="49.2105"/><path class="sym" d="M -3,-3 l 6,6 M -3,3 l 6,-6"/><text class="lab lft" transform="translate(-5 0)">185 (C→T)</text></g><circle class="sym" cx="0" cy="0" r="3"/><text class="lab lft" transform="translate(-3 -7.0)"/></g><g class="a20 m1 m3 m5 m6 node n18 p0 s1 s3 s5 s6" transform="translate(59.3333 111.605)"><g class="a18 m0 node n14 p0 s0" transform="translate(36 18.7879)"><g class="a14 i1 leaf node n3 p0 sample" transform="translate(-10.6667 14.2073)"><path class="edge" d="M 0 0 V -14.2073 H 10.6667"/><rect class="sym" height="6" width="6" x="-3" y="-3"/><text class="lab" transform="translate(0 11)">i</text></g><g class="a14 i2 leaf node n5 p0 sample" transform="translate(10.6667 14.2073)"><path class="edge" d="M 0 0 V -14.2073 H -10.6667"/><rect class="sym" height="6" width="6" x="-3" y="-3"/><text class="lab" transform="translate(0 11)">j</text></g><path class="edge" d="M 0 0 V -18.7879 H -36"/><g class="mut m0 s0" transform="translate(0 -8.58295)"><line x1="0" x2="0" y1="0" y2="8.58295"/><path class="sym" d="M -3,-3 l 6,6 M -3,3 l 6,-6"/><text class="lab rgt" transform="translate(5 0)">103 (A→T)</text></g><circle class="sym" cx="0" cy="0" r="3"/><text class="lab rgt" transform="translate(3 -7.0)"/></g><g class="a18 node n15 p0" transform="translate(-36 12.7291)"><g class="a15 node n10 p0" transform="translate(29.3333 17.2992)"><g class="a10 i2 leaf node n4 p0 sample" transform="translate(-10.6667 2.96696)"><path class="edge" d="M 0 0 V -2.96696 H 10.6667"/><rect class="sym" height="6" width="6" x="-3" y="-3"/><text class="lab" transform="translate(0 11)">g</text></g><g class="a10 i4 leaf node n8 p0 sample" transform="translate(10.6667 2.96696)"><path class="edge" d="M 0 0 V -2.96696 H -10.6667"/><rect class="sym" height="6" width="6" x="-3" y="-3"/><text class="lab" transform="translate(0 11)">h</text></g><path class="edge" d="M 0 0 V -17.2992 H -29.3333"/><circle class="sym" cx="0" cy="0" r="3"/><text class="lab rgt" transform="translate(3 -7.0)"/></g><g class="a15 node n13 p0" transform="translate(-29.3333 13.533)"><g class="a13 i1 leaf node n2 p0 sample" transform="translate(-16 6.7332)"><path class="edge" d="M 0 0 V -6.7332 H 16"/><rect class="sym" height="6" width="6" x="-3" y="-3"/><text class="lab" transform="translate(0 11)">d</text></g><g class="a13 node n11 p0" transform="translate(16 3.33445)"><g class="a11 i3 leaf node n6 p0 sample" transform="translate(-10.6667 3.39875)"><path class="edge" d="M 0 0 V -3.39875 H 10.6667"/><rect class="sym" height="6" width="6" x="-3" y="-3"/><text class="lab" transform="translate(0 11)">e</text></g><g class="a11 i3 leaf node n7 p0 sample" transform="translate(10.6667 3.39875)"><path class="edge" d="M 0 0 V -3.39875 H -10.6667"/><rect class="sym" height="6" width="6" x="-3" y="-3"/><text class="lab" transform="translate(0 11)">f</text></g><path class="edge" d="M 0 0 V -3.33445 H -16"/><circle class="sym" cx="0" cy="0" r="3"/><text class="lab rgt" transform="translate(3 -7.0)"/></g><path class="edge" d="M 0 0 V -13.533 H 29.3333"/><circle class="sym" cx="0" cy="0" r="3"/><text class="lab lft" transform="translate(-3 -7.0)"/></g><path class="edge" d="M 0 0 V -12.7291 H 36"/><circle class="sym" cx="0" cy="0" r="3"/><text class="lab lft" transform="translate(-3 -7.0)"/></g><path class="edge" d="M 0 0 V -111.605 H -59.3333"/><g class="mut m5 s5" transform="translate(0 -87.0868)"><line x1="0" x2="0" y1="0" y2="87.0868"/><path class="sym" d="M -3,-3 l 6,6 M -3,3 l 6,-6"/><text class="lab rgt" transform="translate(5 0)">541 (C→A)</text></g><g class="mut m3 s3" transform="translate(0 -60.7854)"><line x1="0" x2="0" y1="0" y2="60.7854"/><path class="sym" d="M -3,-3 l 6,6 M -3,3 l 6,-6"/><text class="lab rgt" transform="translate(5 0)">325 (T→G)</text></g><g class="mut m6 s6" transform="translate(0 -34.1916)"><line x1="0" x2="0" y1="0" y2="34.1916"/><path class="sym" d="M -3,-3 l 6,6 M -3,3 l 6,-6"/><text class="lab rgt" transform="translate(5 0)">584 (C→G)</text></g><g class="mut m1 s1" transform="translate(0 -24.7716)"><line x1="0" x2="0" y1="0" y2="24.7716"/><path class="sym" d="M -3,-3 l 6,6 M -3,3 l 6,-6"/><text class="lab rgt" transform="translate(5 0)">184 (A→T)</text></g><circle class="sym" cx="0" cy="0" r="3"/><text class="lab rgt" transform="translate(3 -7.0)"/></g><circle class="sym" cx="0" cy="0" r="3"/><text class="lab" transform="translate(0 -11)"/></g></g></g><g class="tree t1" transform="translate(273.333 0)"><g class="plotbox"><g class="node n20 p0 root" transform="translate(155.333 26.8)"><g class="a20 m8 node n14 p0 s8" transform="translate(56.6667 130.393)"><g class="a14 i1 leaf m9 node n3 p0 s9 sample" transform="translate(-10.6667 14.2073)"><path class="edge" d="M 0 0 V -14.2073 H 10.6667"/><g class="mut m9 s9" transform="translate(0 -0.266359)"><line x1="0" x2="0" y1="0" y2="0.266359"/><path class="sym" d="M -3,-3 l 6,6 M -3,3 l 6,-6"/><text class="lab lft" transform="translate(-5 0)">835 (A→C)</text></g><rect class="sym" height="6" width="6" x="-3" y="-3"/><text class="lab" transform="translate(0 11)">i</text></g><g class="a14 i2 leaf node n5 p0 sample" transform="translate(10.6667 14.2073)"><path class="edge" d="M 0 0 V -14.2073 H -10.6667"/><rect class="sym" height="6" width="6" x="-3" y="-3"/><text class="lab" transform="translate(0 11)">j</text></g><path class="edge" d="M 0 0 V -130.393 H -56.6667"/><g class="mut m8 s8" transform="translate(0 -77.0442)"><line x1="0" x2="0" y1="0" y2="77.0442"/><path class="sym" d="M -3,-3 l 6,6 M -3,3 l 6,-6"/><text class="lab rgt" transform="translate(5 0)">821 (G→C)</text></g><circle class="sym" cx="0" cy="0" r="3"/><text class="lab rgt" transform="translate(3 -7.0)"/></g><g class="a20 m7 node n17 p0 s7" transform="translate(-56.6667 114.164)"><g class="a17 node n15 p0" transform="translate(41.3333 10.1699)"><g class="a15 node n10 p0" transform="translate(29.3333 17.2992)"><g class="a10 i2 leaf node n4 p0 sample" transform="translate(-10.6667 2.96696)"><path class="edge" d="M 0 0 V -2.96696 H 10.6667"/><rect class="sym" height="6" width="6" x="-3" y="-3"/><text class="lab" transform="translate(0 11)">g</text></g><g class="a10 i4 leaf node n8 p0 sample" transform="translate(10.6667 2.96696)"><path class="edge" d="M 0 0 V -2.96696 H -10.6667"/><rect class="sym" height="6" width="6" x="-3" y="-3"/><text class="lab" transform="translate(0 11)">h</text></g><path class="edge" d="M 0 0 V -17.2992 H -29.3333"/><circle class="sym" cx="0" cy="0" r="3"/><text class="lab rgt" transform="translate(3 -7.0)"/></g><g class="a15 node n13 p0" transform="translate(-29.3333 13.533)"><g class="a13 i1 leaf node n2 p0 sample" transform="translate(-16 6.7332)"><path class="edge" d="M 0 0 V -6.7332 H 16"/><rect class="sym" height="6" width="6" x="-3" y="-3"/><text class="lab" transform="translate(0 11)">d</text></g><g class="a13 node n11 p0" transform="translate(16 3.33445)"><g class="a11 i3 leaf node n6 p0 sample" transform="translate(-10.6667 3.39875)"><path class="edge" d="M 0 0 V -3.39875 H 10.6667"/><rect class="sym" height="6" width="6" x="-3" y="-3"/><text class="lab" transform="translate(0 11)">e</text></g><g class="a11 i3 leaf node n7 p0 sample" transform="translate(10.6667 3.39875)"><path class="edge" d="M 0 0 V -3.39875 H -10.6667"/><rect class="sym" height="6" width="6" x="-3" y="-3"/><text class="lab" transform="translate(0 11)">f</text></g><path class="edge" d="M 0 0 V -3.33445 H -16"/><circle class="sym" cx="0" cy="0" r="3"/><text class="lab rgt" transform="translate(3 -7.0)"/></g><path class="edge" d="M 0 0 V -13.533 H 29.3333"/><circle class="sym" cx="0" cy="0" r="3"/><text class="lab lft" transform="translate(-3 -7.0)"/></g><path class="edge" d="M 0 0 V -10.1699 H -41.3333"/><circle class="sym" cx="0" cy="0" r="3"/><text class="lab rgt" transform="translate(3 -7.0)"/></g><g class="a17 node n16 p0" transform="translate(-41.3333 8.14044)"><g class="a16 i0 leaf node n1 p0 sample" transform="translate(16 22.2956)"><path class="edge" d="M 0 0 V -22.2956 H -16"/><rect class="sym" height="6" width="6" x="-3" y="-3"/><text class="lab" transform="translate(0 11)">c</text></g><g class="a16 node n12 p0" transform="translate(-16 18.8572)"><g class="a12 i0 leaf node n0 p0 sample" transform="translate(-10.6667 3.43841)"><path class="edge" d="M 0 0 V -3.43841 H 10.6667"/><rect class="sym" height="6" width="6" x="-3" y="-3"/><text class="lab" transform="translate(0 11)">a</text></g><g class="a12 i4 leaf node n9 p0 sample" transform="translate(10.6667 3.43841)"><path class="edge" d="M 0 0 V -3.43841 H -10.6667"/><rect class="sym" height="6" width="6" x="-3" y="-3"/><text class="lab" transform="translate(0 11)">b</text></g><path class="edge" d="M 0 0 V -18.8572 H 16"/><circle class="sym" cx="0" cy="0" r="3"/><text class="lab lft" transform="translate(-3 -7.0)"/></g><path class="edge" d="M 0 0 V -8.14044 H 41.3333"/><circle class="sym" cx="0" cy="0" r="3"/><text class="lab lft" transform="translate(-3 -7.0)"/></g><path class="edge" d="M 0 0 V -114.164 H 56.6667"/><g class="mut m7 s7" transform="translate(0 -34.9753)"><line x1="0" x2="0" y1="0" y2="34.9753"/><path class="sym" d="M -3,-3 l 6,6 M -3,3 l 6,-6"/><text class="lab lft" transform="translate(-5 0)">776 (T→C)</text></g><circle class="sym" cx="0" cy="0" r="3"/><text class="lab lft" transform="translate(-3 -7.0)"/></g><circle class="sym" cx="0" cy="0" r="3"/><text class="lab" transform="translate(0 -11)"/></g></g></g><g class="tree t2" transform="translate(526.667 0)"><g class="plotbox"><g class="node n20 p0 root" transform="translate(186.333 26.8)"><g class="a20 i2 leaf node n5 p0 sample" transform="translate(36.3333 144.6)"><path class="edge" d="M 0 0 V -144.6 H -36.3333"/><rect class="sym" height="6" width="6" x="-3" y="-3"/><text class="lab" transform="translate(0 11)">j</text></g><g class="a20 m10 node n19 p0 s10" transform="translate(-36.3333 104.756)"><g class="a19 i1 leaf node n3 p0 sample" transform="translate(51.3333 39.8437)"><path class="edge" d="M 0 0 V -39.8437 H -51.3333"/><rect class="sym" height="6" width="6" x="-3" y="-3"/><text class="lab" transform="translate(0 11)">i</text></g><g class="a19 node n17 p0" transform="translate(-51.3333 9.40757)"><g class="a17 node n15 p0" transform="translate(41.3333 10.1699)"><g class="a15 node n10 p0" transform="translate(29.3333 17.2992)"><g class="a10 i2 leaf node n4 p0 sample" transform="translate(-10.6667 2.96696)"><path class="edge" d="M 0 0 V -2.96696 H 10.6667"/><rect class="sym" height="6" width="6" x="-3" y="-3"/><text class="lab" transform="translate(0 11)">g</text></g><g class="a10 i4 leaf node n8 p0 sample" transform="translate(10.6667 2.96696)"><path class="edge" d="M 0 0 V -2.96696 H -10.6667"/><rect class="sym" height="6" width="6" x="-3" y="-3"/><text class="lab" transform="translate(0 11)">h</text></g><path class="edge" d="M 0 0 V -17.2992 H -29.3333"/><circle class="sym" cx="0" cy="0" r="3"/><text class="lab rgt" transform="translate(3 -7.0)"/></g><g class="a15 node n13 p0" transform="translate(-29.3333 13.533)"><g class="a13 i1 leaf node n2 p0 sample" transform="translate(-16 6.7332)"><path class="edge" d="M 0 0 V -6.7332 H 16"/><rect class="sym" height="6" width="6" x="-3" y="-3"/><text class="lab" transform="translate(0 11)">d</text></g><g class="a13 node n11 p0" transform="translate(16 3.33445)"><g class="a11 i3 leaf node n6 p0 sample" transform="translate(-10.6667 3.39875)"><path class="edge" d="M 0 0 V -3.39875 H 10.6667"/><rect class="sym" height="6" width="6" x="-3" y="-3"/><text class="lab" transform="translate(0 11)">e</text></g><g class="a11 i3 leaf node n7 p0 sample" transform="translate(10.6667 3.39875)"><path class="edge" d="M 0 0 V -3.39875 H -10.6667"/><rect class="sym" height="6" width="6" x="-3" y="-3"/><text class="lab" transform="translate(0 11)">f</text></g><path class="edge" d="M 0 0 V -3.33445 H -16"/><circle class="sym" cx="0" cy="0" r="3"/><text class="lab rgt" transform="translate(3 -7.0)"/></g><path class="edge" d="M 0 0 V -13.533 H 29.3333"/><circle class="sym" cx="0" cy="0" r="3"/><text class="lab lft" transform="translate(-3 -7.0)"/></g><path class="edge" d="M 0 0 V -10.1699 H -41.3333"/><circle class="sym" cx="0" cy="0" r="3"/><text class="lab rgt" transform="translate(3 -7.0)"/></g><g class="a17 node n16 p0" transform="translate(-41.3333 8.14044)"><g class="a16 i0 leaf node n1 p0 sample" transform="translate(16 22.2956)"><path class="edge" d="M 0 0 V -22.2956 H -16"/><rect class="sym" height="6" width="6" x="-3" y="-3"/><text class="lab" transform="translate(0 11)">c</text></g><g class="a16 node n12 p0" transform="translate(-16 18.8572)"><g class="a12 i0 leaf node n0 p0 sample" transform="translate(-10.6667 3.43841)"><path class="edge" d="M 0 0 V -3.43841 H 10.6667"/><rect class="sym" height="6" width="6" x="-3" y="-3"/><text class="lab" transform="translate(0 11)">a</text></g><g class="a12 i4 leaf node n9 p0 sample" transform="translate(10.6667 3.43841)"><path class="edge" d="M 0 0 V -3.43841 H -10.6667"/><rect class="sym" height="6" width="6" x="-3" y="-3"/><text class="lab" transform="translate(0 11)">b</text></g><path class="edge" d="M 0 0 V -18.8572 H 16"/><circle class="sym" cx="0" cy="0" r="3"/><text class="lab lft" transform="translate(-3 -7.0)"/></g><path class="edge" d="M 0 0 V -8.14044 H 41.3333"/><circle class="sym" cx="0" cy="0" r="3"/><text class="lab lft" transform="translate(-3 -7.0)"/></g><path class="edge" d="M 0 0 V -9.40757 H 51.3333"/><circle class="sym" cx="0" cy="0" r="3"/><text class="lab lft" transform="translate(-3 -7.0)"/></g><path class="edge" d="M 0 0 V -104.756 H 36.3333"/><g class="mut m10 s10" transform="translate(0 -98.0921)"><line x1="0" x2="0" y1="0" y2="98.0921"/><path class="sym" d="M -3,-3 l 6,6 M -3,3 l 6,-6"/><text class="lab lft" transform="translate(-5 0)">980 (C→G)</text></g><circle class="sym" cx="0" cy="0" r="3"/><text class="lab lft" transform="translate(-3 -7.0)"/></g><circle class="sym" cx="0" cy="0" r="3"/><text class="lab" transform="translate(0 -11)"/></g></g></g></g></g></svg>