<svg xmlns="http://www.w3.org/2000/svg" xmlns:ev="http://www.w3.org/2001/xml-events" xmlns:xlink="http://www.w3.org/1999/xlink" baseProfile="full" height="250" version="1.1" width="800"><defs><style type="text/css"><![CDATA[.background path {fill: #808080; fill-opacity: 0}.background path:nth-child(odd) {fill-opacity: .1}.axes {font-size: 14px}.x-axis .tick .lab {font-weight: bold; dominant-baseline: hanging}.axes, .tree {font-size: 14px; text-anchor: middle}.axes line, .edge {stroke: black; fill: none}.y-axis .grid {stroke: #FAFAFA}.node > .sym {fill: black; stroke: none}.site > .sym {stroke: black}.mut text {fill: red; font-style: italic}.mut.extra text {fill: hotpink}.mut line {fill: none; stroke: none}.mut .sym {fill: none; stroke: red}.mut.extra .sym {stroke: hotpink}.node .mut .sym {stroke-width: 1.5px}.tree text, .tree-sequence text {dominant-baseline: central}.plotbox .lab.lft {text-anchor: end}.plotbox .lab.rgt {text-anchor: start}.node:not(.sample) > .sym, .node:not(.sample) > .lab {visibility: hidden;}.mut {font-size: 12px} .y-axis .tick .lab {font-size: 85%}]]></style></defs><g class="tree-sequence"><g class="background"><path d="M56.8,0 l241.067,0 l0,188.2 l178.389,25 l0,5 l-419.456,0 l0,-5 l0,-25 l0,-188.2z"/><path d="M297.867,0 l241.067,0 l0,188.2 l120.292,25 l0,5 l-182.97,0 l0,-5 l-178.389,-25 l0,-188.2z"/><path d="M538.933,0 l241.067,0 l0,188.2 l0,25 l0,5 l-120.774,0 l0,-5 l-120.292,-25 l0,-188.2z"/></g><g class="axes"><g class="x-axis"><g transform="translate(418.4 250)"><text class="lab" text-anchor="middle" transform="translate(0 -11)">Genome position</text></g><line x1="56.8" x2="780" y1="213.2" y2="213.2"/><g class="ticks"><g class="tick" transform="translate(56.8 213.2)"><line x1="0" x2="0" y1="0" y2="5"/><g transform="translate(0 6)"><text class="lab">0</text></g></g><g class="tick" transform="translate(476.256 213.2)"><line x1="0" x2="0" y1="0" y2="5"/><g transform="translate(0 6)"><text class="lab">580</text></g></g><g class="tick" transform="translate(659.226 213.2)"><line x1="0" x2="0" y1="0" y2="5"/><g transform="translate(0 6)"><text class="lab">833</text></g></g><g class="tick" transform="translate(780 213.2)"><line x1="0" x2="0" y1="0" y2="5"/><g transform="translate(0 6)"><text class="lab">1000</text></g></g></g></g><g class="y-axis"><g transform="translate(0 90.7)"><text class="lab" text-anchor="middle" transform="translate(11) rotate(-90)">Time ago</text></g><line x1="56.8" x2="56.8" y1="171.4" y2="10"/><g class="ticks"><g class="tick" transform="translate(56.8 171.4)"><line x1="0" x2="-5" y1="0" y2="0"/><g transform="translate(-6 0)"><text class="lab" text-anchor="end">0</text></g></g><g class="tick" transform="translate(56.8 120.617)"><line x1="0" x2="-5" y1="0" y2="0"/><g transform="translate(-6 0)"><text class="lab" text-anchor="end">5000</text></g></g><g class="tick" transform="translate(56.8 69.8336)"><line x1="0" x2="-5" y1="0" y2="0"/><g transform="translate(-6 0)"><text class="lab" text-anchor="end">10000</text></g></g><g class="tick" transform="translate(56.8 19.0505)"><line x1="0" x2="-5" y1="0" y2="0"/><g transform="translate(-6 0)"><text class="lab" text-anchor="end">15000</text></g></g><g class="tick" transform="translate(56.8 -31.7327)"><line x1="0" x2="-5" y1="0" y2="0"/><g transform="translate(-6 0)"><text class="lab" text-anchor="end">20000</text></g></g></g></g></g><g class="plotbox trees"><g class="tree t0" transform="translate(56.8 0)"><g class="plotbox"><g class="c2 node n20 p0 root" transform="translate(136.556 26.8)"><g class="a20 c2 node n17 p0" transform="translate(-59.3775 83.2923)"><g class="a17 i0 leaf node n0 p1 sample" transform="translate(-47.125 61.3077)"><path class="edge" d="M 0 0 V -61.3077 H 47.125"/><rect class="sym" height="6" width="6" x="-3" y="-3"/><text class="lab" transform="translate(0 11)">a</text></g><g class="a17 c2 node n16 p0" transform="translate(47.125 21.8208)"><g class="a16 i4 leaf node n9 p2 sample" transform="translate(26.39 39.4868)"><path class="edge" d="M 0 0 V -39.4868 H -26.39"/><rect class="sym" height="6" width="6" x="-3" y="-3"/><text class="lab" transform="translate(0 11)">g</text></g><g class="a16 c2 node n15 p0" transform="translate(-26.39 5.85307)"><g class="a15 c2 node n10 p2" transform="translate(22.62 30.3954)"><g class="a10 i3 leaf node n7 p2 sample" transform="translate(-10.0533 3.23842)"><path class="edge" d="M 0 0 V -3.23842 H 10.0533"/><rect class="sym" height="6" width="6" x="-3" y="-3"/><text class="lab" transform="translate(0 11)">e</text></g><g class="a10 i4 leaf node n8 p2 sample" transform="translate(10.0533 3.23842)"><path class="edge" d="M 0 0 V -3.23842 H -10.0533"/><rect class="sym" height="6" width="6" x="-3" y="-3"/><text class="lab" transform="translate(0 11)">f</text></g><path class="edge" d="M 0 0 V -30.3954 H -22.62"/><circle class="sym" cx="0" cy="0" r="3"/><text class="lab rgt" transform="translate(3 -7.0)">k</text></g><g class="a15 c2 node n12 p0" transform="translate(-22.62 1.82594)"><g class="a12 i2 leaf node n4 p2 sample" transform="translate(15.08 31.8078)"><path class="edge" d="M 0 0 V -31.8078 H -15.08"/><rect class="sym" height="6" width="6" x="-3" y="-3"/><text class="lab" transform="translate(0 11)">d</text></g><g class="a12 c2 node n11 p1" transform="translate(-15.08 24.6436)"><g class="a11 i0 leaf node n1 p1 sample" transform="translate(-10.0533 7.1642)"><path class="edge" d="M 0 0 V -7.1642 H 10.0533"/><rect class="sym" height="6" width="6" x="-3" y="-3"/><text class="lab" transform="translate(0 11)">b</text></g><g class="a11 i1 leaf node n3 p1 sample" transform="translate(10.0533 7.1642)"><path class="edge" d="M 0 0 V -7.1642 H -10.0533"/><rect class="sym" height="6" width="6" x="-3" y="-3"/><text class="lab" transform="translate(0 11)">c</text></g><path class="edge" d="M 0 0 V -24.6436 H 15.08"/><circle class="sym" cx="0" cy="0" r="3"/><text class="lab lft" transform="translate(-3 -7.0)">l</text></g><path class="edge" d="M 0 0 V -1.82594 H 22.62"/><circle class="sym" cx="0" cy="0" r="3"/><text class="lab lft" transform="translate(-3 -7.0)">m</text></g><path class="edge" d="M 0 0 V -5.85307 H 26.39"/><circle class="sym" cx="0" cy="0" r="3"/><text class="lab lft" transform="translate(-3 -7.0)">p</text></g><path class="edge" d="M 0 0 V -21.8208 H -47.125"/><circle class="sym" cx="0" cy="0" r="3"/><text class="lab rgt" transform="translate(3 -7.0)">q</text></g><path class="edge" d="M 0 0 V -83.2923 H 59.3775"/><circle class="sym" cx="0" cy="0" r="3"/><text class="lab lft" transform="translate(-3 -7.0)">r</text></g><g class="a20 c2 node n19 p0" transform="translate(59.3775 10.6982)"><g class="a19 i3 leaf node n6 p2 sample" transform="translate(15.08 133.902)"><path class="edge" d="M 0 0 V -133.902 H -15.08"/><rect class="sym" height="6" width="6" x="-3" y="-3"/><text class="lab" transform="translate(0 11)">j</text></g><g class="a19 c2 node n13 p0" transform="translate(-15.08 101.263)"><g class="a13 i1 leaf node n2 p1 sample" transform="translate(-10.0533 32.6389)"><path class="edge" d="M 0 0 V -32.6389 H 10.0533"/><rect class="sym" height="6" width="6" x="-3" y="-3"/><text class="lab" transform="translate(0 11)">h</text></g><g class="a13 i2 leaf node n5 p2 sample" transform="translate(10.0533 32.6389)"><path class="edge" d="M 0 0 V -32.6389 H -10.0533"/><rect class="sym" height="6" width="6" x="-3" y="-3"/><text class="lab" transform="translate(0 11)">i</text></g><path class="edge" d="M 0 0 V -101.263 H 15.08"/><circle class="sym" cx="0" cy="0" r="3"/><text class="lab lft" transform="translate(-3 -7.0)">n</text></g><path class="edge" d="M 0 0 V -10.6982 H -59.3775"/><circle class="sym" cx="0" cy="0" r="3"/><text class="lab rgt" transform="translate(3 -7.0)">t</text></g><circle class="sym" cx="0" cy="0" r="3"/><text class="lab" transform="translate(0 -11)">u</text></g></g></g><g class="tree t1" transform="translate(297.867 0)"><g class="plotbox"><g class="c2 node n20 p0 root" transform="translate(105.925 26.8)"><g class="a20 c2 node n19 p0" transform="translate(75.8713 10.6982)"><g class="a19 i3 leaf node n6 p2 sample" transform="translate(29.2175 133.902)"><path class="edge" d="M 0 0 V -133.902 H -29.2175"/><rect class="sym" height="6" width="6" x="-3" y="-3"/><text class="lab" transform="translate(0 11)">j</text></g><g class="a19 c2 node n18 p0" transform="translate(-29.2175 71.2396)"><g class="a18 c2 node n13 p0" transform="translate(28.275 30.0232)"><g class="a13 i1 leaf node n2 p1 sample" transform="translate(-10.0533 32.6389)"><path class="edge" d="M 0 0 V -32.6389 H 10.0533"/><rect class="sym" height="6" width="6" x="-3" y="-3"/><text class="lab" transform="translate(0 11)">h</text></g><g class="a13 i2 leaf node n5 p2 sample" transform="translate(10.0533 32.6389)"><path class="edge" d="M 0 0 V -32.6389 H -10.0533"/><rect class="sym" height="6" width="6" x="-3" y="-3"/><text class="lab" transform="translate(0 11)">i</text></g><path class="edge" d="M 0 0 V -30.0232 H -28.275"/><circle class="sym" cx="0" cy="0" r="3"/><text class="lab rgt" transform="translate(3 -7.0)">n</text></g><g class="a18 c2 node n16 p0" transform="translate(-28.275 23.1753)"><g class="a16 i4 leaf node n9 p2 sample" transform="translate(26.39 39.4868)"><path class="edge" d="M 0 0 V -39.4868 H -26.39"/><rect class="sym" height="6" width="6" x="-3" y="-3"/><text class="lab" transform="translate(0 11)">g</text></g><g class="a16 c2 node n15 p0" transform="translate(-26.39 5.85307)"><g class="a15 c2 node n10 p2" transform="translate(22.62 30.3954)"><g class="a10 i3 leaf node n7 p2 sample" transform="translate(-10.0533 3.23842)"><path class="edge" d="M 0 0 V -3.23842 H 10.0533"/><rect class="sym" height="6" width="6" x="-3" y="-3"/><text class="lab" transform="translate(0 11)">e</text></g><g class="a10 i4 leaf node n8 p2 sample" transform="translate(10.0533 3.23842)"><path class="edge" d="M 0 0 V -3.23842 H -10.0533"/><rect class="sym" height="6" width="6" x="-3" y="-3"/><text class="lab" transform="translate(0 11)">f</text></g><path class="edge" d="M 0 0 V -30.3954 H -22.62"/><circle class="sym" cx="0" cy="0" r="3"/><text class="lab rgt" transform="translate(3 -7.0)">k</text></g><g class="a15 c2 node n12 p0" transform="translate(-22.62 1.82594)"><g class="a12 i2 leaf node n4 p2 sample" transform="translate(15.08 31.8078)"><path class="edge" d="M 0 0 V -31.8078 H -15.08"/><rect class="sym" height="6" width="6" x="-3" y="-3"/><text class="lab" transform="translate(0 11)">d</text></g><g class="a12 c2 node n11 p1" transform="translate(-15.08 24.6436)"><g class="a11 i0 leaf node n1 p1 sample" transform="translate(-10.0533 7.1642)"><path class="edge" d="M 0 0 V -7.1642 H 10.0533"/><rect class="sym" height="6" width="6" x="-3" y="-3"/><text class="lab" transform="translate(0 11)">b</text></g><g class="a11 i1 leaf node n3 p1 sample" transform="translate(10.0533 7.1642)"><path class="edge" d="M 0 0 V -7.1642 H -10.0533"/><rect class="sym" height="6" width="6" x="-3" y="-3"/><text class="lab" transform="translate(0 11)">c</text></g><path class="edge" d="M 0 0 V -24.6436 H 15.08"/><circle class="sym" cx="0" cy="0" r="3"/><text class="lab lft" transform="translate(-3 -7.0)">l</text></g><path class="edge" d="M 0 0 V -1.82594 H 22.62"/><circle class="sym" cx="0" cy="0" r="3"/><text class="lab lft" transform="translate(-3 -7.0)">m</text></g><path class="edge" d="M 0 0 V -5.85307 H 26.39"/><circle class="sym" cx="0" cy="0" r="3"/><text class="lab lft" transform="translate(-3 -7.0)">p</text></g><path class="edge" d="M 0 0 V -23.1753 H 28.275"/><circle class="sym" cx="0" cy="0" r="3"/><text class="lab lft" transform="translate(-3 -7.0)">q</text></g><path class="edge" d="M 0 0 V -71.2396 H 29.2175"/><circle class="sym" cx="0" cy="0" r="3"/><text class="lab lft" transform="translate(-3 -7.0)">s</text></g><path class="edge" d="M 0 0 V -10.6982 H -75.8713"/><circle class="sym" cx="0" cy="0" r="3"/><text class="lab rgt" transform="translate(3 -7.0)">t</text></g><g class="a20 i0 leaf node n0 p1 sample" transform="translate(-75.8713 144.6)"><path class="edge" d="M 0 0 V -144.6 H 75.8713"/><rect class="sym" height="6" width="6" x="-3" y="-3"/><text class="lab" transform="translate(0 11)">a</text></g><circle class="sym" cx="0" cy="0" r="3"/><text class="lab" transform="translate(0 -11)">u</text></g></g></g><g class="tree t2" transform="translate(538.933 0)"><g class="plotbox"><g class="c2 node n20 p0 root" transform="translate(105.925 26.8)"><g class="a20 c2 node n19 p0" transform="translate(75.8713 10.6982)"><g class="a19 i3 leaf node n6 p2 sample" transform="translate(29.2175 133.902)"><path class="edge" d="M 0 0 V -133.902 H -29.2175"/><rect class="sym" height="6" width="6" x="-3" y="-3"/><text class="lab" transform="translate(0 11)">j</text></g><g class="a19 c2 node n18 p0" transform="translate(-29.2175 71.2396)"><g class="a18 c2 node n16 p0" transform="translate(-28.275 23.1753)"><g class="a16 i4 leaf node n9 p2 sample" transform="translate(26.39 39.4868)"><path class="edge" d="M 0 0 V -39.4868 H -26.39"/><rect class="sym" height="6" width="6" x="-3" y="-3"/><text class="lab" transform="translate(0 11)">g</text></g><g class="a16 c2 node n15 p0" transform="translate(-26.39 5.85307)"><g class="a15 c2 node n10 p2" transform="translate(22.62 30.3954)"><g class="a10 i3 leaf node n7 p2 sample" transform="translate(-10.0533 3.23842)"><path class="edge" d="M 0 0 V -3.23842 H 10.0533"/><rect class="sym" height="6" width="6" x="-3" y="-3"/><text class="lab" transform="translate(0 11)">e</text></g><g class="a10 i4 leaf node n8 p2 sample" transform="translate(10.0533 3.23842)"><path class="edge" d="M 0 0 V -3.23842 H -10.0533"/><rect class="sym" height="6" width="6" x="-3" y="-3"/><text class="lab" transform="translate(0 11)">f</text></g><path class="edge" d="M 0 0 V -30.3954 H -22.62"/><circle class="sym" cx="0" cy="0" r="3"/><text class="lab rgt" transform="translate(3 -7.0)">k</text></g><g class="a15 c2 node n12 p0" transform="translate(-22.62 1.82594)"><g class="a12 i2 leaf node n4 p2 sample" transform="translate(15.08 31.8078)"><path class="edge" d="M 0 0 V -31.8078 H -15.08"/><rect class="sym" height="6" width="6" x="-3" y="-3"/><text class="lab" transform="translate(0 11)">d</text></g><g class="a12 c2 node n11 p1" transform="translate(-15.08 24.6436)"><g class="a11 i0 leaf node n1 p1 sample" transform="translate(-10.0533 7.1642)"><path class="edge" d="M 0 0 V -7.1642 H 10.0533"/><rect class="sym" height="6" width="6" x="-3" y="-3"/><text class="lab" transform="translate(0 11)">b</text></g><g class="a11 i1 leaf node n3 p1 sample" transform="translate(10.0533 7.1642)"><path class="edge" d="M 0 0 V -7.1642 H -10.0533"/><rect class="sym" height="6" width="6" x="-3" y="-3"/><text class="lab" transform="translate(0 11)">c</text></g><path class="edge" d="M 0 0 V -24.6436 H 15.08"/><circle class="sym" cx="0" cy="0" r="3"/><text class="lab lft" transform="translate(-3 -7.0)">l</text></g><path class="edge" d="M 0 0 V -1.82594 H 22.62"/><circle class="sym" cx="0" cy="0" r="3"/><text class="lab lft" transform="translate(-3 -7.0)">m</text></g><path class="edge" d="M 0 0 V -5.85307 H 26.39"/><circle class="sym" cx="0" cy="0" r="3"/><text class="lab lft" transform="translate(-3 -7.0)">p</text></g><path class="edge" d="M 0 0 V -23.1753 H 28.275"/><circle class="sym" cx="0" cy="0" r="3"/><text class="lab lft" transform="translate(-3 -7.0)">q</text></g><g class="a18 c2 node n14 p0" transform="translate(28.275 29.9698)"><g class="a14 i1 leaf node n2 p1 sample" transform="translate(-10.0533 32.6924)"><path class="edge" d="M 0 0 V -32.6924 H 10.0533"/><rect class="sym" height="6" width="6" x="-3" y="-3"/><text class="lab" transform="translate(0 11)">h</text></g><g class="a14 i2 leaf node n5 p2 sample" transform="translate(10.0533 32.6924)"><path class="edge" d="M 0 0 V -32.6924 H -10.0533"/><rect class="sym" height="6" width="6" x="-3" y="-3"/><text class="lab" transform="translate(0 11)">i</text></g><path class="edge" d="M 0 0 V -29.9698 H -28.275"/><circle class="sym" cx="0" cy="0" r="3"/><text class="lab rgt" transform="translate(3 -7.0)">o</text></g><path class="edge" d="M 0 0 V -71.2396 H 29.2175"/><circle class="sym" cx="0" cy="0" r="3"/><text class="lab lft" transform="translate(-3 -7.0)">s</text></g><path class="edge" d="M 0 0 V -10.6982 H -75.8713"/><circle class="sym" cx="0" cy="0" r="3"/><text class="lab rgt" transform="translate(3 -7.0)">t</text></g><g class="a20 i0 leaf node n0 p1 sample" transform="translate(-75.8713 144.6)"><path class="edge" d="M 0 0 V -144.6 H 75.8713"/><rect class="sym" height="6" width="6" x="-3" y="-3"/><text class="lab" transform="translate(0 11)">a</text></g><circle class="sym" cx="0" cy="0" r="3"/><text class="lab" transform="translate(0 -11)">u</text></g></g></g></g></g></svg>