<svg xmlns="http://www.w3.org/2000/svg" xmlns:ev="http://www.w3.org/2001/xml-events" xmlns:xlink="http://www.w3.org/1999/xlink" baseProfile="full" height="250" id="svg2" version="1.1" width="500"><defs><style type="text/css"><![CDATA[.background path {fill: #808080; fill-opacity:0}.background path:nth-child(odd) {fill-opacity:.1}.axes {font-size: 14px}.x-axis .tick .lab {font-weight: bold}.axes, .tree {font-size: 14px; text-anchor:middle}.y-axis line.grid {stroke: #FAFAFA}.y-axis > .lab text {transform: translateX(0.8em) rotate(-90deg)}.x-axis .tick g {transform: translateY(0.9em)}.x-axis > .lab text {transform: translateY(-0.8em)}.axes line, .edge {stroke:black; fill:none}.node > .sym {fill: black; stroke: none}.site > .sym {stroke: black}.mut text {fill: red; font-style: italic}.mut.extra text {fill: hotpink}.mut line {fill: none; stroke: none}.mut .sym {fill: none; stroke: red}.mut.extra .sym {stroke: hotpink}.node .mut .sym {stroke-width: 1.5px}.tree text, .tree-sequence text {dominant-baseline: central}.plotbox .lab.lft {text-anchor: end}.plotbox .lab.rgt {text-anchor: start}#svg2 .node > .sym {visibility: visible;}]]></style></defs><g class="tree-sequence"><g class="background"><path d="M56.8,0 l141.067,0 l0,188.2 l161.521,25 l0,5 l-302.588,0 l0,-5 l0,-25 l0,-188.2z"/><path d="M197.867,0 l141.067,0 l0,188.2 l112.289,25 l0,5 l-91.8344,0 l0,-5 l-161.521,-25 l0,-188.2z"/><path d="M338.933,0 l141.067,0 l0,188.2 l0,25 l0,5 l-28.7776,0 l0,-5 l-112.289,-25 l0,-188.2z"/></g><g class="axes"><g class="x-axis"><g class="lab" transform="translate(268.4,250)"><text text-anchor="middle">Genome position</text></g><line x1="56.8" x2="480" y1="213.2" y2="213.2"/><g class="tick" transform="translate(56.8 213.2)"><line x1="0" x2="0" y1="0" y2="5"/><g class="lab" transform="translate(0,5)"><text>0</text></g></g><g class="tick" transform="translate(359.388 213.2)"><line x1="0" x2="0" y1="0" y2="5"/><g class="lab" transform="translate(0,5)"><text>715</text></g></g><g class="tick" transform="translate(451.222 213.2)"><line x1="0" x2="0" y1="0" y2="5"/><g class="lab" transform="translate(0,5)"><text>932</text></g></g><g class="tick" transform="translate(480 213.2)"><line x1="0" x2="0" y1="0" y2="5"/><g class="lab" transform="translate(0,5)"><text>1000</text></g></g><g class="site s0" transform="translate(141.44 213.2)"><line class="sym" x1="0" x2="0" y1="0" y2="-10"/><g class="mut m0"><polyline class="sym" points="2.5,-6.5 0,-1.5 -2.5,-6.5"/></g></g><g class="site s1" transform="translate(233.274 213.2)"><line class="sym" x1="0" x2="0" y1="0" y2="-10"/><g class="mut m1"><polyline class="sym" points="2.5,-6.5 0,-1.5 -2.5,-6.5"/></g></g><g class="site s2" transform="translate(237.93 213.2)"><line class="sym" x1="0" x2="0" y1="0" y2="-10"/><g class="mut m2"><polyline class="sym" points="2.5,-6.5 0,-1.5 -2.5,-6.5"/></g></g><g class="site s3" transform="translate(254.434 213.2)"><line class="sym" x1="0" x2="0" y1="0" y2="-10"/><g class="mut m3"><polyline class="sym" points="2.5,-6.5 0,-1.5 -2.5,-6.5"/></g></g><g class="site s4" transform="translate(305.642 213.2)"><line class="sym" x1="0" x2="0" y1="0" y2="-10"/><g class="mut m4"><polyline class="sym" points="2.5,-6.5 0,-1.5 -2.5,-6.5"/></g></g><g class="site s5" transform="translate(339.074 213.2)"><line class="sym" x1="0" x2="0" y1="0" y2="-10"/><g class="mut m5"><polyline class="sym" points="2.5,-6.5 0,-1.5 -2.5,-6.5"/></g></g><g class="site s6" transform="translate(395.36 213.2)"><line class="sym" x1="0" x2="0" y1="0" y2="-10"/><g class="mut m6"><polyline class="sym" points="2.5,-6.5 0,-1.5 -2.5,-6.5"/></g></g><g class="site s7" transform="translate(424.561 213.2)"><line class="sym" x1="0" x2="0" y1="0" y2="-10"/><g class="mut m7"><polyline class="sym" points="2.5,-6.5 0,-1.5 -2.5,-6.5"/></g></g><g class="site s8" transform="translate(427.1 213.2)"><line class="sym" x1="0" x2="0" y1="0" y2="-10"/><g class="mut m8"><polyline class="sym" points="2.5,-6.5 0,-1.5 -2.5,-6.5"/></g></g><g class="site s9" transform="translate(474.075 213.2)"><line class="sym" x1="0" x2="0" y1="0" y2="-10"/><g class="mut m9"><polyline class="sym" points="2.5,-6.5 0,-1.5 -2.5,-6.5"/></g></g></g><g class="y-axis"><g class="lab" transform="translate(0,90.7)"><text text-anchor="middle">Time ago</text></g><line x1="56.8" x2="56.8" y1="171.4" y2="10"/><g class="tick" transform="translate(56.8 171.4)"><line x1="0" x2="-5" y1="0" y2="0"/><g class="lab" transform="translate(-5,0)"><text text-anchor="end">0.00</text></g></g><g class="tick" transform="translate(56.8 133.493)"><line x1="0" x2="-5" y1="0" y2="0"/><g class="lab" transform="translate(-5,0)"><text text-anchor="end">2.00</text></g></g><g class="tick" transform="translate(56.8 109.577)"><line x1="0" x2="-5" y1="0" y2="0"/><g class="lab" transform="translate(-5,0)"><text text-anchor="end">5.00</text></g></g><g class="tick" transform="translate(56.8 88.6623)"><line x1="0" x2="-5" y1="0" y2="0"/><g class="lab" transform="translate(-5,0)"><text text-anchor="end">10.00</text></g></g><g class="tick" transform="translate(56.8 66.3509)"><line x1="0" x2="-5" y1="0" y2="0"/><g class="lab" transform="translate(-5,0)"><text text-anchor="end">20.00</text></g></g><g class="tick" transform="translate(56.8 35.7351)"><line x1="0" x2="-5" y1="0" y2="0"/><g class="lab" transform="translate(-5,0)"><text text-anchor="end">50.00</text></g></g><g class="tick" transform="translate(56.8 12.1585)"><line x1="0" x2="-5" y1="0" y2="0"/><g class="lab" transform="translate(-5,0)"><text text-anchor="end">100.00</text></g></g></g></g><g class="plotbox trees"><g class="tree t0" transform="translate(56.8 0)"><g class="plotbox"><g class="node n20 p0 root" transform="translate(65.7958 26.8)"><g class="a20 m0 node n16 p0 s0" transform="translate(-28.1092 61.7567)"><g class="a16 i0 leaf node n1 p0 sample" transform="translate(7.58 82.8433)"><path class="edge" d="M 0 0 V -82.8433 H -7.58"/><rect class="sym" height="6" width="6" x="-3" y="-3"/><text class="lab" transform="translate(0 11)">c</text></g><g class="a16 m1 node n12 p0 s1" transform="translate(-7.58 50.5794)"><g class="a12 i0 leaf node n0 p0 sample" transform="translate(-5.05333 32.2639)"><path class="edge" d="M 0 0 V -32.2639 H 5.05333"/><rect class="sym" height="6" width="6" x="-3" y="-3"/><text class="lab" transform="translate(0 11)">a</text></g><g class="a12 i4 leaf node n9 p0 sample" transform="translate(5.05333 32.2639)"><path class="edge" d="M 0 0 V -32.2639 H -5.05333"/><rect class="sym" height="6" width="6" x="-3" y="-3"/><text class="lab" transform="translate(0 11)">b</text></g><path class="edge" d="M 0 0 V -50.5794 H 7.58"/><g class="mut m1 s1" transform="translate(0 -6.46475)"><line x1="0" x2="0" y1="0" y2="6.46475"/><path class="sym" d="M -3,-3 l 6,6 M -3,3 l 6,-6"/><text class="lab lft" transform="translate(-5 0)"/></g><circle class="sym" cx="0" cy="0" r="3"/><text class="lab lft" transform="translate(-3 -7.0)">m</text></g><path class="edge" d="M 0 0 V -61.7567 H 28.1092"/><g class="mut m0 s0" transform="translate(0 -61.4802)"><line x1="0" x2="0" y1="0" y2="61.4802"/><path class="sym" d="M -3,-3 l 6,6 M -3,3 l 6,-6"/><text class="lab lft" transform="translate(-5 0)"/></g><circle class="sym" cx="0" cy="0" r="3"/><text class="lab lft" transform="translate(-3 -7.0)">q</text></g><g class="a20 m2 m3 node n18 p0 s2 s3" transform="translate(28.1092 49.2612)"><g class="a18 node n14 p0" transform="translate(17.055 26.3083)"><g class="a14 i1 leaf node n3 p0 sample" transform="translate(-5.05333 69.0304)"><path class="edge" d="M 0 0 V -69.0304 H 5.05333"/><rect class="sym" height="6" width="6" x="-3" y="-3"/><text class="lab" transform="translate(0 11)">i</text></g><g class="a14 i2 leaf m4 node n5 p0 s4 sample" transform="translate(5.05333 69.0304)"><path class="edge" d="M 0 0 V -69.0304 H -5.05333"/><g class="mut m4 s4" transform="translate(0 -39.0345)"><line x1="0" x2="0" y1="0" y2="39.0345"/><path class="sym" d="M -3,-3 l 6,6 M -3,3 l 6,-6"/><text class="lab rgt" transform="translate(5 0)"/></g><rect class="sym" height="6" width="6" x="-3" y="-3"/><text class="lab" transform="translate(0 11)">j</text></g><path class="edge" d="M 0 0 V -26.3083 H -17.055"/><circle class="sym" cx="0" cy="0" r="3"/><text class="lab rgt" transform="translate(3 -7.0)">o</text></g><g class="a18 node n15 p0" transform="translate(-17.055 15.4767)"><g class="a15 node n10 p0" transform="translate(13.8967 50.5987)"><g class="a10 i2 leaf node n4 p0 sample" transform="translate(-5.05333 29.2634)"><path class="edge" d="M 0 0 V -29.2634 H 5.05333"/><rect class="sym" height="6" width="6" x="-3" y="-3"/><text class="lab" transform="translate(0 11)">g</text></g><g class="a10 i4 leaf node n8 p0 sample" transform="translate(5.05333 29.2634)"><path class="edge" d="M 0 0 V -29.2634 H -5.05333"/><rect class="sym" height="6" width="6" x="-3" y="-3"/><text class="lab" transform="translate(0 11)">h</text></g><path class="edge" d="M 0 0 V -50.5987 H -13.8967"/><circle class="sym" cx="0" cy="0" r="3"/><text class="lab rgt" transform="translate(3 -7.0)">k</text></g><g class="a15 node n13 p0" transform="translate(-13.8967 31.7699)"><g class="a13 i1 leaf node n2 p0 sample" transform="translate(-7.58 48.0922)"><path class="edge" d="M 0 0 V -48.0922 H 7.58"/><rect class="sym" height="6" width="6" x="-3" y="-3"/><text class="lab" transform="translate(0 11)">d</text></g><g class="a13 m5 node n11 p0 s5" transform="translate(7.58 16.0709)"><g class="a11 i3 leaf node n6 p0 sample" transform="translate(-5.05333 32.0213)"><path class="edge" d="M 0 0 V -32.0213 H 5.05333"/><rect class="sym" height="6" width="6" x="-3" y="-3"/><text class="lab" transform="translate(0 11)">e</text></g><g class="a11 i3 leaf node n7 p0 sample" transform="translate(5.05333 32.0213)"><path class="edge" d="M 0 0 V -32.0213 H -5.05333"/><rect class="sym" height="6" width="6" x="-3" y="-3"/><text class="lab" transform="translate(0 11)">f</text></g><path class="edge" d="M 0 0 V -16.0709 H -7.58"/><g class="mut m5 s5" transform="translate(0 -4.18996)"><line x1="0" x2="0" y1="0" y2="4.18996"/><path class="sym" d="M -3,-3 l 6,6 M -3,3 l 6,-6"/><text class="lab rgt" transform="translate(5 0)"/></g><circle class="sym" cx="0" cy="0" r="3"/><text class="lab rgt" transform="translate(3 -7.0)">l</text></g><path class="edge" d="M 0 0 V -31.7699 H 13.8967"/><circle class="sym" cx="0" cy="0" r="3"/><text class="lab lft" transform="translate(-3 -7.0)">n</text></g><path class="edge" d="M 0 0 V -15.4767 H 17.055"/><circle class="sym" cx="0" cy="0" r="3"/><text class="lab lft" transform="translate(-3 -7.0)">p</text></g><path class="edge" d="M 0 0 V -49.2612 H -28.1092"/><g class="mut m2 s2" transform="translate(0 -44.9944)"><line x1="0" x2="0" y1="0" y2="44.9944"/><path class="sym" d="M -3,-3 l 6,6 M -3,3 l 6,-6"/><text class="lab rgt" transform="translate(5 0)"/></g><g class="mut m3 s3" transform="translate(0 -32.2909)"><line x1="0" x2="0" y1="0" y2="32.2909"/><path class="sym" d="M -3,-3 l 6,6 M -3,3 l 6,-6"/><text class="lab rgt" transform="translate(5 0)"/></g><circle class="sym" cx="0" cy="0" r="3"/><text class="lab rgt" transform="translate(3 -7.0)">s</text></g><circle class="sym" cx="0" cy="0" r="3"/><text class="lab" transform="translate(0 -11)">u</text></g></g></g><g class="tree t1" transform="translate(197.867 0)"><g class="plotbox"><g class="node n20 p0 root" transform="translate(84.1142 26.8)"><g class="a20 m6 m8 node n14 p0 s6 s8" transform="translate(26.8458 75.5696)"><g class="a14 i1 leaf node n3 p0 sample" transform="translate(-5.05333 69.0304)"><path class="edge" d="M 0 0 V -69.0304 H 5.05333"/><rect class="sym" height="6" width="6" x="-3" y="-3"/><text class="lab" transform="translate(0 11)">i</text></g><g class="a14 i2 leaf node n5 p0 sample" transform="translate(5.05333 69.0304)"><path class="edge" d="M 0 0 V -69.0304 H -5.05333"/><rect class="sym" height="6" width="6" x="-3" y="-3"/><text class="lab" transform="translate(0 11)">j</text></g><path class="edge" d="M 0 0 V -75.5696 H -26.8458"/><g class="mut m6 s6" transform="translate(0 -71.7322)"><line x1="0" x2="0" y1="0" y2="71.7322"/><path class="sym" d="M -3,-3 l 6,6 M -3,3 l 6,-6"/><text class="lab rgt" transform="translate(5 0)"/></g><g class="mut m8 s8" transform="translate(0 -62.8764)"><line x1="0" x2="0" y1="0" y2="62.8764"/><path class="sym" d="M -3,-3 l 6,6 M -3,3 l 6,-6"/><text class="lab rgt" transform="translate(5 0)"/></g><circle class="sym" cx="0" cy="0" r="3"/><text class="lab rgt" transform="translate(3 -7.0)">o</text></g><g class="a20 m7 node n17 p0 s7" transform="translate(-26.8458 51.8643)"><g class="a17 node n15 p0" transform="translate(19.5817 12.8736)"><g class="a15 node n10 p0" transform="translate(13.8967 50.5987)"><g class="a10 i2 leaf node n4 p0 sample" transform="translate(-5.05333 29.2634)"><path class="edge" d="M 0 0 V -29.2634 H 5.05333"/><rect class="sym" height="6" width="6" x="-3" y="-3"/><text class="lab" transform="translate(0 11)">g</text></g><g class="a10 i4 leaf node n8 p0 sample" transform="translate(5.05333 29.2634)"><path class="edge" d="M 0 0 V -29.2634 H -5.05333"/><rect class="sym" height="6" width="6" x="-3" y="-3"/><text class="lab" transform="translate(0 11)">h</text></g><path class="edge" d="M 0 0 V -50.5987 H -13.8967"/><circle class="sym" cx="0" cy="0" r="3"/><text class="lab rgt" transform="translate(3 -7.0)">k</text></g><g class="a15 node n13 p0" transform="translate(-13.8967 31.7699)"><g class="a13 i1 leaf node n2 p0 sample" transform="translate(-7.58 48.0922)"><path class="edge" d="M 0 0 V -48.0922 H 7.58"/><rect class="sym" height="6" width="6" x="-3" y="-3"/><text class="lab" transform="translate(0 11)">d</text></g><g class="a13 node n11 p0" transform="translate(7.58 16.0709)"><g class="a11 i3 leaf node n6 p0 sample" transform="translate(-5.05333 32.0213)"><path class="edge" d="M 0 0 V -32.0213 H 5.05333"/><rect class="sym" height="6" width="6" x="-3" y="-3"/><text class="lab" transform="translate(0 11)">e</text></g><g class="a11 i3 leaf node n7 p0 sample" transform="translate(5.05333 32.0213)"><path class="edge" d="M 0 0 V -32.0213 H -5.05333"/><rect class="sym" height="6" width="6" x="-3" y="-3"/><text class="lab" transform="translate(0 11)">f</text></g><path class="edge" d="M 0 0 V -16.0709 H -7.58"/><circle class="sym" cx="0" cy="0" r="3"/><text class="lab rgt" transform="translate(3 -7.0)">l</text></g><path class="edge" d="M 0 0 V -31.7699 H 13.8967"/><circle class="sym" cx="0" cy="0" r="3"/><text class="lab lft" transform="translate(-3 -7.0)">n</text></g><path class="edge" d="M 0 0 V -12.8736 H -19.5817"/><circle class="sym" cx="0" cy="0" r="3"/><text class="lab rgt" transform="translate(3 -7.0)">p</text></g><g class="a17 node n16 p0" transform="translate(-19.5817 9.89234)"><g class="a16 i0 leaf node n1 p0 sample" transform="translate(7.58 82.8433)"><path class="edge" d="M 0 0 V -82.8433 H -7.58"/><rect class="sym" height="6" width="6" x="-3" y="-3"/><text class="lab" transform="translate(0 11)">c</text></g><g class="a16 node n12 p0" transform="translate(-7.58 50.5794)"><g class="a12 i0 leaf node n0 p0 sample" transform="translate(-5.05333 32.2639)"><path class="edge" d="M 0 0 V -32.2639 H 5.05333"/><rect class="sym" height="6" width="6" x="-3" y="-3"/><text class="lab" transform="translate(0 11)">a</text></g><g class="a12 i4 leaf node n9 p0 sample" transform="translate(5.05333 32.2639)"><path class="edge" d="M 0 0 V -32.2639 H -5.05333"/><rect class="sym" height="6" width="6" x="-3" y="-3"/><text class="lab" transform="translate(0 11)">b</text></g><path class="edge" d="M 0 0 V -50.5794 H 7.58"/><circle class="sym" cx="0" cy="0" r="3"/><text class="lab lft" transform="translate(-3 -7.0)">m</text></g><path class="edge" d="M 0 0 V -9.89234 H 19.5817"/><circle class="sym" cx="0" cy="0" r="3"/><text class="lab lft" transform="translate(-3 -7.0)">q</text></g><path class="edge" d="M 0 0 V -51.8643 H 26.8458"/><g class="mut m7 s7" transform="translate(0 -18.3531)"><line x1="0" x2="0" y1="0" y2="18.3531"/><path class="sym" d="M -3,-3 l 6,6 M -3,3 l 6,-6"/><text class="lab lft" transform="translate(-5 0)"/></g><circle class="sym" cx="0" cy="0" r="3"/><text class="lab lft" transform="translate(-3 -7.0)">r</text></g><circle class="sym" cx="0" cy="0" r="3"/><text class="lab" transform="translate(0 -11)">u</text></g></g></g><g class="tree t2" transform="translate(338.933 0)"><g class="plotbox"><g class="node n20 p0 root" transform="translate(98.8004 26.8)"><g class="a20 i2 leaf node n5 p0 sample" transform="translate(17.2129 144.6)"><path class="edge" d="M 0 0 V -144.6 H -17.2129"/><rect class="sym" height="6" width="6" x="-3" y="-3"/><text class="lab" transform="translate(0 11)">j</text></g><g class="a20 m9 node n19 p0 s9" transform="translate(-17.2129 43.13)"><g class="a19 i1 leaf node n3 p0 sample" transform="translate(24.3192 101.47)"><path class="edge" d="M 0 0 V -101.47 H -24.3192"/><rect class="sym" height="6" width="6" x="-3" y="-3"/><text class="lab" transform="translate(0 11)">i</text></g><g class="a19 node n17 p0" transform="translate(-24.3192 8.73437)"><g class="a17 node n15 p0" transform="translate(19.5817 12.8736)"><g class="a15 node n10 p0" transform="translate(13.8967 50.5987)"><g class="a10 i2 leaf node n4 p0 sample" transform="translate(-5.05333 29.2634)"><path class="edge" d="M 0 0 V -29.2634 H 5.05333"/><rect class="sym" height="6" width="6" x="-3" y="-3"/><text class="lab" transform="translate(0 11)">g</text></g><g class="a10 i4 leaf node n8 p0 sample" transform="translate(5.05333 29.2634)"><path class="edge" d="M 0 0 V -29.2634 H -5.05333"/><rect class="sym" height="6" width="6" x="-3" y="-3"/><text class="lab" transform="translate(0 11)">h</text></g><path class="edge" d="M 0 0 V -50.5987 H -13.8967"/><circle class="sym" cx="0" cy="0" r="3"/><text class="lab rgt" transform="translate(3 -7.0)">k</text></g><g class="a15 node n13 p0" transform="translate(-13.8967 31.7699)"><g class="a13 i1 leaf node n2 p0 sample" transform="translate(-7.58 48.0922)"><path class="edge" d="M 0 0 V -48.0922 H 7.58"/><rect class="sym" height="6" width="6" x="-3" y="-3"/><text class="lab" transform="translate(0 11)">d</text></g><g class="a13 node n11 p0" transform="translate(7.58 16.0709)"><g class="a11 i3 leaf node n6 p0 sample" transform="translate(-5.05333 32.0213)"><path class="edge" d="M 0 0 V -32.0213 H 5.05333"/><rect class="sym" height="6" width="6" x="-3" y="-3"/><text class="lab" transform="translate(0 11)">e</text></g><g class="a11 i3 leaf node n7 p0 sample" transform="translate(5.05333 32.0213)"><path class="edge" d="M 0 0 V -32.0213 H -5.05333"/><rect class="sym" height="6" width="6" x="-3" y="-3"/><text class="lab" transform="translate(0 11)">f</text></g><path class="edge" d="M 0 0 V -16.0709 H -7.58"/><circle class="sym" cx="0" cy="0" r="3"/><text class="lab rgt" transform="translate(3 -7.0)">l</text></g><path class="edge" d="M 0 0 V -31.7699 H 13.8967"/><circle class="sym" cx="0" cy="0" r="3"/><text class="lab lft" transform="translate(-3 -7.0)">n</text></g><path class="edge" d="M 0 0 V -12.8736 H -19.5817"/><circle class="sym" cx="0" cy="0" r="3"/><text class="lab rgt" transform="translate(3 -7.0)">p</text></g><g class="a17 node n16 p0" transform="translate(-19.5817 9.89234)"><g class="a16 i0 leaf node n1 p0 sample" transform="translate(7.58 82.8433)"><path class="edge" d="M 0 0 V -82.8433 H -7.58"/><rect class="sym" height="6" width="6" x="-3" y="-3"/><text class="lab" transform="translate(0 11)">c</text></g><g class="a16 node n12 p0" transform="translate(-7.58 50.5794)"><g class="a12 i0 leaf node n0 p0 sample" transform="translate(-5.05333 32.2639)"><path class="edge" d="M 0 0 V -32.2639 H 5.05333"/><rect class="sym" height="6" width="6" x="-3" y="-3"/><text class="lab" transform="translate(0 11)">a</text></g><g class="a12 i4 leaf node n9 p0 sample" transform="translate(5.05333 32.2639)"><path class="edge" d="M 0 0 V -32.2639 H -5.05333"/><rect class="sym" height="6" width="6" x="-3" y="-3"/><text class="lab" transform="translate(0 11)">b</text></g><path class="edge" d="M 0 0 V -50.5794 H 7.58"/><circle class="sym" cx="0" cy="0" r="3"/><text class="lab lft" transform="translate(-3 -7.0)">m</text></g><path class="edge" d="M 0 0 V -9.89234 H 19.5817"/><circle class="sym" cx="0" cy="0" r="3"/><text class="lab lft" transform="translate(-3 -7.0)">q</text></g><path class="edge" d="M 0 0 V -8.73437 H 24.3192"/><circle class="sym" cx="0" cy="0" r="3"/><text class="lab lft" transform="translate(-3 -7.0)">r</text></g><path class="edge" d="M 0 0 V -43.13 H 17.2129"/><g class="mut m9 s9" transform="translate(0 -16.1491)"><line x1="0" x2="0" y1="0" y2="16.1491"/><path class="sym" d="M -3,-3 l 6,6 M -3,3 l 6,-6"/><text class="lab lft" transform="translate(-5 0)"/></g><circle class="sym" cx="0" cy="0" r="3"/><text class="lab lft" transform="translate(-3 -7.0)">t</text></g><circle class="sym" cx="0" cy="0" r="3"/><text class="lab" transform="translate(0 -11)">u</text></g></g></g></g></g></svg>