<svg baseProfile="full" height="250" version="1.1" width="800" xmlns="http://www.w3.org/2000/svg" xmlns:ev="http://www.w3.org/2001/xml-events" xmlns:xlink="http://www.w3.org/1999/xlink"><defs><style type="text/css"><![CDATA[.background path {fill: #808080; fill-opacity: 0}.background path:nth-child(odd) {fill-opacity: .1}.axes {font-size: 14px}.x-axis .tick .lab {font-weight: bold; dominant-baseline: hanging}.axes, .tree {font-size: 14px; text-anchor: middle}.axes line, .edge {stroke: black; fill: none}.axes .ax-skip {stroke-dasharray: 4}.y-axis .grid {stroke: #FAFAFA}.node > .sym {fill: black; stroke: none}.site > .sym {stroke: black}.mut text {fill: red; font-style: italic}.mut.extra text {fill: hotpink}.mut line {fill: none; stroke: none}.mut .sym {fill: none; stroke: red}.mut.extra .sym {stroke: hotpink}.node .mut .sym {stroke-width: 1.5px}.tree text, .tree-sequence text {dominant-baseline: central}.plotbox .lab.lft {text-anchor: end}.plotbox .lab.rgt {text-anchor: start}.node:not(.sample) > .sym, .node:not(.sample) > .lab {visibility: hidden;}.mut {font-size: 12px} .y-axis .tick .lab {font-size: 85%}]]></style></defs><g class="tree-sequence"><g class="background"><path d="M20,0 l253.333,0 l0,188.2 l-109.693,25 l0,5 l-143.64,0 l0,-5 l0,-25 l0,-188.2z" /><path d="M273.333,0 l253.333,0 l0,188.2 l-91.7067,25 l0,5 l-271.32,0 l0,-5 l109.693,-25 l0,-188.2z" /><path d="M526.667,0 l253.333,0 l0,188.2 l0,25 l0,5 l-345.04,0 l0,-5 l91.707,-25 l0,-188.2z" /></g><g class="axes"><g class="x-axis"><g class="title" transform="translate(400 250)"><text class="lab" text-anchor="middle" transform="translate(0 -11)">Genome position</text></g><line class="ax-line" x1="20" x2="780" y1="213.2" y2="213.2" /><g class="ticks"><g class="tick" transform="translate(20 213.2)"><line x1="0" x2="0" y1="0" y2="5" /><g transform="translate(0 6)"><text class="lab">0</text></g></g><g class="tick" transform="translate(163.64 213.2)"><line x1="0" x2="0" y1="0" y2="5" /><g transform="translate(0 6)"><text class="lab">189</text></g></g><g class="tick" transform="translate(434.96 213.2)"><line x1="0" x2="0" y1="0" y2="5" /><g transform="translate(0 6)"><text class="lab">546</text></g></g><g class="tick" transform="translate(780 213.2)"><line x1="0" x2="0" y1="0" y2="5" /><g transform="translate(0 6)"><text class="lab">1000</text></g></g></g><g class="site s0" transform="translate(24.56 213.2)"><line class="sym" x1="0" x2="0" y1="0" y2="-10" /><g class="mut m0"><polyline class="sym" points="2.5,-6.5 0,-1.5 -2.5,-6.5" /></g></g><g class="site s1" transform="translate(58.76 213.2)"><line class="sym" x1="0" x2="0" y1="0" y2="-10" /><g class="mut m1"><polyline class="sym" points="2.5,-6.5 0,-1.5 -2.5,-6.5" /></g></g><g class="site s2" transform="translate(102.08 213.2)"><line class="sym" x1="0" x2="0" y1="0" y2="-10" /><g class="mut m2"><polyline class="sym" points="2.5,-6.5 0,-1.5 -2.5,-6.5" /></g></g><g class="site s3" transform="translate(336.92 213.2)"><line class="sym" x1="0" x2="0" y1="0" y2="-10" /><g class="mut m3"><polyline class="sym" points="2.5,-6.5 0,-1.5 -2.5,-6.5" /></g></g><g class="site s4" transform="translate(396.96 213.2)"><line class="sym" x1="0" x2="0" y1="0" y2="-10" /><g class="mut m4"><polyline class="sym" points="2.5,-6.5 0,-1.5 -2.5,-6.5" /></g></g><g class="site s5" transform="translate(452.44 213.2)"><line class="sym" x1="0" x2="0" y1="0" y2="-10" /><g class="mut m5"><polyline class="sym" points="2.5,-6.5 0,-1.5 -2.5,-6.5" /></g></g><g class="site s6" transform="translate(488.92 213.2)"><line class="sym" x1="0" x2="0" y1="0" y2="-10" /><g class="mut m6"><polyline class="sym" points="2.5,-6.5 0,-1.5 -2.5,-6.5" /></g></g><g class="site s7" transform="translate(575.56 213.2)"><line class="sym" x1="0" x2="0" y1="0" y2="-10" /><g class="mut m7"><polyline class="sym" points="2.5,-6.5 0,-1.5 -2.5,-6.5" /></g></g><g class="site s8" transform="translate(644.72 213.2)"><line class="sym" x1="0" x2="0" y1="0" y2="-10" /><g class="mut m8"><polyline class="sym" points="2.5,-6.5 0,-1.5 -2.5,-6.5" /></g></g><g class="site s9" transform="translate(675.88 213.2)"><line class="sym" x1="0" x2="0" y1="0" y2="-10" /><g class="mut m9"><polyline class="sym" points="2.5,-6.5 0,-1.5 -2.5,-6.5" /></g></g><g class="site s10" transform="translate(709.32 213.2)"><line class="sym" x1="0" x2="0" y1="0" y2="-10" /><g class="mut m10"><polyline class="sym" points="2.5,-6.5 0,-1.5 -2.5,-6.5" /></g></g><g class="site s11" transform="translate(770.12 213.2)"><line class="sym" x1="0" x2="0" y1="0" y2="-10" /><g class="mut m11"><polyline class="sym" points="2.5,-6.5 0,-1.5 -2.5,-6.5" /></g></g></g></g><g class="plotbox trees"><g class="tree t0" transform="translate(20 0)"><g class="plotbox"><g class="c2 node n20 p0 root" transform="translate(157.667 26.8)"><g class="a20 c2 m0 m1 node n14 p0 s0 s1" transform="translate(49 121.107)"><g class="a14 i3 leaf node n6 p2 sample" transform="translate(16 23.4927)"><path class="edge" d="M 0 0 V -23.4927 H -16" /><rect class="sym" height="6" width="6" x="-3" y="-3" /><text class="lab" transform="translate(0 11)">j</text></g><g class="a14 c2 node n13 p0" transform="translate(-16 13.0082)"><g class="a13 i0 leaf node n1 p1 sample" transform="translate(-10.6667 10.4845)"><path class="edge" d="M 0 0 V -10.4845 H 10.6667" /><rect class="sym" height="6" width="6" x="-3" y="-3" /><text class="lab" transform="translate(0 11)">h</text></g><g class="a13 i3 leaf node n7 p2 sample" transform="translate(10.6667 10.4845)"><path class="edge" d="M 0 0 V -10.4845 H -10.6667" /><rect class="sym" height="6" width="6" x="-3" y="-3" /><text class="lab" transform="translate(0 11)">i</text></g><path class="edge" d="M 0 0 V -13.0082 H 16" /><circle class="sym" cx="0" cy="0" r="3" /><text class="lab lft" transform="translate(-3 -7.0)">n</text></g><path class="edge" d="M 0 0 V -121.107 H -49" /><g class="mut m1 s1" transform="translate(0 -82.7716)"><line x1="0" x2="0" y1="0" y2="82.7716" /><path class="sym" d="M -3,-3 l 6,6 M -3,3 l 6,-6" /><text class="lab rgt" transform="translate(5 0)">51 (C→G)</text></g><g class="mut m0 s0" transform="translate(0 -40.2165)"><line x1="0" x2="0" y1="0" y2="40.2165" /><path class="sym" d="M -3,-3 l 6,6 M -3,3 l 6,-6" /><text class="lab rgt" transform="translate(5 0)">6 (A→C)</text></g><circle class="sym" cx="0" cy="0" r="3" /><text class="lab rgt" transform="translate(3 -7.0)">o</text></g><g class="a20 c2 node n19 p0" transform="translate(-49 56.0698)"><g class="a19 i2 leaf m2 node n5 p2 s2 sample" transform="translate(50 88.5302)"><path class="edge" d="M 0 0 V -88.5302 H -50" /><g class="mut m2 s2" transform="translate(0 -15.456)"><line x1="0" x2="0" y1="0" y2="15.456" /><path class="sym" d="M -3,-3 l 6,6 M -3,3 l 6,-6" /><text class="lab rgt" transform="translate(5 0)">108 (A→C)</text></g><rect class="sym" height="6" width="6" x="-3" y="-3" /><text class="lab" transform="translate(0 11)">g</text></g><g class="a19 c2 node n17 p0" transform="translate(-50 16.8039)"><g class="a17 i0 leaf node n0 p1 sample" transform="translate(-28 71.7263)"><path class="edge" d="M 0 0 V -71.7263 H 28" /><rect class="sym" height="6" width="6" x="-3" y="-3" /><text class="lab" transform="translate(0 11)">a</text></g><g class="a17 c2 node n15 p0" transform="translate(28 48.119)"><g class="a15 c2 node n11 p2" transform="translate(24 20.3069)"><g class="a11 i2 leaf node n4 p2 sample" transform="translate(-16 3.30029)"><path class="edge" d="M 0 0 V -3.30029 H 16" /><rect class="sym" height="6" width="6" x="-3" y="-3" /><text class="lab" transform="translate(0 11)">d</text></g><g class="a11 c2 node n10 p2" transform="translate(16 0.5326)"><g class="a10 i4 leaf node n8 p2 sample" transform="translate(-10.6667 2.76769)"><path class="edge" d="M 0 0 V -2.76769 H 10.6667" /><rect class="sym" height="6" width="6" x="-3" y="-3" /><text class="lab" transform="translate(0 11)">e</text></g><g class="a10 i4 leaf node n9 p2 sample" transform="translate(10.6667 2.76769)"><path class="edge" d="M 0 0 V -2.76769 H -10.6667" /><rect class="sym" height="6" width="6" x="-3" y="-3" /><text class="lab" transform="translate(0 11)">f</text></g><path class="edge" d="M 0 0 V -0.5326 H -16" /><circle class="sym" cx="0" cy="0" r="3" /><text class="lab rgt" transform="translate(3 -7.0)">k</text></g><path class="edge" d="M 0 0 V -20.3069 H -24" /><circle class="sym" cx="0" cy="0" r="3" /><text class="lab rgt" transform="translate(3 -7.0)">l</text></g><g class="a15 c2 node n12 p0" transform="translate(-24 14.4347)"><g class="a12 i1 leaf node n2 p1 sample" transform="translate(-10.6667 9.17257)"><path class="edge" d="M 0 0 V -9.17257 H 10.6667" /><rect class="sym" height="6" width="6" x="-3" y="-3" /><text class="lab" transform="translate(0 11)">b</text></g><g class="a12 i1 leaf node n3 p1 sample" transform="translate(10.6667 9.17257)"><path class="edge" d="M 0 0 V -9.17257 H -10.6667" /><rect class="sym" height="6" width="6" x="-3" y="-3" /><text class="lab" transform="translate(0 11)">c</text></g><path class="edge" d="M 0 0 V -14.4347 H 24" /><circle class="sym" cx="0" cy="0" r="3" /><text class="lab lft" transform="translate(-3 -7.0)">m</text></g><path class="edge" d="M 0 0 V -48.119 H -28" /><circle class="sym" cx="0" cy="0" r="3" /><text class="lab rgt" transform="translate(3 -7.0)">p</text></g><path class="edge" d="M 0 0 V -16.8039 H 50" /><circle class="sym" cx="0" cy="0" r="3" /><text class="lab lft" transform="translate(-3 -7.0)">r</text></g><path class="edge" d="M 0 0 V -56.0698 H 49" /><circle class="sym" cx="0" cy="0" r="3" /><text class="lab lft" transform="translate(-3 -7.0)">t</text></g><circle class="sym" cx="0" cy="0" r="3" /><text class="lab" transform="translate(0 -11)">u</text></g></g></g><g class="tree t1" transform="translate(273.333 0)"><g class="plotbox"><g class="c2 node n20 p0 root" transform="translate(141.667 26.8)"><g class="a20 c2 node n14 p0" transform="translate(65 121.107)"><g class="a14 i3 leaf node n6 p2 sample" transform="translate(16 23.4927)"><path class="edge" d="M 0 0 V -23.4927 H -16" /><rect class="sym" height="6" width="6" x="-3" y="-3" /><text class="lab" transform="translate(0 11)">j</text></g><g class="a14 c2 node n13 p0" transform="translate(-16 13.0082)"><g class="a13 i0 leaf node n1 p1 sample" transform="translate(-10.6667 10.4845)"><path class="edge" d="M 0 0 V -10.4845 H 10.6667" /><rect class="sym" height="6" width="6" x="-3" y="-3" /><text class="lab" transform="translate(0 11)">h</text></g><g class="a13 i3 leaf node n7 p2 sample" transform="translate(10.6667 10.4845)"><path class="edge" d="M 0 0 V -10.4845 H -10.6667" /><rect class="sym" height="6" width="6" x="-3" y="-3" /><text class="lab" transform="translate(0 11)">i</text></g><path class="edge" d="M 0 0 V -13.0082 H 16" /><circle class="sym" cx="0" cy="0" r="3" /><text class="lab lft" transform="translate(-3 -7.0)">n</text></g><path class="edge" d="M 0 0 V -121.107 H -65" /><circle class="sym" cx="0" cy="0" r="3" /><text class="lab rgt" transform="translate(3 -7.0)">o</text></g><g class="a20 c2 node n19 p0" transform="translate(-65 56.0698)"><g class="a19 i0 leaf node n0 p1 sample" transform="translate(-46 88.5302)"><path class="edge" d="M 0 0 V -88.5302 H 46" /><rect class="sym" height="6" width="6" x="-3" y="-3" /><text class="lab" transform="translate(0 11)">a</text></g><g class="a19 c2 node n18 p0" transform="translate(46 13.8521)"><g class="a18 i2 leaf m4 node n5 p2 s4 sample" transform="translate(36 74.678)"><path class="edge" d="M 0 0 V -74.678 H -36" /><g class="mut m4 s4" transform="translate(0 -41.567)"><line x1="0" x2="0" y1="0" y2="41.567" /><path class="sym" d="M -3,-3 l 6,6 M -3,3 l 6,-6" /><text class="lab rgt" transform="translate(5 0)">496 (T→C)</text></g><rect class="sym" height="6" width="6" x="-3" y="-3" /><text class="lab" transform="translate(0 11)">g</text></g><g class="a18 c2 m3 node n15 p0 s3" transform="translate(-36 51.0708)"><g class="a15 c2 node n11 p2" transform="translate(24 20.3069)"><g class="a11 i2 leaf node n4 p2 sample" transform="translate(-16 3.30029)"><path class="edge" d="M 0 0 V -3.30029 H 16" /><rect class="sym" height="6" width="6" x="-3" y="-3" /><text class="lab" transform="translate(0 11)">d</text></g><g class="a11 c2 node n10 p2" transform="translate(16 0.5326)"><g class="a10 i4 leaf node n8 p2 sample" transform="translate(-10.6667 2.76769)"><path class="edge" d="M 0 0 V -2.76769 H 10.6667" /><rect class="sym" height="6" width="6" x="-3" y="-3" /><text class="lab" transform="translate(0 11)">e</text></g><g class="a10 i4 leaf node n9 p2 sample" transform="translate(10.6667 2.76769)"><path class="edge" d="M 0 0 V -2.76769 H -10.6667" /><rect class="sym" height="6" width="6" x="-3" y="-3" /><text class="lab" transform="translate(0 11)">f</text></g><path class="edge" d="M 0 0 V -0.5326 H -16" /><circle class="sym" cx="0" cy="0" r="3" /><text class="lab rgt" transform="translate(3 -7.0)">k</text></g><path class="edge" d="M 0 0 V -20.3069 H -24" /><circle class="sym" cx="0" cy="0" r="3" /><text class="lab rgt" transform="translate(3 -7.0)">l</text></g><g class="a15 c2 node n12 p0" transform="translate(-24 14.4347)"><g class="a12 i1 leaf node n2 p1 sample" transform="translate(-10.6667 9.17257)"><path class="edge" d="M 0 0 V -9.17257 H 10.6667" /><rect class="sym" height="6" width="6" x="-3" y="-3" /><text class="lab" transform="translate(0 11)">b</text></g><g class="a12 i1 leaf node n3 p1 sample" transform="translate(10.6667 9.17257)"><path class="edge" d="M 0 0 V -9.17257 H -10.6667" /><rect class="sym" height="6" width="6" x="-3" y="-3" /><text class="lab" transform="translate(0 11)">c</text></g><path class="edge" d="M 0 0 V -14.4347 H 24" /><circle class="sym" cx="0" cy="0" r="3" /><text class="lab lft" transform="translate(-3 -7.0)">m</text></g><path class="edge" d="M 0 0 V -51.0708 H 36" /><g class="mut m3 s3" transform="translate(0 -40.1915)"><line x1="0" x2="0" y1="0" y2="40.1915" /><path class="sym" d="M -3,-3 l 6,6 M -3,3 l 6,-6" /><text class="lab lft" transform="translate(-5 0)">417 (T→A)</text></g><circle class="sym" cx="0" cy="0" r="3" /><text class="lab lft" transform="translate(-3 -7.0)">p</text></g><path class="edge" d="M 0 0 V -13.8521 H -46" /><circle class="sym" cx="0" cy="0" r="3" /><text class="lab rgt" transform="translate(3 -7.0)">s</text></g><path class="edge" d="M 0 0 V -56.0698 H 65" /><circle class="sym" cx="0" cy="0" r="3" /><text class="lab lft" transform="translate(-3 -7.0)">t</text></g><circle class="sym" cx="0" cy="0" r="3" /><text class="lab" transform="translate(0 -11)">u</text></g></g></g><g class="tree t2" transform="translate(526.667 0)"><g class="plotbox"><g class="c2 node n20 p0 root" transform="translate(157.667 26.8)"><g class="a20 c2 m11 node n14 p0 s11" transform="translate(49 121.107)"><g class="a14 i3 leaf node n6 p2 sample" transform="translate(16 23.4927)"><path class="edge" d="M 0 0 V -23.4927 H -16" /><rect class="sym" height="6" width="6" x="-3" y="-3" /><text class="lab" transform="translate(0 11)">j</text></g><g class="a14 c2 node n13 p0" transform="translate(-16 13.0082)"><g class="a13 i0 leaf node n1 p1 sample" transform="translate(-10.6667 10.4845)"><path class="edge" d="M 0 0 V -10.4845 H 10.6667" /><rect class="sym" height="6" width="6" x="-3" y="-3" /><text class="lab" transform="translate(0 11)">h</text></g><g class="a13 i3 leaf node n7 p2 sample" transform="translate(10.6667 10.4845)"><path class="edge" d="M 0 0 V -10.4845 H -10.6667" /><rect class="sym" height="6" width="6" x="-3" y="-3" /><text class="lab" transform="translate(0 11)">i</text></g><path class="edge" d="M 0 0 V -13.0082 H 16" /><circle class="sym" cx="0" cy="0" r="3" /><text class="lab lft" transform="translate(-3 -7.0)">n</text></g><path class="edge" d="M 0 0 V -121.107 H -49" /><g class="mut m11 s11" transform="translate(0 -34.426)"><line x1="0" x2="0" y1="0" y2="34.426" /><path class="sym" d="M -3,-3 l 6,6 M -3,3 l 6,-6" /><text class="lab rgt" transform="translate(5 0)">987 (G→T)</text></g><circle class="sym" cx="0" cy="0" r="3" /><text class="lab rgt" transform="translate(3 -7.0)">o</text></g><g class="a20 c2 m10 m6 m7 node n18 p0 s10 s6 s7" transform="translate(-49 69.922)"><g class="a18 i2 leaf node n5 p2 sample" transform="translate(50 74.678)"><path class="edge" d="M 0 0 V -74.678 H -50" /><rect class="sym" height="6" width="6" x="-3" y="-3" /><text class="lab" transform="translate(0 11)">g</text></g><g class="a18 c2 m9 node n16 p0 s9" transform="translate(-50 46.8197)"><g class="a16 i0 leaf m8 node n0 p1 s8 sample" transform="translate(-28 27.8584)"><path class="edge" d="M 0 0 V -27.8584 H 28" /><g class="mut m8 s8" transform="translate(0 -26.625)"><line x1="0" x2="0" y1="0" y2="26.625" /><path class="sym" d="M -3,-3 l 6,6 M -3,3 l 6,-6" /><text class="lab lft" transform="translate(-5 0)">822 (C→G)</text></g><rect class="sym" height="6" width="6" x="-3" y="-3" /><text class="lab" transform="translate(0 11)">a</text></g><g class="a16 c2 node n15 p0" transform="translate(28 4.25116)"><g class="a15 c2 node n11 p2" transform="translate(24 20.3069)"><g class="a11 i2 leaf node n4 p2 sample" transform="translate(-16 3.30029)"><path class="edge" d="M 0 0 V -3.30029 H 16" /><rect class="sym" height="6" width="6" x="-3" y="-3" /><text class="lab" transform="translate(0 11)">d</text></g><g class="a11 c2 node n10 p2" transform="translate(16 0.5326)"><g class="a10 i4 leaf node n8 p2 sample" transform="translate(-10.6667 2.76769)"><path class="edge" d="M 0 0 V -2.76769 H 10.6667" /><rect class="sym" height="6" width="6" x="-3" y="-3" /><text class="lab" transform="translate(0 11)">e</text></g><g class="a10 i4 leaf node n9 p2 sample" transform="translate(10.6667 2.76769)"><path class="edge" d="M 0 0 V -2.76769 H -10.6667" /><rect class="sym" height="6" width="6" x="-3" y="-3" /><text class="lab" transform="translate(0 11)">f</text></g><path class="edge" d="M 0 0 V -0.5326 H -16" /><circle class="sym" cx="0" cy="0" r="3" /><text class="lab rgt" transform="translate(3 -7.0)">k</text></g><path class="edge" d="M 0 0 V -20.3069 H -24" /><circle class="sym" cx="0" cy="0" r="3" /><text class="lab rgt" transform="translate(3 -7.0)">l</text></g><g class="a15 c2 node n12 p0" transform="translate(-24 14.4347)"><g class="a12 i1 leaf node n2 p1 sample" transform="translate(-10.6667 9.17257)"><path class="edge" d="M 0 0 V -9.17257 H 10.6667" /><rect class="sym" height="6" width="6" x="-3" y="-3" /><text class="lab" transform="translate(0 11)">b</text></g><g class="a12 i1 leaf m5 node n3 p1 s5 sample" transform="translate(10.6667 9.17257)"><path class="edge" d="M 0 0 V -9.17257 H -10.6667" /><g class="mut m5 s5" transform="translate(0 -8.03188)"><line x1="0" x2="0" y1="0" y2="8.03188" /><path class="sym" d="M -3,-3 l 6,6 M -3,3 l 6,-6" /><text class="lab rgt" transform="translate(5 0)">569 (C→G)</text></g><rect class="sym" height="6" width="6" x="-3" y="-3" /><text class="lab" transform="translate(0 11)">c</text></g><path class="edge" d="M 0 0 V -14.4347 H 24" /><circle class="sym" cx="0" cy="0" r="3" /><text class="lab lft" transform="translate(-3 -7.0)">m</text></g><path class="edge" d="M 0 0 V -4.25116 H -28" /><circle class="sym" cx="0" cy="0" r="3" /><text class="lab rgt" transform="translate(3 -7.0)">p</text></g><path class="edge" d="M 0 0 V -46.8197 H 50" /><g class="mut m9 s9" transform="translate(0 -41.3376)"><line x1="0" x2="0" y1="0" y2="41.3376" /><path class="sym" d="M -3,-3 l 6,6 M -3,3 l 6,-6" /><text class="lab lft" transform="translate(-5 0)">863 (A→C)</text></g><circle class="sym" cx="0" cy="0" r="3" /><text class="lab lft" transform="translate(-3 -7.0)">q</text></g><path class="edge" d="M 0 0 V -69.922 H 49" /><g class="mut m6 s6" transform="translate(0 -69.1144)"><line x1="0" x2="0" y1="0" y2="69.1144" /><path class="sym" d="M -3,-3 l 6,6 M -3,3 l 6,-6" /><text class="lab lft" transform="translate(-5 0)">617 (T→A)</text></g><g class="mut m10 s10" transform="translate(0 -57.6479)"><line x1="0" x2="0" y1="0" y2="57.6479" /><path class="sym" d="M -3,-3 l 6,6 M -3,3 l 6,-6" /><text class="lab lft" transform="translate(-5 0)">907 (G→C)</text></g><g class="mut m7 s7" transform="translate(0 -43.764)"><line x1="0" x2="0" y1="0" y2="43.764" /><path class="sym" d="M -3,-3 l 6,6 M -3,3 l 6,-6" /><text class="lab lft" transform="translate(-5 0)">731 (T→A)</text></g><circle class="sym" cx="0" cy="0" r="3" /><text class="lab lft" transform="translate(-3 -7.0)">s</text></g><circle class="sym" cx="0" cy="0" r="3" /><text class="lab" transform="translate(0 -11)">u</text></g></g></g></g></g></svg>