<svg xmlns="http://www.w3.org/2000/svg" xmlns:ev="http://www.w3.org/2001/xml-events" xmlns:xlink="http://www.w3.org/1999/xlink" baseProfile="full" height="250" version="1.1" width="800"><defs><style type="text/css"><![CDATA[.background path {fill: #808080; fill-opacity:0}.background path:nth-child(odd) {fill-opacity:.1}.axes {font-size: 14px}.x-axis .tick .lab {font-weight: bold}.axes, .tree {font-size: 14px; text-anchor:middle}.y-axis line.grid {stroke: #FAFAFA}.y-axis > .lab text {transform: translateX(0.8em) rotate(-90deg)}.x-axis .tick g {transform: translateY(0.9em)}.x-axis > .lab text {transform: translateY(-0.8em)}.axes line, .edge {stroke:black; fill:none}.node > .sym {fill: black; stroke: none}.site > .sym {stroke: black}.mut text {fill: red; font-style: italic}.mut.extra text {fill: hotpink}.mut line {fill: none; stroke: none}.mut .sym {fill: none; stroke: red}.mut.extra .sym {stroke: hotpink}.node .mut .sym {stroke-width: 1.5px}.tree text, .tree-sequence text {dominant-baseline: central}.plotbox .lab.lft {text-anchor: end}.plotbox .lab.rgt {text-anchor: start}.node:not(.sample) > .sym, .node:not(.sample) > .lab {visibility: hidden;}.mut {font-size: 12px}]]></style></defs><g class="tree-sequence"><g class="background"><path d="M20,0 l253.333,0 l0,188.2 l290.067,25 l0,5 l-543.4,0 l0,-5 l0,-25 l0,-188.2z"/><path d="M273.333,0 l253.333,0 l0,188.2 l201.653,25 l0,5 l-164.92,0 l0,-5 l-290.067,-25 l0,-188.2z"/><path d="M526.667,0 l253.333,0 l0,188.2 l0,25 l0,5 l-51.68,0 l0,-5 l-201.653,-25 l0,-188.2z"/></g><g class="axes"><g class="x-axis"><g class="lab" transform="translate(400,250)"><text text-anchor="middle">Genome position</text></g><line x1="20" x2="780" y1="213.2" y2="213.2"/><g class="tick" transform="translate(20 213.2)"><line x1="0" x2="0" y1="0" y2="5"/><g class="lab" transform="translate(0,5)"><text>0</text></g></g><g class="tick" transform="translate(563.4 213.2)"><line x1="0" x2="0" y1="0" y2="5"/><g class="lab" transform="translate(0,5)"><text>715</text></g></g><g class="tick" transform="translate(728.32 213.2)"><line x1="0" x2="0" y1="0" y2="5"/><g class="lab" transform="translate(0,5)"><text>932</text></g></g><g class="tick" transform="translate(780 213.2)"><line x1="0" x2="0" y1="0" y2="5"/><g class="lab" transform="translate(0,5)"><text>1000</text></g></g><g class="site s0" transform="translate(172 213.2)"><line class="sym" x1="0" x2="0" y1="0" y2="-10"/><g class="mut m0"><polyline class="sym" points="2.5,-6.5 0,-1.5 -2.5,-6.5"/></g></g><g class="site s1" transform="translate(336.92 213.2)"><line class="sym" x1="0" x2="0" y1="0" y2="-10"/><g class="mut m1"><polyline class="sym" points="2.5,-6.5 0,-1.5 -2.5,-6.5"/></g></g><g class="site s2" transform="translate(345.28 213.2)"><line class="sym" x1="0" x2="0" y1="0" y2="-10"/><g class="mut m2"><polyline class="sym" points="2.5,-6.5 0,-1.5 -2.5,-6.5"/></g></g><g class="site s3" transform="translate(374.92 213.2)"><line class="sym" x1="0" x2="0" y1="0" y2="-10"/><g class="mut m3"><polyline class="sym" points="2.5,-6.5 0,-1.5 -2.5,-6.5"/></g></g><g class="site s4" transform="translate(466.88 213.2)"><line class="sym" x1="0" x2="0" y1="0" y2="-10"/><g class="mut m4"><polyline class="sym" points="2.5,-6.5 0,-1.5 -2.5,-6.5"/></g></g><g class="site s5" transform="translate(526.92 213.2)"><line class="sym" x1="0" x2="0" y1="0" y2="-10"/><g class="mut m5"><polyline class="sym" points="2.5,-6.5 0,-1.5 -2.5,-6.5"/></g></g><g class="site s6" transform="translate(628 213.2)"><line class="sym" x1="0" x2="0" y1="0" y2="-10"/><g class="mut m6"><polyline class="sym" points="2.5,-6.5 0,-1.5 -2.5,-6.5"/></g></g><g class="site s7" transform="translate(680.44 213.2)"><line class="sym" x1="0" x2="0" y1="0" y2="-10"/><g class="mut m7"><polyline class="sym" points="2.5,-6.5 0,-1.5 -2.5,-6.5"/></g></g><g class="site s8" transform="translate(685 213.2)"><line class="sym" x1="0" x2="0" y1="0" y2="-10"/><g class="mut m8"><polyline class="sym" points="2.5,-6.5 0,-1.5 -2.5,-6.5"/></g></g><g class="site s9" transform="translate(769.36 213.2)"><line class="sym" x1="0" x2="0" y1="0" y2="-10"/><g class="mut m9"><polyline class="sym" points="2.5,-6.5 0,-1.5 -2.5,-6.5"/></g></g></g></g><g class="plotbox trees"><g class="tree t0" transform="translate(20 0)"><g class="plotbox"><g class="node n20 p0 root" transform="translate(116.667 26.8)"><g class="a20 m0 node n16 p0 s0" transform="translate(-59.3333 61.7567)"><g class="a16 i0 leaf node n1 p0 sample" transform="translate(16 82.8433)"><path class="edge" d="M 0 0 V -82.8433 H -16"/><rect class="sym" height="6" width="6" x="-3" y="-3"/><text class="lab" transform="translate(0 11)">c</text></g><g class="a16 m1 node n12 p0 s1" transform="translate(-16 50.5794)"><g class="a12 i0 leaf node n0 p0 sample" transform="translate(-10.6667 32.2639)"><path class="edge" d="M 0 0 V -32.2639 H 10.6667"/><rect class="sym" height="6" width="6" x="-3" y="-3"/><text class="lab" transform="translate(0 11)">a</text></g><g class="a12 i4 leaf node n9 p0 sample" transform="translate(10.6667 32.2639)"><path class="edge" d="M 0 0 V -32.2639 H -10.6667"/><rect class="sym" height="6" width="6" x="-3" y="-3"/><text class="lab" transform="translate(0 11)">b</text></g><path class="edge" d="M 0 0 V -50.5794 H 16"/><g class="mut m1 s1" transform="translate(0 -6.46475)"><line x1="0" x2="0" y1="0" y2="6.46475"/><path class="sym" d="M -3,-3 l 6,6 M -3,3 l 6,-6"/><text class="lab lft" transform="translate(-5 0)">417 (T→A)</text></g><circle class="sym" cx="0" cy="0" r="3"/><text class="lab lft" transform="translate(-3 -7.0)">m</text></g><path class="edge" d="M 0 0 V -61.7567 H 59.3333"/><g class="mut m0 s0" transform="translate(0 -61.4802)"><line x1="0" x2="0" y1="0" y2="61.4802"/><path class="sym" d="M -3,-3 l 6,6 M -3,3 l 6,-6"/><text class="lab lft" transform="translate(-5 0)">200 (T→G)</text></g><circle class="sym" cx="0" cy="0" r="3"/><text class="lab lft" transform="translate(-3 -7.0)">q</text></g><g class="a20 m2 m3 node n18 p0 s2 s3" transform="translate(59.3333 49.2612)"><g class="a18 node n14 p0" transform="translate(36 26.3083)"><g class="a14 i1 leaf node n3 p0 sample" transform="translate(-10.6667 69.0304)"><path class="edge" d="M 0 0 V -69.0304 H 10.6667"/><rect class="sym" height="6" width="6" x="-3" y="-3"/><text class="lab" transform="translate(0 11)">i</text></g><g class="a14 i2 leaf m4 node n5 p0 s4 sample" transform="translate(10.6667 69.0304)"><path class="edge" d="M 0 0 V -69.0304 H -10.6667"/><g class="mut m4 s4" transform="translate(0 -39.0345)"><line x1="0" x2="0" y1="0" y2="39.0345"/><path class="sym" d="M -3,-3 l 6,6 M -3,3 l 6,-6"/><text class="lab rgt" transform="translate(5 0)">588 (G→A)</text></g><rect class="sym" height="6" width="6" x="-3" y="-3"/><text class="lab" transform="translate(0 11)">j</text></g><path class="edge" d="M 0 0 V -26.3083 H -36"/><circle class="sym" cx="0" cy="0" r="3"/><text class="lab rgt" transform="translate(3 -7.0)">o</text></g><g class="a18 node n15 p0" transform="translate(-36 15.4767)"><g class="a15 node n10 p0" transform="translate(29.3333 50.5987)"><g class="a10 i2 leaf node n4 p0 sample" transform="translate(-10.6667 29.2634)"><path class="edge" d="M 0 0 V -29.2634 H 10.6667"/><rect class="sym" height="6" width="6" x="-3" y="-3"/><text class="lab" transform="translate(0 11)">g</text></g><g class="a10 i4 leaf node n8 p0 sample" transform="translate(10.6667 29.2634)"><path class="edge" d="M 0 0 V -29.2634 H -10.6667"/><rect class="sym" height="6" width="6" x="-3" y="-3"/><text class="lab" transform="translate(0 11)">h</text></g><path class="edge" d="M 0 0 V -50.5987 H -29.3333"/><circle class="sym" cx="0" cy="0" r="3"/><text class="lab rgt" transform="translate(3 -7.0)">k</text></g><g class="a15 node n13 p0" transform="translate(-29.3333 31.7699)"><g class="a13 i1 leaf node n2 p0 sample" transform="translate(-16 48.0922)"><path class="edge" d="M 0 0 V -48.0922 H 16"/><rect class="sym" height="6" width="6" x="-3" y="-3"/><text class="lab" transform="translate(0 11)">d</text></g><g class="a13 m5 node n11 p0 s5" transform="translate(16 16.0709)"><g class="a11 i3 leaf node n6 p0 sample" transform="translate(-10.6667 32.0213)"><path class="edge" d="M 0 0 V -32.0213 H 10.6667"/><rect class="sym" height="6" width="6" x="-3" y="-3"/><text class="lab" transform="translate(0 11)">e</text></g><g class="a11 i3 leaf node n7 p0 sample" transform="translate(10.6667 32.0213)"><path class="edge" d="M 0 0 V -32.0213 H -10.6667"/><rect class="sym" height="6" width="6" x="-3" y="-3"/><text class="lab" transform="translate(0 11)">f</text></g><path class="edge" d="M 0 0 V -16.0709 H -16"/><g class="mut m5 s5" transform="translate(0 -4.18996)"><line x1="0" x2="0" y1="0" y2="4.18996"/><path class="sym" d="M -3,-3 l 6,6 M -3,3 l 6,-6"/><text class="lab rgt" transform="translate(5 0)">667 (C→T)</text></g><circle class="sym" cx="0" cy="0" r="3"/><text class="lab rgt" transform="translate(3 -7.0)">l</text></g><path class="edge" d="M 0 0 V -31.7699 H 29.3333"/><circle class="sym" cx="0" cy="0" r="3"/><text class="lab lft" transform="translate(-3 -7.0)">n</text></g><path class="edge" d="M 0 0 V -15.4767 H 36"/><circle class="sym" cx="0" cy="0" r="3"/><text class="lab lft" transform="translate(-3 -7.0)">p</text></g><path class="edge" d="M 0 0 V -49.2612 H -59.3333"/><g class="mut m2 s2" transform="translate(0 -44.9944)"><line x1="0" x2="0" y1="0" y2="44.9944"/><path class="sym" d="M -3,-3 l 6,6 M -3,3 l 6,-6"/><text class="lab rgt" transform="translate(5 0)">428 (T→G)</text></g><g class="mut m3 s3" transform="translate(0 -32.2909)"><line x1="0" x2="0" y1="0" y2="32.2909"/><path class="sym" d="M -3,-3 l 6,6 M -3,3 l 6,-6"/><text class="lab rgt" transform="translate(5 0)">467 (A→T)</text></g><circle class="sym" cx="0" cy="0" r="3"/><text class="lab rgt" transform="translate(3 -7.0)">s</text></g><circle class="sym" cx="0" cy="0" r="3"/><text class="lab" transform="translate(0 -11)">u</text></g></g></g><g class="tree t1" transform="translate(273.333 0)"><g class="plotbox"><g class="node n20 p0 root" transform="translate(155.333 26.8)"><g class="a20 m6 m8 node n14 p0 s6 s8" transform="translate(56.6667 75.5696)"><g class="a14 i1 leaf node n3 p0 sample" transform="translate(-10.6667 69.0304)"><path class="edge" d="M 0 0 V -69.0304 H 10.6667"/><rect class="sym" height="6" width="6" x="-3" y="-3"/><text class="lab" transform="translate(0 11)">i</text></g><g class="a14 i2 leaf node n5 p0 sample" transform="translate(10.6667 69.0304)"><path class="edge" d="M 0 0 V -69.0304 H -10.6667"/><rect class="sym" height="6" width="6" x="-3" y="-3"/><text class="lab" transform="translate(0 11)">j</text></g><path class="edge" d="M 0 0 V -75.5696 H -56.6667"/><g class="mut m6 s6" transform="translate(0 -71.7322)"><line x1="0" x2="0" y1="0" y2="71.7322"/><path class="sym" d="M -3,-3 l 6,6 M -3,3 l 6,-6"/><text class="lab rgt" transform="translate(5 0)">800 (A→C)</text></g><g class="mut m8 s8" transform="translate(0 -62.8764)"><line x1="0" x2="0" y1="0" y2="62.8764"/><path class="sym" d="M -3,-3 l 6,6 M -3,3 l 6,-6"/><text class="lab rgt" transform="translate(5 0)">875 (T→C)</text></g><circle class="sym" cx="0" cy="0" r="3"/><text class="lab rgt" transform="translate(3 -7.0)">o</text></g><g class="a20 m7 node n17 p0 s7" transform="translate(-56.6667 51.8643)"><g class="a17 node n15 p0" transform="translate(41.3333 12.8736)"><g class="a15 node n10 p0" transform="translate(29.3333 50.5987)"><g class="a10 i2 leaf node n4 p0 sample" transform="translate(-10.6667 29.2634)"><path class="edge" d="M 0 0 V -29.2634 H 10.6667"/><rect class="sym" height="6" width="6" x="-3" y="-3"/><text class="lab" transform="translate(0 11)">g</text></g><g class="a10 i4 leaf node n8 p0 sample" transform="translate(10.6667 29.2634)"><path class="edge" d="M 0 0 V -29.2634 H -10.6667"/><rect class="sym" height="6" width="6" x="-3" y="-3"/><text class="lab" transform="translate(0 11)">h</text></g><path class="edge" d="M 0 0 V -50.5987 H -29.3333"/><circle class="sym" cx="0" cy="0" r="3"/><text class="lab rgt" transform="translate(3 -7.0)">k</text></g><g class="a15 node n13 p0" transform="translate(-29.3333 31.7699)"><g class="a13 i1 leaf node n2 p0 sample" transform="translate(-16 48.0922)"><path class="edge" d="M 0 0 V -48.0922 H 16"/><rect class="sym" height="6" width="6" x="-3" y="-3"/><text class="lab" transform="translate(0 11)">d</text></g><g class="a13 node n11 p0" transform="translate(16 16.0709)"><g class="a11 i3 leaf node n6 p0 sample" transform="translate(-10.6667 32.0213)"><path class="edge" d="M 0 0 V -32.0213 H 10.6667"/><rect class="sym" height="6" width="6" x="-3" y="-3"/><text class="lab" transform="translate(0 11)">e</text></g><g class="a11 i3 leaf node n7 p0 sample" transform="translate(10.6667 32.0213)"><path class="edge" d="M 0 0 V -32.0213 H -10.6667"/><rect class="sym" height="6" width="6" x="-3" y="-3"/><text class="lab" transform="translate(0 11)">f</text></g><path class="edge" d="M 0 0 V -16.0709 H -16"/><circle class="sym" cx="0" cy="0" r="3"/><text class="lab rgt" transform="translate(3 -7.0)">l</text></g><path class="edge" d="M 0 0 V -31.7699 H 29.3333"/><circle class="sym" cx="0" cy="0" r="3"/><text class="lab lft" transform="translate(-3 -7.0)">n</text></g><path class="edge" d="M 0 0 V -12.8736 H -41.3333"/><circle class="sym" cx="0" cy="0" r="3"/><text class="lab rgt" transform="translate(3 -7.0)">p</text></g><g class="a17 node n16 p0" transform="translate(-41.3333 9.89234)"><g class="a16 i0 leaf node n1 p0 sample" transform="translate(16 82.8433)"><path class="edge" d="M 0 0 V -82.8433 H -16"/><rect class="sym" height="6" width="6" x="-3" y="-3"/><text class="lab" transform="translate(0 11)">c</text></g><g class="a16 node n12 p0" transform="translate(-16 50.5794)"><g class="a12 i0 leaf node n0 p0 sample" transform="translate(-10.6667 32.2639)"><path class="edge" d="M 0 0 V -32.2639 H 10.6667"/><rect class="sym" height="6" width="6" x="-3" y="-3"/><text class="lab" transform="translate(0 11)">a</text></g><g class="a12 i4 leaf node n9 p0 sample" transform="translate(10.6667 32.2639)"><path class="edge" d="M 0 0 V -32.2639 H -10.6667"/><rect class="sym" height="6" width="6" x="-3" y="-3"/><text class="lab" transform="translate(0 11)">b</text></g><path class="edge" d="M 0 0 V -50.5794 H 16"/><circle class="sym" cx="0" cy="0" r="3"/><text class="lab lft" transform="translate(-3 -7.0)">m</text></g><path class="edge" d="M 0 0 V -9.89234 H 41.3333"/><circle class="sym" cx="0" cy="0" r="3"/><text class="lab lft" transform="translate(-3 -7.0)">q</text></g><path class="edge" d="M 0 0 V -51.8643 H 56.6667"/><g class="mut m7 s7" transform="translate(0 -18.3531)"><line x1="0" x2="0" y1="0" y2="18.3531"/><path class="sym" d="M -3,-3 l 6,6 M -3,3 l 6,-6"/><text class="lab lft" transform="translate(-5 0)">869 (T→A)</text></g><circle class="sym" cx="0" cy="0" r="3"/><text class="lab lft" transform="translate(-3 -7.0)">r</text></g><circle class="sym" cx="0" cy="0" r="3"/><text class="lab" transform="translate(0 -11)">u</text></g></g></g><g class="tree t2" transform="translate(526.667 0)"><g class="plotbox"><g class="node n20 p0 root" transform="translate(186.333 26.8)"><g class="a20 i2 leaf node n5 p0 sample" transform="translate(36.3333 144.6)"><path class="edge" d="M 0 0 V -144.6 H -36.3333"/><rect class="sym" height="6" width="6" x="-3" y="-3"/><text class="lab" transform="translate(0 11)">j</text></g><g class="a20 m9 node n19 p0 s9" transform="translate(-36.3333 43.13)"><g class="a19 i1 leaf node n3 p0 sample" transform="translate(51.3333 101.47)"><path class="edge" d="M 0 0 V -101.47 H -51.3333"/><rect class="sym" height="6" width="6" x="-3" y="-3"/><text class="lab" transform="translate(0 11)">i</text></g><g class="a19 node n17 p0" transform="translate(-51.3333 8.73437)"><g class="a17 node n15 p0" transform="translate(41.3333 12.8736)"><g class="a15 node n10 p0" transform="translate(29.3333 50.5987)"><g class="a10 i2 leaf node n4 p0 sample" transform="translate(-10.6667 29.2634)"><path class="edge" d="M 0 0 V -29.2634 H 10.6667"/><rect class="sym" height="6" width="6" x="-3" y="-3"/><text class="lab" transform="translate(0 11)">g</text></g><g class="a10 i4 leaf node n8 p0 sample" transform="translate(10.6667 29.2634)"><path class="edge" d="M 0 0 V -29.2634 H -10.6667"/><rect class="sym" height="6" width="6" x="-3" y="-3"/><text class="lab" transform="translate(0 11)">h</text></g><path class="edge" d="M 0 0 V -50.5987 H -29.3333"/><circle class="sym" cx="0" cy="0" r="3"/><text class="lab rgt" transform="translate(3 -7.0)">k</text></g><g class="a15 node n13 p0" transform="translate(-29.3333 31.7699)"><g class="a13 i1 leaf node n2 p0 sample" transform="translate(-16 48.0922)"><path class="edge" d="M 0 0 V -48.0922 H 16"/><rect class="sym" height="6" width="6" x="-3" y="-3"/><text class="lab" transform="translate(0 11)">d</text></g><g class="a13 node n11 p0" transform="translate(16 16.0709)"><g class="a11 i3 leaf node n6 p0 sample" transform="translate(-10.6667 32.0213)"><path class="edge" d="M 0 0 V -32.0213 H 10.6667"/><rect class="sym" height="6" width="6" x="-3" y="-3"/><text class="lab" transform="translate(0 11)">e</text></g><g class="a11 i3 leaf node n7 p0 sample" transform="translate(10.6667 32.0213)"><path class="edge" d="M 0 0 V -32.0213 H -10.6667"/><rect class="sym" height="6" width="6" x="-3" y="-3"/><text class="lab" transform="translate(0 11)">f</text></g><path class="edge" d="M 0 0 V -16.0709 H -16"/><circle class="sym" cx="0" cy="0" r="3"/><text class="lab rgt" transform="translate(3 -7.0)">l</text></g><path class="edge" d="M 0 0 V -31.7699 H 29.3333"/><circle class="sym" cx="0" cy="0" r="3"/><text class="lab lft" transform="translate(-3 -7.0)">n</text></g><path class="edge" d="M 0 0 V -12.8736 H -41.3333"/><circle class="sym" cx="0" cy="0" r="3"/><text class="lab rgt" transform="translate(3 -7.0)">p</text></g><g class="a17 node n16 p0" transform="translate(-41.3333 9.89234)"><g class="a16 i0 leaf node n1 p0 sample" transform="translate(16 82.8433)"><path class="edge" d="M 0 0 V -82.8433 H -16"/><rect class="sym" height="6" width="6" x="-3" y="-3"/><text class="lab" transform="translate(0 11)">c</text></g><g class="a16 node n12 p0" transform="translate(-16 50.5794)"><g class="a12 i0 leaf node n0 p0 sample" transform="translate(-10.6667 32.2639)"><path class="edge" d="M 0 0 V -32.2639 H 10.6667"/><rect class="sym" height="6" width="6" x="-3" y="-3"/><text class="lab" transform="translate(0 11)">a</text></g><g class="a12 i4 leaf node n9 p0 sample" transform="translate(10.6667 32.2639)"><path class="edge" d="M 0 0 V -32.2639 H -10.6667"/><rect class="sym" height="6" width="6" x="-3" y="-3"/><text class="lab" transform="translate(0 11)">b</text></g><path class="edge" d="M 0 0 V -50.5794 H 16"/><circle class="sym" cx="0" cy="0" r="3"/><text class="lab lft" transform="translate(-3 -7.0)">m</text></g><path class="edge" d="M 0 0 V -9.89234 H 41.3333"/><circle class="sym" cx="0" cy="0" r="3"/><text class="lab lft" transform="translate(-3 -7.0)">q</text></g><path class="edge" d="M 0 0 V -8.73437 H 51.3333"/><circle class="sym" cx="0" cy="0" r="3"/><text class="lab lft" transform="translate(-3 -7.0)">r</text></g><path class="edge" d="M 0 0 V -43.13 H 36.3333"/><g class="mut m9 s9" transform="translate(0 -16.1491)"><line x1="0" x2="0" y1="0" y2="16.1491"/><path class="sym" d="M -3,-3 l 6,6 M -3,3 l 6,-6"/><text class="lab lft" transform="translate(-5 0)">986 (C→G)</text></g><circle class="sym" cx="0" cy="0" r="3"/><text class="lab lft" transform="translate(-3 -7.0)">t</text></g><circle class="sym" cx="0" cy="0" r="3"/><text class="lab" transform="translate(0 -11)">u</text></g></g></g></g></g></svg>