<?xml version="1.0" encoding="utf-8" standalone="no"?>
<!DOCTYPE svg PUBLIC "-//W3C//DTD SVG 1.1//EN"
  "http://www.w3.org/Graphics/SVG/1.1/DTD/svg11.dtd">
<svg xmlns:xlink="http://www.w3.org/1999/xlink" width="339.528125pt" height="193.898125pt" viewBox="0 0 339.528125 193.898125" xmlns="http://www.w3.org/2000/svg" version="1.1">
 <metadata>
  <rdf:RDF xmlns:dc="http://purl.org/dc/elements/1.1/" xmlns:cc="http://creativecommons.org/ns#" xmlns:rdf="http://www.w3.org/1999/02/22-rdf-syntax-ns#">
   <cc:Work>
    <dc:type rdf:resource="http://purl.org/dc/dcmitype/StillImage"/>
    <dc:date>2022-09-27T08:38:06.779703</dc:date>
    <dc:format>image/svg+xml</dc:format>
    <dc:creator>
     <cc:Agent>
      <dc:title>Matplotlib v3.6.0, https://matplotlib.org/</dc:title>
     </cc:Agent>
    </dc:creator>
   </cc:Work>
  </rdf:RDF>
 </metadata>
 <defs>
  <style type="text/css">*{stroke-linejoin: round; stroke-linecap: butt}</style>
 </defs>
 <g id="figure_1">
  <g id="patch_1">
   <path d="M 0 193.898125 
L 339.528125 193.898125 
L 339.528125 0 
L 0 0 
z
" style="fill: #ffffff"/>
  </g>
  <g id="axes_1">
   <g id="patch_2">
    <path d="M 53.328125 173.52 
L 332.328125 173.52 
L 332.328125 7.2 
L 53.328125 7.2 
z
" style="fill: #ffffff"/>
   </g>
   <path d="M 102.618125 105.419062 
L 103.618125 105.450498 
L 104.618125 105.487439 
L 105.618125 105.585185 
L 106.618125 105.617707 
L 107.618125 105.691331 
L 108.618125 105.729897 
L 109.618125 105.76531 
L 110.618125 105.82295 
L 111.618125 105.893336 
L 112.618125 105.945301 
L 113.618125 106.00439 
L 114.618125 106.092711 
L 115.618125 106.138856 
L 116.618125 106.181267 
L 117.618125 106.211759 
L 118.618125 106.237804 
L 119.618125 106.259004 
L 120.618125 106.313305 
L 121.618125 106.341243 
L 122.618125 106.370967 
L 123.618125 106.396362 
L 124.618125 106.407562 
L 125.618125 106.417686 
L 126.618125 106.417482 
L 127.618125 106.407972 
L 128.618125 106.396318 
L 129.618125 106.365289 
L 130.618125 106.354121 
L 131.618125 106.324004 
L 132.618125 106.264227 
L 133.618125 106.227035 
L 134.618125 106.187939 
L 135.618125 106.145499 
L 136.618125 106.112734 
L 137.618125 106.045308 
L 138.618125 106.006182 
L 139.618125 105.963507 
L 140.618125 105.892927 
L 141.618125 105.856536 
L 142.618125 105.798133 
L 143.618125 105.68718 
L 144.618125 105.616522 
L 145.618125 105.503582 
L 146.618125 105.457809 
L 147.618125 105.396526 
L 148.618125 105.348026 
L 149.618125 105.267204 
L 150.618125 105.148685 
L 151.618125 105.078474 
L 152.618125 104.995212 
L 153.618125 104.96207 
L 154.618125 104.910833 
L 155.618125 104.842434 
L 156.618125 104.776219 
L 157.618125 104.699302 
L 158.618125 104.671986 
L 159.618125 104.645509 
L 160.618125 104.622858 
L 161.618125 104.603327 
L 162.618125 104.576933 
L 163.618125 104.527162 
L 164.618125 104.492089 
L 165.618125 104.456223 
L 166.618125 104.440856 
L 167.618125 104.425087 
L 168.618125 104.421674 
L 169.618125 104.419257 
L 170.618125 104.419743 
L 171.618125 104.421672 
L 172.618125 104.434929 
L 173.618125 104.443319 
L 174.618125 104.464856 
L 175.618125 104.487889 
L 176.618125 104.505122 
L 177.618125 104.523585 
L 178.618125 104.544037 
L 179.618125 104.560637 
L 180.618125 104.623416 
L 181.618125 104.698681 
L 182.618125 104.73132 
L 183.618125 104.798883 
L 184.618125 104.852931 
L 185.618125 104.886635 
L 186.618125 104.976761 
L 187.618125 105.005296 
L 188.618125 105.036782 
L 189.618125 105.067793 
L 190.618125 105.122601 
L 191.618125 105.187188 
L 192.618125 105.225383 
L 193.618125 105.321318 
L 194.618125 105.370576 
L 195.618125 105.414645 
L 196.618125 105.454769 
L 197.618125 105.563136 
L 198.618125 105.604764 
L 199.618125 105.666905 
L 200.618125 105.736868 
L 201.618125 105.841372 
L 202.618125 105.87836 
L 203.618125 105.924237 
L 204.618125 105.992732 
L 205.618125 106.041477 
L 206.618125 106.119075 
L 207.618125 106.149616 
L 208.618125 106.21913 
L 209.618125 106.243103 
L 210.618125 106.271725 
L 211.618125 106.313518 
L 212.618125 106.335094 
L 213.618125 106.349042 
L 214.618125 106.375764 
L 215.618125 106.385074 
L 216.618125 106.397521 
L 217.618125 106.408575 
L 218.618125 106.41424 
L 219.618125 106.419004 
L 220.618125 106.413456 
L 221.618125 106.400168 
L 222.618125 106.392651 
L 223.618125 106.367866 
L 224.618125 106.344297 
L 225.618125 106.308116 
L 226.618125 106.282155 
L 227.618125 106.259833 
L 228.618125 106.191073 
L 229.618125 106.116538 
L 230.618125 106.022559 
L 231.618125 105.971507 
L 232.618125 105.917573 
L 233.618125 105.882322 
L 234.618125 105.776234 
L 235.618125 105.72397 
L 236.618125 105.687063 
L 237.618125 105.656032 
L 238.618125 105.594877 
L 239.618125 105.527457 
L 240.618125 105.478551 
L 241.618125 105.413359 
L 242.618125 105.375171 
L 243.618125 105.333175 
L 244.618125 105.291158 
L 245.618125 105.231641 
L 246.618125 105.118482 
L 247.618125 105.066231 
L 248.618125 105.026813 
L 249.618125 104.979712 
L 250.618125 104.922932 
L 251.618125 104.890269 
L 252.618125 104.854091 
L 253.618125 104.822 
L 254.618125 104.787721 
L 255.618125 104.729343 
L 256.618125 104.684158 
L 257.618125 104.654534 
L 258.618125 104.604148 
L 259.618125 104.578951 
L 260.618125 104.5579 
L 261.618125 104.522932 
L 262.618125 104.498642 
L 263.618125 104.484575 
L 264.618125 104.465633 
L 265.618125 104.449971 
L 266.618125 104.43742 
L 267.618125 104.431584 
L 268.618125 104.424701 
L 269.618125 104.419528 
L 270.618125 104.42131 
L 271.618125 104.424036 
L 272.618125 104.43519 
L 273.618125 104.463425 
L 274.618125 104.507213 
L 276.274489 104.527902 
" clip-path="url(#pdcc19d1314)" style="fill: none; stroke: #ff7f0e; stroke-opacity: 0.5; stroke-width: 0.2; stroke-linecap: square"/>
   <path d="M 102.618125 47.055102 
L 103.618125 47.086539 
L 104.618125 47.123479 
L 105.618125 47.221226 
L 106.618125 47.253747 
L 107.618125 47.327372 
L 108.618125 47.365938 
L 109.618125 47.401351 
L 110.618125 47.458991 
L 111.618125 47.529377 
L 112.618125 47.581341 
L 113.618125 47.640431 
L 114.618125 47.728752 
L 115.618125 47.774896 
L 116.618125 47.817307 
L 117.618125 47.8478 
L 118.618125 47.873845 
L 119.618125 47.895045 
L 120.618125 47.949346 
L 121.618125 47.977283 
L 122.618125 48.007007 
L 123.618125 48.032402 
L 124.618125 48.043603 
L 125.618125 48.053727 
L 126.618125 48.053522 
L 127.618125 48.044012 
L 128.618125 48.032359 
L 129.618125 48.00133 
L 130.618125 47.990162 
L 131.618125 47.960044 
L 132.618125 47.900267 
L 133.618125 47.863076 
L 134.618125 47.82398 
L 135.618125 47.78154 
L 136.618125 47.748775 
L 137.618125 47.681348 
L 138.618125 47.642222 
L 139.618125 47.599548 
L 140.618125 47.528967 
L 141.618125 47.492576 
L 142.618125 47.434173 
L 143.618125 47.323221 
L 144.618125 47.252562 
L 145.618125 47.139622 
L 146.618125 47.09385 
L 147.618125 47.032566 
L 148.618125 46.984067 
L 149.618125 46.903244 
L 150.618125 46.784725 
L 151.618125 46.714515 
L 152.618125 46.631252 
L 153.618125 46.598111 
L 154.618125 46.546873 
L 155.618125 46.478475 
L 156.618125 46.412259 
L 157.618125 46.335342 
L 158.618125 46.308027 
L 159.618125 46.281549 
L 160.618125 46.258899 
L 161.618125 46.239367 
L 162.618125 46.212974 
L 163.618125 46.163203 
L 164.618125 46.12813 
L 165.618125 46.092264 
L 166.618125 46.076897 
L 167.618125 46.061127 
L 168.618125 46.057715 
L 169.618125 46.055297 
L 170.618125 46.055783 
L 171.618125 46.057713 
L 172.618125 46.07097 
L 173.618125 46.07936 
L 174.618125 46.100897 
L 175.618125 46.123929 
L 176.618125 46.141163 
L 177.618125 46.159625 
L 178.618125 46.180078 
L 179.618125 46.196678 
L 180.618125 46.259456 
L 181.618125 46.334721 
L 182.618125 46.367361 
L 183.618125 46.434924 
L 184.618125 46.488971 
L 185.618125 46.522676 
L 186.618125 46.612801 
L 187.618125 46.641336 
L 188.618125 46.672823 
L 189.618125 46.703833 
L 190.618125 46.758641 
L 191.618125 46.823229 
L 192.618125 46.861424 
L 193.618125 46.957358 
L 194.618125 47.006616 
L 195.618125 47.050686 
L 196.618125 47.090809 
L 197.618125 47.199176 
L 198.618125 47.240805 
L 199.618125 47.302946 
L 200.618125 47.372908 
L 201.618125 47.477413 
L 202.618125 47.5144 
L 203.618125 47.560278 
L 204.618125 47.628772 
L 205.618125 47.677518 
L 206.618125 47.755116 
L 207.618125 47.785656 
L 208.618125 47.855171 
L 209.618125 47.879144 
L 210.618125 47.907765 
L 211.618125 47.949558 
L 212.618125 47.971134 
L 213.618125 47.985082 
L 214.618125 48.011805 
L 215.618125 48.021115 
L 216.618125 48.033561 
L 217.618125 48.044616 
L 218.618125 48.050281 
L 219.618125 48.055044 
L 220.618125 48.049497 
L 221.618125 48.036209 
L 222.618125 48.028691 
L 223.618125 48.003906 
L 224.618125 47.980338 
L 225.618125 47.944157 
L 226.618125 47.918195 
L 227.618125 47.895874 
L 228.618125 47.827114 
L 229.618125 47.752579 
L 230.618125 47.658599 
L 231.618125 47.607547 
L 232.618125 47.553613 
L 233.618125 47.518363 
L 234.618125 47.412275 
L 235.618125 47.36001 
L 236.618125 47.323104 
L 237.618125 47.292073 
L 238.618125 47.230917 
L 239.618125 47.163497 
L 240.618125 47.114592 
L 241.618125 47.049399 
L 242.618125 47.011212 
L 243.618125 46.969216 
L 244.618125 46.927198 
L 245.618125 46.867682 
L 246.618125 46.754522 
L 247.618125 46.702271 
L 248.618125 46.662854 
L 249.618125 46.615752 
L 250.618125 46.558973 
L 251.618125 46.52631 
L 252.618125 46.490132 
L 253.618125 46.458041 
L 254.618125 46.423761 
L 255.618125 46.365384 
L 256.618125 46.320199 
L 257.618125 46.290575 
L 258.618125 46.240189 
L 259.618125 46.214991 
L 260.618125 46.19394 
L 261.618125 46.158972 
L 262.618125 46.134682 
L 263.618125 46.120615 
L 264.618125 46.101674 
L 265.618125 46.086012 
L 266.618125 46.07346 
L 267.618125 46.067625 
L 268.618125 46.060742 
L 269.618125 46.055568 
L 270.618125 46.057351 
L 271.618125 46.060077 
L 272.618125 46.07123 
L 273.618125 46.099466 
L 274.618125 46.143253 
L 276.274489 46.163942 
" clip-path="url(#pdcc19d1314)" style="fill: none; stroke: #ff7f0e; stroke-opacity: 0.5; stroke-width: 0.2; stroke-linecap: square"/>
   <path d="M 102.618125 154.338699 
L 103.618125 154.370135 
L 104.618125 154.407075 
L 105.618125 154.504822 
L 106.618125 154.537343 
L 107.618125 154.610968 
L 108.618125 154.649534 
L 109.618125 154.684947 
L 110.618125 154.742587 
L 111.618125 154.812973 
L 112.618125 154.864937 
L 113.618125 154.924027 
L 114.618125 155.012348 
L 115.618125 155.058492 
L 116.618125 155.100903 
L 117.618125 155.131396 
L 118.618125 155.157441 
L 119.618125 155.178641 
L 120.618125 155.232942 
L 121.618125 155.26088 
L 122.618125 155.290604 
L 123.618125 155.315998 
L 124.618125 155.327199 
L 125.618125 155.337323 
L 126.618125 155.337118 
L 127.618125 155.327608 
L 128.618125 155.315955 
L 129.618125 155.284926 
L 130.618125 155.273758 
L 131.618125 155.24364 
L 132.618125 155.183863 
L 133.618125 155.146672 
L 134.618125 155.107576 
L 135.618125 155.065136 
L 136.618125 155.032371 
L 137.618125 154.964944 
L 138.618125 154.925819 
L 139.618125 154.883144 
L 140.618125 154.812563 
L 141.618125 154.776173 
L 142.618125 154.717769 
L 143.618125 154.606817 
L 144.618125 154.536158 
L 145.618125 154.423219 
L 146.618125 154.377446 
L 147.618125 154.316162 
L 148.618125 154.267663 
L 149.618125 154.18684 
L 150.618125 154.068322 
L 151.618125 153.998111 
L 152.618125 153.914848 
L 153.618125 153.881707 
L 154.618125 153.830469 
L 155.618125 153.762071 
L 156.618125 153.695856 
L 157.618125 153.618939 
L 158.618125 153.591623 
L 159.618125 153.565146 
L 160.618125 153.542495 
L 161.618125 153.522964 
L 162.618125 153.49657 
L 163.618125 153.446799 
L 164.618125 153.411726 
L 165.618125 153.37586 
L 166.618125 153.360493 
L 167.618125 153.344723 
L 168.618125 153.341311 
L 169.618125 153.338893 
L 170.618125 153.339379 
L 171.618125 153.341309 
L 172.618125 153.354566 
L 173.618125 153.362956 
L 174.618125 153.384493 
L 175.618125 153.407525 
L 176.618125 153.424759 
L 177.618125 153.443221 
L 178.618125 153.463674 
L 179.618125 153.480274 
L 180.618125 153.543052 
L 181.618125 153.618317 
L 182.618125 153.650957 
L 183.618125 153.71852 
L 184.618125 153.772567 
L 185.618125 153.806272 
L 186.618125 153.896398 
L 187.618125 153.924933 
L 188.618125 153.956419 
L 189.618125 153.98743 
L 190.618125 154.042237 
L 191.618125 154.106825 
L 192.618125 154.14502 
L 193.618125 154.240954 
L 194.618125 154.290212 
L 195.618125 154.334282 
L 196.618125 154.374406 
L 197.618125 154.482773 
L 198.618125 154.524401 
L 199.618125 154.586542 
L 200.618125 154.656505 
L 201.618125 154.761009 
L 202.618125 154.797996 
L 203.618125 154.843874 
L 204.618125 154.912368 
L 205.618125 154.961114 
L 206.618125 155.038712 
L 207.618125 155.069252 
L 208.618125 155.138767 
L 209.618125 155.16274 
L 210.618125 155.191361 
L 211.618125 155.233155 
L 212.618125 155.25473 
L 213.618125 155.268678 
L 214.618125 155.295401 
L 215.618125 155.304711 
L 216.618125 155.317157 
L 217.618125 155.328212 
L 218.618125 155.333877 
L 219.618125 155.33864 
L 220.618125 155.333093 
L 221.618125 155.319805 
L 222.618125 155.312287 
L 223.618125 155.287502 
L 224.618125 155.263934 
L 225.618125 155.227753 
L 226.618125 155.201791 
L 227.618125 155.17947 
L 228.618125 155.11071 
L 229.618125 155.036175 
L 230.618125 154.942195 
L 231.618125 154.891143 
L 232.618125 154.83721 
L 233.618125 154.801959 
L 234.618125 154.695871 
L 235.618125 154.643607 
L 236.618125 154.6067 
L 237.618125 154.575669 
L 238.618125 154.514514 
L 239.618125 154.447094 
L 240.618125 154.398188 
L 241.618125 154.332995 
L 242.618125 154.294808 
L 243.618125 154.252812 
L 244.618125 154.210795 
L 245.618125 154.151278 
L 246.618125 154.038118 
L 247.618125 153.985868 
L 248.618125 153.94645 
L 249.618125 153.899348 
L 250.618125 153.842569 
L 251.618125 153.809906 
L 252.618125 153.773728 
L 253.618125 153.741637 
L 254.618125 153.707358 
L 255.618125 153.64898 
L 256.618125 153.603795 
L 257.618125 153.574171 
L 258.618125 153.523785 
L 259.618125 153.498587 
L 260.618125 153.477536 
L 261.618125 153.442569 
L 262.618125 153.418279 
L 263.618125 153.404212 
L 264.618125 153.38527 
L 265.618125 153.369608 
L 266.618125 153.357056 
L 267.618125 153.351221 
L 268.618125 153.344338 
L 269.669176 153.339165 
" clip-path="url(#pdcc19d1314)" style="fill: none; stroke: #ff7f0e; stroke-opacity: 0.5; stroke-width: 0.2; stroke-linecap: square"/>
   <path d="M 102.618125 47.296499 
L 103.618125 47.327936 
L 104.618125 47.364876 
L 105.618125 47.462623 
L 106.618125 47.495144 
L 107.618125 47.568769 
L 108.618125 47.607334 
L 109.618125 47.642748 
L 110.618125 47.700387 
L 111.618125 47.770774 
L 112.618125 47.822738 
L 113.618125 47.881828 
L 114.618125 47.970149 
L 115.618125 48.016293 
L 116.618125 48.058704 
L 117.618125 48.089197 
L 118.618125 48.115241 
L 119.618125 48.136442 
L 120.618125 48.190743 
L 121.618125 48.21868 
L 122.618125 48.248404 
L 123.618125 48.273799 
L 124.618125 48.284999 
L 125.618125 48.295123 
L 126.618125 48.294919 
L 127.618125 48.285409 
L 128.618125 48.273756 
L 129.618125 48.242726 
L 130.618125 48.231558 
L 131.618125 48.201441 
L 132.618125 48.141664 
L 133.618125 48.104472 
L 134.618125 48.065376 
L 135.618125 48.022937 
L 136.618125 47.990172 
L 137.618125 47.922745 
L 138.618125 47.883619 
L 139.618125 47.840945 
L 140.618125 47.770364 
L 141.618125 47.733973 
L 142.618125 47.67557 
L 143.618125 47.564617 
L 144.618125 47.493959 
L 145.618125 47.381019 
L 146.618125 47.335246 
L 147.618125 47.273963 
L 148.618125 47.225464 
L 149.618125 47.144641 
L 150.618125 47.026122 
L 151.618125 46.955912 
L 152.618125 46.872649 
L 153.618125 46.839507 
L 154.618125 46.78827 
L 155.618125 46.719872 
L 156.618125 46.653656 
L 157.618125 46.576739 
L 158.618125 46.549424 
L 159.618125 46.522946 
L 160.618125 46.500296 
L 161.618125 46.480764 
L 162.618125 46.45437 
L 163.618125 46.404599 
L 164.618125 46.369526 
L 165.618125 46.333661 
L 166.618125 46.318293 
L 167.618125 46.302524 
L 168.618125 46.299112 
L 169.618125 46.296694 
L 170.618125 46.29718 
L 171.618125 46.299109 
L 172.618125 46.312366 
L 173.618125 46.320757 
L 174.618125 46.342294 
L 175.618125 46.365326 
L 176.618125 46.382559 
L 177.618125 46.401022 
L 178.618125 46.421474 
L 179.618125 46.438074 
L 180.618125 46.500853 
L 181.618125 46.576118 
L 182.618125 46.608757 
L 183.618125 46.676321 
L 184.618125 46.730368 
L 185.618125 46.764072 
L 186.618125 46.854198 
L 187.618125 46.882733 
L 188.618125 46.914219 
L 189.618125 46.94523 
L 190.618125 47.000038 
L 191.618125 47.064626 
L 192.618125 47.102821 
L 193.618125 47.198755 
L 194.618125 47.248013 
L 195.618125 47.292083 
L 196.618125 47.332206 
L 197.618125 47.440573 
L 198.618125 47.482201 
L 199.618125 47.544343 
L 200.618125 47.614305 
L 201.618125 47.718809 
L 202.618125 47.755797 
L 203.618125 47.801674 
L 204.618125 47.870169 
L 205.618125 47.918915 
L 206.618125 47.996512 
L 207.618125 48.027053 
L 208.618125 48.096567 
L 209.618125 48.12054 
L 210.618125 48.149162 
L 211.618125 48.190955 
L 212.618125 48.212531 
L 213.618125 48.226479 
L 214.618125 48.253202 
L 215.618125 48.262511 
L 216.618125 48.274958 
L 217.618125 48.286013 
L 218.618125 48.291677 
L 219.618125 48.296441 
L 220.618125 48.290894 
L 221.618125 48.277606 
L 222.618125 48.270088 
L 223.618125 48.245303 
L 224.618125 48.221735 
L 225.618125 48.185554 
L 226.618125 48.159592 
L 227.618125 48.137271 
L 228.618125 48.06851 
L 229.618125 47.993975 
L 230.618125 47.899996 
L 231.618125 47.848944 
L 232.618125 47.79501 
L 233.618125 47.759759 
L 234.618125 47.653671 
L 235.618125 47.601407 
L 236.618125 47.5645 
L 237.618125 47.53347 
L 238.618125 47.472314 
L 239.618125 47.404894 
L 240.618125 47.355988 
L 241.618125 47.290796 
L 242.618125 47.252608 
L 243.618125 47.210613 
L 244.618125 47.168595 
L 245.618125 47.109079 
L 246.618125 46.995919 
L 247.618125 46.943668 
L 248.618125 46.90425 
L 249.618125 46.857149 
L 250.618125 46.80037 
L 251.618125 46.767706 
L 252.618125 46.731529 
L 253.618125 46.699438 
L 254.618125 46.665158 
L 255.618125 46.60678 
L 256.618125 46.561595 
L 257.618125 46.531971 
L 258.618125 46.481586 
L 259.618125 46.456388 
L 260.618125 46.435337 
L 261.618125 46.400369 
L 262.618125 46.376079 
L 263.618125 46.362012 
L 264.618125 46.34307 
L 265.618125 46.327409 
L 266.618125 46.314857 
L 267.618125 46.309021 
L 268.618125 46.302139 
L 269.618125 46.296965 
L 270.618125 46.298748 
L 271.618125 46.301474 
L 272.618125 46.312627 
L 273.618125 46.340862 
L 274.618125 46.38465 
L 276.274489 46.405339 
" clip-path="url(#pdcc19d1314)" style="fill: none; stroke: #ff7f0e; stroke-opacity: 0.5; stroke-width: 0.2; stroke-linecap: square"/>
   <path d="M 102.618125 132.028954 
L 103.618125 132.060391 
L 104.618125 132.097331 
L 105.618125 132.195078 
L 106.618125 132.227599 
L 107.618125 132.301224 
L 108.618125 132.33979 
L 109.618125 132.375203 
L 110.618125 132.432843 
L 111.618125 132.503229 
L 112.618125 132.555193 
L 113.618125 132.614283 
L 114.618125 132.702604 
L 115.618125 132.748748 
L 116.618125 132.791159 
L 117.618125 132.821652 
L 118.618125 132.847697 
L 119.618125 132.868897 
L 120.618125 132.923198 
L 121.618125 132.951135 
L 122.618125 132.980859 
L 123.618125 133.006254 
L 124.618125 133.017455 
L 125.618125 133.027579 
L 126.618125 133.027374 
L 127.618125 133.017864 
L 128.618125 133.006211 
L 129.618125 132.975181 
L 130.618125 132.964014 
L 131.618125 132.933896 
L 132.618125 132.874119 
L 133.618125 132.836928 
L 134.618125 132.797831 
L 135.618125 132.755392 
L 136.618125 132.722627 
L 137.618125 132.6552 
L 138.618125 132.616074 
L 139.618125 132.5734 
L 140.618125 132.502819 
L 141.618125 132.466428 
L 142.618125 132.408025 
L 143.618125 132.297073 
L 144.618125 132.226414 
L 145.618125 132.113474 
L 146.618125 132.067702 
L 147.618125 132.006418 
L 148.618125 131.957919 
L 149.618125 131.877096 
L 150.618125 131.758577 
L 151.618125 131.688367 
L 152.618125 131.605104 
L 153.618125 131.571963 
L 154.618125 131.520725 
L 155.618125 131.452327 
L 156.618125 131.386111 
L 157.618125 131.309194 
L 158.618125 131.281879 
L 159.618125 131.255401 
L 160.618125 131.232751 
L 161.618125 131.213219 
L 162.618125 131.186825 
L 163.618125 131.137055 
L 164.618125 131.101981 
L 165.618125 131.066116 
L 166.618125 131.050749 
L 167.618125 131.034979 
L 168.618125 131.031567 
L 169.618125 131.029149 
L 170.618125 131.029635 
L 171.618125 131.031565 
L 172.618125 131.044821 
L 173.618125 131.053212 
L 174.618125 131.074749 
L 175.618125 131.097781 
L 176.618125 131.115015 
L 177.618125 131.133477 
L 178.618125 131.15393 
L 179.618125 131.17053 
L 180.618125 131.233308 
L 181.618125 131.308573 
L 182.618125 131.341212 
L 183.618125 131.408776 
L 184.618125 131.462823 
L 185.618125 131.496527 
L 186.618125 131.586653 
L 187.618125 131.615188 
L 188.618125 131.646675 
L 189.618125 131.677685 
L 190.618125 131.732493 
L 191.618125 131.797081 
L 192.618125 131.835276 
L 193.618125 131.93121 
L 194.618125 131.980468 
L 195.618125 132.024538 
L 196.618125 132.064661 
L 197.618125 132.173028 
L 198.618125 132.214657 
L 199.618125 132.276798 
L 200.618125 132.34676 
L 201.618125 132.451265 
L 202.618125 132.488252 
L 203.618125 132.53413 
L 204.618125 132.602624 
L 205.618125 132.65137 
L 206.618125 132.728967 
L 207.618125 132.759508 
L 208.618125 132.829023 
L 209.618125 132.852996 
L 210.618125 132.881617 
L 211.618125 132.92341 
L 212.618125 132.944986 
L 213.618125 132.958934 
L 214.618125 132.985657 
L 215.618125 132.994966 
L 216.618125 133.007413 
L 217.618125 133.018468 
L 218.618125 133.024133 
L 219.618125 133.028896 
L 220.618125 133.023349 
L 221.618125 133.010061 
L 222.618125 133.002543 
L 223.618125 132.977758 
L 224.618125 132.95419 
L 225.618125 132.918009 
L 226.618125 132.892047 
L 227.618125 132.869726 
L 228.618125 132.800966 
L 229.618125 132.726431 
L 230.618125 132.632451 
L 231.618125 132.581399 
L 232.618125 132.527465 
L 233.618125 132.492215 
L 234.618125 132.386127 
L 235.618125 132.333862 
L 236.618125 132.296956 
L 237.618125 132.265925 
L 238.618125 132.204769 
L 239.618125 132.137349 
L 240.618125 132.088443 
L 241.618125 132.023251 
L 242.618125 131.985064 
L 243.618125 131.943068 
L 244.618125 131.90105 
L 245.618125 131.841534 
L 246.618125 131.728374 
L 247.618125 131.676123 
L 248.618125 131.636706 
L 249.618125 131.589604 
L 250.618125 131.532825 
L 251.618125 131.500162 
L 252.618125 131.463984 
L 253.618125 131.431893 
L 254.618125 131.397613 
L 255.618125 131.339236 
L 256.618125 131.29405 
L 257.618125 131.264427 
L 258.618125 131.214041 
L 259.618125 131.188843 
L 260.618125 131.167792 
L 261.618125 131.132824 
L 262.618125 131.108534 
L 263.618125 131.094467 
L 264.618125 131.075526 
L 265.618125 131.059864 
L 266.618125 131.047312 
L 267.618125 131.041477 
L 268.618125 131.034594 
L 269.618125 131.02942 
L 270.618125 131.031203 
L 271.618125 131.033929 
L 272.618125 131.045082 
L 273.618125 131.073317 
L 274.618125 131.117105 
L 275.618125 131.137794 
L 276.618125 131.178768 
L 278.4955 131.218843 
" clip-path="url(#pdcc19d1314)" style="fill: none; stroke: #ff7f0e; stroke-opacity: 0.5; stroke-width: 0.2; stroke-linecap: square"/>
   <path d="M 102.618125 117.193876 
L 103.618125 117.225312 
L 104.618125 117.262253 
L 105.618125 117.359999 
L 106.618125 117.392521 
L 107.618125 117.466146 
L 108.618125 117.504711 
L 109.618125 117.540124 
L 110.618125 117.597764 
L 111.618125 117.66815 
L 112.618125 117.720115 
L 113.618125 117.779204 
L 114.618125 117.867525 
L 115.618125 117.91367 
L 116.618125 117.956081 
L 117.618125 117.986573 
L 118.618125 118.012618 
L 119.618125 118.033818 
L 120.618125 118.088119 
L 121.618125 118.116057 
L 122.618125 118.145781 
L 123.618125 118.171176 
L 124.618125 118.182376 
L 125.618125 118.1925 
L 126.618125 118.192296 
L 127.618125 118.182786 
L 128.618125 118.171132 
L 129.618125 118.140103 
L 130.618125 118.128935 
L 131.618125 118.098818 
L 132.618125 118.039041 
L 133.618125 118.001849 
L 134.618125 117.962753 
L 135.618125 117.920313 
L 136.618125 117.887548 
L 137.618125 117.820122 
L 138.618125 117.780996 
L 139.618125 117.738321 
L 140.618125 117.667741 
L 141.618125 117.63135 
L 142.618125 117.572947 
L 143.618125 117.461994 
L 144.618125 117.391336 
L 145.618125 117.278396 
L 146.618125 117.232623 
L 147.618125 117.17134 
L 148.618125 117.122841 
L 149.618125 117.042018 
L 150.618125 116.923499 
L 151.618125 116.853288 
L 152.618125 116.770026 
L 153.618125 116.736884 
L 154.618125 116.685647 
L 155.618125 116.617248 
L 156.618125 116.551033 
L 157.618125 116.474116 
L 158.618125 116.4468 
L 159.618125 116.420323 
L 160.618125 116.397672 
L 161.618125 116.378141 
L 162.618125 116.351747 
L 163.618125 116.301976 
L 164.618125 116.266903 
L 165.618125 116.231037 
L 166.618125 116.21567 
L 167.618125 116.199901 
L 168.618125 116.196488 
L 169.618125 116.194071 
L 170.618125 116.194557 
L 171.618125 116.196486 
L 172.618125 116.209743 
L 173.618125 116.218134 
L 174.618125 116.23967 
L 175.618125 116.262703 
L 176.618125 116.279936 
L 177.618125 116.298399 
L 178.618125 116.318851 
L 179.618125 116.335451 
L 180.618125 116.39823 
L 181.618125 116.473495 
L 182.618125 116.506134 
L 183.618125 116.573698 
L 184.618125 116.627745 
L 185.618125 116.661449 
L 186.618125 116.751575 
L 187.618125 116.78011 
L 188.618125 116.811596 
L 189.618125 116.842607 
L 190.618125 116.897415 
L 191.618125 116.962002 
L 192.618125 117.000198 
L 193.618125 117.096132 
L 194.618125 117.14539 
L 195.618125 117.189459 
L 196.618125 117.229583 
L 197.618125 117.33795 
L 198.618125 117.379578 
L 199.618125 117.44172 
L 200.618125 117.511682 
L 201.618125 117.616186 
L 202.618125 117.653174 
L 203.618125 117.699051 
L 204.618125 117.767546 
L 205.618125 117.816292 
L 206.618125 117.893889 
L 207.618125 117.92443 
L 208.618125 117.993944 
L 209.618125 118.017917 
L 210.618125 118.046539 
L 211.618125 118.088332 
L 212.618125 118.109908 
L 213.618125 118.123856 
L 214.618125 118.150578 
L 215.618125 118.159888 
L 216.618125 118.172335 
L 217.618125 118.18339 
L 218.618125 118.189054 
L 219.618125 118.193818 
L 220.618125 118.18827 
L 221.618125 118.174982 
L 222.618125 118.167465 
L 223.618125 118.14268 
L 224.618125 118.119111 
L 225.618125 118.082931 
L 226.618125 118.056969 
L 227.618125 118.034647 
L 228.618125 117.965887 
L 229.618125 117.891352 
L 230.618125 117.797373 
L 231.618125 117.746321 
L 232.618125 117.692387 
L 233.618125 117.657136 
L 234.618125 117.551048 
L 235.618125 117.498784 
L 236.618125 117.461877 
L 237.618125 117.430846 
L 238.618125 117.369691 
L 239.618125 117.302271 
L 240.618125 117.253365 
L 241.618125 117.188173 
L 242.618125 117.149985 
L 243.618125 117.107989 
L 244.618125 117.065972 
L 245.618125 117.006456 
L 246.618125 116.893296 
L 247.618125 116.841045 
L 248.618125 116.801627 
L 249.618125 116.754526 
L 250.618125 116.697747 
L 251.618125 116.665083 
L 252.618125 116.628905 
L 253.618125 116.596815 
L 254.618125 116.562535 
L 255.618125 116.504157 
L 256.618125 116.458972 
L 257.618125 116.429348 
L 258.618125 116.378962 
L 259.618125 116.353765 
L 260.618125 116.332714 
L 261.618125 116.297746 
L 262.618125 116.273456 
L 263.618125 116.259389 
L 264.618125 116.240447 
L 265.618125 116.224786 
L 266.618125 116.212234 
L 267.618125 116.206398 
L 268.618125 116.199516 
L 269.618125 116.194342 
L 270.618125 116.196125 
L 271.618125 116.19885 
L 272.618125 116.210004 
L 273.618125 116.238239 
L 274.618125 116.282027 
L 275.618125 116.302716 
L 276.618125 116.343689 
L 277.618125 116.383764 
L 278.618125 116.402874 
L 279.618125 116.425383 
L 280.822071 116.492034 
" clip-path="url(#pdcc19d1314)" style="fill: none; stroke: #ff7f0e; stroke-opacity: 0.5; stroke-width: 0.2; stroke-linecap: square"/>
   <path d="M 102.618125 63.389204 
L 103.618125 63.42064 
L 104.618125 63.45758 
L 105.618125 63.555327 
L 106.618125 63.587849 
L 107.618125 63.661473 
L 108.618125 63.700039 
L 109.618125 63.735452 
L 110.618125 63.793092 
L 111.618125 63.863478 
L 112.618125 63.915442 
L 113.618125 63.974532 
L 114.618125 64.062853 
L 115.618125 64.108997 
L 116.618125 64.151408 
L 117.618125 64.181901 
L 118.618125 64.207946 
L 119.618125 64.229146 
L 120.618125 64.283447 
L 121.618125 64.311385 
L 122.618125 64.341109 
L 123.618125 64.366503 
L 124.618125 64.377704 
L 125.618125 64.387828 
L 126.618125 64.387623 
L 127.618125 64.378114 
L 128.618125 64.36646 
L 129.618125 64.335431 
L 130.618125 64.324263 
L 131.618125 64.294145 
L 132.618125 64.234368 
L 133.618125 64.197177 
L 134.618125 64.158081 
L 135.618125 64.115641 
L 136.618125 64.082876 
L 137.618125 64.01545 
L 138.618125 63.976324 
L 139.618125 63.933649 
L 140.618125 63.863068 
L 141.618125 63.826678 
L 142.618125 63.768274 
L 143.618125 63.657322 
L 144.618125 63.586664 
L 145.618125 63.473724 
L 146.618125 63.427951 
L 147.618125 63.366668 
L 148.618125 63.318168 
L 149.618125 63.237346 
L 150.618125 63.118827 
L 151.618125 63.048616 
L 152.618125 62.965354 
L 153.618125 62.932212 
L 154.618125 62.880974 
L 155.618125 62.812576 
L 156.618125 62.746361 
L 157.618125 62.669444 
L 158.618125 62.642128 
L 159.618125 62.615651 
L 160.618125 62.593 
L 161.618125 62.573469 
L 162.618125 62.547075 
L 163.618125 62.497304 
L 164.618125 62.462231 
L 165.618125 62.426365 
L 166.618125 62.410998 
L 167.618125 62.395229 
L 168.618125 62.391816 
L 169.618125 62.389398 
L 170.618125 62.389884 
L 171.618125 62.391814 
L 172.618125 62.405071 
L 173.618125 62.413461 
L 174.618125 62.434998 
L 175.618125 62.45803 
L 176.618125 62.475264 
L 177.618125 62.493726 
L 178.618125 62.514179 
L 179.618125 62.530779 
L 180.618125 62.593557 
L 181.618125 62.668823 
L 182.618125 62.701462 
L 183.618125 62.769025 
L 184.618125 62.823072 
L 185.618125 62.856777 
L 186.618125 62.946903 
L 187.618125 62.975438 
L 188.618125 63.006924 
L 189.618125 63.037935 
L 190.618125 63.092743 
L 191.618125 63.15733 
L 192.618125 63.195525 
L 193.618125 63.29146 
L 194.618125 63.340718 
L 195.618125 63.384787 
L 196.618125 63.424911 
L 197.618125 63.533278 
L 198.618125 63.574906 
L 199.618125 63.637047 
L 200.618125 63.70701 
L 201.618125 63.811514 
L 202.618125 63.848502 
L 203.618125 63.894379 
L 204.618125 63.962873 
L 205.618125 64.011619 
L 206.618125 64.089217 
L 207.618125 64.119757 
L 208.618125 64.189272 
L 209.618125 64.213245 
L 210.618125 64.241866 
L 211.618125 64.28366 
L 212.618125 64.305235 
L 213.618125 64.319183 
L 214.618125 64.345906 
L 215.618125 64.355216 
L 216.618125 64.367662 
L 217.618125 64.378717 
L 218.618125 64.384382 
L 219.618125 64.389146 
L 220.618125 64.383598 
L 221.618125 64.37031 
L 222.618125 64.362792 
L 223.618125 64.338008 
L 224.618125 64.314439 
L 225.618125 64.278258 
L 226.618125 64.252296 
L 227.618125 64.229975 
L 228.618125 64.161215 
L 229.618125 64.08668 
L 230.618125 63.9927 
L 231.618125 63.941648 
L 232.618125 63.887715 
L 233.618125 63.852464 
L 234.618125 63.746376 
L 235.618125 63.694112 
L 236.618125 63.657205 
L 237.618125 63.626174 
L 238.618125 63.565019 
L 239.618125 63.497599 
L 240.618125 63.448693 
L 241.618125 63.3835 
L 242.618125 63.345313 
L 243.618125 63.303317 
L 244.618125 63.2613 
L 245.618125 63.201783 
L 246.618125 63.088623 
L 247.618125 63.036373 
L 248.618125 62.996955 
L 249.618125 62.949853 
L 250.618125 62.893074 
L 251.618125 62.860411 
L 252.618125 62.824233 
L 253.618125 62.792142 
L 254.618125 62.757863 
L 255.618125 62.699485 
L 256.618125 62.6543 
L 257.618125 62.624676 
L 258.618125 62.57429 
L 259.618125 62.549092 
L 260.618125 62.528042 
L 261.618125 62.493074 
L 262.618125 62.468784 
L 263.618125 62.454717 
L 264.618125 62.435775 
L 265.618125 62.420113 
L 266.618125 62.407562 
L 267.618125 62.401726 
L 268.618125 62.394843 
L 269.618125 62.38967 
L 270.618125 62.391452 
L 271.618125 62.394178 
L 272.618125 62.405331 
L 273.618125 62.433567 
L 274.618125 62.477354 
L 276.274489 62.498044 
" clip-path="url(#pdcc19d1314)" style="fill: none; stroke: #ff7f0e; stroke-opacity: 0.5; stroke-width: 0.2; stroke-linecap: square"/>
   <path d="M 102.618125 119.0736 
L 103.618125 119.105036 
L 104.618125 119.141976 
L 105.618125 119.239723 
L 106.618125 119.272245 
L 107.618125 119.345869 
L 108.618125 119.384435 
L 109.618125 119.419848 
L 110.618125 119.477488 
L 111.618125 119.547874 
L 112.618125 119.599838 
L 113.618125 119.658928 
L 114.618125 119.747249 
L 115.618125 119.793393 
L 116.618125 119.835804 
L 117.618125 119.866297 
L 118.618125 119.892342 
L 119.618125 119.913542 
L 120.618125 119.967843 
L 121.618125 119.995781 
L 122.618125 120.025505 
L 123.618125 120.050899 
L 124.618125 120.0621 
L 125.618125 120.072224 
L 126.618125 120.072019 
L 127.618125 120.06251 
L 128.618125 120.050856 
L 129.618125 120.019827 
L 130.618125 120.008659 
L 131.618125 119.978541 
L 132.618125 119.918764 
L 133.618125 119.881573 
L 134.618125 119.842477 
L 135.618125 119.800037 
L 136.618125 119.767272 
L 137.618125 119.699846 
L 138.618125 119.66072 
L 139.618125 119.618045 
L 140.618125 119.547465 
L 141.618125 119.511074 
L 142.618125 119.45267 
L 143.618125 119.341718 
L 144.618125 119.27106 
L 145.618125 119.15812 
L 146.618125 119.112347 
L 147.618125 119.051064 
L 148.618125 119.002564 
L 149.618125 118.921742 
L 150.618125 118.803223 
L 151.618125 118.733012 
L 152.618125 118.64975 
L 153.618125 118.616608 
L 154.618125 118.565371 
L 155.618125 118.496972 
L 156.618125 118.430757 
L 157.618125 118.35384 
L 158.618125 118.326524 
L 159.618125 118.300047 
L 160.618125 118.277396 
L 161.618125 118.257865 
L 162.618125 118.231471 
L 163.618125 118.1817 
L 164.618125 118.146627 
L 165.618125 118.110761 
L 166.618125 118.095394 
L 167.618125 118.079625 
L 168.618125 118.076212 
L 169.618125 118.073794 
L 170.618125 118.074281 
L 171.618125 118.07621 
L 172.618125 118.089467 
L 173.618125 118.097857 
L 174.618125 118.119394 
L 175.618125 118.142426 
L 176.618125 118.15966 
L 177.618125 118.178122 
L 178.618125 118.198575 
L 179.618125 118.215175 
L 180.618125 118.277954 
L 181.618125 118.353219 
L 182.618125 118.385858 
L 183.618125 118.453421 
L 184.618125 118.507468 
L 185.618125 118.541173 
L 186.618125 118.631299 
L 187.618125 118.659834 
L 188.618125 118.69132 
L 189.618125 118.722331 
L 190.618125 118.777139 
L 191.618125 118.841726 
L 192.618125 118.879921 
L 193.618125 118.975856 
L 194.618125 119.025114 
L 195.618125 119.069183 
L 196.618125 119.109307 
L 197.618125 119.217674 
L 198.618125 119.259302 
L 199.618125 119.321443 
L 200.618125 119.391406 
L 201.618125 119.49591 
L 202.618125 119.532898 
L 203.618125 119.578775 
L 204.618125 119.647269 
L 205.618125 119.696015 
L 206.618125 119.773613 
L 207.618125 119.804153 
L 208.618125 119.873668 
L 209.618125 119.897641 
L 210.618125 119.926262 
L 211.618125 119.968056 
L 212.618125 119.989631 
L 213.618125 120.003579 
L 214.618125 120.030302 
L 215.618125 120.039612 
L 216.618125 120.052058 
L 217.618125 120.063113 
L 218.618125 120.068778 
L 219.618125 120.073542 
L 220.618125 120.067994 
L 221.618125 120.054706 
L 222.618125 120.047188 
L 223.618125 120.022404 
L 224.618125 119.998835 
L 225.618125 119.962654 
L 226.618125 119.936692 
L 227.618125 119.914371 
L 228.618125 119.845611 
L 229.618125 119.771076 
L 230.618125 119.677096 
L 231.618125 119.626044 
L 232.618125 119.572111 
L 233.618125 119.53686 
L 234.618125 119.430772 
L 235.618125 119.378508 
L 236.618125 119.341601 
L 237.618125 119.31057 
L 238.618125 119.249415 
L 239.618125 119.181995 
L 240.618125 119.133089 
L 241.618125 119.067896 
L 242.618125 119.029709 
L 243.618125 118.987713 
L 244.618125 118.945696 
L 245.618125 118.886179 
L 246.618125 118.773019 
L 247.618125 118.720769 
L 248.618125 118.681351 
L 249.618125 118.634249 
L 250.618125 118.57747 
L 251.618125 118.544807 
L 252.618125 118.508629 
L 253.618125 118.476538 
L 254.618125 118.442259 
L 255.618125 118.383881 
L 256.618125 118.338696 
L 257.618125 118.309072 
L 258.618125 118.258686 
L 259.618125 118.233488 
L 260.618125 118.212438 
L 261.618125 118.17747 
L 262.618125 118.15318 
L 263.618125 118.139113 
L 264.618125 118.120171 
L 265.618125 118.104509 
L 266.618125 118.091958 
L 267.618125 118.086122 
L 268.618125 118.079239 
L 269.618125 118.074066 
L 270.618125 118.075848 
L 271.618125 118.078574 
L 272.618125 118.089727 
L 273.618125 118.117963 
L 274.618125 118.16175 
L 275.618125 118.18244 
L 276.618125 118.223413 
L 277.618125 118.263488 
L 278.618125 118.282598 
L 280.611076 118.305106 
" clip-path="url(#pdcc19d1314)" style="fill: none; stroke: #ff7f0e; stroke-opacity: 0.5; stroke-width: 0.2; stroke-linecap: square"/>
   <path d="M 102.618125 100.393262 
L 103.618125 100.424699 
L 104.618125 100.461639 
L 105.618125 100.559386 
L 106.618125 100.591907 
L 107.618125 100.665532 
L 108.618125 100.704098 
L 109.618125 100.739511 
L 110.618125 100.797151 
L 111.618125 100.867537 
L 112.618125 100.919501 
L 113.618125 100.978591 
L 114.618125 101.066912 
L 115.618125 101.113056 
L 116.618125 101.155467 
L 117.618125 101.18596 
L 118.618125 101.212005 
L 119.618125 101.233205 
L 120.618125 101.287506 
L 121.618125 101.315443 
L 122.618125 101.345167 
L 123.618125 101.370562 
L 124.618125 101.381763 
L 125.618125 101.391887 
L 126.618125 101.391682 
L 127.618125 101.382172 
L 128.618125 101.370519 
L 129.618125 101.339489 
L 130.618125 101.328322 
L 131.618125 101.298204 
L 132.618125 101.238427 
L 133.618125 101.201236 
L 134.618125 101.162139 
L 135.618125 101.1197 
L 136.618125 101.086935 
L 137.618125 101.019508 
L 138.618125 100.980382 
L 139.618125 100.937708 
L 140.618125 100.867127 
L 141.618125 100.830736 
L 142.618125 100.772333 
L 143.618125 100.661381 
L 144.618125 100.590722 
L 145.618125 100.477782 
L 146.618125 100.43201 
L 147.618125 100.370726 
L 148.618125 100.322227 
L 149.618125 100.241404 
L 150.618125 100.122885 
L 151.618125 100.052675 
L 152.618125 99.969412 
L 153.618125 99.93627 
L 154.618125 99.885033 
L 155.618125 99.816635 
L 156.618125 99.750419 
L 157.618125 99.673502 
L 158.618125 99.646187 
L 159.618125 99.619709 
L 160.618125 99.597059 
L 161.618125 99.577527 
L 162.618125 99.551133 
L 163.618125 99.501363 
L 164.618125 99.466289 
L 165.618125 99.430424 
L 166.618125 99.415056 
L 167.618125 99.399287 
L 168.618125 99.395875 
L 169.618125 99.393457 
L 170.618125 99.393943 
L 171.618125 99.395872 
L 172.618125 99.409129 
L 173.618125 99.41752 
L 174.618125 99.439057 
L 175.618125 99.462089 
L 176.618125 99.479323 
L 177.618125 99.497785 
L 178.618125 99.518238 
L 179.618125 99.534838 
L 180.618125 99.597616 
L 181.618125 99.672881 
L 182.618125 99.70552 
L 183.618125 99.773084 
L 184.618125 99.827131 
L 185.618125 99.860835 
L 186.618125 99.950961 
L 187.618125 99.979496 
L 188.618125 100.010983 
L 189.618125 100.041993 
L 190.618125 100.096801 
L 191.618125 100.161389 
L 192.618125 100.199584 
L 193.618125 100.295518 
L 194.618125 100.344776 
L 195.618125 100.388846 
L 196.618125 100.428969 
L 197.618125 100.537336 
L 198.618125 100.578964 
L 199.618125 100.641106 
L 200.618125 100.711068 
L 201.618125 100.815573 
L 202.618125 100.85256 
L 203.618125 100.898438 
L 204.618125 100.966932 
L 205.618125 101.015678 
L 206.618125 101.093275 
L 207.618125 101.123816 
L 208.618125 101.193331 
L 209.618125 101.217304 
L 210.618125 101.245925 
L 211.618125 101.287718 
L 212.618125 101.309294 
L 213.618125 101.323242 
L 214.618125 101.349965 
L 215.618125 101.359274 
L 216.618125 101.371721 
L 217.618125 101.382776 
L 218.618125 101.388441 
L 219.618125 101.393204 
L 220.618125 101.387657 
L 221.618125 101.374369 
L 222.618125 101.366851 
L 223.618125 101.342066 
L 224.618125 101.318498 
L 225.618125 101.282317 
L 226.618125 101.256355 
L 227.618125 101.234034 
L 228.618125 101.165274 
L 229.618125 101.090738 
L 230.618125 100.996759 
L 231.618125 100.945707 
L 232.618125 100.891773 
L 233.618125 100.856523 
L 234.618125 100.750435 
L 235.618125 100.69817 
L 236.618125 100.661264 
L 237.618125 100.630233 
L 238.618125 100.569077 
L 239.618125 100.501657 
L 240.618125 100.452751 
L 241.618125 100.387559 
L 242.618125 100.349372 
L 243.618125 100.307376 
L 244.618125 100.265358 
L 245.618125 100.205842 
L 246.618125 100.092682 
L 247.618125 100.040431 
L 248.618125 100.001014 
L 249.618125 99.953912 
L 250.618125 99.897133 
L 251.618125 99.86447 
L 252.618125 99.828292 
L 253.618125 99.796201 
L 254.618125 99.761921 
L 255.618125 99.703543 
L 256.618125 99.658358 
L 257.618125 99.628735 
L 258.618125 99.578349 
L 259.618125 99.553151 
L 260.618125 99.5321 
L 261.618125 99.497132 
L 262.618125 99.472842 
L 263.618125 99.458775 
L 264.618125 99.439834 
L 265.618125 99.424172 
L 266.618125 99.41162 
L 267.618125 99.405785 
L 268.618125 99.398902 
L 269.618125 99.393728 
L 270.618125 99.395511 
L 271.618125 99.398237 
L 272.618125 99.40939 
L 273.618125 99.437625 
L 274.618125 99.481413 
L 276.274489 99.502102 
" clip-path="url(#pdcc19d1314)" style="fill: none; stroke: #ff7f0e; stroke-opacity: 0.5; stroke-width: 0.2; stroke-linecap: square"/>
   <path d="M 102.618125 169.853095 
L 103.618125 169.884531 
L 104.618125 169.921471 
L 105.618125 170.019218 
L 106.618125 170.05174 
L 107.618125 170.125364 
L 108.618125 170.16393 
L 109.618125 170.199343 
L 110.618125 170.256983 
L 111.618125 170.327369 
L 112.618125 170.379333 
L 113.618125 170.438423 
L 114.618125 170.526744 
L 115.618125 170.572888 
L 116.618125 170.615299 
L 117.618125 170.645792 
L 118.618125 170.671837 
L 119.618125 170.693037 
L 120.618125 170.747338 
L 121.618125 170.775276 
L 122.618125 170.805 
L 123.618125 170.830394 
L 124.618125 170.841595 
L 125.618125 170.851719 
L 126.618125 170.851514 
L 127.618125 170.842005 
L 128.618125 170.830351 
L 129.618125 170.799322 
L 130.618125 170.788154 
L 131.618125 170.758036 
L 132.618125 170.698259 
L 133.618125 170.661068 
L 134.618125 170.621972 
L 135.618125 170.579532 
L 136.618125 170.546767 
L 137.618125 170.479341 
L 138.618125 170.440215 
L 139.618125 170.39754 
L 140.618125 170.326959 
L 141.618125 170.290569 
L 142.618125 170.232165 
L 143.618125 170.121213 
L 144.618125 170.050555 
L 145.618125 169.937615 
L 146.618125 169.891842 
L 147.618125 169.830559 
L 148.618125 169.782059 
L 149.618125 169.701237 
L 150.618125 169.582718 
L 151.618125 169.512507 
L 152.618125 169.429245 
L 153.618125 169.396103 
L 154.618125 169.344865 
L 155.618125 169.276467 
L 156.618125 169.210252 
L 157.618125 169.133335 
L 158.618125 169.106019 
L 159.618125 169.079542 
L 160.618125 169.056891 
L 161.618125 169.03736 
L 162.618125 169.010966 
L 163.618125 168.961195 
L 164.618125 168.926122 
L 165.618125 168.890256 
L 166.618125 168.874889 
L 167.618125 168.85912 
L 168.618125 168.855707 
L 169.618125 168.853289 
L 170.618125 168.853775 
L 171.618125 168.855705 
L 172.618125 168.868962 
L 173.618125 168.877352 
L 174.618125 168.898889 
L 175.618125 168.921921 
L 176.618125 168.939155 
L 177.618125 168.957617 
L 178.618125 168.97807 
L 179.618125 168.99467 
L 180.618125 169.057448 
L 181.618125 169.132714 
L 182.618125 169.165353 
L 183.618125 169.232916 
L 184.618125 169.286963 
L 185.618125 169.320668 
L 186.618125 169.410794 
L 187.618125 169.439329 
L 188.618125 169.470815 
L 189.618125 169.501826 
L 190.618125 169.556634 
L 191.618125 169.621221 
L 192.618125 169.659416 
L 193.618125 169.75535 
L 194.618125 169.804609 
L 195.618125 169.848678 
L 196.618125 169.888802 
L 197.618125 169.997169 
L 198.618125 170.038797 
L 199.618125 170.100938 
L 200.618125 170.170901 
L 201.618125 170.275405 
L 202.618125 170.312392 
L 203.618125 170.35827 
L 204.618125 170.426764 
L 205.618125 170.47551 
L 206.618125 170.553108 
L 207.618125 170.583648 
L 208.618125 170.653163 
L 209.618125 170.677136 
L 210.618125 170.705757 
L 211.618125 170.747551 
L 212.618125 170.769126 
L 213.618125 170.783074 
L 214.618125 170.809797 
L 215.618125 170.819107 
L 216.618125 170.831553 
L 217.618125 170.842608 
L 218.618125 170.848273 
L 219.618125 170.853037 
L 220.618125 170.847489 
L 221.618125 170.834201 
L 222.618125 170.826683 
L 223.618125 170.801899 
L 224.618125 170.77833 
L 225.618125 170.742149 
L 226.618125 170.716187 
L 227.618125 170.693866 
L 228.618125 170.625106 
L 229.618125 170.550571 
L 230.618125 170.456591 
L 231.618125 170.405539 
L 232.618125 170.351606 
L 233.618125 170.316355 
L 234.618125 170.210267 
L 235.618125 170.158003 
L 236.618125 170.121096 
L 237.618125 170.090065 
L 238.618125 170.02891 
L 239.618125 169.96149 
L 240.618125 169.912584 
L 241.618125 169.847391 
L 242.618125 169.809204 
L 243.618125 169.767208 
L 244.618125 169.725191 
L 245.618125 169.665674 
L 246.618125 169.552514 
L 247.618125 169.500264 
L 248.618125 169.460846 
L 249.618125 169.413744 
L 250.618125 169.356965 
L 251.618125 169.324302 
L 252.618125 169.288124 
L 253.618125 169.256033 
L 254.717797 169.221754 
" clip-path="url(#pdcc19d1314)" style="fill: none; stroke: #ff7f0e; stroke-opacity: 0.5; stroke-width: 0.2; stroke-linecap: square"/>
   <g id="patch_3">
    <path d="M 167.464489 7.2 
L 167.464489 40.464 
M 201.28267 7.2 
L 201.28267 40.464 
" clip-path="url(#pdcc19d1314)" style="fill: none; stroke: #ffffff; stroke-width: 3; stroke-linejoin: miter"/>
    <path d="M 167.464489 7.2 
L 167.464489 40.464 
M 201.28267 7.2 
L 201.28267 40.464 
" clip-path="url(#pdcc19d1314)" style="fill: none; stroke: #1f77b4; stroke-linejoin: miter"/>
    <g id="PolyCollection_1">
     <path d="M 201.28267 7.2 
L 167.464489 7.2 
L 167.464489 40.464 
L 201.28267 40.464 
L 201.28267 40.464 
L 201.28267 7.2 
z
" clip-path="url(#pdcc19d1314)" style="fill: #1f77b4; fill-opacity: 0.5"/>
    </g>
    <g id="patch_4">
     <path d="M 66.009943 40.464 
L 66.009943 173.52 
M 99.828125 40.464 
L 99.828125 173.52 
" clip-path="url(#pdcc19d1314)" style="fill: none; stroke: #ffffff; stroke-width: 3; stroke-linejoin: miter"/>
     <path d="M 66.009943 40.464 
L 66.009943 173.52 
M 99.828125 40.464 
L 99.828125 173.52 
" clip-path="url(#pdcc19d1314)" style="fill: none; stroke: #ff7f0e; stroke-linejoin: miter"/>
     <g id="PolyCollection_2">
      <path d="M 99.828125 40.464 
L 66.009943 40.464 
L 66.009943 173.52 
L 99.828125 173.52 
L 99.828125 173.52 
L 99.828125 40.464 
z
" clip-path="url(#pdcc19d1314)" style="fill: #ff7f0e; fill-opacity: 0.5"/>
     </g>
     <g id="patch_5">
      <path d="M 279.064489 40.464 
L 279.064489 106.992 
L 284.475398 106.992 
L 283.82984 115.056 
L 283.062052 121.776 
L 282.240323 127.152 
L 281.323354 131.856 
L 280.172027 136.56 
L 278.953634 140.592 
L 277.74008 143.952 
L 276.312296 147.312 
L 274.632466 150.672 
L 272.656096 154.032 
L 270.826611 156.72 
L 268.743025 159.408 
L 266.370047 162.096 
L 263.667481 164.784 
L 260.589552 167.472 
L 257.084124 170.16 
L 254.139088 172.176 
L 252.009943 173.52 
M 292.591761 40.464 
L 292.591761 106.992 
L 287.180852 106.992 
L 287.82641 115.056 
L 288.594198 121.776 
L 289.415927 127.152 
L 290.332896 131.856 
L 291.484223 136.56 
L 292.702616 140.592 
L 293.91617 143.952 
L 295.343954 147.312 
L 297.023784 150.672 
L 299.000154 154.032 
L 300.829639 156.72 
L 302.913225 159.408 
L 305.286203 162.096 
L 307.988769 164.784 
L 311.066698 167.472 
L 314.572126 170.16 
L 317.517162 172.176 
L 319.646307 173.52 
L 319.646307 173.52 
" clip-path="url(#pdcc19d1314)" style="fill: none; stroke: #ffffff; stroke-width: 3; stroke-linejoin: miter"/>
      <path d="M 279.064489 40.464 
L 279.064489 106.992 
L 284.475398 106.992 
L 283.82984 115.056 
L 283.062052 121.776 
L 282.240323 127.152 
L 281.323354 131.856 
L 280.172027 136.56 
L 278.953634 140.592 
L 277.74008 143.952 
L 276.312296 147.312 
L 274.632466 150.672 
L 272.656096 154.032 
L 270.826611 156.72 
L 268.743025 159.408 
L 266.370047 162.096 
L 263.667481 164.784 
L 260.589552 167.472 
L 257.084124 170.16 
L 254.139088 172.176 
L 252.009943 173.52 
M 292.591761 40.464 
L 292.591761 106.992 
L 287.180852 106.992 
L 287.82641 115.056 
L 288.594198 121.776 
L 289.415927 127.152 
L 290.332896 131.856 
L 291.484223 136.56 
L 292.702616 140.592 
L 293.91617 143.952 
L 295.343954 147.312 
L 297.023784 150.672 
L 299.000154 154.032 
L 300.829639 156.72 
L 302.913225 159.408 
L 305.286203 162.096 
L 307.988769 164.784 
L 311.066698 167.472 
L 314.572126 170.16 
L 317.517162 172.176 
L 319.646307 173.52 
L 319.646307 173.52 
" clip-path="url(#pdcc19d1314)" style="fill: none; stroke: #2ca02c; stroke-linejoin: miter"/>
      <g id="PolyCollection_3">
       <path d="M 292.591761 40.464 
L 279.064489 40.464 
L 279.064489 106.992 
L 284.475398 106.992 
L 284.430692 107.664 
L 284.38451 108.336 
L 284.336801 109.008 
L 284.287515 109.68 
L 284.236601 110.352 
L 284.184004 111.024 
L 284.129668 111.696 
L 284.073537 112.368 
L 284.015551 113.04 
L 283.955649 113.712 
L 283.893767 114.384 
L 283.82984 115.056 
L 283.7638 115.728 
L 283.695577 116.4 
L 283.6251 117.072 
L 283.552294 117.744 
L 283.477082 118.416 
L 283.399384 119.088 
L 283.319119 119.76 
L 283.2362 120.432 
L 283.150542 121.104 
L 283.062052 121.776 
L 282.970638 122.448 
L 282.876204 123.12 
L 282.778648 123.792 
L 282.677868 124.464 
L 282.573757 125.136 
L 282.466206 125.808 
L 282.355101 126.48 
L 282.240323 127.152 
L 282.121753 127.824 
L 281.999264 128.496 
L 281.872726 129.168 
L 281.742007 129.84 
L 281.606968 130.512 
L 281.467467 131.184 
L 281.323354 131.856 
L 281.17448 132.528 
L 281.020685 133.2 
L 280.861807 133.872 
L 280.697679 134.544 
L 280.528127 135.216 
L 280.352971 135.888 
L 280.172027 136.56 
L 279.985103 137.232 
L 279.792001 137.904 
L 279.592518 138.576 
L 279.386442 139.248 
L 279.173556 139.92 
L 278.953634 140.592 
L 278.726444 141.264 
L 278.491746 141.936 
L 278.249291 142.608 
L 277.998824 143.28 
L 277.74008 143.952 
L 277.472784 144.624 
L 277.196654 145.296 
L 276.911399 145.968 
L 276.616717 146.64 
L 276.312296 147.312 
L 275.997815 147.984 
L 275.67294 148.656 
L 275.337329 149.328 
L 274.990627 150 
L 274.632466 150.672 
L 274.26247 151.344 
L 273.880245 152.016 
L 273.485388 152.688 
L 273.077482 153.36 
L 272.656096 154.032 
L 272.220784 154.704 
L 271.771085 155.376 
L 271.306524 156.048 
L 270.826611 156.72 
L 270.330837 157.392 
L 269.818679 158.064 
L 269.289594 158.736 
L 268.743025 159.408 
L 268.178392 160.08 
L 267.5951 160.752 
L 266.99253 161.424 
L 266.370047 162.096 
L 265.726991 162.768 
L 265.062684 163.44 
L 264.376422 164.112 
L 263.667481 164.784 
L 262.935111 165.456 
L 262.178537 166.128 
L 261.396959 166.8 
L 260.589552 167.472 
L 259.755461 168.144 
L 258.893805 168.816 
L 258.003673 169.488 
L 257.084124 170.16 
L 256.134185 170.832 
L 255.152852 171.504 
L 254.139088 172.176 
L 253.091821 172.848 
L 252.009943 173.52 
L 319.646307 173.52 
L 319.646307 173.52 
L 318.564429 172.848 
L 317.517162 172.176 
L 316.503398 171.504 
L 315.522065 170.832 
L 314.572126 170.16 
L 313.652577 169.488 
L 312.762445 168.816 
L 311.900789 168.144 
L 311.066698 167.472 
L 310.259291 166.8 
L 309.477713 166.128 
L 308.721139 165.456 
L 307.988769 164.784 
L 307.279828 164.112 
L 306.593566 163.44 
L 305.929259 162.768 
L 305.286203 162.096 
L 304.66372 161.424 
L 304.06115 160.752 
L 303.477858 160.08 
L 302.913225 159.408 
L 302.366656 158.736 
L 301.837571 158.064 
L 301.325413 157.392 
L 300.829639 156.72 
L 300.349726 156.048 
L 299.885165 155.376 
L 299.435466 154.704 
L 299.000154 154.032 
L 298.578768 153.36 
L 298.170862 152.688 
L 297.776005 152.016 
L 297.39378 151.344 
L 297.023784 150.672 
L 296.665623 150 
L 296.318921 149.328 
L 295.98331 148.656 
L 295.658435 147.984 
L 295.343954 147.312 
L 295.039533 146.64 
L 294.744851 145.968 
L 294.459596 145.296 
L 294.183466 144.624 
L 293.91617 143.952 
L 293.657426 143.28 
L 293.406959 142.608 
L 293.164504 141.936 
L 292.929806 141.264 
L 292.702616 140.592 
L 292.482694 139.92 
L 292.269808 139.248 
L 292.063732 138.576 
L 291.864249 137.904 
L 291.671147 137.232 
L 291.484223 136.56 
L 291.303279 135.888 
L 291.128123 135.216 
L 290.958571 134.544 
L 290.794443 133.872 
L 290.635565 133.2 
L 290.48177 132.528 
L 290.332896 131.856 
L 290.188783 131.184 
L 290.049282 130.512 
L 289.914243 129.84 
L 289.783524 129.168 
L 289.656986 128.496 
L 289.534497 127.824 
L 289.415927 127.152 
L 289.301149 126.48 
L 289.190044 125.808 
L 289.082493 125.136 
L 288.978382 124.464 
L 288.877602 123.792 
L 288.780046 123.12 
L 288.685612 122.448 
L 288.594198 121.776 
L 288.505708 121.104 
L 288.42005 120.432 
L 288.337131 119.76 
L 288.256866 119.088 
L 288.179168 118.416 
L 288.103956 117.744 
L 288.03115 117.072 
L 287.960673 116.4 
L 287.89245 115.728 
L 287.82641 115.056 
L 287.762483 114.384 
L 287.700601 113.712 
L 287.640699 113.04 
L 287.582713 112.368 
L 287.526582 111.696 
L 287.472246 111.024 
L 287.419649 110.352 
L 287.368735 109.68 
L 287.319449 109.008 
L 287.27174 108.336 
L 287.225558 107.664 
L 287.180852 106.992 
L 292.591761 106.992 
L 292.591761 40.464 
z
" clip-path="url(#pdcc19d1314)" style="fill: #2ca02c; fill-opacity: 0.5"/>
      </g>
      <g id="matplotlib.axis_1">
       <g id="xtick_1">
        <g id="line2d_1"/>
        <g id="text_1">
         <!-- A -->
         <g transform="translate(79.498722 184.618438) scale(0.1 -0.1)">
          <defs>
           <path id="DejaVuSans-41" d="M 2188 4044 
L 1331 1722 
L 3047 1722 
L 2188 4044 
z
M 1831 4666 
L 2547 4666 
L 4325 0 
L 3669 0 
L 3244 1197 
L 1141 1197 
L 716 0 
L 50 0 
L 1831 4666 
z
" transform="scale(0.015625)"/>
          </defs>
          <use xlink:href="#DejaVuSans-41"/>
         </g>
        </g>
       </g>
       <g id="xtick_2">
        <g id="line2d_2"/>
        <g id="text_2">
         <!-- B -->
         <g transform="translate(282.397656 184.618438) scale(0.1 -0.1)">
          <defs>
           <path id="DejaVuSans-42" d="M 1259 2228 
L 1259 519 
L 2272 519 
Q 2781 519 3026 730 
Q 3272 941 3272 1375 
Q 3272 1813 3026 2020 
Q 2781 2228 2272 2228 
L 1259 2228 
z
M 1259 4147 
L 1259 2741 
L 2194 2741 
Q 2656 2741 2882 2914 
Q 3109 3088 3109 3444 
Q 3109 3797 2882 3972 
Q 2656 4147 2194 4147 
L 1259 4147 
z
M 628 4666 
L 2241 4666 
Q 2963 4666 3353 4366 
Q 3744 4066 3744 3513 
Q 3744 3084 3544 2831 
Q 3344 2578 2956 2516 
Q 3422 2416 3680 2098 
Q 3938 1781 3938 1306 
Q 3938 681 3513 340 
Q 3088 0 2303 0 
L 628 0 
L 628 4666 
z
" transform="scale(0.015625)"/>
          </defs>
          <use xlink:href="#DejaVuSans-42"/>
         </g>
        </g>
       </g>
      </g>
      <g id="matplotlib.axis_2">
       <g id="ytick_1">
        <g id="line2d_3">
         <defs>
          <path id="mbc4fd563f0" d="M 0 0 
L -3.5 0 
" style="stroke: #000000; stroke-width: 0.8"/>
         </defs>
         <g>
          <use xlink:href="#mbc4fd563f0" x="53.328125" y="173.52" style="stroke: #000000; stroke-width: 0.8"/>
         </g>
        </g>
        <g id="text_3">
         <!-- 0 -->
         <g transform="translate(39.965625 177.319219) scale(0.1 -0.1)">
          <defs>
           <path id="DejaVuSans-30" d="M 2034 4250 
Q 1547 4250 1301 3770 
Q 1056 3291 1056 2328 
Q 1056 1369 1301 889 
Q 1547 409 2034 409 
Q 2525 409 2770 889 
Q 3016 1369 3016 2328 
Q 3016 3291 2770 3770 
Q 2525 4250 2034 4250 
z
M 2034 4750 
Q 2819 4750 3233 4129 
Q 3647 3509 3647 2328 
Q 3647 1150 3233 529 
Q 2819 -91 2034 -91 
Q 1250 -91 836 529 
Q 422 1150 422 2328 
Q 422 3509 836 4129 
Q 1250 4750 2034 4750 
z
" transform="scale(0.015625)"/>
          </defs>
          <use xlink:href="#DejaVuSans-30"/>
         </g>
        </g>
       </g>
       <g id="ytick_2">
        <g id="line2d_4">
         <g>
          <use xlink:href="#mbc4fd563f0" x="53.328125" y="146.9088" style="stroke: #000000; stroke-width: 0.8"/>
         </g>
        </g>
        <g id="text_4">
         <!-- 200 -->
         <g transform="translate(27.240625 150.708019) scale(0.1 -0.1)">
          <defs>
           <path id="DejaVuSans-32" d="M 1228 531 
L 3431 531 
L 3431 0 
L 469 0 
L 469 531 
Q 828 903 1448 1529 
Q 2069 2156 2228 2338 
Q 2531 2678 2651 2914 
Q 2772 3150 2772 3378 
Q 2772 3750 2511 3984 
Q 2250 4219 1831 4219 
Q 1534 4219 1204 4116 
Q 875 4013 500 3803 
L 500 4441 
Q 881 4594 1212 4672 
Q 1544 4750 1819 4750 
Q 2544 4750 2975 4387 
Q 3406 4025 3406 3419 
Q 3406 3131 3298 2873 
Q 3191 2616 2906 2266 
Q 2828 2175 2409 1742 
Q 1991 1309 1228 531 
z
" transform="scale(0.015625)"/>
          </defs>
          <use xlink:href="#DejaVuSans-32"/>
          <use xlink:href="#DejaVuSans-30" x="63.623047"/>
          <use xlink:href="#DejaVuSans-30" x="127.246094"/>
         </g>
        </g>
       </g>
       <g id="ytick_3">
        <g id="line2d_5">
         <g>
          <use xlink:href="#mbc4fd563f0" x="53.328125" y="120.2976" style="stroke: #000000; stroke-width: 0.8"/>
         </g>
        </g>
        <g id="text_5">
         <!-- 400 -->
         <g transform="translate(27.240625 124.096819) scale(0.1 -0.1)">
          <defs>
           <path id="DejaVuSans-34" d="M 2419 4116 
L 825 1625 
L 2419 1625 
L 2419 4116 
z
M 2253 4666 
L 3047 4666 
L 3047 1625 
L 3713 1625 
L 3713 1100 
L 3047 1100 
L 3047 0 
L 2419 0 
L 2419 1100 
L 313 1100 
L 313 1709 
L 2253 4666 
z
" transform="scale(0.015625)"/>
          </defs>
          <use xlink:href="#DejaVuSans-34"/>
          <use xlink:href="#DejaVuSans-30" x="63.623047"/>
          <use xlink:href="#DejaVuSans-30" x="127.246094"/>
         </g>
        </g>
       </g>
       <g id="ytick_4">
        <g id="line2d_6">
         <g>
          <use xlink:href="#mbc4fd563f0" x="53.328125" y="93.6864" style="stroke: #000000; stroke-width: 0.8"/>
         </g>
        </g>
        <g id="text_6">
         <!-- 600 -->
         <g transform="translate(27.240625 97.485619) scale(0.1 -0.1)">
          <defs>
           <path id="DejaVuSans-36" d="M 2113 2584 
Q 1688 2584 1439 2293 
Q 1191 2003 1191 1497 
Q 1191 994 1439 701 
Q 1688 409 2113 409 
Q 2538 409 2786 701 
Q 3034 994 3034 1497 
Q 3034 2003 2786 2293 
Q 2538 2584 2113 2584 
z
M 3366 4563 
L 3366 3988 
Q 3128 4100 2886 4159 
Q 2644 4219 2406 4219 
Q 1781 4219 1451 3797 
Q 1122 3375 1075 2522 
Q 1259 2794 1537 2939 
Q 1816 3084 2150 3084 
Q 2853 3084 3261 2657 
Q 3669 2231 3669 1497 
Q 3669 778 3244 343 
Q 2819 -91 2113 -91 
Q 1303 -91 875 529 
Q 447 1150 447 2328 
Q 447 3434 972 4092 
Q 1497 4750 2381 4750 
Q 2619 4750 2861 4703 
Q 3103 4656 3366 4563 
z
" transform="scale(0.015625)"/>
          </defs>
          <use xlink:href="#DejaVuSans-36"/>
          <use xlink:href="#DejaVuSans-30" x="63.623047"/>
          <use xlink:href="#DejaVuSans-30" x="127.246094"/>
         </g>
        </g>
       </g>
       <g id="ytick_5">
        <g id="line2d_7">
         <g>
          <use xlink:href="#mbc4fd563f0" x="53.328125" y="67.0752" style="stroke: #000000; stroke-width: 0.8"/>
         </g>
        </g>
        <g id="text_7">
         <!-- 800 -->
         <g transform="translate(27.240625 70.874419) scale(0.1 -0.1)">
          <defs>
           <path id="DejaVuSans-38" d="M 2034 2216 
Q 1584 2216 1326 1975 
Q 1069 1734 1069 1313 
Q 1069 891 1326 650 
Q 1584 409 2034 409 
Q 2484 409 2743 651 
Q 3003 894 3003 1313 
Q 3003 1734 2745 1975 
Q 2488 2216 2034 2216 
z
M 1403 2484 
Q 997 2584 770 2862 
Q 544 3141 544 3541 
Q 544 4100 942 4425 
Q 1341 4750 2034 4750 
Q 2731 4750 3128 4425 
Q 3525 4100 3525 3541 
Q 3525 3141 3298 2862 
Q 3072 2584 2669 2484 
Q 3125 2378 3379 2068 
Q 3634 1759 3634 1313 
Q 3634 634 3220 271 
Q 2806 -91 2034 -91 
Q 1263 -91 848 271 
Q 434 634 434 1313 
Q 434 1759 690 2068 
Q 947 2378 1403 2484 
z
M 1172 3481 
Q 1172 3119 1398 2916 
Q 1625 2713 2034 2713 
Q 2441 2713 2670 2916 
Q 2900 3119 2900 3481 
Q 2900 3844 2670 4047 
Q 2441 4250 2034 4250 
Q 1625 4250 1398 4047 
Q 1172 3844 1172 3481 
z
" transform="scale(0.015625)"/>
          </defs>
          <use xlink:href="#DejaVuSans-38"/>
          <use xlink:href="#DejaVuSans-30" x="63.623047"/>
          <use xlink:href="#DejaVuSans-30" x="127.246094"/>
         </g>
        </g>
       </g>
       <g id="ytick_6">
        <g id="line2d_8">
         <g>
          <use xlink:href="#mbc4fd563f0" x="53.328125" y="40.464" style="stroke: #000000; stroke-width: 0.8"/>
         </g>
        </g>
        <g id="text_8">
         <!-- 1000 -->
         <g transform="translate(20.878125 44.263219) scale(0.1 -0.1)">
          <defs>
           <path id="DejaVuSans-31" d="M 794 531 
L 1825 531 
L 1825 4091 
L 703 3866 
L 703 4441 
L 1819 4666 
L 2450 4666 
L 2450 531 
L 3481 531 
L 3481 0 
L 794 0 
L 794 531 
z
" transform="scale(0.015625)"/>
          </defs>
          <use xlink:href="#DejaVuSans-31"/>
          <use xlink:href="#DejaVuSans-30" x="63.623047"/>
          <use xlink:href="#DejaVuSans-30" x="127.246094"/>
          <use xlink:href="#DejaVuSans-30" x="190.869141"/>
         </g>
        </g>
       </g>
       <g id="ytick_7">
        <g id="line2d_9">
         <g>
          <use xlink:href="#mbc4fd563f0" x="53.328125" y="13.8528" style="stroke: #000000; stroke-width: 0.8"/>
         </g>
        </g>
        <g id="text_9">
         <!-- 1200 -->
         <g transform="translate(20.878125 17.652019) scale(0.1 -0.1)">
          <use xlink:href="#DejaVuSans-31"/>
          <use xlink:href="#DejaVuSans-32" x="63.623047"/>
          <use xlink:href="#DejaVuSans-30" x="127.246094"/>
          <use xlink:href="#DejaVuSans-30" x="190.869141"/>
         </g>
        </g>
       </g>
       <g id="text_10">
        <!-- time ago (generations) -->
        <g transform="translate(14.798438 147.831094) rotate(-90) scale(0.1 -0.1)">
         <defs>
          <path id="DejaVuSans-74" d="M 1172 4494 
L 1172 3500 
L 2356 3500 
L 2356 3053 
L 1172 3053 
L 1172 1153 
Q 1172 725 1289 603 
Q 1406 481 1766 481 
L 2356 481 
L 2356 0 
L 1766 0 
Q 1100 0 847 248 
Q 594 497 594 1153 
L 594 3053 
L 172 3053 
L 172 3500 
L 594 3500 
L 594 4494 
L 1172 4494 
z
" transform="scale(0.015625)"/>
          <path id="DejaVuSans-69" d="M 603 3500 
L 1178 3500 
L 1178 0 
L 603 0 
L 603 3500 
z
M 603 4863 
L 1178 4863 
L 1178 4134 
L 603 4134 
L 603 4863 
z
" transform="scale(0.015625)"/>
          <path id="DejaVuSans-6d" d="M 3328 2828 
Q 3544 3216 3844 3400 
Q 4144 3584 4550 3584 
Q 5097 3584 5394 3201 
Q 5691 2819 5691 2113 
L 5691 0 
L 5113 0 
L 5113 2094 
Q 5113 2597 4934 2840 
Q 4756 3084 4391 3084 
Q 3944 3084 3684 2787 
Q 3425 2491 3425 1978 
L 3425 0 
L 2847 0 
L 2847 2094 
Q 2847 2600 2669 2842 
Q 2491 3084 2119 3084 
Q 1678 3084 1418 2786 
Q 1159 2488 1159 1978 
L 1159 0 
L 581 0 
L 581 3500 
L 1159 3500 
L 1159 2956 
Q 1356 3278 1631 3431 
Q 1906 3584 2284 3584 
Q 2666 3584 2933 3390 
Q 3200 3197 3328 2828 
z
" transform="scale(0.015625)"/>
          <path id="DejaVuSans-65" d="M 3597 1894 
L 3597 1613 
L 953 1613 
Q 991 1019 1311 708 
Q 1631 397 2203 397 
Q 2534 397 2845 478 
Q 3156 559 3463 722 
L 3463 178 
Q 3153 47 2828 -22 
Q 2503 -91 2169 -91 
Q 1331 -91 842 396 
Q 353 884 353 1716 
Q 353 2575 817 3079 
Q 1281 3584 2069 3584 
Q 2775 3584 3186 3129 
Q 3597 2675 3597 1894 
z
M 3022 2063 
Q 3016 2534 2758 2815 
Q 2500 3097 2075 3097 
Q 1594 3097 1305 2825 
Q 1016 2553 972 2059 
L 3022 2063 
z
" transform="scale(0.015625)"/>
          <path id="DejaVuSans-20" transform="scale(0.015625)"/>
          <path id="DejaVuSans-61" d="M 2194 1759 
Q 1497 1759 1228 1600 
Q 959 1441 959 1056 
Q 959 750 1161 570 
Q 1363 391 1709 391 
Q 2188 391 2477 730 
Q 2766 1069 2766 1631 
L 2766 1759 
L 2194 1759 
z
M 3341 1997 
L 3341 0 
L 2766 0 
L 2766 531 
Q 2569 213 2275 61 
Q 1981 -91 1556 -91 
Q 1019 -91 701 211 
Q 384 513 384 1019 
Q 384 1609 779 1909 
Q 1175 2209 1959 2209 
L 2766 2209 
L 2766 2266 
Q 2766 2663 2505 2880 
Q 2244 3097 1772 3097 
Q 1472 3097 1187 3025 
Q 903 2953 641 2809 
L 641 3341 
Q 956 3463 1253 3523 
Q 1550 3584 1831 3584 
Q 2591 3584 2966 3190 
Q 3341 2797 3341 1997 
z
" transform="scale(0.015625)"/>
          <path id="DejaVuSans-67" d="M 2906 1791 
Q 2906 2416 2648 2759 
Q 2391 3103 1925 3103 
Q 1463 3103 1205 2759 
Q 947 2416 947 1791 
Q 947 1169 1205 825 
Q 1463 481 1925 481 
Q 2391 481 2648 825 
Q 2906 1169 2906 1791 
z
M 3481 434 
Q 3481 -459 3084 -895 
Q 2688 -1331 1869 -1331 
Q 1566 -1331 1297 -1286 
Q 1028 -1241 775 -1147 
L 775 -588 
Q 1028 -725 1275 -790 
Q 1522 -856 1778 -856 
Q 2344 -856 2625 -561 
Q 2906 -266 2906 331 
L 2906 616 
Q 2728 306 2450 153 
Q 2172 0 1784 0 
Q 1141 0 747 490 
Q 353 981 353 1791 
Q 353 2603 747 3093 
Q 1141 3584 1784 3584 
Q 2172 3584 2450 3431 
Q 2728 3278 2906 2969 
L 2906 3500 
L 3481 3500 
L 3481 434 
z
" transform="scale(0.015625)"/>
          <path id="DejaVuSans-6f" d="M 1959 3097 
Q 1497 3097 1228 2736 
Q 959 2375 959 1747 
Q 959 1119 1226 758 
Q 1494 397 1959 397 
Q 2419 397 2687 759 
Q 2956 1122 2956 1747 
Q 2956 2369 2687 2733 
Q 2419 3097 1959 3097 
z
M 1959 3584 
Q 2709 3584 3137 3096 
Q 3566 2609 3566 1747 
Q 3566 888 3137 398 
Q 2709 -91 1959 -91 
Q 1206 -91 779 398 
Q 353 888 353 1747 
Q 353 2609 779 3096 
Q 1206 3584 1959 3584 
z
" transform="scale(0.015625)"/>
          <path id="DejaVuSans-28" d="M 1984 4856 
Q 1566 4138 1362 3434 
Q 1159 2731 1159 2009 
Q 1159 1288 1364 580 
Q 1569 -128 1984 -844 
L 1484 -844 
Q 1016 -109 783 600 
Q 550 1309 550 2009 
Q 550 2706 781 3412 
Q 1013 4119 1484 4856 
L 1984 4856 
z
" transform="scale(0.015625)"/>
          <path id="DejaVuSans-6e" d="M 3513 2113 
L 3513 0 
L 2938 0 
L 2938 2094 
Q 2938 2591 2744 2837 
Q 2550 3084 2163 3084 
Q 1697 3084 1428 2787 
Q 1159 2491 1159 1978 
L 1159 0 
L 581 0 
L 581 3500 
L 1159 3500 
L 1159 2956 
Q 1366 3272 1645 3428 
Q 1925 3584 2291 3584 
Q 2894 3584 3203 3211 
Q 3513 2838 3513 2113 
z
" transform="scale(0.015625)"/>
          <path id="DejaVuSans-72" d="M 2631 2963 
Q 2534 3019 2420 3045 
Q 2306 3072 2169 3072 
Q 1681 3072 1420 2755 
Q 1159 2438 1159 1844 
L 1159 0 
L 581 0 
L 581 3500 
L 1159 3500 
L 1159 2956 
Q 1341 3275 1631 3429 
Q 1922 3584 2338 3584 
Q 2397 3584 2469 3576 
Q 2541 3569 2628 3553 
L 2631 2963 
z
" transform="scale(0.015625)"/>
          <path id="DejaVuSans-73" d="M 2834 3397 
L 2834 2853 
Q 2591 2978 2328 3040 
Q 2066 3103 1784 3103 
Q 1356 3103 1142 2972 
Q 928 2841 928 2578 
Q 928 2378 1081 2264 
Q 1234 2150 1697 2047 
L 1894 2003 
Q 2506 1872 2764 1633 
Q 3022 1394 3022 966 
Q 3022 478 2636 193 
Q 2250 -91 1575 -91 
Q 1294 -91 989 -36 
Q 684 19 347 128 
L 347 722 
Q 666 556 975 473 
Q 1284 391 1588 391 
Q 1994 391 2212 530 
Q 2431 669 2431 922 
Q 2431 1156 2273 1281 
Q 2116 1406 1581 1522 
L 1381 1569 
Q 847 1681 609 1914 
Q 372 2147 372 2553 
Q 372 3047 722 3315 
Q 1072 3584 1716 3584 
Q 2034 3584 2315 3537 
Q 2597 3491 2834 3397 
z
" transform="scale(0.015625)"/>
          <path id="DejaVuSans-29" d="M 513 4856 
L 1013 4856 
Q 1481 4119 1714 3412 
Q 1947 2706 1947 2009 
Q 1947 1309 1714 600 
Q 1481 -109 1013 -844 
L 513 -844 
Q 928 -128 1133 580 
Q 1338 1288 1338 2009 
Q 1338 2731 1133 3434 
Q 928 4138 513 4856 
z
" transform="scale(0.015625)"/>
         </defs>
         <use xlink:href="#DejaVuSans-74"/>
         <use xlink:href="#DejaVuSans-69" x="39.208984"/>
         <use xlink:href="#DejaVuSans-6d" x="66.992188"/>
         <use xlink:href="#DejaVuSans-65" x="164.404297"/>
         <use xlink:href="#DejaVuSans-20" x="225.927734"/>
         <use xlink:href="#DejaVuSans-61" x="257.714844"/>
         <use xlink:href="#DejaVuSans-67" x="318.994141"/>
         <use xlink:href="#DejaVuSans-6f" x="382.470703"/>
         <use xlink:href="#DejaVuSans-20" x="443.652344"/>
         <use xlink:href="#DejaVuSans-28" x="475.439453"/>
         <use xlink:href="#DejaVuSans-67" x="514.453125"/>
         <use xlink:href="#DejaVuSans-65" x="577.929688"/>
         <use xlink:href="#DejaVuSans-6e" x="639.453125"/>
         <use xlink:href="#DejaVuSans-65" x="702.832031"/>
         <use xlink:href="#DejaVuSans-72" x="764.355469"/>
         <use xlink:href="#DejaVuSans-61" x="805.46875"/>
         <use xlink:href="#DejaVuSans-74" x="866.748047"/>
         <use xlink:href="#DejaVuSans-69" x="905.957031"/>
         <use xlink:href="#DejaVuSans-6f" x="933.740234"/>
         <use xlink:href="#DejaVuSans-6e" x="994.921875"/>
         <use xlink:href="#DejaVuSans-73" x="1058.300781"/>
         <use xlink:href="#DejaVuSans-29" x="1110.400391"/>
        </g>
       </g>
      </g>
      <g id="patch_6">
       <path d="M 165.462314 40.464 
L 164.462314 40.432564 
L 163.462314 40.395623 
L 162.462314 40.297877 
L 161.462314 40.265355 
L 160.462314 40.19173 
L 159.462314 40.153165 
L 158.462314 40.117752 
L 157.462314 40.060112 
L 156.462314 39.989726 
L 155.462314 39.937761 
L 154.462314 39.878672 
L 153.462314 39.790351 
L 152.462314 39.744206 
L 151.462314 39.701795 
L 150.462314 39.671303 
L 149.462314 39.645258 
L 148.462314 39.624058 
L 147.462314 39.569757 
L 146.462314 39.541819 
L 145.462314 39.512095 
L 144.462314 39.4867 
L 143.462314 39.4755 
L 142.462314 39.465376 
L 141.462314 39.46558 
L 140.462314 39.47509 
L 139.462314 39.486744 
L 138.462314 39.517773 
L 137.462314 39.528941 
L 136.462314 39.559058 
L 135.462314 39.618835 
L 134.462314 39.656027 
L 133.462314 39.695123 
L 132.462314 39.737563 
L 131.462314 39.770328 
L 130.462314 39.837754 
L 129.462314 39.87688 
L 128.462314 39.919555 
L 127.462314 39.990135 
L 126.462314 40.026526 
L 125.462314 40.084929 
L 124.462314 40.195882 
L 123.462314 40.26654 
L 122.462314 40.37948 
L 121.462314 40.425253 
L 120.462314 40.486536 
L 119.462314 40.535035 
L 118.462314 40.615858 
L 117.462314 40.734377 
L 116.462314 40.804588 
L 115.462314 40.88785 
L 114.462314 40.920992 
L 113.462314 40.972229 
L 112.462314 41.040628 
L 111.462314 41.106843 
L 110.462314 41.18376 
L 109.462314 41.211076 
L 108.462314 41.237553 
L 107.462314 41.260204 
L 106.462314 41.279735 
L 105.462314 41.306129 
L 104.462314 41.3559 
L 102.945149 41.390973 
" clip-path="url(#pdcc19d1314)" style="fill: none; stroke: #ffffff; stroke-width: 3; stroke-linecap: round"/>
       <path d="M 165.462314 40.464 
L 164.462314 40.432564 
L 163.462314 40.395623 
L 162.462314 40.297877 
L 161.462314 40.265355 
L 160.462314 40.19173 
L 159.462314 40.153165 
L 158.462314 40.117752 
L 157.462314 40.060112 
L 156.462314 39.989726 
L 155.462314 39.937761 
L 154.462314 39.878672 
L 153.462314 39.790351 
L 152.462314 39.744206 
L 151.462314 39.701795 
L 150.462314 39.671303 
L 149.462314 39.645258 
L 148.462314 39.624058 
L 147.462314 39.569757 
L 146.462314 39.541819 
L 145.462314 39.512095 
L 144.462314 39.4867 
L 143.462314 39.4755 
L 142.462314 39.465376 
L 141.462314 39.46558 
L 140.462314 39.47509 
L 139.462314 39.486744 
L 138.462314 39.517773 
L 137.462314 39.528941 
L 136.462314 39.559058 
L 135.462314 39.618835 
L 134.462314 39.656027 
L 133.462314 39.695123 
L 132.462314 39.737563 
L 131.462314 39.770328 
L 130.462314 39.837754 
L 129.462314 39.87688 
L 128.462314 39.919555 
L 127.462314 39.990135 
L 126.462314 40.026526 
L 125.462314 40.084929 
L 124.462314 40.195882 
L 123.462314 40.26654 
L 122.462314 40.37948 
L 121.462314 40.425253 
L 120.462314 40.486536 
L 119.462314 40.535035 
L 118.462314 40.615858 
L 117.462314 40.734377 
L 116.462314 40.804588 
L 115.462314 40.88785 
L 114.462314 40.920992 
L 113.462314 40.972229 
L 112.462314 41.040628 
L 111.462314 41.106843 
L 110.462314 41.18376 
L 109.462314 41.211076 
L 108.462314 41.237553 
L 107.462314 41.260204 
L 106.462314 41.279735 
L 105.462314 41.306129 
L 104.462314 41.3559 
L 102.945149 41.390973 
" clip-path="url(#pdcc19d1314)" style="fill: none; stroke: #1f77b4; stroke-linecap: round"/>
       <path d="M 106.945149 42.464 
L 106.064781 41.988669 
L 105.186874 41.508415 
L 104.336161 40.973774 
L 103.033986 40.286327 
L 103.961339 40.260312 
L 104.873014 39.847592 
L 105.783278 39.432053 
L 107.125774 38.825249 
L 106.470875 39.464 
L 106.418911 40.464 
L 106.359821 42.464 
L 106.945149 42.464 
z
" clip-path="url(#pdcc19d1314)" style="fill: #ffffff; stroke: #ffffff; stroke-width: 3; stroke-linecap: round"/>
       <path d="M 106.945149 42.464 
L 106.064781 41.988669 
L 105.186874 41.508415 
L 104.336161 40.973774 
L 103.033986 40.286327 
L 103.961339 40.260312 
L 104.873014 39.847592 
L 105.783278 39.432053 
L 107.125774 38.825249 
L 106.470875 39.464 
L 106.418911 40.464 
L 106.359821 42.464 
L 106.945149 42.464 
z
" clip-path="url(#pdcc19d1314)" style="fill: #ffffff; stroke: #1f77b4; stroke-linecap: round"/>
       <g id="patch_7">
        <path d="M 203.281337 40.464 
L 204.281337 40.495436 
L 205.281337 40.532377 
L 206.281337 40.630123 
L 207.281337 40.662645 
L 208.281337 40.73627 
L 209.281337 40.774835 
L 210.281337 40.810248 
L 211.281337 40.867888 
L 212.281337 40.938274 
L 213.281337 40.990239 
L 214.281337 41.049328 
L 215.281337 41.137649 
L 216.281337 41.183794 
L 217.281337 41.226205 
L 218.281337 41.256697 
L 219.281337 41.282742 
L 220.281337 41.303942 
L 221.281337 41.358243 
L 222.281337 41.386181 
L 223.281337 41.415905 
L 224.281337 41.4413 
L 225.281337 41.4525 
L 226.281337 41.462624 
L 227.281337 41.46242 
L 228.281337 41.45291 
L 229.281337 41.441256 
L 230.281337 41.410227 
L 231.281337 41.399059 
L 232.281337 41.368942 
L 233.281337 41.309165 
L 234.281337 41.271973 
L 235.281337 41.232877 
L 236.281337 41.190437 
L 237.281337 41.157672 
L 238.281337 41.090246 
L 239.281337 41.05112 
L 240.281337 41.008445 
L 241.281337 40.937865 
L 242.281337 40.901474 
L 243.281337 40.843071 
L 244.281337 40.732118 
L 245.281337 40.66146 
L 246.281337 40.54852 
L 247.281337 40.502747 
L 248.281337 40.441464 
L 249.281337 40.392965 
L 250.281337 40.312142 
L 251.281337 40.193623 
L 252.281337 40.123412 
L 253.281337 40.04015 
L 254.281337 40.007008 
L 255.281337 39.955771 
L 256.281337 39.887372 
L 257.281337 39.821157 
L 258.281337 39.74424 
L 259.281337 39.716924 
L 260.281337 39.690447 
L 261.281337 39.667796 
L 262.281337 39.648265 
L 263.281337 39.621871 
L 264.281337 39.5721 
L 265.281337 39.537027 
L 266.281337 39.501161 
L 267.281337 39.485794 
L 268.281337 39.470025 
L 269.281337 39.466612 
L 270.281337 39.464195 
L 271.281337 39.464681 
L 272.281337 39.46661 
L 273.281337 39.479867 
L 274.281337 39.488258 
L 275.943641 39.509794 
" clip-path="url(#pdcc19d1314)" style="fill: none; stroke: #ffffff; stroke-width: 3; stroke-linecap: round"/>
        <path d="M 203.281337 40.464 
L 204.281337 40.495436 
L 205.281337 40.532377 
L 206.281337 40.630123 
L 207.281337 40.662645 
L 208.281337 40.73627 
L 209.281337 40.774835 
L 210.281337 40.810248 
L 211.281337 40.867888 
L 212.281337 40.938274 
L 213.281337 40.990239 
L 214.281337 41.049328 
L 215.281337 41.137649 
L 216.281337 41.183794 
L 217.281337 41.226205 
L 218.281337 41.256697 
L 219.281337 41.282742 
L 220.281337 41.303942 
L 221.281337 41.358243 
L 222.281337 41.386181 
L 223.281337 41.415905 
L 224.281337 41.4413 
L 225.281337 41.4525 
L 226.281337 41.462624 
L 227.281337 41.46242 
L 228.281337 41.45291 
L 229.281337 41.441256 
L 230.281337 41.410227 
L 231.281337 41.399059 
L 232.281337 41.368942 
L 233.281337 41.309165 
L 234.281337 41.271973 
L 235.281337 41.232877 
L 236.281337 41.190437 
L 237.281337 41.157672 
L 238.281337 41.090246 
L 239.281337 41.05112 
L 240.281337 41.008445 
L 241.281337 40.937865 
L 242.281337 40.901474 
L 243.281337 40.843071 
L 244.281337 40.732118 
L 245.281337 40.66146 
L 246.281337 40.54852 
L 247.281337 40.502747 
L 248.281337 40.441464 
L 249.281337 40.392965 
L 250.281337 40.312142 
L 251.281337 40.193623 
L 252.281337 40.123412 
L 253.281337 40.04015 
L 254.281337 40.007008 
L 255.281337 39.955771 
L 256.281337 39.887372 
L 257.281337 39.821157 
L 258.281337 39.74424 
L 259.281337 39.716924 
L 260.281337 39.690447 
L 261.281337 39.667796 
L 262.281337 39.648265 
L 263.281337 39.621871 
L 264.281337 39.5721 
L 265.281337 39.537027 
L 266.281337 39.501161 
L 267.281337 39.485794 
L 268.281337 39.470025 
L 269.281337 39.466612 
L 270.281337 39.464195 
L 271.281337 39.464681 
L 272.281337 39.46661 
L 273.281337 39.479867 
L 274.281337 39.488258 
L 275.943641 39.509794 
" clip-path="url(#pdcc19d1314)" style="fill: none; stroke: #1f77b4; stroke-linecap: round"/>
        <path d="M 271.943641 38.464 
L 272.824009 38.939331 
L 273.701916 39.419585 
L 274.55263 39.954226 
L 275.854804 40.641673 
L 274.927451 40.667688 
L 274.015777 41.080408 
L 273.105512 41.495947 
L 271.763016 42.102751 
L 272.417915 41.464 
L 272.469879 40.464 
L 272.528969 38.464 
L 271.943641 38.464 
z
" clip-path="url(#pdcc19d1314)" style="fill: #ffffff; stroke: #ffffff; stroke-width: 3; stroke-linecap: round"/>
        <path d="M 271.943641 38.464 
L 272.824009 38.939331 
L 273.701916 39.419585 
L 274.55263 39.954226 
L 275.854804 40.641673 
L 274.927451 40.667688 
L 274.015777 41.080408 
L 273.105512 41.495947 
L 271.763016 42.102751 
L 272.417915 41.464 
L 272.469879 40.464 
L 272.528969 38.464 
L 271.943641 38.464 
z
" clip-path="url(#pdcc19d1314)" style="fill: #ffffff; stroke: #1f77b4; stroke-linecap: round"/>
        <path d="M 277.274489 105.419062 
L 275.274489 104.419062 
L 275.274489 106.419062 
z
" clip-path="url(#pdcc19d1314)" style="fill: #ff7f0e; fill-opacity: 0.5; stroke: #ff7f0e; stroke-opacity: 0.5; stroke-linejoin: miter"/>
        <path d="M 277.274489 47.055102 
L 275.274489 46.055102 
L 275.274489 48.055102 
z
" clip-path="url(#pdcc19d1314)" style="fill: #ff7f0e; fill-opacity: 0.5; stroke: #ff7f0e; stroke-opacity: 0.5; stroke-linejoin: miter"/>
        <path d="M 270.669176 154.338699 
L 268.669176 153.338699 
L 268.669176 155.338699 
z
" clip-path="url(#pdcc19d1314)" style="fill: #ff7f0e; fill-opacity: 0.5; stroke: #ff7f0e; stroke-opacity: 0.5; stroke-linejoin: miter"/>
        <path d="M 277.274489 47.296499 
L 275.274489 46.296499 
L 275.274489 48.296499 
z
" clip-path="url(#pdcc19d1314)" style="fill: #ff7f0e; fill-opacity: 0.5; stroke: #ff7f0e; stroke-opacity: 0.5; stroke-linejoin: miter"/>
        <path d="M 279.4955 132.028954 
L 277.4955 131.028954 
L 277.4955 133.028954 
z
" clip-path="url(#pdcc19d1314)" style="fill: #ff7f0e; fill-opacity: 0.5; stroke: #ff7f0e; stroke-opacity: 0.5; stroke-linejoin: miter"/>
        <path d="M 281.822071 117.193876 
L 279.822071 116.193876 
L 279.822071 118.193876 
z
" clip-path="url(#pdcc19d1314)" style="fill: #ff7f0e; fill-opacity: 0.5; stroke: #ff7f0e; stroke-opacity: 0.5; stroke-linejoin: miter"/>
        <path d="M 277.274489 63.389204 
L 275.274489 62.389204 
L 275.274489 64.389204 
z
" clip-path="url(#pdcc19d1314)" style="fill: #ff7f0e; fill-opacity: 0.5; stroke: #ff7f0e; stroke-opacity: 0.5; stroke-linejoin: miter"/>
        <path d="M 281.611076 119.0736 
L 279.611076 118.0736 
L 279.611076 120.0736 
z
" clip-path="url(#pdcc19d1314)" style="fill: #ff7f0e; fill-opacity: 0.5; stroke: #ff7f0e; stroke-opacity: 0.5; stroke-linejoin: miter"/>
        <path d="M 277.274489 100.393262 
L 275.274489 99.393262 
L 275.274489 101.393262 
z
" clip-path="url(#pdcc19d1314)" style="fill: #ff7f0e; fill-opacity: 0.5; stroke: #ff7f0e; stroke-opacity: 0.5; stroke-linejoin: miter"/>
        <path d="M 255.717797 169.853095 
L 253.717797 168.853095 
L 253.717797 170.853095 
z
" clip-path="url(#pdcc19d1314)" style="fill: #ff7f0e; fill-opacity: 0.5; stroke: #ff7f0e; stroke-opacity: 0.5; stroke-linejoin: miter"/>
        <g id="patch_8">
         <path d="M 53.328125 173.52 
L 53.328125 7.2 
" style="fill: none; stroke: #000000; stroke-width: 0.8; stroke-linejoin: miter; stroke-linecap: square"/>
        </g>
        <g id="text_11">
         <g id="patch_9">
          <path d="M 131.778267 30.810125 
L 236.968892 30.810125 
Q 238.968892 30.810125 238.968892 28.810125 
L 238.968892 18.853875 
Q 238.968892 16.853875 236.968892 16.853875 
L 131.778267 16.853875 
Q 129.778267 16.853875 129.778267 18.853875 
L 129.778267 28.810125 
Q 129.778267 30.810125 131.778267 30.810125 
z
" style="fill: #ffffff; opacity: 0.6"/>
         </g>
         <!-- Ancestral_population -->
         <g transform="translate(131.778267 26.452313) scale(0.1 -0.1)">
          <defs>
           <path id="DejaVuSans-63" d="M 3122 3366 
L 3122 2828 
Q 2878 2963 2633 3030 
Q 2388 3097 2138 3097 
Q 1578 3097 1268 2742 
Q 959 2388 959 1747 
Q 959 1106 1268 751 
Q 1578 397 2138 397 
Q 2388 397 2633 464 
Q 2878 531 3122 666 
L 3122 134 
Q 2881 22 2623 -34 
Q 2366 -91 2075 -91 
Q 1284 -91 818 406 
Q 353 903 353 1747 
Q 353 2603 823 3093 
Q 1294 3584 2113 3584 
Q 2378 3584 2631 3529 
Q 2884 3475 3122 3366 
z
" transform="scale(0.015625)"/>
           <path id="DejaVuSans-6c" d="M 603 4863 
L 1178 4863 
L 1178 0 
L 603 0 
L 603 4863 
z
" transform="scale(0.015625)"/>
           <path id="DejaVuSans-5f" d="M 3263 -1063 
L 3263 -1509 
L -63 -1509 
L -63 -1063 
L 3263 -1063 
z
" transform="scale(0.015625)"/>
           <path id="DejaVuSans-70" d="M 1159 525 
L 1159 -1331 
L 581 -1331 
L 581 3500 
L 1159 3500 
L 1159 2969 
Q 1341 3281 1617 3432 
Q 1894 3584 2278 3584 
Q 2916 3584 3314 3078 
Q 3713 2572 3713 1747 
Q 3713 922 3314 415 
Q 2916 -91 2278 -91 
Q 1894 -91 1617 61 
Q 1341 213 1159 525 
z
M 3116 1747 
Q 3116 2381 2855 2742 
Q 2594 3103 2138 3103 
Q 1681 3103 1420 2742 
Q 1159 2381 1159 1747 
Q 1159 1113 1420 752 
Q 1681 391 2138 391 
Q 2594 391 2855 752 
Q 3116 1113 3116 1747 
z
" transform="scale(0.015625)"/>
           <path id="DejaVuSans-75" d="M 544 1381 
L 544 3500 
L 1119 3500 
L 1119 1403 
Q 1119 906 1312 657 
Q 1506 409 1894 409 
Q 2359 409 2629 706 
Q 2900 1003 2900 1516 
L 2900 3500 
L 3475 3500 
L 3475 0 
L 2900 0 
L 2900 538 
Q 2691 219 2414 64 
Q 2138 -91 1772 -91 
Q 1169 -91 856 284 
Q 544 659 544 1381 
z
M 1991 3584 
L 1991 3584 
z
" transform="scale(0.015625)"/>
          </defs>
          <use xlink:href="#DejaVuSans-41"/>
          <use xlink:href="#DejaVuSans-6e" x="68.408203"/>
          <use xlink:href="#DejaVuSans-63" x="131.787109"/>
          <use xlink:href="#DejaVuSans-65" x="186.767578"/>
          <use xlink:href="#DejaVuSans-73" x="248.291016"/>
          <use xlink:href="#DejaVuSans-74" x="300.390625"/>
          <use xlink:href="#DejaVuSans-72" x="339.599609"/>
          <use xlink:href="#DejaVuSans-61" x="380.712891"/>
          <use xlink:href="#DejaVuSans-6c" x="441.992188"/>
          <use xlink:href="#DejaVuSans-5f" x="469.775391"/>
          <use xlink:href="#DejaVuSans-70" x="519.775391"/>
          <use xlink:href="#DejaVuSans-6f" x="583.251953"/>
          <use xlink:href="#DejaVuSans-70" x="644.433594"/>
          <use xlink:href="#DejaVuSans-75" x="707.910156"/>
          <use xlink:href="#DejaVuSans-6c" x="771.289062"/>
          <use xlink:href="#DejaVuSans-61" x="799.072266"/>
          <use xlink:href="#DejaVuSans-74" x="860.351562"/>
          <use xlink:href="#DejaVuSans-69" x="899.560547"/>
          <use xlink:href="#DejaVuSans-6f" x="927.34375"/>
          <use xlink:href="#DejaVuSans-6e" x="988.525391"/>
         </g>
        </g>
       </g>
      </g>
      <defs>
       <clipPath id="pdcc19d1314">
        <rect x="53.328125" y="7.2" width="279" height="166.32"/>
       </clipPath>
      </defs>
     </g>
    </g>
   </g>
  </g>
 </g>
</svg>
