<svg baseProfile="full" height="200" version="1.1" width="200" xmlns="http://www.w3.org/2000/svg" xmlns:ev="http://www.w3.org/2001/xml-events" xmlns:xlink="http://www.w3.org/1999/xlink"><defs/><g id="lines" stroke="black"><line x1="50.0" x2="50.0" y1="99.05016275205732" y2="20.0"/><line x1="50.0" x2="89.28571428571429" y1="20.0" y2="20.0"/><line x1="28.571428571428573" x2="28.571428571428573" y1="180.0" y2="99.05016275205732"/><line x1="28.571428571428573" x2="50.0" y1="99.05016275205732" y2="99.05016275205732"/><line x1="71.42857142857143" x2="71.42857142857143" y1="175.33741910592107" y2="99.05016275205732"/><line x1="71.42857142857143" x2="50.0" y1="99.05016275205732" y2="99.05016275205732"/><line x1="57.142857142857146" x2="57.142857142857146" y1="180.0" y2="175.33741910592107"/><line x1="57.142857142857146" x2="71.42857142857143" y1="175.33741910592107" y2="175.33741910592107"/><line x1="85.71428571428572" x2="85.71428571428572" y1="180.0" y2="175.33741910592107"/><line x1="85.71428571428572" x2="71.42857142857143" y1="175.33741910592107" y2="175.33741910592107"/><line x1="128.57142857142858" x2="128.57142857142858" y1="95.32802891583364" y2="20.0"/><line x1="128.57142857142858" x2="89.28571428571429" y1="20.0" y2="20.0"/><line x1="114.28571428571429" x2="114.28571428571429" y1="180.0" y2="95.32802891583364"/><line x1="114.28571428571429" x2="128.57142857142858" y1="95.32802891583364" y2="95.32802891583364"/><line x1="142.85714285714286" x2="142.85714285714286" y1="180.0" y2="95.32802891583364"/><line x1="142.85714285714286" x2="128.57142857142858" y1="95.32802891583364" y2="95.32802891583364"/></g><g font-size="14" text-anchor="start"><text x="76.42857142857143" y="170.33741910592107">5</text><text x="133.57142857142858" y="90.32802891583364">7</text></g><g font-size="14" text-anchor="end"><text x="45.0" y="94.05016275205732">6</text></g><g font-size="14" text-anchor="middle"><text x="89.28571428571429" y="15.0">8</text><text x="28.571428571428573" y="200.0">1</text><text x="57.142857142857146" y="200.0">0</text><text x="85.71428571428572" y="200.0">3</text><text x="114.28571428571429" y="200.0">2</text><text x="142.85714285714286" y="200.0">4</text></g><circle cx="89.28571428571429" cy="20.0" fill="blue" r="3"/><circle cx="50.0" cy="99.05016275205732" fill="blue" r="3"/><circle cx="28.571428571428573" cy="180.0" fill="red" r="3"/><circle cx="71.42857142857143" cy="175.33741910592107" fill="blue" r="3"/><circle cx="57.142857142857146" cy="180.0" fill="red" r="3"/><circle cx="85.71428571428572" cy="180.0" fill="blue" r="3"/><circle cx="128.57142857142858" cy="95.32802891583364" fill="blue" r="3"/><circle cx="114.28571428571429" cy="180.0" fill="red" r="3"/><circle cx="142.85714285714286" cy="180.0" fill="green" r="3"/><g alignment-baseline="middle" font-size="14" font-style="italic" text-anchor="start"><text x="147.85714285714286" y="163.33200722895842">0</text><text x="147.85714285714286" y="142.16401445791683">9</text><text x="147.85714285714286" y="120.99602168687522">11</text><text x="76.42857142857143" y="141.6937909289892">3</text><text x="133.57142857142858" y="74.7186859438891">1</text><text x="133.57142857142858" y="49.60934297194455">5</text></g><g alignment-baseline="middle" font-size="14" font-style="italic" text-anchor="end"><text x="23.571428571428573" y="157.51672091735244">2</text><text x="23.571428571428573" y="130.5334418347049">7</text><text x="109.28571428571429" y="142.16401445791683">6</text><text x="45.0" y="87.74013020164585">4</text><text x="45.0" y="71.93009765123439">8</text><text x="45.0" y="56.12006510082293">10</text><text x="45.0" y="40.310032550411464">12</text></g><rect fill="red" height="6" width="6" x="25.571428571428573" y="150.01672091735244"/><rect fill="green" height="6" width="6" x="25.571428571428573" y="123.03344183470489"/><rect fill="red" height="6" width="6" x="111.28571428571429" y="134.66401445791683"/><rect fill="green" height="6" width="6" x="139.85714285714286" y="155.83200722895842"/><rect fill="green" height="6" width="6" x="139.85714285714286" y="134.66401445791683"/><rect fill="green" height="6" width="6" x="139.85714285714286" y="113.49602168687522"/><rect fill="blue" height="6" width="6" x="68.42857142857143" y="134.1937909289892"/><rect fill="blue" height="6" width="6" x="47.0" y="80.24013020164585"/><rect fill="blue" height="6" width="6" x="47.0" y="64.43009765123439"/><rect fill="blue" height="6" width="6" x="47.0" y="48.62006510082293"/><rect fill="blue" height="6" width="6" x="47.0" y="32.810032550411464"/><rect fill="red" height="6" width="6" x="125.57142857142858" y="67.2186859438891"/><rect fill="red" height="6" width="6" x="125.57142857142858" y="42.10934297194455"/></svg>