<?xml version="1.0" encoding="utf-8" standalone="no"?>
<!DOCTYPE svg PUBLIC "-//W3C//DTD SVG 1.1//EN"
  "http://www.w3.org/Graphics/SVG/1.1/DTD/svg11.dtd">
<!-- Created with matplotlib (http://matplotlib.org/) -->
<svg height="262pt" version="1.1" viewBox="0 0 370 262" width="370pt" xmlns="http://www.w3.org/2000/svg" xmlns:xlink="http://www.w3.org/1999/xlink">
 <defs>
  <style type="text/css">
*{stroke-linecap:butt;stroke-linejoin:round;}
  </style>
 </defs>
 <g id="figure_1">
  <g id="patch_1">
   <path d="M 0 262.415938 
L 370.1 262.415938 
L 370.1 0 
L 0 0 
z
" style="fill:none;"/>
  </g>
  <g id="axes_1">
   <g id="patch_2">
    <path d="M 28.1 224.64 
L 362.9 224.64 
L 362.9 7.2 
L 28.1 7.2 
z
" style="fill:#eaeaf2;"/>
   </g>
   <g id="matplotlib.axis_1">
    <g id="xtick_1">
     <g id="line2d_1">
      <path clip-path="url(#p9bb2d39ba8)" d="M 47.368187 224.64 
L 47.368187 7.2 
" style="fill:none;stroke:#ffffff;stroke-linecap:round;"/>
     </g>
     <g id="line2d_2"/>
     <g id="text_1">
      <!-- 0 -->
      <defs>
       <path d="M 51.703125 34.421875 
Q 51.703125 24.515625 49.828125 17.75 
Q 47.953125 10.984375 44.703125 6.8125 
Q 41.453125 2.640625 37.0625 0.828125 
Q 32.671875 -0.984375 27.6875 -0.984375 
Q 22.65625 -0.984375 18.3125 0.828125 
Q 13.96875 2.640625 10.765625 6.78125 
Q 7.5625 10.9375 5.734375 17.703125 
Q 3.90625 24.46875 3.90625 34.421875 
Q 3.90625 44.828125 5.734375 51.640625 
Q 7.5625 58.453125 10.78125 62.5 
Q 14.015625 66.546875 18.40625 68.1875 
Q 22.796875 69.828125 27.984375 69.828125 
Q 32.90625 69.828125 37.21875 68.1875 
Q 41.546875 66.546875 44.765625 62.5 
Q 48 58.453125 49.84375 51.640625 
Q 51.703125 44.828125 51.703125 34.421875 
z
M 42.78125 34.421875 
Q 42.78125 42.625 41.796875 48.0625 
Q 40.828125 53.515625 38.921875 56.765625 
Q 37.015625 60.015625 34.25 61.359375 
Q 31.5 62.703125 27.984375 62.703125 
Q 24.265625 62.703125 21.4375 61.328125 
Q 18.609375 59.96875 16.671875 56.71875 
Q 14.75 53.46875 13.765625 48.015625 
Q 12.796875 42.578125 12.796875 34.421875 
Q 12.796875 26.515625 13.796875 21.09375 
Q 14.796875 15.671875 16.71875 12.375 
Q 18.65625 9.078125 21.4375 7.640625 
Q 24.21875 6.203125 27.78125 6.203125 
Q 31.25 6.203125 34.03125 7.640625 
Q 36.8125 9.078125 38.734375 12.375 
Q 40.671875 15.671875 41.71875 21.09375 
Q 42.78125 26.515625 42.78125 34.421875 
z
" id="LiberationSans-30"/>
      </defs>
      <g style="fill:#262626;" transform="translate(44.587718 238.886875)scale(0.1 -0.1)">
       <use xlink:href="#LiberationSans-30"/>
      </g>
     </g>
    </g>
    <g id="xtick_2">
     <g id="line2d_3">
      <path clip-path="url(#p9bb2d39ba8)" d="M 87.950877 224.64 
L 87.950877 7.2 
" style="fill:none;stroke:#ffffff;stroke-linecap:round;"/>
     </g>
     <g id="line2d_4"/>
     <g id="text_2">
      <!-- 5 -->
      <defs>
       <path d="M 51.421875 22.40625 
Q 51.421875 17.234375 49.859375 12.9375 
Q 48.296875 8.640625 45.21875 5.53125 
Q 42.140625 2.4375 37.578125 0.71875 
Q 33.015625 -0.984375 27 -0.984375 
Q 21.578125 -0.984375 17.546875 0.28125 
Q 13.53125 1.5625 10.734375 3.78125 
Q 7.953125 6 6.3125 8.984375 
Q 4.6875 11.96875 4 15.375 
L 12.890625 16.40625 
Q 13.421875 14.453125 14.390625 12.625 
Q 15.375 10.796875 17.0625 9.34375 
Q 18.75 7.90625 21.21875 7.046875 
Q 23.6875 6.203125 27.203125 6.203125 
Q 30.609375 6.203125 33.390625 7.25 
Q 36.1875 8.296875 38.15625 10.34375 
Q 40.140625 12.40625 41.203125 15.375 
Q 42.28125 18.359375 42.28125 22.21875 
Q 42.28125 25.390625 41.25 28.046875 
Q 40.234375 30.71875 38.328125 32.640625 
Q 36.421875 34.578125 33.65625 35.640625 
Q 30.90625 36.71875 27.390625 36.71875 
Q 25.203125 36.71875 23.34375 36.328125 
Q 21.484375 35.9375 19.890625 35.25 
Q 18.3125 34.578125 17.015625 33.671875 
Q 15.71875 32.765625 14.59375 31.78125 
L 6 31.78125 
L 8.296875 68.796875 
L 47.40625 68.796875 
L 47.40625 61.328125 
L 16.3125 61.328125 
L 14.984375 39.5 
Q 17.328125 41.3125 20.84375 42.59375 
Q 24.359375 43.890625 29.203125 43.890625 
Q 34.328125 43.890625 38.421875 42.328125 
Q 42.53125 40.765625 45.40625 37.90625 
Q 48.296875 35.0625 49.859375 31.109375 
Q 51.421875 27.15625 51.421875 22.40625 
z
" id="LiberationSans-35"/>
      </defs>
      <g style="fill:#262626;" transform="translate(85.170408 238.886875)scale(0.1 -0.1)">
       <use xlink:href="#LiberationSans-35"/>
      </g>
     </g>
    </g>
    <g id="xtick_3">
     <g id="line2d_5">
      <path clip-path="url(#p9bb2d39ba8)" d="M 128.533566 224.64 
L 128.533566 7.2 
" style="fill:none;stroke:#ffffff;stroke-linecap:round;"/>
     </g>
     <g id="line2d_6"/>
     <g id="text_3">
      <!-- 10 -->
      <defs>
       <path d="M 7.625 0 
L 7.625 7.46875 
L 25.140625 7.46875 
L 25.140625 60.40625 
L 9.625 49.3125 
L 9.625 57.625 
L 25.875 68.796875 
L 33.984375 68.796875 
L 33.984375 7.46875 
L 50.734375 7.46875 
L 50.734375 0 
z
" id="LiberationSans-31"/>
      </defs>
      <g style="fill:#262626;" transform="translate(122.972629 238.886875)scale(0.1 -0.1)">
       <use xlink:href="#LiberationSans-31"/>
       <use x="55.615234" xlink:href="#LiberationSans-30"/>
      </g>
     </g>
    </g>
    <g id="xtick_4">
     <g id="line2d_7">
      <path clip-path="url(#p9bb2d39ba8)" d="M 169.116256 224.64 
L 169.116256 7.2 
" style="fill:none;stroke:#ffffff;stroke-linecap:round;"/>
     </g>
     <g id="line2d_8"/>
     <g id="text_4">
      <!-- 15 -->
      <g style="fill:#262626;" transform="translate(163.555318 238.886875)scale(0.1 -0.1)">
       <use xlink:href="#LiberationSans-31"/>
       <use x="55.615234" xlink:href="#LiberationSans-35"/>
      </g>
     </g>
    </g>
    <g id="xtick_5">
     <g id="line2d_9">
      <path clip-path="url(#p9bb2d39ba8)" d="M 209.698946 224.64 
L 209.698946 7.2 
" style="fill:none;stroke:#ffffff;stroke-linecap:round;"/>
     </g>
     <g id="line2d_10"/>
     <g id="text_5">
      <!-- 20 -->
      <defs>
       <path d="M 5.03125 0 
L 5.03125 6.203125 
Q 7.515625 11.921875 11.109375 16.28125 
Q 14.703125 20.65625 18.65625 24.1875 
Q 22.609375 27.734375 26.484375 30.765625 
Q 30.375 33.796875 33.5 36.8125 
Q 36.625 39.84375 38.546875 43.15625 
Q 40.484375 46.484375 40.484375 50.6875 
Q 40.484375 53.609375 39.59375 55.828125 
Q 38.71875 58.0625 37.0625 59.5625 
Q 35.40625 61.078125 33.078125 61.828125 
Q 30.765625 62.59375 27.9375 62.59375 
Q 25.296875 62.59375 22.96875 61.859375 
Q 20.65625 61.140625 18.84375 59.671875 
Q 17.046875 58.203125 15.890625 56.03125 
Q 14.75 53.859375 14.40625 50.984375 
L 5.421875 51.8125 
Q 5.859375 55.515625 7.46875 58.78125 
Q 9.078125 62.0625 11.90625 64.53125 
Q 14.75 67 18.71875 68.40625 
Q 22.703125 69.828125 27.9375 69.828125 
Q 33.0625 69.828125 37.0625 68.609375 
Q 41.0625 67.390625 43.8125 64.984375 
Q 46.578125 62.59375 48.046875 59.078125 
Q 49.515625 55.5625 49.515625 50.984375 
Q 49.515625 47.515625 48.265625 44.390625 
Q 47.015625 41.265625 44.9375 38.421875 
Q 42.875 35.59375 40.140625 32.953125 
Q 37.40625 30.328125 34.421875 27.8125 
Q 31.453125 25.296875 28.421875 22.828125 
Q 25.390625 20.359375 22.71875 17.859375 
Q 20.0625 15.375 17.96875 12.8125 
Q 15.875 10.25 14.703125 7.46875 
L 50.59375 7.46875 
L 50.59375 0 
z
" id="LiberationSans-32"/>
      </defs>
      <g style="fill:#262626;" transform="translate(204.138008 238.886875)scale(0.1 -0.1)">
       <use xlink:href="#LiberationSans-32"/>
       <use x="55.615234" xlink:href="#LiberationSans-30"/>
      </g>
     </g>
    </g>
    <g id="xtick_6">
     <g id="line2d_11">
      <path clip-path="url(#p9bb2d39ba8)" d="M 250.281635 224.64 
L 250.281635 7.2 
" style="fill:none;stroke:#ffffff;stroke-linecap:round;"/>
     </g>
     <g id="line2d_12"/>
     <g id="text_6">
      <!-- 25 -->
      <g style="fill:#262626;" transform="translate(244.720698 238.886875)scale(0.1 -0.1)">
       <use xlink:href="#LiberationSans-32"/>
       <use x="55.615234" xlink:href="#LiberationSans-35"/>
      </g>
     </g>
    </g>
    <g id="xtick_7">
     <g id="line2d_13">
      <path clip-path="url(#p9bb2d39ba8)" d="M 290.864325 224.64 
L 290.864325 7.2 
" style="fill:none;stroke:#ffffff;stroke-linecap:round;"/>
     </g>
     <g id="line2d_14"/>
     <g id="text_7">
      <!-- 30 -->
      <defs>
       <path d="M 51.21875 19 
Q 51.21875 14.265625 49.671875 10.546875 
Q 48.140625 6.84375 45.1875 4.265625 
Q 42.234375 1.703125 37.859375 0.359375 
Q 33.5 -0.984375 27.875 -0.984375 
Q 21.484375 -0.984375 17.109375 0.609375 
Q 12.75 2.203125 9.90625 4.8125 
Q 7.078125 7.421875 5.65625 10.765625 
Q 4.25 14.109375 3.8125 17.671875 
L 12.890625 18.5 
Q 13.28125 15.765625 14.328125 13.515625 
Q 15.375 11.28125 17.1875 9.671875 
Q 19 8.0625 21.625 7.171875 
Q 24.265625 6.296875 27.875 6.296875 
Q 34.515625 6.296875 38.296875 9.5625 
Q 42.09375 12.84375 42.09375 19.28125 
Q 42.09375 23.09375 40.40625 25.40625 
Q 38.71875 27.734375 36.203125 29.03125 
Q 33.6875 30.328125 30.734375 30.765625 
Q 27.78125 31.203125 25.296875 31.203125 
L 20.3125 31.203125 
L 20.3125 38.8125 
L 25.09375 38.8125 
Q 27.59375 38.8125 30.265625 39.328125 
Q 32.953125 39.84375 35.171875 41.1875 
Q 37.40625 42.53125 38.84375 44.828125 
Q 40.28125 47.125 40.28125 50.6875 
Q 40.28125 56.203125 37.03125 59.390625 
Q 33.796875 62.59375 27.390625 62.59375 
Q 21.578125 62.59375 17.984375 59.609375 
Q 14.40625 56.640625 13.8125 51.21875 
L 4.984375 51.90625 
Q 5.515625 56.453125 7.46875 59.8125 
Q 9.421875 63.1875 12.421875 65.40625 
Q 15.4375 67.625 19.28125 68.71875 
Q 23.140625 69.828125 27.484375 69.828125 
Q 33.25 69.828125 37.390625 68.375 
Q 41.546875 66.9375 44.1875 64.46875 
Q 46.828125 62.015625 48.0625 58.6875 
Q 49.3125 55.375 49.3125 51.609375 
Q 49.3125 48.578125 48.484375 45.9375 
Q 47.65625 43.3125 45.890625 41.203125 
Q 44.140625 39.109375 41.421875 37.59375 
Q 38.71875 36.078125 34.90625 35.296875 
L 34.90625 35.109375 
Q 39.0625 34.671875 42.140625 33.21875 
Q 45.21875 31.78125 47.21875 29.625 
Q 49.21875 27.484375 50.21875 24.75 
Q 51.21875 22.015625 51.21875 19 
z
" id="LiberationSans-33"/>
      </defs>
      <g style="fill:#262626;" transform="translate(285.303387 238.886875)scale(0.1 -0.1)">
       <use xlink:href="#LiberationSans-33"/>
       <use x="55.615234" xlink:href="#LiberationSans-30"/>
      </g>
     </g>
    </g>
    <g id="xtick_8">
     <g id="line2d_15">
      <path clip-path="url(#p9bb2d39ba8)" d="M 331.447015 224.64 
L 331.447015 7.2 
" style="fill:none;stroke:#ffffff;stroke-linecap:round;"/>
     </g>
     <g id="line2d_16"/>
     <g id="text_8">
      <!-- 35 -->
      <g style="fill:#262626;" transform="translate(325.886077 238.886875)scale(0.1 -0.1)">
       <use xlink:href="#LiberationSans-33"/>
       <use x="55.615234" xlink:href="#LiberationSans-35"/>
      </g>
     </g>
    </g>
    <g id="text_9">
     <!-- f(t) -->
     <defs>
      <path d="M 17.625 46.4375 
L 17.625 0 
L 8.84375 0 
L 8.84375 46.4375 
L 1.421875 46.4375 
L 1.421875 52.828125 
L 8.84375 52.828125 
L 8.84375 58.796875 
Q 8.84375 61.671875 9.375 64.140625 
Q 9.90625 66.609375 11.34375 68.4375 
Q 12.796875 70.265625 15.28125 71.3125 
Q 17.78125 72.359375 21.734375 72.359375 
Q 23.296875 72.359375 24.96875 72.21875 
Q 26.65625 72.078125 27.9375 71.78125 
L 27.9375 65.09375 
Q 27.09375 65.234375 26 65.359375 
Q 24.90625 65.484375 24.03125 65.484375 
Q 22.078125 65.484375 20.828125 64.9375 
Q 19.578125 64.40625 18.875 63.40625 
Q 18.171875 62.40625 17.890625 60.9375 
Q 17.625 59.46875 17.625 57.5625 
L 17.625 52.828125 
L 27.9375 52.828125 
L 27.9375 46.4375 
z
" id="LiberationSans-66"/>
      <path d="M 6.203125 25.984375 
Q 6.203125 32.765625 7.21875 38.96875 
Q 8.25 45.171875 10.4375 50.875 
Q 12.640625 56.59375 16.0625 61.953125 
Q 19.484375 67.328125 24.21875 72.46875 
L 32.71875 72.46875 
Q 28.125 67.328125 24.78125 61.9375 
Q 21.4375 56.546875 19.28125 50.796875 
Q 17.140625 45.0625 16.09375 38.859375 
Q 15.046875 32.671875 15.046875 25.875 
Q 15.046875 19.09375 16.09375 12.890625 
Q 17.140625 6.6875 19.28125 0.921875 
Q 21.4375 -4.828125 24.78125 -10.203125 
Q 28.125 -15.578125 32.71875 -20.703125 
L 24.21875 -20.703125 
Q 19.484375 -15.578125 16.0625 -10.203125 
Q 12.640625 -4.828125 10.4375 0.875 
Q 8.25 6.59375 7.21875 12.765625 
Q 6.203125 18.953125 6.203125 25.78125 
z
" id="LiberationSans-28"/>
      <path d="M 27.046875 0.390625 
Q 25.046875 -0.140625 22.96875 -0.453125 
Q 20.90625 -0.78125 18.171875 -0.78125 
Q 7.625 -0.78125 7.625 11.1875 
L 7.625 46.4375 
L 1.515625 46.4375 
L 1.515625 52.828125 
L 7.953125 52.828125 
L 10.546875 64.65625 
L 16.40625 64.65625 
L 16.40625 52.828125 
L 26.171875 52.828125 
L 26.171875 46.4375 
L 16.40625 46.4375 
L 16.40625 13.09375 
Q 16.40625 9.28125 17.640625 7.734375 
Q 18.890625 6.203125 21.96875 6.203125 
Q 23.25 6.203125 24.4375 6.390625 
Q 25.640625 6.59375 27.046875 6.890625 
z
" id="LiberationSans-74"/>
      <path d="M 27.09375 25.78125 
Q 27.09375 18.953125 26.0625 12.765625 
Q 25.046875 6.59375 22.84375 0.875 
Q 20.65625 -4.828125 17.234375 -10.203125 
Q 13.8125 -15.578125 9.078125 -20.703125 
L 0.59375 -20.703125 
Q 5.171875 -15.578125 8.515625 -10.203125 
Q 11.859375 -4.828125 14 0.921875 
Q 16.15625 6.6875 17.203125 12.890625 
Q 18.265625 19.09375 18.265625 25.875 
Q 18.265625 32.671875 17.203125 38.859375 
Q 16.15625 45.0625 14 50.796875 
Q 11.859375 56.546875 8.515625 61.9375 
Q 5.171875 67.328125 0.59375 72.46875 
L 9.078125 72.46875 
Q 13.8125 67.328125 17.234375 61.953125 
Q 20.65625 56.59375 22.84375 50.875 
Q 25.046875 45.171875 26.0625 38.96875 
Q 27.09375 32.765625 27.09375 25.984375 
z
" id="LiberationSans-29"/>
     </defs>
     <g style="fill:#262626;" transform="translate(188.781406 252.933438)scale(0.11 -0.11)">
      <use xlink:href="#LiberationSans-66"/>
      <use x="27.783203" xlink:href="#LiberationSans-28"/>
      <use x="61.083984" xlink:href="#LiberationSans-74"/>
      <use x="88.867188" xlink:href="#LiberationSans-29"/>
     </g>
    </g>
   </g>
   <g id="matplotlib.axis_2">
    <g id="ytick_1">
     <g id="line2d_17">
      <path clip-path="url(#p9bb2d39ba8)" d="M 28.1 224.64 
L 362.9 224.64 
" style="fill:none;stroke:#ffffff;stroke-linecap:round;"/>
     </g>
     <g id="line2d_18"/>
     <g id="text_10">
      <!-- 0.0 -->
      <defs>
       <path d="M 9.125 0 
L 9.125 10.6875 
L 18.65625 10.6875 
L 18.65625 0 
z
" id="LiberationSans-2e"/>
      </defs>
      <g style="fill:#262626;" transform="translate(7.2 228.263438)scale(0.1 -0.1)">
       <use xlink:href="#LiberationSans-30"/>
       <use x="55.615234" xlink:href="#LiberationSans-2e"/>
       <use x="83.398438" xlink:href="#LiberationSans-30"/>
      </g>
     </g>
    </g>
    <g id="ytick_2">
     <g id="line2d_19">
      <path clip-path="url(#p9bb2d39ba8)" d="M 28.1 194.099025 
L 362.9 194.099025 
" style="fill:none;stroke:#ffffff;stroke-linecap:round;"/>
     </g>
     <g id="line2d_20"/>
     <g id="text_11">
      <!-- 0.2 -->
      <g style="fill:#262626;" transform="translate(7.2 197.722463)scale(0.1 -0.1)">
       <use xlink:href="#LiberationSans-30"/>
       <use x="55.615234" xlink:href="#LiberationSans-2e"/>
       <use x="83.398438" xlink:href="#LiberationSans-32"/>
      </g>
     </g>
    </g>
    <g id="ytick_3">
     <g id="line2d_21">
      <path clip-path="url(#p9bb2d39ba8)" d="M 28.1 163.55805 
L 362.9 163.55805 
" style="fill:none;stroke:#ffffff;stroke-linecap:round;"/>
     </g>
     <g id="line2d_22"/>
     <g id="text_12">
      <!-- 0.4 -->
      <defs>
       <path d="M 43.015625 15.578125 
L 43.015625 0 
L 34.71875 0 
L 34.71875 15.578125 
L 2.296875 15.578125 
L 2.296875 22.40625 
L 33.796875 68.796875 
L 43.015625 68.796875 
L 43.015625 22.515625 
L 52.6875 22.515625 
L 52.6875 15.578125 
z
M 34.71875 58.890625 
Q 34.625 58.640625 34.234375 57.9375 
Q 33.84375 57.234375 33.34375 56.34375 
Q 32.859375 55.46875 32.34375 54.5625 
Q 31.84375 53.65625 31.453125 53.078125 
L 13.8125 27.09375 
Q 13.578125 26.703125 13.109375 26.0625 
Q 12.640625 25.4375 12.15625 24.78125 
Q 11.671875 24.125 11.171875 23.484375 
Q 10.6875 22.859375 10.40625 22.515625 
L 34.71875 22.515625 
z
" id="LiberationSans-34"/>
      </defs>
      <g style="fill:#262626;" transform="translate(7.2 167.181488)scale(0.1 -0.1)">
       <use xlink:href="#LiberationSans-30"/>
       <use x="55.615234" xlink:href="#LiberationSans-2e"/>
       <use x="83.398438" xlink:href="#LiberationSans-34"/>
      </g>
     </g>
    </g>
    <g id="ytick_4">
     <g id="line2d_23">
      <path clip-path="url(#p9bb2d39ba8)" d="M 28.1 133.017076 
L 362.9 133.017076 
" style="fill:none;stroke:#ffffff;stroke-linecap:round;"/>
     </g>
     <g id="line2d_24"/>
     <g id="text_13">
      <!-- 0.6 -->
      <defs>
       <path d="M 51.21875 22.515625 
Q 51.21875 17.328125 49.78125 13 
Q 48.34375 8.6875 45.53125 5.578125 
Q 42.71875 2.484375 38.5625 0.75 
Q 34.421875 -0.984375 29 -0.984375 
Q 23 -0.984375 18.5 1.3125 
Q 14.015625 3.609375 11.03125 7.921875 
Q 8.0625 12.25 6.5625 18.53125 
Q 5.078125 24.8125 5.078125 32.8125 
Q 5.078125 42 6.765625 48.921875 
Q 8.453125 55.859375 11.625 60.5 
Q 14.796875 65.140625 19.359375 67.484375 
Q 23.921875 69.828125 29.6875 69.828125 
Q 33.203125 69.828125 36.28125 69.09375 
Q 39.359375 68.359375 41.875 66.71875 
Q 44.390625 65.09375 46.28125 62.40625 
Q 48.1875 59.71875 49.3125 55.8125 
L 40.921875 54.296875 
Q 39.546875 58.734375 36.546875 60.71875 
Q 33.546875 62.703125 29.59375 62.703125 
Q 25.984375 62.703125 23.046875 60.984375 
Q 20.125 59.28125 18.0625 55.875 
Q 16.015625 52.484375 14.90625 47.359375 
Q 13.8125 42.234375 13.8125 35.40625 
Q 16.21875 39.84375 20.5625 42.15625 
Q 24.90625 44.484375 30.515625 44.484375 
Q 35.203125 44.484375 39.015625 42.96875 
Q 42.828125 41.453125 45.53125 38.59375 
Q 48.25 35.75 49.734375 31.671875 
Q 51.21875 27.59375 51.21875 22.515625 
z
M 42.28125 22.125 
Q 42.28125 25.6875 41.40625 28.5625 
Q 40.53125 31.453125 38.765625 33.46875 
Q 37.015625 35.5 34.421875 36.59375 
Q 31.84375 37.703125 28.421875 37.703125 
Q 26.03125 37.703125 23.578125 36.984375 
Q 21.140625 36.28125 19.15625 34.6875 
Q 17.1875 33.109375 15.9375 30.515625 
Q 14.703125 27.9375 14.703125 24.21875 
Q 14.703125 20.40625 15.671875 17.109375 
Q 16.65625 13.8125 18.484375 11.375 
Q 20.3125 8.9375 22.890625 7.515625 
Q 25.484375 6.109375 28.71875 6.109375 
Q 31.890625 6.109375 34.40625 7.203125 
Q 36.921875 8.296875 38.671875 10.375 
Q 40.4375 12.453125 41.359375 15.421875 
Q 42.28125 18.40625 42.28125 22.125 
z
" id="LiberationSans-36"/>
      </defs>
      <g style="fill:#262626;" transform="translate(7.2 136.640513)scale(0.1 -0.1)">
       <use xlink:href="#LiberationSans-30"/>
       <use x="55.615234" xlink:href="#LiberationSans-2e"/>
       <use x="83.398438" xlink:href="#LiberationSans-36"/>
      </g>
     </g>
    </g>
    <g id="ytick_5">
     <g id="line2d_25">
      <path clip-path="url(#p9bb2d39ba8)" d="M 28.1 102.476101 
L 362.9 102.476101 
" style="fill:none;stroke:#ffffff;stroke-linecap:round;"/>
     </g>
     <g id="line2d_26"/>
     <g id="text_14">
      <!-- 0.8 -->
      <defs>
       <path d="M 51.265625 19.1875 
Q 51.265625 14.796875 49.875 11.109375 
Q 48.484375 7.421875 45.625 4.734375 
Q 42.78125 2.046875 38.328125 0.53125 
Q 33.890625 -0.984375 27.828125 -0.984375 
Q 21.78125 -0.984375 17.359375 0.53125 
Q 12.9375 2.046875 10.03125 4.703125 
Q 7.125 7.375 5.734375 11.0625 
Q 4.34375 14.75 4.34375 19.09375 
Q 4.34375 22.859375 5.484375 25.78125 
Q 6.640625 28.71875 8.5625 30.828125 
Q 10.5 32.953125 12.96875 34.25 
Q 15.4375 35.546875 18.0625 35.984375 
L 18.0625 36.1875 
Q 15.1875 36.859375 12.90625 38.375 
Q 10.640625 39.890625 9.09375 42.015625 
Q 7.5625 44.140625 6.75 46.71875 
Q 5.953125 49.3125 5.953125 52.203125 
Q 5.953125 55.8125 7.34375 59 
Q 8.734375 62.203125 11.46875 64.625 
Q 14.203125 67.046875 18.25 68.4375 
Q 22.3125 69.828125 27.640625 69.828125 
Q 33.25 69.828125 37.375 68.40625 
Q 41.5 67 44.203125 64.578125 
Q 46.921875 62.15625 48.234375 58.9375 
Q 49.5625 55.71875 49.5625 52.09375 
Q 49.5625 49.265625 48.75 46.671875 
Q 47.953125 44.09375 46.40625 41.96875 
Q 44.875 39.84375 42.59375 38.34375 
Q 40.328125 36.859375 37.359375 36.28125 
L 37.359375 36.078125 
Q 40.328125 35.59375 42.859375 34.296875 
Q 45.40625 33.015625 47.265625 30.890625 
Q 49.125 28.765625 50.1875 25.828125 
Q 51.265625 22.90625 51.265625 19.1875 
z
M 40.4375 51.609375 
Q 40.4375 54.203125 39.765625 56.34375 
Q 39.109375 58.5 37.59375 60.03125 
Q 36.078125 61.578125 33.640625 62.421875 
Q 31.203125 63.28125 27.640625 63.28125 
Q 24.171875 63.28125 21.78125 62.421875 
Q 19.390625 61.578125 17.84375 60.03125 
Q 16.3125 58.5 15.625 56.34375 
Q 14.9375 54.203125 14.9375 51.609375 
Q 14.9375 49.5625 15.46875 47.40625 
Q 16.015625 45.265625 17.421875 43.5 
Q 18.84375 41.75 21.328125 40.625 
Q 23.828125 39.5 27.734375 39.5 
Q 31.890625 39.5 34.40625 40.625 
Q 36.921875 41.75 38.25 43.5 
Q 39.59375 45.265625 40.015625 47.40625 
Q 40.4375 49.5625 40.4375 51.609375 
z
M 42.140625 20.015625 
Q 42.140625 22.515625 41.453125 24.828125 
Q 40.765625 27.15625 39.109375 28.9375 
Q 37.453125 30.71875 34.640625 31.8125 
Q 31.84375 32.90625 27.640625 32.90625 
Q 23.78125 32.90625 21.0625 31.8125 
Q 18.359375 30.71875 16.671875 28.90625 
Q 14.984375 27.09375 14.203125 24.71875 
Q 13.421875 22.359375 13.421875 19.828125 
Q 13.421875 16.65625 14.203125 14.03125 
Q 14.984375 11.421875 16.6875 9.546875 
Q 18.40625 7.671875 21.1875 6.640625 
Q 23.96875 5.609375 27.9375 5.609375 
Q 31.9375 5.609375 34.671875 6.640625 
Q 37.40625 7.671875 39.0625 9.546875 
Q 40.71875 11.421875 41.421875 14.078125 
Q 42.140625 16.75 42.140625 20.015625 
z
" id="LiberationSans-38"/>
      </defs>
      <g style="fill:#262626;" transform="translate(7.2 106.099538)scale(0.1 -0.1)">
       <use xlink:href="#LiberationSans-30"/>
       <use x="55.615234" xlink:href="#LiberationSans-2e"/>
       <use x="83.398438" xlink:href="#LiberationSans-38"/>
      </g>
     </g>
    </g>
    <g id="ytick_6">
     <g id="line2d_27">
      <path clip-path="url(#p9bb2d39ba8)" d="M 28.1 71.935126 
L 362.9 71.935126 
" style="fill:none;stroke:#ffffff;stroke-linecap:round;"/>
     </g>
     <g id="line2d_28"/>
     <g id="text_15">
      <!-- 1.0 -->
      <g style="fill:#262626;" transform="translate(7.2 75.558563)scale(0.1 -0.1)">
       <use xlink:href="#LiberationSans-31"/>
       <use x="55.615234" xlink:href="#LiberationSans-2e"/>
       <use x="83.398438" xlink:href="#LiberationSans-30"/>
      </g>
     </g>
    </g>
    <g id="ytick_7">
     <g id="line2d_29">
      <path clip-path="url(#p9bb2d39ba8)" d="M 28.1 41.394151 
L 362.9 41.394151 
" style="fill:none;stroke:#ffffff;stroke-linecap:round;"/>
     </g>
     <g id="line2d_30"/>
     <g id="text_16">
      <!-- 1.2 -->
      <g style="fill:#262626;" transform="translate(7.2 45.017589)scale(0.1 -0.1)">
       <use xlink:href="#LiberationSans-31"/>
       <use x="55.615234" xlink:href="#LiberationSans-2e"/>
       <use x="83.398438" xlink:href="#LiberationSans-32"/>
      </g>
     </g>
    </g>
    <g id="ytick_8">
     <g id="line2d_31">
      <path clip-path="url(#p9bb2d39ba8)" d="M 28.1 10.853176 
L 362.9 10.853176 
" style="fill:none;stroke:#ffffff;stroke-linecap:round;"/>
     </g>
     <g id="line2d_32"/>
     <g id="text_17">
      <!-- 1.4 -->
      <g style="fill:#262626;" transform="translate(7.2 14.476614)scale(0.1 -0.1)">
       <use xlink:href="#LiberationSans-31"/>
       <use x="55.615234" xlink:href="#LiberationSans-2e"/>
       <use x="83.398438" xlink:href="#LiberationSans-34"/>
      </g>
     </g>
    </g>
   </g>
   <g id="patch_3">
    <path clip-path="url(#p9bb2d39ba8)" d="M 47.48904 224.64 
L 51.225549 224.64 
L 51.225549 218.194888 
L 47.48904 218.194888 
z
" style="fill:#4c72b0;opacity:0.4;"/>
   </g>
   <g id="patch_4">
    <path clip-path="url(#p9bb2d39ba8)" d="M 51.225549 224.64 
L 54.962058 224.64 
L 54.962058 208.236974 
L 51.225549 208.236974 
z
" style="fill:#4c72b0;opacity:0.4;"/>
   </g>
   <g id="patch_5">
    <path clip-path="url(#p9bb2d39ba8)" d="M 54.962058 224.64 
L 58.698567 224.64 
L 58.698567 197.609007 
L 54.962058 197.609007 
z
" style="fill:#4c72b0;opacity:0.4;"/>
   </g>
   <g id="patch_6">
    <path clip-path="url(#p9bb2d39ba8)" d="M 58.698567 224.64 
L 62.435076 224.64 
L 62.435076 188.443878 
L 58.698567 188.443878 
z
" style="fill:#4c72b0;opacity:0.4;"/>
   </g>
   <g id="patch_7">
    <path clip-path="url(#p9bb2d39ba8)" d="M 62.435076 224.64 
L 66.171585 224.64 
L 66.171585 175.583507 
L 62.435076 175.583507 
z
" style="fill:#4c72b0;opacity:0.4;"/>
   </g>
   <g id="patch_8">
    <path clip-path="url(#p9bb2d39ba8)" d="M 66.171585 224.64 
L 69.908094 224.64 
L 69.908094 183.173017 
L 66.171585 183.173017 
z
" style="fill:#4c72b0;opacity:0.4;"/>
   </g>
   <g id="patch_9">
    <path clip-path="url(#p9bb2d39ba8)" d="M 69.908094 224.64 
L 73.644603 224.64 
L 73.644603 192.338146 
L 69.908094 192.338146 
z
" style="fill:#4c72b0;opacity:0.4;"/>
   </g>
   <g id="patch_10">
    <path clip-path="url(#p9bb2d39ba8)" d="M 73.644603 224.64 
L 77.381112 224.64 
L 77.381112 199.456628 
L 73.644603 199.456628 
z
" style="fill:#4c72b0;opacity:0.4;"/>
   </g>
   <g id="patch_11">
    <path clip-path="url(#p9bb2d39ba8)" d="M 77.381112 224.64 
L 81.117621 224.64 
L 81.117621 201.970984 
L 77.381112 201.970984 
z
" style="fill:#4c72b0;opacity:0.4;"/>
   </g>
   <g id="patch_12">
    <path clip-path="url(#p9bb2d39ba8)" d="M 81.117621 224.64 
L 84.85413 224.64 
L 84.85413 210.804404 
L 81.117621 210.804404 
z
" style="fill:#4c72b0;opacity:0.4;"/>
   </g>
   <g id="patch_13">
    <path clip-path="url(#p9bb2d39ba8)" d="M 84.85413 224.64 
L 88.590639 224.64 
L 88.590639 213.013588 
L 84.85413 213.013588 
z
" style="fill:#4c72b0;opacity:0.4;"/>
   </g>
   <g id="patch_14">
    <path clip-path="url(#p9bb2d39ba8)" d="M 88.590639 224.64 
L 92.327148 224.64 
L 92.327148 215.474871 
L 88.590639 215.474871 
z
" style="fill:#4c72b0;opacity:0.4;"/>
   </g>
   <g id="patch_15">
    <path clip-path="url(#p9bb2d39ba8)" d="M 92.327148 224.64 
L 96.063657 224.64 
L 96.063657 216.864733 
L 92.327148 216.864733 
z
" style="fill:#4c72b0;opacity:0.4;"/>
   </g>
   <g id="patch_16">
    <path clip-path="url(#p9bb2d39ba8)" d="M 96.063657 224.64 
L 99.800166 224.64 
L 99.800166 218.437036 
L 96.063657 218.437036 
z
" style="fill:#4c72b0;opacity:0.4;"/>
   </g>
   <g id="patch_17">
    <path clip-path="url(#p9bb2d39ba8)" d="M 99.800166 224.64 
L 103.536675 224.64 
L 103.536675 219.511774 
L 99.800166 219.511774 
z
" style="fill:#4c72b0;opacity:0.4;"/>
   </g>
   <g id="patch_18">
    <path clip-path="url(#p9bb2d39ba8)" d="M 103.536675 224.64 
L 107.273184 224.64 
L 107.273184 220.676074 
L 103.536675 220.676074 
z
" style="fill:#4c72b0;opacity:0.4;"/>
   </g>
   <g id="patch_19">
    <path clip-path="url(#p9bb2d39ba8)" d="M 107.273184 224.64 
L 111.009693 224.64 
L 111.009693 221.173638 
L 107.273184 221.173638 
z
" style="fill:#4c72b0;opacity:0.4;"/>
   </g>
   <g id="patch_20">
    <path clip-path="url(#p9bb2d39ba8)" d="M 111.009693 224.64 
L 114.746202 224.64 
L 114.746202 222.115692 
L 111.009693 222.115692 
z
" style="fill:#4c72b0;opacity:0.4;"/>
   </g>
   <g id="patch_21">
    <path clip-path="url(#p9bb2d39ba8)" d="M 114.746202 224.64 
L 118.482711 224.64 
L 118.482711 222.400962 
L 114.746202 222.400962 
z
" style="fill:#4c72b0;opacity:0.4;"/>
   </g>
   <g id="patch_22">
    <path clip-path="url(#p9bb2d39ba8)" d="M 118.482711 224.64 
L 122.21922 224.64 
L 122.21922 222.881941 
L 118.482711 222.881941 
z
" style="fill:#4c72b0;opacity:0.4;"/>
   </g>
   <g id="patch_23">
    <path clip-path="url(#p9bb2d39ba8)" d="M 122.21922 224.64 
L 125.955729 224.64 
L 125.955729 223.167211 
L 122.21922 223.167211 
z
" style="fill:#4c72b0;opacity:0.4;"/>
   </g>
   <g id="patch_24">
    <path clip-path="url(#p9bb2d39ba8)" d="M 125.955729 224.64 
L 129.692238 224.64 
L 129.692238 223.485652 
L 125.955729 223.485652 
z
" style="fill:#4c72b0;opacity:0.4;"/>
   </g>
   <g id="patch_25">
    <path clip-path="url(#p9bb2d39ba8)" d="M 129.692238 224.64 
L 133.428747 224.64 
L 133.428747 223.827312 
L 129.692238 223.827312 
z
" style="fill:#4c72b0;opacity:0.4;"/>
   </g>
   <g id="patch_26">
    <path clip-path="url(#p9bb2d39ba8)" d="M 133.428747 224.64 
L 137.165256 224.64 
L 137.165256 223.820678 
L 133.428747 223.820678 
z
" style="fill:#4c72b0;opacity:0.4;"/>
   </g>
   <g id="patch_27">
    <path clip-path="url(#p9bb2d39ba8)" d="M 137.165256 224.64 
L 140.901766 224.64 
L 140.901766 223.979898 
L 137.165256 223.979898 
z
" style="fill:#4c72b0;opacity:0.4;"/>
   </g>
   <g id="patch_28">
    <path clip-path="url(#p9bb2d39ba8)" d="M 140.901766 224.64 
L 144.638275 224.64 
L 144.638275 224.175607 
L 140.901766 224.175607 
z
" style="fill:#4c72b0;opacity:0.4;"/>
   </g>
   <g id="patch_29">
    <path clip-path="url(#p9bb2d39ba8)" d="M 144.638275 224.64 
L 148.374784 224.64 
L 148.374784 224.241949 
L 144.638275 224.241949 
z
" style="fill:#4c72b0;opacity:0.4;"/>
   </g>
   <g id="patch_30">
    <path clip-path="url(#p9bb2d39ba8)" d="M 148.374784 224.64 
L 152.111293 224.64 
L 152.111293 224.358047 
L 148.374784 224.358047 
z
" style="fill:#4c72b0;opacity:0.4;"/>
   </g>
   <g id="patch_31">
    <path clip-path="url(#p9bb2d39ba8)" d="M 152.111293 224.64 
L 155.847802 224.64 
L 155.847802 224.450926 
L 152.111293 224.450926 
z
" style="fill:#4c72b0;opacity:0.4;"/>
   </g>
   <g id="patch_32">
    <path clip-path="url(#p9bb2d39ba8)" d="M 155.847802 224.64 
L 159.584311 224.64 
L 159.584311 224.460877 
L 155.847802 224.460877 
z
" style="fill:#4c72b0;opacity:0.4;"/>
   </g>
   <g id="patch_33">
    <path clip-path="url(#p9bb2d39ba8)" d="M 159.584311 224.64 
L 163.32082 224.64 
L 163.32082 224.484097 
L 159.584311 224.484097 
z
" style="fill:#4c72b0;opacity:0.4;"/>
   </g>
   <g id="patch_34">
    <path clip-path="url(#p9bb2d39ba8)" d="M 163.32082 224.64 
L 167.057329 224.64 
L 167.057329 224.477462 
L 163.32082 224.477462 
z
" style="fill:#4c72b0;opacity:0.4;"/>
   </g>
   <g id="patch_35">
    <path clip-path="url(#p9bb2d39ba8)" d="M 167.057329 224.64 
L 170.793838 224.64 
L 170.793838 224.530536 
L 167.057329 224.530536 
z
" style="fill:#4c72b0;opacity:0.4;"/>
   </g>
   <g id="patch_36">
    <path clip-path="url(#p9bb2d39ba8)" d="M 170.793838 224.64 
L 174.530347 224.64 
L 174.530347 224.547121 
L 170.793838 224.547121 
z
" style="fill:#4c72b0;opacity:0.4;"/>
   </g>
   <g id="patch_37">
    <path clip-path="url(#p9bb2d39ba8)" d="M 174.530347 224.64 
L 178.266856 224.64 
L 178.266856 224.586927 
L 174.530347 224.586927 
z
" style="fill:#4c72b0;opacity:0.4;"/>
   </g>
   <g id="patch_38">
    <path clip-path="url(#p9bb2d39ba8)" d="M 178.266856 224.64 
L 182.003365 224.64 
L 182.003365 224.583609 
L 178.266856 224.583609 
z
" style="fill:#4c72b0;opacity:0.4;"/>
   </g>
   <g id="patch_39">
    <path clip-path="url(#p9bb2d39ba8)" d="M 182.003365 224.64 
L 185.739874 224.64 
L 185.739874 224.613463 
L 182.003365 224.613463 
z
" style="fill:#4c72b0;opacity:0.4;"/>
   </g>
   <g id="patch_40">
    <path clip-path="url(#p9bb2d39ba8)" d="M 185.739874 224.64 
L 189.476383 224.64 
L 189.476383 224.600195 
L 185.739874 224.600195 
z
" style="fill:#4c72b0;opacity:0.4;"/>
   </g>
   <g id="patch_41">
    <path clip-path="url(#p9bb2d39ba8)" d="M 189.476383 224.64 
L 193.212892 224.64 
L 193.212892 224.620097 
L 189.476383 224.620097 
z
" style="fill:#4c72b0;opacity:0.4;"/>
   </g>
   <g id="patch_42">
    <path clip-path="url(#p9bb2d39ba8)" d="M 193.212892 224.64 
L 196.949401 224.64 
L 196.949401 224.606829 
L 193.212892 224.606829 
z
" style="fill:#4c72b0;opacity:0.4;"/>
   </g>
   <g id="patch_43">
    <path clip-path="url(#p9bb2d39ba8)" d="M 196.949401 224.64 
L 200.68591 224.64 
L 200.68591 224.61678 
L 196.949401 224.61678 
z
" style="fill:#4c72b0;opacity:0.4;"/>
   </g>
   <g id="patch_44">
    <path clip-path="url(#p9bb2d39ba8)" d="M 200.68591 224.64 
L 204.422419 224.64 
L 204.422419 224.630049 
L 200.68591 224.630049 
z
" style="fill:#4c72b0;opacity:0.4;"/>
   </g>
   <g id="patch_45">
    <path clip-path="url(#p9bb2d39ba8)" d="M 204.422419 224.64 
L 208.158928 224.64 
L 208.158928 224.633366 
L 204.422419 224.633366 
z
" style="fill:#4c72b0;opacity:0.4;"/>
   </g>
   <g id="patch_46">
    <path clip-path="url(#p9bb2d39ba8)" d="M 208.158928 224.64 
L 211.895437 224.64 
L 211.895437 224.633366 
L 208.158928 224.633366 
z
" style="fill:#4c72b0;opacity:0.4;"/>
   </g>
   <g id="patch_47">
    <path clip-path="url(#p9bb2d39ba8)" d="M 211.895437 224.64 
L 215.631946 224.64 
L 215.631946 224.623415 
L 211.895437 224.623415 
z
" style="fill:#4c72b0;opacity:0.4;"/>
   </g>
   <g id="patch_48">
    <path clip-path="url(#p9bb2d39ba8)" d="M 215.631946 224.64 
L 219.368455 224.64 
L 219.368455 224.636683 
L 215.631946 224.636683 
z
" style="fill:#4c72b0;opacity:0.4;"/>
   </g>
   <g id="patch_49">
    <path clip-path="url(#p9bb2d39ba8)" d="M 219.368455 224.64 
L 223.104964 224.64 
L 223.104964 224.623415 
L 219.368455 224.623415 
z
" style="fill:#4c72b0;opacity:0.4;"/>
   </g>
   <g id="patch_50">
    <path clip-path="url(#p9bb2d39ba8)" d="M 223.104964 224.64 
L 226.841473 224.64 
L 226.841473 224.64 
L 223.104964 224.64 
z
" style="fill:#4c72b0;opacity:0.4;"/>
   </g>
   <g id="patch_51">
    <path clip-path="url(#p9bb2d39ba8)" d="M 226.841473 224.64 
L 230.577982 224.64 
L 230.577982 224.64 
L 226.841473 224.64 
z
" style="fill:#4c72b0;opacity:0.4;"/>
   </g>
   <g id="patch_52">
    <path clip-path="url(#p9bb2d39ba8)" d="M 230.577982 224.64 
L 234.314491 224.64 
L 234.314491 224.633366 
L 230.577982 224.633366 
z
" style="fill:#4c72b0;opacity:0.4;"/>
   </g>
   <g id="patch_53">
    <path clip-path="url(#p9bb2d39ba8)" d="M 47.368187 224.64 
L 53.337672 224.64 
L 53.337672 106.244039 
L 47.368187 106.244039 
z
" style="fill:#55a868;opacity:0.4;"/>
   </g>
   <g id="patch_54">
    <path clip-path="url(#p9bb2d39ba8)" d="M 53.337672 224.64 
L 59.307158 224.64 
L 59.307158 179.738275 
L 53.337672 179.738275 
z
" style="fill:#55a868;opacity:0.4;"/>
   </g>
   <g id="patch_55">
    <path clip-path="url(#p9bb2d39ba8)" d="M 59.307158 224.64 
L 65.276643 224.64 
L 65.276643 212.404457 
L 59.307158 212.404457 
z
" style="fill:#55a868;opacity:0.4;"/>
   </g>
   <g id="patch_56">
    <path clip-path="url(#p9bb2d39ba8)" d="M 65.276643 224.64 
L 71.246129 224.64 
L 71.246129 218.797336 
L 65.276643 218.797336 
z
" style="fill:#55a868;opacity:0.4;"/>
   </g>
   <g id="patch_57">
    <path clip-path="url(#p9bb2d39ba8)" d="M 71.246129 224.64 
L 77.215614 224.64 
L 77.215614 220.119929 
L 71.246129 220.119929 
z
" style="fill:#55a868;opacity:0.4;"/>
   </g>
   <g id="patch_58">
    <path clip-path="url(#p9bb2d39ba8)" d="M 77.215614 224.64 
L 83.1851 224.64 
L 83.1851 220.931756 
L 77.215614 220.931756 
z
" style="fill:#55a868;opacity:0.4;"/>
   </g>
   <g id="patch_59">
    <path clip-path="url(#p9bb2d39ba8)" d="M 83.1851 224.64 
L 89.154585 224.64 
L 89.154585 221.67299 
L 83.1851 221.67299 
z
" style="fill:#55a868;opacity:0.4;"/>
   </g>
   <g id="patch_60">
    <path clip-path="url(#p9bb2d39ba8)" d="M 89.154585 224.64 
L 95.124071 224.64 
L 95.124071 222.098628 
L 89.154585 222.098628 
z
" style="fill:#55a868;opacity:0.4;"/>
   </g>
   <g id="patch_61">
    <path clip-path="url(#p9bb2d39ba8)" d="M 95.124071 224.64 
L 101.093556 224.64 
L 101.093556 222.426681 
L 95.124071 222.426681 
z
" style="fill:#55a868;opacity:0.4;"/>
   </g>
   <g id="patch_62">
    <path clip-path="url(#p9bb2d39ba8)" d="M 101.093556 224.64 
L 107.063042 224.64 
L 107.063042 222.941599 
L 101.093556 222.941599 
z
" style="fill:#55a868;opacity:0.4;"/>
   </g>
   <g id="patch_63">
    <path clip-path="url(#p9bb2d39ba8)" d="M 107.063042 224.64 
L 113.032527 224.64 
L 113.032527 223.188677 
L 107.063042 223.188677 
z
" style="fill:#55a868;opacity:0.4;"/>
   </g>
   <g id="patch_64">
    <path clip-path="url(#p9bb2d39ba8)" d="M 113.032527 224.64 
L 119.002012 224.64 
L 119.002012 223.394229 
L 113.032527 223.394229 
z
" style="fill:#55a868;opacity:0.4;"/>
   </g>
   <g id="patch_65">
    <path clip-path="url(#p9bb2d39ba8)" d="M 119.002012 224.64 
L 124.971498 224.64 
L 124.971498 223.620544 
L 119.002012 223.620544 
z
" style="fill:#55a868;opacity:0.4;"/>
   </g>
   <g id="patch_66">
    <path clip-path="url(#p9bb2d39ba8)" d="M 124.971498 224.64 
L 130.940983 224.64 
L 130.940983 223.819868 
L 124.971498 223.819868 
z
" style="fill:#55a868;opacity:0.4;"/>
   </g>
   <g id="patch_67">
    <path clip-path="url(#p9bb2d39ba8)" d="M 130.940983 224.64 
L 136.910469 224.64 
L 136.910469 223.846859 
L 130.940983 223.846859 
z
" style="fill:#55a868;opacity:0.4;"/>
   </g>
   <g id="patch_68">
    <path clip-path="url(#p9bb2d39ba8)" d="M 136.910469 224.64 
L 142.879954 224.64 
L 142.879954 224.120929 
L 136.910469 224.120929 
z
" style="fill:#55a868;opacity:0.4;"/>
   </g>
   <g id="patch_69">
    <path clip-path="url(#p9bb2d39ba8)" d="M 142.879954 224.64 
L 148.84944 224.64 
L 148.84944 224.166607 
L 142.879954 224.166607 
z
" style="fill:#55a868;opacity:0.4;"/>
   </g>
   <g id="patch_70">
    <path clip-path="url(#p9bb2d39ba8)" d="M 148.84944 224.64 
L 154.818925 224.64 
L 154.818925 224.26004 
L 148.84944 224.26004 
z
" style="fill:#55a868;opacity:0.4;"/>
   </g>
   <g id="patch_71">
    <path clip-path="url(#p9bb2d39ba8)" d="M 154.818925 224.64 
L 160.788411 224.64 
L 160.788411 224.328557 
L 154.818925 224.328557 
z
" style="fill:#55a868;opacity:0.4;"/>
   </g>
   <g id="patch_72">
    <path clip-path="url(#p9bb2d39ba8)" d="M 160.788411 224.64 
L 166.757896 224.64 
L 166.757896 224.334786 
L 160.788411 224.334786 
z
" style="fill:#55a868;opacity:0.4;"/>
   </g>
   <g id="patch_73">
    <path clip-path="url(#p9bb2d39ba8)" d="M 166.757896 224.64 
L 172.727381 224.64 
L 172.727381 224.397075 
L 166.757896 224.397075 
z
" style="fill:#55a868;opacity:0.4;"/>
   </g>
   <g id="patch_74">
    <path clip-path="url(#p9bb2d39ba8)" d="M 172.727381 224.64 
L 178.696867 224.64 
L 178.696867 224.463516 
L 172.727381 224.463516 
z
" style="fill:#55a868;opacity:0.4;"/>
   </g>
   <g id="patch_75">
    <path clip-path="url(#p9bb2d39ba8)" d="M 178.696867 224.64 
L 184.666352 224.64 
L 184.666352 224.492584 
L 178.696867 224.492584 
z
" style="fill:#55a868;opacity:0.4;"/>
   </g>
   <g id="patch_76">
    <path clip-path="url(#p9bb2d39ba8)" d="M 184.666352 224.64 
L 190.635838 224.64 
L 190.635838 224.519576 
L 184.666352 224.519576 
z
" style="fill:#55a868;opacity:0.4;"/>
   </g>
   <g id="patch_77">
    <path clip-path="url(#p9bb2d39ba8)" d="M 190.635838 224.64 
L 196.605323 224.64 
L 196.605323 224.55072 
L 190.635838 224.55072 
z
" style="fill:#55a868;opacity:0.4;"/>
   </g>
   <g id="patch_78">
    <path clip-path="url(#p9bb2d39ba8)" d="M 196.605323 224.64 
L 202.574809 224.64 
L 202.574809 224.55072 
L 196.605323 224.55072 
z
" style="fill:#55a868;opacity:0.4;"/>
   </g>
   <g id="patch_79">
    <path clip-path="url(#p9bb2d39ba8)" d="M 202.574809 224.64 
L 208.544294 224.64 
L 208.544294 224.577711 
L 202.574809 224.577711 
z
" style="fill:#55a868;opacity:0.4;"/>
   </g>
   <g id="patch_80">
    <path clip-path="url(#p9bb2d39ba8)" d="M 208.544294 224.64 
L 214.51378 224.64 
L 214.51378 224.569406 
L 208.544294 224.569406 
z
" style="fill:#55a868;opacity:0.4;"/>
   </g>
   <g id="patch_81">
    <path clip-path="url(#p9bb2d39ba8)" d="M 214.51378 224.64 
L 220.483265 224.64 
L 220.483265 224.581864 
L 214.51378 224.581864 
z
" style="fill:#55a868;opacity:0.4;"/>
   </g>
   <g id="patch_82">
    <path clip-path="url(#p9bb2d39ba8)" d="M 220.483265 224.64 
L 226.452751 224.64 
L 226.452751 224.615085 
L 220.483265 224.615085 
z
" style="fill:#55a868;opacity:0.4;"/>
   </g>
   <g id="patch_83">
    <path clip-path="url(#p9bb2d39ba8)" d="M 226.452751 224.64 
L 232.422236 224.64 
L 232.422236 224.600551 
L 226.452751 224.600551 
z
" style="fill:#55a868;opacity:0.4;"/>
   </g>
   <g id="patch_84">
    <path clip-path="url(#p9bb2d39ba8)" d="M 232.422236 224.64 
L 238.391721 224.64 
L 238.391721 224.615085 
L 232.422236 224.615085 
z
" style="fill:#55a868;opacity:0.4;"/>
   </g>
   <g id="patch_85">
    <path clip-path="url(#p9bb2d39ba8)" d="M 238.391721 224.64 
L 244.361207 224.64 
L 244.361207 224.617161 
L 238.391721 224.617161 
z
" style="fill:#55a868;opacity:0.4;"/>
   </g>
   <g id="patch_86">
    <path clip-path="url(#p9bb2d39ba8)" d="M 244.361207 224.64 
L 250.330692 224.64 
L 250.330692 224.621313 
L 244.361207 224.621313 
z
" style="fill:#55a868;opacity:0.4;"/>
   </g>
   <g id="patch_87">
    <path clip-path="url(#p9bb2d39ba8)" d="M 250.330692 224.64 
L 256.300178 224.64 
L 256.300178 224.62339 
L 250.330692 224.62339 
z
" style="fill:#55a868;opacity:0.4;"/>
   </g>
   <g id="patch_88">
    <path clip-path="url(#p9bb2d39ba8)" d="M 256.300178 224.64 
L 262.269663 224.64 
L 262.269663 224.625466 
L 256.300178 224.625466 
z
" style="fill:#55a868;opacity:0.4;"/>
   </g>
   <g id="patch_89">
    <path clip-path="url(#p9bb2d39ba8)" d="M 262.269663 224.64 
L 268.239149 224.64 
L 268.239149 224.627542 
L 262.269663 224.627542 
z
" style="fill:#55a868;opacity:0.4;"/>
   </g>
   <g id="patch_90">
    <path clip-path="url(#p9bb2d39ba8)" d="M 268.239149 224.64 
L 274.208634 224.64 
L 274.208634 224.635847 
L 268.239149 224.635847 
z
" style="fill:#55a868;opacity:0.4;"/>
   </g>
   <g id="patch_91">
    <path clip-path="url(#p9bb2d39ba8)" d="M 274.208634 224.64 
L 280.17812 224.64 
L 280.17812 224.625466 
L 274.208634 224.625466 
z
" style="fill:#55a868;opacity:0.4;"/>
   </g>
   <g id="patch_92">
    <path clip-path="url(#p9bb2d39ba8)" d="M 280.17812 224.64 
L 286.147605 224.64 
L 286.147605 224.637924 
L 280.17812 224.637924 
z
" style="fill:#55a868;opacity:0.4;"/>
   </g>
   <g id="patch_93">
    <path clip-path="url(#p9bb2d39ba8)" d="M 286.147605 224.64 
L 292.117091 224.64 
L 292.117091 224.633771 
L 286.147605 224.633771 
z
" style="fill:#55a868;opacity:0.4;"/>
   </g>
   <g id="patch_94">
    <path clip-path="url(#p9bb2d39ba8)" d="M 292.117091 224.64 
L 298.086576 224.64 
L 298.086576 224.635847 
L 292.117091 224.635847 
z
" style="fill:#55a868;opacity:0.4;"/>
   </g>
   <g id="patch_95">
    <path clip-path="url(#p9bb2d39ba8)" d="M 298.086576 224.64 
L 304.056061 224.64 
L 304.056061 224.635847 
L 298.086576 224.635847 
z
" style="fill:#55a868;opacity:0.4;"/>
   </g>
   <g id="patch_96">
    <path clip-path="url(#p9bb2d39ba8)" d="M 304.056061 224.64 
L 310.025547 224.64 
L 310.025547 224.633771 
L 304.056061 224.633771 
z
" style="fill:#55a868;opacity:0.4;"/>
   </g>
   <g id="patch_97">
    <path clip-path="url(#p9bb2d39ba8)" d="M 310.025547 224.64 
L 315.995032 224.64 
L 315.995032 224.637924 
L 310.025547 224.637924 
z
" style="fill:#55a868;opacity:0.4;"/>
   </g>
   <g id="patch_98">
    <path clip-path="url(#p9bb2d39ba8)" d="M 315.995032 224.64 
L 321.964518 224.64 
L 321.964518 224.637924 
L 315.995032 224.637924 
z
" style="fill:#55a868;opacity:0.4;"/>
   </g>
   <g id="patch_99">
    <path clip-path="url(#p9bb2d39ba8)" d="M 321.964518 224.64 
L 327.934003 224.64 
L 327.934003 224.633771 
L 321.964518 224.633771 
z
" style="fill:#55a868;opacity:0.4;"/>
   </g>
   <g id="patch_100">
    <path clip-path="url(#p9bb2d39ba8)" d="M 327.934003 224.64 
L 333.903489 224.64 
L 333.903489 224.64 
L 327.934003 224.64 
z
" style="fill:#55a868;opacity:0.4;"/>
   </g>
   <g id="patch_101">
    <path clip-path="url(#p9bb2d39ba8)" d="M 333.903489 224.64 
L 339.872974 224.64 
L 339.872974 224.64 
L 333.903489 224.64 
z
" style="fill:#55a868;opacity:0.4;"/>
   </g>
   <g id="patch_102">
    <path clip-path="url(#p9bb2d39ba8)" d="M 339.872974 224.64 
L 345.84246 224.64 
L 345.84246 224.637924 
L 339.872974 224.637924 
z
" style="fill:#55a868;opacity:0.4;"/>
   </g>
   <g id="patch_103">
    <path clip-path="url(#p9bb2d39ba8)" d="M 47.368187 224.64 
L 50.657315 224.64 
L 50.657315 17.554286 
L 47.368187 17.554286 
z
" style="fill:#c44e52;opacity:0.4;"/>
   </g>
   <g id="patch_104">
    <path clip-path="url(#p9bb2d39ba8)" d="M 50.657315 224.64 
L 53.946443 224.64 
L 53.946443 175.31701 
L 50.657315 175.31701 
z
" style="fill:#c44e52;opacity:0.4;"/>
   </g>
   <g id="patch_105">
    <path clip-path="url(#p9bb2d39ba8)" d="M 53.946443 224.64 
L 57.235571 224.64 
L 57.235571 199.283258 
L 53.946443 199.283258 
z
" style="fill:#c44e52;opacity:0.4;"/>
   </g>
   <g id="patch_106">
    <path clip-path="url(#p9bb2d39ba8)" d="M 57.235571 224.64 
L 60.5247 224.64 
L 60.5247 207.290848 
L 57.235571 207.290848 
z
" style="fill:#c44e52;opacity:0.4;"/>
   </g>
   <g id="patch_107">
    <path clip-path="url(#p9bb2d39ba8)" d="M 60.5247 224.64 
L 63.813828 224.64 
L 63.813828 210.230105 
L 60.5247 210.230105 
z
" style="fill:#c44e52;opacity:0.4;"/>
   </g>
   <g id="patch_108">
    <path clip-path="url(#p9bb2d39ba8)" d="M 63.813828 224.64 
L 67.102956 224.64 
L 67.102956 212.882973 
L 63.813828 212.882973 
z
" style="fill:#c44e52;opacity:0.4;"/>
   </g>
   <g id="patch_109">
    <path clip-path="url(#p9bb2d39ba8)" d="M 67.102956 224.64 
L 70.392084 224.64 
L 70.392084 215.324817 
L 67.102956 215.324817 
z
" style="fill:#c44e52;opacity:0.4;"/>
   </g>
   <g id="patch_110">
    <path clip-path="url(#p9bb2d39ba8)" d="M 70.392084 224.64 
L 73.681212 224.64 
L 73.681212 216.994164 
L 70.392084 216.994164 
z
" style="fill:#c44e52;opacity:0.4;"/>
   </g>
   <g id="patch_111">
    <path clip-path="url(#p9bb2d39ba8)" d="M 73.681212 224.64 
L 76.97034 224.64 
L 76.97034 218.414805 
L 73.681212 218.414805 
z
" style="fill:#c44e52;opacity:0.4;"/>
   </g>
   <g id="patch_112">
    <path clip-path="url(#p9bb2d39ba8)" d="M 76.97034 224.64 
L 80.259468 224.64 
L 80.259468 219.371947 
L 76.97034 219.371947 
z
" style="fill:#c44e52;opacity:0.4;"/>
   </g>
   <g id="patch_113">
    <path clip-path="url(#p9bb2d39ba8)" d="M 80.259468 224.64 
L 83.548597 224.64 
L 83.548597 220.502431 
L 80.259468 220.502431 
z
" style="fill:#c44e52;opacity:0.4;"/>
   </g>
   <g id="patch_114">
    <path clip-path="url(#p9bb2d39ba8)" d="M 83.548597 224.64 
L 86.837725 224.64 
L 86.837725 221.165648 
L 83.548597 221.165648 
z
" style="fill:#c44e52;opacity:0.4;"/>
   </g>
   <g id="patch_115">
    <path clip-path="url(#p9bb2d39ba8)" d="M 86.837725 224.64 
L 90.126853 224.64 
L 90.126853 221.791182 
L 86.837725 221.791182 
z
" style="fill:#c44e52;opacity:0.4;"/>
   </g>
   <g id="patch_116">
    <path clip-path="url(#p9bb2d39ba8)" d="M 90.126853 224.64 
L 93.415981 224.64 
L 93.415981 222.499618 
L 90.126853 222.499618 
z
" style="fill:#c44e52;opacity:0.4;"/>
   </g>
   <g id="patch_117">
    <path clip-path="url(#p9bb2d39ba8)" d="M 93.415981 224.64 
L 96.705109 224.64 
L 96.705109 222.774702 
L 93.415981 222.774702 
z
" style="fill:#c44e52;opacity:0.4;"/>
   </g>
   <g id="patch_118">
    <path clip-path="url(#p9bb2d39ba8)" d="M 96.705109 224.64 
L 99.994237 224.64 
L 99.994237 223.177908 
L 96.705109 223.177908 
z
" style="fill:#c44e52;opacity:0.4;"/>
   </g>
   <g id="patch_119">
    <path clip-path="url(#p9bb2d39ba8)" d="M 99.994237 224.64 
L 103.283365 224.64 
L 103.283365 223.358785 
L 99.994237 223.358785 
z
" style="fill:#c44e52;opacity:0.4;"/>
   </g>
   <g id="patch_120">
    <path clip-path="url(#p9bb2d39ba8)" d="M 103.283365 224.64 
L 106.572494 224.64 
L 106.572494 223.599955 
L 103.283365 223.599955 
z
" style="fill:#c44e52;opacity:0.4;"/>
   </g>
   <g id="patch_121">
    <path clip-path="url(#p9bb2d39ba8)" d="M 106.572494 224.64 
L 109.861622 224.64 
L 109.861622 223.739382 
L 106.572494 223.739382 
z
" style="fill:#c44e52;opacity:0.4;"/>
   </g>
   <g id="patch_122">
    <path clip-path="url(#p9bb2d39ba8)" d="M 109.861622 224.64 
L 113.15075 224.64 
L 113.15075 223.912722 
L 109.861622 223.912722 
z
" style="fill:#c44e52;opacity:0.4;"/>
   </g>
   <g id="patch_123">
    <path clip-path="url(#p9bb2d39ba8)" d="M 113.15075 224.64 
L 116.439878 224.64 
L 116.439878 224.108673 
L 113.15075 224.108673 
z
" style="fill:#c44e52;opacity:0.4;"/>
   </g>
   <g id="patch_124">
    <path clip-path="url(#p9bb2d39ba8)" d="M 116.439878 224.64 
L 119.729006 224.64 
L 119.729006 224.168965 
L 116.439878 224.168965 
z
" style="fill:#c44e52;opacity:0.4;"/>
   </g>
   <g id="patch_125">
    <path clip-path="url(#p9bb2d39ba8)" d="M 119.729006 224.64 
L 123.018134 224.64 
L 123.018134 224.26694 
L 119.729006 224.26694 
z
" style="fill:#c44e52;opacity:0.4;"/>
   </g>
   <g id="patch_126">
    <path clip-path="url(#p9bb2d39ba8)" d="M 123.018134 224.64 
L 126.307262 224.64 
L 126.307262 224.304623 
L 123.018134 224.304623 
z
" style="fill:#c44e52;opacity:0.4;"/>
   </g>
   <g id="patch_127">
    <path clip-path="url(#p9bb2d39ba8)" d="M 126.307262 224.64 
L 129.596391 224.64 
L 129.596391 224.342306 
L 126.307262 224.342306 
z
" style="fill:#c44e52;opacity:0.4;"/>
   </g>
   <g id="patch_128">
    <path clip-path="url(#p9bb2d39ba8)" d="M 129.596391 224.64 
L 132.885519 224.64 
L 132.885519 224.42144 
L 129.596391 224.42144 
z
" style="fill:#c44e52;opacity:0.4;"/>
   </g>
   <g id="patch_129">
    <path clip-path="url(#p9bb2d39ba8)" d="M 132.885519 224.64 
L 136.174647 224.64 
L 136.174647 224.462891 
L 132.885519 224.462891 
z
" style="fill:#c44e52;opacity:0.4;"/>
   </g>
   <g id="patch_130">
    <path clip-path="url(#p9bb2d39ba8)" d="M 136.174647 224.64 
L 139.463775 224.64 
L 139.463775 224.500574 
L 136.174647 224.500574 
z
" style="fill:#c44e52;opacity:0.4;"/>
   </g>
   <g id="patch_131">
    <path clip-path="url(#p9bb2d39ba8)" d="M 139.463775 224.64 
L 142.752903 224.64 
L 142.752903 224.515647 
L 139.463775 224.515647 
z
" style="fill:#c44e52;opacity:0.4;"/>
   </g>
   <g id="patch_132">
    <path clip-path="url(#p9bb2d39ba8)" d="M 142.752903 224.64 
L 146.042031 224.64 
L 146.042031 224.557098 
L 142.752903 224.557098 
z
" style="fill:#c44e52;opacity:0.4;"/>
   </g>
   <g id="patch_133">
    <path clip-path="url(#p9bb2d39ba8)" d="M 146.042031 224.64 
L 149.331159 224.64 
L 149.331159 224.549561 
L 146.042031 224.549561 
z
" style="fill:#c44e52;opacity:0.4;"/>
   </g>
   <g id="patch_134">
    <path clip-path="url(#p9bb2d39ba8)" d="M 149.331159 224.64 
L 152.620288 224.64 
L 152.620288 224.583476 
L 149.331159 224.583476 
z
" style="fill:#c44e52;opacity:0.4;"/>
   </g>
   <g id="patch_135">
    <path clip-path="url(#p9bb2d39ba8)" d="M 152.620288 224.64 
L 155.909416 224.64 
L 155.909416 224.575939 
L 152.620288 224.575939 
z
" style="fill:#c44e52;opacity:0.4;"/>
   </g>
   <g id="patch_136">
    <path clip-path="url(#p9bb2d39ba8)" d="M 155.909416 224.64 
L 159.198544 224.64 
L 159.198544 224.568403 
L 155.909416 224.568403 
z
" style="fill:#c44e52;opacity:0.4;"/>
   </g>
   <g id="patch_137">
    <path clip-path="url(#p9bb2d39ba8)" d="M 159.198544 224.64 
L 162.487672 224.64 
L 162.487672 224.598549 
L 159.198544 224.598549 
z
" style="fill:#c44e52;opacity:0.4;"/>
   </g>
   <g id="patch_138">
    <path clip-path="url(#p9bb2d39ba8)" d="M 162.487672 224.64 
L 165.7768 224.64 
L 165.7768 224.621159 
L 162.487672 224.621159 
z
" style="fill:#c44e52;opacity:0.4;"/>
   </g>
   <g id="patch_139">
    <path clip-path="url(#p9bb2d39ba8)" d="M 165.7768 224.64 
L 169.065928 224.64 
L 169.065928 224.61739 
L 165.7768 224.61739 
z
" style="fill:#c44e52;opacity:0.4;"/>
   </g>
   <g id="patch_140">
    <path clip-path="url(#p9bb2d39ba8)" d="M 169.065928 224.64 
L 172.355056 224.64 
L 172.355056 224.621159 
L 169.065928 224.621159 
z
" style="fill:#c44e52;opacity:0.4;"/>
   </g>
   <g id="patch_141">
    <path clip-path="url(#p9bb2d39ba8)" d="M 172.355056 224.64 
L 175.644185 224.64 
L 175.644185 224.632463 
L 172.355056 224.632463 
z
" style="fill:#c44e52;opacity:0.4;"/>
   </g>
   <g id="patch_142">
    <path clip-path="url(#p9bb2d39ba8)" d="M 175.644185 224.64 
L 178.933313 224.64 
L 178.933313 224.621159 
L 175.644185 224.621159 
z
" style="fill:#c44e52;opacity:0.4;"/>
   </g>
   <g id="patch_143">
    <path clip-path="url(#p9bb2d39ba8)" d="M 178.933313 224.64 
L 182.222441 224.64 
L 182.222441 224.621159 
L 178.933313 224.621159 
z
" style="fill:#c44e52;opacity:0.4;"/>
   </g>
   <g id="patch_144">
    <path clip-path="url(#p9bb2d39ba8)" d="M 182.222441 224.64 
L 185.511569 224.64 
L 185.511569 224.636232 
L 182.222441 224.636232 
z
" style="fill:#c44e52;opacity:0.4;"/>
   </g>
   <g id="patch_145">
    <path clip-path="url(#p9bb2d39ba8)" d="M 185.511569 224.64 
L 188.800697 224.64 
L 188.800697 224.632463 
L 185.511569 224.632463 
z
" style="fill:#c44e52;opacity:0.4;"/>
   </g>
   <g id="patch_146">
    <path clip-path="url(#p9bb2d39ba8)" d="M 188.800697 224.64 
L 192.089825 224.64 
L 192.089825 224.628695 
L 188.800697 224.628695 
z
" style="fill:#c44e52;opacity:0.4;"/>
   </g>
   <g id="patch_147">
    <path clip-path="url(#p9bb2d39ba8)" d="M 192.089825 224.64 
L 195.378953 224.64 
L 195.378953 224.636232 
L 192.089825 224.636232 
z
" style="fill:#c44e52;opacity:0.4;"/>
   </g>
   <g id="patch_148">
    <path clip-path="url(#p9bb2d39ba8)" d="M 195.378953 224.64 
L 198.668082 224.64 
L 198.668082 224.636232 
L 195.378953 224.636232 
z
" style="fill:#c44e52;opacity:0.4;"/>
   </g>
   <g id="patch_149">
    <path clip-path="url(#p9bb2d39ba8)" d="M 198.668082 224.64 
L 201.95721 224.64 
L 201.95721 224.64 
L 198.668082 224.64 
z
" style="fill:#c44e52;opacity:0.4;"/>
   </g>
   <g id="patch_150">
    <path clip-path="url(#p9bb2d39ba8)" d="M 201.95721 224.64 
L 205.246338 224.64 
L 205.246338 224.64 
L 201.95721 224.64 
z
" style="fill:#c44e52;opacity:0.4;"/>
   </g>
   <g id="patch_151">
    <path clip-path="url(#p9bb2d39ba8)" d="M 205.246338 224.64 
L 208.535466 224.64 
L 208.535466 224.64 
L 205.246338 224.64 
z
" style="fill:#c44e52;opacity:0.4;"/>
   </g>
   <g id="patch_152">
    <path clip-path="url(#p9bb2d39ba8)" d="M 208.535466 224.64 
L 211.824594 224.64 
L 211.824594 224.636232 
L 208.535466 224.636232 
z
" style="fill:#c44e52;opacity:0.4;"/>
   </g>
   <g id="line2d_33">
    <path clip-path="url(#p9bb2d39ba8)" d="M 43.318182 224.636529 
L 44.854931 224.573671 
L 46.391681 223.97751 
L 47.92843 221.794651 
L 49.465179 217.823159 
L 51.001929 213.374421 
L 54.075427 205.878226 
L 55.612177 201.591405 
L 57.148926 196.58026 
L 58.685675 192.15657 
L 60.222425 189.073823 
L 61.759174 185.487125 
L 63.295923 179.627524 
L 64.832673 175.216014 
L 66.369422 177.666371 
L 67.906171 182.42479 
L 69.442921 186.710468 
L 70.97967 190.57488 
L 72.516419 193.970697 
L 74.053169 196.896452 
L 75.589918 199.481874 
L 77.126668 201.351905 
L 78.663417 201.911636 
L 80.200166 203.394278 
L 81.736916 207.960865 
L 83.273665 210.828474 
L 84.810414 211.956583 
L 87.883913 213.746187 
L 89.420662 214.75704 
L 90.957412 215.592553 
L 94.03091 216.902544 
L 97.104409 218.165485 
L 101.714657 219.503644 
L 104.788156 220.526068 
L 106.324905 220.891838 
L 110.935153 221.560911 
L 112.471903 221.981635 
L 115.545401 222.377858 
L 118.6189 222.614007 
L 121.692399 222.998431 
L 132.449644 223.848104 
L 138.596641 223.949212 
L 143.20689 224.170846 
L 146.280388 224.240932 
L 150.890636 224.378852 
L 160.111132 224.471837 
L 200.066615 224.627583 
L 238.485349 224.64 
L 238.485349 224.64 
" style="fill:none;stroke:#4c72b0;stroke-linecap:round;stroke-width:1.75;"/>
   </g>
   <g id="line2d_34">
    <path clip-path="url(#p9bb2d39ba8)" d="M 45.528828 221.495167 
L 47.907986 224.64 
L 50.287143 171.89843 
L 52.666301 131.478495 
L 55.045458 157.189388 
L 57.424615 206.308653 
L 59.803773 203.90588 
L 62.18293 213.928586 
L 64.562088 216.22863 
L 66.941245 219.061995 
L 69.320402 218.544494 
L 71.69956 220.13336 
L 74.078717 219.817063 
L 76.457875 220.752309 
L 78.837032 220.671711 
L 81.216189 221.157032 
L 83.595347 221.178566 
L 85.974504 221.872807 
L 88.353662 221.668416 
L 90.732819 222.110369 
L 93.111976 222.074956 
L 95.491134 222.413701 
L 97.870291 222.256198 
L 100.249449 222.76506 
L 102.628606 222.6946 
L 105.007763 223.132298 
L 107.386921 222.922706 
L 109.766078 223.270495 
L 112.145236 223.24495 
L 114.524393 223.473139 
L 116.90355 223.316941 
L 119.282708 223.570005 
L 128.799337 223.885274 
L 131.178495 223.755264 
L 133.557652 223.903366 
L 135.93681 223.875059 
L 140.695124 224.151718 
L 143.074282 224.202996 
L 145.453439 224.13841 
L 152.590911 224.296899 
L 154.970069 224.248596 
L 157.349226 224.346687 
L 164.486698 224.290309 
L 166.865856 224.423214 
L 169.245013 224.32313 
L 171.624171 224.47782 
L 174.003328 224.381735 
L 176.382485 224.527822 
L 178.761643 224.44313 
L 181.1408 224.54362 
L 183.519958 224.45087 
L 185.899115 224.556706 
L 188.278272 224.487656 
L 195.415745 224.58328 
L 200.174059 224.542691 
L 209.690689 224.582426 
L 216.828161 224.566431 
L 228.723948 224.614653 
L 235.86142 224.587289 
L 238.240578 224.64 
L 240.619735 224.577834 
L 242.998893 224.64 
L 245.37805 224.575702 
L 250.136365 224.602478 
L 257.273837 224.64 
L 264.411309 224.575688 
L 266.790467 224.64 
L 269.169624 224.583822 
L 273.927939 224.585286 
L 276.307096 224.64 
L 278.686254 224.575504 
L 281.065411 224.64 
L 283.444568 224.582407 
L 285.823726 224.64 
L 288.202883 224.565988 
L 290.582041 224.64 
L 292.961198 224.563066 
L 295.340355 224.64 
L 297.719513 224.553388 
L 300.09867 224.64 
L 302.477828 224.536924 
L 304.856985 224.64 
L 307.236142 224.524015 
L 309.6153 224.64 
L 311.994457 224.510657 
L 314.373615 224.64 
L 316.752772 224.486832 
L 319.131929 224.64 
L 321.511087 224.439847 
L 323.890244 224.64 
L 326.269402 224.387034 
L 328.648559 224.64 
L 331.027716 224.306306 
L 333.406874 224.64 
L 335.786031 224.164268 
L 338.165189 224.64 
L 340.544346 223.901534 
L 342.923503 224.64 
L 345.302661 223.318109 
L 347.681818 224.64 
L 347.681818 224.64 
" style="fill:none;stroke:#55a868;stroke-linecap:round;stroke-width:1.75;"/>
   </g>
   <g id="line2d_35">
    <path clip-path="url(#p9bb2d39ba8)" d="M 45.012415 224.55998 
L 46.344447 221.639118 
L 49.008509 164.875062 
L 50.34054 166.382493 
L 51.672571 171.530641 
L 53.004602 179.519525 
L 55.668664 200.788618 
L 57.000695 204.704815 
L 58.332726 206.836912 
L 59.664758 208.165367 
L 60.996789 208.92905 
L 62.32882 210.650243 
L 64.992882 212.693632 
L 66.324913 213.376086 
L 67.656944 214.708628 
L 71.653038 217.003574 
L 72.985069 217.202074 
L 74.3171 217.958731 
L 78.313193 219.426262 
L 79.645224 219.57719 
L 82.309286 220.715515 
L 84.973349 221.080841 
L 87.637411 221.77522 
L 88.969442 221.861826 
L 90.301473 222.116783 
L 91.633504 222.544236 
L 92.965535 222.489351 
L 94.297566 222.626053 
L 96.961628 223.114123 
L 103.621784 223.413623 
L 104.953815 223.673972 
L 110.28194 223.768424 
L 111.613971 223.960095 
L 116.942095 224.14618 
L 152.906935 224.573303 
L 196.863961 224.6356 
L 214.180366 224.64 
L 214.180366 224.64 
" style="fill:none;stroke:#c44e52;stroke-linecap:round;stroke-width:1.75;"/>
   </g>
   <g id="patch_153">
    <path d="M 28.1 224.64 
L 28.1 7.2 
" style="fill:none;"/>
   </g>
   <g id="patch_154">
    <path d="M 362.9 224.64 
L 362.9 7.2 
" style="fill:none;"/>
   </g>
   <g id="patch_155">
    <path d="M 28.1 224.64 
L 362.9 224.64 
" style="fill:none;"/>
   </g>
   <g id="patch_156">
    <path d="M 28.1 7.2 
L 362.9 7.2 
" style="fill:none;"/>
   </g>
  </g>
 </g>
 <defs>
  <clipPath id="p9bb2d39ba8">
   <rect height="217.44" width="334.8" x="28.1" y="7.2"/>
  </clipPath>
 </defs>
</svg>
