<?xml version="1.0" encoding="utf-8" standalone="no"?>
<!DOCTYPE svg PUBLIC "-//W3C//DTD SVG 1.1//EN"
  "http://www.w3.org/Graphics/SVG/1.1/DTD/svg11.dtd">
<!-- Created with matplotlib (http://matplotlib.org/) -->
<svg height="343pt" version="1.1" viewBox="0 0 498 343" width="498pt" xmlns="http://www.w3.org/2000/svg" xmlns:xlink="http://www.w3.org/1999/xlink">
 <defs>
  <style type="text/css">
*{stroke-linecap:butt;stroke-linejoin:round;}
  </style>
 </defs>
 <g id="figure_1">
  <g id="patch_1">
   <path d="M 0 343.585156 
L 498.683594 343.585156 
L 498.683594 0 
L 0 0 
z
" style="fill:#ffffff;"/>
  </g>
  <g id="axes_1">
   <g id="patch_2">
    <path d="M 45.083594 306.18 
L 491.483594 306.18 
L 491.483594 7.2 
L 45.083594 7.2 
z
" style="fill:#eaeaf2;"/>
   </g>
   <g id="matplotlib.axis_1">
    <g id="xtick_1">
     <g id="line2d_1">
      <path clip-path="url(#pdb893c1628)" d="M 44.922908 306.18 
L 44.922908 7.2 
" style="fill:none;stroke:#ffffff;stroke-linecap:round;"/>
     </g>
     <g id="line2d_2"/>
     <g id="text_1">
      <!-- 199800 -->
      <defs>
       <path d="M 37.25 0 
L 28.46875 0 
L 28.46875 56 
Q 25.296875 52.984375 20.140625 49.953125 
Q 14.984375 46.921875 10.890625 45.40625 
L 10.890625 53.90625 
Q 18.265625 57.375 23.78125 62.296875 
Q 29.296875 67.234375 31.59375 71.875 
L 37.25 71.875 
z
" id="ArialMT-31"/>
       <path d="M 5.46875 16.546875 
L 13.921875 17.328125 
Q 14.984375 11.375 18.015625 8.6875 
Q 21.046875 6 25.78125 6 
Q 29.828125 6 32.875 7.859375 
Q 35.9375 9.71875 37.890625 12.8125 
Q 39.84375 15.921875 41.15625 21.1875 
Q 42.484375 26.46875 42.484375 31.9375 
Q 42.484375 32.515625 42.4375 33.6875 
Q 39.796875 29.5 35.234375 26.875 
Q 30.671875 24.265625 25.34375 24.265625 
Q 16.453125 24.265625 10.296875 30.703125 
Q 4.15625 37.15625 4.15625 47.703125 
Q 4.15625 58.59375 10.578125 65.234375 
Q 17 71.875 26.65625 71.875 
Q 33.640625 71.875 39.421875 68.109375 
Q 45.21875 64.359375 48.21875 57.390625 
Q 51.21875 50.4375 51.21875 37.25 
Q 51.21875 23.53125 48.234375 15.40625 
Q 45.265625 7.28125 39.375 3.03125 
Q 33.5 -1.21875 25.59375 -1.21875 
Q 17.1875 -1.21875 11.859375 3.4375 
Q 6.546875 8.109375 5.46875 16.546875 
z
M 41.453125 48.140625 
Q 41.453125 55.71875 37.421875 60.15625 
Q 33.40625 64.59375 27.734375 64.59375 
Q 21.875 64.59375 17.53125 59.8125 
Q 13.1875 55.03125 13.1875 47.40625 
Q 13.1875 40.578125 17.3125 36.296875 
Q 21.4375 32.03125 27.484375 32.03125 
Q 33.59375 32.03125 37.515625 36.296875 
Q 41.453125 40.578125 41.453125 48.140625 
z
" id="ArialMT-39"/>
       <path d="M 17.671875 38.8125 
Q 12.203125 40.828125 9.5625 44.53125 
Q 6.9375 48.25 6.9375 53.421875 
Q 6.9375 61.234375 12.546875 66.546875 
Q 18.171875 71.875 27.484375 71.875 
Q 36.859375 71.875 42.578125 66.421875 
Q 48.296875 60.984375 48.296875 53.171875 
Q 48.296875 48.1875 45.671875 44.5 
Q 43.0625 40.828125 37.75 38.8125 
Q 44.34375 36.671875 47.78125 31.875 
Q 51.21875 27.09375 51.21875 20.453125 
Q 51.21875 11.28125 44.71875 5.03125 
Q 38.234375 -1.21875 27.640625 -1.21875 
Q 17.046875 -1.21875 10.546875 5.046875 
Q 4.046875 11.328125 4.046875 20.703125 
Q 4.046875 27.6875 7.59375 32.390625 
Q 11.140625 37.109375 17.671875 38.8125 
z
M 15.921875 53.71875 
Q 15.921875 48.640625 19.1875 45.40625 
Q 22.46875 42.1875 27.6875 42.1875 
Q 32.765625 42.1875 36.015625 45.375 
Q 39.265625 48.578125 39.265625 53.21875 
Q 39.265625 58.0625 35.90625 61.359375 
Q 32.5625 64.65625 27.59375 64.65625 
Q 22.5625 64.65625 19.234375 61.421875 
Q 15.921875 58.203125 15.921875 53.71875 
z
M 13.09375 20.65625 
Q 13.09375 16.890625 14.875 13.375 
Q 16.65625 9.859375 20.171875 7.921875 
Q 23.6875 6 27.734375 6 
Q 34.03125 6 38.125 10.046875 
Q 42.234375 14.109375 42.234375 20.359375 
Q 42.234375 26.703125 38.015625 30.859375 
Q 33.796875 35.015625 27.4375 35.015625 
Q 21.234375 35.015625 17.15625 30.90625 
Q 13.09375 26.8125 13.09375 20.65625 
z
" id="ArialMT-38"/>
       <path d="M 4.15625 35.296875 
Q 4.15625 48 6.765625 55.734375 
Q 9.375 63.484375 14.515625 67.671875 
Q 19.671875 71.875 27.484375 71.875 
Q 33.25 71.875 37.59375 69.546875 
Q 41.9375 67.234375 44.765625 62.859375 
Q 47.609375 58.5 49.21875 52.21875 
Q 50.828125 45.953125 50.828125 35.296875 
Q 50.828125 22.703125 48.234375 14.96875 
Q 45.65625 7.234375 40.5 3 
Q 35.359375 -1.21875 27.484375 -1.21875 
Q 17.140625 -1.21875 11.234375 6.203125 
Q 4.15625 15.140625 4.15625 35.296875 
z
M 13.1875 35.296875 
Q 13.1875 17.671875 17.3125 11.828125 
Q 21.4375 6 27.484375 6 
Q 33.546875 6 37.671875 11.859375 
Q 41.796875 17.71875 41.796875 35.296875 
Q 41.796875 52.984375 37.671875 58.78125 
Q 33.546875 64.59375 27.390625 64.59375 
Q 21.34375 64.59375 17.71875 59.46875 
Q 13.1875 52.9375 13.1875 35.296875 
z
" id="ArialMT-30"/>
      </defs>
      <g style="fill:#262626;" transform="translate(28.240095 320.337812)scale(0.1 -0.1)">
       <use xlink:href="#ArialMT-31"/>
       <use x="55.615234" xlink:href="#ArialMT-39"/>
       <use x="111.230469" xlink:href="#ArialMT-39"/>
       <use x="166.845703" xlink:href="#ArialMT-38"/>
       <use x="222.460938" xlink:href="#ArialMT-30"/>
       <use x="278.076172" xlink:href="#ArialMT-30"/>
      </g>
     </g>
    </g>
    <g id="xtick_2">
     <g id="line2d_3">
      <path clip-path="url(#pdb893c1628)" d="M 119.500766 306.18 
L 119.500766 7.2 
" style="fill:none;stroke:#ffffff;stroke-linecap:round;"/>
     </g>
     <g id="line2d_4"/>
     <g id="text_2">
      <!-- 199900 -->
      <g style="fill:#262626;" transform="translate(102.817954 320.337812)scale(0.1 -0.1)">
       <use xlink:href="#ArialMT-31"/>
       <use x="55.615234" xlink:href="#ArialMT-39"/>
       <use x="111.230469" xlink:href="#ArialMT-39"/>
       <use x="166.845703" xlink:href="#ArialMT-39"/>
       <use x="222.460938" xlink:href="#ArialMT-30"/>
       <use x="278.076172" xlink:href="#ArialMT-30"/>
      </g>
     </g>
    </g>
    <g id="xtick_3">
     <g id="line2d_5">
      <path clip-path="url(#pdb893c1628)" d="M 194.078625 306.18 
L 194.078625 7.2 
" style="fill:none;stroke:#ffffff;stroke-linecap:round;"/>
     </g>
     <g id="line2d_6"/>
     <g id="text_3">
      <!-- 200000 -->
      <defs>
       <path d="M 50.34375 8.453125 
L 50.34375 0 
L 3.03125 0 
Q 2.9375 3.171875 4.046875 6.109375 
Q 5.859375 10.9375 9.828125 15.625 
Q 13.8125 20.3125 21.34375 26.46875 
Q 33.015625 36.03125 37.109375 41.625 
Q 41.21875 47.21875 41.21875 52.203125 
Q 41.21875 57.421875 37.46875 61 
Q 33.734375 64.59375 27.734375 64.59375 
Q 21.390625 64.59375 17.578125 60.78125 
Q 13.765625 56.984375 13.71875 50.25 
L 4.6875 51.171875 
Q 5.609375 61.28125 11.65625 66.578125 
Q 17.71875 71.875 27.9375 71.875 
Q 38.234375 71.875 44.234375 66.15625 
Q 50.25 60.453125 50.25 52 
Q 50.25 47.703125 48.484375 43.546875 
Q 46.734375 39.40625 42.65625 34.8125 
Q 38.578125 30.21875 29.109375 22.21875 
Q 21.1875 15.578125 18.9375 13.203125 
Q 16.703125 10.84375 15.234375 8.453125 
z
" id="ArialMT-32"/>
      </defs>
      <g style="fill:#262626;" transform="translate(177.395812 320.337812)scale(0.1 -0.1)">
       <use xlink:href="#ArialMT-32"/>
       <use x="55.615234" xlink:href="#ArialMT-30"/>
       <use x="111.230469" xlink:href="#ArialMT-30"/>
       <use x="166.845703" xlink:href="#ArialMT-30"/>
       <use x="222.460938" xlink:href="#ArialMT-30"/>
       <use x="278.076172" xlink:href="#ArialMT-30"/>
      </g>
     </g>
    </g>
    <g id="xtick_4">
     <g id="line2d_7">
      <path clip-path="url(#pdb893c1628)" d="M 268.656483 306.18 
L 268.656483 7.2 
" style="fill:none;stroke:#ffffff;stroke-linecap:round;"/>
     </g>
     <g id="line2d_8"/>
     <g id="text_4">
      <!-- 200100 -->
      <g style="fill:#262626;" transform="translate(251.973671 320.337812)scale(0.1 -0.1)">
       <use xlink:href="#ArialMT-32"/>
       <use x="55.615234" xlink:href="#ArialMT-30"/>
       <use x="111.230469" xlink:href="#ArialMT-30"/>
       <use x="166.845703" xlink:href="#ArialMT-31"/>
       <use x="222.460938" xlink:href="#ArialMT-30"/>
       <use x="278.076172" xlink:href="#ArialMT-30"/>
      </g>
     </g>
    </g>
    <g id="xtick_5">
     <g id="line2d_9">
      <path clip-path="url(#pdb893c1628)" d="M 343.234342 306.18 
L 343.234342 7.2 
" style="fill:none;stroke:#ffffff;stroke-linecap:round;"/>
     </g>
     <g id="line2d_10"/>
     <g id="text_5">
      <!-- 200200 -->
      <g style="fill:#262626;" transform="translate(326.551529 320.337812)scale(0.1 -0.1)">
       <use xlink:href="#ArialMT-32"/>
       <use x="55.615234" xlink:href="#ArialMT-30"/>
       <use x="111.230469" xlink:href="#ArialMT-30"/>
       <use x="166.845703" xlink:href="#ArialMT-32"/>
       <use x="222.460938" xlink:href="#ArialMT-30"/>
       <use x="278.076172" xlink:href="#ArialMT-30"/>
      </g>
     </g>
    </g>
    <g id="xtick_6">
     <g id="line2d_11">
      <path clip-path="url(#pdb893c1628)" d="M 417.8122 306.18 
L 417.8122 7.2 
" style="fill:none;stroke:#ffffff;stroke-linecap:round;"/>
     </g>
     <g id="line2d_12"/>
     <g id="text_6">
      <!-- 200300 -->
      <defs>
       <path d="M 4.203125 18.890625 
L 12.984375 20.0625 
Q 14.5 12.59375 18.140625 9.296875 
Q 21.78125 6 27 6 
Q 33.203125 6 37.46875 10.296875 
Q 41.75 14.59375 41.75 20.953125 
Q 41.75 27 37.796875 30.921875 
Q 33.84375 34.859375 27.734375 34.859375 
Q 25.25 34.859375 21.53125 33.890625 
L 22.515625 41.609375 
Q 23.390625 41.5 23.921875 41.5 
Q 29.546875 41.5 34.03125 44.421875 
Q 38.53125 47.359375 38.53125 53.46875 
Q 38.53125 58.296875 35.25 61.46875 
Q 31.984375 64.65625 26.8125 64.65625 
Q 21.6875 64.65625 18.265625 61.421875 
Q 14.84375 58.203125 13.875 51.765625 
L 5.078125 53.328125 
Q 6.6875 62.15625 12.390625 67.015625 
Q 18.109375 71.875 26.609375 71.875 
Q 32.46875 71.875 37.390625 69.359375 
Q 42.328125 66.84375 44.9375 62.5 
Q 47.5625 58.15625 47.5625 53.265625 
Q 47.5625 48.640625 45.0625 44.828125 
Q 42.578125 41.015625 37.703125 38.765625 
Q 44.046875 37.3125 47.5625 32.6875 
Q 51.078125 28.078125 51.078125 21.140625 
Q 51.078125 11.765625 44.234375 5.25 
Q 37.40625 -1.265625 26.953125 -1.265625 
Q 17.53125 -1.265625 11.296875 4.34375 
Q 5.078125 9.96875 4.203125 18.890625 
z
" id="ArialMT-33"/>
      </defs>
      <g style="fill:#262626;" transform="translate(401.129387 320.337812)scale(0.1 -0.1)">
       <use xlink:href="#ArialMT-32"/>
       <use x="55.615234" xlink:href="#ArialMT-30"/>
       <use x="111.230469" xlink:href="#ArialMT-30"/>
       <use x="166.845703" xlink:href="#ArialMT-33"/>
       <use x="222.460938" xlink:href="#ArialMT-30"/>
       <use x="278.076172" xlink:href="#ArialMT-30"/>
      </g>
     </g>
    </g>
    <g id="text_7">
     <!-- Input node ID -->
     <defs>
      <path d="M 9.328125 0 
L 9.328125 71.578125 
L 18.796875 71.578125 
L 18.796875 0 
z
" id="ArialMT-49"/>
      <path d="M 6.59375 0 
L 6.59375 51.859375 
L 14.5 51.859375 
L 14.5 44.484375 
Q 20.21875 53.03125 31 53.03125 
Q 35.6875 53.03125 39.625 51.34375 
Q 43.5625 49.65625 45.515625 46.921875 
Q 47.46875 44.1875 48.25 40.4375 
Q 48.734375 37.984375 48.734375 31.890625 
L 48.734375 0 
L 39.9375 0 
L 39.9375 31.546875 
Q 39.9375 36.921875 38.90625 39.578125 
Q 37.890625 42.234375 35.28125 43.8125 
Q 32.671875 45.40625 29.15625 45.40625 
Q 23.53125 45.40625 19.453125 41.84375 
Q 15.375 38.28125 15.375 28.328125 
L 15.375 0 
z
" id="ArialMT-6e"/>
      <path d="M 6.59375 -19.875 
L 6.59375 51.859375 
L 14.59375 51.859375 
L 14.59375 45.125 
Q 17.4375 49.078125 21 51.046875 
Q 24.5625 53.03125 29.640625 53.03125 
Q 36.28125 53.03125 41.359375 49.609375 
Q 46.4375 46.1875 49.015625 39.953125 
Q 51.609375 33.734375 51.609375 26.3125 
Q 51.609375 18.359375 48.75 11.984375 
Q 45.90625 5.609375 40.453125 2.21875 
Q 35.015625 -1.171875 29 -1.171875 
Q 24.609375 -1.171875 21.109375 0.6875 
Q 17.625 2.546875 15.375 5.375 
L 15.375 -19.875 
z
M 14.546875 25.640625 
Q 14.546875 15.625 18.59375 10.84375 
Q 22.65625 6.0625 28.421875 6.0625 
Q 34.28125 6.0625 38.453125 11.015625 
Q 42.625 15.96875 42.625 26.375 
Q 42.625 36.28125 38.546875 41.203125 
Q 34.46875 46.140625 28.8125 46.140625 
Q 23.1875 46.140625 18.859375 40.890625 
Q 14.546875 35.640625 14.546875 25.640625 
z
" id="ArialMT-70"/>
      <path d="M 40.578125 0 
L 40.578125 7.625 
Q 34.515625 -1.171875 24.125 -1.171875 
Q 19.53125 -1.171875 15.546875 0.578125 
Q 11.578125 2.34375 9.640625 5 
Q 7.71875 7.671875 6.9375 11.53125 
Q 6.390625 14.109375 6.390625 19.734375 
L 6.390625 51.859375 
L 15.1875 51.859375 
L 15.1875 23.09375 
Q 15.1875 16.21875 15.71875 13.8125 
Q 16.546875 10.359375 19.234375 8.375 
Q 21.921875 6.390625 25.875 6.390625 
Q 29.828125 6.390625 33.296875 8.421875 
Q 36.765625 10.453125 38.203125 13.9375 
Q 39.65625 17.4375 39.65625 24.078125 
L 39.65625 51.859375 
L 48.4375 51.859375 
L 48.4375 0 
z
" id="ArialMT-75"/>
      <path d="M 25.78125 7.859375 
L 27.046875 0.09375 
Q 23.34375 -0.6875 20.40625 -0.6875 
Q 15.625 -0.6875 12.984375 0.828125 
Q 10.359375 2.34375 9.28125 4.8125 
Q 8.203125 7.28125 8.203125 15.1875 
L 8.203125 45.015625 
L 1.765625 45.015625 
L 1.765625 51.859375 
L 8.203125 51.859375 
L 8.203125 64.703125 
L 16.9375 69.96875 
L 16.9375 51.859375 
L 25.78125 51.859375 
L 25.78125 45.015625 
L 16.9375 45.015625 
L 16.9375 14.703125 
Q 16.9375 10.9375 17.40625 9.859375 
Q 17.875 8.796875 18.921875 8.15625 
Q 19.96875 7.515625 21.921875 7.515625 
Q 23.390625 7.515625 25.78125 7.859375 
z
" id="ArialMT-74"/>
      <path id="ArialMT-20"/>
      <path d="M 3.328125 25.921875 
Q 3.328125 40.328125 11.328125 47.265625 
Q 18.015625 53.03125 27.640625 53.03125 
Q 38.328125 53.03125 45.109375 46.015625 
Q 51.90625 39.015625 51.90625 26.65625 
Q 51.90625 16.65625 48.90625 10.90625 
Q 45.90625 5.171875 40.15625 2 
Q 34.421875 -1.171875 27.640625 -1.171875 
Q 16.75 -1.171875 10.03125 5.8125 
Q 3.328125 12.796875 3.328125 25.921875 
z
M 12.359375 25.921875 
Q 12.359375 15.96875 16.703125 11.015625 
Q 21.046875 6.0625 27.640625 6.0625 
Q 34.1875 6.0625 38.53125 11.03125 
Q 42.875 16.015625 42.875 26.21875 
Q 42.875 35.84375 38.5 40.796875 
Q 34.125 45.75 27.640625 45.75 
Q 21.046875 45.75 16.703125 40.8125 
Q 12.359375 35.890625 12.359375 25.921875 
z
" id="ArialMT-6f"/>
      <path d="M 40.234375 0 
L 40.234375 6.546875 
Q 35.296875 -1.171875 25.734375 -1.171875 
Q 19.53125 -1.171875 14.328125 2.25 
Q 9.125 5.671875 6.265625 11.796875 
Q 3.421875 17.921875 3.421875 25.875 
Q 3.421875 33.640625 6 39.96875 
Q 8.59375 46.296875 13.765625 49.65625 
Q 18.953125 53.03125 25.34375 53.03125 
Q 30.03125 53.03125 33.6875 51.046875 
Q 37.359375 49.078125 39.65625 45.90625 
L 39.65625 71.578125 
L 48.390625 71.578125 
L 48.390625 0 
z
M 12.453125 25.875 
Q 12.453125 15.921875 16.640625 10.984375 
Q 20.84375 6.0625 26.5625 6.0625 
Q 32.328125 6.0625 36.34375 10.765625 
Q 40.375 15.484375 40.375 25.140625 
Q 40.375 35.796875 36.265625 40.765625 
Q 32.171875 45.75 26.171875 45.75 
Q 20.3125 45.75 16.375 40.96875 
Q 12.453125 36.1875 12.453125 25.875 
z
" id="ArialMT-64"/>
      <path d="M 42.09375 16.703125 
L 51.171875 15.578125 
Q 49.03125 7.625 43.21875 3.21875 
Q 37.40625 -1.171875 28.375 -1.171875 
Q 17 -1.171875 10.328125 5.828125 
Q 3.65625 12.84375 3.65625 25.484375 
Q 3.65625 38.578125 10.390625 45.796875 
Q 17.140625 53.03125 27.875 53.03125 
Q 38.28125 53.03125 44.875 45.953125 
Q 51.46875 38.875 51.46875 26.03125 
Q 51.46875 25.25 51.421875 23.6875 
L 12.75 23.6875 
Q 13.234375 15.140625 17.578125 10.59375 
Q 21.921875 6.0625 28.421875 6.0625 
Q 33.25 6.0625 36.671875 8.59375 
Q 40.09375 11.140625 42.09375 16.703125 
z
M 13.234375 30.90625 
L 42.1875 30.90625 
Q 41.609375 37.453125 38.875 40.71875 
Q 34.671875 45.796875 27.984375 45.796875 
Q 21.921875 45.796875 17.796875 41.75 
Q 13.671875 37.703125 13.234375 30.90625 
z
" id="ArialMT-65"/>
      <path d="M 7.71875 0 
L 7.71875 71.578125 
L 32.375 71.578125 
Q 40.71875 71.578125 45.125 70.5625 
Q 51.265625 69.140625 55.609375 65.4375 
Q 61.28125 60.640625 64.078125 53.1875 
Q 66.890625 45.75 66.890625 36.1875 
Q 66.890625 28.03125 64.984375 21.734375 
Q 63.09375 15.4375 60.109375 11.296875 
Q 57.125 7.171875 53.578125 4.796875 
Q 50.046875 2.4375 45.046875 1.21875 
Q 40.046875 0 33.546875 0 
z
M 17.1875 8.453125 
L 32.46875 8.453125 
Q 39.546875 8.453125 43.578125 9.765625 
Q 47.609375 11.078125 50 13.484375 
Q 53.375 16.84375 55.25 22.53125 
Q 57.125 28.21875 57.125 36.328125 
Q 57.125 47.5625 53.4375 53.59375 
Q 49.75 59.625 44.484375 61.671875 
Q 40.671875 63.140625 32.234375 63.140625 
L 17.1875 63.140625 
z
" id="ArialMT-44"/>
     </defs>
     <g style="fill:#262626;" transform="translate(235.262109 334.198906)scale(0.11 -0.11)">
      <use xlink:href="#ArialMT-49"/>
      <use x="27.783203" xlink:href="#ArialMT-6e"/>
      <use x="83.398438" xlink:href="#ArialMT-70"/>
      <use x="139.013672" xlink:href="#ArialMT-75"/>
      <use x="194.628906" xlink:href="#ArialMT-74"/>
      <use x="222.412109" xlink:href="#ArialMT-20"/>
      <use x="250.195312" xlink:href="#ArialMT-6e"/>
      <use x="305.810547" xlink:href="#ArialMT-6f"/>
      <use x="361.425781" xlink:href="#ArialMT-64"/>
      <use x="417.041016" xlink:href="#ArialMT-65"/>
      <use x="472.65625" xlink:href="#ArialMT-20"/>
      <use x="500.439453" xlink:href="#ArialMT-49"/>
      <use x="528.222656" xlink:href="#ArialMT-44"/>
     </g>
    </g>
   </g>
   <g id="matplotlib.axis_2">
    <g id="ytick_1">
     <g id="line2d_13">
      <path clip-path="url(#pdb893c1628)" d="M 45.083594 292.415225 
L 491.483594 292.415225 
" style="fill:none;stroke:#ffffff;stroke-linecap:round;"/>
     </g>
     <g id="line2d_14"/>
     <g id="text_8">
      <!-- 0 -->
      <g style="fill:#262626;" transform="translate(32.522656 295.994131)scale(0.1 -0.1)">
       <use xlink:href="#ArialMT-30"/>
      </g>
     </g>
    </g>
    <g id="ytick_2">
     <g id="line2d_15">
      <path clip-path="url(#pdb893c1628)" d="M 45.083594 258.31341 
L 491.483594 258.31341 
" style="fill:none;stroke:#ffffff;stroke-linecap:round;"/>
     </g>
     <g id="line2d_16"/>
     <g id="text_9">
      <!-- 25 -->
      <defs>
       <path d="M 4.15625 18.75 
L 13.375 19.53125 
Q 14.40625 12.796875 18.140625 9.390625 
Q 21.875 6 27.15625 6 
Q 33.5 6 37.890625 10.78125 
Q 42.28125 15.578125 42.28125 23.484375 
Q 42.28125 31 38.0625 35.34375 
Q 33.84375 39.703125 27 39.703125 
Q 22.75 39.703125 19.328125 37.765625 
Q 15.921875 35.84375 13.96875 32.765625 
L 5.71875 33.84375 
L 12.640625 70.609375 
L 48.25 70.609375 
L 48.25 62.203125 
L 19.671875 62.203125 
L 15.828125 42.96875 
Q 22.265625 47.46875 29.34375 47.46875 
Q 38.71875 47.46875 45.15625 40.96875 
Q 51.609375 34.46875 51.609375 24.265625 
Q 51.609375 14.546875 45.953125 7.46875 
Q 39.0625 -1.21875 27.15625 -1.21875 
Q 17.390625 -1.21875 11.203125 4.25 
Q 5.03125 9.71875 4.15625 18.75 
z
" id="ArialMT-35"/>
      </defs>
      <g style="fill:#262626;" transform="translate(26.961719 261.892316)scale(0.1 -0.1)">
       <use xlink:href="#ArialMT-32"/>
       <use x="55.615234" xlink:href="#ArialMT-35"/>
      </g>
     </g>
    </g>
    <g id="ytick_3">
     <g id="line2d_17">
      <path clip-path="url(#pdb893c1628)" d="M 45.083594 224.211594 
L 491.483594 224.211594 
" style="fill:none;stroke:#ffffff;stroke-linecap:round;"/>
     </g>
     <g id="line2d_18"/>
     <g id="text_10">
      <!-- 50 -->
      <g style="fill:#262626;" transform="translate(26.961719 227.790501)scale(0.1 -0.1)">
       <use xlink:href="#ArialMT-35"/>
       <use x="55.615234" xlink:href="#ArialMT-30"/>
      </g>
     </g>
    </g>
    <g id="ytick_4">
     <g id="line2d_19">
      <path clip-path="url(#pdb893c1628)" d="M 45.083594 190.109779 
L 491.483594 190.109779 
" style="fill:none;stroke:#ffffff;stroke-linecap:round;"/>
     </g>
     <g id="line2d_20"/>
     <g id="text_11">
      <!-- 75 -->
      <defs>
       <path d="M 4.734375 62.203125 
L 4.734375 70.65625 
L 51.078125 70.65625 
L 51.078125 63.8125 
Q 44.234375 56.546875 37.515625 44.484375 
Q 30.8125 32.421875 27.15625 19.671875 
Q 24.515625 10.6875 23.78125 0 
L 14.75 0 
Q 14.890625 8.453125 18.0625 20.40625 
Q 21.234375 32.375 27.171875 43.484375 
Q 33.109375 54.59375 39.796875 62.203125 
z
" id="ArialMT-37"/>
      </defs>
      <g style="fill:#262626;" transform="translate(26.961719 193.688685)scale(0.1 -0.1)">
       <use xlink:href="#ArialMT-37"/>
       <use x="55.615234" xlink:href="#ArialMT-35"/>
      </g>
     </g>
    </g>
    <g id="ytick_5">
     <g id="line2d_21">
      <path clip-path="url(#pdb893c1628)" d="M 45.083594 156.007964 
L 491.483594 156.007964 
" style="fill:none;stroke:#ffffff;stroke-linecap:round;"/>
     </g>
     <g id="line2d_22"/>
     <g id="text_12">
      <!-- 100 -->
      <g style="fill:#262626;" transform="translate(21.400781 159.58687)scale(0.1 -0.1)">
       <use xlink:href="#ArialMT-31"/>
       <use x="55.615234" xlink:href="#ArialMT-30"/>
       <use x="111.230469" xlink:href="#ArialMT-30"/>
      </g>
     </g>
    </g>
    <g id="ytick_6">
     <g id="line2d_23">
      <path clip-path="url(#pdb893c1628)" d="M 45.083594 121.906148 
L 491.483594 121.906148 
" style="fill:none;stroke:#ffffff;stroke-linecap:round;"/>
     </g>
     <g id="line2d_24"/>
     <g id="text_13">
      <!-- 125 -->
      <g style="fill:#262626;" transform="translate(21.400781 125.485055)scale(0.1 -0.1)">
       <use xlink:href="#ArialMT-31"/>
       <use x="55.615234" xlink:href="#ArialMT-32"/>
       <use x="111.230469" xlink:href="#ArialMT-35"/>
      </g>
     </g>
    </g>
    <g id="ytick_7">
     <g id="line2d_25">
      <path clip-path="url(#pdb893c1628)" d="M 45.083594 87.804333 
L 491.483594 87.804333 
" style="fill:none;stroke:#ffffff;stroke-linecap:round;"/>
     </g>
     <g id="line2d_26"/>
     <g id="text_14">
      <!-- 150 -->
      <g style="fill:#262626;" transform="translate(21.400781 91.383239)scale(0.1 -0.1)">
       <use xlink:href="#ArialMT-31"/>
       <use x="55.615234" xlink:href="#ArialMT-35"/>
       <use x="111.230469" xlink:href="#ArialMT-30"/>
      </g>
     </g>
    </g>
    <g id="ytick_8">
     <g id="line2d_27">
      <path clip-path="url(#pdb893c1628)" d="M 45.083594 53.702518 
L 491.483594 53.702518 
" style="fill:none;stroke:#ffffff;stroke-linecap:round;"/>
     </g>
     <g id="line2d_28"/>
     <g id="text_15">
      <!-- 175 -->
      <g style="fill:#262626;" transform="translate(21.400781 57.281424)scale(0.1 -0.1)">
       <use xlink:href="#ArialMT-31"/>
       <use x="55.615234" xlink:href="#ArialMT-37"/>
       <use x="111.230469" xlink:href="#ArialMT-35"/>
      </g>
     </g>
    </g>
    <g id="ytick_9">
     <g id="line2d_29">
      <path clip-path="url(#pdb893c1628)" d="M 45.083594 19.600702 
L 491.483594 19.600702 
" style="fill:none;stroke:#ffffff;stroke-linecap:round;"/>
     </g>
     <g id="line2d_30"/>
     <g id="text_16">
      <!-- 200 -->
      <g style="fill:#262626;" transform="translate(21.400781 23.179609)scale(0.1 -0.1)">
       <use xlink:href="#ArialMT-32"/>
       <use x="55.615234" xlink:href="#ArialMT-30"/>
       <use x="111.230469" xlink:href="#ArialMT-30"/>
      </g>
     </g>
    </g>
    <g id="text_17">
     <!-- Output node ID -->
     <defs>
      <path d="M 4.828125 34.859375 
Q 4.828125 52.6875 14.390625 62.765625 
Q 23.96875 72.859375 39.109375 72.859375 
Q 49.03125 72.859375 56.984375 68.109375 
Q 64.9375 63.375 69.109375 54.90625 
Q 73.296875 46.4375 73.296875 35.6875 
Q 73.296875 24.8125 68.890625 16.21875 
Q 64.5 7.625 56.4375 3.203125 
Q 48.390625 -1.21875 39.0625 -1.21875 
Q 28.953125 -1.21875 20.984375 3.65625 
Q 13.03125 8.546875 8.921875 16.984375 
Q 4.828125 25.4375 4.828125 34.859375 
z
M 14.59375 34.71875 
Q 14.59375 21.78125 21.546875 14.328125 
Q 28.515625 6.890625 39.015625 6.890625 
Q 49.703125 6.890625 56.609375 14.40625 
Q 63.53125 21.921875 63.53125 35.75 
Q 63.53125 44.484375 60.578125 51 
Q 57.625 57.515625 51.921875 61.109375 
Q 46.234375 64.703125 39.15625 64.703125 
Q 29.109375 64.703125 21.84375 57.78125 
Q 14.59375 50.875 14.59375 34.71875 
z
" id="ArialMT-4f"/>
     </defs>
     <g style="fill:#262626;" transform="translate(15.214531 193.989453)rotate(-90)scale(0.11 -0.11)">
      <use xlink:href="#ArialMT-4f"/>
      <use x="77.783203" xlink:href="#ArialMT-75"/>
      <use x="133.398438" xlink:href="#ArialMT-74"/>
      <use x="161.181641" xlink:href="#ArialMT-70"/>
      <use x="216.796875" xlink:href="#ArialMT-75"/>
      <use x="272.412109" xlink:href="#ArialMT-74"/>
      <use x="300.195312" xlink:href="#ArialMT-20"/>
      <use x="327.978516" xlink:href="#ArialMT-6e"/>
      <use x="383.59375" xlink:href="#ArialMT-6f"/>
      <use x="439.208984" xlink:href="#ArialMT-64"/>
      <use x="494.824219" xlink:href="#ArialMT-65"/>
      <use x="550.439453" xlink:href="#ArialMT-20"/>
      <use x="578.222656" xlink:href="#ArialMT-49"/>
      <use x="606.005859" xlink:href="#ArialMT-44"/>
     </g>
    </g>
   </g>
   <g id="PathCollection_1">
    <defs>
     <path d="M 0 3.5 
C 0.928211 3.5 1.81853 3.131218 2.474874 2.474874 
C 3.131218 1.81853 3.5 0.928211 3.5 0 
C 3.5 -0.928211 3.131218 -1.81853 2.474874 -2.474874 
C 1.81853 -3.131218 0.928211 -3.5 0 -3.5 
C -0.928211 -3.5 -1.81853 -3.131218 -2.474874 -2.474874 
C -3.131218 -1.81853 -3.5 -0.928211 -3.5 0 
C -3.5 0.928211 -3.131218 1.81853 -2.474874 2.474874 
C -1.81853 3.131218 -0.928211 3.5 0 3.5 
z
" id="m9a73ec9679"/>
    </defs>
    <g clip-path="url(#pdb893c1628)">
     <use style="fill:#4c72b0;fill-opacity:0.8;" x="194.078625" xlink:href="#m9a73ec9679" y="292.415225"/>
     <use style="fill:#4c72b0;fill-opacity:0.8;" x="194.824403" xlink:href="#m9a73ec9679" y="291.051152"/>
     <use style="fill:#4c72b0;fill-opacity:0.8;" x="195.570182" xlink:href="#m9a73ec9679" y="289.68708"/>
     <use style="fill:#4c72b0;fill-opacity:0.8;" x="196.31596" xlink:href="#m9a73ec9679" y="288.323007"/>
     <use style="fill:#4c72b0;fill-opacity:0.8;" x="197.061739" xlink:href="#m9a73ec9679" y="286.958935"/>
     <use style="fill:#4c72b0;fill-opacity:0.8;" x="197.807517" xlink:href="#m9a73ec9679" y="285.594862"/>
     <use style="fill:#4c72b0;fill-opacity:0.8;" x="198.553296" xlink:href="#m9a73ec9679" y="284.230789"/>
     <use style="fill:#4c72b0;fill-opacity:0.8;" x="199.299075" xlink:href="#m9a73ec9679" y="282.866717"/>
     <use style="fill:#4c72b0;fill-opacity:0.8;" x="200.044853" xlink:href="#m9a73ec9679" y="281.502644"/>
     <use style="fill:#4c72b0;fill-opacity:0.8;" x="200.790632" xlink:href="#m9a73ec9679" y="280.138572"/>
     <use style="fill:#4c72b0;fill-opacity:0.8;" x="201.53641" xlink:href="#m9a73ec9679" y="278.774499"/>
     <use style="fill:#4c72b0;fill-opacity:0.8;" x="202.282189" xlink:href="#m9a73ec9679" y="277.410426"/>
     <use style="fill:#4c72b0;fill-opacity:0.8;" x="203.027968" xlink:href="#m9a73ec9679" y="276.046354"/>
     <use style="fill:#4c72b0;fill-opacity:0.8;" x="203.773746" xlink:href="#m9a73ec9679" y="274.682281"/>
     <use style="fill:#4c72b0;fill-opacity:0.8;" x="204.519525" xlink:href="#m9a73ec9679" y="273.318208"/>
     <use style="fill:#4c72b0;fill-opacity:0.8;" x="205.265303" xlink:href="#m9a73ec9679" y="271.954136"/>
     <use style="fill:#4c72b0;fill-opacity:0.8;" x="206.011082" xlink:href="#m9a73ec9679" y="270.590063"/>
     <use style="fill:#4c72b0;fill-opacity:0.8;" x="206.756861" xlink:href="#m9a73ec9679" y="269.225991"/>
     <use style="fill:#4c72b0;fill-opacity:0.8;" x="207.502639" xlink:href="#m9a73ec9679" y="267.861918"/>
     <use style="fill:#4c72b0;fill-opacity:0.8;" x="208.248418" xlink:href="#m9a73ec9679" y="266.497845"/>
     <use style="fill:#4c72b0;fill-opacity:0.8;" x="208.994196" xlink:href="#m9a73ec9679" y="265.133773"/>
     <use style="fill:#4c72b0;fill-opacity:0.8;" x="209.739975" xlink:href="#m9a73ec9679" y="263.7697"/>
     <use style="fill:#4c72b0;fill-opacity:0.8;" x="210.485753" xlink:href="#m9a73ec9679" y="262.405628"/>
     <use style="fill:#4c72b0;fill-opacity:0.8;" x="211.231532" xlink:href="#m9a73ec9679" y="261.041555"/>
     <use style="fill:#4c72b0;fill-opacity:0.8;" x="211.977311" xlink:href="#m9a73ec9679" y="259.677482"/>
     <use style="fill:#4c72b0;fill-opacity:0.8;" x="212.723089" xlink:href="#m9a73ec9679" y="258.31341"/>
     <use style="fill:#4c72b0;fill-opacity:0.8;" x="213.468868" xlink:href="#m9a73ec9679" y="256.949337"/>
     <use style="fill:#4c72b0;fill-opacity:0.8;" x="214.214646" xlink:href="#m9a73ec9679" y="255.585264"/>
     <use style="fill:#4c72b0;fill-opacity:0.8;" x="214.960425" xlink:href="#m9a73ec9679" y="254.221192"/>
     <use style="fill:#4c72b0;fill-opacity:0.8;" x="215.706204" xlink:href="#m9a73ec9679" y="252.857119"/>
     <use style="fill:#4c72b0;fill-opacity:0.8;" x="216.451982" xlink:href="#m9a73ec9679" y="251.493047"/>
     <use style="fill:#4c72b0;fill-opacity:0.8;" x="217.197761" xlink:href="#m9a73ec9679" y="250.128974"/>
     <use style="fill:#4c72b0;fill-opacity:0.8;" x="217.943539" xlink:href="#m9a73ec9679" y="248.764901"/>
     <use style="fill:#4c72b0;fill-opacity:0.8;" x="218.689318" xlink:href="#m9a73ec9679" y="247.400829"/>
     <use style="fill:#4c72b0;fill-opacity:0.8;" x="219.435096" xlink:href="#m9a73ec9679" y="246.036756"/>
     <use style="fill:#4c72b0;fill-opacity:0.8;" x="220.180875" xlink:href="#m9a73ec9679" y="244.672684"/>
     <use style="fill:#4c72b0;fill-opacity:0.8;" x="220.926654" xlink:href="#m9a73ec9679" y="243.308611"/>
     <use style="fill:#4c72b0;fill-opacity:0.8;" x="221.672432" xlink:href="#m9a73ec9679" y="241.944538"/>
     <use style="fill:#4c72b0;fill-opacity:0.8;" x="222.418211" xlink:href="#m9a73ec9679" y="240.580466"/>
     <use style="fill:#4c72b0;fill-opacity:0.8;" x="223.163989" xlink:href="#m9a73ec9679" y="239.216393"/>
     <use style="fill:#4c72b0;fill-opacity:0.8;" x="223.909768" xlink:href="#m9a73ec9679" y="237.852321"/>
     <use style="fill:#4c72b0;fill-opacity:0.8;" x="224.655547" xlink:href="#m9a73ec9679" y="236.488248"/>
     <use style="fill:#4c72b0;fill-opacity:0.8;" x="225.401325" xlink:href="#m9a73ec9679" y="235.124175"/>
     <use style="fill:#4c72b0;fill-opacity:0.8;" x="226.147104" xlink:href="#m9a73ec9679" y="233.760103"/>
     <use style="fill:#4c72b0;fill-opacity:0.8;" x="226.892882" xlink:href="#m9a73ec9679" y="232.39603"/>
     <use style="fill:#4c72b0;fill-opacity:0.8;" x="227.638661" xlink:href="#m9a73ec9679" y="231.031957"/>
     <use style="fill:#4c72b0;fill-opacity:0.8;" x="228.384439" xlink:href="#m9a73ec9679" y="229.667885"/>
     <use style="fill:#4c72b0;fill-opacity:0.8;" x="229.130218" xlink:href="#m9a73ec9679" y="228.303812"/>
     <use style="fill:#4c72b0;fill-opacity:0.8;" x="229.875997" xlink:href="#m9a73ec9679" y="226.93974"/>
     <use style="fill:#4c72b0;fill-opacity:0.8;" x="230.621775" xlink:href="#m9a73ec9679" y="225.575667"/>
     <use style="fill:#4c72b0;fill-opacity:0.8;" x="231.367554" xlink:href="#m9a73ec9679" y="224.211594"/>
     <use style="fill:#4c72b0;fill-opacity:0.8;" x="232.113332" xlink:href="#m9a73ec9679" y="222.847522"/>
     <use style="fill:#4c72b0;fill-opacity:0.8;" x="232.859111" xlink:href="#m9a73ec9679" y="221.483449"/>
     <use style="fill:#4c72b0;fill-opacity:0.8;" x="233.60489" xlink:href="#m9a73ec9679" y="220.119377"/>
     <use style="fill:#4c72b0;fill-opacity:0.8;" x="234.350668" xlink:href="#m9a73ec9679" y="218.755304"/>
     <use style="fill:#4c72b0;fill-opacity:0.8;" x="235.096447" xlink:href="#m9a73ec9679" y="217.391231"/>
     <use style="fill:#4c72b0;fill-opacity:0.8;" x="235.842225" xlink:href="#m9a73ec9679" y="216.027159"/>
     <use style="fill:#4c72b0;fill-opacity:0.8;" x="236.588004" xlink:href="#m9a73ec9679" y="214.663086"/>
     <use style="fill:#4c72b0;fill-opacity:0.8;" x="237.333782" xlink:href="#m9a73ec9679" y="213.299013"/>
     <use style="fill:#4c72b0;fill-opacity:0.8;" x="238.079561" xlink:href="#m9a73ec9679" y="211.934941"/>
     <use style="fill:#4c72b0;fill-opacity:0.8;" x="238.82534" xlink:href="#m9a73ec9679" y="210.570868"/>
     <use style="fill:#4c72b0;fill-opacity:0.8;" x="239.571118" xlink:href="#m9a73ec9679" y="209.206796"/>
     <use style="fill:#4c72b0;fill-opacity:0.8;" x="240.316897" xlink:href="#m9a73ec9679" y="207.842723"/>
     <use style="fill:#4c72b0;fill-opacity:0.8;" x="241.062675" xlink:href="#m9a73ec9679" y="206.47865"/>
     <use style="fill:#4c72b0;fill-opacity:0.8;" x="241.808454" xlink:href="#m9a73ec9679" y="205.114578"/>
     <use style="fill:#4c72b0;fill-opacity:0.8;" x="242.554233" xlink:href="#m9a73ec9679" y="203.750505"/>
     <use style="fill:#4c72b0;fill-opacity:0.8;" x="243.300011" xlink:href="#m9a73ec9679" y="202.386433"/>
     <use style="fill:#4c72b0;fill-opacity:0.8;" x="244.04579" xlink:href="#m9a73ec9679" y="201.02236"/>
     <use style="fill:#4c72b0;fill-opacity:0.8;" x="244.791568" xlink:href="#m9a73ec9679" y="199.658287"/>
     <use style="fill:#4c72b0;fill-opacity:0.8;" x="245.537347" xlink:href="#m9a73ec9679" y="198.294215"/>
     <use style="fill:#4c72b0;fill-opacity:0.8;" x="246.283125" xlink:href="#m9a73ec9679" y="196.930142"/>
     <use style="fill:#4c72b0;fill-opacity:0.8;" x="247.028904" xlink:href="#m9a73ec9679" y="195.566069"/>
     <use style="fill:#4c72b0;fill-opacity:0.8;" x="247.774683" xlink:href="#m9a73ec9679" y="194.201997"/>
     <use style="fill:#4c72b0;fill-opacity:0.8;" x="248.520461" xlink:href="#m9a73ec9679" y="192.837924"/>
     <use style="fill:#4c72b0;fill-opacity:0.8;" x="249.26624" xlink:href="#m9a73ec9679" y="191.473852"/>
     <use style="fill:#4c72b0;fill-opacity:0.8;" x="250.012018" xlink:href="#m9a73ec9679" y="190.109779"/>
     <use style="fill:#4c72b0;fill-opacity:0.8;" x="250.757797" xlink:href="#m9a73ec9679" y="188.745706"/>
     <use style="fill:#4c72b0;fill-opacity:0.8;" x="251.503576" xlink:href="#m9a73ec9679" y="187.381634"/>
     <use style="fill:#4c72b0;fill-opacity:0.8;" x="252.249354" xlink:href="#m9a73ec9679" y="186.017561"/>
     <use style="fill:#4c72b0;fill-opacity:0.8;" x="252.995133" xlink:href="#m9a73ec9679" y="184.653489"/>
     <use style="fill:#4c72b0;fill-opacity:0.8;" x="253.740911" xlink:href="#m9a73ec9679" y="183.289416"/>
     <use style="fill:#4c72b0;fill-opacity:0.8;" x="254.48669" xlink:href="#m9a73ec9679" y="181.925343"/>
     <use style="fill:#4c72b0;fill-opacity:0.8;" x="255.232469" xlink:href="#m9a73ec9679" y="180.561271"/>
     <use style="fill:#4c72b0;fill-opacity:0.8;" x="255.978247" xlink:href="#m9a73ec9679" y="179.197198"/>
     <use style="fill:#4c72b0;fill-opacity:0.8;" x="256.724026" xlink:href="#m9a73ec9679" y="177.833126"/>
     <use style="fill:#4c72b0;fill-opacity:0.8;" x="257.469804" xlink:href="#m9a73ec9679" y="176.469053"/>
     <use style="fill:#4c72b0;fill-opacity:0.8;" x="258.215583" xlink:href="#m9a73ec9679" y="175.10498"/>
     <use style="fill:#4c72b0;fill-opacity:0.8;" x="258.961361" xlink:href="#m9a73ec9679" y="173.740908"/>
     <use style="fill:#4c72b0;fill-opacity:0.8;" x="259.70714" xlink:href="#m9a73ec9679" y="172.376835"/>
     <use style="fill:#4c72b0;fill-opacity:0.8;" x="260.452919" xlink:href="#m9a73ec9679" y="171.012762"/>
     <use style="fill:#4c72b0;fill-opacity:0.8;" x="261.198697" xlink:href="#m9a73ec9679" y="169.64869"/>
     <use style="fill:#4c72b0;fill-opacity:0.8;" x="261.944476" xlink:href="#m9a73ec9679" y="168.284617"/>
     <use style="fill:#4c72b0;fill-opacity:0.8;" x="262.690254" xlink:href="#m9a73ec9679" y="166.920545"/>
     <use style="fill:#4c72b0;fill-opacity:0.8;" x="263.436033" xlink:href="#m9a73ec9679" y="165.556472"/>
     <use style="fill:#4c72b0;fill-opacity:0.8;" x="264.181812" xlink:href="#m9a73ec9679" y="164.192399"/>
     <use style="fill:#4c72b0;fill-opacity:0.8;" x="264.92759" xlink:href="#m9a73ec9679" y="162.828327"/>
     <use style="fill:#4c72b0;fill-opacity:0.8;" x="265.673369" xlink:href="#m9a73ec9679" y="161.464254"/>
     <use style="fill:#4c72b0;fill-opacity:0.8;" x="266.419147" xlink:href="#m9a73ec9679" y="160.100182"/>
     <use style="fill:#4c72b0;fill-opacity:0.8;" x="267.164926" xlink:href="#m9a73ec9679" y="158.736109"/>
     <use style="fill:#4c72b0;fill-opacity:0.8;" x="267.910704" xlink:href="#m9a73ec9679" y="157.372036"/>
     <use style="fill:#4c72b0;fill-opacity:0.8;" x="268.656483" xlink:href="#m9a73ec9679" y="156.007964"/>
     <use style="fill:#4c72b0;fill-opacity:0.8;" x="269.402262" xlink:href="#m9a73ec9679" y="154.643891"/>
     <use style="fill:#4c72b0;fill-opacity:0.8;" x="270.14804" xlink:href="#m9a73ec9679" y="153.279818"/>
     <use style="fill:#4c72b0;fill-opacity:0.8;" x="270.893819" xlink:href="#m9a73ec9679" y="151.915746"/>
     <use style="fill:#4c72b0;fill-opacity:0.8;" x="271.639597" xlink:href="#m9a73ec9679" y="150.551673"/>
     <use style="fill:#4c72b0;fill-opacity:0.8;" x="272.385376" xlink:href="#m9a73ec9679" y="149.187601"/>
     <use style="fill:#4c72b0;fill-opacity:0.8;" x="273.131155" xlink:href="#m9a73ec9679" y="147.823528"/>
     <use style="fill:#4c72b0;fill-opacity:0.8;" x="273.876933" xlink:href="#m9a73ec9679" y="146.459455"/>
     <use style="fill:#4c72b0;fill-opacity:0.8;" x="274.622712" xlink:href="#m9a73ec9679" y="145.095383"/>
     <use style="fill:#4c72b0;fill-opacity:0.8;" x="275.36849" xlink:href="#m9a73ec9679" y="143.73131"/>
     <use style="fill:#4c72b0;fill-opacity:0.8;" x="276.114269" xlink:href="#m9a73ec9679" y="142.367238"/>
     <use style="fill:#4c72b0;fill-opacity:0.8;" x="276.860047" xlink:href="#m9a73ec9679" y="141.003165"/>
     <use style="fill:#4c72b0;fill-opacity:0.8;" x="277.605826" xlink:href="#m9a73ec9679" y="139.639092"/>
     <use style="fill:#4c72b0;fill-opacity:0.8;" x="278.351605" xlink:href="#m9a73ec9679" y="138.27502"/>
     <use style="fill:#4c72b0;fill-opacity:0.8;" x="279.097383" xlink:href="#m9a73ec9679" y="136.910947"/>
     <use style="fill:#4c72b0;fill-opacity:0.8;" x="279.843162" xlink:href="#m9a73ec9679" y="135.546874"/>
     <use style="fill:#4c72b0;fill-opacity:0.8;" x="280.58894" xlink:href="#m9a73ec9679" y="134.182802"/>
     <use style="fill:#4c72b0;fill-opacity:0.8;" x="281.334719" xlink:href="#m9a73ec9679" y="132.818729"/>
     <use style="fill:#4c72b0;fill-opacity:0.8;" x="282.080498" xlink:href="#m9a73ec9679" y="131.454657"/>
     <use style="fill:#4c72b0;fill-opacity:0.8;" x="282.826276" xlink:href="#m9a73ec9679" y="130.090584"/>
     <use style="fill:#4c72b0;fill-opacity:0.8;" x="283.572055" xlink:href="#m9a73ec9679" y="128.726511"/>
     <use style="fill:#4c72b0;fill-opacity:0.8;" x="284.317833" xlink:href="#m9a73ec9679" y="127.362439"/>
     <use style="fill:#4c72b0;fill-opacity:0.8;" x="285.063612" xlink:href="#m9a73ec9679" y="125.998366"/>
     <use style="fill:#4c72b0;fill-opacity:0.8;" x="285.80939" xlink:href="#m9a73ec9679" y="124.634294"/>
     <use style="fill:#4c72b0;fill-opacity:0.8;" x="286.555169" xlink:href="#m9a73ec9679" y="123.270221"/>
     <use style="fill:#4c72b0;fill-opacity:0.8;" x="287.300948" xlink:href="#m9a73ec9679" y="121.906148"/>
     <use style="fill:#4c72b0;fill-opacity:0.8;" x="288.046726" xlink:href="#m9a73ec9679" y="120.542076"/>
     <use style="fill:#4c72b0;fill-opacity:0.8;" x="288.792505" xlink:href="#m9a73ec9679" y="119.178003"/>
     <use style="fill:#4c72b0;fill-opacity:0.8;" x="289.538283" xlink:href="#m9a73ec9679" y="117.813931"/>
     <use style="fill:#4c72b0;fill-opacity:0.8;" x="290.284062" xlink:href="#m9a73ec9679" y="116.449858"/>
     <use style="fill:#4c72b0;fill-opacity:0.8;" x="291.029841" xlink:href="#m9a73ec9679" y="115.085785"/>
     <use style="fill:#4c72b0;fill-opacity:0.8;" x="291.775619" xlink:href="#m9a73ec9679" y="113.721713"/>
     <use style="fill:#4c72b0;fill-opacity:0.8;" x="292.521398" xlink:href="#m9a73ec9679" y="112.35764"/>
     <use style="fill:#4c72b0;fill-opacity:0.8;" x="293.267176" xlink:href="#m9a73ec9679" y="110.993567"/>
     <use style="fill:#4c72b0;fill-opacity:0.8;" x="294.012955" xlink:href="#m9a73ec9679" y="109.629495"/>
     <use style="fill:#4c72b0;fill-opacity:0.8;" x="294.758734" xlink:href="#m9a73ec9679" y="108.265422"/>
     <use style="fill:#4c72b0;fill-opacity:0.8;" x="295.504512" xlink:href="#m9a73ec9679" y="106.90135"/>
     <use style="fill:#4c72b0;fill-opacity:0.8;" x="296.250291" xlink:href="#m9a73ec9679" y="105.537277"/>
     <use style="fill:#4c72b0;fill-opacity:0.8;" x="296.996069" xlink:href="#m9a73ec9679" y="104.173204"/>
     <use style="fill:#4c72b0;fill-opacity:0.8;" x="297.741848" xlink:href="#m9a73ec9679" y="102.809132"/>
     <use style="fill:#4c72b0;fill-opacity:0.8;" x="298.487626" xlink:href="#m9a73ec9679" y="101.445059"/>
     <use style="fill:#4c72b0;fill-opacity:0.8;" x="299.233405" xlink:href="#m9a73ec9679" y="100.080987"/>
     <use style="fill:#4c72b0;fill-opacity:0.8;" x="299.979184" xlink:href="#m9a73ec9679" y="98.716914"/>
     <use style="fill:#4c72b0;fill-opacity:0.8;" x="300.724962" xlink:href="#m9a73ec9679" y="97.352841"/>
     <use style="fill:#4c72b0;fill-opacity:0.8;" x="301.470741" xlink:href="#m9a73ec9679" y="95.988769"/>
     <use style="fill:#4c72b0;fill-opacity:0.8;" x="302.216519" xlink:href="#m9a73ec9679" y="94.624696"/>
     <use style="fill:#4c72b0;fill-opacity:0.8;" x="302.962298" xlink:href="#m9a73ec9679" y="93.260623"/>
     <use style="fill:#4c72b0;fill-opacity:0.8;" x="303.708077" xlink:href="#m9a73ec9679" y="91.896551"/>
     <use style="fill:#4c72b0;fill-opacity:0.8;" x="304.453855" xlink:href="#m9a73ec9679" y="90.532478"/>
     <use style="fill:#4c72b0;fill-opacity:0.8;" x="305.199634" xlink:href="#m9a73ec9679" y="89.168406"/>
     <use style="fill:#4c72b0;fill-opacity:0.8;" x="305.945412" xlink:href="#m9a73ec9679" y="87.804333"/>
     <use style="fill:#4c72b0;fill-opacity:0.8;" x="306.691191" xlink:href="#m9a73ec9679" y="86.44026"/>
     <use style="fill:#4c72b0;fill-opacity:0.8;" x="307.436969" xlink:href="#m9a73ec9679" y="85.076188"/>
     <use style="fill:#4c72b0;fill-opacity:0.8;" x="308.182748" xlink:href="#m9a73ec9679" y="83.712115"/>
     <use style="fill:#4c72b0;fill-opacity:0.8;" x="308.928527" xlink:href="#m9a73ec9679" y="82.348043"/>
     <use style="fill:#4c72b0;fill-opacity:0.8;" x="309.674305" xlink:href="#m9a73ec9679" y="80.98397"/>
     <use style="fill:#4c72b0;fill-opacity:0.8;" x="310.420084" xlink:href="#m9a73ec9679" y="79.619897"/>
     <use style="fill:#4c72b0;fill-opacity:0.8;" x="311.165862" xlink:href="#m9a73ec9679" y="78.255825"/>
     <use style="fill:#4c72b0;fill-opacity:0.8;" x="311.911641" xlink:href="#m9a73ec9679" y="76.891752"/>
     <use style="fill:#4c72b0;fill-opacity:0.8;" x="312.65742" xlink:href="#m9a73ec9679" y="75.527679"/>
     <use style="fill:#4c72b0;fill-opacity:0.8;" x="313.403198" xlink:href="#m9a73ec9679" y="74.163607"/>
     <use style="fill:#4c72b0;fill-opacity:0.8;" x="314.148977" xlink:href="#m9a73ec9679" y="72.799534"/>
     <use style="fill:#4c72b0;fill-opacity:0.8;" x="314.894755" xlink:href="#m9a73ec9679" y="71.435462"/>
     <use style="fill:#4c72b0;fill-opacity:0.8;" x="315.640534" xlink:href="#m9a73ec9679" y="70.071389"/>
     <use style="fill:#4c72b0;fill-opacity:0.8;" x="316.386312" xlink:href="#m9a73ec9679" y="68.707316"/>
     <use style="fill:#4c72b0;fill-opacity:0.8;" x="317.132091" xlink:href="#m9a73ec9679" y="67.343244"/>
     <use style="fill:#4c72b0;fill-opacity:0.8;" x="317.87787" xlink:href="#m9a73ec9679" y="65.979171"/>
     <use style="fill:#4c72b0;fill-opacity:0.8;" x="318.623648" xlink:href="#m9a73ec9679" y="64.615099"/>
     <use style="fill:#4c72b0;fill-opacity:0.8;" x="319.369427" xlink:href="#m9a73ec9679" y="63.251026"/>
     <use style="fill:#4c72b0;fill-opacity:0.8;" x="320.115205" xlink:href="#m9a73ec9679" y="61.886953"/>
     <use style="fill:#4c72b0;fill-opacity:0.8;" x="320.860984" xlink:href="#m9a73ec9679" y="60.522881"/>
     <use style="fill:#4c72b0;fill-opacity:0.8;" x="321.606763" xlink:href="#m9a73ec9679" y="59.158808"/>
     <use style="fill:#4c72b0;fill-opacity:0.8;" x="322.352541" xlink:href="#m9a73ec9679" y="57.794736"/>
     <use style="fill:#4c72b0;fill-opacity:0.8;" x="323.09832" xlink:href="#m9a73ec9679" y="56.430663"/>
     <use style="fill:#4c72b0;fill-opacity:0.8;" x="323.844098" xlink:href="#m9a73ec9679" y="55.06659"/>
     <use style="fill:#4c72b0;fill-opacity:0.8;" x="324.589877" xlink:href="#m9a73ec9679" y="53.702518"/>
     <use style="fill:#4c72b0;fill-opacity:0.8;" x="325.335655" xlink:href="#m9a73ec9679" y="52.338445"/>
     <use style="fill:#4c72b0;fill-opacity:0.8;" x="326.081434" xlink:href="#m9a73ec9679" y="50.974372"/>
     <use style="fill:#4c72b0;fill-opacity:0.8;" x="326.827213" xlink:href="#m9a73ec9679" y="49.6103"/>
     <use style="fill:#4c72b0;fill-opacity:0.8;" x="327.572991" xlink:href="#m9a73ec9679" y="48.246227"/>
     <use style="fill:#4c72b0;fill-opacity:0.8;" x="328.31877" xlink:href="#m9a73ec9679" y="46.882155"/>
     <use style="fill:#4c72b0;fill-opacity:0.8;" x="329.064548" xlink:href="#m9a73ec9679" y="45.518082"/>
     <use style="fill:#4c72b0;fill-opacity:0.8;" x="329.810327" xlink:href="#m9a73ec9679" y="44.154009"/>
     <use style="fill:#4c72b0;fill-opacity:0.8;" x="330.556106" xlink:href="#m9a73ec9679" y="42.789937"/>
     <use style="fill:#4c72b0;fill-opacity:0.8;" x="331.301884" xlink:href="#m9a73ec9679" y="41.425864"/>
     <use style="fill:#4c72b0;fill-opacity:0.8;" x="332.047663" xlink:href="#m9a73ec9679" y="40.061792"/>
     <use style="fill:#4c72b0;fill-opacity:0.8;" x="332.793441" xlink:href="#m9a73ec9679" y="38.697719"/>
     <use style="fill:#4c72b0;fill-opacity:0.8;" x="333.53922" xlink:href="#m9a73ec9679" y="37.333646"/>
     <use style="fill:#4c72b0;fill-opacity:0.8;" x="334.284999" xlink:href="#m9a73ec9679" y="35.969574"/>
     <use style="fill:#4c72b0;fill-opacity:0.8;" x="335.030777" xlink:href="#m9a73ec9679" y="34.605501"/>
     <use style="fill:#4c72b0;fill-opacity:0.8;" x="335.776556" xlink:href="#m9a73ec9679" y="33.241428"/>
     <use style="fill:#4c72b0;fill-opacity:0.8;" x="336.522334" xlink:href="#m9a73ec9679" y="31.877356"/>
     <use style="fill:#4c72b0;fill-opacity:0.8;" x="337.268113" xlink:href="#m9a73ec9679" y="30.513283"/>
     <use style="fill:#4c72b0;fill-opacity:0.8;" x="338.013891" xlink:href="#m9a73ec9679" y="29.149211"/>
     <use style="fill:#4c72b0;fill-opacity:0.8;" x="338.75967" xlink:href="#m9a73ec9679" y="27.785138"/>
     <use style="fill:#4c72b0;fill-opacity:0.8;" x="339.505449" xlink:href="#m9a73ec9679" y="26.421065"/>
     <use style="fill:#4c72b0;fill-opacity:0.8;" x="340.251227" xlink:href="#m9a73ec9679" y="25.056993"/>
     <use style="fill:#4c72b0;fill-opacity:0.8;" x="340.997006" xlink:href="#m9a73ec9679" y="23.69292"/>
     <use style="fill:#4c72b0;fill-opacity:0.8;" x="341.742784" xlink:href="#m9a73ec9679" y="22.328848"/>
     <use style="fill:#4c72b0;fill-opacity:0.8;" x="342.488563" xlink:href="#m9a73ec9679" y="20.964775"/>
    </g>
   </g>
   <g id="patch_3">
    <path d="M 45.083594 306.18 
L 45.083594 7.2 
" style="fill:none;"/>
   </g>
   <g id="patch_4">
    <path d="M 491.483594 306.18 
L 491.483594 7.2 
" style="fill:none;"/>
   </g>
   <g id="patch_5">
    <path d="M 45.083594 306.18 
L 491.483594 306.18 
" style="fill:none;"/>
   </g>
   <g id="patch_6">
    <path d="M 45.083594 7.2 
L 491.483594 7.2 
" style="fill:none;"/>
   </g>
  </g>
 </g>
 <defs>
  <clipPath id="pdb893c1628">
   <rect height="298.98" width="446.4" x="45.083594" y="7.2"/>
  </clipPath>
 </defs>
</svg>
