<?xml version="1.0" encoding="utf-8" standalone="no"?>
<!DOCTYPE svg PUBLIC "-//W3C//DTD SVG 1.1//EN"
  "http://www.w3.org/Graphics/SVG/1.1/DTD/svg11.dtd">
<!-- Created with matplotlib (http://matplotlib.org/) -->
<svg height="343pt" version="1.1" viewBox="0 0 490 343" width="490pt" xmlns="http://www.w3.org/2000/svg" xmlns:xlink="http://www.w3.org/1999/xlink">
 <defs>
  <style type="text/css">
*{stroke-linecap:butt;stroke-linejoin:round;}
  </style>
 </defs>
 <g id="figure_1">
  <g id="patch_1">
   <path d="M 0 343.585156 
L 490.04375 343.585156 
L 490.04375 0 
L 0 0 
z
" style="fill:#ffffff;"/>
  </g>
  <g id="axes_1">
   <g id="patch_2">
    <path d="M 36.44375 306.18 
L 482.84375 306.18 
L 482.84375 7.2 
L 36.44375 7.2 
z
" style="fill:#eaeaf2;"/>
   </g>
   <g id="matplotlib.axis_1">
    <g id="xtick_1">
     <g id="line2d_1">
      <path clip-path="url(#p976302c88b)" d="M 56.734659 306.18 
L 56.734659 7.2 
" style="fill:none;stroke:#ffffff;stroke-linecap:round;"/>
     </g>
     <g id="line2d_2"/>
     <g id="text_1">
      <!-- 0 -->
      <defs>
       <path d="M 4.15625 35.296875 
Q 4.15625 48 6.765625 55.734375 
Q 9.375 63.484375 14.515625 67.671875 
Q 19.671875 71.875 27.484375 71.875 
Q 33.25 71.875 37.59375 69.546875 
Q 41.9375 67.234375 44.765625 62.859375 
Q 47.609375 58.5 49.21875 52.21875 
Q 50.828125 45.953125 50.828125 35.296875 
Q 50.828125 22.703125 48.234375 14.96875 
Q 45.65625 7.234375 40.5 3 
Q 35.359375 -1.21875 27.484375 -1.21875 
Q 17.140625 -1.21875 11.234375 6.203125 
Q 4.15625 15.140625 4.15625 35.296875 
z
M 13.1875 35.296875 
Q 13.1875 17.671875 17.3125 11.828125 
Q 21.4375 6 27.484375 6 
Q 33.546875 6 37.671875 11.859375 
Q 41.796875 17.71875 41.796875 35.296875 
Q 41.796875 52.984375 37.671875 58.78125 
Q 33.546875 64.59375 27.390625 64.59375 
Q 21.34375 64.59375 17.71875 59.46875 
Q 13.1875 52.9375 13.1875 35.296875 
z
" id="ArialMT-30"/>
      </defs>
      <g style="fill:#262626;" transform="translate(53.95419 320.337812)scale(0.1 -0.1)">
       <use xlink:href="#ArialMT-30"/>
      </g>
     </g>
    </g>
    <g id="xtick_2">
     <g id="line2d_3">
      <path clip-path="url(#p976302c88b)" d="M 110.530336 306.18 
L 110.530336 7.2 
" style="fill:none;stroke:#ffffff;stroke-linecap:round;"/>
     </g>
     <g id="line2d_4"/>
     <g id="text_2">
      <!-- 2500 -->
      <defs>
       <path d="M 50.34375 8.453125 
L 50.34375 0 
L 3.03125 0 
Q 2.9375 3.171875 4.046875 6.109375 
Q 5.859375 10.9375 9.828125 15.625 
Q 13.8125 20.3125 21.34375 26.46875 
Q 33.015625 36.03125 37.109375 41.625 
Q 41.21875 47.21875 41.21875 52.203125 
Q 41.21875 57.421875 37.46875 61 
Q 33.734375 64.59375 27.734375 64.59375 
Q 21.390625 64.59375 17.578125 60.78125 
Q 13.765625 56.984375 13.71875 50.25 
L 4.6875 51.171875 
Q 5.609375 61.28125 11.65625 66.578125 
Q 17.71875 71.875 27.9375 71.875 
Q 38.234375 71.875 44.234375 66.15625 
Q 50.25 60.453125 50.25 52 
Q 50.25 47.703125 48.484375 43.546875 
Q 46.734375 39.40625 42.65625 34.8125 
Q 38.578125 30.21875 29.109375 22.21875 
Q 21.1875 15.578125 18.9375 13.203125 
Q 16.703125 10.84375 15.234375 8.453125 
z
" id="ArialMT-32"/>
       <path d="M 4.15625 18.75 
L 13.375 19.53125 
Q 14.40625 12.796875 18.140625 9.390625 
Q 21.875 6 27.15625 6 
Q 33.5 6 37.890625 10.78125 
Q 42.28125 15.578125 42.28125 23.484375 
Q 42.28125 31 38.0625 35.34375 
Q 33.84375 39.703125 27 39.703125 
Q 22.75 39.703125 19.328125 37.765625 
Q 15.921875 35.84375 13.96875 32.765625 
L 5.71875 33.84375 
L 12.640625 70.609375 
L 48.25 70.609375 
L 48.25 62.203125 
L 19.671875 62.203125 
L 15.828125 42.96875 
Q 22.265625 47.46875 29.34375 47.46875 
Q 38.71875 47.46875 45.15625 40.96875 
Q 51.609375 34.46875 51.609375 24.265625 
Q 51.609375 14.546875 45.953125 7.46875 
Q 39.0625 -1.21875 27.15625 -1.21875 
Q 17.390625 -1.21875 11.203125 4.25 
Q 5.03125 9.71875 4.15625 18.75 
z
" id="ArialMT-35"/>
      </defs>
      <g style="fill:#262626;" transform="translate(99.408461 320.337812)scale(0.1 -0.1)">
       <use xlink:href="#ArialMT-32"/>
       <use x="55.615234" xlink:href="#ArialMT-35"/>
       <use x="111.230469" xlink:href="#ArialMT-30"/>
       <use x="166.845703" xlink:href="#ArialMT-30"/>
      </g>
     </g>
    </g>
    <g id="xtick_3">
     <g id="line2d_5">
      <path clip-path="url(#p976302c88b)" d="M 164.326014 306.18 
L 164.326014 7.2 
" style="fill:none;stroke:#ffffff;stroke-linecap:round;"/>
     </g>
     <g id="line2d_6"/>
     <g id="text_3">
      <!-- 5000 -->
      <g style="fill:#262626;" transform="translate(153.204139 320.337812)scale(0.1 -0.1)">
       <use xlink:href="#ArialMT-35"/>
       <use x="55.615234" xlink:href="#ArialMT-30"/>
       <use x="111.230469" xlink:href="#ArialMT-30"/>
       <use x="166.845703" xlink:href="#ArialMT-30"/>
      </g>
     </g>
    </g>
    <g id="xtick_4">
     <g id="line2d_7">
      <path clip-path="url(#p976302c88b)" d="M 218.121691 306.18 
L 218.121691 7.2 
" style="fill:none;stroke:#ffffff;stroke-linecap:round;"/>
     </g>
     <g id="line2d_8"/>
     <g id="text_4">
      <!-- 7500 -->
      <defs>
       <path d="M 4.734375 62.203125 
L 4.734375 70.65625 
L 51.078125 70.65625 
L 51.078125 63.8125 
Q 44.234375 56.546875 37.515625 44.484375 
Q 30.8125 32.421875 27.15625 19.671875 
Q 24.515625 10.6875 23.78125 0 
L 14.75 0 
Q 14.890625 8.453125 18.0625 20.40625 
Q 21.234375 32.375 27.171875 43.484375 
Q 33.109375 54.59375 39.796875 62.203125 
z
" id="ArialMT-37"/>
      </defs>
      <g style="fill:#262626;" transform="translate(206.999816 320.337812)scale(0.1 -0.1)">
       <use xlink:href="#ArialMT-37"/>
       <use x="55.615234" xlink:href="#ArialMT-35"/>
       <use x="111.230469" xlink:href="#ArialMT-30"/>
       <use x="166.845703" xlink:href="#ArialMT-30"/>
      </g>
     </g>
    </g>
    <g id="xtick_5">
     <g id="line2d_9">
      <path clip-path="url(#p976302c88b)" d="M 271.917368 306.18 
L 271.917368 7.2 
" style="fill:none;stroke:#ffffff;stroke-linecap:round;"/>
     </g>
     <g id="line2d_10"/>
     <g id="text_5">
      <!-- 10000 -->
      <defs>
       <path d="M 37.25 0 
L 28.46875 0 
L 28.46875 56 
Q 25.296875 52.984375 20.140625 49.953125 
Q 14.984375 46.921875 10.890625 45.40625 
L 10.890625 53.90625 
Q 18.265625 57.375 23.78125 62.296875 
Q 29.296875 67.234375 31.59375 71.875 
L 37.25 71.875 
z
" id="ArialMT-31"/>
      </defs>
      <g style="fill:#262626;" transform="translate(258.015024 320.337812)scale(0.1 -0.1)">
       <use xlink:href="#ArialMT-31"/>
       <use x="55.615234" xlink:href="#ArialMT-30"/>
       <use x="111.230469" xlink:href="#ArialMT-30"/>
       <use x="166.845703" xlink:href="#ArialMT-30"/>
       <use x="222.460938" xlink:href="#ArialMT-30"/>
      </g>
     </g>
    </g>
    <g id="xtick_6">
     <g id="line2d_11">
      <path clip-path="url(#p976302c88b)" d="M 325.713046 306.18 
L 325.713046 7.2 
" style="fill:none;stroke:#ffffff;stroke-linecap:round;"/>
     </g>
     <g id="line2d_12"/>
     <g id="text_6">
      <!-- 12500 -->
      <g style="fill:#262626;" transform="translate(311.810702 320.337812)scale(0.1 -0.1)">
       <use xlink:href="#ArialMT-31"/>
       <use x="55.615234" xlink:href="#ArialMT-32"/>
       <use x="111.230469" xlink:href="#ArialMT-35"/>
       <use x="166.845703" xlink:href="#ArialMT-30"/>
       <use x="222.460938" xlink:href="#ArialMT-30"/>
      </g>
     </g>
    </g>
    <g id="xtick_7">
     <g id="line2d_13">
      <path clip-path="url(#p976302c88b)" d="M 379.508723 306.18 
L 379.508723 7.2 
" style="fill:none;stroke:#ffffff;stroke-linecap:round;"/>
     </g>
     <g id="line2d_14"/>
     <g id="text_7">
      <!-- 15000 -->
      <g style="fill:#262626;" transform="translate(365.606379 320.337812)scale(0.1 -0.1)">
       <use xlink:href="#ArialMT-31"/>
       <use x="55.615234" xlink:href="#ArialMT-35"/>
       <use x="111.230469" xlink:href="#ArialMT-30"/>
       <use x="166.845703" xlink:href="#ArialMT-30"/>
       <use x="222.460938" xlink:href="#ArialMT-30"/>
      </g>
     </g>
    </g>
    <g id="xtick_8">
     <g id="line2d_15">
      <path clip-path="url(#p976302c88b)" d="M 433.3044 306.18 
L 433.3044 7.2 
" style="fill:none;stroke:#ffffff;stroke-linecap:round;"/>
     </g>
     <g id="line2d_16"/>
     <g id="text_8">
      <!-- 17500 -->
      <g style="fill:#262626;" transform="translate(419.402056 320.337812)scale(0.1 -0.1)">
       <use xlink:href="#ArialMT-31"/>
       <use x="55.615234" xlink:href="#ArialMT-37"/>
       <use x="111.230469" xlink:href="#ArialMT-35"/>
       <use x="166.845703" xlink:href="#ArialMT-30"/>
       <use x="222.460938" xlink:href="#ArialMT-30"/>
      </g>
     </g>
    </g>
    <g id="text_9">
     <!-- Node time -->
     <defs>
      <path d="M 7.625 0 
L 7.625 71.578125 
L 17.328125 71.578125 
L 54.9375 15.375 
L 54.9375 71.578125 
L 64.015625 71.578125 
L 64.015625 0 
L 54.296875 0 
L 16.703125 56.25 
L 16.703125 0 
z
" id="ArialMT-4e"/>
      <path d="M 3.328125 25.921875 
Q 3.328125 40.328125 11.328125 47.265625 
Q 18.015625 53.03125 27.640625 53.03125 
Q 38.328125 53.03125 45.109375 46.015625 
Q 51.90625 39.015625 51.90625 26.65625 
Q 51.90625 16.65625 48.90625 10.90625 
Q 45.90625 5.171875 40.15625 2 
Q 34.421875 -1.171875 27.640625 -1.171875 
Q 16.75 -1.171875 10.03125 5.8125 
Q 3.328125 12.796875 3.328125 25.921875 
z
M 12.359375 25.921875 
Q 12.359375 15.96875 16.703125 11.015625 
Q 21.046875 6.0625 27.640625 6.0625 
Q 34.1875 6.0625 38.53125 11.03125 
Q 42.875 16.015625 42.875 26.21875 
Q 42.875 35.84375 38.5 40.796875 
Q 34.125 45.75 27.640625 45.75 
Q 21.046875 45.75 16.703125 40.8125 
Q 12.359375 35.890625 12.359375 25.921875 
z
" id="ArialMT-6f"/>
      <path d="M 40.234375 0 
L 40.234375 6.546875 
Q 35.296875 -1.171875 25.734375 -1.171875 
Q 19.53125 -1.171875 14.328125 2.25 
Q 9.125 5.671875 6.265625 11.796875 
Q 3.421875 17.921875 3.421875 25.875 
Q 3.421875 33.640625 6 39.96875 
Q 8.59375 46.296875 13.765625 49.65625 
Q 18.953125 53.03125 25.34375 53.03125 
Q 30.03125 53.03125 33.6875 51.046875 
Q 37.359375 49.078125 39.65625 45.90625 
L 39.65625 71.578125 
L 48.390625 71.578125 
L 48.390625 0 
z
M 12.453125 25.875 
Q 12.453125 15.921875 16.640625 10.984375 
Q 20.84375 6.0625 26.5625 6.0625 
Q 32.328125 6.0625 36.34375 10.765625 
Q 40.375 15.484375 40.375 25.140625 
Q 40.375 35.796875 36.265625 40.765625 
Q 32.171875 45.75 26.171875 45.75 
Q 20.3125 45.75 16.375 40.96875 
Q 12.453125 36.1875 12.453125 25.875 
z
" id="ArialMT-64"/>
      <path d="M 42.09375 16.703125 
L 51.171875 15.578125 
Q 49.03125 7.625 43.21875 3.21875 
Q 37.40625 -1.171875 28.375 -1.171875 
Q 17 -1.171875 10.328125 5.828125 
Q 3.65625 12.84375 3.65625 25.484375 
Q 3.65625 38.578125 10.390625 45.796875 
Q 17.140625 53.03125 27.875 53.03125 
Q 38.28125 53.03125 44.875 45.953125 
Q 51.46875 38.875 51.46875 26.03125 
Q 51.46875 25.25 51.421875 23.6875 
L 12.75 23.6875 
Q 13.234375 15.140625 17.578125 10.59375 
Q 21.921875 6.0625 28.421875 6.0625 
Q 33.25 6.0625 36.671875 8.59375 
Q 40.09375 11.140625 42.09375 16.703125 
z
M 13.234375 30.90625 
L 42.1875 30.90625 
Q 41.609375 37.453125 38.875 40.71875 
Q 34.671875 45.796875 27.984375 45.796875 
Q 21.921875 45.796875 17.796875 41.75 
Q 13.671875 37.703125 13.234375 30.90625 
z
" id="ArialMT-65"/>
      <path id="ArialMT-20"/>
      <path d="M 25.78125 7.859375 
L 27.046875 0.09375 
Q 23.34375 -0.6875 20.40625 -0.6875 
Q 15.625 -0.6875 12.984375 0.828125 
Q 10.359375 2.34375 9.28125 4.8125 
Q 8.203125 7.28125 8.203125 15.1875 
L 8.203125 45.015625 
L 1.765625 45.015625 
L 1.765625 51.859375 
L 8.203125 51.859375 
L 8.203125 64.703125 
L 16.9375 69.96875 
L 16.9375 51.859375 
L 25.78125 51.859375 
L 25.78125 45.015625 
L 16.9375 45.015625 
L 16.9375 14.703125 
Q 16.9375 10.9375 17.40625 9.859375 
Q 17.875 8.796875 18.921875 8.15625 
Q 19.96875 7.515625 21.921875 7.515625 
Q 23.390625 7.515625 25.78125 7.859375 
z
" id="ArialMT-74"/>
      <path d="M 6.640625 61.46875 
L 6.640625 71.578125 
L 15.4375 71.578125 
L 15.4375 61.46875 
z
M 6.640625 0 
L 6.640625 51.859375 
L 15.4375 51.859375 
L 15.4375 0 
z
" id="ArialMT-69"/>
      <path d="M 6.59375 0 
L 6.59375 51.859375 
L 14.453125 51.859375 
L 14.453125 44.578125 
Q 16.890625 48.390625 20.9375 50.703125 
Q 25 53.03125 30.171875 53.03125 
Q 35.9375 53.03125 39.625 50.640625 
Q 43.3125 48.25 44.828125 43.953125 
Q 50.984375 53.03125 60.84375 53.03125 
Q 68.5625 53.03125 72.703125 48.75 
Q 76.859375 44.484375 76.859375 35.59375 
L 76.859375 0 
L 68.109375 0 
L 68.109375 32.671875 
Q 68.109375 37.9375 67.25 40.25 
Q 66.40625 42.578125 64.15625 43.984375 
Q 61.921875 45.40625 58.890625 45.40625 
Q 53.421875 45.40625 49.796875 41.765625 
Q 46.1875 38.140625 46.1875 30.125 
L 46.1875 0 
L 37.40625 0 
L 37.40625 33.6875 
Q 37.40625 39.546875 35.25 42.46875 
Q 33.109375 45.40625 28.21875 45.40625 
Q 24.515625 45.40625 21.359375 43.453125 
Q 18.21875 41.5 16.796875 37.734375 
Q 15.375 33.984375 15.375 26.90625 
L 15.375 0 
z
" id="ArialMT-6d"/>
     </defs>
     <g style="fill:#262626;" transform="translate(234.578359 334.198906)scale(0.11 -0.11)">
      <use xlink:href="#ArialMT-4e"/>
      <use x="72.216797" xlink:href="#ArialMT-6f"/>
      <use x="127.832031" xlink:href="#ArialMT-64"/>
      <use x="183.447266" xlink:href="#ArialMT-65"/>
      <use x="239.0625" xlink:href="#ArialMT-20"/>
      <use x="266.845703" xlink:href="#ArialMT-74"/>
      <use x="294.628906" xlink:href="#ArialMT-69"/>
      <use x="316.845703" xlink:href="#ArialMT-6d"/>
      <use x="400.146484" xlink:href="#ArialMT-65"/>
     </g>
    </g>
   </g>
   <g id="matplotlib.axis_2">
    <g id="ytick_1">
     <g id="line2d_17">
      <path clip-path="url(#p976302c88b)" d="M 36.44375 306.18 
L 482.84375 306.18 
" style="fill:none;stroke:#ffffff;stroke-linecap:round;"/>
     </g>
     <g id="line2d_18"/>
     <g id="text_10">
      <!-- 0 -->
      <g style="fill:#262626;" transform="translate(23.882813 309.758906)scale(0.1 -0.1)">
       <use xlink:href="#ArialMT-30"/>
      </g>
     </g>
    </g>
    <g id="ytick_2">
     <g id="line2d_19">
      <path clip-path="url(#p976302c88b)" d="M 36.44375 257.671847 
L 482.84375 257.671847 
" style="fill:none;stroke:#ffffff;stroke-linecap:round;"/>
     </g>
     <g id="line2d_20"/>
     <g id="text_11">
      <!-- 1000 -->
      <g style="fill:#262626;" transform="translate(7.2 261.250753)scale(0.1 -0.1)">
       <use xlink:href="#ArialMT-31"/>
       <use x="55.615234" xlink:href="#ArialMT-30"/>
       <use x="111.230469" xlink:href="#ArialMT-30"/>
       <use x="166.845703" xlink:href="#ArialMT-30"/>
      </g>
     </g>
    </g>
    <g id="ytick_3">
     <g id="line2d_21">
      <path clip-path="url(#p976302c88b)" d="M 36.44375 209.163694 
L 482.84375 209.163694 
" style="fill:none;stroke:#ffffff;stroke-linecap:round;"/>
     </g>
     <g id="line2d_22"/>
     <g id="text_12">
      <!-- 2000 -->
      <g style="fill:#262626;" transform="translate(7.2 212.742601)scale(0.1 -0.1)">
       <use xlink:href="#ArialMT-32"/>
       <use x="55.615234" xlink:href="#ArialMT-30"/>
       <use x="111.230469" xlink:href="#ArialMT-30"/>
       <use x="166.845703" xlink:href="#ArialMT-30"/>
      </g>
     </g>
    </g>
    <g id="ytick_4">
     <g id="line2d_23">
      <path clip-path="url(#p976302c88b)" d="M 36.44375 160.655541 
L 482.84375 160.655541 
" style="fill:none;stroke:#ffffff;stroke-linecap:round;"/>
     </g>
     <g id="line2d_24"/>
     <g id="text_13">
      <!-- 3000 -->
      <defs>
       <path d="M 4.203125 18.890625 
L 12.984375 20.0625 
Q 14.5 12.59375 18.140625 9.296875 
Q 21.78125 6 27 6 
Q 33.203125 6 37.46875 10.296875 
Q 41.75 14.59375 41.75 20.953125 
Q 41.75 27 37.796875 30.921875 
Q 33.84375 34.859375 27.734375 34.859375 
Q 25.25 34.859375 21.53125 33.890625 
L 22.515625 41.609375 
Q 23.390625 41.5 23.921875 41.5 
Q 29.546875 41.5 34.03125 44.421875 
Q 38.53125 47.359375 38.53125 53.46875 
Q 38.53125 58.296875 35.25 61.46875 
Q 31.984375 64.65625 26.8125 64.65625 
Q 21.6875 64.65625 18.265625 61.421875 
Q 14.84375 58.203125 13.875 51.765625 
L 5.078125 53.328125 
Q 6.6875 62.15625 12.390625 67.015625 
Q 18.109375 71.875 26.609375 71.875 
Q 32.46875 71.875 37.390625 69.359375 
Q 42.328125 66.84375 44.9375 62.5 
Q 47.5625 58.15625 47.5625 53.265625 
Q 47.5625 48.640625 45.0625 44.828125 
Q 42.578125 41.015625 37.703125 38.765625 
Q 44.046875 37.3125 47.5625 32.6875 
Q 51.078125 28.078125 51.078125 21.140625 
Q 51.078125 11.765625 44.234375 5.25 
Q 37.40625 -1.265625 26.953125 -1.265625 
Q 17.53125 -1.265625 11.296875 4.34375 
Q 5.078125 9.96875 4.203125 18.890625 
z
" id="ArialMT-33"/>
      </defs>
      <g style="fill:#262626;" transform="translate(7.2 164.234448)scale(0.1 -0.1)">
       <use xlink:href="#ArialMT-33"/>
       <use x="55.615234" xlink:href="#ArialMT-30"/>
       <use x="111.230469" xlink:href="#ArialMT-30"/>
       <use x="166.845703" xlink:href="#ArialMT-30"/>
      </g>
     </g>
    </g>
    <g id="ytick_5">
     <g id="line2d_25">
      <path clip-path="url(#p976302c88b)" d="M 36.44375 112.147389 
L 482.84375 112.147389 
" style="fill:none;stroke:#ffffff;stroke-linecap:round;"/>
     </g>
     <g id="line2d_26"/>
     <g id="text_14">
      <!-- 4000 -->
      <defs>
       <path d="M 32.328125 0 
L 32.328125 17.140625 
L 1.265625 17.140625 
L 1.265625 25.203125 
L 33.9375 71.578125 
L 41.109375 71.578125 
L 41.109375 25.203125 
L 50.78125 25.203125 
L 50.78125 17.140625 
L 41.109375 17.140625 
L 41.109375 0 
z
M 32.328125 25.203125 
L 32.328125 57.46875 
L 9.90625 25.203125 
z
" id="ArialMT-34"/>
      </defs>
      <g style="fill:#262626;" transform="translate(7.2 115.726295)scale(0.1 -0.1)">
       <use xlink:href="#ArialMT-34"/>
       <use x="55.615234" xlink:href="#ArialMT-30"/>
       <use x="111.230469" xlink:href="#ArialMT-30"/>
       <use x="166.845703" xlink:href="#ArialMT-30"/>
      </g>
     </g>
    </g>
    <g id="ytick_6">
     <g id="line2d_27">
      <path clip-path="url(#p976302c88b)" d="M 36.44375 63.639236 
L 482.84375 63.639236 
" style="fill:none;stroke:#ffffff;stroke-linecap:round;"/>
     </g>
     <g id="line2d_28"/>
     <g id="text_15">
      <!-- 5000 -->
      <g style="fill:#262626;" transform="translate(7.2 67.218142)scale(0.1 -0.1)">
       <use xlink:href="#ArialMT-35"/>
       <use x="55.615234" xlink:href="#ArialMT-30"/>
       <use x="111.230469" xlink:href="#ArialMT-30"/>
       <use x="166.845703" xlink:href="#ArialMT-30"/>
      </g>
     </g>
    </g>
    <g id="ytick_7">
     <g id="line2d_29">
      <path clip-path="url(#p976302c88b)" d="M 36.44375 15.131083 
L 482.84375 15.131083 
" style="fill:none;stroke:#ffffff;stroke-linecap:round;"/>
     </g>
     <g id="line2d_30"/>
     <g id="text_16">
      <!-- 6000 -->
      <defs>
       <path d="M 49.75 54.046875 
L 41.015625 53.375 
Q 39.84375 58.546875 37.703125 60.890625 
Q 34.125 64.65625 28.90625 64.65625 
Q 24.703125 64.65625 21.53125 62.3125 
Q 17.390625 59.28125 14.984375 53.46875 
Q 12.59375 47.65625 12.5 36.921875 
Q 15.671875 41.75 20.265625 44.09375 
Q 24.859375 46.4375 29.890625 46.4375 
Q 38.671875 46.4375 44.84375 39.96875 
Q 51.03125 33.5 51.03125 23.25 
Q 51.03125 16.5 48.125 10.71875 
Q 45.21875 4.9375 40.140625 1.859375 
Q 35.0625 -1.21875 28.609375 -1.21875 
Q 17.625 -1.21875 10.6875 6.859375 
Q 3.765625 14.9375 3.765625 33.5 
Q 3.765625 54.25 11.421875 63.671875 
Q 18.109375 71.875 29.4375 71.875 
Q 37.890625 71.875 43.28125 67.140625 
Q 48.6875 62.40625 49.75 54.046875 
z
M 13.875 23.1875 
Q 13.875 18.65625 15.796875 14.5 
Q 17.71875 10.359375 21.1875 8.171875 
Q 24.65625 6 28.46875 6 
Q 34.03125 6 38.03125 10.484375 
Q 42.046875 14.984375 42.046875 22.703125 
Q 42.046875 30.125 38.078125 34.390625 
Q 34.125 38.671875 28.125 38.671875 
Q 22.171875 38.671875 18.015625 34.390625 
Q 13.875 30.125 13.875 23.1875 
z
" id="ArialMT-36"/>
      </defs>
      <g style="fill:#262626;" transform="translate(7.2 18.709989)scale(0.1 -0.1)">
       <use xlink:href="#ArialMT-36"/>
       <use x="55.615234" xlink:href="#ArialMT-30"/>
       <use x="111.230469" xlink:href="#ArialMT-30"/>
       <use x="166.845703" xlink:href="#ArialMT-30"/>
      </g>
     </g>
    </g>
   </g>
   <g id="patch_3">
    <path clip-path="url(#p976302c88b)" d="M 56.734659 306.18 
L 64.851023 306.18 
L 64.851023 21.437143 
L 56.734659 21.437143 
z
" style="fill:#4c72b0;opacity:0.4;"/>
   </g>
   <g id="patch_4">
    <path clip-path="url(#p976302c88b)" d="M 64.851023 306.18 
L 72.967386 306.18 
L 72.967386 295.508206 
L 64.851023 295.508206 
z
" style="fill:#4c72b0;opacity:0.4;"/>
   </g>
   <g id="patch_5">
    <path clip-path="url(#p976302c88b)" d="M 72.967386 306.18 
L 81.08375 306.18 
L 81.08375 301.038136 
L 72.967386 301.038136 
z
" style="fill:#4c72b0;opacity:0.4;"/>
   </g>
   <g id="patch_6">
    <path clip-path="url(#p976302c88b)" d="M 81.08375 306.18 
L 89.200114 306.18 
L 89.200114 302.541889 
L 81.08375 302.541889 
z
" style="fill:#4c72b0;opacity:0.4;"/>
   </g>
   <g id="patch_7">
    <path clip-path="url(#p976302c88b)" d="M 89.200114 306.18 
L 97.316477 306.18 
L 97.316477 303.366527 
L 89.200114 303.366527 
z
" style="fill:#4c72b0;opacity:0.4;"/>
   </g>
   <g id="patch_8">
    <path clip-path="url(#p976302c88b)" d="M 97.316477 306.18 
L 105.432841 306.18 
L 105.432841 303.221003 
L 97.316477 303.221003 
z
" style="fill:#4c72b0;opacity:0.4;"/>
   </g>
   <g id="patch_9">
    <path clip-path="url(#p976302c88b)" d="M 105.432841 306.18 
L 113.549205 306.18 
L 113.549205 304.191166 
L 105.432841 304.191166 
z
" style="fill:#4c72b0;opacity:0.4;"/>
   </g>
   <g id="patch_10">
    <path clip-path="url(#p976302c88b)" d="M 113.549205 306.18 
L 121.665568 306.18 
L 121.665568 304.094149 
L 113.549205 304.094149 
z
" style="fill:#4c72b0;opacity:0.4;"/>
   </g>
   <g id="patch_11">
    <path clip-path="url(#p976302c88b)" d="M 121.665568 306.18 
L 129.781932 306.18 
L 129.781932 304.288182 
L 121.665568 304.288182 
z
" style="fill:#4c72b0;opacity:0.4;"/>
   </g>
   <g id="patch_12">
    <path clip-path="url(#p976302c88b)" d="M 129.781932 306.18 
L 137.898295 306.18 
L 137.898295 304.530723 
L 129.781932 304.530723 
z
" style="fill:#4c72b0;opacity:0.4;"/>
   </g>
   <g id="patch_13">
    <path clip-path="url(#p976302c88b)" d="M 137.898295 306.18 
L 146.014659 306.18 
L 146.014659 304.967296 
L 137.898295 304.967296 
z
" style="fill:#4c72b0;opacity:0.4;"/>
   </g>
   <g id="patch_14">
    <path clip-path="url(#p976302c88b)" d="M 146.014659 306.18 
L 154.131023 306.18 
L 154.131023 305.306853 
L 146.014659 305.306853 
z
" style="fill:#4c72b0;opacity:0.4;"/>
   </g>
   <g id="patch_15">
    <path clip-path="url(#p976302c88b)" d="M 154.131023 306.18 
L 162.247386 306.18 
L 162.247386 305.355361 
L 154.131023 305.355361 
z
" style="fill:#4c72b0;opacity:0.4;"/>
   </g>
   <g id="patch_16">
    <path clip-path="url(#p976302c88b)" d="M 162.247386 306.18 
L 170.36375 306.18 
L 170.36375 305.355361 
L 162.247386 305.355361 
z
" style="fill:#4c72b0;opacity:0.4;"/>
   </g>
   <g id="patch_17">
    <path clip-path="url(#p976302c88b)" d="M 170.36375 306.18 
L 178.480114 306.18 
L 178.480114 305.791935 
L 170.36375 305.791935 
z
" style="fill:#4c72b0;opacity:0.4;"/>
   </g>
   <g id="patch_18">
    <path clip-path="url(#p976302c88b)" d="M 178.480114 306.18 
L 186.596477 306.18 
L 186.596477 305.306853 
L 178.480114 305.306853 
z
" style="fill:#4c72b0;opacity:0.4;"/>
   </g>
   <g id="patch_19">
    <path clip-path="url(#p976302c88b)" d="M 186.596477 306.18 
L 194.712841 306.18 
L 194.712841 305.549394 
L 186.596477 305.549394 
z
" style="fill:#4c72b0;opacity:0.4;"/>
   </g>
   <g id="patch_20">
    <path clip-path="url(#p976302c88b)" d="M 194.712841 306.18 
L 202.829205 306.18 
L 202.829205 305.840443 
L 194.712841 305.840443 
z
" style="fill:#4c72b0;opacity:0.4;"/>
   </g>
   <g id="patch_21">
    <path clip-path="url(#p976302c88b)" d="M 202.829205 306.18 
L 210.945568 306.18 
L 210.945568 305.743427 
L 202.829205 305.743427 
z
" style="fill:#4c72b0;opacity:0.4;"/>
   </g>
   <g id="patch_22">
    <path clip-path="url(#p976302c88b)" d="M 210.945568 306.18 
L 219.061932 306.18 
L 219.061932 305.840443 
L 210.945568 305.840443 
z
" style="fill:#4c72b0;opacity:0.4;"/>
   </g>
   <g id="patch_23">
    <path clip-path="url(#p976302c88b)" d="M 219.061932 306.18 
L 227.178295 306.18 
L 227.178295 305.40387 
L 219.061932 305.40387 
z
" style="fill:#4c72b0;opacity:0.4;"/>
   </g>
   <g id="patch_24">
    <path clip-path="url(#p976302c88b)" d="M 227.178295 306.18 
L 235.294659 306.18 
L 235.294659 305.597902 
L 227.178295 305.597902 
z
" style="fill:#4c72b0;opacity:0.4;"/>
   </g>
   <g id="patch_25">
    <path clip-path="url(#p976302c88b)" d="M 235.294659 306.18 
L 243.411023 306.18 
L 243.411023 306.034476 
L 235.294659 306.034476 
z
" style="fill:#4c72b0;opacity:0.4;"/>
   </g>
   <g id="patch_26">
    <path clip-path="url(#p976302c88b)" d="M 243.411023 306.18 
L 251.527386 306.18 
L 251.527386 305.888951 
L 243.411023 305.888951 
z
" style="fill:#4c72b0;opacity:0.4;"/>
   </g>
   <g id="patch_27">
    <path clip-path="url(#p976302c88b)" d="M 251.527386 306.18 
L 259.64375 306.18 
L 259.64375 305.937459 
L 251.527386 305.937459 
z
" style="fill:#4c72b0;opacity:0.4;"/>
   </g>
   <g id="patch_28">
    <path clip-path="url(#p976302c88b)" d="M 259.64375 306.18 
L 267.760114 306.18 
L 267.760114 305.840443 
L 259.64375 305.840443 
z
" style="fill:#4c72b0;opacity:0.4;"/>
   </g>
   <g id="patch_29">
    <path clip-path="url(#p976302c88b)" d="M 267.760114 306.18 
L 275.876477 306.18 
L 275.876477 306.131492 
L 267.760114 306.131492 
z
" style="fill:#4c72b0;opacity:0.4;"/>
   </g>
   <g id="patch_30">
    <path clip-path="url(#p976302c88b)" d="M 275.876477 306.18 
L 283.992841 306.18 
L 283.992841 305.888951 
L 275.876477 305.888951 
z
" style="fill:#4c72b0;opacity:0.4;"/>
   </g>
   <g id="patch_31">
    <path clip-path="url(#p976302c88b)" d="M 283.992841 306.18 
L 292.109205 306.18 
L 292.109205 305.985967 
L 283.992841 305.985967 
z
" style="fill:#4c72b0;opacity:0.4;"/>
   </g>
   <g id="patch_32">
    <path clip-path="url(#p976302c88b)" d="M 292.109205 306.18 
L 300.225568 306.18 
L 300.225568 306.131492 
L 292.109205 306.131492 
z
" style="fill:#4c72b0;opacity:0.4;"/>
   </g>
   <g id="patch_33">
    <path clip-path="url(#p976302c88b)" d="M 300.225568 306.18 
L 308.341932 306.18 
L 308.341932 306.18 
L 300.225568 306.18 
z
" style="fill:#4c72b0;opacity:0.4;"/>
   </g>
   <g id="patch_34">
    <path clip-path="url(#p976302c88b)" d="M 308.341932 306.18 
L 316.458295 306.18 
L 316.458295 306.131492 
L 308.341932 306.131492 
z
" style="fill:#4c72b0;opacity:0.4;"/>
   </g>
   <g id="patch_35">
    <path clip-path="url(#p976302c88b)" d="M 316.458295 306.18 
L 324.574659 306.18 
L 324.574659 306.034476 
L 316.458295 306.034476 
z
" style="fill:#4c72b0;opacity:0.4;"/>
   </g>
   <g id="patch_36">
    <path clip-path="url(#p976302c88b)" d="M 324.574659 306.18 
L 332.691023 306.18 
L 332.691023 306.082984 
L 324.574659 306.082984 
z
" style="fill:#4c72b0;opacity:0.4;"/>
   </g>
   <g id="patch_37">
    <path clip-path="url(#p976302c88b)" d="M 332.691023 306.18 
L 340.807386 306.18 
L 340.807386 306.18 
L 332.691023 306.18 
z
" style="fill:#4c72b0;opacity:0.4;"/>
   </g>
   <g id="patch_38">
    <path clip-path="url(#p976302c88b)" d="M 340.807386 306.18 
L 348.92375 306.18 
L 348.92375 306.18 
L 340.807386 306.18 
z
" style="fill:#4c72b0;opacity:0.4;"/>
   </g>
   <g id="patch_39">
    <path clip-path="url(#p976302c88b)" d="M 348.92375 306.18 
L 357.040114 306.18 
L 357.040114 306.034476 
L 348.92375 306.034476 
z
" style="fill:#4c72b0;opacity:0.4;"/>
   </g>
   <g id="patch_40">
    <path clip-path="url(#p976302c88b)" d="M 357.040114 306.18 
L 365.156477 306.18 
L 365.156477 306.18 
L 357.040114 306.18 
z
" style="fill:#4c72b0;opacity:0.4;"/>
   </g>
   <g id="patch_41">
    <path clip-path="url(#p976302c88b)" d="M 365.156477 306.18 
L 373.272841 306.18 
L 373.272841 306.131492 
L 365.156477 306.131492 
z
" style="fill:#4c72b0;opacity:0.4;"/>
   </g>
   <g id="patch_42">
    <path clip-path="url(#p976302c88b)" d="M 373.272841 306.18 
L 381.389205 306.18 
L 381.389205 306.131492 
L 373.272841 306.131492 
z
" style="fill:#4c72b0;opacity:0.4;"/>
   </g>
   <g id="patch_43">
    <path clip-path="url(#p976302c88b)" d="M 381.389205 306.18 
L 389.505568 306.18 
L 389.505568 306.18 
L 381.389205 306.18 
z
" style="fill:#4c72b0;opacity:0.4;"/>
   </g>
   <g id="patch_44">
    <path clip-path="url(#p976302c88b)" d="M 389.505568 306.18 
L 397.621932 306.18 
L 397.621932 306.18 
L 389.505568 306.18 
z
" style="fill:#4c72b0;opacity:0.4;"/>
   </g>
   <g id="patch_45">
    <path clip-path="url(#p976302c88b)" d="M 397.621932 306.18 
L 405.738295 306.18 
L 405.738295 306.18 
L 397.621932 306.18 
z
" style="fill:#4c72b0;opacity:0.4;"/>
   </g>
   <g id="patch_46">
    <path clip-path="url(#p976302c88b)" d="M 405.738295 306.18 
L 413.854659 306.18 
L 413.854659 306.082984 
L 405.738295 306.082984 
z
" style="fill:#4c72b0;opacity:0.4;"/>
   </g>
   <g id="patch_47">
    <path clip-path="url(#p976302c88b)" d="M 413.854659 306.18 
L 421.971023 306.18 
L 421.971023 306.18 
L 413.854659 306.18 
z
" style="fill:#4c72b0;opacity:0.4;"/>
   </g>
   <g id="patch_48">
    <path clip-path="url(#p976302c88b)" d="M 421.971023 306.18 
L 430.087386 306.18 
L 430.087386 306.18 
L 421.971023 306.18 
z
" style="fill:#4c72b0;opacity:0.4;"/>
   </g>
   <g id="patch_49">
    <path clip-path="url(#p976302c88b)" d="M 430.087386 306.18 
L 438.20375 306.18 
L 438.20375 306.18 
L 430.087386 306.18 
z
" style="fill:#4c72b0;opacity:0.4;"/>
   </g>
   <g id="patch_50">
    <path clip-path="url(#p976302c88b)" d="M 438.20375 306.18 
L 446.320114 306.18 
L 446.320114 306.18 
L 438.20375 306.18 
z
" style="fill:#4c72b0;opacity:0.4;"/>
   </g>
   <g id="patch_51">
    <path clip-path="url(#p976302c88b)" d="M 446.320114 306.18 
L 454.436477 306.18 
L 454.436477 306.18 
L 446.320114 306.18 
z
" style="fill:#4c72b0;opacity:0.4;"/>
   </g>
   <g id="patch_52">
    <path clip-path="url(#p976302c88b)" d="M 454.436477 306.18 
L 462.552841 306.18 
L 462.552841 306.131492 
L 454.436477 306.131492 
z
" style="fill:#4c72b0;opacity:0.4;"/>
   </g>
   <g id="patch_53">
    <path d="M 36.44375 306.18 
L 36.44375 7.2 
" style="fill:none;"/>
   </g>
   <g id="patch_54">
    <path d="M 482.84375 306.18 
L 482.84375 7.2 
" style="fill:none;"/>
   </g>
   <g id="patch_55">
    <path d="M 36.44375 306.18 
L 482.84375 306.18 
" style="fill:none;"/>
   </g>
   <g id="patch_56">
    <path d="M 36.44375 7.2 
L 482.84375 7.2 
" style="fill:none;"/>
   </g>
  </g>
 </g>
 <defs>
  <clipPath id="p976302c88b">
   <rect height="298.98" width="446.4" x="36.44375" y="7.2"/>
  </clipPath>
 </defs>
</svg>
