<?xml version="1.0" encoding="utf-8" standalone="no"?>
<!DOCTYPE svg PUBLIC "-//W3C//DTD SVG 1.1//EN"
  "http://www.w3.org/Graphics/SVG/1.1/DTD/svg11.dtd">
<!-- Created with matplotlib (http://matplotlib.org/) -->
<svg height="345pt" version="1.1" viewBox="0 0 501 345" width="501pt" xmlns="http://www.w3.org/2000/svg" xmlns:xlink="http://www.w3.org/1999/xlink">
 <defs>
  <style type="text/css">
*{stroke-linecap:butt;stroke-linejoin:round;}
  </style>
 </defs>
 <g id="figure_1">
  <g id="patch_1">
   <path d="M 0 345.338519 
L 501.449687 345.338519 
L 501.449687 0 
L 0 0 
z
" style="fill:#ffffff;"/>
  </g>
  <g id="axes_1">
   <g id="patch_2">
    <path d="M 47.849688 307.670394 
L 494.249687 307.670394 
L 494.249687 8.690394 
L 47.849688 8.690394 
z
" style="fill:#eaeaf2;"/>
   </g>
   <g id="matplotlib.axis_1">
    <g id="xtick_1">
     <g id="line2d_1">
      <path clip-path="url(#pe53c8fff2f)" d="M 65.358525 307.670394 
L 65.358525 8.690394 
" style="fill:none;stroke:#ffffff;stroke-linecap:round;"/>
     </g>
     <g id="line2d_2"/>
     <g id="text_1">
      <!-- 0 -->
      <defs>
       <path d="M 4.15625 35.296875 
Q 4.15625 48 6.765625 55.734375 
Q 9.375 63.484375 14.515625 67.671875 
Q 19.671875 71.875 27.484375 71.875 
Q 33.25 71.875 37.59375 69.546875 
Q 41.9375 67.234375 44.765625 62.859375 
Q 47.609375 58.5 49.21875 52.21875 
Q 50.828125 45.953125 50.828125 35.296875 
Q 50.828125 22.703125 48.234375 14.96875 
Q 45.65625 7.234375 40.5 3 
Q 35.359375 -1.21875 27.484375 -1.21875 
Q 17.140625 -1.21875 11.234375 6.203125 
Q 4.15625 15.140625 4.15625 35.296875 
z
M 13.1875 35.296875 
Q 13.1875 17.671875 17.3125 11.828125 
Q 21.4375 6 27.484375 6 
Q 33.546875 6 37.671875 11.859375 
Q 41.796875 17.71875 41.796875 35.296875 
Q 41.796875 52.984375 37.671875 58.78125 
Q 33.546875 64.59375 27.390625 64.59375 
Q 21.34375 64.59375 17.71875 59.46875 
Q 13.1875 52.9375 13.1875 35.296875 
z
" id="ArialMT-30"/>
      </defs>
      <g style="fill:#262626;" transform="translate(62.578057 321.828206)scale(0.1 -0.1)">
       <use xlink:href="#ArialMT-30"/>
      </g>
     </g>
    </g>
    <g id="xtick_2">
     <g id="line2d_3">
      <path clip-path="url(#pe53c8fff2f)" d="M 128.038087 307.670394 
L 128.038087 8.690394 
" style="fill:none;stroke:#ffffff;stroke-linecap:round;"/>
     </g>
     <g id="line2d_4"/>
     <g id="text_2">
      <!-- 5 -->
      <defs>
       <path d="M 4.15625 18.75 
L 13.375 19.53125 
Q 14.40625 12.796875 18.140625 9.390625 
Q 21.875 6 27.15625 6 
Q 33.5 6 37.890625 10.78125 
Q 42.28125 15.578125 42.28125 23.484375 
Q 42.28125 31 38.0625 35.34375 
Q 33.84375 39.703125 27 39.703125 
Q 22.75 39.703125 19.328125 37.765625 
Q 15.921875 35.84375 13.96875 32.765625 
L 5.71875 33.84375 
L 12.640625 70.609375 
L 48.25 70.609375 
L 48.25 62.203125 
L 19.671875 62.203125 
L 15.828125 42.96875 
Q 22.265625 47.46875 29.34375 47.46875 
Q 38.71875 47.46875 45.15625 40.96875 
Q 51.609375 34.46875 51.609375 24.265625 
Q 51.609375 14.546875 45.953125 7.46875 
Q 39.0625 -1.21875 27.15625 -1.21875 
Q 17.390625 -1.21875 11.203125 4.25 
Q 5.03125 9.71875 4.15625 18.75 
z
" id="ArialMT-35"/>
      </defs>
      <g style="fill:#262626;" transform="translate(125.257618 321.828206)scale(0.1 -0.1)">
       <use xlink:href="#ArialMT-35"/>
      </g>
     </g>
    </g>
    <g id="xtick_3">
     <g id="line2d_5">
      <path clip-path="url(#pe53c8fff2f)" d="M 190.717649 307.670394 
L 190.717649 8.690394 
" style="fill:none;stroke:#ffffff;stroke-linecap:round;"/>
     </g>
     <g id="line2d_6"/>
     <g id="text_3">
      <!-- 10 -->
      <defs>
       <path d="M 37.25 0 
L 28.46875 0 
L 28.46875 56 
Q 25.296875 52.984375 20.140625 49.953125 
Q 14.984375 46.921875 10.890625 45.40625 
L 10.890625 53.90625 
Q 18.265625 57.375 23.78125 62.296875 
Q 29.296875 67.234375 31.59375 71.875 
L 37.25 71.875 
z
" id="ArialMT-31"/>
      </defs>
      <g style="fill:#262626;" transform="translate(185.156711 321.828206)scale(0.1 -0.1)">
       <use xlink:href="#ArialMT-31"/>
       <use x="55.615234" xlink:href="#ArialMT-30"/>
      </g>
     </g>
    </g>
    <g id="xtick_4">
     <g id="line2d_7">
      <path clip-path="url(#pe53c8fff2f)" d="M 253.39721 307.670394 
L 253.39721 8.690394 
" style="fill:none;stroke:#ffffff;stroke-linecap:round;"/>
     </g>
     <g id="line2d_8"/>
     <g id="text_4">
      <!-- 15 -->
      <g style="fill:#262626;" transform="translate(247.836273 321.828206)scale(0.1 -0.1)">
       <use xlink:href="#ArialMT-31"/>
       <use x="55.615234" xlink:href="#ArialMT-35"/>
      </g>
     </g>
    </g>
    <g id="xtick_5">
     <g id="line2d_9">
      <path clip-path="url(#pe53c8fff2f)" d="M 316.076772 307.670394 
L 316.076772 8.690394 
" style="fill:none;stroke:#ffffff;stroke-linecap:round;"/>
     </g>
     <g id="line2d_10"/>
     <g id="text_5">
      <!-- 20 -->
      <defs>
       <path d="M 50.34375 8.453125 
L 50.34375 0 
L 3.03125 0 
Q 2.9375 3.171875 4.046875 6.109375 
Q 5.859375 10.9375 9.828125 15.625 
Q 13.8125 20.3125 21.34375 26.46875 
Q 33.015625 36.03125 37.109375 41.625 
Q 41.21875 47.21875 41.21875 52.203125 
Q 41.21875 57.421875 37.46875 61 
Q 33.734375 64.59375 27.734375 64.59375 
Q 21.390625 64.59375 17.578125 60.78125 
Q 13.765625 56.984375 13.71875 50.25 
L 4.6875 51.171875 
Q 5.609375 61.28125 11.65625 66.578125 
Q 17.71875 71.875 27.9375 71.875 
Q 38.234375 71.875 44.234375 66.15625 
Q 50.25 60.453125 50.25 52 
Q 50.25 47.703125 48.484375 43.546875 
Q 46.734375 39.40625 42.65625 34.8125 
Q 38.578125 30.21875 29.109375 22.21875 
Q 21.1875 15.578125 18.9375 13.203125 
Q 16.703125 10.84375 15.234375 8.453125 
z
" id="ArialMT-32"/>
      </defs>
      <g style="fill:#262626;" transform="translate(310.515835 321.828206)scale(0.1 -0.1)">
       <use xlink:href="#ArialMT-32"/>
       <use x="55.615234" xlink:href="#ArialMT-30"/>
      </g>
     </g>
    </g>
    <g id="xtick_6">
     <g id="line2d_11">
      <path clip-path="url(#pe53c8fff2f)" d="M 378.756334 307.670394 
L 378.756334 8.690394 
" style="fill:none;stroke:#ffffff;stroke-linecap:round;"/>
     </g>
     <g id="line2d_12"/>
     <g id="text_6">
      <!-- 25 -->
      <g style="fill:#262626;" transform="translate(373.195396 321.828206)scale(0.1 -0.1)">
       <use xlink:href="#ArialMT-32"/>
       <use x="55.615234" xlink:href="#ArialMT-35"/>
      </g>
     </g>
    </g>
    <g id="xtick_7">
     <g id="line2d_13">
      <path clip-path="url(#pe53c8fff2f)" d="M 441.435896 307.670394 
L 441.435896 8.690394 
" style="fill:none;stroke:#ffffff;stroke-linecap:round;"/>
     </g>
     <g id="line2d_14"/>
     <g id="text_7">
      <!-- 30 -->
      <defs>
       <path d="M 4.203125 18.890625 
L 12.984375 20.0625 
Q 14.5 12.59375 18.140625 9.296875 
Q 21.78125 6 27 6 
Q 33.203125 6 37.46875 10.296875 
Q 41.75 14.59375 41.75 20.953125 
Q 41.75 27 37.796875 30.921875 
Q 33.84375 34.859375 27.734375 34.859375 
Q 25.25 34.859375 21.53125 33.890625 
L 22.515625 41.609375 
Q 23.390625 41.5 23.921875 41.5 
Q 29.546875 41.5 34.03125 44.421875 
Q 38.53125 47.359375 38.53125 53.46875 
Q 38.53125 58.296875 35.25 61.46875 
Q 31.984375 64.65625 26.8125 64.65625 
Q 21.6875 64.65625 18.265625 61.421875 
Q 14.84375 58.203125 13.875 51.765625 
L 5.078125 53.328125 
Q 6.6875 62.15625 12.390625 67.015625 
Q 18.109375 71.875 26.609375 71.875 
Q 32.46875 71.875 37.390625 69.359375 
Q 42.328125 66.84375 44.9375 62.5 
Q 47.5625 58.15625 47.5625 53.265625 
Q 47.5625 48.640625 45.0625 44.828125 
Q 42.578125 41.015625 37.703125 38.765625 
Q 44.046875 37.3125 47.5625 32.6875 
Q 51.078125 28.078125 51.078125 21.140625 
Q 51.078125 11.765625 44.234375 5.25 
Q 37.40625 -1.265625 26.953125 -1.265625 
Q 17.53125 -1.265625 11.296875 4.34375 
Q 5.078125 9.96875 4.203125 18.890625 
z
" id="ArialMT-33"/>
      </defs>
      <g style="fill:#262626;" transform="translate(435.874958 321.828206)scale(0.1 -0.1)">
       <use xlink:href="#ArialMT-33"/>
       <use x="55.615234" xlink:href="#ArialMT-30"/>
      </g>
     </g>
    </g>
    <g id="text_8">
     <!-- TMRCA (units of N generations) -->
     <defs>
      <path d="M 25.921875 0 
L 25.921875 63.140625 
L 2.34375 63.140625 
L 2.34375 71.578125 
L 59.078125 71.578125 
L 59.078125 63.140625 
L 35.40625 63.140625 
L 35.40625 0 
z
" id="ArialMT-54"/>
      <path d="M 7.421875 0 
L 7.421875 71.578125 
L 21.6875 71.578125 
L 38.625 20.90625 
Q 40.96875 13.8125 42.046875 10.296875 
Q 43.265625 14.203125 45.84375 21.78125 
L 62.984375 71.578125 
L 75.734375 71.578125 
L 75.734375 0 
L 66.609375 0 
L 66.609375 59.90625 
L 45.796875 0 
L 37.25 0 
L 16.546875 60.9375 
L 16.546875 0 
z
" id="ArialMT-4d"/>
      <path d="M 7.859375 0 
L 7.859375 71.578125 
L 39.59375 71.578125 
Q 49.171875 71.578125 54.140625 69.640625 
Q 59.125 67.71875 62.109375 62.828125 
Q 65.09375 57.953125 65.09375 52.046875 
Q 65.09375 44.4375 60.15625 39.203125 
Q 55.21875 33.984375 44.921875 32.5625 
Q 48.6875 30.765625 50.640625 29 
Q 54.78125 25.203125 58.5 19.484375 
L 70.953125 0 
L 59.03125 0 
L 49.5625 14.890625 
Q 45.40625 21.34375 42.71875 24.75 
Q 40.046875 28.171875 37.921875 29.53125 
Q 35.796875 30.90625 33.59375 31.453125 
Q 31.984375 31.78125 28.328125 31.78125 
L 17.328125 31.78125 
L 17.328125 0 
z
M 17.328125 39.984375 
L 37.703125 39.984375 
Q 44.1875 39.984375 47.84375 41.328125 
Q 51.515625 42.671875 53.421875 45.625 
Q 55.328125 48.578125 55.328125 52.046875 
Q 55.328125 57.125 51.640625 60.390625 
Q 47.953125 63.671875 39.984375 63.671875 
L 17.328125 63.671875 
z
" id="ArialMT-52"/>
      <path d="M 58.796875 25.09375 
L 68.265625 22.703125 
Q 65.28125 11.03125 57.546875 4.90625 
Q 49.8125 -1.21875 38.625 -1.21875 
Q 27.046875 -1.21875 19.796875 3.484375 
Q 12.546875 8.203125 8.765625 17.140625 
Q 4.984375 26.078125 4.984375 36.328125 
Q 4.984375 47.515625 9.25 55.828125 
Q 13.53125 64.15625 21.40625 68.46875 
Q 29.296875 72.796875 38.765625 72.796875 
Q 49.515625 72.796875 56.828125 67.328125 
Q 64.15625 61.859375 67.046875 51.953125 
L 57.71875 49.75 
Q 55.21875 57.5625 50.484375 61.125 
Q 45.75 64.703125 38.578125 64.703125 
Q 30.328125 64.703125 24.78125 60.734375 
Q 19.234375 56.78125 16.984375 50.109375 
Q 14.75 43.453125 14.75 36.375 
Q 14.75 27.25 17.40625 20.4375 
Q 20.0625 13.625 25.671875 10.25 
Q 31.296875 6.890625 37.84375 6.890625 
Q 45.796875 6.890625 51.3125 11.46875 
Q 56.84375 16.0625 58.796875 25.09375 
z
" id="ArialMT-43"/>
      <path d="M -0.140625 0 
L 27.34375 71.578125 
L 37.546875 71.578125 
L 66.84375 0 
L 56.0625 0 
L 47.703125 21.6875 
L 17.78125 21.6875 
L 9.90625 0 
z
M 20.515625 29.390625 
L 44.78125 29.390625 
L 37.3125 49.21875 
Q 33.890625 58.25 32.234375 64.0625 
Q 30.859375 57.171875 28.375 50.390625 
z
" id="ArialMT-41"/>
      <path id="ArialMT-20"/>
      <path d="M 23.390625 -21.046875 
Q 16.109375 -11.859375 11.078125 0.4375 
Q 6.0625 12.75 6.0625 25.921875 
Q 6.0625 37.546875 9.8125 48.1875 
Q 14.203125 60.546875 23.390625 72.796875 
L 29.6875 72.796875 
Q 23.78125 62.640625 21.875 58.296875 
Q 18.890625 51.5625 17.1875 44.234375 
Q 15.09375 35.109375 15.09375 25.875 
Q 15.09375 2.390625 29.6875 -21.046875 
z
" id="ArialMT-28"/>
      <path d="M 40.578125 0 
L 40.578125 7.625 
Q 34.515625 -1.171875 24.125 -1.171875 
Q 19.53125 -1.171875 15.546875 0.578125 
Q 11.578125 2.34375 9.640625 5 
Q 7.71875 7.671875 6.9375 11.53125 
Q 6.390625 14.109375 6.390625 19.734375 
L 6.390625 51.859375 
L 15.1875 51.859375 
L 15.1875 23.09375 
Q 15.1875 16.21875 15.71875 13.8125 
Q 16.546875 10.359375 19.234375 8.375 
Q 21.921875 6.390625 25.875 6.390625 
Q 29.828125 6.390625 33.296875 8.421875 
Q 36.765625 10.453125 38.203125 13.9375 
Q 39.65625 17.4375 39.65625 24.078125 
L 39.65625 51.859375 
L 48.4375 51.859375 
L 48.4375 0 
z
" id="ArialMT-75"/>
      <path d="M 6.59375 0 
L 6.59375 51.859375 
L 14.5 51.859375 
L 14.5 44.484375 
Q 20.21875 53.03125 31 53.03125 
Q 35.6875 53.03125 39.625 51.34375 
Q 43.5625 49.65625 45.515625 46.921875 
Q 47.46875 44.1875 48.25 40.4375 
Q 48.734375 37.984375 48.734375 31.890625 
L 48.734375 0 
L 39.9375 0 
L 39.9375 31.546875 
Q 39.9375 36.921875 38.90625 39.578125 
Q 37.890625 42.234375 35.28125 43.8125 
Q 32.671875 45.40625 29.15625 45.40625 
Q 23.53125 45.40625 19.453125 41.84375 
Q 15.375 38.28125 15.375 28.328125 
L 15.375 0 
z
" id="ArialMT-6e"/>
      <path d="M 6.640625 61.46875 
L 6.640625 71.578125 
L 15.4375 71.578125 
L 15.4375 61.46875 
z
M 6.640625 0 
L 6.640625 51.859375 
L 15.4375 51.859375 
L 15.4375 0 
z
" id="ArialMT-69"/>
      <path d="M 25.78125 7.859375 
L 27.046875 0.09375 
Q 23.34375 -0.6875 20.40625 -0.6875 
Q 15.625 -0.6875 12.984375 0.828125 
Q 10.359375 2.34375 9.28125 4.8125 
Q 8.203125 7.28125 8.203125 15.1875 
L 8.203125 45.015625 
L 1.765625 45.015625 
L 1.765625 51.859375 
L 8.203125 51.859375 
L 8.203125 64.703125 
L 16.9375 69.96875 
L 16.9375 51.859375 
L 25.78125 51.859375 
L 25.78125 45.015625 
L 16.9375 45.015625 
L 16.9375 14.703125 
Q 16.9375 10.9375 17.40625 9.859375 
Q 17.875 8.796875 18.921875 8.15625 
Q 19.96875 7.515625 21.921875 7.515625 
Q 23.390625 7.515625 25.78125 7.859375 
z
" id="ArialMT-74"/>
      <path d="M 3.078125 15.484375 
L 11.765625 16.84375 
Q 12.5 11.625 15.84375 8.84375 
Q 19.1875 6.0625 25.203125 6.0625 
Q 31.25 6.0625 34.171875 8.515625 
Q 37.109375 10.984375 37.109375 14.3125 
Q 37.109375 17.28125 34.515625 19 
Q 32.71875 20.171875 25.53125 21.96875 
Q 15.875 24.421875 12.140625 26.203125 
Q 8.40625 27.984375 6.46875 31.125 
Q 4.546875 34.28125 4.546875 38.09375 
Q 4.546875 41.546875 6.125 44.5 
Q 7.71875 47.46875 10.453125 49.421875 
Q 12.5 50.921875 16.03125 51.96875 
Q 19.578125 53.03125 23.640625 53.03125 
Q 29.734375 53.03125 34.34375 51.265625 
Q 38.96875 49.515625 41.15625 46.5 
Q 43.359375 43.5 44.1875 38.484375 
L 35.59375 37.3125 
Q 35.015625 41.3125 32.203125 43.546875 
Q 29.390625 45.796875 24.265625 45.796875 
Q 18.21875 45.796875 15.625 43.796875 
Q 13.03125 41.796875 13.03125 39.109375 
Q 13.03125 37.40625 14.109375 36.03125 
Q 15.1875 34.625 17.484375 33.6875 
Q 18.796875 33.203125 25.25 31.453125 
Q 34.578125 28.953125 38.25 27.359375 
Q 41.9375 25.78125 44.03125 22.75 
Q 46.140625 19.734375 46.140625 15.234375 
Q 46.140625 10.84375 43.578125 6.953125 
Q 41.015625 3.078125 36.171875 0.953125 
Q 31.34375 -1.171875 25.25 -1.171875 
Q 15.140625 -1.171875 9.84375 3.03125 
Q 4.546875 7.234375 3.078125 15.484375 
z
" id="ArialMT-73"/>
      <path d="M 3.328125 25.921875 
Q 3.328125 40.328125 11.328125 47.265625 
Q 18.015625 53.03125 27.640625 53.03125 
Q 38.328125 53.03125 45.109375 46.015625 
Q 51.90625 39.015625 51.90625 26.65625 
Q 51.90625 16.65625 48.90625 10.90625 
Q 45.90625 5.171875 40.15625 2 
Q 34.421875 -1.171875 27.640625 -1.171875 
Q 16.75 -1.171875 10.03125 5.8125 
Q 3.328125 12.796875 3.328125 25.921875 
z
M 12.359375 25.921875 
Q 12.359375 15.96875 16.703125 11.015625 
Q 21.046875 6.0625 27.640625 6.0625 
Q 34.1875 6.0625 38.53125 11.03125 
Q 42.875 16.015625 42.875 26.21875 
Q 42.875 35.84375 38.5 40.796875 
Q 34.125 45.75 27.640625 45.75 
Q 21.046875 45.75 16.703125 40.8125 
Q 12.359375 35.890625 12.359375 25.921875 
z
" id="ArialMT-6f"/>
      <path d="M 8.6875 0 
L 8.6875 45.015625 
L 0.921875 45.015625 
L 0.921875 51.859375 
L 8.6875 51.859375 
L 8.6875 57.375 
Q 8.6875 62.59375 9.625 65.140625 
Q 10.890625 68.5625 14.078125 70.671875 
Q 17.28125 72.796875 23.046875 72.796875 
Q 26.765625 72.796875 31.25 71.921875 
L 29.9375 64.265625 
Q 27.203125 64.75 24.75 64.75 
Q 20.75 64.75 19.09375 63.03125 
Q 17.4375 61.328125 17.4375 56.640625 
L 17.4375 51.859375 
L 27.546875 51.859375 
L 27.546875 45.015625 
L 17.4375 45.015625 
L 17.4375 0 
z
" id="ArialMT-66"/>
      <path d="M 7.625 0 
L 7.625 71.578125 
L 17.328125 71.578125 
L 54.9375 15.375 
L 54.9375 71.578125 
L 64.015625 71.578125 
L 64.015625 0 
L 54.296875 0 
L 16.703125 56.25 
L 16.703125 0 
z
" id="ArialMT-4e"/>
      <path d="M 4.984375 -4.296875 
L 13.53125 -5.5625 
Q 14.0625 -9.515625 16.5 -11.328125 
Q 19.78125 -13.765625 25.4375 -13.765625 
Q 31.546875 -13.765625 34.859375 -11.328125 
Q 38.1875 -8.890625 39.359375 -4.5 
Q 40.046875 -1.8125 39.984375 6.78125 
Q 34.234375 0 25.640625 0 
Q 14.9375 0 9.078125 7.71875 
Q 3.21875 15.4375 3.21875 26.21875 
Q 3.21875 33.640625 5.90625 39.90625 
Q 8.59375 46.1875 13.6875 49.609375 
Q 18.796875 53.03125 25.6875 53.03125 
Q 34.859375 53.03125 40.828125 45.609375 
L 40.828125 51.859375 
L 48.921875 51.859375 
L 48.921875 7.03125 
Q 48.921875 -5.078125 46.453125 -10.125 
Q 44 -15.1875 38.640625 -18.109375 
Q 33.296875 -21.046875 25.484375 -21.046875 
Q 16.21875 -21.046875 10.5 -16.875 
Q 4.78125 -12.703125 4.984375 -4.296875 
z
M 12.25 26.859375 
Q 12.25 16.65625 16.296875 11.96875 
Q 20.359375 7.28125 26.46875 7.28125 
Q 32.515625 7.28125 36.609375 11.9375 
Q 40.71875 16.609375 40.71875 26.5625 
Q 40.71875 36.078125 36.5 40.90625 
Q 32.28125 45.75 26.3125 45.75 
Q 20.453125 45.75 16.34375 40.984375 
Q 12.25 36.234375 12.25 26.859375 
z
" id="ArialMT-67"/>
      <path d="M 42.09375 16.703125 
L 51.171875 15.578125 
Q 49.03125 7.625 43.21875 3.21875 
Q 37.40625 -1.171875 28.375 -1.171875 
Q 17 -1.171875 10.328125 5.828125 
Q 3.65625 12.84375 3.65625 25.484375 
Q 3.65625 38.578125 10.390625 45.796875 
Q 17.140625 53.03125 27.875 53.03125 
Q 38.28125 53.03125 44.875 45.953125 
Q 51.46875 38.875 51.46875 26.03125 
Q 51.46875 25.25 51.421875 23.6875 
L 12.75 23.6875 
Q 13.234375 15.140625 17.578125 10.59375 
Q 21.921875 6.0625 28.421875 6.0625 
Q 33.25 6.0625 36.671875 8.59375 
Q 40.09375 11.140625 42.09375 16.703125 
z
M 13.234375 30.90625 
L 42.1875 30.90625 
Q 41.609375 37.453125 38.875 40.71875 
Q 34.671875 45.796875 27.984375 45.796875 
Q 21.921875 45.796875 17.796875 41.75 
Q 13.671875 37.703125 13.234375 30.90625 
z
" id="ArialMT-65"/>
      <path d="M 6.5 0 
L 6.5 51.859375 
L 14.40625 51.859375 
L 14.40625 44 
Q 17.4375 49.515625 20 51.265625 
Q 22.5625 53.03125 25.640625 53.03125 
Q 30.078125 53.03125 34.671875 50.203125 
L 31.640625 42.046875 
Q 28.421875 43.953125 25.203125 43.953125 
Q 22.3125 43.953125 20.015625 42.21875 
Q 17.71875 40.484375 16.75 37.40625 
Q 15.28125 32.71875 15.28125 27.15625 
L 15.28125 0 
z
" id="ArialMT-72"/>
      <path d="M 40.4375 6.390625 
Q 35.546875 2.25 31.03125 0.53125 
Q 26.515625 -1.171875 21.34375 -1.171875 
Q 12.796875 -1.171875 8.203125 3 
Q 3.609375 7.171875 3.609375 13.671875 
Q 3.609375 17.484375 5.34375 20.625 
Q 7.078125 23.78125 9.890625 25.6875 
Q 12.703125 27.59375 16.21875 28.5625 
Q 18.796875 29.25 24.03125 29.890625 
Q 34.671875 31.15625 39.703125 32.90625 
Q 39.75 34.71875 39.75 35.203125 
Q 39.75 40.578125 37.25 42.78125 
Q 33.890625 45.75 27.25 45.75 
Q 21.046875 45.75 18.09375 43.578125 
Q 15.140625 41.40625 13.71875 35.890625 
L 5.125 37.0625 
Q 6.296875 42.578125 8.984375 45.96875 
Q 11.671875 49.359375 16.75 51.1875 
Q 21.828125 53.03125 28.515625 53.03125 
Q 35.15625 53.03125 39.296875 51.46875 
Q 43.453125 49.90625 45.40625 47.53125 
Q 47.359375 45.171875 48.140625 41.546875 
Q 48.578125 39.3125 48.578125 33.453125 
L 48.578125 21.734375 
Q 48.578125 9.46875 49.140625 6.21875 
Q 49.703125 2.984375 51.375 0 
L 42.1875 0 
Q 40.828125 2.734375 40.4375 6.390625 
z
M 39.703125 26.03125 
Q 34.90625 24.078125 25.34375 22.703125 
Q 19.921875 21.921875 17.671875 20.9375 
Q 15.4375 19.96875 14.203125 18.09375 
Q 12.984375 16.21875 12.984375 13.921875 
Q 12.984375 10.40625 15.640625 8.0625 
Q 18.3125 5.71875 23.4375 5.71875 
Q 28.515625 5.71875 32.46875 7.9375 
Q 36.421875 10.15625 38.28125 14.015625 
Q 39.703125 17 39.703125 22.796875 
z
" id="ArialMT-61"/>
      <path d="M 12.359375 -21.046875 
L 6.0625 -21.046875 
Q 20.65625 2.390625 20.65625 25.875 
Q 20.65625 35.0625 18.5625 44.09375 
Q 16.890625 51.421875 13.921875 58.15625 
Q 12.015625 62.546875 6.0625 72.796875 
L 12.359375 72.796875 
Q 21.53125 60.546875 25.921875 48.1875 
Q 29.6875 37.546875 29.6875 25.921875 
Q 29.6875 12.75 24.625 0.4375 
Q 19.578125 -11.859375 12.359375 -21.046875 
z
" id="ArialMT-29"/>
     </defs>
     <g style="fill:#262626;" transform="translate(192.809609 335.823363)scale(0.11 -0.11)">
      <use xlink:href="#ArialMT-54"/>
      <use x="61.083984" xlink:href="#ArialMT-4d"/>
      <use x="144.384766" xlink:href="#ArialMT-52"/>
      <use x="216.601562" xlink:href="#ArialMT-43"/>
      <use x="288.818359" xlink:href="#ArialMT-41"/>
      <use x="355.439453" xlink:href="#ArialMT-20"/>
      <use x="383.222656" xlink:href="#ArialMT-28"/>
      <use x="416.523438" xlink:href="#ArialMT-75"/>
      <use x="472.138672" xlink:href="#ArialMT-6e"/>
      <use x="527.753906" xlink:href="#ArialMT-69"/>
      <use x="549.970703" xlink:href="#ArialMT-74"/>
      <use x="577.753906" xlink:href="#ArialMT-73"/>
      <use x="627.753906" xlink:href="#ArialMT-20"/>
      <use x="655.537109" xlink:href="#ArialMT-6f"/>
      <use x="711.152344" xlink:href="#ArialMT-66"/>
      <use x="738.935547" xlink:href="#ArialMT-20"/>
      <use x="766.71875" xlink:href="#ArialMT-4e"/>
      <use x="838.935547" xlink:href="#ArialMT-20"/>
      <use x="866.71875" xlink:href="#ArialMT-67"/>
      <use x="922.333984" xlink:href="#ArialMT-65"/>
      <use x="977.949219" xlink:href="#ArialMT-6e"/>
      <use x="1033.564453" xlink:href="#ArialMT-65"/>
      <use x="1089.179688" xlink:href="#ArialMT-72"/>
      <use x="1122.480469" xlink:href="#ArialMT-61"/>
      <use x="1178.095703" xlink:href="#ArialMT-74"/>
      <use x="1205.878906" xlink:href="#ArialMT-69"/>
      <use x="1228.095703" xlink:href="#ArialMT-6f"/>
      <use x="1283.710938" xlink:href="#ArialMT-6e"/>
      <use x="1339.326172" xlink:href="#ArialMT-73"/>
      <use x="1389.326172" xlink:href="#ArialMT-29"/>
     </g>
    </g>
   </g>
   <g id="matplotlib.axis_2">
    <g id="ytick_1">
     <g id="line2d_15">
      <path clip-path="url(#pe53c8fff2f)" d="M 47.849688 307.670394 
L 494.249687 307.670394 
" style="fill:none;stroke:#ffffff;stroke-linecap:round;"/>
     </g>
     <g id="line2d_16"/>
     <g id="text_9">
      <!-- 0.00 -->
      <defs>
       <path d="M 9.078125 0 
L 9.078125 10.015625 
L 19.09375 10.015625 
L 19.09375 0 
z
" id="ArialMT-2e"/>
      </defs>
      <g style="fill:#262626;" transform="translate(21.38875 311.2493)scale(0.1 -0.1)">
       <use xlink:href="#ArialMT-30"/>
       <use x="55.615234" xlink:href="#ArialMT-2e"/>
       <use x="83.398438" xlink:href="#ArialMT-30"/>
       <use x="139.013672" xlink:href="#ArialMT-30"/>
      </g>
     </g>
    </g>
    <g id="ytick_2">
     <g id="line2d_17">
      <path clip-path="url(#pe53c8fff2f)" d="M 47.849688 248.292096 
L 494.249687 248.292096 
" style="fill:none;stroke:#ffffff;stroke-linecap:round;"/>
     </g>
     <g id="line2d_18"/>
     <g id="text_10">
      <!-- 0.05 -->
      <g style="fill:#262626;" transform="translate(21.38875 251.871003)scale(0.1 -0.1)">
       <use xlink:href="#ArialMT-30"/>
       <use x="55.615234" xlink:href="#ArialMT-2e"/>
       <use x="83.398438" xlink:href="#ArialMT-30"/>
       <use x="139.013672" xlink:href="#ArialMT-35"/>
      </g>
     </g>
    </g>
    <g id="ytick_3">
     <g id="line2d_19">
      <path clip-path="url(#pe53c8fff2f)" d="M 47.849688 188.913799 
L 494.249687 188.913799 
" style="fill:none;stroke:#ffffff;stroke-linecap:round;"/>
     </g>
     <g id="line2d_20"/>
     <g id="text_11">
      <!-- 0.10 -->
      <g style="fill:#262626;" transform="translate(21.38875 192.492705)scale(0.1 -0.1)">
       <use xlink:href="#ArialMT-30"/>
       <use x="55.615234" xlink:href="#ArialMT-2e"/>
       <use x="83.398438" xlink:href="#ArialMT-31"/>
       <use x="139.013672" xlink:href="#ArialMT-30"/>
      </g>
     </g>
    </g>
    <g id="ytick_4">
     <g id="line2d_21">
      <path clip-path="url(#pe53c8fff2f)" d="M 47.849688 129.535501 
L 494.249687 129.535501 
" style="fill:none;stroke:#ffffff;stroke-linecap:round;"/>
     </g>
     <g id="line2d_22"/>
     <g id="text_12">
      <!-- 0.15 -->
      <g style="fill:#262626;" transform="translate(21.38875 133.114408)scale(0.1 -0.1)">
       <use xlink:href="#ArialMT-30"/>
       <use x="55.615234" xlink:href="#ArialMT-2e"/>
       <use x="83.398438" xlink:href="#ArialMT-31"/>
       <use x="139.013672" xlink:href="#ArialMT-35"/>
      </g>
     </g>
    </g>
    <g id="ytick_5">
     <g id="line2d_23">
      <path clip-path="url(#pe53c8fff2f)" d="M 47.849688 70.157204 
L 494.249687 70.157204 
" style="fill:none;stroke:#ffffff;stroke-linecap:round;"/>
     </g>
     <g id="line2d_24"/>
     <g id="text_13">
      <!-- 0.20 -->
      <g style="fill:#262626;" transform="translate(21.38875 73.73611)scale(0.1 -0.1)">
       <use xlink:href="#ArialMT-30"/>
       <use x="55.615234" xlink:href="#ArialMT-2e"/>
       <use x="83.398438" xlink:href="#ArialMT-32"/>
       <use x="139.013672" xlink:href="#ArialMT-30"/>
      </g>
     </g>
    </g>
    <g id="ytick_6">
     <g id="line2d_25">
      <path clip-path="url(#pe53c8fff2f)" d="M 47.849688 10.778906 
L 494.249687 10.778906 
" style="fill:none;stroke:#ffffff;stroke-linecap:round;"/>
     </g>
     <g id="line2d_26"/>
     <g id="text_14">
      <!-- 0.25 -->
      <g style="fill:#262626;" transform="translate(21.38875 14.357812)scale(0.1 -0.1)">
       <use xlink:href="#ArialMT-30"/>
       <use x="55.615234" xlink:href="#ArialMT-2e"/>
       <use x="83.398438" xlink:href="#ArialMT-32"/>
       <use x="139.013672" xlink:href="#ArialMT-35"/>
      </g>
     </g>
    </g>
    <g id="text_15">
     <!-- Density -->
     <defs>
      <path d="M 7.71875 0 
L 7.71875 71.578125 
L 32.375 71.578125 
Q 40.71875 71.578125 45.125 70.5625 
Q 51.265625 69.140625 55.609375 65.4375 
Q 61.28125 60.640625 64.078125 53.1875 
Q 66.890625 45.75 66.890625 36.1875 
Q 66.890625 28.03125 64.984375 21.734375 
Q 63.09375 15.4375 60.109375 11.296875 
Q 57.125 7.171875 53.578125 4.796875 
Q 50.046875 2.4375 45.046875 1.21875 
Q 40.046875 0 33.546875 0 
z
M 17.1875 8.453125 
L 32.46875 8.453125 
Q 39.546875 8.453125 43.578125 9.765625 
Q 47.609375 11.078125 50 13.484375 
Q 53.375 16.84375 55.25 22.53125 
Q 57.125 28.21875 57.125 36.328125 
Q 57.125 47.5625 53.4375 53.59375 
Q 49.75 59.625 44.484375 61.671875 
Q 40.671875 63.140625 32.234375 63.140625 
L 17.1875 63.140625 
z
" id="ArialMT-44"/>
      <path d="M 6.203125 -19.96875 
L 5.21875 -11.71875 
Q 8.109375 -12.5 10.25 -12.5 
Q 13.1875 -12.5 14.9375 -11.515625 
Q 16.703125 -10.546875 17.828125 -8.796875 
Q 18.65625 -7.46875 20.515625 -2.25 
Q 20.75 -1.515625 21.296875 -0.09375 
L 1.609375 51.859375 
L 11.078125 51.859375 
L 21.875 21.828125 
Q 23.96875 16.109375 25.640625 9.8125 
Q 27.15625 15.875 29.25 21.625 
L 40.328125 51.859375 
L 49.125 51.859375 
L 29.390625 -0.875 
Q 26.21875 -9.421875 24.46875 -12.640625 
Q 22.125 -17 19.09375 -19.015625 
Q 16.0625 -21.046875 11.859375 -21.046875 
Q 9.328125 -21.046875 6.203125 -19.96875 
z
" id="ArialMT-79"/>
     </defs>
     <g style="fill:#262626;" transform="translate(15.073594 176.519456)rotate(-90)scale(0.11 -0.11)">
      <use xlink:href="#ArialMT-44"/>
      <use x="72.216797" xlink:href="#ArialMT-65"/>
      <use x="127.832031" xlink:href="#ArialMT-6e"/>
      <use x="183.447266" xlink:href="#ArialMT-73"/>
      <use x="233.447266" xlink:href="#ArialMT-69"/>
      <use x="255.664062" xlink:href="#ArialMT-74"/>
      <use x="283.447266" xlink:href="#ArialMT-79"/>
     </g>
    </g>
   </g>
   <g id="patch_3">
    <path clip-path="url(#pe53c8fff2f)" d="M 71.870745 307.670394 
L 79.837903 307.670394 
L 79.837903 295.897544 
L 71.870745 295.897544 
z
" style="fill:#4c72b0;opacity:0.4;"/>
   </g>
   <g id="patch_4">
    <path clip-path="url(#pe53c8fff2f)" d="M 79.837903 307.670394 
L 87.805061 307.670394 
L 87.805061 188.953847 
L 79.837903 188.953847 
z
" style="fill:#4c72b0;opacity:0.4;"/>
   </g>
   <g id="patch_5">
    <path clip-path="url(#pe53c8fff2f)" d="M 87.805061 307.670394 
L 95.772218 307.670394 
L 95.772218 62.422852 
L 87.805061 62.422852 
z
" style="fill:#4c72b0;opacity:0.4;"/>
   </g>
   <g id="patch_6">
    <path clip-path="url(#pe53c8fff2f)" d="M 95.772218 307.670394 
L 103.739376 307.670394 
L 103.739376 24.839294 
L 95.772218 24.839294 
z
" style="fill:#4c72b0;opacity:0.4;"/>
   </g>
   <g id="patch_7">
    <path clip-path="url(#pe53c8fff2f)" d="M 103.739376 307.670394 
L 111.706534 307.670394 
L 111.706534 45.171139 
L 103.739376 45.171139 
z
" style="fill:#4c72b0;opacity:0.4;"/>
   </g>
   <g id="patch_8">
    <path clip-path="url(#pe53c8fff2f)" d="M 111.706534 307.670394 
L 119.673691 307.670394 
L 119.673691 86.365175 
L 111.706534 86.365175 
z
" style="fill:#4c72b0;opacity:0.4;"/>
   </g>
   <g id="patch_9">
    <path clip-path="url(#pe53c8fff2f)" d="M 119.673691 307.670394 
L 127.640849 307.670394 
L 127.640849 132.452011 
L 119.673691 132.452011 
z
" style="fill:#4c72b0;opacity:0.4;"/>
   </g>
   <g id="patch_10">
    <path clip-path="url(#pe53c8fff2f)" d="M 127.640849 307.670394 
L 135.608007 307.670394 
L 135.608007 171.832554 
L 127.640849 171.832554 
z
" style="fill:#4c72b0;opacity:0.4;"/>
   </g>
   <g id="patch_11">
    <path clip-path="url(#pe53c8fff2f)" d="M 135.608007 307.670394 
L 143.575165 307.670394 
L 143.575165 204.604617 
L 135.608007 204.604617 
z
" style="fill:#4c72b0;opacity:0.4;"/>
   </g>
   <g id="patch_12">
    <path clip-path="url(#pe53c8fff2f)" d="M 143.575165 307.670394 
L 151.542322 307.670394 
L 151.542322 228.527543 
L 143.575165 228.527543 
z
" style="fill:#4c72b0;opacity:0.4;"/>
   </g>
   <g id="patch_13">
    <path clip-path="url(#pe53c8fff2f)" d="M 151.542322 307.670394 
L 159.50948 307.670394 
L 159.50948 248.547784 
L 151.542322 248.547784 
z
" style="fill:#4c72b0;opacity:0.4;"/>
   </g>
   <g id="patch_14">
    <path clip-path="url(#pe53c8fff2f)" d="M 159.50948 307.670394 
L 167.476638 307.670394 
L 167.476638 263.548932 
L 159.50948 263.548932 
z
" style="fill:#4c72b0;opacity:0.4;"/>
   </g>
   <g id="patch_15">
    <path clip-path="url(#pe53c8fff2f)" d="M 167.476638 307.670394 
L 175.443795 307.670394 
L 175.443795 275.191362 
L 167.476638 275.191362 
z
" style="fill:#4c72b0;opacity:0.4;"/>
   </g>
   <g id="patch_16">
    <path clip-path="url(#pe53c8fff2f)" d="M 175.443795 307.670394 
L 183.410953 307.670394 
L 183.410953 282.787068 
L 175.443795 282.787068 
z
" style="fill:#4c72b0;opacity:0.4;"/>
   </g>
   <g id="patch_17">
    <path clip-path="url(#pe53c8fff2f)" d="M 183.410953 307.670394 
L 191.378111 307.670394 
L 191.378111 289.407103 
L 183.410953 289.407103 
z
" style="fill:#4c72b0;opacity:0.4;"/>
   </g>
   <g id="patch_18">
    <path clip-path="url(#pe53c8fff2f)" d="M 191.378111 307.670394 
L 199.345268 307.670394 
L 199.345268 293.673394 
L 191.378111 293.673394 
z
" style="fill:#4c72b0;opacity:0.4;"/>
   </g>
   <g id="patch_19">
    <path clip-path="url(#pe53c8fff2f)" d="M 199.345268 307.670394 
L 207.312426 307.670394 
L 207.312426 297.288412 
L 199.345268 297.288412 
z
" style="fill:#4c72b0;opacity:0.4;"/>
   </g>
   <g id="patch_20">
    <path clip-path="url(#pe53c8fff2f)" d="M 207.312426 307.670394 
L 215.279584 307.670394 
L 215.279584 300.185709 
L 207.312426 300.185709 
z
" style="fill:#4c72b0;opacity:0.4;"/>
   </g>
   <g id="patch_21">
    <path clip-path="url(#pe53c8fff2f)" d="M 215.279584 307.670394 
L 223.246741 307.670394 
L 223.246741 301.809352 
L 215.279584 301.809352 
z
" style="fill:#4c72b0;opacity:0.4;"/>
   </g>
   <g id="patch_22">
    <path clip-path="url(#pe53c8fff2f)" d="M 223.246741 307.670394 
L 231.213899 307.670394 
L 231.213899 303.428454 
L 223.246741 303.428454 
z
" style="fill:#4c72b0;opacity:0.4;"/>
   </g>
   <g id="patch_23">
    <path clip-path="url(#pe53c8fff2f)" d="M 231.213899 307.670394 
L 239.181057 307.670394 
L 239.181057 304.568387 
L 231.213899 304.568387 
z
" style="fill:#4c72b0;opacity:0.4;"/>
   </g>
   <g id="patch_24">
    <path clip-path="url(#pe53c8fff2f)" d="M 239.181057 307.670394 
L 247.148214 307.670394 
L 247.148214 305.445006 
L 239.181057 305.445006 
z
" style="fill:#4c72b0;opacity:0.4;"/>
   </g>
   <g id="patch_25">
    <path clip-path="url(#pe53c8fff2f)" d="M 247.148214 307.670394 
L 255.115372 307.670394 
L 255.115372 305.882902 
L 247.148214 305.882902 
z
" style="fill:#4c72b0;opacity:0.4;"/>
   </g>
   <g id="patch_26">
    <path clip-path="url(#pe53c8fff2f)" d="M 255.115372 307.670394 
L 263.08253 307.670394 
L 263.08253 306.390961 
L 255.115372 306.390961 
z
" style="fill:#4c72b0;opacity:0.4;"/>
   </g>
   <g id="patch_27">
    <path clip-path="url(#pe53c8fff2f)" d="M 263.08253 307.670394 
L 271.049688 307.670394 
L 271.049688 306.738471 
L 263.08253 306.738471 
z
" style="fill:#4c72b0;opacity:0.4;"/>
   </g>
   <g id="patch_28">
    <path clip-path="url(#pe53c8fff2f)" d="M 271.049688 307.670394 
L 279.016845 307.670394 
L 279.016845 306.907274 
L 271.049688 306.907274 
z
" style="fill:#4c72b0;opacity:0.4;"/>
   </g>
   <g id="patch_29">
    <path clip-path="url(#pe53c8fff2f)" d="M 279.016845 307.670394 
L 286.984003 307.670394 
L 286.984003 307.145826 
L 279.016845 307.145826 
z
" style="fill:#4c72b0;opacity:0.4;"/>
   </g>
   <g id="patch_30">
    <path clip-path="url(#pe53c8fff2f)" d="M 286.984003 307.670394 
L 294.951161 307.670394 
L 294.951161 307.294406 
L 286.984003 307.294406 
z
" style="fill:#4c72b0;opacity:0.4;"/>
   </g>
   <g id="patch_31">
    <path clip-path="url(#pe53c8fff2f)" d="M 294.951161 307.670394 
L 302.918318 307.670394 
L 302.918318 307.364568 
L 294.951161 307.364568 
z
" style="fill:#4c72b0;opacity:0.4;"/>
   </g>
   <g id="patch_32">
    <path clip-path="url(#pe53c8fff2f)" d="M 302.918318 307.670394 
L 310.885476 307.670394 
L 310.885476 307.464446 
L 302.918318 307.464446 
z
" style="fill:#4c72b0;opacity:0.4;"/>
   </g>
   <g id="patch_33">
    <path clip-path="url(#pe53c8fff2f)" d="M 310.885476 307.670394 
L 318.852634 307.670394 
L 318.852634 307.502004 
L 310.885476 307.502004 
z
" style="fill:#4c72b0;opacity:0.4;"/>
   </g>
   <g id="patch_34">
    <path clip-path="url(#pe53c8fff2f)" d="M 318.852634 307.670394 
L 326.819791 307.670394 
L 326.819791 307.556483 
L 318.852634 307.556483 
z
" style="fill:#4c72b0;opacity:0.4;"/>
   </g>
   <g id="patch_35">
    <path clip-path="url(#pe53c8fff2f)" d="M 326.819791 307.670394 
L 334.786949 307.670394 
L 334.786949 307.591152 
L 326.819791 307.591152 
z
" style="fill:#4c72b0;opacity:0.4;"/>
   </g>
   <g id="patch_36">
    <path clip-path="url(#pe53c8fff2f)" d="M 334.786949 307.670394 
L 342.754107 307.670394 
L 342.754107 307.60601 
L 334.786949 307.60601 
z
" style="fill:#4c72b0;opacity:0.4;"/>
   </g>
   <g id="patch_37">
    <path clip-path="url(#pe53c8fff2f)" d="M 342.754107 307.670394 
L 350.721264 307.670394 
L 350.721264 307.628296 
L 342.754107 307.628296 
z
" style="fill:#4c72b0;opacity:0.4;"/>
   </g>
   <g id="patch_38">
    <path clip-path="url(#pe53c8fff2f)" d="M 350.721264 307.670394 
L 358.688422 307.670394 
L 358.688422 307.62582 
L 350.721264 307.62582 
z
" style="fill:#4c72b0;opacity:0.4;"/>
   </g>
   <g id="patch_39">
    <path clip-path="url(#pe53c8fff2f)" d="M 358.688422 307.670394 
L 366.65558 307.670394 
L 366.65558 307.649345 
L 358.688422 307.649345 
z
" style="fill:#4c72b0;opacity:0.4;"/>
   </g>
   <g id="patch_40">
    <path clip-path="url(#pe53c8fff2f)" d="M 366.65558 307.670394 
L 374.622737 307.670394 
L 374.622737 307.650996 
L 366.65558 307.650996 
z
" style="fill:#4c72b0;opacity:0.4;"/>
   </g>
   <g id="patch_41">
    <path clip-path="url(#pe53c8fff2f)" d="M 374.622737 307.670394 
L 382.589895 307.670394 
L 382.589895 307.653885 
L 374.622737 307.653885 
z
" style="fill:#4c72b0;opacity:0.4;"/>
   </g>
   <g id="patch_42">
    <path clip-path="url(#pe53c8fff2f)" d="M 382.589895 307.670394 
L 390.557053 307.670394 
L 390.557053 307.660076 
L 382.589895 307.660076 
z
" style="fill:#4c72b0;opacity:0.4;"/>
   </g>
   <g id="patch_43">
    <path clip-path="url(#pe53c8fff2f)" d="M 390.557053 307.670394 
L 398.52421 307.670394 
L 398.52421 307.667092 
L 390.557053 307.667092 
z
" style="fill:#4c72b0;opacity:0.4;"/>
   </g>
   <g id="patch_44">
    <path clip-path="url(#pe53c8fff2f)" d="M 398.52421 307.670394 
L 406.491368 307.670394 
L 406.491368 307.666267 
L 398.52421 307.666267 
z
" style="fill:#4c72b0;opacity:0.4;"/>
   </g>
   <g id="patch_45">
    <path clip-path="url(#pe53c8fff2f)" d="M 406.491368 307.670394 
L 414.458526 307.670394 
L 414.458526 307.667918 
L 406.491368 307.667918 
z
" style="fill:#4c72b0;opacity:0.4;"/>
   </g>
   <g id="patch_46">
    <path clip-path="url(#pe53c8fff2f)" d="M 414.458526 307.670394 
L 422.425684 307.670394 
L 422.425684 307.665441 
L 414.458526 307.665441 
z
" style="fill:#4c72b0;opacity:0.4;"/>
   </g>
   <g id="patch_47">
    <path clip-path="url(#pe53c8fff2f)" d="M 422.425684 307.670394 
L 430.392841 307.670394 
L 430.392841 307.668743 
L 422.425684 307.668743 
z
" style="fill:#4c72b0;opacity:0.4;"/>
   </g>
   <g id="patch_48">
    <path clip-path="url(#pe53c8fff2f)" d="M 430.392841 307.670394 
L 438.359999 307.670394 
L 438.359999 307.670394 
L 430.392841 307.670394 
z
" style="fill:#4c72b0;opacity:0.4;"/>
   </g>
   <g id="patch_49">
    <path clip-path="url(#pe53c8fff2f)" d="M 438.359999 307.670394 
L 446.327157 307.670394 
L 446.327157 307.669981 
L 438.359999 307.669981 
z
" style="fill:#4c72b0;opacity:0.4;"/>
   </g>
   <g id="patch_50">
    <path clip-path="url(#pe53c8fff2f)" d="M 446.327157 307.670394 
L 454.294314 307.670394 
L 454.294314 307.669981 
L 446.327157 307.669981 
z
" style="fill:#4c72b0;opacity:0.4;"/>
   </g>
   <g id="patch_51">
    <path clip-path="url(#pe53c8fff2f)" d="M 454.294314 307.670394 
L 462.261472 307.670394 
L 462.261472 307.670394 
L 454.294314 307.670394 
z
" style="fill:#4c72b0;opacity:0.4;"/>
   </g>
   <g id="patch_52">
    <path clip-path="url(#pe53c8fff2f)" d="M 462.261472 307.670394 
L 470.22863 307.670394 
L 470.22863 307.669156 
L 462.261472 307.669156 
z
" style="fill:#4c72b0;opacity:0.4;"/>
   </g>
   <g id="line2d_27">
    <path clip-path="url(#pe53c8fff2f)" d="M 68.140597 307.670394 
L 71.336015 307.517781 
L 74.531434 305.071596 
L 77.726853 286.728468 
L 80.922272 243.487479 
L 84.11769 182.432218 
L 87.313109 125.548746 
L 90.508528 73.112935 
L 93.703947 41.643853 
L 96.899365 27.662157 
L 100.094784 22.927537 
L 103.290203 27.584759 
L 106.485622 39.092577 
L 109.68104 54.068986 
L 112.876459 71.036086 
L 116.071878 88.626762 
L 119.267297 107.550662 
L 125.658134 143.251525 
L 128.853553 159.739523 
L 138.439809 201.53847 
L 141.635228 211.407042 
L 148.026065 229.692782 
L 151.221484 238.796261 
L 157.612322 253.157846 
L 160.80774 259.297317 
L 164.003159 264.699714 
L 167.198578 268.924752 
L 170.393997 274.458016 
L 173.589415 277.377528 
L 176.784834 280.551023 
L 179.980253 283.007715 
L 186.371091 288.7571 
L 189.566509 291.210378 
L 192.761928 292.158377 
L 195.957347 294.222839 
L 199.152766 295.383243 
L 202.348184 297.403372 
L 205.543603 297.661125 
L 208.739022 299.582846 
L 211.934441 300.095676 
L 215.129859 301.299896 
L 218.325278 301.395644 
L 221.520697 302.515167 
L 227.911534 303.520796 
L 240.693209 305.26928 
L 243.888628 305.410943 
L 247.084047 305.732482 
L 250.279466 305.715627 
L 253.474884 306.208717 
L 256.670303 306.272248 
L 259.865722 306.47347 
L 263.061141 306.479696 
L 266.256559 306.740239 
L 275.842816 306.945497 
L 285.429072 307.211843 
L 291.819909 307.299832 
L 301.406166 307.386954 
L 307.797003 307.470537 
L 314.187841 307.484414 
L 320.578678 307.551562 
L 355.728284 307.629287 
L 413.245822 307.670394 
L 432.418335 307.670394 
L 454.786266 307.644256 
L 464.372522 307.670394 
L 473.958778 307.601028 
L 473.958778 307.601028 
" style="fill:none;stroke:#4c72b0;stroke-linecap:round;stroke-width:1.75;"/>
   </g>
   <g id="patch_53">
    <path d="M 47.849688 307.670394 
L 47.849688 8.690394 
" style="fill:none;"/>
   </g>
   <g id="patch_54">
    <path d="M 494.249687 307.670394 
L 494.249687 8.690394 
" style="fill:none;"/>
   </g>
   <g id="patch_55">
    <path d="M 47.849687 307.670394 
L 494.249687 307.670394 
" style="fill:none;"/>
   </g>
   <g id="patch_56">
    <path d="M 47.849687 8.690394 
L 494.249687 8.690394 
" style="fill:none;"/>
   </g>
  </g>
 </g>
 <defs>
  <clipPath id="pe53c8fff2f">
   <rect height="298.98" width="446.4" x="47.849688" y="8.690394"/>
  </clipPath>
 </defs>
</svg>
