<svg baseProfile="full" height="200" version="1.1" width="600" xmlns="http://www.w3.org/2000/svg" xmlns:ev="http://www.w3.org/2001/xml-events" xmlns:xlink="http://www.w3.org/1999/xlink"><defs/><g id="lines" stroke="black"><line x1="37.5" x2="37.5" y1="60.0" y2="20.0"/><line x1="37.5" x2="56.25" y1="20.0" y2="20.0"/><line x1="75.0" x2="75.0" y1="60.0" y2="20.0"/><line x1="75.0" x2="56.25" y1="20.0" y2="20.0"/><line x1="112.5" x2="112.5" y1="60.0" y2="20.0"/><line x1="112.5" x2="112.5" y1="20.0" y2="20.0"/><line x1="112.5" x2="112.5" y1="100.0" y2="60.0"/><line x1="112.5" x2="112.5" y1="60.0" y2="60.0"/><line x1="328.125" x2="328.125" y1="60.0" y2="20.0"/><line x1="328.125" x2="328.125" y1="20.0" y2="20.0"/><line x1="225.0" x2="225.0" y1="100.0" y2="60.0"/><line x1="225.0" x2="328.125" y1="60.0" y2="60.0"/><line x1="281.25" x2="281.25" y1="100.0" y2="60.0"/><line x1="281.25" x2="328.125" y1="60.0" y2="60.0"/><line x1="262.5" x2="262.5" y1="140.0" y2="100.0"/><line x1="262.5" x2="281.25" y1="100.0" y2="100.0"/><line x1="262.5" x2="262.5" y1="180.0" y2="140.0"/><line x1="262.5" x2="262.5" y1="140.0" y2="140.0"/><line x1="300.0" x2="300.0" y1="140.0" y2="100.0"/><line x1="300.0" x2="281.25" y1="100.0" y2="100.0"/><line x1="300.0" x2="300.0" y1="180.0" y2="140.0"/><line x1="300.0" x2="300.0" y1="140.0" y2="140.0"/><line x1="356.25" x2="356.25" y1="100.0" y2="60.0"/><line x1="356.25" x2="328.125" y1="60.0" y2="60.0"/><line x1="337.5" x2="337.5" y1="140.0" y2="100.0"/><line x1="337.5" x2="356.25" y1="100.0" y2="100.0"/><line x1="337.5" x2="337.5" y1="180.0" y2="140.0"/><line x1="337.5" x2="337.5" y1="140.0" y2="140.0"/><line x1="375.0" x2="375.0" y1="140.0" y2="100.0"/><line x1="375.0" x2="356.25" y1="100.0" y2="100.0"/><line x1="375.0" x2="375.0" y1="180.0" y2="140.0"/><line x1="375.0" x2="375.0" y1="140.0" y2="140.0"/><line x1="431.25" x2="431.25" y1="100.0" y2="60.0"/><line x1="431.25" x2="328.125" y1="60.0" y2="60.0"/><line x1="431.25" x2="431.25" y1="140.0" y2="100.0"/><line x1="431.25" x2="431.25" y1="100.0" y2="100.0"/><line x1="412.5" x2="412.5" y1="180.0" y2="140.0"/><line x1="412.5" x2="431.25" y1="140.0" y2="140.0"/><line x1="450.0" x2="450.0" y1="180.0" y2="140.0"/><line x1="450.0" x2="431.25" y1="140.0" y2="140.0"/><line x1="487.5" x2="487.5" y1="60.0" y2="20.0"/><line x1="487.5" x2="506.25" y1="20.0" y2="20.0"/><line x1="525.0" x2="525.0" y1="60.0" y2="20.0"/><line x1="525.0" x2="506.25" y1="20.0" y2="20.0"/><line x1="525.0" x2="525.0" y1="100.0" y2="60.0"/><line x1="525.0" x2="525.0" y1="60.0" y2="60.0"/><line x1="525.0" x2="525.0" y1="140.0" y2="100.0"/><line x1="525.0" x2="525.0" y1="100.0" y2="100.0"/></g><g font-size="14" text-anchor="start"><text x="286.25" y="95.0">14</text><text x="305.0" y="135.0">23</text><text x="361.25" y="95.0">16</text><text x="380.0" y="135.0">21</text><text x="436.25" y="95.0">17</text><text x="530.0" y="55.0">8</text></g><g font-size="14" text-anchor="end"><text x="107.5" y="55.0">7</text><text x="323.125" y="55.0">9</text><text x="257.5" y="135.0">20</text><text x="332.5" y="135.0">18</text><text x="426.25" y="135.0">19</text><text x="520.0" y="95.0">15</text></g><g font-size="14" text-anchor="middle"><text x="56.25" y="15.0">0</text><text x="37.5" y="80.0">10</text><text x="75.0" y="80.0">11</text><text x="112.5" y="15.0">1</text><text x="112.5" y="120.0">13</text><text x="150.0" y="40.0">2</text><text x="187.5" y="40.0">3</text><text x="328.125" y="15.0">4</text><text x="225.0" y="120.0">12</text><text x="262.5" y="200.0">27</text><text x="300.0" y="200.0">26</text><text x="337.5" y="200.0">24</text><text x="375.0" y="200.0">29</text><text x="412.5" y="200.0">25</text><text x="450.0" y="200.0">28</text><text x="506.25" y="15.0">5</text><text x="487.5" y="80.0">6</text><text x="525.0" y="160.0">22</text></g><circle cx="56.25" cy="20.0" fill="black" r="3"/><circle cx="37.5" cy="60.0" fill="black" r="3"/><circle cx="75.0" cy="60.0" fill="black" r="3"/><circle cx="112.5" cy="20.0" fill="black" r="3"/><circle cx="112.5" cy="60.0" fill="black" r="3"/><circle cx="112.5" cy="100.0" fill="black" r="3"/><circle cx="150.0" cy="20.0" fill="black" r="3"/><circle cx="187.5" cy="20.0" fill="black" r="3"/><circle cx="328.125" cy="20.0" fill="black" r="3"/><circle cx="328.125" cy="60.0" fill="black" r="3"/><circle cx="225.0" cy="100.0" fill="black" r="3"/><circle cx="281.25" cy="100.0" fill="black" r="3"/><circle cx="262.5" cy="140.0" fill="black" r="3"/><circle cx="262.5" cy="180.0" fill="black" r="3"/><circle cx="300.0" cy="140.0" fill="black" r="3"/><circle cx="300.0" cy="180.0" fill="black" r="3"/><circle cx="356.25" cy="100.0" fill="black" r="3"/><circle cx="337.5" cy="140.0" fill="black" r="3"/><circle cx="337.5" cy="180.0" fill="black" r="3"/><circle cx="375.0" cy="140.0" fill="black" r="3"/><circle cx="375.0" cy="180.0" fill="black" r="3"/><circle cx="431.25" cy="100.0" fill="black" r="3"/><circle cx="431.25" cy="140.0" fill="black" r="3"/><circle cx="412.5" cy="180.0" fill="black" r="3"/><circle cx="450.0" cy="180.0" fill="black" r="3"/><circle cx="506.25" cy="20.0" fill="black" r="3"/><circle cx="487.5" cy="60.0" fill="black" r="3"/><circle cx="525.0" cy="60.0" fill="black" r="3"/><circle cx="525.0" cy="100.0" fill="black" r="3"/><circle cx="525.0" cy="140.0" fill="black" r="3"/><g alignment-baseline="middle" font-size="14" font-style="italic" text-anchor="start"/><g alignment-baseline="middle" font-size="14" font-style="italic" text-anchor="end"/></svg>