<svg baseProfile="full" height="500" version="1.1" width="600" xmlns="http://www.w3.org/2000/svg" xmlns:ev="http://www.w3.org/2001/xml-events" xmlns:xlink="http://www.w3.org/1999/xlink"><defs/><g id="lines" stroke="black"><line x1="90.0" x2="90.0" y1="282.25080385852095" y2="70.0"/><line x1="90.0" x2="181.875" y1="70.0" y2="70.0"/><line x1="60.0" x2="60.0" y1="480.0" y2="282.25080385852095"/><line x1="60.0" x2="90.0" y1="282.25080385852095" y2="282.25080385852095"/><line x1="120.0" x2="120.0" y1="480.0" y2="282.25080385852095"/><line x1="120.0" x2="90.0" y1="282.25080385852095" y2="282.25080385852095"/><line x1="273.75" x2="273.75" y1="265.1125401929261" y2="70.0"/><line x1="273.75" x2="181.875" y1="70.0" y2="70.0"/><line x1="180.0" x2="180.0" y1="480.0" y2="265.1125401929261"/><line x1="180.0" x2="273.75" y1="265.1125401929261" y2="265.1125401929261"/><line x1="367.5" x2="367.5" y1="382.44372990353696" y2="265.1125401929261"/><line x1="367.5" x2="273.75" y1="265.1125401929261" y2="265.1125401929261"/><line x1="285.0" x2="285.0" y1="454.951768488746" y2="382.44372990353696"/><line x1="285.0" x2="367.5" y1="382.44372990353696" y2="382.44372990353696"/><line x1="240.0" x2="240.0" y1="480.0" y2="454.951768488746"/><line x1="240.0" x2="285.0" y1="454.951768488746" y2="454.951768488746"/><line x1="330.0" x2="330.0" y1="465.4983922829582" y2="454.951768488746"/><line x1="330.0" x2="285.0" y1="454.951768488746" y2="454.951768488746"/><line x1="300.0" x2="300.0" y1="480.0" y2="465.4983922829582"/><line x1="300.0" x2="330.0" y1="465.4983922829582" y2="465.4983922829582"/><line x1="360.0" x2="360.0" y1="480.0" y2="465.4983922829582"/><line x1="360.0" x2="330.0" y1="465.4983922829582" y2="465.4983922829582"/><line x1="450.0" x2="450.0" y1="435.1768488745981" y2="382.44372990353696"/><line x1="450.0" x2="367.5" y1="382.44372990353696" y2="382.44372990353696"/><line x1="420.0" x2="420.0" y1="480.0" y2="435.1768488745981"/><line x1="420.0" x2="450.0" y1="435.1768488745981" y2="435.1768488745981"/><line x1="480.0" x2="480.0" y1="480.0" y2="435.1768488745981"/><line x1="480.0" x2="450.0" y1="435.1768488745981" y2="435.1768488745981"/></g><g font-size="14" text-anchor="start"><text x="278.75" y="260.1125401929261">13</text><text x="372.5" y="377.44372990353696">11</text><text x="335.0" y="460.4983922829582">8</text><text x="455.0" y="430.1768488745981">10</text></g><g font-size="14" text-anchor="end"><text x="85.0" y="277.25080385852095">12</text><text x="280.0" y="449.951768488746">9</text></g><g font-size="14" text-anchor="middle"><text x="181.875" y="65.0">14</text><text x="60.0" y="500.0">3</text><text x="120.0" y="500.0">7</text><text x="180.0" y="500.0">0</text><text x="240.0" y="500.0">1</text><text x="300.0" y="500.0">2</text><text x="360.0" y="500.0">6</text><text x="420.0" y="500.0">4</text><text x="480.0" y="500.0">5</text></g><circle cx="181.875" cy="70.0" fill="black" r="3"/><circle cx="90.0" cy="282.25080385852095" fill="black" r="3"/><circle cx="60.0" cy="480.0" fill="black" r="3"/><circle cx="120.0" cy="480.0" fill="black" r="3"/><circle cx="273.75" cy="265.1125401929261" fill="black" r="3"/><circle cx="180.0" cy="480.0" fill="black" r="3"/><circle cx="367.5" cy="382.44372990353696" fill="black" r="3"/><circle cx="285.0" cy="454.951768488746" fill="black" r="3"/><circle cx="240.0" cy="480.0" fill="black" r="3"/><circle cx="330.0" cy="465.4983922829582" fill="black" r="3"/><circle cx="300.0" cy="480.0" fill="black" r="3"/><circle cx="360.0" cy="480.0" fill="black" r="3"/><circle cx="450.0" cy="435.1768488745981" fill="black" r="3"/><circle cx="420.0" cy="480.0" fill="black" r="3"/><circle cx="480.0" cy="480.0" fill="black" r="3"/><g alignment-baseline="middle" font-size="14" font-style="italic" text-anchor="start"><text x="372.5" y="328.27813504823155">1</text></g><g alignment-baseline="middle" font-size="14" font-style="italic" text-anchor="end"><text x="176.875" y="57.83333333333333">0</text><text x="176.875" y="41.166666666666664">2</text><text x="175.0" y="377.05627009646304">3</text></g><rect fill="red" height="6" width="6" x="178.875" y="50.33333333333333"/><rect fill="red" height="6" width="6" x="178.875" y="33.666666666666664"/><rect fill="red" height="6" width="6" x="364.5" y="320.77813504823155"/><rect fill="red" height="6" width="6" x="177.0" y="369.55627009646304"/></svg>